<svg xmlns="http://www.w3.org/2000/svg" viewBox="0 0 660 1912.8"><defs><style>.cls-1{fill:#5e6614;}.cls-2{fill:#555912;}.cls-3{fill:#4c4b11;}.cls-4{fill:#433e10;}.cls-5{fill:#3a310e;}.cls-6{fill:#31230d;}.cls-7{fill:#28160b;}.cls-8{fill:#25140a;}.cls-9{fill:#221309;}.cls-10{fill:#1f1109;}.cls-11{fill:#1c0f08;}.cls-12{fill:#190e07;}.cls-13{fill:#160c06;}</style></defs><title>2</title><g id="Layer_2" data-name="Layer 2"><g id="Chão"><rect class="cls-1" width="660" height="1140"/><polygon class="cls-2" points="0 2.14 0.94 2.14 1.59 2.85 2.42 2.85 3.32 1.89 3.98 1.89 5.23 3.2 5.89 3.2 6.75 2.28 7.49 2.28 9.89 4.76 10.51 4.76 13.3 1.89 13.96 1.89 15.29 3.28 15.83 3.28 16.48 2.58 17.27 2.58 17.77 3.12 18.55 3.12 19.85 1.76 20.55 1.76 21.84 3.12 22.51 3.12 22.92 2.66 23.72 2.66 25.81 4.83 26.58 4.83 29.39 1.93 29.93 1.93 31.31 3.37 32.13 3.37 33.28 2.16 33.9 2.16 36.53 4.87 37.31 4.87 39.61 2.49 40.32 2.49 40.66 2.89 41.49 2.89 42.56 1.76 43.47 1.76 44.58 2.93 45.37 2.93 46.13 2.12 46.75 2.12 49.47 4.93 50.26 4.93 53.34 1.76 54.16 1.76 56.01 3.68 56.88 3.68 57.29 3.22 58.33 3.22 59.15 4.1 59.97 4.1 62.11 1.89 62.78 1.89 63.74 2.91 64.49 2.91 65.23 2.12 65.85 2.12 68.79 5.14 69.54 5.14 71.53 3.08 72.28 3.08 72.98 3.83 73.64 3.83 75.16 2.24 75.99 2.24 77.97 4.28 78.55 4.28 80.98 1.78 81.77 1.78 83.9 3.97 84.62 3.97 86.32 2.21 87.14 2.21 89.13 4.26 90.05 4.26 91.72 2.53 92.62 2.53 93.08 3.03 94.09 3.03 94.76 2.3 95.72 2.3 98.82 5.49 99.39 5.49 102.03 2.78 102.93 2.78 103.96 3.86 104.92 3.86 107.1 1.61 107.56 1.61 110.1 4.22 110.94 4.22 112.66 2.44 113.34 2.44 113.86 3.01 114.81 3.01 115.91 1.86 116.98 1.86 120.28 5.21 121.18 5.21 124.08 2.22 124.73 2.22 125.04 2.58 125.89 2.58 126.55 1.87 127.33 1.87 129.36 3.96 130.06 3.96 131.99 1.97 132.69 1.97 135.9 5.25 136.22 5.25 139.63 1.76 140.31 1.76 142.38 3.89 142.75 3.89 143.53 3.07 144.37 3.07 144.87 3.61 145.3 3.61 147.09 1.76 147.71 1.76 148.25 2.35 148.9 2.35 149.09 2.11 149.69 2.11 152.76 5.25 153.5 5.25 156.92 1.76 157.65 1.76 158.21 2.36 159.05 2.36 159.43 1.94 160.27 1.94 162.35 4.08 163.28 4.08 163.99 3.33 164.81 3.33 165.39 3.96 166.21 3.96 167.96 2.15 168.56 2.15 169.12 2.76 169.78 2.76 170.83 1.67 171.7 1.67 175.23 5.26 175.91 5.26 179.26 1.86 179.99 1.86 181.87 3.79 182.63 3.79 184.06 2.32 184.73 2.32 185.95 3.58 186.74 3.58 188.18 2.1 188.8 2.1 189.56 2.9 190.21 2.9 190.63 2.44 191.42 2.44 194.08 5.15 194.82 5.15 196.98 2.94 197.77 2.94 198.79 4.01 199.72 4.01 201.52 2.17 202.15 2.17 205.21 5.28 205.95 5.28 208.64 2.53 209.32 2.53 210.04 3.29 210.81 3.29 211.24 2.82 211.9 2.82 212.73 3.69 213.58 3.69 215.56 1.67 216.57 1.67 220.23 5.37 220.94 5.37 224.39 1.87 224.99 1.87 226.73 3.65 227.27 3.65 227.84 3.04 228.47 3.04 229.2 3.82 229.94 3.82 231.23 2.48 232.05 2.48 232.38 2.86 233.04 2.86 233.87 1.99 234.64 1.99 235.98 3.37 236.61 3.37 238.18 1.76 239.03 1.76 242.09 4.87 242.8 4.87 245.54 2.08 246.33 2.08 247.57 3.36 248.17 3.36 249.55 1.94 250.51 1.94 252.11 3.58 253.1 3.58 254.98 1.67 255.95 1.67 259.16 4.92 260.03 4.92 263.03 1.89 263.66 1.89 265.43 3.69 266.36 3.69 267.59 2.43 268.32 2.43 269.09 3.23 269.72 3.23 270.94 1.99 271.84 1.99 274.79 4.97 275.64 4.97 278.92 1.67 279.91 1.67 282.27 4.05 282.98 4.05 284.51 2.48 285.28 2.48 287.09 4.33 287.75 4.33 290.22 1.83 290.99 1.83 291.53 2.42 292.58 2.42 292.93 2.03 293.72 2.03 296.77 5.1 297.45 5.1 300.76 1.76 301.58 1.76 302.63 2.85 303.37 2.85 304.57 1.61 305.31 1.61 306.81 3.14 307.61 3.14 307.9 2.8 308.62 2.8 309.46 3.68 310.42 3.68 312.34 1.74 313.39 1.74 315.97 4.35 316.96 4.35 319.29 2 320.03 2 323.59 5.58 324.36 5.58 327.07 2.85 327.92 2.85 328.2 3.17 329.06 3.17 330.17 2.03 331.05 2.03 331.34 1.69 332 1.69 332.59 2.32 333.36 2.32 333.81 2.8 334.61 2.8 335.63 1.75 336.29 1.75 337.71 3.19 338.34 3.19 338.71 2.76 339.35 2.76 342.06 5.47 342.94 5.47 346.72 1.69 347.52 1.69 348.08 2.28 348.7 2.28 349.04 1.92 349.97 1.92 352.07 4.03 353.04 4.03 354.67 2.39 355.63 2.39 356.48 3.26 357.3 3.26 357.86 2.68 358.66 2.68 360.54 4.58 361.31 4.58 363.94 1.94 364.79 1.94 365.96 3.14 366.73 3.14 367.22 2.62 368.3 2.62 371.39 5.7 372.47 5.7 376.18 2 376.87 2 378.75 3.89 379.66 3.89 380.15 3.37 380.95 3.37 381.61 4.05 382.52 4.05 384.79 1.78 385.65 1.78 386.88 3.03 387.74 3.03 388.72 2.03 389.46 2.03 391.43 4 392.51 4 394.68 1.83 395.48 1.83 398.87 5.2 399.73 5.2 402.91 2.03 403.99 2.03 406.22 4.25 406.97 4.25 407.81 3.39 408.5 3.39 409.02 3.94 409.82 3.94 411.48 2.28 412.28 2.28 414.34 4.33 415.37 4.33 417.82 1.89 418.51 1.89 419.49 2.89 420.52 2.89 421.33 2.05 422.13 2.05 424.45 4.36 425.25 4.36 426.49 3.12 427.29 3.12 427.8 3.66 428.61 3.66 430.5 1.78 431.36 1.78 435.01 5.39 435.87 5.39 439.36 1.94 440.11 1.94 441.04 2.89 441.84 2.89 442.82 1.89 443.57 1.89 446.03 4.33 446.84 4.33 448.94 2.25 449.69 2.25 450.22 2.8 451.08 2.8 451.87 2 452.79 2 455 4.19 455.92 4.19 456.68 3.41 457.43 3.41 457.91 3.92 459.11 3.92 460.46 2.55 461.33 2.55 462.29 3.53 463.21 3.53 464.57 2.17 465.22 2.17 468.54 5.43 469.61 5.43 473.25 1.85 474.12 1.85 475.72 3.43 476.48 3.43 477.96 1.95 478.64 1.95 479.38 2.7 479.97 2.7 480.45 2.2 481.17 2.2 482.61 3.64 483.59 3.64 484.26 2.95 485.32 2.95 487.13 4.74 487.85 4.74 490.61 2.03 491.46 2.03 493.62 4.16 494.35 4.16 496.04 2.49 496.97 2.49 497.7 3.24 498.48 3.24 498.92 2.78 499.75 2.78 501.13 4.16 502.03 4.16 504.04 2.18 504.85 2.18 506.09 3.41 506.81 3.41 508.43 1.82 509.19 1.82 512.91 5.45 513.68 5.45 517.16 2.05 517.84 2.05 519.01 3.22 519.83 3.22 521.2 1.87 521.97 1.87 524.74 4.55 525.59 4.55 527.41 2.76 528.35 2.76 528.77 3.2 529.64 3.2 531.25 1.61 532.35 1.61 534.56 3.76 535.29 3.76 537.35 1.74 538.34 1.74 542.35 5.62 543.25 5.62 546.81 2.18 547.65 2.18 548.34 2.87 549.24 2.87 550.42 1.71 551.21 1.71 553.48 3.92 554.26 3.92 556.14 2.1 556.86 2.1 558.44 3.64 559.26 3.64 559.66 3.22 560.51 3.22 561.07 3.79 561.89 3.79 563.51 2.22 564.01 2.22 564.41 2.64 565.11 2.64 565.96 1.8 566.66 1.8 568.66 3.73 569.57 3.73 570.63 2.7 571.53 2.7 572.44 3.6 573.26 3.6 575.23 1.71 576.13 1.71 580 5.39 580.79 5.39 584.38 1.94 585.12 1.94 586.13 2.93 586.92 2.93 588.12 1.76 588.8 1.76 592.19 4.99 593.13 4.99 595.03 3.18 596.03 3.18 597.34 4.45 598.04 4.45 600.58 2.05 601.34 2.05 602.19 2.89 602.9 2.89 604.07 1.76 604.83 1.76 607.03 3.86 607.87 3.86 609.88 1.96 610.57 1.96 611.22 2.6 612.01 2.6 612.84 1.79 613.53 1.79 615.25 3.43 615.9 3.43 617.42 2 618.05 2 621.86 5.55 622.54 5.55 626.67 1.74 627.39 1.74 629.68 3.86 630.52 3.86 632.42 2.1 633.26 2.1 634.68 3.43 635.61 3.43 636.28 2.78 636.86 2.78 638.94 4.7 639.76 4.7 642.66 2.05 643.32 2.05 644.92 3.51 645.65 3.51 646.42 2.78 647.14 2.78 648.13 3.69 648.84 3.69 650.71 2 651.5 2 654.53 4.7 655.3 4.7 658.55 1.82 659.46 1.82 659.46 4.72 660 7.4 660 1140 0 1140 0 2.14"/><polygon class="cls-3" points="0 4.28 1.34 4.28 1.87 5.69 3.05 5.69 3.77 3.77 4.73 3.77 5.72 6.4 6.68 6.4 7.37 4.57 8.44 4.57 10.35 9.53 11.25 9.53 13.48 3.77 14.43 3.77 15.5 6.57 16.28 6.57 16.8 5.15 17.93 5.15 18.33 6.23 19.46 6.23 20.49 3.52 21.51 3.52 22.54 6.23 23.5 6.23 23.83 5.32 24.97 5.32 26.65 9.65 27.76 9.65 30.01 3.86 30.79 3.86 31.89 6.73 33.07 6.73 33.99 4.32 34.89 4.32 36.99 9.73 38.12 9.73 39.96 4.98 40.97 4.98 41.25 5.78 42.44 5.78 43.29 3.52 44.6 3.52 45.48 5.86 46.61 5.86 47.22 4.23 48.12 4.23 50.3 9.86 51.43 9.86 53.88 3.52 55.07 3.52 56.55 7.36 57.8 7.36 58.13 6.44 59.6 6.44 60.26 8.19 61.45 8.19 63.16 3.77 64.11 3.77 64.89 5.82 65.96 5.82 66.55 4.23 67.45 4.23 69.8 10.28 70.88 10.28 72.47 6.15 73.54 6.15 74.1 7.65 75.06 7.65 76.27 4.48 77.46 4.48 79.04 8.57 79.88 8.57 81.83 3.55 82.96 3.55 84.66 7.94 85.7 7.94 87.06 4.41 88.22 4.41 89.82 8.53 91.14 8.53 92.48 5.05 93.77 5.05 94.13 6.05 95.57 6.05 96.11 4.61 97.47 4.61 99.96 10.97 100.78 10.97 102.89 5.55 104.18 5.55 105 7.72 106.37 7.72 108.12 3.22 108.78 3.22 110.82 8.44 112.02 8.44 113.39 4.89 114.37 4.89 114.79 6.03 116.15 6.03 117.03 3.72 118.55 3.72 121.23 10.41 122.51 10.41 124.79 4.44 125.73 4.44 125.98 5.16 127.19 5.16 127.72 3.75 128.85 3.75 130.47 7.91 131.48 7.91 133.02 3.94 134.04 3.94 136.61 10.5 137.08 10.5 139.81 3.52 140.78 3.52 142.44 7.78 142.99 7.78 143.61 6.14 144.81 6.14 145.21 7.22 145.84 7.22 147.27 3.52 148.17 3.52 148.6 4.69 149.54 4.69 149.69 4.22 150.55 4.22 153.01 10.5 154.06 10.5 156.8 3.52 157.85 3.52 158.3 4.72 159.51 4.72 159.81 3.89 161.02 3.89 162.68 8.16 164.01 8.16 164.57 6.66 165.75 6.66 166.21 7.91 167.38 7.91 168.78 4.3 169.65 4.3 170.1 5.53 171.04 5.53 171.88 3.33 173.13 3.33 175.95 10.53 176.93 10.53 179.6 3.72 180.66 3.72 182.16 7.58 183.26 7.58 184.4 4.64 185.37 4.64 186.34 7.16 187.47 7.16 188.63 4.19 189.53 4.19 190.13 5.8 191.07 5.8 191.41 4.89 192.54 4.89 194.66 10.3 195.72 10.3 197.45 5.89 198.58 5.89 199.4 8.03 200.73 8.03 202.17 4.33 203.07 4.33 205.52 10.55 206.57 10.55 208.73 5.05 209.71 5.05 210.29 6.58 211.38 6.58 211.73 5.64 212.67 5.64 213.33 7.39 214.54 7.39 216.13 3.33 217.57 3.33 220.5 10.75 221.52 10.75 224.28 3.75 225.14 3.75 226.53 7.3 227.32 7.3 227.77 6.08 228.67 6.08 229.26 7.64 230.31 7.64 231.35 4.97 232.53 4.97 232.79 5.72 233.73 5.72 234.4 3.97 235.49 3.97 236.57 6.75 237.47 6.75 238.73 3.52 239.94 3.52 242.39 9.73 243.41 9.73 245.6 4.16 246.73 4.16 247.72 6.72 248.58 6.72 249.69 3.89 251.06 3.89 252.34 7.16 253.75 7.16 255.25 3.33 256.62 3.33 259.19 9.83 260.44 9.83 262.84 3.77 263.74 3.77 265.16 7.39 266.49 7.39 267.47 4.86 268.53 4.86 269.14 6.47 270.04 6.47 271.01 3.97 272.31 3.97 274.66 9.94 275.88 9.94 278.5 3.33 279.91 3.33 281.8 8.11 282.82 8.11 284.04 4.97 285.14 4.97 286.59 8.66 287.53 8.66 289.51 3.66 290.61 3.66 291.04 4.83 292.53 4.83 292.81 4.05 293.95 4.05 296.38 10.19 297.36 10.19 300.01 3.52 301.18 3.52 302.02 5.69 303.08 5.69 304.04 3.22 305.1 3.22 306.3 6.28 307.44 6.28 307.67 5.61 308.69 5.61 309.37 7.36 310.74 7.36 312.27 3.47 313.76 3.47 315.83 8.69 317.24 8.69 319.1 4 320.16 4 323 11.15 324.1 11.15 326.27 5.69 327.49 5.69 327.71 6.33 328.93 6.33 329.82 4.05 331.07 4.05 331.31 3.39 332.25 3.39 332.72 4.64 333.82 4.64 334.18 5.61 335.32 5.61 336.14 3.5 337.08 3.5 338.22 6.39 339.12 6.39 339.4 5.53 340.3 5.53 342.5 10.94 343.75 10.94 346.78 3.39 347.92 3.39 348.36 4.57 349.26 4.57 349.53 3.83 350.86 3.83 352.54 8.07 353.91 8.07 355.22 4.78 356.59 4.78 357.26 6.53 358.44 6.53 358.88 5.36 360.02 5.36 361.53 9.15 362.63 9.15 364.73 3.89 365.95 3.89 366.88 6.28 367.99 6.28 368.38 5.23 369.91 5.23 372.38 11.4 373.91 11.4 376.88 4 377.86 4 379.36 7.78 380.66 7.78 381.05 6.73 382.19 6.73 382.72 8.11 384.02 8.11 385.83 3.55 387.05 3.55 388.04 6.07 389.26 6.07 390.04 4.05 391.1 4.05 392.68 8 394.21 8 395.94 3.66 397.08 3.66 399.79 10.4 401.01 10.4 403.56 4.05 405.1 4.05 406.88 8.5 407.94 8.5 408.61 6.78 409.6 6.78 410.02 7.89 411.16 7.89 412.49 4.55 413.63 4.55 415.27 8.66 416.73 8.66 418.69 3.77 419.68 3.77 420.46 5.78 421.92 5.78 422.56 4.11 423.71 4.11 425.56 8.72 426.7 8.72 427.69 6.23 428.83 6.23 429.24 7.32 430.39 7.32 431.9 3.55 433.12 3.55 436.04 10.78 437.26 10.78 440.06 3.89 441.12 3.89 441.86 5.78 443.01 5.78 443.79 3.77 444.86 3.77 446.83 8.66 447.97 8.66 449.65 4.5 450.72 4.5 451.14 5.61 452.36 5.61 452.99 4 454.3 4 456.06 8.39 457.37 8.39 457.98 6.82 459.04 6.82 459.43 7.83 461.12 7.83 462.2 5.11 463.43 5.11 464.2 7.05 465.5 7.05 466.59 4.33 467.52 4.33 470.17 10.86 471.69 10.86 474.6 3.69 475.84 3.69 477.12 6.86 478.2 6.86 479.39 3.9 480.36 3.9 480.94 5.4 481.79 5.4 482.18 4.4 483.2 4.4 484.36 7.28 485.74 7.28 486.27 5.9 487.77 5.9 489.22 9.48 490.25 9.48 492.46 4.07 493.66 4.07 495.39 8.32 496.42 8.32 497.77 4.98 499.09 4.98 499.68 6.48 500.79 6.48 501.13 5.57 502.32 5.57 503.43 8.32 504.69 8.32 506.3 4.36 507.45 4.36 508.44 6.82 509.47 6.82 510.76 3.65 511.84 3.65 514.82 10.9 515.91 10.9 518.69 4.11 519.66 4.11 520.6 6.44 521.75 6.44 522.85 3.73 523.95 3.73 526.15 9.11 527.36 9.11 528.82 5.53 530.15 5.53 530.48 6.4 531.71 6.4 533 3.22 534.55 3.22 536.31 7.53 537.35 7.53 539 3.48 540.39 3.48 543.6 11.23 544.87 11.23 547.71 4.36 548.91 4.36 549.45 5.73 550.72 5.73 551.67 3.41 552.78 3.41 554.6 7.83 555.71 7.83 557.21 4.19 558.24 4.19 559.5 7.28 560.66 7.28 560.98 6.44 562.17 6.44 562.63 7.58 563.78 7.58 565.07 4.44 565.79 4.44 566.11 5.28 567.11 5.28 567.78 3.61 568.78 3.61 570.38 7.47 571.65 7.47 572.5 5.4 573.78 5.4 574.5 7.19 575.66 7.19 577.23 3.41 578.5 3.41 581.6 10.78 582.71 10.78 585.59 3.89 586.63 3.89 587.44 5.86 588.56 5.86 589.51 3.52 590.47 3.52 593.19 9.98 594.51 9.98 596.03 6.36 597.42 6.36 598.47 8.9 599.47 8.9 601.5 4.11 602.57 4.11 603.25 5.78 604.26 5.78 605.19 3.52 606.27 3.52 608.03 7.72 609.19 7.72 610.81 3.91 611.77 3.91 612.29 5.19 613.41 5.19 614.07 3.58 615.04 3.58 616.42 6.86 617.34 6.86 618.55 4 619.44 4 622.49 11.11 623.45 11.11 626.75 3.47 627.76 3.47 629.6 7.72 630.76 7.72 632.28 4.19 633.46 4.19 634.6 6.86 635.89 6.86 636.42 5.57 637.24 5.57 638.9 9.4 640.04 9.4 642.36 4.11 643.29 4.11 644.57 7.03 645.59 7.03 646.2 5.57 647.21 5.57 648.01 7.39 648.99 7.39 650.48 4 651.58 4 654.01 9.4 655.08 9.4 657.67 3.64 658.92 3.64 658.92 6.54 660 8.69 660 1140 0 1140 0 4.28"/><polygon class="cls-4" points="0 6.41 1.75 6.41 2.14 8.54 3.69 8.54 4.23 5.66 5.47 5.66 6.22 9.6 7.47 9.6 7.98 6.85 9.38 6.85 10.82 14.29 11.99 14.29 13.66 5.66 14.91 5.66 15.71 9.85 16.73 9.85 17.12 7.72 18.6 7.72 18.89 9.35 20.36 9.35 21.14 5.29 22.46 5.29 23.24 9.35 24.49 9.35 24.73 7.97 26.23 7.97 27.48 14.47 28.93 14.47 30.62 5.79 31.64 5.79 32.47 10.1 34.01 10.1 34.7 6.47 35.88 6.47 37.45 14.6 38.92 14.6 40.3 7.47 41.62 7.47 41.83 8.66 43.38 8.66 44.02 5.29 45.72 5.29 46.38 8.79 47.85 8.79 48.31 6.35 49.48 6.35 51.12 14.79 52.59 14.79 54.44 5.29 55.98 5.29 57.09 11.04 58.71 11.04 58.96 9.66 60.88 9.66 61.37 12.29 62.92 12.29 64.2 5.66 65.45 5.66 66.03 8.72 67.43 8.72 67.87 6.35 69.04 6.35 70.81 15.41 72.21 15.41 73.4 9.22 74.8 9.22 75.22 11.47 76.47 11.47 77.38 6.72 78.93 6.72 80.11 12.85 81.21 12.85 82.67 5.33 84.15 5.33 85.42 11.91 86.77 11.91 87.79 6.62 89.31 6.62 90.51 12.79 92.23 12.79 93.23 7.58 94.91 7.58 95.18 9.08 97.05 9.08 97.46 6.91 99.23 6.91 101.09 16.45 102.17 16.45 103.75 8.33 105.42 8.33 106.04 11.58 107.82 11.58 109.13 4.83 110 4.83 111.53 12.66 113.1 12.66 114.13 7.33 115.4 7.33 115.72 9.04 117.49 9.04 118.15 5.58 120.12 5.58 122.17 15.62 123.84 15.62 125.51 6.66 126.74 6.66 126.92 7.75 128.5 7.75 128.89 5.62 130.37 5.62 131.58 11.87 132.9 11.87 134.06 5.91 135.38 5.91 137.31 15.75 137.93 15.75 139.98 5.29 141.25 5.29 142.5 11.66 143.22 11.66 143.68 9.2 145.26 9.2 145.56 10.83 146.38 10.83 147.45 5.29 148.63 5.29 148.95 7.04 150.17 7.04 150.29 6.33 151.41 6.33 153.26 15.75 154.63 15.75 156.68 5.29 158.06 5.29 158.39 7.08 159.97 7.08 160.19 5.83 161.76 5.83 163.01 12.25 164.74 12.25 165.16 10 166.69 10 167.03 11.87 168.56 11.87 169.61 6.45 170.73 6.45 171.07 8.29 172.3 8.29 172.93 5 174.55 5 176.67 15.79 177.95 15.79 179.95 5.58 181.33 5.58 182.45 11.37 183.88 11.37 184.73 6.95 186.01 6.95 186.74 10.75 188.21 10.75 189.07 6.29 190.25 6.29 190.71 8.7 191.93 8.7 192.18 7.33 193.65 7.33 195.25 15.45 196.62 15.45 197.92 8.83 199.39 8.83 200.01 12.04 201.74 12.04 202.81 6.5 203.99 6.5 205.83 15.83 207.2 15.83 208.82 7.58 210.09 7.58 210.53 9.87 211.95 9.87 212.21 8.45 213.44 8.45 213.94 11.08 215.51 11.08 216.7 5 218.58 5 220.77 16.12 222.09 16.12 224.17 5.62 225.3 5.62 226.34 10.95 227.36 10.95 227.7 9.12 228.88 9.12 229.32 11.45 230.69 11.45 231.47 7.45 233 7.45 233.2 8.58 234.42 8.58 234.92 5.95 236.35 5.95 237.16 10.12 238.33 10.12 239.27 5.29 240.85 5.29 242.69 14.6 244.01 14.6 245.66 6.25 247.13 6.25 247.87 10.08 249 10.08 249.83 5.83 251.6 5.83 252.57 10.75 254.39 10.75 255.52 5 257.3 5 259.23 14.75 260.85 14.75 262.65 5.66 263.83 5.66 264.89 11.08 266.62 11.08 267.35 7.29 268.73 7.29 269.19 9.7 270.37 9.7 271.1 5.95 272.77 5.95 274.54 14.91 276.12 14.91 278.08 5 279.91 5 281.33 12.16 282.65 12.16 283.57 7.45 285 7.45 286.09 13 287.32 13 288.8 5.5 290.23 5.5 290.55 7.25 292.48 7.25 292.69 6.08 294.17 6.08 296 15.29 297.27 15.29 299.26 5.29 300.78 5.29 301.41 8.54 302.79 8.54 303.51 4.83 304.89 4.83 305.79 9.41 307.27 9.41 307.44 8.41 308.77 8.41 309.27 11.04 311.05 11.04 312.2 5.2 314.13 5.2 315.68 13.04 317.51 13.04 318.91 6 320.29 6 322.42 16.73 323.85 16.73 325.47 8.54 327.05 8.54 327.22 9.5 328.8 9.5 329.47 6.08 331.1 6.08 331.27 5.08 332.5 5.08 332.85 6.95 334.28 6.95 334.55 8.41 336.03 8.41 336.65 5.25 337.88 5.25 338.73 9.58 339.91 9.58 340.08 8.29 341.26 8.29 342.94 16.41 344.56 16.41 346.83 5.08 348.31 5.08 348.64 6.85 349.82 6.85 350.02 5.75 351.75 5.75 353.01 12.1 354.79 12.1 355.77 7.16 357.55 7.16 358.05 9.79 359.58 9.79 359.91 8.04 361.39 8.04 362.52 13.72 363.95 13.72 365.53 5.83 367.11 5.83 367.81 9.41 369.24 9.41 369.53 7.85 371.51 7.85 373.37 17.1 375.35 17.1 377.58 6 378.86 6 379.98 11.66 381.66 11.66 381.96 10.1 383.44 10.1 383.83 12.16 385.51 12.16 386.88 5.33 388.45 5.33 389.2 9.1 390.78 9.1 391.36 6.08 392.74 6.08 393.93 12 395.91 12 397.21 5.5 398.69 5.5 400.72 15.6 402.3 15.6 404.21 6.08 406.2 6.08 407.53 12.75 408.91 12.75 409.42 10.16 410.7 10.16 411.01 11.83 412.49 11.83 413.49 6.83 414.97 6.83 416.2 13 418.09 13 419.56 5.66 420.84 5.66 421.43 8.66 423.31 8.66 423.8 6.16 425.28 6.16 426.67 13.08 428.15 13.08 428.89 9.35 430.37 9.35 430.68 10.97 432.17 10.97 433.3 5.33 434.88 5.33 437.07 16.16 438.66 16.16 440.75 5.83 442.13 5.83 442.69 8.66 444.17 8.66 444.76 5.66 446.14 5.66 447.62 13 449.1 13 450.37 6.75 451.75 6.75 452.06 8.41 453.65 8.41 454.12 6 455.81 6 457.13 12.58 458.82 12.58 459.28 10.22 460.66 10.22 460.94 11.75 463.13 11.75 463.94 7.66 465.53 7.66 466.11 10.58 467.79 10.58 468.61 6.5 469.82 6.5 471.81 16.29 473.77 16.29 475.95 5.54 477.56 5.54 478.51 10.29 479.92 10.29 480.81 5.85 482.07 5.85 482.51 8.1 483.62 8.1 483.9 6.6 485.24 6.6 486.1 10.91 487.89 10.91 488.29 8.85 490.22 8.85 491.31 14.22 492.64 14.22 494.3 6.1 495.86 6.1 497.16 12.47 498.49 12.47 499.5 7.47 501.21 7.47 501.65 9.72 503.09 9.72 503.35 8.35 504.89 8.35 505.71 12.47 507.35 12.47 508.56 6.54 510.04 6.54 510.79 10.22 512.12 10.22 513.09 5.47 514.5 5.47 516.73 16.35 518.14 16.35 520.23 6.16 521.49 6.16 522.19 9.66 523.68 9.66 524.5 5.6 525.92 5.6 527.57 13.66 529.14 13.66 530.23 8.29 531.94 8.29 532.2 9.6 533.78 9.6 534.75 4.83 536.75 4.83 538.07 11.29 539.4 11.29 540.64 5.22 542.44 5.22 544.84 16.85 546.49 16.85 548.62 6.54 550.16 6.54 550.57 8.6 552.21 8.6 552.92 5.12 554.36 5.12 555.72 11.75 557.16 11.75 558.28 6.29 559.62 6.29 560.57 10.91 562.05 10.91 562.3 9.66 563.84 9.66 564.18 11.37 565.67 11.37 566.64 6.66 567.57 6.66 567.81 7.91 569.1 7.91 569.61 5.41 570.9 5.41 572.1 11.2 573.74 11.2 574.38 8.1 576.02 8.1 576.56 10.79 578.06 10.79 579.24 5.12 580.88 5.12 583.2 16.16 584.64 16.16 586.8 5.83 588.14 5.83 588.74 8.79 590.19 8.79 590.91 5.29 592.15 5.29 594.18 14.97 595.88 14.97 597.02 9.54 598.82 9.54 599.6 13.35 600.89 13.35 602.41 6.16 603.8 6.16 604.31 8.66 605.61 8.66 606.31 5.29 607.7 5.29 609.02 11.58 610.52 11.58 611.73 5.87 612.98 5.87 613.36 7.79 614.81 7.79 615.3 5.37 616.55 5.37 617.58 10.29 618.77 10.29 619.69 6 620.83 6 623.12 16.66 624.36 16.66 626.84 5.2 628.13 5.2 629.51 11.58 631.01 11.58 632.15 6.29 633.66 6.29 634.51 10.29 636.17 10.29 636.57 8.35 637.62 8.35 638.87 14.1 640.32 14.1 642.06 6.16 643.26 6.16 644.22 10.54 645.53 10.54 645.98 8.35 647.28 8.35 647.88 11.08 649.13 11.08 650.26 6 651.66 6 653.49 14.1 654.85 14.1 656.8 5.45 658.38 5.45 658.38 8.36 660 9.97 660 1140 0 1140 0 6.41"/><polygon class="cls-5" points="0 8.55 2.15 8.55 2.41 11.38 4.32 11.38 4.68 7.55 6.22 7.55 6.72 12.8 8.26 12.8 8.6 9.13 10.32 9.13 11.28 19.05 12.73 19.05 13.84 7.55 15.38 7.55 15.92 13.13 17.18 13.13 17.44 10.3 19.26 10.3 19.46 12.47 21.27 12.47 21.79 7.05 23.42 7.05 23.94 12.47 25.48 12.47 25.64 10.63 27.49 10.63 28.32 19.3 30.11 19.3 31.23 7.72 32.5 7.72 33.05 13.47 34.95 13.47 35.41 8.63 36.86 8.63 37.91 19.47 39.73 19.47 40.65 9.97 42.28 9.97 42.42 11.55 44.32 11.55 44.75 7.05 46.84 7.05 47.28 11.72 49.1 11.72 49.4 8.47 50.85 8.47 51.94 19.72 53.76 19.72 54.98 7.05 56.89 7.05 57.63 14.72 59.63 14.72 59.79 12.88 62.16 12.88 62.48 16.38 64.39 16.38 65.25 7.55 66.78 7.55 67.17 11.63 68.9 11.63 69.19 8.47 70.64 8.47 71.82 20.55 73.54 20.55 74.34 12.3 76.06 12.3 76.34 15.3 77.88 15.3 78.49 8.97 80.4 8.97 81.19 17.13 82.54 17.13 83.52 7.11 85.33 7.11 86.19 15.88 87.85 15.88 88.53 8.83 90.4 8.83 91.2 17.05 93.32 17.05 93.99 10.11 96.05 10.11 96.23 12.11 98.53 12.11 98.81 9.22 100.99 9.22 102.23 21.94 103.56 21.94 104.61 11.11 106.67 11.11 107.08 15.44 109.27 15.44 110.14 6.44 111.22 6.44 112.24 16.88 114.18 16.88 114.86 9.77 116.44 9.77 116.64 12.05 118.83 12.05 119.27 7.44 121.69 7.44 123.11 20.83 125.17 20.83 126.23 8.88 127.74 8.88 127.87 10.33 129.81 10.33 130.07 7.49 131.88 7.49 132.69 15.83 134.32 15.83 135.09 7.88 136.73 7.88 138.01 20.99 138.79 20.99 140.15 7.05 141.72 7.05 142.55 15.55 143.45 15.55 143.76 12.27 145.7 12.27 145.9 14.44 146.92 14.44 147.63 7.05 149.08 7.05 149.3 9.38 150.81 9.38 150.89 8.44 152.27 8.44 153.5 20.99 155.2 20.99 156.57 7.05 158.26 7.05 158.48 9.44 160.42 9.44 160.57 7.77 162.51 7.77 163.34 16.33 165.46 16.33 165.75 13.33 167.62 13.33 167.85 15.83 169.73 15.83 170.43 8.61 171.82 8.61 172.05 11.05 173.56 11.05 173.98 6.66 175.98 6.66 177.39 21.05 178.96 21.05 180.3 7.44 182 7.44 182.75 15.16 184.5 15.16 185.07 9.27 186.64 9.27 187.13 14.33 188.95 14.33 189.52 8.38 190.97 8.38 191.28 11.61 192.79 11.61 192.95 9.77 194.77 9.77 195.83 20.61 197.53 20.61 198.39 11.77 200.21 11.77 200.62 16.05 202.74 16.05 203.46 8.66 204.91 8.66 206.13 21.11 207.83 21.11 208.91 10.11 210.48 10.11 210.77 13.16 212.52 13.16 212.7 11.27 214.21 11.27 214.54 14.77 216.48 14.77 217.27 6.66 219.58 6.66 221.04 21.49 222.68 21.49 224.06 7.49 225.45 7.49 226.14 14.61 227.41 14.61 227.64 12.16 229.09 12.16 229.38 15.27 231.07 15.27 231.59 9.94 233.47 9.94 233.6 11.44 235.12 11.44 235.45 7.94 237.21 7.94 237.74 13.49 239.19 13.49 239.82 7.05 241.76 7.05 242.99 19.47 244.62 19.47 245.72 8.33 247.53 8.33 248.03 13.44 249.42 13.44 249.97 7.77 252.15 7.77 252.79 14.33 255.04 14.33 255.79 6.66 257.98 6.66 259.26 19.66 261.26 19.66 262.46 7.55 263.91 7.55 264.62 14.77 266.74 14.77 267.23 9.72 268.93 9.72 269.24 12.94 270.69 12.94 271.17 7.94 273.24 7.94 274.42 19.88 276.36 19.88 277.67 6.66 279.91 6.66 280.86 16.22 282.49 16.22 283.11 9.94 284.86 9.94 285.59 17.33 287.1 17.33 288.09 7.33 289.85 7.33 290.06 9.66 292.43 9.66 292.57 8.11 294.39 8.11 295.61 20.38 297.18 20.38 298.5 7.05 300.38 7.05 300.8 11.38 302.5 11.38 302.98 6.44 304.68 6.44 305.28 12.55 307.09 12.55 307.21 11.22 308.85 11.22 309.18 14.72 311.37 14.72 312.14 6.94 314.5 6.94 315.54 17.38 317.79 17.38 318.72 7.99 320.41 7.99 321.83 22.3 323.59 22.3 324.68 11.38 326.62 11.38 326.73 12.66 328.67 12.66 329.12 8.11 331.12 8.11 331.24 6.77 332.75 6.77 332.99 9.27 334.74 9.27 334.92 11.22 336.74 11.22 337.15 6.99 338.67 6.99 339.24 12.77 340.69 12.77 340.76 11.05 342.21 11.05 343.37 21.88 345.38 21.88 346.89 6.77 348.71 6.77 348.93 9.13 350.38 9.13 350.51 7.66 352.64 7.66 353.48 16.13 355.67 16.13 356.32 9.55 358.5 9.55 358.84 13.05 360.72 13.05 360.94 10.72 362.76 10.72 363.51 18.3 365.27 18.3 366.32 7.77 368.27 7.77 368.73 12.55 370.49 12.55 370.69 10.47 373.12 10.47 374.36 22.8 376.79 22.8 378.27 7.99 379.85 7.99 380.6 15.55 382.66 15.55 382.86 13.47 384.68 13.47 384.94 16.22 387.01 16.22 387.92 7.11 389.86 7.11 390.35 12.13 392.3 12.13 392.69 8.11 394.38 8.11 395.17 15.99 397.61 15.99 398.47 7.33 400.29 7.33 401.65 20.8 403.59 20.8 404.87 8.11 407.3 8.11 408.19 16.99 409.89 16.99 410.22 13.55 411.8 13.55 412.01 15.77 413.83 15.77 414.49 9.11 416.31 9.11 417.14 17.33 419.45 17.33 420.43 7.55 422.01 7.55 422.4 11.55 424.71 11.55 425.03 8.22 426.85 8.22 427.78 17.44 429.6 17.44 430.09 12.47 431.92 12.47 432.12 14.63 433.94 14.63 434.7 7.11 436.64 7.11 438.11 21.55 440.05 21.55 441.44 7.77 443.14 7.77 443.51 11.55 445.34 11.55 445.73 7.55 447.43 7.55 448.41 17.33 450.24 17.33 451.08 8.99 452.78 8.99 452.99 11.22 454.93 11.22 455.25 7.99 457.31 7.99 458.2 16.77 460.27 16.77 460.57 13.63 462.27 13.63 462.46 15.66 465.14 15.66 465.69 10.22 467.63 10.22 468.02 14.11 470.08 14.11 470.63 8.66 472.11 8.66 473.44 21.72 475.84 21.72 477.3 7.38 479.27 7.38 479.91 13.72 481.64 13.72 482.24 7.8 483.78 7.8 484.08 10.8 485.44 10.8 485.63 8.8 487.27 8.8 487.85 14.55 490.04 14.55 490.3 11.8 492.68 11.8 493.4 18.97 495.04 18.97 496.14 8.13 498.06 8.13 498.92 16.63 500.56 16.63 501.24 9.97 503.34 9.97 503.63 12.97 505.39 12.97 505.57 11.13 507.45 11.13 508 16.63 510.01 16.63 510.82 8.72 512.64 8.72 513.14 13.63 514.78 13.63 515.42 7.3 517.15 7.3 518.64 21.8 520.37 21.8 521.76 8.22 523.31 8.22 523.78 12.88 525.61 12.88 526.16 7.47 527.89 7.47 528.99 18.22 530.91 18.22 531.64 11.05 533.74 11.05 533.91 12.8 535.86 12.8 536.5 6.44 538.94 6.44 539.82 15.05 541.46 15.05 542.29 6.97 544.49 6.97 546.09 22.47 548.1 22.47 549.52 8.72 551.41 8.72 551.68 11.47 553.69 11.47 554.17 6.83 555.93 6.83 556.84 15.66 558.61 15.66 559.36 8.38 561 8.38 561.63 14.55 563.45 14.55 563.61 12.88 565.5 12.88 565.73 15.16 567.56 15.16 568.2 8.88 569.36 8.88 569.51 10.55 571.1 10.55 571.43 7.22 573.01 7.22 573.81 14.94 575.83 14.94 576.25 10.8 578.26 10.8 578.63 14.38 580.45 14.38 581.24 6.83 583.25 6.83 584.8 21.55 586.57 21.55 588 7.77 589.65 7.77 590.05 11.72 591.82 11.72 592.3 7.05 593.82 7.05 595.18 19.97 597.25 19.97 598.01 12.72 600.21 12.72 600.73 17.8 602.32 17.8 603.33 8.22 605.03 8.22 605.38 11.55 606.96 11.55 607.43 7.05 609.13 7.05 610.01 15.44 611.85 15.44 612.65 7.83 614.18 7.83 614.44 10.38 616.21 10.38 616.53 7.16 618.06 7.16 618.75 13.72 620.21 13.72 620.82 7.99 622.22 7.99 623.75 22.22 625.27 22.22 626.92 6.94 628.51 6.94 629.42 15.44 631.26 15.44 632.02 8.38 633.85 8.38 634.42 13.72 636.44 13.72 636.71 11.13 637.99 11.13 638.83 18.8 640.61 18.8 641.76 8.22 643.23 8.22 643.87 14.05 645.46 14.05 645.77 11.13 647.36 11.13 647.75 14.77 649.28 14.77 650.03 7.99 651.75 7.99 652.96 18.8 654.62 18.8 655.92 7.27 657.83 7.27 657.83 10.18 660 11.26 660 1140 0 1140 0 8.55"/><polygon class="cls-6" points="0 10.69 2.55 10.69 2.69 14.23 4.95 14.23 5.13 9.44 6.96 9.44 7.21 16 9.04 16 9.22 11.42 11.27 11.42 11.74 23.81 13.47 23.81 14.03 9.44 15.86 9.44 16.13 16.42 17.63 16.42 17.76 12.88 19.92 12.88 20.02 15.58 22.18 15.58 22.44 8.81 24.38 8.81 24.64 15.58 26.47 15.58 26.55 13.29 28.74 13.29 29.16 24.13 31.28 24.13 31.85 9.65 33.35 9.65 33.63 16.83 35.89 16.83 36.12 10.79 37.85 10.79 38.37 24.33 40.53 24.33 40.99 12.46 42.93 12.46 43 14.44 45.27 14.44 45.48 8.81 47.96 8.81 48.18 14.65 50.34 14.65 50.49 10.58 52.22 10.58 52.76 24.65 54.92 24.65 55.53 8.81 57.8 8.81 58.17 18.4 60.54 18.4 60.63 16.1 63.43 16.1 63.6 20.48 65.86 20.48 66.29 9.44 68.12 9.44 68.31 14.54 70.36 14.54 70.51 10.58 72.24 10.58 72.83 25.69 74.88 25.69 75.27 15.38 77.32 15.38 77.46 19.13 79.3 19.13 79.6 11.21 81.86 11.21 82.26 21.42 83.88 21.42 84.36 8.88 86.52 8.88 86.95 19.85 88.92 19.85 89.26 11.04 91.49 11.04 91.89 21.31 94.41 21.31 94.75 12.63 97.19 12.63 97.28 15.13 100.02 15.13 100.15 11.52 102.74 11.52 103.36 27.42 104.94 27.42 105.47 13.88 107.92 13.88 108.13 19.3 110.72 19.3 111.15 8.05 112.44 8.05 112.95 21.1 115.26 21.1 115.6 12.21 117.47 12.21 117.57 15.06 120.16 15.06 120.38 9.3 123.26 9.3 124.06 26.04 126.5 26.04 126.95 11.1 128.75 11.1 128.81 12.91 131.11 12.91 131.24 9.37 133.4 9.37 133.81 19.79 135.75 19.79 136.13 9.85 138.07 9.85 138.71 26.24 139.64 26.24 140.33 8.81 142.2 8.81 142.61 19.44 143.68 19.44 143.84 15.34 146.14 15.34 146.24 18.05 147.46 18.05 147.82 8.81 149.54 8.81 149.65 11.73 151.45 11.73 151.49 10.55 153.14 10.55 153.75 26.24 155.77 26.24 156.45 8.81 158.46 8.81 158.57 11.8 160.88 11.8 160.95 9.71 163.25 9.71 163.67 20.41 166.19 20.41 166.33 16.66 168.56 16.66 168.68 19.79 170.91 19.79 171.26 10.76 172.91 10.76 173.03 13.81 174.82 13.81 175.03 8.33 177.41 8.33 178.11 26.31 179.98 26.31 180.65 9.3 182.66 9.3 183.04 18.95 185.13 18.95 185.41 11.59 187.28 11.59 187.52 17.91 189.68 17.91 189.97 10.48 191.69 10.48 191.85 14.51 193.64 14.51 193.73 12.21 195.88 12.21 196.42 25.76 198.43 25.76 198.86 14.71 201.02 14.71 201.22 20.06 203.75 20.06 204.1 10.83 205.83 10.83 206.44 26.38 208.46 26.38 209 12.63 210.87 12.63 211.01 16.45 213.09 16.45 213.18 14.09 214.98 14.09 215.15 18.46 217.45 18.46 217.84 8.33 220.58 8.33 221.31 26.87 223.25 26.87 223.94 9.37 225.6 9.37 225.95 18.26 227.45 18.26 227.57 15.2 229.29 15.2 229.44 19.09 231.45 19.09 231.71 12.42 233.94 12.42 234.01 14.3 235.81 14.3 235.97 9.92 238.06 9.92 238.33 16.87 240.06 16.87 240.37 8.81 242.67 8.81 243.28 24.33 245.23 24.33 245.77 10.41 247.93 10.41 248.18 16.8 249.83 16.8 250.11 9.71 252.7 9.71 253.02 17.91 255.69 17.91 256.06 8.33 258.66 8.33 259.3 24.58 261.67 24.58 262.27 9.44 264 9.44 264.35 18.46 266.87 18.46 267.12 12.15 269.13 12.15 269.29 16.17 271.01 16.17 271.25 9.92 273.7 9.92 274.29 24.85 276.59 24.85 277.25 8.33 279.92 8.33 280.39 20.27 282.33 20.27 282.64 12.42 284.72 12.42 285.09 21.66 286.88 21.66 287.38 9.16 289.46 9.16 289.57 12.08 292.38 12.08 292.45 10.13 294.61 10.13 295.22 25.48 297.09 25.48 297.75 8.81 299.98 8.81 300.19 14.23 302.21 14.23 302.45 8.05 304.46 8.05 304.76 15.69 306.92 15.69 306.98 14.02 308.92 14.02 309.09 18.4 311.68 18.4 312.07 8.67 314.88 8.67 315.39 21.73 318.06 21.73 318.52 9.99 320.54 9.99 321.25 27.88 323.34 27.88 323.88 14.23 326.19 14.23 326.24 15.83 328.55 15.83 328.77 10.13 331.14 10.13 331.2 8.46 333 8.46 333.12 11.59 335.2 11.59 335.3 14.02 337.45 14.02 337.66 8.74 339.46 8.74 339.74 15.96 341.47 15.96 341.44 13.81 343.17 13.81 343.81 27.35 346.19 27.35 346.94 8.46 349.1 8.46 349.21 11.42 350.94 11.42 351.01 9.58 353.53 9.58 353.95 20.17 356.54 20.17 356.87 11.94 359.46 11.94 359.63 16.31 361.86 16.31 361.97 13.4 364.13 13.4 364.51 22.88 366.6 22.88 367.12 9.71 369.43 9.71 369.66 15.69 371.75 15.69 371.84 13.08 374.73 13.08 375.34 28.5 378.23 28.5 378.97 9.99 380.84 9.99 381.22 19.44 383.67 19.44 383.76 16.83 385.92 16.83 386.06 20.27 388.5 20.27 388.96 8.88 391.26 8.88 391.51 15.17 393.81 15.17 394.01 10.13 396.03 10.13 396.42 19.99 399.3 19.99 399.74 9.16 401.89 9.16 402.57 26 404.88 26 405.52 10.13 408.4 10.13 408.84 21.24 410.86 21.24 411.03 16.94 412.9 16.94 413 19.71 415.16 19.71 415.5 11.38 417.66 11.38 418.07 21.66 420.81 21.66 421.3 9.44 423.17 9.44 423.37 14.44 426.1 14.44 426.27 10.27 428.43 10.27 428.89 21.8 431.05 21.8 431.3 15.58 433.46 15.58 433.56 18.29 435.72 18.29 436.1 8.88 438.4 8.88 439.14 26.94 441.44 26.94 442.14 9.71 444.15 9.71 444.34 14.44 446.5 14.44 446.7 9.44 448.71 9.44 449.21 21.66 451.37 21.66 451.79 11.24 453.81 11.24 453.91 14.02 456.22 14.02 456.37 9.99 458.82 9.99 459.27 20.96 461.72 20.96 461.87 17.04 463.89 17.04 463.98 19.58 467.15 19.58 467.43 12.77 469.73 12.77 469.93 17.63 472.38 17.63 472.65 10.83 474.41 10.83 475.07 27.15 477.92 27.15 478.65 9.23 480.99 9.23 481.31 17.15 483.36 17.15 483.66 9.75 485.5 9.75 485.64 13.5 487.26 13.5 487.36 11 489.3 11 489.59 18.19 492.19 18.19 492.32 14.75 495.13 14.75 495.49 23.71 497.44 23.71 497.99 10.17 500.26 10.17 500.69 20.79 502.64 20.79 502.97 12.46 505.46 12.46 505.61 16.21 507.7 16.21 507.78 13.92 510.02 13.92 510.29 20.79 512.67 20.79 513.08 10.9 515.24 10.9 515.48 17.04 517.43 17.04 517.75 9.13 519.8 9.13 520.55 27.25 522.6 27.25 523.3 10.27 525.13 10.27 525.37 16.1 527.53 16.1 527.81 9.33 529.86 9.33 530.41 22.77 532.68 22.77 533.05 13.81 535.54 13.81 535.62 16 537.93 16 538.25 8.05 541.14 8.05 541.58 18.81 543.52 18.81 543.94 8.71 546.53 8.71 547.34 28.08 549.72 28.08 550.43 10.9 552.66 10.9 552.8 14.33 555.18 14.33 555.42 8.54 557.51 8.54 557.96 19.58 560.05 19.58 560.43 10.48 562.37 10.48 562.69 18.19 564.85 18.19 564.93 16.1 567.17 16.1 567.28 18.95 569.45 18.95 569.77 11.1 571.14 11.1 571.22 13.19 573.09 13.19 573.26 9.02 575.13 9.02 575.53 18.67 577.91 18.67 578.13 13.5 580.51 13.5 580.69 17.98 582.85 17.98 583.25 8.54 585.63 8.54 586.4 26.94 588.49 26.94 589.21 9.71 591.16 9.71 591.36 14.65 593.45 14.65 593.69 8.81 595.49 8.81 596.17 24.96 598.63 24.96 599.01 15.9 601.61 15.9 601.87 22.25 603.74 22.25 604.25 10.27 606.27 10.27 606.44 14.44 608.31 14.44 608.55 8.81 610.57 8.81 611.01 19.3 613.17 19.3 613.58 9.79 615.38 9.79 615.51 12.98 617.6 12.98 617.77 8.95 619.57 8.95 619.92 17.15 621.65 17.15 621.95 9.99 623.61 9.99 624.37 27.77 626.18 27.77 627 8.67 628.88 8.67 629.34 19.3 631.5 19.3 631.88 10.48 634.05 10.48 634.34 17.15 636.72 17.15 636.86 13.92 638.37 13.92 638.79 23.5 640.89 23.5 641.47 10.27 643.2 10.27 643.52 17.56 645.4 17.56 645.55 13.92 647.43 13.92 647.63 18.46 649.43 18.46 649.81 9.99 651.83 9.99 652.44 23.5 654.39 23.5 655.04 9.09 657.29 9.09 657.29 12 660 12.54 660 1140 0 1140 0 10.69"/><polygon class="cls-7" points="0 1140 0 12.82 2.96 12.82 2.96 17.07 5.58 17.07 5.58 11.32 7.71 11.32 7.71 19.2 9.83 19.2 9.83 13.7 12.21 13.7 12.21 28.57 14.21 28.57 14.21 11.32 16.33 11.32 16.33 19.7 18.08 19.7 18.08 15.45 20.58 15.45 20.58 18.7 23.08 18.7 23.08 10.57 25.33 10.57 25.33 18.7 27.46 18.7 27.46 15.95 30 15.95 30 28.95 32.46 28.95 32.46 11.57 34.21 11.57 34.21 20.2 36.83 20.2 36.83 12.95 38.83 12.95 38.83 29.2 41.33 29.2 41.33 14.95 43.58 14.95 43.58 17.32 46.21 17.32 46.21 10.57 49.08 10.57 49.08 17.57 51.58 17.57 51.58 12.7 53.58 12.7 53.58 29.57 56.08 29.57 56.08 10.57 58.71 10.57 58.71 22.07 61.46 22.07 61.46 19.32 64.71 19.32 64.71 24.57 67.33 24.57 67.33 11.32 69.46 11.32 69.46 17.45 71.83 17.45 71.83 12.7 73.83 12.7 73.83 30.82 76.21 30.82 76.21 18.45 78.58 18.45 78.58 22.95 80.71 22.95 80.71 13.45 83.33 13.45 83.33 25.7 85.21 25.7 85.21 10.66 87.71 10.66 87.71 23.82 90 23.82 90 13.24 92.58 13.24 92.58 25.57 95.5 25.57 95.5 15.16 98.33 15.16 98.33 18.16 101.5 18.16 101.5 13.82 104.5 13.82 104.5 32.91 106.33 32.91 106.33 16.66 109.17 16.66 109.17 23.16 112.17 23.16 112.17 9.66 113.67 9.66 113.67 25.32 116.33 25.32 116.33 14.66 118.5 14.66 118.5 18.07 121.5 18.07 121.5 11.16 124.83 11.16 125 31.24 127.83 31.24 127.67 13.32 129.75 13.32 129.75 15.49 132.42 15.49 132.42 11.24 134.92 11.24 134.92 23.74 137.17 23.74 137.17 11.82 139.42 11.82 139.42 31.49 140.5 31.49 140.5 10.57 142.67 10.57 142.67 23.32 143.92 23.32 143.92 18.41 146.58 18.41 146.58 21.66 148 21.66 148 10.57 150 10.57 150 14.07 152.08 14.07 152.08 12.66 154 12.66 154 31.49 156.33 31.49 156.33 10.57 158.67 10.57 158.67 14.16 161.33 14.16 161.33 11.66 164 11.66 164 24.49 166.92 24.49 166.92 19.99 169.5 19.99 169.5 23.74 172.08 23.74 172.08 12.91 174 12.91 174 16.57 176.08 16.57 176.08 9.99 178.83 9.99 178.83 31.57 181 31.57 181 11.16 183.33 11.16 183.33 22.74 185.75 22.74 185.75 13.91 187.92 13.91 187.92 21.49 190.42 21.49 190.42 12.57 192.42 12.57 192.42 17.41 194.5 17.41 194.5 14.66 197 14.66 197 30.91 199.33 30.91 199.33 17.66 201.83 17.66 201.83 24.07 204.75 24.07 204.75 12.99 206.75 12.99 206.75 31.66 209.08 31.66 209.08 15.16 211.25 15.16 211.25 19.74 213.67 19.74 213.67 16.91 215.75 16.91 215.75 22.16 218.42 22.16 218.42 9.99 221.58 9.99 221.58 32.24 223.83 32.24 223.83 11.24 225.75 11.24 225.75 21.91 227.5 21.91 227.5 18.24 229.5 18.24 229.5 22.91 231.83 22.91 231.83 14.91 234.42 14.91 234.42 17.16 236.5 17.16 236.5 11.91 238.92 11.91 238.92 20.24 240.92 20.24 240.92 10.57 243.58 10.57 243.58 29.2 245.83 29.2 245.83 12.49 248.33 12.49 248.33 20.16 250.25 20.16 250.25 11.66 253.25 11.66 253.25 21.49 256.33 21.49 256.33 9.99 259.33 9.99 259.33 29.49 262.08 29.49 262.08 11.32 264.08 11.32 264.08 22.16 267 22.16 267 14.57 269.33 14.57 269.33 19.41 271.33 19.41 271.33 11.91 274.17 11.91 274.17 29.82 276.83 29.82 276.83 9.99 279.92 9.99 279.92 24.32 282.17 24.32 282.17 14.91 284.58 14.91 284.58 25.99 286.67 25.99 286.67 10.99 289.08 10.99 289.08 14.49 292.33 14.49 292.33 12.16 294.83 12.16 294.83 30.57 297 30.57 297 10.57 299.58 10.57 299.58 17.07 301.92 17.07 301.92 9.66 304.25 9.66 304.25 18.82 306.75 18.82 306.75 16.82 309 16.82 309 22.07 312 22.07 312 10.41 315.25 10.41 315.25 26.07 318.33 26.07 318.33 11.99 320.67 11.99 320.67 33.45 323.08 33.45 323.08 17.07 325.75 17.07 325.75 18.99 328.42 18.99 328.42 12.16 331.17 12.16 331.17 10.16 333.25 10.16 333.25 13.91 335.67 13.91 335.67 16.82 338.17 16.82 338.17 10.49 340.25 10.49 340.25 19.16 342.25 19.16 342.13 16.57 344.13 16.57 344.25 32.83 347 32.83 347 10.16 349.5 10.16 349.5 13.7 351.5 13.7 351.5 11.49 354.42 11.49 354.42 24.2 357.42 24.2 357.42 14.32 360.42 14.32 360.42 19.57 363 19.57 363 16.07 365.5 16.07 365.5 27.45 367.92 27.45 367.92 11.66 370.58 11.66 370.58 18.82 373 18.82 373 15.7 376.33 15.7 376.33 34.2 379.67 34.2 379.67 11.99 381.83 11.99 381.83 23.32 384.67 23.32 384.67 20.2 387.17 20.2 387.17 24.32 390 24.32 390 10.66 392.67 10.66 392.67 18.2 395.33 18.2 395.33 12.16 397.67 12.16 397.67 23.99 401 23.99 401 10.99 403.5 10.99 403.5 31.2 406.17 31.2 406.17 12.16 409.5 12.16 409.5 25.49 411.83 25.49 411.83 20.32 414 20.32 414 23.66 416.5 23.66 416.5 13.66 419 13.66 419 25.99 422.17 25.99 422.17 11.32 424.33 11.32 424.33 17.32 427.5 17.32 427.5 12.32 430 12.32 430 26.16 432.5 26.16 432.5 18.7 435 18.7 435 21.95 437.5 21.95 437.5 10.66 440.17 10.66 440.17 32.33 442.83 32.33 442.83 11.66 445.17 11.66 445.17 17.32 447.67 17.32 447.67 11.32 450 11.32 450 25.99 452.5 25.99 452.5 13.49 454.83 13.49 454.83 16.82 457.5 16.82 457.5 11.99 460.33 11.99 460.33 25.16 463.17 25.16 463.17 20.45 465.5 20.45 465.5 23.49 469.17 23.49 469.17 15.32 471.83 15.32 471.83 21.16 474.67 21.16 474.67 12.99 476.71 12.99 476.71 32.58 480 32.58 480 11.07 482.71 11.07 482.71 20.57 485.08 20.57 485.08 11.7 487.21 11.7 487.21 16.2 489.08 16.2 489.08 13.2 491.33 13.2 491.33 21.82 494.33 21.82 494.33 17.7 497.58 17.7 497.58 28.45 499.83 28.45 499.83 12.2 502.46 12.2 502.46 24.95 504.71 24.95 504.71 14.95 507.58 14.95 507.58 19.45 510 19.45 510 16.7 512.58 16.7 512.58 24.95 515.33 24.95 515.33 13.07 517.83 13.07 517.83 20.45 520.08 20.45 520.08 10.95 522.46 10.95 522.46 32.7 524.83 32.7 524.83 12.32 526.96 12.32 526.96 19.32 529.46 19.32 529.46 11.2 531.83 11.2 531.83 27.32 534.46 27.32 534.46 16.57 537.33 16.57 537.33 19.2 540 19.2 540 9.66 543.33 9.66 543.33 22.57 545.58 22.57 545.58 10.45 548.58 10.45 548.58 33.7 551.33 33.7 551.33 13.07 553.92 13.07 553.92 17.2 556.67 17.2 556.67 10.24 559.08 10.24 559.08 23.49 561.5 23.49 561.5 12.57 563.75 12.57 563.75 21.82 566.25 21.82 566.25 19.32 568.83 19.32 568.83 22.74 571.33 22.74 571.33 13.32 572.92 13.32 572.92 15.82 575.08 15.82 575.08 10.82 577.25 10.82 577.25 22.41 580 22.41 580 16.2 582.75 16.2 582.75 21.57 585.25 21.57 585.25 10.24 588 10.24 588 32.33 590.42 32.33 590.42 11.66 592.67 11.66 592.67 17.57 595.08 17.57 595.08 10.57 597.17 10.57 597.17 29.95 600 29.95 600 19.07 603 19.07 603 26.7 605.17 26.7 605.17 12.32 607.5 12.32 607.5 17.32 609.67 17.32 609.67 10.57 612 10.57 612 23.16 614.5 23.16 614.5 11.74 616.58 11.74 616.58 15.57 619 15.57 619 10.74 621.08 10.74 621.08 20.57 623.08 20.57 623.08 11.99 625 11.99 625 33.33 627.08 33.33 627.08 10.41 629.25 10.41 629.25 23.16 631.75 23.16 631.75 12.57 634.25 12.57 634.25 20.57 637 20.57 637 16.7 638.75 16.7 638.75 28.2 641.17 28.2 641.17 12.32 643.17 12.32 643.17 21.07 645.33 21.07 645.33 16.7 647.5 16.7 647.5 22.16 649.58 22.16 649.58 11.99 651.92 11.99 651.92 28.2 654.17 28.2 654.17 10.91 656.75 10.91 656.75 13.82 660 13.82 660 1140 0 1140"/><polygon class="cls-8" points="0 1268.8 0 14.79 2.96 14.79 2.96 19.04 5.58 19.04 5.58 13.29 7.71 13.29 7.71 21.16 9.83 21.16 9.83 15.67 12.21 15.67 12.21 30.52 14.21 30.52 14.21 13.29 16.33 13.29 16.33 21.66 18.08 21.66 18.08 17.41 20.58 17.41 20.58 20.66 23.08 20.66 23.08 12.55 25.33 12.55 25.33 20.66 27.46 20.66 27.46 17.91 30 17.91 30 30.89 32.46 30.89 32.46 13.54 34.21 13.54 34.21 22.16 36.83 22.16 36.83 14.92 38.83 14.92 38.83 31.14 41.33 31.14 41.33 16.91 43.58 16.91 43.58 19.29 46.21 19.29 46.21 12.55 49.08 12.55 49.08 19.53 51.58 19.53 51.58 14.67 53.58 14.67 53.58 31.51 56.08 31.51 56.08 12.55 58.71 12.55 58.71 24.03 61.46 24.03 61.46 21.28 64.71 21.28 64.71 26.52 67.33 26.52 67.33 13.29 69.46 13.29 69.46 19.41 71.83 19.41 71.83 14.67 73.83 14.67 73.83 32.76 76.21 32.76 76.21 20.41 78.58 20.41 78.58 24.9 80.71 24.9 80.71 15.42 83.33 15.42 83.33 27.64 85.21 27.64 85.21 12.63 87.71 12.63 87.71 25.77 90 25.77 90 15.21 92.58 15.21 92.58 27.52 95.5 27.52 95.5 17.12 98.33 17.12 98.33 20.12 101.5 20.12 101.5 15.79 104.5 15.79 104.5 34.84 106.33 34.84 106.33 18.62 109.17 18.62 109.17 25.11 112.17 25.11 112.17 11.63 113.67 11.63 113.67 27.27 116.33 27.27 116.33 16.62 118.5 16.62 118.5 20.03 121.5 20.03 121.5 13.13 124.83 13.13 125 33.18 127.83 33.18 127.67 15.29 129.75 15.29 129.75 17.45 132.42 17.45 132.42 13.21 134.92 13.21 134.92 25.69 137.17 25.69 137.17 13.79 139.42 13.79 139.42 33.43 140.5 33.43 140.5 12.55 142.67 12.55 142.67 25.27 143.92 25.27 143.92 20.37 146.58 20.37 146.58 23.61 148 23.61 148 12.55 150 12.55 150 16.04 152.08 16.04 152.08 14.63 154 14.63 154 33.43 156.33 33.43 156.33 12.55 158.67 12.55 158.67 16.12 161.33 16.12 161.33 13.63 164 13.63 164 26.44 166.92 26.44 166.92 21.95 169.5 21.95 169.5 25.69 172.08 25.69 172.08 14.88 174 14.88 174 18.54 176.08 18.54 176.08 11.96 178.83 11.96 178.83 33.51 181 33.51 181 13.13 183.33 13.13 183.33 24.69 185.75 24.69 185.75 15.87 187.92 15.87 187.92 23.44 190.42 23.44 190.42 14.54 192.42 14.54 192.42 19.37 194.5 19.37 194.5 16.62 197 16.62 197 32.84 199.33 32.84 199.33 19.62 201.83 19.62 201.83 26.02 204.75 26.02 204.75 14.96 206.75 14.96 206.75 33.59 209.08 33.59 209.08 17.12 211.25 17.12 211.25 21.7 213.67 21.7 213.67 18.87 215.75 18.87 215.75 24.11 218.42 24.11 218.42 11.96 221.58 11.96 221.58 34.17 223.83 34.17 223.83 13.21 225.75 13.21 225.75 23.86 227.5 23.86 227.5 20.2 229.5 20.2 229.5 24.86 231.83 24.86 231.83 16.87 234.42 16.87 234.42 19.12 236.5 19.12 236.5 13.88 238.92 13.88 238.92 22.2 240.92 22.2 240.92 12.55 243.58 12.55 243.58 31.14 245.83 31.14 245.83 14.46 248.33 14.46 248.33 22.11 250.25 22.11 250.25 13.63 253.25 13.63 253.25 23.44 256.33 23.44 256.33 11.96 259.33 11.96 259.33 31.43 262.08 31.43 262.08 13.29 264.08 13.29 264.08 24.11 267 24.11 267 16.54 269.33 16.54 269.33 21.36 271.33 21.36 271.33 13.88 274.17 13.88 274.17 31.76 276.83 31.76 276.83 11.96 279.92 11.96 279.92 26.27 282.17 26.27 282.17 16.87 284.58 16.87 284.58 27.94 286.67 27.94 286.67 12.96 289.08 12.96 289.08 16.46 292.33 16.46 292.33 14.13 294.83 14.13 294.83 32.51 297 32.51 297 12.55 299.58 12.55 299.58 19.04 301.92 19.04 301.92 11.63 304.25 11.63 304.25 20.78 306.75 20.78 306.75 18.79 309 18.79 309 24.03 312 24.03 312 12.38 315.25 12.38 315.25 28.02 318.33 28.02 318.33 13.96 320.67 13.96 320.67 35.38 323.08 35.38 323.08 19.04 325.75 19.04 325.75 20.95 328.42 20.95 328.42 14.13 331.17 14.13 331.17 12.13 333.25 12.13 333.25 15.87 335.67 15.87 335.67 18.79 338.17 18.79 338.17 12.46 340.25 12.46 340.25 21.11 342.25 21.11 342.13 18.54 344.13 18.54 344.25 34.76 347 34.76 347 12.13 349.5 12.13 349.5 15.67 351.5 15.67 351.5 13.46 354.42 13.46 354.42 26.15 357.42 26.15 357.42 16.29 360.42 16.29 360.42 21.53 363 21.53 363 18.04 365.5 18.04 365.5 29.39 367.92 29.39 367.92 13.63 370.58 13.63 370.58 20.78 373 20.78 373 17.66 376.33 17.66 376.33 36.13 379.67 36.13 379.67 13.96 381.83 13.96 381.83 25.27 384.67 25.27 384.67 22.16 387.17 22.16 387.17 26.27 390 26.27 390 12.63 392.67 12.63 392.67 20.16 395.33 20.16 395.33 14.13 397.67 14.13 397.67 25.94 401 25.94 401 12.96 403.5 12.96 403.5 33.14 406.17 33.14 406.17 14.13 409.5 14.13 409.5 27.44 411.83 27.44 411.83 22.28 414 22.28 414 25.61 416.5 25.61 416.5 15.63 419 15.63 419 27.94 422.17 27.94 422.17 13.29 424.33 13.29 424.33 19.29 427.5 19.29 427.5 14.29 430 14.29 430 28.1 432.5 28.1 432.5 20.66 435 20.66 435 23.9 437.5 23.9 437.5 12.63 440.17 12.63 440.17 34.26 442.83 34.26 442.83 13.63 445.17 13.63 445.17 19.29 447.67 19.29 447.67 13.29 450 13.29 450 27.94 452.5 27.94 452.5 15.46 454.83 15.46 454.83 18.79 457.5 18.79 457.5 13.96 460.33 13.96 460.33 27.11 463.17 27.11 463.17 22.4 465.5 22.4 465.5 25.44 469.17 25.44 469.17 17.29 471.83 17.29 471.83 23.11 474.67 23.11 474.67 14.96 476.71 14.96 476.71 34.51 480 34.51 480 13.05 482.71 13.05 482.71 22.53 485.08 22.53 485.08 13.67 487.21 13.67 487.21 18.16 489.08 18.16 489.08 15.17 491.33 15.17 491.33 23.78 494.33 23.78 494.33 19.66 497.58 19.66 497.58 30.39 499.83 30.39 499.83 14.17 502.46 14.17 502.46 26.9 504.71 26.9 504.71 16.91 507.58 16.91 507.58 21.41 510 21.41 510 18.66 512.58 18.66 512.58 26.9 515.33 26.9 515.33 15.04 517.83 15.04 517.83 22.4 520.08 22.4 520.08 12.92 522.46 12.92 522.46 34.63 524.83 34.63 524.83 14.29 526.96 14.29 526.96 21.28 529.46 21.28 529.46 13.17 531.83 13.17 531.83 29.27 534.46 29.27 534.46 18.54 537.33 18.54 537.33 21.16 540 21.16 540 11.63 543.33 11.63 543.33 24.53 545.58 24.53 545.58 12.42 548.58 12.42 548.58 35.63 551.33 35.63 551.33 15.04 553.92 15.04 553.92 19.16 556.67 19.16 556.67 12.21 559.08 12.21 559.08 25.44 561.5 25.44 561.5 14.54 563.75 14.54 563.75 23.78 566.25 23.78 566.25 21.28 568.83 21.28 568.83 24.69 571.33 24.69 571.33 15.29 572.92 15.29 572.92 17.79 575.08 17.79 575.08 12.8 577.25 12.8 577.25 24.36 580 24.36 580 18.16 582.75 18.16 582.75 23.53 585.25 23.53 585.25 12.21 588 12.21 588 34.26 590.42 34.26 590.42 13.63 592.67 13.63 592.67 19.53 595.08 19.53 595.08 12.55 597.17 12.55 597.17 31.89 600 31.89 600 21.03 603 21.03 603 28.64 605.17 28.64 605.17 14.29 607.5 14.29 607.5 19.29 609.67 19.29 609.67 12.55 612 12.55 612 25.11 614.5 25.11 614.5 13.71 616.58 13.71 616.58 17.54 619 17.54 619 12.71 621.08 12.71 621.08 22.53 623.08 22.53 623.08 13.96 625 13.96 625 35.26 627.08 35.26 627.08 12.38 629.25 12.38 629.25 25.11 631.75 25.11 631.75 14.54 634.25 14.54 634.25 22.53 637 22.53 637 18.66 638.75 18.66 638.75 30.14 641.17 30.14 641.17 14.29 643.17 14.29 643.17 23.03 645.33 23.03 645.33 18.66 647.5 18.66 647.5 24.11 649.58 24.11 649.58 13.96 651.92 13.96 651.92 30.14 654.17 30.14 654.17 12.88 656.75 12.88 656.75 15.79 660 15.79 660 1268.8 0 1268.8"/><polygon class="cls-9" points="0 1397.6 0 16.76 2.96 16.76 2.96 21 5.58 21 5.58 15.27 7.71 15.27 7.71 23.11 9.83 23.11 9.83 17.63 12.21 17.63 12.21 32.45 14.21 32.45 14.21 15.27 16.33 15.27 16.33 23.61 18.08 23.61 18.08 19.38 20.58 19.38 20.58 22.61 23.08 22.61 23.08 14.52 25.33 14.52 25.33 22.61 27.46 22.61 27.46 19.88 30 19.88 30 32.83 32.46 32.83 32.46 15.52 34.21 15.52 34.21 24.11 36.83 24.11 36.83 16.89 38.83 16.89 38.83 33.08 41.33 33.08 41.33 18.88 43.58 18.88 43.58 21.25 46.21 21.25 46.21 14.52 49.08 14.52 49.08 21.49 51.58 21.49 51.58 16.64 53.58 16.64 53.58 33.45 56.08 33.45 56.08 14.52 58.71 14.52 58.71 25.98 61.46 25.98 61.46 23.24 64.71 23.24 64.71 28.47 67.33 28.47 67.33 15.27 69.46 15.27 69.46 21.37 71.83 21.37 71.83 16.64 73.83 16.64 73.83 34.7 76.21 34.7 76.21 22.37 78.58 22.37 78.58 26.85 80.71 26.85 80.71 17.38 83.33 17.38 83.33 29.59 85.21 29.59 85.21 14.6 87.71 14.6 87.71 27.72 90 27.72 90 17.18 92.58 17.18 92.58 29.47 95.5 29.47 95.5 19.09 98.33 19.09 98.33 22.07 101.5 22.07 101.5 17.76 104.5 17.76 104.5 36.77 106.33 36.77 106.33 20.58 109.17 20.58 109.17 27.06 112.17 27.06 112.17 13.61 113.67 13.61 113.67 29.22 116.33 29.22 116.33 18.59 118.5 18.59 118.5 21.99 121.5 21.99 121.5 15.1 124.83 15.1 125 35.11 127.83 35.11 127.67 17.26 129.75 17.26 129.75 19.42 132.42 19.42 132.42 15.18 134.92 15.18 134.92 27.64 137.17 27.64 137.17 15.76 139.42 15.76 139.42 35.36 140.5 35.36 140.5 14.52 142.67 14.52 142.67 27.22 143.92 27.22 143.92 22.32 146.58 22.32 146.58 25.56 148 25.56 148 14.52 150 14.52 150 18.01 152.08 18.01 152.08 16.59 154 16.59 154 35.36 156.33 35.36 156.33 14.52 158.67 14.52 158.67 18.09 161.33 18.09 161.33 15.6 164 15.6 164 28.39 166.92 28.39 166.92 23.9 169.5 23.9 169.5 27.64 172.08 27.64 172.08 16.84 174 16.84 174 20.5 176.08 20.5 176.08 13.94 178.83 13.94 178.83 35.45 181 35.45 181 15.1 183.33 15.1 183.33 26.64 185.75 26.64 185.75 17.84 187.92 17.84 187.92 25.4 190.42 25.4 190.42 16.51 192.42 16.51 192.42 21.33 194.5 21.33 194.5 18.59 197 18.59 197 34.78 199.33 34.78 199.33 21.58 201.83 21.58 201.83 27.97 204.75 27.97 204.75 16.93 206.75 16.93 206.75 35.53 209.08 35.53 209.08 19.09 211.25 19.09 211.25 23.65 213.67 23.65 213.67 20.83 215.75 20.83 215.75 26.06 218.42 26.06 218.42 13.94 221.58 13.94 221.58 36.11 223.83 36.11 223.83 15.18 225.75 15.18 225.75 25.81 227.5 25.81 227.5 22.16 229.5 22.16 229.5 26.81 231.83 26.81 231.83 18.84 234.42 18.84 234.42 21.08 236.5 21.08 236.5 15.85 238.92 15.85 238.92 24.15 240.92 24.15 240.92 14.52 243.58 14.52 243.58 33.08 245.83 33.08 245.83 16.43 248.33 16.43 248.33 24.07 250.25 24.07 250.25 15.6 253.25 15.6 253.25 25.4 256.33 25.4 256.33 13.94 259.33 13.94 259.33 33.37 262.08 33.37 262.08 15.27 264.08 15.27 264.08 26.06 267 26.06 267 18.5 269.33 18.5 269.33 23.32 271.33 23.32 271.33 15.85 274.17 15.85 274.17 33.7 276.83 33.7 276.83 13.94 279.92 13.94 279.92 28.22 282.17 28.22 282.17 18.84 284.58 18.84 284.58 29.88 286.67 29.88 286.67 14.93 289.08 14.93 289.08 18.42 292.33 18.42 292.33 16.1 294.83 16.1 294.83 34.45 297 34.45 297 14.52 299.58 14.52 299.58 21 301.92 21 301.92 13.61 304.25 13.61 304.25 22.74 306.75 22.74 306.75 20.75 309 20.75 309 25.98 312 25.98 312 14.35 315.25 14.35 315.25 29.96 318.33 29.96 318.33 15.93 320.67 15.93 320.67 37.31 323.08 37.31 323.08 21 325.75 21 325.75 22.91 328.42 22.91 328.42 16.1 331.17 16.1 331.17 14.1 333.25 14.1 333.25 17.84 335.67 17.84 335.67 20.75 338.17 20.75 338.17 14.44 340.25 14.44 340.25 23.07 342.25 23.07 342.13 20.5 344.13 20.5 344.25 36.69 347 36.69 347 14.1 349.5 14.1 349.5 17.63 351.5 17.63 351.5 15.43 354.42 15.43 354.42 28.1 357.42 28.1 357.42 18.25 360.42 18.25 360.42 23.49 363 23.49 363 20 365.5 20 365.5 31.33 367.92 31.33 367.92 15.6 370.58 15.6 370.58 22.74 373 22.74 373 19.63 376.33 19.63 376.33 38.06 379.67 38.06 379.67 15.93 381.83 15.93 381.83 27.22 384.67 27.22 384.67 24.11 387.17 24.11 387.17 28.22 390 28.22 390 14.6 392.67 14.6 392.67 22.12 395.33 22.12 395.33 16.1 397.67 16.1 397.67 27.89 401 27.89 401 14.93 403.5 14.93 403.5 35.07 406.17 35.07 406.17 16.1 409.5 16.1 409.5 29.38 411.83 29.38 411.83 24.23 414 24.23 414 27.56 416.5 27.56 416.5 17.59 419 17.59 419 29.88 422.17 29.88 422.17 15.27 424.33 15.27 424.33 21.25 427.5 21.25 427.5 16.26 430 16.26 430 30.05 432.5 30.05 432.5 22.61 435 22.61 435 25.85 437.5 25.85 437.5 14.6 440.17 14.6 440.17 36.19 442.83 36.19 442.83 15.6 445.17 15.6 445.17 21.25 447.67 21.25 447.67 15.27 450 15.27 450 29.88 452.5 29.88 452.5 17.43 454.83 17.43 454.83 20.75 457.5 20.75 457.5 15.93 460.33 15.93 460.33 29.05 463.17 29.05 463.17 24.36 465.5 24.36 465.5 27.39 469.17 27.39 469.17 19.25 471.83 19.25 471.83 25.07 474.67 25.07 474.67 16.93 476.71 16.93 476.71 36.44 480 36.44 480 15.02 482.71 15.02 482.71 24.48 485.08 24.48 485.08 15.64 487.21 15.64 487.21 20.12 489.08 20.12 489.08 17.13 491.33 17.13 491.33 25.73 494.33 25.73 494.33 21.62 497.58 21.62 497.58 32.33 499.83 32.33 499.83 16.14 502.46 16.14 502.46 28.84 504.71 28.84 504.71 18.88 507.58 18.88 507.58 23.36 510 23.36 510 20.62 512.58 20.62 512.58 28.84 515.33 28.84 515.33 17.01 517.83 17.01 517.83 24.36 520.08 24.36 520.08 14.89 522.46 14.89 522.46 36.57 524.83 36.57 524.83 16.26 526.96 16.26 526.96 23.24 529.46 23.24 529.46 15.14 531.83 15.14 531.83 31.21 534.46 31.21 534.46 20.5 537.33 20.5 537.33 23.11 540 23.11 540 13.61 543.33 13.61 543.33 26.48 545.58 26.48 545.58 14.39 548.58 14.39 548.58 37.56 551.33 37.56 551.33 17.01 553.92 17.01 553.92 21.12 556.67 21.12 556.67 14.19 559.08 14.19 559.08 27.39 561.5 27.39 561.5 16.51 563.75 16.51 563.75 25.73 566.25 25.73 566.25 23.24 568.83 23.24 568.83 26.64 571.33 26.64 571.33 17.26 572.92 17.26 572.92 19.75 575.08 19.75 575.08 14.77 577.25 14.77 577.25 26.31 580 26.31 580 20.12 582.75 20.12 582.75 25.48 585.25 25.48 585.25 14.19 588 14.19 588 36.19 590.42 36.19 590.42 15.6 592.67 15.6 592.67 21.49 595.08 21.49 595.08 14.52 597.17 14.52 597.17 33.83 600 33.83 600 22.99 603 22.99 603 30.59 605.17 30.59 605.17 16.26 607.5 16.26 607.5 21.25 609.67 21.25 609.67 14.52 612 14.52 612 27.06 614.5 27.06 614.5 15.68 616.58 15.68 616.58 19.5 619 19.5 619 14.68 621.08 14.68 621.08 24.48 623.08 24.48 623.08 15.93 625 15.93 625 37.19 627.08 37.19 627.08 14.35 629.25 14.35 629.25 27.06 631.75 27.06 631.75 16.51 634.25 16.51 634.25 24.48 637 24.48 637 20.62 638.75 20.62 638.75 32.08 641.17 32.08 641.17 16.26 643.17 16.26 643.17 24.98 645.33 24.98 645.33 20.62 647.5 20.62 647.5 26.06 649.58 26.06 649.58 15.93 651.92 15.93 651.92 32.08 654.17 32.08 654.17 14.85 656.75 14.85 656.75 17.76 660 17.76 660 1397.6 0 1397.6"/><polygon class="cls-10" points="0 1526.4 0 18.73 2.96 18.73 2.96 22.96 5.58 22.96 5.58 17.24 7.71 17.24 7.71 25.07 9.83 25.07 9.83 19.6 12.21 19.6 12.21 34.4 14.21 34.4 14.21 17.24 16.33 17.24 16.33 25.57 18.08 25.57 18.08 21.34 20.58 21.34 20.58 24.57 23.08 24.57 23.08 16.49 25.33 16.49 25.33 24.57 27.46 24.57 27.46 21.84 30 21.84 30 34.77 32.46 34.77 32.46 17.48 34.21 17.48 34.21 26.07 36.83 26.07 36.83 18.85 38.83 18.85 38.83 35.02 41.33 35.02 41.33 20.84 43.58 20.84 43.58 23.2 46.21 23.2 46.21 16.49 49.08 16.49 49.08 23.45 51.58 23.45 51.58 18.6 53.58 18.6 53.58 35.39 56.08 35.39 56.08 16.49 58.71 16.49 58.71 27.93 61.46 27.93 61.46 25.19 64.71 25.19 64.71 30.42 67.33 30.42 67.33 17.24 69.46 17.24 69.46 23.33 71.83 23.33 71.83 18.6 73.83 18.6 73.83 36.63 76.21 36.63 76.21 24.32 78.58 24.32 78.58 28.8 80.71 28.8 80.71 19.35 83.33 19.35 83.33 31.54 85.21 31.54 85.21 16.57 87.71 16.57 87.71 29.67 90 29.67 90 19.14 92.58 19.14 92.58 31.41 95.5 31.41 95.5 21.05 98.33 21.05 98.33 24.03 101.5 24.03 101.5 19.72 104.5 19.72 104.5 38.71 106.33 38.71 106.33 22.54 109.17 22.54 109.17 29.01 112.17 29.01 112.17 15.58 113.67 15.58 113.67 31.16 116.33 31.16 116.33 20.55 118.5 20.55 118.5 23.95 121.5 23.95 121.5 17.07 124.83 17.07 125 37.05 127.83 37.05 127.67 19.23 129.75 19.23 129.75 21.38 132.42 21.38 132.42 17.15 134.92 17.15 134.92 29.59 137.17 29.59 137.17 17.73 139.42 17.73 139.42 37.3 140.5 37.3 140.5 16.49 142.67 16.49 142.67 29.17 143.92 29.17 143.92 24.28 146.58 24.28 146.58 27.52 148 27.52 148 16.49 150 16.49 150 19.97 152.08 19.97 152.08 18.56 154 18.56 154 37.3 156.33 37.3 156.33 16.49 158.67 16.49 158.67 20.05 161.33 20.05 161.33 17.57 164 17.57 164 30.33 166.92 30.33 166.92 25.86 169.5 25.86 169.5 29.59 172.08 29.59 172.08 18.81 174 18.81 174 22.46 176.08 22.46 176.08 15.91 178.83 15.91 178.83 37.38 181 37.38 181 17.07 183.33 17.07 183.33 28.59 185.75 28.59 185.75 19.81 187.92 19.81 187.92 27.35 190.42 27.35 190.42 18.48 192.42 18.48 192.42 23.29 194.5 23.29 194.5 20.55 197 20.55 197 36.72 199.33 36.72 199.33 23.54 201.83 23.54 201.83 29.92 204.75 29.92 204.75 18.89 206.75 18.89 206.75 37.46 209.08 37.46 209.08 21.05 211.25 21.05 211.25 25.61 213.67 25.61 213.67 22.79 215.75 22.79 215.75 28.01 218.42 28.01 218.42 15.91 221.58 15.91 221.58 38.04 223.83 38.04 223.83 17.15 225.75 17.15 225.75 27.76 227.5 27.76 227.5 24.12 229.5 24.12 229.5 28.76 231.83 28.76 231.83 20.8 234.42 20.8 234.42 23.04 236.5 23.04 236.5 17.82 238.92 17.82 238.92 26.11 240.92 26.11 240.92 16.49 243.58 16.49 243.58 35.02 245.83 35.02 245.83 18.4 248.33 18.4 248.33 26.02 250.25 26.02 250.25 17.57 253.25 17.57 253.25 27.35 256.33 27.35 256.33 15.91 259.33 15.91 259.33 35.31 262.08 35.31 262.08 17.24 264.08 17.24 264.08 28.01 267 28.01 267 20.47 269.33 20.47 269.33 25.28 271.33 25.28 271.33 17.82 274.17 17.82 274.17 35.64 276.83 35.64 276.83 15.91 279.92 15.91 279.92 30.17 282.17 30.17 282.17 20.8 284.58 20.8 284.58 31.83 286.67 31.83 286.67 16.9 289.08 16.9 289.08 20.39 292.33 20.39 292.33 18.07 294.83 18.07 294.83 36.38 297 36.38 297 16.49 299.58 16.49 299.58 22.96 301.92 22.96 301.92 15.58 304.25 15.58 304.25 24.7 306.75 24.7 306.75 22.71 309 22.71 309 27.93 312 27.93 312 16.32 315.25 16.32 315.25 31.91 318.33 31.91 318.33 17.9 320.67 17.9 320.67 39.24 323.08 39.24 323.08 22.96 325.75 22.96 325.75 24.86 328.42 24.86 328.42 18.07 331.17 18.07 331.17 16.07 333.25 16.07 333.25 19.81 335.67 19.81 335.67 22.71 338.17 22.71 338.17 16.41 340.25 16.41 340.25 25.03 342.25 25.03 342.13 22.46 344.13 22.46 344.25 38.62 347 38.62 347 16.07 349.5 16.07 349.5 19.6 351.5 19.6 351.5 17.4 354.42 17.4 354.42 30.04 357.42 30.04 357.42 20.22 360.42 20.22 360.42 25.44 363 25.44 363 21.96 365.5 21.96 365.5 33.28 367.92 33.28 367.92 17.57 370.58 17.57 370.58 24.7 373 24.7 373 21.59 376.33 21.59 376.33 39.99 379.67 39.99 379.67 17.9 381.83 17.9 381.83 29.17 384.67 29.17 384.67 26.07 387.17 26.07 387.17 30.17 390 30.17 390 16.57 392.67 16.57 392.67 24.07 395.33 24.07 395.33 18.07 397.67 18.07 397.67 29.84 401 29.84 401 16.9 403.5 16.9 403.5 37.01 406.17 37.01 406.17 18.07 409.5 18.07 409.5 31.33 411.83 31.33 411.83 26.19 414 26.19 414 29.5 416.5 29.5 416.5 19.56 419 19.56 419 31.83 422.17 31.83 422.17 17.24 424.33 17.24 424.33 23.2 427.5 23.2 427.5 18.23 430 18.23 430 31.99 432.5 31.99 432.5 24.57 435 24.57 435 27.8 437.5 27.8 437.5 16.57 440.17 16.57 440.17 38.13 442.83 38.13 442.83 17.57 445.17 17.57 445.17 23.2 447.67 23.2 447.67 17.24 450 17.24 450 31.83 452.5 31.83 452.5 19.39 454.83 19.39 454.83 22.71 457.5 22.71 457.5 17.9 460.33 17.9 460.33 31 463.17 31 463.17 26.31 465.5 26.31 465.5 29.34 469.17 29.34 469.17 21.21 471.83 21.21 471.83 27.02 474.67 27.02 474.67 18.89 476.71 18.89 476.71 38.38 480 38.38 480 16.99 482.71 16.99 482.71 26.44 485.08 26.44 485.08 17.61 487.21 17.61 487.21 22.09 489.08 22.09 489.08 19.1 491.33 19.1 491.33 27.68 494.33 27.68 494.33 23.58 497.58 23.58 497.58 34.27 499.83 34.27 499.83 18.11 502.46 18.11 502.46 30.79 504.71 30.79 504.71 20.84 507.58 20.84 507.58 25.32 510 25.32 510 22.58 512.58 22.58 512.58 30.79 515.33 30.79 515.33 18.98 517.83 18.98 517.83 26.31 520.08 26.31 520.08 16.86 522.46 16.86 522.46 38.5 524.83 38.5 524.83 18.23 526.96 18.23 526.96 25.19 529.46 25.19 529.46 17.11 531.83 17.11 531.83 33.15 534.46 33.15 534.46 22.46 537.33 22.46 537.33 25.07 540 25.07 540 15.58 543.33 15.58 543.33 28.43 545.58 28.43 545.58 16.37 548.58 16.37 548.58 39.49 551.33 39.49 551.33 18.98 553.92 18.98 553.92 23.08 556.67 23.08 556.67 16.16 559.08 16.16 559.08 29.34 561.5 29.34 561.5 18.48 563.75 18.48 563.75 27.68 566.25 27.68 566.25 25.19 568.83 25.19 568.83 28.59 571.33 28.59 571.33 19.23 572.92 19.23 572.92 21.71 575.08 21.71 575.08 16.74 577.25 16.74 577.25 28.26 580 28.26 580 22.09 582.75 22.09 582.75 27.43 585.25 27.43 585.25 16.16 588 16.16 588 38.13 590.42 38.13 590.42 17.57 592.67 17.57 592.67 23.45 595.08 23.45 595.08 16.49 597.17 16.49 597.17 35.76 600 35.76 600 24.95 603 24.95 603 32.53 605.17 32.53 605.17 18.23 607.5 18.23 607.5 23.2 609.67 23.2 609.67 16.49 612 16.49 612 29.01 614.5 29.01 614.5 17.65 616.58 17.65 616.58 21.46 619 21.46 619 16.66 621.08 16.66 621.08 26.44 623.08 26.44 623.08 17.9 625 17.9 625 39.12 627.08 39.12 627.08 16.32 629.25 16.32 629.25 29.01 631.75 29.01 631.75 18.48 634.25 18.48 634.25 26.44 637 26.44 637 22.58 638.75 22.58 638.75 34.02 641.17 34.02 641.17 18.23 643.17 18.23 643.17 26.93 645.33 26.93 645.33 22.58 647.5 22.58 647.5 28.01 649.58 28.01 649.58 17.9 651.92 17.9 651.92 34.02 654.17 34.02 654.17 16.82 656.75 16.82 656.75 19.72 660 19.72 660 1526.4 0 1526.4"/><polygon class="cls-11" points="0 1655.2 0 20.7 2.96 20.7 2.96 24.92 5.58 24.92 5.58 19.21 7.71 19.21 7.71 27.03 9.83 27.03 9.83 21.57 12.21 21.57 12.21 36.34 14.21 36.34 14.21 19.21 16.33 19.21 16.33 27.52 18.08 27.52 18.08 23.3 20.58 23.3 20.58 26.53 23.08 26.53 23.08 18.46 25.33 18.46 25.33 26.53 27.46 26.53 27.46 23.8 30 23.8 30 36.71 32.46 36.71 32.46 19.45 34.21 19.45 34.21 28.02 36.83 28.02 36.83 20.82 38.83 20.82 38.83 36.96 41.33 36.96 41.33 22.81 43.58 22.81 43.58 25.16 46.21 25.16 46.21 18.46 49.08 18.46 49.08 25.41 51.58 25.41 51.58 20.57 53.58 20.57 53.58 37.33 56.08 37.33 56.08 18.46 58.71 18.46 58.71 29.88 61.46 29.88 61.46 27.15 64.71 27.15 64.71 32.36 67.33 32.36 67.33 19.21 69.46 19.21 69.46 25.29 71.83 25.29 71.83 20.57 73.83 20.57 73.83 38.57 76.21 38.57 76.21 26.28 78.58 26.28 78.58 30.75 80.71 30.75 80.71 21.32 83.33 21.32 83.33 33.48 85.21 33.48 85.21 18.54 87.71 18.54 87.71 31.62 90 31.62 90 21.11 92.58 21.11 92.58 33.36 95.5 33.36 95.5 23.01 98.33 23.01 98.33 25.99 101.5 25.99 101.5 21.69 104.5 21.69 104.5 40.64 106.33 40.64 106.33 24.5 109.17 24.5 109.17 30.96 112.17 30.96 112.17 17.55 113.67 17.55 113.67 33.11 116.33 33.11 116.33 22.52 118.5 22.52 118.5 25.91 121.5 25.91 121.5 19.04 124.83 19.04 125 38.98 127.83 38.98 127.67 21.19 129.75 21.19 129.75 23.34 132.42 23.34 132.42 19.12 134.92 19.12 134.92 31.54 137.17 31.54 137.17 19.7 139.42 19.7 139.42 39.23 140.5 39.23 140.5 18.46 142.67 18.46 142.67 31.12 143.92 31.12 143.92 26.24 146.58 26.24 146.58 29.47 148 29.47 148 18.46 150 18.46 150 21.94 152.08 21.94 152.08 20.53 154 20.53 154 39.23 156.33 39.23 156.33 18.46 158.67 18.46 158.67 22.02 161.33 22.02 161.33 19.54 164 19.54 164 32.28 166.92 32.28 166.92 27.81 169.5 27.81 169.5 31.54 172.08 31.54 172.08 20.78 174 20.78 174 24.42 176.08 24.42 176.08 17.88 178.83 17.88 178.83 39.31 181 39.31 181 19.04 183.33 19.04 183.33 30.54 185.75 30.54 185.75 21.77 187.92 21.77 187.92 29.3 190.42 29.3 190.42 20.45 192.42 20.45 192.42 25.25 194.5 25.25 194.5 22.52 197 22.52 197 38.65 199.33 38.65 199.33 25.5 201.83 25.5 201.83 31.87 204.75 31.87 204.75 20.86 206.75 20.86 206.75 39.4 209.08 39.4 209.08 23.01 211.25 23.01 211.25 27.56 213.67 27.56 213.67 24.75 215.75 24.75 215.75 29.96 218.42 29.96 218.42 17.88 221.58 17.88 221.58 39.98 223.83 39.98 223.83 19.12 225.75 19.12 225.75 29.72 227.5 29.72 227.5 26.07 229.5 26.07 229.5 30.71 231.83 30.71 231.83 22.77 234.42 22.77 234.42 25 236.5 25 236.5 19.79 238.92 19.79 238.92 28.06 240.92 28.06 240.92 18.46 243.58 18.46 243.58 36.96 245.83 36.96 245.83 20.36 248.33 20.36 248.33 27.98 250.25 27.98 250.25 19.54 253.25 19.54 253.25 29.3 256.33 29.3 256.33 17.88 259.33 17.88 259.33 37.25 262.08 37.25 262.08 19.21 264.08 19.21 264.08 29.96 267 29.96 267 22.43 269.33 22.43 269.33 27.23 271.33 27.23 271.33 19.79 274.17 19.79 274.17 37.58 276.83 37.58 276.83 17.88 279.92 17.88 279.92 32.12 282.17 32.12 282.17 22.77 284.58 22.77 284.58 33.77 286.67 33.77 286.67 18.88 289.08 18.88 289.08 22.35 292.33 22.35 292.33 20.03 294.83 20.03 294.83 38.32 297 38.32 297 18.46 299.58 18.46 299.58 24.92 301.92 24.92 301.92 17.55 304.25 17.55 304.25 26.65 306.75 26.65 306.75 24.67 309 24.67 309 29.88 312 29.88 312 18.3 315.25 18.3 315.25 33.85 318.33 33.85 318.33 19.87 320.67 19.87 320.67 41.18 323.08 41.18 323.08 24.92 325.75 24.92 325.75 26.82 328.42 26.82 328.42 20.03 331.17 20.03 331.17 18.05 333.25 18.05 333.25 21.77 335.67 21.77 335.67 24.67 338.17 24.67 338.17 18.38 340.25 18.38 340.25 26.98 342.25 26.98 342.13 24.42 344.13 24.42 344.25 40.56 347 40.56 347 18.05 349.5 18.05 349.5 21.57 351.5 21.57 351.5 19.37 354.42 19.37 354.42 31.99 357.42 31.99 357.42 22.18 360.42 22.18 360.42 27.4 363 27.4 363 23.92 365.5 23.92 365.5 35.22 367.92 35.22 367.92 19.54 370.58 19.54 370.58 26.65 373 26.65 373 23.55 376.33 23.55 376.33 41.92 379.67 41.92 379.67 19.87 381.83 19.87 381.83 31.12 384.67 31.12 384.67 28.02 387.17 28.02 387.17 32.12 390 32.12 390 18.54 392.67 18.54 392.67 26.03 395.33 26.03 395.33 20.03 397.67 20.03 397.67 31.79 401 31.79 401 18.88 403.5 18.88 403.5 38.94 406.17 38.94 406.17 20.03 409.5 20.03 409.5 33.27 411.83 33.27 411.83 28.14 414 28.14 414 31.45 416.5 31.45 416.5 21.52 419 21.52 419 33.77 422.17 33.77 422.17 19.21 424.33 19.21 424.33 25.16 427.5 25.16 427.5 20.2 430 20.2 430 33.94 432.5 33.94 432.5 26.53 435 26.53 435 29.76 437.5 29.76 437.5 18.54 440.17 18.54 440.17 40.06 442.83 40.06 442.83 19.54 445.17 19.54 445.17 25.16 447.67 25.16 447.67 19.21 450 19.21 450 33.77 452.5 33.77 452.5 21.36 454.83 21.36 454.83 24.67 457.5 24.67 457.5 19.87 460.33 19.87 460.33 32.94 463.17 32.94 463.17 28.27 465.5 28.27 465.5 31.29 469.17 31.29 469.17 23.18 471.83 23.18 471.83 28.97 474.67 28.97 474.67 20.86 476.71 20.86 476.71 40.31 480 40.31 480 18.96 482.71 18.96 482.71 28.39 485.08 28.39 485.08 19.58 487.21 19.58 487.21 24.05 489.08 24.05 489.08 21.07 491.33 21.07 491.33 29.63 494.33 29.63 494.33 25.54 497.58 25.54 497.58 36.21 499.83 36.21 499.83 20.07 502.46 20.07 502.46 32.74 504.71 32.74 504.71 22.81 507.58 22.81 507.58 27.27 510 27.27 510 24.54 512.58 24.54 512.58 32.74 515.33 32.74 515.33 20.94 517.83 20.94 517.83 28.27 520.08 28.27 520.08 18.83 522.46 18.83 522.46 40.43 524.83 40.43 524.83 20.2 526.96 20.2 526.96 27.15 529.46 27.15 529.46 19.08 531.83 19.08 531.83 35.09 534.46 35.09 534.46 24.42 537.33 24.42 537.33 27.03 540 27.03 540 17.55 543.33 17.55 543.33 30.38 545.58 30.38 545.58 18.34 548.58 18.34 548.58 41.42 551.33 41.42 551.33 20.94 553.92 20.94 553.92 25.04 556.67 25.04 556.67 18.13 559.08 18.13 559.08 31.29 561.5 31.29 561.5 20.45 563.75 20.45 563.75 29.63 566.25 29.63 566.25 27.15 568.83 27.15 568.83 30.54 571.33 30.54 571.33 21.19 572.92 21.19 572.92 23.68 575.08 23.68 575.08 18.71 577.25 18.71 577.25 30.21 580 30.21 580 24.05 582.75 24.05 582.75 29.39 585.25 29.39 585.25 18.13 588 18.13 588 40.06 590.42 40.06 590.42 19.54 592.67 19.54 592.67 25.41 595.08 25.41 595.08 18.46 597.17 18.46 597.17 37.7 600 37.7 600 26.9 603 26.9 603 34.47 605.17 34.47 605.17 20.2 607.5 20.2 607.5 25.16 609.67 25.16 609.67 18.46 612 18.46 612 30.96 614.5 30.96 614.5 19.62 616.58 19.62 616.58 23.43 619 23.43 619 18.63 621.08 18.63 621.08 28.39 623.08 28.39 623.08 19.87 625 19.87 625 41.05 627.08 41.05 627.08 18.3 629.25 18.3 629.25 30.96 631.75 30.96 631.75 20.45 634.25 20.45 634.25 28.39 637 28.39 637 24.54 638.75 24.54 638.75 35.96 641.17 35.96 641.17 20.2 643.17 20.2 643.17 28.89 645.33 28.89 645.33 24.54 647.5 24.54 647.5 29.96 649.58 29.96 649.58 19.87 651.92 19.87 651.92 35.96 654.17 35.96 654.17 18.79 656.75 18.79 656.75 21.69 660 21.69 660 1655.2 0 1655.2"/><polygon class="cls-12" points="0 1784 0 22.66 2.96 22.66 2.96 26.88 5.58 26.88 5.58 21.18 7.71 21.18 7.71 28.98 9.83 28.98 9.83 23.53 12.21 23.53 12.21 38.28 14.21 38.28 14.21 21.18 16.33 21.18 16.33 29.48 18.08 29.48 18.08 25.27 20.58 25.27 20.58 28.49 23.08 28.49 23.08 20.43 25.33 20.43 25.33 28.49 27.46 28.49 27.46 25.76 30 25.76 30 38.65 32.46 38.65 32.46 21.43 34.21 21.43 34.21 29.97 36.83 29.97 36.83 22.79 38.83 22.79 38.83 38.9 41.33 38.9 41.33 24.77 43.58 24.77 43.58 27.12 46.21 27.12 46.21 20.43 49.08 20.43 49.08 27.37 51.58 27.37 51.58 22.54 53.58 22.54 53.58 39.27 56.08 39.27 56.08 20.43 58.71 20.43 58.71 31.83 61.46 31.83 61.46 29.11 64.71 29.11 64.71 34.31 67.33 34.31 67.33 21.18 69.46 21.18 69.46 27.25 71.83 27.25 71.83 22.54 73.83 22.54 73.83 40.51 76.21 40.51 76.21 28.24 78.58 28.24 78.58 32.7 80.71 32.7 80.71 23.28 83.33 23.28 83.33 35.43 85.21 35.43 85.21 20.52 87.71 20.52 87.71 33.57 90 33.57 90 23.08 92.58 23.08 92.58 35.3 95.5 35.3 95.5 24.98 98.33 24.98 98.33 27.95 101.5 27.95 101.5 23.66 104.5 23.66 104.5 42.57 106.33 42.57 106.33 26.46 109.17 26.46 109.17 32.91 112.17 32.91 112.17 19.52 113.67 19.52 113.67 35.05 116.33 35.05 116.33 24.48 118.5 24.48 118.5 27.87 121.5 27.87 121.5 21.01 124.83 21.01 125 40.92 127.83 40.92 127.67 23.16 129.75 23.16 129.75 25.31 132.42 25.31 132.42 21.09 134.92 21.09 134.92 33.48 137.17 33.48 137.17 21.67 139.42 21.67 139.42 41.17 140.5 41.17 140.5 20.43 142.67 20.43 142.67 33.07 143.92 33.07 143.92 28.2 146.58 28.2 146.58 31.42 148 31.42 148 20.43 150 20.43 150 23.9 152.08 23.9 152.08 22.5 154 22.5 154 41.17 156.33 41.17 156.33 20.43 158.67 20.43 158.67 23.98 161.33 23.98 161.33 21.51 164 21.51 164 34.23 166.92 34.23 166.92 29.77 169.5 29.77 169.5 33.48 172.08 33.48 172.08 22.75 174 22.75 174 26.38 176.08 26.38 176.08 19.86 178.83 19.86 178.83 41.25 181 41.25 181 21.01 183.33 21.01 183.33 32.49 185.75 32.49 185.75 23.74 187.92 23.74 187.92 31.25 190.42 31.25 190.42 22.42 192.42 22.42 192.42 27.21 194.5 27.21 194.5 24.48 197 24.48 197 40.59 199.33 40.59 199.33 27.45 201.83 27.45 201.83 33.81 204.75 33.81 204.75 22.83 206.75 22.83 206.75 41.33 209.08 41.33 209.08 24.98 211.25 24.98 211.25 29.52 213.67 29.52 213.67 26.71 215.75 26.71 215.75 31.92 218.42 31.92 218.42 19.86 221.58 19.86 221.58 41.91 223.83 41.91 223.83 21.09 225.75 21.09 225.75 31.67 227.5 31.67 227.5 28.03 229.5 28.03 229.5 32.66 231.83 32.66 231.83 24.73 234.42 24.73 234.42 26.96 236.5 26.96 236.5 21.75 238.92 21.75 238.92 30.02 240.92 30.02 240.92 20.43 243.58 20.43 243.58 38.9 245.83 38.9 245.83 22.33 248.33 22.33 248.33 29.93 250.25 29.93 250.25 21.51 253.25 21.51 253.25 31.25 256.33 31.25 256.33 19.86 259.33 19.86 259.33 39.19 262.08 39.19 262.08 21.18 264.08 21.18 264.08 31.92 267 31.92 267 24.4 269.33 24.4 269.33 29.19 271.33 29.19 271.33 21.75 274.17 21.75 274.17 39.52 276.83 39.52 276.83 19.86 279.92 19.86 279.92 34.06 282.17 34.06 282.17 24.73 284.58 24.73 284.58 35.72 286.67 35.72 286.67 20.85 289.08 20.85 289.08 24.32 292.33 24.32 292.33 22 294.83 22 294.83 40.26 297 40.26 297 20.43 299.58 20.43 299.58 26.88 301.92 26.88 301.92 19.52 304.25 19.52 304.25 28.61 306.75 28.61 306.75 26.63 309 26.63 309 31.83 312 31.83 312 20.27 315.25 20.27 315.25 35.8 318.33 35.8 318.33 21.84 320.67 21.84 320.67 43.11 323.08 43.11 323.08 26.88 325.75 26.88 325.75 28.78 328.42 28.78 328.42 22 331.17 22 331.17 20.02 333.25 20.02 333.25 23.74 335.67 23.74 335.67 26.63 338.17 26.63 338.17 20.35 340.25 20.35 340.25 28.94 342.25 28.94 342.13 26.38 344.13 26.38 344.25 42.49 347 42.49 347 20.02 349.5 20.02 349.5 23.53 351.5 23.53 351.5 21.34 354.42 21.34 354.42 33.94 357.42 33.94 357.42 24.15 360.42 24.15 360.42 29.36 363 29.36 363 25.89 365.5 25.89 365.5 37.16 367.92 37.16 367.92 21.51 370.58 21.51 370.58 28.61 373 28.61 373 25.51 376.33 25.51 376.33 43.85 379.67 43.85 379.67 21.84 381.83 21.84 381.83 33.07 384.67 33.07 384.67 29.97 387.17 29.97 387.17 34.06 390 34.06 390 20.52 392.67 20.52 392.67 27.99 395.33 27.99 395.33 22 397.67 22 397.67 33.73 401 33.73 401 20.85 403.5 20.85 403.5 40.88 406.17 40.88 406.17 22 409.5 22 409.5 35.22 411.83 35.22 411.83 30.1 414 30.1 414 33.4 416.5 33.4 416.5 23.49 419 23.49 419 35.72 422.17 35.72 422.17 21.18 424.33 21.18 424.33 27.12 427.5 27.12 427.5 22.17 430 22.17 430 35.88 432.5 35.88 432.5 28.49 435 28.49 435 31.71 437.5 31.71 437.5 20.52 440.17 20.52 440.17 41.99 442.83 41.99 442.83 21.51 445.17 21.51 445.17 27.12 447.67 27.12 447.67 21.18 450 21.18 450 35.72 452.5 35.72 452.5 23.32 454.83 23.32 454.83 26.63 457.5 26.63 457.5 21.84 460.33 21.84 460.33 34.89 463.17 34.89 463.17 30.22 465.5 30.22 465.5 33.24 469.17 33.24 469.17 25.14 471.83 25.14 471.83 30.92 474.67 30.92 474.67 22.83 476.71 22.83 476.71 42.24 480 42.24 480 20.93 482.71 20.93 482.71 30.35 485.08 30.35 485.08 21.55 487.21 21.55 487.21 26.01 489.08 26.01 489.08 23.04 491.33 23.04 491.33 31.59 494.33 31.59 494.33 27.5 497.58 27.5 497.58 38.15 499.83 38.15 499.83 22.04 502.46 22.04 502.46 34.68 504.71 34.68 504.71 24.77 507.58 24.77 507.58 29.23 510 29.23 510 26.5 512.58 26.5 512.58 34.68 515.33 34.68 515.33 22.91 517.83 22.91 517.83 30.22 520.08 30.22 520.08 20.8 522.46 20.8 522.46 42.37 524.83 42.37 524.83 22.17 526.96 22.17 526.96 29.11 529.46 29.11 529.46 21.05 531.83 21.05 531.83 37.04 534.46 37.04 534.46 26.38 537.33 26.38 537.33 28.98 540 28.98 540 19.52 543.33 19.52 543.33 32.33 545.58 32.33 545.58 20.31 548.58 20.31 548.58 43.36 551.33 43.36 551.33 22.91 553.92 22.91 553.92 27 556.67 27 556.67 20.1 559.08 20.1 559.08 33.24 561.5 33.24 561.5 22.42 563.75 22.42 563.75 31.59 566.25 31.59 566.25 29.11 568.83 29.11 568.83 32.49 571.33 32.49 571.33 23.16 572.92 23.16 572.92 25.64 575.08 25.64 575.08 20.68 577.25 20.68 577.25 32.16 580 32.16 580 26.01 582.75 26.01 582.75 31.34 585.25 31.34 585.25 20.1 588 20.1 588 41.99 590.42 41.99 590.42 21.51 592.67 21.51 592.67 27.37 595.08 27.37 595.08 20.43 597.17 20.43 597.17 39.64 600 39.64 600 28.86 603 28.86 603 36.42 605.17 36.42 605.17 22.17 607.5 22.17 607.5 27.12 609.67 27.12 609.67 20.43 612 20.43 612 32.91 614.5 32.91 614.5 21.59 616.58 21.59 616.58 25.39 619 25.39 619 20.6 621.08 20.6 621.08 30.35 623.08 30.35 623.08 21.84 625 21.84 625 42.98 627.08 42.98 627.08 20.27 629.25 20.27 629.25 32.91 631.75 32.91 631.75 22.42 634.25 22.42 634.25 30.35 637 30.35 637 26.5 638.75 26.5 638.75 37.9 641.17 37.9 641.17 22.17 643.17 22.17 643.17 30.84 645.33 30.84 645.33 26.5 647.5 26.5 647.5 31.92 649.58 31.92 649.58 21.84 651.92 21.84 651.92 37.9 654.17 37.9 654.17 20.76 656.75 20.76 656.75 23.66 660 23.66 660 1784 0 1784"/><polygon class="cls-13" points="0 1912.8 0 24.63 2.96 24.63 2.96 28.84 5.58 28.84 5.58 23.15 7.71 23.15 7.71 30.94 9.83 30.94 9.83 25.5 12.21 25.5 12.21 40.22 14.21 40.22 14.21 23.15 16.33 23.15 16.33 31.43 18.08 31.43 18.08 27.23 20.58 27.23 20.58 30.45 23.08 30.45 23.08 22.41 25.33 22.41 25.33 30.45 27.46 30.45 27.46 27.72 30 27.72 30 40.59 32.46 40.59 32.46 23.39 34.21 23.39 34.21 31.93 36.83 31.93 36.83 24.75 38.83 24.75 38.83 40.84 41.33 40.84 41.33 26.73 43.58 26.73 43.58 29.08 46.21 29.08 46.21 22.41 49.08 22.41 49.08 29.33 51.58 29.33 51.58 24.51 53.58 24.51 53.58 41.21 56.08 41.21 56.08 22.41 58.71 22.41 58.71 33.78 61.46 33.78 61.46 31.06 64.71 31.06 64.71 36.26 67.33 36.26 67.33 23.15 69.46 23.15 69.46 29.21 71.83 29.21 71.83 24.51 73.83 24.51 73.83 42.44 76.21 42.44 76.21 30.2 78.58 30.2 78.58 34.65 80.71 34.65 80.71 25.25 83.33 25.25 83.33 37.37 85.21 37.37 85.21 22.49 87.71 22.49 87.71 35.52 90 35.52 90 25.04 92.58 25.04 92.58 37.25 95.5 37.25 95.5 26.94 98.33 26.94 98.33 29.91 101.5 29.91 101.5 25.62 104.5 25.62 104.5 44.5 106.33 44.5 106.33 28.43 109.17 28.43 109.17 34.86 112.17 34.86 112.17 21.5 113.67 21.5 113.67 37 116.33 37 116.33 26.45 118.5 26.45 118.5 29.83 121.5 29.83 121.5 22.98 124.83 22.98 125 42.85 127.83 42.85 127.67 25.13 129.75 25.13 129.75 27.27 132.42 27.27 132.42 23.07 134.92 23.07 134.92 35.43 137.17 35.43 137.17 23.64 139.42 23.64 139.42 43.1 140.5 43.1 140.5 22.41 142.67 22.41 142.67 35.02 143.92 35.02 143.92 30.16 146.58 30.16 146.58 33.37 148 33.37 148 22.41 150 22.41 150 25.87 152.08 25.87 152.08 24.47 154 24.47 154 43.1 156.33 43.1 156.33 22.41 158.67 22.41 158.67 25.95 161.33 25.95 161.33 23.48 164 23.48 164 36.18 166.92 36.18 166.92 31.72 169.5 31.72 169.5 35.43 172.08 35.43 172.08 24.71 174 24.71 174 28.34 176.08 28.34 176.08 21.83 178.83 21.83 178.83 43.19 181 43.19 181 22.98 183.33 22.98 183.33 34.44 185.75 34.44 185.75 25.7 187.92 25.7 187.92 33.21 190.42 33.21 190.42 24.38 192.42 24.38 192.42 29.17 194.5 29.17 194.5 26.45 197 26.45 197 42.52 199.33 42.52 199.33 29.41 201.83 29.41 201.83 35.76 204.75 35.76 204.75 24.8 206.75 24.8 206.75 43.27 209.08 43.27 209.08 26.94 211.25 26.94 211.25 31.48 213.67 31.48 213.67 28.67 215.75 28.67 215.75 33.87 218.42 33.87 218.42 21.83 221.58 21.83 221.58 43.84 223.83 43.84 223.83 23.07 225.75 23.07 225.75 33.62 227.5 33.62 227.5 29.99 229.5 29.99 229.5 34.61 231.83 34.61 231.83 26.69 234.42 26.69 234.42 28.92 236.5 28.92 236.5 23.72 238.92 23.72 238.92 31.97 240.92 31.97 240.92 22.41 243.58 22.41 243.58 40.84 245.83 40.84 245.83 24.3 248.33 24.3 248.33 31.89 250.25 31.89 250.25 23.48 253.25 23.48 253.25 33.21 256.33 33.21 256.33 21.83 259.33 21.83 259.33 41.12 262.08 41.12 262.08 23.15 264.08 23.15 264.08 33.87 267 33.87 267 26.36 269.33 26.36 269.33 31.15 271.33 31.15 271.33 23.72 274.17 23.72 274.17 41.45 276.83 41.45 276.83 21.83 279.92 21.83 279.92 36.01 282.17 36.01 282.17 26.69 284.58 26.69 284.58 37.66 286.67 37.66 286.67 22.82 289.08 22.82 289.08 26.28 292.33 26.28 292.33 23.97 294.83 23.97 294.83 42.2 297 42.2 297 22.41 299.58 22.41 299.58 28.84 301.92 28.84 301.92 21.5 304.25 21.5 304.25 30.57 306.75 30.57 306.75 28.59 309 28.59 309 33.78 312 33.78 312 22.24 315.25 22.24 315.25 37.74 318.33 37.74 318.33 23.81 320.67 23.81 320.67 45.04 323.08 45.04 323.08 28.84 325.75 28.84 325.75 30.73 328.42 30.73 328.42 23.97 331.17 23.97 331.17 21.99 333.25 21.99 333.25 25.7 335.67 25.7 335.67 28.59 338.17 28.59 338.17 22.32 340.25 22.32 340.25 30.9 342.25 30.9 342.13 28.34 344.13 28.34 344.25 44.42 347 44.42 347 21.99 349.5 21.99 349.5 25.5 351.5 25.5 351.5 23.31 354.42 23.31 354.42 35.89 357.42 35.89 357.42 26.12 360.42 26.12 360.42 31.31 363 31.31 363 27.85 365.5 27.85 365.5 39.1 367.92 39.1 367.92 23.48 370.58 23.48 370.58 30.57 373 30.57 373 27.48 376.33 27.48 376.33 45.78 379.67 45.78 379.67 23.81 381.83 23.81 381.83 35.02 384.67 35.02 384.67 31.93 387.17 31.93 387.17 36.01 390 36.01 390 22.49 392.67 22.49 392.67 29.95 395.33 29.95 395.33 23.97 397.67 23.97 397.67 35.68 401 35.68 401 22.82 403.5 22.82 403.5 42.81 406.17 42.81 406.17 23.97 409.5 23.97 409.5 37.16 411.83 37.16 411.83 32.05 414 32.05 414 35.35 416.5 35.35 416.5 25.46 419 25.46 419 37.66 422.17 37.66 422.17 23.15 424.33 23.15 424.33 29.08 427.5 29.08 427.5 24.14 430 24.14 430 37.83 432.5 37.83 432.5 30.45 435 30.45 435 33.66 437.5 33.66 437.5 22.49 440.17 22.49 440.17 43.93 442.83 43.93 442.83 23.48 445.17 23.48 445.17 29.08 447.67 29.08 447.67 23.15 450 23.15 450 37.66 452.5 37.66 452.5 25.29 454.83 25.29 454.83 28.59 457.5 28.59 457.5 23.81 460.33 23.81 460.33 36.84 463.17 36.84 463.17 32.18 465.5 32.18 465.5 35.19 469.17 35.19 469.17 27.11 471.83 27.11 471.83 32.88 474.67 32.88 474.67 24.8 476.71 24.8 476.71 44.17 480 44.17 480 22.9 482.71 22.9 482.71 32.3 485.08 32.3 485.08 23.52 487.21 23.52 487.21 27.97 489.08 27.97 489.08 25 491.33 25 491.33 33.54 494.33 33.54 494.33 29.45 497.58 29.45 497.58 40.09 499.83 40.09 499.83 24.01 502.46 24.01 502.46 36.63 504.71 36.63 504.71 26.73 507.58 26.73 507.58 31.19 510 31.19 510 28.47 512.58 28.47 512.58 36.63 515.33 36.63 515.33 24.88 517.83 24.88 517.83 32.18 520.08 32.18 520.08 22.78 522.46 22.78 522.46 44.3 524.83 44.3 524.83 24.14 526.96 24.14 526.96 31.06 529.46 31.06 529.46 23.02 531.83 23.02 531.83 38.98 534.46 38.98 534.46 28.34 537.33 28.34 537.33 30.94 540 30.94 540 21.5 543.33 21.5 543.33 34.28 545.58 34.28 545.58 22.28 548.58 22.28 548.58 45.29 551.33 45.29 551.33 24.88 553.92 24.88 553.92 28.96 556.67 28.96 556.67 22.07 559.08 22.07 559.08 35.19 561.5 35.19 561.5 24.38 563.75 24.38 563.75 33.54 566.25 33.54 566.25 31.06 568.83 31.06 568.83 34.44 571.33 34.44 571.33 25.13 572.92 25.13 572.92 27.6 575.08 27.6 575.08 22.65 577.25 22.65 577.25 34.11 580 34.11 580 27.97 582.75 27.97 582.75 33.29 585.25 33.29 585.25 22.07 588 22.07 588 43.93 590.42 43.93 590.42 23.48 592.67 23.48 592.67 29.33 595.08 29.33 595.08 22.41 597.17 22.41 597.17 41.58 600 41.58 600 30.82 603 30.82 603 38.36 605.17 38.36 605.17 24.14 607.5 24.14 607.5 29.08 609.67 29.08 609.67 22.41 612 22.41 612 34.86 614.5 34.86 614.5 23.56 616.58 23.56 616.58 27.35 619 27.35 619 22.57 621.08 22.57 621.08 32.3 623.08 32.3 623.08 23.81 625 23.81 625 44.92 627.08 44.92 627.08 22.24 629.25 22.24 629.25 34.86 631.75 34.86 631.75 24.38 634.25 24.38 634.25 32.3 637 32.3 637 28.47 638.75 28.47 638.75 39.84 641.17 39.84 641.17 24.14 643.17 24.14 643.17 32.8 645.33 32.8 645.33 28.47 647.5 28.47 647.5 33.87 649.58 33.87 649.58 23.81 651.92 23.81 651.92 39.84 654.17 39.84 654.17 22.73 656.75 22.73 656.75 25.62 660 25.62 660 1912.8 0 1912.8"/></g></g></svg>