<svg xmlns="http://www.w3.org/2000/svg" xmlns:xlink="http://www.w3.org/1999/xlink" viewBox="0 0 1320 832.8"><defs><style>.cls-1{fill:none;}.cls-2{fill:#281204;opacity:0.42;}.cls-3{fill:#160902;}.cls-4{fill:#5e6614;}.cls-5{fill:#555912;}.cls-6{fill:#4c4b11;}.cls-7{fill:#433e10;}.cls-8{fill:#3a310e;}.cls-9{fill:#31230d;}.cls-10{fill:#28160b;}.cls-11{fill:#25140a;}.cls-12{fill:#221309;}.cls-13{fill:#1f1109;}.cls-14{fill:#1c0f08;}.cls-15{fill:#190e07;}.cls-16{fill:#160c06;}.cls-17{opacity:0.68;fill:url(#New_Pattern_Swatch_1);}</style><pattern id="New_Pattern_Swatch_1" data-name="New Pattern Swatch 1" width="289.6" height="289.6" patternUnits="userSpaceOnUse" viewBox="0 0 289.6 289.6"><rect class="cls-1" width="289.6" height="289.6"/><path class="cls-2" d="M0,271.5s45.4-8.4,53.8-4,19.6,14.8,19.6,14.8,18.8-6.08,29.2-8L113,279.1l40.8-12.88s20.4,6.88,25.6,9.68,16.8,11.2,24.8,8.4,39.6-12.4,39.6-12.4,18.4,3.68,26.8,3.64,19-3.64,19-3.64v30.4H271l-27.6,9.2-29.2-4s-13.6-8.8-35.2-8.8-34.2-7.2-34.2-7.2l-25.4,11.2-24.8-6.8-34.8,8.4L38.6,291.5S3,302.3,0,302.3Z"/><rect class="cls-3" y="12.87" width="289.6" height="289.6"/><path class="cls-2" d="M289.6,27.37c-71.8,10.34-143.67,1.4-196.4-4C59.79,20,26.62,23,0,27.37v28c50.27-2,143.92-5.78,203.45-.19,26.17,2.46,57,1.94,86.15.21Z"/><path class="cls-2" d="M289.6,123.75c-57.72.56-143.35-5.41-195.2-12.64C58.14,106.05,39,125.68,0,123.86v26.58c41.61-4,113.6-12,152-3.54,24.31,5.37,82.18,6.26,137.6,3.36Z"/><path class="cls-2" d="M0,53.87s45.4-8.4,53.8-4,19.6,14.8,19.6,14.8,18.8-6.07,29.2-8L113,61.47,153.8,48.6s20.4,6.87,25.6,9.67,16.8,11.2,24.8,8.4,39.6-12.4,39.6-12.4,18.4,3.69,26.8,3.65,19-3.65,19-3.65v30.4H271l-27.6,9.2-29.2-4s-13.6-8.8-35.2-8.8-34.2-7.2-34.2-7.2l-25.4,11.2-24.8-6.8-34.8,8.4L38.6,73.87S3,84.67,0,84.67Z"/><path class="cls-2" d="M289.6,117.42V87.53s-7.4,6.69-15.4,8.69-28.4-9.6-34.4-8.8-34,3.2-50-4-10.4-1.2-10.4-1.2l-34.6,14-46.2-11h-26L49,91.82,0,87.53v29.89s23.4-8,29.2-8.4,26.6,4.2,39.4,2.2,21,1.8,26.8,1,25.6-7.8,25.6-7.8l9.4,10.4,7.2-4.8,9,12.2,14.8-3.8,17.8-14,6.4,2.4H213c7,0,18.8,14,18.8,14l30.8-10.4,27,7"/><path class="cls-2" d="M289.6,183c-71.8,10.34-143.67,1.4-196.4-4-33.41-3.42-66.58-.42-93.2,4v28c50.27-2,143.92-5.78,203.45-.19,26.17,2.46,57,1.94,86.15.21Z"/><path class="cls-2" d="M0,217.18s45.4-8.4,53.8-4S73.4,228,73.4,228s18.8-6.08,29.2-8l10.4,4.84,40.8-12.88s20.4,6.88,25.6,9.68,16.8,11.2,24.8,8.4,39.6-12.4,39.6-12.4,18.4,3.69,26.8,3.64,19-3.64,19-3.64V248H271l-27.6,9.2-29.2-4s-13.6-8.8-35.2-8.8-34.2-7.2-34.2-7.2l-25.4,11.2-24.8-6.8L59.8,250l-21.2-12.8S3,248,0,248Z"/><path class="cls-2" d="M0,273s45.4-8.4,53.8-4,19.6,14.8,19.6,14.8,18.8-6.08,29.2-8l10.4,4.84,40.8-12.88s20.4,6.88,25.6,9.68,16.8,11.2,24.8,8.4,39.6-12.4,39.6-12.4,18.4,3.69,26.8,3.64,19-3.64,19-3.64v30.4H271L243.4,313l-29.2-4s-13.6-8.8-35.2-8.8-34.2-7.2-34.2-7.2l-25.4,11.2-24.8-6.8-34.8,8.4L38.6,293S3,303.78,0,303.78Z"/><path class="cls-2" d="M0-18.1s45.4-8.4,53.8-4S73.4-7.3,73.4-7.3s18.8-6.08,29.2-8L113-10.5l40.8-12.88s20.4,6.88,25.6,9.68,16.8,11.2,24.8,8.4,39.6-12.4,39.6-12.4,18.4,3.68,26.8,3.64,19-3.64,19-3.64V12.7H271l-27.6,9.2-29.2-4S200.6,9.1,179,9.1s-34.2-7.2-34.2-7.2L119.4,13.1,94.6,6.3,59.8,14.7,38.6,1.9S3,12.7,0,12.7Z"/><path class="cls-2" d="M289.6,280.72V250.84s-7.4,6.68-15.4,8.68-28.4-9.6-34.4-8.8-34,3.2-50-4-10.4-1.2-10.4-1.2l-34.6,14-46.2-11h-26L49,255.12,0,250.84v29.88s23.4-8,29.2-8.4,26.6,4.2,39.4,2.2,21,1.8,26.8,1,25.6-7.8,25.6-7.8l9.4,10.4,7.2-4.8,9,12.2,14.8-3.8,17.8-14,6.4,2.4H213c7,0,18.8,14,18.8,14l30.8-10.4,27,7"/><path class="cls-2" d="M0,161.54l16.2-10.4,13.6,11.2L65,144.74H75.4s-1.2-2.8,8,3.2,40,2,40,2l24,10.4s26.8-5.2,35.2-1.2,29.6-1.6,29.6-1.6l10,10,26.8-9.2,25.6,9.2,15-6V195s-41.8-15.9-61.6-12.3S186.6,195,186.6,195l-25.2-25.48L114,176.14l-31.8-6.58-27,15.58-7.2-6.2-18,6.2L0,195Z"/><rect class="cls-3" y="-276.73" width="289.6" height="289.6"/><path class="cls-2" d="M0-16.62s45.4-8.4,53.8-4S73.4-5.82,73.4-5.82s18.8-6.08,29.2-8L113-9,153.8-21.9s20.4,6.88,25.6,9.68S196.2-1,204.2-3.82s39.6-12.4,39.6-12.4,18.4,3.69,26.8,3.64,19-3.64,19-3.64v30.4H271l-27.6,9.2-29.2-4s-13.6-8.8-35.2-8.8-34.2-7.2-34.2-7.2l-25.4,11.2L94.6,7.78l-34.8,8.4L38.6,3.38S3,14.18,0,14.18Z"/></pattern></defs><title>6</title><g id="Layer_2" data-name="Layer 2"><g id="Chão"><rect class="cls-4" width="1320" height="60"/><path class="cls-5" d="M.61.62h.57L4.84,5h1L9,1.2H10l1,1.22h.47L12,1.76h.88l1.34,1.63h.55L16.92.74h.72l1.55,1.88h.47l1.27-1.56h.62l.78,1h.6l1.4-1.7h.78l1.75,2.12h.65L28.82.85h.78l2.2,2.67h.85l1.74-2.11h.83l3.37,4h.65l4-4.83h.49l.45.58h.63l.38-.5h.47l.77,1h.7L48.35,3.1h.77L51.34.42H52l4.54,5.43h.73l4-4.82H62l2.91,3.5h.72l2.57-3.09h.68l.6.76h.6l.51-.65H71L72,2.69h.49L74.22.55h.65l4.44,5.3h.6l3.92-4.69h.42l3.54,4.23h.44L88.52,5H89l.2.28h.44l1.71-2.07h.4L93.65.94h.6l.84,1h.42L96.68.53h.63l.74.92h.72L99.2.89h.65l1.67,2h.76l1.19-1.46h.65l2.22,2.68H107l1.17-1.43H109l.92,1.14h.68L113.15.76h.67l1.24,1.51h.75l.81-1h.88l1.57,1.9h.86l2-2.39h.63l2.1,2.53h.7L127.26,1h.88l.47-.61h.45l5.13,6.11h.65L139.69.71h.5l1,1.23h.62l.59-.74H143l1.24,1.51h.55l.46-.59h.5L146.71,1h.35l.46.6h.71l.79-1h.88l1.36,1.65H152l.83-1h.58l1.1,1.35h.52L156.51.81h.73l1,1.27h.81L160.53.31h.78L163,2.41h.66l1-1.2h.72l1.75,2.12h.6l2-2.44h.8l1.18,1.44h.57L173.75.58h.89l2.15,2.58h.44l.45-.57h.52l.22.3H179l.71-.87h.42L181.53.37h.65l2,2.37h.76l1.34-1.62h.39l3.55,4.22h.55l4-4.82h.49l.48.61h.63l.34-.46h1l2.06,2.49h.73l1.43-1.72h.75l.29.39h.83l.88-1.09h.73l.36.47h.53l.45.59h.5l.87-1.07h.8l2.25,2.69h.78l.95-1.16h1l.6.75h.75L216.8,1.1h.61l.66.84h.53l1-1.27h.7l.68.85h.53l.85-1.06h.71l1.79,2.16h.65L227,.87h.74l2.34,2.8h.52l1.31-1.58h.91l2.26,2.72h.63L237.16,3h.45l2-2.39h.63s1.23,1.52,1.25,1.52h.34l.93,1.14h.6L245.41.83h1l3,3.59h.61l2.39-2.86h.68l3.21,3.82h.57L261,.58h.63l.83,1H263l.5-.64h.68l1.73,2.09h.68L268,1.31h.65l.54.68H270l.23-.32h.37l1.7,2h.73l2.51-3h.74l1.56,1.89h.68L279.89,1h.68l1.77,2.13h.6l1.34-1.63h.6l.83-1h.65l1.44,1.73h.6l.48-.61h.65l1,1.24h.5l1.49-1.79h.55L297,5.66h.58l4.21-5h.63L305,3.77h.66l1.92-2.31h.68l2.61,3.12h.47l2.12-2.53h.47l.81,1h.63l.47-.6h.75l2.26,2.69h.73l4-4.69h.76l.95,1.17h.63l2,2.36h.76L331.48.56H332l5.09,6h.68l3.81-4.52h.63l2.23,2.67h.6l1.7-2h.65l1.31,1.58h.55l1.7-2h.61l.58.74h.58l.94-1.15h.66l1-1.28h.68l1.66,2h.6l1.09-1.32h.65l.3.41H361l.54-.68h.6l2.13,2.54h.68l1.33-1.6h.63L368.7,4h1l.32-.41h.65L373,.84h.74l1.84,2.21h.76l1.65-2h.63l3,3.54h.73l2.55-3h.58l3.13,3.72h.76l.29-.39h.5L393.72.64h.65l.42.55h.4l3.86,4.57h.68l3.34-3.95h.86l.44.56h.86l1.41-1.7h.47l.67.82h.57l1-1.18H410l3.41,4h.71L417,1h.58l2,2.38h.58l.21-.29h.5l.43.55h.58l.75-.91h.55L425.1,5h.71l.86-1h.6l.21.29H428l2.54-3h.76L432.73,3h.5l2-2.39h.63l2.31,2.73H439l1.41-1.69h.68l3.34,3.94h.81l1.43-1.72h.63L448,3h.58L450.4.83H451l3.43,4h.68l.69-.85h.6l.39.5h.65l2.86-3.38H461l1.07,1.3h.68l.61-.77H464l1.39,1.67h.53l.5-.64H467l.81,1h.63L470.89.81h.92l1,1.24h.73l.6-.75h.76L476.31,3h.61l.31-.41h.61l1.91,2.28h.45L483.51.94h.68L486,3.13h.58L487.55,2h.61l1-1.28h.84l4.05,4.77h.81L496.13,4h.68l1.11-1.33h.58l.27.36h.58L501.24.8h.86l.55.68h.84l.25-.35h.69l3.07,3.63h.79l1.69-2h.76L511.79,4h.92l1.83-2.18h.73l1.1,1.31h.71L519.16.69H520l.59.73h.81l.39-.5h.69l1.13,1.36h.71l3,3.57H528l3.44-4h.66l1,1.19h.68l1.48-1.76H536L537,2.34h.66L539.11.56h.66l1.76,2.1h.69l1.09-1.32h.58l.56.69h.66L546,1h.63l2.17,2.56h.57l.91-1.1h.58l.72-.88h.48l3.52,4.14h.66l1.46-1.73h.53l.65.8h.53l2-2.39h.68l.73.89h.58L565.65.6h.79l.94,1.14h.71l.67-.82h.6L572,4h.7l1.23-1.47h.74l2.46,2.9H578l3-3.52h.74l1.12,1.34h.74l1.66-1.95h.58l.36.47H587l.85-1h.82l1.61,1.9H591l1.31-1.56h.73l1,1.18h.69L596.07.7h.64l2.69,3.17h.45L602,1.34h.69l.79,1H604L605.47.49h.66l4.06,4.75H611l.35-.44H612l.71-.88h.64L614.2,5h.63l2.39-2.8h.71L619.22.66H620L622,2.91h.71l1.39-1.65h.86l1.84,2.16h.87l1.1-1.32h.81l.5.63h.59l.91-1.1h.66l.56.7h.74L634.72.85h.87l.35.45h.73l.3-.39h.48l1.86,2.19h1l.83-1h.74l1.42,1.68H644l.74-.9h.64l1.32-1.57h1l1.56,1.84h.71L651,1.87h.74l1.5,1.77h.53l1.12-1.33h.71l2.12,2.49h.58L661.56,1h.4l.79,1h.53l.58-.71h.53l1.22,1.45h.58L667.75.84h.5l.91,1.08h.4l.65-.8h.69l1,1.19h.61L673.9.66h.77l1,1.18h.77l.57-.71h.5l1.81,2.13h.4l.94-1.13h.61L682.47.67h.69l.84,1h.32l.65-.8h.35l1.67,2h.71L689.79.42h.51l.26.35h.4l.43-.54H692l.78.93h.45l1.93,2.26h.43l.39-.5h.43l.2.28h.53l.94-1.12h.53l.66.8H700l2-2.39h.5l2,2.35h.43l1-1.24h.37l.34.43h.42L708.19.76h.56l1.49,1.75h.58L712.57.45h.59l.74.9h.24l.62-.75h.61l2.26,2.64h.75L720.3,1H721l.47-.58h.87l1.52,1.79h.66L725.82.66h.76l.8,1h.48l1-1.24h.74l3.69,4.28H734l1.31-1.56h.8l2-2.3h.69l2.69,3.12h.69l2.36-2.75h.61L747,3.38h.66l2.56-3h.58l1.57,1.83h.71L754.35.76H755l1.78,2.07h.66l1.18,1.38h.69l2.46-2.86h.53l.8,1h.61L765.22.49H766l2.55,3h.74L771.38,1h.82l1.6,1.87h.66l1.21-1.43h.69l2.8,3.24h.64L783.33.58h.74l2.32,2.69H787l1.86-2.17h.61l1.49,1.75h.74l1.8-2.09h.61l.54.65h.43l.72-.88h.48l2.52,2.92h.51l.54-.67h.58l.37.46h.68l2-2.35h1l.31.41h.51l.55-.68h.69l3.54,4.07h.63L814,.89h.67l2.06,2.41h.51l.58-.71h.38l.31.4h.51l.65-.78h.58l1.22,1.43h.54l2.63-3h.48l2.15,2.49h.53l.44-.54h.61l.62.75h.72l.58-.71h.59L832.84.91h.61l2.33,2.69h.75l2-2.26h.79l4.19,4.8H844l3.45-4h.82l1.71,2h.62l1.19-1.4h.67l1.81-2.1h.63L857,3.08h1.14L860,1h.75l.53.65H862l.64-.77h.86l1.48,1.73h.51l1.68,1.93H868l2.52-2.89h.74l1.49,1.73h.78l2-2.32h.83l1,1.21h.78L879.46.68h.59l.81,1h.7l.53-.65H883l1.6,1.86h1l1.27-1.48h.64L889.75,4h.86l1.86-2.14h.78l.78.91h.78L896.33,1h.87l.73.88h.8l.5-.61H900l1.93,2.22h.74l.55-.67h.85l2.72,3.11h.53l4-4.5h.53L914.2,4.2h.73L917.87.84h.59l1,1.18h.67l.49-.6h.54l1.62,1.88h.59l.82-1h.67l2.76,3.15h.82l.39-.48h.74l.26.34h.62l4-4.6h.7l.4.5h.54l.25-.33h.67l2.4,2.73h.64l.94,1.1h.53l.46-.55h.64l.19.26h.67l2.28-2.6h.69l.31.39h.4l.58-.69h.8L950,3.17h.57l2-2.26h.72l.46.57h.67l.36-.45h.7l2.64,3h.72L961.74.7h.75l.57.68h.56L964,.94h.73l1.42,1.64h.54l.8-1h.59l.8-.93h.64l.33.42h.57l.22-.29h.59l2.29,2.61h.67l1-1.11h.56l.39.48h.6l2-2.3h.57l.55.66h.54l.32-.4h.54l.9,1.06h.65l.36-.45h.59l3.75,4.24h.67L992.71.46h.72l1.7,2h.51l1.1-1.27h.64L999,3h.64l.31-.39h.49l.53.64h.7l1.4-1.6h.48l.33.42h.6l.76-.89h.57L1007,2.58h.49l1.79-2h.62l1.17,1.34h.72l.52-.62h.62l4.67,5.25h.76l3.52-4h.52l.85,1h.73l.6-.71h.46l2,2.25h.49l3.72-4.18h.7l1.28,1.46h.67l.77-.9h.57l2,2.21h.8l2.67-3h.7l3.48,3.91h.75l2.64-3h.54l.6.71h.65l1.2-1.37h.64l.65.75h.8l.46-.55h.62l1.89,2.14h.76l1.35-1.54h.54l3.29,3.68h.73l4.31-4.8h.6l3.29,3.68h.57l.73-.85h.75l.43.51h.57l2.44-2.73h.7l1.33,1.51h.76l1.06-1.21h.54l4.12,4.6h.52l5-5.53h.57l.55.66h.52l.34-.42h.52l2,2.24h.62l1.32-1.5h.68l.66.76h.78l1.2-1.38h.74l3,3.38h.83l1.49-1.68h.87l.9,1h.7l2.22-2.49h.79l.89,1h.68l1.32-1.49h.6l2.2,2.46h.84l1.78-2h.76l1.25,1.4h.62l1.78-2h.89l.4.47h.86l2.69,3h.73l2.08-2.32h.76l1.41,1.59h.7L1137.29,1h.68l1.57,1.75h.89l1.19-1.34h.73l3,3.34h.7l.53-.63h.85l.24.31h.73l2.26-2.5h.6l1.55,1.73h.74l2.5-2.76h.59l4.55,5h.61L1164.43,3h.68l.7-.81h.73l.34.41h.7L1169.1.94h.74l.8.91h.74l.41-.48h.39l.83.93h1l1.67-1.85h.76l4,4.35h.72l3-3.25h.77l2,2.19h.72l2.32-2.54h.72l.47.54h.68l.94-1h.8l4.41,4.78h.88l2.16-2.36h.73l1.59-1.75h.48l1,1.14h.77l1.92-2.1h.76l3.06,3.33h.73l2.25-2.46h1.08l.92,1h.69l1.31-1.44h1.07l3.65,4h.85l3-3.27h.79l2.43,2.64h.61l3-3.25h.71l.61.69h.74l1.15-1.26h.56l2.67,2.89h.66l.65-.72h.49L1243,3.77h.47l1-1.07h.67l.43.49h.5l2.3-2.49h.72l3.59,3.83h.53l3.24-3.45h.56l.91,1h.58l1.31-1.42h.67l1.61,1.72h.61l1.13-1.22h.86l.74.82h.39l1.37-1.46h.81l1.84,2h.59l1.46-1.56h.23l1.25,1.35h.54l1.76-1.88h.54l2.7,2.84h.43l1.05-1.13h.38l.43.49h.54l1-1.08h.57l.5.55h.37l2,2h.54l3.09-3.19h.76l.55.6h.62l1-1h.6l.38.41h.68l2.44,2.49h.49l2.44-2.51h.61l1.28,1.33h.53l.73-.76h.56l1.31,1.33h.7l2.14-2.14h.75L1310,2.3h.94L1312.24,1h.58l.88.87h.42l1.29-1.26h.65l1,1h.59l.66-.59h.54l.54-.56h.57V60H0V9.16L.61,6.1Z"/><path class="cls-6" d="M1.22,1.23h.86L5,10H6.53L9.06,2.4h1.38l.79,2.44h.71l.42-1.33h1.31l1.07,3.28h.82l1.76-5.31H18.4l1.23,3.75h.71l1-3.11h.93l.63,2h.89L24.93.65h1.16l1.4,4.25h1l1-3.19h1.16L32.42,7h1.27l1.39-4.22h1.23L39,10.9h1L43.2,1.23H44l.36,1.17h.93l.31-1h.71l.61,1.92h1.05l.94,2.89H50L51.79.84h1l3.63,10.87h1.09l3.22-9.64h1l2.33,7h1.08l2-6.2h1l.48,1.53h.9L70,3.09h.71l.74,2.28h.74l1.42-4.28h1L78.1,11.71H79l3.14-9.39h.64l2.83,8.47h.67L86.5,10h.75l.16.57h.67l1.37-4.14h.6l1.5-4.56h.9L93.12,4h.64l.94-2.89h.93l.59,1.83H97.3l.35-1.11h1L100,5.84h1.12l1-2.91h1l1.78,5.36h1l.94-2.86h1.16l.73,2.28h1l2.06-6.2h1l1,3h1.12l.65-2h1.3L118,6.34h1.27l1.58-4.77h.93l1.68,5.05h1L126.06,2h1.3l.38-1.22h.68L132.52,13h1l3.88-11.55h.75l.79,2.44h.93l.47-1.47h1l1,3h.83l.37-1.2h.75L145,2h.52l.37,1.19h1.05l.63-2h1.31l1.09,3.3h1.16l.66-2.05h.86l.88,2.69h.78l1.16-3.5h1.08l.82,2.53h1.2L159.69.62h1.16l1.39,4.2h1L164,2.43h1.09l1.4,4.22h.89L169,1.79h1.2l.94,2.86H172l1.15-3.5h1.31l1.72,5.17h.67l.36-1.14H178l.18.61h.93L179.63,4h.64L181.36.73h1l1.58,4.75H185l1.07-3.25h.6l2.83,8.45h.83L193.6,1h.74l.39,1.22h.93l.28-.92h1.42l1.65,5h1.09l1.13-3.45h1.12l.24.78h1.23l.7-2.17h1.09l.28,1h.79L207,3.59h.75l.69-2.13h1.2l1.8,5.38h1.16l.76-2.33h1.45l.48,1.5h1.12l1.26-3.8h.9l.53,1.66h.79l.83-2.53h1l.54,1.7h.79l.69-2.11h1l1.43,4.3h1l1.15-3.5h1.09l1.87,5.61h.79l1-3.16h1.34l1.82,5.44h.93l1.18-3.55h.68l1.59-4.78h.94s1,3,1,3h.53L244,6.59h.9l1.65-4.94H248l2.42,7.19h.89l1.92-5.72h1l2.57,7.64h.86l3.23-9.61h.94l.66,2.06h.83l.4-1.28h1l1.39,4.16h1l1.14-3.47h1L269.68,4H271l.18-.64h.57l1.36,4.09h1.08l2-6h1.09l1.25,3.78h1L280.56,2h1L283,6.23h.89L285,3h.9l.66-2h1l1.15,3.47h.9l.38-1.22h1l.81,2.47h.75l1.19-3.59h.82l3.11,9.23h.87l3.37-10h.94l2.09,6.22h1l1.54-4.61h1l2.09,6.22h.71l1.69-5.06h.71l.65,2h.94l.37-1.19h1.12l1.81,5.39h1.08L322.7.9h1.12l.77,2.33h.93L327.1,8h1.12l2.3-6.84h.83l4.06,12h1l3-9h.94l1.78,5.34h.9l1.36-4.06h1l1.05,3.17h.83l1.35-4.09h.9L350,6h.87l.75-2.31h1l.84-2.56h1l1.33,4h.9l.87-2.64h1l.25.8h.89l.44-1.36h.9L362.71,7h1l1.06-3.2h.94l1.44,4.31h1.42l.25-.84h1l1.86-5.55h1.09l1.47,4.41h1.13l1.32-4h.94L380,9.21h1.08l2-6.06H384l2.51,7.44h1.12l.24-.77h.75l2.88-8.53h1l.33,1.08h.6l3.09,9.14h1l2.66-7.89h1.28l.35,1.11h1.27l1.12-3.39h.72L405.44,3h.86l.78-2.36h1l2.73,8.09h1.05l2.29-6.78H415l1.6,4.75h.86l.17-.59h.75l.34,1.12h.87l.59-1.84H421L422.58,10h1.05l.69-2.1h.9l.16.58h.72l2-6h1.12L430.43,6h.76l1.6-4.78h.93l1.85,5.48h1.2l1.13-3.39h1l2.67,7.89h1.2l1.15-3.45h.93l.59-1.8h.86l1.44-4.31h.94l2.74,8.08h1L453,8h.91l.31,1h1l2.28-6.75h1l.86,2.58h1l.49-1.53h.87l1.11,3.34h.78L464,5.4h.94l.65,2h.94l2-5.78h1.35l.82,2.47h1.08l.49-1.5h1.12l1.11,3.34h.9l.26-.84h.9L478,9.65h.67l2.65-7.78h1l1.47,4.39h.87L485.46,4h.9l.84-2.55h1.24L491.68,11h1.2l1-2.92h1l.88-2.67h.87l.21.72h.87l1.51-4.5h1.27L500.92,3h1.24l.2-.7h1l2.47,7.25H507l1.35-4h1.13L510.32,8h1.35l1.46-4.36h1.09l.88,2.64h1l1.66-4.92H519l.47,1.47h1.2l.32-1h1l.9,2.73H524l2.43,7.14h1l2.75-8.12h1L531.89,6h1l1.18-3.52h1.2L536,4.68h1l1.19-3.56h1l1.42,4.2h1l.88-2.64h.86l.45,1.39h1l.72-2.17h.94L548.14,7H549l.73-2.19h.86l.57-1.75h.72l2.82,8.27h1l1.16-3.47h.79l.52,1.61h.79l1.62-4.77h1l.58,1.77H563l1.78-5.27H566l.75,2.27h1l.54-1.64h.9l2.11,6.23h1l1-2.95h1.09l2,5.81h1.21L580,3.87h1.09l.9,2.7h1.09l1.32-3.92h.87l.29.94h1.2l.69-2.08h1.2L590,5.32h1.16l1-3.11h1.09L594,4.57h1l1.06-3.17h.94l2.15,6.33h.68l1.71-5.05h1l.63,1.91H604L605.18,1h1l3.26,9.5h1.16l.27-.89h.94l.58-1.75h.94L614,10H615l1.91-5.6h1l1-3.08h1.21l1.52,4.5h1.06l1.11-3.31h1.28l1.46,4.33h1.28l.88-2.63h1.2l.4,1.25h.87l.73-2.2h1l.45,1.39h1.09l1-2.94h1.28l.28.88h1.09l.24-.77H639l1.5,4.39H642l.67-2h1.09l1.13,3.36h1l.59-1.81h.94l1.06-3.14h1.43l1.25,3.7h1.05l.86-2.56h1.09l1.2,3.56h.79l.89-2.67h1.05l1.7,5h.86L663.28,2h.61l.63,1.92h.79l.46-1.42h.79l1,2.89h.86l1.25-3.69h.75l.73,2.16h.6l.53-1.61h1l.8,2.39h.9l1.12-3.3h1.13L678,3.68h1.12l.46-1.42h.76l1.44,4.25h.61l.74-2.25h.91l1-2.92h1l.67,2h.49l.52-1.58h.53l1.33,3.94h1.06L692.32.84h.75l.21.7h.61l.34-1.08h.94l.62,1.86h.68L698,6.84h.64l.32-1h.64l.16.56h.79l.75-2.25h.8l.53,1.61h1L705.25,1H706l1.61,4.7h.64l.83-2.47h.57l.27.86h.64l.86-2.56h.83L713.44,5h.86L715.71.9h.87l.59,1.81h.38l.49-1.5H719l1.81,5.27h1.09L723.39,2h1l.37-1.16h1.28l1.22,3.58h1l1-3.08h1.12l.64,1.91h.72l.83-2.47h1.09l3,8.56h1l1.05-3.11h1.17l1.58-4.62h1l2.15,6.25h1l1.89-5.5h.9l1.51,4.42h1L753,.82h.86l1.26,3.66h1l1-3h.9l1.42,4.14h1l.95,2.78h1l2-5.72h.8l.64,1.91h.9L768,1h1.09l2,5.92h1.1L773.89,2h1.2l1.28,3.75h1l1-2.87h1l2.24,6.48h.94l2.83-8.17h1.09l1.86,5.39h.86l1.5-4.33h.9l1.19,3.5h1.1l1.44-4.2h.9l.43,1.31h.64l.58-1.75h.72l2,5.83h.75l.44-1.33h.86l.29.91h1l1.62-4.69h1.5l.25.8h.76l.45-1.36h1l2.83,8.14h.94l2.63-7.58h1l1.65,4.8h.76l.46-1.41h.57l.25.8h.76l.51-1.55h.87l1,2.86h.79l2.11-6.08h.71l1.72,5h.8l.35-1.09h.9l.5,1.5h1.06l.47-1.41H834l1.15-3.36h.91l1.87,5.39H839l1.56-4.53h1.17l3.35,9.6H846l2.75-7.92h1.21l1.37,4h.92l.95-2.79h1l1.45-4.21h.92l1.67,4.83h1.66l1.45-4.21h1.1l.43,1.29h1l.52-1.54h1.26l1.19,3.46h.76L868.93,9h1.21l2-5.8h1.09l1.19,3.46h1.15l1.6-4.62h1.21l.83,2.41h1.15l1.08-3.12h.86L883,3.28h1l.42-1.3h1.27L887,5.69h1.46l1-3h.95L892.23,8h1.27L895,3.69h1.15l.61,1.84h1.16L899.13,2h1.26L901,3.73h1.17l.4-1.22h1.1L905.19,7h1.1l.44-1.34H908l2.18,6.22h.79l3.15-9h.79l1.94,5.56h1.07l2.35-6.73h.88l.8,2.37h1l.4-1.2h.79l1.3,3.75h.87l.66-1.94h1L930.12,11h1.21l.31-1h1.09l.21.68h.91l3.24-9.2h1l.32,1h.8l.2-.66h1l1.92,5.47h.94L944,9.48h.8l.36-1.11h.95l.15.53h1l1.82-5.19h1l.25.77h.6l.46-1.39h1.18l1.13,3.25h.83l1.58-4.52h1.06L957.58,3h1l.28-.89h1l2.11,6h1.06l2.34-6.67h1.1L967,2.76h.83l.28-.89h1.06l1.14,3.28h.8l.64-1.89h.88l.63-1.86h.95l.27.83h.83l.18-.58h.87l1.84,5.22h1l.76-2.22h.84l.31,1h.88L983.54,1h.83l.45,1.33h.8l.25-.8h.8l.72,2.11h1l.29-.89h.87l3,8.47h1L997.15.93h1.06l1.36,3.89h.76l.88-2.53h.95L1003.47,6h.95l.24-.78h.73l.42,1.28h1l1.11-3.2h.73l.26.84h.87l.61-1.78h.84l1,2.75h.72l1.43-4.06h.91l.94,2.7h1.06l.42-1.25h.91l3.74,10.5h1.1l2.82-7.92h.76l.69,2h1.07l.47-1.41h.69l1.59,4.5h.72l3-8.37h1l1,2.92h1l.62-1.8h.83l1.56,4.41h1.18l2.14-6h1l2.79,7.81h1.1l2.11-5.94h.8l.48,1.41h.95l1-2.75h1l.51,1.5h1.18l.36-1.08h.92l1.52,4.28h1.1l1.08-3.09h.8l2.63,7.36h1.07l3.45-9.61h.87l2.64,7.36h.84l.58-1.69h1.1l.34,1h.84l2-5.47h1l1.07,3h1.11l.84-2.41h.8l3.3,9.19h.76l4-11h.84l.44,1.3h.76l.28-.83h.76l1.59,4.47h.92l1.06-3h1l.52,1.53h1.15l1-2.75h1.07l2.42,6.75h1.22l1.19-3.36h1.26l.72,2.05h1l1.78-5h1.14l.72,2.06h1l1.06-3h.87l1.77,4.92h1.22l1.43-4h1.1l1,2.81h.91l1.43-4h1.3l.31,1h1.26l2.15,5.94h1.07l1.66-4.64h1.11L1137,6.65h1L1139.72,2h1l1.26,3.5h1.29l1-2.67h1.07l2.41,6.67h1l.43-1.25h1.22l.2.61h1.07l1.8-5h.89l1.24,3.47h1.07l2-5.52h.88l3.64,10h.88L1166.13,6h1l.56-1.61h1.07l.27.8h1l1.21-3.36h1.08l.64,1.84h1.07l.33-1h.58l.66,1.88H1177L1178.34.9h1.11l3.19,8.71h1.06l2.38-6.5h1.11l1.59,4.37h1.06l1.85-5.08h1l.37,1.08h1l.75-2.08H1196l3.52,9.57h1.28l1.73-4.74h1.06l1.27-3.5h.71l.82,2.3h1.11l1.54-4.21h1.11l2.45,6.66h1l1.8-4.91h1.57l.74,2.05h1l1-2.89h1.53l2.92,7.92h1.23l2.42-6.53h1.15L1231,8.4h.89l2.4-6.5h1l.49,1.39h1.08l.92-2.53h.81l2.14,5.78h1l.52-1.45h.73l.89,2.45h.7l.77-2.14h1l.34,1h.73l1.85-5h1l2.87,7.67h.78l2.59-6.92h.82l.72,2h.85l1-2.83h1l1.29,3.44h.89l.9-2.44h1.24l.59,1.64h.58l1.1-2.92h1.16L1270.16,5h.85l1.17-3.12h.35l1,2.7h.78l1.41-3.75h.78l2.16,5.67h.63l.84-2.25h.55l.35,1h.78l.82-2.17h.82l.4,1.11h.54L1286,8.21h.78l2.47-6.39h1.09l.44,1.19h.9l.78-2h.86l.31.83h1l1.94,5h.72l2-5h.87l1,2.67h.75l.58-1.53h.8l1,2.67h1L1307,1.26H1308l1.34,3.33h1.34l1-2.55h.83l.71,1.75h.6l1-2.53h.92l.84,2h.83l.53-1.2h.75l.43-1.11h.79V60H0V9.17L1.22,6.72Z"/><path class="cls-7" d="M1.84,1.85H3L5.17,15h2L9.09,3.6h1.83l.59,3.67h1l.31-2H14.5l.8,4.91h1.1l1.32-7.95h1.43l.93,5.62h1l.76-4.67H23L23.5,6.1h1.19L25.53,1h1.54l1.05,6.37h1.29l.78-4.79h1.54l1.32,8h1.68l1-6.33H37.4l2,12.12h1.29l2.42-14.5h1L44.4,3.6h1.24l.23-1.5h1L47.28,5h1.39l.71,4.33h1.53l1.33-8h1.34l2.73,16.29h1.43L60.16,3.1h1.29L63.2,13.6h1.43l1.54-9.29h1.34l.36,2.29h1.2l.3-2h.95l.56,3.42h1l1.06-6.42h1.29l2.67,15.92h1.19L80.43,3.48h.86l2.12,12.7h.9L84.48,15h1l.12.85h.9l1-6.21h.81l1.13-6.83h1.19l.5,3.12H92l.7-4.33H94l.45,2.75h1.43l.26-1.67h1.29l1,6.09h1.49l.71-4.38h1.29l1.34,8h1.34l.7-4.29h1.53l.56,3.42h1.34l1.54-9.29h1.34l.75,4.54h1.48l.48-3H116l.94,5.71h1.68l1.19-7.17h1.24l1.26,7.58h1.39L124.86,3h1.72l.29-1.84h.9l3.08,18.34h1.29l2.91-17.34h1l.59,3.67h1.24l.35-2.21h1.29l.75,4.54h1.1l.27-1.79h1l.56-3.42h.7l.28,1.8h1.39l.48-3h1.73l.81,5h1.54l.5-3.09h1.14l.66,4h1l.86-5.25h1.44l.62,3.8H158l.87-5.3h1.54l1,6.3h1.29l.58-3.59h1.44l1,6.34H167l1.21-7.3h1.58l.71,4.3h1.14l.87-5.25h1.73l1.29,7.75h.9l.26-1.71h1.05l.13.91h1.25l.42-2.62h.85l.81-5h1.3l1.18,7.13h1.49l.8-4.88h.81L188.88,16H190l2.43-14.46h1l.28,1.83h1.24L195.14,2H197l1.24,7.46h1.44l.85-5.17H202l.17,1.17h1.63l.53-3.25h1.44L206,3.64h1l.28,1.75h1l.52-3.21h1.59l1.35,8.09h1.53l.57-3.5h1.93L216.19,9h1.48l1-5.71h1.19l.4,2.5h1L221.88,2h1.39l.41,2.54h1l.52-3.17h1.39l1.07,6.46H229l.87-5.25h1.44L232.7,11h1.05l.78-4.75h1.78l1.36,8.16h1.25l.88-5.33h.9l1.2-7.17h1.24s.71,4.54.75,4.54h.71l.55,3.42h1.2l1.23-7.42h2l1.81,10.8h1.19L254,4.68h1.34l1.92,11.46h1.15l2.43-14.42h1.24l.5,3.09h1.1l.3-1.92h1.34l1,6.25h1.34l.86-5.21h1.29l.33,2h1.68L272,5h.75l1,6.12h1.44l1.51-9h1.44l.94,5.67h1.34l.8-4.84h1.34l1.06,6.38h1.19l.81-4.88h1.19l.5-3h1.29l.86,5.21h1.19L291,4.81h1.29l.61,3.71h1l.89-5.38h1.1L298.18,17h1.15l2.53-15h1.24l1.57,9.34H306l1.16-6.92h1.34L310,13.72h1l1.27-7.58h.95l.49,3h1.24l.28-1.79h1.49L318,15.43h1.44l2.38-14.08h1.49l.57,3.5h1.24l1.19,7.08h1.48l1.73-10.25h1.1l3,18h1.34l2.28-13.54h1.25l1.34,8h1.19l1-6.08h1.29l.79,4.75h1.1l1-6.13h1.19l.35,2.21H349l.57-3.46h1.29l.63-3.83h1.34l1,6H355l.65-4H357l.19,1.21h1.19l.33-2h1.19l1.28,7.62h1.34l.8-4.79h1.24l1.08,6.46h1.88l.19-1.25H369l1.4-8.33h1.44l1.11,6.62h1.48l1-6h1.24l1.79,10.63h1.44l1.53-9.09h1.15l1.88,11.17h1.49l.17-1.17h1l2.17-12.79h1.29l.25,1.63h.81l2.31,13.71h1.35l2-11.84H399l.26,1.67h1.69L401.75,2h.95l.4,2.46h1.15l.58-3.55h1.34l2.05,12.13h1.39l1.72-10.17h1.15L413.67,10h1.15l.12-.88h1l.27,1.67h1.14l.45-2.75h1.1L420.06,15h1.39l.52-3.15h1.19l.13.88h.95l1.52-9h1.49L428.14,9h1l1.2-7.17h1.25L433,10.06h1.59L435.4,5h1.35l2,11.83h1.58l.87-5.17h1.24l.44-2.71H444l1.08-6.45h1.24l2.06,12.12h1.34l.41-2.54h1.2l.23,1.5h1.3L454.6,3.43h1.34l.64,3.88h1.34L458.29,5h1.15l.83,5h1.05l.31-1.92h1.24l.49,3h1.25l1.46-8.67h1.78l.61,3.71h1.45l.36-2.25h1.49l.83,5h1.2L474,7.64h1.19l1.15,6.83h.9l2-11.66h1.34l1.1,6.58h1.15L483.37,6h1.19l.64-3.83h1.63l2.43,14.29h1.59l.73-4.37h1.34l.67-4h1.14l.17,1.08H496l1.14-6.75h1.68l.33,2h1.64l.15-1h1.34l1.85,10.88h1.54l1-6h1.48l.63,3.8h1.79l1.1-6.55h1.43l.66,4h1.4l1.24-7.37h1.59l.36,2.21H520l.24-1.5h1.34l.68,4.08h1.39l1.82,10.71h1.3l2.06-12.17h1.3L530.71,9h1.34l.89-5.29h1.59L535.08,7h1.29l.9-5.34h1.29L539.62,8H541L541.62,4h1.15l.34,2.08h1.29l.54-3.25h1.24l1.3,7.67h1.15l.54-3.3h1.15l.43-2.62h1L553.82,17h1.29l.88-5.21h1l.39,2.41h1.05l1.21-7.16H561l.43,2.66h1.15L564,1.81h1.54l.56,3.41h1.39l.41-2.45h1.19l1.59,9.33H572l.74-4.42h1.44l1.48,8.71h1.59l1.8-10.58h1.44l.68,4h1.44l1-5.88h1.15L585,5.39h1.59l.51-3.12h1.59l1,5.7h1.54L592,3.31h1.44L594,6.85h1.34l.8-4.75h1.24L599,11.6h.9L601.19,4h1.35L603,6.89h1l.91-5.41h1.3l2.44,14.25h1.54l.2-1.34h1.25l.43-2.62h1.25l.53,3.23h1.25l1.43-8.4h1.39L618.67,2h1.59l1.14,6.75h1.4l.83-5h1.69l1.1,6.5h1.69l.66-4h1.58l.31,1.87h1.14l.55-3.29h1.3L634,7h1.44l.74-4.41h1.69l.2,1.33h1.45l.17-1.17h1l1.12,6.59h2l.5-3h1.44l.85,5h1.3l.44-2.71h1.25l.79-4.71h1.89l.94,5.54h1.39l.64-3.83h1.44l.9,5.33h1.06l.66-4h1.4l1.27,7.46h1.15L665,3h.8l.48,2.88h1.05l.34-2.13h1.05l.74,4.34h1.14l.94-5.54h1l.55,3.25h.8l.4-2.42h1.34l.6,3.58h1.2L678.28,2h1.49l.59,3.54h1.49l.34-2.13h1l1.08,6.38h.81l.56-3.38h1.2L687.59,2h1.34l.51,3h.66l.38-2.38h.71l1,5.92h1.39l1.25-7.33h1l.16,1h.8l.26-1.63h1.25l.46,2.8h.9l1.16,6.79h.86l.24-1.5h.85l.12.83H704l.57-3.37h1.05l.4,2.41h1.29l1.23-7.16h1l1.21,7h.86l.62-3.71H713l.2,1.29H714l.65-3.83h1.1l.89,5.25h1.15l1.06-6.17H720l.44,2.71H721l.36-2.25h1.2l1.36,7.92h1.45L726.48,3h1.35l.28-1.75h1.69l.91,5.37H732L732.79,2h1.5l.48,2.87h1l.62-3.71h1.44L740,14h1.3l.79-4.67h1.54l1.19-6.92h1.34l1.62,9.38h1.34l1.42-8.25h1.2l1.13,6.62h1.3l1.54-8.91h1.15l.94,5.5h1.39L760,2.27h1.2l1.06,6.21h1.3l.7,4.16h1.35L767,4.06h1.05l.48,2.87h1.2l.93-5.45h1.45l1.53,8.87h1.44l1.28-7.42H778l1,5.63h1.3L781,4.27h1.35L784,14h1.25l2.12-12.25h1.44l1.39,8.08h1.15l1.12-6.5h1.2l.9,5.25H796l1.08-6.29h1.2l.32,2h.86l.43-2.63h1l1.51,8.75h1l.33-2h1.15l.22,1.38h1.34l1.22-7h2l.19,1.21h1l.34-2h1.35l2.12,12.21h1.24l2-11.38h1.3l1.24,7.21h1l.35-2.12h.76L822.67,9h1l.39-2.34h1.15l.73,4.29H827l1.57-9.12h1l1.29,7.46h1l.27-1.63h1.19l.38,2.25h1.4l.35-2.12h1.15l.86-5h1.2l1.4,8.08h1.45L842.69,4h1.54l2.51,14.39h1.15L850,6.54h1.59l1,5.94h1.22l.72-4.19h1.3L856.9,2h1.23l1.25,7.25h2.19l1.08-6.32h1.45l.32,1.94h1.37l.39-2.31h1.66l.89,5.19h1l1,5.81h1.6l1.51-8.69h1.44l.9,5.19h1.52l1.2-6.94h1.59l.62,3.63h1.52L883.45,2h1.15l.48,2.87h1.38L886.77,3h1.67l1,5.56h1.93l.77-4.44h1.25L894.72,12h1.67l1.11-6.44H899l.46,2.75H901L901.92,3h1.67L904,5.6h1.54l.3-1.83h1.45l1.16,6.66h1.45l.33-2h1.64l1.63,9.34h1l2.37-13.51h1l1.46,8.34h1.41l1.77-10.09h1.15l.6,3.55h1.32L926,4.27h1l1,5.62h1.15l.5-2.91H931l1.65,9.45h1.6l.23-1.43h1.45l.15,1h1.2l2.43-13.79H941l.24,1.5h1.06l.15-1h1.3l1.44,8.2h1.26l.56,3.3h1.05l.27-1.67h1.25l.12.79H951l1.37-7.79h1.35l.18,1.17h.81l.35-2.09h1.54l.85,4.88h1.11l1.18-6.79h1.4l.28,1.7h1.3L963,3.1h1.35l1.59,9h1.4l1.76-10h1.45l.34,2h1.1l.21-1.33h1.4l.86,4.92h1.05L976,4.89h1.15l.48-2.79h1.25l.2,1.25h1.1l.14-.87h1.15l1.38,7.83h1.3L984.67,7h1.11L986,8.43h1.16l1.21-6.91h1.11l.33,2h1.06l.19-1.21h1.06l.54,3.17h1.25l.22-1.34h1.15l2.25,12.71h1.31l2.74-15.46h1.4l1,5.84h1l.66-3.8h1.25l1,5.63h1.26l.18-1.17h1l.32,1.92H1012l.84-4.79h1l.2,1.25h1.15l.46-2.67h1.11l.72,4.13h1l1.08-6.09h1.2l.7,4h1.41l.31-1.87h1.2l2.81,15.75h1.45l2.11-11.88h1l.52,3h1.4l.36-2.12h.91l1.19,6.75h1l2.23-12.54h1.35l.77,4.37h1.3l.46-2.71h1.11l1.17,6.63h1.55l1.6-9h1.36L1052,13.73h1.45L1055,4.81h1l.36,2.12h1.26l.72-4.12h1.25l.39,2.25h1.55l.27-1.63h1.21l1.14,6.42h1.45l.81-4.62h1.06l2,11h1.41l2.58-14.42h1.16l2,11h1.1l.44-2.54h1.45l.26,1.54H1081l1.46-8.21h1.36l.8,4.55h1.45l.64-3.63h1l2.48,13.79h1l3-16.58h1.11l.33,2h1l.2-1.25h1l1.2,6.71h1.21l.79-4.5h1.31l.39,2.29h1.5l.73-4.13h1.4L1108.23,13h1.6l.89-5h1.66l.54,3.08h1.35l1.34-7.46h1.5l.54,3.08h1.3l.79-4.45h1.16l1.33,7.37h1.6l1.07-6h1.45l.75,4.21h1.21l1.07-6h1.7l.24,1.42H1133l1.61,8.91h1.4l1.25-6.95h1.46l.84,4.75h1.36l1.25-7h1.31l.94,5.25h1.71l.71-4h1.4l1.81,10h1.36l.32-1.88h1.6l.15.92h1.4l1.36-7.5h1.16l.93,5.21h1.41l1.5-8.29h1.16l2.73,15h1.16l1.57-8.62h1.3l.42-2.42H1171l.2,1.21h1.36l.91-5h1.41l.48,2.75h1.41L1177,4.1h.76l.5,2.81h1.8l1-5.56h1.46l2.39,13.06h1.38l1.79-9.75h1.46l1.19,6.57h1.39l1.39-7.63h1.38l.28,1.63h1.31L1197,2.1h1.53l2.65,14.35h1.68l1.29-7.1h1.39l1-5.25h.94l.62,3.44h1.46l1.15-6.31h1.46l1.83,10h1.39l1.35-7.38h2l.55,3.08h1.31l.79-4.33h2l2.19,11.88h1.61l1.81-9.8h1.51L1232,12.6h1.16l1.8-9.75h1.36l.37,2.08h1.41l.69-3.79h1.07l1.6,8.67h1.26l.39-2.17h1l.67,3.67h.92l.58-3.21h1.27l.26,1.46h1l1.38-7.46h1.37l2.16,11.5h1l1.95-10.37h1.07l.54,3h1.12l.78-4.25h1.27l1,5.16h1.16l.68-3.66h1.61l.45,2.45h.77l.82-4.37h1.52l1.11,5.87h1.11l.88-4.66h.47l.75,4h1l1.06-5.63h1l1.62,8.5h.83l.63-3.37h.73l.26,1.46h1l.61-3.25h1.08l.3,1.66h.72l1.17,6.13h1l1.86-9.58h1.42l.33,1.79h1.17l.59-3.09h1.12l.23,1.25h1.28l1.46,7.46h.93l1.47-7.54h1.13l.77,4h1l.44-2.29h1l.79,4h1.29l1.28-6.42h1.38l1,5h1.73l.78-3.83h1.08l.53,2.62h.78l.77-3.79h1.2l.62,3h1.09l.39-1.79h1l.32-1.66h1V60H0V9.18L1.84,7.34Z"/><path class="cls-8" d="M2.45,2.47H3.88L5.34,20H7.85L9.12,4.8h2.27l.4,4.89H13L13.18,7h2.16l.53,6.56h1.37L18.12,3h1.79l.62,7.5h1.19l.5-6.23h1.55l.32,3.89h1.48l.57-6.83H28l.7,8.5h1.62l.52-6.39h1.91l.88,10.67h2.1l.69-8.45h2L39.84,21.8h1.61L43.06,2.47h1.25l.18,2.33H46l.15-2h1.19l.31,3.83h1.73l.47,5.78H51.8l.89-10.72h1.67l1.82,21.72H58L59.58,4.13h1.61l1.16,14h1.79l1-12.39h1.67l.24,3.06h1.49l.21-2.61H70l.37,4.55h1.25l.7-8.55H73.9l1.78,21.22h1.49L78.73,4.63H79.8l1.42,17h1.13L82.46,20h1.25l.08,1.13h1.13l.68-8.27h1l.75-9.12h1.49l.34,4.17h1.07l.47-5.78h1.55l.29,3.67h1.79l.17-2.22h1.61l.67,8.11h1.85l.48-5.83h1.61l.89,10.72h1.67l.47-5.72h1.91l.37,4.55h1.67l1-12.39h1.67l.5,6.06h1.85l.32-4h2.15l.63,7.61H118l.8-9.56h1.55l.84,10.11h1.73L123.66,4h2.15L126,1.52h1.13L129.18,26h1.61l1.94-23.11H134l.39,4.88h1.56l.23-2.94h1.61l.49,6.06h1.37l.19-2.39h1.25l.37-4.56h.89l.18,2.39h1.73l.32-3.94h2.16L147.26,9h1.91l.33-4.11h1.43l.44,5.38h1.31l.58-7h1.79l.41,5.06h2L158,1.24h1.92l.69,8.39h1.61l.39-4.77h1.79l.7,8.44h1.49l.81-9.72h2l.47,5.72h1.43l.57-7H174l.86,10.33H176l.17-2.27h1.31l.09,1.22h1.55l.28-3.5h1.07L181,1.47h1.61l.8,9.5h1.85l.53-6.5h1l1.42,16.89h1.37l1.62-19.28h1.25l.19,2.44h1.55l.14-1.83h2.33l.83,9.94h1.79l.57-6.89h1.85l.12,1.56h2L204.22,3H206l.15,1.89h1.31l.18,2.33h1.25l.34-4.28h2l.9,10.78H214L214.41,9h2.39l.24,3h1.86l.63-7.61H221l.26,3.33h1.31L223,2.69h1.73L225,6.08h1.31l.34-4.22h1.73l.72,8.61h1.61l.58-7h1.79L234,14.69h1.31l.52-6.33h2.21L239,19.24h1.55l.59-7.11h1.13L243,2.58h1.56s.44,6.05.49,6.05H246l.37,4.56h1.49l.83-9.89h2.45l1.21,14.39h1.49l1-11.45h1.67l1.28,15.28h1.43L260.78,2.3h1.55l.34,4.11H264l.2-2.55h1.67l.69,8.33h1.67l.58-6.95h1.61L270.68,8h2.09l.09-1.28h.95l.68,8.17h1.79l1-12h1.79l.63,7.55h1.67L281.91,4h1.67l.71,8.5h1.49l.54-6.5h1.49l.33-4.06h1.61l.57,7h1.49L292,6.41h1.62l.4,4.95h1.25l.6-7.17h1.36l1.56,18.44h1.43l1.69-20h1.55l1,12.45h1.62l.77-9.22h1.67l1,12.44h1.19l.85-10.11h1.19l.32,4h1.55l.19-2.39h1.85l.9,10.78h1.8L321,1.8h1.85l.38,4.67h1.56l.78,9.44h1.86L328.6,2.24H330l2,24.06h1.67L335.2,8.24h1.55l.89,10.67h1.49l.68-8.11h1.61l.53,6.33h1.37L344,9h1.49l.23,2.94h1.43l.38-4.61h1.61l.42-5.11h1.67l.67,7.94h1.49l.43-5.27h1.62l.12,1.61h1.49l.22-2.73h1.49l.85,10.17h1.67l.53-6.39h1.55l.72,8.61h2.34l.12-1.66h1.62l.93-11.11h1.79l.74,8.83h1.85l.67-7.95h1.55l1.19,14.17h1.79l1-12.11h1.43l1.26,14.89h1.85l.12-1.56h1.25l1.44-17h1.61l.17,2.16h1L391.38,23h1.67l1.33-15.78h2.1l.17,2.23h2.1l.56-6.78h1.19L400.76,6h1.43l.39-4.73h1.68l1.36,16.17h1.73L408.5,3.86h1.43l.8,9.5h1.43l.08-1.17h1.25l.18,2.22h1.43l.3-3.67h1.37l.77,9.26h1.74l.34-4.2h1.49l.08,1.17h1.19l1-12.06h1.85l.59,7.11h1.26l.8-9.55h1.55l.92,10.94h2l.57-6.78h1.67l1.34,15.78h2l.58-6.89H440l.29-3.61h1.43l.72-8.61H444l1.37,16.17h1.67l.27-3.39h1.5l.15,2h1.61l1.14-13.5h1.68l.42,5.16h1.68l.24-3h1.43l.56,6.67h1.31l.2-2.56h1.56l.32,4h1.55l1-11.56h2.22l.4,4.95h1.8l.24-3h1.85l.56,6.67h1.49l.13-1.67h1.49l.76,9.11h1.13l1.33-15.56h1.67l.74,8.78h1.43L481.27,8h1.5l.42-5.11h2l1.62,19.05h2l.48-5.83H491l.44-5.34h1.43l.11,1.45h1.43l.76-9h2.09l.22,2.72h2l.1-1.39h1.67L502.5,19h1.92l.68-8H507l.42,5h2.22l.73-8.72h1.79l.44,5.28h1.74l.83-9.84h2l.24,3h2l.16-2h1.67l.45,5.44h1.74l1.21,14.28h1.61l1.38-16.22h1.62l.39,4.78h1.67l.6-7.06h2l.37,4.45h1.61l.6-7.12H538l.71,8.39h1.67l.44-5.27h1.43l.22,2.77h1.62l.35-4.33H546L546.82,14h1.43l.37-4.39h1.43l.28-3.5h1.2l1.41,16.56h1.61l.58-7h1.31L556.7,19H558l.8-9.56h1.68l.29,3.56h1.43l.89-10.56H565L565.4,7h1.74l.27-3.28h1.49L570,16.13h1.73l.49-5.89H574l1,11.62h2l1.2-14.12h1.79l.45,5.39h1.8l.66-7.83h1.43l.15,1.89h2L586.74,3h2l.65,7.61h1.91l.52-6.22h1.8L594,9.13h1.67l.53-6.33h1.56l1.07,12.67h1.13l.86-10.11h1.68l.31,3.83H604L604.59,2h1.61l1.63,19h1.92l.13-1.78h1.56l.28-3.5h1.56l.35,4.31h1.56l.95-11.2h1.73l.52-6.17h2l.76,9h1.74L623.42,5h2.1l.73,8.67h2.1l.44-5.28h2l.2,2.5h1.43l.36-4.39h1.62l.22,2.78h1.8l.49-5.89H639l.14,1.78h1.79L641,3.63h1.19l.75,8.78h2.46l.33-4.05h1.8l.57,6.72h1.61l.3-3.61h1.55l.53-6.28h2.34l.62,7.39h1.74l.42-5.11h1.8l.6,7.11H661l.45-5.34h1.73l.85,10h1.43L666.73,4h1l.31,3.83h1.32L669.6,5h1.31l.49,5.77h1.43l.62-7.38h1.25l.37,4.33h1l.26-3.22H678l.4,4.77h1.5l.55-6.61h1.86l.39,4.73h1.86l.23-2.84h1.25l.72,8.5h1l.38-4.5h1.49l.49-5.83h1.68l.33,4.05H693l.26-3.16h.89l.67,7.89h1.74l.83-9.78h1.25l.11,1.39h1l.17-2.17h1.55l.31,3.72h1.13l.77,9.06h1.08l.15-2H706l.09,1.11h1.31l.37-4.5h1.32l.26,3.22h1.62L711.75,2H713l.8,9.39h1.08l.41-4.95h1l.14,1.72h1.07L717.88,3h1.37l.6,7h1.43L722,1.8h1.44l.29,3.61h.65l.25-3h1.49L727,13h1.79l.77-9h1.68l.19-2.34h2.09l.61,7.17h1.62l.52-6.17h1.86l.32,3.84h1.19l.41-4.95h1.8l1.47,17.11H745l.53-6.22h1.92l.79-9.22h1.67l1.08,12.5h1.67l.95-11h1.49l.76,8.83h1.61l1-11.89h1.44L760.5,9h1.74l.5-6h1.5L765,11.3h1.61l.47,5.56h1.68l1-11.45H771l.32,3.83h1.49L773.44,2h1.8l1,11.83h1.79l.85-9.89h2l.64,7.5h1.62l.48-5.72h1.68l1.12,12.94H788L789.39,2.3h1.79l.93,10.78h1.43l.75-8.67h1.49l.6,7h1.8L798.9,3h1.49l.21,2.61h1.08l.29-3.5h1.19l1,11.67h1.25l.22-2.67h1.43l.14,1.84h1.68l.81-9.39h2.46l.12,1.61h1.26l.22-2.72h1.68l1.41,16.27h1.56l1.31-15.16h1.62l.82,9.61h1.26l.23-2.83h1l.12,1.61H826l.26-3.11h1.43l.49,5.72h1.31l1-12.17h1.2l.86,10h1.31l.17-2.17h1.5l.24,3h1.75l.23-2.83h1.43l.58-6.73h1.49l.94,10.78H844l.78-9h1.92l1.68,19.19h1.43L851.2,8.72h2l.68,7.91h1.52l.48-5.58h1.62l.72-8.42h1.53l.83,9.67h2.71L864,3.88h1.8L866,6.47h1.71L868,3.38H870l.59,6.92h1.25l.67,7.75h2l1-11.58h1.8l.59,6.91h1.89l.8-9.25h2L883,9h1.89l.54-6.25h1.43l.33,3.83h1.7L889.12,4h2.07l.63,7.41h2.4l.51-5.91h1.56L897.2,16h2.07L900,7.38h1.89l.3,3.67h1.89L904.71,4h2.07l.3,3.5H909L909.2,5H911l.78,8.89h1.79l.22-2.67h2l1.09,12.45h1.3l1.58-18h1.3l1,11.13h1.75L925,3.34h1.44l.4,4.74h1.63l.2-2.39H930l.65,7.5h1.43l.33-3.89H934l1.1,12.61h2l.15-1.91H939l.1,1.36h1.5L942.25,3h1.68l.16,2h1.32l.1-1.34h1.62l1,11h1.56L950,19h1.31l.18-2.23h1.56l.08,1.06h1.62l.91-10.39h1.67L957.48,9h1l.23-2.78h1.92l.56,6.5h1.38l.79-9.06h1.74l.18,2.28h1.62l.14-1.78h1.68l1.06,12h1.74L972.7,2.8h1.8l.23,2.72h1.37l.14-1.78H978l.57,6.56h1.32l.32-3.78h1.43l.32-3.72h1.56l.13,1.67H985l.09-1.17h1.43l.92,10.44h1.62l.38-4.44h1.38l.15,1.94h1.44L993.23,2h1.38l.22,2.67h1.31l.13-1.61h1.32L998,7.3h1.56l.14-1.78h1.44l1.5,17h1.62L1006,1.86h1.74l.68,7.77h1.25l.44-5.05h1.56l.65,7.5h1.56l.12-1.56h1.2l.21,2.56h1.68l.56-6.39h1.19l.14,1.67h1.43l.31-3.56h1.37l.48,5.5h1.2l.71-8.11h1.5l.47,5.39h1.74l.21-2.5h1.49l1.87,21h1.8L1035,10.24h1.26l.34,4h1.74l.24-2.83h1.14l.79,9h1.2l1.48-16.72h1.68l.51,5.83H1047l.31-3.61h1.38l.78,8.83h1.92l1.07-12h1.68l1.39,15.61h1.8l1.05-11.89h1.32l.24,2.83h1.56l.48-5.5h1.56l.26,3h1.92l.18-2.16h1.5l.76,8.55h1.8l.54-6.16h1.32l1.31,14.72h1.74l1.73-19.22h1.44l1.31,14.72h1.38l.29-3.39h1.8l.17,2.06h1.38l1-10.95H1087l.53,6.06h1.81l.42-4.84h1.32l1.64,18.39H1094l2-22.11h1.38l.22,2.61h1.26l.13-1.66h1.26l.79,8.94h1.5l.53-6h1.62l.27,3.06h1.86l.48-5.5h1.74l1.22,13.5h2l.6-6.73h2l.36,4.11h1.68l.89-9.94h1.87l.35,4.11h1.62l.53-5.94h1.44l.88,9.83h2l.71-8h1.8l.5,5.61h1.5l.71-7.94h2.11l.16,1.89h2l1.07,11.88h1.74l.84-9.27h1.8l.56,6.33h1.68l.84-9.28h1.62l.63,7h2.11l.47-5.33h1.74L1152.35,19H1154l.21-2.5h2l.1,1.22h1.74l.9-10h1.45l.62,7h1.74l1-11.06h1.44l1.82,20h1.44l1-11.5h1.63l.28-3.22h1.74l.13,1.61H1175l.6-6.73h1.75l.32,3.67h1.74l.17-1.94h1l.34,3.75h2.23l.67-7.42h1.8l1.6,17.42h1.71l1.19-13h1.81l.79,8.75h1.72l.92-10.17H1197L1197.2,7h1.63l.37-4.17h1.9l1.76,19.13h2.08l.86-9.46h1.72l.64-7h1.17l.4,4.58h1.81l.77-8.42h1.8L1215.34,15h1.71l.9-9.84h2.54l.36,4.11h1.63l.53-5.77h2.47l1.46,15.83h2l1.21-13.06H1232l1,10.56h1.44l1.2-13h1.69l.24,2.78h1.75l.46-5.06h1.32l1.07,11.56h1.56l.26-2.89h1.2l.45,4.89h1.13l.39-4.28h1.57l.17,1.94h1.2L1251,2.8h1.69l1.44,15.33h1.26l1.29-13.83H1258l.36,4h1.38l.53-5.67h1.56l.65,6.89h1.44l.45-4.89h2l.29,3.28h1l.55-5.83h1.87l.74,7.83h1.39l.58-6.22h.59l.5,5.39h1.27l.7-7.5h1.27l1.08,11.33h1l.42-4.5h.9l.17,1.95H1282l.41-4.34h1.32l.2,2.22h.9l.78,8.17h1.27l1.24-12.78h1.75L1290,6h1.45l.39-4.11h1.39l.15,1.67H1295l1,9.94h1.15l1-10h1.39L1300,8.8h1.21l.29-3.06h1.27l.53,5.34h1.58l.86-8.56h1.7l.67,6.67h2.12l.52-5.11h1.33l.36,3.5h1l.52-5.06h1.46l.41,4.06h1.34l.26-2.39h1.17l.22-2.22H1320V60H0V9.18L2.45,8Z"/><path class="cls-9" d="M3.06,3.08H4.77L5.51,25h3L9.14,6h2.72l.2,6.11h1.43l.1-3.33h2.58L16.44,17h1.64l.44-13.26h2.15l.3,9.37H22.4l.26-7.77h1.86l.15,4.86h1.79l.28-8.55H29l.35,10.63h1.94l.26-8h2.29L34.3,17.6h2.5L37.15,7h2.43l.68,20.21h1.93L43,3.08h1.5L44.58,6h1.86l.08-2.5h1.42l.16,4.79h2.07l.24,7.22H52.7l.44-13.4h2l.91,27.15H58.2L59,5.17h1.93l.58,17.5h2.15l.51-15.49h2L66.3,11h1.78l.1-3.26h1.43l.19,5.69h1.5l.35-10.69h1.93l.89,26.52h1.78L77,5.79h1.28L79,27h1.35l.06-2h1.5l0,1.42h1.36l.34-10.35h1.21l.38-11.39h1.78l.17,5.21h1.29l.23-7.22H90.6l.15,4.58h2.14L93,4.47h1.93l.33,10.14h2.22l.24-7.29h1.93l.44,13.4h2l.23-7.15h2.29l.18,5.69h2l.52-15.48h2l.25,7.57h2.22l.16-5h2.57l.32,9.51h2.5l.4-11.94h1.86L120,16.56h2.07L122.46,5H125l.1-3.06h1.35l1,30.56h1.93l1-28.89h1.5l.2,6.11H134L134.08,6H136l.25,7.57h1.64l.1-3h1.5l.18-5.69h1.07l.09,3h2.08l.16-4.93h2.57l.27,8.27h2.29l.17-5.14h1.71l.22,6.74h1.58l.28-8.75h2.15l.21,6.31h2.36l.29-8.81h2.29L159.81,12h1.93l.2-6h2.14l.35,10.55h1.79l.4-12.15H169l.24,7.15h1.71l.29-8.75h2.58l.43,12.92h1.35l.09-2.85h1.57l0,1.53h1.86l.14-4.37h1.28l.27-8.27h1.93l.4,11.88h2.22l.26-8.13h1.22l.7,21.11h1.65L190,2.6h1.5l.09,3.05h1.86l.07-2.29h2.79l.42,12.43h2.14l.29-8.61h2.22l.05,1.94h2.44l.17-5.41h2.15l.07,2.36h1.57L208,9h1.5l.17-5.35H212l.45,13.47h2.29l.19-5.83h2.86L217.9,15h2.22l.31-9.52h1.79l.13,4.17h1.57l.21-6.32h2.07l.14,4.24h1.57l.17-5.28h2.08l.35,10.76h1.94l.28-8.75h2.15l.47,14h1.57l.26-7.92h2.65l.45,13.62h1.86l.3-8.89h1.35l.4-11.95h1.86s.18,7.57.25,7.57h1.07l.18,5.7h1.79l.41-12.37h2.94l.6,18h1.79l.48-14.3h2l.64,19.09h1.72l.81-24h1.86L262.75,8h1.65l.1-3.19h2l.35,10.42h2l.29-8.68h1.93l.1,3.4h2.51l.05-1.6h1.14l.34,10.21h2.14l.5-15H280l.31,9.44h2l.26-8h2l.36,10.62h1.79L287,7.46h1.79L289,2.39h1.93l.28,8.68H293l.1-3.06H295l.2,6.18h1.5l.3-8.95h1.64l.77,23h1.72l.85-25h1.86l.52,15.56h1.93l.38-11.53h2l.52,15.55h1.43L311,10.24h1.43l.16,5h1.86l.09-3h2.22l.45,13.47h2.15l.79-23.47h2.22l.19,5.83h1.86l.39,11.81h2.22l.57-17.08h1.65l1,30.06h2l.76-22.56h1.86l.45,13.33h1.78l.34-10.14h1.93l.26,7.92h1.65l.34-10.21h1.78l.12,3.68h1.72l.19-5.77h1.93l.21-6.38h2l.33,9.93h1.79l.22-6.6h1.93l.06,2h1.79l.1-3.4h1.79l.43,12.71h2l.26-8h1.86l.36,10.77h2.8l.06-2.09h1.93l.47-13.89h2.14l.37,11.05h2.22l.33-9.93h1.86l.6,17.7h2.14L378,7.87h1.72l.63,18.62h2.22l0-1.95h1.5l.72-21.32h1.94l.08,2.71H388l.78,22.85h2l.67-19.72H394l.09,2.77h2.5l.29-8.47h1.42l.14,4.1h1.71l.2-5.9h2l.68,20.2h2.08l.57-16.94h1.71l.4,11.87h1.72l0-1.45H411l.09,2.77h1.71l.15-4.58h1.65L415,25h2.08l.17-5.25h1.79l0,1.46h1.43L421,6.14h2.21l.3,8.89h1.5l.4-11.95h1.86l.46,13.68h2.36l.29-8.47h2L433.09,28h2.36l.29-8.61h1.85l.15-4.51h1.72l.36-10.77h1.86l.68,20.21h2l.13-4.23h1.79l.08,2.5h1.93l.57-16.88h2l.22,6.46h2l.12-3.82h1.72l.28,8.33h1.57l.1-3.19h1.86l.16,5h1.86l.49-14.44h2.65l.2,6.18h2.15l.12-3.75h2.22l.28,8.33h1.78l.07-2.08h1.79l.38,11.38h1.36l.66-19.44h2l.37,11H479l.19-5.69H481l.21-6.39h2.43l.81,23.82h2.37L487,20.1h2l.22-6.67H491l0,1.81h1.72L493.12,4h2.51l.1,3.4h2.44l.05-1.74h2l.62,18.13h2.29l.34-10.07h2.22L505.9,20h2.65l.36-10.91h2.14l.22,6.6h2.08l.42-12.29h2.36l.12,3.68h2.36l.08-2.5h2l.23,6.81H523l.61,17.84h1.93L526.22,9h1.93l.2,6h2l.29-8.82H533l.19,5.55h1.93l.3-8.88h1.93l.35,10.48h2l.22-6.6h1.72l.11,3.48h1.93l.18-5.42h1.86l.43,12.78h1.72l.18-5.49h1.72l.14-4.37h1.43l.7,20.69H554l.29-8.68h1.57l.13,4h1.57l.41-12h2l.14,4.45h1.72L562.27,3h2.29l.19,5.7h2.07l.14-4.1h1.78l.53,15.56h2.08l.24-7.36h2.15l.49,14.51h2.37l.6-17.64h2.14l.23,6.74h2.15l.33-9.8h1.71L583.84,9h2.36l.17-5.21h2.36l.33,9.51h2.29l.26-7.78h2.14l.2,5.91h2l.27-7.92h1.86l.54,15.83H600l.43-12.64h2l.16,4.8H604l.31-9h1.93L607,26.21h2.29L609.4,24h1.86l.15-4.38h1.86l.17,5.39h1.86l.48-14h2.08l.26-7.71h2.36l.38,11.25h2.08l.27-8.26h2.51l.37,10.83h2.5l.22-6.6h2.37l.1,3.13H633l.19-5.49h1.93l.11,3.47h2.15l.25-7.36h2.5l.07,2.23h2.15l.06-1.95h1.43l.37,11h2.94l.17-5.07h2.14l.29,8.41h1.93l.15-4.52h1.86l.26-7.84h2.8l.31,9.23h2.07l.22-6.39h2.15l.3,8.89h1.57l.22-6.66h2.08L666.08,24h1.72l.65-19h1.21l.16,4.79h1.57l.12-3.54h1.57l.25,7.22H675l.31-9.24h1.51L677,9.61h1.21l.13-4h2l.2,6h1.79l.28-8.27h2.22l.2,5.9h2.21l.12-3.54h1.5l.36,10.63h1.22l.19-5.63h1.78l.25-7.29h2l.17,5.07h1l.13-4h1.07l.33,9.86h2.08l.42-12.22h1.5l.05,1.74h1.21l.09-2.71h1.86l.15,4.65h1.36l.39,11.32h1.28l.08-2.5h1.29l0,1.39h1.57l.19-5.63h1.57l.13,4h1.94L715,2.46h1.5l.4,11.73h1.29L718.4,8h1.14l.07,2.16h1.28l.22-6.39h1.64l.3,8.75h1.72l.35-10.28h1.72L727,6.76h.79L727.89,3h1.79l.45,13.2h2.15L732.66,5h2L734.76,2h2.51l.3,9h1.94l.26-7.71H742l.16,4.79h1.43l.2-6.18h2.15l.74,21.39h1.93l.27-7.78h2.29L751.55,4h2l.54,15.62h2l.47-13.75h1.79l.38,11h1.93L761.18,2h1.72l.31,9.17h2.08l.25-7.43h1.79l.36,10.34h1.93l.23,7h2l.49-14.31h1.57l.16,4.8h1.79l.31-9.1h2.15l.51,14.79H781l.42-12.36h2.37l.32,9.37H786l.24-7.15h2l.56,16.18h1.86l.7-20.42h2.15L794,16.35h1.71l.38-10.84h1.78l.3,8.75h2.15l.36-10.48h1.79L802.6,7h1.28L804,2.67h1.43l.5,14.58h1.5l.11-3.33h1.72l.07,2.29h2l.41-11.74h2.94l.06,2h1.5l.11-3.41h2l.7,20.35H821l.65-19h1.94l.41,12h1.5l.12-3.55h1.14l.06,2h1.5l.13-3.89h1.72l.24,7.15H832L832.47,3h1.43l.43,12.43h1.58l.08-2.7h1.79l.12,3.75H840l.12-3.55h1.72l.28-8.4h1.79L844.36,18h2.15l.39-11.32h2.29l.84,24h1.72l.68-19.79h2.37l.34,9.89H857l.23-7h1.94l.36-10.52h1.82l.42,12.08H865l.36-10.52h2.15l.11,3.23h2l.13-3.85h2.47l.3,8.64H874l.33,9.69h2.37l.5-14.48h2.15l.3,8.65h2.25l.4-11.56h2.37l.21,6h2.25l.27-7.81h1.72l.16,4.79h2L891.46,5h2.47l.32,9.27h2.86l.26-7.4h1.86L899.69,20h2.47l.37-10.73h2.26l.15,4.58h2.26L907.5,5H910l.14,4.37h2.3l.1-3h2.15l.38,11.11h2.15l.11-3.33h2.44l.54,15.55h1.56l.79-22.52h1.55L924.68,21h2.09l.59-16.82h1.72l.2,5.92h2l.1-3h1.57l.33,9.38H935l.16-4.87H937l.56,15.77H940L940,25h2.15l0,1.69H944l.81-23h2l.08,2.5h1.58l0-1.67h1.93L951,18.22h1.87l.18,5.49h1.58l.09-2.78h1.85l0,1.32h1.94l.46-13h2l.06,2h1.22l.11-3.47h2.3l.28,8.12h1.64L967,4.54h2.08l.09,2.85h1.93l.07-2.22h2l.53,15h2.08l.58-16.67h2.15l.12,3.4h1.64l.07-2.22h2.08l.28,8.19h1.58l.16-4.72h1.72l.16-4.65h1.86l.07,2.08h1.64l0-1.46h1.71l.46,13.06H994l.19-5.56h1.64l.08,2.44h1.72l.41-11.53h1.64l.11,3.33h1.58l.06-2h1.58l.18,5.27h1.86l.07-2.22h1.72l.75,21.18h1.93l.92-25.76h2.08l.34,9.72h1.5l.22-6.32h1.86l.33,9.38h1.86l.06-1.95h1.43l.11,3.2h2l.28-8H1024l.06,2.08h1.72l.15-4.44h1.65l.24,6.87h1.43l.36-10.13h1.79l.23,6.73h2.08l.1-3.12h1.79l.94,26.25h2.15l.7-19.79h1.51l.17,5h2.08l.12-3.55h1.36l.39,11.25h1.43l.75-20.9h2l.26,7.29h1.93l.16-4.51h1.65l.38,11h2.3l.53-15.07h2l.7,19.51h2.15L1061.78,8h1.58l.12,3.55h1.86l.24-6.88h1.86l.13,3.75h2.3l.09-2.71h1.79l.38,10.7h2.15l.27-7.71h1.57l.66,18.4h2.08l.86-24h1.72l.66,18.41h1.65l.14-4.24H1086l.09,2.57h1.65l.49-13.68h2l.27,7.57h2.15l.21-6h1.58l.82,23h1.51l1-27.64h1.65l.11,3.27h1.5l.07-2.09h1.5l.4,11.18h1.79l.27-7.5H1107l.13,3.82h2.23l.24-6.87h2.08l.6,16.87h2.37l.3-8.4h2.44l.18,5.14h2L1120,6h2.22l.18,5.14h1.94l.26-7.43h1.72L1126.8,16h2.37l.36-10h2.15l.25,7h1.79l.35-9.93h2.52l.07,2.36h2.44l.54,14.87h2.08l.42-11.6h2.15l.28,7.91h2L1147,5h1.93l.32,8.75h2.51l.23-6.67h2.08l.61,16.67h2l.1-3.13h2.37l0,1.53h2.08l.45-12.5h1.72l.31,8.68h2.08l.5-13.82h1.72l.91,24.93h1.72l.52-14.37h1.94l.14-4h2.08l.07,2h2l.31-8.4h2.08l.16,4.58h2.08l.08-2.43h1.15l.16,4.69h2.66l.33-9.27h2.16l.8,21.77h2l.59-16.25h2.16l.4,10.94h2L1197.11,6h2.05l.09,2.71h1.94l.18-5.21h2.27l.88,23.92H1207l.44-11.84h2l.32-8.75h1.4l.2,5.73h2.15L1213.93,2h2.15l.61,16.67h2l.45-12.29h3l.19,5.14h1.94l.26-7.23h2.94l.73,19.79h2.38l.6-16.31h2.22L1234,21h1.72l.6-16.25h2l.12,3.47h2.08l.23-6.32h1.58l.54,14.45h1.86l.13-3.61h1.43l.23,6.11h1.36l.19-5.35h1.87l.08,2.43h1.44l.46-12.43h2l.72,19.17h1.5l.65-17.3h1.58l.18,5h1.65l.26-7.08h1.87l.32,8.61h1.73l.22-6.11h2.37l.15,4.1h1.15l.27-7.29h2.23l.37,9.79h1.65l.29-7.78h.71l.25,6.74h1.51l.35-9.38h1.51l.54,14.17h1.22l.21-5.63h1.07l.09,2.43H1282l.2-5.41h1.58l.1,2.78H1285l.39,10.2h1.51l.61-16h2.09l.11,3h1.72l.2-5.14h1.65l.08,2.08h1.87l.49,12.43h1.36l.49-12.57h1.65l.26,6.67h1.44l.15-3.82h1.51l.26,6.67h1.87l.43-10.7h2l.33,8.34H1310l.26-6.39h1.59l.17,4.37h1.15l.26-6.32h1.73l.21,5.07h1.58l.13-3h1.38l.11-2.78H1320V60H0V9.19l3.06-.61Z"/><path class="cls-10" d="M0,9.2H3.67V3.7h2V30h3.5V7.2h3.17v7.33H14v-4h3v9.84h1.91V4.45h2.5V15.7h1.67V6.37h2.17V12.2h2.08V2H30V14.7h2.26V5.12h2.66v16h2.92V8.45h2.83V32.7h2.25V3.7h1.75V7.2h2.17v-3h1.67V10h2.41v8.67h2.67V2.53h2.33V35.12h2.5V6.2h2.25v21h2.5V8.62h2.34V13.2h2.08V9.28h1.67v6.84H71V3.28h2.25V35.12h2.08V7h1.5V32.37h1.58V30h1.75v1.7h1.59V19.28h1.41V5.62h2.09v6.25h1.5V3.2h2.16V8.7h2.5V5.37h2.25V17.53h2.59V8.78h2.25V24.87h2.33V16.28h2.67v6.84h2.33V4.53h2.33v9.09h2.59v-6h3V19h2.91V4.7h2.17V19.87h2.42V6h3V2.28h1.58V39h2.25V4.28h1.75v7.34H132V7.2h2.25v9.08h1.91V12.7h1.75V5.87h1.25V9.45h2.42V3.53h3v9.92h2.67V7.28h2v8.09h1.83V4.87h2.5v7.58h2.75V1.87H159V14.45h2.25V7.28h2.5V20h2.08V5.37h2.75V14h2V3.45h3V19h1.58V15.53H177v1.84h2.16V12.12h1.5V2.2h2.25V16.45h2.59V6.7h1.41V32h1.92V3.12h1.75V6.78h2.17V4H196V19h2.5V8.62h2.58V11h2.83V4.45h2.5V7.28h1.84v3.5H210V4.37h2.76V20.53h2.66v-7h3.34V18h2.58V6.62h2.08v5h1.84V4h2.41V9.12h1.84V2.78h2.41V15.7h2.25V5.2h2.5V22h1.84v-9.5h3.08V28.87h2.17V18.2h1.58V3.87h2.17s-.09,9.08,0,9.08h1.25v6.83h2.08V5h3.42V26.53h2.08V9.37h2.33V32.28h2V3.45h2.17V9.62h1.92V5.78h2.33v12.5h2.33V7.87h2.25V12h2.92V10h1.33V22.28h2.5v-18h2.5V15.62h2.34V6h2.33V18.7h2.08V9h2.09V2.87H292V13.28h2.08V9.62h2.25V17h1.75V6.28H300V34h2V4h2.16V22.62h2.25V8.78h2.34V27.45h1.66V12.28h1.67v6h2.17V14.7h2.58V30.87h2.5V2.7h2.58v7h2.17V23.87h2.58V3.37h1.92V39.45h2.33V12.37h2.17v16h2.08V16.2h2.25v9.5h1.92V13.45h2.08v4.42h2V11h2.25V3.28H348V15.2h2.08V7.28h2.25V9.7h2.08V5.62h2.09V20.87h2.33V11.28H361V24.2h3.25V21.7h2.25V5H369V18.28h2.58V6.37h2.17V27.62h2.5V9.45h2V31.78h2.58V29.45h1.75V3.87h2.25V7.12h1.42V34.53h2.33V10.87h2.92V14.2h2.91V4h1.67V9h2V1.87h2.33V26.12h2.42V5.78h2V20h2V18.28h1.75v3.34h2v-5.5h1.92V30h2.41V23.7H417v1.75h1.66V7.37h2.59V18H423V3.7h2.16V20.12h2.75V10h2.34V33.62H433V23.28h2.16V17.87h2V5h2.17V29.2h2.33V24.12h2.09v3H446V6.87h2.33v7.75h2.33V10h2V20h1.84V16.2h2.16v6h2.17V4.87h3.08v7.41h2.5V7.78H467v10h2.08v-2.5h2.08V29h1.59V5.62h2.33V18.78h2V12h2.08V4.28H482V32.87h2.75V24.12h2.33v-8h2v2.16h2V4.78H494V8.87h2.83V6.78h2.33V28.53h2.67V16.45h2.58V24h3.09V11H510v7.92h2.42V4.12h2.75V8.53h2.75v-3h2.34V13.7h2.41V35.12h2.25V10.78h2.25V18h2.34V7.37h2.75V14h2.25V3.37h2.25V16h2.33V8h2V12.2h2.25V5.7h2.17V21h2V14.45h2V9.2h1.66V34h2.25V23.62h1.84v4.83h1.83V14.12h2.33v5.33h2V3.62h2.67v6.83h2.42V5.53h2.08V24.2H571V15.37h2.5V32.78h2.75V11.62h2.5V19.7h2.5V8h2v2.83H586V4.53h2.75V16h2.66V6.62h2.5V13.7h2.34V4.2h2.16v19H600V8h2.34v5.75H604V3h2.25v28.5h2.66V28.78h2.17V23.53h2.17V30h2.16V13.2h2.42V4h2.75v13.5H623V7.53h2.91v13h2.92V12.62h2.75v3.75h2V9.78h2.25V14h2.5V5.12h2.92V7.78h2.5V5.45h1.66V18.62h3.42V12.53h2.5V22.62h2.25V17.2h2.17V7.78H659V18.87h2.41V11.2h2.5V21.87h1.84v-8h2.41V28.78h2V6h1.42V11.7h1.83V7.45h1.84v8.67h2V5H679v6.5h1.41V6.7h2.34v7.17h2.08V4h2.58V11H690V6.78h1.76V19.53h1.41V12.78h2.09V4h2.33v6.09h1.17V5.37H700V17.2h2.41V2.53h1.75V4.62h1.42V1.37h2.17V7h1.58V20.53h1.5v-3h1.5V19.2h1.83V12.45H716v4.83h2.25V3H720V17h1.51V9.62h1.33V12.2h1.5V4.53h1.92V15h2V2.7h2V8.12h.91V3.62h2.09V19.45h2.5V6h2.33V2.45H741V13.2h2.25V4h2.58V9.7h1.67V2.28H750V28h2.26V18.62h2.66V4.78h2.34V23.53h2.33V7h2.08V20.28h2.25V2.45h2v11h2.42V4.53h2.08V17h2.25v8.33H775V8.12h1.83v5.75h2.08V3h2.5V20.7h2.5V5.87h2.75V17.12h2.25V8.53h2.34V28h2.16V3.45h2.5V19.62h2v-13H800v10.5h2.5V4.53h2.08V8.45h1.5V3.2h1.67V20.7h1.75v-4h2v2.75h2.33V5.37h3.42V7.78H819V3.7h2.33V28.12h2.17V5.37h2.25V19.78h1.75V15.53h1.33V18h1.75V13.28h2v8.59h1.83V3.62h1.67V18.53h1.83V15.28H840v4.5h2.42V15.53h2V5.45h2.09V21.62H849V8h2.66v28.8h2V13.08h2.75V25h2.13V16.58h2.25V4h2.12v14.5h3.75V5.83h2.5V9.7h2.38V5.08h2.87V15.45h1.75V27.08h2.75V9.7h2.5V20.08h2.63V6.2h2.75v7.25h2.62V4.08h2V9.83h2.38V6h2.87V17.08H900V8.2h2.17V24h2.88V11.08h2.62v5.5h2.63V6h2.87V11.2h2.67V7.53h2.5V20.87h2.5v-4h2.83V35.53h1.81v-27h1.82V25.2h2.43V5h2v7.11H934V8.53h1.83V19.78h2V14h2.25V32.87h2.75V30h2.5v2h2.08V4.45h2.34v3h1.83v-2h2.25V21.87H956v6.58h1.83V25.12H960V26.7h2.26V11.12h2.33v2.33H966V9.28h2.66V19h1.92V5.45H973V8.87h2.25V6.2h2.33v18H980V4.2h2.5V8.28h1.91V5.62h2.42v9.83h1.83V9.78h2V4.2h2.17V6.7h1.92V5h2V20.62H999V14h1.91v2.92h2V3h1.92V7h1.83V4.62h1.84V11h2.16V8.28h2V33.7h2.25V2.78h2.42V14.45h1.75V6.87h2.17V18.12h2.16V15.78h1.67v3.84h2.33V10h1.67v2.5h2V7.2H1033v8.25h1.66V3.28h2.09v8.09h2.41V7.62h2.09v31.5h2.5V15.37h1.75v6h2.41V17.12h1.59v13.5h1.66V5.53h2.34v8.75h2.25V8.87h1.91V22.12h2.67V4h2.33V27.45h2.5V9.62H1067v4.25h2.16V5.62h2.17v4.5H1074V6.87h2.08V19.7h2.5V10.45h1.83V32.53h2.42V3.7h2V25.78h1.92V20.7h2.5v3.08h1.91V7.37h2.34v9.08h2.5V9.2h1.83V36.78h1.75V3.62h1.92V7.53h1.75V5H1105V18.45h2.08v-9h2.25V14h2.58V5.78h2.42V26h2.75V16h2.83v6.17h2.34V7.2h2.58v6.17h2.25V4.45h2V19.2h2.75V7.2h2.5v8.42h2.08V3.7h2.92V6.53h2.83V24.37h2.42V10.45h2.5V20h2.33V6h2.25v10.5h2.92v-8H1157v20h2.33V24.78h2.75v1.84h2.42v-15h2V22h2.41V5.45h2V35.37h2V18.12h2.25V13.28h2.42V15.7h2.33V5.62h2.42v5.5h2.42V8.2h1.33v5.63h3.08V2.7h2.5V28.83h2.38V9.33h2.5V22.45h2.37V7.2h2.38v3.25h2.25V4.2h2.62V32.9h2.88V18.7h2.37V8.2h1.63v6.88h2.5V2.45h2.5v20h2.37V7.7h3.5v6.17h2.25V5.2h3.42V29h2.75V9.37h2.58V25.2h2V5.7h2.34V9.87h2.41V2.28h1.84V19.62h2.16V15.28h1.67v7.34h1.58V16.2h2.17v2.92h1.67V4.2h2.33v23h1.75V6.45h1.83v6h1.92V4h2.17V14.28h2V7h2.75v4.92h1.33V3.12h2.58V14.87h1.92V5.53h.83v8.09h1.75V2.37h1.75v17h1.42V12.62h1.25v2.91h1.75V9h1.83v3.34h1.25V24.62h1.75V5.45h2.42V9h2V2.87h1.92v2.5h2.16V20.28H1297V5.2h1.91v8h1.67V8.62h1.75v8h2.17V3.78h2.33v10h2.92V6.12h1.83v5.25h1.33V3.78h2V9.87h1.84V6.28h1.58V3H1320V60H0Z"/><path class="cls-11" d="M0,11.26H3.67V5.78h2V32h3.5V9.27h3.17v7.29H14v-4h3v9.79h1.91V6.53h2.5V17.72h1.67V8.44h2.17v5.8h2.08V4H30V16.73h2.26V7.19h2.66V23.11h2.92V10.51h2.83V34.64h2.25V5.78h1.75V9.27h2.17v-3h1.67V12h2.41v8.63h2.67v-16h2.33V37h2.5V8.27h2.25v20.9h2.5V10.68h2.34v4.56h2.08v-3.9h1.67v6.8H71V5.37h2.25V37h2.08V9h1.5V34.31h1.58V32h1.75v1.69h1.59V21.29h1.41V7.69h2.09v6.22h1.5V5.29h2.16v5.47h2.5V7.44h2.25V19.55h2.59V10.84h2.25v16h2.33V18.3h2.67v6.8h2.33V6.61h2.33v9h2.59v-6h3V21h2.91V6.78h2.17V21.87h2.42V8h3V4.37h1.58V40.86h2.25V6.36h1.75v7.3H132V9.27h2.25v9h1.91V14.74h1.75V7.94h1.25V11.5h2.42V5.62h3v9.86h2.67V9.35h2v8h1.83V6.94h2.5v7.55h2.75V4H159V16.48h2.25V9.35h2.5V22h2.08V7.44h2.75V16h2V5.53h3V21h1.58v-3.4H177v1.82h2.16V14.16h1.5V4.29h2.25V18.47h2.59V8.77h1.41V34h1.92V5.2h1.75V8.85h2.17V6.11H196V21h2.5V10.68h2.58V13h2.83V6.53h2.5V9.35h1.84v3.48H210V6.45h2.76V22.53h2.66v-7h3.34V20h2.58V8.69h2.08v5h1.84V6.11h2.41v5.06h1.84V4.87h2.41V17.72h2.25V7.28h2.5V24h1.84V14.57h3.08V30.82h2.17V20.21h1.58V6h2.17s-.09,9,0,9h1.25v6.8h2.08V7h3.42V28.5h2.08V11.42h2.33v22.8h2V5.53h2.17v6.14h1.92V7.86h2.33V20.29h2.33V9.93h2.25V14h2.92V12.08h1.33V24.27h2.5V6.36h2.5V17.64h2.34V8h2.33V20.71h2.08V11h2.09V5H292V15.32h2.08V11.67h2.25v7.38h1.75V8.35H300V35.88h2V6h2.16V24.61h2.25V10.84h2.34V29.41h1.66V14.32h1.67v6h2.17V16.73h2.58V32.81h2.5v-28h2.58v7h2.17v14.1h2.58V5.45h1.92v35.9h2.33V14.41h2.17V30.33h2.08V18.22h2.25v9.45h1.92V15.48h2.08v4.4h2V13h2.25V5.37H348V17.23h2.08V9.35h2.25v2.4h2.08V7.69h2.09V22.86h2.33V13.33H361V26.18h3.25V23.69h2.25V7.11H369V20.29h2.58V8.44h2.17V29.58h2.5V11.5h2V33.73h2.58V31.4h1.75V6h2.25V9.18h1.42V36.46h2.33V12.91h2.92v3.32h2.91V6.11h1.67V11h2V4h2.33V28.09h2.42V7.86h2V22h2V20.29h1.75v3.32h2V18.14h1.92V32h2.41V25.68H417v1.74h1.66v-18h2.59V20H423V5.78h2.16V22.12h2.75V12h2.34V35.55H433V25.27h2.16V19.88h2V7h2.17V31.16h2.33V26.1h2.09v3H446V8.93h2.33v7.72h2.33V12.08h2V22h1.84V18.22h2.16v6h2.17V6.94h3.08v7.38h2.5V9.85H467v10h2.08V17.31h2.08v13.6h1.59V7.69h2.33v13.1h2V14h2.08V6.36H482V34.8h2.75V26.1h2.33v-8h2v2.15h2V6.86H494v4.06h2.83V8.85h2.33V30.49h2.67v-12h2.58V26h3.09V13H510v7.87h2.42V6.2h2.75v4.39h2.75v-3h2.34v8.12h2.41V37h2.25V12.83h2.25V20h2.34V9.43h2.75v6.63h2.25V5.45h2.25V18h2.33V10.09h2v4.15h2.25V7.77h2.17V23h2V16.48h2V11.26h1.66V36h2.25V25.6h1.84v4.81h1.83V16.15h2.33v5.3h2V5.7h2.67v6.8h2.42V7.61h2.08V26.18H571V17.39h2.5V34.72h2.75V13.66h2.5v8h2.5V10h2v2.82H586V6.61h2.75V18h2.66V8.69h2.5v7h2.34V6.28h2.16V25.19H600V10.09h2.34v5.73H604V5h2.25V33.39h2.66V30.74h2.17V25.52h2.17V32h2.16V15.24h2.42V6h2.75V19.46H623V9.6h2.91V22.53h2.92V14.66h2.75v3.73h2V11.84h2.25V16h2.5V7.19h2.92V9.85h2.5V7.52h1.66V20.63h3.42V14.57h2.5v10h2.25V19.22h2.17V9.85H659v11h2.41V13.25h2.5V23.86h1.84v-8h2.41V30.74h2V8h1.42v5.72h1.83V9.51h1.84v8.63h2v-11H679v6.47h1.41V8.77h2.34V15.9h2.08V6h2.58v7.05H690V8.85h1.76V21.54h1.41V14.82h2.09V6.11h2.33v6.06h1.17V7.44H700V19.22h2.41V4.62h1.75V6.7h1.42V3.46h2.17V9h1.58V22.53h1.5v-3h1.5v1.66h1.83V14.49H716V19.3h2.25V5H720v14h1.51V11.67h1.33v2.57h1.5V6.61h1.92V17.06h2V4.79h2v5.39h.91V5.7h2.09V21.45h2.5V8h2.33V4.54H741v10.7h2.25V6h2.58v5.72h1.67V4.37H750V29.91h2.26V20.63h2.66V6.86h2.34V25.52h2.33V9.1h2.08V22.28h2.25V4.54h2V15.48h2.42V6.61h2.08V19h2.25v8.29H775V10.18h1.83V15.9h2.08V5h2.5V22.7h2.5V7.94h2.75V19.13h2.25V10.59h2.34V29.91h2.16V5.53h2.5V21.62h2V8.69H800V19.13h2.5V6.61h2.08v3.9h1.5V5.29h1.67V22.7h1.75v-4h2v2.73h2.33v-14h3.42V9.85H819V5.78h2.33v24.3h2.17V7.44h2.25V21.79h1.75V17.56h1.33V20h1.75V15.32h2v8.54h1.83V5.7h1.67V20.54h1.83V17.31H840v4.48h2.42V17.56h2v-10h2.09V23.61H849V10.09h2.66V38.74h2V15.11h2.75V26.93h2.13V18.59h2.25V6h2.12V20.46h3.75V7.9h2.5v3.85h2.38V7.15h2.87V17.47h1.75V29h2.75V11.75h2.5V22.08h2.63V8.27h2.75v7.21h2.62V6.16h2v5.72h2.38V8h2.87V19.09H900V10.26h2.17V25.93h2.88V13.12h2.62v5.47h2.63V8h2.87v5.23h2.67V9.6h2.5V22.86h2.5v-4h2.83V37.46h1.81V10.57h1.82V27.18h2.43V7.09h2v7.07H934V10.59h1.83v11.2h2V16h2.25V34.8h2.75V32h2.5v2h2.08V6.53h2.34v3h1.83v-2h2.25V23.86H956v6.55h1.83V27.09H960v1.58h2.26V13.16h2.33v2.32H966V11.34h2.66V21h1.92V7.52H973v3.4h2.25V8.27h2.33V26.18H980V6.28h2.5v4.06h1.91V7.69h2.42v9.78h1.83V11.84h2V6.28h2.17V8.77h1.92V7h2V22.62H999V16h1.91v2.9h2V5.12h1.92v4h1.83V6.7h1.84V13h2.16V10.34h2V35.63h2.25V4.87h2.42V16.48h1.75V8.93h2.17v11.2h2.16V17.81h1.67v3.81h2.33V12.08h1.67v2.49h2V9.27H1033v8.2h1.66V5.37h2.09v8h2.41V9.68h2.09V41h2.5V17.39h1.75v6h2.41V19.13h1.59V32.57h1.66v-25h2.34v8.7h2.25V10.92h1.91V24.11h2.67v-18h2.33v23.3h2.5V11.67H1067V15.9h2.16V7.69h2.17v4.48H1074V8.93h2.08V21.7h2.5V12.5h1.83v22h2.42V5.78h2v22h1.92V22.7h2.5v3.07h1.91V9.43h2.34v9h2.5V11.26h1.83V38.7h1.75V5.7h1.92V9.6h1.75V7.11H1105V20.46h2.08v-9h2.25v4.56h2.58V7.86h2.42V28h2.75V18h2.83v6.14h2.34V9.27h2.58V15.4h2.25V6.53h2V21.21h2.75V9.27h2.5v8.37h2.08V5.78h2.92V8.6h2.83V26.35h2.42V12.5h2.5V22h2.33V8.1h2.25V18.55h2.92v-8H1157v19.9h2.33V26.76h2.75v1.83h2.42V13.66h2V24h2.41V7.52h2V37.29h2V20.13h2.25V15.32h2.42v2.4h2.33v-10h2.42v5.47h2.42v-2.9h1.33v5.6h3.08V4.79h2.5v26h2.38V11.38h2.5V24.44h2.37V9.27h2.38V12.5h2.25V6.28h2.62V34.84h2.88V20.71h2.37V10.26h1.63V17.1h2.5V4.54h2.5v19.9h2.37V9.76h3.5V15.9h2.25V7.28h3.42V30.91h2.75V11.42h2.58V27.18h2V7.77h2.34v4.15h2.41V4.37h1.84V21.62h2.16V17.31h1.67v7.3h1.58V18.22h2.17v2.9h1.67V6.28h2.33V29.17h1.75V8.52h1.83v6h1.92V6h2.17V16.31h2V9h2.75v4.89h1.33V5.2h2.58V16.89h1.92V7.61h.83v8h1.75V4.46h1.75V21.37h1.42V14.66h1.25v2.9h1.75V11.09h1.83v3.32h1.25V26.6h1.75V7.52h2.42v3.57h2V5h1.92V7.44h2.16V22.28H1297v-15h1.91v8h1.67V10.68h1.75v8h2.17V5.87h2.33v10h2.92V8.19h1.83v5.22h1.33V5.87h2v6.05h1.84V8.35h1.58V5H1320V188.8H0Z"/><path class="cls-12" d="M0,13.31H3.67V7.87h2v26h3.5V11.33h3.17v7.26H14v-4h3v9.74h1.91V8.61h2.5V19.75h1.67V10.51h2.17v5.77h2.08V6.13H30V18.76h2.26V9.27h2.66V25.11h2.92V12.57h2.83v24h2.25V7.87h1.75v3.46h2.17v-3h1.67v5.69h2.41v8.58h2.67V6.71h2.33V39h2.5V10.34h2.25V31.13h2.5V12.73h2.34v4.54h2.08V13.39h1.67v6.77H71V7.45h2.25V39h2.08V11.08h1.5V36.25h1.58V33.9h1.75v1.69h1.59V23.29h1.41V9.76h2.09V16h1.5V7.37h2.16v5.45h2.5V9.52h2.25v12h2.59V12.9h2.25V28.82h2.33v-8.5h2.67v6.77h2.33V8.69h2.33v9h2.59V11.74h3V23.05h2.91V8.86h2.17v15h2.42V10.09h3V6.46h1.58v36.3h2.25V8.44h1.75V15.7H132V11.33h2.25v9h1.91V16.78h1.75V10h1.25v3.55h2.42V7.7h3v9.82h2.67V11.41h2v8h1.83V9h2.5v7.51h2.75V6.05H159V18.51h2.25v-7.1h2.5V24h2.08V9.52h2.75V18h2V7.62h3V23h1.58V19.58H177V21.4h2.16V16.2h1.5V6.38h2.25V20.49h2.59V10.84h1.41V35.92h1.92V7.29h1.75v3.63h2.17V8.2H196V23h2.5V12.73h2.58V15h2.83V8.61h2.5v2.8h1.84v3.47H210V8.53h2.76v16h2.66V17.6h3.34v4.46h2.58V10.75h2.08V15.7h1.84V8.2h2.41v5h1.84V7h2.41V19.75h2.25V9.35h2.5V26h1.84V16.61h3.08V32.78h2.17V22.22h1.58V8h2.17s-.09,9,0,9h1.25v6.77h2.08V9.1h3.42V30.47h2.08v-17h2.33V36.16h2V7.62h2.17v6.1h1.92V9.93h2.33V22.3h2.33V12h2.25v4h2.92V14.14h1.33V26.26h2.5V8.44h2.5V19.66h2.34V10.09h2.33V22.72h2.08V13.06h2.09V7H292V17.35h2.08V13.72h2.25v7.35h1.75V10.42H300V37.81h2V8.11h2.16V26.59h2.25V12.9h2.34V31.38h1.66v-15h1.67V22.3h2.17V18.76h2.58v16h2.5V6.88h2.58v6.93h2.17v14h2.58V7.54h1.92V43.26h2.33V16.45h2.17V32.29h2.08v-12h2.25v9.41h1.92V17.52h2.08v4.37h2V15h2.25V7.45H348v11.8h2.08V11.41h2.25v2.4h2.08V9.76h2.09v15.1h2.33V15.37H361V28.16h3.25V25.69h2.25V9.19H369V22.3h2.58V10.51h2.17v21h2.5v-18h2V35.67h2.58V33.36h1.75V8h2.25v3.22h1.42V38.39h2.33V15h2.92v3.3h2.91V8.2h1.67v4.86h2v-7h2.33v24h2.42V9.93h2V24h2V22.3h1.75v3.3h2V20.16h1.92V33.9h2.41V27.67H417V29.4h1.66V11.5h2.59V22.06H423V7.87h2.16V24.12h2.75V14.05h2.34V37.48H433V27.25h2.16V21.89h2V9.1h2.17v24h2.33v-5h2.09v3H446V11h2.33v7.67h2.33V14.14h2V24h1.84v-3.8h2.16v5.94h2.17V9h3.08v7.34h2.5V11.91H467v9.9h2.08V19.33h2.08V32.86h1.59V9.76h2.33v13h2V16h2.08V8.44H482v28.3h2.75V28.08h2.33V20.16h2V22.3h2V8.94H494v4h2.83V10.92h2.33V32.45h2.67v-12h2.58V28h3.09V15H510v7.84h2.42V8.28h2.75v4.37h2.75v-3h2.34v8.09h2.41V39h2.25V14.88h2.25V22h2.34V11.5h2.75v6.6h2.25V7.54h2.25V20h2.33V12.16h2v4.12h2.25V9.85h2.17V25h2V18.51h2v-5.2h1.66V37.9h2.25V27.58h1.84v4.79h1.83V18.18h2.33v5.28h2V7.78h2.67v6.77h2.42V9.68h2.08V28.16H571V19.42h2.5V36.66h2.75v-21h2.5v8h2.5V12.07h2v2.81H586V8.69h2.75V20h2.66V10.75h2.5v7h2.34V8.36h2.16V27.17H600v-15h2.34v5.69H604V7.12h2.25V35.34h2.66V32.7h2.17V27.5h2.17v6.4h2.16V17.27h2.42V8.11h2.75V21.48H623V11.66h2.91V24.53h2.92V16.69h2.75v3.72h2V13.89h2.25V18h2.5V9.27h2.92v2.64h2.5V9.6h1.66v13h3.42v-6h2.5v10h2.25V21.23h2.17V11.91H659v11h2.41V15.29h2.5V25.85h1.84V17.93h2.41V32.7h2V10.09h1.42v5.7h1.83V11.58h1.84v8.58h2v-11H679v6.43h1.41V10.84h2.34v7.09h2.08V8.11h2.58v7H690V10.92h1.76V23.54h1.41V16.86h2.09V8.2h2.33v6h1.17V9.52H700V21.23h2.41V6.71h1.75V8.77h1.42V5.56h2.17v5.52h1.58V24.53h1.5v-3h1.5v1.65h1.83V16.53H716v4.78h2.25V7.12H720v14h1.51V13.72h1.33v2.56h1.5V8.69h1.92v10.4h2V6.88h2v5.36h.91V7.78h2.09V23.46h2.5V10.09h2.33V6.63H741V17.27h2.25V8.11h2.58v5.7h1.67V6.46H750V31.87h2.26V22.63h2.66V8.94h2.34V27.5h2.33V11.17h2.08V24.28h2.25V6.63h2V17.52h2.42V8.69h2.08V21h2.25v8.25H775v-17h1.83v5.69h2.08V7.12h2.5V24.7h2.5V10h2.75V21.15h2.25v-8.5h2.34V31.87h2.16V7.62h2.5v16h2V10.75H800v10.4h2.5V8.69h2.08v3.88h1.5V7.37h1.67V24.7h1.75v-4h2v2.72h2.33V9.52h3.42v2.39H819v-4h2.33V32h2.17V9.52h2.25V23.79h1.75V19.58h1.33V22h1.75V17.35h2v8.5h1.83V7.78h1.67V22.55h1.83V19.33H840v4.46h2.42V19.58h2V9.6h2.09v16H849V12.16h2.66v28.5h2V17.15h2.75V28.9h2.13V20.61h2.25V8.11h2.12V22.47h3.75V10h2.5v3.84h2.38V9.23h2.87V19.5h1.75V31h2.75V13.81h2.5V24.08h2.63V10.34h2.75v7.18h2.62V8.24h2v5.69h2.38V10.09h2.87v11H900V12.32h2.17V27.91h2.88V15.17h2.62v5.44h2.63V10.09h2.87v5.2h2.67V11.66h2.5v13.2h2.5v-4h2.83V39.38h1.81V12.63h1.82V29.15h2.43v-20h2v7H934V12.65h1.83V23.79h2V18h2.25V36.74h2.75V33.9h2.5v2h2.08V8.61h2.34v3h1.83v-2h2.25V25.85H956v6.52h1.83v-3.3H960v1.57h2.26V15.21h2.33v2.31H966V13.39h2.66v9.66h1.92V9.6H973V13h2.25V10.34h2.33V28.16H980V8.36h2.5v4h1.91V9.76h2.42V19.5h1.83V13.89h2V8.36h2.17v2.48h1.92V9.1h2V24.61H999V18h1.91V20.9h2V7.21h1.92v4h1.83V8.77h1.84V15h2.16V12.4h2V37.57h2.25V7h2.42V18.51h1.75V11h2.17V22.14h2.16V19.83h1.67v3.79h2.33V14.14h1.67v2.47h2V11.33H1033V19.5h1.66v-12h2.09v8h2.41V11.74h2.09V42.93h2.5V19.42h1.75v5.94h2.41V21.15h1.59V34.51h1.66V9.68h2.34v8.66h2.25V13h1.91V26.1h2.67V8.2h2.33V31.38h2.5V13.72H1067v4.21h2.16V9.76h2.17v4.46H1074V11h2.08V23.71h2.5V14.55h1.83V36.41h2.42V7.87h2V29.73h1.92v-5h2.5v3.05h1.91V11.5h2.34v9h2.5V13.31h1.83V40.62h1.75V7.78h1.92v3.88h1.75V9.19H1105V22.47h2.08V13.56h2.25V18.1h2.58V9.93h2.42V30h2.75V20h2.83V26.1h2.34V11.33h2.58v6.11h2.25V8.61h2v14.6h2.75V11.33h2.5v8.33h2.08V7.87h2.92v2.8h2.83V28.33h2.42V14.55h2.5V24h2.33V10.18h2.25V20.57h2.92V12.65H1157v19.8h2.33V28.74h2.75v1.81h2.42V15.7h2V26h2.41V9.6h2V39.22h2V22.14h2.25V17.35h2.42v2.4h2.33v-10h2.42v5.45h2.42V12.32h1.33v5.57h3.08v-11h2.5V32.74h2.38V13.43h2.5v13h2.37V11.33h2.38v3.22h2.25V8.36h2.62V36.78h2.88V22.72h2.37V12.32h1.63v6.81h2.5V6.63h2.5v19.8h2.37V11.83h3.5v6.1h2.25V9.35h3.42V32.86h2.75V13.48h2.58V29.15h2V9.85h2.34V14h2.41V6.46h1.84V23.62h2.16V19.33h1.67v7.26h1.58V20.24h2.17v2.89h1.67V8.36h2.33V31.13h1.75V10.59h1.83v5.94h1.92V8.11h2.17V18.34h2V11.08h2.75V16h1.33V7.29h2.58V18.92h1.92V9.68h.83v8h1.75V6.55h1.75V23.38h1.42V16.69h1.25v2.89h1.75V13.15h1.83v3.3h1.25V28.57h1.75V9.6h2.42v3.55h2V7h1.92V9.52h2.16V24.28H1297V9.35h1.91v7.92h1.67V12.73h1.75v7.92h2.17V8h2.33v9.9h2.92V10.26h1.83v5.2h1.33V8h2v6h1.84V10.42h1.58V7.12H1320V317.6H0Z"/><path class="cls-13" d="M0,15.37H3.67V10h2v25.9h3.5V13.4h3.17v7.22H14V16.68h3v9.69h1.91V10.69h2.5V21.77h1.67V12.58h2.17v5.74h2.08V8.23H30V20.78h2.26V11.34h2.66V27.1h2.92V14.63h2.83V38.51h2.25V10h1.75V13.4h2.17v-3h1.67v5.67h2.41v8.53h2.67V8.8h2.33V40.89h2.5V12.41h2.25V33.1h2.5V14.79h2.34v4.52h2.08V15.45h1.67v6.73H71V9.54h2.25V40.89h2.08V13.15h1.5v25h1.58V35.85h1.75v1.68h1.59V25.3h1.41V11.84h2.09V18h1.5V9.46h2.16v5.41h2.5V11.59h2.25v12h2.59V15h2.25V30.8h2.33V22.34h2.67v6.73h2.33V10.77h2.33v9h2.59V13.81h3V25.05h2.91V10.93h2.17V25.87h2.42V12.17h3V8.55h1.58V44.67h2.25V10.52h1.75v7.23H132V13.4h2.25v8.94h1.91V18.81h1.75V12.08h1.25v3.53h2.42V9.79h3v9.76h2.67V13.48h2v8h1.83V11.1h2.5v7.47h2.75V8.14H159v12.4h2.25V13.48h2.5V26h2.08V11.59h2.75v8.46h2V9.7h3V25h1.58V21.6H177v1.81h2.16V18.24h1.5V8.47h2.25v14h2.59V12.9h1.41v25h1.92V9.37h1.75V13h2.17V10.28H196V25h2.5V14.79h2.58v2.3h2.83v-6.4h2.5v2.79h1.84v3.45H210V10.61h2.76V26.53h2.66V19.64h3.34v4.43h2.58V12.82h2.08v4.93h1.84V10.28h2.41v5h1.84V9.05h2.41V21.77h2.25V11.43h2.5V28h1.84V18.65h3.08V34.74h2.17V24.23h1.58V10.11h2.17s-.09,9,0,9h1.25v6.73h2.08V11.18h3.42V32.44h2.08V15.53h2.33V38.1h2V9.7h2.17v6.08h1.92V12h2.33V24.31h2.33V14.05h2.25v4h2.92V16.19h1.33V28.25h2.5V10.52h2.5V21.69h2.34V12.17h2.33V24.72h2.08v-9.6h2.09v-6H292V19.39h2.08V15.78h2.25v7.3h1.75V12.49H300V39.75h2V10.2h2.16V28.58h2.25V15h2.34V33.34h1.66V18.4h1.67v5.91h2.17V20.78h2.58V36.71h2.5V9h2.58v6.9h2.17v14h2.58V9.62h1.92V45.16h2.33V18.49h2.17V34.25h2.08v-12h2.25v9.36h1.92V19.55h2.08V23.9h2V17.09h2.25V9.54H348V21.28h2.08v-7.8h2.25v2.38h2.08v-4h2.09v15h2.33V17.42H361V30.14h3.25V27.68h2.25V11.26H369V24.31h2.58V12.58h2.17V33.51h2.5V15.61h2v22h2.58v-2.3h1.75V10.11h2.25v3.2h1.42v27h2.33V17h2.92v3.28h2.91v-10h1.67v4.84h2v-7h2.33V32h2.42V12h2V26h2V24.31h1.75V27.6h2V22.18h1.92V35.85h2.41v-6.2H417v1.72h1.66V13.56h2.59V24.07H423V10h2.16V26.12h2.75v-10h2.34V39.42H433V29.24h2.16V23.9h2V11.18h2.17V35.07h2.33v-5h2.09V33H446V13.07h2.33V20.7h2.33V16.19h2V26h1.84V22.26h2.16v5.91h2.17V11.1h3.08v7.3h2.5V14H467v9.85h2.08V21.36h2.08V34.82h1.59v-23h2.33v13h2V18.08h2.08V10.52H482V38.68h2.75V30.06h2.33V22.18h2v2.13h2V11H494v4h2.83V13h2.33V34.41h2.67V22.51h2.58V30h3.09V17.09H510v7.8h2.42V10.36h2.75v4.35h2.75v-3h2.34v8h2.41V40.89h2.25v-24h2.25V24h2.34V13.56h2.75v6.57h2.25V9.62h2.25V22h2.33v-7.8h2v4.1h2.25v-6.4h2.17V27h2V20.54h2V15.37h1.66V39.83h2.25V29.57h1.84v4.76h1.83V20.21h2.33v5.25h2V9.87h2.67V16.6h2.42V11.76h2.08V30.14H571v-8.7h2.5V38.6h2.75V17.75h2.5v8h2.5V14.14h2v2.79H586V10.77h2.75V22h2.66v-9.2h2.5v7h2.34V10.44h2.16V29.16H600V14.22h2.34v5.66H604V9.21h2.25V37.28h2.66V34.66h2.17V29.48h2.17v6.37h2.16V19.31h2.42V10.2h2.75V23.49H623V13.73h2.91v12.8h2.92v-7.8h2.75v3.7h2V15.94h2.25v4.11h2.5V11.34h2.92V14h2.5v-2.3h1.66v13h3.42v-6h2.5v9.93h2.25V23.25h2.17V14H659V24.89h2.41V17.34h2.5v10.5h1.84V20h2.41v14.7h2V12.17h1.42v5.66h1.83V13.64h1.84v8.54h2V11.26H679v6.41h1.41V12.9h2.34V20h2.08V10.2h2.58v7H690V13h1.76V25.54h1.41V18.9h2.09V10.28h2.33v6h1.17V11.59H700V23.25h2.41V8.8h1.75v2h1.42V7.65h2.17v5.5h1.58V26.53h1.5v-3h1.5v1.65h1.83V18.57H716v4.76h2.25V9.21H720V23.08h1.51v-7.3h1.33v2.54h1.5V10.77h1.92V21.11h2V9h2V14.3h.91V9.87h2.09V25.46h2.5V12.17h2.33V8.72H741V19.31h2.25V10.2h2.58v5.66h1.67V8.55H750V33.84h2.26v-9.2h2.66V11h2.34V29.48h2.33V13.23h2.08V26.28h2.25V8.72h2V19.55h2.42V10.77h2.08V23h2.25v8.21H775V14.3h1.83V20h2.08V9.21h2.5V26.69h2.5V12.08h2.75V23.16h2.25V14.71h2.34V33.84h2.16V9.7h2.5V25.63h2V12.82H800V23.16h2.5V10.77h2.08v3.86h1.5V9.46h1.67V26.69h1.75V22.75h2v2.71h2.33V11.59h3.42V14H819V10h2.33V34h2.17V11.59h2.25v14.2h1.75V21.6h1.33V24h1.75v-4.6h2v8.45h1.83v-18h1.67V24.56h1.83v-3.2H840v4.43h2.42V21.6h2V11.67h2.09V27.6H849V14.22h2.66V42.58h2V19.18h2.75v11.7h2.13V22.63h2.25V10.2h2.12V24.48h3.75V12h2.5v3.82h2.38V11.3h2.87V21.52h1.75V33h2.75V15.86h2.5V26.08h2.63V12.41h2.75v7.14h2.62V10.32h2V16h2.38V12.17h2.87v11H900V14.38h2.17V29.9h2.88V17.21h2.62v5.42h2.63V12.17h2.87v5.17h2.67V13.73h2.5V26.86h2.5V22.92h2.83V41.3h1.81V14.69h1.82V31.13h2.43V11.24h2v7H934V14.71h1.83V25.79h2V20.05h2.25V38.68h2.75V35.85h2.5v2h2.08V10.69h2.34v3h1.83v-2h2.25V27.84H956v6.49h1.83V31H960V32.6h2.26V17.25h2.33v2.3H966v-4.1h2.66v9.6h1.92V11.67H973V15h2.25V12.41h2.33V30.14H980V10.44h2.5v4h1.91V11.84h2.42v9.68h1.83V15.94h2v-5.5h2.17V12.9h1.92V11.18h2V26.61H999V20.05h1.91v2.87h2V9.29h1.92v3.94h1.83V10.85h1.84v6.24h2.16V14.46h2v25h2.25V9.05h2.42V20.54h1.75V13.07h2.17V24.15h2.16v-2.3h1.67v3.78h2.33V16.19h1.67v2.46h2V13.4H1033v8.12h1.66v-12h2.09v8h2.41V13.81h2.09v31h2.5V21.44h1.75v5.91h2.41V23.16h1.59v13.3h1.66V11.76h2.34v8.61h2.25V15h1.91V28.09h2.67V10.28h2.33V33.34h2.5V15.78H1067V20h2.16V11.84h2.17v4.43H1074v-3.2h2.08V25.71h2.5V16.6h1.83V38.35h2.42V10h2V31.7h1.92v-5h2.5v3h1.91V13.56h2.34v9h2.5V15.37h1.83V42.54h1.75V9.87h1.92v3.86h1.75V11.26H1105V24.48h2.08V15.61h2.25v4.52h2.58V12h2.42V32h2.75V22h2.83v6.07h2.34V13.4h2.58v6.07h2.25V10.69h2V25.22h2.75V13.4h2.5v8.29h2.08V10h2.92v2.79h2.83V30.31h2.42V16.6h2.5V26h2.33V12.25h2.25V22.59h2.92V14.71H1157v19.7h2.33V30.72h2.75v1.8h2.42V17.75h2V28h2.41V11.67h2V41.14h2v-17h2.25V19.39h2.42v2.38h2.33V11.84h2.42v5.41h2.42V14.38h1.33v5.54h3.08V9h2.5V34.7h2.38V15.49h2.5V28.42h2.37v-15h2.38v3.2h2.25V10.44h2.62V38.71h2.88v-14h2.37V14.38h1.63v6.77h2.5V8.72h2.5v19.7h2.37V13.89h3.5V20h2.25V11.43h3.42V34.82h2.75V15.53h2.58v15.6h2V11.92h2.34V16h2.41V8.55h1.84V25.63h2.16V21.36h1.67v7.22h1.58V22.26h2.17v2.87h1.67V10.44h2.33V33.1h1.75V12.66h1.83v5.91h1.92V10.2h2.17V20.37h2V13.15h2.75V18h1.33V9.37h2.58V21h1.92V11.76h.83v8h1.75V8.64h1.75V25.38h1.42V18.73h1.25V21.6h1.75V15.2h1.83v3.29h1.25V30.55h1.75V11.67h2.42V15.2h2V9.13h1.92v2.46h2.16V26.28H1297V11.43h1.91v7.88h1.67V14.79h1.75v7.88h2.17V10h2.33v9.85h2.92V12.33h1.83V17.5h1.33V10h2v6h1.84V12.49h1.58V9.21H1320V446.4H0Z"/><path class="cls-14" d="M0,17.42H3.67V12h2V37.81h3.5V15.46h3.17v7.19H14V18.73h3v9.64h1.91V12.77h2.5v11h1.67V14.65h2.17v5.71h2.08v-10H30V22.81h2.26V13.42h2.66V29.1h2.92V16.69h2.83V40.45h2.25V12h1.75v3.43h2.17V12.52h1.67v5.64h2.41v8.49h2.67V10.89h2.33V42.82h2.5V14.48h2.25V35.06h2.5V16.85h2.34v4.49h2.08V17.5h1.67v6.7H71V11.62h2.25v31.2h2.08V15.22h1.5V40.13h1.58V37.81h1.75v1.66h1.59V27.3h1.41V13.91h2.09V20h1.5v-8.5h2.16v5.39h2.5V13.67h2.25V25.59h2.59V17h2.25V32.78h2.33V24.36h2.67v6.7h2.33V12.85h2.33v8.9h2.59V15.87h3V27.06h2.91V13h2.17V27.88h2.42V14.24h3v-3.6h1.58V46.58h2.25v-34h1.75v7.19H132V15.46h2.25v8.9h1.91V20.85h1.75V14.16h1.25v3.51h2.42v-5.8h3v9.72h2.67V15.54h2v7.93h1.83V13.18h2.5v7.43h2.75V10.24H159V22.57h2.25v-7h2.5V28h2.08V13.67h2.75v8.41h2V11.79h3V27h1.58V23.63H177v1.8h2.16V20.28h1.5V10.56h2.25v14h2.59V15h1.41V39.8h1.92V11.46h1.75v3.59h2.17V12.36H196V27h2.5V16.85h2.58v2.29h2.83V12.77h2.5v2.77h1.84V19H210V12.69h2.76V28.53h2.66V21.67h3.34v4.41h2.58V14.89h2.08v4.9h1.84V12.36h2.41v5h1.84V11.13h2.41V23.79h2.25V13.5h2.5V30h1.84V20.69h3.08v16h2.17V26.24h1.58v-14h2.17s-.09,8.9,0,8.9h1.25v6.69h2.08V13.26h3.42V34.41h2.08V17.59h2.33V40h2V11.79h2.17v6h1.92V14.07h2.33V26.32h2.33V16.12h2.25v4h2.92V18.24h1.33v12h2.5V12.6h2.5V23.71h2.34V14.24h2.33V26.73h2.08V17.18h2.09v-6H292v10.2h2.08V17.83h2.25V25.1h1.75V14.56H300V41.68h2V12.28h2.16V30.57h2.25V17h2.34v18.3h1.66V20.44h1.67v5.88h2.17V22.81h2.58V38.66h2.5V11.05h2.58v6.86h2.17V31.8h2.58V11.71h1.92V47.07h2.33V20.53h2.17V36.21h2.08V24.28h2.25v9.31h1.92v-12h2.08v4.33h2V19.14h2.25V11.62H348V23.3h2.08V15.54h2.25v2.37h2.08v-4h2.09v15h2.33v-9.4H361V32.12h3.25V29.67h2.25V13.34H369v13h2.58V14.65h2.17V35.47h2.5V17.67h2V39.55h2.58V37.27h1.75V12.2h2.25v3.18h1.42V42.25h2.33V19.06h2.92v3.26h2.91v-10h1.67v4.82h2V10.24h2.33V34h2.42V14.07h2V28h2V26.32h1.75v3.27h2V24.2h1.92V37.81h2.41V31.63H417v1.72h1.66V15.63h2.59V26.08H423V12h2.16V28.12h2.75v-10h2.34V41.35H433V31.22h2.16v-5.3h2V13.26h2.17V37h2.33V32h2.09V35H446V15.14h2.33v7.59h2.33V18.24h2V28h1.84V24.28h2.16v5.88h2.17v-17h3.08v7.26h2.5V16H467v9.8h2.08V23.38h2.08v13.4h1.59V13.91h2.33v12.9h2V20.12h2.08V12.6H482v28h2.75V32h2.33V24.2h2v2.12h2V13.09H494v4h2.83V15.05h2.33V36.37h2.67V24.53h2.58V32h3.09V19.14H510V26.9h2.42V12.44h2.75v4.33h2.75V13.83h2.34v8h2.41v21h2.25V19h2.25v7h2.34V15.63h2.75v6.53h2.25V11.71h2.25V24h2.33V16.28h2v4.08h2.25V14h2.17V29h2V22.57h2V17.42h1.66V41.76h2.25V31.55h1.84v4.74h1.83v-14h2.33v5.23h2V12h2.67v6.7h2.42V13.83h2.08V32.12H571V23.47h2.5V40.53h2.75V19.79h2.5v7.92h2.5V16.2h2V19H586V12.85h2.75V24h2.66V14.89h2.5v6.94h2.34V12.52h2.16V31.14H600V16.28h2.34v5.63H604V11.3h2.25V39.23h2.66V36.61h2.17V31.47h2.17v6.34h2.16V21.34h2.42V12.28h2.75V25.51H623V15.79h2.91V28.53h2.92V20.77h2.75v3.68h2V18h2.25v4.09h2.5V13.42h2.92V16h2.5V13.75h1.66v12.9h3.42v-6h2.5v9.88h2.25V25.26h2.17V16H659V26.9h2.41V19.38h2.5V29.84h1.84V22h2.41V36.61h2V14.24h1.42v5.63h1.83V15.71h1.84V24.2h2V13.34H679v6.37h1.41V15h2.34v7h2.08V12.28h2.58v6.94H690V15.05h1.76v12.5h1.41V20.93h2.09V12.36h2.33v6h1.17V13.67H700V25.26h2.41V10.89h1.75v2h1.42V9.75h2.17v5.47h1.58V28.53h1.5V25.59h1.5v1.63h1.83V20.61H716v4.73h2.25v-14H720V25.1h1.51V17.83h1.33v2.53h1.5V12.85h1.92V23.14h2V11.05h2v5.31h.91V12h2.09V27.47h2.5V14.24h2.33V10.81H741V21.34h2.25V12.28h2.58v5.63h1.67V10.64H750V35.8h2.26V26.65h2.66V13.09h2.34V31.47h2.33V15.3h2.08v13h2.25V10.81h2V21.59h2.42V12.85h2.08V25h2.25v8.16H775V16.36h1.83V22h2.08V11.3h2.5V28.69h2.5V14.16h2.75v11h2.25V16.77h2.34v19h2.16v-24h2.5V27.63h2V14.89H800V25.18h2.5V12.85h2.08v3.84h1.5V11.54h1.67V28.69h1.75V24.77h2v2.7h2.33V13.67h3.42V16H819V12h2.33V36h2.17V13.67h2.25V27.79h1.75V23.63h1.33V26h1.75V21.42h2v8.42h1.83V12h1.67V26.57h1.83V23.38H840v4.41h2.42V23.63h2V13.75h2.09V29.59H849V16.28h2.66V44.49h2V21.22h2.75V32.86h2.13V24.65h2.25V12.28h2.12V26.49h3.75V14.11h2.5v3.8h2.38V13.38h2.87V23.55h1.75V34.94h2.75v-17h2.5V28.08h2.63V14.48h2.75v7.11h2.62V12.4h2V18h2.38V14.24h2.87v10.9H900v-8.7h2.17V31.88h2.88V19.26h2.62v5.39h2.63V14.24h2.87v5.14h2.67V15.79h2.5V28.86h2.5V24.94h2.83V43.23h1.81V16.75h1.82V33.1h2.43V13.32h2v7H934V16.77h1.83v11h2V22.08h2.25V40.62h2.75V37.81h2.5v2h2.08v-27h2.34v2.94h1.83v-2h2.25V29.84H956v6.45h1.83V33H960v1.55h2.26V19.3h2.33v2.29H966V17.5h2.66v9.56h1.92V13.75H973V17.1h2.25V14.48h2.33V32.12H980V12.52h2.5v4h1.91V13.91h2.42v9.64h1.83V18h2V12.52h2.17V15h1.92V13.26h2V28.61H999V22.08h1.91v2.86h2V11.38h1.92V15.3h1.83V12.93h1.84v6.21h2.16V16.52h2V41.43h2.25V11.13h2.42V22.57h1.75V15.14h2.17v11h2.16V23.87h1.67v3.76h2.33V18.24h1.67v2.45h2V15.46H1033v8.09h1.66V11.62h2.09v7.93h2.41V15.87h2.09V46.74h2.5V23.47h1.75v5.88h2.41V25.18h1.59V38.41h1.66V13.83h2.34V22.4h2.25V17.1h1.91v13h2.67V12.36h2.33v23h2.5V17.83H1067V22h2.16V13.91h2.17v4.41H1074V15.14h2.08V27.71h2.5V18.65h1.83V40.29h2.42V12h2V33.67h1.92v-5h2.5v3h1.91V15.63h2.34v8.9h2.5V17.42h1.83v27h1.75V12h1.92v3.84h1.75V13.34H1105V26.49h2.08V17.67h2.25v4.49h2.58V14.07h2.42V33.92h2.75V24h2.83v6h2.34V15.46h2.58v6.05h2.25V12.77h2V27.22h2.75V15.46h2.5v8.25h2.08V12h2.92v2.78h2.83V32.29h2.42V18.65h2.5V28h2.33V14.32h2.25V24.61h2.92V16.77H1157v19.6h2.33V32.69h2.75v1.8h2.42V19.79h2V30h2.41V13.75h2V43.07h2V26.16h2.25V21.42h2.42v2.37h2.33V13.91h2.42V19.3h2.42V16.44h1.33V22h3.08V11.05h2.5v25.6h2.38V17.54h2.5V30.41h2.37V15.46h2.38v3.19h2.25V12.52h2.62V40.65h2.88V26.73h2.37V16.44h1.63v6.74h2.5V10.81h2.5v19.6h2.37V16h3.5V22h2.25V13.5h3.42V36.78h2.75V17.59h2.58V33.1h2V14h2.34v4.09h2.41V10.64h1.84v17h2.16V23.38h1.67v7.19h1.58V24.28h2.17v2.86h1.67V12.52h2.33V35.06h1.75V14.73h1.83v5.88h1.92V12.28h2.17V22.4h2V15.22h2.75V20h1.33V11.46h2.58V23h1.92V13.83h.83v7.92h1.75v-11h1.75V27.39h1.42V20.77h1.25v2.86h1.75V17.26h1.83v3.27h1.25v12h1.75V13.75h2.42v3.51h2v-6h1.92v2.45h2.16V28.28H1297V13.5h1.91v7.84h1.67V16.85h1.75v7.84h2.17V12.11h2.33v9.8h2.92V14.4h1.83v5.15h1.33V12.11h2v6h1.84V14.56h1.58V11.3H1320V575.2H0Z"/><path class="cls-15" d="M0,19.48H3.67V14.12h2V39.76h3.5V17.53h3.17v7.15H14v-3.9h3v9.59h1.91V14.85h2.5v11h1.67v-9.1h2.17V22.4h2.08v-10H30V24.84h2.26V15.5h2.66V31.1h2.92V18.75h2.83V42.39h2.25V14.12h1.75v3.41h2.17V14.6h1.67v5.61h2.41v8.45h2.67V13h2.33V44.75h2.5V16.55h2.25V37h2.5V18.91h2.34v4.47h2.08V19.56h1.67v6.66H71V13.71h2.25v31h2.08V17.28h1.5V42.06h1.58v-2.3h1.75v1.65h1.59V29.31h1.41V16h2.09v6.1h1.5V13.63h2.16V19h2.5V15.74h2.25V27.6h2.59V19.07h2.25V34.75h2.33V26.38h2.67v6.67h2.33V14.93h2.33v8.85h2.59V17.93h3V29.07h2.91v-14h2.17V29.88h2.42V16.31h3V12.73h1.58V48.48h2.25V14.68h1.75v7.15H132v-4.3h2.25v8.85h1.91V22.89h1.75V16.23h1.25v3.49h2.42V14h3v9.67h2.67v-6h2v7.88h1.83V15.25h2.5v7.4h2.75V12.33H159V24.6h2.25v-7h2.5V30h2.08V15.74h2.75v8.37h2V13.87h3V29h1.58V25.65H177v1.79h2.16V22.32h1.5V12.65h2.25v13.9h2.59V17h1.41v24.7h1.92V13.55h1.75v3.57h2.17V14.44H196V29h2.5V18.91h2.58v2.27h2.83V14.85h2.5v2.76h1.84V21H210V14.77h2.76V30.53h2.66V23.7h3.34v4.39h2.58V17h2.08v4.87h1.84V14.44h2.41v5h1.84V13.22h2.41v12.6h2.25V15.58h2.5V32h1.84V22.73h3.08V38.65h2.17V28.25h1.58v-14h2.17s-.09,8.85,0,8.85h1.25V29.8h2.08V15.33h3.42V36.38h2.08V19.64h2.33V42h2V13.87h2.17v6h1.92V16.15h2.33V28.33h2.33V18.18h2.25v4h2.92V20.29h1.33V32.23h2.5V14.68h2.5V25.73h2.34V16.31h2.33V28.74h2.08V19.23h2.09V13.3H292V23.46h2.08V19.88h2.25v7.24h1.75V16.63H300v27h2V14.36h2.16v18.2h2.25V19.07h2.34v18.2h1.66V22.48h1.67v5.85h2.17V24.84h2.58V40.6h2.5V13.14h2.58V20h2.17V33.78h2.58v-20h1.92V49h2.33V22.57h2.17v15.6h2.08V26.3h2.25v9.27h1.92V23.62h2.08v4.31h2V21.18h2.25V13.71H348V25.33h2.08V17.61h2.25V20h2.08V16h2.09V30.85h2.33V21.51H361V34.1h3.25V31.67h2.25V15.42H369V28.33h2.58V16.72h2.17V37.43h2.5V19.72h2V41.5h2.58V39.22h1.75V14.28h2.25v3.17h1.42V44.18h2.33V21.1h2.92v3.25h2.91V14.44h1.67v4.79h2v-6.9h2.33V36h2.42V16.15h2V30h2V28.33h1.75v3.25h2V26.22h1.92V39.76h2.41V33.62H417v1.7h1.66V17.69h2.59v10.4H423v-14h2.16v16h2.75V20.21h2.34V43.28H433V33.21h2.16V27.93h2V15.33h2.17V39h2.33V34h2.09V37H446V17.2h2.33v7.56h2.33V20.29h2V30h1.84V26.3h2.16v5.85h2.17V15.25h3.08v7.23h2.5V18.1H467v9.75h2.08V25.41h2.08V38.73h1.59V16h2.33V28.82h2V22.16h2.08V14.68H482V42.55h2.75V34h2.33v-7.8h2v2.11h2V15.17H494v4h2.83v-2h2.33V38.33h2.67V26.55h2.58v7.39h3.09V21.18H510V28.9h2.42V14.52h2.75v4.31h2.75V15.9h2.34v8h2.41V44.75h2.25V21h2.25v7h2.34V17.69h2.75v6.5h2.25V13.79h2.25V26.06h2.33V18.34h2V22.4h2.25V16.07h2.17V31h2V24.6h2V19.48h1.66V43.69h2.25V33.53h1.84v4.72h1.83v-14h2.33v5.2h2V14h2.67V20.7h2.42V15.9h2.08V34.1H571V25.49h2.5v17h2.75V21.83h2.5v7.89h2.5V18.26h2V21H586V14.93h2.75V26.06h2.66V17h2.5v6.91h2.34V14.6h2.16V33.13H600V18.34h2.34V24H604V13.38h2.25V41.17h2.66v-2.6h2.17V33.45h2.17v6.31h2.16V23.38h2.42v-9h2.75V27.52H623V17.85h2.91V30.53h2.92V22.81h2.75v3.66h2V20.05h2.25v4.06h2.5V15.5h2.92v2.6h2.5V15.82h1.66V28.66h3.42V22.73h2.5v9.83h2.25V27.28h2.17V18.1H659V28.9h2.41V21.43h2.5v10.4h1.84V24h2.41V38.57h2V16.31h1.42v5.61h1.83V17.77h1.84v8.45h2V15.42H679v6.33h1.41V17h2.34v7h2.08V14.36h2.58v6.91H690V17.12h1.76V29.55h1.41V23h2.09V14.44h2.33v5.93h1.17V15.74H700V27.28h2.41V13h1.75v2h1.42V11.84h2.17v5.44h1.58V30.53h1.5V27.6h1.5v1.63h1.83V22.65H716v4.71h2.25v-14H720V27.12h1.51V19.88h1.33V22.4h1.5V14.93h1.92V25.17h2v-12h2v5.28h.91V14h2.09V29.47h2.5V16.31h2.33V12.9H741V23.38h2.25v-9h2.58V20h1.67V12.73H750v25h2.26v-9.1h2.66V15.17h2.34V33.45h2.33V17.37h2.08V30.28h2.25V12.9h2V23.62h2.42V14.93h2.08V27h2.25v8.13H775V18.42h1.83V24h2.08V13.38h2.5V30.69h2.5V16.23h2.75v11h2.25V18.83h2.34V37.76h2.16V13.87h2.5V29.63h2V17H800V27.2h2.5V14.93h2.08v3.82h1.5V13.63h1.67V30.69h1.75v-3.9h2v2.68h2.33V15.74h3.42V18.1H819v-4h2.33v23.8h2.17V15.74h2.25V29.8h1.75V25.65h1.33V28h1.75V23.46h2v8.37h1.83V14h1.67V28.58h1.83V25.41H840V29.8h2.42V25.65h2V15.82h2.09V31.58H849V18.34h2.66V46.41h2V23.26h2.75V34.83h2.13V26.67h2.25V14.36h2.12V28.5h3.75V16.19h2.5V20h2.38V15.46h2.87V25.57h1.75V36.91h2.75V20h2.5V30.08h2.63V16.55h2.75v7.07h2.62V14.48h2v5.61h2.38V16.31h2.87V27.16H900V18.5h2.17V33.86h2.88V21.31h2.62v5.36h2.63V16.31h2.87v5.12h2.67V17.85h2.5v13h2.5V27h2.83v18.2h1.81V18.81h1.82V35.08h2.43V15.4h2v6.92H934V18.83h1.83v11h2V24.11h2.25V42.55h2.75V39.76h2.5v2h2.08V14.85h2.34v2.92h1.83V15.82h2.25v16H956v6.42h1.83V35H960v1.54h2.26V21.35h2.33v2.27H966V19.56h2.66v9.51h1.92V15.82H973v3.33h2.25v-2.6h2.33V34.1H980V14.6h2.5v4h1.91V16h2.42v9.59h1.83V20.05h2V14.6h2.17V17h1.92V15.33h2V30.61H999v-6.5h1.91V27h2V13.47h1.92v3.9h1.83V15h1.84v6.17h2.16v-2.6h2V43.36h2.25V13.22h2.42V24.6h1.75V17.2h2.17v11h2.16V25.9h1.67v3.73h2.33V20.29h1.67v2.44h2v-5.2H1033v8h1.66V13.71h2.09v7.88h2.41V17.93h2.09V48.65h2.5V25.49h1.75v5.85h2.41V27.2h1.59V40.36h1.66V15.9h2.34v8.53h2.25V19.15h1.91V32.07h2.67V14.44h2.33V37.27h2.5V19.88H1067V24h2.16V16h2.17v4.39H1074V17.2h2.08V29.72h2.5v-9h1.83V42.23h2.42V14.12h2V35.65h1.92v-5h2.5v3h1.91v-16h2.34v8.86h2.5V19.48h1.83V46.37h1.75V14h1.92v3.82h1.75V15.42H1105V28.5h2.08V19.72h2.25v4.47h2.58v-8h2.42V35.89h2.75V26.06h2.83v6h2.34V17.53h2.58v6h2.25V14.85h2V29.23h2.75V17.53h2.5v8.2h2.08V14.12h2.92v2.76h2.83V34.27h2.42V20.7h2.5V30h2.33V16.39h2.25V26.63h2.92v-7.8H1157v19.5h2.33V34.67h2.75v1.79h2.42V21.83h2V32h2.41V15.82h2V45h2V28.17h2.25V23.46h2.42v2.36h2.33V16h2.42v5.37h2.42V18.5h1.33V24h3.08V13.14h2.5V38.61h2.38v-19h2.5V32.4h2.37V17.53h2.38V20.7h2.25V14.6h2.62v28h2.88V28.74h2.37V18.5h1.63v6.71h2.5V12.9h2.5V32.4h2.37V18h3.5v6h2.25V15.58h3.42V38.73h2.75V19.64h2.58V35.08h2v-19h2.34v4.06h2.41v-7.4h1.84v16.9h2.16V25.41h1.67v7.15h1.58V26.3h2.17v2.85h1.67V14.6h2.33V37h1.75V16.8h1.83v5.85h1.92V14.36h2.17V24.43h2V17.28h2.75v4.8h1.33V13.55h2.58V25h1.92V15.9h.83v7.88h1.75v-11h1.75V29.39h1.42V22.81h1.25v2.84h1.75V19.32h1.83v3.25h1.25V34.51h1.75V15.82h2.42v3.5h2v-6h1.92v2.44h2.16V30.28H1297V15.58h1.91v7.8h1.67V18.91h1.75v7.8h2.17V14.2h2.33V24h2.92V16.47h1.83v5.12h1.33V14.2h2v5.93h1.84v-3.5h1.58V13.38H1320V704H0Z"/><path class="cls-16" d="M0,21.53H3.67V16.2h2V41.71h3.5V19.59h3.17v7.12H14V22.83h3v9.53h1.91V16.93h2.5V27.84h1.67v-9h2.17v5.65h2.08V14.5H30V26.87h2.26v-9.3h2.66V33.09h2.92V20.81h2.83V44.33h2.25V16.2h1.75v3.39h2.17V16.68h1.67v5.58h2.41v8.41h2.67V15.07h2.33v31.6h2.5v-28h2.25V39h2.5V21h2.34v4.44h2.08v-3.8h1.67v6.63H71V15.79h2.25V46.67h2.08V19.35h1.5V44h1.58V41.71h1.75v1.65h1.59v-12h1.41V18.06h2.09v6.06h1.5V15.71h2.16v5.34h2.5V17.82h2.25v11.8h2.59V21.13h2.25v15.6h2.33V28.4h2.67V35h2.33V17h2.33v8.81h2.59V20h3V31.07h2.91V17.17h2.17V31.88h2.42V18.38h3V14.82h1.58V50.39h2.25V16.76h1.75v7.12H132V19.59h2.25V28.4h1.91V24.93h1.75V18.3h1.25v3.48h2.42V16h3v9.62h2.67v-6h2v7.84h1.83V17.33h2.5v7.36h2.75V14.42H159V26.63h2.25v-7h2.5V32h2.08V17.82h2.75v8.32h2V16h3V31h1.58V27.68H177v1.77h2.16V24.36h1.5V14.74h2.25V28.57h2.59V19.11h1.41V43.68h1.92v-28h1.75v3.56h2.17V16.52H196V31h2.5V21h2.58v2.26h2.83v-6.3h2.5v2.74h1.84v3.4H210V16.85h2.76V32.53h2.66V25.74h3.34V30.1h2.58V19h2.08v4.85h1.84V16.52h2.41v4.93h1.84V15.31h2.41V27.84h2.25V17.65h2.5V34h1.84V24.77h3.08V40.61h2.17V30.26h1.58V16.36h2.17s-.09,8.81,0,8.81h1.25V31.8h2.08V17.41h3.42V38.35h2.08V21.7h2.33V43.92h2V16h2.17v6h1.92V18.22h2.33V30.34h2.33V20.24h2.25v4h2.92V22.34h1.33V34.22h2.5V16.76h2.5v11h2.34V18.38h2.33V30.75h2.08V21.29h2.09v-5.9H292v10.1h2.08V21.94h2.25v7.19h1.75V18.7H300V45.54h2V16.44h2.16V34.55h2.25V21.13h2.34V39.24h1.66V24.52h1.67v5.82h2.17V26.87h2.58V42.55h2.5V15.23h2.58V22h2.17V35.76h2.58V15.88h1.92v35h2.33V24.61h2.17V40.12h2.08V28.32h2.25v9.22h1.92V25.66h2.08v4.28h2V23.23h2.25V15.79H348V27.35h2.08V19.67h2.25V22h2.08v-4h2.09V32.85h2.33v-9.3H361V36.08h3.25V33.66h2.25V17.49H369V30.34h2.58V18.79h2.17V39.4h2.5V21.78h2V43.44h2.58V41.18h1.75V16.36h2.25v3.15h1.42v26.6h2.33v-23h2.92v3.23h2.91V16.52h1.67v4.77h2V14.42h2.33V37.94h2.42V18.22h2V32h2v-1.7h1.75v3.24h2V28.24h1.92V41.71h2.41V35.6H417v1.7h1.66V19.76h2.59V30.1H423V16.2h2.16V32.12h2.75V22.26h2.34v23H433v-10h2.16V29.94h2V17.41h2.17V40.93h2.33V36h2.09v2.91H446V19.27h2.33v7.52h2.33V22.34h2V32h1.84V28.32h2.16v5.82h2.17V17.33h3.08v7.19h2.5V20.16H467v9.7h2.08V27.43h2.08V40.69h1.59V18.06h2.33V30.83h2V24.2h2.08V16.76H482V44.49h2.75V36h2.33V28.24h2v2.1h2V17.25H494v4h2.83v-2h2.33v21.1h2.67V28.57h2.58v7.35h3.09V23.23H510v7.68h2.42V16.6h2.75v4.29h2.75V18h2.34V25.9h2.41V46.67h2.25V23.07h2.25v7h2.34V19.76h2.75v6.46h2.25V15.88h2.25v12.2h2.33V20.4h2v4h2.25v-6.3h2.17V33h2V26.63h2v-5.1h1.66V45.62h2.25V35.52h1.84v4.69h1.83V26.3h2.33v5.18h2V16.12h2.67v6.63h2.42V18h2.08v18.1H571V27.51h2.5v16.9h2.75V23.88h2.5v7.84h2.5V20.32h2v2.75H586V17h2.75V28.08h2.66V19h2.5V25.9h2.34V16.68h2.16V35.11H600V20.4h2.34V26H604V15.47h2.25V43.12h2.66V40.53h2.17V35.44h2.17v6.27h2.16V25.41h2.42v-9h2.75v13.1H623V19.92h2.91V32.53h2.92V24.85h2.75v3.63h2V22.1h2.25v4h2.5V17.57h2.92v2.59h2.5V17.9h1.66V30.67h3.42v-5.9h2.5v9.78h2.25V29.29h2.17V20.16H659V30.91h2.41V23.47h2.5V33.82h1.84V26.06h2.41V40.53h2V18.38h1.42V24h1.83V19.84h1.84v8.4h2V17.49H679V23.8h1.41V19.11h2.34v7h2.08V16.44h2.58v6.87H690V19.19h1.76V31.56h1.41V25h2.09V16.52h2.33v5.9h1.17v-4.6H700V29.29h2.41V15.07h1.75v2h1.42V13.94h2.17v5.41h1.58V32.53h1.5V29.62h1.5v1.61h1.83V24.69H716v4.68h2.25V15.47H720V29.13h1.51V21.94h1.33v2.5h1.5V17h1.92V27.19h2v-12h2v5.25h.91V16.12h2.09V31.48h2.5V18.38h2.33V15H741V25.41h2.25v-9h2.58V22h1.67v-7.2H750v24.9h2.26v-9h2.66V17.25h2.34V35.44h2.33v-16h2.08V32.28h2.25V15h2V25.66h2.42V17h2.08v12h2.25v8.08H775V20.48h1.83v5.58h2.08V15.47h2.5V32.69h2.5V18.3h2.75V29.21h2.25V20.89h2.34V39.72h2.16V16h2.5V31.64h2V19H800V29.21h2.5V17h2.08v3.8h1.5v-5.1h1.67v17h1.75V28.81h2v2.67h2.33V17.82h3.42v2.34H819v-4h2.33V39.88h2.17V17.82h2.25v14h1.75V27.68h1.33V30h1.75V25.49h2v8.33h1.83V16.12h1.67V30.59h1.83V27.43H840V31.8h2.42V27.68h2V17.9h2.09V33.58H849V20.4h2.66V48.33h2v-23h2.75V36.81h2.13V28.69h2.25V16.44h2.12V30.51h3.75V18.26h2.5V22h2.38V17.53h2.87V27.6h1.75V38.87h2.75V22h2.5V32.08h2.63V18.62h2.75v7h2.62v-9.1h2v5.58h2.38V18.38h2.87V29.17H900V20.56h2.17V35.84h2.88V23.35h2.62v5.34h2.63V18.38h2.87v5.09h2.67V19.92h2.5V32.85h2.5V29h2.83V47.08h1.81V20.87h1.82V37.05h2.43V17.47h2v6.89H934V20.89h1.83V31.8h2V26.14h2.25V44.49h2.75V41.71h2.5v2h2.08V16.93h2.34v2.91h1.83V17.9h2.25V33.82H956v6.39h1.83V37H960v1.54h2.26V23.39h2.33v2.27H966V21.61h2.66v9.46h1.92V17.9H973v3.31h2.25V18.62h2.33V36.08H980V16.68h2.5v4h1.91V18.06h2.42V27.6h1.83V22.1h2V16.68h2.17v2.43h1.92v-1.7h2v15.2H999V26.14h1.91V29h2V15.55h1.92v3.88h1.83V17.09h1.84v6.14h2.16V20.64h2V45.3h2.25v-30h2.42V26.63h1.75V19.27h2.17V30.18h2.16V27.92h1.67v3.72h2.33v-9.3h1.67v2.43h2V19.59H1033v8h1.66V15.79h2.09v7.85h2.41V20h2.09V50.55h2.5v-23h1.75v5.82h2.41V29.21h1.59v13.1h1.66V18h2.34v8.48h2.25V21.21h1.91V34.06h2.67V16.52h2.33V39.24h2.5V21.94H1067v4.12h2.16v-8h2.17v4.36H1074V19.27h2.08V31.72h2.5v-9h1.83V44.17h2.42v-28h2V37.62h1.92V32.69h2.5v3h1.91V19.76h2.34v8.81h2.5v-7h1.83V48.29h1.75V16.12h1.92v3.8h1.75V17.49H1105v13h2.08V21.78h2.25v4.44h2.58v-8h2.42V37.86h2.75V28.08h2.83v6h2.34V19.59h2.58v6h2.25V16.93h2v14.3h2.75V19.59h2.5v8.17h2.08V16.2h2.92V19h2.83V36.24h2.42V22.75h2.5V32h2.33V18.46h2.25V28.65h2.92V20.89H1157v19.4h2.33V36.65h2.75v1.78h2.42V23.88h2V34h2.41V17.9h2v29h2V30.18h2.25V25.49h2.42v2.35h2.33V18.06h2.42v5.33h2.42V20.56h1.33V26h3.08V15.23h2.5V40.57h2.38V21.65h2.5V34.39h2.37V19.59h2.38v3.16h2.25V16.68h2.62V44.52h2.88V30.75h2.37V20.56h1.63v6.67h2.5V15h2.5v19.4h2.37V20.08h3.5v6h2.25V17.65h3.42v23h2.75v-19h2.58V37.05h2V18.14h2.34v4h2.41V14.82h1.84V31.64h2.16V27.43h1.67v7.12h1.58V28.32h2.17v2.83h1.67V16.68h2.33V39h1.75V18.87h1.83v5.82h1.92V16.44h2.17v10h2V19.35h2.75v4.77h1.33V15.63h2.58V27h1.92V18h.83v7.84h1.75V14.91h1.75V31.39h1.42V24.85h1.25v2.83h1.75V21.37h1.83v3.24h1.25V36.49h1.75V17.9h2.42v3.47h2v-6h1.92v2.43h2.16V32.28H1297V17.65h1.91v7.76h1.67V21h1.75v7.76h2.17V16.28h2.33V26h2.92V18.54h1.83v5.1h1.33V16.28h2v5.9h1.84V18.7h1.58V15.47H1320V832.8H0Z"/><path class="cls-17" d="M0,21.53H3.67V16.2h2V41.71h3.5V19.59h3.17v7.12H14V22.83h3v9.53h1.91V16.93h2.5V27.84h1.67v-9h2.17v5.65h2.08V14.5H30V26.87h2.26v-9.3h2.66V33.09h2.92V20.81h2.83V44.33h2.25V16.2h1.75v3.39h2.17V16.68h1.67v5.58h2.41v8.41h2.67V15.07h2.33v31.6h2.5v-28h2.25V39h2.5V21h2.34v4.44h2.08v-3.8h1.67v6.63H71V15.79h2.25V46.67h2.08V19.35h1.5V44h1.58V41.71h1.75v1.65h1.59v-12h1.41V18.06h2.09v6.06h1.5V15.71h2.16v5.34h2.5V17.82h2.25v11.8h2.59V21.13h2.25v15.6h2.33V28.4h2.67V35h2.33V17h2.33v8.81h2.59V20h3V31.07h2.91V17.17h2.17V31.88h2.42V18.38h3V14.82h1.58V50.39h2.25V16.76h1.75v7.12H132V19.59h2.25V28.4h1.91V24.93h1.75V18.3h1.25v3.48h2.42V16h3v9.62h2.67v-6h2v7.84h1.83V17.33h2.5v7.36h2.75V14.42H159V26.63h2.25v-7h2.5V32h2.08V17.82h2.75v8.32h2V16h3V31h1.58V27.68H177v1.77h2.16V24.36h1.5V14.74h2.25V28.57h2.59V19.11h1.41V43.68h1.92v-28h1.75v3.56h2.17V16.52H196V31h2.5V21h2.58v2.26h2.83v-6.3h2.5v2.74h1.84v3.4H210V16.85h2.76V32.53h2.66V25.74h3.34V30.1h2.58V19h2.08v4.85h1.84V16.52h2.41v4.93h1.84V15.31h2.41V27.84h2.25V17.65h2.5V34h1.84V24.77h3.08V40.61h2.17V30.26h1.58V16.36h2.17s-.09,8.81,0,8.81h1.25V31.8h2.08V17.41h3.42V38.35h2.08V21.7h2.33V43.92h2V16h2.17v6h1.92V18.22h2.33V30.34h2.33V20.24h2.25v4h2.92V22.34h1.33V34.22h2.5V16.76h2.5v11h2.34V18.38h2.33V30.75h2.08V21.29h2.09v-5.9H292v10.1h2.08V21.94h2.25v7.19h1.75V18.7H300V45.54h2V16.44h2.16V34.55h2.25V21.13h2.34V39.24h1.66V24.52h1.67v5.82h2.17V26.87h2.58V42.55h2.5V15.23h2.58V22h2.17V35.76h2.58V15.88h1.92v35h2.33V24.61h2.17V40.12h2.08V28.32h2.25v9.22h1.92V25.66h2.08v4.28h2V23.23h2.25V15.79H348V27.35h2.08V19.67h2.25V22h2.08v-4h2.09V32.85h2.33v-9.3H361V36.08h3.25V33.66h2.25V17.49H369V30.34h2.58V18.79h2.17V39.4h2.5V21.78h2V43.44h2.58V41.18h1.75V16.36h2.25v3.15h1.42v26.6h2.33v-23h2.92v3.23h2.91V16.52h1.67v4.77h2V14.42h2.33V37.94h2.42V18.22h2V32h2v-1.7h1.75v3.24h2V28.24h1.92V41.71h2.41V35.6H417v1.7h1.66V19.76h2.59V30.1H423V16.2h2.16V32.12h2.75V22.26h2.34v23H433v-10h2.16V29.94h2V17.41h2.17V40.93h2.33V36h2.09v2.91H446V19.27h2.33v7.52h2.33V22.34h2V32h1.84V28.32h2.16v5.82h2.17V17.33h3.08v7.19h2.5V20.16H467v9.7h2.08V27.43h2.08V40.69h1.59V18.06h2.33V30.83h2V24.2h2.08V16.76H482V44.49h2.75V36h2.33V28.24h2v2.1h2V17.25H494v4h2.83v-2h2.33v21.1h2.67V28.57h2.58v7.35h3.09V23.23H510v7.68h2.42V16.6h2.75v4.29h2.75V18h2.34V25.9h2.41V46.67h2.25V23.07h2.25v7h2.34V19.76h2.75v6.46h2.25V15.88h2.25v12.2h2.33V20.4h2v4h2.25v-6.3h2.17V33h2V26.63h2v-5.1h1.66V45.62h2.25V35.52h1.84v4.69h1.83V26.3h2.33v5.18h2V16.12h2.67v6.63h2.42V18h2.08v18.1H571V27.51h2.5v16.9h2.75V23.88h2.5v7.84h2.5V20.32h2v2.75H586V17h2.75V28.08h2.66V19h2.5V25.9h2.34V16.68h2.16V35.11H600V20.4h2.34V26H604V15.47h2.25V43.12h2.66V40.53h2.17V35.44h2.17v6.27h2.16V25.41h2.42v-9h2.75v13.1H623V19.92h2.91V32.53h2.92V24.85h2.75v3.63h2V22.1h2.25v4h2.5V17.57h2.92v2.59h2.5V17.9h1.66V30.67h3.42v-5.9h2.5v9.78h2.25V29.29h2.17V20.16H659V30.91h2.41V23.47h2.5V33.82h1.84V26.06h2.41V40.53h2V18.38h1.42V24h1.83V19.84h1.84v8.4h2V17.49H679V23.8h1.41V19.11h2.34v7h2.08V16.44h2.58v6.87H690V19.19h1.76V31.56h1.41V25h2.09V16.52h2.33v5.9h1.17v-4.6H700V29.29h2.41V15.07h1.75v2h1.42V13.94h2.17v5.41h1.58V32.53h1.5V29.62h1.5v1.61h1.83V24.69H716v4.68h2.25V15.47H720V29.13h1.51V21.94h1.33v2.5h1.5V17h1.92V27.19h2v-12h2v5.25h.91V16.12h2.09V31.48h2.5V18.38h2.33V15H741V25.41h2.25v-9h2.58V22h1.67v-7.2H750v24.9h2.26v-9h2.66V17.25h2.34V35.44h2.33v-16h2.08V32.28h2.25V15h2V25.66h2.42V17h2.08v12h2.25v8.08H775V20.48h1.83v5.58h2.08V15.47h2.5V32.69h2.5V18.3h2.75V29.21h2.25V20.89h2.34V39.72h2.16V16h2.5V31.64h2V19H800V29.21h2.5V17h2.08v3.8h1.5v-5.1h1.67v17h1.75V28.81h2v2.67h2.33V17.82h3.42v2.34H819v-4h2.33V39.88h2.17V17.82h2.25v14h1.75V27.68h1.33V30h1.75V25.49h2v8.33h1.83V16.12h1.67V30.59h1.83V27.43H840V31.8h2.42V27.68h2V17.9h2.09V33.58H849V20.4h2.66V48.33h2v-23h2.75V36.81h2.13V28.69h2.25V16.44h2.12V30.51h3.75V18.26h2.5V22h2.38V17.53h2.87V27.6h1.75V38.87h2.75V22h2.5V32.08h2.63V18.62h2.75v7h2.62v-9.1h2v5.58h2.38V18.38h2.87V29.17H900V20.56h2.17V35.84h2.88V23.35h2.62v5.34h2.63V18.38h2.87v5.09h2.67V19.92h2.5V32.85h2.5V29h2.83V47.08h1.81V20.87h1.82V37.05h2.43V17.47h2v6.89H934V20.89h1.83V31.8h2V26.14h2.25V44.49h2.75V41.71h2.5v2h2.08V16.93h2.34v2.91h1.83V17.9h2.25V33.82H956v6.39h1.83V37H960v1.54h2.26V23.39h2.33v2.27H966V21.61h2.66v9.46h1.92V17.9H973v3.31h2.25V18.62h2.33V36.08H980V16.68h2.5v4h1.91V18.06h2.42V27.6h1.83V22.1h2V16.68h2.17v2.43h1.92v-1.7h2v15.2H999V26.14h1.91V29h2V15.55h1.92v3.88h1.83V17.09h1.84v6.14h2.16V20.64h2V45.3h2.25v-30h2.42V26.63h1.75V19.27h2.17V30.18h2.16V27.92h1.67v3.72h2.33v-9.3h1.67v2.43h2V19.59H1033v8h1.66V15.79h2.09v7.85h2.41V20h2.09V50.55h2.5v-23h1.75v5.82h2.41V29.21h1.59v13.1h1.66V18h2.34v8.48h2.25V21.21h1.91V34.06h2.67V16.52h2.33V39.24h2.5V21.94H1067v4.12h2.16v-8h2.17v4.36H1074V19.27h2.08V31.72h2.5v-9h1.83V44.17h2.42v-28h2V37.62h1.92V32.69h2.5v3h1.91V19.76h2.34v8.81h2.5v-7h1.83V48.29h1.75V16.12h1.92v3.8h1.75V17.49H1105v13h2.08V21.78h2.25v4.44h2.58v-8h2.42V37.86h2.75V28.08h2.83v6h2.34V19.59h2.58v6h2.25V16.93h2v14.3h2.75V19.59h2.5v8.17h2.08V16.2h2.92V19h2.83V36.24h2.42V22.75h2.5V32h2.33V18.46h2.25V28.65h2.92V20.89H1157v19.4h2.33V36.65h2.75v1.78h2.42V23.88h2V34h2.41V17.9h2v29h2V30.18h2.25V25.49h2.42v2.35h2.33V18.06h2.42v5.33h2.42V20.56h1.33V26h3.08V15.23h2.5V40.57h2.38V21.65h2.5V34.39h2.37V19.59h2.38v3.16h2.25V16.68h2.62V44.52h2.88V30.75h2.37V20.56h1.63v6.67h2.5V15h2.5v19.4h2.37V20.08h3.5v6h2.25V17.65h3.42v23h2.75v-19h2.58V37.05h2V18.14h2.34v4h2.41V14.82h1.84V31.64h2.16V27.43h1.67v7.12h1.58V28.32h2.17v2.83h1.67V16.68h2.33V39h1.75V18.87h1.83v5.82h1.92V16.44h2.17v10h2V19.35h2.75v4.77h1.33V15.63h2.58V27h1.92V18h.83v7.84h1.75V14.91h1.75V31.39h1.42V24.85h1.25v2.83h1.75V21.37h1.83v3.24h1.25V36.49h1.75V17.9h2.42v3.47h2v-6h1.92v2.43h2.16V32.28H1297V17.65h1.91v7.76h1.67V21h1.75v7.76h2.17V16.28h2.33V26h2.92V18.54h1.83v5.1h1.33V16.28h2v5.9h1.84V18.7h1.58V15.47H1320V832.8H0Z"/></g></g></svg>