<svg xmlns="http://www.w3.org/2000/svg" viewBox="0 0 300 1094.4"><defs><style>.cls-1,.cls-14,.cls-15,.cls-16,.cls-17,.cls-18,.cls-19,.cls-20{fill:#5e6614;}.cls-2{fill:#555912;}.cls-3{fill:#4c4b11;}.cls-4{fill:#433e10;}.cls-5{fill:#3a310e;}.cls-6{fill:#31230d;}.cls-7{fill:#28160b;}.cls-8{fill:#25140a;}.cls-9{fill:#221309;}.cls-10{fill:#1f1109;}.cls-11{fill:#1c0f08;}.cls-12{fill:#190e07;}.cls-13{fill:#160c06;}.cls-14{opacity:0.5;}.cls-15{opacity:0.55;}.cls-16{opacity:0.61;}.cls-17{opacity:0.66;}.cls-18{opacity:0.71;}.cls-19{opacity:0.77;}.cls-20{opacity:0.82;}</style></defs><title>7</title><g id="Layer_2" data-name="Layer 2"><g id="Chão"><polygon class="cls-1" points="180 111.6 0 111.6 0 141.6 114.08 165.78 180 177.01 180 177.01 180 111.6"/><polygon class="cls-2" points="0 113.14 0 141.6 114.08 165.78 180 177.01 180 177.01 180 157.44 179.06 151.81 179.06 114.33 175.61 114.33 171.92 117.57 170.12 117.57 165.44 113.48 162.91 113.48 155.78 119.69 153.26 119.69 147.78 114.93 145.62 114.93 142.12 117.99 139.96 117.99 134.77 113.48 132.79 113.48 126.42 119.01 124.99 119.01 121.09 115.61 119.2 115.61 116.48 117.99 114.58 117.99 110.29 114.25 108.67 114.25 103.28 118.93 101.12 118.93 94.82 113.48 92.64 113.48 89.52 116.2 87.5 116.2 84.37 113.48 82.23 113.48 77.03 117.99 75.03 117.99 70.69 114.25 68.14 114.25 65.43 116.59 63.25 116.59 59.65 113.48 57.47 113.48 53.33 117.05 52.25 117.05 47.72 113.14 45.16 113.14 42.71 115.27 40.9 115.27 39.02 113.65 37.57 113.65 34.34 116.42 32.7 116.42 28.88 113.14 26.86 113.14 24.16 115.44 21.96 115.44 18.75 112.72 17.29 112.72 13.18 116.2 11.52 116.2 9.01 114.08 7.16 114.08 5.81 115.18 4.35 115.18 1.93 113.14 0 113.14"/><polygon class="cls-3" points="0 114.68 0 141.6 114.08 165.78 180 177.01 180 177.01 180 157.99 178.11 153.48 178.11 117.06 173.42 117.06 170.46 123.53 168 123.53 164.26 115.36 160.8 115.36 155.1 127.79 151.65 127.79 147.27 118.25 144.31 118.25 141.51 124.38 138.56 124.38 134.41 115.36 131.71 115.36 126.61 126.43 124.65 126.43 121.53 119.62 118.95 119.62 116.77 124.38 114.18 124.38 110.74 116.89 108.52 116.89 104.22 126.25 101.26 126.25 96.22 115.36 93.25 115.36 90.76 120.81 88 120.81 85.5 115.36 82.57 115.36 78.41 124.38 75.69 124.38 72.22 116.89 68.75 116.89 66.58 121.57 63.61 121.57 60.73 115.36 57.77 115.36 54.45 122.5 52.97 122.5 49.35 114.68 45.87 114.68 43.91 118.94 41.44 118.94 39.94 115.7 37.96 115.7 35.38 121.23 33.15 121.23 30.09 114.68 27.35 114.68 25.19 119.28 22.21 119.28 19.64 113.83 17.65 113.83 14.37 120.81 12.12 120.81 10.11 116.55 7.61 116.55 6.53 118.77 4.54 118.77 2.61 114.68 0 114.68"/><polygon class="cls-4" points="0 116.22 0 141.6 114.08 165.78 180 177.01 180 177.01 180 158.53 177.17 155.15 177.17 119.8 171.22 119.8 169 129.5 165.88 129.5 163.08 117.24 158.7 117.24 154.42 135.88 150.05 135.88 146.76 121.58 143.01 121.58 140.91 130.77 137.16 130.77 134.05 117.24 130.62 117.24 126.8 133.84 124.3 133.84 121.96 123.63 118.69 123.63 117.06 130.77 113.77 130.77 111.19 119.54 108.38 119.54 105.15 133.58 101.4 133.58 97.62 117.24 93.86 117.24 91.99 125.41 88.5 125.41 86.62 117.24 82.92 117.24 79.8 130.77 76.36 130.77 73.75 119.54 69.36 119.54 67.74 126.56 63.98 126.56 61.81 117.24 58.06 117.24 55.57 127.95 53.7 127.95 50.98 116.22 46.58 116.22 45.11 122.6 41.98 122.6 40.86 117.75 38.35 117.75 36.42 126.05 33.6 126.05 31.3 116.22 27.84 116.22 26.22 123.11 22.45 123.11 20.52 114.94 18.02 114.94 15.55 125.41 12.72 125.41 11.21 119.03 8.05 119.03 7.25 122.35 4.74 122.35 3.29 116.22 0 116.22"/><polygon class="cls-5" points="0 117.76 0 141.6 114.08 165.78 180 177.01 180 177.01 180 159.07 176.22 156.82 176.22 122.53 169.03 122.53 167.55 135.46 163.76 135.46 161.89 119.12 156.59 119.12 153.74 143.97 148.44 143.97 146.25 124.91 141.71 124.91 140.31 137.17 135.77 137.17 133.69 119.12 129.53 119.12 126.98 141.25 123.96 141.25 122.4 127.63 118.44 127.63 117.35 137.17 113.36 137.17 111.64 122.19 108.24 122.19 106.09 140.91 101.54 140.91 99.02 119.12 94.48 119.12 93.23 130.02 89 130.02 87.75 119.12 83.26 119.12 81.18 137.17 77.02 137.17 75.28 122.19 69.97 122.19 68.89 131.55 64.34 131.55 62.9 119.12 58.35 119.12 56.69 133.4 54.42 133.4 52.61 117.76 47.3 117.76 46.31 126.27 42.53 126.27 41.78 119.8 38.74 119.8 37.45 130.87 34.04 130.87 32.51 117.76 28.33 117.76 27.25 126.95 22.7 126.95 21.41 116.06 18.38 116.06 16.73 130.02 13.31 130.02 12.31 121.51 8.5 121.51 7.96 125.93 4.93 125.93 3.96 117.76 0 117.76"/><polygon class="cls-6" points="0 119.3 0 141.6 114.08 165.78 180 177.01 180 177.01 180 159.62 175.28 158.49 175.28 125.26 166.83 125.26 166.09 141.43 161.65 141.43 160.71 121 154.49 121 153.06 152.07 146.84 152.07 145.74 128.24 140.41 128.24 139.71 143.56 134.37 143.56 133.33 121 128.44 121 127.17 148.66 123.62 148.66 122.84 131.64 118.19 131.64 117.64 143.56 112.96 143.56 112.1 124.83 108.1 124.83 107.02 148.24 101.68 148.24 100.42 121 95.09 121 94.46 134.62 89.5 134.62 88.87 121 83.61 121 82.57 143.56 77.68 143.56 76.81 124.83 70.58 124.83 70.04 136.54 64.7 136.54 63.98 121 58.64 121 57.81 138.85 55.15 138.85 54.24 119.3 48.01 119.3 47.52 129.94 43.07 129.94 42.7 121.86 39.14 121.86 38.49 135.69 34.49 135.69 33.72 119.3 28.82 119.3 28.29 130.79 22.94 130.79 22.3 117.17 18.74 117.17 17.92 134.62 13.91 134.62 13.41 123.98 8.95 123.98 8.68 129.51 5.12 129.51 4.64 119.3 0 119.3"/><polygon class="cls-7" points="180 160.16 174.34 160.16 174.34 127.99 164.63 127.99 164.63 147.4 159.53 147.4 159.53 122.89 152.38 122.89 152.38 160.16 145.23 160.16 145.23 131.57 139.1 131.57 139.1 149.95 132.97 149.95 132.97 122.89 127.36 122.89 127.36 156.08 123.27 156.08 123.27 135.65 117.93 135.65 117.93 149.95 112.55 149.95 112.55 127.48 107.95 127.48 107.95 155.57 101.83 155.57 101.83 122.89 95.7 122.89 95.7 139.23 90 139.23 90 122.89 83.95 122.89 83.95 149.95 78.34 149.95 78.34 127.48 71.19 127.48 71.19 141.52 65.06 141.52 65.06 122.89 58.93 122.89 58.93 144.31 55.87 144.31 55.87 120.84 48.72 120.84 48.72 133.61 43.61 133.61 43.61 123.91 39.53 123.91 39.53 140.5 34.93 140.5 34.93 120.84 29.32 120.84 29.32 134.63 23.19 134.63 23.19 118.29 19.1 118.29 19.1 139.23 14.51 139.23 14.51 126.46 9.4 126.46 9.4 133.1 5.32 133.1 5.32 120.84 0 120.84 0 141.6 114.08 165.78 180 177.01 180 160.16"/><polygon class="cls-8" points="0 121.69 0 141.6 114.08 165.78 180.97 184.84 180 161.74 174.34 161.74 174.34 129.57 164.63 129.57 164.63 148.97 159.53 148.97 159.53 124.46 152.38 124.46 152.38 161.74 145.23 161.74 145.23 133.14 139.1 133.14 139.1 151.52 132.97 151.52 132.97 124.46 127.36 124.46 127.36 157.65 123.27 157.65 123.27 137.23 117.93 137.23 117.93 151.52 112.55 151.52 112.55 127.48 107.95 127.48 107.95 156.41 101.83 156.41 101.83 125.09 95.7 125.09 95.7 141.43 90 141.43 90 125.09 83.95 125.09 83.95 150.8 78.34 150.8 78.34 128.8 71.19 128.8 71.19 142.84 65.06 142.84 65.06 124.2 58.93 124.2 58.93 145.63 55.87 145.63 55.87 122.16 48.72 122.16 48.72 134.93 43.61 134.93 43.61 123.91 39.53 123.91 39.53 141.69 34.93 141.69 34.93 122.03 29.32 122.03 29.32 135.82 23.19 135.82 23.19 119.48 19.1 119.48 19.1 140.07 14.51 140.07 14.51 127.31 9.4 127.31 9.4 133.94 5.32 133.94 5.32 121.69 0 121.69"/><polygon class="cls-9" points="0 122.54 0 141.6 114.08 165.78 181.94 192.68 180 163.31 174.34 163.31 174.34 131.14 164.63 131.14 164.63 150.54 159.53 150.54 159.53 126.03 152.38 126.03 152.38 163.31 145.23 163.31 145.23 134.72 139.1 134.72 139.1 153.1 132.97 153.1 132.97 126.03 127.36 126.03 127.36 159.23 123.27 159.23 123.27 138.8 117.93 138.8 117.93 153.1 112.55 153.1 112.55 127.48 107.95 127.48 107.95 157.26 101.83 157.26 101.83 127.3 95.7 127.3 95.7 143.64 90 143.64 90 127.3 83.95 127.3 83.95 151.64 78.34 151.64 78.34 130.12 71.19 130.12 71.19 144.16 65.06 144.16 65.06 125.52 58.93 125.52 58.93 146.94 55.87 146.94 55.87 123.48 48.72 123.48 48.72 136.25 43.61 136.25 43.61 123.91 39.53 123.91 39.53 142.88 34.93 142.88 34.93 123.23 29.32 123.23 29.32 137.01 23.19 137.01 23.19 120.67 19.1 120.67 19.1 140.92 14.51 140.92 14.51 128.15 9.4 128.15 9.4 134.79 5.32 134.79 5.32 122.54 0 122.54"/><polygon class="cls-10" points="0 123.38 0 141.6 114.08 165.78 182.92 200.51 180 164.88 174.34 164.88 174.34 132.72 164.63 132.72 164.63 152.12 159.53 152.12 159.53 127.61 152.38 127.61 152.38 164.88 145.23 164.88 145.23 136.29 139.1 136.29 139.1 154.67 132.97 154.67 132.97 127.61 127.36 127.61 127.36 160.8 123.27 160.8 123.27 140.37 117.93 140.37 117.93 154.67 112.55 154.67 112.55 127.48 107.95 127.48 107.95 158.11 101.83 158.11 101.83 129.51 95.7 129.51 95.7 145.85 90 145.85 90 129.51 83.95 129.51 83.95 152.49 78.34 152.49 78.34 131.44 71.19 131.44 71.19 145.48 65.06 145.48 65.06 126.84 58.93 126.84 58.93 148.26 55.87 148.26 55.87 124.8 48.72 124.8 48.72 137.57 43.61 137.57 43.61 123.91 39.53 123.91 39.53 144.08 34.93 144.08 34.93 124.42 29.32 124.42 29.32 138.2 23.19 138.2 23.19 121.86 19.1 121.86 19.1 141.77 14.51 141.77 14.51 129 9.4 129 9.4 135.64 5.32 135.64 5.32 123.38 0 123.38"/><polygon class="cls-11" points="0 124.23 0 141.6 114.08 165.78 183.89 208.34 180 166.46 174.34 166.46 174.34 134.29 164.63 134.29 164.63 153.69 159.53 153.69 159.53 129.18 152.38 129.18 152.38 166.46 145.23 166.46 145.23 137.86 139.1 137.86 139.1 156.25 132.97 156.25 132.97 129.18 127.36 129.18 127.36 162.37 123.27 162.37 123.27 141.95 117.93 141.95 117.93 156.25 112.55 156.25 112.55 127.48 107.95 127.48 107.95 158.95 101.83 158.95 101.83 131.72 95.7 131.72 95.7 148.06 90 148.06 90 131.72 83.95 131.72 83.95 153.34 78.34 153.34 78.34 132.76 71.19 132.76 71.19 146.8 65.06 146.8 65.06 128.16 58.93 128.16 58.93 149.58 55.87 149.58 55.87 126.12 48.72 126.12 48.72 138.88 43.61 138.88 43.61 123.91 39.53 123.91 39.53 145.27 34.93 145.27 34.93 125.61 29.32 125.61 29.32 139.4 23.19 139.4 23.19 123.06 19.1 123.06 19.1 142.61 14.51 142.61 14.51 129.85 9.4 129.85 9.4 136.49 5.32 136.49 5.32 124.23 0 124.23"/><polygon class="cls-12" points="0 125.08 0 141.6 114.08 165.78 184.86 216.17 180 168.03 174.34 168.03 174.34 135.86 164.63 135.86 164.63 155.27 159.53 155.27 159.53 130.76 152.38 130.76 152.38 168.03 145.23 168.03 145.23 139.44 139.1 139.44 139.1 157.82 132.97 157.82 132.97 130.76 127.36 130.76 127.36 163.95 123.27 163.95 123.27 143.52 117.93 143.52 117.93 157.82 112.55 157.82 112.55 127.48 107.95 127.48 107.95 159.8 101.83 159.8 101.83 133.93 95.7 133.93 95.7 150.27 90 150.27 90 133.93 83.95 133.93 83.95 154.18 78.34 154.18 78.34 134.08 71.19 134.08 71.19 148.12 65.06 148.12 65.06 129.48 58.93 129.48 58.93 150.9 55.87 150.9 55.87 127.44 48.72 127.44 48.72 140.2 43.61 140.2 43.61 123.91 39.53 123.91 39.53 146.46 34.93 146.46 34.93 126.8 29.32 126.8 29.32 140.59 23.19 140.59 23.19 124.25 19.1 124.25 19.1 143.46 14.51 143.46 14.51 130.69 9.4 130.69 9.4 137.33 5.32 137.33 5.32 125.08 0 125.08"/><polygon class="cls-13" points="180 169.61 174.34 169.61 174.34 137.44 164.63 137.44 164.63 156.84 159.53 156.84 159.53 132.33 152.38 132.33 152.38 169.61 145.23 169.61 145.23 141.01 139.1 141.01 139.1 159.4 132.97 159.4 132.97 132.33 127.36 132.33 127.36 165.52 123.27 165.52 123.27 145.1 117.93 145.1 117.93 159.4 112.55 159.4 112.55 127.48 107.95 127.48 107.95 160.65 101.83 160.65 101.83 136.14 95.7 136.14 95.7 152.48 90 152.48 90 136.14 83.95 136.14 83.95 155.03 78.34 155.03 78.34 135.4 71.19 135.4 71.19 149.44 65.06 149.44 65.06 130.8 58.93 130.8 58.93 152.22 55.87 152.22 55.87 128.76 48.72 128.76 48.72 141.52 43.61 141.52 43.61 123.91 39.53 123.91 39.53 147.65 34.93 147.65 34.93 127.99 29.32 127.99 29.32 141.78 23.19 141.78 23.19 125.44 19.1 125.44 19.1 144.31 14.51 144.31 14.51 131.54 9.4 131.54 9.4 138.18 5.32 138.18 5.32 125.92 0 125.92 0 141.6 114.08 165.78 185.83 224 180 169.61"/><polygon class="cls-1" points="185.83 224 180 261.6 180 321.6 300 321.6 300 0 216.63 96.6 180 111.6 180 169.61 185.83 224"/><polygon class="cls-2" points="180 117.31 181.85 116.95 185.87 111 187.66 110.65 190.01 112.23 191.82 111.88 195.53 106.41 198.13 105.9 205.62 110.78 207.14 110.48 215.53 98.1 218.04 96.82 224.4 97.4 226.35 96.41 233.31 79.65 235.54 78.51 238.22 78.76 240.45 77.62 244.48 67.89 247.09 66.56 252.8 67.05 254.31 66.27 262.59 46.38 265.65 44.8 270.86 45.22 273.37 43.94 280.65 26.45 283.61 24.93 288.73 25.34 290.16 24.62 297.22 7.74 298.66 7 298.66 31.35 300 38.83 300 321.6 180 321.6 180 261.6 185.83 224 180 169.61 180 117.31"/><polygon class="cls-3" points="180 123.01 182.65 122.73 185.86 112.8 188.41 112.52 190.3 116.84 192.88 116.56 195.85 107.45 199.55 107.04 205.54 120.48 207.71 120.25 214.42 99.6 218.12 98.58 223.21 108.58 226.09 107.79 231.66 83.94 234.94 83.03 237.08 87.25 240.36 86.34 243.59 72.49 247.42 71.42 251.98 80.34 254.22 79.72 260.84 51.44 265.33 50.18 269.49 58.26 273.18 57.23 279 32.38 283.35 31.17 287.45 39.12 289.55 38.53 295.2 14.59 297.31 14 297.31 37.92 300 43.91 300 321.6 180 321.6 180 261.6 185.83 224 180 169.61 180 123.01"/><polygon class="cls-4" points="180 128.72 183.44 128.5 185.85 114.6 189.17 114.39 190.58 121.46 193.95 121.25 196.17 108.49 200.97 108.18 205.47 130.19 208.28 130.01 213.32 101.1 218.2 100.33 222.01 119.76 225.83 119.16 230 88.23 234.34 87.55 235.94 95.73 240.27 95.05 242.69 77.09 247.75 76.29 251.17 93.63 254.12 93.16 259.09 56.51 265 55.56 268.13 71.29 272.99 70.52 277.36 38.31 283.1 37.4 286.17 52.89 288.95 52.45 293.19 21.44 295.97 21 295.97 44.49 300 48.98 300 321.6 180 321.6 180 261.6 185.83 224 180 169.61 180 128.72"/><polygon class="cls-5" points="180 134.43 184.24 134.28 185.85 116.4 189.92 116.26 190.87 126.07 195.01 125.93 196.49 109.52 202.39 109.32 205.39 139.89 208.86 139.77 212.21 102.6 218.28 102.09 220.82 130.94 225.56 130.54 228.34 92.52 233.74 92.06 234.81 104.22 240.18 103.77 241.79 81.7 248.08 81.16 250.36 106.92 254.03 106.61 257.34 61.57 264.68 60.94 266.76 84.33 272.81 83.81 275.72 44.24 282.84 43.63 284.89 66.66 288.34 66.37 291.17 28.29 294.62 28 294.62 51.06 300 54.05 300 321.6 180 321.6 180 261.6 185.83 224 180 169.61 180 134.43"/><polygon class="cls-6" points="180 140.13 185.04 140.06 185.84 118.2 190.68 118.13 191.15 130.69 196.07 130.62 196.81 110.56 203.81 110.46 205.31 149.6 209.43 149.54 211.11 104.1 218.35 103.84 219.63 142.12 225.3 141.92 226.69 96.81 233.13 96.58 233.67 112.71 240.09 112.48 240.9 86.3 248.41 86.03 249.55 120.21 253.93 120.06 255.59 66.64 264.36 66.32 265.4 97.36 272.62 97.11 274.08 50.17 282.59 49.87 283.61 80.43 287.74 80.28 289.15 35.15 293.28 35 293.28 57.63 300 59.13 300 321.6 180 321.6 180 261.6 185.83 224 180 169.61 180 140.13"/><polygon class="cls-7" points="180 145.84 185.83 145.84 185.83 120 191.43 120 191.43 135.3 197.13 135.3 197.13 111.6 205.23 111.6 205.23 159.3 210 159.3 210 105.6 218.43 105.6 218.43 153.3 225.03 153.3 225.03 101.1 232.53 101.1 232.53 121.2 240 121.2 240 90.9 248.73 90.9 248.73 133.5 253.83 133.5 253.83 71.7 264.03 71.7 264.03 110.4 272.43 110.4 272.43 56.1 282.33 56.1 282.33 94.2 287.13 94.2 287.13 42 291.93 42 291.93 64.2 300 64.2 300 321.6 180 321.6 180 261.6 185.83 224 180 169.61 180 145.84"/><polygon class="cls-8" points="180 148.41 185.83 148.41 185.83 124.76 191.43 124.76 191.43 139.7 197.13 139.7 197.13 116.56 205.23 116.56 205.23 163.13 210 163.13 210 110.7 218.43 110.7 218.43 157.27 225.03 157.27 225.03 106.31 232.53 106.31 232.53 125.93 240 125.93 240 96.35 248.73 96.35 248.73 137.94 253.83 137.94 253.83 77.6 264.03 77.6 264.03 115.39 272.43 115.39 272.43 62.37 282.33 62.37 282.33 99.57 287.13 99.57 287.13 48.6 291.93 48.6 291.93 70.28 300 70.28 300 450.4 180 450.4 180 261.6 185.83 224 180 169.61 180 148.41"/><polygon class="cls-9" points="180 150.99 185.83 150.99 185.83 129.52 191.43 129.52 191.43 144.09 197.13 144.09 197.13 121.51 205.23 121.51 205.23 166.96 210 166.96 210 115.8 218.43 115.8 218.43 161.25 225.03 161.25 225.03 111.51 232.53 111.51 232.53 130.66 240 130.66 240 101.79 248.73 101.79 248.73 142.38 253.83 142.38 253.83 83.5 264.03 83.5 264.03 120.37 272.43 120.37 272.43 68.63 282.33 68.63 282.33 104.94 287.13 104.94 287.13 55.2 291.93 55.2 291.93 76.35 300 76.35 300 579.2 180 579.2 180 261.6 185.83 224 180 169.61 180 150.99"/><polygon class="cls-10" points="180 153.57 185.83 153.57 185.83 134.28 191.43 134.28 191.43 148.49 197.13 148.49 197.13 126.47 205.23 126.47 205.23 170.79 210 170.79 210 120.9 218.43 120.9 218.43 165.22 225.03 165.22 225.03 116.72 232.53 116.72 232.53 135.39 240 135.39 240 107.24 248.73 107.24 248.73 146.82 253.83 146.82 253.83 89.4 264.03 89.4 264.03 125.36 272.43 125.36 272.43 74.9 282.33 74.9 282.33 110.3 287.13 110.3 287.13 61.8 291.93 61.8 291.93 82.43 300 82.43 300 708 180 708 180 261.6 185.83 224 180 169.61 180 153.57"/><polygon class="cls-11" points="180 156.15 185.83 156.15 185.83 139.03 191.43 139.03 191.43 152.89 197.13 152.89 197.13 131.43 205.23 131.43 205.23 174.62 210 174.62 210 126 218.43 126 218.43 169.19 225.03 169.19 225.03 121.92 232.53 121.92 232.53 140.12 240 140.12 240 112.68 248.73 112.68 248.73 151.26 253.83 151.26 253.83 95.3 264.03 95.3 264.03 130.34 272.43 130.34 272.43 81.17 282.33 81.17 282.33 115.67 287.13 115.67 287.13 68.4 291.93 68.4 291.93 88.5 300 88.5 300 836.8 180 836.8 180 261.6 185.83 224 180 169.61 180 156.15"/><polygon class="cls-12" points="180 158.72 185.83 158.72 185.83 143.79 191.43 143.79 191.43 157.29 197.13 157.29 197.13 136.38 205.23 136.38 205.23 178.46 210 178.46 210 131.09 218.43 131.09 218.43 173.16 225.03 173.16 225.03 127.13 232.53 127.13 232.53 144.85 240 144.85 240 118.13 248.73 118.13 248.73 155.7 253.83 155.7 253.83 101.19 264.03 101.19 264.03 135.33 272.43 135.33 272.43 87.44 282.33 87.44 282.33 121.04 287.13 121.04 287.13 75 291.93 75 291.93 94.58 300 94.58 300 965.6 180 965.6 180 261.6 185.83 224 180 169.61 180 158.72"/><polygon class="cls-13" points="180 161.3 185.83 161.3 185.83 148.55 191.43 148.55 191.43 161.69 197.13 161.69 197.13 141.34 205.23 141.34 205.23 182.29 210 182.29 210 136.19 218.43 136.19 218.43 177.14 225.03 177.14 225.03 132.33 232.53 132.33 232.53 149.58 240 149.58 240 123.57 248.73 123.57 248.73 160.14 253.83 160.14 253.83 107.09 264.03 107.09 264.03 140.31 272.43 140.31 272.43 93.7 282.33 93.7 282.33 126.41 287.13 126.41 287.13 81.6 291.93 81.6 291.93 100.66 300 100.66 300 1094.4 180 1094.4 180 261.6 185.83 224 180 169.61 180 161.3"/><polyline class="cls-14" points="36.78 111.6 0 111.6 0 168.73 2.66 168.73 2.66 115.52 5.22 115.52 5.22 180.08 7.92 180.08 7.92 146.78 12.47 146.78 12.47 117.1 20.71 117.1 20.71 161.34 25.05 161.34 25.05 115.25 29.1 115.25 29.1 154.4 31.8 154.4 31.8 113.99 34.36 113.99 34.36 164.17 36.78 164.17 36.78 111.6"/><polyline class="cls-15" points="36.78 111.6 0 111.6 0 160.01 2.66 160.01 2.66 115.01 5.22 115.01 5.22 169.3 7.92 169.3 7.92 141.35 12.47 141.35 12.47 116.57 20.71 116.57 20.71 153.67 25.05 153.67 25.05 114.96 29.1 114.96 29.1 147.65 31.8 147.65 31.8 113.81 34.36 113.81 34.36 155.93 36.78 155.93 36.78 111.6"/><polyline class="cls-16" points="36.78 111.6 0 111.6 0 151.28 2.66 151.28 2.66 114.49 5.22 114.49 5.22 158.53 7.92 158.53 7.92 135.94 12.47 135.94 12.47 116.04 20.71 116.04 20.71 146 25.05 146 25.05 114.68 29.1 114.68 29.1 140.9 31.8 140.9 31.8 113.64 34.36 113.64 34.36 147.68 36.78 147.68 36.78 111.6"/><polyline class="cls-17" points="36.78 111.6 0 111.6 0 142.56 2.66 142.56 2.66 113.98 5.22 113.98 5.22 147.76 7.92 147.76 7.92 130.51 12.47 130.51 12.47 115.51 20.71 115.51 20.71 138.33 25.05 138.33 25.05 114.39 29.1 114.39 29.1 134.15 31.8 134.15 31.8 113.46 34.36 113.46 34.36 139.44 36.78 139.44 36.78 111.6"/><polyline class="cls-18" points="36.78 111.6 0 111.6 0 133.83 2.66 133.83 2.66 113.47 5.22 113.47 5.22 136.98 7.92 136.98 7.92 125.09 12.47 125.09 12.47 114.98 20.71 114.98 20.71 130.66 25.05 130.66 25.05 114.11 29.1 114.11 29.1 127.39 31.8 127.39 31.8 113.29 34.36 113.29 34.36 131.19 36.78 131.19 36.78 111.6"/><polyline class="cls-19" points="36.78 111.6 0 111.6 0 125.11 2.66 125.11 2.66 112.95 5.22 112.95 5.22 126.21 7.92 126.21 7.92 119.67 12.47 119.67 12.47 114.45 20.71 114.45 20.71 123 25.05 123 25.05 113.82 29.1 113.82 29.1 120.64 31.8 120.64 31.8 113.11 34.36 113.11 34.36 122.95 36.78 122.95 36.78 111.6"/><polyline class="cls-20" points="36.78 111.6 0 111.6 0 116.38 2.66 116.38 2.66 112.44 5.22 112.44 5.22 115.44 7.92 115.44 7.92 114.25 12.47 114.25 12.47 113.92 20.71 113.92 20.71 115.33 25.05 115.33 25.05 113.53 29.1 113.53 29.1 113.89 31.8 113.89 31.8 112.94 34.36 112.94 34.36 114.7 36.78 114.7 36.78 111.6"/><polyline class="cls-14" points="73.56 111.6 36.78 111.6 36.78 153.82 39.44 153.82 39.44 114.5 42 114.5 42 162.2 44.7 162.2 44.7 137.59 49.25 137.59 49.25 115.67 57.49 115.67 57.49 148.35 61.83 148.35 61.83 114.3 65.88 114.3 65.88 143.23 68.58 143.23 68.58 113.37 71.14 113.37 71.14 150.45 73.56 150.45 73.56 111.6"/><polyline class="cls-15" points="73.56 111.6 36.78 111.6 36.78 147.37 39.44 147.37 39.44 114.12 42 114.12 42 154.24 44.7 154.24 44.7 133.59 49.25 133.59 49.25 115.27 57.49 115.27 57.49 142.69 61.83 142.69 61.83 114.08 65.88 114.08 65.88 138.24 68.58 138.24 68.58 113.24 71.14 113.24 71.14 144.36 73.56 144.36 73.56 111.6"/><polyline class="cls-16" points="73.56 111.6 36.78 111.6 36.78 140.93 39.44 140.93 39.44 113.74 42 113.74 42 146.28 44.7 146.28 44.7 129.58 49.25 129.58 49.25 114.88 57.49 114.88 57.49 137.02 61.83 137.02 61.83 113.87 65.88 113.87 65.88 133.25 68.58 133.25 68.58 113.11 71.14 113.11 71.14 138.27 73.56 138.27 73.56 111.6"/><polyline class="cls-17" points="73.56 111.6 36.78 111.6 36.78 134.48 39.44 134.48 39.44 113.36 42 113.36 42 138.32 44.7 138.32 44.7 125.58 49.25 125.58 49.25 114.49 57.49 114.49 57.49 131.35 61.83 131.35 61.83 113.66 65.88 113.66 65.88 128.26 68.58 128.26 68.58 112.98 71.14 112.98 71.14 132.17 73.56 132.17 73.56 111.6"/><polyline class="cls-18" points="73.56 111.6 36.78 111.6 36.78 128.03 39.44 128.03 39.44 112.98 42 112.98 42 130.36 44.7 130.36 44.7 121.57 49.25 121.57 49.25 114.09 57.49 114.09 57.49 125.69 61.83 125.69 61.83 113.45 65.88 113.45 65.88 123.27 68.58 123.27 68.58 112.85 71.14 112.85 71.14 126.08 73.56 126.08 73.56 111.6"/><polyline class="cls-19" points="73.56 111.6 36.78 111.6 36.78 121.58 39.44 121.58 39.44 112.6 42 112.6 42 122.4 44.7 122.4 44.7 117.57 49.25 117.57 49.25 113.7 57.49 113.7 57.49 120.02 61.83 120.02 61.83 113.24 65.88 113.24 65.88 118.28 68.58 118.28 68.58 112.72 71.14 112.72 71.14 119.99 73.56 119.99 73.56 111.6"/><polyline class="cls-20" points="73.56 111.6 36.78 111.6 36.78 115.14 39.44 115.14 39.44 112.22 42 112.22 42 114.44 44.7 114.44 44.7 113.56 49.25 113.56 49.25 113.31 57.49 113.31 57.49 114.36 61.83 114.36 61.83 113.03 65.88 113.03 65.88 113.29 68.58 113.29 68.58 112.59 71.14 112.59 71.14 113.89 73.56 113.89 73.56 111.6"/><polyline class="cls-14" points="116.16 111.6 89.82 111.6 89.82 197.42 91.73 197.42 91.73 117.49 93.56 117.49 93.56 214.46 95.5 214.46 95.5 164.44 98.75 164.44 98.75 119.86 104.66 119.86 104.66 186.31 107.76 186.31 107.76 117.08 110.66 117.08 110.66 175.89 112.6 175.89 112.6 115.19 114.43 115.19 114.43 190.57 116.16 190.57 116.16 111.6"/><polyline class="cls-15" points="116.16 111.6 89.82 111.6 89.82 184.31 91.73 184.31 91.73 116.72 93.56 116.72 93.56 198.28 95.5 198.28 95.5 156.3 98.75 156.3 98.75 119.06 104.66 119.06 104.66 174.79 107.76 174.79 107.76 116.65 110.66 116.65 110.66 165.75 112.6 165.75 112.6 114.93 114.43 114.93 114.43 178.19 116.16 178.19 116.16 111.6"/><polyline class="cls-16" points="116.16 111.6 89.82 111.6 89.82 171.21 91.73 171.21 91.73 115.95 93.56 115.95 93.56 182.09 95.5 182.09 95.5 148.15 98.75 148.15 98.75 118.27 104.66 118.27 104.66 163.27 107.76 163.27 107.76 116.22 110.66 116.22 110.66 155.61 112.6 155.61 112.6 114.66 114.43 114.66 114.43 165.8 116.16 165.8 116.16 111.6"/><polyline class="cls-17" points="116.16 111.6 89.82 111.6 89.82 158.1 91.73 158.1 91.73 115.18 93.56 115.18 93.56 165.91 95.5 165.91 95.5 140.01 98.75 140.01 98.75 117.47 104.66 117.47 104.66 151.75 107.76 151.75 107.76 115.79 110.66 115.79 110.66 145.47 112.6 145.47 112.6 114.4 114.43 114.4 114.43 153.42 116.16 153.42 116.16 111.6"/><polyline class="cls-18" points="116.16 111.6 89.82 111.6 89.82 145 91.73 145 91.73 114.41 93.56 114.41 93.56 149.73 95.5 149.73 95.5 131.87 98.75 131.87 98.75 116.67 104.66 116.67 104.66 140.24 107.76 140.24 107.76 115.36 110.66 115.36 110.66 135.32 112.6 135.32 112.6 114.13 114.43 114.13 114.43 141.03 116.16 141.03 116.16 111.6"/><polyline class="cls-19" points="116.16 111.6 89.82 111.6 89.82 131.89 91.73 131.89 91.73 113.64 93.56 113.64 93.56 133.55 95.5 133.55 95.5 123.73 98.75 123.73 98.75 115.88 104.66 115.88 104.66 128.72 107.76 128.72 107.76 114.93 110.66 114.93 110.66 125.18 112.6 125.18 112.6 113.87 114.43 113.87 114.43 128.65 116.16 128.65 116.16 111.6"/><polyline class="cls-20" points="116.16 111.6 89.82 111.6 89.82 118.78 91.73 118.78 91.73 112.86 93.56 112.86 93.56 117.36 95.5 117.36 95.5 115.59 98.75 115.59 98.75 115.08 104.66 115.08 104.66 117.2 107.76 117.2 107.76 114.51 110.66 114.51 110.66 115.03 112.6 115.03 112.6 113.61 114.43 113.61 114.43 116.26 116.16 116.26 116.16 111.6"/></g></g></svg>