<svg xmlns="http://www.w3.org/2000/svg" viewBox="0 0 4240.6 961"><defs><style>.cls-1{fill:gray;stroke:#000;stroke-miterlimit:10;}</style></defs><title>Limites Plataformas Móveis</title><g id="Layer_2" data-name="Layer 2"><g id="régua"><rect class="cls-1" x="1925.5" y="72.55" width="60" height="5.91"/><rect class="cls-1" x="1985.5" y="72.55" width="60" height="5.91"/><rect class="cls-1" x="2045.5" y="72.55" width="60" height="5.91"/><rect class="cls-1" x="2105.5" y="72.55" width="60" height="5.91"/><rect class="cls-1" x="2165.5" y="72.55" width="60" height="5.91"/><rect class="cls-1" x="2225.5" y="72.55" width="60" height="5.91"/><rect class="cls-1" x="2285.5" y="72.55" width="60" height="5.91"/><rect class="cls-1" x="2345.5" y="72.55" width="60" height="5.91"/><rect class="cls-1" x="2405.5" y="72.55" width="60" height="5.91"/><rect class="cls-1" x="2465.5" y="72.55" width="60" height="5.91"/><rect class="cls-1" x="2525.5" y="72.55" width="60" height="5.91"/><rect class="cls-1" x="-24.5" y="205.5" width="60" height="10" transform="translate(216 205) rotate(90)"/><rect class="cls-1" x="-24.5" y="145.5" width="60" height="10" transform="translate(156 145) rotate(90)"/><rect class="cls-1" x="-24.5" y="85.5" width="60" height="10" transform="translate(96 85) rotate(90)"/><rect class="cls-1" x="-24.5" y="25.5" width="60" height="10" transform="translate(36 25) rotate(90)"/><rect class="cls-1" x="-24.5" y="265.5" width="60" height="10" transform="translate(276 265) rotate(90)"/><rect class="cls-1" x="-24.5" y="325.5" width="60" height="10" transform="translate(336 325) rotate(90)"/><rect class="cls-1" x="-24.5" y="385.5" width="60" height="10" transform="translate(396 385) rotate(90)"/><rect class="cls-1" x="-24.5" y="445.5" width="60" height="10" transform="translate(456 445) rotate(90)"/><rect class="cls-1" x="4205.5" y="505.9" width="60" height="9.2" transform="translate(4746 -3725) rotate(90)"/><rect class="cls-1" x="4205.5" y="445.9" width="60" height="9.2" transform="translate(4686 -3785) rotate(90)"/><rect class="cls-1" x="4205.5" y="385.9" width="60" height="9.2" transform="translate(4626 -3845) rotate(90)"/><rect class="cls-1" x="4205.5" y="325.9" width="60" height="9.2" transform="translate(4566 -3905) rotate(90)"/><rect class="cls-1" x="4205.5" y="565.9" width="60" height="9.2" transform="translate(4806 -3665) rotate(90)"/><rect class="cls-1" x="4205.5" y="625.9" width="60" height="9.2" transform="translate(4866 -3605) rotate(90)"/><rect class="cls-1" x="4205.5" y="685.9" width="60" height="9.2" transform="translate(4926 -3545) rotate(90)"/><rect class="cls-1" x="4205.5" y="745.9" width="60" height="9.2" transform="translate(4986 -3485) rotate(90)"/><rect class="cls-1" x="4205.5" y="805.9" width="60" height="9.2" transform="translate(5046 -3425) rotate(90)"/><rect class="cls-1" x="4205.5" y="865.9" width="60" height="9.2" transform="translate(5106 -3365) rotate(90)"/><rect class="cls-1" x="4205.5" y="925.9" width="60" height="9.2" transform="translate(5166 -3305) rotate(90)"/></g></g></svg>