<svg xmlns="http://www.w3.org/2000/svg" viewBox="0 0 192.2 544.44"><defs><style>.cls-1{fill:#754c24;}.cls-2{fill:#795028;}.cls-3{fill:#7d532b;}.cls-4{fill:#81572f;}.cls-5{fill:#845b32;}.cls-6{fill:#885e35;}.cls-7{fill:#8c6239;}.cls-8{fill:#42210b;}.cls-9{fill:#4e2c13;}.cls-10{fill:#5b371a;}.cls-11{fill:#674222;}.cls-12{fill:#734c2a;}.cls-13{fill:#805731;}.cls-14{opacity:0.53;}.cls-15{fill:#261207;}</style></defs><title>Plataforma Móvel 2</title><g id="Layer_2" data-name="Layer 2"><g id="Plat_Movel_2" data-name="Plat Movel 2"><rect class="cls-1" x="93.6" y="9.22" width="5" height="298.4"/><rect class="cls-2" x="93.6" y="9.22" width="4.58" height="298.4"/><rect class="cls-3" x="93.6" y="9.22" width="4.17" height="298.4"/><rect class="cls-4" x="93.6" y="9.22" width="3.75" height="298.4"/><rect class="cls-5" x="93.6" y="9.22" width="3.33" height="298.4"/><rect class="cls-6" x="93.6" y="9.22" width="2.92" height="298.4"/><rect class="cls-7" x="93.6" y="9.22" width="2.5" height="298.4"/><rect class="cls-8" x="6.1" y="516.89" width="180" height="27.31"/><rect class="cls-9" x="6.1" y="516.89" width="180" height="24.02"/><rect class="cls-10" x="6.1" y="516.89" width="180" height="20.74"/><rect class="cls-11" x="6.1" y="516.89" width="180" height="17.46"/><rect class="cls-12" x="6.1" y="516.89" width="180" height="14.18"/><rect class="cls-13" x="6.1" y="516.89" width="180" height="10.9"/><rect class="cls-7" x="6.1" y="516.89" width="180" height="7.62"/><g class="cls-14"><path class="cls-15" d="M15.7,533.24q12.08-.59,24.15-.78c8-.16,16.1-.2,24.15-.22s16.1.06,24.15.22,16.1.39,24.15.78q-12.08.57-24.15.78c-8.05.16-16.1.2-24.15.22s-16.1-.07-24.15-.23S23.75,533.62,15.7,533.24Z"/></g><g class="cls-14"><path class="cls-15" d="M38.2,543.44q16.69-.59,33.38-.78c11.12-.16,22.25-.2,33.37-.22s22.25.06,33.38.22,22.25.39,33.37.78q-16.68.59-33.37.78c-11.13.16-22.25.2-33.38.22s-22.25-.06-33.37-.22S49.33,543.82,38.2,543.44Z"/></g><g class="cls-14"><path class="cls-15" d="M24.1,527.2q16.69-.57,33.38-.78c11.12-.16,22.25-.2,33.37-.22s22.25.06,33.38.22,22.25.39,33.37.78q-16.68.59-33.37.78c-11.13.16-22.25.2-33.38.22s-22.25-.06-33.37-.22S35.23,527.59,24.1,527.2Z"/></g><g class="cls-14"><path class="cls-15" d="M58.83,536.79q11.86-.59,23.72-.78c7.9-.16,15.81-.2,23.71-.22s15.81.06,23.72.22,15.81.39,23.71.78q-11.85.59-23.71.78c-7.91.16-15.81.2-23.72.22s-15.81-.06-23.71-.22S66.74,537.17,58.83,536.79Z"/></g><polygon class="cls-1" points="192.2 525.44 96.1 299.14 0 525.44 6.1 520.49 96.1 311.74 186.1 520.49 192.2 525.44"/><polygon class="cls-2" points="186.61 520.9 192.2 525.44 96.1 299.14 0 525.44 5.59 520.9 96.1 310.89 186.61 520.9"/><polygon class="cls-3" points="187.12 521.31 192.2 525.44 96.1 299.14 0 525.44 5.08 521.31 96.1 310.04 187.12 521.31"/><polygon class="cls-4" points="187.63 521.73 192.2 525.44 96.1 299.14 0 525.44 4.58 521.73 96.1 309.19 187.63 521.73"/><polygon class="cls-5" points="188.13 522.14 192.2 525.44 96.1 299.14 0 525.44 4.07 522.14 96.1 308.34 188.13 522.14"/><polygon class="cls-6" points="188.64 522.55 192.2 525.44 96.1 299.14 0 525.44 3.56 522.55 96.1 307.49 188.64 522.55"/><polygon class="cls-7" points="192.2 525.44 96.1 299.14 0 525.44 3.05 522.96 96.1 306.64 189.15 522.96 192.2 525.44"/><polygon class="cls-1" points="6.1 538.34 2.17 533.76 0 525.44 6.1 520.49 6.1 538.34"/><polygon class="cls-2" points="5.59 521.64 6.1 538.34 2.17 533.76 0.14 525.99 5.59 521.64"/><polygon class="cls-3" points="5.08 522.79 6.1 538.34 2.17 533.76 0.29 526.53 5.08 522.79"/><polygon class="cls-4" points="4.58 523.94 6.1 538.34 2.17 533.76 0.43 527.08 4.58 523.94"/><polygon class="cls-5" points="4.07 525.09 6.1 538.34 2.17 533.76 0.57 527.63 4.07 525.09"/><polygon class="cls-6" points="3.56 526.24 6.1 538.34 2.17 533.76 0.71 528.17 3.56 526.24"/><polygon class="cls-7" points="6.1 538.34 2.17 533.76 0.86 528.72 3.05 527.39 6.1 538.34"/><polygon class="cls-1" points="186.1 538.34 190.03 533.76 192.2 525.44 186.1 520.49 186.1 538.34"/><polygon class="cls-2" points="186.61 521.64 186.1 538.34 190.03 533.76 192.06 525.99 186.61 521.64"/><polygon class="cls-3" points="187.12 522.79 186.1 538.34 190.03 533.76 191.91 526.53 187.12 522.79"/><polygon class="cls-4" points="187.63 523.94 186.1 538.34 190.03 533.76 191.77 527.08 187.63 523.94"/><polygon class="cls-5" points="188.13 525.09 186.1 538.34 190.03 533.76 191.63 527.63 188.13 525.09"/><polygon class="cls-6" points="188.64 526.24 186.1 538.34 190.03 533.76 191.49 528.17 188.64 526.24"/><polygon class="cls-7" points="186.1 538.34 190.03 533.76 191.34 528.72 189.15 527.39 186.1 538.34"/><polygon class="cls-1" points="91.8 297.34 88.5 307.54 96.1 317.89 103.5 308.89 101.1 299.14 91.8 297.34"/><polygon class="cls-2" points="88.89 307.42 95.96 317.32 103.1 308.34 100.84 299.58 92.05 297.88 88.89 307.42"/><polygon class="cls-3" points="89.28 307.29 95.83 316.74 102.7 307.79 100.58 300.02 92.3 298.42 89.28 307.29"/><polygon class="cls-4" points="89.66 307.17 95.69 316.17 102.3 307.24 100.31 300.45 92.55 298.95 89.66 307.17"/><polygon class="cls-5" points="90.05 307.04 95.55 315.59 101.9 306.69 100.05 300.89 92.8 299.49 90.05 307.04"/><polygon class="cls-6" points="90.44 306.92 95.41 315.02 101.5 306.14 99.79 301.33 93.05 300.03 90.44 306.92"/><polygon class="cls-7" points="93.3 300.57 90.83 306.79 95.28 314.44 101.1 305.59 99.53 301.77 93.3 300.57"/><polygon class="cls-1" points="94.74 316.04 98.38 298.62 93.6 297.69 91.94 312.23 94.74 316.04"/><polygon class="cls-2" points="98 298.54 93.6 297.69 91.94 312.23 94.53 315.75 98 298.54"/><polygon class="cls-3" points="97.62 298.47 93.6 297.69 91.94 312.23 94.31 315.45 97.62 298.47"/><polygon class="cls-4" points="97.24 298.39 93.6 297.69 91.94 312.23 94.09 315.15 97.24 298.39"/><polygon class="cls-5" points="96.86 298.32 93.6 297.69 91.94 312.23 93.87 314.86 96.86 298.32"/><polygon class="cls-6" points="96.48 298.25 93.6 297.69 91.94 312.23 93.65 314.56 96.48 298.25"/><polygon class="cls-7" points="93.44 314.26 96.1 298.17 93.6 297.69 91.94 312.23 93.44 314.26"/><polygon class="cls-1" points="90.03 302.82 98.56 314.95 101.81 310.86 91.17 299.31 90.03 302.82"/><polygon class="cls-2" points="98.85 314.58 101.82 310.87 91.17 299.31 90.17 302.39 98.85 314.58"/><polygon class="cls-3" points="99.14 314.21 101.82 310.87 91.17 299.31 90.31 301.96 99.14 314.21"/><polygon class="cls-4" points="99.43 313.85 101.83 310.88 91.17 299.31 90.45 301.53 99.43 313.85"/><polygon class="cls-5" points="99.73 313.48 101.83 310.89 91.17 299.31 90.59 301.1 99.73 313.48"/><polygon class="cls-6" points="100.02 313.11 101.84 310.89 91.17 299.31 90.72 300.66 100.02 313.11"/><polygon class="cls-7" points="90.86 300.23 100.31 312.74 101.85 310.9 91.17 299.31 90.86 300.23"/><polygon class="cls-1" points="91.8 0 88.5 10.2 96.1 20.55 103.5 11.55 101.1 1.8 91.8 0"/><polygon class="cls-2" points="88.89 10.07 95.96 19.98 103.1 11 100.84 2.24 92.05 0.54 88.89 10.07"/><polygon class="cls-3" points="89.28 9.95 95.83 19.4 102.7 10.45 100.58 2.67 92.3 1.07 89.28 9.95"/><polygon class="cls-4" points="89.66 9.82 95.69 18.82 102.3 9.9 100.31 3.11 92.55 1.61 89.66 9.82"/><polygon class="cls-5" points="90.05 9.7 95.55 18.25 101.9 9.35 100.05 3.55 92.8 2.15 90.05 9.7"/><polygon class="cls-6" points="90.44 9.57 95.41 17.68 101.5 8.8 99.79 3.99 93.05 2.69 90.44 9.57"/><polygon class="cls-7" points="93.3 3.23 90.83 9.45 95.28 17.1 101.1 8.25 99.53 4.42 93.3 3.23"/><polygon class="cls-1" points="94.74 18.7 98.38 1.27 93.6 0.35 91.94 14.88 94.74 18.7"/><polygon class="cls-2" points="98 1.2 93.6 0.35 91.94 14.88 94.53 18.41 98 1.2"/><polygon class="cls-3" points="97.62 1.13 93.6 0.35 91.94 14.88 94.31 18.11 97.62 1.13"/><polygon class="cls-4" points="97.24 1.05 93.6 0.35 91.94 14.88 94.09 17.81 97.24 1.05"/><polygon class="cls-5" points="96.86 0.98 93.6 0.35 91.94 14.88 93.87 17.52 96.86 0.98"/><polygon class="cls-6" points="96.48 0.91 93.6 0.35 91.94 14.88 93.65 17.22 96.48 0.91"/><polygon class="cls-7" points="93.44 16.92 96.1 0.83 93.6 0.35 91.94 14.88 93.44 16.92"/><polygon class="cls-1" points="90.03 5.48 98.56 17.61 101.81 13.52 91.17 1.96 90.03 5.48"/><polygon class="cls-2" points="98.85 17.24 101.82 13.53 91.17 1.96 90.17 5.05 98.85 17.24"/><polygon class="cls-3" points="99.14 16.87 101.82 13.53 91.17 1.96 90.31 4.62 99.14 16.87"/><polygon class="cls-4" points="99.43 16.5 101.83 13.54 91.17 1.96 90.45 4.19 99.43 16.5"/><polygon class="cls-5" points="99.73 16.14 101.83 13.55 91.17 1.96 90.59 3.75 99.73 16.14"/><polygon class="cls-6" points="100.02 15.77 101.84 13.55 91.17 1.96 90.72 3.32 100.02 15.77"/><polygon class="cls-7" points="90.86 2.89 100.31 15.4 101.85 13.56 91.17 1.96 90.86 2.89"/></g></g></svg>