<svg xmlns="http://www.w3.org/2000/svg" viewBox="0 0 35.77 302.05"><defs><style>.cls-1{fill:none;stroke:#332b16;stroke-miterlimit:10;}.cls-2{fill:#63564b;}.cls-3{fill:#746558;}.cls-4{fill:#847565;}.cls-5{fill:#958472;}.cls-6{fill:#a6937f;}.cls-7{fill:#b6a38c;}.cls-8{fill:#c7b299;}.cls-9{fill:#fcee21;}.cls-10{fill:#c1272d;}.cls-11{fill:#006837;}.cls-12{fill:#301610;}.cls-13{fill:#2c140e;}.cls-14{fill:#27120d;}.cls-15{fill:#23100c;}.cls-16{fill:#1f0e0a;}.cls-17{fill:#1a0c09;}.cls-18{fill:#160a07;}.cls-19{fill:#3a1c12;}</style></defs><title>arco0</title><g id="Layer_2" data-name="Layer 2"><g id="Layer_18" data-name="Layer 18"><line class="cls-1" x1="4.57" y1="2.7" x2="4.57" y2="298.9"/><path class="cls-2" d="M35,120.54s-3.54-37.7-5.85-46.8c0,0-3.36-23.16-6.56-31.9S8.4,3.27,8.4,3.27,3.76-.63,1.2.09,21.76,36.57,25.26,65.27,29,120.45,29,120.45l2.93,2.41Z"/><path class="cls-3" d="M34.8,120.58s-3.34-37.74-5.65-46.84c0,0-3.36-23.16-6.56-31.9S8.4,3.27,8.4,3.27,4.05-.53,1.54.11C-.61.66,22,36.4,25.47,65.1s4,55.54,4,55.54l2.48,2.22Z"/><path class="cls-4" d="M34.6,120.62s-3.14-37.78-5.45-46.88c0,0-3.36-23.16-6.56-31.9S8.4,3.27,8.4,3.27,4.35-.42,1.88.14C.15.53,22.17,36.23,25.67,64.93s4.24,55.91,4.24,55.91l2,2Z"/><path class="cls-5" d="M34.39,120.66s-2.93-37.82-5.24-46.92c0,0-3.36-23.16-6.56-31.9S8.4,3.27,8.4,3.27,4.65-.32,2.22.16C.91.42,22.38,36.06,25.88,64.76S30.37,121,30.37,121l1.57,1.83Z"/><path class="cls-6" d="M34.19,120.7s-2.73-37.86-5-47c0,0-3.36-23.16-6.56-31.9S8.4,3.27,8.4,3.27,5-.22,2.56.18c-.88.15,20,35.71,23.53,64.4s4.73,56.64,4.73,56.64l1.12,1.64Z"/><path class="cls-7" d="M34,120.74s-2.53-37.9-4.84-47c0,0-3.36-23.16-6.56-31.9S8.4,3.27,8.4,3.27,5.27-.11,2.9.21c-.44.06,19.9,35.51,23.4,64.2s5,57,5,57l.67,1.44Z"/><path class="cls-8" d="M33.79,120.78s-2.33-37.94-4.64-47c0,0-3.36-23.16-6.56-31.9S8.4,3.27,8.4,3.27,5.6.39,3.24.23c0,0,19.77,35.32,23.27,64s5.22,57.37,5.22,57.37l.21,1.25Z"/><polygon class="cls-9" points="19.17 45.02 16.84 46.88 13.39 47.79 16.72 48.72 19.75 47.98 21.13 43.34 19.63 42.88 19.17 45.02"/><polygon class="cls-10" points="23.1 42.54 23.96 44.23 25.32 45.19 29.25 45.98 25.16 47.42 22.76 46.61 21.61 43.43 23.1 42.54"/><polygon class="cls-11" points="22.08 42.8 21.21 42.76 20.28 46.87 21.45 48.02 20.77 50.76 23.88 47.92 23.75 46.03 22.51 44.43 22.08 42.8"/><rect class="cls-12" x="18.31" y="34.58" width="4.17" height="10.1" rx="0.55" transform="translate(-12.3 9.34) rotate(-19.95)"/><rect class="cls-13" x="18.85" y="34.49" width="3.61" height="10.1" rx="0.53" transform="translate(-12.25 9.42) rotate(-19.95)"/><rect class="cls-14" x="19.4" y="34.39" width="3.05" height="10.1" rx="0.5" transform="translate(-12.2 9.5) rotate(-19.95)"/><rect class="cls-15" x="19.94" y="34.3" width="2.48" height="10.1" rx="0.48" transform="translate(-12.15 9.59) rotate(-19.95)"/><rect class="cls-16" x="20.48" y="34.2" width="1.92" height="10.1" rx="0.45" transform="translate(-12.11 9.67) rotate(-19.95)"/><rect class="cls-17" x="21.03" y="34.1" width="1.36" height="10.1" rx="0.43" transform="translate(-12.06 9.76) rotate(-19.95)"/><rect class="cls-18" x="21.57" y="34.01" width="0.8" height="10.1" rx="0.4" transform="translate(-12.01 9.84) rotate(-19.95)"/><path class="cls-2" d="M34,181.5s-3.54,37.71-5.85,46.81c0,0-3.36,23.16-6.56,31.89S7.4,298.78,7.4,298.78,2.76,302.68.2,302s20.56-36.49,24.06-65.18S28,181.6,28,181.6l2.93-2.41Z"/><path class="cls-3" d="M33.8,181.46s-3.34,37.75-5.65,46.85c0,0-3.36,23.16-6.56,31.89S7.4,298.78,7.4,298.78s-4.35,3.79-6.86,3.15c-2.15-.54,20.42-36.29,23.93-65s4-55.55,4-55.55l2.48-2.21Z"/><path class="cls-4" d="M33.6,181.42s-3.14,37.79-5.45,46.89c0,0-3.36,23.16-6.56,31.89S7.4,298.78,7.4,298.78s-4.05,3.69-6.52,3.13c-1.73-.39,20.29-36.1,23.79-64.79s4.24-55.91,4.24-55.91l2-2Z"/><path class="cls-5" d="M33.39,181.38s-2.93,37.83-5.24,46.93c0,0-3.36,23.16-6.56,31.89S7.4,298.78,7.4,298.78s-3.75,3.58-6.18,3.11c-1.31-.26,20.16-35.91,23.66-64.6S29.37,181,29.37,181l1.57-1.83Z"/><path class="cls-6" d="M33.19,181.35s-2.73,37.86-5,47c0,0-3.36,23.16-6.56,31.89S7.4,298.78,7.4,298.78,4,302.26,1.56,301.86c-.88-.14,20-35.7,23.53-64.4s4.73-56.64,4.73-56.64l1.12-1.63Z"/><path class="cls-7" d="M33,181.31s-2.53,37.9-4.84,47c0,0-3.36,23.16-6.56,31.89S7.4,298.78,7.4,298.78s-3.13,3.38-5.5,3.06c-.44-.06,19.9-35.51,23.4-64.21s5-57,5-57l.67-1.44Z"/><path class="cls-8" d="M32.79,181.27s-2.33,37.94-4.64,47c0,0-3.36,23.16-6.56,31.89S7.4,298.78,7.4,298.78s-2.8,2.87-5.16,3c0,0,19.77-35.32,23.27-64s5.22-57.36,5.22-57.36l.21-1.25Z"/><polygon class="cls-9" points="18.17 257.02 15.84 255.16 12.39 254.26 15.72 253.32 18.75 254.06 20.13 258.71 18.63 259.17 18.17 257.02"/><polygon class="cls-10" points="22.1 259.51 22.96 257.81 24.32 256.85 28.25 256.07 24.16 254.62 21.76 255.43 20.61 258.62 22.1 259.51"/><polygon class="cls-11" points="21.08 259.24 20.21 259.29 19.28 255.18 20.45 254.03 19.77 251.29 22.88 254.12 22.75 256.02 21.51 257.62 21.08 259.24"/><rect class="cls-12" x="14.34" y="260.33" width="10.1" height="4.17" rx="0.55" transform="translate(-233.89 191.11) rotate(-70.05)"/><rect class="cls-13" x="14.61" y="260.71" width="10.1" height="3.61" rx="0.53" transform="translate(-233.81 191.42) rotate(-70.05)"/><rect class="cls-14" x="14.87" y="261.08" width="10.1" height="3.05" rx="0.5" transform="translate(-233.72 191.73) rotate(-70.05)"/><rect class="cls-15" x="15.13" y="261.46" width="10.1" height="2.48" rx="0.48" transform="matrix(0.34, -0.94, 0.94, 0.34, -233.64, 192.04)"/><rect class="cls-16" x="15.4" y="261.83" width="10.1" height="1.92" rx="0.45" transform="translate(-233.56 192.35) rotate(-70.05)"/><rect class="cls-17" x="15.66" y="262.21" width="10.1" height="1.36" rx="0.43" transform="translate(-233.47 192.66) rotate(-70.05)"/><rect class="cls-18" x="15.92" y="262.59" width="10.1" height="0.8" rx="0.4" transform="translate(-233.39 192.97) rotate(-70.05)"/><rect class="cls-8" x="0.63" y="147.78" width="62.16" height="6.34" transform="translate(-119.71 180.34) rotate(-89.12)"/><rect class="cls-7" x="1.08" y="148.23" width="62.16" height="5.45" transform="translate(-119.27 180.79) rotate(-89.12)"/><rect class="cls-6" x="1.53" y="148.69" width="62.16" height="4.55" transform="translate(-118.84 181.25) rotate(-89.12)"/><rect class="cls-5" x="1.97" y="149.14" width="62.16" height="3.66" transform="translate(-118.41 181.7) rotate(-89.12)"/><rect class="cls-4" x="2.42" y="149.6" width="62.16" height="2.76" transform="translate(-117.97 182.16) rotate(-89.12)"/><rect class="cls-3" x="2.87" y="150.05" width="62.16" height="1.87" transform="translate(-117.54 182.61) rotate(-89.12)"/><rect class="cls-2" x="3.32" y="150.51" width="62.16" height="0.97" transform="translate(-117.1 183.07) rotate(-89.12)"/><polygon class="cls-19" points="34.42 182.07 28.16 174.43 28.22 170.68 34.71 163.21 34.64 167.86 30.65 172.46 34.49 177.16 34.42 182.07"/><polygon class="cls-19" points="34.71 163.21 28.45 155.57 28.51 151.81 35 144.34 34.93 149 30.94 153.6 34.78 158.29 34.71 163.21"/><polygon class="cls-19" points="35 144.34 28.74 136.7 28.8 132.95 35.29 125.48 35.22 130.13 31.23 134.73 35.08 139.43 35 144.34"/><rect class="cls-12" x="24.58" y="172.76" width="13.47" height="7.16" rx="0.55" transform="translate(-145.48 204.95) rotate(-89.12)"/><rect class="cls-13" x="25.07" y="173.25" width="13.47" height="6.19" rx="0.57" transform="translate(-145.01 205.44) rotate(-89.12)"/><rect class="cls-14" x="25.55" y="173.74" width="13.47" height="5.23" rx="0.58" transform="translate(-144.55 205.93) rotate(-89.12)"/><rect class="cls-15" x="26.03" y="174.23" width="13.47" height="4.27" rx="0.6" transform="translate(-144.08 206.42) rotate(-89.12)"/><rect class="cls-16" x="26.51" y="174.72" width="13.47" height="3.3" rx="0.62" transform="translate(-143.61 206.91) rotate(-89.12)"/><rect class="cls-17" x="26.99" y="175.21" width="13.47" height="2.34" rx="0.63" transform="translate(-143.15 207.4) rotate(-89.12)"/><rect class="cls-18" x="27.47" y="175.7" width="13.47" height="1.38" rx="0.65" transform="translate(-142.68 207.89) rotate(-89.12)"/><rect class="cls-12" x="25.36" y="122.5" width="13.47" height="7.16" rx="0.55" transform="translate(-94.47 156.24) rotate(-89.12)"/><rect class="cls-13" x="25.84" y="122.99" width="13.47" height="6.19" rx="0.57" transform="translate(-94 156.73) rotate(-89.12)"/><rect class="cls-14" x="26.32" y="123.48" width="13.47" height="5.23" rx="0.58" transform="translate(-93.53 157.21) rotate(-89.12)"/><rect class="cls-15" x="26.8" y="123.97" width="13.47" height="4.27" rx="0.6" transform="translate(-93.07 157.7) rotate(-89.12)"/><rect class="cls-16" x="27.28" y="124.46" width="13.47" height="3.3" rx="0.62" transform="translate(-92.6 158.19) rotate(-89.12)"/><rect class="cls-17" x="27.76" y="124.95" width="13.47" height="2.34" rx="0.63" transform="translate(-92.13 158.68) rotate(-89.12)"/><rect class="cls-18" x="28.25" y="125.44" width="13.47" height="1.38" rx="0.65" transform="translate(-91.67 159.17) rotate(-89.12)"/></g></g></svg>