<svg xmlns="http://www.w3.org/2000/svg" viewBox="0 0 56.85 40.15"><defs><style>.cls-1{fill:#381f0b;}.cls-2{fill:#8c6239;}.cls-3{fill:#c69c6d;}.cls-4{fill:#754c24;}.cls-5{fill:#603813;}.cls-6{fill:#673f19;}.cls-7{fill:#6f4620;}.cls-8{fill:#764d26;}.cls-9{fill:#7d542c;}.cls-10{fill:#855b33;}.cls-11{fill:#593412;}.cls-12{fill:#533010;}.cls-13{fill:#4c2c0f;}.cls-14{fill:#45270e;}.cls-15{fill:#3f230c;}.cls-16,.cls-18{fill:none;}.cls-17{fill:#c1272d;}.cls-18{stroke:#fff;stroke-linecap:round;stroke-miterlimit:10;stroke-width:0.25px;}.cls-19{font-size:1.78px;fill:#fff;font-family:GloriaHallelujah, Gloria Hallelujah;}.cls-20{opacity:0.6;}.cls-21{opacity:0.02;}.cls-22{opacity:0.12;}.cls-23{opacity:0.21;}.cls-24{opacity:0.31;}.cls-25{opacity:0.41;}.cls-26{opacity:0.5;}</style></defs><title>Asset 270</title><g id="Layer_2" data-name="Layer 2"><g id="Layer_18" data-name="Layer 18"><rect class="cls-1" x="10" width="46.85" height="40.15"/><rect class="cls-2" width="46.85" height="40.15"/><rect class="cls-3" y="22.73" width="56.85" height="11.53"/><rect class="cls-4" x="2.51" y="34.26" width="1.59" height="5.89"/><rect class="cls-4" x="5.03" y="34.26" width="1.59" height="5.89"/><rect class="cls-4" x="7.54" y="34.26" width="1.59" height="5.89"/><rect class="cls-4" x="10.06" y="34.26" width="1.59" height="5.89"/><rect class="cls-4" x="12.57" y="34.26" width="1.59" height="5.89"/><rect class="cls-4" x="15.09" y="34.26" width="1.59" height="5.89"/><rect class="cls-4" x="17.6" y="34.26" width="1.59" height="5.89"/><rect class="cls-4" x="20.12" y="34.26" width="1.59" height="5.89"/><rect class="cls-4" x="22.63" y="34.26" width="1.59" height="5.89"/><rect class="cls-4" x="25.15" y="34.26" width="1.59" height="5.89"/><rect class="cls-4" x="27.66" y="34.26" width="1.59" height="5.89"/><rect class="cls-4" x="30.18" y="34.26" width="1.59" height="5.89"/><rect class="cls-4" x="32.69" y="34.26" width="1.59" height="5.89"/><rect class="cls-4" x="35.21" y="34.26" width="1.59" height="5.89"/><rect class="cls-4" x="37.72" y="34.26" width="1.59" height="5.89"/><rect class="cls-4" x="40.24" y="34.26" width="1.59" height="5.89"/><rect class="cls-4" x="42.75" y="34.26" width="1.59" height="5.89"/><rect class="cls-4" x="45.27" y="34.26" width="1.59" height="5.89"/><rect class="cls-5" y="34.26" width="1.59" height="5.89"/><rect class="cls-6" x="0.07" y="34.26" width="1.44" height="5.89"/><rect class="cls-7" x="0.15" y="34.26" width="1.29" height="5.89"/><rect class="cls-8" x="0.22" y="34.26" width="1.15" height="5.89"/><rect class="cls-9" x="0.29" y="34.26" width="1" height="5.89"/><rect class="cls-10" x="0.36" y="34.26" width="0.86" height="5.89"/><rect class="cls-2" x="0.44" y="34.26" width="0.71" height="5.89"/><rect class="cls-5" x="1.59" y="34.26" width="0.93" height="5.89"/><rect class="cls-11" x="1.63" y="34.26" width="0.84" height="5.89"/><rect class="cls-12" x="1.67" y="34.26" width="0.76" height="5.89"/><rect class="cls-13" x="1.71" y="34.26" width="0.67" height="5.89"/><rect class="cls-14" x="1.76" y="34.26" width="0.59" height="5.89"/><rect class="cls-15" x="1.8" y="34.26" width="0.5" height="5.89"/><rect class="cls-1" x="1.84" y="34.26" width="0.42" height="5.89"/><rect class="cls-5" x="4.1" y="34.26" width="0.93" height="5.89"/><rect class="cls-11" x="4.14" y="34.26" width="0.84" height="5.89"/><rect class="cls-12" x="4.19" y="34.26" width="0.76" height="5.89"/><rect class="cls-13" x="4.23" y="34.26" width="0.67" height="5.89"/><rect class="cls-14" x="4.27" y="34.26" width="0.59" height="5.89"/><rect class="cls-15" x="4.31" y="34.26" width="0.5" height="5.89"/><rect class="cls-1" x="4.36" y="34.26" width="0.42" height="5.89"/><rect class="cls-5" x="6.62" y="34.26" width="0.93" height="5.89"/><rect class="cls-11" x="6.66" y="34.26" width="0.84" height="5.89"/><rect class="cls-12" x="6.7" y="34.26" width="0.76" height="5.89"/><rect class="cls-13" x="6.74" y="34.26" width="0.67" height="5.89"/><rect class="cls-14" x="6.79" y="34.26" width="0.59" height="5.89"/><rect class="cls-15" x="6.83" y="34.26" width="0.5" height="5.89"/><rect class="cls-1" x="6.87" y="34.26" width="0.42" height="5.89"/><rect class="cls-5" x="9.13" y="34.26" width="0.93" height="5.89"/><rect class="cls-11" x="9.17" y="34.26" width="0.84" height="5.89"/><rect class="cls-12" x="9.22" y="34.26" width="0.76" height="5.89"/><rect class="cls-13" x="9.26" y="34.26" width="0.67" height="5.89"/><rect class="cls-14" x="9.3" y="34.26" width="0.59" height="5.89"/><rect class="cls-15" x="9.34" y="34.26" width="0.5" height="5.89"/><rect class="cls-1" x="9.39" y="34.26" width="0.42" height="5.89"/><rect class="cls-5" x="11.65" y="34.26" width="0.93" height="5.89"/><rect class="cls-11" x="11.69" y="34.26" width="0.84" height="5.89"/><rect class="cls-12" x="11.73" y="34.26" width="0.76" height="5.89"/><rect class="cls-13" x="11.77" y="34.26" width="0.67" height="5.89"/><rect class="cls-14" x="11.82" y="34.26" width="0.59" height="5.89"/><rect class="cls-15" x="11.86" y="34.26" width="0.5" height="5.89"/><rect class="cls-1" x="11.9" y="34.26" width="0.42" height="5.89"/><rect class="cls-5" x="14.16" y="34.26" width="0.93" height="5.89"/><rect class="cls-11" x="14.2" y="34.26" width="0.84" height="5.89"/><rect class="cls-12" x="14.25" y="34.26" width="0.76" height="5.89"/><rect class="cls-13" x="14.29" y="34.26" width="0.67" height="5.89"/><rect class="cls-14" x="14.33" y="34.26" width="0.59" height="5.89"/><rect class="cls-15" x="14.37" y="34.26" width="0.5" height="5.89"/><rect class="cls-1" x="14.42" y="34.26" width="0.42" height="5.89"/><rect class="cls-5" x="16.68" y="34.26" width="0.93" height="5.89"/><rect class="cls-11" x="16.72" y="34.26" width="0.84" height="5.89"/><rect class="cls-12" x="16.76" y="34.26" width="0.76" height="5.89"/><rect class="cls-13" x="16.8" y="34.26" width="0.67" height="5.89"/><rect class="cls-14" x="16.85" y="34.26" width="0.59" height="5.89"/><rect class="cls-15" x="16.89" y="34.26" width="0.5" height="5.89"/><rect class="cls-1" x="16.93" y="34.26" width="0.42" height="5.89"/><rect class="cls-5" x="19.19" y="34.26" width="0.93" height="5.89"/><rect class="cls-11" x="19.23" y="34.26" width="0.84" height="5.89"/><rect class="cls-12" x="19.28" y="34.26" width="0.76" height="5.89"/><rect class="cls-13" x="19.32" y="34.26" width="0.67" height="5.89"/><rect class="cls-14" x="19.36" y="34.26" width="0.59" height="5.89"/><rect class="cls-15" x="19.4" y="34.26" width="0.5" height="5.89"/><rect class="cls-1" x="19.45" y="34.26" width="0.42" height="5.89"/><rect class="cls-5" x="21.71" y="34.26" width="0.93" height="5.89"/><rect class="cls-11" x="21.75" y="34.26" width="0.84" height="5.89"/><rect class="cls-12" x="21.79" y="34.26" width="0.76" height="5.89"/><rect class="cls-13" x="21.83" y="34.26" width="0.67" height="5.89"/><rect class="cls-14" x="21.88" y="34.26" width="0.59" height="5.89"/><rect class="cls-15" x="21.92" y="34.26" width="0.5" height="5.89"/><rect class="cls-1" x="21.96" y="34.26" width="0.42" height="5.89"/><rect class="cls-5" x="24.22" y="34.26" width="0.93" height="5.89"/><rect class="cls-11" x="24.26" y="34.26" width="0.84" height="5.89"/><rect class="cls-12" x="24.31" y="34.26" width="0.76" height="5.89"/><rect class="cls-13" x="24.35" y="34.26" width="0.67" height="5.89"/><rect class="cls-14" x="24.39" y="34.26" width="0.59" height="5.89"/><rect class="cls-15" x="24.43" y="34.26" width="0.5" height="5.89"/><rect class="cls-1" x="24.48" y="34.26" width="0.42" height="5.89"/><rect class="cls-5" x="26.74" y="34.26" width="0.93" height="5.89"/><rect class="cls-11" x="26.78" y="34.26" width="0.84" height="5.89"/><rect class="cls-12" x="26.82" y="34.26" width="0.76" height="5.89"/><rect class="cls-13" x="26.86" y="34.26" width="0.67" height="5.89"/><rect class="cls-14" x="26.91" y="34.26" width="0.59" height="5.89"/><rect class="cls-15" x="26.95" y="34.26" width="0.5" height="5.89"/><rect class="cls-1" x="26.99" y="34.26" width="0.42" height="5.89"/><rect class="cls-5" x="29.25" y="34.26" width="0.93" height="5.89"/><rect class="cls-11" x="29.29" y="34.26" width="0.84" height="5.89"/><rect class="cls-12" x="29.34" y="34.26" width="0.76" height="5.89"/><rect class="cls-13" x="29.38" y="34.26" width="0.67" height="5.89"/><rect class="cls-14" x="29.42" y="34.26" width="0.59" height="5.89"/><rect class="cls-15" x="29.46" y="34.26" width="0.5" height="5.89"/><rect class="cls-1" x="29.51" y="34.26" width="0.42" height="5.89"/><rect class="cls-5" x="31.76" y="34.26" width="0.93" height="5.89"/><rect class="cls-11" x="31.81" y="34.26" width="0.84" height="5.89"/><rect class="cls-12" x="31.85" y="34.26" width="0.76" height="5.89"/><rect class="cls-13" x="31.89" y="34.26" width="0.67" height="5.89"/><rect class="cls-14" x="31.94" y="34.26" width="0.59" height="5.89"/><rect class="cls-15" x="31.98" y="34.26" width="0.5" height="5.89"/><rect class="cls-1" x="32.02" y="34.26" width="0.42" height="5.89"/><rect class="cls-5" x="34.28" y="34.26" width="0.93" height="5.89"/><rect class="cls-11" x="34.32" y="34.26" width="0.84" height="5.89"/><rect class="cls-12" x="34.37" y="34.26" width="0.76" height="5.89"/><rect class="cls-13" x="34.41" y="34.26" width="0.67" height="5.89"/><rect class="cls-14" x="34.45" y="34.26" width="0.59" height="5.89"/><rect class="cls-15" x="34.49" y="34.26" width="0.5" height="5.89"/><rect class="cls-1" x="34.54" y="34.26" width="0.42" height="5.89"/><rect class="cls-5" x="36.79" y="34.26" width="0.93" height="5.89"/><rect class="cls-11" x="36.84" y="34.26" width="0.84" height="5.89"/><rect class="cls-12" x="36.88" y="34.26" width="0.76" height="5.89"/><rect class="cls-13" x="36.92" y="34.26" width="0.67" height="5.89"/><rect class="cls-14" x="36.97" y="34.26" width="0.59" height="5.89"/><rect class="cls-15" x="37.01" y="34.26" width="0.5" height="5.89"/><rect class="cls-1" x="37.05" y="34.26" width="0.42" height="5.89"/><rect class="cls-5" x="39.31" y="34.26" width="0.93" height="5.89"/><rect class="cls-11" x="39.35" y="34.26" width="0.84" height="5.89"/><rect class="cls-12" x="39.39" y="34.26" width="0.76" height="5.89"/><rect class="cls-13" x="39.44" y="34.26" width="0.67" height="5.89"/><rect class="cls-14" x="39.48" y="34.26" width="0.59" height="5.89"/><rect class="cls-15" x="39.52" y="34.26" width="0.5" height="5.89"/><rect class="cls-1" x="39.57" y="34.26" width="0.42" height="5.89"/><rect class="cls-5" x="41.82" y="34.26" width="0.93" height="5.89"/><rect class="cls-11" x="41.87" y="34.26" width="0.84" height="5.89"/><rect class="cls-12" x="41.91" y="34.26" width="0.76" height="5.89"/><rect class="cls-13" x="41.95" y="34.26" width="0.67" height="5.89"/><rect class="cls-14" x="42" y="34.26" width="0.59" height="5.89"/><rect class="cls-15" x="42.04" y="34.26" width="0.5" height="5.89"/><rect class="cls-1" x="42.08" y="34.26" width="0.42" height="5.89"/><rect class="cls-5" x="44.34" y="34.26" width="0.93" height="5.89"/><rect class="cls-11" x="44.38" y="34.26" width="0.84" height="5.89"/><rect class="cls-12" x="44.42" y="34.26" width="0.76" height="5.89"/><rect class="cls-13" x="44.47" y="34.26" width="0.67" height="5.89"/><rect class="cls-14" x="44.51" y="34.26" width="0.59" height="5.89"/><rect class="cls-15" x="44.55" y="34.26" width="0.5" height="5.89"/><rect class="cls-1" x="44.6" y="34.26" width="0.42" height="5.89"/><rect class="cls-5" x="2.51" y="34.26" width="1.59" height="5.89"/><rect class="cls-6" x="2.59" y="34.26" width="1.44" height="5.89"/><rect class="cls-7" x="2.66" y="34.26" width="1.29" height="5.89"/><rect class="cls-8" x="2.73" y="34.26" width="1.15" height="5.89"/><rect class="cls-9" x="2.81" y="34.26" width="1" height="5.89"/><rect class="cls-10" x="2.88" y="34.26" width="0.86" height="5.89"/><rect class="cls-2" x="2.95" y="34.26" width="0.71" height="5.89"/><rect class="cls-5" x="5.03" y="34.26" width="1.59" height="5.89"/><rect class="cls-6" x="5.1" y="34.26" width="1.44" height="5.89"/><rect class="cls-7" x="5.18" y="34.26" width="1.29" height="5.89"/><rect class="cls-8" x="5.25" y="34.26" width="1.15" height="5.89"/><rect class="cls-9" x="5.32" y="34.26" width="1" height="5.89"/><rect class="cls-10" x="5.39" y="34.26" width="0.86" height="5.89"/><rect class="cls-2" x="5.47" y="34.26" width="0.71" height="5.89"/><rect class="cls-5" x="7.54" y="34.26" width="1.59" height="5.89"/><rect class="cls-6" x="7.62" y="34.26" width="1.44" height="5.89"/><rect class="cls-7" x="7.69" y="34.26" width="1.29" height="5.89"/><rect class="cls-8" x="7.76" y="34.26" width="1.15" height="5.89"/><rect class="cls-9" x="7.84" y="34.26" width="1" height="5.89"/><rect class="cls-10" x="7.91" y="34.26" width="0.86" height="5.89"/><rect class="cls-2" x="7.98" y="34.26" width="0.71" height="5.89"/><rect class="cls-5" x="10.06" y="34.26" width="1.59" height="5.89"/><rect class="cls-6" x="10.13" y="34.26" width="1.44" height="5.89"/><rect class="cls-7" x="10.21" y="34.26" width="1.29" height="5.89"/><rect class="cls-8" x="10.28" y="34.26" width="1.15" height="5.89"/><rect class="cls-9" x="10.35" y="34.26" width="1" height="5.89"/><rect class="cls-10" x="10.42" y="34.26" width="0.86" height="5.89"/><rect class="cls-2" x="10.5" y="34.26" width="0.71" height="5.89"/><rect class="cls-5" x="12.57" y="34.26" width="1.59" height="5.89"/><rect class="cls-6" x="12.65" y="34.26" width="1.44" height="5.89"/><rect class="cls-7" x="12.72" y="34.26" width="1.29" height="5.89"/><rect class="cls-8" x="12.79" y="34.26" width="1.15" height="5.89"/><rect class="cls-9" x="12.87" y="34.26" width="1" height="5.89"/><rect class="cls-10" x="12.94" y="34.26" width="0.86" height="5.89"/><rect class="cls-2" x="13.01" y="34.26" width="0.71" height="5.89"/><rect class="cls-5" x="15.09" y="34.26" width="1.59" height="5.89"/><rect class="cls-6" x="15.16" y="34.26" width="1.44" height="5.89"/><rect class="cls-7" x="15.24" y="34.26" width="1.29" height="5.89"/><rect class="cls-8" x="15.31" y="34.26" width="1.15" height="5.89"/><rect class="cls-9" x="15.38" y="34.26" width="1" height="5.89"/><rect class="cls-10" x="15.45" y="34.26" width="0.86" height="5.89"/><rect class="cls-2" x="15.53" y="34.26" width="0.71" height="5.89"/><rect class="cls-5" x="17.6" y="34.26" width="1.59" height="5.89"/><rect class="cls-6" x="17.68" y="34.26" width="1.44" height="5.89"/><rect class="cls-7" x="17.75" y="34.26" width="1.29" height="5.89"/><rect class="cls-8" x="17.82" y="34.26" width="1.15" height="5.89"/><rect class="cls-9" x="17.9" y="34.26" width="1" height="5.89"/><rect class="cls-10" x="17.97" y="34.26" width="0.86" height="5.89"/><rect class="cls-2" x="18.04" y="34.26" width="0.71" height="5.89"/><rect class="cls-5" x="20.12" y="34.26" width="1.59" height="5.89"/><rect class="cls-6" x="20.19" y="34.26" width="1.44" height="5.89"/><rect class="cls-7" x="20.26" y="34.26" width="1.29" height="5.89"/><rect class="cls-8" x="20.34" y="34.26" width="1.15" height="5.89"/><rect class="cls-9" x="20.41" y="34.26" width="1" height="5.89"/><rect class="cls-10" x="20.48" y="34.26" width="0.86" height="5.89"/><rect class="cls-2" x="20.56" y="34.26" width="0.71" height="5.89"/><rect class="cls-5" x="22.63" y="34.26" width="1.59" height="5.89"/><rect class="cls-6" x="22.71" y="34.26" width="1.44" height="5.89"/><rect class="cls-7" x="22.78" y="34.26" width="1.29" height="5.89"/><rect class="cls-8" x="22.85" y="34.26" width="1.15" height="5.89"/><rect class="cls-9" x="22.93" y="34.26" width="1" height="5.89"/><rect class="cls-10" x="23" y="34.26" width="0.86" height="5.89"/><rect class="cls-2" x="23.07" y="34.26" width="0.71" height="5.89"/><rect class="cls-5" x="25.15" y="34.26" width="1.59" height="5.89"/><rect class="cls-6" x="25.22" y="34.26" width="1.44" height="5.89"/><rect class="cls-7" x="25.29" y="34.26" width="1.29" height="5.89"/><rect class="cls-8" x="25.37" y="34.26" width="1.15" height="5.89"/><rect class="cls-9" x="25.44" y="34.26" width="1" height="5.89"/><rect class="cls-10" x="25.51" y="34.26" width="0.86" height="5.89"/><rect class="cls-2" x="25.59" y="34.26" width="0.71" height="5.89"/><rect class="cls-5" x="27.66" y="34.26" width="1.59" height="5.89"/><rect class="cls-6" x="27.74" y="34.26" width="1.44" height="5.89"/><rect class="cls-7" x="27.81" y="34.26" width="1.29" height="5.89"/><rect class="cls-8" x="27.88" y="34.26" width="1.15" height="5.89"/><rect class="cls-9" x="27.96" y="34.26" width="1" height="5.89"/><rect class="cls-10" x="28.03" y="34.26" width="0.86" height="5.89"/><rect class="cls-2" x="28.1" y="34.26" width="0.71" height="5.89"/><rect class="cls-5" x="30.18" y="34.26" width="1.59" height="5.89"/><rect class="cls-6" x="30.25" y="34.26" width="1.44" height="5.89"/><rect class="cls-7" x="30.32" y="34.26" width="1.29" height="5.89"/><rect class="cls-8" x="30.4" y="34.26" width="1.15" height="5.89"/><rect class="cls-9" x="30.47" y="34.26" width="1" height="5.89"/><rect class="cls-10" x="30.54" y="34.26" width="0.86" height="5.89"/><rect class="cls-2" x="30.62" y="34.26" width="0.71" height="5.89"/><rect class="cls-5" x="32.69" y="34.26" width="1.59" height="5.89"/><rect class="cls-6" x="32.77" y="34.26" width="1.44" height="5.89"/><rect class="cls-7" x="32.84" y="34.26" width="1.29" height="5.89"/><rect class="cls-8" x="32.91" y="34.26" width="1.15" height="5.89"/><rect class="cls-9" x="32.99" y="34.26" width="1" height="5.89"/><rect class="cls-10" x="33.06" y="34.26" width="0.86" height="5.89"/><rect class="cls-2" x="33.13" y="34.26" width="0.71" height="5.89"/><rect class="cls-5" x="35.21" y="34.26" width="1.59" height="5.89"/><rect class="cls-6" x="35.28" y="34.26" width="1.44" height="5.89"/><rect class="cls-7" x="35.35" y="34.26" width="1.29" height="5.89"/><rect class="cls-8" x="35.43" y="34.26" width="1.15" height="5.89"/><rect class="cls-9" x="35.5" y="34.26" width="1" height="5.89"/><rect class="cls-10" x="35.57" y="34.26" width="0.86" height="5.89"/><rect class="cls-2" x="35.65" y="34.26" width="0.71" height="5.89"/><rect class="cls-5" x="37.72" y="34.26" width="1.59" height="5.89"/><rect class="cls-6" x="37.8" y="34.26" width="1.44" height="5.89"/><rect class="cls-7" x="37.87" y="34.26" width="1.29" height="5.89"/><rect class="cls-8" x="37.94" y="34.26" width="1.15" height="5.89"/><rect class="cls-9" x="38.02" y="34.26" width="1" height="5.89"/><rect class="cls-10" x="38.09" y="34.26" width="0.86" height="5.89"/><rect class="cls-2" x="38.16" y="34.26" width="0.71" height="5.89"/><rect class="cls-5" x="40.24" y="34.26" width="1.59" height="5.89"/><rect class="cls-6" x="40.31" y="34.26" width="1.44" height="5.89"/><rect class="cls-7" x="40.38" y="34.26" width="1.29" height="5.89"/><rect class="cls-8" x="40.46" y="34.26" width="1.15" height="5.89"/><rect class="cls-9" x="40.53" y="34.26" width="1" height="5.89"/><rect class="cls-10" x="40.6" y="34.26" width="0.86" height="5.89"/><rect class="cls-2" x="40.68" y="34.26" width="0.71" height="5.89"/><rect class="cls-5" x="42.75" y="34.26" width="1.59" height="5.89"/><rect class="cls-6" x="42.83" y="34.26" width="1.44" height="5.89"/><rect class="cls-7" x="42.9" y="34.26" width="1.29" height="5.89"/><rect class="cls-8" x="42.97" y="34.26" width="1.15" height="5.89"/><rect class="cls-9" x="43.04" y="34.26" width="1" height="5.89"/><rect class="cls-10" x="43.12" y="34.26" width="0.86" height="5.89"/><rect class="cls-2" x="43.19" y="34.26" width="0.71" height="5.89"/><rect class="cls-5" x="45.27" y="34.26" width="1.59" height="5.89"/><rect class="cls-6" x="45.34" y="34.26" width="1.44" height="5.89"/><rect class="cls-7" x="45.41" y="34.26" width="1.29" height="5.89"/><rect class="cls-8" x="45.49" y="34.26" width="1.15" height="5.89"/><rect class="cls-9" x="45.56" y="34.26" width="1" height="5.89"/><rect class="cls-10" x="45.63" y="34.26" width="0.86" height="5.89"/><rect class="cls-2" x="45.71" y="34.26" width="0.71" height="5.89"/><rect class="cls-4" x="47.37" width="1.59" height="22.73"/><rect class="cls-4" x="49.88" width="1.59" height="22.73"/><rect class="cls-4" x="52.4" width="1.59" height="22.73"/><rect class="cls-4" x="54.91" width="1.59" height="22.73"/><rect class="cls-5" x="44.85" width="1.59" height="22.73"/><rect class="cls-6" x="44.93" width="1.44" height="22.73"/><rect class="cls-7" x="45" width="1.29" height="22.73"/><rect class="cls-8" x="45.07" width="1.15" height="22.73"/><rect class="cls-9" x="45.15" width="1" height="22.73"/><rect class="cls-10" x="45.22" width="0.86" height="22.73"/><rect class="cls-2" x="45.29" width="0.71" height="22.73"/><rect class="cls-5" x="46.44" width="0.93" height="22.73"/><rect class="cls-11" x="46.48" width="0.84" height="22.73"/><rect class="cls-12" x="46.53" width="0.76" height="22.73"/><rect class="cls-13" x="46.57" width="0.67" height="22.73"/><rect class="cls-14" x="46.61" width="0.59" height="22.73"/><rect class="cls-15" x="46.65" width="0.5" height="22.73"/><rect class="cls-1" x="46.7" width="0.42" height="22.73"/><rect class="cls-5" x="48.96" width="0.93" height="22.73"/><rect class="cls-11" x="49" width="0.84" height="22.73"/><rect class="cls-12" x="49.04" width="0.76" height="22.73"/><rect class="cls-13" x="49.08" width="0.67" height="22.73"/><rect class="cls-14" x="49.13" width="0.59" height="22.73"/><rect class="cls-15" x="49.17" width="0.5" height="22.73"/><rect class="cls-1" x="49.21" width="0.42" height="22.73"/><rect class="cls-5" x="51.47" width="0.93" height="22.73"/><rect class="cls-11" x="51.51" width="0.84" height="22.73"/><rect class="cls-12" x="51.56" width="0.76" height="22.73"/><rect class="cls-13" x="51.6" width="0.67" height="22.73"/><rect class="cls-14" x="51.64" width="0.59" height="22.73"/><rect class="cls-15" x="51.68" width="0.5" height="22.73"/><rect class="cls-1" x="51.73" width="0.42" height="22.73"/><rect class="cls-5" x="53.99" width="0.93" height="22.73"/><rect class="cls-11" x="54.03" width="0.84" height="22.73"/><rect class="cls-12" x="54.07" width="0.76" height="22.73"/><rect class="cls-13" x="54.11" width="0.67" height="22.73"/><rect class="cls-14" x="54.16" width="0.59" height="22.73"/><rect class="cls-15" x="54.2" width="0.5" height="22.73"/><rect class="cls-1" x="54.24" width="0.42" height="22.73"/><rect class="cls-5" x="56.5" width="0.35" height="22.73"/><rect class="cls-11" x="56.52" width="0.32" height="22.73"/><rect class="cls-12" x="56.53" width="0.29" height="22.73"/><rect class="cls-13" x="56.55" width="0.26" height="22.73"/><rect class="cls-14" x="56.57" width="0.22" height="22.73"/><rect class="cls-15" x="56.58" width="0.19" height="22.73"/><rect class="cls-1" x="56.6" width="0.16" height="22.73"/><rect class="cls-5" x="47.37" width="1.59" height="22.73"/><rect class="cls-6" x="47.44" width="1.44" height="22.73"/><rect class="cls-7" x="47.51" width="1.29" height="22.73"/><rect class="cls-8" x="47.59" width="1.15" height="22.73"/><rect class="cls-9" x="47.66" width="1" height="22.73"/><rect class="cls-10" x="47.73" width="0.86" height="22.73"/><rect class="cls-2" x="47.81" width="0.71" height="22.73"/><rect class="cls-5" x="49.88" width="1.59" height="22.73"/><rect class="cls-6" x="49.96" width="1.44" height="22.73"/><rect class="cls-7" x="50.03" width="1.29" height="22.73"/><rect class="cls-8" x="50.1" width="1.15" height="22.73"/><rect class="cls-9" x="50.18" width="1" height="22.73"/><rect class="cls-10" x="50.25" width="0.86" height="22.73"/><rect class="cls-2" x="50.32" width="0.71" height="22.73"/><rect class="cls-5" x="52.4" width="1.59" height="22.73"/><rect class="cls-6" x="52.47" width="1.44" height="22.73"/><rect class="cls-7" x="52.54" width="1.29" height="22.73"/><rect class="cls-8" x="52.62" width="1.15" height="22.73"/><rect class="cls-9" x="52.69" width="1" height="22.73"/><rect class="cls-10" x="52.76" width="0.86" height="22.73"/><rect class="cls-2" x="52.84" width="0.71" height="22.73"/><rect class="cls-5" x="54.91" width="1.59" height="22.73"/><rect class="cls-6" x="54.99" width="1.44" height="22.73"/><rect class="cls-7" x="55.06" width="1.29" height="22.73"/><rect class="cls-8" x="55.13" width="1.15" height="22.73"/><rect class="cls-9" x="55.21" width="1" height="22.73"/><rect class="cls-10" x="55.28" width="0.86" height="22.73"/><rect class="cls-2" x="55.35" width="0.71" height="22.73"/><rect class="cls-4" x="47.37" y="34.26" width="1.59" height="5.89"/><rect class="cls-4" x="49.88" y="34.26" width="1.59" height="5.89"/><rect class="cls-4" x="52.4" y="34.26" width="1.59" height="5.89"/><rect class="cls-4" x="54.91" y="34.26" width="1.59" height="5.89"/><rect class="cls-5" x="44.85" y="34.26" width="1.59" height="5.89"/><rect class="cls-6" x="44.93" y="34.26" width="1.44" height="5.89"/><rect class="cls-7" x="45" y="34.26" width="1.29" height="5.89"/><rect class="cls-8" x="45.07" y="34.26" width="1.15" height="5.89"/><rect class="cls-9" x="45.15" y="34.26" width="1" height="5.89"/><rect class="cls-10" x="45.22" y="34.26" width="0.86" height="5.89"/><rect class="cls-2" x="45.29" y="34.26" width="0.71" height="5.89"/><rect class="cls-5" x="46.44" y="34.26" width="0.93" height="5.89"/><rect class="cls-11" x="46.48" y="34.26" width="0.84" height="5.89"/><rect class="cls-12" x="46.53" y="34.26" width="0.76" height="5.89"/><rect class="cls-13" x="46.57" y="34.26" width="0.67" height="5.89"/><rect class="cls-14" x="46.61" y="34.26" width="0.59" height="5.89"/><rect class="cls-15" x="46.65" y="34.26" width="0.5" height="5.89"/><rect class="cls-1" x="46.7" y="34.26" width="0.42" height="5.89"/><rect class="cls-5" x="48.96" y="34.26" width="0.93" height="5.89"/><rect class="cls-11" x="49" y="34.26" width="0.84" height="5.89"/><rect class="cls-12" x="49.04" y="34.26" width="0.76" height="5.89"/><rect class="cls-13" x="49.08" y="34.26" width="0.67" height="5.89"/><rect class="cls-14" x="49.13" y="34.26" width="0.59" height="5.89"/><rect class="cls-15" x="49.17" y="34.26" width="0.5" height="5.89"/><rect class="cls-1" x="49.21" y="34.26" width="0.42" height="5.89"/><rect class="cls-5" x="51.47" y="34.26" width="0.93" height="5.89"/><rect class="cls-11" x="51.51" y="34.26" width="0.84" height="5.89"/><rect class="cls-12" x="51.56" y="34.26" width="0.76" height="5.89"/><rect class="cls-13" x="51.6" y="34.26" width="0.67" height="5.89"/><rect class="cls-14" x="51.64" y="34.26" width="0.59" height="5.89"/><rect class="cls-15" x="51.68" y="34.26" width="0.5" height="5.89"/><rect class="cls-1" x="51.73" y="34.26" width="0.42" height="5.89"/><rect class="cls-5" x="53.99" y="34.26" width="0.93" height="5.89"/><rect class="cls-11" x="54.03" y="34.26" width="0.84" height="5.89"/><rect class="cls-12" x="54.07" y="34.26" width="0.76" height="5.89"/><rect class="cls-13" x="54.11" y="34.26" width="0.67" height="5.89"/><rect class="cls-14" x="54.16" y="34.26" width="0.59" height="5.89"/><rect class="cls-15" x="54.2" y="34.26" width="0.5" height="5.89"/><rect class="cls-1" x="54.24" y="34.26" width="0.42" height="5.89"/><rect class="cls-5" x="56.5" y="34.26" width="0.35" height="5.89"/><rect class="cls-11" x="56.52" y="34.26" width="0.32" height="5.89"/><rect class="cls-12" x="56.53" y="34.26" width="0.29" height="5.89"/><rect class="cls-13" x="56.55" y="34.26" width="0.26" height="5.89"/><rect class="cls-14" x="56.57" y="34.26" width="0.22" height="5.89"/><rect class="cls-15" x="56.58" y="34.26" width="0.19" height="5.89"/><rect class="cls-1" x="56.6" y="34.26" width="0.16" height="5.89"/><rect class="cls-5" x="47.37" y="34.26" width="1.59" height="5.89"/><rect class="cls-6" x="47.44" y="34.26" width="1.44" height="5.89"/><rect class="cls-7" x="47.51" y="34.26" width="1.29" height="5.89"/><rect class="cls-8" x="47.59" y="34.26" width="1.15" height="5.89"/><rect class="cls-9" x="47.66" y="34.26" width="1" height="5.89"/><rect class="cls-10" x="47.73" y="34.26" width="0.86" height="5.89"/><rect class="cls-2" x="47.81" y="34.26" width="0.71" height="5.89"/><rect class="cls-5" x="49.88" y="34.26" width="1.59" height="5.89"/><rect class="cls-6" x="49.96" y="34.26" width="1.44" height="5.89"/><rect class="cls-7" x="50.03" y="34.26" width="1.29" height="5.89"/><rect class="cls-8" x="50.1" y="34.26" width="1.15" height="5.89"/><rect class="cls-9" x="50.18" y="34.26" width="1" height="5.89"/><rect class="cls-10" x="50.25" y="34.26" width="0.86" height="5.89"/><rect class="cls-2" x="50.32" y="34.26" width="0.71" height="5.89"/><rect class="cls-5" x="52.4" y="34.26" width="1.59" height="5.89"/><rect class="cls-6" x="52.47" y="34.26" width="1.44" height="5.89"/><rect class="cls-7" x="52.54" y="34.26" width="1.29" height="5.89"/><rect class="cls-8" x="52.62" y="34.26" width="1.15" height="5.89"/><rect class="cls-9" x="52.69" y="34.26" width="1" height="5.89"/><rect class="cls-10" x="52.76" y="34.26" width="0.86" height="5.89"/><rect class="cls-2" x="52.84" y="34.26" width="0.71" height="5.89"/><rect class="cls-5" x="54.91" y="34.26" width="1.59" height="5.89"/><rect class="cls-6" x="54.99" y="34.26" width="1.44" height="5.89"/><rect class="cls-7" x="55.06" y="34.26" width="1.29" height="5.89"/><rect class="cls-8" x="55.13" y="34.26" width="1.15" height="5.89"/><rect class="cls-9" x="55.21" y="34.26" width="1" height="5.89"/><rect class="cls-10" x="55.28" y="34.26" width="0.86" height="5.89"/><rect class="cls-2" x="55.35" y="34.26" width="0.71" height="5.89"/><rect class="cls-16" x="10" width="46.85" height="40.15"/><rect class="cls-4" x="2.51" width="1.59" height="22.73"/><rect class="cls-4" x="5.03" width="1.59" height="22.73"/><rect class="cls-4" x="7.54" width="1.59" height="22.73"/><rect class="cls-4" x="10.06" width="1.59" height="22.73"/><rect class="cls-4" x="12.57" width="1.59" height="22.73"/><rect class="cls-4" x="15.09" width="1.59" height="22.73"/><rect class="cls-4" x="17.6" width="1.59" height="22.73"/><rect class="cls-4" x="20.12" width="1.59" height="22.73"/><rect class="cls-4" x="22.63" width="1.59" height="22.73"/><rect class="cls-4" x="25.15" width="1.59" height="22.73"/><rect class="cls-4" x="27.66" width="1.59" height="22.73"/><rect class="cls-4" x="30.18" width="1.59" height="22.73"/><rect class="cls-4" x="32.69" width="1.59" height="22.73"/><rect class="cls-4" x="35.21" width="1.59" height="22.73"/><rect class="cls-4" x="37.72" width="1.59" height="22.73"/><rect class="cls-4" x="40.24" width="1.59" height="22.73"/><rect class="cls-4" x="42.75" width="1.59" height="22.73"/><rect class="cls-4" x="45.27" width="1.59" height="22.73"/><rect class="cls-5" width="1.59" height="22.73"/><rect class="cls-6" x="0.07" width="1.44" height="22.73"/><rect class="cls-7" x="0.15" width="1.29" height="22.73"/><rect class="cls-8" x="0.22" width="1.15" height="22.73"/><rect class="cls-9" x="0.29" width="1" height="22.73"/><rect class="cls-10" x="0.36" width="0.86" height="22.73"/><rect class="cls-2" x="0.44" width="0.71" height="22.73"/><rect class="cls-5" x="1.59" width="0.93" height="22.73"/><rect class="cls-11" x="1.63" width="0.84" height="22.73"/><rect class="cls-12" x="1.67" width="0.76" height="22.73"/><rect class="cls-13" x="1.71" width="0.67" height="22.73"/><rect class="cls-14" x="1.76" width="0.59" height="22.73"/><rect class="cls-15" x="1.8" width="0.5" height="22.73"/><rect class="cls-1" x="1.84" width="0.42" height="22.73"/><rect class="cls-5" x="4.1" width="0.93" height="22.73"/><rect class="cls-11" x="4.14" width="0.84" height="22.73"/><rect class="cls-12" x="4.19" width="0.76" height="22.73"/><rect class="cls-13" x="4.23" width="0.67" height="22.73"/><rect class="cls-14" x="4.27" width="0.59" height="22.73"/><rect class="cls-15" x="4.31" width="0.5" height="22.73"/><rect class="cls-1" x="4.36" width="0.42" height="22.73"/><rect class="cls-5" x="6.62" width="0.93" height="22.73"/><rect class="cls-11" x="6.66" width="0.84" height="22.73"/><rect class="cls-12" x="6.7" width="0.76" height="22.73"/><rect class="cls-13" x="6.74" width="0.67" height="22.73"/><rect class="cls-14" x="6.79" width="0.59" height="22.73"/><rect class="cls-15" x="6.83" width="0.5" height="22.73"/><rect class="cls-1" x="6.87" width="0.42" height="22.73"/><rect class="cls-5" x="9.13" width="0.93" height="22.73"/><rect class="cls-11" x="9.17" width="0.84" height="22.73"/><rect class="cls-12" x="9.22" width="0.76" height="22.73"/><rect class="cls-13" x="9.26" width="0.67" height="22.73"/><rect class="cls-14" x="9.3" width="0.59" height="22.73"/><rect class="cls-15" x="9.34" width="0.5" height="22.73"/><rect class="cls-1" x="9.39" width="0.42" height="22.73"/><rect class="cls-5" x="11.65" width="0.93" height="22.73"/><rect class="cls-11" x="11.69" width="0.84" height="22.73"/><rect class="cls-12" x="11.73" width="0.76" height="22.73"/><rect class="cls-13" x="11.77" width="0.67" height="22.73"/><rect class="cls-14" x="11.82" width="0.59" height="22.73"/><rect class="cls-15" x="11.86" width="0.5" height="22.73"/><rect class="cls-1" x="11.9" width="0.42" height="22.73"/><rect class="cls-5" x="14.16" width="0.93" height="22.73"/><rect class="cls-11" x="14.2" width="0.84" height="22.73"/><rect class="cls-12" x="14.25" width="0.76" height="22.73"/><rect class="cls-13" x="14.29" width="0.67" height="22.73"/><rect class="cls-14" x="14.33" width="0.59" height="22.73"/><rect class="cls-15" x="14.37" width="0.5" height="22.73"/><rect class="cls-1" x="14.42" width="0.42" height="22.73"/><rect class="cls-5" x="16.68" width="0.93" height="22.73"/><rect class="cls-11" x="16.72" width="0.84" height="22.73"/><rect class="cls-12" x="16.76" width="0.76" height="22.73"/><rect class="cls-13" x="16.8" width="0.67" height="22.73"/><rect class="cls-14" x="16.85" width="0.59" height="22.73"/><rect class="cls-15" x="16.89" width="0.5" height="22.73"/><rect class="cls-1" x="16.93" width="0.42" height="22.73"/><rect class="cls-5" x="19.19" width="0.93" height="22.73"/><rect class="cls-11" x="19.23" width="0.84" height="22.73"/><rect class="cls-12" x="19.28" width="0.76" height="22.73"/><rect class="cls-13" x="19.32" width="0.67" height="22.73"/><rect class="cls-14" x="19.36" width="0.59" height="22.73"/><rect class="cls-15" x="19.4" width="0.5" height="22.73"/><rect class="cls-1" x="19.45" width="0.42" height="22.73"/><rect class="cls-5" x="21.71" width="0.93" height="22.73"/><rect class="cls-11" x="21.75" width="0.84" height="22.73"/><rect class="cls-12" x="21.79" width="0.76" height="22.73"/><rect class="cls-13" x="21.83" width="0.67" height="22.73"/><rect class="cls-14" x="21.88" width="0.59" height="22.73"/><rect class="cls-15" x="21.92" width="0.5" height="22.73"/><rect class="cls-1" x="21.96" width="0.42" height="22.73"/><rect class="cls-5" x="24.22" width="0.93" height="22.73"/><rect class="cls-11" x="24.26" width="0.84" height="22.73"/><rect class="cls-12" x="24.31" width="0.76" height="22.73"/><rect class="cls-13" x="24.35" width="0.67" height="22.73"/><rect class="cls-14" x="24.39" width="0.59" height="22.73"/><rect class="cls-15" x="24.43" width="0.5" height="22.73"/><rect class="cls-1" x="24.48" width="0.42" height="22.73"/><rect class="cls-5" x="26.74" width="0.93" height="22.73"/><rect class="cls-11" x="26.78" width="0.84" height="22.73"/><rect class="cls-12" x="26.82" width="0.76" height="22.73"/><rect class="cls-13" x="26.86" width="0.67" height="22.73"/><rect class="cls-14" x="26.91" width="0.59" height="22.73"/><rect class="cls-15" x="26.95" width="0.5" height="22.73"/><rect class="cls-1" x="26.99" width="0.42" height="22.73"/><rect class="cls-5" x="29.25" width="0.93" height="22.73"/><rect class="cls-11" x="29.29" width="0.84" height="22.73"/><rect class="cls-12" x="29.34" width="0.76" height="22.73"/><rect class="cls-13" x="29.38" width="0.67" height="22.73"/><rect class="cls-14" x="29.42" width="0.59" height="22.73"/><rect class="cls-15" x="29.46" width="0.5" height="22.73"/><rect class="cls-1" x="29.51" width="0.42" height="22.73"/><rect class="cls-5" x="31.76" width="0.93" height="22.73"/><rect class="cls-11" x="31.81" width="0.84" height="22.73"/><rect class="cls-12" x="31.85" width="0.76" height="22.73"/><rect class="cls-13" x="31.89" width="0.67" height="22.73"/><rect class="cls-14" x="31.94" width="0.59" height="22.73"/><rect class="cls-15" x="31.98" width="0.5" height="22.73"/><rect class="cls-1" x="32.02" width="0.42" height="22.73"/><rect class="cls-5" x="34.28" width="0.93" height="22.73"/><rect class="cls-11" x="34.32" width="0.84" height="22.73"/><rect class="cls-12" x="34.37" width="0.76" height="22.73"/><rect class="cls-13" x="34.41" width="0.67" height="22.73"/><rect class="cls-14" x="34.45" width="0.59" height="22.73"/><rect class="cls-15" x="34.49" width="0.5" height="22.73"/><rect class="cls-1" x="34.54" width="0.42" height="22.73"/><rect class="cls-5" x="36.79" width="0.93" height="22.73"/><rect class="cls-11" x="36.84" width="0.84" height="22.73"/><rect class="cls-12" x="36.88" width="0.76" height="22.73"/><rect class="cls-13" x="36.92" width="0.67" height="22.73"/><rect class="cls-14" x="36.97" width="0.59" height="22.73"/><rect class="cls-15" x="37.01" width="0.5" height="22.73"/><rect class="cls-1" x="37.05" width="0.42" height="22.73"/><rect class="cls-5" x="39.31" width="0.93" height="22.73"/><rect class="cls-11" x="39.35" width="0.84" height="22.73"/><rect class="cls-12" x="39.39" width="0.76" height="22.73"/><rect class="cls-13" x="39.44" width="0.67" height="22.73"/><rect class="cls-14" x="39.48" width="0.59" height="22.73"/><rect class="cls-15" x="39.52" width="0.5" height="22.73"/><rect class="cls-1" x="39.57" width="0.42" height="22.73"/><rect class="cls-5" x="41.82" width="0.93" height="22.73"/><rect class="cls-11" x="41.87" width="0.84" height="22.73"/><rect class="cls-12" x="41.91" width="0.76" height="22.73"/><rect class="cls-13" x="41.95" width="0.67" height="22.73"/><rect class="cls-14" x="42" width="0.59" height="22.73"/><rect class="cls-15" x="42.04" width="0.5" height="22.73"/><rect class="cls-1" x="42.08" width="0.42" height="22.73"/><rect class="cls-5" x="44.34" width="0.93" height="22.73"/><rect class="cls-11" x="44.38" width="0.84" height="22.73"/><rect class="cls-12" x="44.42" width="0.76" height="22.73"/><rect class="cls-13" x="44.47" width="0.67" height="22.73"/><rect class="cls-14" x="44.51" width="0.59" height="22.73"/><rect class="cls-15" x="44.55" width="0.5" height="22.73"/><rect class="cls-1" x="44.6" width="0.42" height="22.73"/><rect class="cls-5" x="2.51" width="1.59" height="22.73"/><rect class="cls-6" x="2.59" width="1.44" height="22.73"/><rect class="cls-7" x="2.66" width="1.29" height="22.73"/><rect class="cls-8" x="2.73" width="1.15" height="22.73"/><rect class="cls-9" x="2.81" width="1" height="22.73"/><rect class="cls-10" x="2.88" width="0.86" height="22.73"/><rect class="cls-2" x="2.95" width="0.71" height="22.73"/><rect class="cls-5" x="5.03" width="1.59" height="22.73"/><rect class="cls-6" x="5.1" width="1.44" height="22.73"/><rect class="cls-7" x="5.18" width="1.29" height="22.73"/><rect class="cls-8" x="5.25" width="1.15" height="22.73"/><rect class="cls-9" x="5.32" width="1" height="22.73"/><rect class="cls-10" x="5.39" width="0.86" height="22.73"/><rect class="cls-2" x="5.47" width="0.71" height="22.73"/><rect class="cls-5" x="7.54" width="1.59" height="22.73"/><rect class="cls-6" x="7.62" width="1.44" height="22.73"/><rect class="cls-7" x="7.69" width="1.29" height="22.73"/><rect class="cls-8" x="7.76" width="1.15" height="22.73"/><rect class="cls-9" x="7.84" width="1" height="22.73"/><rect class="cls-10" x="7.91" width="0.86" height="22.73"/><rect class="cls-2" x="7.98" width="0.71" height="22.73"/><rect class="cls-5" x="10.06" width="1.59" height="22.73"/><rect class="cls-6" x="10.13" width="1.44" height="22.73"/><rect class="cls-7" x="10.21" width="1.29" height="22.73"/><rect class="cls-8" x="10.28" width="1.15" height="22.73"/><rect class="cls-9" x="10.35" width="1" height="22.73"/><rect class="cls-10" x="10.42" width="0.86" height="22.73"/><rect class="cls-2" x="10.5" width="0.71" height="22.73"/><rect class="cls-5" x="12.57" width="1.59" height="22.73"/><rect class="cls-6" x="12.65" width="1.44" height="22.73"/><rect class="cls-7" x="12.72" width="1.29" height="22.73"/><rect class="cls-8" x="12.79" width="1.15" height="22.73"/><rect class="cls-9" x="12.87" width="1" height="22.73"/><rect class="cls-10" x="12.94" width="0.86" height="22.73"/><rect class="cls-2" x="13.01" width="0.71" height="22.73"/><rect class="cls-5" x="15.09" width="1.59" height="22.73"/><rect class="cls-6" x="15.16" width="1.44" height="22.73"/><rect class="cls-7" x="15.24" width="1.29" height="22.73"/><rect class="cls-8" x="15.31" width="1.15" height="22.73"/><rect class="cls-9" x="15.38" width="1" height="22.73"/><rect class="cls-10" x="15.45" width="0.86" height="22.73"/><rect class="cls-2" x="15.53" width="0.71" height="22.73"/><rect class="cls-5" x="17.6" width="1.59" height="22.73"/><rect class="cls-6" x="17.68" width="1.44" height="22.73"/><rect class="cls-7" x="17.75" width="1.29" height="22.73"/><rect class="cls-8" x="17.82" width="1.15" height="22.73"/><rect class="cls-9" x="17.9" width="1" height="22.73"/><rect class="cls-10" x="17.97" width="0.86" height="22.73"/><rect class="cls-2" x="18.04" width="0.71" height="22.73"/><rect class="cls-5" x="20.12" width="1.59" height="22.73"/><rect class="cls-6" x="20.19" width="1.44" height="22.73"/><rect class="cls-7" x="20.26" width="1.29" height="22.73"/><rect class="cls-8" x="20.34" width="1.15" height="22.73"/><rect class="cls-9" x="20.41" width="1" height="22.73"/><rect class="cls-10" x="20.48" width="0.86" height="22.73"/><rect class="cls-2" x="20.56" width="0.71" height="22.73"/><rect class="cls-5" x="22.63" width="1.59" height="22.73"/><rect class="cls-6" x="22.71" width="1.44" height="22.73"/><rect class="cls-7" x="22.78" width="1.29" height="22.73"/><rect class="cls-8" x="22.85" width="1.15" height="22.73"/><rect class="cls-9" x="22.93" width="1" height="22.73"/><rect class="cls-10" x="23" width="0.86" height="22.73"/><rect class="cls-2" x="23.07" width="0.71" height="22.73"/><rect class="cls-5" x="25.15" width="1.59" height="22.73"/><rect class="cls-6" x="25.22" width="1.44" height="22.73"/><rect class="cls-7" x="25.29" width="1.29" height="22.73"/><rect class="cls-8" x="25.37" width="1.15" height="22.73"/><rect class="cls-9" x="25.44" width="1" height="22.73"/><rect class="cls-10" x="25.51" width="0.86" height="22.73"/><rect class="cls-2" x="25.59" width="0.71" height="22.73"/><rect class="cls-5" x="27.66" width="1.59" height="22.73"/><rect class="cls-6" x="27.74" width="1.44" height="22.73"/><rect class="cls-7" x="27.81" width="1.29" height="22.73"/><rect class="cls-8" x="27.88" width="1.15" height="22.73"/><rect class="cls-9" x="27.96" width="1" height="22.73"/><rect class="cls-10" x="28.03" width="0.86" height="22.73"/><rect class="cls-2" x="28.1" width="0.71" height="22.73"/><rect class="cls-5" x="30.18" width="1.59" height="22.73"/><rect class="cls-6" x="30.25" width="1.44" height="22.73"/><rect class="cls-7" x="30.32" width="1.29" height="22.73"/><rect class="cls-8" x="30.4" width="1.15" height="22.73"/><rect class="cls-9" x="30.47" width="1" height="22.73"/><rect class="cls-10" x="30.54" width="0.86" height="22.73"/><rect class="cls-2" x="30.62" width="0.71" height="22.73"/><rect class="cls-5" x="32.69" width="1.59" height="22.73"/><rect class="cls-6" x="32.77" width="1.44" height="22.73"/><rect class="cls-7" x="32.84" width="1.29" height="22.73"/><rect class="cls-8" x="32.91" width="1.15" height="22.73"/><rect class="cls-9" x="32.99" width="1" height="22.73"/><rect class="cls-10" x="33.06" width="0.86" height="22.73"/><rect class="cls-2" x="33.13" width="0.71" height="22.73"/><rect class="cls-5" x="35.21" width="1.59" height="22.73"/><rect class="cls-6" x="35.28" width="1.44" height="22.73"/><rect class="cls-7" x="35.35" width="1.29" height="22.73"/><rect class="cls-8" x="35.43" width="1.15" height="22.73"/><rect class="cls-9" x="35.5" width="1" height="22.73"/><rect class="cls-10" x="35.57" width="0.86" height="22.73"/><rect class="cls-2" x="35.65" width="0.71" height="22.73"/><rect class="cls-5" x="37.72" width="1.59" height="22.73"/><rect class="cls-6" x="37.8" width="1.44" height="22.73"/><rect class="cls-7" x="37.87" width="1.29" height="22.73"/><rect class="cls-8" x="37.94" width="1.15" height="22.73"/><rect class="cls-9" x="38.02" width="1" height="22.73"/><rect class="cls-10" x="38.09" width="0.86" height="22.73"/><rect class="cls-2" x="38.16" width="0.71" height="22.73"/><rect class="cls-5" x="40.24" width="1.59" height="22.73"/><rect class="cls-6" x="40.31" width="1.44" height="22.73"/><rect class="cls-7" x="40.38" width="1.29" height="22.73"/><rect class="cls-8" x="40.46" width="1.15" height="22.73"/><rect class="cls-9" x="40.53" width="1" height="22.73"/><rect class="cls-10" x="40.6" width="0.86" height="22.73"/><rect class="cls-2" x="40.68" width="0.71" height="22.73"/><rect class="cls-5" x="42.75" width="1.59" height="22.73"/><rect class="cls-6" x="42.83" width="1.44" height="22.73"/><rect class="cls-7" x="42.9" width="1.29" height="22.73"/><rect class="cls-8" x="42.97" width="1.15" height="22.73"/><rect class="cls-9" x="43.04" width="1" height="22.73"/><rect class="cls-10" x="43.12" width="0.86" height="22.73"/><rect class="cls-2" x="43.19" width="0.71" height="22.73"/><rect class="cls-5" x="45.27" width="1.59" height="22.73"/><rect class="cls-6" x="45.34" width="1.44" height="22.73"/><rect class="cls-7" x="45.41" width="1.29" height="22.73"/><rect class="cls-8" x="45.49" width="1.15" height="22.73"/><rect class="cls-9" x="45.56" width="1" height="22.73"/><rect class="cls-10" x="45.63" width="0.86" height="22.73"/><rect class="cls-2" x="45.71" width="0.71" height="22.73"/><g id="Layer_1-2" data-name="Layer 1-2"><rect class="cls-17" y="4.65" width="28.43" height="4.87"/><polygon points="28.43 6.38 28.43 6.38 28.43 5.29 28.43 5.29 27.68 4.65 26.4 4.65 28.43 6.38"/><polygon points="7.11 5.29 6.36 4.65 5.08 4.65 7.11 6.38 9.13 4.65 7.85 4.65 7.11 5.29"/><polygon points="0 5.29 0 6.38 2.03 4.65 0.75 4.65 0 5.29"/><polygon points="0 8.95 0.68 9.53 1.99 9.53 0 7.83 0 8.95"/><path d="M12.59,7.12l-2-1.68-2,1.68,2,1.68Zm-2-.59.69.59-.69.59-.69-.59Z"/><path d="M26.87,7.12l-2-1.68-2,1.68,2,1.68Zm-2-.59.69.59-.69.59-.69-.59Z"/><polygon points="21.32 5.29 20.57 4.65 19.29 4.65 21.32 6.38 23.35 4.65 22.06 4.65 21.32 5.29"/><polygon points="0.51 7.12 3.4 4.65 3.03 4.65 0.14 7.12 2.96 9.53 3.33 9.53 0.51 7.12"/><polygon points="14.21 5.29 13.47 4.65 12.18 4.65 14.21 6.38 16.24 4.65 14.96 4.65 14.21 5.29"/><path d="M19.73,7.12l-2-1.68-2,1.68,2,1.68Zm-2-.59.69.59-.69.59-.7-.59Z"/><path d="M5.45,7.12l-2-1.68-2,1.68,2,1.68Zm-2-.59.69.59-.69.59-.69-.59Z"/><polygon points="4.08 4.65 3.56 4.65 6.45 7.12 3.63 9.53 4.15 9.53 6.97 7.12 4.08 4.65"/><polygon points="21.93 7.12 24.82 4.65 24.35 4.65 21.46 7.12 24.28 9.53 24.75 9.53 21.93 7.12"/><polygon points="18.29 4.65 17.84 4.65 20.73 7.12 17.91 9.53 18.36 9.53 21.18 7.12 18.29 4.65"/><polygon points="25.4 4.65 24.98 4.65 27.88 7.12 25.05 9.53 25.47 9.53 28.29 7.12 25.4 4.65"/><polygon points="28.43 8.95 28.43 8.95 28.43 7.83 28.43 7.83 27.47 8.64 26.44 9.53 27.75 9.53 28.43 8.95"/><polygon points="19.33 9.53 20.64 9.53 21.32 8.95 22 9.53 23.31 9.53 21.32 7.83 19.33 9.53"/><polygon points="11.19 4.65 10.7 4.65 13.59 7.12 10.77 9.53 11.25 9.53 14.07 7.12 11.19 4.65"/><polygon points="7.64 7.12 10.54 4.65 10.13 4.65 7.24 7.12 10.07 9.53 10.47 9.53 7.64 7.12"/><polygon points="6.15 8.64 5.12 9.53 6.43 9.53 7.11 8.95 7.78 9.53 9.1 9.53 7.11 7.83 6.15 8.64"/><polygon points="12.22 9.53 13.54 9.53 14.21 8.95 14.89 9.53 16.2 9.53 14.21 7.83 12.22 9.53"/><polygon points="14.79 7.12 17.68 4.65 17.24 4.65 14.35 7.12 17.17 9.53 17.61 9.53 14.79 7.12"/></g><g id="Layer_1-2-2" data-name="Layer 1-2"><rect class="cls-17" x="28.43" y="4.65" width="28.43" height="4.87"/><polygon points="56.85 6.38 56.85 6.38 56.85 5.29 56.85 5.29 56.11 4.65 54.83 4.65 56.85 6.38"/><polygon points="35.53 5.29 34.79 4.65 33.51 4.65 35.53 6.38 37.56 4.65 36.28 4.65 35.53 5.29"/><polygon points="28.43 5.29 28.43 6.38 30.45 4.65 29.17 4.65 28.43 5.29"/><polygon points="28.43 8.95 29.11 9.53 30.42 9.53 28.43 7.83 28.43 8.95"/><path d="M41,7.12l-2-1.68-2,1.68,2,1.68Zm-2-.59.69.59-.69.59-.69-.59Z"/><path d="M55.3,7.12l-2-1.68-2,1.68,2,1.68Zm-2-.59.69.59-.69.59-.69-.59Z"/><polygon points="49.74 5.29 49 4.65 47.72 4.65 49.74 6.38 51.77 4.65 50.49 4.65 49.74 5.29"/><polygon points="28.93 7.12 31.82 4.65 31.46 4.65 28.57 7.12 31.39 9.53 31.75 9.53 28.93 7.12"/><polygon points="42.64 5.29 41.9 4.65 40.61 4.65 42.64 6.38 44.67 4.65 43.38 4.65 42.64 5.29"/><path d="M48.16,7.12l-2-1.68-2,1.68,2,1.68Zm-2-.59.69.59-.69.59-.7-.59Z"/><path d="M33.88,7.12l-2-1.68-2,1.68,2,1.68Zm-2-.59.69.59-.69.59-.69-.59Z"/><polygon points="32.5 4.65 31.99 4.65 34.88 7.12 32.06 9.53 32.57 9.53 35.4 7.12 32.5 4.65"/><polygon points="50.35 7.12 53.24 4.65 52.77 4.65 49.88 7.12 52.71 9.53 53.17 9.53 50.35 7.12"/><polygon points="46.72 4.65 46.27 4.65 49.16 7.12 46.34 9.53 46.79 9.53 49.61 7.12 46.72 4.65"/><polygon points="53.83 4.65 53.41 4.65 56.3 7.12 53.48 9.53 53.89 9.53 56.72 7.12 53.83 4.65"/><polygon points="56.85 8.95 56.85 8.95 56.85 7.83 56.85 7.83 55.9 8.64 54.86 9.53 56.18 9.53 56.85 8.95"/><polygon points="47.76 9.53 49.07 9.53 49.74 8.95 50.42 9.53 51.74 9.53 49.74 7.83 47.76 9.53"/><polygon points="39.61 4.65 39.13 4.65 42.02 7.12 39.2 9.53 39.68 9.53 42.5 7.12 39.61 4.65"/><polygon points="36.07 7.12 38.96 4.65 38.56 4.65 35.67 7.12 38.49 9.53 38.9 9.53 36.07 7.12"/><polygon points="34.58 8.64 33.54 9.53 34.86 9.53 35.53 8.95 36.21 9.53 37.52 9.53 35.53 7.83 34.58 8.64"/><polygon points="40.65 9.53 41.96 9.53 42.64 8.95 43.32 9.53 44.63 9.53 42.64 7.83 40.65 9.53"/><polygon points="43.21 7.12 46.1 4.65 45.67 4.65 42.78 7.12 45.6 9.53 46.03 9.53 43.21 7.12"/></g><polygon points="28.04 2.94 28.43 2.94 28.82 2.94 28.82 2.64 29.21 2.64 29.21 2.35 28.43 2.35 27.65 2.35 27.65 2.64 28.04 2.64 28.04 2.94"/><polygon points="26.48 3.23 26.09 3.23 26.09 2.94 25.7 2.94 25.7 2.64 25.31 2.64 25.31 2.35 24.53 2.35 24.53 2.64 24.92 2.64 24.92 2.94 25.31 2.94 25.31 3.23 25.7 3.23 25.7 3.52 26.09 3.52 26.09 3.81 26.87 3.81 26.87 3.52 26.48 3.52 26.48 3.23"/><polygon points="23.36 3.23 22.98 3.23 22.98 2.94 22.59 2.94 22.59 2.64 22.2 2.64 22.2 2.35 21.42 2.35 21.42 2.64 21.81 2.64 21.81 2.94 22.2 2.94 22.2 3.23 22.59 3.23 22.59 3.52 22.98 3.52 22.98 3.81 23.75 3.81 23.75 3.52 23.36 3.52 23.36 3.23"/><polygon points="24.92 3.23 24.53 3.23 24.53 2.94 24.14 2.94 24.14 2.64 23.75 2.64 23.75 2.35 22.98 2.35 22.98 2.64 23.36 2.64 23.36 2.94 23.75 2.94 23.75 3.23 24.14 3.23 24.14 3.52 24.53 3.52 24.53 3.81 25.31 3.81 25.31 3.52 24.92 3.52 24.92 3.23"/><polygon points="20.25 3.23 19.86 3.23 19.86 2.94 19.47 2.94 19.47 2.64 19.08 2.64 19.08 2.35 18.3 2.35 18.3 2.64 18.69 2.64 18.69 2.94 19.08 2.94 19.08 3.23 19.47 3.23 19.47 3.52 19.86 3.52 19.86 3.81 20.64 3.81 20.64 3.52 20.25 3.52 20.25 3.23"/><polygon points="21.81 3.23 21.42 3.23 21.42 2.94 21.03 2.94 21.03 2.64 20.64 2.64 20.64 2.35 19.86 2.35 19.86 2.64 20.25 2.64 20.25 2.94 20.64 2.94 20.64 3.23 21.03 3.23 21.03 3.52 21.42 3.52 21.42 3.81 22.2 3.81 22.2 3.52 21.81 3.52 21.81 3.23"/><polygon points="17.13 3.23 16.75 3.23 16.75 2.94 16.36 2.94 16.36 2.64 15.97 2.64 15.97 2.35 15.19 2.35 15.19 2.64 15.58 2.64 15.58 2.94 15.97 2.94 15.97 3.23 16.36 3.23 16.36 3.52 16.75 3.52 16.75 3.81 17.52 3.81 17.52 3.52 17.13 3.52 17.13 3.23"/><polygon points="18.69 3.23 18.3 3.23 18.3 2.94 17.91 2.94 17.91 2.64 17.52 2.64 17.52 2.35 16.75 2.35 16.75 2.64 17.13 2.64 17.13 2.94 17.52 2.94 17.52 3.23 17.91 3.23 17.91 3.52 18.3 3.52 18.3 3.81 19.08 3.81 19.08 3.52 18.69 3.52 18.69 3.23"/><polygon points="14.02 3.23 13.63 3.23 13.63 2.94 13.24 2.94 13.24 2.64 12.85 2.64 12.85 2.35 12.07 2.35 12.07 2.64 12.46 2.64 12.46 2.94 12.85 2.94 12.85 3.23 13.24 3.23 13.24 3.52 13.63 3.52 13.63 3.81 14.41 3.81 14.41 3.52 14.02 3.52 14.02 3.23"/><polygon points="15.58 3.23 15.19 3.23 15.19 2.94 14.8 2.94 14.8 2.64 14.41 2.64 14.41 2.35 13.63 2.35 13.63 2.64 14.02 2.64 14.02 2.94 14.41 2.94 14.41 3.23 14.8 3.23 14.8 3.52 15.19 3.52 15.19 3.81 15.97 3.81 15.97 3.52 15.58 3.52 15.58 3.23"/><polygon points="10.9 3.23 10.51 3.23 10.51 2.94 10.13 2.94 10.13 2.64 9.73 2.64 9.73 2.35 8.96 2.35 8.96 2.64 9.35 2.64 9.35 2.94 9.73 2.94 9.73 3.23 10.13 3.23 10.13 3.52 10.51 3.52 10.51 3.81 11.29 3.81 11.29 3.52 10.9 3.52 10.9 3.23"/><polygon points="12.46 3.23 12.07 3.23 12.07 2.94 11.68 2.94 11.68 2.64 11.29 2.64 11.29 2.35 10.51 2.35 10.51 2.64 10.9 2.64 10.9 2.94 11.29 2.94 11.29 3.23 11.68 3.23 11.68 3.52 12.07 3.52 12.07 3.81 12.85 3.81 12.85 3.52 12.46 3.52 12.46 3.23"/><polygon points="7.79 3.23 7.4 3.23 7.4 2.94 7.01 2.94 7.01 2.64 6.62 2.64 6.62 2.35 5.84 2.35 5.84 2.64 6.23 2.64 6.23 2.94 6.62 2.94 6.62 3.23 7.01 3.23 7.01 3.52 7.4 3.52 7.4 3.81 8.18 3.81 8.18 3.52 7.79 3.52 7.79 3.23"/><polygon points="9.35 3.23 8.96 3.23 8.96 2.94 8.57 2.94 8.57 2.64 8.18 2.64 8.18 2.35 7.4 2.35 7.4 2.64 7.79 2.64 7.79 2.94 8.18 2.94 8.18 3.23 8.57 3.23 8.57 3.52 8.96 3.52 8.96 3.81 9.73 3.81 9.73 3.52 9.35 3.52 9.35 3.23"/><polygon points="4.67 3.23 4.28 3.23 4.28 2.94 3.89 2.94 3.89 2.64 3.5 2.64 3.5 2.35 2.73 2.35 2.73 2.64 3.12 2.64 3.12 2.94 3.5 2.94 3.5 3.23 3.89 3.23 3.89 3.52 4.28 3.52 4.28 3.81 5.06 3.81 5.06 3.52 4.67 3.52 4.67 3.23"/><polygon points="6.23 3.23 5.84 3.23 5.84 2.94 5.45 2.94 5.45 2.64 5.06 2.64 5.06 2.35 4.28 2.35 4.28 2.64 4.67 2.64 4.67 2.94 5.06 2.94 5.06 3.23 5.45 3.23 5.45 3.52 5.84 3.52 5.84 3.81 6.62 3.81 6.62 3.52 6.23 3.52 6.23 3.23"/><polygon points="1.56 3.23 1.17 3.23 1.17 2.94 0.78 2.94 0.78 2.64 0.39 2.64 0.39 2.35 0 2.35 0 2.64 0 2.94 0.39 2.94 0.39 3.23 0.78 3.23 0.78 3.52 1.17 3.52 1.17 3.81 1.95 3.81 1.95 3.52 1.56 3.52 1.56 3.23"/><polygon points="3.12 3.23 2.73 3.23 2.73 2.94 2.34 2.94 2.34 2.64 1.95 2.64 1.95 2.35 1.17 2.35 1.17 2.64 1.56 2.64 1.56 2.94 1.95 2.94 1.95 3.23 2.34 3.23 2.34 3.52 2.73 3.52 2.73 3.81 3.5 3.81 3.5 3.52 3.12 3.52 3.12 3.23"/><rect y="3.52" width="0.39" height="0.29"/><polygon points="31.54 2.94 31.93 2.94 31.93 2.64 32.32 2.64 32.32 2.35 31.54 2.35 31.54 2.64 31.15 2.64 31.15 2.94 30.76 2.94 30.76 3.23 30.37 3.23 30.37 3.52 29.98 3.52 29.98 3.81 30.76 3.81 30.76 3.52 31.15 3.52 31.15 3.23 31.54 3.23 31.54 2.94"/><polygon points="29.98 2.94 30.37 2.94 30.37 2.64 30.76 2.64 30.76 2.35 29.98 2.35 29.98 2.64 29.59 2.64 29.59 2.94 29.21 2.94 29.21 3.23 28.82 3.23 28.82 3.52 28.43 3.52 28.04 3.52 28.04 3.23 27.65 3.23 27.65 2.94 27.26 2.94 27.26 2.64 26.87 2.64 26.87 2.35 26.09 2.35 26.09 2.64 26.48 2.64 26.48 2.94 26.87 2.94 26.87 3.23 27.26 3.23 27.26 3.52 27.65 3.52 27.65 3.81 28.43 3.81 29.21 3.81 29.21 3.52 29.59 3.52 29.59 3.23 29.98 3.23 29.98 2.94"/><polygon points="34.66 2.94 35.05 2.94 35.05 2.64 35.44 2.64 35.44 2.35 34.66 2.35 34.66 2.64 34.27 2.64 34.27 2.94 33.88 2.94 33.88 3.23 33.49 3.23 33.49 3.52 33.1 3.52 33.1 3.81 33.88 3.81 33.88 3.52 34.27 3.52 34.27 3.23 34.66 3.23 34.66 2.94"/><polygon points="33.1 2.94 33.49 2.94 33.49 2.64 33.88 2.64 33.88 2.35 33.1 2.35 33.1 2.64 32.71 2.64 32.71 2.94 32.32 2.94 32.32 3.23 31.93 3.23 31.93 3.52 31.54 3.52 31.54 3.81 32.32 3.81 32.32 3.52 32.71 3.52 32.71 3.23 33.1 3.23 33.1 2.94"/><polygon points="37.77 2.94 38.16 2.94 38.16 2.64 38.55 2.64 38.55 2.35 37.77 2.35 37.77 2.64 37.38 2.64 37.38 2.94 36.99 2.94 36.99 3.23 36.6 3.23 36.6 3.52 36.22 3.52 36.22 3.81 36.99 3.81 36.99 3.52 37.38 3.52 37.38 3.23 37.77 3.23 37.77 2.94"/><polygon points="36.22 2.94 36.6 2.94 36.6 2.64 36.99 2.64 36.99 2.35 36.22 2.35 36.22 2.64 35.83 2.64 35.83 2.94 35.44 2.94 35.44 3.23 35.05 3.23 35.05 3.52 34.66 3.52 34.66 3.81 35.44 3.81 35.44 3.52 35.83 3.52 35.83 3.23 36.22 3.23 36.22 2.94"/><polygon points="40.89 2.94 41.28 2.94 41.28 2.64 41.67 2.64 41.67 2.35 40.89 2.35 40.89 2.64 40.5 2.64 40.5 2.94 40.11 2.94 40.11 3.23 39.72 3.23 39.72 3.52 39.33 3.52 39.33 3.81 40.11 3.81 40.11 3.52 40.5 3.52 40.5 3.23 40.89 3.23 40.89 2.94"/><polygon points="39.33 2.94 39.72 2.94 39.72 2.64 40.11 2.64 40.11 2.35 39.33 2.35 39.33 2.64 38.94 2.64 38.94 2.94 38.55 2.94 38.55 3.23 38.16 3.23 38.16 3.52 37.77 3.52 37.77 3.81 38.55 3.81 38.55 3.52 38.94 3.52 38.94 3.23 39.33 3.23 39.33 2.94"/><polygon points="44 2.94 44.39 2.94 44.39 2.64 44.78 2.64 44.78 2.35 44 2.35 44 2.64 43.61 2.64 43.61 2.94 43.23 2.94 43.23 3.23 42.84 3.23 42.84 3.52 42.45 3.52 42.45 3.81 43.23 3.81 43.23 3.52 43.61 3.52 43.61 3.23 44 3.23 44 2.94"/><polygon points="42.45 2.94 42.84 2.94 42.84 2.64 43.23 2.64 43.23 2.35 42.45 2.35 42.45 2.64 42.06 2.64 42.06 2.94 41.67 2.94 41.67 3.23 41.28 3.23 41.28 3.52 40.89 3.52 40.89 3.81 41.67 3.81 41.67 3.52 42.06 3.52 42.06 3.23 42.45 3.23 42.45 2.94"/><polygon points="47.12 2.94 47.51 2.94 47.51 2.64 47.9 2.64 47.9 2.35 47.12 2.35 47.12 2.64 46.73 2.64 46.73 2.94 46.34 2.94 46.34 3.23 45.95 3.23 45.95 3.52 45.56 3.52 45.56 3.81 46.34 3.81 46.34 3.52 46.73 3.52 46.73 3.23 47.12 3.23 47.12 2.94"/><polygon points="45.56 2.94 45.95 2.94 45.95 2.64 46.34 2.64 46.34 2.35 45.56 2.35 45.56 2.64 45.17 2.64 45.17 2.94 44.78 2.94 44.78 3.23 44.39 3.23 44.39 3.52 44 3.52 44 3.81 44.78 3.81 44.78 3.52 45.17 3.52 45.17 3.23 45.56 3.23 45.56 2.94"/><polygon points="50.23 2.94 50.62 2.94 50.62 2.64 51.01 2.64 51.01 2.35 50.23 2.35 50.23 2.64 49.84 2.64 49.84 2.94 49.45 2.94 49.45 3.23 49.07 3.23 49.07 3.52 48.68 3.52 48.68 3.81 49.45 3.81 49.45 3.52 49.84 3.52 49.84 3.23 50.23 3.23 50.23 2.94"/><polygon points="48.68 2.94 49.07 2.94 49.07 2.64 49.45 2.64 49.45 2.35 48.68 2.35 48.68 2.64 48.29 2.64 48.29 2.94 47.9 2.94 47.9 3.23 47.51 3.23 47.51 3.52 47.12 3.52 47.12 3.81 47.9 3.81 47.9 3.52 48.29 3.52 48.29 3.23 48.68 3.23 48.68 2.94"/><polygon points="53.35 2.94 53.74 2.94 53.74 2.64 54.13 2.64 54.13 2.35 53.35 2.35 53.35 2.64 52.96 2.64 52.96 2.94 52.57 2.94 52.57 3.23 52.18 3.23 52.18 3.52 51.79 3.52 51.79 3.81 52.57 3.81 52.57 3.52 52.96 3.52 52.96 3.23 53.35 3.23 53.35 2.94"/><polygon points="51.79 2.94 52.18 2.94 52.18 2.64 52.57 2.64 52.57 2.35 51.79 2.35 51.79 2.64 51.4 2.64 51.4 2.94 51.01 2.94 51.01 3.23 50.62 3.23 50.62 3.52 50.23 3.52 50.23 3.81 51.01 3.81 51.01 3.52 51.4 3.52 51.4 3.23 51.79 3.23 51.79 2.94"/><polygon points="54.91 2.94 55.3 2.94 55.3 2.64 55.69 2.64 55.69 2.35 54.91 2.35 54.91 2.64 54.52 2.64 54.52 2.94 54.13 2.94 54.13 3.23 53.74 3.23 53.74 3.52 53.35 3.52 53.35 3.81 54.13 3.81 54.13 3.52 54.52 3.52 54.52 3.23 54.91 3.23 54.91 2.94"/><polygon points="56.47 2.35 56.47 2.64 56.08 2.64 56.08 2.94 55.69 2.94 55.69 3.23 55.3 3.23 55.3 3.52 54.91 3.52 54.91 3.81 55.69 3.81 55.69 3.52 56.08 3.52 56.08 3.23 56.47 3.23 56.47 2.94 56.85 2.94 56.85 2.64 56.85 2.35 56.47 2.35"/><rect x="56.46" y="3.52" width="0.39" height="0.29"/><polygon points="28.04 11.25 28.43 11.25 28.82 11.25 28.82 11.54 29.21 11.54 29.21 11.83 28.43 11.83 27.65 11.83 27.65 11.54 28.04 11.54 28.04 11.25"/><polygon points="26.48 10.96 26.09 10.96 26.09 11.25 25.7 11.25 25.7 11.54 25.31 11.54 25.31 11.83 24.53 11.83 24.53 11.54 24.92 11.54 24.92 11.25 25.31 11.25 25.31 10.96 25.7 10.96 25.7 10.66 26.09 10.66 26.09 10.37 26.87 10.37 26.87 10.66 26.48 10.66 26.48 10.96"/><polygon points="23.36 10.96 22.98 10.96 22.98 11.25 22.59 11.25 22.59 11.54 22.2 11.54 22.2 11.83 21.42 11.83 21.42 11.54 21.81 11.54 21.81 11.25 22.2 11.25 22.2 10.96 22.59 10.96 22.59 10.66 22.98 10.66 22.98 10.37 23.75 10.37 23.75 10.66 23.36 10.66 23.36 10.96"/><polygon points="24.92 10.96 24.53 10.96 24.53 11.25 24.14 11.25 24.14 11.54 23.75 11.54 23.75 11.83 22.98 11.83 22.98 11.54 23.36 11.54 23.36 11.25 23.75 11.25 23.75 10.96 24.14 10.96 24.14 10.66 24.53 10.66 24.53 10.37 25.31 10.37 25.31 10.66 24.92 10.66 24.92 10.96"/><polygon points="20.25 10.96 19.86 10.96 19.86 11.25 19.47 11.25 19.47 11.54 19.08 11.54 19.08 11.83 18.3 11.83 18.3 11.54 18.69 11.54 18.69 11.25 19.08 11.25 19.08 10.96 19.47 10.96 19.47 10.66 19.86 10.66 19.86 10.37 20.64 10.37 20.64 10.66 20.25 10.66 20.25 10.96"/><polygon points="21.81 10.96 21.42 10.96 21.42 11.25 21.03 11.25 21.03 11.54 20.64 11.54 20.64 11.83 19.86 11.83 19.86 11.54 20.25 11.54 20.25 11.25 20.64 11.25 20.64 10.96 21.03 10.96 21.03 10.66 21.42 10.66 21.42 10.37 22.2 10.37 22.2 10.66 21.81 10.66 21.81 10.96"/><polygon points="17.13 10.96 16.75 10.96 16.75 11.25 16.36 11.25 16.36 11.54 15.97 11.54 15.97 11.83 15.19 11.83 15.19 11.54 15.58 11.54 15.58 11.25 15.97 11.25 15.97 10.96 16.36 10.96 16.36 10.66 16.75 10.66 16.75 10.37 17.52 10.37 17.52 10.66 17.13 10.66 17.13 10.96"/><polygon points="18.69 10.96 18.3 10.96 18.3 11.25 17.91 11.25 17.91 11.54 17.52 11.54 17.52 11.83 16.75 11.83 16.75 11.54 17.13 11.54 17.13 11.25 17.52 11.25 17.52 10.96 17.91 10.96 17.91 10.66 18.3 10.66 18.3 10.37 19.08 10.37 19.08 10.66 18.69 10.66 18.69 10.96"/><polygon points="14.02 10.96 13.63 10.96 13.63 11.25 13.24 11.25 13.24 11.54 12.85 11.54 12.85 11.83 12.07 11.83 12.07 11.54 12.46 11.54 12.46 11.25 12.85 11.25 12.85 10.96 13.24 10.96 13.24 10.66 13.63 10.66 13.63 10.37 14.41 10.37 14.41 10.66 14.02 10.66 14.02 10.96"/><polygon points="15.58 10.96 15.19 10.96 15.19 11.25 14.8 11.25 14.8 11.54 14.41 11.54 14.41 11.83 13.63 11.83 13.63 11.54 14.02 11.54 14.02 11.25 14.41 11.25 14.41 10.96 14.8 10.96 14.8 10.66 15.19 10.66 15.19 10.37 15.97 10.37 15.97 10.66 15.58 10.66 15.58 10.96"/><polygon points="10.9 10.96 10.51 10.96 10.51 11.25 10.13 11.25 10.13 11.54 9.73 11.54 9.73 11.83 8.96 11.83 8.96 11.54 9.35 11.54 9.35 11.25 9.73 11.25 9.73 10.96 10.13 10.96 10.13 10.66 10.51 10.66 10.51 10.37 11.29 10.37 11.29 10.66 10.9 10.66 10.9 10.96"/><polygon points="12.46 10.96 12.07 10.96 12.07 11.25 11.68 11.25 11.68 11.54 11.29 11.54 11.29 11.83 10.51 11.83 10.51 11.54 10.9 11.54 10.9 11.25 11.29 11.25 11.29 10.96 11.68 10.96 11.68 10.66 12.07 10.66 12.07 10.37 12.85 10.37 12.85 10.66 12.46 10.66 12.46 10.96"/><polygon points="7.79 10.96 7.4 10.96 7.4 11.25 7.01 11.25 7.01 11.54 6.62 11.54 6.62 11.83 5.84 11.83 5.84 11.54 6.23 11.54 6.23 11.25 6.62 11.25 6.62 10.96 7.01 10.96 7.01 10.66 7.4 10.66 7.4 10.37 8.18 10.37 8.18 10.66 7.79 10.66 7.79 10.96"/><polygon points="9.35 10.96 8.96 10.96 8.96 11.25 8.57 11.25 8.57 11.54 8.18 11.54 8.18 11.83 7.4 11.83 7.4 11.54 7.79 11.54 7.79 11.25 8.18 11.25 8.18 10.96 8.57 10.96 8.57 10.66 8.96 10.66 8.96 10.37 9.73 10.37 9.73 10.66 9.35 10.66 9.35 10.96"/><polygon points="4.67 10.96 4.28 10.96 4.28 11.25 3.89 11.25 3.89 11.54 3.5 11.54 3.5 11.83 2.73 11.83 2.73 11.54 3.12 11.54 3.12 11.25 3.5 11.25 3.5 10.96 3.89 10.96 3.89 10.66 4.28 10.66 4.28 10.37 5.06 10.37 5.06 10.66 4.67 10.66 4.67 10.96"/><polygon points="6.23 10.96 5.84 10.96 5.84 11.25 5.45 11.25 5.45 11.54 5.06 11.54 5.06 11.83 4.28 11.83 4.28 11.54 4.67 11.54 4.67 11.25 5.06 11.25 5.06 10.96 5.45 10.96 5.45 10.66 5.84 10.66 5.84 10.37 6.62 10.37 6.62 10.66 6.23 10.66 6.23 10.96"/><polygon points="1.56 10.96 1.17 10.96 1.17 11.25 0.78 11.25 0.78 11.54 0.39 11.54 0.39 11.83 0 11.83 0 11.54 0 11.25 0.39 11.25 0.39 10.96 0.78 10.96 0.78 10.66 1.17 10.66 1.17 10.37 1.95 10.37 1.95 10.66 1.56 10.66 1.56 10.96"/><polygon points="3.12 10.96 2.73 10.96 2.73 11.25 2.34 11.25 2.34 11.54 1.95 11.54 1.95 11.83 1.17 11.83 1.17 11.54 1.56 11.54 1.56 11.25 1.95 11.25 1.95 10.96 2.34 10.96 2.34 10.66 2.73 10.66 2.73 10.37 3.5 10.37 3.5 10.66 3.12 10.66 3.12 10.96"/><rect y="10.37" width="0.39" height="0.29"/><polygon points="31.54 11.25 31.93 11.25 31.93 11.54 32.32 11.54 32.32 11.83 31.54 11.83 31.54 11.54 31.15 11.54 31.15 11.25 30.76 11.25 30.76 10.96 30.37 10.96 30.37 10.66 29.98 10.66 29.98 10.37 30.76 10.37 30.76 10.66 31.15 10.66 31.15 10.96 31.54 10.96 31.54 11.25"/><polygon points="29.98 11.25 30.37 11.25 30.37 11.54 30.76 11.54 30.76 11.83 29.98 11.83 29.98 11.54 29.59 11.54 29.59 11.25 29.21 11.25 29.21 10.96 28.82 10.96 28.82 10.66 28.43 10.66 28.04 10.66 28.04 10.96 27.65 10.96 27.65 11.25 27.26 11.25 27.26 11.54 26.87 11.54 26.87 11.83 26.09 11.83 26.09 11.54 26.48 11.54 26.48 11.25 26.87 11.25 26.87 10.96 27.26 10.96 27.26 10.66 27.65 10.66 27.65 10.37 28.43 10.37 29.21 10.37 29.21 10.66 29.59 10.66 29.59 10.96 29.98 10.96 29.98 11.25"/><polygon points="34.66 11.25 35.05 11.25 35.05 11.54 35.44 11.54 35.44 11.83 34.66 11.83 34.66 11.54 34.27 11.54 34.27 11.25 33.88 11.25 33.88 10.96 33.49 10.96 33.49 10.66 33.1 10.66 33.1 10.37 33.88 10.37 33.88 10.66 34.27 10.66 34.27 10.96 34.66 10.96 34.66 11.25"/><polygon points="33.1 11.25 33.49 11.25 33.49 11.54 33.88 11.54 33.88 11.83 33.1 11.83 33.1 11.54 32.71 11.54 32.71 11.25 32.32 11.25 32.32 10.96 31.93 10.96 31.93 10.66 31.54 10.66 31.54 10.37 32.32 10.37 32.32 10.66 32.71 10.66 32.71 10.96 33.1 10.96 33.1 11.25"/><polygon points="37.77 11.25 38.16 11.25 38.16 11.54 38.55 11.54 38.55 11.83 37.77 11.83 37.77 11.54 37.38 11.54 37.38 11.25 36.99 11.25 36.99 10.96 36.6 10.96 36.6 10.66 36.22 10.66 36.22 10.37 36.99 10.37 36.99 10.66 37.38 10.66 37.38 10.96 37.77 10.96 37.77 11.25"/><polygon points="36.22 11.25 36.6 11.25 36.6 11.54 36.99 11.54 36.99 11.83 36.22 11.83 36.22 11.54 35.83 11.54 35.83 11.25 35.44 11.25 35.44 10.96 35.05 10.96 35.05 10.66 34.66 10.66 34.66 10.37 35.44 10.37 35.44 10.66 35.83 10.66 35.83 10.96 36.22 10.96 36.22 11.25"/><polygon points="40.89 11.25 41.28 11.25 41.28 11.54 41.67 11.54 41.67 11.83 40.89 11.83 40.89 11.54 40.5 11.54 40.5 11.25 40.11 11.25 40.11 10.96 39.72 10.96 39.72 10.66 39.33 10.66 39.33 10.37 40.11 10.37 40.11 10.66 40.5 10.66 40.5 10.96 40.89 10.96 40.89 11.25"/><polygon points="39.33 11.25 39.72 11.25 39.72 11.54 40.11 11.54 40.11 11.83 39.33 11.83 39.33 11.54 38.94 11.54 38.94 11.25 38.55 11.25 38.55 10.96 38.16 10.96 38.16 10.66 37.77 10.66 37.77 10.37 38.55 10.37 38.55 10.66 38.94 10.66 38.94 10.96 39.33 10.96 39.33 11.25"/><polygon points="44 11.25 44.39 11.25 44.39 11.54 44.78 11.54 44.78 11.83 44 11.83 44 11.54 43.61 11.54 43.61 11.25 43.23 11.25 43.23 10.96 42.84 10.96 42.84 10.66 42.45 10.66 42.45 10.37 43.23 10.37 43.23 10.66 43.61 10.66 43.61 10.96 44 10.96 44 11.25"/><polygon points="42.45 11.25 42.84 11.25 42.84 11.54 43.23 11.54 43.23 11.83 42.45 11.83 42.45 11.54 42.06 11.54 42.06 11.25 41.67 11.25 41.67 10.96 41.28 10.96 41.28 10.66 40.89 10.66 40.89 10.37 41.67 10.37 41.67 10.66 42.06 10.66 42.06 10.96 42.45 10.96 42.45 11.25"/><polygon points="47.12 11.25 47.51 11.25 47.51 11.54 47.9 11.54 47.9 11.83 47.12 11.83 47.12 11.54 46.73 11.54 46.73 11.25 46.34 11.25 46.34 10.96 45.95 10.96 45.95 10.66 45.56 10.66 45.56 10.37 46.34 10.37 46.34 10.66 46.73 10.66 46.73 10.96 47.12 10.96 47.12 11.25"/><polygon points="45.56 11.25 45.95 11.25 45.95 11.54 46.34 11.54 46.34 11.83 45.56 11.83 45.56 11.54 45.17 11.54 45.17 11.25 44.78 11.25 44.78 10.96 44.39 10.96 44.39 10.66 44 10.66 44 10.37 44.78 10.37 44.78 10.66 45.17 10.66 45.17 10.96 45.56 10.96 45.56 11.25"/><polygon points="50.23 11.25 50.62 11.25 50.62 11.54 51.01 11.54 51.01 11.83 50.23 11.83 50.23 11.54 49.84 11.54 49.84 11.25 49.45 11.25 49.45 10.96 49.07 10.96 49.07 10.66 48.68 10.66 48.68 10.37 49.45 10.37 49.45 10.66 49.84 10.66 49.84 10.96 50.23 10.96 50.23 11.25"/><polygon points="48.68 11.25 49.07 11.25 49.07 11.54 49.45 11.54 49.45 11.83 48.68 11.83 48.68 11.54 48.29 11.54 48.29 11.25 47.9 11.25 47.9 10.96 47.51 10.96 47.51 10.66 47.12 10.66 47.12 10.37 47.9 10.37 47.9 10.66 48.29 10.66 48.29 10.96 48.68 10.96 48.68 11.25"/><polygon points="53.35 11.25 53.74 11.25 53.74 11.54 54.13 11.54 54.13 11.83 53.35 11.83 53.35 11.54 52.96 11.54 52.96 11.25 52.57 11.25 52.57 10.96 52.18 10.96 52.18 10.66 51.79 10.66 51.79 10.37 52.57 10.37 52.57 10.66 52.96 10.66 52.96 10.96 53.35 10.96 53.35 11.25"/><polygon points="51.79 11.25 52.18 11.25 52.18 11.54 52.57 11.54 52.57 11.83 51.79 11.83 51.79 11.54 51.4 11.54 51.4 11.25 51.01 11.25 51.01 10.96 50.62 10.96 50.62 10.66 50.23 10.66 50.23 10.37 51.01 10.37 51.01 10.66 51.4 10.66 51.4 10.96 51.79 10.96 51.79 11.25"/><polygon points="54.91 11.25 55.3 11.25 55.3 11.54 55.69 11.54 55.69 11.83 54.91 11.83 54.91 11.54 54.52 11.54 54.52 11.25 54.13 11.25 54.13 10.96 53.74 10.96 53.74 10.66 53.35 10.66 53.35 10.37 54.13 10.37 54.13 10.66 54.52 10.66 54.52 10.96 54.91 10.96 54.91 11.25"/><polygon points="56.47 11.83 56.47 11.54 56.08 11.54 56.08 11.25 55.69 11.25 55.69 10.96 55.3 10.96 55.3 10.66 54.91 10.66 54.91 10.37 55.69 10.37 55.69 10.66 56.08 10.66 56.08 10.96 56.47 10.96 56.47 11.25 56.85 11.25 56.85 11.54 56.85 11.83 56.47 11.83"/><rect x="56.46" y="10.37" width="0.39" height="0.29"/><line class="cls-18" x1="8.26" y1="28.89" x2="8.26" y2="25.57"/><line class="cls-18" x1="8.59" y1="28.89" x2="8.59" y2="25.57"/><line class="cls-18" x1="8.92" y1="28.89" x2="8.92" y2="25.57"/><line class="cls-18" x1="8.93" y1="26.91" x2="9.85" y2="25.57"/><line class="cls-18" x1="8.93" y1="27.41" x2="10.23" y2="25.57"/><line class="cls-18" x1="8.93" y1="27.93" x2="10.62" y2="25.57"/><line class="cls-18" x1="9.23" y1="27.5" x2="9.75" y2="28.89"/><line class="cls-18" x1="9.45" y1="27.2" x2="10.08" y2="28.89"/><line class="cls-18" x1="9.67" y1="26.9" x2="10.41" y2="28.89"/><line class="cls-18" x1="15.38" y1="28.89" x2="15.38" y2="25.57"/><line class="cls-18" x1="15.72" y1="28.89" x2="15.72" y2="25.57"/><line class="cls-18" x1="16.05" y1="28.89" x2="16.05" y2="25.57"/><line class="cls-18" x1="17.32" y1="26.93" x2="17.32" y2="25.57"/><line class="cls-18" x1="17.65" y1="27.61" x2="17.65" y2="25.57"/><line class="cls-18" x1="17.98" y1="28.89" x2="17.98" y2="25.57"/><line class="cls-18" x1="16.33" y1="25.57" x2="17.69" y2="28.31"/><line class="cls-18" x1="16.33" y1="26.33" x2="17.65" y2="28.89"/><line class="cls-18" x1="16.33" y1="27.08" x2="17.32" y2="28.89"/><line class="cls-18" x1="11.13" y1="28.89" x2="12.35" y2="25.57"/><line class="cls-18" x1="11.44" y1="28.89" x2="12.67" y2="25.57"/><line class="cls-18" x1="11.76" y1="28.89" x2="12.98" y2="25.57"/><line class="cls-18" x1="13.27" y1="25.57" x2="14.56" y2="28.89"/><line class="cls-18" x1="13.12" y1="26.03" x2="14.24" y2="28.89"/><line class="cls-18" x1="12.99" y1="26.52" x2="13.91" y2="28.89"/><line class="cls-18" x1="12.53" y1="27.59" x2="13.09" y2="27.59"/><line class="cls-18" x1="12.47" y1="27.87" x2="13.17" y2="27.87"/><line class="cls-18" x1="12.35" y1="28.15" x2="13.27" y2="28.15"/><line class="cls-18" x1="18.8" y1="28.88" x2="18.8" y2="25.56"/><line class="cls-18" x1="19.14" y1="28.89" x2="19.14" y2="25.57"/><line class="cls-18" x1="19.47" y1="28.88" x2="19.47" y2="25.56"/><line class="cls-18" x1="19.78" y1="27.55" x2="21.44" y2="27.55"/><line class="cls-18" x1="19.14" y1="28.89" x2="19.14" y2="25.57"/><line class="cls-18" x1="19.78" y1="27.22" x2="21.44" y2="27.22"/><line class="cls-18" x1="19.78" y1="26.89" x2="21.44" y2="26.89"/><line class="cls-18" x1="20.84" y1="25.57" x2="20.84" y2="26.58"/><line class="cls-18" x1="21.17" y1="25.57" x2="21.17" y2="26.58"/><line class="cls-18" x1="21.51" y1="25.57" x2="21.51" y2="26.58"/><line class="cls-18" x1="20.84" y1="27.89" x2="20.84" y2="28.9"/><line class="cls-18" x1="21.17" y1="27.89" x2="21.17" y2="28.9"/><line class="cls-18" x1="21.51" y1="27.89" x2="21.51" y2="28.9"/><line class="cls-18" x1="22.24" y1="25.57" x2="23.07" y2="27.38"/><line class="cls-18" x1="22.6" y1="25.56" x2="23.25" y2="26.98"/><line class="cls-18" x1="22.97" y1="25.56" x2="23.43" y2="26.58"/><line class="cls-18" x1="23.28" y1="28.89" x2="23.28" y2="27.62"/><line class="cls-18" x1="23.89" y1="28.89" x2="23.89" y2="27.87"/><line class="cls-18" x1="23.58" y1="28.89" x2="23.58" y2="27.74"/><line class="cls-18" x1="23.28" y1="27.6" x2="24.19" y2="25.56"/><line class="cls-18" x1="23.9" y1="27.83" x2="24.92" y2="25.56"/><line class="cls-18" x1="23.59" y1="27.71" x2="24.55" y2="25.57"/><line class="cls-18" x1="25.74" y1="28.89" x2="25.74" y2="25.56"/><line class="cls-18" x1="26.08" y1="28.89" x2="26.08" y2="25.56"/><line class="cls-18" x1="26.41" y1="28.89" x2="26.41" y2="25.56"/><line class="cls-18" x1="27.68" y1="26.93" x2="27.68" y2="25.56"/><line class="cls-18" x1="28.01" y1="27.6" x2="28.01" y2="25.56"/><line class="cls-18" x1="28.34" y1="28.89" x2="28.34" y2="25.56"/><line class="cls-18" x1="26.69" y1="25.56" x2="28.05" y2="28.3"/><line class="cls-18" x1="26.69" y1="26.32" x2="28.01" y2="28.89"/><line class="cls-18" x1="26.69" y1="27.07" x2="27.68" y2="28.89"/><line class="cls-18" x1="29.16" y1="25.57" x2="31.76" y2="25.57"/><line class="cls-18" x1="30.01" y1="25.89" x2="31.23" y2="25.89"/><line class="cls-18" x1="29.83" y1="26.22" x2="31.76" y2="26.22"/><line class="cls-18" x1="29.5" y1="25.89" x2="31.76" y2="25.89"/><line class="cls-18" x1="29.16" y1="28.9" x2="29.16" y2="25.57"/><line class="cls-18" x1="29.5" y1="28.55" x2="29.5" y2="25.89"/><line class="cls-18" x1="29.83" y1="28.21" x2="29.83" y2="26.22"/><line class="cls-18" x1="29.83" y1="28.21" x2="31.1" y2="28.21"/><line class="cls-18" x1="29.5" y1="28.55" x2="31.43" y2="28.55"/><line class="cls-18" x1="29.16" y1="28.91" x2="31.76" y2="28.91"/><line class="cls-18" x1="31.1" y1="28.21" x2="31.1" y2="27.67"/><line class="cls-18" x1="31.43" y1="28.55" x2="31.43" y2="27.31"/><line class="cls-18" x1="31.76" y1="28.88" x2="31.76" y2="27.03"/><line class="cls-18" x1="30.63" y1="26.98" x2="31.76" y2="26.98"/><line class="cls-18" x1="30.63" y1="27.31" x2="31.43" y2="27.31"/><line class="cls-18" x1="30.63" y1="27.64" x2="31.1" y2="27.64"/><line class="cls-18" x1="32.59" y1="28.89" x2="32.59" y2="25.56"/><line class="cls-18" x1="32.92" y1="28.54" x2="32.92" y2="25.56"/><line class="cls-18" x1="33.25" y1="28.2" x2="33.25" y2="25.57"/><line class="cls-18" x1="33.25" y1="28.2" x2="34.52" y2="28.2"/><line class="cls-18" x1="32.92" y1="28.54" x2="34.52" y2="28.54"/><line class="cls-18" x1="32.59" y1="28.89" x2="34.52" y2="28.89"/><line class="cls-18" x1="34.52" y1="28.89" x2="34.52" y2="25.56"/><line class="cls-18" x1="34.84" y1="28.89" x2="34.84" y2="25.56"/><line class="cls-18" x1="35.18" y1="28.87" x2="35.18" y2="25.56"/><line class="cls-18" x1="36.67" y1="25.55" x2="38.6" y2="25.55"/><line class="cls-18" x1="37.3" y1="25.87" x2="38.2" y2="25.87"/><line class="cls-18" x1="36.67" y1="26.2" x2="38.6" y2="26.2"/><line class="cls-18" x1="36.67" y1="25.87" x2="38.6" y2="25.87"/><line class="cls-18" x1="36.01" y1="28.89" x2="36.01" y2="25.55"/><line class="cls-18" x1="36.34" y1="28.9" x2="36.34" y2="25.56"/><line class="cls-18" x1="36.67" y1="28.9" x2="36.67" y2="25.55"/><line class="cls-18" x1="36.67" y1="28.19" x2="38.6" y2="28.19"/><line class="cls-18" x1="36.67" y1="28.55" x2="38.6" y2="28.55"/><line class="cls-18" x1="36.67" y1="28.9" x2="38.6" y2="28.9"/><line class="cls-18" x1="36.67" y1="26.9" x2="38.6" y2="26.9"/><line class="cls-18" x1="36.67" y1="27.24" x2="38.6" y2="27.24"/><line class="cls-18" x1="36.67" y1="27.57" x2="38.6" y2="27.57"/><line class="cls-18" x1="39.2" y1="25.87" x2="43.45" y2="25.87"/><line class="cls-18" x1="39.2" y1="27.24" x2="43.45" y2="27.24"/><line class="cls-18" x1="39.2" y1="28.55" x2="43.45" y2="28.55"/><line class="cls-18" x1="3.4" y1="25.87" x2="7.65" y2="25.87"/><line class="cls-18" x1="3.4" y1="27.24" x2="7.65" y2="27.24"/><line class="cls-18" x1="3.4" y1="28.55" x2="7.65" y2="28.55"/><text class="cls-19" transform="translate(15.82 31.34)">ALMAS PERDIDAS</text><polygon points="28.04 21.87 28.43 21.87 28.82 21.87 28.82 21.58 29.21 21.58 29.21 21.29 28.43 21.29 27.65 21.29 27.65 21.58 28.04 21.58 28.04 21.87"/><polygon points="26.48 22.16 26.09 22.16 26.09 21.87 25.7 21.87 25.7 21.58 25.31 21.58 25.31 21.29 24.53 21.29 24.53 21.58 24.92 21.58 24.92 21.87 25.31 21.87 25.31 22.16 25.7 22.16 25.7 22.45 26.09 22.45 26.09 22.75 26.87 22.75 26.87 22.45 26.48 22.45 26.48 22.16"/><polygon points="23.36 22.16 22.98 22.16 22.98 21.87 22.59 21.87 22.59 21.58 22.2 21.58 22.2 21.29 21.42 21.29 21.42 21.58 21.81 21.58 21.81 21.87 22.2 21.87 22.2 22.16 22.59 22.16 22.59 22.45 22.98 22.45 22.98 22.75 23.75 22.75 23.75 22.45 23.36 22.45 23.36 22.16"/><polygon points="24.92 22.16 24.53 22.16 24.53 21.87 24.14 21.87 24.14 21.58 23.75 21.58 23.75 21.29 22.98 21.29 22.98 21.58 23.36 21.58 23.36 21.87 23.75 21.87 23.75 22.16 24.14 22.16 24.14 22.45 24.53 22.45 24.53 22.75 25.31 22.75 25.31 22.45 24.92 22.45 24.92 22.16"/><polygon points="20.25 22.16 19.86 22.16 19.86 21.87 19.47 21.87 19.47 21.58 19.08 21.58 19.08 21.29 18.3 21.29 18.3 21.58 18.69 21.58 18.69 21.87 19.08 21.87 19.08 22.16 19.47 22.16 19.47 22.45 19.86 22.45 19.86 22.75 20.64 22.75 20.64 22.45 20.25 22.45 20.25 22.16"/><polygon points="21.81 22.16 21.42 22.16 21.42 21.87 21.03 21.87 21.03 21.58 20.64 21.58 20.64 21.29 19.86 21.29 19.86 21.58 20.25 21.58 20.25 21.87 20.64 21.87 20.64 22.16 21.03 22.16 21.03 22.45 21.42 22.45 21.42 22.75 22.2 22.75 22.2 22.45 21.81 22.45 21.81 22.16"/><polygon points="17.13 22.16 16.75 22.16 16.75 21.87 16.36 21.87 16.36 21.58 15.97 21.58 15.97 21.29 15.19 21.29 15.19 21.58 15.58 21.58 15.58 21.87 15.97 21.87 15.97 22.16 16.36 22.16 16.36 22.45 16.75 22.45 16.75 22.75 17.52 22.75 17.52 22.45 17.13 22.45 17.13 22.16"/><polygon points="18.69 22.16 18.3 22.16 18.3 21.87 17.91 21.87 17.91 21.58 17.52 21.58 17.52 21.29 16.75 21.29 16.75 21.58 17.13 21.58 17.13 21.87 17.52 21.87 17.52 22.16 17.91 22.16 17.91 22.45 18.3 22.45 18.3 22.75 19.08 22.75 19.08 22.45 18.69 22.45 18.69 22.16"/><polygon points="14.02 22.16 13.63 22.16 13.63 21.87 13.24 21.87 13.24 21.58 12.85 21.58 12.85 21.29 12.07 21.29 12.07 21.58 12.46 21.58 12.46 21.87 12.85 21.87 12.85 22.16 13.24 22.16 13.24 22.45 13.63 22.45 13.63 22.75 14.41 22.75 14.41 22.45 14.02 22.45 14.02 22.16"/><polygon points="15.58 22.16 15.19 22.16 15.19 21.87 14.8 21.87 14.8 21.58 14.41 21.58 14.41 21.29 13.63 21.29 13.63 21.58 14.02 21.58 14.02 21.87 14.41 21.87 14.41 22.16 14.8 22.16 14.8 22.45 15.19 22.45 15.19 22.75 15.97 22.75 15.97 22.45 15.58 22.45 15.58 22.16"/><polygon points="10.9 22.16 10.51 22.16 10.51 21.87 10.13 21.87 10.13 21.58 9.73 21.58 9.73 21.29 8.96 21.29 8.96 21.58 9.35 21.58 9.35 21.87 9.73 21.87 9.73 22.16 10.13 22.16 10.13 22.45 10.51 22.45 10.51 22.75 11.29 22.75 11.29 22.45 10.9 22.45 10.9 22.16"/><polygon points="12.46 22.16 12.07 22.16 12.07 21.87 11.68 21.87 11.68 21.58 11.29 21.58 11.29 21.29 10.51 21.29 10.51 21.58 10.9 21.58 10.9 21.87 11.29 21.87 11.29 22.16 11.68 22.16 11.68 22.45 12.07 22.45 12.07 22.75 12.85 22.75 12.85 22.45 12.46 22.45 12.46 22.16"/><polygon points="7.79 22.16 7.4 22.16 7.4 21.87 7.01 21.87 7.01 21.58 6.62 21.58 6.62 21.29 5.84 21.29 5.84 21.58 6.23 21.58 6.23 21.87 6.62 21.87 6.62 22.16 7.01 22.16 7.01 22.45 7.4 22.45 7.4 22.75 8.18 22.75 8.18 22.45 7.79 22.45 7.79 22.16"/><polygon points="9.35 22.16 8.96 22.16 8.96 21.87 8.57 21.87 8.57 21.58 8.18 21.58 8.18 21.29 7.4 21.29 7.4 21.58 7.79 21.58 7.79 21.87 8.18 21.87 8.18 22.16 8.57 22.16 8.57 22.45 8.96 22.45 8.96 22.75 9.73 22.75 9.73 22.45 9.35 22.45 9.35 22.16"/><polygon points="4.67 22.16 4.28 22.16 4.28 21.87 3.89 21.87 3.89 21.58 3.5 21.58 3.5 21.29 2.73 21.29 2.73 21.58 3.12 21.58 3.12 21.87 3.5 21.87 3.5 22.16 3.89 22.16 3.89 22.45 4.28 22.45 4.28 22.75 5.06 22.75 5.06 22.45 4.67 22.45 4.67 22.16"/><polygon points="6.23 22.16 5.84 22.16 5.84 21.87 5.45 21.87 5.45 21.58 5.06 21.58 5.06 21.29 4.28 21.29 4.28 21.58 4.67 21.58 4.67 21.87 5.06 21.87 5.06 22.16 5.45 22.16 5.45 22.45 5.84 22.45 5.84 22.75 6.62 22.75 6.62 22.45 6.23 22.45 6.23 22.16"/><polygon points="1.56 22.16 1.17 22.16 1.17 21.87 0.78 21.87 0.78 21.58 0.39 21.58 0.39 21.29 0 21.29 0 21.58 0 21.87 0.39 21.87 0.39 22.16 0.78 22.16 0.78 22.45 1.17 22.45 1.17 22.75 1.95 22.75 1.95 22.45 1.56 22.45 1.56 22.16"/><polygon points="3.12 22.16 2.73 22.16 2.73 21.87 2.34 21.87 2.34 21.58 1.95 21.58 1.95 21.29 1.17 21.29 1.17 21.58 1.56 21.58 1.56 21.87 1.95 21.87 1.95 22.16 2.34 22.16 2.34 22.45 2.73 22.45 2.73 22.75 3.5 22.75 3.5 22.45 3.12 22.45 3.12 22.16"/><rect y="22.45" width="0.39" height="0.29"/><polygon points="31.54 21.87 31.93 21.87 31.93 21.58 32.32 21.58 32.32 21.29 31.54 21.29 31.54 21.58 31.15 21.58 31.15 21.87 30.76 21.87 30.76 22.16 30.37 22.16 30.37 22.45 29.98 22.45 29.98 22.75 30.76 22.75 30.76 22.45 31.15 22.45 31.15 22.16 31.54 22.16 31.54 21.87"/><polygon points="29.98 21.87 30.37 21.87 30.37 21.58 30.76 21.58 30.76 21.29 29.98 21.29 29.98 21.58 29.59 21.58 29.59 21.87 29.21 21.87 29.21 22.16 28.82 22.16 28.82 22.45 28.43 22.45 28.04 22.45 28.04 22.16 27.65 22.16 27.65 21.87 27.26 21.87 27.26 21.58 26.87 21.58 26.87 21.29 26.09 21.29 26.09 21.58 26.48 21.58 26.48 21.87 26.87 21.87 26.87 22.16 27.26 22.16 27.26 22.45 27.65 22.45 27.65 22.75 28.43 22.75 29.21 22.75 29.21 22.45 29.59 22.45 29.59 22.16 29.98 22.16 29.98 21.87"/><polygon points="34.66 21.87 35.05 21.87 35.05 21.58 35.44 21.58 35.44 21.29 34.66 21.29 34.66 21.58 34.27 21.58 34.27 21.87 33.88 21.87 33.88 22.16 33.49 22.16 33.49 22.45 33.1 22.45 33.1 22.75 33.88 22.75 33.88 22.45 34.27 22.45 34.27 22.16 34.66 22.16 34.66 21.87"/><polygon points="33.1 21.87 33.49 21.87 33.49 21.58 33.88 21.58 33.88 21.29 33.1 21.29 33.1 21.58 32.71 21.58 32.71 21.87 32.32 21.87 32.32 22.16 31.93 22.16 31.93 22.45 31.54 22.45 31.54 22.75 32.32 22.75 32.32 22.45 32.71 22.45 32.71 22.16 33.1 22.16 33.1 21.87"/><polygon points="37.77 21.87 38.16 21.87 38.16 21.58 38.55 21.58 38.55 21.29 37.77 21.29 37.77 21.58 37.38 21.58 37.38 21.87 36.99 21.87 36.99 22.16 36.6 22.16 36.6 22.45 36.22 22.45 36.22 22.75 36.99 22.75 36.99 22.45 37.38 22.45 37.38 22.16 37.77 22.16 37.77 21.87"/><polygon points="36.22 21.87 36.6 21.87 36.6 21.58 36.99 21.58 36.99 21.29 36.22 21.29 36.22 21.58 35.83 21.58 35.83 21.87 35.44 21.87 35.44 22.16 35.05 22.16 35.05 22.45 34.66 22.45 34.66 22.75 35.44 22.75 35.44 22.45 35.83 22.45 35.83 22.16 36.22 22.16 36.22 21.87"/><polygon points="40.89 21.87 41.28 21.87 41.28 21.58 41.67 21.58 41.67 21.29 40.89 21.29 40.89 21.58 40.5 21.58 40.5 21.87 40.11 21.87 40.11 22.16 39.72 22.16 39.72 22.45 39.33 22.45 39.33 22.75 40.11 22.75 40.11 22.45 40.5 22.45 40.5 22.16 40.89 22.16 40.89 21.87"/><polygon points="39.33 21.87 39.72 21.87 39.72 21.58 40.11 21.58 40.11 21.29 39.33 21.29 39.33 21.58 38.94 21.58 38.94 21.87 38.55 21.87 38.55 22.16 38.16 22.16 38.16 22.45 37.77 22.45 37.77 22.75 38.55 22.75 38.55 22.45 38.94 22.45 38.94 22.16 39.33 22.16 39.33 21.87"/><polygon points="44 21.87 44.39 21.87 44.39 21.58 44.78 21.58 44.78 21.29 44 21.29 44 21.58 43.61 21.58 43.61 21.87 43.23 21.87 43.23 22.16 42.84 22.16 42.84 22.45 42.45 22.45 42.45 22.75 43.23 22.75 43.23 22.45 43.61 22.45 43.61 22.16 44 22.16 44 21.87"/><polygon points="42.45 21.87 42.84 21.87 42.84 21.58 43.23 21.58 43.23 21.29 42.45 21.29 42.45 21.58 42.06 21.58 42.06 21.87 41.67 21.87 41.67 22.16 41.28 22.16 41.28 22.45 40.89 22.45 40.89 22.75 41.67 22.75 41.67 22.45 42.06 22.45 42.06 22.16 42.45 22.16 42.45 21.87"/><polygon points="47.12 21.87 47.51 21.87 47.51 21.58 47.9 21.58 47.9 21.29 47.12 21.29 47.12 21.58 46.73 21.58 46.73 21.87 46.34 21.87 46.34 22.16 45.95 22.16 45.95 22.45 45.56 22.45 45.56 22.75 46.34 22.75 46.34 22.45 46.73 22.45 46.73 22.16 47.12 22.16 47.12 21.87"/><polygon points="45.56 21.87 45.95 21.87 45.95 21.58 46.34 21.58 46.34 21.29 45.56 21.29 45.56 21.58 45.17 21.58 45.17 21.87 44.78 21.87 44.78 22.16 44.39 22.16 44.39 22.45 44 22.45 44 22.75 44.78 22.75 44.78 22.45 45.17 22.45 45.17 22.16 45.56 22.16 45.56 21.87"/><polygon points="50.23 21.87 50.62 21.87 50.62 21.58 51.01 21.58 51.01 21.29 50.23 21.29 50.23 21.58 49.84 21.58 49.84 21.87 49.45 21.87 49.45 22.16 49.07 22.16 49.07 22.45 48.68 22.45 48.68 22.75 49.45 22.75 49.45 22.45 49.84 22.45 49.84 22.16 50.23 22.16 50.23 21.87"/><polygon points="48.68 21.87 49.07 21.87 49.07 21.58 49.45 21.58 49.45 21.29 48.68 21.29 48.68 21.58 48.29 21.58 48.29 21.87 47.9 21.87 47.9 22.16 47.51 22.16 47.51 22.45 47.12 22.45 47.12 22.75 47.9 22.75 47.9 22.45 48.29 22.45 48.29 22.16 48.68 22.16 48.68 21.87"/><polygon points="53.35 21.87 53.74 21.87 53.74 21.58 54.13 21.58 54.13 21.29 53.35 21.29 53.35 21.58 52.96 21.58 52.96 21.87 52.57 21.87 52.57 22.16 52.18 22.16 52.18 22.45 51.79 22.45 51.79 22.75 52.57 22.75 52.57 22.45 52.96 22.45 52.96 22.16 53.35 22.16 53.35 21.87"/><polygon points="51.79 21.87 52.18 21.87 52.18 21.58 52.57 21.58 52.57 21.29 51.79 21.29 51.79 21.58 51.4 21.58 51.4 21.87 51.01 21.87 51.01 22.16 50.62 22.16 50.62 22.45 50.23 22.45 50.23 22.75 51.01 22.75 51.01 22.45 51.4 22.45 51.4 22.16 51.79 22.16 51.79 21.87"/><polygon points="54.91 21.87 55.3 21.87 55.3 21.58 55.69 21.58 55.69 21.29 54.91 21.29 54.91 21.58 54.52 21.58 54.52 21.87 54.13 21.87 54.13 22.16 53.74 22.16 53.74 22.45 53.35 22.45 53.35 22.75 54.13 22.75 54.13 22.45 54.52 22.45 54.52 22.16 54.91 22.16 54.91 21.87"/><polygon points="56.47 21.29 56.47 21.58 56.08 21.58 56.08 21.87 55.69 21.87 55.69 22.16 55.3 22.16 55.3 22.45 54.91 22.45 54.91 22.75 55.69 22.75 55.69 22.45 56.08 22.45 56.08 22.16 56.47 22.16 56.47 21.87 56.85 21.87 56.85 21.58 56.85 21.29 56.47 21.29"/><rect x="56.46" y="22.45" width="0.39" height="0.29"/><polygon points="28.04 35.14 28.43 35.14 28.82 35.14 28.82 35.43 29.21 35.43 29.21 35.72 28.43 35.72 27.65 35.72 27.65 35.43 28.04 35.43 28.04 35.14"/><polygon points="26.48 34.85 26.09 34.85 26.09 35.14 25.7 35.14 25.7 35.43 25.31 35.43 25.31 35.72 24.53 35.72 24.53 35.43 24.92 35.43 24.92 35.14 25.31 35.14 25.31 34.85 25.7 34.85 25.7 34.56 26.09 34.56 26.09 34.26 26.87 34.26 26.87 34.56 26.48 34.56 26.48 34.85"/><polygon points="23.36 34.85 22.98 34.85 22.98 35.14 22.59 35.14 22.59 35.43 22.2 35.43 22.2 35.72 21.42 35.72 21.42 35.43 21.81 35.43 21.81 35.14 22.2 35.14 22.2 34.85 22.59 34.85 22.59 34.56 22.98 34.56 22.98 34.26 23.75 34.26 23.75 34.56 23.36 34.56 23.36 34.85"/><polygon points="24.92 34.85 24.53 34.85 24.53 35.14 24.14 35.14 24.14 35.43 23.75 35.43 23.75 35.72 22.98 35.72 22.98 35.43 23.36 35.43 23.36 35.14 23.75 35.14 23.75 34.85 24.14 34.85 24.14 34.56 24.53 34.56 24.53 34.26 25.31 34.26 25.31 34.56 24.92 34.56 24.92 34.85"/><polygon points="20.25 34.85 19.86 34.85 19.86 35.14 19.47 35.14 19.47 35.43 19.08 35.43 19.08 35.72 18.3 35.72 18.3 35.43 18.69 35.43 18.69 35.14 19.08 35.14 19.08 34.85 19.47 34.85 19.47 34.56 19.86 34.56 19.86 34.26 20.64 34.26 20.64 34.56 20.25 34.56 20.25 34.85"/><polygon points="21.81 34.85 21.42 34.85 21.42 35.14 21.03 35.14 21.03 35.43 20.64 35.43 20.64 35.72 19.86 35.72 19.86 35.43 20.25 35.43 20.25 35.14 20.64 35.14 20.64 34.85 21.03 34.85 21.03 34.56 21.42 34.56 21.42 34.26 22.2 34.26 22.2 34.56 21.81 34.56 21.81 34.85"/><polygon points="17.13 34.85 16.75 34.85 16.75 35.14 16.36 35.14 16.36 35.43 15.97 35.43 15.97 35.72 15.19 35.72 15.19 35.43 15.58 35.43 15.58 35.14 15.97 35.14 15.97 34.85 16.36 34.85 16.36 34.56 16.75 34.56 16.75 34.26 17.52 34.26 17.52 34.56 17.13 34.56 17.13 34.85"/><polygon points="18.69 34.85 18.3 34.85 18.3 35.14 17.91 35.14 17.91 35.43 17.52 35.43 17.52 35.72 16.75 35.72 16.75 35.43 17.13 35.43 17.13 35.14 17.52 35.14 17.52 34.85 17.91 34.85 17.91 34.56 18.3 34.56 18.3 34.26 19.08 34.26 19.08 34.56 18.69 34.56 18.69 34.85"/><polygon points="14.02 34.85 13.63 34.85 13.63 35.14 13.24 35.14 13.24 35.43 12.85 35.43 12.85 35.72 12.07 35.72 12.07 35.43 12.46 35.43 12.46 35.14 12.85 35.14 12.85 34.85 13.24 34.85 13.24 34.56 13.63 34.56 13.63 34.26 14.41 34.26 14.41 34.56 14.02 34.56 14.02 34.85"/><polygon points="15.58 34.85 15.19 34.85 15.19 35.14 14.8 35.14 14.8 35.43 14.41 35.43 14.41 35.72 13.63 35.72 13.63 35.43 14.02 35.43 14.02 35.14 14.41 35.14 14.41 34.85 14.8 34.85 14.8 34.56 15.19 34.56 15.19 34.26 15.97 34.26 15.97 34.56 15.58 34.56 15.58 34.85"/><polygon points="10.9 34.85 10.51 34.85 10.51 35.14 10.13 35.14 10.13 35.43 9.73 35.43 9.73 35.72 8.96 35.72 8.96 35.43 9.35 35.43 9.35 35.14 9.73 35.14 9.73 34.85 10.13 34.85 10.13 34.56 10.51 34.56 10.51 34.26 11.29 34.26 11.29 34.56 10.9 34.56 10.9 34.85"/><polygon points="12.46 34.85 12.07 34.85 12.07 35.14 11.68 35.14 11.68 35.43 11.29 35.43 11.29 35.72 10.51 35.72 10.51 35.43 10.9 35.43 10.9 35.14 11.29 35.14 11.29 34.85 11.68 34.85 11.68 34.56 12.07 34.56 12.07 34.26 12.85 34.26 12.85 34.56 12.46 34.56 12.46 34.85"/><polygon points="7.79 34.85 7.4 34.85 7.4 35.14 7.01 35.14 7.01 35.43 6.62 35.43 6.62 35.72 5.84 35.72 5.84 35.43 6.23 35.43 6.23 35.14 6.62 35.14 6.62 34.85 7.01 34.85 7.01 34.56 7.4 34.56 7.4 34.26 8.18 34.26 8.18 34.56 7.79 34.56 7.79 34.85"/><polygon points="9.35 34.85 8.96 34.85 8.96 35.14 8.57 35.14 8.57 35.43 8.18 35.43 8.18 35.72 7.4 35.72 7.4 35.43 7.79 35.43 7.79 35.14 8.18 35.14 8.18 34.85 8.57 34.85 8.57 34.56 8.96 34.56 8.96 34.26 9.73 34.26 9.73 34.56 9.35 34.56 9.35 34.85"/><polygon points="4.67 34.85 4.28 34.85 4.28 35.14 3.89 35.14 3.89 35.43 3.5 35.43 3.5 35.72 2.73 35.72 2.73 35.43 3.12 35.43 3.12 35.14 3.5 35.14 3.5 34.85 3.89 34.85 3.89 34.56 4.28 34.56 4.28 34.26 5.06 34.26 5.06 34.56 4.67 34.56 4.67 34.85"/><polygon points="6.23 34.85 5.84 34.85 5.84 35.14 5.45 35.14 5.45 35.43 5.06 35.43 5.06 35.72 4.28 35.72 4.28 35.43 4.67 35.43 4.67 35.14 5.06 35.14 5.06 34.85 5.45 34.85 5.45 34.56 5.84 34.56 5.84 34.26 6.62 34.26 6.62 34.56 6.23 34.56 6.23 34.85"/><polygon points="1.56 34.85 1.17 34.85 1.17 35.14 0.78 35.14 0.78 35.43 0.39 35.43 0.39 35.72 0 35.72 0 35.43 0 35.14 0.39 35.14 0.39 34.85 0.78 34.85 0.78 34.56 1.17 34.56 1.17 34.26 1.95 34.26 1.95 34.56 1.56 34.56 1.56 34.85"/><polygon points="3.12 34.85 2.73 34.85 2.73 35.14 2.34 35.14 2.34 35.43 1.95 35.43 1.95 35.72 1.17 35.72 1.17 35.43 1.56 35.43 1.56 35.14 1.95 35.14 1.95 34.85 2.34 34.85 2.34 34.56 2.73 34.56 2.73 34.26 3.5 34.26 3.5 34.56 3.12 34.56 3.12 34.85"/><rect y="34.26" width="0.39" height="0.29"/><polygon points="31.54 35.14 31.93 35.14 31.93 35.43 32.32 35.43 32.32 35.72 31.54 35.72 31.54 35.43 31.15 35.43 31.15 35.14 30.76 35.14 30.76 34.85 30.37 34.85 30.37 34.56 29.98 34.56 29.98 34.26 30.76 34.26 30.76 34.56 31.15 34.56 31.15 34.85 31.54 34.85 31.54 35.14"/><polygon points="29.98 35.14 30.37 35.14 30.37 35.43 30.76 35.43 30.76 35.72 29.98 35.72 29.98 35.43 29.59 35.43 29.59 35.14 29.21 35.14 29.21 34.85 28.82 34.85 28.82 34.56 28.43 34.56 28.04 34.56 28.04 34.85 27.65 34.85 27.65 35.14 27.26 35.14 27.26 35.43 26.87 35.43 26.87 35.72 26.09 35.72 26.09 35.43 26.48 35.43 26.48 35.14 26.87 35.14 26.87 34.85 27.26 34.85 27.26 34.56 27.65 34.56 27.65 34.26 28.43 34.26 29.21 34.26 29.21 34.56 29.59 34.56 29.59 34.85 29.98 34.85 29.98 35.14"/><polygon points="34.66 35.14 35.05 35.14 35.05 35.43 35.44 35.43 35.44 35.72 34.66 35.72 34.66 35.43 34.27 35.43 34.27 35.14 33.88 35.14 33.88 34.85 33.49 34.85 33.49 34.56 33.1 34.56 33.1 34.26 33.88 34.26 33.88 34.56 34.27 34.56 34.27 34.85 34.66 34.85 34.66 35.14"/><polygon points="33.1 35.14 33.49 35.14 33.49 35.43 33.88 35.43 33.88 35.72 33.1 35.72 33.1 35.43 32.71 35.43 32.71 35.14 32.32 35.14 32.32 34.85 31.93 34.85 31.93 34.56 31.54 34.56 31.54 34.26 32.32 34.26 32.32 34.56 32.71 34.56 32.71 34.85 33.1 34.85 33.1 35.14"/><polygon points="37.77 35.14 38.16 35.14 38.16 35.43 38.55 35.43 38.55 35.72 37.77 35.72 37.77 35.43 37.38 35.43 37.38 35.14 36.99 35.14 36.99 34.85 36.6 34.85 36.6 34.56 36.22 34.56 36.22 34.26 36.99 34.26 36.99 34.56 37.38 34.56 37.38 34.85 37.77 34.85 37.77 35.14"/><polygon points="36.22 35.14 36.6 35.14 36.6 35.43 36.99 35.43 36.99 35.72 36.22 35.72 36.22 35.43 35.83 35.43 35.83 35.14 35.44 35.14 35.44 34.85 35.05 34.85 35.05 34.56 34.66 34.56 34.66 34.26 35.44 34.26 35.44 34.56 35.83 34.56 35.83 34.85 36.22 34.85 36.22 35.14"/><polygon points="40.89 35.14 41.28 35.14 41.28 35.43 41.67 35.43 41.67 35.72 40.89 35.72 40.89 35.43 40.5 35.43 40.5 35.14 40.11 35.14 40.11 34.85 39.72 34.85 39.72 34.56 39.33 34.56 39.33 34.26 40.11 34.26 40.11 34.56 40.5 34.56 40.5 34.85 40.89 34.85 40.89 35.14"/><polygon points="39.33 35.14 39.72 35.14 39.72 35.43 40.11 35.43 40.11 35.72 39.33 35.72 39.33 35.43 38.94 35.43 38.94 35.14 38.55 35.14 38.55 34.85 38.16 34.85 38.16 34.56 37.77 34.56 37.77 34.26 38.55 34.26 38.55 34.56 38.94 34.56 38.94 34.85 39.33 34.85 39.33 35.14"/><polygon points="44 35.14 44.39 35.14 44.39 35.43 44.78 35.43 44.78 35.72 44 35.72 44 35.43 43.61 35.43 43.61 35.14 43.23 35.14 43.23 34.85 42.84 34.85 42.84 34.56 42.45 34.56 42.45 34.26 43.23 34.26 43.23 34.56 43.61 34.56 43.61 34.85 44 34.85 44 35.14"/><polygon points="42.45 35.14 42.84 35.14 42.84 35.43 43.23 35.43 43.23 35.72 42.45 35.72 42.45 35.43 42.06 35.43 42.06 35.14 41.67 35.14 41.67 34.85 41.28 34.85 41.28 34.56 40.89 34.56 40.89 34.26 41.67 34.26 41.67 34.56 42.06 34.56 42.06 34.85 42.45 34.85 42.45 35.14"/><polygon points="47.12 35.14 47.51 35.14 47.51 35.43 47.9 35.43 47.9 35.72 47.12 35.72 47.12 35.43 46.73 35.43 46.73 35.14 46.34 35.14 46.34 34.85 45.95 34.85 45.95 34.56 45.56 34.56 45.56 34.26 46.34 34.26 46.34 34.56 46.73 34.56 46.73 34.85 47.12 34.85 47.12 35.14"/><polygon points="45.56 35.14 45.95 35.14 45.95 35.43 46.34 35.43 46.34 35.72 45.56 35.72 45.56 35.43 45.17 35.43 45.17 35.14 44.78 35.14 44.78 34.85 44.39 34.85 44.39 34.56 44 34.56 44 34.26 44.78 34.26 44.78 34.56 45.17 34.56 45.17 34.85 45.56 34.85 45.56 35.14"/><polygon points="50.23 35.14 50.62 35.14 50.62 35.43 51.01 35.43 51.01 35.72 50.23 35.72 50.23 35.43 49.84 35.43 49.84 35.14 49.45 35.14 49.45 34.85 49.07 34.85 49.07 34.56 48.68 34.56 48.68 34.26 49.45 34.26 49.45 34.56 49.84 34.56 49.84 34.85 50.23 34.85 50.23 35.14"/><polygon points="48.68 35.14 49.07 35.14 49.07 35.43 49.45 35.43 49.45 35.72 48.68 35.72 48.68 35.43 48.29 35.43 48.29 35.14 47.9 35.14 47.9 34.85 47.51 34.85 47.51 34.56 47.12 34.56 47.12 34.26 47.9 34.26 47.9 34.56 48.29 34.56 48.29 34.85 48.68 34.85 48.68 35.14"/><polygon points="53.35 35.14 53.74 35.14 53.74 35.43 54.13 35.43 54.13 35.72 53.35 35.72 53.35 35.43 52.96 35.43 52.96 35.14 52.57 35.14 52.57 34.85 52.18 34.85 52.18 34.56 51.79 34.56 51.79 34.26 52.57 34.26 52.57 34.56 52.96 34.56 52.96 34.85 53.35 34.85 53.35 35.14"/><polygon points="51.79 35.14 52.18 35.14 52.18 35.43 52.57 35.43 52.57 35.72 51.79 35.72 51.79 35.43 51.4 35.43 51.4 35.14 51.01 35.14 51.01 34.85 50.62 34.85 50.62 34.56 50.23 34.56 50.23 34.26 51.01 34.26 51.01 34.56 51.4 34.56 51.4 34.85 51.79 34.85 51.79 35.14"/><polygon points="54.91 35.14 55.3 35.14 55.3 35.43 55.69 35.43 55.69 35.72 54.91 35.72 54.91 35.43 54.52 35.43 54.52 35.14 54.13 35.14 54.13 34.85 53.74 34.85 53.74 34.56 53.35 34.56 53.35 34.26 54.13 34.26 54.13 34.56 54.52 34.56 54.52 34.85 54.91 34.85 54.91 35.14"/><polygon points="56.47 35.72 56.47 35.43 56.08 35.43 56.08 35.14 55.69 35.14 55.69 34.85 55.3 34.85 55.3 34.56 54.91 34.56 54.91 34.26 55.69 34.26 55.69 34.56 56.08 34.56 56.08 34.85 56.47 34.85 56.47 35.14 56.85 35.14 56.85 35.43 56.85 35.72 56.47 35.72"/><rect x="56.46" y="34.26" width="0.39" height="0.29"/><rect class="cls-20" x="46.85" width="10" height="40.15"/><rect class="cls-21" y="14.76" width="46.85" height="2.14"/><rect class="cls-22" y="14.76" width="46.85" height="1.93"/><rect class="cls-23" y="14.76" width="46.85" height="1.71"/><rect class="cls-24" y="14.76" width="46.85" height="1.5"/><rect class="cls-25" y="14.76" width="46.85" height="1.29"/><rect class="cls-26" y="14.76" width="46.85" height="1.08"/><rect class="cls-20" y="14.76" width="46.85" height="0.86"/><rect class="cls-21" x="46.85" width="10" height="2.14"/><rect class="cls-22" x="46.85" width="10" height="1.93"/><rect class="cls-23" x="46.85" width="10" height="1.71"/><rect class="cls-24" x="46.85" width="10" height="1.5"/><rect class="cls-25" x="46.85" width="10" height="1.29"/><rect class="cls-26" x="46.85" width="10" height="1.08"/><rect class="cls-20" x="46.85" width="10" height="0.86"/></g></g></svg>