<svg xmlns="http://www.w3.org/2000/svg" xmlns:xlink="http://www.w3.org/1999/xlink" viewBox="0 0 49.36 60.83"><defs><style>.cls-1,.cls-2{fill:none;}.cls-2{stroke:#381f0b;stroke-miterlimit:10;}.cls-3{fill:#998b52;}.cls-4{fill:#9d8f55;}.cls-5{fill:#a29358;}.cls-6{fill:#a6985b;}.cls-7{fill:#aa9c5d;}.cls-8{fill:#afa060;}.cls-9{fill:#b3a463;}.cls-10{fill:#b5a665;}.cls-11{fill:#b6a768;}.cls-12{fill:#b8a96a;}.cls-13{fill:#b9aa6c;}.cls-14{fill:#baab6f;}.cls-15{fill:#bcad71;}.cls-16{clip-path:url(#clip-path);}.cls-17{opacity:0.55;fill:url(#guarani_2);}.cls-18{fill:#9f9156;}.cls-19{fill:#a5965a;}.cls-20{fill:#ab9c5e;}.cls-21{fill:#b0a161;}.cls-22{fill:#b6a665;}.cls-23{fill:#bcac69;}.cls-24{fill:#bcac6a;}.cls-25{fill:#bcac6c;}.cls-26{fill:#bcad6d;}.cls-27{fill:#bcad6e;}.cls-28{fill:#bcad70;}</style><clipPath id="clip-path" transform="translate(0.82)"><path class="cls-1" d="M44.31,12.9S39.85,5,39.85,3.65H7.08C7.08,5,1.92,12.9,1.92,12.9c-4.22,3.33-.18,9.87-.18,9.87L9.05,60.83H39.14L44.5,22.77S48.53,16.23,44.31,12.9Z"/></clipPath><pattern id="guarani_2" data-name="guarani 2" x="0.82" width="15.5" height="15.91" patternUnits="userSpaceOnUse" viewBox="0 0 15.5 15.91"><rect class="cls-1" width="15.5" height="15.91"/><polygon points="6.09 8.03 0 0 0 0 0 2.17 4.45 8.03 0 13.78 0 15.91 6.09 8.03"/><polygon points="11.05 8.03 15.5 2.17 15.5 0 9.41 8.03 15.5 15.91 15.5 13.78 11.05 8.03"/><path d="M9.54.31m3.58,0M2.36,0m0,0L7.75,6.79,13.14,0h1.27L8.31,8l6.1,7.88H13.06L7.75,9.23l-5.3,6.68H1.1L7.2,8,1.1,0H2.36"/><polygon points="5.95 15.91 9.56 15.91 7.75 13.41 5.95 15.91"/><polygon points="0 10.15 1.64 8.03 0 5.86 0 10.15"/><polygon points="13.86 8.03 15.5 10.15 15.5 5.86 13.86 8.03"/><polygon points="7.75 2.5 9.56 0 5.95 0 7.75 2.5"/></pattern></defs><title>cesto0</title><g id="Layer_2" data-name="Layer 2"><g id="Layer_18" data-name="Layer 18"><path class="cls-2" d="M38.09,1.65S56.46,43,43.26,47.55s-34.6-34.4-29.9-38.7S38.09,1.65,38.09,1.65Z" transform="translate(0.82)"/><path class="cls-3" d="M44.31,12.9S39.85,5,39.85,3.65H7.08C7.08,5,1.92,12.9,1.92,12.9c-4.22,3.33-.18,9.87-.18,9.87L9.05,60.83H39.14L44.5,22.77S48.53,16.23,44.31,12.9Z" transform="translate(0.82)"/><path class="cls-4" d="M42.5,12.9S38.24,5,38.24,3.65H6.93C6.93,5,2,12.9,2,12.9c-4,3.33-.18,9.87-.18,9.87l7,38.06H37.56l5.12-38.06S46.53,16.23,42.5,12.9Z" transform="translate(0.82)"/><path class="cls-5" d="M40.69,12.9S36.63,5,36.63,3.65H6.78C6.78,5,2.09,12.9,2.09,12.9c-3.85,3.33-.17,9.87-.17,9.87L8.58,60.83H36l4.88-38.06S44.54,16.23,40.69,12.9Z" transform="translate(0.82)"/><path class="cls-6" d="M38.88,12.9S35,5,35,3.65H6.63C6.63,5,2.17,12.9,2.17,12.9-1.49,16.23,2,22.77,2,22.77L8.34,60.83H34.4L39,22.77S42.54,16.23,38.88,12.9Z" transform="translate(0.82)"/><path class="cls-7" d="M37.07,12.9S33.41,5,33.41,3.65H6.48C6.48,5,2.25,12.9,2.25,12.9c-3.47,3.33-.15,9.87-.15,9.87l6,38.06H32.82l4.4-38.06S40.54,16.23,37.07,12.9Z" transform="translate(0.82)"/><path class="cls-8" d="M35.26,12.9S31.79,5,31.79,3.65H6.33c0,1.36-4,9.25-4,9.25-3.28,3.33-.14,9.87-.14,9.87L7.86,60.83H31.24l4.17-38.06S38.54,16.23,35.26,12.9Z" transform="translate(0.82)"/><path class="cls-9" d="M33.45,12.9S30.18,5,30.18,3.65h-24C6.18,5,2.41,12.9,2.41,12.9c-3.09,3.33-.14,9.87-.14,9.87L7.63,60.83h22l3.93-38.06S36.54,16.23,33.45,12.9Z" transform="translate(0.82)"/><path class="cls-10" d="M32.6,12.9S29.52,5,29.52,3.65H6.89C6.89,5,3.33,12.9,3.33,12.9c-2.92,3.33-.13,9.87-.13,9.87L8.25,60.83H29l3.7-38.06S35.51,16.23,32.6,12.9Z" transform="translate(0.82)"/><path class="cls-11" d="M31.75,12.9S28.85,5,28.85,3.65H7.59C7.59,5,4.25,12.9,4.25,12.9c-2.74,3.33-.12,9.87-.12,9.87L8.87,60.83H28.39l3.48-38.06S34.48,16.23,31.75,12.9Z" transform="translate(0.82)"/><path class="cls-12" d="M30.89,12.9S28.19,5,28.19,3.65H8.29C8.29,5,5.17,12.9,5.17,12.9c-2.56,3.33-.11,9.87-.11,9.87L9.49,60.83H27.75L31,22.77S33.46,16.23,30.89,12.9Z" transform="translate(0.82)"/><path class="cls-13" d="M30,12.9S27.52,5,27.52,3.65H9C9,5,6.09,12.9,6.09,12.9,3.7,16.23,6,22.77,6,22.77l4.13,38.06h17l3-38.06S32.43,16.23,30,12.9Z" transform="translate(0.82)"/><path class="cls-14" d="M29.19,12.9S26.85,5,26.85,3.65H9.7C9.7,5,7,12.9,7,12.9c-2.21,3.33-.1,9.87-.1,9.87l3.83,38.06H26.48l2.8-38.06S31.4,16.23,29.19,12.9Z" transform="translate(0.82)"/><path class="cls-15" d="M28.34,12.9S26.19,5,26.19,3.65H10.41c0,1.36-2.48,9.25-2.48,9.25-2,3.33-.09,9.87-.09,9.87l3.52,38.06H25.85l2.57-38.06S30.37,16.23,28.34,12.9Z" transform="translate(0.82)"/><g class="cls-16"><rect class="cls-17" x="1.82" y="30.65" width="43.78" height="14.1"/></g><g class="cls-16"><rect class="cls-17" y="12.05" width="47.5" height="11.5"/></g><path class="cls-3" d="M39.16,0H5.86A2.77,2.77,0,0,0,3.09,2.78V6.3H41.94V2.78A2.78,2.78,0,0,0,39.16,0Z" transform="translate(0.82)"/><path class="cls-18" d="M38.13,0H6.45A2.77,2.77,0,0,0,3.67,2.78V6.3H40.91V2.78A2.77,2.77,0,0,0,38.13,0Z" transform="translate(0.82)"/><path class="cls-19" d="M37.1,0H7A2.78,2.78,0,0,0,4.25,2.78V6.3H39.88V2.78A2.77,2.77,0,0,0,37.1,0Z" transform="translate(0.82)"/><path class="cls-20" d="M36.07,0H7.61A2.77,2.77,0,0,0,4.84,2.78V6.3h34V2.78A2.77,2.77,0,0,0,36.07,0Z" transform="translate(0.82)"/><path class="cls-21" d="M35.05,0H8.2A2.77,2.77,0,0,0,5.42,2.78V6.3h32.4V2.78A2.77,2.77,0,0,0,35.05,0Z" transform="translate(0.82)"/><path class="cls-22" d="M34,0H8.78A2.78,2.78,0,0,0,6,2.78V6.3H36.79V2.78A2.77,2.77,0,0,0,34,0Z" transform="translate(0.82)"/><path class="cls-23" d="M33,0H9.36A2.77,2.77,0,0,0,6.59,2.78V6.3H35.76V2.78A2.77,2.77,0,0,0,33,0Z" transform="translate(0.82)"/><path class="cls-24" d="M30.94,0H9.9A2.77,2.77,0,0,0,7.12,2.78V6.3H33.71V2.78A2.77,2.77,0,0,0,30.94,0Z" transform="translate(0.82)"/><path class="cls-25" d="M28.89,0H10.43A2.78,2.78,0,0,0,7.65,2.78V6.3h24V2.78A2.77,2.77,0,0,0,28.89,0Z" transform="translate(0.82)"/><path class="cls-26" d="M26.84,0H11A2.77,2.77,0,0,0,8.19,2.78V6.3H29.61V2.78A2.77,2.77,0,0,0,26.84,0Z" transform="translate(0.82)"/><path class="cls-27" d="M24.79,0H11.5A2.77,2.77,0,0,0,8.72,2.78V6.3H27.56V2.78A2.77,2.77,0,0,0,24.79,0Z" transform="translate(0.82)"/><path class="cls-28" d="M22.74,0H12A2.78,2.78,0,0,0,9.25,2.78V6.3H25.51V2.78A2.77,2.77,0,0,0,22.74,0Z" transform="translate(0.82)"/><path class="cls-15" d="M20.69,0H12.56A2.77,2.77,0,0,0,9.79,2.78V6.3H23.46V2.78A2.77,2.77,0,0,0,20.69,0Z" transform="translate(0.82)"/></g></g></svg>