<svg xmlns="http://www.w3.org/2000/svg" xmlns:xlink="http://www.w3.org/1999/xlink" viewBox="0 0 30.59 63.15"><defs><style>.cls-1{fill:none;}.cls-2{fill:#63564b;}.cls-3{fill:#746558;}.cls-4{fill:#847565;}.cls-5{fill:#958472;}.cls-6{fill:#a6937f;}.cls-7{fill:#b6a38c;}.cls-8{fill:#c7b299;}.cls-9{opacity:0.55;fill:url(#guarani_2);}.cls-10{fill:#002311;}.cls-11{fill:#6b181e;}.cls-12{fill:#791b21;}.cls-13{fill:#881d23;}.cls-14{fill:#962026;}.cls-15{fill:#a42228;}.cls-16{fill:#b3242a;}.cls-17{fill:#c1272d;}.cls-18{fill:#851d23;}.cls-19{fill:#911f25;}.cls-20{fill:#9d2127;}.cls-21{fill:#a92329;}.cls-22{fill:#b5252b;}.cls-23{fill:#002f17;}.cls-24{fill:#003a1e;}.cls-25{fill:#004624;}.cls-26{fill:#00512a;}.cls-27{fill:#005c31;}.cls-28{fill:#006837;}</style><pattern id="guarani_2" data-name="guarani 2" width="15.5" height="15.91" patternUnits="userSpaceOnUse" viewBox="0 0 15.5 15.91"><rect class="cls-1" width="15.5" height="15.91"/><polygon points="6.09 8.03 0 0 0 0 0 2.17 4.45 8.03 0 13.78 0 15.91 6.09 8.03"/><polygon points="11.05 8.03 15.5 2.17 15.5 0 9.41 8.03 15.5 15.91 15.5 13.78 11.05 8.03"/><path d="M9.54.31m3.58,0M2.36,0m0,0L7.75,6.79,13.14,0h1.27L8.31,8l6.1,7.88H13.06L7.75,9.23l-5.3,6.68H1.1L7.2,8,1.1,0H2.36"/><polygon points="5.95 15.91 9.56 15.91 7.75 13.41 5.95 15.91"/><polygon points="0 10.15 1.64 8.03 0 5.86 0 10.15"/><polygon points="13.86 8.03 15.5 10.15 15.5 5.86 13.86 8.03"/><polygon points="7.75 2.5 9.56 0 5.95 0 7.75 2.5"/></pattern></defs><title>cocar0</title><g id="Layer_2" data-name="Layer 2"><g id="Layer_18" data-name="Layer 18"><path class="cls-2" d="M15.63,56.15C9.37,56.15,4.29,49.79,4.29,42s5.08-14.2,11.34-14.2S27,34.11,27,42,21.9,56.15,15.63,56.15Zm1.42-29.6c-7.47,0-13.54,8.19-13.54,18.3s6.07,18.3,13.54,18.3S30.59,55,30.59,44.85,24.53,26.55,17.05,26.55Z"/><path class="cls-3" d="M15.63,56.62C9.37,56.62,4.29,49.79,4.29,42S9.4,27.64,15.67,27.64,27,34.11,27,42,21.9,56.62,15.63,56.62Zm1.42-30.07c-7.47,0-13.54,8.19-13.54,18.3s6.07,18.3,13.54,18.3S30.59,55,30.59,44.85,24.53,26.55,17.05,26.55Z"/><path class="cls-4" d="M15.63,57.08C9.37,57.08,4.29,49.79,4.29,42S9.43,27.52,15.7,27.52,27,34.11,27,42,21.9,57.08,15.63,57.08Zm1.42-30.53c-7.47,0-13.54,8.19-13.54,18.3s6.07,18.3,13.54,18.3S30.59,55,30.59,44.85,24.53,26.55,17.05,26.55Z"/><path class="cls-5" d="M15.63,57.55C9.37,57.55,4.29,49.79,4.29,42S9.46,27.41,15.73,27.41,27,34.11,27,42,21.9,57.55,15.63,57.55Zm1.42-31c-7.47,0-13.54,8.19-13.54,18.3s6.07,18.3,13.54,18.3S30.59,55,30.59,44.85,24.53,26.55,17.05,26.55Z"/><path class="cls-6" d="M15.63,58C9.37,58,4.29,49.79,4.29,42S9.49,27.3,15.76,27.3,27,34.11,27,42,21.9,58,15.63,58Zm1.42-31.47c-7.47,0-13.54,8.19-13.54,18.3s6.07,18.3,13.54,18.3S30.59,55,30.59,44.85,24.53,26.55,17.05,26.55Z"/><path class="cls-7" d="M15.63,58.48C9.37,58.48,4.29,49.79,4.29,42s5.23-14.76,11.5-14.76S27,34.11,27,42,21.9,58.48,15.63,58.48Zm1.42-31.93c-7.47,0-13.54,8.19-13.54,18.3s6.07,18.3,13.54,18.3S30.59,55,30.59,44.85,24.53,26.55,17.05,26.55Z"/><path class="cls-8" d="M15.63,59C9.37,59,4.29,49.79,4.29,42S9.55,27.08,15.82,27.08,27,34.11,27,42,21.9,59,15.63,59Zm1.42-32.4c-7.47,0-13.54,8.19-13.54,18.3s6.07,18.3,13.54,18.3S30.59,55,30.59,44.85,24.53,26.55,17.05,26.55Z"/><path class="cls-9" d="M17.05,26.55c-7.47,0-13.54,8.19-13.54,18.3s6.07,18.3,13.54,18.3S30.59,55,30.59,44.85,24.53,26.55,17.05,26.55Zm-1.42,29.6C9.37,56.15,4.29,49.79,4.29,42s5.08-14.2,11.34-14.2S27,34.11,27,42,21.9,56.15,15.63,56.15Z"/><path class="cls-10" d="M23.9,51.68S21.75,46,21.75,45.6s.6-26.17.6-26.17l2.35-6.28L26,22.73,25.5,46.35l-.8,4.14Z"/><polygon class="cls-11" points="7.38 51.68 6.02 49.45 0 24.98 0.75 15.3 5.33 27.75 8.03 48.6 8.59 53.06 7.38 51.68"/><polygon class="cls-11" points="12.38 55.55 10.5 51.3 6.3 15.45 10.35 0 15.64 18.9 15.64 52.27 14.24 56.04 12.38 55.55"/><polygon class="cls-12" points="12.44 55.56 10.77 51.31 6.68 15.68 10.35 0 15.07 18.77 15.4 52.17 14.13 56.01 12.44 55.56"/><polygon class="cls-13" points="12.49 55.58 11.04 51.33 7.06 15.9 10.35 0 14.5 18.65 15.15 52.07 14.03 55.98 12.49 55.58"/><polygon class="cls-14" points="12.55 55.59 11.31 51.34 7.44 16.13 10.35 0 13.93 18.52 14.91 51.97 13.93 55.96 12.55 55.59"/><polygon class="cls-15" points="12.6 55.61 11.58 51.35 7.82 16.35 10.35 0 13.36 18.4 14.66 51.88 13.82 55.93 12.6 55.61"/><polygon class="cls-16" points="12.66 55.62 11.85 51.36 8.21 16.57 10.35 0 12.79 18.27 14.42 51.78 13.72 55.9 12.66 55.62"/><polygon class="cls-17" points="12.71 55.64 12.11 51.38 8.59 16.8 10.35 0 12.22 18.15 14.18 51.68 13.61 55.87 12.71 55.64"/><path class="cls-12" d="M19.79,55.17l-.89-5.44,4.8-26.48,2.93-5.62L27,25s-2.83,21-2.91,21.29S21.64,54,21.64,54Z"/><path class="cls-18" d="M19.92,55.08l-.77-5.34L24,23.45l2.68-5.82L27,25s-2.83,21-2.91,21.29S21.64,54,21.64,54Z"/><path class="cls-19" d="M20.06,55l-.66-5.24,4.8-26.1,2.43-6L27,25s-2.83,21-2.91,21.29S21.64,54,21.64,54Z"/><path class="cls-20" d="M20.2,54.91l-.55-5.15,4.8-25.91,2.18-6.22L27,25s-2.83,21-2.91,21.29S21.64,54,21.64,54Z"/><path class="cls-21" d="M20.34,54.82l-.44-5,4.8-25.72,1.93-6.42L27,25s-2.83,21-2.91,21.29S21.64,54,21.64,54Z"/><path class="cls-22" d="M20.48,54.73l-.33-4.94L25,24.25l1.68-6.62L27,25s-2.83,21-2.91,21.29S21.64,54,21.64,54Z"/><path class="cls-17" d="M20.62,54.65,20.4,49.8l4.8-25.35,1.43-6.82L27,25s-2.83,21-2.91,21.29S21.64,54,21.64,54Z"/><polygon class="cls-10" points="16.2 56.04 15.64 51.05 17.06 23.05 21.9 14.15 24.7 24.65 19.5 51.85 18.14 55.8 16.2 56.04"/><polygon class="cls-23" points="16.34 56.02 15.88 51.16 17.43 23.14 21.9 14.15 24.27 24.65 19.36 51.85 18.07 55.81 16.34 56.02"/><polygon class="cls-24" points="16.48 56 16.11 51.26 17.81 23.23 21.9 14.15 23.85 24.65 19.23 51.85 18 55.82 16.48 56"/><polygon class="cls-25" points="16.63 55.98 16.35 51.36 18.18 23.32 21.9 14.15 23.43 24.65 19.09 51.86 17.92 55.83 16.63 55.98"/><polygon class="cls-26" points="16.77 55.97 16.58 51.47 18.55 23.42 21.9 14.15 23 24.65 18.95 51.86 17.85 55.84 16.77 55.97"/><polygon class="cls-27" points="16.91 55.95 16.82 51.57 18.93 23.51 21.9 14.15 22.57 24.65 18.81 51.86 17.77 55.84 16.91 55.95"/><polygon class="cls-28" points="17.05 55.93 17.05 51.68 19.3 23.6 21.9 14.15 22.15 24.65 18.68 51.86 17.7 55.85 17.05 55.93"/><polygon class="cls-10" points="8.99 53.45 7.1 48.85 1.4 21.85 3 13.15 7.7 22.85 10.97 49.55 10.97 54.89 8.99 53.45"/><polygon class="cls-23" points="9.07 53.5 7.28 48.88 1.68 22.1 3 13.15 7.33 22.83 10.77 49.49 10.82 54.78 9.07 53.5"/><polygon class="cls-24" points="9.15 53.56 7.45 48.9 1.96 22.34 3 13.15 6.96 22.81 10.56 49.43 10.68 54.68 9.15 53.56"/><polygon class="cls-25" points="9.22 53.61 7.63 48.92 2.24 22.59 3 13.15 6.59 22.79 10.36 49.38 10.53 54.57 9.22 53.61"/><polygon class="cls-26" points="9.3 53.67 7.8 48.95 2.52 22.83 3 13.15 6.22 22.77 10.16 49.32 10.38 54.46 9.3 53.67"/><polygon class="cls-27" points="9.38 53.73 7.97 48.98 2.8 23.08 3 13.15 5.85 22.75 9.95 49.26 10.23 54.35 9.38 53.73"/><polygon class="cls-28" points="9.45 53.78 8.15 49 3.08 23.32 3 13.15 5.47 22.73 9.75 49.2 10.08 54.24 9.45 53.78"/></g></g></svg>