<svg xmlns="http://www.w3.org/2000/svg" viewBox="0 0 639.91 603.04"><defs><style>.cls-1{fill:#351e0c;}.cls-2{fill:#140904;opacity:0.44;}</style></defs><title>interior oca novo0</title><g id="Layer_2" data-name="Layer 2"><g id="Layer_18" data-name="Layer 18"><path class="cls-1" d="M318.33,2l-11.39-.49S-2.16,92.85,0,601.51H49.29V417.18a93.27,93.27,0,0,1,12-46.15,45.43,45.43,0,0,1,13.48-15.14c23.4-16,52.53-16,75.93,0A45.43,45.43,0,0,1,164.18,371a93.26,93.26,0,0,1,12,46.15V601.51H639.9C642.07,92.85,318.33,2,318.33,2Z"/><path class="cls-2" d="M67.24,601.51a1.49,1.49,0,0,0,2.89,0Z"/><path class="cls-2" d="M129.41,601.51a1.5,1.5,0,0,0,1.75,1.1,1.48,1.48,0,0,0,1.14-1.1Z"/><path class="cls-2" d="M49.29,544.61V507.92c-.29,2.89-.57,5.79-.79,8.69-2.44,28.1-3.51,56.33-3.25,84.54h0a1.5,1.5,0,1,0,3,0Q47.88,572.85,49.29,544.61Z"/><path class="cls-2" d="M618.19,421.05a726.66,726.66,0,0,0-20.85-87.3c-4.48-14.29-9.2-28.51-14.65-42.46l-2-5.25-2.12-5.2c-1.44-3.46-2.8-6.94-4.29-10.38l-4.5-10.29c-1.49-3.44-3.14-6.8-4.71-10.2-25.45-54.21-59.37-104.63-101.16-147.68q-15.65-16.16-32.73-30.84C419.8,61.68,408,52.37,395.76,43.72c-6.11-4.36-12.35-8.52-18.67-12.56s-12.76-7.91-19.3-11.59-13.18-7.2-19.94-10.48-13.52-6.34-20.63-9a1.2,1.2,0,0,0-.4-.11h-.35a1.52,1.52,0,0,0-.21,0l-.11,0L316,.13l-.14.07-.1.06-.17.14,0,0a1.37,1.37,0,0,0-.35.55l0,.1a1.34,1.34,0,0,0-.41.47s0,0,0,.07a1.44,1.44,0,0,0-.81.33,1.34,1.34,0,0,0-.21.2l-.24.21-.9-.71-.69.89-.62-.49-.6.76-.22,0,0,0c0-.12,0-.2,0-.23l-.27,0-.06-.07-.21-.29h0l-.36-.44s-.18.15-.45.38l-.57-.6-1.11,1.06-.85-.79,0,.06a1.6,1.6,0,0,0-.1-.23,1.5,1.5,0,0,0-2-.57,620.41,620.41,0,0,0-73.83,48.79c-11.59,9.14-23,18.48-33.88,28.5-5.53,4.88-10.77,10.09-16.1,15.19-2.65,2.57-5.18,5.25-7.77,7.88l-3.87,4c-1.3,1.31-2.52,2.7-3.78,4l-7.5,8.13-7.28,8.35c-1.2,1.4-2.43,2.77-3.61,4.19l-3.51,4.27c-2.32,2.87-4.72,5.67-7,8.59-9.16,11.57-17.78,23.56-26,35.79s-15.81,24.91-23,37.77-13.79,26.09-20,39.47-11.79,27-16.94,40.85-9.81,27.81-14,41.95A682.07,682.07,0,0,0,17.1,424.94a720.33,720.33,0,0,0-8.24,88c-.25,7.36-.34,14.73-.37,22.09s.12,14.73.36,22.09c.51,14.72,1.4,29.44,3.27,44-1.81-14.62-2.64-29.34-3.08-44-.21-7.36-.28-14.72-.27-22.09s.18-14.72.47-22.08a718.74,718.74,0,0,1,8.6-87.85,680.78,680.78,0,0,1,19.55-86q6.31-21.15,14.12-41.81c5.2-13.76,10.83-27.36,17.07-40.68s12.87-26.46,20.09-39.27,14.93-25.34,23.11-37.56,16.91-24.06,26.08-35.55c2.26-2.89,4.67-5.68,7-8.52l3.52-4.25c1.18-1.4,2.41-2.77,3.62-4.15l7.27-8.28,7.51-8.07c1.26-1.34,2.48-2.71,3.78-4l3.87-3.92c2.59-2.6,5.13-5.26,7.77-7.81,5.33-5.06,10.57-10.22,16.1-15.06,10.84-9.92,22.27-19.18,33.84-28.22q16.73-12.75,34.3-24.32a525.34,525.34,0,0,0-136.15,150.1C101,225.92,78.38,280.06,62.73,339A743.46,743.46,0,0,0,41,429.62c-.68,3.52-1.2,7.07-1.77,10.62l-1.69,10.63-1.46,10.67c-.49,3.55-1,7.11-1.37,10.68-.81,7.13-1.69,14.25-2.29,21.41l-1,10.72-.76,10.74q-3,43-1.9,86.08h0a1.5,1.5,0,0,0,1.54,1.46,1.51,1.51,0,0,0,1.46-1.55q-1.22-42.92,1.52-85.83L34,504.55l.94-10.69c.57-7.14,1.41-14.24,2.19-21.36.36-3.56.84-7.1,1.32-10.65l1.41-10.64,1.63-10.61c.56-3.54,1.07-7.08,1.73-10.6q3.43-20.14,8-40.11C29,507,40.64,600.35,40.76,601.32l2.83-.37c-.11-.89-9.92-79.61,5.7-183v-.77A95.14,95.14,0,0,1,55.21,384c.58-2.88,1.16-5.77,1.78-8.68a683,683,0,0,1,17.67-66.84q7.7-21.74,16.82-42.95c5.63-13.16,11.77-26.11,18.28-38.86s13.39-25.32,20.76-37.61a639.58,639.58,0,0,1,48.85-70.62,596.8,596.8,0,0,1,58.17-63.2c3.81-3.58,7.7-7.08,11.61-10.55Q261.48,34.6,274.81,25c-24.85,21.67-61.57,58.6-97.58,113a681.18,681.18,0,0,0-73.65,148.64q-4.89,12-9.42,24.15-7.3,19.86-13.56,40.07l-.55,1.85c.77-.44,1.55-.86,2.33-1.26v-.05q4.76-15.46,10.06-30.77c-.32,1.08-.66,2.15-1,3.23Q87.54,337,84.06,350.52c1.19-.58,2.4-1.11,3.61-1.61a753.06,753.06,0,0,1,31.49-94.55Q123.93,244,129,233.73c6.25-12.6,12.89-25,19.82-37.26a744.41,744.41,0,0,1,45.74-70.94A719.35,719.35,0,0,1,248.12,60.3q14.38-15.46,29.73-30,6.84-6.45,13.93-12.63l-.18.21-1.1,1.3C267.84,41.49,228.14,85.12,189,150a796.45,796.45,0,0,0-81.82,187.11c-.71,2.42-1.39,4.85-2.07,7.28,1.08-.13,2.16-.22,3.25-.3q4.33-15.18,9-29.62l6.79-18.5c.61-1.62,1.16-3.27,1.82-4.87l1.95-4.82,3.91-9.63,3.9-9.64,4.21-9.51,4.21-9.5,2.11-4.75c.73-1.58,1.5-3.13,2.24-4.69l9-18.74,9.57-18.47q19.59-36.69,42.67-71.38,11.22-16.79,23.23-33A556.71,556.71,0,0,0,201.5,159a879.31,879.31,0,0,0-75.82,185.78c0,.15-.08.3-.13.45,1,.2,2,.43,3,.68l1.65-5.05c.54-1.62,1-3.25,1.61-4.85l1.71-4.81,3.44-9.61,3.44-9.62c1.17-3.19,2.45-6.35,3.66-9.53l3.7-9.52c1.25-3.16,2.4-6.37,3.75-9.49l7.87-18.84c1.28-3.16,2.72-6.24,4.1-9.36l4.16-9.32c1.4-3.1,2.73-6.24,4.2-9.3l4.38-9.23,0-.09a849.63,849.63,0,0,0-22.92,91.86q-3.84,11.82-7.37,23.66-1.46,4.29-2.88,8.6c1,.52,2,1.05,3,1.62q1.47-5.08,3-10.12-.9,5.4-1.76,10.85c.71.43,1.42.87,2.12,1.33q2.31-14.78,5.21-30.25,3.59-11.26,7.31-22.14,2.67-6.9,5.41-13.76l-1.58,6.48-2.09,9.7-4.13,19.41L156,344l-1.78,9.76-.66,4.29c.56.47,1.11.95,1.65,1.46l.81-5.45,1.73-9.75,3.49-19.5,4-19.39,2-9.69,2.3-9.64c.5-2.16,1-4.31,1.53-6.47q9.61-23.43,20.06-46.49-11.31,38.69-19.81,80.36-8.07,24.09-14.79,47.35a45.65,45.65,0,0,1,3.24,3.67q2.52-8.34,5.15-16.64c-1.1,6.42-2.13,12.91-3.12,19.43.68,1,1.34,2,2,3.09q3.09-20.37,6.66-39.4,3-9,6.11-17.91c-.67,3.57-1.33,7.14-2,10.74q-4.48,25.44-7.92,51.93a89.91,89.91,0,0,1,4.19,10l.65-4.32c.44-1.74.9-3.47,1.35-5.21q-.83,5.31-1.61,10.64.9,2.67,1.63,5.42,2.93-20.21,6.32-39.24c6.63-23.4,13.86-46.47,21.31-68.66q-5.6,26-10.18,52.74c-6.14,36-10.87,73.17-14.17,111.21v39.54q.35-5.64.72-11.22c8.67-104.93,27.84-192.52,47.91-260.15q5.37-14.16,10.77-27.83-4.57,14.41-8.74,28.95c-7.1,24.86-13.37,49.94-19,75.17-2.63,12.65-5.41,25.28-7.67,38l-1.78,9.53-.89,4.76-.79,4.78L193.55,369c-.26,1.6-.54,3.19-.78,4.79l-.69,4.79-1.37,9.6-1.37,9.6-.69,4.8-.58,4.81c-1.51,12.84-3.22,25.65-4.35,38.53a1500.18,1500.18,0,0,0-7.31,154.9h0a1.5,1.5,0,0,0,3,.29l1.22,0c1.3-113.49,17-217.26,36.27-302.77q-4.38,23-8.05,46.42c-12.81,81.94-19,168.08-18.44,256h2.85c0-1,0-2,0-3l1.09-.06q-.81-14.85-.92-30.11,2.63-60,9.56-119.73l2.39-19,1.2-9.51,1.35-9.48,2.72-19,3-18.92,1.53-9.45,1.66-9.44c1.13-6.28,2.19-12.58,3.37-18.86l3.63-18.81.91-4.7,1-4.69.34-1.6.63-2.82q-1.41,11-2.7,22.27-4.2,36.76-7,75.65c-9.29,59.91-14.95,119.56-12.85,170q-.56,15.48-.83,31.23l2.85.05c0-1.14,0-2.27.07-3.41.14,1.29.29,2.57.44,3.84L209,601c-1-8-1.72-16.28-2.2-24.87,1.12-35.21,3.28-69.38,6.22-102.26-1.48,41-1.89,83.41-1.2,127l2.31,0q-.2-11.84-.26-23.38.6,10.05,1.49,20.1-.93-11.14-1.5-22.31c-.26-43.78.63-84.6,2.39-122.56.16-2.15.32-4.3.55-6.44l1.83-18.85c.28-3.14.67-6.27,1-9.41l1.1-9.4,1.11-9.4,1.27-9.38c.87-6.26,1.66-12.52,2.6-18.76,3.69-25,8.05-49.85,12.81-74.64.38-1.9.77-3.81,1.15-5.71l1.17-5.4C234.75,329.43,229.45,379.73,226,436a1097.68,1097.68,0,0,0-4.21,112.57q-.34,25.49-.16,52.22h2.31c0-2.35,0-4.67,0-7,.1,1.28.19,2.55.3,3.82l2.84-.23c-1.92-23.21-2.69-47.21-2.52-71.57q.72-31.58,2.2-61.1c5.87-93,22.39-186.33,37.94-258.08q1.2-5.58,2.42-11.05-4.28,24.17-8.47,52.22-4.84,25.67-9.12,51.45c-8.15,49.86-14.63,100.05-17.69,150.53q-1.14,18.93-1.52,37.9t.21,37.94a515.93,515.93,0,0,0,4.17,51.92c0,7.69,0,15.43,0,23.26h2.31c0-2.9,0-5.78,0-8.66q.79,4.5,1.71,9h0a1.5,1.5,0,1,0,2.94-.62c-1.89-9-3.4-18.08-4.6-27.2q.26-41.09,1.72-79.3c-.26,31.28,1.12,61,4.74,87.84q-.16,9.42-.28,18.95l2.31,0c0-1.77,0-3.54.07-5.31.32,1.87.65,3.73,1,5.56l2.8-.53c-1.36-7.22-2.52-14.73-3.5-22.47,1.7-85.16,7.32-164.3,14.44-233.73-.42,10.34-.81,20.68-1.26,31l-.39,9.42-.2,9.41L258,413l-.76,35.18c-2.45,50.7-3,101.68-.38,149.36l1.25-.07.06,3.92h0a1.5,1.5,0,0,0,3-.06v0l-1.53-75.3c-.16-25.1-.13-50.21-.21-75.31v-.13c1.2-25.49,2.89-50.93,4.91-75.87-1.86,65.09-2.26,140.46-.19,226.69l2.85-.07c-2.64-110.09-1.26-202.47,2.05-278.3,4.26-42.24,9.22-81.92,14-116.57,2.32-16.72,4.69-32.81,7-48.12q-2.69,29.44-4.78,58.94-.61,5.43-1.24,10.94C271.37,342,258.87,499,271.53,601l2.29-.29c-11.12-89.61-2.76-221.87,8.06-329.76q-.87,15.19-1.65,30.39l-1.79,37.49-1.31,37.5L276.47,395,276,413.8l-.83,37.51-.2,9.38-.08,9.38-.18,18.77-.35,37.52.24,75h0a1.5,1.5,0,0,0,3,0v0l-.61-75,.16-37.51.08-18.75,0-9.38.15-9.37.64-37.51.34-18.75.56-18.74,1.13-37.5,1.59-37.47q1.35-29.13,3-58.23.81-7.43,1.61-14.64.66-5.85,1.32-11.64c-6,95.81-10.46,223.88-8.68,384.54l2.85,0c-.72-64.86-.41-124.4.59-178.65-.5,53.7-.36,113.14.68,178.68l2.31,0c-2.66-169,.58-297.44,5.53-391.2q1.68-26.18,3.48-49c3.45-27,6.87-51.88,10-73.45-5.87,93.51-13.31,264.34-11.49,513.69h2.31c-2-277.89,7.44-458.2,13.43-542.62C310.29,48,311.75,38.54,313,30.68c-1.63,23.63-4,62-6.36,114.06-.14,2.48-.28,5-.41,7.45-2.62,49.86-4.55,99.76-6.07,149.66l-1,37.43c-.34,12.48-.54,25-.81,37.44-.59,25-.85,49.93-1.2,74.89-.2,12.48-.25,25-.33,37.45l-.23,37.45.05,74.9h0a1.5,1.5,0,0,0,3,0l2.09,0C300.2,377,306,210,311.13,110.19,308.26,210,305,377.05,306,601.4h2.31c-1.14-264.29,3.61-449,6.65-538,0,29.18.21,67.39.73,111.25-.09,107.13-.92,256.74-3.87,426.76h.65l2.2,0v0l2.16,0c1.14-99.72,1.66-192.41,1.82-273.63,1.95,89.61,4.95,185.49,9.58,270.38h.2c-.07,1.09-.13,2.19-.2,3.29l2.3.14q.54-8.58,1-17.11.54,6.91,1.11,13.74l.29,0c-.1,1.06-.19,2.12-.29,3.18l1.4.14a1.5,1.5,0,0,0,3,.16l2.55-29.33.18,1.68q-.36,13.56-.78,27.45l2.31.07q.17-5.41.32-10.78.63,5.47,1.29,10.78l2.29-.29c-1.08-8.71-2.12-17.84-3.12-27.32q.61-23.55,1-46l.06-1.1.13-2.14c2.14,17.25,4.45,33.78,6.93,49.35q-.56,13.54-1.2,27.44l2.85.14q.33-7,.62-13.82.71,4.08,1.43,8l-.22,5.7.24-5.57c.25,1.35.5,2.68.74,4,0,.51,0,1,0,1.54h.31l0,.16.79-.15,1.18,0v-.24l.82-.16c-.26-1.36-.51-2.73-.76-4.11,0-1.34,0-2.67.05-4,.57,2.89,1.14,5.79,1.74,8.68h0a1.5,1.5,0,1,0,2.94-.62c-1.61-7.6-3.09-15.22-4.49-22.86q.47-41.33.33-79.08l.24-10.4.42-18.8c.13-6.27.34-12.53.28-18.8l0-37.62,0-18.81c-.08-6.27-.25-12.53-.37-18.8l-.79-37.61c0-3.14-.18-6.27-.32-9.4l-.41-9.4-.82-18.79c-2.34-50.1-5.94-100.18-12.09-150-.32-3.12-.79-6.22-1.2-9.33l-1.25-9.33-2.52-18.65-2.95-18.59-1.47-9.3c-.23-1.49-.5-3-.77-4.45q2.79,8.9,5.78,18.57,1.74,9.73,3.47,20.64c12.81,80.89,27.52,230,24.82,481.21l2.32,0c2.47-230.53-9.71-375.22-21.66-460.14,14.35,86.27,29.69,234.5,24.47,460.1l2.85.06c4.07-175.63-4.32-304.44-15-393.69,3.57,22.43,7.07,47.06,10.24,73.53l1.46,17.7,1.57,18.85L375,336.81l2.13,37.77.27,4.72.14,4.72.29,9.46.59,18.9.58,18.9.29,9.45c.09,3.15.22,6.3.21,9.46L379.7,488l.12,18.91.06,9.46,0,4.73-.08,4.72-1.28,75.64v0h0a1.5,1.5,0,0,0,3,0v-.08l1.72.11c8.37-134.75-1.35-258.74-14.36-353.61l-2.82-24.31-1.1-9.4-1.36-9.36-2.72-18.73-1.36-9.37-.68-4.68c-.23-1.56-.53-3.11-.8-4.66l-2.22-12.61c3.72,12.89,7.51,26.31,11.29,40.14,15.94,91.75,30.13,227.36,24.59,406.48l2.31.07v0l1.45,0c2.53-155-4.76-271.25-15.16-356.59,2.86,11.3,5.74,22.95,8.57,34.87l1.81,16.6c.74,6.32,1.27,12.66,1.86,19l1.74,19,1.45,19c.48,6.35,1,12.69,1.34,19l1.16,19.06c.18,3.18.4,6.35.56,9.53l.43,9.54c.56,12.71,1.24,25.42,1.56,38.15,1.7,50.89,2,101.82,1.23,152.74,1-50.91,1-101.85-.48-152.76-.26-12.74-.87-25.45-1.37-38.18l-.39-9.54c-.14-3.18-.34-6.36-.51-9.54l-1.06-19.07c-.32-6.36-.8-12.71-1.25-19.06l-1.36-19.05-1.65-19c-.56-6.35-1.06-12.7-1.76-19l-.45-4.28q1,4.2,1.94,8.45c9.42,79.26,15.56,178.79,13.69,301.06l2.32,0c1.53-100.93-2.21-194.8-11.12-279.12,5.45,25.12,10.54,50.91,14.94,76.66,5.18,62.59,6.05,130.93-.69,202.3l2.83.27q3.7-39.17,4.57-79.3.63,37.77.21,79.16l2.31,0c.61-56.57-.34-110.41-2.83-161.18,4,29.09,6.91,57.62,8.1,84.53-.57,25.56-2.68,51-5.11,76.48v0h0a1.5,1.5,0,0,0,3,.28L426,601l2.19.27q1.22-9.76,1.9-20.44-.36,10.21-.85,20.61l2.85.14c2.63-55.93,2.52-110.43-.27-163,7.64,54,11.52,108.48,8.76,159.18l2.18.12c-.06,1.21-.11,2.41-.17,3.62.07-1.21.12-2.41.19-3.62h.11c.26-4.83.44-9.76.59-14.72,1.95-45.63,1.91-91.36-.41-137,0-.07,0-.14,0-.2,5.19,39.41,8.91,80.87,10.48,123.89q-.11,15.54-.47,31.59l2.85.06v-.41h.68c-.06-6-.19-12-.35-18a1688.06,1688.06,0,0,0-5.92-170.87,1328.18,1328.18,0,0,1,12.48,188.87h2.31v-1.3l1.42.09q1.26-20.14,1.58-40.57c0,.9,0,1.81,0,2.72l-.64,39.39v0h0a1.5,1.5,0,1,0,3,0l.46-39.47c-.08-13.15-.3-26.3-.44-39.46-.38-13.15-.93-26.29-1.39-39.44l-1.2-19.7-.6-9.84c-.22-3.28-.36-6.57-.68-9.84-1-11.9-2-23.79-3.25-35.66q4.26,30.25,7.23,63c2.17,40,3.06,83.41,2.29,130.37l2.85,0c0-.56,0-1.12,0-1.68h.06c0,.43,0,.85,0,1.27l2.31,0q.14-17.89-.19-35.6.39-62.82-5-122.76c11.82,57.83,16.62,113.34,8.18,158.09l2.8.53q1-5.48,1.81-11.24,0,5.45-.13,11l2.31,0q.31-19.26.12-38.22a390.37,390.37,0,0,0-1.18-46.12,1269.72,1269.72,0,0,0-12.35-133.45q3.09,10.41,6,20.89h0c7.27,57.4,11.27,122.42,10.16,195.58h.33c0,.55,0,1.11,0,1.66,0-.55,0-1.11,0-1.66l2,0a1429.85,1429.85,0,0,0-7.36-172.6c-.16-1.81-.31-3.61-.47-5.41q2.64,10.51,5,21.09c1.1,4.89,2.13,9.8,3.12,14.72,6.86,83.24,3.17,142.61,3.12,143.38l2.19.14a1.49,1.49,0,0,0,1.19,1.41,1.51,1.51,0,0,0,1.77-1.17q1.35-6.62,2.27-13.29c0,1.74,0,3.5,0,5.25-.1,1.44-.2,2.88-.32,4.32l.29,0c0,.71,0,1.4,0,2.11l2.31,0c0-.65,0-1.29,0-1.94l.24,0c2.32-28,1.72-58.37-1.78-90.75q-2.79-62.07-10.37-118.7c17,64.8,28.82,136.54,30.14,212.66l2.85,0q-.24-13.5-.92-27.06.24-8.24.16-16.49l-.07-5c0-1.68,0-3.36-.14-5l-.43-10.07-.7-10.06c-.19-3.36-.6-6.69-.89-10a616.64,616.64,0,0,0-13.34-79.5q-4.62-19.63-10.15-39-2.83-9.78-5.86-19.49-2-7.39-4.13-14.77-5.12-33-11.93-63.82-3.14-14.2-6.64-27.95l4,9.29c1.4,3.13,2.68,6.31,3.95,9.49l3.85,9.53,3.85,9.54,3.6,9.63,3.58,9.63c1.18,3.22,2.45,6.4,3.51,9.66L505,359c.54,1.63,1.12,3.24,1.64,4.87l1.32,4.31a887.39,887.39,0,0,1,29.18,233l2.85,0c0-.45,0-.9,0-1.35l2.16.2q2.39-25.32,2.61-51l.93,11.11c.26,3.42.61,6.83.81,10.25l.44,10.28.87,20.55-.78-20.56-.39-10.28c-.19-3.42-.52-6.84-.77-10.26l-1.1-14c.24-58.78-7.95-119-24.52-179.64C502.94,303,476.47,238.88,441.6,175.94c-1.09-2-2.19-3.93-3.28-5.87q-3.61-8.72-7.41-17.15,14.79,23,28.08,46.83c6.81,12.2,13.23,24.6,19.39,37.14s12,25.21,17.47,38.06a801.16,801.16,0,0,1,28.67,77.81c17.58,61.71,30,132.65,32.14,212.56q-.15,17-1,34.47l1.27.06c0,.43,0,.84,0,1.27l2.85,0q.2-17.94-.28-35.7.08-8,0-15.94,1.35,25.77,1.14,51.61h0a1.5,1.5,0,1,0,3,0v-.08a1.38,1.38,0,0,0,.76.3,1.5,1.5,0,0,0,1.64-1.34,555.06,555.06,0,0,0,2.06-83.65l-.26-5.23-.14-2.61-.2-2.61-.8-10.44c-.27-3.47-.69-6.94-1-10.41l-.53-5.21c-.18-1.73-.43-3.46-.64-5.19l-1.34-10.38L561.62,454c-.49-3.45-1.12-6.88-1.73-10.32s-1.17-6.87-1.88-10.29a684.36,684.36,0,0,0-32.65-113.51,711.56,711.56,0,0,0-80.08-174.27c-.42-.66-.84-1.3-1.27-2a749.64,749.64,0,0,1,72.36,126.71c1.08,2.41,2.13,4.83,3.19,7.25C551.62,360.83,575,468,571.85,601.1l2.84.07c2.19-91.3-7.84-177.54-29.81-256.73a763.12,763.12,0,0,1,22.78,87.64q3.58,18.07,6.27,36.3a971.86,971.86,0,0,1,5.59,131.45l2.85.06q.23-10.07.27-20,.12,10.62,0,21.25v0a1.5,1.5,0,0,0,3,0q.28-33.06-2-66.08-.24-10.26-.75-20.51c-.27-7.1-.86-14.19-1.35-21.29-.21-3.55-.6-7.09-.92-10.63l-1-10.62-1.24-10.6-.62-5.3-.73-5.28-1.48-10.57c-.53-3.52-1.13-7-1.7-10.53A711.72,711.72,0,0,0,555,346.52q-4.59-15.45-9.78-30.72c-21.54-68.23-52.3-130.31-91.43-184.53-11.38-15.77-22.83-30-34-42.64q13,13.83,25.12,28.42a638.29,638.29,0,0,1,50.29,69.71C534.37,252.12,557,319,570,375.28,598.49,498.89,588.33,600,588.22,601l2.84.3c.1-1,10.31-102.49-18.31-226.55a711.22,711.22,0,0,0-22.47-77.46q1.25,3.18,2.42,6.38c2.61,6.73,4.91,13.57,7.32,20.37l3.37,10.28,1.68,5.15,1.56,5.18c4.3,13.77,8,27.74,11.4,41.75,1.6,7,3.32,14,4.72,21.11.72,3.54,1.49,7.06,2.17,10.6l2,10.64a781.73,781.73,0,0,1,10.53,85.87q.69,9.92,1.13,19.85.75,17.77.92,36.33.07,15.15-.35,30.31h0a1.5,1.5,0,1,0,3,.07c0-.43,0-.86,0-1.29h.08c.09-5.85.14-11.66.15-17.46s0-11.7-.11-17.56c-1.35-97.41-15.16-186.2-41.18-264.37q-1.5-4.5-3.07-9a706,706,0,0,1,37.51,134.36c10.09,57.35,13.69,115.76,12.1,173.94h0a1.5,1.5,0,0,0,3,.07C612,541.53,608.09,483,597.72,425.48s-27.49-113.76-52-166.78L544.49,256c-18.76-45.2-42-86.36-69.36-122.94l2.19,2.61c2.35,2.84,4.78,5.62,7.07,8.51,9.3,11.46,18.07,23.34,26.49,35.46s16.18,24.69,23.61,37.44,14.23,25.87,20.67,39.16,12.31,26.85,17.75,40.57,10.41,27.65,14.88,41.73a697.25,697.25,0,0,1,21.28,86,732.3,732.3,0,0,1,10.53,88q1.3,22.13,1.21,44.31c-.11,14.78-.59,29.57-2.06,44.28,1.53-14.7,2.07-29.5,2.25-44.28s-.22-29.57-1-44.33a734.53,734.53,0,0,0-10.17-88.1,697.68,697.68,0,0,0-20.95-86.18q-6.61-21.18-14.73-41.87c-5.39-13.77-11.2-27.4-17.61-40.74s-13.21-26.5-20.57-39.35-15.21-25.4-23.52-37.66-17.15-24.16-26.43-35.7c-2.29-2.91-4.72-5.71-7.07-8.57l-3.55-4.27c-1.19-1.41-2.44-2.78-3.66-4.18l-7.34-8.33-7.58-8.12c-1.28-1.35-2.51-2.73-3.81-4l-1.17-1.18C420.75,68.56,390,43.79,365.75,27.4q5,3,9.88,6.06c6.3,4,12.53,8.1,18.62,12.41,12.22,8.55,24,17.76,35.34,27.43s22.28,19.88,32.71,30.56c41.78,42.69,75.81,92.78,101.42,146.75,1.57,3.39,3.23,6.74,4.74,10.16L573,271c1.5,3.42,2.87,6.9,4.32,10.35l2.14,5.18,2,5.22c5.5,13.9,10.28,28.08,14.8,42.32a724.87,724.87,0,0,1,21.19,87.1C628,480.06,632.07,540,631.1,599.86,632.32,540.05,628.54,480,618.19,421.05ZM237.28,55a597,597,0,0,0-58.49,63,640.07,640.07,0,0,0-49.24,70.51c-7.43,12.28-14.37,24.85-21,37.59q-8.34,16.17-15.79,32.8c29.43-71.11,75.89-145.74,149.08-208.1C240.35,52.2,238.8,53.59,237.28,55Zm-30.6,463.93c1-22.26,3-45.55,5.78-69.3Q209,483.34,206.68,518.93Zm11.09-91.65-.55,6c.05-.8.09-1.6.14-2.4.15-1.39.31-2.77.47-4.15Zm60-397.11c-10.3,9.61-20.23,19.6-29.87,29.87a718.21,718.21,0,0,0-53.92,65.05,743,743,0,0,0-46.1,70.82q-8.15,14.22-15.7,28.76a651.31,651.31,0,0,1,47.38-85C229.61,64,281.05,22.24,299.63,8.57q-1,1.26-2.28,2.79c-1.72,1.88-3.4,3.8-5.06,5.73Q284.88,23.48,277.72,30.17Zm19-18q-1.28,1.59-2.72,3.45l-.55.46-.69.61Q294.71,14.39,296.72,12.15Zm-5.05,5.79.62-.72c.41-.36.81-.73,1.23-1.08l.21-.19-.21.28q-1.09,1.05-2.25,2.19ZM302,12.14l-.74,3c-.61,1-1.26,2-1.93,3.13-.52.76-1,1.51-1.55,2.27l-.42.47c-1.09,1.11-2.19,2.21-3.29,3.32l-7.21,7.5-.65.69C292.53,23.71,297.93,17,302,12.14ZM271.11,204.43c.86-9,1.75-18,2.72-27q2.32-10.89,4.72-21.75-1.1,10-2.19,20.94Q273.72,190.24,271.11,204.43Zm2.47,2.33q-1.09,12.77-2.14,26.6-3.18,22.53-6.31,47.45l.5-8.83c.15-3.13.45-6.26.67-9.39l2-26.19q.68-3.92,1.34-7.76Q271.6,217.57,273.58,206.76ZM273,177.31c-.52,2.38-1,4.76-1.56,7.14q1-5.19,1.91-10.19C273.19,175.28,273.07,176.3,273,177.31Zm-9.48-29.66q-11,36.75-20.31,74-3.07,12.15-5.93,24.35c5.18-31.22,10.78-58.54,16.34-82.11,10.78-33.33,21.43-62.28,30.85-86.06q-4.26,14.2-8.82,31.11Q269.29,128.2,263.48,147.65Zm10.07-18.86q-2.6,9.12-5.22,18.82c.68-3,1.37-5.84,2.05-8.69Q272,133.78,273.55,128.79Zm-82,128.54c5.53-22.71,11.44-43.48,17.47-62.34q9.76-20.12,20.09-39.94-11.5,29.32-21.06,59.37L206,221.3Q198.45,239.48,191.58,257.33Zm14.16-28q-1.68,5.68-3.31,11.41c-1,2.55-2.07,5.11-3.1,7.66q1.42-5.15,2.86-10.29Zm-8.09,20.28c-.22.79-.44,1.58-.67,2.37-.74,2.51-1.42,5-2.09,7.59q-4.83,12.27-9.48,24.62l1.17-5.32Q192.05,263.9,197.65,249.61Zm90.52-191c-4.17,9-8.69,19-13.48,29.72q2-6.06,3.95-11.66c.64-1.43,1.28-2.87,1.93-4.29,1.81-4,3.68-8,5.58-12q3.9-7.65,7.84-15.28l-.16.74Q291.12,51.82,288.17,58.61Zm3.4,4c0,.09,0,.19-.05.28l-.32.87C291.33,63.34,291.45,63,291.57,62.57Zm-48.45,60.52c2.37-5.63,4.93-11.17,7.48-16.71q2.33-4.09,4.61-8-4.41,9.36-8.94,19.63-2.39,4.37-4.73,8.76Zm-4.53,8.7c-.33.77-.64,1.54-1,2.31-1.1,2.07-2.22,4.14-3.31,6.22q-10.6,20.22-20.67,40.72,2.67-7.89,5.35-15.29c9.54-19.26,19-37.06,28.15-53.28-1.59,3.44-3.15,6.88-4.63,10.35Zm-10,8.85.33-.83c5.36-13.22,10.75-25.39,16.06-36.56q11.26-17.58,23.21-34.72l3.29-4.7L268.15,70c-1.57,2.83-3,5.72-4.52,8.59C252.75,96.53,240.84,117.32,228.61,140.64Zm38-66.92c.61-1.19,1.23-2.37,1.87-3.55l4.63-8.62.06-.11.89-1.27,2.19-3q-2.22,4-4.54,8.36Q269.21,69.48,266.61,73.72Zm.7,5.2q-1.55,3.36-3.12,6.85-1.2,2.1-2.39,4.2Q264.59,84.26,267.31,78.92Zm.65,5.42c2.48-4.29,5-8.58,7.48-12.85,2.18-3.7,4.41-7.39,6.62-11.08-.23.62-.47,1.25-.7,1.88C274,76,265.9,91.63,257.28,108.92Q262.73,95.8,268,84.34Zm14-29c.52-1,1-2,1.55-3,1.15-1.77,2.27-3.48,3.37-5.15C285.23,49.88,283.58,52.6,282,55.33ZM287.42,57c-.54,1.11-1.07,2.23-1.61,3.34q-2.26,4.39-4.52,8.81L282.1,67Q284.83,61.82,287.42,57Zm-6.28,13.25-.91,2c0,.09-.08.18-.13.27.08-.2.15-.4.22-.6C280.59,71.35,280.86,70.81,281.14,70.27Zm8-35.35q-1.38,1.83-2.75,3.68l.93-1.51,1.85-2.21Zm-4,5.32-.21.36L283.84,42c-2,2.75-4,5.49-6,8.27l-5.94,8.33L266.05,67Q260.25,75.44,254.6,84q4.7-9,9.2-17c8.19-11,15.81-20.62,22.59-28.8ZM261.42,65.41c-7,9.46-14.49,20-22.19,31.44q8.33-15.42,17.51-30.33c.91-1.11,1.81-2.23,2.73-3.33q5.16-6.19,10.46-12.26Q265.81,57.68,261.42,65.41ZM251,84.67c-.07.12-.13.25-.19.38q-6.1,11.24-12.4,24.07-8.34,13.36-16.29,27-5.09,8.67-10,17.43,3.69-8.77,7.63-17.45,3.19-7,6.56-14C234.79,108.48,243.09,96,251,84.67Zm-26.94,52.55q2.7-4.58,5.45-9.11-2.23,5-4.47,10.13-9.44,21.85-17.78,45.17Q192.64,214.36,180,245.8q5.16-18.09,11.07-35.94,6.69-20.15,14.44-39.92Q214.5,153.43,224.09,137.22Zm-16.33,51.87.57-1.21q-2,6.18-4,12.44L203,203.17Q205.36,196,207.76,189.09Zm24.91-40.82q1.82-3.45,3.64-6.9l.33-.62q-1.89,4.68-3.8,9.52-9.53,24.25-17.9,49.74-1.16,2.67-2.3,5.37c-.69,1.61-1.35,3.21-2,4.81Q220.6,178.87,232.67,148.27Zm-17.31,58q8.35-19.59,16.75-38-2,6.06-4,12.19-8.69,19.5-17,39.2C212.55,215.09,214,210.63,215.36,206.25Zm10.95-32.07q4.35-12.06,8.64-23,6.59-16.77,13.14-31.64,3.34-6.11,6.73-12.18C250.5,117.8,246.1,129,241.7,140.9Q234.1,156.9,226.31,174.18Zm14.52-22.49q1.75-4.92,3.51-9.69c5.74-12.09,11.38-23.61,16.81-34.47q-2.92,6.94-5.9,14.32-5.4,11.28-10.7,22.59c-1.67,3.57-3.31,7.16-5,10.75C240,154,240.42,152.85,240.83,151.69Zm30.16-61,1.48-3q-1.2,3.63-2.41,7.43Q260.3,118,251.74,141.39c-4.39,10.47-8.86,21.35-13.37,32.54,1.88-5.49,3.75-10.82,5.59-16C253.13,132.5,262.35,110,271,90.65Zm-2.54,9.59q-1.09,3.56-2.21,7.24-4,9.17-8.15,18.88Q263.09,113.24,268.45,100.24Zm11.47,27.9c.61-2.23,1.23-4.45,1.84-6.63q-1,4-2.06,8.15Zm.61,10.39,0,.13c-.39,3.27-.79,6.64-1.18,10.09-.14.62-.29,1.24-.43,1.86q-2.1,9.19-4.14,18.42c.21-1.9.44-3.79.66-5.68.35-1.74.69-3.47,1-5.17Q278.49,148,280.53,138.53Zm-1.35,38.52q2.69-13.8,5.35-26.91-2,11.43-4,23.62-1.29,7.85-2.6,16.16C278.35,185.52,278.77,181.24,279.18,177.05Zm3.4-31.61c.25-2.13.49-4.23.74-6.28q.6-5.06,1.22-9.91,6-26.15,12.57-52.19c.78-3.12,1.58-6.23,2.37-9.34v.11C294.44,89.64,288.6,116,282.58,145.44ZM296.74,77q-5.91,23.15-11.45,46.39c.37-2.9.75-5.74,1.12-8.53,4.76-18.45,9.28-35.14,13.34-49.62l0,.32Q298.22,71.24,296.74,77Zm-2.47-32.09.11-.52L295.1,43a3.07,3.07,0,0,0,.17-.31v0C294.94,43.39,294.6,44.12,294.27,44.87Zm3,2.54c.09-.46.17-.91.26-1.36q1.15-2.7,2.27-5.24C298.93,43,298.08,45.2,297.25,47.41Zm1-27.38.25-.36-.18.28ZM287,32l7.18-7.54,1.71-1.73c-4.75,5.4-10.22,11.82-16.24,19.25q2.94-4.32,5.66-8.14C285.84,33.2,286.4,32.58,287,32Zm-6,1.7c-3.16,4.69-6.56,9.93-10.13,15.73Q265,56.12,259.18,63l-.7.84q3.86-6.06,7.86-12Q273.42,42.54,281,33.67ZM256.65,66l-.15.24c-1.55,1.87-3.09,3.74-4.62,5.63q5.42-7.95,11.17-15.68Q259.81,61,256.65,66Zm-47.44,63.56q-23.27,34.55-43,71.27l-9.67,18.45L147.38,238c-.75,1.57-1.53,3.12-2.26,4.69L143,247.39l-4.27,9.51L137,260.77A774.53,774.53,0,0,1,191.4,151.54a711,711,0,0,1,69.12-96q-13,17.43-24.68,36.72Q222,110.53,209.21,129.51Zm39.62-53.17q3-3.84,6.13-7.65Q244.91,85,235.91,101.84c-6.46,9.81-13.08,20.31-19.75,31.5A517.71,517.71,0,0,1,248.83,76.34ZM202.5,163.06q1.31-2.42,2.61-4.77,8.87-16,17.7-30.46c-1.25,2.64-2.5,5.27-3.71,7.92-3.72,8.07-7.25,16.22-10.65,24.42q-9.9,17.93-19.14,36.21Q195.42,179.65,202.5,163.06Zm-27.89,63.52-4.34,9.26c-1.46,3.08-2.78,6.23-4.17,9.34L162,254.53c-1.36,3.13-2.79,6.22-4.05,9.39l-7.8,18.91c-1.34,3.13-2.47,6.35-3.72,9.52l-3.65,9.55c-1.21,3.19-2.46,6.36-3.63,9.56l-2.26,6.42a881.58,881.58,0,0,1,53.82-132.32q-5.33,14-10.18,28.52c-.53,1.08-1.05,2.16-1.55,3.24Zm-15,73.85a811.62,811.62,0,0,1,24.72-89.77l.84-1.69q8.12-16.33,16.76-32.41Q195.58,192.9,190,209.51q-8,23.85-14.72,48.15Q167,279,159.57,300.43Zm17.17-38.5c7.1-18.41,14.34-35.78,21.54-52q-1.67,5.18-3.28,10.4Q185.55,241,176.74,261.93Zm21.7-44.64,2.07-4.45q-9.42,31.8-16.94,65.82-2.83,7.75-5.56,15.46C184.3,266,191.23,240.4,198.44,217.29ZM172.75,319.06c.08-.42.16-.83.25-1.24q3-9.13,6.13-18.08c-.2,1-.39,2-.59,3Q175.6,310.88,172.75,319.06Zm-.94,47.64-.74,4.85c-.57,2.12-1.14,4.25-1.69,6.35,3.92-30.17,8.68-58.12,14-83.93.3-.84.6-1.67.91-2.51q3.79-10.38,7.74-20.69s0,.09,0,.14c-1.6,6.32-3.3,12.63-4.7,19L182.88,309l-3.95,19.18-2,9.6-1.73,9.64Zm5.9-19.06c-.59,2-1.18,4.09-1.75,6.11l1-6,1.68-9.64,1.9-9.59,3.85-19.17,4.3-19.08c1.37-6.38,3-12.68,4.61-19,.95-3.78,1.88-7.57,2.86-11.34,1-2.68,2.07-5.35,3.12-8q-11.31,41.52-19.7,85.36Q178.65,342.42,177.71,347.64Zm7-23.5c7-34.28,14.86-65.42,23.09-93.34q8.58-21,17.64-41.82Q215,222.76,206.39,258.55,194.45,292.4,184.71,324.14Zm10,5.45c4.49-25.36,9.47-49,14.71-71q2.51-7.06,5-14Q203.16,286.19,194.68,329.59Zm30-120.68q-3.53,9.19-7,18.59c-.42,1.15-.83,2.28-1.26,3.43,6.7-25.19,13.64-47.74,20.42-67.63q4.19-9.3,8.44-18.55,3.12-6.76,6.3-13.52-4.83,12.38-9.71,25.87Q232.69,182.5,224.65,208.91ZM201.31,363a1459.21,1459.21,0,0,0-21.56,188.93Q181,499,186,446.15c1.07-12.86,2.71-25.67,4.16-38.49l.56-4.81.66-4.8,1.32-9.59,1.33-9.59.66-4.79c.23-1.6.5-3.19.75-4.78l3.06-19.12.77-4.78.86-4.76,1.74-9.53c2.2-12.72,4.91-25.34,7.47-38,5.5-25.23,11.64-50.32,18.61-75.18q6-21.24,12.82-42.22c6.55-16.32,13.05-32,19.32-46.69-.87,3.19-1.74,6.43-2.61,9.75-.5,1.89-1,3.81-1.47,5.72q-2.07,6.34-4.12,12.95-9.51,30.48-17.6,62.44C221,267.08,210,315,201.31,363Zm11.21,8.86-2.94,18.95-2.63,19-1.3,9.5-1.16,9.51-2.3,19q-6.31,57.33-8.79,115,.47-28.94,1.87-56.39c3.07-46,9.56-92.91,17.79-138Zm-11.27,55.22c9.31-92.39,25.44-169.27,41.61-228.63.8-2.7,1.6-5.36,2.4-8q-8.7,41.16-15.21,86.36C218.92,323.5,208.51,374.9,201.25,427.08Zm23.63-74q-1.66,9.13-3.26,18.32c3-34.65,6.76-66.32,10.92-95.12,6-24.89,12.1-48.43,18.07-70q5.13-18.51,10.27-35.94-3.15,14.78-6.34,31.36C244.35,244.42,233.78,295.57,224.88,353.1Zm37-147.09c-9.81,45.3-20,99.2-27.69,156.19,3.85-39.55,8.52-75.4,13.55-107.5q3.12-13.53,6.23-26.41c8.19-34,16.64-66.18,24.59-95.08-.15,1-.29,1.95-.44,2.93C272.74,157.7,267.22,181.17,261.84,206Zm4,10.56q3-15.23,6.18-30.42-1.65,15.36-3.14,30.73-1,5.58-2,11.25c-7.55,43.16-15.07,92.55-20.45,142.81C251.69,311.66,258.63,260,265.8,216.57Zm-31,337.33c-.83-9.43-1.38-18.89-1.76-28.35q-.72-18.88-.39-37.81T234,449.93c2.8-50.39,9-100.56,16.92-150.42q1.42-8.88,2.91-17.75C244.12,356.2,236.29,447.6,234.83,553.9Zm9.06,6.53C235.62,467.7,250,346.49,266,250l-1,12.55c-.23,3.13-.55,6.26-.72,9.39l-.57,9.4-1.15,18.81c-.11,1.57-.21,3.14-.31,4.71C253.67,378.57,246.4,465.53,243.89,560.43Zm21.9-228c-2,21-3.91,42.65-5.48,64.55l.05-2.72.15-9.42.34-9.41c.74-19,1.26-38.09,2.18-57.12q2.93-26.21,6.05-50.25Q267.22,298.09,265.79,332.43Zm25.71-170q-.35,4.57-.71,9.29-1.4,11.17-2.79,22.77,1.58-21.42,3.46-42.8l.52-5.42q.6-3.86,1.2-7.63Q292.33,150,291.5,162.4Zm3-48.14-.5,5c-4.27,26-8.79,55.35-13.18,86.91-3.26,23.47-6.58,49.25-9.72,76.57q1.76-30.72,3.84-57.23c2.67-18.47,5.34-35.63,7.92-51.32,4.52-27.58,9-52.33,13.22-73.86Zm4.24-2.5q.8-8.43,1.57-16.21c1.4-8.17,2.75-15.91,4-23.16C302.56,84.33,300.67,97.52,298.7,111.76Zm83,476.84.76-62.76.05-4.73,0-4.73-.11-9.46L382.14,488l-.43-37.85c0-3.15-.15-6.3-.26-9.46l-.34-9.46-.67-18.91-.68-18.91-.34-9.46-.17-4.73-.29-4.72-2.31-37.72C383.38,411.61,386.61,497.48,381.69,588.6Zm44.6,8.56q.82-9.3,1.57-18.62C427.48,584.92,427,591.14,426.29,597.16ZM510,438a618.18,618.18,0,0,1,13.7,79.37c.31,3.34.72,6.67.94,10l.74,10,.48,10.06c.09,1.68.13,3.36.16,5l.09,5q.12,7.5,0,15a910.24,910.24,0,0,0-25-168.67Q505.88,420.83,510,438ZM339.91,36.74l1,1.55-.88-1-.54-1Zm-.61-1-.21-.22-.26-.46-.21-.36C338.85,35.09,339.07,35.44,339.3,35.79Zm.19,27.27c.47,1.28.95,2.58,1.43,3.9-.9-2.08-1.79-4.1-2.67-6.09v0ZM318.51,45c6.19,62.82,16.47,191.69,16.1,352q-.83-9.54-1.59-19.08-3-37.42-5.33-74.91-.36-5.87-.71-11.73C321.64,190.46,319.41,96.83,318.51,45Zm15.77,393.92q-.25,17.36-.67,35.12c-3.76-55.21-6.68-114.9-8.94-172.63C327.18,347,330.32,393.92,334.28,438.87Zm-4.79,140.2c-1.2-23.54-2.28-47.8-3.25-72.43,1.18,20.3,2.48,40.36,3.91,60Q329.84,572.82,329.49,579.07Zm1.82-36.83c-7.8-117.34-11.18-247.43-12.6-350.47,2.64,94.38,7,208.79,14.26,305.75Q332.29,519.62,331.31,542.24Zm2.95,40.84c0-.28-.05-.55-.07-.83q-.78-9.94-1.5-20,1.11-22.19,1.9-43.93,1.19,14.7,2.47,28.7Q335.82,564.88,334.26,583.08ZM338.05,532q-1.44-16.83-2.76-34.56.57-18.86.94-37.29c1.19,12.49,2.44,24.78,3.77,36.8Q339.16,514.32,338.05,532Zm3.44-72.48q-.09,3-.2,6-.71-6.42-1.39-12.85-1.63-15.82-3.11-31.66c1.4-158.18-7.84-288.5-14.39-359.57q1,7.7,2.11,16.32c2.21,19.54,4.53,43,6.72,70.39C336.67,216.24,342.1,320.13,341.49,459.55Zm-3.87-281.38q-.37-4.66-.76-9.22c1.72,19.22,3.12,38.47,4.42,57.72l2.1,37.46c.56,12.5.92,25,1.39,37.5l.33,9.38.17,4.69.07,4.69.25,18.76.25,18.76.12,9.38c0,3.12,0,6.25-.07,9.38l-.38,37.52-.1,9.38-.34,9.37,0,1.14A2541.2,2541.2,0,0,0,337.62,178.17ZM350.74,558.9q-1.92-13-3.69-26.76,1.77,12.6,3.74,25.18C350.77,557.85,350.76,558.37,350.74,558.9ZM353,573.83c0-.79.07-1.58.1-2.37.45,2.65.92,5.3,1.39,7.94l-.11,2.86C353.93,579.48,353.48,576.67,353,573.83Zm1.82,11-.36-2.14.12-2.81c.09.52.19,1.05.28,1.58C354.87,582.6,354.85,583.72,354.84,584.85Zm.21-19.24v.26q-.72-4.17-1.4-8.36,1.07-30,1.61-58.21Q355.36,531.19,355.05,565.61Zm-.71-264.82.91,18.78.46,9.39c.16,3.13.31,6.26.36,9.39l1,37.59c.15,6.27.35,12.53.46,18.8l.08,18.8.15,37.6c.09,6.27-.09,12.54-.19,18.8l-.12,7.05q-.46-61.9-2.28-114.06c-1.84-82.84-6.79-149.26-12.07-199.19C348.55,209.26,352,255,354.34,300.79ZM338,143.83c4.39,39.08,8.89,90.53,12.2,155.74,3,67.37,4.08,148.41,1.09,243.05-.78-5.15-1.55-10.3-2.28-15.45q-2.19-15.54-4.12-31.12l.39-6.76c.17-3.12.38-6.24.51-9.37l.29-9.39.57-18.77.58-18.77.29-9.38.05-9.39.2-37.55c0-3.13.06-6.26,0-9.39l-.17-9.39-.34-18.77-.35-18.77-.09-4.7-.19-4.69-.38-9.38c-.53-12.5-1-25-1.57-37.51l-2.3-37.48c-1.81-25-3.79-49.92-6.4-74.81q-2.89-28-6.44-56c-2-17.34-4-32.57-5.79-45.39.18.54.35,1.08.53,1.63C328.53,74.61,333.45,105.14,338,143.83ZM330.27,63l-1-5.26-.1-.49c.74,2,1.48,3.94,2.24,6,1.14,4.59,2.31,9.43,3.51,14.48Q332.54,70,330.27,63Zm7.64,11.07q-.81-3.42-1.59-6.66l.54,1.14,1.71,6.35.67,2.82Zm1,.74c-.42-1.51-.83-3-1.24-4.53l2.48,5.22q2.76,9.61,5.65,20.54-2.76-7.77-5.38-15Zm49.7,5.85q-5.11-6.36-10.05-12.22c-1.86-2.78-3.71-5.57-5.71-8.25-2.18-3.1-4.43-6.16-6.72-9.18l3.35,3.39C375.66,62.14,382.08,70.86,388.64,80.67Zm-11-19.49q6.82,7.58,14.07,16.16c-3.48-3.83-7-7.64-10.55-11.39C380,64.32,378.82,62.73,377.66,61.18Zm52.63,210.94q-2.76-13.47-5.77-26.57,6.32,15.15,12.36,30.41c6.83,25.91,13.2,54,18.73,84.29l.36,2.66Q449.33,340.1,441.36,316,436.29,294.06,430.29,272.12Zm4.37,40q-2.49-11.08-5.17-22.07,1.35,3.85,2.68,7.75Q433.44,304.86,434.66,312.13ZM378.48,177.92q-4.65-17.73-9.39-34,5.24,14.4,10.54,30.05c4.12,12.17,8.34,25.21,12.57,39.06,4.28,22.42,8.34,47.34,12,75q-3-12.12-6.3-24.43Q389.63,220.58,378.48,177.92Zm7.44,42.52q-1.79-6.13-3.61-12.32-1.35-7.31-2.76-14.47Q382.76,206.52,385.92,220.44Zm-29.73-99.9q1.79,7.62,3.59,16-2.8-8.39-5.54-16.39-4.14-17.43-8.19-32.26,2.11,4.52,4.3,9.22Q353.28,108.08,356.19,120.54Zm-5.47-43.16.41.83-.36-.65ZM385.39,158c1,2.17,2.06,4.35,3.08,6.52,7.67,20.41,15.59,43.54,23.28,69.27-.81-2.1-1.61-4.18-2.43-6.28q-7.19-18.34-14.45-35.94Q390.37,174.46,385.39,158Zm20.11,92.34q-5.17-18.63-10.83-37.12-2.85-14.88-6-29.05c1.12,2.67,2.24,5.37,3.35,8.08C396.7,209.92,401.24,229.28,405.5,250.31ZM361.44,108.92q6.22,12.39,12.3,24.87,2.83,10,5.68,21.21-4.89-11.28-9.65-22Q365.72,120.91,361.44,108.92ZM367,126.74q-2.62-5.88-5.21-11.55l-1.89-7.09-1.24-4.62-.06-.21c.29.56.58,1.12.86,1.68Q363.3,115.81,367,126.74Zm49.85,56.85q6.62,13.33,13.39,28,2.18,7.56,4.3,15.53-4.5-9.54-9.13-19Q421.26,195.68,416.82,183.59Zm.46,8.13q-7.56-15-15.42-29.85-2.34-5.85-4.74-11.62l-1.05-2.49q-2.16-6-4.38-11.9,7.57,13.59,15.29,28.38Q412.11,177.23,417.28,191.72Zm-2.63-18.79q-3.36-6.62-6.72-13l-1.8-4.79C405,152,403.74,149,402.5,146l-3.74-9.12c-1.2-3.06-2.57-6.05-3.9-9.06l-.7-1.59q3.15,5,6.26,10c1.32,2.13,2.61,4.26,3.91,6.4,6.33,14,12.81,29.69,19.22,47,.38,1.19.76,2.39,1.13,3.6Q419.78,183,414.65,172.93Zm-20.43-44.87c.75,1.74,1.52,3.47,2.27,5.21q-2.75-6.15-5.48-12l.74,1.16Zm1.49,9.18q-5.79-10.47-11.46-20.22-3.81-9.21-7.58-17.59,2.29,3.41,4.57,6.84C386,115.91,390.87,126.23,395.71,137.24Zm-11.95,15.42-.69-2.23,1.67,4.27C384.41,154,384.08,153.34,383.76,152.66Zm2.45,18.19c-.39-.92-.78-1.83-1.16-2.74q-.85-3.56-1.71-7.07C384.29,164.24,385.25,167.5,386.21,170.85Zm4.25-30.17-.58-1.08q-6.09-11.11-12.35-22.12-3.87-9.87-8-19.63,2.74,4.52,5.54,9.19C380,117.13,385,128,390,139.51,390.18,139.9,390.32,140.29,390.46,140.68Zm-7.58-36.31q-7-14.13-13.81-26.29,1.5,2,3,4c3.37,6.3,6.62,12.67,9.83,19.05l2.89,6.11ZM371.64,87.62l-1.44-2.1q-1.33-2.77-2.66-5.44C368.9,82.53,370.26,85.05,371.64,87.62ZM370,91.74q-2.17-4.26-4.33-8.32l1.14,1.63Q368.4,88.32,370,91.74Zm-.2,17.08q5.63,12.75,11.42,26.81-4.52-9-8.93-17.56-2.46-6.91-4.92-13.42C368.19,106,369,107.43,369.8,108.82ZM375.43,153q2.18,7,4.28,14.11-4-11.52-7.88-22.35Zm2.94,6.8q2.55,5.91,5.11,11.94,2.24,9.65,4.45,20.09l-1.05-3.24Q382.8,174.1,378.37,159.76Zm7.83-7.68q2.64,5.38,5.29,10.88,3,9.09,5.79,18.23l-1-2.18q-4-11.06-8.13-21.93C387.49,155.4,386.85,153.74,386.2,152.08Zm16.92,41.77c-.4-1.42-.81-2.84-1.22-4.27.81,2.29,1.62,4.59,2.43,6.92C403.93,195.61,403.53,194.73,403.12,193.85ZM394.19,162q-2.67-6.94-5.32-13.63c-.79-2.29-1.57-4.57-2.38-6.84q-1.68-4.74-3.41-9.44c1.61,2.86,3.23,5.72,4.83,8.6q3.76,6.81,7.48,13.66Q400.69,169.55,406,187,400.07,174.23,394.19,162Zm17.25,43.91q2.16,7.8,4.27,16c-.52-1.2-1-2.39-1.57-3.58q-4.2-12.9-8.73-25.75Q408.43,199.19,411.44,205.91Zm2.87-.55,0-.06q-2.58-9.3-5.31-18.39,5.22,14.25,10.42,30Q416.9,211.14,414.31,205.36Zm13.71,39q2.94,9.84,5.79,20.18-5.4-13.2-11-26.33-1.8-7.51-3.69-14.91Q423.55,233.63,428,244.4Zm1-5q-9.39-30.9-20.48-60.28,6.91,13.26,13.58,26.66,2.08,6.22,4.15,12.68c.23.83.45,1.66.68,2.48l2.63,9.5c.86,3.17,1.79,6.32,2.59,9.5l2.36,9.56,2.05,8.28Q432.89,248.61,429,239.36Zm11.76,36.87,2.54,11.64.22,1c-.77-2-1.55-3.94-2.32-5.9q-2.27-8.82-4.65-17.53Q438.69,270.81,440.78,276.23Zm-1.28-12.38c.31,1.19.63,2.36.94,3.55l-.33-.82Zm-10-43q3.75,7.75,7.41,15.57,6.27,24.56,11.85,52.73c-.4-1.08-.81-2.15-1.22-3.23Q439.59,252.59,429.54,220.87Zm5.63-5.38c-1.63-4.89-3.3-9.72-5-14.53q-5.12-16.9-10.78-32.84,3.12,5.48,6.2,11c7.47,19.15,14.85,40.49,21.83,64.12Q441.51,229.32,435.17,215.49Zm19,51.86c.73,2.76,1.45,5.54,2.17,8.36q-4.45-10.45-9.08-20.83-2.06-7.29-4.21-14.49Q448.65,253.49,454.17,267.35Zm-39-110.79q-4.25-11.26-8.76-22,6.57,13.82,13.28,29.88Q417.45,160.49,415.16,156.56Zm-12.91-35.77q-6-12-12.05-22.71.93,1.35,1.86,2.73,8.64,14.58,16.34,29.62Q405.31,125.53,402.25,120.79Zm-8.73-8.1c1.18,2.49,2.37,5,3.55,7.64q3.63,8,7.32,16.82c-5-10.85-10-21-14.92-30.47C390.81,108.65,392.16,110.66,393.52,112.69Zm2.5,12.13q-4.32-6.87-8.73-13.69l-.62-1.3-4.25-8.9c-2.76-5.4-5.53-10.8-8.39-16.15l3.67,5.06C383.69,100.46,389.84,112.11,396,124.82ZM377.16,84.25q-5.79-10.05-11.33-18.81,3.41,4,6.75,8c3.8,6.34,7.68,13.18,11.58,20.57Q380.62,89,377.16,84.25ZM364.38,63.16q-2.81-4.39-5.51-8.47,5.7,7.47,11.88,15.88C368.64,68.08,366.52,65.62,364.38,63.16Zm-1,2.76-.08-.1-.22-.37Zm-1.91-2.45c-1-1.33-2.06-2.64-3.09-3.93q-2.59-4.34-5.09-8.35L355,53.07c.6.88,1.2,1.78,1.8,2.68Q359.18,59.59,361.49,63.47Zm7.65,54.7c.19.63.39,1.26.58,1.9q1.47,4.83,3,10-6.31-12.72-12.77-25.37-2.18-6-4.42-12l-.3-1C359.68,100.05,364.35,108.9,369.14,118.17ZM358,101.06c-.09-.17-.17-.34-.26-.5l-.31-1.07Zm1.29,20.39q3.85,12.36,7.76,25.83l.75,3.17q3.42,15.41,6.36,30.91-3.48-11.21-6.94-21.94C364.62,145.4,362,132.77,359.33,121.45Zm47.4,187q1.8,15.06,3.4,31.12-2.89-22.12-6.57-44.27Q405.17,301.78,406.73,308.4Zm2.46.13-.72-6.08q-3.37-27.65-7.54-53.53Q406,272,410.3,295.22l3.29,18.94c1.05,6.32,1.94,12.66,2.92,19l1.42,9.51,1.22,9.53.31,2.37Q414.77,331.94,409.19,308.53Zm9,24.37c-1-6.33-1.93-12.68-3-19L411.77,295q-5.17-27.46-11.53-54.68,5.67,19.9,11.19,41.61c5.19,29.89,9.71,62.67,13.1,98.34-.11-.62-.23-1.24-.35-1.87l-.79-7.3c-.31-3.2-.8-6.37-1.2-9.55L420.92,352l-1.27-9.55ZM399.84,211.3q3.42,8.53,6.83,17.24c3.31,8.45,6.64,17.15,10,26,1.34,6.16,2.58,12.33,3.88,18.49.64,3.17,1.37,6.32,1.93,9.51l1.75,9.54c6.92,37,11.78,74.33,15,111.82Q435.92,383.47,432,363q-7.17-37.23-16.41-74.34Q408.89,248.81,399.84,211.3Zm11.07,11.6-1.78-7q-2-7.77-4.17-15.52c1,2.27,2,4.55,3,6.82,6,17.69,11.91,36.73,17.6,57q1.54,7.3,3,14.9-3.3-9.24-6.8-18.66Q416.68,241.46,410.91,222.9Zm33.23,71.75,1.06,2.79,0,.1,1.47,7.77C445.86,301.75,445,298.2,444.14,294.65Zm1.65-2.25-.47-2.43-.54-2.4-.45-2.06,1.72,4.59q1.53,6.5,3,13.15c-.78-2.06-1.56-4.11-2.35-6.17ZM443.64,251c6.55,22.82,12.71,47.66,18.2,74.56q-3.27-9.63-6.77-19.39c-.23-1.29-.46-2.59-.7-3.87Q449.54,275.88,443.64,251Zm22.6,97.36c.36,2,.72,4,1.08,6.07q-3.94-11.85-8.13-23.61-.57-3.69-1.17-7.37Q462.24,335.8,466.24,348.4ZM464,323.94q-6.15-29.94-13.85-58.45,4.33,9.79,8.51,19.66c6.15,25.21,11.74,52.58,16.47,82.21q-3.45-11.61-7.26-23.44Q466.05,333.85,464,323.94Zm-2.48-37.46q1.89,5,3.75,10.15c.11.51.22,1,.32,1.53q-1.51-3.77-3.05-7.52C462.24,289.24,461.9,287.87,461.56,286.48Zm6.79,30c-1.2-5.73-2.46-11.4-3.74-17q1.31,3.21,2.6,6.43,6.71,33.35,11.33,67.09Q474.11,344.06,468.35,316.48Zm-3.8-30.42c-.29-1.32-.56-2.64-.85-4-.73-3.27-1.37-6.56-2.16-9.81l-2.42-9.75-1-4.11q5.1,17.85,9.31,35.32C466.47,291.18,465.51,288.62,464.55,286.06ZM460,272.65c.33,1.32.63,2.65.93,4q-2.68-6.94-5.47-13.85-9.66-35.71-21.71-68.68,3.64,6.78,7.19,13.6l1.92,3.66,1.08,3.32,1.54,4.77.77,2.38.7,2.41,5.55,19.27c1,3.2,1.76,6.45,2.58,9.69l2.46,9.72Zm-12.81-56.92q-5-14.43-10.41-28.27c-.77-2.17-1.56-4.34-2.35-6.5,6.61,12.34,13.28,25.54,19.88,39.58q4.35,13.32,8.5,27.78c-.69-1.5-1.39-3-2.07-4.51-2.8-6.27-5.9-12.39-8.9-18.57L447.35,216C447.31,215.9,447.26,215.82,447.22,215.73Zm-8.73-16.89q-4.86-9.27-9.88-18.46-7.37-18.94-15.49-36.86,4.25,7,8.49,14.36C427.73,171.43,433.34,185.12,438.49,198.84ZM409.44,122l-.62-1.3-.54-1.08q3.23,4.5,6.39,9c2.49,3.58,4.95,7.2,7.39,10.82q3,6.12,5.91,12.65Q418.66,136.39,409.44,122Zm5.84,6.22q-4.45-6.33-9-12.56c-.68-1.3-1.37-2.6-2-3.9l-4.68-8.91-5-8.75c-1-1.75-2-3.48-3-5.2q6,7.62,12.16,15.93,3.92,6.74,7.83,14,4,7.43,8.07,15.63C418.17,132.4,416.74,130.31,415.28,128.24Zm-22.84-32.9,3.67,6.37q-2.87-4.23-5.67-8.32-9.51-15.51-19.79-29.84,3.62,4.17,7.34,8.63l1.28,1.89c.94,1.38,1.89,2.75,2.75,4.18C385.53,83.93,389.2,89.5,392.44,95.34ZM364.76,49.2q-3.75-4.85-7.68-9.55,5,5.6,10.34,12.16C366.54,50.93,365.64,50.07,364.76,49.2Zm-6-3.23c-1.33-1.45-2.65-2.86-3.94-4.23-1.13-1.51-2.24-3-3.34-4.39Q355.19,41.6,358.75,46Zm-5,5.24-1.34-1.47c-1.13-1.8-2.24-3.56-3.33-5.26C350.59,46.63,352.15,48.88,353.74,51.21Zm-3.11,3.19q4,7,8.27,15l-2.14-3-1.84-2.54q-3.42-6-6.67-11.41c-.48-.92-1-1.83-1.46-2.75Q348.68,52,350.63,54.4Zm1,18.95c-.73-1.2-1.44-2.41-2.17-3.6l-.22-.36c-1.35-2.66-2.69-5.24-4-7.75-.49-1.36-1-2.72-1.5-4.07.85,1.27,1.72,2.56,2.59,3.88Q349,67.12,351.67,73.35Zm-5,42.18q-2.37-12.6-4.75-23.67,1.08,3,2.16,6.07.56,2.29,1,4.59l1.88,9.27,3.08,15.11C348.9,123.05,347.76,119.25,346.63,115.53Zm10.6,52.06c.25,1.56.55,3.11.77,4.67l.66,4.68L360,186.3,362.6,205l.67,4.76q-2.64-16.65-5.3-31.71-3.12-17.73-6.31-34c-.47-2.85-.93-5.63-1.4-8.35q1.82,6.12,3.65,12.44l.13.76ZM352.15,134c-.24-1.27-.48-2.53-.76-3.79l-3.87-18.52-1.93-9.27-.06-.25q3.18,9,6.49,18.68,3.08,13,6.16,27.5,2.16,10.18,4.33,21.44C359,157.4,355.54,145.44,352.15,134Zm17.24,60.49c-3-17.1-6-32.68-9-46.74q-.57-2.7-1.14-5.35,2.19,6.63,4.41,13.47,4.13,21.39,8.09,47.37Q370.59,198.84,369.39,194.48Zm3.8,23,1.38,5.23q2.16,15.78,4.18,33.17Q376.08,235.67,373.19,217.47Zm5.08,10.24-.3-1.19q-3.62-26.91-7.53-49.43,3.65,11.63,7.28,23.72,1.71,9.93,3.28,19.88l2.76,18.89c.44,3.15.94,6.29,1.33,9.44l1.2,9.47c.07.54.14,1.08.2,1.62Q382.55,244.12,378.27,227.71Zm11.57,46.09c-.59-5.18-1.27-10.34-1.87-15.52l-.78-6.37q1.92,12.75,3.73,26.38Zm6.3,26.87Q391.73,263.49,386,229q3.75,13.18,7.51,27.12c6.87,34.81,13,73.37,17.39,114.79Q404.49,337.23,396.14,300.67ZM428.5,486.29l0,8.78q-2.73-33-8.46-70.81c-.48-3.18-1-6.4-1.5-9.63q-2.7-44.6-7-85.72c4.08,18.19,7.93,36.82,11.43,55.7l.6,5.77.49,4.78c.16,1.59.26,3.19.4,4.79l.75,9.58.75,9.57.37,4.79.25,4.8,1,19.19c.07,1.6.19,3.2.23,4.8l.13,4.8.25,9.6.25,9.61c0,1.6.1,3.2.11,4.8Zm2.43,58.2q-.09-7.62-.39-15.57c0-1.38.08-2.76.1-4.14l.25-9.62.12-4.82v-4.58Q431.2,524.73,430.93,544.49Zm12.71,30.18c.79-48.49-3.74-103.1-13.52-162.85q-2.83-39.65-7.76-77.64c-.67-5.2-1.39-10.36-2.12-15.51,8.2,36.32,15.61,75.61,21.41,117.29.22,3.42.42,6.85.62,10.28C444.65,489,445,531.86,443.64,574.67Zm9.53-52.47c-2.58-35.22-6.59-70.69-12-106.2a1170.12,1170.12,0,0,0-15.46-124.16L424,282.28c-.54-3.2-1.26-6.36-1.88-9.54q-.79-3.83-1.57-7.67l.31.81c7.38,27.68,14.34,57.88,20.38,90.49A1514.21,1514.21,0,0,1,453.17,522.2ZM465,583.8a1316.19,1316.19,0,0,0-19.56-217.59q-3-24.52-6.78-48.07c-.11-.69-.23-1.36-.34-2l1.83,5.56C457.56,398.74,469.2,488.35,465,583.8ZM464.34,444c.3,3.27.42,6.55.62,9.83l.56,9.84,1.1,19.66q.25,8.1.52,16.18A1011.77,1011.77,0,0,0,451.83,366.6q-1.87-10.28-4-20.58,5.6,18.33,10.67,36.89C461,403.21,462.75,423.58,464.34,444Zm-1.81-57.61q-3.15-19.94-7-39.48c-.06-.36-.11-.72-.17-1.08l-3.24-19.46c-.56-3.24-1-6.5-1.66-9.72l-1.88-9.69-.15-.75c1,2.65,2,5.31,2.94,8,3.84,18.31,7.37,37.56,10.47,57.77q1.28,10.38,2.44,21.16Q463.44,389.73,462.53,386.35ZM482.38,479q-3.92-26.06-10.45-54.86c-.52-2.28-1.07-4.59-1.61-6.89q-1.5-13.5-3.31-26.8-2.77-25.74-6.4-50.27Q465,353,469.12,366l.33,1.07C475.08,401.38,479.56,438.67,482.38,479Zm-9.91-108.65c-.19-1.21-.4-2.41-.6-3.62q3.5,11.71,6.72,23.57l0,.15Q475.66,380.35,472.47,370.33Zm11.38,28c-.64-2.43-1.31-4.88-2-7.33q-4.61-39.3-11.92-78.24,2,5,3.88,10c.08.22.16.45.25.67,3.74,18,6.84,35.32,9.39,51.78,2.51,16.14,4.58,31.89,6.28,47.1Q487,410.43,483.85,398.33Zm19.28,136.76q.18,6.6.31,13.3,0,6.52-.22,13.05A240.44,240.44,0,0,1,498.71,600c.45-8.07,2.66-55.2-1.63-121.12,2.34,14.2,4.15,28.48,5.26,42.82Q502.85,528.38,503.13,535.09Zm-2.72-58.4q-2.64-16.83-6.24-34.31c-2-21.34-4.75-44-8.39-67.5q-2.94-18.93-6.46-37.23,4.94,15.54,9.54,31.72C493.86,402.18,497.83,437.89,500.41,476.69ZM485,345.8q-5.08-16.47-10.76-32.91a872.57,872.57,0,0,0-22.73-84.36c2.63,5.3,5.29,10.6,7.73,16,2.13,4.6,4.28,9.2,6.4,13.8C472.83,284.65,479.41,313.74,485,345.8Zm14.56-6.69c-1-3.27-2.31-6.46-3.47-9.69l-3.54-9.66L489,310.1l-3.81-9.57L481.37,291c-1.27-3.19-2.53-6.38-3.92-9.52l-8-18.65q-3.27-12.27-6.84-24.15a867,867,0,0,1,38.79,106ZM540,591.88a902.63,902.63,0,0,0-15.78-165.64l2.83,11.95,2.35,10,2,10.08c1.32,6.73,2.73,13.44,4,20.18l3.29,20.3.82,5.08c.26,1.69.58,3.38.76,5.08l1.07,8.65A601.6,601.6,0,0,1,540,591.88Zm1.08-79.64-.4-3.38c-.18-1.7-.48-3.39-.74-5.09l-.8-5.08L536,478.36c-1.22-6.75-2.6-13.47-3.89-20.21l-2-10.1-2.3-10-4.66-20-2.27-8.53q-6.9-32.73-16.26-64.72A863.27,863.27,0,0,0,455.5,216.19q-4.23-12.69-8.8-24.88C489.63,272,534.51,384.9,541.11,512.24ZM437.61,174.65q4.58,11.23,9.05,23.55-9.36-18.48-19.58-36.47-3.79-9.4-7.88-18.68Q428.4,158.18,437.61,174.65Zm59.62,99.71c-5.53-12.85-11.46-25.52-17.67-38.05S466.85,211.38,460,199.2q-14.81-26.32-31.47-51.55-6.39-13.8-13.27-26.79c6.74,9.64,13.55,19.87,20.34,30.7A771.77,771.77,0,0,1,504.22,291Q500.81,282.65,497.23,274.36ZM555.8,433.77a572,572,0,0,1,7.86,160q-.18-38.31-3.79-76.48c-.28-3.49-.71-7-1.08-10.44l-1.18-10.44-.21-1.59A795,795,0,0,0,533,346.39,666.88,666.88,0,0,1,555.8,433.77Zm-7,7c-.42-2.16-.85-4.32-1.26-6.49Q543.32,413.52,538,393q-6.51-28.39-14.93-56A788.78,788.78,0,0,0,466,198.69c14.24,24.86,27.34,50.37,39.08,76.5q5.5,12.29,10.59,24.75A768.64,768.64,0,0,1,548.79,440.72ZM507.24,276.28c-.26-.57-.51-1.14-.76-1.7a893.7,893.7,0,0,0-55.92-103.74q-6.17-10.56-12.65-20.9c-11.68-18.63-23.42-35.5-34.78-50.62-6.76-11.36-13.47-21.56-20-30.68q9,9.66,17.58,19.64A661,661,0,0,1,443,147.21,698.85,698.85,0,0,1,507.24,276.28ZM434.32,128.93A640.82,640.82,0,0,0,364.58,43a582.25,582.25,0,0,1,82.88,96.6A654.56,654.56,0,0,1,507,247,750.38,750.38,0,0,0,434.32,128.93ZM573.13,429.86c.58,3.51,1.2,7,1.75,10.52l1.52,10.55.76,5.28.64,5.29,1.28,10.58,1.06,10.61c.33,3.54.74,7.07,1,10.62.51,7.09,1.14,14.17,1.43,21.27.24,4.29.42,8.58.59,12.88q-1.8-23.33-5-46.52A835.85,835.85,0,0,0,557.86,360.8,696.08,696.08,0,0,1,573.13,429.86Zm-50.71-168c17.69,43.21,33.08,93.46,43.46,151.25a756.9,756.9,0,0,0-32.55-106.33c-20.57-61.31-48.64-118.06-83.61-168.89q-4.62-6.72-9.25-13.08a675.83,675.83,0,0,1,45.16,66.33c7.27,12.2,14.22,24.59,20.7,37.23Q514.82,244.9,522.42,261.86ZM451.58,133.07a603.67,603.67,0,0,1,47.55,78.05q-5.78-10.56-11.89-20.94a678.55,678.55,0,0,0-48-70.64,665.9,665.9,0,0,0-56.59-64q-7.57-7.53-15.43-14.8c-1.92-1.77-3.87-3.52-5.82-5.28C386.65,56.53,419.37,88.42,451.58,133.07Zm-6.09-16.5q-10.12-12.09-20.86-23.66,14.22,15.18,26.82,30.9C449.47,121.39,447.5,119,445.49,116.57ZM584.26,404.25C583,398.11,581.45,392,580,385.89c-3.52-14-7.24-28-11.61-41.81l-1.59-5.19-1.7-5.15-3.42-10.3c-2.45-6.8-4.79-13.65-7.43-20.38s-5.29-13.46-8-20.17-5.65-13.31-8.71-19.87c-1.81-4-3.71-8-5.64-12a598.07,598.07,0,0,0-38.59-73.36A540.4,540.4,0,0,0,362.89,33q12.5,8.49,24.56,17.6l.88.73a565.13,565.13,0,0,1,62.12,61.37,599.35,599.35,0,0,1,52.25,70q11.71,18.24,22,37.33C549,269.14,570.6,329.93,584.26,404.25Zm-144.65-309q1.77,1.71,3.51,3.47,8.73,9.61,17.52,20.4a522.33,522.33,0,0,1,49.37,73Q506.88,187,503.65,182A600,600,0,0,0,451,112.17a568.63,568.63,0,0,0-57.24-56.72c10.12,7.95,20.09,16.1,29.61,24.76C429,85.05,434.23,90.21,439.61,95.26ZM402.25,58.9q-5.62-4.55-11.31-9-24.33-18.66-50.45-34.84A392.84,392.84,0,0,1,402.25,58.9Z"/><path class="cls-2" d="M138.17,601.51a1.46,1.46,0,0,0,1.35.81,1.5,1.5,0,0,0,1.28-.81Z"/><path class="cls-2" d="M154.65,601.51a1.48,1.48,0,0,0,1.34.81,1.5,1.5,0,0,0,1.3-.81Z"/></g></g></svg>