<svg xmlns="http://www.w3.org/2000/svg" viewBox="0 0 34.2 16.63"><defs><style>.cls-1{fill:#42210b;}.cls-2{fill:#231307;}.cls-3{fill:#261407;}.cls-4{fill:#291608;}.cls-5{fill:#2b1708;}.cls-6{fill:#2e1808;}.cls-7{fill:#311909;}.cls-8{fill:#341b09;}.cls-9{fill:#371c0a;}.cls-10{fill:#3a1d0a;}.cls-11{fill:#3c1e0a;}.cls-12{fill:#3f200b;}.cls-13{fill:#c1272d;}</style></defs><title>pote0</title><g id="Layer_2" data-name="Layer 2"><g id="Layer_18" data-name="Layer 18"><polygon class="cls-1" points="25.65 14.48 8.55 14.48 8.55 14.48 0 0 17.1 0 34.2 0 25.65 14.48 25.65 14.48"/><path class="cls-2" d="M25.65,14.48H8.55L0,0H34.2L25.65,14.48Z"/><polygon class="cls-3" points="24.84 14.48 8.81 14.48 8.81 14.48 0.8 0 16.83 0 32.85 0 24.91 14.48 24.84 14.48"/><polygon class="cls-4" points="24.03 14.48 9.08 14.48 9.08 14.48 1.6 0 16.55 0 31.51 0 24.17 14.48 24.03 14.48"/><polygon class="cls-5" points="23.22 14.48 9.34 14.48 9.34 14.48 2.4 0 16.28 0 30.16 0 23.42 14.48 23.22 14.48"/><polygon class="cls-6" points="22.41 14.48 9.61 14.48 9.61 14.48 3.2 0 16.01 0 28.82 0 22.68 14.48 22.41 14.48"/><polygon class="cls-7" points="21.61 14.48 9.87 14.48 9.87 14.48 4 0 15.74 0 27.47 0 21.94 14.48 21.61 14.48"/><polygon class="cls-8" points="20.8 14.48 10.13 14.48 10.13 14.48 4.8 0 15.46 0 26.13 0 21.2 14.48 20.8 14.48"/><polygon class="cls-9" points="19.99 14.48 10.39 14.48 10.39 14.48 5.6 0 15.19 0 24.78 0 20.46 14.48 19.99 14.48"/><polygon class="cls-10" points="19.18 14.48 10.66 14.48 10.66 14.48 6.4 0 14.92 0 23.44 0 19.71 14.48 19.18 14.48"/><polygon class="cls-11" points="18.37 14.48 10.92 14.48 10.92 14.48 7.2 0 14.64 0 22.09 0 18.97 14.48 18.37 14.48"/><polygon class="cls-12" points="17.56 14.48 11.19 14.48 11.19 14.48 8 0 14.37 0 20.75 0 18.23 14.48 17.56 14.48"/><polygon class="cls-1" points="16.75 14.48 11.45 14.48 11.45 14.48 8.8 0 14.1 0 19.4 0 17.49 14.48 16.75 14.48"/><path class="cls-13" d="M33.19,1.71s-3.41-.4-3.75.84-3,1.57-4,.15S22,1,21.64,1.53s-2.3.43-2.46-.31-2.72-.77-2.75.43,0,3.67,0,3.67-.9,1.95-1.84,0,0-4.43-.94-4-2,2.18-2.85,1.39S7.05.41,7,1.61,6.15,6.33,5.51,4.5,5.33,1,4.46,1.05s-1.72.37-1.68,1.2-.12,4.08-.42,2.67S1.88.37,1.58.37.9,1.87.83,2.32.11,1,0,0H34.2Z"/><path class="cls-13" d="M15.34,14.48h16.8a12.27,12.27,0,0,1-3.68.85,2.27,2.27,0,0,0-2.32,1.13c-.34.71-1.05-1-2.74-1s-.37.76-2.59.54-1.68-.94-2.28-.64-1.28.63-1.65.19S15.3,15.27,15.34,14.48Z"/></g></g></svg>