<svg xmlns="http://www.w3.org/2000/svg" xmlns:xlink="http://www.w3.org/1999/xlink" viewBox="0 0 45.6 68.41"><defs><style>.cls-1{fill:none;}.cls-2{fill:#c1272d;}.cls-3{fill:#231307;}.cls-4{fill:#261407;}.cls-5{fill:#291608;}.cls-6{fill:#2b1708;}.cls-7{fill:#2e1808;}.cls-8{fill:#311909;}.cls-9{fill:#341b09;}.cls-10{fill:#371c0a;}.cls-11{fill:#3a1d0a;}.cls-12{fill:#3c1e0a;}.cls-13{fill:#3f200b;}.cls-14{fill:#42210b;}.cls-15{clip-path:url(#clip-path);}.cls-16,.cls-17{opacity:0.55;}.cls-16{fill:url(#New_Pattern_Swatch_1);}.cls-17{fill:url(#guarani_2);}</style><clipPath id="clip-path" transform="translate(1.31)"><path class="cls-1" d="M38,0H4.92A4.92,4.92,0,0,0,0,5.38L5.5,64a4.92,4.92,0,0,0,4.9,4.46H31.52A4.91,4.91,0,0,0,36.4,64L42.91,5.46A4.91,4.91,0,0,0,38,0Z"/></clipPath><pattern id="New_Pattern_Swatch_1" data-name="New Pattern Swatch 1" x="1.31" width="15.5" height="15.91" patternUnits="userSpaceOnUse" viewBox="0 0 15.5 15.91"><rect class="cls-1" width="15.5" height="15.91"/><polygon class="cls-2" points="6.09 8.03 0 0 0 0 0 2.17 4.45 8.03 0 13.78 0 15.91 6.09 8.03"/><polygon class="cls-2" points="11.05 8.03 15.5 2.17 15.5 0 9.41 8.03 15.5 15.91 15.5 13.78 11.05 8.03"/><path class="cls-2" d="M9.54.31m3.58,0M2.36,0m0,0L7.75,6.79,13.14,0h1.27L8.31,8l6.1,7.88H13.06L7.75,9.23l-5.3,6.68H1.1L7.2,8,1.1,0H2.36"/><polygon class="cls-2" points="5.95 15.91 9.56 15.91 7.75 13.41 5.95 15.91"/><polygon class="cls-2" points="0 10.15 1.64 8.03 0 5.86 0 10.15"/><polygon class="cls-2" points="13.86 8.03 15.5 10.15 15.5 5.86 13.86 8.03"/><polygon class="cls-2" points="7.75 2.5 9.56 0 5.95 0 7.75 2.5"/></pattern><pattern id="guarani_2" data-name="guarani 2" x="1.31" width="15.5" height="15.91" patternUnits="userSpaceOnUse" viewBox="0 0 15.5 15.91"><rect class="cls-1" width="15.5" height="15.91"/><polygon points="6.09 8.03 0 0 0 0 0 2.17 4.45 8.03 0 13.78 0 15.91 6.09 8.03"/><polygon points="11.05 8.03 15.5 2.17 15.5 0 9.41 8.03 15.5 15.91 15.5 13.78 11.05 8.03"/><path d="M9.54.31m3.58,0M2.36,0m0,0L7.75,6.79,13.14,0h1.27L8.31,8l6.1,7.88H13.06L7.75,9.23l-5.3,6.68H1.1L7.2,8,1.1,0H2.36"/><polygon points="5.95 15.91 9.56 15.91 7.75 13.41 5.95 15.91"/><polygon points="0 10.15 1.64 8.03 0 5.86 0 10.15"/><polygon points="13.86 8.03 15.5 10.15 15.5 5.86 13.86 8.03"/><polygon points="7.75 2.5 9.56 0 5.95 0 7.75 2.5"/></pattern></defs><title>vaso0</title><g id="Layer_2" data-name="Layer 2"><g id="Layer_18" data-name="Layer 18"><path class="cls-3" d="M38,0H4.92A4.92,4.92,0,0,0,0,5.38L5.5,64a4.92,4.92,0,0,0,4.9,4.46H31.52A4.91,4.91,0,0,0,36.4,64L42.91,5.46A4.91,4.91,0,0,0,38,0Z" transform="translate(1.31)"/><path class="cls-4" d="M36.57,0H5.47A4.8,4.8,0,0,0,.87,5.38L6,64a4.75,4.75,0,0,0,4.6,4.46H30.45A4.73,4.73,0,0,0,35.05,64L41.16,5.46A4.82,4.82,0,0,0,36.57,0Z" transform="translate(1.31)"/><path class="cls-5" d="M35.11,0H6C3.47,0,1.47,2.49,1.71,5.38L6.53,64a4.57,4.57,0,0,0,4.3,4.46H29.39A4.58,4.58,0,0,0,33.69,64L39.41,5.46C39.69,2.55,37.69,0,35.11,0Z" transform="translate(1.31)"/><path class="cls-6" d="M33.66,0H6.56c-2.37,0-4.23,2.49-4,5.38L7,64c.19,2.53,1.93,4.46,4,4.46H28.33c2.05,0,3.77-1.88,4-4.37L37.65,5.46C37.92,2.55,36.05,0,33.66,0Z" transform="translate(1.31)"/><path class="cls-7" d="M32.2,0H7.11C4.91,0,3.19,2.49,3.4,5.38L7.55,64c.18,2.53,1.79,4.46,3.71,4.46h16c1.9,0,3.49-1.88,3.7-4.37L35.9,5.46C36.15,2.55,34.42,0,32.2,0Z" transform="translate(1.31)"/><path class="cls-8" d="M30.74,0H7.66c-2,0-3.61,2.49-3.42,5.38L8.06,64c.17,2.53,1.65,4.46,3.42,4.46H26.2c1.75,0,3.22-1.88,3.41-4.37L34.15,5.46C34.38,2.55,32.79,0,30.74,0Z" transform="translate(1.31)"/><path class="cls-9" d="M29.29,0H8.2C6.36,0,4.91,2.49,5.09,5.38L8.57,64c.16,2.53,1.51,4.46,3.12,4.46H25.14c1.6,0,2.94-1.88,3.11-4.37L32.4,5.46C32.6,2.55,31.15,0,29.29,0Z" transform="translate(1.31)"/><path class="cls-10" d="M27.83,0H8.75c-1.67,0-3,2.49-2.82,5.38L9.09,64c.13,2.53,1.36,4.46,2.82,4.46H24.08c1.44,0,2.66-1.88,2.82-4.37L30.64,5.46C30.83,2.55,29.52,0,27.83,0Z" transform="translate(1.31)"/><path class="cls-11" d="M26.37,0H9.3C7.8,0,6.63,2.49,6.77,5.38L9.6,64c.12,2.53,1.22,4.46,2.52,4.46H23c1.29,0,2.37-1.88,2.52-4.37L28.89,5.46C29.06,2.55,27.88,0,26.37,0Z" transform="translate(1.31)"/><path class="cls-12" d="M24.92,0H9.85C8.53,0,7.49,2.49,7.62,5.38L10.11,64c.11,2.53,1.07,4.46,2.23,4.46H22c1.14,0,2.1-1.88,2.23-4.37l3-58.58C27.29,2.55,26.25,0,24.92,0Z" transform="translate(1.31)"/><path class="cls-13" d="M23.46,0H10.39c-1.14,0-2,2.49-1.93,5.38L10.62,64c.1,2.53.93,4.46,1.94,4.46h8.33c1,0,1.82-1.88,1.93-4.37L25.39,5.46C25.52,2.55,24.62,0,23.46,0Z" transform="translate(1.31)"/><path class="cls-14" d="M22,0H10.94C10,0,9.21,2.49,9.31,5.38L11.14,64c.07,2.53.78,4.46,1.63,4.46h7.06c.84,0,1.54-1.88,1.63-4.37L23.63,5.46C23.74,2.55,23,0,22,0Z" transform="translate(1.31)"/><g class="cls-15"><rect class="cls-16" y="5.8" width="45.6" height="17.6"/><rect class="cls-17" x="3.2" y="42.7" width="38.4" height="17.6"/></g></g></g></svg>