<svg xmlns="http://www.w3.org/2000/svg" viewBox="0 0 5041.12 835.17"><defs><style>.cls-1{fill:#1e1e1e;}.cls-2{fill:#1c1c1c;}.cls-3{fill:#1b1b1b;}.cls-4{fill:#191919;}.cls-5{fill:#171717;}.cls-6{fill:#161616;}.cls-7{fill:#141414;}.cls-8{fill:#2e2e2e;}.cls-9{fill:#3c3c3c;}.cls-10{fill:#494949;}.cls-11{fill:#575757;}.cls-12{fill:#656565;}.cls-13{fill:#727272;}.cls-14{fill:gray;}.cls-15{fill:#1d1d1d;}.cls-16{fill:#1a1a1a;}.cls-17{fill:#181818;}.cls-18{fill:#151515;}</style></defs><title>Plataformas</title><g id="Layer_2" data-name="Layer 2"><g id="Plat"><polygon class="cls-1" points="1021.13 630 1021.13 660 991.13 678.76 970.92 700.36 942.13 715.96 931.13 678.76 901.13 660 901.13 630 1021.13 630"/><polygon class="cls-2" points="942.13 711.95 931.13 676.48 901.13 658.6 901.13 630 1021.13 630 1021.13 658.6 991.13 676.48 970.92 697.08 942.13 711.95"/><polygon class="cls-3" points="942.13 707.94 931.13 674.21 901.13 657.2 901.13 630 1021.13 630 1021.13 657.2 991.13 674.21 970.92 693.79 942.13 707.94"/><polygon class="cls-4" points="942.13 703.93 931.13 671.94 901.13 655.8 901.13 630 1021.13 630 1021.13 655.8 991.13 671.94 970.92 690.51 942.13 703.93"/><polygon class="cls-5" points="942.13 699.92 931.13 669.66 901.13 654.4 901.13 630 1021.13 630 1021.13 654.4 991.13 669.66 970.92 687.23 942.13 699.92"/><polygon class="cls-6" points="942.13 695.92 931.13 667.39 901.13 653.01 901.13 630 1021.13 630 1021.13 653.01 991.13 667.39 970.92 683.95 942.13 695.92"/><polygon class="cls-7" points="1021.13 630 1021.13 651.61 991.13 665.12 970.92 680.67 942.13 691.91 931.13 665.12 901.13 651.61 901.13 630 1021.13 630"/><polygon class="cls-1" points="241.13 120 421.13 120 421.13 150 376.93 187.96 338.52 202.36 309.73 211.96 265.74 183.16 241.13 150 241.13 120"/><polygon class="cls-2" points="309.73 207.88 265.74 180.36 241.13 148.67 241.13 120 421.13 120 421.13 148.67 376.93 184.94 338.52 198.71 309.73 207.88"/><polygon class="cls-3" points="309.73 203.81 265.74 177.56 241.13 147.34 241.13 120 421.13 120 421.13 147.34 376.93 181.93 338.52 195.06 309.73 203.81"/><polygon class="cls-4" points="309.73 199.73 265.74 174.76 241.13 146.01 241.13 120 421.13 120 421.13 146.01 376.93 178.92 338.52 191.41 309.73 199.73"/><polygon class="cls-5" points="309.73 195.66 265.74 171.96 241.13 144.68 241.13 120 421.13 120 421.13 144.68 376.93 175.91 338.52 187.76 309.73 195.66"/><polygon class="cls-6" points="309.73 191.58 265.74 169.16 241.13 143.35 241.13 120 421.13 120 421.13 143.35 376.93 172.9 338.52 184.11 309.73 191.58"/><polygon class="cls-7" points="241.13 120 421.13 120 421.13 142.02 376.93 169.89 338.52 180.46 309.73 187.51 265.74 166.37 241.13 142.02 241.13 120"/><polygon class="cls-8" points="241.13 142.61 257.32 132.89 289.32 130.46 328.93 142.61 372.52 130.46 399.73 134.11 421.13 142.61 421.13 120 241.13 120 241.13 142.61"/><polygon class="cls-9" points="328.93 140.06 372.52 129.28 399.73 132.52 421.13 140.06 421.13 120 241.13 120 241.13 140.06 257.32 131.44 289.32 129.28 328.93 140.06"/><polygon class="cls-10" points="328.93 137.51 372.52 128.1 399.73 130.93 421.13 137.51 421.13 120 241.13 120 241.13 137.51 257.32 129.98 289.32 128.1 328.93 137.51"/><polygon class="cls-11" points="328.93 134.96 372.52 126.92 399.73 129.34 421.13 134.96 421.13 120 241.13 120 241.13 134.96 257.32 128.53 289.32 126.92 328.93 134.96"/><polygon class="cls-12" points="328.93 132.41 372.52 125.74 399.73 127.74 421.13 132.41 421.13 120 241.13 120 241.13 132.41 257.32 127.08 289.32 125.74 328.93 132.41"/><polygon class="cls-13" points="328.93 129.86 372.52 124.56 399.73 126.15 421.13 129.86 421.13 120 241.13 120 241.13 129.86 257.32 125.62 289.32 124.56 328.93 129.86"/><polygon class="cls-14" points="241.13 127.31 257.32 124.17 289.32 123.38 328.93 127.31 372.52 123.38 399.73 124.56 421.13 127.31 421.13 120 241.13 120 241.13 127.31"/><polygon class="cls-1" points="121.13 270 1.13 270 1.13 300 31.13 321.64 79.26 333.16 121.13 300 121.13 270"/><polygon class="cls-2" points="79.26 327.89 121.13 297.5 121.13 270 1.13 270 1.13 297.5 31.13 317.34 79.26 327.89"/><polygon class="cls-3" points="79.26 322.63 121.13 295 121.13 270 1.13 270 1.13 295 31.13 313.04 79.26 322.63"/><polygon class="cls-4" points="79.26 317.37 121.13 292.5 121.13 270 1.13 270 1.13 292.5 31.13 308.73 79.26 317.37"/><polygon class="cls-5" points="79.26 312.1 121.13 290 121.13 270 1.13 270 1.13 290 31.13 304.43 79.26 312.1"/><polygon class="cls-6" points="79.26 306.84 121.13 287.5 121.13 270 1.13 270 1.13 287.5 31.13 300.13 79.26 306.84"/><polygon class="cls-7" points="121.13 270 1.13 270 1.13 285 31.13 295.82 79.26 301.58 121.13 285 121.13 270"/><polygon class="cls-8" points="1.13 285 1.13 270 121.13 270 121.13 277.5 109.33 283.11 88.33 276.51 78.92 278.71 66.53 285 47.92 275.31 34.73 275.91 25.93 297.91 16.52 276.31 9.93 277.31 1.13 285"/><polygon class="cls-9" points="25.93 294.94 16.52 275.64 9.93 276.53 1.13 283.41 1.13 270 121.13 270 121.13 276.7 109.33 281.71 88.33 275.82 78.92 277.78 66.53 283.41 47.92 274.74 34.73 275.28 25.93 294.94"/><polygon class="cls-10" points="25.93 291.98 16.52 274.97 9.93 275.75 1.13 281.81 1.13 270 121.13 270 121.13 275.91 109.33 280.32 88.33 275.13 78.92 276.86 66.53 281.81 47.92 274.18 34.73 274.65 25.93 291.98"/><polygon class="cls-11" points="25.93 289.01 16.52 274.3 9.93 274.98 1.13 280.22 1.13 270 121.13 270 121.13 275.11 109.33 278.93 88.33 274.43 78.92 275.93 66.53 280.22 47.92 273.62 34.73 274.02 25.93 289.01"/><polygon class="cls-12" points="25.93 286.04 16.52 273.63 9.93 274.2 1.13 278.62 1.13 270 121.13 270 121.13 274.31 109.33 277.54 88.33 273.74 78.92 275 66.53 278.62 47.92 273.05 34.73 273.4 25.93 286.04"/><polygon class="cls-13" points="25.93 283.07 16.52 272.95 9.93 273.42 1.13 277.03 1.13 270 121.13 270 121.13 273.51 109.33 276.14 88.33 273.05 78.92 274.08 66.53 277.03 47.92 272.49 34.73 272.77 25.93 283.07"/><polygon class="cls-14" points="1.13 275.43 1.13 270 121.13 270 121.13 272.72 109.33 274.75 88.33 272.36 78.92 273.15 66.53 275.43 47.92 271.92 34.73 272.14 25.93 280.11 16.52 272.29 9.93 272.65 1.13 275.43"/><polygon class="cls-1" points="391.13 420 398.52 481.3 349.32 553.96 309.73 659.7 197.44 645 91.13 660 0 635.56 1.13 599.7 91.13 585.54 134.53 519.16 211.13 503.56 241.13 420 391.13 420"/><polygon class="cls-2" points="93.21 586.66 137.32 520.68 212.45 505.38 242.89 422.31 390 422.31 394.69 482.43 346.43 553.69 307.6 657.39 197.47 642.98 93.21 657.69 3.84 633.71 4.94 600.55 93.21 586.66"/><polygon class="cls-3" points="95.29 587.79 140.13 522.21 213.77 507.21 244.66 424.63 388.88 424.63 390.85 483.56 343.54 553.42 305.47 655.09 197.51 640.95 95.29 655.38 7.68 631.87 8.76 601.41 95.29 587.79"/><polygon class="cls-4" points="97.38 588.92 142.93 523.73 215.1 509.03 246.43 426.94 387.75 426.94 387 484.69 340.65 553.15 303.34 652.78 197.54 638.93 97.38 653.06 11.52 630.03 12.58 602.26 97.38 588.92"/><polygon class="cls-5" points="99.46 590.05 145.72 525.26 216.42 510.86 248.19 429.25 386.63 429.25 383.17 485.82 337.76 552.88 301.21 650.47 197.58 636.91 99.46 650.75 15.36 628.19 16.4 603.12 99.46 590.05"/><polygon class="cls-6" points="101.54 591.18 148.53 526.78 217.74 512.69 249.96 431.56 385.5 431.56 379.32 486.95 334.87 552.61 299.08 648.16 197.61 634.88 101.54 648.44 19.2 626.35 20.22 603.98 101.54 591.18"/><polygon class="cls-7" points="384.38 433.88 375.49 488.08 331.97 552.34 296.95 645.86 197.65 632.86 103.63 646.13 23.04 624.51 24.03 604.83 103.63 592.31 151.32 528.31 219.07 514.51 251.72 433.88 384.38 433.88"/><polygon class="cls-8" points="0.57 617.47 13.32 606.31 37.21 602.76 55.33 610.12 83.33 598.31 102.13 601.91 120.53 588.71 117.33 562.71 130.13 540 140.93 536.31 156.53 536.31 182.93 518.71 203.71 519.91 217.32 524.31 234.53 500.31 232.69 480.86 239.72 452.31 258.52 440.31 272.13 433.88 298.13 437.51 317.32 430.71 333.73 435.51 343.73 439.91 365.32 430.71 380.13 427.51 393.52 439.88 391.13 420 241.13 420 211.13 503.56 134.53 519.16 91.13 585.54 1.13 599.7 0.57 617.47"/><polygon class="cls-9" points="343.83 437.56 364.81 429.29 380.19 426.7 393.22 437.37 391.13 420 241.13 420 211.13 503.56 134.53 519.16 91.13 585.54 1.13 599.7 0.6 615.71 13.32 605.36 37.21 601.82 55.89 607.95 83.22 597.01 101.16 599.61 118.22 586.51 116.64 562.39 129.91 539.19 140.66 533.88 156.43 533.64 182.21 517.83 204.03 518.67 216.76 521.94 232.43 499.11 231.81 480.61 238.94 451.42 256.61 437.79 272.19 432.23 297.61 435.66 317.51 429.39 333.88 433.62 343.83 437.56"/><polygon class="cls-10" points="343.94 435.21 364.29 427.88 380.26 425.89 392.92 434.85 391.13 420 241.13 420 211.13 503.56 134.53 519.16 91.13 585.54 1.13 599.7 0.64 613.95 13.32 604.42 37.21 600.87 56.46 605.78 83.13 595.71 100.19 597.31 115.92 584.31 115.96 562.08 129.69 538.39 140.39 531.44 156.32 530.98 181.49 516.94 204.35 517.44 216.19 519.58 230.32 497.91 230.92 480.36 238.16 450.52 254.69 435.27 272.26 430.59 297.09 433.81 317.69 428.07 334.02 431.73 343.94 435.21"/><polygon class="cls-11" points="344.05 432.86 363.77 426.46 380.32 425.08 392.61 432.33 391.13 420 241.13 420 211.13 503.56 134.53 519.16 91.13 585.54 1.13 599.7 0.68 612.19 13.32 603.48 37.21 599.93 57.02 603.61 83.03 594.41 99.22 595.01 113.63 582.11 115.28 561.76 129.47 537.58 140.13 529.01 156.22 528.31 180.78 516.06 204.67 516.21 215.63 517.21 228.22 496.71 230.03 480.11 237.38 449.63 252.78 432.76 272.32 428.94 296.57 431.96 317.88 426.76 334.18 429.83 344.05 432.86"/><polygon class="cls-12" points="344.16 430.51 363.26 425.04 380.39 424.27 392.31 429.81 391.13 420 241.13 420 211.13 503.56 134.53 519.16 91.13 585.54 1.13 599.7 0.72 610.43 13.32 602.53 37.21 598.98 57.59 601.44 82.92 593.11 98.26 592.71 111.33 579.91 114.59 561.44 129.26 536.77 139.86 526.58 156.13 525.64 180.06 515.17 204.99 514.98 215.06 514.84 226.13 495.51 229.15 479.86 236.59 448.74 250.86 430.24 272.39 427.3 296.06 430.11 318.06 425.44 334.32 427.94 344.16 430.51"/><polygon class="cls-13" points="344.27 428.16 362.74 423.63 380.46 423.47 392 427.29 391.13 420 241.13 420 211.13 503.56 134.53 519.16 91.13 585.54 1.13 599.7 0.76 608.67 13.32 601.59 37.21 598.04 58.16 599.28 82.83 591.81 97.29 590.41 109.03 577.71 113.91 561.13 129.04 535.97 139.59 524.14 156.03 522.98 179.34 514.29 205.31 513.74 214.49 512.48 224.03 494.31 228.26 479.61 235.81 447.85 248.94 427.73 272.46 425.65 295.54 428.26 318.24 424.13 334.48 426.05 344.27 428.16"/><polygon class="cls-14" points="0.79 606.91 13.32 600.64 37.21 597.1 58.73 597.11 82.72 590.51 96.33 588.11 106.72 575.51 113.22 560.81 128.82 535.16 139.32 521.71 155.93 520.31 178.63 513.41 205.63 512.51 213.93 510.11 221.93 493.11 227.38 479.36 235.03 446.96 247.03 425.21 272.52 424.01 295.02 426.41 318.43 422.81 334.63 424.16 344.38 425.81 362.23 422.21 380.52 422.66 391.7 424.77 391.13 420 241.13 420 211.13 503.56 134.53 519.16 91.13 585.54 1.13 599.7 0.79 606.91"/><polygon class="cls-1" points="1261.13 420 1261.13 450 1204.53 473.16 1104.53 473.16 1038.92 505.96 1021.13 510 961.13 510 961.13 480 1021.33 480.36 1043.72 450 1081.13 420 1261.13 420"/><polygon class="cls-2" points="1257.76 421.01 1257.76 450.34 1202.43 471.8 1104.67 471.8 1040.39 504 1022.99 507.95 964.49 508.99 964.49 481.02 1023.34 481.36 1045.24 450.34 1081.8 421.01 1257.76 421.01"/><polygon class="cls-3" points="1254.39 422.02 1254.39 450.67 1200.33 470.44 1104.82 470.44 1041.86 502.04 1024.86 505.9 967.86 507.98 967.86 482.03 1025.36 482.37 1046.75 450.67 1082.47 422.02 1254.39 422.02"/><polygon class="cls-4" points="1251.03 423.03 1251.03 451.01 1198.24 469.08 1104.97 469.08 1043.33 500.08 1026.72 503.85 971.23 506.97 971.23 483.05 1027.37 483.38 1048.26 451.01 1083.14 423.03 1251.03 423.03"/><polygon class="cls-5" points="1247.66 424.04 1247.66 451.35 1196.14 467.72 1105.12 467.72 1044.79 498.12 1028.59 501.81 974.59 505.96 974.59 484.07 1029.39 484.39 1049.78 451.35 1083.82 424.04 1247.66 424.04"/><polygon class="cls-6" points="1244.29 425.05 1244.29 451.68 1194.04 466.36 1105.27 466.36 1046.26 496.17 1030.46 499.76 977.96 504.95 977.96 485.08 1031.4 485.4 1051.29 451.68 1084.49 425.05 1244.29 425.05"/><polygon class="cls-7" points="1240.92 426.06 1240.92 452.02 1191.95 465 1105.41 465 1047.72 494.21 1032.32 497.71 981.33 503.94 981.33 486.1 1033.42 486.41 1052.8 452.02 1085.16 426.06 1240.92 426.06"/><polygon class="cls-8" points="961.13 480 1021.33 480 1043.72 450 1081.13 420 1261.13 420 1261.13 440.81 1243.92 431.21 1207.63 430.91 1178.53 436.01 1152.42 429.11 1140.13 433.31 1117.03 429.11 1108.63 434.21 1088.22 429.11 1075.33 439.61 1061.22 443.51 1057.63 460.91 1045.48 465 1034.83 476.21 1029.72 489.41 1012.63 494.81 997.02 486.11 983.52 488.21 973.33 487.01 961.13 492.71 961.13 480"/><polygon class="cls-9" points="961.13 491.61 961.13 480 1021.33 480 1043.72 450 1081.13 420 1261.13 420 1261.13 439.61 1243.92 430.01 1207.63 429.71 1178.53 434.59 1152.42 428.23 1140.13 432.43 1117.03 428.23 1108.63 433.32 1088.22 428.23 1074.84 439.02 1060.74 442.92 1056.21 459.81 1044.76 464.65 1034.1 475.86 1029.19 488.39 1012.09 493.79 997.02 485.59 983.52 487.69 973.33 486.43 961.13 491.61"/><polygon class="cls-10" points="961.13 490.51 961.13 480 1021.33 480 1043.72 450 1081.13 420 1261.13 420 1261.13 438.41 1243.92 428.81 1207.63 428.51 1178.53 433.18 1152.42 427.34 1140.13 431.54 1117.03 427.34 1108.63 432.44 1088.22 427.34 1074.36 438.44 1060.26 442.34 1054.79 458.71 1044.03 464.3 1033.37 475.51 1028.66 487.38 1011.56 492.77 997.02 485.07 983.52 487.18 973.33 485.84 961.13 490.51"/><polygon class="cls-11" points="961.13 489.41 961.13 480 1021.33 480 1043.72 450 1081.13 420 1261.13 420 1261.13 437.21 1243.92 427.61 1207.63 427.31 1178.53 431.76 1152.42 426.46 1140.13 430.66 1117.03 426.46 1108.63 431.56 1088.22 426.46 1073.88 437.86 1059.78 441.76 1053.38 457.61 1043.31 463.95 1032.64 475.16 1028.13 486.36 1011.02 491.76 997.02 484.56 983.52 486.66 973.33 485.26 961.13 489.41"/><polygon class="cls-12" points="961.13 488.31 961.13 480 1021.33 480 1043.72 450 1081.13 420 1261.13 420 1261.13 436.01 1243.92 426.41 1207.63 426.11 1178.53 430.34 1152.42 425.57 1140.13 429.77 1117.03 425.57 1108.63 430.68 1088.22 425.57 1073.39 437.27 1059.29 441.17 1051.96 456.51 1042.58 463.61 1031.92 474.81 1027.59 485.34 1010.49 490.74 997.02 484.04 983.52 486.14 973.33 484.68 961.13 488.31"/><polygon class="cls-13" points="961.13 487.21 961.13 480 1021.33 480 1043.72 450 1081.13 420 1261.13 420 1261.13 434.81 1243.92 425.21 1207.63 424.91 1178.53 428.93 1152.42 424.69 1140.13 428.89 1117.03 424.69 1108.63 429.79 1088.22 424.69 1072.91 436.69 1058.81 440.59 1050.54 455.41 1041.85 463.26 1031.19 474.46 1027.06 484.32 1009.96 489.73 997.02 483.52 983.52 485.63 973.33 484.09 961.13 487.21"/><polygon class="cls-14" points="961.13 480 1021.33 480 1043.72 450 1081.13 420 1261.13 420 1261.13 433.61 1243.92 424.01 1207.63 423.71 1178.53 427.51 1152.42 423.81 1140.13 428.01 1117.03 423.81 1108.63 428.91 1088.22 423.81 1072.42 436.1 1058.33 440 1049.13 454.31 1041.13 462.91 1030.46 474.12 1026.53 483.31 1009.42 488.71 997.02 483.01 983.52 485.11 973.33 483.51 961.13 486.11 961.13 480"/><polygon class="cls-8" points="901.13 649.51 901.13 630 1021.13 630 1021.13 642.31 1015.92 642.51 1007.33 637.11 998.33 638.31 982.73 646.31 965.52 639.75 941.92 640.71 924.13 649.51 914.73 642.31 907.73 641.91 901.13 649.51"/><polygon class="cls-9" points="924.13 647.52 914.73 641.06 907.73 640.7 901.13 647.52 901.13 630 1021.13 630 1021.13 641.06 1015.92 641.24 1007.33 636.39 998.33 637.46 982.73 644.65 965.52 638.76 941.92 639.62 924.13 647.52"/><polygon class="cls-10" points="924.13 645.54 914.73 639.81 907.73 639.49 901.13 645.54 901.13 630 1021.13 630 1021.13 639.81 1015.92 639.97 1007.33 635.66 998.33 636.62 982.73 642.99 965.52 637.77 941.92 638.53 924.13 645.54"/><polygon class="cls-11" points="924.13 643.56 914.73 638.55 907.73 638.28 901.13 643.56 901.13 630 1021.13 630 1021.13 638.55 1015.92 638.69 1007.33 634.94 998.33 635.77 982.73 641.33 965.52 636.78 941.92 637.44 924.13 643.56"/><polygon class="cls-12" points="924.13 641.58 914.73 637.3 907.73 637.07 901.13 641.58 901.13 630 1021.13 630 1021.13 637.3 1015.92 637.42 1007.33 634.22 998.33 634.93 982.73 639.68 965.52 635.79 941.92 636.35 924.13 641.58"/><polygon class="cls-13" points="924.13 639.59 914.73 636.05 907.73 635.86 901.13 639.59 901.13 630 1021.13 630 1021.13 636.05 1015.92 636.15 1007.33 633.5 998.33 634.09 982.73 638.02 965.52 634.8 941.92 635.26 924.13 639.59"/><polygon class="cls-14" points="901.13 637.61 901.13 630 1021.13 630 1021.13 634.8 1015.92 634.88 1007.33 632.77 998.33 633.24 982.73 636.36 965.52 633.8 941.92 634.18 924.13 637.61 914.73 634.8 907.73 634.64 901.13 637.61"/><path class="cls-1" d="M1081.12,780v30l19.4,6,10.6,12.8s37.8,6.8,39,6.4,36-18.8,36-18.8l15-6.36V780Z"/><path class="cls-2" d="M1180.12,816.08c.2,0,18.5-7.27,18.5-7.27l2.5-25.66-100-3.15-20,25,16.17,8.11,12.07,11.29s33.26,7,34.26,6.67S1179.92,816.12,1180.12,816.08Z"/><path class="cls-3" d="M1174.12,815.8c.4-.08,22-8.18,22-8.18l5-21.33-80-6.29-40,20,12.94,10.26,13.53,9.78s28.73,7.22,29.53,7S1173.72,815.89,1174.12,815.8Z"/><path class="cls-4" d="M1168.12,815.53c.6-.13,25.5-9.09,25.5-9.09l7.5-17-60-9.44-60,15,9.7,12.41,15,8.28s24.2,7.42,24.8,7.22S1167.52,815.65,1168.12,815.53Z"/><path class="cls-5" d="M1162.12,815.25c.8-.17,29-10,29-10l10-12.67-40-12.58-80,10,6.47,14.57,16.47,6.76s19.66,7.64,20.06,7.5S1161.32,815.42,1162.12,815.25Z"/><path class="cls-6" d="M1156.12,815c1-.21,32.5-10.91,32.5-10.91l12.5-8.33-20-15.73-100,5,3.24,16.72,17.93,5.26s15.13,7.84,15.33,7.77S1155.12,815.18,1156.12,815Z"/><path class="cls-7" d="M1081.12,780v18.87l19.4,3.75,10.6,8s37.8,4.28,39,4,36-11.83,36-11.83l15-4V780Z"/><polygon class="cls-8" points="1201.13 799.51 1201.13 780 1081.13 780 1081.13 792.31 1086.33 792.51 1094.92 787.11 1103.92 788.31 1119.53 796.31 1136.72 789.75 1160.33 790.71 1178.13 799.51 1187.53 792.31 1194.53 791.91 1201.13 799.51"/><polygon class="cls-9" points="1178.13 797.52 1187.53 791.06 1194.53 790.7 1201.13 797.52 1201.13 780 1081.13 780 1081.13 791.06 1086.33 791.24 1094.92 786.39 1103.92 787.46 1119.53 794.65 1136.72 788.76 1160.33 789.62 1178.13 797.52"/><polygon class="cls-10" points="1178.13 795.54 1187.53 789.81 1194.53 789.49 1201.13 795.54 1201.13 780 1081.13 780 1081.13 789.81 1086.33 789.97 1094.92 785.66 1103.92 786.62 1119.53 792.99 1136.72 787.77 1160.33 788.53 1178.13 795.54"/><polygon class="cls-11" points="1178.13 793.56 1187.53 788.55 1194.53 788.28 1201.13 793.56 1201.13 780 1081.13 780 1081.13 788.55 1086.33 788.69 1094.92 784.94 1103.92 785.77 1119.53 791.33 1136.72 786.78 1160.33 787.44 1178.13 793.56"/><polygon class="cls-12" points="1178.13 791.58 1187.53 787.3 1194.53 787.07 1201.13 791.58 1201.13 780 1081.13 780 1081.13 787.3 1086.33 787.42 1094.92 784.22 1103.92 784.93 1119.53 789.68 1136.72 785.79 1160.33 786.35 1178.13 791.58"/><polygon class="cls-13" points="1178.13 789.59 1187.53 786.05 1194.53 785.86 1201.13 789.59 1201.13 780 1081.13 780 1081.13 786.05 1086.33 786.15 1094.92 783.5 1103.92 784.09 1119.53 788.02 1136.72 784.8 1160.33 785.26 1178.13 789.59"/><polygon class="cls-14" points="1201.13 787.61 1201.13 780 1081.13 780 1081.13 784.8 1086.33 784.88 1094.92 782.77 1103.92 783.24 1119.53 786.36 1136.72 783.8 1160.33 784.18 1178.13 787.61 1187.53 784.8 1194.53 784.64 1201.13 787.61"/><polygon class="cls-1" points="2341.13 60 2341.13 90 2333.53 155.56 2266.93 204.16 2221.13 299.56 2187.13 215.56 2148.13 159.16 2137.93 200.56 2106.72 139.36 2101.13 90 2101.13 60 2341.13 60"/><polygon class="cls-2" points="2221.13 286.35 2187.13 206.98 2148.13 153.69 2137.93 192.81 2106.72 134.98 2101.13 88.35 2101.13 60 2341.13 60 2341.13 88.35 2333.53 150.29 2266.93 196.21 2221.13 286.35"/><polygon class="cls-3" points="2221.13 273.14 2187.13 198.4 2148.13 148.22 2137.93 185.06 2106.72 130.6 2101.13 86.69 2101.13 60 2341.13 60 2341.13 86.69 2333.53 145.02 2266.93 188.26 2221.13 273.14"/><polygon class="cls-4" points="2221.13 259.93 2187.13 189.83 2148.13 142.75 2137.93 177.31 2106.72 126.23 2101.13 85.04 2101.13 60 2341.13 60 2341.13 85.04 2333.53 139.75 2266.93 180.31 2221.13 259.93"/><polygon class="cls-5" points="2221.13 246.72 2187.13 181.25 2148.13 137.29 2137.93 169.56 2106.72 121.85 2101.13 83.38 2101.13 60 2341.13 60 2341.13 83.38 2333.53 134.48 2266.93 172.36 2221.13 246.72"/><polygon class="cls-6" points="2221.13 233.52 2187.13 172.67 2148.13 131.82 2137.93 161.81 2106.72 117.48 2101.13 81.73 2101.13 60 2341.13 60 2341.13 81.73 2333.53 129.21 2266.93 164.41 2221.13 233.52"/><polygon class="cls-7" points="2341.13 60 2341.13 80.08 2333.53 123.94 2266.93 156.47 2221.13 220.31 2187.13 164.1 2148.13 126.35 2137.93 154.06 2106.72 113.1 2101.13 80.08 2101.13 60 2341.13 60"/><polygon class="cls-8" points="2101.13 82.61 2123.53 84.41 2165.39 70.46 2219.22 99.71 2276.32 70.46 2312.59 74.11 2341.13 82.61 2341.13 60 2101.13 60 2101.13 82.61"/><polygon class="cls-9" points="2219.22 95.41 2276.32 69.28 2312.59 72.52 2341.13 80.06 2341.13 60 2101.13 60 2101.13 80.06 2123.22 82.96 2165.39 69.28 2219.22 95.41"/><polygon class="cls-10" points="2219.22 91.11 2276.32 68.1 2312.59 70.93 2341.13 77.51 2341.13 60 2101.13 60 2101.13 77.51 2122.93 81.51 2165.39 68.1 2219.22 91.11"/><polygon class="cls-11" points="2219.22 86.81 2276.32 66.92 2312.59 69.33 2341.13 74.96 2341.13 60 2101.13 60 2101.13 74.96 2122.63 80.06 2165.39 66.92 2219.22 86.81"/><polygon class="cls-12" points="2219.22 82.51 2276.32 65.74 2312.59 67.74 2341.13 72.41 2341.13 60 2101.13 60 2101.13 72.41 2122.32 78.61 2165.39 65.74 2219.22 82.51"/><polygon class="cls-13" points="2219.22 78.21 2276.32 64.56 2312.59 66.15 2341.13 69.86 2341.13 60 2101.13 60 2101.13 69.86 2122.03 77.16 2165.39 64.56 2219.22 78.21"/><polygon class="cls-14" points="2101.13 67.31 2121.72 75.71 2165.39 63.38 2219.22 73.91 2276.32 63.38 2312.59 64.56 2341.13 67.31 2341.13 60 2101.13 60 2101.13 67.31"/><polygon class="cls-1" points="4201.13 60 4201.13 90 4165.93 103.36 4135.32 121.36 4092.13 90 4081.13 90 4081.13 60 4201.13 60"/><polygon class="cls-15" points="4135.32 119.11 4092.13 88.9 4081.13 88.9 4081.13 60 4201.13 60 4201.13 88.9 4165.93 101.77 4135.32 119.11"/><polygon class="cls-2" points="4135.32 116.87 4092.13 87.81 4081.13 87.81 4081.13 60 4201.13 60 4201.13 87.81 4165.93 100.19 4135.32 116.87"/><polygon class="cls-3" points="4135.32 114.63 4092.13 86.71 4081.13 86.71 4081.13 60 4201.13 60 4201.13 86.71 4165.93 98.61 4135.32 114.63"/><polygon class="cls-16" points="4135.32 112.39 4092.13 85.62 4081.13 85.62 4081.13 60 4201.13 60 4201.13 85.62 4165.93 97.02 4135.32 112.39"/><polygon class="cls-4" points="4135.32 110.15 4092.13 84.52 4081.13 84.52 4081.13 60 4201.13 60 4201.13 84.52 4165.93 95.44 4135.32 110.15"/><polygon class="cls-4" points="4135.32 107.91 4092.13 83.43 4081.13 83.43 4081.13 60 4201.13 60 4201.13 83.43 4165.93 93.86 4135.32 107.91"/><polygon class="cls-17" points="4135.32 105.67 4092.13 82.33 4081.13 82.33 4081.13 60 4201.13 60 4201.13 82.33 4165.93 92.27 4135.32 105.67"/><polygon class="cls-5" points="4135.32 103.43 4092.13 81.23 4081.13 81.23 4081.13 60 4201.13 60 4201.13 81.23 4165.93 90.69 4135.32 103.43"/><polygon class="cls-6" points="4135.32 101.19 4092.13 80.14 4081.13 80.14 4081.13 60 4201.13 60 4201.13 80.14 4165.93 89.11 4135.32 101.19"/><polygon class="cls-18" points="4135.32 98.95 4092.13 79.04 4081.13 79.04 4081.13 60 4201.13 60 4201.13 79.04 4165.93 87.52 4135.32 98.95"/><polygon class="cls-7" points="4201.13 60 4201.13 77.95 4165.93 85.94 4135.32 96.71 4092.13 77.95 4081.13 77.95 4081.13 60 4201.13 60"/><polygon class="cls-8" points="4081.13 75 4081.13 60 4201.13 60 4201.13 67.5 4189.32 73.11 4168.32 66.51 4158.92 68.71 4146.52 75 4127.92 65.31 4114.72 65.91 4105.92 87.91 4096.52 66.31 4089.92 67.31 4081.13 75"/><polygon class="cls-9" points="4105.92 84.94 4096.52 65.64 4089.92 66.53 4081.13 73.41 4081.13 60 4201.13 60 4201.13 66.7 4189.32 71.72 4168.32 65.82 4158.92 67.78 4146.52 73.41 4127.92 64.74 4114.72 65.28 4105.92 84.94"/><polygon class="cls-10" points="4105.92 81.97 4096.52 64.97 4089.92 65.75 4081.13 71.81 4081.13 60 4201.13 60 4201.13 65.91 4189.32 70.32 4168.32 65.12 4158.92 66.86 4146.52 71.81 4127.92 64.18 4114.72 64.65 4105.92 81.97"/><polygon class="cls-11" points="4105.92 79.01 4096.52 64.3 4089.92 64.98 4081.13 70.22 4081.13 60 4201.13 60 4201.13 65.11 4189.32 68.93 4168.32 64.43 4158.92 65.93 4146.52 70.22 4127.92 63.62 4114.72 64.02 4105.92 79.01"/><polygon class="cls-12" points="4105.92 76.04 4096.52 63.63 4089.92 64.2 4081.13 68.62 4081.13 60 4201.13 60 4201.13 64.31 4189.32 67.53 4168.32 63.74 4158.92 65 4146.52 68.62 4127.92 63.05 4114.72 63.4 4105.92 76.04"/><polygon class="cls-13" points="4105.92 73.08 4096.52 62.95 4089.92 63.42 4081.13 67.03 4081.13 60 4201.13 60 4201.13 63.51 4189.32 66.14 4168.32 63.05 4158.92 64.08 4146.52 67.03 4127.92 62.49 4114.72 62.77 4105.92 73.08"/><polygon class="cls-14" points="4081.13 65.43 4081.13 60 4201.13 60 4201.13 62.72 4189.32 64.75 4168.32 62.36 4158.92 63.15 4146.52 65.43 4127.92 61.92 4114.72 62.14 4105.92 70.11 4096.52 62.28 4089.92 62.65 4081.13 65.43"/><polygon class="cls-1" points="4201.13 210 4201.13 240 4174.93 258.76 4141.13 275.56 4081.13 240 4081.13 210 4201.13 210"/><polygon class="cls-15" points="4141.13 272.82 4081.13 238.75 4081.13 210 4201.13 210 4201.13 238.75 4174.93 256.72 4141.13 272.82"/><polygon class="cls-2" points="4141.13 270.09 4081.13 237.5 4081.13 210 4201.13 210 4201.13 237.5 4174.93 254.69 4141.13 270.09"/><polygon class="cls-3" points="4141.13 267.36 4081.13 236.25 4081.13 210 4201.13 210 4201.13 236.25 4174.93 252.66 4141.13 267.36"/><polygon class="cls-16" points="4141.13 264.63 4081.13 235 4081.13 210 4201.13 210 4201.13 235 4174.93 250.63 4141.13 264.63"/><polygon class="cls-4" points="4141.13 261.9 4081.13 233.75 4081.13 210 4201.13 210 4201.13 233.75 4174.93 248.6 4141.13 261.9"/><polygon class="cls-4" points="4141.13 259.17 4081.13 232.5 4081.13 210 4201.13 210 4201.13 232.5 4174.93 246.57 4141.13 259.17"/><polygon class="cls-17" points="4141.13 256.44 4081.13 231.25 4081.13 210 4201.13 210 4201.13 231.25 4174.93 244.53 4141.13 256.44"/><polygon class="cls-5" points="4141.13 253.7 4081.13 230 4081.13 210 4201.13 210 4201.13 230 4174.93 242.5 4141.13 253.7"/><polygon class="cls-6" points="4141.13 250.97 4081.13 228.75 4081.13 210 4201.13 210 4201.13 228.75 4174.93 240.47 4141.13 250.97"/><polygon class="cls-18" points="4141.13 248.24 4081.13 227.5 4081.13 210 4201.13 210 4201.13 227.5 4174.93 238.44 4141.13 248.24"/><polygon class="cls-7" points="4201.13 210 4201.13 226.25 4174.93 236.41 4141.13 245.51 4081.13 226.25 4081.13 210 4201.13 210"/><polygon class="cls-8" points="4201.13 229.51 4201.13 210 4081.13 210 4081.13 222.31 4086.32 222.51 4094.93 217.11 4103.93 218.31 4119.52 226.31 4136.73 219.75 4160.32 220.71 4178.13 229.51 4187.52 222.31 4194.52 221.91 4201.13 229.51"/><polygon class="cls-9" points="4178.13 227.53 4187.52 221.06 4194.52 220.7 4201.13 227.53 4201.13 210 4081.13 210 4081.13 221.06 4086.32 221.24 4094.93 216.39 4103.93 217.46 4119.52 224.65 4136.73 218.76 4160.32 219.62 4178.13 227.53"/><polygon class="cls-10" points="4178.13 225.54 4187.52 219.81 4194.52 219.49 4201.13 225.54 4201.13 210 4081.13 210 4081.13 219.81 4086.32 219.97 4094.93 215.66 4103.93 216.62 4119.52 222.99 4136.73 217.77 4160.32 218.53 4178.13 225.54"/><polygon class="cls-11" points="4178.13 223.56 4187.52 218.55 4194.52 218.28 4201.13 223.56 4201.13 210 4081.13 210 4081.13 218.55 4086.32 218.69 4094.93 214.94 4103.93 215.77 4119.52 221.33 4136.73 216.78 4160.32 217.44 4178.13 223.56"/><polygon class="cls-12" points="4178.13 221.57 4187.52 217.3 4194.52 217.07 4201.13 221.57 4201.13 210 4081.13 210 4081.13 217.3 4086.32 217.42 4094.93 214.22 4103.93 214.93 4119.52 219.68 4136.73 215.79 4160.32 216.35 4178.13 221.57"/><polygon class="cls-13" points="4178.13 219.59 4187.52 216.05 4194.52 215.85 4201.13 219.59 4201.13 210 4081.13 210 4081.13 216.05 4086.32 216.15 4094.93 213.5 4103.93 214.09 4119.52 218.02 4136.73 214.8 4160.32 215.26 4178.13 219.59"/><polygon class="cls-14" points="4201.13 217.61 4201.13 210 4081.13 210 4081.13 214.8 4086.32 214.88 4094.93 212.77 4103.93 213.24 4119.52 216.36 4136.73 213.8 4160.32 214.18 4178.13 217.61 4187.52 214.8 4194.52 214.64 4201.13 217.61"/><polygon class="cls-1" points="3901.13 330 3901.13 360 3946.13 378.76 3974.13 388.36 4013.32 366.76 4021.13 349.96 4021.13 330 3901.13 330"/><polygon class="cls-15" points="3974.13 386.1 4013.32 365.33 4021.13 349.18 4021.13 330 3901.13 330 3901.13 358.84 3946.13 376.87 3974.13 386.1"/><polygon class="cls-2" points="3974.13 383.84 4013.32 363.91 4021.13 348.41 4021.13 330 3901.13 330 3901.13 357.68 3946.13 374.98 3974.13 383.84"/><polygon class="cls-3" points="3974.13 381.58 4013.32 362.49 4021.13 347.64 4021.13 330 3901.13 330 3901.13 356.52 3946.13 373.09 3974.13 381.58"/><polygon class="cls-16" points="3974.13 379.32 4013.32 361.06 4021.13 346.87 4021.13 330 3901.13 330 3901.13 355.36 3946.13 371.21 3974.13 379.32"/><polygon class="cls-4" points="3974.13 377.06 4013.32 359.64 4021.13 346.09 4021.13 330 3901.13 330 3901.13 354.19 3946.13 369.32 3974.13 377.06"/><polygon class="cls-4" points="3974.13 374.8 4013.32 358.22 4021.13 345.32 4021.13 330 3901.13 330 3901.13 353.03 3946.13 367.43 3974.13 374.8"/><polygon class="cls-17" points="3974.13 372.54 4013.32 356.8 4021.13 344.55 4021.13 330 3901.13 330 3901.13 351.87 3946.13 365.55 3974.13 372.54"/><polygon class="cls-5" points="3974.13 370.29 4013.32 355.37 4021.13 343.78 4021.13 330 3901.13 330 3901.13 350.71 3946.13 363.66 3974.13 370.29"/><polygon class="cls-6" points="3974.13 368.03 4013.32 353.95 4021.13 343 4021.13 330 3901.13 330 3901.13 349.55 3946.13 361.77 3974.13 368.03"/><polygon class="cls-18" points="3974.13 365.77 4013.32 352.53 4021.13 342.23 4021.13 330 3901.13 330 3901.13 348.39 3946.13 359.88 3974.13 365.77"/><polygon class="cls-7" points="3901.13 330 3901.13 347.23 3946.13 358 3974.13 363.51 4013.32 351.11 4021.13 341.46 4021.13 330 3901.13 330"/><polygon class="cls-8" points="3901.13 352.61 3911.93 342.89 3933.26 340.46 3959.66 352.61 3988.72 340.46 4006.86 344.11 4021.13 349.96 4021.13 330 3901.13 330 3901.13 352.61"/><polygon class="cls-9" points="3959.66 350.06 3988.72 339.28 4006.86 342.52 4021.13 347.85 4021.13 330 3901.13 330 3901.13 350.06 3911.93 341.44 3933.26 339.28 3959.66 350.06"/><polygon class="cls-10" points="3959.66 347.51 3988.72 338.1 4006.86 340.93 4021.13 345.74 4021.13 330 3901.13 330 3901.13 347.51 3911.93 339.98 3933.26 338.1 3959.66 347.51"/><polygon class="cls-11" points="3959.66 344.96 3988.72 336.92 4006.86 339.33 4021.13 343.63 4021.13 330 3901.13 330 3901.13 344.96 3911.93 338.53 3933.26 336.92 3959.66 344.96"/><polygon class="cls-12" points="3959.66 342.41 3988.72 335.74 4006.86 337.74 4021.13 341.52 4021.13 330 3901.13 330 3901.13 342.41 3911.93 337.08 3933.26 335.74 3959.66 342.41"/><polygon class="cls-13" points="3959.66 339.86 3988.72 334.56 4006.86 336.15 4021.13 339.42 4021.13 330 3901.13 330 3901.13 339.86 3911.93 335.62 3933.26 334.56 3959.66 339.86"/><polygon class="cls-14" points="3901.13 337.31 3911.93 334.17 3933.26 333.38 3959.66 337.31 3988.72 333.38 4006.86 334.56 4021.13 337.31 4021.13 330 3901.13 330 3901.13 337.31"/><polygon class="cls-1" points="2941.13 0 2941.13 30 2903.72 37.96 2866.13 50.76 2837.32 30 2821.13 30 2821.13 0 2941.13 0"/><polygon class="cls-15" points="2866.13 48.86 2837.32 28.88 2821.13 28.88 2821.13 0 2941.13 0 2941.13 28.88 2903.72 36.54 2866.13 48.86"/><polygon class="cls-2" points="2866.13 46.97 2837.32 27.76 2821.13 27.76 2821.13 0 2941.13 0 2941.13 27.76 2903.72 35.12 2866.13 46.97"/><polygon class="cls-3" points="2866.13 45.07 2837.32 26.64 2821.13 26.64 2821.13 0 2941.13 0 2941.13 26.64 2903.72 33.7 2866.13 45.07"/><polygon class="cls-16" points="2866.13 43.17 2837.32 25.52 2821.13 25.52 2821.13 0 2941.13 0 2941.13 25.52 2903.72 32.29 2866.13 43.17"/><polygon class="cls-4" points="2866.13 41.28 2837.32 24.4 2821.13 24.4 2821.13 0 2941.13 0 2941.13 24.4 2903.72 30.87 2866.13 41.28"/><polygon class="cls-4" points="2866.13 39.38 2837.32 23.28 2821.13 23.28 2821.13 0 2941.13 0 2941.13 23.28 2903.72 29.45 2866.13 39.38"/><polygon class="cls-17" points="2866.13 37.49 2837.32 22.16 2821.13 22.16 2821.13 0 2941.13 0 2941.13 22.16 2903.72 28.04 2866.13 37.49"/><polygon class="cls-5" points="2866.13 35.59 2837.32 21.04 2821.13 21.04 2821.13 0 2941.13 0 2941.13 21.04 2903.72 26.62 2866.13 35.59"/><polygon class="cls-6" points="2866.13 33.7 2837.32 19.92 2821.13 19.92 2821.13 0 2941.13 0 2941.13 19.92 2903.72 25.2 2866.13 33.7"/><polygon class="cls-18" points="2866.13 31.8 2837.32 18.8 2821.13 18.8 2821.13 0 2941.13 0 2941.13 18.8 2903.72 23.78 2866.13 31.8"/><polygon class="cls-7" points="2941.13 0 2941.13 17.68 2903.72 22.37 2866.13 29.91 2837.32 17.68 2821.13 17.68 2821.13 0 2941.13 0"/><polygon class="cls-8" points="2941.13 22.61 2930.32 12.89 2908.99 10.46 2882.59 22.61 2853.53 10.46 2835.39 14.11 2821.13 19.96 2821.13 0 2941.13 0 2941.13 22.61"/><polygon class="cls-9" points="2882.59 20.06 2853.53 9.28 2835.39 12.52 2821.13 17.85 2821.13 0 2941.13 0 2941.13 20.06 2930.32 11.44 2908.99 9.28 2882.59 20.06"/><polygon class="cls-10" points="2882.59 17.51 2853.53 8.1 2835.39 10.93 2821.13 15.74 2821.13 0 2941.13 0 2941.13 17.51 2930.32 9.98 2908.99 8.1 2882.59 17.51"/><polygon class="cls-11" points="2882.59 14.96 2853.53 6.92 2835.39 9.34 2821.13 13.63 2821.13 0 2941.13 0 2941.13 14.96 2930.32 8.53 2908.99 6.92 2882.59 14.96"/><polygon class="cls-12" points="2882.59 12.41 2853.53 5.74 2835.39 7.74 2821.13 11.52 2821.13 0 2941.13 0 2941.13 12.41 2930.32 7.08 2908.99 5.74 2882.59 12.41"/><polygon class="cls-13" points="2882.59 9.86 2853.53 4.56 2835.39 6.15 2821.13 9.42 2821.13 0 2941.13 0 2941.13 9.86 2930.32 5.62 2908.99 4.56 2882.59 9.86"/><polygon class="cls-14" points="2941.13 7.31 2930.32 4.17 2908.99 3.38 2882.59 7.31 2853.53 3.38 2835.39 4.56 2821.13 7.31 2821.13 0 2941.13 0 2941.13 7.31"/><polygon class="cls-1" points="3001.13 180 2981.32 188.36 2961.32 198.76 2941.13 180 2941.13 150 3001.13 150 3001.13 180"/><polygon class="cls-15" points="2942.96 179.68 2941.13 151.48 2995.67 150 3001.13 177.27 2983.13 186.35 2963.14 196.22 2942.96 179.68"/><polygon class="cls-2" points="2944.8 179.37 2941.13 152.97 2990.22 150 3001.13 174.54 2984.93 184.35 2964.96 193.68 2944.8 179.37"/><polygon class="cls-3" points="2946.63 179.05 2941.13 154.45 2984.76 150 3001.13 171.82 2986.72 182.34 2966.78 191.15 2946.63 179.05"/><polygon class="cls-16" points="2948.47 178.73 2941.13 155.93 2979.31 150 3001.13 169.09 2988.53 180.34 2968.6 188.61 2948.47 178.73"/><polygon class="cls-4" points="2950.31 178.41 2941.13 157.41 2973.85 150 3001.13 166.36 2990.32 178.34 2970.42 186.07 2950.31 178.41"/><polygon class="cls-4" points="2952.14 178.09 2941.13 158.9 2968.4 150 3001.13 163.64 2992.13 176.33 2972.23 183.54 2952.14 178.09"/><polygon class="cls-17" points="2953.98 177.78 2941.13 160.38 2962.94 150 3001.13 160.91 2993.93 174.33 2974.05 181 2953.98 177.78"/><polygon class="cls-5" points="2955.82 177.46 2941.13 161.86 2957.49 150 3001.13 158.18 2995.72 172.32 2975.87 178.46 2955.82 177.46"/><polygon class="cls-6" points="2957.65 177.14 2941.13 163.34 2952.03 150 3001.13 155.46 2997.53 170.32 2977.69 175.93 2957.65 177.14"/><polygon class="cls-18" points="2959.49 176.83 2941.13 164.83 2946.58 150 3001.13 152.73 2999.32 168.31 2979.51 173.39 2959.49 176.83"/><polygon class="cls-7" points="3001.13 166.31 2981.32 170.85 2961.32 176.51 2941.13 166.31 2941.13 150 3001.13 150 3001.13 166.31"/><polygon class="cls-8" points="2941.13 169.61 2941.13 150 3001.13 150 3001.13 159.8 2991.43 164.81 2977.32 159.8 2965.63 161.51 2961.13 172.01 2948.22 160.91 2941.13 169.61"/><polygon class="cls-9" points="2961.13 169.93 2948.22 159.88 2941.13 167.76 2941.13 150 3001.13 150 3001.13 158.88 2991.43 163.41 2977.32 158.88 2965.63 160.42 2961.13 169.93"/><polygon class="cls-10" points="2961.13 167.86 2948.22 158.85 2941.13 165.91 2941.13 150 3001.13 150 3001.13 157.96 2991.43 162.02 2977.32 157.96 2965.63 159.34 2961.13 167.86"/><polygon class="cls-11" points="2961.13 165.78 2948.22 157.82 2941.13 164.06 2941.13 150 3001.13 150 3001.13 157.03 2991.43 160.62 2977.32 157.03 2965.63 158.25 2961.13 165.78"/><polygon class="cls-12" points="2961.13 163.71 2948.22 156.79 2941.13 162.21 2941.13 150 3001.13 150 3001.13 156.11 2991.43 159.22 2977.32 156.11 2965.63 157.17 2961.13 163.71"/><polygon class="cls-13" points="2961.13 161.63 2948.22 155.77 2941.13 160.37 2941.13 150 3001.13 150 3001.13 155.18 2991.43 157.83 2977.32 155.18 2965.63 156.08 2961.13 161.63"/><polygon class="cls-14" points="2941.13 158.52 2941.13 150 3001.13 150 3001.13 154.26 2991.43 156.43 2977.32 154.26 2965.63 155 2961.13 159.56 2948.22 154.74 2941.13 158.52"/><polygon class="cls-1" points="4921.13 60 4896.52 77.96 4881.32 81.96 4861.13 60 4861.13 30 4921.13 30 4921.13 60"/><polygon class="cls-2" points="4881.32 78.75 4861.13 58.15 4861.13 30 4921.13 30 4921.13 58.15 4896.52 75 4881.32 78.75"/><polygon class="cls-3" points="4881.32 75.54 4861.13 56.3 4861.13 30 4921.13 30 4921.13 56.3 4896.52 72.03 4881.32 75.54"/><polygon class="cls-4" points="4881.32 72.33 4861.13 54.44 4861.13 30 4921.13 30 4921.13 54.44 4896.52 69.07 4881.32 72.33"/><polygon class="cls-5" points="4881.32 69.12 4861.13 52.59 4861.13 30 4921.13 30 4921.13 52.59 4896.52 66.11 4881.32 69.12"/><polygon class="cls-6" points="4881.32 65.92 4861.13 50.74 4861.13 30 4921.13 30 4921.13 50.74 4896.52 63.15 4881.32 65.92"/><polygon class="cls-7" points="4921.13 48.89 4896.52 60.19 4881.32 62.71 4861.13 48.89 4861.13 30 4921.13 30 4921.13 48.89"/><polygon class="cls-8" points="4921.13 49.61 4921.13 30 4861.13 30 4861.13 39.8 4870.82 44.81 4884.93 39.8 4896.63 41.51 4901.13 52.01 4914.02 40.91 4921.13 49.61"/><polygon class="cls-9" points="4901.13 49.93 4914.02 39.88 4921.13 47.76 4921.13 30 4861.13 30 4861.13 38.88 4870.82 43.41 4884.93 38.88 4896.63 40.42 4901.13 49.93"/><polygon class="cls-10" points="4901.13 47.86 4914.02 38.85 4921.13 45.91 4921.13 30 4861.13 30 4861.13 37.95 4870.82 42.02 4884.93 37.95 4896.63 39.34 4901.13 47.86"/><polygon class="cls-11" points="4901.13 45.78 4914.02 37.82 4921.13 44.06 4921.13 30 4861.13 30 4861.13 37.03 4870.82 40.62 4884.93 37.03 4896.63 38.25 4901.13 45.78"/><polygon class="cls-12" points="4901.13 43.71 4914.02 36.79 4921.13 42.21 4921.13 30 4861.13 30 4861.13 36.11 4870.82 39.22 4884.93 36.11 4896.63 37.17 4901.13 43.71"/><polygon class="cls-13" points="4901.13 41.63 4914.02 35.77 4921.13 40.37 4921.13 30 4861.13 30 4861.13 35.18 4870.82 37.83 4884.93 35.18 4896.63 36.08 4901.13 41.63"/><polygon class="cls-14" points="4921.13 38.52 4921.13 30 4861.13 30 4861.13 34.26 4870.82 36.43 4884.93 34.26 4896.63 35 4901.13 39.56 4914.02 34.74 4921.13 38.52"/><polygon class="cls-1" points="5041.13 330 5041.13 360 5014.93 365.96 4994.93 386.76 4965.32 396.36 4946.93 363.18 4921.13 350.76 4921.13 330 5041.13 330"/><polygon class="cls-2" points="4965.32 391.75 4946.93 360.87 4921.13 349.31 4921.13 330 5041.13 330 5041.13 357.92 5014.93 363.46 4994.93 382.81 4965.32 391.75"/><polygon class="cls-3" points="4965.32 387.14 4946.93 358.57 4921.13 347.87 4921.13 330 5041.13 330 5041.13 355.83 5014.93 360.96 4994.93 378.87 4965.32 387.14"/><polygon class="cls-4" points="4965.32 382.53 4946.93 356.27 4921.13 346.43 4921.13 330 5041.13 330 5041.13 353.75 5014.93 358.46 4994.93 374.93 4965.32 382.53"/><polygon class="cls-5" points="4965.32 377.92 4946.93 353.96 4921.13 344.99 4921.13 330 5041.13 330 5041.13 351.67 5014.93 355.97 4994.93 370.99 4965.32 377.92"/><polygon class="cls-6" points="4965.32 373.32 4946.93 351.66 4921.13 343.55 4921.13 330 5041.13 330 5041.13 349.58 5014.93 353.47 4994.93 367.05 4965.32 373.32"/><polygon class="cls-7" points="5041.13 330 5041.13 347.5 5014.93 350.98 4994.93 363.11 4965.32 368.71 4946.93 349.35 4921.13 342.11 4921.13 330 5041.13 330"/><polygon class="cls-8" points="5041.13 349.35 5030.32 341.04 5008.99 338.95 4982.59 349.35 4953.52 338.95 4935.39 342.08 4921.13 347.08 4921.13 330 5041.13 330 5041.13 349.35"/><polygon class="cls-9" points="4982.59 347.17 4953.52 337.94 4935.39 340.72 4921.13 345.28 4921.13 330 5041.13 330 5041.13 347.17 5030.32 339.79 5008.99 337.94 4982.59 347.17"/><polygon class="cls-10" points="4982.59 344.99 4953.52 336.93 4935.39 339.35 4921.13 343.48 4921.13 330 5041.13 330 5041.13 344.99 5030.32 338.55 5008.99 336.93 4982.59 344.99"/><polygon class="cls-11" points="4982.59 342.81 4953.52 335.92 4935.39 337.99 4921.13 341.67 4921.13 330 5041.13 330 5041.13 342.81 5030.32 337.3 5008.99 335.92 4982.59 342.81"/><polygon class="cls-12" points="4982.59 340.62 4953.52 334.91 4935.39 336.63 4921.13 339.87 4921.13 330 5041.13 330 5041.13 340.62 5030.32 336.06 5008.99 334.91 4982.59 340.62"/><polygon class="cls-13" points="4982.59 338.44 4953.52 333.9 4935.39 335.27 4921.13 338.06 4921.13 330 5041.13 330 5041.13 338.44 5030.32 334.81 5008.99 333.9 4982.59 338.44"/><polygon class="cls-14" points="5041.13 336.26 5030.32 333.57 5008.99 332.89 4982.59 336.26 4953.52 332.89 4935.39 333.9 4921.13 336.26 4921.13 330 5041.13 330 5041.13 336.26"/></g></g></svg>