<svg xmlns="http://www.w3.org/2000/svg" viewBox="0 0 192.2 1202.55"><defs><style>.cls-1{fill:#754c24;}.cls-2{fill:#795028;}.cls-3{fill:#7d532b;}.cls-4{fill:#81572f;}.cls-5{fill:#845b32;}.cls-6{fill:#885e35;}.cls-7{fill:#8c6239;}.cls-8{fill:#42210b;}.cls-9{fill:#4e2c13;}.cls-10{fill:#5b371a;}.cls-11{fill:#674222;}.cls-12{fill:#734c2a;}.cls-13{fill:#805731;}.cls-14{opacity:0.53;}.cls-15{fill:#261207;}</style></defs><title>Plataforma Móvel 3</title><g id="Layer_2" data-name="Layer 2"><g id="Plat_Movel_3" data-name="Plat Movel 3"><rect class="cls-1" x="94.67" width="5" height="981.68"/><rect class="cls-2" x="94.67" width="4.58" height="981.68"/><rect class="cls-3" x="94.67" width="4.17" height="981.68"/><rect class="cls-4" x="94.67" width="3.75" height="981.68"/><rect class="cls-5" x="94.67" width="3.33" height="981.68"/><rect class="cls-6" x="94.67" width="2.92" height="981.68"/><rect class="cls-7" x="94.67" width="2.5" height="981.68"/><rect class="cls-8" x="6.1" y="1175.24" width="180" height="27.31"/><rect class="cls-9" x="6.1" y="1175.24" width="180" height="24.02"/><rect class="cls-10" x="6.1" y="1175.24" width="180" height="20.74"/><rect class="cls-11" x="6.1" y="1175.24" width="180" height="17.46"/><rect class="cls-12" x="6.1" y="1175.24" width="180" height="14.18"/><rect class="cls-13" x="6.1" y="1175.24" width="180" height="10.9"/><rect class="cls-7" x="6.1" y="1175.24" width="180" height="7.62"/><g class="cls-14"><path class="cls-15" d="M17.73,1188.9q11.93-.59,23.86-.78c8-.16,15.91-.2,23.86-.22s15.91.06,23.87.22,15.9.39,23.86.78q-11.94.58-23.86.78c-8,.16-15.91.2-23.87.22s-15.9-.07-23.86-.23S25.68,1189.28,17.73,1188.9Z"/></g><g class="cls-14"><path class="cls-15" d="M40,1199.1q16.49-.58,33-.78c11-.16,22-.2,33-.22s22,.06,33,.22,22,.39,33,.78q-16.49.59-33,.78c-11,.16-22,.2-33,.22s-22-.06-33-.22S51,1199.49,40,1199.1Z"/></g><g class="cls-14"><path class="cls-15" d="M26,1182.86q16.49-.57,33-.77c11-.16,22-.21,33-.23s22,.06,33,.22,22,.39,33,.78q-16.49.59-33,.78c-11,.16-22,.21-33,.22s-22-.06-33-.22S37,1183.25,26,1182.86Z"/></g><g class="cls-14"><path class="cls-15" d="M60.35,1192.45q11.71-.59,23.43-.78c7.81-.16,15.62-.2,23.43-.22s15.63.06,23.44.22,15.62.39,23.43.78q-11.72.58-23.43.78c-7.81.16-15.63.2-23.44.22s-15.62-.06-23.43-.22S68.16,1192.84,60.35,1192.45Z"/></g><polygon class="cls-1" points="192.2 1181.1 97.17 973.2 0 1181.1 6.1 1176.15 97.17 985.8 186.1 1176.15 192.2 1181.1"/><polygon class="cls-2" points="186.61 1176.56 192.2 1181.1 97.17 973.2 0 1181.1 5.59 1176.56 97.17 984.95 186.61 1176.56"/><polygon class="cls-3" points="187.12 1176.97 192.2 1181.1 97.17 973.2 0 1181.1 5.08 1176.97 97.17 984.1 187.12 1176.97"/><polygon class="cls-4" points="187.63 1177.39 192.2 1181.1 97.17 973.2 0 1181.1 4.58 1177.39 97.17 983.25 187.63 1177.39"/><polygon class="cls-5" points="188.13 1177.8 192.2 1181.1 97.17 973.2 0 1181.1 4.07 1177.8 97.17 982.4 188.13 1177.8"/><polygon class="cls-6" points="188.64 1178.21 192.2 1181.1 97.17 973.2 0 1181.1 3.56 1178.21 97.17 981.55 188.64 1178.21"/><polygon class="cls-7" points="192.2 1181.1 97.17 973.2 0 1181.1 3.05 1178.63 97.17 980.7 189.15 1178.63 192.2 1181.1"/><polygon class="cls-1" points="186.1 1194 190.03 1189.42 192.2 1181.1 186.1 1176.15 186.1 1194"/><polygon class="cls-2" points="186.61 1177.3 186.1 1194 190.03 1189.42 192.06 1181.65 186.61 1177.3"/><polygon class="cls-3" points="187.12 1178.45 186.1 1194 190.03 1189.42 191.91 1182.19 187.12 1178.45"/><polygon class="cls-4" points="187.63 1179.6 186.1 1194 190.03 1189.42 191.77 1182.74 187.63 1179.6"/><polygon class="cls-5" points="188.13 1180.75 186.1 1194 190.03 1189.42 191.63 1183.29 188.13 1180.75"/><polygon class="cls-6" points="188.64 1181.9 186.1 1194 190.03 1189.42 191.49 1183.84 188.64 1181.9"/><polygon class="cls-7" points="186.1 1194 190.03 1189.42 191.34 1184.38 189.15 1183.05 186.1 1194"/><polygon class="cls-1" points="6.1 1194 2.17 1189.42 0 1181.1 6.1 1176.15 6.1 1194"/><polygon class="cls-2" points="5.59 1177.3 6.1 1194 2.17 1189.42 0.14 1181.65 5.59 1177.3"/><polygon class="cls-3" points="5.08 1178.45 6.1 1194 2.17 1189.42 0.29 1182.19 5.08 1178.45"/><polygon class="cls-4" points="4.58 1179.6 6.1 1194 2.17 1189.42 0.43 1182.74 4.58 1179.6"/><polygon class="cls-5" points="4.07 1180.75 6.1 1194 2.17 1189.42 0.57 1183.29 4.07 1180.75"/><polygon class="cls-6" points="3.56 1181.9 6.1 1194 2.17 1189.42 0.71 1183.84 3.56 1181.9"/><polygon class="cls-7" points="6.1 1194 2.17 1189.42 0.86 1184.38 3.05 1183.05 6.1 1194"/><polygon class="cls-1" points="92.87 971.4 89.57 981.6 97.17 991.95 104.57 982.95 102.17 973.2 92.87 971.4"/><polygon class="cls-2" points="89.96 981.48 97.03 991.38 104.17 982.4 101.91 973.64 93.12 971.94 89.96 981.48"/><polygon class="cls-3" points="90.35 981.35 96.9 990.8 103.77 981.85 101.65 974.08 93.37 972.48 90.35 981.35"/><polygon class="cls-4" points="90.73 981.23 96.76 990.23 103.37 981.3 101.38 974.51 93.62 973.01 90.73 981.23"/><polygon class="cls-5" points="91.12 981.1 96.62 989.65 102.97 980.75 101.12 974.95 93.87 973.55 91.12 981.1"/><polygon class="cls-6" points="91.51 980.98 96.48 989.08 102.57 980.2 100.86 975.39 94.12 974.09 91.51 980.98"/><polygon class="cls-7" points="94.37 974.63 91.9 980.85 96.35 988.5 102.17 979.65 100.6 975.83 94.37 974.63"/><polygon class="cls-1" points="95.81 990.1 99.45 972.67 94.67 971.75 93.01 986.28 95.81 990.1"/><polygon class="cls-2" points="99.08 972.6 94.67 971.75 93.01 986.28 95.6 989.81 99.08 972.6"/><polygon class="cls-3" points="98.69 972.53 94.67 971.75 93.01 986.28 95.38 989.51 98.69 972.53"/><polygon class="cls-4" points="98.31 972.45 94.67 971.75 93.01 986.28 95.16 989.21 98.31 972.45"/><polygon class="cls-5" points="97.93 972.38 94.67 971.75 93.01 986.28 94.94 988.92 97.93 972.38"/><polygon class="cls-6" points="97.55 972.31 94.67 971.75 93.01 986.28 94.73 988.62 97.55 972.31"/><polygon class="cls-7" points="94.51 988.32 97.17 972.23 94.67 971.75 93.01 986.28 94.51 988.32"/><polygon class="cls-1" points="91.1 976.88 99.63 989.01 102.88 984.92 92.24 973.36 91.1 976.88"/><polygon class="cls-2" points="99.92 988.64 102.89 984.92 92.24 973.36 91.24 976.45 99.92 988.64"/><polygon class="cls-3" points="100.21 988.27 102.89 984.93 92.24 973.36 91.38 976.02 100.21 988.27"/><polygon class="cls-4" points="100.51 987.9 102.9 984.94 92.24 973.36 91.52 975.59 100.51 987.9"/><polygon class="cls-5" points="100.8 987.54 102.91 984.95 92.24 973.36 91.66 975.15 100.8 987.54"/><polygon class="cls-6" points="101.09 987.17 102.91 984.95 92.24 973.36 91.8 974.72 101.09 987.17"/><polygon class="cls-7" points="91.94 974.29 101.38 986.8 102.92 984.96 92.24 973.36 91.94 974.29"/></g></g></svg>