<svg xmlns="http://www.w3.org/2000/svg" viewBox="0 0 132.2 1202.55"><defs><style>.cls-1{fill:#754c24;}.cls-2{fill:#795028;}.cls-3{fill:#7d532b;}.cls-4{fill:#81572f;}.cls-5{fill:#845b32;}.cls-6{fill:#885e35;}.cls-7{fill:#8c6239;}.cls-8{fill:#42210b;}.cls-9{fill:#4e2c13;}.cls-10{fill:#5b371a;}.cls-11{fill:#674222;}.cls-12{fill:#734c2a;}.cls-13{fill:#805731;}.cls-14{opacity:0.53;}.cls-15{fill:#261207;}</style></defs><title>Plataforma Móvel 1</title><g id="Layer_2" data-name="Layer 2"><g id="Plat_Movel_1" data-name="Plat Movel 1"><rect class="cls-1" x="63.6" width="5" height="981.68"/><rect class="cls-2" x="63.6" width="4.58" height="981.68"/><rect class="cls-3" x="63.6" width="4.17" height="981.68"/><rect class="cls-4" x="63.6" width="3.75" height="981.68"/><rect class="cls-5" x="63.6" width="3.33" height="981.68"/><rect class="cls-6" x="63.6" width="2.92" height="981.68"/><rect class="cls-7" x="63.6" width="2.5" height="981.68"/><rect class="cls-8" x="6.1" y="1175.24" width="120" height="27.31"/><rect class="cls-9" x="6.1" y="1175.24" width="120" height="24.02"/><rect class="cls-10" x="6.1" y="1175.24" width="120" height="20.74"/><rect class="cls-11" x="6.1" y="1175.24" width="120" height="17.46"/><rect class="cls-12" x="6.1" y="1175.24" width="120" height="14.18"/><rect class="cls-13" x="6.1" y="1175.24" width="120" height="10.9"/><rect class="cls-7" x="6.1" y="1175.24" width="120" height="7.62"/><g class="cls-14"><path class="cls-15" d="M12.5,1188.9c5.37-.42,10.73-.63,16.1-.78s10.73-.2,16.1-.22,10.73.06,16.1.22,10.73.36,16.1.78c-5.37.41-10.73.63-16.1.78s-10.73.2-16.1.22-10.73-.07-16.1-.23S17.87,1189.31,12.5,1188.9Z"/></g><g class="cls-14"><path class="cls-15" d="M27.5,1199.1q11.13-.58,22.25-.78c7.42-.16,14.83-.2,22.25-.22s14.83.06,22.25.22,14.83.39,22.25.78q-11.13.59-22.25.78c-7.42.16-14.83.2-22.25.22s-14.83-.06-22.25-.22S34.92,1199.49,27.5,1199.1Z"/></g><g class="cls-14"><path class="cls-15" d="M18.1,1182.86q11.13-.57,22.25-.77c7.42-.16,14.83-.21,22.25-.23s14.83.06,22.25.22,14.83.39,22.25.78q-11.13.59-22.25.78c-7.42.16-14.83.21-22.25.22s-14.83-.06-22.25-.22S25.52,1183.25,18.1,1182.86Z"/></g><g class="cls-14"><path class="cls-15" d="M41.25,1192.45c5.27-.41,10.54-.63,15.81-.78s10.55-.2,15.82-.22,10.54.06,15.81.22,10.54.36,15.81.78c-5.27.42-10.54.63-15.81.78s-10.54.2-15.81.22-10.54-.06-15.82-.22S46.52,1192.86,41.25,1192.45Z"/></g><polygon class="cls-1" points="132.2 1181.1 66.1 973.2 0 1181.1 6.1 1176.15 66.1 985.8 126.1 1176.15 132.2 1181.1"/><polygon class="cls-2" points="126.61 1176.56 132.2 1181.1 66.1 973.2 0 1181.1 5.59 1176.56 66.1 984.95 126.61 1176.56"/><polygon class="cls-3" points="127.12 1176.97 132.2 1181.1 66.1 973.2 0 1181.1 5.08 1176.97 66.1 984.1 127.12 1176.97"/><polygon class="cls-4" points="127.63 1177.39 132.2 1181.1 66.1 973.2 0 1181.1 4.58 1177.39 66.1 983.25 127.63 1177.39"/><polygon class="cls-5" points="128.13 1177.8 132.2 1181.1 66.1 973.2 0 1181.1 4.07 1177.8 66.1 982.4 128.13 1177.8"/><polygon class="cls-6" points="128.64 1178.21 132.2 1181.1 66.1 973.2 0 1181.1 3.56 1178.21 66.1 981.55 128.64 1178.21"/><polygon class="cls-7" points="132.2 1181.1 66.1 973.2 0 1181.1 3.05 1178.63 66.1 980.7 129.15 1178.63 132.2 1181.1"/><polygon class="cls-1" points="6.1 1194 2.17 1189.42 0 1181.1 6.1 1176.15 6.1 1194"/><polygon class="cls-2" points="5.59 1177.3 6.1 1194 2.17 1189.42 0.14 1181.65 5.59 1177.3"/><polygon class="cls-3" points="5.08 1178.45 6.1 1194 2.17 1189.42 0.29 1182.19 5.08 1178.45"/><polygon class="cls-4" points="4.58 1179.6 6.1 1194 2.17 1189.42 0.43 1182.74 4.58 1179.6"/><polygon class="cls-5" points="4.07 1180.75 6.1 1194 2.17 1189.42 0.57 1183.29 4.07 1180.75"/><polygon class="cls-6" points="3.56 1181.9 6.1 1194 2.17 1189.42 0.71 1183.84 3.56 1181.9"/><polygon class="cls-7" points="6.1 1194 2.17 1189.42 0.86 1184.38 3.05 1183.05 6.1 1194"/><polygon class="cls-1" points="126.1 1194 130.03 1189.42 132.2 1181.1 126.1 1176.15 126.1 1194"/><polygon class="cls-2" points="126.61 1177.3 126.1 1194 130.03 1189.42 132.06 1181.65 126.61 1177.3"/><polygon class="cls-3" points="127.12 1178.45 126.1 1194 130.03 1189.42 131.91 1182.19 127.12 1178.45"/><polygon class="cls-4" points="127.63 1179.6 126.1 1194 130.03 1189.42 131.77 1182.74 127.63 1179.6"/><polygon class="cls-5" points="128.13 1180.75 126.1 1194 130.03 1189.42 131.63 1183.29 128.13 1180.75"/><polygon class="cls-6" points="128.64 1181.9 126.1 1194 130.03 1189.42 131.49 1183.84 128.64 1181.9"/><polygon class="cls-7" points="126.1 1194 130.03 1189.42 131.34 1184.38 129.15 1183.05 126.1 1194"/><polygon class="cls-1" points="61.8 971.4 58.5 981.6 66.1 991.95 73.5 982.95 71.1 973.2 61.8 971.4"/><polygon class="cls-2" points="58.89 981.48 65.96 991.38 73.1 982.4 70.84 973.64 62.05 971.94 58.89 981.48"/><polygon class="cls-3" points="59.27 981.35 65.83 990.8 72.7 981.85 70.58 974.08 62.3 972.48 59.27 981.35"/><polygon class="cls-4" points="59.66 981.23 65.69 990.23 72.3 981.3 70.31 974.51 62.55 973.01 59.66 981.23"/><polygon class="cls-5" points="60.05 981.1 65.55 989.65 71.9 980.75 70.05 974.95 62.8 973.55 60.05 981.1"/><polygon class="cls-6" points="60.44 980.98 65.41 989.08 71.5 980.2 69.79 975.39 63.05 974.09 60.44 980.98"/><polygon class="cls-7" points="63.3 974.63 60.83 980.85 65.28 988.5 71.1 979.65 69.53 975.83 63.3 974.63"/><polygon class="cls-1" points="64.74 990.1 68.38 972.67 63.6 971.75 61.94 986.28 64.74 990.1"/><polygon class="cls-2" points="68 972.6 63.6 971.75 61.94 986.28 64.53 989.81 68 972.6"/><polygon class="cls-3" points="67.62 972.53 63.6 971.75 61.94 986.28 64.31 989.51 67.62 972.53"/><polygon class="cls-4" points="67.24 972.45 63.6 971.75 61.94 986.28 64.09 989.21 67.24 972.45"/><polygon class="cls-5" points="66.86 972.38 63.6 971.75 61.94 986.28 63.87 988.92 66.86 972.38"/><polygon class="cls-6" points="66.48 972.31 63.6 971.75 61.94 986.28 63.65 988.62 66.48 972.31"/><polygon class="cls-7" points="63.44 988.32 66.1 972.23 63.6 971.75 61.94 986.28 63.44 988.32"/><polygon class="cls-1" points="60.03 976.88 68.56 989.01 71.81 984.92 61.16 973.36 60.03 976.88"/><polygon class="cls-2" points="68.85 988.64 71.82 984.92 61.16 973.36 60.17 976.45 68.85 988.64"/><polygon class="cls-3" points="69.14 988.27 71.82 984.93 61.16 973.36 60.31 976.02 69.14 988.27"/><polygon class="cls-4" points="69.43 987.9 71.83 984.94 61.16 973.36 60.45 975.59 69.43 987.9"/><polygon class="cls-5" points="69.73 987.54 71.83 984.95 61.16 973.36 60.59 975.15 69.73 987.54"/><polygon class="cls-6" points="70.02 987.17 71.84 984.95 61.16 973.36 60.73 974.72 70.02 987.17"/><polygon class="cls-7" points="60.87 974.29 70.31 986.8 71.85 984.96 61.16 973.36 60.87 974.29"/></g></g></svg>