<svg xmlns="http://www.w3.org/2000/svg" viewBox="0 0 109 148.17"><defs><style>.cls-1{fill:gray;}.cls-2{fill:#7c7c7c;}.cls-3{fill:#787878;}.cls-4{fill:#747474;}.cls-5{fill:#6f6f6f;}.cls-6{fill:#6b6b6b;}.cls-7{fill:#676767;}.cls-8{fill:#636363;}.cls-9{fill:#5f5f5f;}.cls-10{fill:#5b5b5b;}.cls-11{fill:#565656;}.cls-12{fill:#525252;}.cls-13{fill:#4e4e4e;}.cls-14{fill:#4a4a4a;}.cls-15{fill:#464646;}.cls-16{fill:#424242;}.cls-17{fill:#3e3e3e;}.cls-18{fill:#393939;}.cls-19{fill:#353535;}.cls-20{fill:#313131;}.cls-21{fill:#2d2d2d;}.cls-22{fill:#292929;}.cls-23{fill:#252525;}.cls-24{fill:#202020;}.cls-25{fill:#1c1c1c;}.cls-26{fill:#181818;}.cls-27,.cls-36,.cls-37,.cls-38,.cls-39,.cls-40,.cls-41,.cls-42,.cls-43,.cls-44,.cls-45,.cls-46,.cls-47,.cls-48,.cls-49,.cls-50,.cls-51,.cls-52,.cls-53,.cls-54,.cls-55,.cls-56,.cls-57,.cls-58,.cls-59,.cls-60,.cls-61,.cls-62,.cls-63,.cls-64{fill:#141414;}.cls-28{fill:#8c6239;}.cls-29{fill:#885e36;}.cls-30{fill:#845b34;}.cls-31{fill:#805732;}.cls-32{fill:#7b532f;}.cls-33{fill:#77502d;}.cls-34{fill:#734c2a;}.cls-35{opacity:0.78;}.cls-36{opacity:0.02;}.cls-37{opacity:0.04;}.cls-38{opacity:0.06;}.cls-39{opacity:0.08;}.cls-40{opacity:0.1;}.cls-41{opacity:0.12;}.cls-42{opacity:0.15;}.cls-43{opacity:0.17;}.cls-44{opacity:0.19;}.cls-45{opacity:0.21;}.cls-46{opacity:0.23;}.cls-47{opacity:0.25;}.cls-48{opacity:0.27;}.cls-49{opacity:0.29;}.cls-50{opacity:0.31;}.cls-51{opacity:0.33;}.cls-52{opacity:0.36;}.cls-53{opacity:0.38;}.cls-54{opacity:0.4;}.cls-55{opacity:0.42;}.cls-56{opacity:0.44;}.cls-57{opacity:0.46;}.cls-58{opacity:0;}.cls-59{opacity:0.13;}.cls-60{opacity:0.26;}.cls-61{opacity:0.4;}.cls-62{opacity:0.53;}.cls-63{opacity:0.66;}.cls-64{opacity:0.79;}.cls-65{fill:#77532b;}.cls-66{fill:#664827;}.cls-67{fill:#563e23;}.cls-68{fill:#463420;}.cls-69{fill:#35291c;}.cls-70{fill:#251f18;}.cls-71{fill:#454545;}.cls-72{fill:#3c3c3c;}.cls-73{fill:#343434;}.cls-74{fill:#2b2b2b;}.cls-75{fill:#5a5a5a;}.cls-76{fill:#545454;}.cls-77{fill:#4f4f4f;}.cls-78{fill:#444;}.cls-79{fill:#3f3f3f;}</style></defs><title>Porta Aberta</title><g id="Layer_2" data-name="Layer 2"><g id="porta_aberta" data-name="porta aberta"><polyline class="cls-1" points="61.23 0 85.23 0 102.97 13.7 99.75 53.53 105.05 79.27 109 113.1 99.75 143.91 94.31 148 54.5 148 54.5 0 61.23 0"/><polyline class="cls-2" points="61.03 0 84.3 0 101.6 13.64 98.5 53.41 103.41 79.27 107.78 113.05 98.38 143.91 93.1 148 54.5 148 54.5 0 61.03 0"/><polyline class="cls-3" points="60.83 0 83.37 0 100.23 13.58 97.25 53.29 101.77 79.27 106.55 112.99 97 143.91 91.89 148 54.5 148 54.5 0 60.83 0"/><polyline class="cls-4" points="60.62 0 82.44 0 98.85 13.51 96 53.17 100.13 79.27 105.33 112.94 95.63 143.91 90.69 148 54.5 148 54.5 0 60.62 0"/><polyline class="cls-5" points="60.42 0 81.5 0 97.48 13.45 94.75 53.05 98.49 79.27 104.1 112.88 94.26 143.91 89.48 148 54.5 148 54.5 0 60.42 0"/><polyline class="cls-6" points="60.21 0 80.57 0 96.11 13.39 93.5 52.92 96.85 79.27 102.87 112.83 92.89 143.91 88.27 148 54.5 148 54.5 0 60.21 0"/><polyline class="cls-7" points="60.01 0 79.64 0 94.74 13.33 92.25 52.8 95.22 79.27 101.65 112.77 91.52 143.91 87.07 148 54.5 148 54.5 0 60.01 0"/><polyline class="cls-8" points="59.81 0 78.71 0 93.36 13.27 91.01 52.68 93.58 79.27 100.42 112.72 90.15 143.91 85.86 148 54.5 148 54.5 0 59.81 0"/><polyline class="cls-9" points="59.6 0 77.78 0 91.99 13.2 89.76 52.56 91.94 79.27 99.19 112.66 88.78 143.91 84.65 148 54.5 148 54.5 0 59.6 0"/><polyline class="cls-10" points="59.4 0 76.85 0 90.62 13.14 88.51 52.44 90.3 79.27 97.97 112.6 87.4 143.91 83.45 148 54.5 148 54.5 0 59.4 0"/><polyline class="cls-11" points="59.19 0 75.91 0 89.24 13.08 87.26 52.32 88.66 79.27 96.74 112.55 86.03 143.91 82.24 148 54.5 148 54.5 0 59.19 0"/><polyline class="cls-12" points="58.99 0 74.98 0 87.87 13.02 86.01 52.2 87.02 79.27 95.52 112.49 84.66 143.91 81.03 148 54.5 148 54.5 0 58.99 0"/><polyline class="cls-13" points="58.78 0 74.05 0 86.5 12.95 84.76 52.08 85.38 79.27 94.29 112.44 83.29 143.91 79.83 148 54.5 148 54.5 0 58.78 0"/><polyline class="cls-14" points="58.58 0 73.12 0 85.13 12.89 83.51 51.95 83.75 79.27 93.06 112.38 81.92 143.91 78.62 148 54.5 148 54.5 0 58.58 0"/><polyline class="cls-15" points="58.38 0 72.19 0 83.75 12.83 82.26 51.83 82.11 79.27 91.84 112.33 80.55 143.91 77.41 148 54.5 148 54.5 0 58.38 0"/><polyline class="cls-16" points="58.17 0 71.26 0 82.38 12.77 81.01 51.71 80.47 79.27 90.61 112.27 79.17 143.91 76.21 148 54.5 148 54.5 0 58.17 0"/><polyline class="cls-17" points="57.97 0 70.33 0 81.01 12.71 79.77 51.59 78.83 79.27 89.39 112.21 77.8 143.91 75 148 54.5 148 54.5 0 57.97 0"/><polyline class="cls-18" points="57.77 0 69.39 0 79.63 12.64 78.52 51.47 77.19 79.27 88.16 112.16 76.43 143.91 73.79 148 54.5 148 54.5 0 57.77 0"/><polyline class="cls-19" points="57.56 0 68.46 0 78.26 12.58 77.27 51.35 75.55 79.27 86.93 112.1 75.06 143.91 72.59 148 54.5 148 54.5 0 57.56 0"/><polyline class="cls-20" points="57.36 0 67.53 0 76.89 12.52 76.02 51.23 73.91 79.27 85.71 112.05 73.69 143.91 71.38 148 54.5 148 54.5 0 57.36 0"/><polyline class="cls-21" points="57.15 0 66.6 0 75.51 12.46 74.77 51.11 72.28 79.27 84.48 111.99 72.32 143.91 70.17 148 54.5 148 54.5 0 57.15 0"/><polyline class="cls-22" points="56.95 0 65.67 0 74.14 12.39 73.52 50.99 70.64 79.27 83.26 111.94 70.94 143.91 68.97 148 54.5 148 54.5 0 56.95 0"/><polyline class="cls-23" points="56.74 0 64.74 0 72.77 12.33 72.27 50.87 69 79.27 82.03 111.88 69.57 143.91 67.76 148 54.5 148 54.5 0 56.74 0"/><polyline class="cls-24" points="56.54 0 63.8 0 71.39 12.27 71.02 50.74 67.36 79.27 80.8 111.82 68.2 143.91 66.55 148 54.5 148 54.5 0 56.54 0"/><polyline class="cls-25" points="56.34 0 62.87 0 70.02 12.21 69.77 50.62 65.72 79.27 79.58 111.77 66.83 143.91 65.35 148 54.5 148 54.5 0 56.34 0"/><polyline class="cls-26" points="56.13 0 61.94 0 68.65 12.14 68.53 50.5 64.08 79.27 78.35 111.71 65.46 143.91 64.14 148 54.5 148 54.5 0 56.13 0"/><polyline class="cls-27" points="55.93 0 61.01 0 67.28 12.08 67.28 50.38 62.44 79.27 77.13 111.66 64.09 143.91 62.93 148 54.5 148 54.5 0 55.93 0"/><rect class="cls-28" width="54.5" height="148"/><rect class="cls-29" x="7.92" width="46.58" height="148"/><rect class="cls-30" x="15.84" width="38.66" height="148"/><rect class="cls-31" x="23.76" width="30.74" height="148"/><rect class="cls-32" x="31.69" width="22.82" height="148"/><rect class="cls-33" x="39.61" width="14.89" height="148"/><rect class="cls-34" x="47.53" width="6.97" height="148"/><g class="cls-35"><rect class="cls-36" width="54.5" height="148"/><rect class="cls-37" y="6.66" width="54.5" height="141.33"/><rect class="cls-38" y="13.32" width="54.5" height="134.67"/><rect class="cls-39" y="19.98" width="54.5" height="128"/><rect class="cls-40" y="26.65" width="54.5" height="121.34"/><rect class="cls-41" y="33.31" width="54.5" height="114.67"/><rect class="cls-42" y="39.97" width="54.5" height="108.01"/><rect class="cls-43" y="46.63" width="54.5" height="101.34"/><rect class="cls-44" y="53.29" width="54.5" height="94.68"/><rect class="cls-45" y="59.95" width="54.5" height="88.01"/><rect class="cls-46" y="66.62" width="54.5" height="81.35"/><rect class="cls-47" y="73.28" width="54.5" height="74.68"/><rect class="cls-48" y="79.94" width="54.5" height="68.02"/><rect class="cls-49" y="86.6" width="54.5" height="61.35"/><rect class="cls-50" y="93.26" width="54.5" height="54.69"/><rect class="cls-51" y="99.92" width="54.5" height="48.02"/><rect class="cls-52" y="106.59" width="54.5" height="41.36"/><rect class="cls-53" y="113.25" width="54.5" height="34.69"/><rect class="cls-54" y="119.91" width="54.5" height="28.02"/><rect class="cls-55" y="126.57" width="54.5" height="21.36"/><rect class="cls-56" y="133.23" width="54.5" height="14.69"/><rect class="cls-57" y="139.89" width="54.5" height="8.03"/></g><rect class="cls-58" width="54.5" height="148.17"/><rect class="cls-59" width="46.74" height="148.17"/><rect class="cls-60" width="38.99" height="148.17"/><rect class="cls-61" width="31.23" height="148.17"/><rect class="cls-62" width="23.47" height="148.17"/><rect class="cls-63" width="15.71" height="148.17"/><rect class="cls-64" width="7.96" height="148.17"/><polygon class="cls-65" points="10.83 74.31 14.84 70.69 20.09 74.31 16.84 77.27 17.88 87.1 12.9 87.83 14.7 77.12 10.83 74.31"/><polygon class="cls-66" points="19.63 74.34 16.68 77.25 17.45 87.16 12.9 87.83 14.7 77.12 10.83 74.31 14.84 70.69 19.63 74.34"/><polygon class="cls-67" points="19.17 74.36 16.52 77.24 17.02 87.22 12.9 87.83 14.7 77.12 10.83 74.31 14.84 70.69 19.17 74.36"/><polygon class="cls-68" points="18.71 74.39 16.35 77.22 16.59 87.29 12.9 87.83 14.7 77.12 10.83 74.31 14.84 70.69 18.71 74.39"/><polygon class="cls-69" points="18.25 74.41 16.19 77.21 16.17 87.35 12.9 87.83 14.7 77.12 10.83 74.31 14.84 70.69 18.25 74.41"/><polygon class="cls-70" points="17.8 74.43 16.02 77.19 15.74 87.41 12.9 87.83 14.7 77.12 10.83 74.31 14.84 70.69 17.8 74.43"/><polygon class="cls-27" points="10.83 74.31 14.84 70.69 17.34 74.46 15.86 77.18 15.31 87.48 12.9 87.83 14.7 77.12 10.83 74.31"/><rect class="cls-9" y="126.21" width="54.5" height="9.02"/><rect class="cls-11" y="127.47" width="54.5" height="7.76"/><rect class="cls-13" y="128.74" width="54.5" height="6.5"/><rect class="cls-71" y="130" width="54.5" height="5.23"/><rect class="cls-72" y="131.26" width="54.5" height="3.97"/><rect class="cls-73" y="132.52" width="54.5" height="2.71"/><rect class="cls-74" y="133.79" width="54.5" height="1.45"/><rect class="cls-9" y="13.19" width="54.5" height="9.02"/><rect class="cls-11" y="14.45" width="54.5" height="7.76"/><rect class="cls-13" y="15.71" width="54.5" height="6.5"/><rect class="cls-71" y="16.98" width="54.5" height="5.23"/><rect class="cls-72" y="18.24" width="54.5" height="3.97"/><rect class="cls-73" y="19.5" width="54.5" height="2.71"/><rect class="cls-74" y="20.76" width="54.5" height="1.45"/><rect class="cls-9" x="7.96" y="126.21" width="46.55" height="9.02"/><rect class="cls-75" x="7.96" y="127.47" width="46.55" height="7.76"/><rect class="cls-76" x="7.96" y="128.74" width="46.55" height="6.5"/><rect class="cls-77" x="7.96" y="130" width="46.55" height="5.23"/><rect class="cls-14" x="7.96" y="131.26" width="46.55" height="3.97"/><rect class="cls-78" x="7.96" y="132.52" width="46.55" height="2.71"/><rect class="cls-79" x="7.96" y="133.78" width="46.55" height="1.45"/><rect class="cls-9" x="7.96" y="13.19" width="46.55" height="9.02"/><rect class="cls-75" x="7.96" y="14.45" width="46.55" height="7.76"/><rect class="cls-76" x="7.96" y="15.71" width="46.55" height="6.5"/><rect class="cls-77" x="7.96" y="16.98" width="46.55" height="5.23"/><rect class="cls-14" x="7.96" y="18.24" width="46.55" height="3.97"/><rect class="cls-78" x="7.96" y="19.5" width="46.55" height="2.71"/><rect class="cls-79" x="7.96" y="20.76" width="46.55" height="1.45"/><polygon class="cls-79" points="46.41 15.68 48.96 17.97 47.45 19.72 45.47 18.33 46.41 15.68"/><polygon class="cls-9" points="46.41 15.68 48.96 17.97 47.35 18.95 46.24 18.21 46.41 15.68"/><polygon class="cls-79" points="30.42 15.68 32.97 17.97 31.46 19.72 29.49 18.33 30.42 15.68"/><polygon class="cls-9" points="30.42 15.68 32.97 17.97 31.36 18.95 30.26 18.21 30.42 15.68"/><polygon class="cls-79" points="14.44 15.68 16.98 17.97 15.47 19.72 13.5 18.33 14.44 15.68"/><polygon class="cls-9" points="14.44 15.68 16.98 17.97 15.37 18.95 14.27 18.21 14.44 15.68"/><polygon class="cls-79" points="46.41 128.7 48.96 130.99 47.45 132.74 45.47 131.35 46.41 128.7"/><polygon class="cls-9" points="46.41 128.7 48.96 130.99 47.35 131.98 46.24 131.23 46.41 128.7"/><polygon class="cls-79" points="30.42 128.7 32.97 130.99 31.46 132.74 29.49 131.35 30.42 128.7"/><polygon class="cls-9" points="30.42 128.7 32.97 130.99 31.36 131.98 30.26 131.23 30.42 128.7"/><polygon class="cls-79" points="14.44 128.7 16.98 130.99 15.47 132.74 13.5 131.35 14.44 128.7"/><polygon class="cls-9" points="14.44 128.7 16.98 130.99 15.37 131.98 14.27 131.23 14.44 128.7"/><rect class="cls-9" x="54.5" width="8.11" height="148"/><rect class="cls-75" x="55.33" width="7.28" height="148"/><rect class="cls-76" x="56.16" width="6.45" height="148"/><rect class="cls-77" x="56.99" width="5.62" height="148"/><rect class="cls-14" x="57.82" width="4.79" height="148"/><rect class="cls-78" x="58.65" width="3.96" height="148"/><rect class="cls-79" x="59.48" width="3.13" height="148"/></g></g></svg>