<svg xmlns="http://www.w3.org/2000/svg" viewBox="0 0 54.5 148.17"><defs><style>.cls-1{fill:#8c6239;}.cls-2{fill:#885e36;}.cls-3{fill:#845b34;}.cls-4{fill:#805732;}.cls-5{fill:#7b532f;}.cls-6{fill:#77502d;}.cls-7{fill:#734c2a;}.cls-10,.cls-11,.cls-12,.cls-13,.cls-14,.cls-15,.cls-16,.cls-17,.cls-18,.cls-19,.cls-20,.cls-21,.cls-22,.cls-23,.cls-24,.cls-25,.cls-26,.cls-27,.cls-28,.cls-29,.cls-30,.cls-31,.cls-32,.cls-33,.cls-34,.cls-35,.cls-42,.cls-8,.cls-9{fill:#141414;}.cls-8{opacity:0.02;}.cls-9{opacity:0.04;}.cls-10{opacity:0.06;}.cls-11{opacity:0.08;}.cls-12{opacity:0.1;}.cls-13{opacity:0.12;}.cls-14{opacity:0.15;}.cls-15{opacity:0.17;}.cls-16{opacity:0.19;}.cls-17{opacity:0.21;}.cls-18{opacity:0.23;}.cls-19{opacity:0.25;}.cls-20{opacity:0.27;}.cls-21{opacity:0.29;}.cls-22{opacity:0.31;}.cls-23{opacity:0.33;}.cls-24{opacity:0.36;}.cls-25{opacity:0.38;}.cls-26{opacity:0.4;}.cls-27{opacity:0.42;}.cls-28{opacity:0.44;}.cls-29{opacity:0.46;}.cls-30{opacity:0.15;}.cls-31{opacity:0.27;}.cls-32{opacity:0.4;}.cls-33{opacity:0.53;}.cls-34{opacity:0.65;}.cls-35{opacity:0.78;}.cls-36{fill:#77532b;}.cls-37{fill:#664827;}.cls-38{fill:#563e23;}.cls-39{fill:#463420;}.cls-40{fill:#35291c;}.cls-41{fill:#251f18;}.cls-43{fill:#5f5f5f;}.cls-44{fill:#565656;}.cls-45{fill:#4e4e4e;}.cls-46{fill:#454545;}.cls-47{fill:#3c3c3c;}.cls-48{fill:#343434;}.cls-49{fill:#2b2b2b;}.cls-50{fill:#5a5a5a;}.cls-51{fill:#545454;}.cls-52{fill:#4f4f4f;}.cls-53{fill:#4a4a4a;}.cls-54{fill:#444;}.cls-55{fill:#3f3f3f;}</style></defs><title>Porta Fechada</title><g id="Layer_2" data-name="Layer 2"><g id="porta_fechada" data-name="porta fechada"><rect class="cls-1" width="54.5" height="148"/><rect class="cls-2" width="46.58" height="148"/><rect class="cls-3" width="38.66" height="148"/><rect class="cls-4" width="30.74" height="148"/><rect class="cls-5" width="22.82" height="148"/><rect class="cls-6" width="14.89" height="148"/><rect class="cls-7" width="6.97" height="148"/><rect class="cls-8" width="54.5" height="148"/><rect class="cls-9" y="6.66" width="54.5" height="141.33"/><rect class="cls-10" y="13.32" width="54.5" height="134.67"/><rect class="cls-11" y="19.98" width="54.5" height="128"/><rect class="cls-12" y="26.65" width="54.5" height="121.34"/><rect class="cls-13" y="33.31" width="54.5" height="114.67"/><rect class="cls-14" y="39.97" width="54.5" height="108.01"/><rect class="cls-15" y="46.63" width="54.5" height="101.34"/><rect class="cls-16" y="53.29" width="54.5" height="94.68"/><rect class="cls-17" y="59.95" width="54.5" height="88.01"/><rect class="cls-18" y="66.62" width="54.5" height="81.35"/><rect class="cls-19" y="73.28" width="54.5" height="74.68"/><rect class="cls-20" y="79.94" width="54.5" height="68.02"/><rect class="cls-21" y="86.6" width="54.5" height="61.35"/><rect class="cls-22" y="93.26" width="54.5" height="54.69"/><rect class="cls-23" y="99.92" width="54.5" height="48.02"/><rect class="cls-24" y="106.59" width="54.5" height="41.36"/><rect class="cls-25" y="113.25" width="54.5" height="34.69"/><rect class="cls-26" y="119.91" width="54.5" height="28.02"/><rect class="cls-27" y="126.57" width="54.5" height="21.36"/><rect class="cls-28" y="133.23" width="54.5" height="14.69"/><rect class="cls-29" y="139.89" width="54.5" height="8.03"/><rect class="cls-8" width="54.5" height="148.17"/><rect class="cls-30" x="7.76" width="46.74" height="148.17"/><rect class="cls-31" x="15.52" width="38.99" height="148.17"/><rect class="cls-32" x="23.27" width="31.23" height="148.17"/><rect class="cls-33" x="31.03" width="23.47" height="148.17"/><rect class="cls-34" x="38.79" width="15.71" height="148.17"/><rect class="cls-35" x="46.55" width="7.96" height="148.17"/><polygon class="cls-36" points="43.67 74.31 39.66 70.69 34.41 74.31 37.66 77.27 36.62 87.1 41.6 87.83 39.8 77.12 43.67 74.31"/><polygon class="cls-37" points="34.87 74.34 37.82 77.25 37.05 87.16 41.6 87.83 39.8 77.12 43.67 74.31 39.66 70.69 34.87 74.34"/><polygon class="cls-38" points="35.33 74.36 37.99 77.24 37.48 87.22 41.6 87.83 39.8 77.12 43.67 74.31 39.66 70.69 35.33 74.36"/><polygon class="cls-39" points="35.79 74.39 38.15 77.22 37.91 87.29 41.6 87.83 39.8 77.12 43.67 74.31 39.66 70.69 35.79 74.39"/><polygon class="cls-40" points="36.25 74.41 38.31 77.21 38.33 87.35 41.6 87.83 39.8 77.12 43.67 74.31 39.66 70.69 36.25 74.41"/><polygon class="cls-41" points="36.71 74.43 38.48 77.19 38.76 87.41 41.6 87.83 39.8 77.12 43.67 74.31 39.66 70.69 36.71 74.43"/><polygon class="cls-42" points="43.67 74.31 39.66 70.69 37.17 74.46 38.64 77.18 39.19 87.48 41.6 87.83 39.8 77.12 43.67 74.31"/><rect class="cls-43" y="126.21" width="54.5" height="9.02"/><rect class="cls-44" y="127.47" width="54.5" height="7.76"/><rect class="cls-45" y="128.74" width="54.5" height="6.5"/><rect class="cls-46" y="130" width="54.5" height="5.23"/><rect class="cls-47" y="131.26" width="54.5" height="3.97"/><rect class="cls-48" y="132.52" width="54.5" height="2.71"/><rect class="cls-49" y="133.79" width="54.5" height="1.45"/><rect class="cls-43" y="13.19" width="54.5" height="9.02"/><rect class="cls-44" y="14.45" width="54.5" height="7.76"/><rect class="cls-45" y="15.71" width="54.5" height="6.5"/><rect class="cls-46" y="16.98" width="54.5" height="5.23"/><rect class="cls-47" y="18.24" width="54.5" height="3.97"/><rect class="cls-48" y="19.5" width="54.5" height="2.71"/><rect class="cls-49" y="20.76" width="54.5" height="1.45"/><rect class="cls-43" y="126.21" width="50.52" height="9.02"/><rect class="cls-50" y="127.47" width="50.52" height="7.76"/><rect class="cls-51" y="128.74" width="50.52" height="6.5"/><rect class="cls-52" y="130" width="50.52" height="5.23"/><rect class="cls-53" y="131.26" width="50.52" height="3.97"/><rect class="cls-54" y="132.52" width="50.52" height="2.71"/><rect class="cls-55" y="133.79" width="50.52" height="1.45"/><rect class="cls-43" y="13.19" width="50.52" height="9.02"/><rect class="cls-50" y="14.45" width="50.52" height="7.76"/><rect class="cls-51" y="15.71" width="50.52" height="6.5"/><rect class="cls-52" y="16.98" width="50.52" height="5.23"/><rect class="cls-53" y="18.24" width="50.52" height="3.97"/><rect class="cls-54" y="19.5" width="50.52" height="2.71"/><rect class="cls-55" y="20.76" width="50.52" height="1.45"/><polygon class="cls-55" points="8.78 15.68 6.02 17.97 7.66 19.72 9.8 18.33 8.78 15.68"/><polygon class="cls-43" points="8.78 15.68 6.02 17.97 7.76 18.95 8.96 18.21 8.78 15.68"/><polygon class="cls-55" points="26.14 15.68 23.37 17.97 25.01 19.72 27.15 18.33 26.14 15.68"/><polygon class="cls-43" points="26.14 15.68 23.37 17.97 25.12 18.95 26.32 18.21 26.14 15.68"/><polygon class="cls-55" points="43.49 15.68 40.73 17.97 42.36 19.72 44.51 18.33 43.49 15.68"/><polygon class="cls-43" points="43.49 15.68 40.73 17.97 42.47 18.95 43.67 18.21 43.49 15.68"/><polygon class="cls-55" points="8.78 128.7 6.02 130.99 7.66 132.74 9.8 131.35 8.78 128.7"/><polygon class="cls-43" points="8.78 128.7 6.02 130.99 7.76 131.98 8.96 131.23 8.78 128.7"/><polygon class="cls-55" points="26.14 128.7 23.37 130.99 25.01 132.74 27.15 131.35 26.14 128.7"/><polygon class="cls-43" points="26.14 128.7 23.37 130.99 25.12 131.98 26.32 131.23 26.14 128.7"/><polygon class="cls-55" points="43.49 128.7 40.73 130.99 42.36 132.74 44.51 131.35 43.49 128.7"/><polygon class="cls-43" points="43.49 128.7 40.73 130.99 42.47 131.98 43.67 131.23 43.49 128.7"/></g></g></svg>