<svg xmlns="http://www.w3.org/2000/svg" viewBox="0 0 851.71 534.76"><defs><style>.cls-1{fill:#586620;}.cls-2{fill:#66581f;}</style></defs><title>Grama Montanha</title><g id="Layer_2" data-name="Layer 2"><g id="grama_montanha" data-name="grama montanha"><path class="cls-1" d="M78.72,481.48s-9.28-21.24-15-26.64c0,0,17.33,14.57,18.09,18.93l-8.73-29,17.8,23.71L78.79,446.58l19.88,16.09s-9.33-18.1-13.58-19.41c0,0,22,15.78,24.54,16.58l-6.4,4.48Z"/><path class="cls-1" d="M329,307.57s-8-9.12-15.77-9.4c0,0,17.39,3.54,19.66,4.05l-6-16.51,13.22,11.88-2.89-15.53,11,10.8s3.16-17.77-.39-18.07c0,0,6.64,10.72,8.72,10.93s-.08,2.58-.08,2.58Z"/><path class="cls-1" d="M302.8,325.93s-6.79-7.46-14.17-7.1c0,0,16.17,1.78,18.26,2.06l-4.34-14.19,11.56,9.5-1.52-13.55,9.57,8.71s4.39-16,1.06-16c0,0,5.43,9,7.37,9s-.27,2.3-.27,2.3Z"/><path class="cls-1" d="M282.31,340.27s-13.22-16.65-23.12-19.9c0,0,23.06,11.63,26.07,13.21l-13.41-27.15,20.82,22.74-9.22-24.54,17.69,20.3s-2.42-25.75-7-27.49c0,0,12.17,18.62,14.84,19.68s.84,3.89.84,3.89Z"/><path class="cls-1" d="M263.07,355.69S254.16,345.2,246,344.37c0,0,18.44,5,20.84,5.73l-7.34-18.46,14.61,13.87L270,328.33l12.25,12.54s2.14-19.23-1.6-19.8c0,0,7.66,12.17,9.84,12.54s.09,2.82.09,2.82Z"/><path class="cls-1" d="M202.38,394.18s-7.95-9.11-15.77-9.39c0,0,17.39,3.54,19.66,4l-6-16.52,13.22,11.89-2.89-15.53,11,10.8s3.16-17.77-.39-18.08c0,0,6.64,10.73,8.72,10.94s-.08,2.58-.08,2.58Z"/><path class="cls-1" d="M176.14,412.55s-6.79-7.46-14.17-7.1c0,0,16.16,1.78,18.26,2.05l-4.34-14.19,11.56,9.51-1.52-13.56L195.5,398s4.39-16,1.06-16c0,0,5.43,9,7.37,9s-.27,2.3-.27,2.3Z"/><path class="cls-1" d="M156.2,427.67S143,411,133.08,407.78c0,0,23.06,11.62,26.07,13.2l-13.42-27.15,20.83,22.74L157.34,392,175,412.34s-2.42-25.76-7-27.5c0,0,12.17,18.63,14.84,19.68s.84,3.89.84,3.89Z"/><path class="cls-1" d="M136.41,442.31s-8.91-10.5-17.12-11.32c0,0,18.44,5,20.84,5.73l-7.34-18.47,14.61,13.88L143.35,415l12.25,12.54s2.14-19.23-1.6-19.8c0,0,7.66,12.17,9.84,12.53s.09,2.83.09,2.83Z"/><path class="cls-1" d="M2.6,534.76s9.86-37.45,2.56-45.1c0,0-2,30.53-.4,36.06l9.16-47L14,520.65l6.63-38.71,1.12,32.86s10.32-33.58,5.36-35.91c0,0,3.48,32.83,6.4,34.23l-6.4,4.48Z"/><path class="cls-1" d="M58.83,495.4s-9.28-21.24-15-26.64c0,0,17.33,14.57,18.1,18.93l-8.74-29L71,482.37,58.91,460.5l19.88,16.09s-9.34-18.1-13.59-19.41c0,0,22,15.78,24.54,16.58l-6.4,4.48Z"/><path class="cls-1" d="M10.43,529.27S4.57,512.92,0,509.17c0,0,14,9.87,14.2,13.37L9.79,499.7,23.14,517,14.8,500.5,31,511.32S24.69,497.55,21,497c0,0,18.21,10.29,20.38,10.64l-6.4,4.48Z"/><path class="cls-2" d="M32.72,513.67s-5.87-16.35-10.43-20.1c0,0,14,9.87,14.2,13.37L32.08,484.1l13.35,17.34L37.09,484.9l16.18,10.82S47,482,43.25,481.4c0,0,18.2,10.29,20.38,10.64l-6.4,4.48Z"/><path class="cls-2" d="M209.8,389.73S195.33,377,193.88,364c0,0,6.7,20.75,7.81,25.06l-26.14-19.23,19.6,24.87-24.16-13,17.57,19.93s-27-6.13-27.93-12.25c0,0,12.77,15.48,17.5,16.38,4.24.81,4.15,3.24,4.15,3.24Z"/><path class="cls-2" d="M229.21,376.14s-4.13-41.56-13.79-66.27c0,0-2.15,51.68,2,60.26L193,309.84l18.46,66.81L193.53,329l12.7,56.54s-17.89-36.7-22.81-48.51c0,0,3.32,45.55,10.51,50,6.46,4,7.76,8.4,7.76,8.4Z"/><path class="cls-2" d="M248.62,362.56s3.89-41.49-4.14-63.86c0,0-10.46,51.18-7,58.9l-14.66-57.76L231.48,364l-9.09-46.39,3.6,54.9s-9.63-36.27-13.76-46.94c0,0-4.87,45.21,1.82,48.93,6,3.35,7,7.37,7,7.37Z"/><path class="cls-2" d="M268,349S248.9,329.54,244.6,312.5c0,0,11.88,28.15,14,33.94l-10-39.75,3.68,45.7L222.06,330.7,246.19,360s-32.08-13.41-34.41-21.51c0,0,17.74,22.59,23.32,24.71,5,1.9,5.41,5,5.41,5Z"/><path class="cls-1" d="M131.08,444.83s-7.05-18-18.74-23.78c0,0,17.2,13.4,20.87,15.92l-9.12-31.14,16.66,26.93-3.94-27.15L149.53,429s3.47-27.46-2-30.44c0,0,10.18,17.3,9.41,22-.7,4.27,1.62,5,1.62,5Z"/><path class="cls-1" d="M111.67,458.41s3.29-46.76-16.61-64.3c0,0,8.35,44.33,15,51.12L102.71,373l15.52,68.87,2.3-61.8L128.38,440s12.57-58,3.16-66.69c0,0,.73,47.37,2.42,55.63,1.52,7.44,5.23,10.17,5.23,10.17Z"/><path class="cls-1" d="M92.26,472s.62-39.2-17.64-54.4c0,0,10.72,36.34,16.78,42.27l-8.32-62.19,16.36,58.69.45-53.07,9.42,50.83s10.16-50.11,1.54-57.65c0,0,3.22,39.55,4.42,47.12,1.08,6.8,4.51,9.13,4.51,9.13Z"/><path class="cls-1" d="M72.85,485.58s12.07-34.22-2.48-44.1c0,0-1.39,30.4,3.32,34.4l7-51.66L81.44,472,95.2,426.54l-4.51,42.3s22.16-44.33,15.35-49.29c0,0-8.62,34-8.54,40,.07,5.37,2.87,6.8,2.87,6.8Z"/><path class="cls-1" d="M564.31,194.24S556,172.61,550.53,167c0,0,16.65,15.33,17.22,19.72l-7.41-29.39,16.71,24.49L566,159.38l19.13,17s-8.5-18.51-12.68-20c0,0,21.3,16.76,23.75,17.68l-6.59,4.18Z"/><path class="cls-1" d="M822.28,31.89S814.75,22.42,807,21.78c0,0,17.22,4.34,19.46,4.95L821.19,10l12.66,12.47L831.66,6.78l10.53,11.29s4-17.6.44-18.07c0,0,6.14,11,8.21,11.32s-.19,2.57-.19,2.57Z"/><path class="cls-1" d="M795.23,49s-6.45-7.76-13.83-7.73c0,0,16.07,2.51,18.15,2.88l-3.7-14.38,11.12,10-.9-13.6,9.17,9.14s5.11-15.8,1.78-15.95c0,0,5,9.24,7,9.34s-.38,2.29-.38,2.29Z"/><path class="cls-1" d="M774.12,62.43s-12.46-17.23-22.2-20.92c0,0,22.5,12.66,25.44,14.38L765.19,28.16,785,51.82l-8.09-24.94L793.62,48s-1.25-25.84-5.73-27.78c0,0,11.32,19.15,13.94,20.33s.65,3.92.65,3.92Z"/><path class="cls-1" d="M754.19,77s-8.43-10.89-16.59-12.09c0,0,18.19,5.86,20.56,6.67l-6.5-18.78,14,14.52L762.36,50,774,63s3-19.11-.69-19.85c0,0,7.09,12.51,9.26,13s0,2.82,0,2.82Z"/><path class="cls-1" d="M691.81,112.66s-7.52-9.47-15.33-10.1c0,0,17.22,4.33,19.46,4.94l-5.22-16.77,12.67,12.47L701.2,87.56l10.53,11.28s4-17.6.43-18.07c0,0,6.15,11,8.21,11.32s-.19,2.58-.19,2.58Z"/><path class="cls-1" d="M664.76,129.81s-6.44-7.76-13.82-7.73c0,0,16.06,2.51,18.15,2.88l-3.7-14.37,11.11,10L675.6,107l9.17,9.14s5.11-15.8,1.78-16c0,0,5,9.24,7,9.35s-.38,2.28-.38,2.28Z"/><path class="cls-1" d="M644.16,144S631.71,126.78,622,123.09c0,0,22.5,12.66,25.44,14.38l-12.17-27.73L655,133.4l-8.09-24.94,16.75,21.09s-1.25-25.83-5.73-27.78c0,0,11.31,19.16,13.94,20.33s.65,3.92.65,3.92Z"/><path class="cls-1" d="M623.73,157.74s-8.43-10.89-16.59-12.09c0,0,18.19,5.86,20.55,6.68l-6.49-18.79,14,14.53-3.27-17.35,11.67,13.08s3-19.11-.7-19.85c0,0,7.09,12.51,9.26,13s0,2.83,0,2.83Z"/><path class="cls-1" d="M485.85,244s11.55-37,4.61-44.93c0,0-3.37,30.41-2,36l11.29-46.55-1.83,41.9,8.38-38.37-.37,32.87s11.84-33.07,7-35.62c0,0,2,33,4.83,34.48l-6.6,4.19Z"/><path class="cls-1" d="M543.81,207.25S535.51,185.61,530,180c0,0,16.65,15.33,17.22,19.73l-7.41-29.4,16.71,24.49-11.08-22.39,19.13,17s-8.5-18.51-12.68-20c0,0,21.3,16.77,23.76,17.68l-6.6,4.18Z"/><path class="cls-1" d="M493.93,238.89s-5.12-16.61-9.51-20.55c0,0,13.58,10.49,13.58,14l-3.37-23,12.55,17.94-7.58-16.9,15.67,11.54s-5.66-14-9.36-14.76c0,0,17.72,11.1,19.88,11.55l-6.6,4.18Z"/><path class="cls-2" d="M516.9,224.32s-5.12-16.61-9.51-20.56c0,0,13.58,10.5,13.58,14l-3.37-23,12.55,17.93-7.58-16.89,15.68,11.53s-5.67-14-9.36-14.75c0,0,17.71,11.1,19.87,11.55l-6.6,4.18Z"/><path class="cls-2" d="M699.43,108.55S685.56,95.13,684.69,82.1c0,0,5.76,21,6.67,25.39l-25.24-20.4,18.45,25.74L661,98.75l16.64,20.71S651,112.11,650.33,106c0,0,12,16,16.73,17.16,4.2,1,4,3.43,4,3.43Z"/><path class="cls-2" d="M719.44,95.86S717.2,54.15,708.67,29c0,0-4.49,51.52-.79,60.28L686.26,28l15.41,67.59L685.93,47.15l10.12,57.06s-16.2-37.48-20.58-49.5c0,0,1.25,45.66,8.23,50.4,6.27,4.27,7.37,8.74,7.37,8.74Z"/><path class="cls-2" d="M739.44,83.17s5.77-41.27-1.23-64c0,0-12.78,50.65-9.63,58.52l-12-58.37,5.69,64.44-7-46.76,1.09,55s-8-36.66-11.61-47.52c0,0-6.92,44.95-.4,49,5.87,3.61,6.7,7.68,6.7,7.68Z"/><path class="cls-2" d="M759.45,70.48S741.22,50.2,737.7,33c0,0,10.59,28.67,12.47,34.55L742,27.36l1.6,45.81-29.23-23,22.78,30.37s-31.44-14.85-33.39-23.05c0,0,16.69,23.37,22.17,25.74,4.92,2.13,5.17,5.27,5.17,5.27Z"/><path class="cls-1" d="M618.28,160s-6.22-18.27-17.64-24.6c0,0,16.58,14.17,20.13,16.85l-7.69-31.53,15.41,27.66L625.8,121.1,637.43,145s4.73-27.27-.56-30.5c0,0,9.38,17.74,8.39,22.45-.89,4.23,1.39,5.08,1.39,5.08Z"/><path class="cls-1" d="M598.28,172.7s5.41-46.56-13.67-65c0,0,6.33,44.66,12.67,51.74L593.21,87l12.37,69.5,5.11-61.63,5.11,60.24S631,97.72,622,88.63c0,0-1.42,47.35-.11,55.69,1.19,7.49,4.77,10.39,4.77,10.39Z"/><path class="cls-1" d="M578.27,185.39s2.41-39.13-15.15-55.15c0,0,9.06,36.8,14.85,43l-5.49-62.51,13.68,59.38,2.86-53,7.1,51.2s12.42-49.59,4.15-57.52c0,0,1.42,39.66,2.28,47.27.77,6.85,4.09,9.34,4.09,9.34Z"/><path class="cls-1" d="M558.27,198.08s13.6-33.64-.47-44.17c0,0-2.78,30.31,1.74,34.51l9.36-51.28-1.43,47.73,15.8-44.76-6.42,42s24.15-43.27,17.58-48.54c0,0-10.17,33.58-10.36,39.54-.17,5.37,2.56,6.93,2.56,6.93Z"/></g></g></svg>