<svg xmlns="http://www.w3.org/2000/svg" xmlns:xlink="http://www.w3.org/1999/xlink" viewBox="0 0 7473.58 680.52"><defs><style>.cls-1{fill:#586620;}.cls-2{fill:#66581f;}.cls-3{fill:url(#linear-gradient);}.cls-4{fill:url(#linear-gradient-2);}.cls-5{fill:url(#linear-gradient-3);}.cls-6{fill:url(#linear-gradient-4);}.cls-7{fill:url(#linear-gradient-5);}.cls-8{fill:url(#linear-gradient-6);}.cls-9{fill:url(#linear-gradient-7);}.cls-10{fill:url(#linear-gradient-8);}.cls-11{fill:url(#linear-gradient-9);}.cls-12{fill:url(#linear-gradient-10);}.cls-13{fill:url(#linear-gradient-11);}.cls-14{fill:url(#linear-gradient-12);}.cls-15{fill:url(#linear-gradient-13);}.cls-16{fill:url(#linear-gradient-14);}.cls-17{fill:url(#linear-gradient-15);}.cls-18{fill:url(#linear-gradient-16);}.cls-19{fill:url(#linear-gradient-17);}.cls-20{fill:url(#linear-gradient-18);}</style><linearGradient id="linear-gradient" x1="7096.13" y1="531.52" x2="7133.03" y2="531.52" gradientUnits="userSpaceOnUse"><stop offset="0" stop-color="#586620"/><stop offset="0.57" stop-color="#364b19"/><stop offset="1" stop-color="#203a14"/></linearGradient><linearGradient id="linear-gradient-2" x1="7083.89" y1="530.75" x2="7131.98" y2="530.75" xlink:href="#linear-gradient"/><linearGradient id="linear-gradient-3" x1="7121.6" y1="549.73" x2="7160.66" y2="549.73" xlink:href="#linear-gradient"/><linearGradient id="linear-gradient-4" x1="7141.5" y1="537.2" x2="7183.93" y2="537.2" xlink:href="#linear-gradient"/><linearGradient id="linear-gradient-5" x1="7271.53" y1="583.54" x2="7313.97" y2="583.54" xlink:href="#linear-gradient"/><linearGradient id="linear-gradient-6" x1="7161.31" y1="549.21" x2="7215.17" y2="549.21" xlink:href="#linear-gradient"/><linearGradient id="linear-gradient-7" x1="7238.65" y1="572.05" x2="7281.09" y2="572.05" xlink:href="#linear-gradient"/><linearGradient id="linear-gradient-8" x1="7258.47" y1="584.06" x2="7312.33" y2="584.06" xlink:href="#linear-gradient"/><linearGradient id="linear-gradient-9" x1="7181.12" y1="564.83" x2="7224.18" y2="564.83" xlink:href="#linear-gradient"/><linearGradient id="linear-gradient-10" x1="7210.97" y1="575.49" x2="7254.03" y2="575.49" xlink:href="#linear-gradient"/><linearGradient id="linear-gradient-11" x1="7294.75" y1="616.63" x2="7331.75" y2="616.63" xlink:href="#linear-gradient"/><linearGradient id="linear-gradient-12" x1="7314.7" y1="610.78" x2="7351.59" y2="610.78" xlink:href="#linear-gradient"/><linearGradient id="linear-gradient-13" x1="7426.54" y1="662.2" x2="7451.33" y2="662.2" xlink:href="#linear-gradient"/><linearGradient id="linear-gradient-14" x1="7335.3" y1="621.61" x2="7383.38" y2="621.61" xlink:href="#linear-gradient"/><linearGradient id="linear-gradient-15" x1="7408.84" y1="651.58" x2="7445.17" y2="651.58" xlink:href="#linear-gradient"/><linearGradient id="linear-gradient-16" x1="7429.78" y1="666.23" x2="7473.58" y2="666.23" xlink:href="#linear-gradient"/><linearGradient id="linear-gradient-17" x1="7355.01" y1="634.44" x2="7394.03" y2="634.44" xlink:href="#linear-gradient"/><linearGradient id="linear-gradient-18" x1="7384.2" y1="648.15" x2="7421.55" y2="648.15" xlink:href="#linear-gradient"/></defs><title>Grama Chão</title><g id="Layer_2" data-name="Layer 2"><g id="grama_chao" data-name="grama chao"><g id="grama"><path class="cls-1" d="M999.36,100.87s-1.29-27.2-7.54-37.87c0,0,12.22,29.13,13.79,33l4.57-38.35,4,39.16,6.53-32.53,2.85,34.31s12.78-28.81,10-34c0,0-.71,28.49.87,31.56s-1.54,4.7-1.54,4.7Z"/><path class="cls-1" d="M977.8,100.87s-1.29-27.2-7.54-37.87c0,0,12.23,29.13,13.79,33l4.57-38.35,4,39.16,6.53-32.53L1002,98.6s12.78-28.81,10-34c0,0-.71,28.49.88,31.56s-1.55,4.7-1.55,4.7Z"/><path class="cls-2" d="M948.11,100.87s-1.28-17.21-7.53-24c0,0,12.22,18.44,13.78,20.89l4.58-24.27,4,24.79,6.53-20.59,2.85,21.71s12.78-18.23,10-21.51c0,0-.71,18,.88,20s-1.55,3-1.55,3Z"/><path class="cls-1" d="M923.11,101.86s-1.29-12-7.54-16.74c0,0,12.23,12.88,13.79,14.59l4.57-16.95,4,17.31,6.53-14.38,2.85,15.17s12.78-12.74,10-15c0,0-.71,12.6.87,14s-1.54,2.07-1.54,2.07Z"/><path class="cls-1" d="M891.08,101.86s-1.29-10-7.54-13.94c0,0,12.23,10.72,13.79,12.15L901.9,86l4,14.41,6.53-12L915.3,101s12.78-10.61,10-12.51c0,0-.71,10.48.88,11.61s-1.55,1.73-1.55,1.73Z"/><path class="cls-2" d="M866.08,101.86s-1.29-21.23-7.54-29.56c0,0,12.22,22.74,13.79,25.77l4.57-29.94,4,30.57,6.53-25.39,2.84,26.78s12.78-22.49,10.05-26.53c0,0-.71,22.24.87,24.64s-1.54,3.66-1.54,3.66Z"/><path class="cls-1" d="M841.47,103.46s-1.29-13.71-7.54-19.09c0,0,12.22,14.69,13.79,16.64l4.57-19.33,4,19.74L862.84,85l2.85,17.3s12.77-14.53,10-17.14c0,0-.71,14.37.87,15.92s-1.54,2.36-1.54,2.36Z"/><path class="cls-2" d="M2404.5,100.82s-1.28-18.48-7.53-25.74c0,0,12.22,19.81,13.78,22.44l4.57-26.06,4,26.61L2425.87,76l2.85,23.32s12.78-19.58,10-23.1c0,0-.71,19.37.88,21.45s-1.55,3.19-1.55,3.19Z"/><path class="cls-2" d="M2372.47,100.82s-1.28-25.42-7.53-35.4c0,0,12.22,27.24,13.78,30.87l4.58-35.86,4,36.61,6.53-30.41,2.85,32.08s12.78-26.93,10-31.77c0,0-.71,26.63.88,29.5s-1.55,4.38-1.55,4.38Z"/><path class="cls-2" d="M2347.47,100.82s-1.29-21.22-7.54-29.56c0,0,12.22,22.74,13.79,25.78l4.57-29.94,4,30.57,6.53-25.4,2.85,26.79s12.77-22.49,10-26.53c0,0-.71,22.23.87,24.63s-1.54,3.66-1.54,3.66Z"/><path class="cls-2" d="M2432.45,100.84s-1.29-10.62-7.54-14.79c0,0,12.23,11.38,13.79,12.9l4.57-15,4,15.3,6.53-12.71,2.85,13.41s12.78-11.26,10-13.28c0,0-.26,13,1.32,14.19l-2,0Z"/><path class="cls-2" d="M2322.86,102.42s-1.29-13.71-7.54-19.09c0,0,12.22,14.69,13.79,16.65l4.57-19.34,4,19.74,6.53-16.4,2.85,17.3s12.78-14.52,10-17.13c0,0-.71,14.36.87,15.91s-1.54,2.36-1.54,2.36Z"/><path class="cls-1" d="M809.44,103.46s-1.29-11.41-7.54-15.9c0,0,12.22,12.23,13.79,13.86l4.57-16.1,4,16.44,6.53-13.65,2.85,14.4s12.77-12.09,10-14.27c0,0-.71,12,.87,13.25s-1.54,2-1.54,2Z"/><path class="cls-1" d="M784.43,103.46S783.15,77.29,776.9,67c0,0,12.22,28,13.78,31.78l4.58-36.92,4,37.7,6.53-31.32,2.84,33s12.78-27.73,10.05-32.71c0,0-.71,27.42.87,30.37s-1.54,4.52-1.54,4.52Z"/><path class="cls-1" d="M766.32,103.46S765,85,758.79,77.68c0,0,12.22,19.83,13.78,22.48l4.57-26.11,4,26.66,6.53-22.14,2.85,23.35s12.78-19.61,10-23.13c0,0-.71,19.39.88,21.48s-1.55,3.19-1.55,3.19Z"/><path class="cls-1" d="M741.32,103.46S740,77.29,733.78,67c0,0,12.22,28,13.79,31.78l4.57-36.92,4,37.7,6.53-31.32,2.85,33s12.77-27.73,10-32.71c0,0-.71,27.42.87,30.37s-1.54,4.52-1.54,4.52Z"/><path class="cls-1" d="M2283.09,99.26s-1.29-10-7.54-13.93c0,0,12.23,10.72,13.79,12.15l4.57-14.12,4,14.42,6.53-12,2.85,12.63s12.78-10.6,10-12.51c0,0-.71,10.49.87,11.62s-1.54,1.72-1.54,1.72Z"/><path class="cls-1" d="M2258.08,99.26s-1.28-21.22-7.53-29.55c0,0,12.22,22.74,13.79,25.77l4.57-29.94,4,30.57,6.53-25.39,2.84,26.78s12.78-22.49,10-26.53c0,0-.71,22.23.87,24.63s-1.54,3.66-1.54,3.66Z"/><path class="cls-1" d="M2233.48,100.87s-1.29-13.72-7.54-19.1c0,0,12.22,14.69,13.79,16.65l4.57-19.34,4,19.75,6.53-16.41,2.84,17.3s12.78-14.52,10-17.13c0,0-.71,14.36.87,15.91s-1.54,2.37-1.54,2.37Z"/><path class="cls-1" d="M2201.45,100.87s-1.29-11.42-7.54-15.9c0,0,12.22,12.23,13.79,13.86l4.57-16.1,4,16.44,6.53-13.66,2.84,14.4s12.78-12.09,10.05-14.26c0,0-.71,12,.87,13.25s-1.54,2-1.54,2Z"/><path class="cls-1" d="M2176.44,100.87s-1.28-18.51-7.53-25.78c0,0,12.22,19.83,13.78,22.47l4.58-26.1,4,26.65L2197.82,76l2.84,23.35s12.78-19.61,10.05-23.13c0,0-.71,19.39.87,21.48s-1.54,3.2-1.54,3.2Z"/><path class="cls-1" d="M2158.33,100.87s-1.29-13.09-7.54-18.23c0,0,12.23,14,13.79,15.89l4.57-18.46,4,18.85,6.53-15.66,2.85,16.52s12.78-13.87,10-16.36c0,0-.71,13.71.88,15.19s-1.55,2.26-1.55,2.26Z"/><path class="cls-1" d="M2133.33,100.87s-1.29-11.62-7.54-16.19c0,0,12.22,12.45,13.79,14.11l4.57-16.39,4,16.74,6.53-13.9,2.84,14.66s12.78-12.31,10.05-14.53c0,0-.71,12.18.87,13.49s-1.54,2-1.54,2Z"/><path class="cls-1" d="M424.22,154.73s-1.28-12.12-7.53-16.89c0,0,12.22,13,13.78,14.73l4.58-17.11,4,17.47,6.52-14.51,2.85,15.3s12.78-12.85,10.05-15.15c0,0-.71,12.7.87,14.07s-1.54,2.09-1.54,2.09Z"/><path class="cls-1" d="M399.22,154.73s-1.28-18.79-7.53-26.17c0,0,12.22,20.14,13.78,22.82l4.58-26.51,4,27.07,6.53-22.49,2.85,23.72s12.78-19.92,10-23.5c0,0-.71,19.7.88,21.82s-1.55,3.24-1.55,3.24Z"/><path class="cls-1" d="M374.61,154.73s-1.28-14.56-7.53-20.28c0,0,12.22,15.6,13.78,17.68l4.58-20.54,4,21L396,135.14l2.85,18.38s12.78-15.43,10-18.21c0,0-.71,15.26.88,16.91s-1.55,2.51-1.55,2.51Z"/><path class="cls-1" d="M342.58,154.73s-1.28-12.12-7.53-16.89c0,0,12.22,13,13.78,14.73l4.58-17.11,4,17.47L364,138.42l2.85,15.3s12.78-12.85,10-15.15c0,0-.71,12.7.88,14.07s-1.55,2.09-1.55,2.09Z"/><path class="cls-1" d="M317.58,154.73s-1.29-17.15-7.54-23.88c0,0,12.23,18.37,13.79,20.82l4.57-24.19,4,24.7L339,131.67l2.85,21.64s12.78-18.18,10-21.44c0,0-.71,18,.87,19.9s-1.54,3-1.54,3Z"/><path class="cls-1" d="M299.46,154.73s-1.28-12.12-7.53-16.89c0,0,12.22,13,13.78,14.73l4.58-17.11,4,17.47,6.53-14.51,2.84,15.3s12.78-12.85,10.05-15.15c0,0-.71,12.7.87,14.07s-1.54,2.09-1.54,2.09Z"/><path class="cls-1" d="M274.46,154.73s-1.28-17.15-7.53-23.88c0,0,12.22,18.37,13.78,20.82l4.58-24.19,4,24.7,6.53-20.51,2.85,21.64s12.78-18.18,10-21.44c0,0-.71,18,.88,19.9s-1.55,3-1.55,3Z"/><path class="cls-1" d="M242.26,154.73s-1.29-12.12-7.54-16.89c0,0,12.22,13,13.79,14.73l4.57-17.11,4,17.47,6.53-14.51,2.85,15.3s12.78-12.85,10-15.15c0,0-.71,12.7.87,14.07s-1.54,2.09-1.54,2.09Z"/><path class="cls-1" d="M217.25,154.73s-1.28-24.39-7.53-34c0,0,12.22,26.13,13.78,29.61l4.58-34.4,4,35.13,6.53-29.18,2.84,30.77s12.78-25.84,10.05-30.48c0,0-.71,25.55.87,28.31s-1.54,4.2-1.54,4.2Z"/><path class="cls-1" d="M192.65,154.73s-1.29-18.9-7.54-26.32c0,0,12.22,20.25,13.79,23l4.57-26.66,4,27.22L214,129.31l2.84,23.85s12.78-20,10-23.63c0,0-.71,19.81.87,21.94s-1.54,3.26-1.54,3.26Z"/><path class="cls-1" d="M160.62,154.74s-1.29-13.23-7.54-18.42c0,0,12.22,14.17,13.79,16.06l4.57-18.66,4,19.05L182,136.94l2.84,16.7s12.78-14,10-16.54c0,0-.71,13.86.87,15.36s-1.54,2.28-1.54,2.28Z"/><path class="cls-1" d="M135.61,154.74s-1.28-26.4-7.53-36.77c0,0,12.22,28.29,13.78,32.06l4.58-37.24,4,38L157,119.23l2.84,33.31s12.78-28,10-33c0,0-.71,27.66.87,30.64s-1.54,4.56-1.54,4.56Z"/><path class="cls-1" d="M117.5,154.74s-1.29-18.67-7.54-26c0,0,12.23,20,13.79,22.67l4.57-26.33,4,26.88,6.53-22.33,2.85,23.55s12.78-19.78,10-23.33c0,0-.71,19.56.88,21.67s-1.55,3.22-1.55,3.22Z"/><path class="cls-1" d="M92.5,154.72S91.21,115.12,85,99.58c0,0,12.22,42.42,13.79,48.08l4.57-55.86,4,57,6.53-47.38,2.84,50s12.78-42,10.05-49.5c0,0-.71,41.49.87,46a5.93,5.93,0,0,1-1.54,6.83Z"/><path class="cls-1" d="M50.65,154.74s-1.28-24.4-7.53-34c0,0,12.22,26.13,13.78,29.62L61.48,116l4,35.13L72,121.93l2.85,30.78s12.78-25.85,10-30.49c0,0-.71,25.55.87,28.31s-1.54,4.21-1.54,4.21Z"/><path class="cls-1" d="M32.54,154.74s-1.29-17.25-7.54-24c0,0,12.22,18.48,13.79,20.94l4.57-24.33,4,24.84,6.53-20.63,2.85,21.76s12.77-18.27,10-21.56c0,0-.71,18.07.87,20s-1.54,3-1.54,3Z"/><path class="cls-1" d="M7.53,154.74S6.25,138.29,0,131.83c0,0,12.22,17.62,13.78,20l4.58-23.2,4,23.69,6.53-19.68,2.84,20.76s12.78-17.43,10-20.56c0,0-.71,17.23.87,19.09s-1.54,2.84-1.54,2.84Z"/><path class="cls-1" d="M569.25,146.15s-1.85-22.84-8.1-31c0,0,12.22,22.16,13.78,25.11l4.58-29.17,4,29.78,6.53-24.74,2.84,26.1s12.78-21.91,10.05-25.85c0,0,1.25,25.23,2.83,27.57l-3.59.21Z"/><path class="cls-1" d="M532.78,149.14s-1.84-17.57-8.09-23.81c0,0,12.22,17,13.78,19.31l4.58-22.43,4,22.91,6.53-19,2.85,20.07s12.78-16.86,10-19.88c0,0,1.26,19.4,2.84,21.2l-3.59.17Z"/><path class="cls-1" d="M496.61,151.57s0-25.52.35-35.12c0,0,3.77,24.85,5.33,28.3l3.49-26,5.11,26.69,6.53-28.89L520.26,147s7.16-17,4.43-21.62c0,0,6.87,20.91,8.45,23.64l-3.59.24Z"/><path class="cls-1" d="M71.63,154.77s0-35.55.36-48.92c0,0,3.77,34.61,5.33,39.41l3.49-36.18,5.1,37.18L92.44,106l2.85,42.44s7.16-23.72,4.42-30.12c0,0,6.87,32.63,8.45,36.43H71.63Z"/><path class="cls-2" d="M460.43,154.73s-1.85-18.93-8.1-25.67c0,0,12.22,18.38,13.79,20.83l4.57-24.19,4,24.7,6.53-20.52,2.85,21.64s9.51-12.86,6.77-16.13c0,0,4.52,15.62,6.1,17.56l-3.58.17Z"/><path class="cls-2" d="M643.17,140.71s4.57-38.73,3-51.87c0,0,5.85,37.28,4,44.12l9.49-49.08,1,50.51L663.25,92l11,40.11s-1.22-32.6-4-38.58c0,0,15.81,35,17.39,38.58l-14.61,8.56Z"/><path class="cls-1" d="M605.78,144s4.23-26.16,2.64-34.81c0,0,5.85,24.55,4,29.06l9.49-32.33,1,33.27,2.65-27.89,7.05,27.6s2.74-22.66,0-26.6c0,0,9,28.71,10.59,31.05H616.84Z"/><path class="cls-1" d="M714.76,116.45S713.48,90.28,707.23,80c0,0,12.22,28,13.78,31.78l4.58-36.92L727,60.43v7.91l2.85,33s12.78-27.73,10-32.71c0,0,0,31.93,1.57,34.89l-1.9.81Z"/><path class="cls-1" d="M687.7,132.15s.65-16.67-5.6-29c0,0,10.22,18.52,11.78,23L700.46,97l1.42-17.31v9.49l.85,24.5s14.78-18.14,12-24.12c0,0-1.58,23.36,0,26.91l-2.12,1.29Z"/><path class="cls-1" d="M1011.4,100.87s-7.91-17.48-14.16-28.15c0,0,18.85,19.41,20.41,23.29l-2.06-28.63,10.65,29.44-.1-22.81,9.48,24.59s6.15-19.09,3.41-24.26c0,0,5.92,18.76,7.51,21.83s-1.55,4.7-1.55,4.7Z"/><path class="cls-1" d="M2329.26,102.42s4.53-25.29-1.72-40.75c0,0,6.41,28.1,8,33.73l10.39-41.46-1.8,42.63,12.35-33-3,35.6S2372.07,71.5,2369.34,64c0,0-1.59,27-4.94,31.62-3,4.18-1.55,6.79-1.55,6.79Z"/><path class="cls-2" d="M1116.61,100.87S1121.14,86,1114.89,77c0,0,6.41,16.47,8,19.77l10.39-24.3-1.8,25,12.35-19.35-3,20.86s18.59-16.19,15.86-20.58c0,0-1.59,15.8-4.94,18.52-3,2.45-1.55,4-1.55,4Z"/><path class="cls-2" d="M1092.92,100.87s4.53-33.34-1.72-53.71c0,0,6.41,37,8,44.45L1109.56,37l-1.8,56.17,12.34-43.52-3,46.91s18.59-36.41,15.86-46.29c0,0-1.59,35.55-4.94,41.67-3,5.5-1.55,9-1.55,9Z"/><path class="cls-2" d="M1069.23,100.87s-2-29.65-8.25-47.77c0,0,12.94,32.94,14.5,39.53L1079.34,44l4.73,50,5.82-38.7L1093.45,97s12.07-32.39,9.33-41.17c0,0,4.94,31.61,1.58,37.05-3,4.9-1.54,8-1.54,8Z"/><path class="cls-2" d="M1045.54,100.87s4.53-21.25-1.72-34.23c0,0,6.4,23.6,8,28.32l10.39-34.81-1.8,35.8,12.34-27.74-3,29.9s18.59-23.21,15.85-29.5c0,0-1.58,22.65-4.94,26.55-3,3.51-1.54,5.71-1.54,5.71Z"/><path class="cls-1" d="M2308.22,102.42s4.53-18.76-1.72-30.22c0,0,6.41,20.84,8,25l10.39-30.75-1.79,31.62,12.34-24.49-3,26.4s18.6-20.5,15.86-26.06c0,0-1.58,20-4.94,23.46-3,3.09-1.54,5-1.54,5Z"/><path class="cls-1" d="M2284.53,102.42s4.53-42.18-1.72-68c0,0,6.41,46.88,8,56.25l10.39-69.14-1.79,71.1,12.34-55.08-3,59.37s18.59-46.09,15.86-58.59c0,0-1.58,45-4.94,52.74-3,7-1.54,11.32-1.54,11.32Z"/><path class="cls-1" d="M2260.84,102.42s-2-37.52-8.24-60.45c0,0,12.93,41.69,14.49,50L2271,30.5l4.73,63.24,5.82-49,3.55,52.81s12.07-41,9.34-52.12c0,0,4.93,40,1.58,46.91-3,6.19-1.54,10.07-1.54,10.07Z"/><path class="cls-1" d="M2237.15,102.42s4.53-26.88-1.72-43.32c0,0,6.41,29.88,8,35.85l10.39-44.06L2252,96.2l12.34-35.11-3,37.85s18.59-29.38,15.86-37.35c0,0-1.59,28.68-4.94,33.61-3,4.44-1.54,7.22-1.54,7.22Z"/><path class="cls-2" d="M325.71,154.77S330.24,136,324,124.54c0,0,6.41,20.85,8,25l10.39-30.75-1.8,31.62,12.35-24.5-3,26.41s18.59-20.5,15.86-26.06c0,0-1.59,20-4.94,23.45-3,3.1-1.55,5-1.55,5Z"/><path class="cls-2" d="M302,154.77s4.53-42.19-1.72-68c0,0,6.41,46.88,8,56.25l10.39-69.14L316.86,145,329.2,89.92l-3,59.38s18.59-46.09,15.86-58.59c0,0-1.59,45-4.94,52.73-3,7-1.55,11.33-1.55,11.33Z"/><path class="cls-2" d="M278.33,154.77s-2-37.52-8.25-60.45c0,0,12.94,41.69,14.5,50l3.86-61.5,4.73,63.23,5.82-49,3.56,52.82s12.07-41,9.33-52.12c0,0,4.94,40,1.58,46.9-3,6.2-1.54,10.08-1.54,10.08Z"/><path class="cls-2" d="M254.64,154.77s4.53-26.89-1.72-43.32c0,0,6.4,29.87,8,35.85l10.39-44.07-1.8,45.31,12.34-35.1-3,37.84s18.59-29.37,15.85-37.34c0,0-1.58,28.67-4.94,33.61-3,4.44-1.54,7.22-1.54,7.22Z"/><path class="cls-1" d="M6390.48,289.72s.9-11.42,5.28-15.9c0,0-8.56,12.23-9.65,13.86l-3.2-16.1L6380.1,288l-4.57-13.65-2,14.4s-8.94-12.1-7-14.27c0,0,.5,12-.61,13.25s1.08,2,1.08,2Z"/><path class="cls-1" d="M6408,289.72s.9-26.18,5.27-36.45c0,0-8.55,28-9.64,31.78l-3.21-36.92-2.81,37.7L6393,254.51l-2,33s-8.94-27.73-7-32.72c0,0,.5,27.42-.61,30.38a3.8,3.8,0,0,0,1.08,4.52Z"/><path class="cls-1" d="M6423.94,289.72s1-18.51,6-25.78c0,0-9.68,19.83-10.91,22.48l-3.63-26.11L6412.18,287,6407,264.82l-2.25,23.36s-10.12-19.61-8-23.14c0,0,.56,19.39-.69,21.49s1.22,3.19,1.22,3.19Z"/><path class="cls-1" d="M6443.74,289.72s1-26.18,6-36.45c0,0-9.68,28-10.92,31.78l-3.62-36.92-3.19,37.7-5.17-31.32-2.25,33s-10.12-27.73-8-32.72c0,0,.56,27.42-.69,30.38a3.58,3.58,0,0,0,1.22,4.52Z"/><path class="cls-1" d="M6013,159.67s-4.57-38.73-3-51.87c0,0-5.85,37.28-4,44.12l-9.49-49.08-1,50.52L5992.91,111l-11,40.11s1.22-32.6,4-38.58c0,0-15.81,35-17.39,38.58l14.61,8.56Z"/><path class="cls-1" d="M5909.79,114.61s1.29-26.17,7.54-36.45c0,0-12.23,28-13.79,31.78L5899,73l-1.42-14.43V66.5l-2.84,33s-12.78-27.73-10.05-32.71c0,0,0,31.93-1.58,34.89l1.91.81Z"/><path class="cls-1" d="M5936.86,130.45s-.65-16.67,5.6-29c0,0-10.22,18.52-11.78,23l-6.58-29.17L5922.68,78v9.49l-.84,24.5s-14.78-18.15-12.05-24.13c0,0,1.58,23.37,0,26.92l2.13,1.29Z"/><path class="cls-1" d="M5952.48,141.7s1.28-26.17,7.53-36.45c0,0-12.22,28-13.78,31.78l-4.57-36.92-1.42-14.43v7.91l-2.84,33s-12.78-27.73-10-32.71c0,0,0,31.93-1.58,34.89l1.91.81Z"/><path class="cls-1" d="M5977.45,156.15s-.66-16.67,5.59-29c0,0-10.22,18.52-11.78,23L5964.68,121l-1.41-17.31v9.49l-.84,24.5s-14.79-18.15-12.05-24.13c0,0,1.58,23.37,0,26.91l2.12,1.29Z"/><path class="cls-2" d="M6013,159.67s-4-18.59,1.53-29.95c0,0-5.7,20.65-7.09,24.79L5998.24,124l1.6,31.33-11-24.28,2.64,26.17S5975,137,5977.4,131.44c0,0,1.41,19.82,4.39,23.24,2.68,3.07,1.37,5,1.37,5Z"/><path class="cls-2" d="M6034.11,159.67s-4-41.81,1.53-67.35c0,0-5.7,46.45-7.09,55.74l-9.24-68.52,1.6,70.45-11-54.58,2.64,58.84s-16.53-45.67-14.1-58.06c0,0,1.41,44.58,4.39,52.25,2.68,6.9,1.37,11.23,1.37,11.23Z"/><path class="cls-2" d="M6055.18,159.67s1.77-37.18,7.33-59.91c0,0-11.5,41.32-12.89,49.58l-3.44-60.94-4.2,62.66-5.18-48.54-3.16,52.33s-10.73-40.63-8.3-51.64c0,0-4.39,39.65-1.41,46.48,2.68,6.13,1.37,10,1.37,10Z"/><path class="cls-2" d="M6076.25,159.67s-4-26.64,1.53-42.93c0,0-5.7,29.61-7.09,35.53l-9.24-43.67,1.6,44.9-11-34.78,2.64,37.5s-16.53-29.12-14.1-37c0,0,1.41,28.41,4.39,33.31,2.68,4.39,1.37,7.15,1.37,7.15Z"/><path class="cls-2" d="M6089.36,159.67s-4-26.64,1.53-42.93c0,0-5.69,29.61-7.08,35.53l-9.24-43.67,1.59,44.9-11-34.78,2.63,37.5s-16.53-29.12-14.1-37c0,0,1.41,28.41,4.4,33.31,2.68,4.39,1.37,7.15,1.37,7.15Z"/><path class="cls-1" d="M6550.64,337.93s-4-18.59,1.51-29.95c0,0-5.6,20.65-7,24.79l-9.07-30.47,1.57,31.33-10.78-24.28,2.59,26.17s-16.23-20.31-13.84-25.82c0,0,1.38,19.82,4.31,23.24,2.64,3.07,1.35,5,1.35,5Z"/><path class="cls-1" d="M6571.33,337.93s-4-41.8,1.5-67.35c0,0-5.6,46.45-7,55.74l-9.07-68.52,1.57,70.45-10.78-54.58,2.59,58.84s-16.23-45.67-13.84-58.06c0,0,1.39,44.58,4.31,52.25,2.64,6.9,1.35,11.23,1.35,11.23Z"/><path class="cls-1" d="M6592,337.93s1.74-37.18,7.19-59.9c0,0-11.29,41.31-12.65,49.57l-3.38-60.94-4.12,62.66L6574,280.78l-3.11,52.33s-10.53-40.63-8.14-51.64c0,0-4.31,39.65-1.39,46.48,2.64,6.13,1.35,10,1.35,10Z"/><path class="cls-1" d="M6612.69,337.93s-4-26.64,1.5-42.93c0,0-5.6,29.61-7,35.53l-9.07-43.67,1.57,44.9L6589,297l2.58,37.5s-16.22-29.12-13.84-37c0,0,1.39,28.41,4.31,33.31,2.64,4.39,1.35,7.15,1.35,7.15Z"/><path class="cls-2" d="M6116,166.1s-.67-12.6,6.64-18.14c0,0-9.05,11.26-11.1,13.45l-3.64-21.35-3.87,19.83-6.39-18-2,16.91s-12.42-17-9.13-19.77c0,0-2.06,12.65.22,15.57,2.06,2.62.46,3.46.46,3.46Z"/><path class="cls-2" d="M6136.32,171.75s-4.93-28.1,4.83-42.43c0,0-5.24,28.37-8.18,33.75l-5.34-46-2.36,45.19-9.42-37.88.66,38.27s-16.31-33.85-11.83-40.87c0,0,1.92,29.12,3.47,34.67,1.4,5-.61,7.32-.61,7.32Z"/><path class="cls-2" d="M6156.62,177.41s8.12-22.55,17.39-35.13c0,0-18.2,22.49-21,27.24l-1.06-39.8-6.6,38.81,3.39-31.44-12.07,31.55s-11.59-29.17-7.35-35.34c0,0-2.81,24.51-1.11,29.54,1.52,4.52-.4,6.55-.4,6.55Z"/><path class="cls-2" d="M6176.91,183.06s.72-17.58,8.88-26.17c0,0-10.6,16.8-13,20.1l-1.36-29.52-6.21,28.23-4.57-24.49-3.93,23.93s-10.91-22.46-7.2-26.7c0,0-3.55,18-1.52,21.8,1.83,3.45.09,4.8.09,4.8Z"/><path class="cls-1" d="M4248.16,101.35s-1.28-12-7.53-16.75c0,0,12.22,12.88,13.78,14.6l4.58-17,4,17.32,6.52-14.39,2.85,15.18s12.78-12.74,10.05-15c0,0-.71,12.59.87,14s-1.54,2.08-1.54,2.08Z"/><path class="cls-1" d="M4216.13,101.35s-1.28-10-7.53-13.94c0,0,12.22,10.72,13.78,12.15L4227,85.44l4,14.42,6.52-12,2.85,12.63s12.78-10.6,10-12.51c0,0-.71,10.49.87,11.62s-1.54,1.73-1.54,1.73Z"/><path class="cls-1" d="M4191.13,101.35s-1.28-21.23-7.53-29.56c0,0,12.22,22.74,13.78,25.77L4202,67.62l4,30.57,6.53-25.39,2.85,26.78s12.78-22.49,10-26.53c0,0-.71,22.24.88,24.63s-1.55,3.67-1.55,3.67Z"/><path class="cls-1" d="M4166.52,103s-1.28-13.71-7.53-19.1c0,0,12.22,14.69,13.78,16.65l4.58-19.34,4,19.75,6.53-16.4,2.85,17.3s12.78-14.53,10-17.14c0,0-.71,14.36.88,15.91s-1.55,2.37-1.55,2.37Z"/><path class="cls-2" d="M4319.33,102s-1.28-19.58-7.53-27.26c0,0,12.22,21,13.78,23.77l4.58-27.62,4,28.2,6.53-23.42,2.84,24.7s12.78-20.74,10.05-24.47c0,0-.71,20.51.87,22.73s-1.54,3.37-1.54,3.37Z"/><path class="cls-2" d="M4287.3,102s-1.28-16.3-7.53-22.7c0,0,12.22,17.47,13.78,19.79l4.58-23,4,23.48,6.53-19.5,2.84,20.57s12.78-17.27,10-20.38c0,0-.71,17.08.87,18.92s-1.54,2.81-1.54,2.81Z"/><path class="cls-2" d="M4262.3,102s-1.28-34.56-7.53-48.13c0,0,12.22,37,13.78,42l4.58-48.75,4,49.78,6.53-41.35,2.85,43.61s12.78-36.62,10-43.2c0,0-.7,36.21.88,40.12a4.82,4.82,0,0,1-1.55,6Z"/><path class="cls-2" d="M4237.69,104.6s-1.28-22.33-7.53-31.09c0,0,12.22,23.92,13.78,27.1l4.58-31.49,4,32.16,6.53-26.71,2.85,28.17s12.78-23.66,10-27.91c0,0-.7,23.39.88,25.92s-1.55,3.85-1.55,3.85Z"/><path class="cls-1" d="M4163.29,102.29s-1.29-17.35-7.54-24.16c0,0,12.23,18.59,13.79,21.06l4.57-24.46,4,25L4184.66,79l2.85,21.89s12.78-18.38,10-21.69c0,0-.71,18.18.87,20.14s-1.54,3-1.54,3Z"/><path class="cls-1" d="M4131.26,102.29s-1.29-14.44-7.54-20.11c0,0,12.23,15.47,13.79,17.53l4.57-20.37,4,20.8,6.53-17.27,2.85,18.22s12.78-15.3,10-18c0,0-.71,15.13.88,16.76s-1.55,2.49-1.55,2.49Z"/><path class="cls-1" d="M4106.26,102.29s-1.29-30.62-7.54-42.65c0,0,12.22,32.81,13.79,37.19l4.57-43.2,4,44.11,6.53-36.64,2.84,38.64s12.78-32.45,10.05-38.28c0,0-.71,32.09.87,35.55a4,4,0,0,1-1.54,5.28Z"/><path class="cls-1" d="M4081.65,104.6s-1.29-19.78-7.54-27.55c0,0,12.22,21.19,13.79,24l4.57-27.9,4,28.49L4103,78l2.85,25s12.77-21,10-24.72c0,0-.71,20.72.87,23s-1.54,3.41-1.54,3.41Z"/><path class="cls-1" d="M4444.09,102.59s-1.28-26.13-7.53-36.38c0,0,12.22,28,13.78,31.71l4.58-36.84,4,37.62,6.52-31.25,2.85,33s12.78-27.68,10-32.65c0,0-.71,27.37.87,30.32s-1.54,4.51-1.54,4.51Z"/><path class="cls-1" d="M4412.06,102.59s-1.28-21.75-7.53-30.29c0,0,12.22,23.3,13.78,26.4L4422.89,68l4,31.32,6.53-26,2.84,27.44s12.78-23,10.05-27.18c0,0-.71,22.79.87,25.24s-1.54,3.76-1.54,3.76Z"/><path class="cls-1" d="M4387.06,102.59s-1.28-46.12-7.53-64.23c0,0,12.22,49.41,13.78,56l4.58-65,4,66.42,6.53-55.17,2.85,58.18s12.78-48.85,10-57.63c0,0-.71,48.31.88,53.52s-1.55,8-1.55,8Z"/><path class="cls-1" d="M4362.45,104.06s-1.28-29.79-7.53-41.48c0,0,12.22,31.91,13.78,36.17l4.58-42,4,42.9L4383.82,64l2.85,37.58s12.78-31.56,10-37.23c0,0-.71,31.21.88,34.57a3.89,3.89,0,0,1-1.55,5.14Z"/><path class="cls-1" d="M4055.38,102.15s-1.28-12-7.53-16.75c0,0,12.22,12.88,13.78,14.6l4.58-17,4,17.32L4076.76,86l2.84,15.17s12.78-12.74,10.05-15c0,0-.71,12.59.87,13.95s-1.54,2.08-1.54,2.08Z"/><path class="cls-1" d="M4023.35,102.15s-1.28-10-7.53-13.94c0,0,12.22,10.72,13.78,12.15l4.58-14.12,4,14.42,6.53-12,2.84,12.63s12.78-10.6,10-12.51c0,0-.71,10.49.87,11.62s-1.54,1.73-1.54,1.73Z"/><path class="cls-1" d="M3998.35,102.15s-1.28-21.23-7.53-29.56c0,0,12.22,22.74,13.78,25.77l4.58-29.94,4,30.57,6.53-25.39,2.84,26.78s12.78-22.49,10-26.53c0,0-.71,22.24.87,24.63s-1.54,3.67-1.54,3.67Z"/><path class="cls-1" d="M3973.74,103.75s-1.28-13.71-7.53-19.1c0,0,12.22,14.69,13.78,16.65L3984.57,82l4,19.75,6.53-16.4,2.84,17.3s12.78-14.53,10.05-17.14c0,0-.71,14.36.87,15.91s-1.54,2.37-1.54,2.37Z"/><path class="cls-1" d="M3902,100.48s-1.29-12-7.54-16.75c0,0,12.23,12.89,13.79,14.6l4.57-17,4,17.32,6.53-14.38,2.85,15.17s12.78-12.74,10-15c0,0-.71,12.59.88,14s-1.55,2.08-1.55,2.08Z"/><path class="cls-1" d="M3869.92,100.48s-1.28-10-7.53-13.94c0,0,12.22,10.72,13.78,12.15l4.58-14.12,4,14.42,6.53-12,2.85,12.62s12.78-10.6,10-12.51c0,0-.71,10.49.88,11.62s-1.55,1.73-1.55,1.73Z"/><path class="cls-1" d="M3844.92,101.44s-1.29-21.23-7.54-29.56c0,0,12.22,22.74,13.79,25.77l4.57-29.94,4,30.57,6.53-25.39,2.85,26.78s12.77-22.49,10-26.53c0,0-.71,22.24.87,24.64s-1.54,3.66-1.54,3.66Z"/><path class="cls-1" d="M3820.31,102.08S3819,88.37,3812.77,83c0,0,12.22,14.69,13.79,16.65l4.57-19.34,4,19.75,6.53-16.4,2.85,17.3s12.78-14.53,10-17.14c0,0-.71,14.36.87,15.91s-1.54,2.37-1.54,2.37Z"/><path class="cls-2" d="M2958.51,101.47s-1.29-12-7.54-16.74c0,0,12.22,12.88,13.79,14.6l4.57-17,4,17.31,6.53-14.38,2.84,15.17s12.78-12.74,10.05-15c0,0-.71,12.6.87,14s-1.54,2.07-1.54,2.07Z"/><path class="cls-2" d="M2926.48,101.47s-1.29-10-7.54-13.94c0,0,12.22,10.73,13.79,12.16l4.57-14.12,4,14.41,6.53-12,2.84,12.63s12.78-10.61,10-12.51c0,0-.71,10.48.87,11.62s-1.54,1.72-1.54,1.72Z"/><path class="cls-2" d="M2901.47,101.47s-1.28-21.22-7.53-29.56c0,0,12.22,22.74,13.78,25.77l4.58-29.93,4,30.57,6.53-25.4,2.84,26.78s12.78-22.48,10-26.52c0,0-.71,22.23.87,24.63s-1.54,3.66-1.54,3.66Z"/><path class="cls-2" d="M2876.86,103.07s-1.28-13.71-7.53-19.09c0,0,12.22,14.69,13.78,16.65l4.58-19.34,4,19.74,6.53-16.4,2.84,17.3s12.78-14.52,10.05-17.13c0,0-.71,14.36.87,15.91s-1.54,2.36-1.54,2.36Z"/><path class="cls-1" d="M3168.82,101.08s4.58-30.79,3-41.23c0,0,5.85,29.64,4,35.07l9.49-39,1,40.16,2.65-33.67L3196,95.71s2.73-27.35,0-32.11c0,0,9,34.66,10.59,37.48h-37.73Z"/><path class="cls-1" d="M3193.1,101.08s4.57-30.79,3-41.23c0,0,5.84,29.64,4,35.07l9.48-39,1,40.16,2.65-33.67,7.06,33.32s2.74-27.35,0-32.11c0,0,9,34.66,10.6,37.48H3193.1Z"/><path class="cls-1" d="M3072,101.08s4.57-30.79,3-41.23c0,0,5.84,29.64,4,35.07l9.48-39,1,40.16,2.65-33.67,7.06,33.32s2.74-27.35,0-32.11c0,0,9,34.66,10.6,37.48H3072Z"/><path class="cls-1" d="M3109.75,101.08s4.57-22.72,3-30.42c0,0,5.84,21.87,4,25.88l9.48-28.79,1,29.63,2.65-24.85,7.06,24.59s2.74-20.18,0-23.69c0,0,9,25.57,10.6,27.65h-37.73Z"/><path class="cls-1" d="M3137,101.08s4.57-22.72,3-30.42c0,0,5.85,21.87,4,25.88l9.49-28.79,1,29.63L3157,72.53l7,24.59s2.74-20.18,0-23.69c0,0,9,25.57,10.59,27.65H3137Z"/><path class="cls-1" d="M3261.74,101.08s4.57-30.79,3-41.23c0,0,5.85,29.64,4,35.07l9.48-39,1,40.16,2.65-33.67,7.06,33.32s2.73-27.35,0-32.11c0,0,9,34.66,10.6,37.48h-37.73Z"/><path class="cls-1" d="M3286,101.08s4.57-30.79,3-41.23c0,0,5.85,29.64,4,35.07l9.49-39,1,40.16,2.65-33.67,7,33.32s2.74-27.35,0-32.11c0,0,9,34.66,10.59,37.48H3286Z"/><path class="cls-1" d="M3202.66,101.08s4.57-22.72,3-30.42c0,0,5.85,21.87,4,25.88l9.49-28.79,1,29.63,2.65-24.85,7.05,24.59s2.74-20.18,0-23.69c0,0,9,25.57,10.59,27.65h-37.73Z"/><path class="cls-1" d="M3229.87,101.08s4.57-22.72,3-30.42c0,0,5.85,21.87,4,25.88l9.49-28.79,1,29.63,2.65-24.85L3257,97.12s2.73-20.18,0-23.69c0,0,9,25.57,10.6,27.65h-37.73Z"/><path class="cls-1" d="M3354.65,101.08s4.57-30.79,3-41.23c0,0,5.84,29.64,4,35.07l9.48-39,1,40.16,2.64-33.67,7.06,33.32s2.74-27.35,0-32.11c0,0,9,34.66,10.6,37.48h-37.73Z"/><path class="cls-1" d="M3378.93,101.08s4.57-30.79,3-41.23c0,0,5.85,29.64,4,35.07l9.49-39,1,40.16L3399,62.39l7.06,33.32s2.73-27.35,0-32.11c0,0,9,34.66,10.6,37.48h-37.73Z"/><path class="cls-2" d="M3295.58,101.08s4.57-22.72,3-30.42c0,0,5.85,21.87,4,25.88L3312,67.75l1,29.63,2.65-24.85,7.06,24.59s2.73-20.18,0-23.69c0,0,9,25.57,10.6,27.65h-37.73Z"/><path class="cls-1" d="M3322.78,101.08s4.57-22.72,3-30.42c0,0,5.84,21.87,4,25.88l9.48-28.79,1,29.63,2.64-24.85,7.06,24.59s2.74-20.18,0-23.69c0,0,9,25.57,10.6,27.65h-37.73Z"/><path class="cls-1" d="M3447.56,101.08s4.58-30.79,3-41.23c0,0,5.85,29.64,4,35.07l9.49-39,1,40.16,2.65-33.67,7.06,33.32s2.73-27.35,0-32.11c0,0,9,34.66,10.6,37.48h-37.74Z"/><path class="cls-1" d="M3471.84,101.08s4.57-30.79,3-41.23c0,0,5.84,29.64,4,35.07l9.48-39,1,40.16,2.64-33.67L3499,95.71s2.74-27.35,0-32.11c0,0,9,34.66,10.6,37.48h-37.73Z"/><path class="cls-1" d="M3388.49,101.08s4.57-22.72,3-30.42c0,0,5.84,21.87,4,25.88l9.48-28.79,1,29.63,2.64-24.85,7.06,24.59s2.74-20.18,0-23.69c0,0,9,25.57,10.6,27.65h-37.73Z"/><path class="cls-1" d="M3415.69,101.08s4.58-22.72,3-30.42c0,0,5.85,21.87,4,25.88l9.49-28.79,1,29.63,2.65-24.85,7.06,24.59s2.73-20.18,0-23.69c0,0,9,25.57,10.59,27.65h-37.73Z"/><path class="cls-1" d="M3540.48,101.08s4.57-30.79,3-41.23c0,0,5.84,29.64,4,35.07l9.48-39,1,40.16,2.64-33.67,7.06,33.32s2.74-27.35,0-32.11c0,0,9,34.66,10.6,37.48h-37.73Z"/><path class="cls-1" d="M3564.75,101.08s4.58-30.79,3-41.23c0,0,5.85,29.64,4,35.07l9.49-39,1,40.16,2.65-33.67,7.06,33.32s2.73-27.35,0-32.11c0,0,9,34.66,10.59,37.48h-37.73Z"/><path class="cls-1" d="M3481.4,101.08s4.58-22.72,3-30.42c0,0,5.85,21.87,4,25.88l9.49-28.79,1,29.63,2.65-24.85,7.06,24.59s2.73-20.18,0-23.69c0,0,9,25.57,10.59,27.65H3481.4Z"/><path class="cls-1" d="M3508.61,101.08s4.57-22.72,3-30.42c0,0,5.84,21.87,4,25.88L3525,67.75l1,29.63,2.65-24.85,7.06,24.59s2.74-20.18,0-23.69c0,0,9,25.57,10.6,27.65h-37.73Z"/><path class="cls-1" d="M3633.39,101.08s4.58-30.79,3-41.23c0,0,5.85,29.64,4,35.07l9.49-39,1,40.16,2.65-33.67,7.06,33.32s2.73-27.35,0-32.11c0,0,9,34.66,10.59,37.48h-37.73Z"/><path class="cls-1" d="M3657.67,101.08s4.57-30.79,3-41.23c0,0,5.84,29.64,4,35.07l9.48-39,1,40.16,2.65-33.67,7.06,33.32s2.74-27.35,0-32.11c0,0,9,34.66,10.6,37.48h-37.73Z"/><path class="cls-1" d="M3574.32,101.08s4.57-22.72,3-30.42c0,0,5.84,21.87,4,25.88l9.48-28.79,1,29.63,2.65-24.85,7.06,24.59s2.74-20.18,0-23.69c0,0,9,25.57,10.6,27.65h-37.73Z"/><path class="cls-1" d="M3601.52,101.08s4.57-22.72,3-30.42c0,0,5.85,21.87,4,25.88L3618,67.75l1,29.63,2.65-24.85,7.05,24.59s2.74-20.18,0-23.69c0,0,9,25.57,10.59,27.65h-37.73Z"/><path class="cls-1" d="M3726.31,101.08s4.57-22.72,3-30.42c0,0,5.84,21.87,4,25.88l9.48-28.79,1,29.63,2.65-24.85,7.06,24.59s2.74-20.18,0-23.69c0,0,9,25.57,10.6,27.65h-37.73Z"/><path class="cls-1" d="M3750.58,101.08s4.57-22.72,3-30.42c0,0,5.85,21.87,4,25.88L3767,67.75l1,29.63,2.65-24.85,7.05,24.59s2.74-20.18,0-23.69c0,0,9,25.57,10.59,27.65h-37.73Z"/><path class="cls-1" d="M3667.23,101.08s4.57-16.76,3-22.44c0,0,5.85,16.13,4,19.09l9.49-21.24,1,21.86L3687.31,80l7.05,18.14s2.74-14.89,0-17.48c0,0,9,18.87,10.59,20.4h-37.73Z"/><path class="cls-2" d="M3694.44,101.08s4.57-16.76,3-22.44c0,0,5.85,16.13,4,19.09l9.49-21.24,1,21.86L3714.51,80l7.06,18.14s2.73-14.89,0-17.48c0,0,9,18.87,10.6,20.4h-37.73Z"/><path class="cls-2" d="M3910.58,101.08s-4.53-18.76,1.72-30.22c0,0-6.4,20.84-8,25l-10.39-30.75,1.8,31.62L3883.4,72.25l3,26.4s-18.59-20.5-15.85-26.06c0,0,1.58,20,4.94,23.46,3,3.09,1.54,5,1.54,5Z"/><path class="cls-2" d="M3934.27,101.08s-4.52-42.18,1.73-68c0,0-6.41,46.88-8,56.25l-10.38-69.14,1.79,71.1-12.34-55.08,3,59.38s-18.6-46.1-15.86-58.6c0,0,1.58,45,4.94,52.74,3,7,1.54,11.32,1.54,11.32Z"/><path class="cls-2" d="M3958,101.08s2-37.52,8.24-60.45c0,0-12.93,41.69-14.49,50l-3.87-61.5-4.73,63.24-5.82-49-3.55,52.81s-12.07-41-9.34-52.12c0,0-4.94,40-1.58,46.91,3,6.19,1.54,10.07,1.54,10.07Z"/><path class="cls-2" d="M3981.66,101.08s-4.53-26.88,1.72-43.32c0,0-6.41,29.88-8,35.85L3965,49.55l1.79,45.31-12.34-35.1,3,37.84s-18.59-29.38-15.86-37.35c0,0,1.59,28.68,4.94,33.61,3,4.44,1.54,7.22,1.54,7.22Z"/><path class="cls-2" d="M3466.14,100.81s4.53-12.94-1.72-20.86c0,0,6.41,14.39,8,17.27L3482.78,76,3481,97.82l12.34-16.91-3,18.22s18.59-14.14,15.85-18c0,0-1.58,13.81-4.93,16.19-3,2.13-1.55,3.47-1.55,3.47Z"/><path class="cls-2" d="M3442.45,100.81s4.53-29.11-1.72-46.9c0,0,6.4,32.35,8,38.82L3459.09,45l-1.8,49.06,12.34-38-3,41s18.59-31.81,15.85-40.43c0,0-1.58,31-4.94,36.39-3,4.8-1.54,7.81-1.54,7.81Z"/><path class="cls-2" d="M3418.76,100.81s-2-25.89-8.25-41.71c0,0,12.93,28.77,14.5,34.52l3.86-42.44,4.73,43.64L3439.42,61,3443,97.46s12.06-28.29,9.33-36c0,0,4.94,27.62,1.58,32.37-3,4.27-1.54,7-1.54,7Z"/><path class="cls-2" d="M3395.07,100.81s4.52-18.55-1.73-29.89c0,0,6.41,20.62,8,24.74l10.38-30.41-1.79,31.27,12.34-24.23-3,26.12s18.6-20.27,15.86-25.77c0,0-1.58,19.78-4.94,23.19-3,3.06-1.54,5-1.54,5Z"/><path class="cls-1" d="M2845.69,101.08s4.53-14.39-1.72-23.19c0,0,6.41,16,8,19.2l10.39-23.6-1.79,24.26L2872.88,79l-3,20.26s18.59-15.73,15.86-20c0,0-1.58,15.36-4.94,18-3,2.37-1.54,3.86-1.54,3.86Z"/><path class="cls-1" d="M2822,101.08s4.53-32.37-1.72-52.15c0,0,6.41,36,8,43.16l10.39-53-1.79,54.55,12.34-42.26-3,45.56s18.59-35.37,15.86-45c0,0-1.59,34.52-4.94,40.46-3,5.34-1.54,8.69-1.54,8.69Z"/><path class="cls-1" d="M2798.31,101.08s-2-28.79-8.24-46.38c0,0,12.93,32,14.49,38.39l3.87-47.19,4.73,48.52L2819,56.83l3.55,40.52s12.07-31.45,9.34-40c0,0,4.93,30.7,1.58,36-3,4.76-1.54,7.73-1.54,7.73Z"/><path class="cls-1" d="M2774.62,101.08s4.53-20.63-1.72-33.23c0,0,6.41,22.92,8,27.5l10.39-33.81-1.8,34.77,12.35-26.94-3,29s18.59-22.54,15.86-28.65c0,0-1.59,22-4.94,25.78-3,3.41-1.55,5.54-1.55,5.54Z"/><path class="cls-1" d="M2784.62,101.08s-2-20.63-8.24-33.23c0,0,12.93,22.92,14.49,27.5l3.87-33.81,4.73,34.77,5.82-26.94,3.55,29s12.07-22.54,9.34-28.65c0,0,4.93,22,1.58,25.78-3,3.41-1.54,5.54-1.54,5.54Z"/><path class="cls-1" d="M2760.93,101.08s4.53-13.32-1.72-21.46c0,0,6.41,14.8,8,17.76l10.39-21.83L2775.77,98l12.35-17.39-3,18.75s18.59-14.56,15.86-18.5c0,0-1.59,14.2-4.94,16.65-3,2.2-1.54,3.57-1.54,3.57Z"/><path class="cls-1" d="M4550.63,101.08s4.53-18.76-1.72-30.22c0,0,6.41,20.84,8,25l10.39-30.75-1.8,31.62,12.34-24.49-3,26.4s18.59-20.5,15.86-26.06c0,0-1.59,20-4.94,23.46-3,3.09-1.55,5-1.55,5Z"/><path class="cls-1" d="M4526.94,101.08s4.53-42.18-1.72-68c0,0,6.41,46.88,8,56.25l10.39-69.14-1.8,71.1,12.34-55.08-3,59.38S4569.75,49.52,4567,37c0,0-1.58,45-4.93,52.74-3,7-1.55,11.32-1.55,11.32Z"/><path class="cls-1" d="M4503.25,101.08s-2-37.52-8.25-60.45c0,0,12.93,41.69,14.5,50l3.86-61.5,4.73,63.24,5.82-49,3.56,52.81s12.07-41,9.33-52.12c0,0,4.94,40,1.58,46.91-3,6.19-1.54,10.07-1.54,10.07Z"/><path class="cls-1" d="M4479.56,101.08s4.52-26.88-1.73-43.32c0,0,6.41,29.88,8,35.85l10.38-44.06-1.79,45.31,12.34-35.1-3,37.84s18.6-29.38,15.86-37.35c0,0-1.58,28.68-4.94,33.61-3,4.44-1.54,7.22-1.54,7.22Z"/><path class="cls-1" d="M4720.3,101.35s-1.28-12-7.53-16.75c0,0,12.22,12.88,13.78,14.6l4.58-17,4,17.32,6.52-14.39,2.85,15.18s12.78-12.74,10-15c0,0-.71,12.59.87,14s-1.54,2.08-1.54,2.08Z"/><path class="cls-1" d="M4688.27,101.35s-1.28-10-7.53-13.94c0,0,12.22,10.72,13.78,12.15l4.58-14.12,4,14.42,6.53-12,2.84,12.63s12.78-10.6,10.05-12.51c0,0-.71,10.49.87,11.62s-1.54,1.73-1.54,1.73Z"/><path class="cls-1" d="M4663.27,101.35s-1.28-21.23-7.53-29.56c0,0,12.22,22.74,13.78,25.77l4.58-29.94,4,30.57,6.53-25.39,2.85,26.78s12.78-22.49,10-26.53c0,0-.71,22.24.88,24.63s-1.55,3.67-1.55,3.67Z"/><path class="cls-1" d="M4638.66,103s-1.28-13.71-7.53-19.1c0,0,12.22,14.69,13.78,16.65l4.58-19.34,4,19.75,6.53-16.4,2.85,17.3s12.78-14.53,10-17.14c0,0-.71,14.36.88,15.91s-1.55,2.37-1.55,2.37Z"/><path class="cls-1" d="M4791.47,102s-1.28-19.58-7.53-27.26c0,0,12.22,21,13.78,23.77l4.58-27.62,4,28.2,6.53-23.42,2.84,24.7s12.78-20.74,10.05-24.47c0,0-.71,20.51.87,22.73s-1.54,3.37-1.54,3.37Z"/><path class="cls-1" d="M4759.44,102s-1.28-16.3-7.53-22.7c0,0,12.22,17.47,13.78,19.79l4.58-23,4,23.48,6.53-19.5,2.84,20.57s12.78-17.27,10.05-20.38c0,0-.71,17.08.87,18.92S4793,102,4793,102Z"/><path class="cls-1" d="M4734.44,102s-1.28-34.56-7.53-48.13c0,0,12.22,37,13.78,42l4.58-48.75,4,49.78,6.53-41.35,2.85,43.61s12.78-36.62,10-43.2c0,0-.7,36.21.88,40.12a4.82,4.82,0,0,1-1.55,6Z"/><path class="cls-1" d="M4709.83,104.6s-1.28-22.33-7.53-31.09c0,0,12.22,23.92,13.78,27.1l4.58-31.49,4,32.16,6.52-26.71,2.85,28.17s12.78-23.66,10-27.91c0,0-.7,23.39.88,25.92s-1.54,3.85-1.54,3.85Z"/><path class="cls-2" d="M4635.43,102.29s-1.29-17.35-7.54-24.16c0,0,12.23,18.59,13.79,21.06l4.57-24.46,4,25L4656.8,79l2.85,21.89s12.78-18.38,10-21.69c0,0-.71,18.18.88,20.14s-1.55,3-1.55,3Z"/><path class="cls-2" d="M4603.4,102.29s-1.28-14.44-7.53-20.11c0,0,12.22,15.47,13.78,17.53l4.57-20.37,4,20.8,6.53-17.27,2.85,18.22s12.78-15.3,10-18c0,0-.71,15.13.88,16.76s-1.55,2.49-1.55,2.49Z"/><path class="cls-2" d="M4578.4,102.29s-1.29-30.62-7.54-42.65c0,0,12.22,32.81,13.79,37.19l4.57-43.2,4,44.11,6.53-36.64,2.85,38.64s12.77-32.45,10-38.28c0,0-.71,32.09.87,35.55a4,4,0,0,1-1.54,5.28Z"/><path class="cls-2" d="M4553.79,104.6s-1.29-19.78-7.54-27.55c0,0,12.22,21.19,13.79,24l4.57-27.9,4,28.49L4575.16,78l2.85,25s12.77-21,10-24.72c0,0-.71,20.72.87,23s-1.54,3.41-1.54,3.41Z"/><path class="cls-2" d="M5195.1,101.35s-1.29-12-7.54-16.75c0,0,12.22,12.88,13.79,14.6l4.57-17,4,17.32,6.53-14.39,2.85,15.18s12.78-12.74,10-15c0,0-.71,12.59.87,14s-1.54,2.08-1.54,2.08Z"/><path class="cls-2" d="M5163.07,101.35s-1.29-10-7.54-13.94c0,0,12.23,10.72,13.79,12.15l4.57-14.12,4,14.42,6.53-12,2.85,12.63s12.78-10.6,10-12.51c0,0-.71,10.49.87,11.62s-1.54,1.73-1.54,1.73Z"/><path class="cls-2" d="M5138.07,101.35s-1.29-21.23-7.54-29.56c0,0,12.22,22.74,13.79,25.77l4.57-29.94,4,30.57,6.53-25.39,2.84,26.78s12.78-22.49,10.05-26.53c0,0-.71,22.24.87,24.63s-1.54,3.67-1.54,3.67Z"/><path class="cls-2" d="M5113.46,102.29s-1.29-13.71-7.54-19.09c0,0,12.22,14.69,13.79,16.64l4.57-19.33,4,19.74,6.53-16.4,2.84,17.3s12.78-14.53,10.05-17.14c0,0-.71,14.37.87,15.92s-1.54,2.36-1.54,2.36Z"/><path class="cls-1" d="M5266.27,102s-1.29-19.58-7.54-27.26c0,0,12.23,21,13.79,23.77l4.57-27.62,4,28.2,6.53-23.42,2.85,24.7s12.78-20.74,10-24.47c0,0-.71,20.51.88,22.73s-1.55,3.37-1.55,3.37Z"/><path class="cls-1" d="M5234.24,102s-1.28-16.3-7.53-22.7c0,0,12.22,17.47,13.78,19.79l4.57-23,4,23.48,6.53-19.5,2.85,20.57s12.78-17.27,10-20.38c0,0-.71,17.08.88,18.92s-1.55,2.81-1.55,2.81Z"/><path class="cls-1" d="M5209.24,102s-1.29-34.56-7.54-48.13c0,0,12.22,37,13.79,42l4.57-48.75,4,49.78,6.53-41.35,2.85,43.61s12.77-36.62,10-43.2c0,0-.71,36.21.87,40.12a4.81,4.81,0,0,1-1.54,6Z"/><path class="cls-1" d="M5184.63,104.6s-1.29-22.33-7.54-31.09c0,0,12.22,23.92,13.79,27.1l4.57-31.49,4,32.16L5206,74.57l2.85,28.17s12.77-23.66,10-27.91c0,0-.71,23.39.87,25.92s-1.54,3.85-1.54,3.85Z"/><path class="cls-1" d="M5347.91,101.35s-1.28-12-7.53-16.75c0,0,12.22,12.88,13.78,14.6l4.58-17,4,17.32,6.53-14.39,2.85,15.18s12.78-12.74,10-15c0,0-.71,12.59.88,14s-1.55,2.08-1.55,2.08Z"/><path class="cls-1" d="M5315.88,101.35s-1.28-10-7.53-13.94c0,0,12.22,10.72,13.78,12.15l4.58-14.12,4,14.42,6.53-12,2.85,12.63s12.78-10.6,10-12.51c0,0-.7,10.49.88,11.62s-1.55,1.73-1.55,1.73Z"/><path class="cls-1" d="M5290.88,101.35s-1.29-21.23-7.54-29.56c0,0,12.23,22.74,13.79,25.77l4.57-29.94,4,30.57,6.53-25.39,2.85,26.78s12.78-22.49,10-26.53c0,0-.71,22.24.87,24.63s-1.54,3.67-1.54,3.67Z"/><path class="cls-1" d="M5266.27,103s-1.29-13.71-7.54-19.1c0,0,12.23,14.69,13.79,16.65l4.57-19.34,4,19.75,6.53-16.4,2.85,17.3s12.78-14.53,10-17.14c0,0-.71,14.36.88,15.91s-1.55,2.37-1.55,2.37Z"/><path class="cls-1" d="M5419.08,102s-1.28-19.58-7.53-27.26c0,0,12.22,21,13.78,23.77l4.58-27.62,4,28.2,6.53-23.42,2.85,24.7s12.78-20.74,10-24.47c0,0-.7,20.51.88,22.73s-1.54,3.37-1.54,3.37Z"/><path class="cls-1" d="M5387.05,102s-1.28-16.3-7.53-22.7c0,0,12.22,17.47,13.78,19.79l4.58-23,4,23.48,6.52-19.5,2.85,20.57s12.78-17.27,10-20.38c0,0-.71,17.08.87,18.92s-1.54,2.81-1.54,2.81Z"/><path class="cls-1" d="M5362.05,102s-1.28-21.63-7.53-30.12c0,0,12.22,23.17,13.78,26.26l4.57-30.51,4,31.16,6.53-25.88,2.85,27.29s12.78-22.92,10-27c0,0-.71,22.67.88,25.11s-1.55,3.73-1.55,3.73Z"/><path class="cls-1" d="M5337.44,104.6s-1.28-22.33-7.53-31.09c0,0,12.22,23.92,13.78,27.1l4.58-31.49,4,32.16,6.53-26.71,2.85,28.17s12.78-23.66,10-27.91c0,0-.71,23.39.88,25.92s-1.55,3.85-1.55,3.85Z"/><path class="cls-1" d="M5110.22,102.29s-1.28-17.35-7.53-24.16c0,0,12.22,18.59,13.78,21.06l4.58-24.46,4,25L5131.6,79l2.84,21.89s12.78-18.38,10.05-21.69c0,0-.71,18.18.87,20.14s-1.54,3-1.54,3Z"/><path class="cls-1" d="M5078.19,102.29s-1.28-14.44-7.53-20.11c0,0,12.22,15.47,13.78,17.53L5089,79.34l4,20.8,6.53-17.27,2.84,18.22s12.78-15.3,10.05-18c0,0-.71,15.13.87,16.76s-1.54,2.49-1.54,2.49Z"/><path class="cls-1" d="M5053.19,102.29s-1.28-30.62-7.53-42.65c0,0,12.22,32.81,13.78,37.19l4.58-43.2,4,44.11,6.52-36.64,2.85,38.64s12.78-32.45,10.05-38.28c0,0-.71,32.09.87,35.55a4,4,0,0,1-1.54,5.28Z"/><path class="cls-1" d="M5028.58,104.6s-1.28-19.78-7.53-27.55c0,0,12.22,21.19,13.78,24l4.58-27.9,4,28.49L5050,78l2.84,25s12.78-21,10.05-24.72c0,0-.71,20.72.87,23s-1.54,3.41-1.54,3.41Z"/><path class="cls-2" d="M4916.23,102.29s-1.28-17.35-7.53-24.16c0,0,12.22,18.59,13.78,21.06l4.58-24.46,4,25L4937.61,79l2.84,21.89s12.78-18.38,10.05-21.69c0,0-.71,18.18.87,20.14s-1.54,3-1.54,3Z"/><path class="cls-2" d="M4884.2,102.29s-1.28-14.44-7.53-20.11c0,0,12.22,15.47,13.78,17.53L4895,79.34l4,20.8,6.53-17.27,2.84,18.22s12.78-15.3,10.05-18c0,0-.71,15.13.87,16.76s-1.54,2.49-1.54,2.49Z"/><path class="cls-2" d="M4859.2,102.29s-1.28-30.62-7.53-42.65c0,0,12.22,32.81,13.78,37.19l4.58-43.2,4,44.11,6.53-36.64,2.85,38.64s12.78-32.45,10-38.28c0,0-.71,32.09.88,35.55a4,4,0,0,1-1.55,5.28Z"/><path class="cls-2" d="M4834.59,104.6s-1.28-19.78-7.53-27.55c0,0,12.22,21.19,13.78,24l4.58-27.9,4,28.49L4856,78l2.85,25s12.78-21,10-24.72c0,0-.7,20.72.88,23s-1.55,3.41-1.55,3.41Z"/><path class="cls-1" d="M5022.77,101.08s4.53-18.76-1.72-30.22c0,0,6.41,20.84,8,25l10.39-30.75-1.8,31.62L5050,72.25l-3,26.4s18.59-20.5,15.86-26.06c0,0-1.59,20-4.94,23.46-3,3.09-1.55,5-1.55,5Z"/><path class="cls-1" d="M4999.08,101.08s4.53-42.18-1.72-68c0,0,6.41,46.88,8,56.25l10.39-69.14-1.8,71.1,12.34-55.08-3,59.38s18.59-46.1,15.85-58.6c0,0-1.58,45-4.93,52.74-3,7-1.55,11.32-1.55,11.32Z"/><path class="cls-1" d="M4975.39,101.08s-2-37.52-8.25-60.45c0,0,12.93,41.69,14.5,50l3.86-61.5,4.73,63.24,5.82-49,3.56,52.81s12.07-41,9.33-52.12c0,0,4.94,40,1.58,46.91-3,6.19-1.54,10.07-1.54,10.07Z"/><path class="cls-1" d="M4951.7,101.08s4.53-26.88-1.72-43.32c0,0,6.4,29.88,8,35.85l10.38-44.06-1.79,45.31,12.34-35.1-3,37.84s18.59-29.38,15.85-37.35c0,0-1.58,28.68-4.94,33.61-3,4.44-1.54,7.22-1.54,7.22Z"/><path class="cls-1" d="M5626.64,102.41s1.28-12,7.53-16.75c0,0-12.22,12.89-13.78,14.6l-4.58-17-4,17.32-6.53-14.38-2.84,15.17s-12.78-12.74-10.05-15c0,0,.71,12.6-.87,14s1.54,2.08,1.54,2.08Z"/><path class="cls-1" d="M5658.67,102.41s1.28-10,7.53-13.94c0,0-12.22,10.72-13.78,12.15l-4.58-14.12-4,14.42-6.53-12-2.84,12.62S5621.67,91,5624.4,89.06c0,0,.71,10.49-.87,11.62s1.54,1.73,1.54,1.73Z"/><path class="cls-1" d="M5683.67,102.41s1.28-21.23,7.53-29.56c0,0-12.22,22.74-13.78,25.77l-4.58-29.94-4,30.57-6.52-25.39-2.85,26.78s-12.78-22.49-10.05-26.53c0,0,.71,22.24-.87,24.64s1.54,3.66,1.54,3.66Z"/><path class="cls-1" d="M5708.28,104s1.28-13.71,7.53-19.09c0,0-12.22,14.68-13.78,16.64l-4.58-19.34-4,19.75-6.53-16.4-2.84,17.3S5671.28,88.34,5674,85.73c0,0,.71,14.36-.87,15.91s1.54,2.37,1.54,2.37Z"/><path class="cls-1" d="M5555.47,103.06s1.28-19.58,7.53-27.27c0,0-12.22,21-13.78,23.77L5544.64,72l-4,28.19-6.53-23.42-2.84,24.7S5518.47,80.68,5521.2,77c0,0,.71,20.51-.87,22.73s1.54,3.38,1.54,3.38Z"/><path class="cls-1" d="M5587.49,103.06s1.29-16.3,7.54-22.7c0,0-12.22,17.46-13.79,19.79l-4.57-23-4,23.47-6.53-19.5-2.84,20.57s-12.78-17.27-10.05-20.37c0,0,.71,17.07-.87,18.91s1.54,2.82,1.54,2.82Z"/><path class="cls-1" d="M5612.5,103.06s1.28-34.57,7.53-48.14c0,0-12.22,37-13.78,42l-4.58-48.76-4,49.78-6.53-41.35-2.84,43.62S5575.5,63.56,5578.23,57c0,0,.71,36.21-.87,40.11a4.83,4.83,0,0,0,1.54,6Z"/><path class="cls-1" d="M5637.11,105.66s1.28-22.33,7.53-31.09c0,0-12.22,23.92-13.78,27.11l-4.58-31.49-4,32.15-6.53-26.71-2.84,28.17s-12.78-23.65-10.05-27.9c0,0,.71,23.39-.87,25.91s1.54,3.85,1.54,3.85Z"/><path class="cls-1" d="M5473.82,102.41s1.29-12,7.54-16.75c0,0-12.22,12.89-13.79,14.6l-4.57-17-4,17.32-6.53-14.38-2.85,15.17s-12.77-12.74-10-15c0,0,.71,12.6-.87,14s1.54,2.08,1.54,2.08Z"/><path class="cls-1" d="M5505.85,102.41s1.29-10,7.54-13.94c0,0-12.22,10.72-13.79,12.15L5495,86.5l-4,14.42-6.53-12-2.85,12.62s-12.78-10.6-10-12.51c0,0,.71,10.49-.87,11.62s1.54,1.73,1.54,1.73Z"/><path class="cls-1" d="M5530.86,102.41s1.28-21.23,7.53-29.56c0,0-12.22,22.74-13.78,25.77L5520,68.68l-4,30.57-6.53-25.39-2.84,26.78s-12.78-22.49-10.05-26.53c0,0,.71,22.24-.87,24.64s1.54,3.66,1.54,3.66Z"/><path class="cls-1" d="M5555.47,104s1.28-13.71,7.53-19.09c0,0-12.22,14.68-13.78,16.64l-4.58-19.34-4,19.75-6.53-16.4-2.84,17.3s-12.78-14.53-10.05-17.14c0,0,.71,14.36-.87,15.91s1.54,2.37,1.54,2.37Z"/><path class="cls-1" d="M5402.65,103.06s1.29-19.58,7.54-27.27c0,0-12.23,21-13.79,23.77L5391.83,72l-4,28.19-6.53-23.42-2.85,24.7s-12.78-20.74-10-24.47c0,0,.71,20.51-.87,22.73s1.54,3.38,1.54,3.38Z"/><path class="cls-1" d="M5434.68,103.06s1.29-16.3,7.54-22.7c0,0-12.23,17.46-13.79,19.79l-4.57-23-4,23.47-6.53-19.5-2.85,20.57s-12.78-17.27-10-20.37c0,0,.71,17.07-.88,18.91s1.55,2.82,1.55,2.82Z"/><path class="cls-1" d="M5459.68,103.06s1.29-21.64,7.54-30.13c0,0-12.22,23.18-13.79,26.26l-4.57-30.51-4,31.16L5438.31,74l-2.84,27.29s-12.78-22.92-10.05-27c0,0,.71,22.66-.87,25.1s1.54,3.74,1.54,3.74Z"/><path class="cls-1" d="M5484.29,105.66s1.29-22.33,7.54-31.09c0,0-12.22,23.92-13.79,27.11l-4.57-31.49-4,32.15-6.53-26.71-2.84,28.17S5447.3,80.15,5450,75.9c0,0,.71,23.39-.87,25.91s1.54,3.85,1.54,3.85Z"/><path class="cls-2" d="M5711.51,103.35S5712.79,86,5719,79.19c0,0-12.22,18.59-13.78,21.07l-4.58-24.47-4,25L5690.14,80l-2.85,21.89s-12.78-18.38-10-21.68c0,0,.7,18.17-.88,20.13s1.55,3,1.55,3Z"/><path class="cls-2" d="M5743.54,103.35s1.28-14.44,7.53-20.11c0,0-12.22,15.47-13.78,17.54l-4.58-20.37-4,20.79-6.53-17.27-2.85,18.22s-12.78-15.3-10-18.05c0,0,.7,15.13-.88,16.76s1.54,2.49,1.54,2.49Z"/><path class="cls-2" d="M5768.54,102.41s1.29-30.63,7.54-42.65c0,0-12.23,32.81-13.79,37.18l-4.57-43.19-4,44.1-6.53-36.63-2.85,38.64s-12.78-32.45-10-38.28c0,0,.71,32.08-.88,35.55a4,4,0,0,0,1.55,5.28Z"/><path class="cls-2" d="M5793.67,101.26s1.29-19.78,7.54-27.55c0,0-12.22,21.2-13.79,24l-4.57-27.9-4,28.49-6.53-23.67-2.84,25s-12.78-21-10.05-24.72c0,0,.71,20.72-.87,23s1.54,3.41,1.54,3.41Z"/><path class="cls-1" d="M5799,101.15s-4.53-18.77,1.72-30.23c0,0-6.4,20.84-8,25l-10.38-30.74,1.79,31.61-12.34-24.49,3,26.4s-18.59-20.5-15.85-26c0,0,1.58,20,4.94,23.45,3,3.09,1.54,5,1.54,5Z"/><path class="cls-1" d="M5885.74,101.15s-4.53-18.77,1.72-30.23c0,0-6.41,20.84-8,25L5869.1,65.19l1.8,31.61-12.35-24.49,3,26.4s-18.59-20.5-15.86-26c0,0,1.59,20,4.94,23.45,3,3.09,1.55,5,1.55,5Z"/><path class="cls-1" d="M5822.65,101.15s-4.52-42.19,1.73-68c0,0-6.41,46.87-8,56.25L5806,20.29l1.79,71.09L5795.47,36.3l3,59.38s-18.6-46.1-15.86-58.6c0,0,1.58,45,4.94,52.74,3,7,1.54,11.33,1.54,11.33Z"/><path class="cls-1" d="M5846.35,101.15s2-37.53,8.24-60.46c0,0-12.93,41.69-14.49,50l-3.87-61.49-4.73,63.23-5.82-49-3.55,52.81s-12.07-41-9.34-52.11c0,0-4.94,40-1.58,46.9,3,6.19,1.54,10.08,1.54,10.08Z"/><path class="cls-1" d="M5870,101.15s-4.53-26.89,1.72-43.32c0,0-6.41,29.87-8,35.85L5853.4,49.61l1.79,45.31-12.34-35.1,3,37.84S5827.23,68.28,5830,60.32c0,0,1.59,28.67,4.94,33.61,3,4.43,1.54,7.22,1.54,7.22Z"/><path class="cls-1" d="M3814.49,101.08s4.53-18.76-1.72-30.22c0,0,6.41,20.84,8,25l10.39-30.75-1.79,31.62,12.34-24.49-3,26.4s18.6-20.5,15.86-26.06c0,0-1.58,20-4.94,23.46-3,3.09-1.54,5-1.54,5Z"/><path class="cls-1" d="M3790.8,101.08s4.53-42.18-1.72-68c0,0,6.41,46.88,8,56.25l10.39-69.14-1.79,71.1L3818,36.24l-3,59.38s18.59-46.1,15.86-58.6c0,0-1.59,45-4.94,52.74-3,7-1.54,11.32-1.54,11.32Z"/><path class="cls-1" d="M3767.11,101.08s-2-37.52-8.24-60.45c0,0,12.93,41.69,14.49,50l3.87-61.5L3782,92.4l5.82-49,3.55,52.81s12.07-41,9.34-52.12c0,0,4.93,40,1.58,46.91-3,6.19-1.54,10.07-1.54,10.07Z"/><path class="cls-1" d="M3743.42,101.08s4.53-26.88-1.72-43.32c0,0,6.41,29.88,8,35.85l10.39-44.06-1.8,45.31,12.35-35.1-3,37.84s18.59-29.38,15.86-37.35c0,0-1.59,28.68-4.94,33.61-3,4.44-1.54,7.22-1.54,7.22Z"/><path class="cls-1" d="M3050.53,101.08s4.53-23.45-1.72-37.78c0,0,6.41,26.06,8,31.27l10.39-38.44-1.79,39.52L3077.72,65l-3,33s18.59-25.62,15.86-32.57c0,0-1.59,25-4.94,29.32-3,3.87-1.54,6.29-1.54,6.29Z"/><path class="cls-1" d="M3026.84,101.08s4.53-52.74-1.72-85c0,0,6.41,58.6,8,70.32L3043.48,0l-1.8,88.88L3054,20l-3,74.23s18.59-57.63,15.86-73.25c0,0-1.59,56.24-4.94,65.92-3,8.71-1.55,14.16-1.55,14.16Z"/><path class="cls-1" d="M3003.15,101.08s-2-46.9-8.24-75.57c0,0,12.93,52.12,14.49,62.54l3.87-76.87L3018,90.23,3023.81,29l3.56,66s12.07-51.25,9.33-65.15c0,0,4.94,50,1.59,58.64-3,7.74-1.55,12.59-1.55,12.59Z"/><path class="cls-1" d="M2979.46,101.08s4.53-33.61-1.72-54.15c0,0,6.41,37.35,8,44.82l10.39-55.09-1.8,56.64,12.34-43.88-3,47.31S3022.27,60,3019.53,50c0,0-1.58,35.85-4.93,42-3,5.55-1.55,9-1.55,9Z"/><path class="cls-1" d="M6214.51,195.11s9.67-28.08,19.88-44c0,0-19.91,28.64-23,34.62l1.39-48.61L6203.64,185l5.4-38.68-14.24,39.35s-10-35-5.28-42.77c0,0-4.39,30.15-3,36.2,1.27,5.43-.82,8-.82,8Z"/><path class="cls-1" d="M6228.32,197.44s.1-15.36,7.89-22.6c0,0-9.91,14.34-12.14,17.14l-2.38-25.88-5.16,24.49L6211.15,169l-3.06,20.8s-11.58-20-8.06-23.61c0,0-2.88,15.6-.74,19,1.93,3.08.25,4.21.25,4.21Z"/><path class="cls-1" d="M6253.33,213.78s3.17-12.2,11.82-15.27c0,0-12,8-14.66,9.45l3-21.44-9.69,17.72-.65-19.06-7,15.52s-6.7-20-2.72-21.61c0,0-5.8,11.44-4.5,14.91,1.17,3.12-.61,3.44-.61,3.44Z"/><path class="cls-1" d="M6271,225.31s3.8-28.28,17.44-39c0,0-13.58,25.46-18,29.69l8.83-45.5-15.91,42.36,2.48-38.95-11,36.68s-5.3-37.2,1.09-42.54c0,0-7,28.34-7.17,34.1-.18,5.18-2.8,6.79-2.8,6.79Z"/><path class="cls-1" d="M6288.6,236.84s14.56-19,27.21-28.22c0,0-24.16,15.94-28.23,19.62l11-38.25-18,35,12.74-29-21,26.42s-2.23-31.31,3.68-35.91c0,0-10.09,22.52-10,27.82.08,4.77-2.37,6.12-2.37,6.12Z"/><path class="cls-1" d="M6306.24,248.37s6-16.54,16.38-22.26c0,0-15.19,12.81-18.43,15.24l7.62-28.55-14.45,25,3-24.72-11,21.62s-3.6-24.71,1.22-27.63c0,0-8.82,16.06-8,20.32.7,3.84-1.37,4.6-1.37,4.6Z"/><path class="cls-1" d="M6332.81,265.64s6-16.54,16.38-22.26c0,0-15.18,12.81-18.43,15.24l7.63-28.55-14.46,25,3-24.72L6316,252s-3.6-24.71,1.21-27.63c0,0-8.81,16.06-8,20.32.7,3.84-1.36,4.6-1.36,4.6Z"/><path class="cls-2" d="M6636.9,351.58s2.7-12.32,11.23-15.71c0,0-11.73,8.45-14.28,10l2.16-21.55-9,18.09-1.38-19-6.4,15.78s-7.45-19.71-3.54-21.49c0,0-5.36,11.65-3.93,15.07,1.29,3.07-.47,3.45-.47,3.45Z"/><path class="cls-2" d="M6655,362.43s2.71-28.4,15.93-39.62c0,0-12.59,25.95-16.86,30.36l7.09-45.81-14.28,42.94,1-39-9.55,37.08s-6.72-37-.54-42.55c0,0-5.88,28.58-5.86,34.35,0,5.18-2.54,6.89-2.54,6.89Z"/><path class="cls-2" d="M6773.55,433.1s2.72-28.41,15.94-39.62c0,0-12.6,25.95-16.86,30.36l7.09-45.81L6765.43,421l1-39L6756.88,419s-6.73-37-.54-42.55c0,0-5.88,28.59-5.87,34.36,0,5.18-2.53,6.89-2.53,6.89Z"/><path class="cls-2" d="M6673,373.28s13.82-19.58,26.11-29.24c0,0-23.53,16.84-27.46,20.68l9.56-38.64-16.68,35.66,11.62-29.42-20,27.21s-3.42-31.2,2.31-36c0,0-9.23,22.88-8.93,28.18.27,4.76-2.12,6.21-2.12,6.21Z"/><path class="cls-2" d="M6743.56,415.4s2.71-28.41,15.93-39.62c0,0-12.59,26-16.86,30.36l7.09-45.81-14.28,42.94,1-39-9.55,37.07s-6.72-37-.54-42.55c0,0-5.88,28.59-5.86,34.36,0,5.18-2.54,6.89-2.54,6.89Z"/><path class="cls-2" d="M6761.62,426.24s13.82-19.58,26.11-29.24c0,0-23.53,16.85-27.46,20.69l9.56-38.64-16.68,35.65,11.62-29.41-20,27.21s-3.42-31.21,2.31-36c0,0-9.23,22.89-8.93,28.19.27,4.76-2.13,6.2-2.13,6.2Z"/><path class="cls-2" d="M6691.09,384.12s5.37-16.76,15.52-22.87c0,0-14.68,13.38-17.83,15.93l6.52-28.82-13.48,25.57,2.1-24.82-10.15,22s-4.54-24.55.15-27.65c0,0-8.19,16.38-7.25,20.61.84,3.81-1.19,4.65-1.19,4.65Z"/><path class="cls-2" d="M6718.31,400.36s5.36-16.76,15.52-22.87c0,0-14.68,13.38-17.83,15.93l6.52-28.82L6709,390.16l2.1-24.82-10.14,22s-4.54-24.56.15-27.65c0,0-8.19,16.38-7.25,20.61.84,3.81-1.19,4.65-1.19,4.65Z"/><path class="cls-1" d="M6801.25,443.33s-.61-10.15,6.56-13.63c0,0-8.89,7.82-10.91,9.3l-3.48-17.54-3.85,15.35-6.17-15.21-2,13.27s-12.07-15.23-8.84-17c0,0-2.07,9.85.15,12.47,2,2.36.44,2.83.44,2.83Z"/><path class="cls-1" d="M6821.06,450.5s-4.71-23.11,4.88-33.29c0,0-5.23,22-8.12,25.91l-5-37.5-2.47,35.82-9.06-31.51.49,30.68s-15.81-29.19-11.4-34.22c0,0,1.77,23.53,3.26,28.17,1.35,4.18-.63,5.78-.63,5.78Z"/><path class="cls-1" d="M6951,497.12s-4.71-23.11,4.89-33.29c0,0-5.24,22-8.13,25.91l-5.05-37.5-2.47,35.82-9.06-31.51.49,30.68S6915.85,458,6920.26,453c0,0,1.77,23.54,3.26,28.18,1.35,4.17-.62,5.77-.62,5.77Z"/><path class="cls-1" d="M6840.87,457.67s8-17,17.14-25.82c0,0-17.88,15.61-20.6,19l-.88-31.95-6.6,30.17,3.43-24.7-11.92,23.65s-11.22-24.83-7-29.21c0,0-2.83,19.23-1.2,23.47,1.48,3.81-.41,5.18-.41,5.18Z"/><path class="cls-1" d="M6918.17,485.47s-4.71-23.11,4.88-33.29c0,0-5.23,22-8.12,25.91l-5.05-37.5-2.47,35.82-9.06-31.51.49,30.68s-15.81-29.19-11.4-34.22c0,0,1.77,23.53,3.26,28.18,1.35,4.17-.62,5.77-.62,5.77Z"/><path class="cls-1" d="M6938,492.64s8-17,17.14-25.82c0,0-17.88,15.61-20.6,19.05l-.88-31.95-6.6,30.16,3.43-24.7L6918.55,483s-11.21-24.83-7-29.21c0,0-2.84,19.23-1.2,23.47,1.47,3.81-.42,5.18-.42,5.18Z"/><path class="cls-1" d="M6860.69,464.83s.76-14,8.77-19.76c0,0-10.42,12.05-12.74,14.38l-1.22-23.78-6.17,21.76L6845,437.26,6841,455.87s-10.57-19.38-6.93-22.28c0,0-3.54,13.91-1.57,17.23,1.77,3,.07,3.85.07,3.85Z"/><path class="cls-1" d="M6890.51,475.55s.77-14,8.78-19.76c0,0-10.42,12-12.74,14.37l-1.22-23.77-6.18,21.75L6874.78,448l-3.93,18.62s-10.57-19.38-6.94-22.28c0,0-3.53,13.9-1.56,17.23,1.77,3,.07,3.85.07,3.85Z"/><path class="cls-1" d="M6975.23,505.43s.28-12.61,8-17.58c0,0-9.88,10.54-12.09,12.57l-2-21.56-5.35,19.48-5-18.41-3.24,16.72s-11.1-17.91-7.61-20.41c0,0-3,12.47-1,15.54,1.85,2.77.2,3.49.2,3.49Z"/><path class="cls-1" d="M6995,512.6s-2.79-28.4,8-42c0,0-7.36,27.9-10.7,33l-1.86-46.32-5.75,44.89-6.54-38.48L6976,502s-13.72-35-8.72-41.66c0,0-.27,29.19.85,34.84,1,5.09-1.16,7.25-1.16,7.25Z"/><path class="cls-3" d="M7125,559.13s-2.8-28.4,8-42c0,0-7.37,27.89-10.71,33l-1.86-46.32-5.75,44.89-6.54-38.48-2.23,38.21s-13.71-35-8.72-41.65c0,0-.27,29.19.86,34.84,1,5.09-1.16,7.25-1.16,7.25Z"/><path class="cls-1" d="M7014.86,519.77s9.8-21.88,20-33.72c0,0-19.85,21.06-23,25.58l1.94-39.76-9.5,38.2,5.74-31.1-14.41,30.55s-9.36-30-4.67-35.79c0,0-4.65,24.23-3.33,29.37,1.18,4.62-.9,6.5-.9,6.5Z"/><path class="cls-1" d="M7092.17,547.53s-2.8-28.4,8-41.95c0,0-7.37,27.9-10.71,33l-1.86-46.31-5.75,44.88-6.54-38.48-2.23,38.22s-13.71-35-8.72-41.65c0,0-.27,29.18.86,34.83,1,5.09-1.16,7.26-1.16,7.26Z"/><path class="cls-4" d="M7112,554.7s9.8-21.88,20-33.72c0,0-19.85,21.06-23,25.58L7111,506.8l-9.51,38.2,5.75-31.1-14.42,30.56s-9.36-30-4.66-35.8c0,0-4.65,24.23-3.34,29.37,1.18,4.62-.89,6.5-.89,6.5Z"/><path class="cls-1" d="M7034.67,526.93s2-17.47,10.83-25.42c0,0-11.84,16-14.44,19.06l.86-29.54-8.31,27.68L7020.89,494l-5.72,23.57S7006,494.3,7010,490.35c0,0-4.89,17.66-3.15,21.63,1.56,3.57-.27,4.79-.27,4.79Z"/><path class="cls-1" d="M7064.51,537.63s2-17.48,10.82-25.43c0,0-11.83,16-14.43,19.07l.86-29.54-8.32,27.68-2.72-24.76L7045,528.22s-9.19-23.23-5.17-27.17c0,0-4.89,17.65-3.16,21.63,1.57,3.57-.27,4.79-.27,4.79Z"/><path class="cls-5" d="M7149.78,568.09s2.07-17.56,10.88-25.57c0,0-11.87,16.05-14.48,19.18l.91-29.68-8.37,27.83L7136.05,535l-5.76,23.68s-9.15-23.31-5.13-27.28c0,0-4.92,17.74-3.19,21.73,1.55,3.58-.28,4.81-.28,4.81Z"/><path class="cls-6" d="M7169.59,575.25s1.07-39.07,14.34-59.43c0,0-11.67,39.81-15.9,47.43l4.57-64.11-12.37,63.2-1.45-52.57-7.73,53.44s-9.48-46.7-3.29-56.66c0,0-4.4,40.6-4,48.3.34,6.92-2.25,10.24-2.25,10.24Z"/><path class="cls-7" d="M7299.63,621.59s1.06-39.07,14.34-59.43c0,0-11.68,39.81-15.91,47.43l4.58-64.11-12.38,63.2-1.44-52.57-7.74,53.44s-9.48-46.7-3.29-56.66c0,0-4.4,40.6-4,48.3.35,6.92-2.25,10.24-2.25,10.24Z"/><path class="cls-8" d="M7189.41,582.42s13.38-31.78,25.76-49.68c0,0-23.83,32.07-27.74,38.8l7.65-55.54-15.38,54.43,10.43-44-19.46,44.51s-5.61-40.33.14-49.1c0,0-8.3,34.34-7.64,41.3.59,6.25-1.86,9.16-1.86,9.16Z"/><path class="cls-9" d="M7266.75,610.11s1.06-39.08,14.34-59.44c0,0-11.68,39.81-15.91,47.43l4.58-64.11-12.38,63.2-1.44-52.56-7.74,53.43s-9.48-46.7-3.29-56.66c0,0-4.4,40.6-4,48.3.35,6.92-2.25,10.24-2.25,10.24Z"/><path class="cls-10" d="M7286.56,617.27s13.38-31.78,25.77-49.68c0,0-23.83,32.07-27.74,38.8l7.64-55.54-15.37,54.44,10.43-44-19.46,44.5s-5.62-40.33.14-49.1c0,0-8.3,34.34-7.65,41.3.59,6.26-1.85,9.16-1.85,9.16Z"/><path class="cls-11" d="M7209.22,589.59s4.61-24.58,15-36.87c0,0-14.68,23.85-17.86,28.53l5.07-41.17-12.64,39.65.64-34-9.34,33.55s-6.37-31-1.6-37c0,0-7.63,25.22-6.36,30.5,1.14,4.74-1,6.7-1,6.7Z"/><path class="cls-12" d="M7239.07,600.25s4.6-24.58,15-36.87c0,0-14.69,23.85-17.86,28.53l5.07-41.17-12.64,39.65.63-34-9.33,33.55s-6.38-31-1.6-37c0,0-7.63,25.22-6.36,30.5,1.13,4.74-1,6.7-1,6.7Z"/><path class="cls-13" d="M7323.77,631.23s.27-12.61,8-17.59c0,0-9.87,10.55-12.08,12.57l-2-21.56-5.35,19.48-5-18.4L7304,622.44s-11.11-17.9-7.62-20.4c0,0-3,12.46-.95,15.54,1.85,2.77.2,3.48.2,3.48Z"/><path class="cls-14" d="M7343.58,638.39s-2.8-28.39,8-41.94c0,0-7.36,27.89-10.7,33L7339,583.17l-5.75,44.88-6.54-38.48-2.23,38.22s-13.71-35-8.72-41.65c0,0-.27,29.18.86,34.84,1,5.08-1.17,7.25-1.17,7.25Z"/><path class="cls-15" d="M7448.89,676.12s-3.78-14.29,2.44-20.28c0,0-3,13.35-4.82,15.67l-4.38-23.12-.74,21.9-6.94-19.56,1.13,18.83s-11.43-18.31-8.59-21.28c0,0,1.81,14.48,2.94,17.36,1,2.59-.28,3.52-.28,3.52Z"/><path class="cls-16" d="M7363.39,645.56s9.8-21.87,20-33.72c0,0-19.84,21.06-23,25.59l1.94-39.76-9.5,38.2,5.75-31.11-14.42,30.56s-9.36-30-4.66-35.8c0,0-4.65,24.23-3.34,29.38,1.18,4.62-.89,6.5-.89,6.5Z"/><path class="cls-17" d="M7440.7,673.35s-5-22.43,4.47-32.17c0,0-4.95,21.23-7.79,25l-5.46-36.36-2,34.64-9.39-30.6.84,29.7s-16.08-28.44-11.75-33.25c0,0,2,22.8,3.58,27.31,1.39,4-.56,5.57-.56,5.57Z"/><path class="cls-18" d="M7460.51,680.52s5.5-10,13.07-14.6c0,0-15.07,7.87-17.23,9.76l-4.9-20.87L7449,673.57l.15-15.61-8.38,13.85s-13.85-17.55-10.43-19.86c0,0-.27,12.13,1.83,15.09,1.89,2.66.26,3.31.26,3.31Z"/><path class="cls-19" d="M7383.21,652.73s2-17.48,10.82-25.43c0,0-11.83,16-14.43,19.06l.86-29.53-8.32,27.68-2.72-24.76-5.71,23.56s-9.19-23.22-5.17-27.16c0,0-4.89,17.65-3.16,21.62,1.57,3.57-.27,4.79-.27,4.79Z"/><path class="cls-20" d="M7413,663.42s.6-13.5,8.51-19c0,0-10.24,11.54-12.52,13.76l-1.49-23-5.9,21-4.59-19.58-3.7,18s-10.75-18.89-7.16-21.65c0,0-3.36,13.42-1.36,16.66,1.8,2.91.11,3.72.11,3.72Z"/><path class="cls-1" d="M6350.89,277.62s4.74-14.61,14.35-19.15c0,0-13.78,10.67-16.75,12.67l5.56-25.39-12.33,21.78,1.4-22.2-9.21,18.9s-5-22.6-.54-25c0,0-7.47,14-6.46,17.91.91,3.52-1,4.09-1,4.09Z"/><path class="cls-1" d="M6366.93,288.1s4.74-14.62,14.35-19.16c0,0-13.78,10.67-16.75,12.67l5.56-25.39L6357.76,278l1.4-22.2-9.2,18.9s-5-22.6-.54-24.95c0,0-7.47,14-6.46,17.91.9,3.52-1,4.09-1,4.09Z"/><path class="cls-1" d="M6474.71,305.65s4.74-14.61,14.35-19.15c0,0-13.78,10.67-16.75,12.66l5.56-25.39-12.33,21.78,1.4-22.2-9.2,18.91s-5-22.61-.54-24.95c0,0-7.47,14-6.46,17.91.9,3.51-1,4.08-1,4.08Z"/><path class="cls-1" d="M6514.07,331.6s4.74-14.61,14.35-19.15c0,0-13.79,10.66-16.75,12.66l5.56-25.39L6504.9,321.5l1.4-22.2-9.21,18.9s-5-22.6-.54-24.94c0,0-7.47,14-6.46,17.91.91,3.51-1,4.08-1,4.08Z"/><path class="cls-2" d="M6490.76,316.12s4.74-14.61,14.34-19.15c0,0-13.78,10.67-16.74,12.66l5.56-25.39L6481.58,306l1.41-22.2-9.21,18.91s-5-22.61-.54-25c0,0-7.47,14-6.46,17.91.9,3.52-1,4.08-1,4.08Z"/><path class="cls-1" d="M6520.75,336.21s4.74-14.61,14.35-19.15c0,0-13.78,10.67-16.75,12.66l5.56-25.39-12.33,21.78,1.4-22.2-9.21,18.91s-5-22.61-.54-24.95c0,0-7.47,14-6.46,17.91.91,3.51-1,4.08-1,4.08Z"/></g></g></g></svg>