<svg xmlns="http://www.w3.org/2000/svg" xmlns:xlink="http://www.w3.org/1999/xlink" viewBox="0 0 7282.62 4781.88"><defs><style>.cls-1{fill:#5e6614;}.cls-2{fill:#555912;}.cls-3{fill:#4c4b11;}.cls-4{fill:#433e10;}.cls-5{fill:#3a310e;}.cls-6{fill:#31230d;}.cls-7{fill:#28160b;}.cls-8{fill:#25140a;}.cls-9{fill:#221309;}.cls-10{fill:#1f1109;}.cls-11{fill:#1c0f08;}.cls-12{fill:#190e07;}.cls-13{fill:#160c06;}.cls-14{fill:url(#linear-gradient);}.cls-15{fill:url(#linear-gradient-2);}.cls-16{fill:url(#linear-gradient-3);}.cls-17{fill:url(#linear-gradient-4);}.cls-18{fill:url(#linear-gradient-5);}.cls-19{fill:url(#linear-gradient-6);}.cls-20{fill:#1e1009;}.cls-21{fill:#1a0e08;}.cls-22{fill:#180d07;}.cls-23{fill:#150b06;}.cls-24{fill:#130a06;}.cls-25{fill:#110905;}</style><linearGradient id="linear-gradient" x1="615.97" y1="2259.06" x2="7282.62" y2="2259.06" gradientUnits="userSpaceOnUse"><stop offset="0" stop-color="#5e6614"/><stop offset="0.06" stop-color="#596214"/><stop offset="0.45" stop-color="#384717"/><stop offset="0.78" stop-color="#233618"/><stop offset="1" stop-color="#1c3019"/></linearGradient><linearGradient id="linear-gradient-2" x1="673.66" y1="2262.09" x2="7282.62" y2="2262.09" gradientUnits="userSpaceOnUse"><stop offset="0" stop-color="#555912"/><stop offset="0.38" stop-color="#3a4314"/><stop offset="0.75" stop-color="#253216"/><stop offset="1" stop-color="#1e2c17"/></linearGradient><linearGradient id="linear-gradient-3" x1="731.35" y1="2265.12" x2="7282.62" y2="2265.12" gradientUnits="userSpaceOnUse"><stop offset="0" stop-color="#4c4b11"/><stop offset="0.28" stop-color="#3c3e12"/><stop offset="0.71" stop-color="#272d14"/><stop offset="1" stop-color="#202714"/></linearGradient><linearGradient id="linear-gradient-4" x1="789.04" y1="2268.16" x2="7282.62" y2="2268.16" gradientUnits="userSpaceOnUse"><stop offset="0" stop-color="#433e10"/><stop offset="0.12" stop-color="#3e3a10"/><stop offset="0.65" stop-color="#292912"/><stop offset="1" stop-color="#222312"/></linearGradient><linearGradient id="linear-gradient-5" x1="834.35" y1="2271.19" x2="7282.62" y2="2271.19" gradientUnits="userSpaceOnUse"><stop offset="0" stop-color="#3a310e"/><stop offset="0.53" stop-color="#2b250f"/><stop offset="1" stop-color="#241f10"/></linearGradient><linearGradient id="linear-gradient-6" x1="779.99" y1="2274.22" x2="7282.62" y2="2274.22" gradientUnits="userSpaceOnUse"><stop offset="0" stop-color="#31230d"/><stop offset="0.25" stop-color="#2d200d"/><stop offset="1" stop-color="#261a0d"/></linearGradient></defs><title>Montanha</title><g id="Layer_2" data-name="Layer 2"><g id="montanha"><g id="montanha-2" data-name="montanha"><g id="Montanha-3" data-name="Montanha"><polygon class="cls-1" points="7282.62 4518.12 6346.97 4474.02 6052.9 4781.88 1509.2 3842.82 111.78 3339.25 0 3060.7 417.53 2319.77 515.46 2319.77 930.63 2028.3 1037.06 1997.53 1402.77 1771.13 1696.16 1700.17 2115.25 1700.17 2383.82 1587.67 7282.62 4518.12"/><polygon class="cls-2" points="515.51 2325.61 532.97 2320.15 544.18 2314.49 566.68 2289.95 580.18 2283.13 616.58 2271.72 628.78 2265.56 677.64 2212.26 691.89 2205.06 720.7 2196.03 732.51 2190.07 773.71 2145.13 784.48 2139.69 813.34 2130.64 826.17 2124.15 885.76 2068.06 895.65 2063.86 914.74 2064.68 979.83 2046.87 1006.06 2020.67 1021.64 2013.68 1058.95 2004.74 1070.47 1999.58 1120.14 1949.98 1138.43 1941.78 1165.33 1935.32 1175.71 1930.66 1213.66 1892.77 1224.52 1887.9 1245.7 1882.82 1306.73 1847.38 1344.22 1825.76 1353.25 1824.12 1410.8 1829.49 1428.18 1826.34 1557.88 1768.77 1575.44 1768.77 1623.04 1784.43 1633.76 1784.43 1670.63 1772.29 1682.82 1772.29 1705.51 1779.76 1719.66 1779.76 1763.98 1765.2 1782.01 1765.2 1811.87 1775.02 1826.4 1775.02 1866.49 1761.84 1876.52 1761.84 1931.22 1781.98 1944.87 1777.77 1995.82 1738.28 2009.48 1734.06 2033.2 1732.58 2045.23 1728.87 2085.77 1697.45 2100.52 1692.89 2169.25 1674.55 2178.93 1678.72 2220.05 1687.42 2234.39 1693.61 2288.79 1747.17 2302.45 1753.06 2363.92 1766.08 2375.49 1771.07 2410.78 1805.82 2423.64 1811.36 2469.81 1821.14 2480.33 1825.68 2504.13 1849.11 2516.59 1854.48 2555.14 1862.65 2569.45 1868.82 2640.62 1938.89 2652.05 1943.81 2744.36 1963.38 2762.04 1971 2791.91 2000.42 2805.34 2006.21 2848.83 2015.42 2859.2 2019.89 2877.5 2037.91 2890.04 2043.32 2921.23 2049.92 2936.28 2056.41 2992.67 2111.93 3009.34 2119.12 3079.25 2133.93 3095.49 2140.93 3124 2169.01 3142.16 2176.84 3175.75 2183.96 3188.16 2189.31 3233.23 2233.68 3247.56 2239.86 3301.19 2251.23 3322.22 2260.3 3343.48 2281.23 3358.77 2287.83 3389.41 2294.32 3405.66 2301.32 3448.21 2343.21 3460.62 2348.57 3509.05 2358.83 3528.16 2367.07 3541.27 2379.99 3557.51 2386.99 3583.15 2392.42 3831.01 2496.23 4001.5 2555.36 7282.62 4518.12 6346.97 4474.02 6052.9 4781.88 1509.2 3842.82 111.78 3339.25 0 3060.7 111.08 2863.57 141.5 2809.51 150.44 2799.97 160.46 2788.8 179.52 2768.44 207.33 2700.74 215.56 2691.95 227.25 2678.93 234.81 2670.84 253.71 2624.85 261.21 2616.85 267.37 2609.97 275.27 2601.54 296.85 2549.04 302.29 2543.22 308.39 2536.43 318.57 2525.55 338.64 2476.7 346.56 2468.24 355.35 2458.42 365.25 2447.84 386.83 2395.35 392.35 2389.44 397.83 2383.32 405.57 2375.03 424.63 2328.66 437.1 2328.66 459.62 2336.21 471.49 2336.21 503.04 2325.61 515.51 2325.61"/><polygon class="cls-3" points="515.57 2331.45 529.53 2335.24 542.28 2330.71 560.27 2300.57 575.62 2295.12 604.73 2302.98 618.61 2298.04 657.69 2232.6 673.88 2226.84 696.93 2233.06 710.36 2228.29 743.32 2173.13 755.55 2168.78 778.64 2174.99 793.22 2169.8 840.89 2107.82 851.07 2102.19 866.34 2110.46 922.6 2096.21 943.59 2063.3 961.19 2057.72 991.05 2067.55 1004.07 2063.42 1043.81 2001.13 1064.48 1994.56 1086 2001.63 1097.74 1997.9 1128.1 1950.31 1140.37 1946.41 1157.32 1951.98 1210.7 1923.63 1240.69 1891.26 1250.64 1889.96 1296.68 1917.39 1315.84 1914.88 1419.6 1837.36 1438.88 1837.36 1476.96 1868.68 1488.72 1868.68 1518.21 1844.4 1531.6 1844.4 1549.75 1859.36 1565.28 1859.36 1600.73 1830.22 1620.52 1830.22 1644.41 1849.87 1660.35 1849.87 1692.42 1823.51 1703.43 1823.51 1747.19 1863.79 1762.42 1860.42 1803.18 1807.04 1818.42 1803.67 1837.4 1812.64 1850.82 1809.67 1883.26 1767.21 1899.7 1763.57 1954.69 1761.42 1965.67 1764.76 1998.57 1752.65 2014.85 1757.6 2058.37 1825.68 2073.87 1830.39 2123.05 1812.3 2136.18 1816.29 2164.41 1860.46 2179.02 1864.9 2215.95 1851.31 2227.9 1854.94 2246.94 1884.73 2261.08 1889.02 2291.92 1877.68 2308.16 1882.62 2365.1 1971.67 2378.07 1975.61 2451.92 1948.47 2471.98 1954.57 2495.88 1991.96 2511.12 1996.59 2545.92 1983.79 2557.69 1987.37 2572.32 2010.28 2586.56 2014.61 2611.51 2005.42 2628.59 2010.61 2673.71 2081.16 2692.62 2086.91 2748.55 2066.36 2766.98 2071.97 2789.79 2107.65 2810.4 2113.92 2837.27 2104.04 2851.36 2108.32 2887.42 2164.72 2903.68 2169.66 2946.59 2153.89 2970.45 2161.15 2987.45 2187.76 3004.8 2193.03 3029.32 2184.01 3047.76 2189.62 3081.8 2242.85 3095.89 2247.13 3134.63 2232.9 3156.32 2239.5 3166.81 2255.91 3185.24 2261.52 3205.75 2253.97 3486.82 2333.19 3677.96 2361.83 7282.62 4518.12 6346.97 4474.02 6052.9 4781.88 1509.2 3842.82 111.78 3339.25 0 3060.7 121.46 2845.15 154.7 2786.01 166.12 2778.38 174.14 2777.39 198.48 2761.1 220.73 2684.93 231.25 2677.9 240.59 2676.74 250.26 2670.28 265.38 2618.53 274.96 2612.12 279.89 2611.51 289.98 2604.76 307.24 2545.71 314.2 2541.06 319.08 2540.45 332.08 2531.75 348.13 2476.8 358.24 2470.03 365.27 2469.14 377.91 2460.67 395.17 2401.64 402.23 2396.91 406.61 2396.33 416.48 2389.71 431.73 2337.54 445.48 2337.54 463.5 2352.65 476.58 2352.65 501.81 2331.45 515.57 2331.45"/><polygon class="cls-4" points="515.62 2337.28 526.1 2350.33 540.37 2346.93 553.87 2311.2 571.05 2307.11 592.89 2334.23 608.43 2330.53 637.74 2252.95 655.88 2248.63 673.16 2270.09 688.2 2266.52 712.92 2201.13 726.63 2197.87 743.95 2219.34 760.27 2215.45 796.02 2147.58 806.49 2140.53 817.94 2156.25 865.37 2145.56 881.11 2105.94 900.75 2101.74 923.14 2130.36 937.67 2127.26 967.47 2052.27 990.53 2047.35 1006.67 2067.93 1019.77 2065.14 1042.54 2007.84 1056.23 2004.92 1068.94 2021.15 1114.67 1999.89 1137.16 1956.77 1148.04 1955.79 1182.57 2005.3 1203.5 2003.41 1281.31 1905.95 1302.31 1905.95 1330.87 1952.94 1343.68 1952.94 1365.8 1916.52 1380.38 1916.52 1393.99 1938.95 1410.9 1938.95 1437.49 1895.25 1459.03 1895.25 1476.95 1924.72 1494.3 1924.72 1518.36 1885.17 1530.34 1885.17 1563.16 1945.6 1579.97 1943.07 1610.54 1875.81 1627.37 1873.28 1641.6 1892.7 1656.42 1890.47 1680.74 1836.97 1698.89 1834.24 1740.13 1848.3 1752.42 1850.8 1777.1 1817.88 1795.31 1821.59 1827.95 1904.18 1845.3 1907.72 1882.18 1858.53 1896.87 1861.52 1918.05 1915.1 1934.39 1918.43 1962.09 1881.48 1975.46 1884.2 1989.74 1920.34 2005.57 1923.57 2028.7 1892.71 2046.87 1896.42 2089.57 2004.45 2104.09 2007.4 2159.48 1933.56 2181.93 1938.14 2199.85 1983.5 2216.91 1986.97 2243 1952.17 2256.17 1954.85 2267.15 1982.65 2283.08 1985.89 2301.8 1960.91 2320.91 1964.81 2354.74 2050.4 2375.91 2054.72 2417.85 1998.8 2438.47 2003 2455.59 2046.29 2478.64 2050.99 2498.79 2024.11 2514.56 2027.32 2541.6 2095.75 2559.8 2099.45 2591.98 2056.56 2618.68 2062 2631.43 2094.28 2650.84 2098.24 2669.23 2073.71 2689.86 2077.91 2715.39 2142.49 2731.16 2145.7 2760.21 2106.97 2784.48 2111.92 2792.34 2131.84 2812.97 2136.04 2828.35 2115.52 3142.63 2170.15 3354.43 2168.29 7282.62 4518.12 6346.97 4474.02 6052.9 4781.88 1509.2 3842.82 111.78 3339.25 0 3060.7 131.84 2826.73 167.9 2762.5 181.8 2756.78 187.82 2765.97 217.44 2753.76 234.13 2669.13 246.93 2663.85 253.94 2674.55 265.71 2669.7 277.05 2612.2 288.7 2607.4 292.4 2613.05 304.69 2607.99 317.64 2542.38 326.11 2538.89 329.77 2544.49 345.58 2537.96 357.62 2476.89 369.92 2471.82 375.2 2479.85 390.57 2473.5 403.52 2407.93 412.1 2404.38 415.39 2409.35 427.4 2404.38 438.84 2346.42 453.86 2346.42 467.37 2369.08 481.66 2369.08 500.59 2337.28 515.62 2337.28"/><polygon class="cls-5" points="515.67 2343.12 522.66 2365.42 538.46 2363.15 547.46 2321.82 566.49 2319.09 581.05 2365.49 598.25 2363.02 617.79 2273.3 637.87 2270.42 649.39 2307.13 666.05 2304.74 682.53 2229.14 697.71 2226.96 709.25 2263.69 727.32 2261.1 751.15 2187.34 761.91 2178.86 769.54 2202.03 808.14 2194.9 818.63 2148.57 840.3 2145.78 855.23 2193.17 871.27 2191.11 891.14 2103.41 916.58 2100.13 927.34 2134.24 941.8 2132.38 956.98 2065.38 972.09 2063.43 980.56 2090.32 1018.64 2076.14 1033.63 2022.28 1045.43 2021.62 1068.45 2093.2 1091.15 2091.94 1143.03 1974.55 1165.74 1974.55 1184.79 2037.19 1198.64 2037.19 1213.39 1988.64 1229.16 1988.64 1238.23 2018.54 1256.52 2018.54 1274.25 1960.27 1297.54 1960.27 1309.48 1999.56 1328.25 1999.56 1344.29 1946.84 1357.25 1946.84 1379.13 2027.4 1397.53 2025.72 1417.91 1944.58 1436.31 1942.89 1445.8 1972.76 1462.01 1971.27 1478.23 1906.73 1498.07 1904.91 1525.57 1935.18 1539.17 1936.85 1555.62 1883.11 1575.77 1885.59 1597.53 1982.69 1616.72 1985.05 1641.31 1904.75 1657.57 1906.74 1671.68 1969.75 1689.76 1971.96 1708.23 1911.65 1723.03 1913.47 1732.55 1955.96 1750.06 1958.11 1765.48 1907.75 1785.58 1910.22 1814.05 2037.23 1830.11 2039.2 1867.04 1918.65 1891.87 1921.7 1903.82 1975.04 1922.69 1977.35 1940.09 1920.54 1954.66 1922.33 1961.98 1955.02 1979.6 1957.18 1992.08 1916.41 2013.22 1919.01 2035.78 2019.64 2059.19 2022.52 2087.15 1931.23 2109.97 1934.03 2121.38 1984.93 2146.88 1988.07 2160.31 1944.19 2177.76 1946.33 2195.79 2026.78 2215.92 2029.25 2237.37 1959.22 2266.9 1962.85 2275.41 2000.8 2296.88 2003.44 2309.14 1963.4 2331.96 1966.2 2348.98 2042.13 2366.42 2044.27 2385.79 1981.05 2412.64 1984.34 2417.88 2007.77 2440.7 2010.57 2450.95 1977.07 2798.44 2007.11 3030.89 1974.75 7282.62 4518.12 6346.97 4474.02 6052.9 4781.88 1509.2 3842.82 111.78 3339.25 0 3060.7 142.23 2808.31 181.1 2739 197.48 2735.18 201.49 2754.56 236.4 2746.41 247.52 2653.32 262.61 2649.8 267.29 2672.37 281.15 2669.13 288.71 2605.88 302.45 2602.68 304.92 2614.58 319.4 2611.21 328.03 2539.05 338.01 2536.72 340.45 2548.51 359.09 2544.16 367.12 2476.99 381.6 2473.61 385.12 2490.56 403.24 2486.33 411.87 2414.22 421.98 2411.85 424.17 2422.36 438.31 2419.05 445.94 2355.31 462.25 2355.31 471.25 2385.52 486.75 2385.52 499.36 2343.12 515.67 2343.12"/><polygon class="cls-6" points="515.73 2348.95 519.22 2380.5 536.55 2379.37 541.05 2332.45 561.92 2331.09 569.21 2396.74 588.07 2395.51 597.84 2293.64 619.86 2292.2 625.63 2344.16 643.9 2342.97 652.14 2257.14 668.78 2256.05 674.56 2308.04 694.37 2306.74 706.29 2227.1 717.33 2217.2 721.15 2247.81 750.91 2244.25 756.15 2191.2 779.86 2189.81 787.32 2255.98 804.87 2254.95 814.81 2154.56 842.63 2152.92 848.01 2200.55 863.83 2199.62 871.42 2122.92 887.94 2121.95 892.18 2159.48 922.6 2152.4 930.1 2087.78 942.83 2087.45 954.34 2181.1 978.81 2180.47 1004.75 2043.14 1029.18 2043.14 1038.7 2121.45 1053.6 2121.45 1060.97 2060.75 1077.93 2060.75 1082.47 2098.13 1102.14 2098.13 1111.01 2025.3 1136.05 2025.3 1142.02 2074.41 1162.21 2074.41 1170.22 2008.5 1184.16 2008.5 1195.11 2109.21 1215.08 2108.37 1225.27 2013.34 1245.25 2012.5 1249.99 2052.81 1267.6 2052.07 1275.71 1976.49 1297.26 1975.58 1311 2022.05 1325.92 2022.89 1334.14 1948.34 1356.23 1949.58 1367.11 2061.2 1388.14 2062.37 1400.44 1950.97 1418.26 1951.97 1425.32 2024.39 1445.14 2025.5 1454.37 1941.82 1470.59 1942.73 1475.35 1991.58 1494.55 1992.65 1502.26 1922.78 1524.29 1924.02 1538.53 2070.01 1556.13 2071 1574.6 1903.74 1601.81 1905.27 1607.79 1966.58 1628.47 1967.73 1637.17 1888.91 1653.15 1889.81 1656.81 1927.39 1676.12 1928.47 1682.36 1871.91 1705.54 1873.2 1716.82 1988.88 1742.47 1990.32 1756.46 1863.66 1781.46 1865.06 1787.17 1923.58 1815.12 1925.14 1821.84 1864.27 1840.96 1865.34 1849.97 1957.81 1872.04 1959.04 1882.77 1861.88 1915.13 1863.7 1919.38 1907.33 1942.92 1908.64 1949.05 1853.1 1974.06 1854.5 1982.57 1941.77 2001.69 1942.84 2011.38 1855.12 2040.8 1856.77 2043.42 1883.7 2068.43 1885.1 2073.56 1838.62 2454.25 1844.07 2707.35 1781.21 7282.62 4518.12 6346.97 4474.02 6052.9 4781.88 1509.2 3842.82 111.78 3339.25 0 3060.7 152.61 2789.89 194.3 2715.49 213.16 2713.59 215.17 2743.14 255.36 2739.07 260.92 2637.51 278.3 2635.75 280.63 2670.18 296.6 2668.56 300.38 2599.56 316.2 2597.96 317.44 2616.12 334.11 2614.43 338.42 2535.72 349.92 2534.56 351.14 2552.55 372.59 2550.37 376.61 2477.09 393.28 2475.4 395.04 2501.28 415.9 2499.16 420.21 2420.5 431.85 2419.32 432.95 2435.38 449.23 2433.72 453.04 2364.19 470.63 2364.19 475.13 2401.95 491.83 2401.95 498.14 2348.95 515.73 2348.95"/><polygon class="cls-7" points="7282.62 4518.12 6346.97 4474.02 6052.9 4781.88 1509.2 3842.82 111.78 3339.25 0 3060.7 162.99 2771.47 207.5 2691.99 228.84 2691.99 228.84 2731.73 274.32 2731.73 274.32 2621.7 293.98 2621.7 293.98 2667.99 312.05 2667.99 312.05 2593.23 329.95 2593.23 329.95 2617.65 348.82 2617.65 348.82 2532.39 361.82 2532.39 361.82 2556.57 386.1 2556.57 386.1 2477.19 404.96 2477.19 404.96 2511.99 428.56 2511.99 428.56 2426.79 441.73 2426.79 441.73 2448.39 460.14 2448.39 460.14 2373.07 479.01 2373.07 479.01 2418.39 496.91 2418.39 496.91 2354.79 515.78 2354.79 515.78 2395.59 534.64 2395.59 534.64 2343.07 557.36 2343.07 557.36 2427.99 577.89 2427.99 577.89 2313.99 601.86 2313.99 601.86 2381.19 621.74 2381.19 621.74 2285.14 639.86 2285.14 639.86 2352.39 661.42 2352.39 661.42 2266.86 672.75 2255.53 672.75 2293.59 693.67 2293.59 693.67 2233.84 719.42 2233.84 719.42 2318.79 738.47 2318.79 738.47 2205.7 768.69 2205.7 768.69 2266.86 785.86 2266.86 785.86 2180.46 803.8 2180.46 803.8 2228.65 826.57 2228.65 826.57 2153.29 840.23 2153.29 840.23 2269 866.47 2269 866.47 2111.74 892.61 2111.74 892.61 2205.7 908.56 2205.7 908.56 2132.87 926.71 2132.87 926.71 2177.72 947.76 2177.72 947.76 2090.32 974.56 2090.32 974.56 2149.26 996.16 2149.26 996.16 2070.17 1011.08 2070.17 1011.08 2191.02 1032.63 2191.02 1032.63 2082.11 1054.19 2082.11 1054.19 2132.87 1073.2 2132.87 1073.2 2046.25 1096.44 2046.25 1096.44 2108.93 1112.66 2108.93 1112.66 2013.57 1136.69 2013.57 1136.69 2139.7 1159.57 2139.7 1159.57 1997.19 1178.95 1997.19 1178.95 2079.03 1200.51 2079.03 1200.51 1971.99 1218.16 1971.99 1218.16 2027.19 1239.04 2027.19 1239.04 1937.82 1263.01 1937.82 1263.01 2102.79 1282.15 2102.79 1282.15 1888.84 1311.75 1888.84 1311.75 1958.12 1334.26 1958.12 1334.26 1857.29 1351.63 1857.29 1351.63 1899.75 1372.65 1899.75 1372.65 1827.4 1397.85 1827.4 1397.85 1958.12 1425.76 1958.12 1425.76 1796.09 1452.96 1796.09 1452.96 1862.22 1483.36 1862.22 1483.36 1784.35 1504.16 1784.35 1504.16 1888.84 1528.16 1888.84 1528.16 1764.54 1563.36 1764.54 1563.36 1813.85 1588.96 1813.85 1588.96 1742.79 1616.16 1742.79 1616.16 1841.41 1636.96 1841.41 1636.96 1729.19 1668.96 1729.19 1668.96 1759.62 1696.16 1759.62 1696.16 1700.17 2110.06 1681.03 2383.82 1587.67 7282.62 4518.12"/><polygon class="cls-8" points="7282.62 4520.24 6346.97 4476.49 6052.9 4781.88 1509.2 3850.37 111.78 3350.84 0 3074.52 162.99 2787.62 207.5 2708.78 228.84 2708.78 228.84 2748.2 274.32 2748.2 274.32 2639.05 293.98 2639.05 293.98 2684.97 312.05 2684.97 312.05 2610.82 329.95 2610.82 329.95 2635.04 348.82 2635.04 348.82 2550.46 361.82 2550.46 361.82 2574.45 386.1 2574.45 386.1 2495.7 404.96 2495.7 404.96 2530.23 428.56 2530.23 428.56 2445.71 441.73 2445.71 441.73 2467.14 460.14 2467.14 460.14 2392.43 479.01 2392.43 479.01 2437.38 496.91 2437.38 496.91 2374.29 515.78 2374.29 515.78 2414.76 534.64 2414.76 534.64 2362.67 557.36 2362.67 557.36 2446.9 577.89 2446.9 577.89 2333.82 601.86 2333.82 601.86 2400.48 621.74 2400.48 621.74 2305.2 639.86 2305.2 639.86 2371.91 661.42 2371.91 661.42 2287.07 672.75 2275.83 672.75 2313.58 693.67 2313.58 693.67 2254.3 719.42 2254.3 719.42 2338.58 738.47 2338.58 738.47 2226.4 768.69 2226.4 768.69 2287.07 785.86 2287.07 785.86 2201.36 803.8 2201.36 803.8 2249.16 826.57 2249.16 826.57 2174.4 840.23 2174.4 840.23 2289.19 866.47 2289.19 866.47 2133.19 892.61 2133.19 892.61 2226.4 908.56 2226.4 908.56 2154.15 926.71 2154.15 926.71 2198.64 947.76 2198.64 947.76 2111.94 974.56 2111.94 974.56 2170.41 996.16 2170.41 996.16 2091.95 1011.08 2091.95 1011.08 2211.83 1032.63 2211.83 1032.63 2103.8 1054.19 2103.8 1054.19 2154.15 1073.2 2154.15 1073.2 2068.23 1096.44 2068.23 1096.44 2130.4 1112.66 2130.4 1112.66 2035.81 1136.69 2035.81 1136.69 2160.93 1159.57 2160.93 1159.57 2019.56 1178.95 2019.56 1178.95 2100.74 1200.51 2100.74 1200.51 1994.56 1218.16 1994.56 1218.16 2049.32 1239.04 2049.32 1239.04 1960.66 1263.01 1960.66 1263.01 2124.31 1282.15 2124.31 1282.15 1912.08 1311.75 1912.08 1311.75 1980.8 1334.26 1980.8 1334.26 1880.78 1351.63 1880.78 1351.63 1922.91 1372.65 1922.91 1372.65 1851.14 1397.85 1851.14 1397.85 1980.8 1425.76 1980.8 1425.76 1820.08 1452.96 1820.08 1452.96 1885.67 1483.36 1885.67 1483.36 1808.43 1504.16 1808.43 1504.16 1912.08 1528.16 1912.08 1528.16 1788.78 1563.36 1788.78 1563.36 1837.69 1588.96 1837.69 1588.96 1767.2 1616.16 1767.2 1616.16 1865.03 1636.96 1865.03 1636.96 1753.71 1668.96 1753.71 1668.96 1783.9 1696.16 1783.9 1696.16 1724.93 2110.93 1708.97 2383.82 1613.33 7282.62 4520.24"/><polygon class="cls-9" points="7282.62 4522.36 6346.97 4478.96 6052.9 4781.88 1509.2 3857.91 111.78 3362.43 0 3088.35 162.99 2803.77 207.5 2725.57 228.84 2725.57 228.84 2764.67 274.32 2764.67 274.32 2656.41 293.98 2656.41 293.98 2701.95 312.05 2701.95 312.05 2628.4 329.95 2628.4 329.95 2652.42 348.82 2652.42 348.82 2568.53 361.82 2568.53 361.82 2592.33 386.1 2592.33 386.1 2514.22 404.96 2514.22 404.96 2548.46 428.56 2548.46 428.56 2464.63 441.73 2464.63 441.73 2485.88 460.14 2485.88 460.14 2411.78 479.01 2411.78 479.01 2456.36 496.91 2456.36 496.91 2393.79 515.78 2393.79 515.78 2433.93 534.64 2433.93 534.64 2382.26 557.36 2382.26 557.36 2465.81 577.89 2465.81 577.89 2353.64 601.86 2353.64 601.86 2419.76 621.74 2419.76 621.74 2325.25 639.86 2325.25 639.86 2391.42 661.42 2391.42 661.42 2307.27 672.75 2296.12 672.75 2333.57 693.67 2333.57 693.67 2274.77 719.42 2274.77 719.42 2358.36 738.47 2358.36 738.47 2247.09 768.69 2247.09 768.69 2307.27 785.86 2307.27 785.86 2222.25 803.8 2222.25 803.8 2269.67 826.57 2269.67 826.57 2195.52 840.23 2195.52 840.23 2309.37 866.47 2309.37 866.47 2154.64 892.61 2154.64 892.61 2247.09 908.56 2247.09 908.56 2175.43 926.71 2175.43 926.71 2219.56 947.76 2219.56 947.76 2133.57 974.56 2133.57 974.56 2191.56 996.16 2191.56 996.16 2113.74 1011.08 2113.74 1011.08 2232.64 1032.63 2232.64 1032.63 2125.49 1054.19 2125.49 1054.19 2175.43 1073.2 2175.43 1073.2 2090.2 1096.44 2090.2 1096.44 2151.88 1112.66 2151.88 1112.66 2058.05 1136.69 2058.05 1136.69 2182.15 1159.57 2182.15 1159.57 2041.93 1178.95 2041.93 1178.95 2122.46 1200.51 2122.46 1200.51 2017.14 1218.16 2017.14 1218.16 2071.45 1239.04 2071.45 1239.04 1983.51 1263.01 1983.51 1263.01 2145.83 1282.15 2145.83 1282.15 1935.32 1311.75 1935.32 1311.75 2003.48 1334.26 2003.48 1334.26 1904.28 1351.63 1904.28 1351.63 1946.06 1372.65 1946.06 1372.65 1874.87 1397.85 1874.87 1397.85 2003.48 1425.76 2003.48 1425.76 1844.06 1452.96 1844.06 1452.96 1909.12 1483.36 1909.12 1483.36 1832.51 1504.16 1832.51 1504.16 1935.32 1528.16 1935.32 1528.16 1813.02 1563.36 1813.02 1563.36 1861.54 1588.96 1861.54 1588.96 1791.62 1616.16 1791.62 1616.16 1888.65 1636.96 1888.65 1636.96 1778.24 1668.96 1778.24 1668.96 1808.18 1696.16 1808.18 1696.16 1749.68 2111.79 1736.92 2383.82 1638.99 7282.62 4522.36"/><polygon class="cls-10" points="7282.62 4524.48 6346.97 4481.44 6052.9 4781.88 1509.2 3865.45 111.78 3374.02 0 3102.18 162.99 2819.92 207.5 2742.36 228.84 2742.36 228.84 2781.14 274.32 2781.14 274.32 2673.76 293.98 2673.76 293.98 2718.93 312.05 2718.93 312.05 2645.98 329.95 2645.98 329.95 2669.81 348.82 2669.81 348.82 2586.6 361.82 2586.6 361.82 2610.2 386.1 2610.2 386.1 2532.73 404.96 2532.73 404.96 2566.69 428.56 2566.69 428.56 2483.55 441.73 2483.55 441.73 2504.63 460.14 2504.63 460.14 2431.13 479.01 2431.13 479.01 2475.35 496.91 2475.35 496.91 2413.28 515.78 2413.28 515.78 2453.1 534.64 2453.1 534.64 2401.85 557.36 2401.85 557.36 2484.72 577.89 2484.72 577.89 2373.47 601.86 2373.47 601.86 2439.05 621.74 2439.05 621.74 2345.31 639.86 2345.31 639.86 2410.94 661.42 2410.94 661.42 2327.47 672.75 2316.42 672.75 2353.56 693.67 2353.56 693.67 2295.24 719.42 2295.24 719.42 2378.15 738.47 2378.15 738.47 2267.79 768.69 2267.79 768.69 2327.47 785.86 2327.47 785.86 2243.15 803.8 2243.15 803.8 2290.18 826.57 2290.18 826.57 2216.64 840.23 2216.64 840.23 2329.56 866.47 2329.56 866.47 2176.09 892.61 2176.09 892.61 2267.79 908.56 2267.79 908.56 2196.71 926.71 2196.71 926.71 2240.48 947.76 2240.48 947.76 2155.19 974.56 2155.19 974.56 2212.7 996.16 2212.7 996.16 2135.52 1011.08 2135.52 1011.08 2253.46 1032.63 2253.46 1032.63 2147.17 1054.19 2147.17 1054.19 2196.71 1073.2 2196.71 1073.2 2112.18 1096.44 2112.18 1096.44 2173.35 1112.66 2173.35 1112.66 2080.28 1136.69 2080.28 1136.69 2203.38 1159.57 2203.38 1159.57 2064.3 1178.95 2064.3 1178.95 2144.17 1200.51 2144.17 1200.51 2039.71 1218.16 2039.71 1218.16 2093.58 1239.04 2093.58 1239.04 2006.36 1263.01 2006.36 1263.01 2167.36 1282.15 2167.36 1282.15 1958.56 1311.75 1958.56 1311.75 2026.17 1334.26 2026.17 1334.26 1927.77 1351.63 1927.77 1351.63 1969.21 1372.65 1969.21 1372.65 1898.61 1397.85 1898.61 1397.85 2026.17 1425.76 2026.17 1425.76 1868.05 1452.96 1868.05 1452.96 1932.58 1483.36 1932.58 1483.36 1856.59 1504.16 1856.59 1504.16 1958.56 1528.16 1958.56 1528.16 1837.26 1563.36 1837.26 1563.36 1885.38 1588.96 1885.38 1588.96 1816.03 1616.16 1816.03 1616.16 1912.27 1636.96 1912.27 1636.96 1802.76 1668.96 1802.76 1668.96 1832.46 1696.16 1832.46 1696.16 1774.44 2112.66 1764.87 2383.82 1664.65 7282.62 4524.48"/><polygon class="cls-11" points="7282.62 4526.59 6346.97 4483.91 6052.9 4781.88 1509.2 3873 111.78 3385.61 0 3116 162.99 2836.07 207.5 2759.14 228.84 2759.14 228.84 2797.61 274.32 2797.61 274.32 2691.11 293.98 2691.11 293.98 2735.92 312.05 2735.92 312.05 2663.56 329.95 2663.56 329.95 2687.2 348.82 2687.2 348.82 2604.67 361.82 2604.67 361.82 2628.08 386.1 2628.08 386.1 2551.25 404.96 2551.25 404.96 2584.93 428.56 2584.93 428.56 2502.47 441.73 2502.47 441.73 2523.37 460.14 2523.37 460.14 2450.48 479.01 2450.48 479.01 2494.34 496.91 2494.34 496.91 2432.78 515.78 2432.78 515.78 2472.27 534.64 2472.27 534.64 2421.44 557.36 2421.44 557.36 2503.63 577.89 2503.63 577.89 2393.29 601.86 2393.29 601.86 2458.33 621.74 2458.33 621.74 2365.36 639.86 2365.36 639.86 2430.46 661.42 2430.46 661.42 2347.68 672.75 2336.71 672.75 2373.55 693.67 2373.55 693.67 2315.71 719.42 2315.71 719.42 2397.94 738.47 2397.94 738.47 2288.48 768.69 2288.48 768.69 2347.68 785.86 2347.68 785.86 2264.05 803.8 2264.05 803.8 2310.69 826.57 2310.69 826.57 2237.75 840.23 2237.75 840.23 2349.75 866.47 2349.75 866.47 2197.53 892.61 2197.53 892.61 2288.48 908.56 2288.48 908.56 2217.99 926.71 2217.99 926.71 2261.4 947.76 2261.4 947.76 2176.81 974.56 2176.81 974.56 2233.85 996.16 2233.85 996.16 2157.3 1011.08 2157.3 1011.08 2274.27 1032.63 2274.27 1032.63 2168.86 1054.19 2168.86 1054.19 2217.99 1073.2 2217.99 1073.2 2134.16 1096.44 2134.16 1096.44 2194.82 1112.66 2194.82 1112.66 2102.52 1136.69 2102.52 1136.69 2224.6 1159.57 2224.6 1159.57 2086.67 1178.95 2086.67 1178.95 2165.88 1200.51 2165.88 1200.51 2062.28 1218.16 2062.28 1218.16 2115.71 1239.04 2115.71 1239.04 2029.2 1263.01 2029.2 1263.01 2188.88 1282.15 2188.88 1282.15 1981.8 1311.75 1981.8 1311.75 2048.85 1334.26 2048.85 1334.26 1951.26 1351.63 1951.26 1351.63 1992.36 1372.65 1992.36 1372.65 1922.34 1397.85 1922.34 1397.85 2048.85 1425.76 2048.85 1425.76 1892.03 1452.96 1892.03 1452.96 1956.03 1483.36 1956.03 1483.36 1880.67 1504.16 1880.67 1504.16 1981.8 1528.16 1981.8 1528.16 1861.5 1563.36 1861.5 1563.36 1909.22 1588.96 1909.22 1588.96 1840.44 1616.16 1840.44 1616.16 1935.89 1636.96 1935.89 1636.96 1827.28 1668.96 1827.28 1668.96 1856.74 1696.16 1856.74 1696.16 1799.2 2113.52 1792.81 2383.82 1690.31 7282.62 4526.59"/><polygon class="cls-12" points="7282.62 4528.71 6346.97 4486.38 6052.9 4781.88 1509.2 3880.54 111.78 3397.2 0 3129.83 162.99 2852.22 207.5 2775.93 228.84 2775.93 228.84 2814.07 274.32 2814.07 274.32 2708.46 293.98 2708.46 293.98 2752.9 312.05 2752.9 312.05 2681.14 329.95 2681.14 329.95 2704.58 348.82 2704.58 348.82 2622.74 361.82 2622.74 361.82 2645.96 386.1 2645.96 386.1 2569.76 404.96 2569.76 404.96 2603.16 428.56 2603.16 428.56 2521.39 441.73 2521.39 441.73 2542.12 460.14 2542.12 460.14 2469.83 479.01 2469.83 479.01 2513.32 496.91 2513.32 496.91 2452.28 515.78 2452.28 515.78 2491.44 534.64 2491.44 534.64 2441.03 557.36 2441.03 557.36 2522.54 577.89 2522.54 577.89 2413.12 601.86 2413.12 601.86 2477.62 621.74 2477.62 621.74 2385.42 639.86 2385.42 639.86 2449.97 661.42 2449.97 661.42 2367.88 672.75 2357.01 672.75 2393.53 693.67 2393.53 693.67 2336.18 719.42 2336.18 719.42 2417.72 738.47 2417.72 738.47 2309.18 768.69 2309.18 768.69 2367.88 785.86 2367.88 785.86 2284.95 803.8 2284.95 803.8 2331.2 826.57 2331.2 826.57 2258.87 840.23 2258.87 840.23 2369.93 866.47 2369.93 866.47 2218.98 892.61 2218.98 892.61 2309.18 908.56 2309.18 908.56 2239.27 926.71 2239.27 926.71 2282.32 947.76 2282.32 947.76 2198.43 974.56 2198.43 974.56 2255 996.16 2255 996.16 2179.09 1011.08 2179.09 1011.08 2295.08 1032.63 2295.08 1032.63 2190.55 1054.19 2190.55 1054.19 2239.27 1073.2 2239.27 1073.2 2156.13 1096.44 2156.13 1096.44 2216.29 1112.66 2216.29 1112.66 2124.76 1136.69 2124.76 1136.69 2245.83 1159.57 2245.83 1159.57 2109.04 1178.95 2109.04 1178.95 2187.59 1200.51 2187.59 1200.51 2084.85 1218.16 2084.85 1218.16 2137.84 1239.04 2137.84 1239.04 2052.05 1263.01 2052.05 1263.01 2210.4 1282.15 2210.4 1282.15 2005.04 1311.75 2005.04 1311.75 2071.53 1334.26 2071.53 1334.26 1974.76 1351.63 1974.76 1351.63 2015.52 1372.65 2015.52 1372.65 1946.07 1397.85 1946.07 1397.85 2071.53 1425.76 2071.53 1425.76 1916.02 1452.96 1916.02 1452.96 1979.49 1483.36 1979.49 1483.36 1904.75 1504.16 1904.75 1504.16 2005.04 1528.16 2005.04 1528.16 1885.74 1563.36 1885.74 1563.36 1933.06 1588.96 1933.06 1588.96 1864.86 1616.16 1864.86 1616.16 1959.52 1636.96 1959.52 1636.96 1851.81 1668.96 1851.81 1668.96 1881.01 1696.16 1881.01 1696.16 1823.95 2114.38 1820.76 2383.82 1715.97 7282.62 4528.71"/><polygon class="cls-13" points="7282.62 4530.83 6346.97 4488.85 6052.9 4781.88 1509.2 3888.09 111.78 3408.79 0 3143.66 162.99 2868.37 207.5 2792.72 228.84 2792.72 228.84 2830.54 274.32 2830.54 274.32 2725.82 293.98 2725.82 293.98 2769.88 312.05 2769.88 312.05 2698.72 329.95 2698.72 329.95 2721.97 348.82 2721.97 348.82 2640.81 361.82 2640.81 361.82 2663.83 386.1 2663.83 386.1 2588.28 404.96 2588.28 404.96 2621.4 428.56 2621.4 428.56 2540.3 441.73 2540.3 441.73 2560.86 460.14 2560.86 460.14 2489.18 479.01 2489.18 479.01 2532.31 496.91 2532.31 496.91 2471.77 515.78 2471.77 515.78 2510.61 534.64 2510.61 534.64 2460.62 557.36 2460.62 557.36 2541.45 577.89 2541.45 577.89 2432.94 601.86 2432.94 601.86 2496.9 621.74 2496.9 621.74 2405.48 639.86 2405.48 639.86 2469.49 661.42 2469.49 661.42 2388.08 672.75 2377.3 672.75 2413.52 693.67 2413.52 693.67 2356.65 719.42 2356.65 719.42 2437.51 738.47 2437.51 738.47 2329.87 768.69 2329.87 768.69 2388.08 785.86 2388.08 785.86 2305.84 803.8 2305.84 803.8 2351.71 826.57 2351.71 826.57 2279.98 840.23 2279.98 840.23 2390.12 866.47 2390.12 866.47 2240.43 892.61 2240.43 892.61 2329.87 908.56 2329.87 908.56 2260.55 926.71 2260.55 926.71 2303.24 947.76 2303.24 947.76 2220.05 974.56 2220.05 974.56 2276.15 996.16 2276.15 996.16 2200.87 1011.08 2200.87 1011.08 2315.89 1032.63 2315.89 1032.63 2212.24 1054.19 2212.24 1054.19 2260.55 1073.2 2260.55 1073.2 2178.11 1096.44 2178.11 1096.44 2237.76 1112.66 2237.76 1112.66 2147 1136.69 2147 1136.69 2267.05 1159.57 2267.05 1159.57 2131.41 1178.95 2131.41 1178.95 2209.31 1200.51 2209.31 1200.51 2107.43 1218.16 2107.43 1218.16 2159.96 1239.04 2159.96 1239.04 2074.9 1263.01 2074.9 1263.01 2231.92 1282.15 2231.92 1282.15 2028.28 1311.75 2028.28 1311.75 2094.22 1334.26 2094.22 1334.26 1998.25 1351.63 1998.25 1351.63 2038.67 1372.65 2038.67 1372.65 1969.81 1397.85 1969.81 1397.85 2094.22 1425.76 2094.22 1425.76 1940 1452.96 1940 1452.96 2002.94 1483.36 2002.94 1483.36 1928.83 1504.16 1928.83 1504.16 2028.28 1528.16 2028.28 1528.16 1909.98 1563.36 1909.98 1563.36 1956.9 1588.96 1956.9 1588.96 1889.27 1616.16 1889.27 1616.16 1983.14 1636.96 1983.14 1636.96 1876.33 1668.96 1876.33 1668.96 1905.29 1696.16 1905.29 1696.16 1848.71 2115.25 1848.71 2383.82 1741.63 7282.62 4530.83"/><polygon class="cls-14" points="7282.62 4518.12 6848.67 2154.32 5027.26 0 2873.74 0 2499.07 0 2136.62 140.63 1493.41 300 824.03 778.84 615.97 941.55 850.92 1072.76 1041.88 1015.16 1201.9 940.16 1657.32 616.76 2247.72 508.76 2597.27 674.61 3020.52 1024.76 2383.82 1587.67 7282.62 4518.12"/><polygon class="cls-15" points="1495.14 316.87 1532.35 342.45 1541.01 341.34 1586.59 287.45 1595.67 286.29 1611.48 297.17 1622.21 295.8 1645.74 267.97 1656.47 266.6 1690.06 289.68 1698.72 288.57 1735.65 244.89 1743.5 243.89 1788.02 274.45 1796.83 273.33 1835.65 227.44 1849.44 225.68 1870.53 240.19 1881.54 238.78 1908.37 207.06 1924.9 204.95 1949.17 221.6 1962.95 219.84 1991.54 186.09 2002.57 184.68 2023.38 198.99 2033.3 197.72 2056.98 169.72 2069.11 168.17 2081.66 176.79 2091.59 175.52 2109.88 156.85 2125.5 153.79 2143.21 164.26 2154.51 162.04 2176.32 132.25 2185.46 130.46 2196.62 137.06 2205.77 135.27 2219.67 116.28 2240.15 112.27 2261.71 124.97 2273.03 122.75 2299.51 86.61 2311.9 84.18 2324.73 91.74 2337.65 89.21 2357.01 62.76 2367.51 60.7 2376.78 66.18 2389.72 63.64 2399 50.97 2413.57 48.11 2431.05 58.39 2441.64 56.32 2465.04 24.44 2481.46 21.22 2494.74 29.03 2513.87 46.47 2527.78 46.47 2566.46 11.27 2585.75 11.27 2606.85 30.46 2621.09 30.46 2638.23 14.87 2656.69 14.87 2679.53 35.66 2694.64 35.66 2723.66 9.27 2746.32 9.27 2767.05 28.07 2779.64 28.07 2789.75 18.86 2804.83 18.86 2830.41 42.06 2846.37 42.06 2877.21 14.06 2889.92 14.06 2906.7 27.66 2918.36 27.66 2941.07 9.27 2955.95 9.27 2987.9 35.13 3000.39 35.13 3026.07 14.33 3040.35 14.33 3071.65 39.66 3085.33 39.66 3121.22 10.6 3135.5 10.6 3154.26 25.8 3169.73 25.8 3192.11 7.67 3206.98 7.67 3237.29 32.2 3251.56 32.2 3276.59 11.93 3289.67 11.93 3308.11 26.86 3323.57 26.86 3347.28 7.67 3365.14 7.67 3405.02 39.93 3417.51 39.93 3449.47 14.06 3466.73 14.06 3486.81 30.33 3501.09 30.33 3529.09 7.67 3544.57 7.67 3563.66 23.13 3572.56 23.13 3585.06 13 3593.97 13 3620.99 34.87 3633.48 34.87 3665.78 8.73 3682.45 8.73 3705.5 27.4 3720.97 27.4 3740.07 11.93 3755.54 11.93 3790.15 39.93 3803.83 39.93 3832.82 16.46 3845.32 16.46 3869.7 36.2 3883.98 36.2 3915.61 10.6 3929.89 10.6 3952.95 29.27 3966.64 29.27 3993.34 7.67 4009.41 7.67 4023.89 19.4 4035.79 19.4 4046.31 10.87 4056.97 10.87 4085.98 34.33 4096.14 34.33 4129.1 7.67 4142.79 7.67 4159.59 21.27 4174.47 21.27 4191.27 7.67 4202.72 7.67 4231.4 30.86 4241.66 30.86 4267.86 9.66 4280.36 9.66 4300.62 26.07 4312.67 26.07 4335.41 7.67 4348.8 7.67 4373.27 27.46 4385.77 27.46 4408.25 9.27 4419.4 9.27 4434.72 21.66 4444.09 21.66 4461.38 7.67 4470.74 7.67 4494.21 26.66 4501.78 26.66 4517.6 13.87 4527.86 13.87 4557.29 37.66 4566.66 37.66 4590.64 18.27 4600.89 18.27 4608.78 24.66 4618.59 24.66 4639.59 7.67 4654.33 7.67 4668.15 18.86 4678.41 18.86 4689.02 10.27 4701.53 10.27 4723.03 27.66 4733.3 27.66 4758.02 7.67 4771.42 7.67 4789.48 22.27 4798.4 22.27 4813.23 10.27 4826.63 10.27 4854.56 32.87 4862.6 32.87 4895.77 6.07 4907.39 6.07 4921.24 17.27 4930.17 17.27 4940.8 8.66 4956.89 8.66 4976.47 24.46 4983.18 24.46 5009.01 14.27 5018.31 19.13 5032.44 53.63 5039.95 57.55 5051.53 56.64 5065.14 63.76 5089.92 124.26 5096.36 127.62 5113.19 126.32 5124.65 132.31 5135.12 157.89 5139.04 159.93 5147.44 159.27 5155.68 163.56 5185.06 235.32 5194.01 240 5212.75 238.55 5222.77 243.79 5244.85 297.7 5255.24 303.13 5268.09 302.13 5277.04 306.81 5311.85 391.77 5320.8 396.44 5335.41 395.32 5342.57 399.06 5371.48 469.65 5379.35 473.76 5398.09 472.33 5407.04 477 5445.02 569.72 5454.33 574.58 5479.12 572.7 5485.56 576.06 5502.07 616.39 5514.26 622.76 5527.86 621.72 5540.76 628.46 5595.25 761.44 5609.59 768.94 5640.43 766.62 5656.93 775.25 5682.35 837.32 5698.13 845.57 5717.2 844.12 5732.97 852.37 5772.09 947.84 5785.71 954.97 5802.87 953.66 5817.21 961.16 5845.83 1031.01 5856.58 1036.63 5881.06 1096.38 5894.68 1103.51 5929.35 1100.9 5946.56 1109.91 5999.69 1239.55 6013.31 1246.67 6041.04 1244.59 6053.94 1251.33 6109.37 1386.57 6126.59 1395.58 6164.13 1392.78 6177.03 1399.53 6203.43 1463.95 6216.34 1470.7 6236.69 1469.17 6252.83 1477.62 6292.3 1573.9 6302.69 1579.33 6326.88 1577.54 6340.51 1584.68 6386.04 1695.73 6401.83 1703.99 6429.84 1701.92 6442.02 1708.29 6496.5 1841.13 6515.89 1851.28 6549 1848.85 6565.5 1857.48 6618.37 1986.43 6639.19 1997.35 6666.84 1995.36 6686.46 2005.64 6700.26 2039.28 6712.7 2045.8 6732.03 2044.4 6743.99 2050.66 6780.42 2139.48 6791.43 2145.25 6825.77 2142.8 6848.67 2154.8 7282.62 4518.12 2383.82 1588.79 2645.11 1285.84 2853.32 1025.16 2684.78 910.8 2416.03 745.77 2176.23 662.68 2065.67 623.07 1971.47 640.66 1756.71 666.37 1491.89 678.42 1436.1 704.74 1392.54 734.97 1367.04 759.01 1348.99 775.7 1323.39 787.93 1305.79 804.22 1249.59 857.19 1233.73 871.87 1148.86 912.4 1134.08 926.07 1117.76 935.75 1085.88 957.36 1072.54 965.26 1008.59 981.85 1001.02 982.63 967.74 995.14 857.66 1049.19 844.39 1039.7 715.23 939.21 686.54 918.68 673.66 914.32 719.03 889.87 751.45 869.48 853.38 764.97 866.05 760.1 881.54 762.36 893.05 757.93 916.6 720.83 926.95 716.85 958.59 721.42 970.1 717 1010.41 653.5 1022.51 648.85 1042.43 651.73 1051.92 648.09 1075.88 610.35 1087.54 605.87 1127.8 611.67 1142.5 606.03 1176.23 552.89 1185.73 549.24 1198.98 551.17 1209.88 546.98 1242.26 496.02 1249.92 493.08 1267.36 495.6 1276 492.29 1307.69 442.42 1318.92 438.1 1358.07 443.7 1369.73 439.22 1411.9 372.86 1420.11 369.7 1444.58 373.19 1454.11 369.52 1485.19 320.69 1495.14 316.87"/><polygon class="cls-16" points="1496.86 333.73 1526.63 395.96 1538.6 395.07 1575.06 300.84 1587.61 299.91 1600.26 326.38 1615.08 325.28 1633.9 276.62 1648.73 275.52 1675.6 331.66 1687.57 330.78 1717.12 254.39 1727.95 253.59 1763.57 327.96 1775.73 327.06 1806.8 246.83 1825.82 245.42 1842.69 280.71 1857.9 279.58 1879.37 224.13 1902.19 222.44 1921.61 262.96 1940.63 261.55 1963.5 202.55 1978.72 201.42 1995.37 236.23 2009.07 235.21 2028.02 186.25 2044.76 185.01 2054.8 205.99 2068.51 204.97 2083.14 173.08 2104.91 170.63 2119.08 199.8 2134.84 198.03 2152.29 148.6 2165.04 147.17 2173.97 165.57 2186.73 164.14 2197.85 132.62 2226.39 129.41 2243.64 164.85 2259.41 163.08 2280.6 103.12 2297.87 101.18 2308.14 122.27 2326.15 120.24 2341.64 76.37 2356.28 74.72 2363.69 89.98 2381.72 87.95 2389.15 66.93 2409.44 64.65 2423.43 93.35 2438.2 91.69 2456.92 38.83 2479.79 36.25 2490.41 58.06 2505.72 92.93 2524.82 92.93 2555.76 22.53 2582.23 22.53 2599.11 60.93 2618.66 60.93 2632.37 29.73 2657.7 29.73 2675.98 71.33 2696.7 71.33 2719.92 18.53 2751.01 18.53 2767.59 56.13 2784.86 56.13 2792.95 37.73 2813.66 37.73 2834.12 84.13 2856.01 84.13 2880.68 28.13 2897.68 28.13 2911.11 55.33 2926.72 55.33 2944.89 18.53 2964.79 18.53 2990.35 70.26 3007.06 70.26 3027.61 28.66 3046.71 28.66 3071.75 79.33 3090.05 79.33 3118.77 21.2 3137.87 21.2 3152.88 51.6 3173.58 51.6 3191.48 15.33 3211.38 15.33 3235.62 64.4 3254.72 64.4 3274.74 23.86 3292.25 23.86 3307 53.73 3327.69 53.73 3346.66 15.33 3370.55 15.33 3402.45 79.86 3419.16 79.86 3444.73 28.13 3467.82 28.13 3483.88 60.66 3502.98 60.66 3525.38 15.33 3546.09 15.33 3561.36 46.26 3573.28 46.26 3583.28 26 3595.21 26 3616.82 69.73 3633.53 69.73 3659.38 17.46 3681.67 17.46 3700.11 54.8 3720.81 54.8 3736.08 23.86 3756.78 23.86 3784.47 79.86 3802.78 79.86 3825.97 32.93 3842.69 32.93 3862.19 72.4 3881.29 72.4 3906.6 21.2 3925.7 21.2 3944.16 58.53 3962.47 58.53 3983.82 15.33 4005.32 15.33 4016.91 38.8 4032.82 38.8 4041.24 21.73 4055.5 21.73 4078.71 68.66 4092.3 68.66 4118.67 15.33 4136.98 15.33 4150.42 42.53 4170.32 42.53 4183.76 15.33 4199.09 15.33 4222.03 61.73 4235.76 61.73 4256.72 19.33 4273.44 19.33 4289.65 52.13 4305.77 52.13 4323.96 15.33 4341.88 15.33 4361.44 54.93 4378.16 54.93 4396.15 18.53 4411.07 18.53 4423.32 43.33 4435.86 43.33 4449.69 15.33 4462.22 15.33 4481 53.33 4491.14 53.33 4503.79 27.73 4517.52 27.73 4541.07 75.33 4553.6 75.33 4572.78 36.53 4586.5 36.53 4592.82 49.33 4605.94 49.33 4622.75 15.33 4642.46 15.33 4653.51 37.73 4667.24 37.73 4675.73 20.53 4692.45 20.53 4709.66 55.33 4723.39 55.33 4743.17 15.33 4761.09 15.33 4775.53 44.53 4787.47 44.53 4799.34 20.53 4817.26 20.53 4839.6 65.73 4850.35 65.73 4876.89 12.13 4892.42 12.13 4903.5 34.53 4915.45 34.53 4923.95 17.33 4945.46 17.33 4961.13 48.93 4970.1 48.93 4990.76 28.53 5004.44 32.42 5015.74 81.38 5026.79 84.52 5036.05 66.27 5056.07 71.97 5075.89 157.81 5085.36 160.49 5098.82 134.02 5115.67 138.81 5124.05 175.11 5129.82 176.74 5136.55 163.49 5148.65 166.93 5172.16 268.74 5185.32 272.47 5200.31 243 5215.05 247.19 5232.71 323.68 5247.98 328.02 5258.27 307.78 5271.43 311.52 5299.27 432.06 5312.43 435.79 5324.12 412.82 5334.64 415.8 5357.77 515.96 5369.35 519.25 5384.35 489.78 5397.51 493.52 5427.89 625.06 5441.58 628.94 5461.41 590 5470.88 592.69 5484.09 649.91 5502 655.01 5512.88 633.61 5531.84 639.01 5575.43 827.63 5596.5 833.63 5621.18 785.21 5645.41 792.12 5665.75 880.17 5688.93 886.77 5704.19 856.82 5727.37 863.42 5758.66 998.83 5778.68 1004.53 5792.41 977.57 5813.48 983.57 5836.38 1082.65 5852.18 1087.14 5871.76 1171.9 5891.78 1177.6 5919.51 1123.2 5944.8 1130.4 5987.31 1314.28 6007.32 1319.98 6029.5 1276.45 6048.47 1281.85 6092.81 1473.65 6118.1 1480.86 6148.13 1421.98 6167.1 1427.38 6188.21 1518.76 6207.18 1524.16 6223.46 1492.21 6247.18 1498.97 6278.75 1635.52 6294.02 1639.87 6313.37 1601.95 6333.4 1607.66 6369.82 1765.14 6393.01 1771.75 6415.42 1727.85 6433.33 1732.95 6476.91 1921.3 6505.38 1929.42 6531.87 1877.56 6556.11 1884.46 6598.4 2067.34 6628.98 2076.06 6651.1 2032.84 6679.92 2041.07 6690.96 2088.78 6709.23 2094 6724.69 2063.76 6742.27 2068.77 6771.41 2194.7 6787.58 2199.32 6815.05 2145.68 6848.67 2155.28 7282.62 4518.12 2383.82 1589.9 2585.79 1267.47 2686.12 1025.56 2511.45 931.19 2234.8 816.94 1994.69 764.37 1883.63 737.37 1790.32 755.16 1577.66 766.92 1326.45 740.09 1272.07 752.1 1248.95 767.12 1228.54 793.47 1220.67 806.83 1200.18 809.46 1192.5 822.49 1147.55 880.55 1140.62 892.29 1072.72 901.04 1066.26 911.97 1058.4 919.72 1032.9 945 1026.45 951.33 975.29 948.53 969.23 947.36 952.46 957.37 864.4 1025.61 858.27 1018.02 754.94 903.61 741.65 887.19 731.35 887.09 767.65 880.78 801.19 864.46 882.74 751.09 899.91 747.2 912.3 765 927.91 761.47 946.75 707.46 960.79 704.28 986.1 740.58 1001.71 737.04 1033.96 644.64 1050.36 640.92 1066.3 663.78 1079.17 660.87 1098.34 605.96 1114.15 602.38 1146.35 648.54 1166.27 644.02 1193.26 566.71 1206.14 563.79 1216.73 579.01 1231.52 575.66 1257.41 501.54 1267.8 499.19 1281.76 519.2 1293.47 516.55 1318.82 444.01 1334.05 440.56 1365.37 485.36 1381.18 481.77 1414.91 385.24 1426.04 382.72 1445.62 410.71 1458.52 407.78 1483.38 336.79 1496.86 333.73"/><polygon class="cls-17" points="1498.59 350.6 1520.91 449.46 1536.19 448.8 1563.54 314.23 1579.54 313.53 1589.03 355.58 1607.95 354.76 1622.07 285.26 1640.99 284.44 1661.14 373.64 1676.42 372.98 1698.58 263.89 1712.4 263.29 1739.12 381.47 1754.64 380.79 1777.94 266.22 1802.2 265.16 1814.86 321.23 1834.27 320.38 1850.37 241.19 1879.48 239.93 1894.05 304.32 1918.31 303.26 1935.46 219.01 1954.88 218.16 1967.37 273.47 1984.85 272.71 1999.05 202.79 2020.41 201.86 2027.94 235.19 2045.42 234.43 2056.39 189.31 2084.32 187.47 2094.95 235.35 2115.17 234.02 2128.26 164.95 2144.62 163.87 2151.32 194.07 2167.68 193 2176.02 148.97 2212.64 146.56 2225.57 204.74 2245.8 203.41 2261.69 119.64 2283.84 118.19 2291.54 152.8 2314.65 151.28 2326.27 89.97 2345.05 88.74 2350.61 113.78 2373.73 112.26 2379.3 82.9 2405.32 81.18 2415.81 128.31 2434.76 127.07 2448.8 53.22 2478.11 51.29 2486.09 87.08 2497.56 139.4 2521.85 139.4 2545.06 33.8 2578.71 33.8 2591.37 91.4 2616.24 91.4 2626.52 44.6 2658.72 44.6 2672.42 107 2698.77 107 2716.18 27.8 2755.7 27.8 2768.14 84.2 2790.09 84.2 2796.15 56.6 2822.48 56.6 2837.83 126.2 2865.65 126.2 2884.15 42.2 2905.45 42.2 2915.52 83 2935.08 83 2948.71 27.8 2973.63 27.8 2992.8 105.4 3013.74 105.4 3029.15 43 3053.07 43 3071.85 119 3094.78 119 3116.32 31.8 3140.24 31.8 3151.5 77.4 3177.42 77.4 3190.85 23 3215.77 23 3233.96 96.6 3257.88 96.6 3272.9 35.8 3294.83 35.8 3305.89 80.6 3331.81 80.6 3346.03 23 3375.95 23 3399.88 119.8 3420.81 119.8 3439.99 42.2 3468.9 42.2 3480.95 91 3504.88 91 3521.68 23 3547.6 23 3559.06 69.4 3574 69.4 3581.5 39 3596.45 39 3612.66 104.6 3633.59 104.6 3652.97 26.2 3680.89 26.2 3694.72 82.2 3720.65 82.2 3732.1 35.8 3758.03 35.8 3778.8 119.8 3801.72 119.8 3819.12 49.4 3840.05 49.4 3854.68 108.6 3878.61 108.6 3897.59 31.8 3921.52 31.8 3935.36 87.8 3958.29 87.8 3974.31 23 4001.23 23 4009.92 58.2 4029.86 58.2 4036.17 32.6 4054.03 32.6 4071.44 103 4088.47 103 4108.24 23 4131.18 23 4141.26 63.8 4166.18 63.8 4176.26 23 4195.45 23 4212.66 92.6 4229.86 92.6 4245.58 29 4266.52 29 4278.68 78.2 4298.87 78.2 4312.51 23 4334.95 23 4349.62 82.4 4370.56 82.4 4384.05 27.8 4402.74 27.8 4411.93 65 4427.63 65 4438.01 23 4453.71 23 4467.79 80 4480.49 80 4489.98 41.6 4507.18 41.6 4524.84 113 4540.54 113 4554.93 54.8 4572.12 54.8 4576.85 74 4593.3 74 4605.9 23 4630.58 23 4638.88 56.6 4656.07 56.6 4662.44 30.8 4683.38 30.8 4696.28 83 4713.48 83 4728.32 23 4750.76 23 4761.59 66.8 4776.54 66.8 4785.44 30.8 4807.88 30.8 4824.64 98.6 4838.1 98.6 4858.01 18.2 4877.45 18.2 4885.77 51.8 4900.73 51.8 4907.1 26 4934.04 26 4945.79 73.4 4957.01 73.4 4972.51 42.8 4990.57 45.71 4999.05 109.14 5013.63 111.49 5020.58 75.9 5046.99 80.17 5061.85 191.35 5074.36 193.37 5084.45 141.71 5106.69 145.3 5112.97 192.33 5120.61 193.55 5125.65 167.72 5141.63 170.29 5159.26 302.15 5176.63 304.95 5187.87 247.45 5207.33 250.59 5220.57 349.66 5240.73 352.91 5248.44 313.44 5265.81 316.24 5286.69 472.34 5304.06 475.14 5312.83 430.31 5326.72 432.55 5344.07 562.27 5359.35 564.74 5370.6 507.23 5387.97 510.04 5410.76 680.39 5428.82 683.31 5443.7 607.3 5456.2 609.31 5466.11 683.43 5489.74 687.25 5497.9 645.51 5522.92 649.55 5555.61 893.82 5583.41 898.32 5601.92 803.81 5633.9 808.98 5649.15 923.03 5679.74 927.98 5691.18 869.51 5721.77 874.46 5745.24 1049.82 5771.65 1054.1 5781.95 1001.47 5809.75 1005.97 5826.92 1134.28 5847.77 1137.65 5862.46 1247.42 5888.87 1251.7 5909.67 1145.5 5943.04 1150.9 5974.92 1389.01 6001.33 1393.28 6017.97 1308.32 6042.99 1312.37 6076.24 1560.74 6109.61 1566.14 6132.14 1451.18 6157.16 1455.23 6173 1573.57 6198.02 1577.62 6210.23 1515.26 6241.53 1520.33 6265.21 1697.14 6285.36 1700.4 6299.87 1626.36 6326.29 1630.64 6353.61 1834.55 6384.2 1839.51 6401.01 1753.79 6424.64 1757.61 6457.32 2001.47 6494.88 2007.57 6514.74 1906.27 6546.72 1911.44 6578.44 2148.24 6618.78 2154.78 6635.37 2070.33 6673.38 2076.5 6681.66 2138.29 6705.76 2142.2 6717.36 2083.11 6740.54 2086.87 6762.4 2249.92 6783.72 2253.39 6804.33 2148.56 6848.67 2155.76 7282.62 4518.12 2383.82 1591.02 2526.47 1249.09 2518.92 1025.96 2338.12 951.58 2053.57 888.1 1813.15 866.07 1701.58 851.67 1609.17 869.66 1398.62 867.46 1161.02 801.75 1108.04 799.46 1105.35 799.27 1090.05 827.93 1092.34 837.95 1076.98 831 1079.22 840.77 1045.5 903.91 1047.5 912.72 996.58 889.67 998.44 897.88 999.04 903.68 979.91 932.65 980.37 937.39 942 915.22 937.45 912.08 937.18 919.59 871.14 1002.04 872.14 996.35 794.64 868 796.76 855.69 789.04 859.86 816.26 871.68 850.93 859.44 912.09 737.22 933.77 734.3 943.07 767.65 962.77 765 976.9 694.09 994.64 691.71 1013.62 759.73 1033.33 757.08 1057.51 635.77 1078.21 632.99 1090.16 675.84 1106.41 673.65 1120.79 601.57 1140.75 598.88 1164.9 685.4 1190.04 682.01 1210.28 580.53 1226.54 578.34 1234.49 606.86 1253.15 604.34 1272.57 507.05 1285.69 505.29 1296.16 542.8 1310.94 540.81 1329.95 445.61 1349.18 443.02 1372.66 527.02 1392.62 524.33 1417.92 397.63 1431.97 395.74 1446.65 448.23 1462.93 446.03 1481.58 352.89 1498.59 350.6"/><polygon class="cls-18" points="1500.31 367.46 1515.19 502.97 1533.78 502.53 1552.01 327.61 1571.48 327.15 1577.81 384.78 1600.82 384.24 1610.23 293.9 1633.24 293.35 1646.68 415.63 1665.26 415.18 1680.04 273.39 1696.85 272.99 1714.66 434.98 1733.55 434.53 1749.08 285.61 1778.59 284.91 1787.03 361.75 1810.63 361.19 1821.36 258.26 1856.78 257.42 1866.48 345.68 1896 344.97 1907.43 235.47 1931.04 234.91 1939.37 310.71 1960.62 310.2 1970.09 219.32 1996.06 218.7 2001.08 264.39 2022.33 263.88 2029.65 205.54 2063.74 204.31 2070.82 270.9 2095.5 270.01 2104.22 181.29 2124.2 180.58 2128.66 222.58 2148.64 221.86 2154.2 165.31 2198.88 163.7 2207.5 244.62 2232.18 243.74 2242.78 136.16 2269.82 135.19 2274.95 183.33 2303.15 182.32 2310.9 103.58 2333.82 102.76 2337.53 137.59 2365.74 136.57 2369.45 98.86 2401.2 97.72 2408.2 163.27 2431.32 162.44 2440.68 67.61 2476.44 66.32 2481.76 116.11 2489.41 185.86 2518.89 185.86 2534.36 45.06 2575.2 45.06 2583.63 121.86 2613.81 121.86 2620.67 59.46 2659.73 59.46 2668.87 142.66 2700.83 142.66 2712.44 37.06 2760.38 37.06 2768.68 112.26 2795.31 112.26 2799.35 75.46 2831.31 75.46 2841.54 168.26 2875.28 168.26 2887.62 56.26 2913.22 56.26 2919.93 110.66 2943.44 110.66 2952.52 37.06 2982.47 37.06 2995.25 140.53 3020.41 140.53 3030.68 57.33 3059.43 57.33 3071.95 158.66 3099.51 158.66 3113.86 42.39 3142.61 42.39 3150.12 103.19 3181.27 103.19 3190.22 30.66 3220.17 30.66 3232.29 128.79 3261.04 128.79 3271.05 47.73 3297.4 47.73 3304.78 107.46 3335.92 107.46 3345.41 30.66 3381.35 30.66 3397.3 159.73 3422.46 159.73 3435.24 56.26 3469.99 56.26 3478.02 121.33 3506.77 121.33 3517.97 30.66 3549.12 30.66 3556.76 92.53 3574.72 92.53 3579.72 51.99 3597.68 51.99 3608.49 139.46 3633.65 139.46 3646.57 34.93 3680.11 34.93 3689.33 109.59 3720.48 109.59 3728.12 47.73 3759.27 47.73 3773.12 159.73 3800.67 159.73 3812.26 65.86 3837.42 65.86 3847.17 144.79 3875.93 144.79 3888.58 42.39 3917.33 42.39 3926.56 117.06 3954.11 117.06 3964.79 30.66 3997.14 30.66 4002.93 77.59 4026.89 77.59 4031.1 43.46 4052.57 43.46 4064.17 137.33 4084.63 137.33 4097.82 30.66 4125.37 30.66 4132.09 85.06 4162.04 85.06 4168.76 30.66 4191.82 30.66 4203.3 123.46 4223.96 123.46 4234.44 38.66 4259.6 38.66 4267.7 104.26 4291.96 104.26 4301.06 30.66 4328.02 30.66 4337.8 109.86 4362.96 109.86 4371.95 37.06 4394.41 37.06 4400.54 86.66 4419.41 86.66 4426.33 30.66 4445.19 30.66 4454.58 106.66 4469.85 106.66 4476.17 55.46 4496.84 55.46 4508.61 150.66 4527.48 150.66 4537.07 73.06 4557.73 73.06 4560.89 98.66 4580.65 98.66 4589.05 30.66 4618.71 30.66 4624.24 75.46 4644.9 75.46 4649.14 41.06 4674.31 41.06 4682.91 110.66 4703.57 110.66 4713.47 30.66 4740.42 30.66 4747.65 89.06 4765.61 89.06 4771.55 41.06 4798.51 41.06 4809.68 131.46 4825.85 131.46 4839.12 24.26 4862.49 24.26 4868.03 69.06 4886 69.06 4890.25 34.66 4922.61 34.66 4930.44 97.86 4943.93 97.86 4954.26 57.06 4976.7 59.01 4982.35 136.89 5000.48 138.45 5005.11 85.53 5037.91 88.38 5047.82 224.9 5063.36 226.24 5070.09 149.4 5097.71 151.8 5101.9 209.55 5111.39 210.37 5114.75 171.94 5134.6 173.66 5146.36 335.56 5167.94 337.43 5175.43 251.9 5199.6 253.99 5208.44 375.64 5233.47 377.81 5238.61 319.09 5260.19 320.96 5274.11 512.62 5295.69 514.49 5301.54 447.8 5318.8 449.3 5330.37 608.58 5349.36 610.22 5356.85 524.69 5378.43 526.55 5393.62 735.72 5416.07 737.67 5425.98 624.6 5441.52 625.94 5448.12 716.95 5477.48 719.5 5482.92 657.4 5514 660.1 5535.8 960.01 5570.33 963.01 5582.67 822.4 5622.39 825.85 5632.56 965.88 5670.55 969.18 5678.17 882.2 5716.16 885.5 5731.81 1100.81 5764.62 1103.66 5771.48 1025.38 5806.02 1028.38 5817.47 1185.92 5843.37 1188.17 5853.16 1322.95 5885.97 1325.8 5899.83 1167.8 5941.28 1171.4 5962.53 1463.74 5995.34 1466.59 6006.43 1340.19 6037.51 1342.89 6059.68 1647.82 6101.13 1651.43 6116.15 1480.39 6147.23 1483.09 6157.78 1628.37 6188.87 1631.08 6197.01 1538.3 6235.88 1541.68 6251.66 1758.76 6276.69 1760.93 6286.37 1650.77 6319.18 1653.63 6337.39 1903.96 6375.39 1907.27 6386.59 1779.72 6415.94 1782.27 6437.74 2081.65 6484.37 2085.71 6497.61 1934.97 6537.34 1938.43 6558.48 2229.14 6608.57 2233.5 6619.63 2107.82 6666.84 2111.93 6672.36 2187.79 6702.29 2190.39 6710.03 2102.47 6738.81 2104.98 6753.38 2305.15 6779.87 2307.45 6793.6 2151.44 6848.67 2156.24 7282.62 4518.12 2383.82 1592.14 2467.15 1230.71 2351.72 1026.36 2164.78 971.98 1872.34 959.27 1631.6 967.77 1519.53 965.97 1428.02 984.16 1219.58 968.01 995.59 863.42 944.02 846.83 961.75 831.42 951.55 862.4 964.01 869.07 953.77 852.53 965.93 859.04 943.45 927.27 954.39 933.14 920.44 878.31 930.62 883.78 939.68 887.65 926.93 920.3 934.28 923.46 908.7 881.9 905.67 876.81 921.91 881.81 877.88 978.47 886.01 974.67 834.35 832.4 851.88 824.19 846.73 832.63 864.88 862.58 900.68 854.43 941.45 723.34 967.63 721.4 973.83 770.3 997.63 768.53 1007.05 680.73 1028.48 679.13 1041.13 778.88 1064.94 777.11 1081.06 626.91 1106.06 625.05 1114.03 687.89 1133.66 686.43 1143.25 597.18 1167.35 595.38 1183.45 722.26 1213.81 720 1227.31 594.35 1246.95 592.89 1252.25 634.7 1274.78 633.03 1287.73 512.56 1303.58 511.39 1310.56 566.4 1328.41 565.07 1341.09 447.2 1364.31 445.48 1379.96 568.67 1404.07 566.88 1420.93 410.02 1437.9 408.76 1447.69 485.75 1467.34 484.29 1479.77 368.99 1500.31 367.46"/><polygon class="cls-19" points="1502.03 384.33 1509.48 556.48 1531.37 556.26 1540.48 341 1563.42 340.77 1566.58 413.99 1593.69 413.71 1598.39 302.55 1625.5 302.27 1632.22 457.61 1654.11 457.39 1661.5 282.89 1681.31 282.69 1690.21 488.48 1712.45 488.26 1720.22 305 1754.97 304.65 1759.19 402.27 1786.99 401.99 1792.36 275.33 1834.07 274.9 1838.92 387.03 1873.68 386.68 1879.39 251.93 1907.2 251.65 1911.36 347.95 1936.39 347.7 1941.12 235.86 1971.71 235.55 1974.22 293.59 1999.24 293.34 2002.9 221.76 2043.15 221.15 2046.69 306.44 2075.83 306 2080.19 197.64 2103.78 197.28 2106.01 251.09 2129.6 250.73 2132.38 181.65 2185.12 180.85 2189.43 284.51 2218.57 284.06 2223.87 152.67 2255.79 152.19 2258.35 213.86 2291.66 213.35 2295.53 117.19 2322.59 116.77 2324.44 161.39 2357.75 160.88 2359.61 114.83 2397.08 114.26 2400.58 198.23 2427.87 197.82 2432.55 82 2474.77 81.36 2477.43 145.14 2481.26 232.33 2515.92 232.33 2523.66 56.33 2571.68 56.33 2575.9 152.33 2611.38 152.33 2614.81 74.33 2660.74 74.33 2665.31 178.33 2702.89 178.33 2708.7 46.33 2765.07 46.33 2769.22 140.33 2800.53 140.33 2802.56 94.33 2840.13 94.33 2845.25 210.33 2884.92 210.33 2891.09 70.33 2920.99 70.33 2924.34 138.33 2951.8 138.33 2956.34 46.33 2991.32 46.33 2997.71 175.66 3027.08 175.66 3032.22 71.66 3065.8 71.66 3072.06 198.33 3104.23 198.33 3111.41 52.99 3144.99 52.99 3148.74 128.99 3185.11 128.99 3189.59 38.33 3224.56 38.33 3230.62 160.99 3264.2 160.99 3269.2 59.66 3299.98 59.66 3303.67 134.33 3340.04 134.33 3344.78 38.33 3386.76 38.33 3394.73 199.66 3424.11 199.66 3430.5 70.33 3471.07 70.33 3475.09 151.66 3508.66 151.66 3514.26 38.33 3550.64 38.33 3554.46 115.66 3575.44 115.66 3577.94 64.99 3598.92 64.99 3604.32 174.33 3633.7 174.33 3640.16 43.66 3679.34 43.66 3683.95 136.99 3720.32 136.99 3724.14 59.66 3760.51 59.66 3767.44 199.66 3799.61 199.66 3805.41 82.33 3834.79 82.33 3839.67 180.99 3873.24 180.99 3879.57 52.99 3913.14 52.99 3917.76 146.33 3949.93 146.33 3955.27 38.33 3993.05 38.33 3995.95 96.99 4023.92 96.99 4026.03 54.33 4051.1 54.33 4056.9 171.66 4080.79 171.66 4087.39 38.33 4119.56 38.33 4122.92 106.33 4157.9 106.33 4161.26 38.33 4188.19 38.33 4193.93 154.33 4218.06 154.33 4223.3 48.33 4252.68 48.33 4256.73 130.33 4285.06 130.33 4289.61 38.33 4321.09 38.33 4325.98 137.33 4355.36 137.33 4359.85 46.33 4386.09 46.33 4389.15 108.33 4411.18 108.33 4414.64 38.33 4436.67 38.33 4441.37 133.33 4459.2 133.33 4462.37 69.33 4486.5 69.33 4492.39 188.33 4514.42 188.33 4519.21 91.33 4543.34 91.33 4544.92 123.33 4568 123.33 4572.2 38.33 4606.83 38.33 4609.6 94.33 4633.73 94.33 4635.85 51.33 4665.23 51.33 4669.53 138.33 4693.67 138.33 4698.61 38.33 4730.09 38.33 4733.7 111.33 4754.69 111.33 4757.65 51.33 4789.13 51.33 4794.72 164.33 4813.61 164.33 4820.24 30.33 4847.52 30.33 4850.29 86.33 4871.28 86.33 4873.4 43.33 4911.18 43.33 4915.1 122.33 4930.84 122.33 4936.01 71.33 4962.83 72.3 4965.65 164.64 4987.32 165.42 4989.63 95.16 5028.84 96.58 5033.79 258.45 5052.36 259.12 5055.72 157.1 5088.74 158.29 5090.83 226.77 5102.17 227.18 5103.85 176.17 5127.58 177.03 5133.46 368.98 5159.25 369.91 5163 256.34 5191.88 257.39 5196.3 401.61 5226.21 402.7 5228.78 324.74 5254.57 325.67 5261.54 552.91 5287.33 553.84 5290.25 465.3 5310.88 466.05 5316.66 654.88 5339.36 655.71 5343.1 542.14 5368.9 543.07 5376.49 791.06 5403.31 792.03 5408.27 641.89 5426.84 642.57 5430.14 750.47 5465.22 751.75 5467.94 669.3 5505.08 670.65 5515.98 1026.2 5557.24 1027.7 5563.41 841 5610.87 842.72 5615.96 1008.74 5661.35 1010.39 5665.17 894.9 5710.56 896.55 5718.39 1151.8 5757.59 1153.23 5761.02 1049.29 5802.29 1050.79 5808.01 1237.56 5838.96 1238.68 5843.86 1398.47 5883.06 1399.89 5890 1190.09 5939.52 1191.89 5950.15 1538.46 5989.35 1539.89 5994.89 1372.06 6032.03 1373.41 6043.12 1734.91 6092.64 1736.71 6100.15 1509.59 6137.29 1510.94 6142.57 1683.18 6179.71 1684.53 6183.78 1561.35 6230.22 1563.04 6238.12 1820.37 6268.02 1821.46 6272.86 1675.18 6312.07 1676.61 6321.17 1973.38 6366.57 1975.03 6372.17 1805.66 6407.25 1806.93 6418.15 2161.82 6473.86 2163.85 6480.49 1963.68 6527.95 1965.41 6538.52 2310.04 6598.36 2312.22 6603.89 2145.3 6660.3 2147.36 6663.06 2237.29 6698.83 2238.59 6702.69 2121.83 6737.09 2123.09 6744.37 2360.37 6776.01 2361.52 6782.88 2154.31 6848.67 2156.71 7282.62 4518.12 2383.82 1593.25 2407.84 1212.34 2184.52 1026.76 1991.45 992.37 1691.1 1030.43 1450.06 1069.46 1337.49 1080.28 1246.87 1098.66 1040.53 1068.55 830.16 925.08 779.99 894.19 818.16 863.58 813.06 896.86 835.68 900.2 830.57 874.06 852.64 877.32 841.4 950.63 861.27 953.57 844.3 866.95 862.8 869.69 880.32 871.62 873.94 907.94 888.19 909.52 875.4 848.59 873.89 841.53 906.63 844.04 884.62 954.89 899.88 952.99 874.05 796.79 906.99 792.69 904.42 805.39 913.49 853.49 950.42 849.41 970.8 709.47 1001.5 708.49 1004.59 772.94 1032.5 772.06 1037.21 667.36 1062.32 666.56 1068.64 798.04 1096.55 797.15 1104.61 618.05 1133.91 617.12 1137.89 699.94 1160.91 699.21 1165.7 592.78 1193.95 591.89 1202.01 759.13 1237.59 758 1244.33 608.17 1267.35 607.44 1270 662.55 1296.41 661.71 1302.89 518.08 1321.47 517.49 1324.96 589.99 1345.89 589.33 1352.22 448.8 1379.43 447.93 1387.26 610.33 1415.51 609.44 1423.95 422.4 1443.83 421.77 1448.72 523.27 1471.75 522.54 1477.96 385.09 1502.03 384.33"/><polygon class="cls-7" points="2383.82 1594.37 2348.52 1193.96 2017.32 1027.16 1818.12 1012.76 1268.52 1171.16 1065.72 1213.16 861.49 1169.1 615.97 941.55 674.56 895.73 674.56 931.32 707.36 931.32 707.36 895.59 739.36 895.59 739.36 973.99 768.16 973.99 768.16 855.59 820.96 855.59 820.96 895.59 842.11 895.59 842.11 806.26 891.36 806.26 891.36 931.32 913.76 931.32 913.76 761.19 962.11 761.19 962.11 844.39 1000.16 844.39 1000.16 695.59 1035.36 695.59 1035.36 775.59 1067.36 775.59 1067.36 653.99 1096.16 653.99 1096.16 817.19 1128.16 817.19 1128.16 609.19 1161.76 609.19 1161.76 711.99 1188.16 711.99 1188.16 588.39 1220.56 588.39 1220.56 795.99 1261.36 795.99 1261.36 621.99 1287.76 621.99 1287.76 690.39 1318.05 690.39 1318.05 523.59 1339.36 523.59 1339.36 613.59 1363.36 613.59 1363.36 450.39 1394.56 450.39 1394.56 651.99 1426.96 651.99 1426.96 434.79 1449.76 434.79 1449.76 560.79 1476.16 560.79 1476.16 401.19 1503.76 401.19 1503.76 609.99 1528.96 609.99 1528.96 354.39 1555.36 354.39 1555.36 443.19 1586.56 443.19 1586.56 311.19 1617.76 311.19 1617.76 499.59 1642.96 499.59 1642.96 292.39 1665.76 292.39 1665.76 541.99 1691.36 541.99 1691.36 324.39 1731.36 324.39 1731.36 442.79 1763.36 442.79 1763.36 292.39 1811.36 292.39 1811.36 428.39 1851.36 428.39 1851.36 268.39 1883.36 268.39 1883.36 385.19 1912.16 385.19 1912.16 252.39 1947.36 252.39 1947.36 322.79 1976.16 322.79 1976.16 237.99 2022.56 237.99 2022.56 341.99 2056.16 341.99 2056.16 213.99 2083.36 213.99 2083.36 279.59 2110.56 279.59 2110.56 197.99 2171.36 197.99 2171.36 324.39 2204.96 324.39 2204.96 169.19 2241.76 169.19 2241.76 244.39 2280.16 244.39 2280.16 130.79 2311.36 130.79 2311.36 185.19 2349.76 185.19 2349.76 130.79 2392.96 130.79 2392.96 233.19 2424.43 233.19 2424.43 96.39 2473.1 96.39 2473.1 278.79 2512.96 278.79 2512.96 67.59 2568.16 67.59 2568.16 182.79 2608.96 182.79 2608.96 89.19 2661.76 89.19 2661.76 213.99 2704.96 213.99 2704.96 55.59 2769.76 55.59 2769.76 168.39 2805.76 168.39 2805.76 113.19 2848.96 113.19 2848.96 252.39 2894.56 252.39 2894.56 84.39 2928.76 84.39 2928.76 165.99 2960.16 165.99 2960.16 55.59 3000.16 55.59 3000.16 210.79 3033.76 210.79 3033.76 85.99 3072.16 85.99 3072.16 237.99 3108.96 237.99 3108.96 63.59 3147.36 63.59 3147.36 154.79 3188.96 154.79 3188.96 45.99 3228.96 45.99 3228.96 193.19 3267.36 193.19 3267.36 71.59 3302.56 71.59 3302.56 161.19 3344.16 161.19 3344.16 45.99 3392.16 45.99 3392.16 239.59 3425.76 239.59 3425.76 84.39 3472.16 84.39 3472.16 181.99 3510.56 181.99 3510.56 45.99 3552.16 45.99 3552.16 138.79 3576.16 138.79 3576.16 77.99 3600.16 77.99 3600.16 209.19 3633.76 209.19 3633.76 52.39 3678.56 52.39 3678.56 164.39 3720.16 164.39 3720.16 71.59 3761.76 71.59 3761.76 239.59 3798.56 239.59 3798.56 98.79 3832.16 98.79 3832.16 217.19 3870.56 217.19 3870.56 63.59 3908.96 63.59 3908.96 175.59 3945.76 175.59 3945.76 45.99 3988.96 45.99 3988.96 116.39 4020.96 116.39 4020.96 65.19 4049.63 65.19 4049.63 205.99 4076.96 205.99 4076.96 45.99 4113.76 45.99 4113.76 127.59 4153.76 127.59 4153.76 45.99 4184.56 45.99 4184.56 185.19 4212.16 185.19 4212.16 57.99 4245.76 57.99 4245.76 156.39 4278.16 156.39 4278.16 45.99 4314.16 45.99 4314.16 164.79 4347.76 164.79 4347.76 55.59 4377.76 55.59 4377.76 129.99 4402.96 129.99 4402.96 45.99 4428.16 45.99 4428.16 159.99 4448.56 159.99 4448.56 83.19 4476.16 83.19 4476.16 225.99 4501.36 225.99 4501.36 109.59 4528.96 109.59 4528.96 147.99 4555.36 147.99 4555.36 45.99 4594.96 45.99 4594.96 113.19 4622.56 113.19 4622.56 61.59 4656.16 61.59 4656.16 165.99 4683.76 165.99 4683.76 45.99 4719.76 45.99 4719.76 133.59 4743.76 133.59 4743.76 61.59 4779.76 61.59 4779.76 197.19 4801.36 197.19 4801.36 36.39 4832.56 36.39 4832.56 103.59 4856.56 103.59 4856.56 51.99 4899.76 51.99 4899.76 146.79 4917.76 146.79 4917.76 85.59 4948.96 85.59 4948.96 192.39 4974.16 192.39 4974.16 104.79 5019.76 104.79 5019.76 291.99 5041.36 291.99 5041.36 164.79 5079.76 164.79 5079.76 243.99 5092.96 243.99 5092.96 180.39 5120.56 180.39 5120.56 402.39 5150.56 402.39 5150.56 260.79 5184.16 260.79 5184.16 427.59 5218.96 427.59 5218.96 330.39 5248.96 330.39 5248.96 593.19 5278.96 593.19 5278.96 482.79 5302.96 482.79 5302.96 701.19 5329.36 701.19 5329.36 559.59 5359.36 559.59 5359.36 846.39 5390.56 846.39 5390.56 659.19 5412.16 659.19 5412.16 783.99 5452.96 783.99 5452.96 681.19 5496.16 681.19 5496.16 1092.39 5544.16 1092.39 5544.16 859.59 5599.36 859.59 5599.36 1051.59 5652.16 1051.59 5652.16 907.59 5704.96 907.59 5704.96 1202.79 5750.56 1202.79 5750.56 1073.19 5798.56 1073.19 5798.56 1289.19 5834.56 1289.19 5834.56 1473.99 5880.16 1473.99 5880.16 1212.39 5937.76 1212.39 5937.76 1613.19 5983.36 1613.19 5983.36 1403.93 6026.56 1403.93 6026.56 1821.99 6084.16 1821.99 6084.16 1538.79 6127.36 1538.79 6127.36 1737.99 6170.56 1737.99 6170.56 1584.39 6224.57 1584.39 6224.57 1881.99 6259.36 1881.99 6259.36 1699.59 6304.96 1699.59 6304.96 2042.79 6357.76 2042.79 6357.76 1831.59 6398.56 1831.59 6398.56 2241.99 6463.36 2241.99 6463.36 1992.39 6518.56 1992.39 6518.56 2390.94 6588.16 2390.94 6588.16 2182.79 6653.76 2182.79 6653.76 2286.79 6695.36 2286.79 6695.36 2141.19 6735.36 2141.19 6735.36 2415.59 6772.16 2415.59 6772.16 2157.19 6848.67 2157.19 7282.62 4518.12 2383.82 1594.37"/><polygon class="cls-8" points="2383.82 1634.38 2348.52 1193.96 2017.32 1027.16 1818.12 1012.76 1268.52 1171.16 1065.72 1213.16 861.49 1169.1 615.97 941.55 674.56 912.41 674.56 942.08 707.36 947.14 707.36 917.37 739.36 922.31 739.36 987.64 768.16 992.09 768.16 891.93 820.96 891.93 820.96 931.93 842.11 931.93 842.11 842.6 891.36 842.6 891.36 967.66 913.76 967.66 913.76 797.53 962.11 797.53 962.11 880.73 1000.16 880.73 1000.16 731.93 1035.36 731.93 1035.36 811.93 1067.36 811.93 1067.36 690.33 1096.16 690.33 1096.16 853.53 1128.16 853.53 1128.16 645.53 1161.76 645.53 1161.76 748.33 1188.16 748.33 1188.16 624.73 1220.56 624.73 1220.56 832.33 1261.36 832.33 1261.36 658.33 1287.76 658.33 1287.76 726.73 1318.05 726.73 1318.05 559.93 1339.36 559.93 1339.36 649.93 1363.36 649.93 1363.36 486.73 1394.56 486.73 1394.56 688.33 1426.96 688.33 1426.96 471.13 1449.76 471.13 1449.76 597.13 1476.16 597.13 1476.16 437.53 1503.76 437.53 1503.76 646.33 1528.96 646.33 1528.96 390.73 1555.36 390.73 1555.36 479.53 1586.56 479.53 1586.56 347.53 1617.76 347.53 1617.76 535.93 1642.96 535.93 1642.96 328.73 1665.76 328.73 1665.76 578.33 1691.36 578.33 1691.36 360.73 1731.36 360.73 1731.36 479.13 1763.36 479.13 1763.36 328.73 1811.36 328.73 1811.36 464.73 1851.36 464.73 1851.36 304.73 1883.36 304.73 1883.36 421.53 1912.16 421.53 1912.16 288.73 1947.36 288.73 1947.36 359.13 1976.16 359.13 1976.16 274.33 2022.56 274.33 2022.56 378.33 2056.16 378.33 2056.16 250.33 2083.36 250.33 2083.36 315.93 2110.56 315.93 2110.56 234.33 2171.36 234.33 2171.36 360.73 2204.96 360.73 2204.96 205.53 2241.76 205.53 2241.76 280.73 2280.16 280.73 2280.16 167.13 2311.36 167.13 2311.36 221.53 2349.76 221.53 2349.76 167.13 2392.96 167.13 2392.96 269.53 2424.43 269.53 2424.43 132.73 2473.1 132.73 2473.1 315.13 2512.96 315.13 2512.96 103.93 2568.16 103.93 2568.16 219.13 2608.96 219.13 2608.96 125.53 2661.76 125.53 2661.76 250.33 2704.96 250.33 2704.96 91.93 2769.76 91.93 2769.76 204.73 2805.76 204.73 2805.76 149.53 2848.96 149.53 2848.96 288.73 2894.56 288.73 2894.56 120.73 2928.76 120.73 2928.76 202.33 2960.16 202.33 2960.16 91.93 3000.16 91.93 3000.16 247.13 3033.76 247.13 3033.76 122.33 3072.16 122.33 3072.16 274.33 3108.96 274.33 3108.96 99.93 3147.36 99.93 3147.36 191.13 3188.96 191.13 3188.96 82.33 3228.96 82.33 3228.96 229.53 3267.36 229.53 3267.36 107.93 3302.56 107.93 3302.56 197.53 3344.16 197.53 3344.16 82.33 3392.16 82.33 3392.16 275.93 3425.76 275.93 3425.76 120.73 3472.16 120.73 3472.16 218.33 3510.56 218.33 3510.56 82.33 3552.16 82.33 3552.16 175.13 3576.16 175.13 3576.16 114.33 3600.16 114.33 3600.16 245.53 3633.76 245.53 3633.76 88.73 3678.56 88.73 3678.56 200.73 3720.16 200.73 3720.16 107.93 3761.76 107.93 3761.76 275.93 3798.56 275.93 3798.56 135.13 3832.16 135.13 3832.16 253.53 3870.56 253.53 3870.56 99.93 3908.96 99.93 3908.96 211.93 3945.76 211.93 3945.76 82.33 3988.96 82.33 3988.96 152.73 4020.96 152.73 4020.96 101.53 4049.63 101.53 4049.63 242.33 4076.96 242.33 4076.96 82.33 4113.76 82.33 4113.76 163.93 4153.76 163.93 4153.76 82.33 4184.56 82.33 4184.56 221.53 4212.16 221.53 4212.16 94.33 4245.76 94.33 4245.76 192.73 4278.16 192.73 4278.16 82.33 4314.16 82.33 4314.16 201.13 4347.76 201.13 4347.76 91.93 4377.76 91.93 4377.76 166.33 4402.96 166.33 4402.96 82.33 4428.16 82.33 4428.16 196.33 4448.56 196.33 4448.56 119.53 4476.16 119.53 4476.16 262.33 4501.36 262.33 4501.36 145.93 4528.96 145.93 4528.96 184.33 4555.36 184.33 4555.36 82.33 4594.96 82.33 4594.96 149.53 4622.56 149.53 4622.56 97.93 4656.16 97.93 4656.16 202.33 4683.76 202.33 4683.76 82.33 4719.76 82.33 4719.76 169.93 4743.76 169.93 4743.76 97.93 4779.76 97.93 4779.76 233.53 4801.36 233.53 4801.36 72.73 4832.56 72.73 4832.56 139.93 4856.56 139.93 4856.56 88.33 4899.76 88.33 4899.76 183.13 4917.76 183.13 4917.76 121.93 4948.96 121.93 4948.96 228.73 4974.16 228.73 4974.16 141.13 5019.76 141.13 5019.76 328.33 5041.36 328.33 5041.36 201.13 5079.76 201.13 5079.76 280.33 5092.96 280.33 5092.96 216.73 5120.56 216.73 5120.56 438.73 5150.56 438.73 5150.56 297.13 5184.16 297.13 5184.16 463.93 5218.96 463.93 5218.96 366.73 5248.96 366.73 5248.96 629.53 5278.96 629.53 5278.96 519.13 5302.96 519.13 5302.96 737.53 5329.36 737.53 5329.36 595.93 5359.36 595.93 5359.36 882.73 5390.56 882.73 5390.56 695.53 5412.16 695.53 5412.16 820.33 5452.96 820.33 5452.96 717.53 5496.16 717.53 5496.16 1128.73 5544.16 1128.73 5544.16 895.93 5599.36 895.93 5599.36 1087.93 5652.16 1087.93 5652.16 943.93 5704.96 943.93 5704.96 1239.13 5750.56 1239.13 5750.56 1109.53 5798.56 1109.53 5798.56 1325.53 5834.56 1325.53 5834.56 1510.33 5880.16 1510.33 5880.16 1248.73 5937.76 1248.73 5937.76 1649.53 5983.36 1649.53 5983.36 1440.27 6026.56 1440.27 6026.56 1858.33 6084.16 1858.33 6084.16 1575.13 6127.36 1575.13 6127.36 1774.33 6170.56 1774.33 6170.56 1620.73 6224.57 1620.73 6224.57 1918.33 6259.36 1918.33 6259.36 1735.93 6304.96 1735.93 6304.96 2079.13 6357.76 2079.13 6357.76 1867.93 6398.56 1867.93 6398.56 2278.33 6463.36 2278.33 6463.36 2028.73 6518.56 2028.73 6518.56 2427.28 6588.16 2427.28 6588.16 2219.13 6653.76 2219.13 6653.76 2323.13 6695.36 2323.13 6695.36 2177.53 6735.36 2177.53 6735.36 2451.93 6772.16 2451.93 6772.16 2193.53 6855.43 2193.53 7282.62 4518.12 2383.82 1634.38"/><polygon class="cls-9" points="2383.82 1674.39 2348.52 1193.96 2017.32 1027.16 1818.12 1012.76 1268.52 1171.16 1065.72 1213.16 861.49 1169.1 615.97 941.55 674.56 929.1 674.56 952.83 707.36 962.96 707.36 939.14 739.36 949.03 739.36 1001.3 768.16 1010.19 768.16 928.27 820.96 928.27 820.96 968.27 842.11 968.27 842.11 878.94 891.36 878.94 891.36 1004 913.76 1004 913.76 833.87 962.11 833.87 962.11 917.07 1000.16 917.07 1000.16 768.27 1035.36 768.27 1035.36 848.27 1067.36 848.27 1067.36 726.67 1096.16 726.67 1096.16 889.87 1128.16 889.87 1128.16 681.87 1161.76 681.87 1161.76 784.67 1188.16 784.67 1188.16 661.07 1220.56 661.07 1220.56 868.67 1261.36 868.67 1261.36 694.67 1287.76 694.67 1287.76 763.07 1318.05 763.07 1318.05 596.27 1339.36 596.27 1339.36 686.27 1363.36 686.27 1363.36 523.07 1394.56 523.07 1394.56 724.67 1426.96 724.67 1426.96 507.47 1449.76 507.47 1449.76 633.47 1476.16 633.47 1476.16 473.87 1503.76 473.87 1503.76 682.67 1528.96 682.67 1528.96 427.07 1555.36 427.07 1555.36 515.87 1586.56 515.87 1586.56 383.87 1617.76 383.87 1617.76 572.27 1642.96 572.27 1642.96 365.07 1665.76 365.07 1665.76 614.67 1691.36 614.67 1691.36 397.07 1731.36 397.07 1731.36 515.47 1763.36 515.47 1763.36 365.07 1811.36 365.07 1811.36 501.07 1851.36 501.07 1851.36 341.07 1883.36 341.07 1883.36 457.87 1912.16 457.87 1912.16 325.07 1947.36 325.07 1947.36 395.47 1976.16 395.47 1976.16 310.67 2022.56 310.67 2022.56 414.67 2056.16 414.67 2056.16 286.67 2083.36 286.67 2083.36 352.27 2110.56 352.27 2110.56 270.67 2171.36 270.67 2171.36 397.07 2204.96 397.07 2204.96 241.87 2241.76 241.87 2241.76 317.07 2280.16 317.07 2280.16 203.47 2311.36 203.47 2311.36 257.87 2349.76 257.87 2349.76 203.47 2392.96 203.47 2392.96 305.87 2424.43 305.87 2424.43 169.07 2473.1 169.07 2473.1 351.47 2512.96 351.47 2512.96 140.27 2568.16 140.27 2568.16 255.47 2608.96 255.47 2608.96 161.87 2661.76 161.87 2661.76 286.67 2704.96 286.67 2704.96 128.27 2769.76 128.27 2769.76 241.07 2805.76 241.07 2805.76 185.87 2848.96 185.87 2848.96 325.07 2894.56 325.07 2894.56 157.07 2928.76 157.07 2928.76 238.67 2960.16 238.67 2960.16 128.27 3000.16 128.27 3000.16 283.47 3033.76 283.47 3033.76 158.67 3072.16 158.67 3072.16 310.67 3108.96 310.67 3108.96 136.27 3147.36 136.27 3147.36 227.47 3188.96 227.47 3188.96 118.67 3228.96 118.67 3228.96 265.87 3267.36 265.87 3267.36 144.27 3302.56 144.27 3302.56 233.87 3344.16 233.87 3344.16 118.67 3392.16 118.67 3392.16 312.27 3425.76 312.27 3425.76 157.07 3472.16 157.07 3472.16 254.67 3510.56 254.67 3510.56 118.67 3552.16 118.67 3552.16 211.47 3576.16 211.47 3576.16 150.67 3600.16 150.67 3600.16 281.87 3633.76 281.87 3633.76 125.07 3678.56 125.07 3678.56 237.07 3720.16 237.07 3720.16 144.27 3761.76 144.27 3761.76 312.27 3798.56 312.27 3798.56 171.47 3832.16 171.47 3832.16 289.87 3870.56 289.87 3870.56 136.27 3908.96 136.27 3908.96 248.27 3945.76 248.27 3945.76 118.67 3988.96 118.67 3988.96 189.07 4020.96 189.07 4020.96 137.87 4049.63 137.87 4049.63 278.67 4076.96 278.67 4076.96 118.67 4113.76 118.67 4113.76 200.27 4153.76 200.27 4153.76 118.67 4184.56 118.67 4184.56 257.87 4212.16 257.87 4212.16 130.67 4245.76 130.67 4245.76 229.07 4278.16 229.07 4278.16 118.67 4314.16 118.67 4314.16 237.47 4347.76 237.47 4347.76 128.27 4377.76 128.27 4377.76 202.67 4402.96 202.67 4402.96 118.67 4428.16 118.67 4428.16 232.67 4448.56 232.67 4448.56 155.87 4476.16 155.87 4476.16 298.67 4501.36 298.67 4501.36 182.27 4528.96 182.27 4528.96 220.67 4555.36 220.67 4555.36 118.67 4594.96 118.67 4594.96 185.87 4622.56 185.87 4622.56 134.27 4656.16 134.27 4656.16 238.67 4683.76 238.67 4683.76 118.67 4719.76 118.67 4719.76 206.27 4743.76 206.27 4743.76 134.27 4779.76 134.27 4779.76 269.87 4801.36 269.87 4801.36 109.07 4832.56 109.07 4832.56 176.27 4856.56 176.27 4856.56 124.67 4899.76 124.67 4899.76 219.47 4917.76 219.47 4917.76 158.27 4948.96 158.27 4948.96 265.07 4974.16 265.07 4974.16 177.47 5019.76 177.47 5019.76 364.67 5041.36 364.67 5041.36 237.47 5079.76 237.47 5079.76 316.67 5092.96 316.67 5092.96 253.07 5120.56 253.07 5120.56 475.07 5150.56 475.07 5150.56 333.47 5184.16 333.47 5184.16 500.27 5218.96 500.27 5218.96 403.07 5248.96 403.07 5248.96 665.87 5278.96 665.87 5278.96 555.47 5302.96 555.47 5302.96 773.87 5329.36 773.87 5329.36 632.27 5359.36 632.27 5359.36 919.07 5390.56 919.07 5390.56 731.87 5412.16 731.87 5412.16 856.67 5452.96 856.67 5452.96 753.87 5496.16 753.87 5496.16 1165.07 5544.16 1165.07 5544.16 932.27 5599.36 932.27 5599.36 1124.27 5652.16 1124.27 5652.16 980.27 5704.96 980.27 5704.96 1275.47 5750.56 1275.47 5750.56 1145.87 5798.56 1145.87 5798.56 1361.87 5834.56 1361.87 5834.56 1546.67 5880.16 1546.67 5880.16 1285.07 5937.76 1285.07 5937.76 1685.87 5983.36 1685.87 5983.36 1476.61 6026.56 1476.61 6026.56 1894.67 6084.16 1894.67 6084.16 1611.47 6127.36 1611.47 6127.36 1810.67 6170.56 1810.67 6170.56 1657.07 6224.57 1657.07 6224.57 1954.67 6259.36 1954.67 6259.36 1772.27 6304.96 1772.27 6304.96 2115.47 6357.76 2115.47 6357.76 1904.27 6398.56 1904.27 6398.56 2314.67 6463.36 2314.67 6463.36 2065.07 6518.56 2065.07 6518.56 2463.62 6588.16 2463.62 6588.16 2255.47 6653.76 2255.47 6653.76 2359.47 6695.36 2359.47 6695.36 2213.87 6735.36 2213.87 6735.36 2488.27 6772.16 2488.27 6772.16 2229.87 6862.19 2229.87 7282.62 4518.12 2383.82 1674.39"/><polygon class="cls-10" points="2383.82 1714.4 2348.52 1193.96 2017.32 1027.16 1818.12 1012.76 1268.52 1171.16 1065.72 1213.16 861.49 1169.1 615.97 941.55 674.56 945.79 674.56 963.59 707.36 978.78 707.36 960.92 739.36 975.75 739.36 1014.95 768.16 1028.3 768.16 964.61 820.96 964.61 820.96 1004.61 842.11 1004.61 842.11 915.28 891.36 915.28 891.36 1040.34 913.76 1040.34 913.76 870.21 962.11 870.21 962.11 953.41 1000.16 953.41 1000.16 804.61 1035.36 804.61 1035.36 884.61 1067.36 884.61 1067.36 763.01 1096.16 763.01 1096.16 926.21 1128.16 926.21 1128.16 718.21 1161.76 718.21 1161.76 821.01 1188.16 821.01 1188.16 697.41 1220.56 697.41 1220.56 905.01 1261.36 905.01 1261.36 731.01 1287.76 731.01 1287.76 799.41 1318.05 799.41 1318.05 632.61 1339.36 632.61 1339.36 722.61 1363.36 722.61 1363.36 559.41 1394.56 559.41 1394.56 761.01 1426.96 761.01 1426.96 543.81 1449.76 543.81 1449.76 669.81 1476.16 669.81 1476.16 510.21 1503.76 510.21 1503.76 719.01 1528.96 719.01 1528.96 463.41 1555.36 463.41 1555.36 552.21 1586.56 552.21 1586.56 420.21 1617.76 420.21 1617.76 608.61 1642.96 608.61 1642.96 401.41 1665.76 401.41 1665.76 651.01 1691.36 651.01 1691.36 433.41 1731.36 433.41 1731.36 551.81 1763.36 551.81 1763.36 401.41 1811.36 401.41 1811.36 537.41 1851.36 537.41 1851.36 377.41 1883.36 377.41 1883.36 494.21 1912.16 494.21 1912.16 361.41 1947.36 361.41 1947.36 431.81 1976.16 431.81 1976.16 347.01 2022.56 347.01 2022.56 451.01 2056.16 451.01 2056.16 323.01 2083.36 323.01 2083.36 388.61 2110.56 388.61 2110.56 307.01 2171.36 307.01 2171.36 433.41 2204.96 433.41 2204.96 278.21 2241.76 278.21 2241.76 353.41 2280.16 353.41 2280.16 239.81 2311.36 239.81 2311.36 294.21 2349.76 294.21 2349.76 239.81 2392.96 239.81 2392.96 342.21 2424.43 342.21 2424.43 205.41 2473.1 205.41 2473.1 387.81 2512.96 387.81 2512.96 176.61 2568.16 176.61 2568.16 291.81 2608.96 291.81 2608.96 198.21 2661.76 198.21 2661.76 323.01 2704.96 323.01 2704.96 164.61 2769.76 164.61 2769.76 277.41 2805.76 277.41 2805.76 222.21 2848.96 222.21 2848.96 361.41 2894.56 361.41 2894.56 193.41 2928.76 193.41 2928.76 275.01 2960.16 275.01 2960.16 164.61 3000.16 164.61 3000.16 319.81 3033.76 319.81 3033.76 195.01 3072.16 195.01 3072.16 347.01 3108.96 347.01 3108.96 172.61 3147.36 172.61 3147.36 263.81 3188.96 263.81 3188.96 155.01 3228.96 155.01 3228.96 302.21 3267.36 302.21 3267.36 180.61 3302.56 180.61 3302.56 270.21 3344.16 270.21 3344.16 155.01 3392.16 155.01 3392.16 348.61 3425.76 348.61 3425.76 193.41 3472.16 193.41 3472.16 291.01 3510.56 291.01 3510.56 155.01 3552.16 155.01 3552.16 247.81 3576.16 247.81 3576.16 187.01 3600.16 187.01 3600.16 318.21 3633.76 318.21 3633.76 161.41 3678.56 161.41 3678.56 273.41 3720.16 273.41 3720.16 180.61 3761.76 180.61 3761.76 348.61 3798.56 348.61 3798.56 207.81 3832.16 207.81 3832.16 326.21 3870.56 326.21 3870.56 172.61 3908.96 172.61 3908.96 284.61 3945.76 284.61 3945.76 155.01 3988.96 155.01 3988.96 225.41 4020.96 225.41 4020.96 174.21 4049.63 174.21 4049.63 315.01 4076.96 315.01 4076.96 155.01 4113.76 155.01 4113.76 236.61 4153.76 236.61 4153.76 155.01 4184.56 155.01 4184.56 294.21 4212.16 294.21 4212.16 167.01 4245.76 167.01 4245.76 265.41 4278.16 265.41 4278.16 155.01 4314.16 155.01 4314.16 273.81 4347.76 273.81 4347.76 164.61 4377.76 164.61 4377.76 239.01 4402.96 239.01 4402.96 155.01 4428.16 155.01 4428.16 269.01 4448.56 269.01 4448.56 192.21 4476.16 192.21 4476.16 335.01 4501.36 335.01 4501.36 218.61 4528.96 218.61 4528.96 257.01 4555.36 257.01 4555.36 155.01 4594.96 155.01 4594.96 222.21 4622.56 222.21 4622.56 170.61 4656.16 170.61 4656.16 275.01 4683.76 275.01 4683.76 155.01 4719.76 155.01 4719.76 242.61 4743.76 242.61 4743.76 170.61 4779.76 170.61 4779.76 306.21 4801.36 306.21 4801.36 145.41 4832.56 145.41 4832.56 212.61 4856.56 212.61 4856.56 161.01 4899.76 161.01 4899.76 255.81 4917.76 255.81 4917.76 194.61 4948.96 194.61 4948.96 301.41 4974.16 301.41 4974.16 213.81 5019.76 213.81 5019.76 401.01 5041.36 401.01 5041.36 273.81 5079.76 273.81 5079.76 353.01 5092.96 353.01 5092.96 289.41 5120.56 289.41 5120.56 511.41 5150.56 511.41 5150.56 369.81 5184.16 369.81 5184.16 536.61 5218.96 536.61 5218.96 439.41 5248.96 439.41 5248.96 702.21 5278.96 702.21 5278.96 591.81 5302.96 591.81 5302.96 810.21 5329.36 810.21 5329.36 668.61 5359.36 668.61 5359.36 955.41 5390.56 955.41 5390.56 768.21 5412.16 768.21 5412.16 893.01 5452.96 893.01 5452.96 790.21 5496.16 790.21 5496.16 1201.41 5544.16 1201.41 5544.16 968.61 5599.36 968.61 5599.36 1160.61 5652.16 1160.61 5652.16 1016.61 5704.96 1016.61 5704.96 1311.81 5750.56 1311.81 5750.56 1182.21 5798.56 1182.21 5798.56 1398.21 5834.56 1398.21 5834.56 1583.01 5880.16 1583.01 5880.16 1321.41 5937.76 1321.41 5937.76 1722.21 5983.36 1722.21 5983.36 1512.95 6026.56 1512.95 6026.56 1931.01 6084.16 1931.01 6084.16 1647.81 6127.36 1647.81 6127.36 1847.01 6170.56 1847.01 6170.56 1693.41 6224.57 1693.41 6224.57 1991.01 6259.36 1991.01 6259.36 1808.61 6304.96 1808.61 6304.96 2151.81 6357.76 2151.81 6357.76 1940.61 6398.56 1940.61 6398.56 2351.01 6463.36 2351.01 6463.36 2101.41 6518.56 2101.41 6518.56 2499.96 6588.16 2499.96 6588.16 2291.81 6653.76 2291.81 6653.76 2395.81 6695.36 2395.81 6695.36 2250.21 6735.36 2250.21 6735.36 2524.61 6772.16 2524.61 6772.16 2266.21 6868.95 2266.21 7282.62 4518.12 2383.82 1714.4"/><polygon class="cls-11" points="2383.82 1754.41 2348.52 1193.96 2017.32 1027.16 1818.12 1012.76 1268.52 1171.16 1065.72 1213.16 861.49 1169.1 615.97 941.55 674.56 962.48 674.56 974.34 707.36 994.61 707.36 982.7 739.36 1002.47 739.36 1028.6 768.16 1046.4 768.16 1000.95 820.96 1000.95 820.96 1040.95 842.11 1040.95 842.11 951.62 891.36 951.62 891.36 1076.68 913.76 1076.68 913.76 906.55 962.11 906.55 962.11 989.75 1000.16 989.75 1000.16 840.95 1035.36 840.95 1035.36 920.95 1067.36 920.95 1067.36 799.35 1096.16 799.35 1096.16 962.55 1128.16 962.55 1128.16 754.55 1161.76 754.55 1161.76 857.35 1188.16 857.35 1188.16 733.75 1220.56 733.75 1220.56 941.35 1261.36 941.35 1261.36 767.35 1287.76 767.35 1287.76 835.75 1318.05 835.75 1318.05 668.95 1339.36 668.95 1339.36 758.95 1363.36 758.95 1363.36 595.75 1394.56 595.75 1394.56 797.35 1426.96 797.35 1426.96 580.15 1449.76 580.15 1449.76 706.15 1476.16 706.15 1476.16 546.55 1503.76 546.55 1503.76 755.35 1528.96 755.35 1528.96 499.75 1555.36 499.75 1555.36 588.55 1586.56 588.55 1586.56 456.55 1617.76 456.55 1617.76 644.95 1642.96 644.95 1642.96 437.75 1665.76 437.75 1665.76 687.35 1691.36 687.35 1691.36 469.75 1731.36 469.75 1731.36 588.15 1763.36 588.15 1763.36 437.75 1811.36 437.75 1811.36 573.75 1851.36 573.75 1851.36 413.75 1883.36 413.75 1883.36 530.55 1912.16 530.55 1912.16 397.75 1947.36 397.75 1947.36 468.15 1976.16 468.15 1976.16 383.35 2022.56 383.35 2022.56 487.35 2056.16 487.35 2056.16 359.35 2083.36 359.35 2083.36 424.95 2110.56 424.95 2110.56 343.35 2171.36 343.35 2171.36 469.75 2204.96 469.75 2204.96 314.55 2241.76 314.55 2241.76 389.75 2280.16 389.75 2280.16 276.15 2311.36 276.15 2311.36 330.55 2349.76 330.55 2349.76 276.15 2392.96 276.15 2392.96 378.55 2424.43 378.55 2424.43 241.75 2473.1 241.75 2473.1 424.15 2512.96 424.15 2512.96 212.95 2568.16 212.95 2568.16 328.15 2608.96 328.15 2608.96 234.55 2661.76 234.55 2661.76 359.35 2704.96 359.35 2704.96 200.95 2769.76 200.95 2769.76 313.75 2805.76 313.75 2805.76 258.55 2848.96 258.55 2848.96 397.75 2894.56 397.75 2894.56 229.75 2928.76 229.75 2928.76 311.35 2960.16 311.35 2960.16 200.95 3000.16 200.95 3000.16 356.15 3033.76 356.15 3033.76 231.35 3072.16 231.35 3072.16 383.35 3108.96 383.35 3108.96 208.95 3147.36 208.95 3147.36 300.15 3188.96 300.15 3188.96 191.35 3228.96 191.35 3228.96 338.55 3267.36 338.55 3267.36 216.95 3302.56 216.95 3302.56 306.55 3344.16 306.55 3344.16 191.35 3392.16 191.35 3392.16 384.95 3425.76 384.95 3425.76 229.75 3472.16 229.75 3472.16 327.35 3510.56 327.35 3510.56 191.35 3552.16 191.35 3552.16 284.15 3576.16 284.15 3576.16 223.35 3600.16 223.35 3600.16 354.55 3633.76 354.55 3633.76 197.75 3678.56 197.75 3678.56 309.75 3720.16 309.75 3720.16 216.95 3761.76 216.95 3761.76 384.95 3798.56 384.95 3798.56 244.15 3832.16 244.15 3832.16 362.55 3870.56 362.55 3870.56 208.95 3908.96 208.95 3908.96 320.95 3945.76 320.95 3945.76 191.35 3988.96 191.35 3988.96 261.75 4020.96 261.75 4020.96 210.55 4049.63 210.55 4049.63 351.35 4076.96 351.35 4076.96 191.35 4113.76 191.35 4113.76 272.95 4153.76 272.95 4153.76 191.35 4184.56 191.35 4184.56 330.55 4212.16 330.55 4212.16 203.35 4245.76 203.35 4245.76 301.75 4278.16 301.75 4278.16 191.35 4314.16 191.35 4314.16 310.15 4347.76 310.15 4347.76 200.95 4377.76 200.95 4377.76 275.35 4402.96 275.35 4402.96 191.35 4428.16 191.35 4428.16 305.35 4448.56 305.35 4448.56 228.55 4476.16 228.55 4476.16 371.35 4501.36 371.35 4501.36 254.95 4528.96 254.95 4528.96 293.35 4555.36 293.35 4555.36 191.35 4594.96 191.35 4594.96 258.55 4622.56 258.55 4622.56 206.95 4656.16 206.95 4656.16 311.35 4683.76 311.35 4683.76 191.35 4719.76 191.35 4719.76 278.95 4743.76 278.95 4743.76 206.95 4779.76 206.95 4779.76 342.55 4801.36 342.55 4801.36 181.75 4832.56 181.75 4832.56 248.95 4856.56 248.95 4856.56 197.35 4899.76 197.35 4899.76 292.15 4917.76 292.15 4917.76 230.95 4948.96 230.95 4948.96 337.75 4974.16 337.75 4974.16 250.15 5019.76 250.15 5019.76 437.35 5041.36 437.35 5041.36 310.15 5079.76 310.15 5079.76 389.35 5092.96 389.35 5092.96 325.75 5120.56 325.75 5120.56 547.75 5150.56 547.75 5150.56 406.15 5184.16 406.15 5184.16 572.95 5218.96 572.95 5218.96 475.75 5248.96 475.75 5248.96 738.55 5278.96 738.55 5278.96 628.15 5302.96 628.15 5302.96 846.55 5329.36 846.55 5329.36 704.95 5359.36 704.95 5359.36 991.75 5390.56 991.75 5390.56 804.55 5412.16 804.55 5412.16 929.35 5452.96 929.35 5452.96 826.55 5496.16 826.55 5496.16 1237.75 5544.16 1237.75 5544.16 1004.95 5599.36 1004.95 5599.36 1196.95 5652.16 1196.95 5652.16 1052.95 5704.96 1052.95 5704.96 1348.15 5750.56 1348.15 5750.56 1218.55 5798.56 1218.55 5798.56 1434.55 5834.56 1434.55 5834.56 1619.35 5880.16 1619.35 5880.16 1357.75 5937.76 1357.75 5937.76 1758.55 5983.36 1758.55 5983.36 1549.29 6026.56 1549.29 6026.56 1967.35 6084.16 1967.35 6084.16 1684.15 6127.36 1684.15 6127.36 1883.35 6170.56 1883.35 6170.56 1729.75 6224.57 1729.75 6224.57 2027.35 6259.36 2027.35 6259.36 1844.95 6304.96 1844.95 6304.96 2188.15 6357.76 2188.15 6357.76 1976.95 6398.56 1976.95 6398.56 2387.35 6463.36 2387.35 6463.36 2137.75 6518.56 2137.75 6518.56 2536.3 6588.16 2536.3 6588.16 2328.15 6653.76 2328.15 6653.76 2432.15 6695.36 2432.15 6695.36 2286.55 6735.36 2286.55 6735.36 2560.95 6772.16 2560.95 6772.16 2302.55 6875.71 2302.55 7282.62 4518.12 2383.82 1754.41"/><polygon class="cls-12" points="2383.82 1794.42 2348.52 1193.96 2017.32 1027.16 1818.12 1012.76 1268.52 1171.16 1065.72 1213.16 861.49 1169.1 615.97 941.55 674.56 979.17 674.56 985.1 707.36 1010.43 707.36 1004.47 739.36 1029.19 739.36 1042.26 768.16 1064.5 768.16 1037.29 820.96 1037.29 820.96 1077.29 842.11 1077.29 842.11 987.96 891.36 987.96 891.36 1113.02 913.76 1113.02 913.76 942.89 962.11 942.89 962.11 1026.09 1000.16 1026.09 1000.16 877.29 1035.36 877.29 1035.36 957.29 1067.36 957.29 1067.36 835.69 1096.16 835.69 1096.16 998.89 1128.16 998.89 1128.16 790.89 1161.76 790.89 1161.76 893.69 1188.16 893.69 1188.16 770.09 1220.56 770.09 1220.56 977.69 1261.36 977.69 1261.36 803.69 1287.76 803.69 1287.76 872.09 1318.05 872.09 1318.05 705.29 1339.36 705.29 1339.36 795.29 1363.36 795.29 1363.36 632.09 1394.56 632.09 1394.56 833.69 1426.96 833.69 1426.96 616.49 1449.76 616.49 1449.76 742.49 1476.16 742.49 1476.16 582.89 1503.76 582.89 1503.76 791.69 1528.96 791.69 1528.96 536.09 1555.36 536.09 1555.36 624.89 1586.56 624.89 1586.56 492.89 1617.76 492.89 1617.76 681.29 1642.96 681.29 1642.96 474.09 1665.76 474.09 1665.76 723.69 1691.36 723.69 1691.36 506.09 1731.36 506.09 1731.36 624.49 1763.36 624.49 1763.36 474.09 1811.36 474.09 1811.36 610.09 1851.36 610.09 1851.36 450.09 1883.36 450.09 1883.36 566.89 1912.16 566.89 1912.16 434.09 1947.36 434.09 1947.36 504.49 1976.16 504.49 1976.16 419.69 2022.56 419.69 2022.56 523.69 2056.16 523.69 2056.16 395.69 2083.36 395.69 2083.36 461.29 2110.56 461.29 2110.56 379.69 2171.36 379.69 2171.36 506.09 2204.96 506.09 2204.96 350.89 2241.76 350.89 2241.76 426.09 2280.16 426.09 2280.16 312.49 2311.36 312.49 2311.36 366.89 2349.76 366.89 2349.76 312.49 2392.96 312.49 2392.96 414.89 2424.43 414.89 2424.43 278.09 2473.1 278.09 2473.1 460.49 2512.96 460.49 2512.96 249.29 2568.16 249.29 2568.16 364.49 2608.96 364.49 2608.96 270.89 2661.76 270.89 2661.76 395.69 2704.96 395.69 2704.96 237.29 2769.76 237.29 2769.76 350.09 2805.76 350.09 2805.76 294.89 2848.96 294.89 2848.96 434.09 2894.56 434.09 2894.56 266.09 2928.76 266.09 2928.76 347.69 2960.16 347.69 2960.16 237.29 3000.16 237.29 3000.16 392.49 3033.76 392.49 3033.76 267.69 3072.16 267.69 3072.16 419.69 3108.96 419.69 3108.96 245.29 3147.36 245.29 3147.36 336.49 3188.96 336.49 3188.96 227.69 3228.96 227.69 3228.96 374.89 3267.36 374.89 3267.36 253.29 3302.56 253.29 3302.56 342.89 3344.16 342.89 3344.16 227.69 3392.16 227.69 3392.16 421.29 3425.76 421.29 3425.76 266.09 3472.16 266.09 3472.16 363.69 3510.56 363.69 3510.56 227.69 3552.16 227.69 3552.16 320.49 3576.16 320.49 3576.16 259.69 3600.16 259.69 3600.16 390.89 3633.76 390.89 3633.76 234.09 3678.56 234.09 3678.56 346.09 3720.16 346.09 3720.16 253.29 3761.76 253.29 3761.76 421.29 3798.56 421.29 3798.56 280.49 3832.16 280.49 3832.16 398.89 3870.56 398.89 3870.56 245.29 3908.96 245.29 3908.96 357.29 3945.76 357.29 3945.76 227.69 3988.96 227.69 3988.96 298.09 4020.96 298.09 4020.96 246.89 4049.63 246.89 4049.63 387.69 4076.96 387.69 4076.96 227.69 4113.76 227.69 4113.76 309.29 4153.76 309.29 4153.76 227.69 4184.56 227.69 4184.56 366.89 4212.16 366.89 4212.16 239.69 4245.76 239.69 4245.76 338.09 4278.16 338.09 4278.16 227.69 4314.16 227.69 4314.16 346.49 4347.76 346.49 4347.76 237.29 4377.76 237.29 4377.76 311.69 4402.96 311.69 4402.96 227.69 4428.16 227.69 4428.16 341.69 4448.56 341.69 4448.56 264.89 4476.16 264.89 4476.16 407.69 4501.36 407.69 4501.36 291.29 4528.96 291.29 4528.96 329.69 4555.36 329.69 4555.36 227.69 4594.96 227.69 4594.96 294.89 4622.56 294.89 4622.56 243.29 4656.16 243.29 4656.16 347.69 4683.76 347.69 4683.76 227.69 4719.76 227.69 4719.76 315.29 4743.76 315.29 4743.76 243.29 4779.76 243.29 4779.76 378.89 4801.36 378.89 4801.36 218.09 4832.56 218.09 4832.56 285.29 4856.56 285.29 4856.56 233.69 4899.76 233.69 4899.76 328.49 4917.76 328.49 4917.76 267.29 4948.96 267.29 4948.96 374.09 4974.16 374.09 4974.16 286.49 5019.76 286.49 5019.76 473.69 5041.36 473.69 5041.36 346.49 5079.76 346.49 5079.76 425.69 5092.96 425.69 5092.96 362.09 5120.56 362.09 5120.56 584.09 5150.56 584.09 5150.56 442.49 5184.16 442.49 5184.16 609.29 5218.96 609.29 5218.96 512.09 5248.96 512.09 5248.96 774.89 5278.96 774.89 5278.96 664.49 5302.96 664.49 5302.96 882.89 5329.36 882.89 5329.36 741.29 5359.36 741.29 5359.36 1028.09 5390.56 1028.09 5390.56 840.89 5412.16 840.89 5412.16 965.69 5452.96 965.69 5452.96 862.89 5496.16 862.89 5496.16 1274.09 5544.16 1274.09 5544.16 1041.29 5599.36 1041.29 5599.36 1233.29 5652.16 1233.29 5652.16 1089.29 5704.96 1089.29 5704.96 1384.49 5750.56 1384.49 5750.56 1254.89 5798.56 1254.89 5798.56 1470.89 5834.56 1470.89 5834.56 1655.69 5880.16 1655.69 5880.16 1394.09 5937.76 1394.09 5937.76 1794.89 5983.36 1794.89 5983.36 1585.63 6026.56 1585.63 6026.56 2003.69 6084.16 2003.69 6084.16 1720.49 6127.36 1720.49 6127.36 1919.69 6170.56 1919.69 6170.56 1766.09 6224.57 1766.09 6224.57 2063.69 6259.36 2063.69 6259.36 1881.29 6304.96 1881.29 6304.96 2224.49 6357.76 2224.49 6357.76 2013.29 6398.56 2013.29 6398.56 2423.69 6463.36 2423.69 6463.36 2174.09 6518.56 2174.09 6518.56 2572.64 6588.16 2572.64 6588.16 2364.49 6653.76 2364.49 6653.76 2468.49 6695.36 2468.49 6695.36 2322.89 6735.36 2322.89 6735.36 2597.29 6772.16 2597.29 6772.16 2338.89 6882.47 2338.89 7282.62 4518.12 2383.82 1794.42"/><polygon class="cls-13" points="2383.82 1834.43 2348.52 1193.96 2017.32 1027.16 1818.12 1012.76 1268.52 1171.16 1065.72 1213.16 861.49 1169.1 615.97 941.55 674.56 995.86 674.56 995.86 707.36 1026.25 707.36 1026.25 739.36 1055.91 739.36 1055.91 768.16 1082.6 768.16 1073.63 820.96 1073.63 820.96 1113.63 842.11 1113.63 842.11 1024.3 891.36 1024.3 891.36 1149.36 913.76 1149.36 913.76 979.23 962.11 979.23 962.11 1062.43 1000.16 1062.43 1000.16 913.63 1035.36 913.63 1035.36 993.63 1067.36 993.63 1067.36 872.03 1096.16 872.03 1096.16 1035.23 1128.16 1035.23 1128.16 827.23 1161.76 827.23 1161.76 930.03 1188.16 930.03 1188.16 806.43 1220.56 806.43 1220.56 1014.03 1261.36 1014.03 1261.36 840.03 1287.76 840.03 1287.76 908.43 1318.05 908.43 1318.05 741.63 1339.36 741.63 1339.36 831.63 1363.36 831.63 1363.36 668.43 1394.56 668.43 1394.56 870.03 1426.96 870.03 1426.96 652.83 1449.76 652.83 1449.76 778.83 1476.16 778.83 1476.16 619.23 1503.76 619.23 1503.76 828.03 1528.96 828.03 1528.96 572.43 1555.36 572.43 1555.36 661.23 1586.56 661.23 1586.56 529.23 1617.76 529.23 1617.76 717.63 1642.96 717.63 1642.96 510.43 1665.76 510.43 1665.76 760.03 1691.36 760.03 1691.36 542.43 1731.36 542.43 1731.36 660.83 1763.36 660.83 1763.36 510.43 1811.36 510.43 1811.36 646.43 1851.36 646.43 1851.36 486.43 1883.36 486.43 1883.36 603.23 1912.16 603.23 1912.16 470.43 1947.36 470.43 1947.36 540.83 1976.16 540.83 1976.16 456.03 2022.56 456.03 2022.56 560.03 2056.16 560.03 2056.16 432.03 2083.36 432.03 2083.36 497.63 2110.56 497.63 2110.56 416.03 2171.36 416.03 2171.36 542.43 2204.96 542.43 2204.96 387.23 2241.76 387.23 2241.76 462.43 2280.16 462.43 2280.16 348.83 2311.36 348.83 2311.36 403.23 2349.76 403.23 2349.76 348.83 2392.96 348.83 2392.96 451.23 2424.43 451.23 2424.43 314.43 2473.1 314.43 2473.1 496.83 2512.96 496.83 2512.96 285.63 2568.16 285.63 2568.16 400.83 2608.96 400.83 2608.96 307.23 2661.76 307.23 2661.76 432.03 2704.96 432.03 2704.96 273.63 2769.76 273.63 2769.76 386.43 2805.76 386.43 2805.76 331.23 2848.96 331.23 2848.96 470.43 2894.56 470.43 2894.56 302.43 2928.76 302.43 2928.76 384.03 2960.16 384.03 2960.16 273.63 3000.16 273.63 3000.16 428.83 3033.76 428.83 3033.76 304.03 3072.16 304.03 3072.16 456.03 3108.96 456.03 3108.96 281.63 3147.36 281.63 3147.36 372.83 3188.96 372.83 3188.96 264.03 3228.96 264.03 3228.96 411.23 3267.36 411.23 3267.36 289.63 3302.56 289.63 3302.56 379.23 3344.16 379.23 3344.16 264.03 3392.16 264.03 3392.16 457.63 3425.76 457.63 3425.76 302.43 3472.16 302.43 3472.16 400.03 3510.56 400.03 3510.56 264.03 3552.16 264.03 3552.16 356.83 3576.16 356.83 3576.16 296.03 3600.16 296.03 3600.16 427.23 3633.76 427.23 3633.76 270.43 3678.56 270.43 3678.56 382.43 3720.16 382.43 3720.16 289.63 3761.76 289.63 3761.76 457.63 3798.56 457.63 3798.56 316.83 3832.16 316.83 3832.16 435.23 3870.56 435.23 3870.56 281.63 3908.96 281.63 3908.96 393.63 3945.76 393.63 3945.76 264.03 3988.96 264.03 3988.96 334.43 4020.96 334.43 4020.96 283.23 4049.63 283.23 4049.63 424.03 4076.96 424.03 4076.96 264.03 4113.76 264.03 4113.76 345.63 4153.76 345.63 4153.76 264.03 4184.56 264.03 4184.56 403.23 4212.16 403.23 4212.16 276.03 4245.76 276.03 4245.76 374.43 4278.16 374.43 4278.16 264.03 4314.16 264.03 4314.16 382.83 4347.76 382.83 4347.76 273.63 4377.76 273.63 4377.76 348.03 4402.96 348.03 4402.96 264.03 4428.16 264.03 4428.16 378.03 4448.56 378.03 4448.56 301.23 4476.16 301.23 4476.16 444.03 4501.36 444.03 4501.36 327.63 4528.96 327.63 4528.96 366.03 4555.36 366.03 4555.36 264.03 4594.96 264.03 4594.96 331.23 4622.56 331.23 4622.56 279.63 4656.16 279.63 4656.16 384.03 4683.76 384.03 4683.76 264.03 4719.76 264.03 4719.76 351.63 4743.76 351.63 4743.76 279.63 4779.76 279.63 4779.76 415.23 4801.36 415.23 4801.36 254.43 4832.56 254.43 4832.56 321.63 4856.56 321.63 4856.56 270.03 4899.76 270.03 4899.76 364.83 4917.76 364.83 4917.76 303.63 4948.96 303.63 4948.96 410.43 4974.16 410.43 4974.16 322.83 5019.76 322.83 5019.76 510.03 5041.36 510.03 5041.36 382.83 5079.76 382.83 5079.76 462.03 5092.96 462.03 5092.96 398.43 5120.56 398.43 5120.56 620.43 5150.56 620.43 5150.56 478.83 5184.16 478.83 5184.16 645.63 5218.96 645.63 5218.96 548.43 5248.96 548.43 5248.96 811.23 5278.96 811.23 5278.96 700.83 5302.96 700.83 5302.96 919.23 5329.36 919.23 5329.36 777.63 5359.36 777.63 5359.36 1064.43 5390.56 1064.43 5390.56 877.23 5412.16 877.23 5412.16 1002.03 5452.96 1002.03 5452.96 899.23 5496.16 899.23 5496.16 1310.43 5544.16 1310.43 5544.16 1077.63 5599.36 1077.63 5599.36 1269.63 5652.16 1269.63 5652.16 1125.63 5704.96 1125.63 5704.96 1420.83 5750.56 1420.83 5750.56 1291.23 5798.56 1291.23 5798.56 1507.23 5834.56 1507.23 5834.56 1692.03 5880.16 1692.03 5880.16 1430.43 5937.76 1430.43 5937.76 1831.23 5983.36 1831.23 5983.36 1621.97 6026.56 1621.97 6026.56 2040.03 6084.16 2040.03 6084.16 1756.83 6127.36 1756.83 6127.36 1956.03 6170.56 1956.03 6170.56 1802.43 6224.57 1802.43 6224.57 2100.03 6259.36 2100.03 6259.36 1917.63 6304.96 1917.63 6304.96 2260.83 6357.76 2260.83 6357.76 2049.63 6398.56 2049.63 6398.56 2460.03 6463.36 2460.03 6463.36 2210.43 6518.56 2210.43 6518.56 2608.98 6588.16 2608.98 6588.16 2400.83 6653.76 2400.83 6653.76 2504.83 6695.36 2504.83 6695.36 2359.23 6735.36 2359.23 6735.36 2633.63 6772.16 2633.63 6772.16 2375.23 6889.22 2375.23 7282.62 4518.12 2383.82 1834.43"/></g><polygon class="cls-20" points="1057.21 3113.05 1469.27 2364.71 1856.01 2182.65 2464.66 1874.88 2683 1554.46 3044.9 1133.39 3422.93 752.83 5054.26 1410.43 6129.46 2452.03 7070.26 4544.83 1057.21 3113.05"/><polygon class="cls-11" points="1057.21 3144.46 1469.27 2412.55 1856.01 2234.48 2464.66 1933.46 2683 1620.07 3044.9 1208.24 3422.93 836.03 5054.26 1479.2 6129.46 2497.95 7070.26 4544.83 1057.21 3144.46"/><polygon class="cls-21" points="1057.21 3175.87 1469.27 2460.38 1856.01 2286.31 2464.66 1992.04 2683 1685.69 3044.9 1283.09 3422.93 919.23 5054.26 1547.97 6129.46 2543.86 7070.26 4544.83 1057.21 3175.87"/><polygon class="cls-22" points="1057.21 3207.29 1469.27 2508.21 1856.01 2338.14 2464.66 2050.62 2683 1751.3 3044.9 1357.94 3422.93 1002.43 5054.26 1616.74 6129.46 2589.78 7070.26 4544.83 1057.21 3207.29"/><polygon class="cls-23" points="1057.21 3238.7 1469.27 2556.05 1856.01 2389.97 2464.66 2109.2 2683 1816.91 3044.9 1432.79 3422.93 1085.63 5054.26 1685.52 6129.46 2635.7 7070.26 4544.83 1057.21 3238.7"/><polygon class="cls-24" points="1057.21 3270.12 1469.27 2603.88 1856.01 2441.8 2464.66 2167.78 2683 1882.52 3044.9 1507.64 3422.93 1168.83 5054.26 1754.29 6129.46 2681.62 7070.26 4544.83 1057.21 3270.12"/><polygon class="cls-25" points="1057.21 3301.53 1469.27 2651.71 1856.01 2493.62 2464.66 2226.36 2683 1948.13 3044.9 1582.49 3422.93 1252.03 5054.26 1823.06 6129.46 2727.54 7070.26 4544.83 1057.21 3301.53"/></g></g></g></svg>