<?xml version="1.0" encoding="utf-8"?>
<!-- Generator: Adobe Illustrator 23.1.0, SVG Export Plug-In . SVG Version: 6.00 Build 0)  -->
<svg version="1.1" id="Layer_1" xmlns="http://www.w3.org/2000/svg" xmlns:xlink="http://www.w3.org/1999/xlink" x="0px" y="0px"
	 viewBox="0 0 7282.6 4781.9" style="enable-background:new 0 0 7282.6 4781.9;" xml:space="preserve">
<style type="text/css">
	.st0{fill:#5E6614;}
	.st1{fill:#555912;}
	.st2{fill:#4C4B11;}
	.st3{fill:#433E10;}
	.st4{fill:#3A310E;}
	.st5{fill:#31230D;}
	.st6{fill:#28160B;}
	.st7{fill:#25140A;}
	.st8{fill:#221309;}
	.st9{fill:#1F1109;}
	.st10{fill:#1C0F08;}
	.st11{fill:#190E07;}
	.st12{fill:#160C06;}
	.st13{fill:#1E1009;}
	.st14{fill:#1A0E08;}
	.st15{fill:#180D07;}
	.st16{fill:#150B06;}
	.st17{fill:#130A06;}
	.st18{fill:#110905;}
</style>
<title>Montanha</title>
<g>
	<g id="montanha">
		<g id="montanha-2">
			<g id="Montanha-3">
				<polygon class="st0" points="7282.6,4518.1 6347,4474 6052.9,4781.9 1509.2,3842.8 111.8,3339.3 0,3060.7 417.5,2319.8 
					515.5,2319.8 930.6,2028.3 1037.1,1997.5 1402.8,1771.1 1696.2,1700.2 2115.3,1700.2 2383.8,1587.7 				"/>
				<polygon class="st1" points="515.5,2325.6 533,2320.1 544.2,2314.5 566.7,2289.9 580.2,2283.1 616.6,2271.7 628.8,2265.6 
					677.6,2212.3 691.9,2205.1 720.7,2196 732.5,2190.1 773.7,2145.1 784.5,2139.7 813.3,2130.6 826.2,2124.1 885.8,2068.1 
					895.7,2063.9 914.7,2064.7 979.8,2046.9 1006.1,2020.7 1021.6,2013.7 1058.9,2004.7 1070.5,1999.6 1120.1,1950 1138.4,1941.8 
					1165.3,1935.3 1175.7,1930.7 1213.7,1892.8 1224.5,1887.9 1245.7,1882.8 1306.7,1847.4 1344.2,1825.8 1353.3,1824.1 
					1410.8,1829.5 1428.2,1826.3 1557.9,1768.8 1575.4,1768.8 1623,1784.4 1633.8,1784.4 1670.6,1772.3 1682.8,1772.3 
					1705.5,1779.8 1719.7,1779.8 1764,1765.2 1782,1765.2 1811.9,1775 1826.4,1775 1866.5,1761.8 1876.5,1761.8 1931.2,1782 
					1944.9,1777.8 1995.8,1738.3 2009.5,1734.1 2033.2,1732.6 2045.2,1728.9 2085.8,1697.4 2100.5,1692.9 2169.3,1674.6 
					2178.9,1678.7 2220.1,1687.4 2234.4,1693.6 2288.8,1747.2 2302.4,1753.1 2363.9,1766.1 2375.5,1771.1 2410.8,1805.8 
					2423.6,1811.4 2469.8,1821.1 2480.3,1825.7 2504.1,1849.1 2516.6,1854.5 2555.1,1862.7 2569.4,1868.8 2640.6,1938.9 
					2652.1,1943.8 2744.4,1963.4 2762,1971 2791.9,2000.4 2805.3,2006.2 2848.8,2015.4 2859.2,2019.9 2877.5,2037.9 2890,2043.3 
					2921.2,2049.9 2936.3,2056.4 2992.7,2111.9 3009.3,2119.1 3079.3,2133.9 3095.5,2140.9 3124,2169 3142.2,2176.8 3175.8,2184 
					3188.2,2189.3 3233.2,2233.7 3247.6,2239.9 3301.2,2251.2 3322.2,2260.3 3343.5,2281.2 3358.8,2287.8 3389.4,2294.3 
					3405.7,2301.3 3448.2,2343.2 3460.6,2348.6 3509.1,2358.8 3528.2,2367.1 3541.3,2380 3557.5,2387 3583.1,2392.4 3831,2496.2 
					4001.5,2555.4 7282.6,4518.1 6347,4474 6052.9,4781.9 1509.2,3842.8 111.8,3339.3 0,3060.7 111.1,2863.6 141.5,2809.5 
					150.4,2800 160.5,2788.8 179.5,2768.4 207.3,2700.7 215.6,2691.9 227.3,2678.9 234.8,2670.8 253.7,2624.9 261.2,2616.9 
					267.4,2610 275.3,2601.5 296.9,2549 302.3,2543.2 308.4,2536.4 318.6,2525.6 338.6,2476.7 346.6,2468.2 355.4,2458.4 
					365.3,2447.8 386.8,2395.4 392.4,2389.4 397.8,2383.3 405.6,2375 424.6,2328.7 437.1,2328.7 459.6,2336.2 471.5,2336.2 
					503,2325.6 				"/>
				<polygon class="st2" points="515.6,2331.4 529.5,2335.2 542.3,2330.7 560.3,2300.6 575.6,2295.1 604.7,2303 618.6,2298 
					657.7,2232.6 673.9,2226.8 696.9,2233.1 710.4,2228.3 743.3,2173.1 755.5,2168.8 778.6,2175 793.2,2169.8 840.9,2107.8 
					851.1,2102.2 866.3,2110.5 922.6,2096.2 943.6,2063.3 961.2,2057.7 991,2067.6 1004.1,2063.4 1043.8,2001.1 1064.5,1994.6 
					1086,2001.6 1097.7,1997.9 1128.1,1950.3 1140.4,1946.4 1157.3,1952 1210.7,1923.6 1240.7,1891.3 1250.6,1890 1296.7,1917.4 
					1315.8,1914.9 1419.6,1837.4 1438.9,1837.4 1477,1868.7 1488.7,1868.7 1518.2,1844.4 1531.6,1844.4 1549.8,1859.4 
					1565.3,1859.4 1600.7,1830.2 1620.5,1830.2 1644.4,1849.9 1660.3,1849.9 1692.4,1823.5 1703.4,1823.5 1747.2,1863.8 
					1762.4,1860.4 1803.2,1807 1818.4,1803.7 1837.4,1812.6 1850.8,1809.7 1883.3,1767.2 1899.7,1763.6 1954.7,1761.4 
					1965.7,1764.8 1998.6,1752.7 2014.8,1757.6 2058.4,1825.7 2073.9,1830.4 2123.1,1812.3 2136.2,1816.3 2164.4,1860.5 
					2179,1864.9 2215.9,1851.3 2227.9,1854.9 2246.9,1884.7 2261.1,1889 2291.9,1877.7 2308.2,1882.6 2365.1,1971.7 2378.1,1975.6 
					2451.9,1948.5 2472,1954.6 2495.9,1992 2511.1,1996.6 2545.9,1983.8 2557.7,1987.4 2572.3,2010.3 2586.6,2014.6 2611.5,2005.4 
					2628.6,2010.6 2673.7,2081.2 2692.6,2086.9 2748.6,2066.4 2767,2072 2789.8,2107.6 2810.4,2113.9 2837.3,2104 2851.4,2108.3 
					2887.4,2164.7 2903.7,2169.7 2946.6,2153.9 2970.4,2161.1 2987.4,2187.8 3004.8,2193 3029.3,2184 3047.8,2189.6 3081.8,2242.9 
					3095.9,2247.1 3134.6,2232.9 3156.3,2239.5 3166.8,2255.9 3185.2,2261.5 3205.8,2254 3486.8,2333.2 3678,2361.8 7282.6,4518.1 
					6347,4474 6052.9,4781.9 1509.2,3842.8 111.8,3339.3 0,3060.7 121.5,2845.1 154.7,2786 166.1,2778.4 174.1,2777.4 198.5,2761.1 
					220.7,2684.9 231.3,2677.9 240.6,2676.7 250.3,2670.3 265.4,2618.5 275,2612.1 279.9,2611.5 290,2604.8 307.2,2545.7 
					314.2,2541.1 319.1,2540.4 332.1,2531.8 348.1,2476.8 358.2,2470 365.3,2469.1 377.9,2460.7 395.2,2401.6 402.2,2396.9 
					406.6,2396.3 416.5,2389.7 431.7,2337.5 445.5,2337.5 463.5,2352.6 476.6,2352.6 501.8,2331.4 				"/>
				<polygon class="st3" points="515.6,2337.3 526.1,2350.3 540.4,2346.9 553.9,2311.2 571,2307.1 592.9,2334.2 608.4,2330.5 
					637.7,2252.9 655.9,2248.6 673.2,2270.1 688.2,2266.5 712.9,2201.1 726.6,2197.9 744,2219.3 760.3,2215.4 796,2147.6 
					806.5,2140.5 817.9,2156.3 865.4,2145.6 881.1,2105.9 900.8,2101.7 923.1,2130.4 937.7,2127.3 967.5,2052.3 990.5,2047.3 
					1006.7,2067.9 1019.8,2065.1 1042.5,2007.8 1056.2,2004.9 1068.9,2021.2 1114.7,1999.9 1137.2,1956.8 1148,1955.8 
					1182.6,2005.3 1203.5,2003.4 1281.3,1905.9 1302.3,1905.9 1330.9,1952.9 1343.7,1952.9 1365.8,1916.5 1380.4,1916.5 
					1394,1938.9 1410.9,1938.9 1437.5,1895.3 1459,1895.3 1476.9,1924.7 1494.3,1924.7 1518.4,1885.2 1530.3,1885.2 1563.2,1945.6 
					1580,1943.1 1610.5,1875.8 1627.4,1873.3 1641.6,1892.7 1656.4,1890.5 1680.7,1837 1698.9,1834.2 1740.1,1848.3 1752.4,1850.8 
					1777.1,1817.9 1795.3,1821.6 1827.9,1904.2 1845.3,1907.7 1882.2,1858.5 1896.9,1861.5 1918.1,1915.1 1934.4,1918.4 
					1962.1,1881.5 1975.5,1884.2 1989.7,1920.3 2005.6,1923.6 2028.7,1892.7 2046.9,1896.4 2089.6,2004.4 2104.1,2007.4 
					2159.5,1933.6 2181.9,1938.1 2199.9,1983.5 2216.9,1987 2243,1952.2 2256.2,1954.8 2267.1,1982.7 2283.1,1985.9 2301.8,1960.9 
					2320.9,1964.8 2354.7,2050.4 2375.9,2054.7 2417.9,1998.8 2438.5,2003 2455.6,2046.3 2478.6,2051 2498.8,2024.1 2514.6,2027.3 
					2541.6,2095.8 2559.8,2099.4 2592,2056.6 2618.7,2062 2631.4,2094.3 2650.8,2098.2 2669.2,2073.7 2689.9,2077.9 2715.4,2142.5 
					2731.2,2145.7 2760.2,2107 2784.5,2111.9 2792.3,2131.8 2813,2136 2828.4,2115.5 3142.6,2170.1 3354.4,2168.3 7282.6,4518.1 
					6347,4474 6052.9,4781.9 1509.2,3842.8 111.8,3339.3 0,3060.7 131.8,2826.7 167.9,2762.5 181.8,2756.8 187.8,2766 217.4,2753.8 
					234.1,2669.1 246.9,2663.9 253.9,2674.6 265.7,2669.7 277,2612.2 288.7,2607.4 292.4,2613.1 304.7,2608 317.6,2542.4 
					326.1,2538.9 329.8,2544.5 345.6,2538 357.6,2476.9 369.9,2471.8 375.2,2479.9 390.6,2473.5 403.5,2407.9 412.1,2404.4 
					415.4,2409.4 427.4,2404.4 438.8,2346.4 453.9,2346.4 467.4,2369.1 481.7,2369.1 500.6,2337.3 				"/>
				<polygon class="st4" points="515.7,2343.1 522.7,2365.4 538.5,2363.1 547.5,2321.8 566.5,2319.1 581,2365.5 598.3,2363 
					617.8,2273.3 637.9,2270.4 649.4,2307.1 666,2304.7 682.5,2229.1 697.7,2227 709.3,2263.7 727.3,2261.1 751.2,2187.3 
					761.9,2178.9 769.5,2202 808.1,2194.9 818.6,2148.6 840.3,2145.8 855.2,2193.2 871.3,2191.1 891.1,2103.4 916.6,2100.1 
					927.3,2134.2 941.8,2132.4 957,2065.4 972.1,2063.4 980.6,2090.3 1018.6,2076.1 1033.6,2022.3 1045.4,2021.6 1068.4,2093.2 
					1091.2,2091.9 1143,1974.6 1165.7,1974.6 1184.8,2037.2 1198.6,2037.2 1213.4,1988.6 1229.2,1988.6 1238.2,2018.5 
					1256.5,2018.5 1274.3,1960.3 1297.5,1960.3 1309.5,1999.6 1328.3,1999.6 1344.3,1946.8 1357.3,1946.8 1379.1,2027.4 
					1397.5,2025.7 1417.9,1944.6 1436.3,1942.9 1445.8,1972.8 1462,1971.3 1478.2,1906.7 1498.1,1904.9 1525.6,1935.2 
					1539.2,1936.8 1555.6,1883.1 1575.8,1885.6 1597.5,1982.7 1616.7,1985.1 1641.3,1904.8 1657.6,1906.7 1671.7,1969.8 
					1689.8,1972 1708.2,1911.7 1723,1913.5 1732.6,1956 1750.1,1958.1 1765.5,1907.8 1785.6,1910.2 1814.1,2037.2 1830.1,2039.2 
					1867,1918.7 1891.9,1921.7 1903.8,1975 1922.7,1977.3 1940.1,1920.5 1954.7,1922.3 1962,1955 1979.6,1957.2 1992.1,1916.4 
					2013.2,1919 2035.8,2019.6 2059.2,2022.5 2087.1,1931.2 2110,1934 2121.4,1984.9 2146.9,1988.1 2160.3,1944.2 2177.8,1946.3 
					2195.8,2026.8 2215.9,2029.3 2237.4,1959.2 2266.9,1962.8 2275.4,2000.8 2296.9,2003.4 2309.1,1963.4 2332,1966.2 2349,2042.1 
					2366.4,2044.3 2385.8,1981.1 2412.6,1984.3 2417.9,2007.8 2440.7,2010.6 2450.9,1977.1 2798.4,2007.1 3030.9,1974.8 
					7282.6,4518.1 6347,4474 6052.9,4781.9 1509.2,3842.8 111.8,3339.3 0,3060.7 142.2,2808.3 181.1,2739 197.5,2735.2 
					201.5,2754.6 236.4,2746.4 247.5,2653.3 262.6,2649.8 267.3,2672.4 281.1,2669.1 288.7,2605.9 302.5,2602.7 304.9,2614.6 
					319.4,2611.2 328,2539.1 338,2536.7 340.5,2548.5 359.1,2544.2 367.1,2477 381.6,2473.6 385.1,2490.6 403.2,2486.3 
					411.9,2414.2 422,2411.9 424.2,2422.4 438.3,2419.1 445.9,2355.3 462.3,2355.3 471.3,2385.5 486.8,2385.5 499.4,2343.1 				"/>
				<polygon class="st5" points="515.7,2348.9 519.2,2380.5 536.5,2379.4 541,2332.4 561.9,2331.1 569.2,2396.7 588.1,2395.5 
					597.8,2293.6 619.9,2292.2 625.6,2344.2 643.9,2343 652.1,2257.1 668.8,2256.1 674.6,2308 694.4,2306.7 706.3,2227.1 
					717.3,2217.2 721.2,2247.8 750.9,2244.3 756.2,2191.2 779.9,2189.8 787.3,2256 804.9,2254.9 814.8,2154.6 842.6,2152.9 
					848,2200.6 863.8,2199.6 871.4,2122.9 887.9,2121.9 892.2,2159.5 922.6,2152.4 930.1,2087.8 942.8,2087.4 954.3,2181.1 
					978.8,2180.5 1004.8,2043.1 1029.2,2043.1 1038.7,2121.4 1053.6,2121.4 1061,2060.8 1077.9,2060.8 1082.5,2098.1 1102.1,2098.1 
					1111,2025.3 1136.1,2025.3 1142,2074.4 1162.2,2074.4 1170.2,2008.5 1184.2,2008.5 1195.1,2109.2 1215.1,2108.4 1225.3,2013.3 
					1245.3,2012.5 1250,2052.8 1267.6,2052.1 1275.7,1976.5 1297.3,1975.6 1311,2022.1 1325.9,2022.9 1334.1,1948.3 1356.2,1949.6 
					1367.1,2061.2 1388.1,2062.4 1400.4,1951 1418.3,1952 1425.3,2024.4 1445.1,2025.5 1454.4,1941.8 1470.6,1942.7 1475.3,1991.6 
					1494.6,1992.7 1502.3,1922.8 1524.3,1924 1538.5,2070 1556.1,2071 1574.6,1903.7 1601.8,1905.3 1607.8,1966.6 1628.5,1967.7 
					1637.2,1888.9 1653.2,1889.8 1656.8,1927.4 1676.1,1928.5 1682.4,1871.9 1705.5,1873.2 1716.8,1988.9 1742.5,1990.3 
					1756.5,1863.7 1781.5,1865.1 1787.2,1923.6 1815.1,1925.1 1821.8,1864.3 1841,1865.3 1850,1957.8 1872,1959 1882.8,1861.9 
					1915.1,1863.7 1919.4,1907.3 1942.9,1908.6 1949.1,1853.1 1974.1,1854.5 1982.6,1941.8 2001.7,1942.8 2011.4,1855.1 
					2040.8,1856.8 2043.4,1883.7 2068.4,1885.1 2073.6,1838.6 2454.3,1844.1 2707.4,1781.2 7282.6,4518.1 6347,4474 6052.9,4781.9 
					1509.2,3842.8 111.8,3339.3 0,3060.7 152.6,2789.9 194.3,2715.5 213.2,2713.6 215.2,2743.1 255.4,2739.1 260.9,2637.5 
					278.3,2635.8 280.6,2670.2 296.6,2668.6 300.4,2599.6 316.2,2598 317.4,2616.1 334.1,2614.4 338.4,2535.7 349.9,2534.6 
					351.1,2552.6 372.6,2550.4 376.6,2477.1 393.3,2475.4 395,2501.3 415.9,2499.2 420.2,2420.5 431.9,2419.3 433,2435.4 
					449.2,2433.7 453,2364.2 470.6,2364.2 475.1,2401.9 491.8,2401.9 498.1,2348.9 				"/>
				<polygon class="st6" points="7282.6,4518.1 6347,4474 6052.9,4781.9 1509.2,3842.8 111.8,3339.3 0,3060.7 163,2771.5 
					207.5,2692 228.8,2692 228.8,2731.7 274.3,2731.7 274.3,2621.7 294,2621.7 294,2668 312,2668 312,2593.2 330,2593.2 330,2617.6 
					348.8,2617.6 348.8,2532.4 361.8,2532.4 361.8,2556.6 386.1,2556.6 386.1,2477.2 405,2477.2 405,2512 428.6,2512 428.6,2426.8 
					441.7,2426.8 441.7,2448.4 460.1,2448.4 460.1,2373.1 479,2373.1 479,2418.4 496.9,2418.4 496.9,2354.8 515.8,2354.8 
					515.8,2395.6 534.6,2395.6 534.6,2343.1 557.4,2343.1 557.4,2428 577.9,2428 577.9,2314 601.9,2314 601.9,2381.2 621.7,2381.2 
					621.7,2285.1 639.9,2285.1 639.9,2352.4 661.4,2352.4 661.4,2266.9 672.8,2255.5 672.8,2293.6 693.7,2293.6 693.7,2233.8 
					719.4,2233.8 719.4,2318.8 738.5,2318.8 738.5,2205.7 768.7,2205.7 768.7,2266.9 785.9,2266.9 785.9,2180.5 803.8,2180.5 
					803.8,2228.6 826.6,2228.6 826.6,2153.3 840.2,2153.3 840.2,2269 866.5,2269 866.5,2111.7 892.6,2111.7 892.6,2205.7 
					908.6,2205.7 908.6,2132.9 926.7,2132.9 926.7,2177.7 947.8,2177.7 947.8,2090.3 974.6,2090.3 974.6,2149.3 996.2,2149.3 
					996.2,2070.2 1011.1,2070.2 1011.1,2191 1032.6,2191 1032.6,2082.1 1054.2,2082.1 1054.2,2132.9 1073.2,2132.9 1073.2,2046.3 
					1096.4,2046.3 1096.4,2108.9 1112.7,2108.9 1112.7,2013.6 1136.7,2013.6 1136.7,2139.7 1159.6,2139.7 1159.6,1997.2 
					1178.9,1997.2 1178.9,2079 1200.5,2079 1200.5,1972 1218.2,1972 1218.2,2027.2 1239,2027.2 1239,1937.8 1263,1937.8 
					1263,2102.8 1282.2,2102.8 1282.2,1888.8 1311.8,1888.8 1311.8,1958.1 1334.3,1958.1 1334.3,1857.3 1351.6,1857.3 
					1351.6,1899.8 1372.7,1899.8 1372.7,1827.4 1397.8,1827.4 1397.8,1958.1 1425.8,1958.1 1425.8,1796.1 1453,1796.1 1453,1862.2 
					1483.4,1862.2 1483.4,1784.3 1504.2,1784.3 1504.2,1888.8 1528.2,1888.8 1528.2,1764.5 1563.4,1764.5 1563.4,1813.8 
					1589,1813.8 1589,1742.8 1616.2,1742.8 1616.2,1841.4 1637,1841.4 1637,1729.2 1669,1729.2 1669,1759.6 1696.2,1759.6 
					1696.2,1700.2 2110.1,1681 2383.8,1587.7 				"/>
				<polygon class="st7" points="7282.6,4520.2 6347,4476.5 6052.9,4781.9 1509.2,3850.4 111.8,3350.8 0,3074.5 163,2787.6 
					207.5,2708.8 228.8,2708.8 228.8,2748.2 274.3,2748.2 274.3,2639.1 294,2639.1 294,2685 312,2685 312,2610.8 330,2610.8 
					330,2635 348.8,2635 348.8,2550.5 361.8,2550.5 361.8,2574.4 386.1,2574.4 386.1,2495.7 405,2495.7 405,2530.2 428.6,2530.2 
					428.6,2445.7 441.7,2445.7 441.7,2467.1 460.1,2467.1 460.1,2392.4 479,2392.4 479,2437.4 496.9,2437.4 496.9,2374.3 
					515.8,2374.3 515.8,2414.8 534.6,2414.8 534.6,2362.7 557.4,2362.7 557.4,2446.9 577.9,2446.9 577.9,2333.8 601.9,2333.8 
					601.9,2400.5 621.7,2400.5 621.7,2305.2 639.9,2305.2 639.9,2371.9 661.4,2371.9 661.4,2287.1 672.8,2275.8 672.8,2313.6 
					693.7,2313.6 693.7,2254.3 719.4,2254.3 719.4,2338.6 738.5,2338.6 738.5,2226.4 768.7,2226.4 768.7,2287.1 785.9,2287.1 
					785.9,2201.4 803.8,2201.4 803.8,2249.2 826.6,2249.2 826.6,2174.4 840.2,2174.4 840.2,2289.2 866.5,2289.2 866.5,2133.2 
					892.6,2133.2 892.6,2226.4 908.6,2226.4 908.6,2154.1 926.7,2154.1 926.7,2198.6 947.8,2198.6 947.8,2111.9 974.6,2111.9 
					974.6,2170.4 996.2,2170.4 996.2,2091.9 1011.1,2091.9 1011.1,2211.8 1032.6,2211.8 1032.6,2103.8 1054.2,2103.8 1054.2,2154.1 
					1073.2,2154.1 1073.2,2068.2 1096.4,2068.2 1096.4,2130.4 1112.7,2130.4 1112.7,2035.8 1136.7,2035.8 1136.7,2160.9 
					1159.6,2160.9 1159.6,2019.6 1178.9,2019.6 1178.9,2100.7 1200.5,2100.7 1200.5,1994.6 1218.2,1994.6 1218.2,2049.3 
					1239,2049.3 1239,1960.7 1263,1960.7 1263,2124.3 1282.2,2124.3 1282.2,1912.1 1311.8,1912.1 1311.8,1980.8 1334.3,1980.8 
					1334.3,1880.8 1351.6,1880.8 1351.6,1922.9 1372.7,1922.9 1372.7,1851.1 1397.8,1851.1 1397.8,1980.8 1425.8,1980.8 
					1425.8,1820.1 1453,1820.1 1453,1885.7 1483.4,1885.7 1483.4,1808.4 1504.2,1808.4 1504.2,1912.1 1528.2,1912.1 1528.2,1788.8 
					1563.4,1788.8 1563.4,1837.7 1589,1837.7 1589,1767.2 1616.2,1767.2 1616.2,1865 1637,1865 1637,1753.7 1669,1753.7 
					1669,1783.9 1696.2,1783.9 1696.2,1724.9 2110.9,1709 2383.8,1613.3 				"/>
				<polygon class="st8" points="7282.6,4522.4 6347,4479 6052.9,4781.9 1509.2,3857.9 111.8,3362.4 0,3088.4 163,2803.8 
					207.5,2725.6 228.8,2725.6 228.8,2764.7 274.3,2764.7 274.3,2656.4 294,2656.4 294,2701.9 312,2701.9 312,2628.4 330,2628.4 
					330,2652.4 348.8,2652.4 348.8,2568.5 361.8,2568.5 361.8,2592.3 386.1,2592.3 386.1,2514.2 405,2514.2 405,2548.5 
					428.6,2548.5 428.6,2464.6 441.7,2464.6 441.7,2485.9 460.1,2485.9 460.1,2411.8 479,2411.8 479,2456.4 496.9,2456.4 
					496.9,2393.8 515.8,2393.8 515.8,2433.9 534.6,2433.9 534.6,2382.3 557.4,2382.3 557.4,2465.8 577.9,2465.8 577.9,2353.6 
					601.9,2353.6 601.9,2419.8 621.7,2419.8 621.7,2325.3 639.9,2325.3 639.9,2391.4 661.4,2391.4 661.4,2307.3 672.8,2296.1 
					672.8,2333.6 693.7,2333.6 693.7,2274.8 719.4,2274.8 719.4,2358.4 738.5,2358.4 738.5,2247.1 768.7,2247.1 768.7,2307.3 
					785.9,2307.3 785.9,2222.3 803.8,2222.3 803.8,2269.7 826.6,2269.7 826.6,2195.5 840.2,2195.5 840.2,2309.4 866.5,2309.4 
					866.5,2154.6 892.6,2154.6 892.6,2247.1 908.6,2247.1 908.6,2175.4 926.7,2175.4 926.7,2219.6 947.8,2219.6 947.8,2133.6 
					974.6,2133.6 974.6,2191.6 996.2,2191.6 996.2,2113.7 1011.1,2113.7 1011.1,2232.6 1032.6,2232.6 1032.6,2125.5 1054.2,2125.5 
					1054.2,2175.4 1073.2,2175.4 1073.2,2090.2 1096.4,2090.2 1096.4,2151.9 1112.7,2151.9 1112.7,2058.1 1136.7,2058.1 
					1136.7,2182.1 1159.6,2182.1 1159.6,2041.9 1178.9,2041.9 1178.9,2122.5 1200.5,2122.5 1200.5,2017.1 1218.2,2017.1 
					1218.2,2071.4 1239,2071.4 1239,1983.5 1263,1983.5 1263,2145.8 1282.2,2145.8 1282.2,1935.3 1311.8,1935.3 1311.8,2003.5 
					1334.3,2003.5 1334.3,1904.3 1351.6,1904.3 1351.6,1946.1 1372.7,1946.1 1372.7,1874.9 1397.8,1874.9 1397.8,2003.5 
					1425.8,2003.5 1425.8,1844.1 1453,1844.1 1453,1909.1 1483.4,1909.1 1483.4,1832.5 1504.2,1832.5 1504.2,1935.3 1528.2,1935.3 
					1528.2,1813 1563.4,1813 1563.4,1861.5 1589,1861.5 1589,1791.6 1616.2,1791.6 1616.2,1888.7 1637,1888.7 1637,1778.2 
					1669,1778.2 1669,1808.2 1696.2,1808.2 1696.2,1749.7 2111.8,1736.9 2383.8,1639 				"/>
				<polygon class="st9" points="7282.6,4524.5 6347,4481.4 6052.9,4781.9 1509.2,3865.4 111.8,3374 0,3102.2 163,2819.9 
					207.5,2742.4 228.8,2742.4 228.8,2781.1 274.3,2781.1 274.3,2673.8 294,2673.8 294,2718.9 312,2718.9 312,2646 330,2646 
					330,2669.8 348.8,2669.8 348.8,2586.6 361.8,2586.6 361.8,2610.2 386.1,2610.2 386.1,2532.7 405,2532.7 405,2566.7 
					428.6,2566.7 428.6,2483.6 441.7,2483.6 441.7,2504.6 460.1,2504.6 460.1,2431.1 479,2431.1 479,2475.4 496.9,2475.4 
					496.9,2413.3 515.8,2413.3 515.8,2453.1 534.6,2453.1 534.6,2401.9 557.4,2401.9 557.4,2484.7 577.9,2484.7 577.9,2373.5 
					601.9,2373.5 601.9,2439.1 621.7,2439.1 621.7,2345.3 639.9,2345.3 639.9,2410.9 661.4,2410.9 661.4,2327.5 672.8,2316.4 
					672.8,2353.6 693.7,2353.6 693.7,2295.2 719.4,2295.2 719.4,2378.1 738.5,2378.1 738.5,2267.8 768.7,2267.8 768.7,2327.5 
					785.9,2327.5 785.9,2243.1 803.8,2243.1 803.8,2290.2 826.6,2290.2 826.6,2216.6 840.2,2216.6 840.2,2329.6 866.5,2329.6 
					866.5,2176.1 892.6,2176.1 892.6,2267.8 908.6,2267.8 908.6,2196.7 926.7,2196.7 926.7,2240.5 947.8,2240.5 947.8,2155.2 
					974.6,2155.2 974.6,2212.7 996.2,2212.7 996.2,2135.5 1011.1,2135.5 1011.1,2253.5 1032.6,2253.5 1032.6,2147.2 1054.2,2147.2 
					1054.2,2196.7 1073.2,2196.7 1073.2,2112.2 1096.4,2112.2 1096.4,2173.4 1112.7,2173.4 1112.7,2080.3 1136.7,2080.3 
					1136.7,2203.4 1159.6,2203.4 1159.6,2064.3 1178.9,2064.3 1178.9,2144.2 1200.5,2144.2 1200.5,2039.7 1218.2,2039.7 
					1218.2,2093.6 1239,2093.6 1239,2006.4 1263,2006.4 1263,2167.4 1282.2,2167.4 1282.2,1958.6 1311.8,1958.6 1311.8,2026.2 
					1334.3,2026.2 1334.3,1927.8 1351.6,1927.8 1351.6,1969.2 1372.7,1969.2 1372.7,1898.6 1397.8,1898.6 1397.8,2026.2 
					1425.8,2026.2 1425.8,1868.1 1453,1868.1 1453,1932.6 1483.4,1932.6 1483.4,1856.6 1504.2,1856.6 1504.2,1958.6 1528.2,1958.6 
					1528.2,1837.3 1563.4,1837.3 1563.4,1885.4 1589,1885.4 1589,1816 1616.2,1816 1616.2,1912.3 1637,1912.3 1637,1802.8 
					1669,1802.8 1669,1832.5 1696.2,1832.5 1696.2,1774.4 2112.7,1764.9 2383.8,1664.7 				"/>
				<polygon class="st10" points="7282.6,4526.6 6347,4483.9 6052.9,4781.9 1509.2,3873 111.8,3385.6 0,3116 163,2836.1 
					207.5,2759.1 228.8,2759.1 228.8,2797.6 274.3,2797.6 274.3,2691.1 294,2691.1 294,2735.9 312,2735.9 312,2663.6 330,2663.6 
					330,2687.2 348.8,2687.2 348.8,2604.7 361.8,2604.7 361.8,2628.1 386.1,2628.1 386.1,2551.3 405,2551.3 405,2584.9 
					428.6,2584.9 428.6,2502.5 441.7,2502.5 441.7,2523.4 460.1,2523.4 460.1,2450.5 479,2450.5 479,2494.3 496.9,2494.3 
					496.9,2432.8 515.8,2432.8 515.8,2472.3 534.6,2472.3 534.6,2421.4 557.4,2421.4 557.4,2503.6 577.9,2503.6 577.9,2393.3 
					601.9,2393.3 601.9,2458.3 621.7,2458.3 621.7,2365.4 639.9,2365.4 639.9,2430.5 661.4,2430.5 661.4,2347.7 672.8,2336.7 
					672.8,2373.6 693.7,2373.6 693.7,2315.7 719.4,2315.7 719.4,2397.9 738.5,2397.9 738.5,2288.5 768.7,2288.5 768.7,2347.7 
					785.9,2347.7 785.9,2264.1 803.8,2264.1 803.8,2310.7 826.6,2310.7 826.6,2237.8 840.2,2237.8 840.2,2349.8 866.5,2349.8 
					866.5,2197.5 892.6,2197.5 892.6,2288.5 908.6,2288.5 908.6,2218 926.7,2218 926.7,2261.4 947.8,2261.4 947.8,2176.8 
					974.6,2176.8 974.6,2233.9 996.2,2233.9 996.2,2157.3 1011.1,2157.3 1011.1,2274.3 1032.6,2274.3 1032.6,2168.9 1054.2,2168.9 
					1054.2,2218 1073.2,2218 1073.2,2134.2 1096.4,2134.2 1096.4,2194.8 1112.7,2194.8 1112.7,2102.5 1136.7,2102.5 1136.7,2224.6 
					1159.6,2224.6 1159.6,2086.7 1178.9,2086.7 1178.9,2165.9 1200.5,2165.9 1200.5,2062.3 1218.2,2062.3 1218.2,2115.7 
					1239,2115.7 1239,2029.2 1263,2029.2 1263,2188.9 1282.2,2188.9 1282.2,1981.8 1311.8,1981.8 1311.8,2048.9 1334.3,2048.9 
					1334.3,1951.3 1351.6,1951.3 1351.6,1992.4 1372.7,1992.4 1372.7,1922.3 1397.8,1922.3 1397.8,2048.9 1425.8,2048.9 
					1425.8,1892 1453,1892 1453,1956 1483.4,1956 1483.4,1880.7 1504.2,1880.7 1504.2,1981.8 1528.2,1981.8 1528.2,1861.5 
					1563.4,1861.5 1563.4,1909.2 1589,1909.2 1589,1840.4 1616.2,1840.4 1616.2,1935.9 1637,1935.9 1637,1827.3 1669,1827.3 
					1669,1856.7 1696.2,1856.7 1696.2,1799.2 2113.5,1792.8 2383.8,1690.3 				"/>
				<polygon class="st11" points="7282.6,4528.7 6347,4486.4 6052.9,4781.9 1509.2,3880.5 111.8,3397.2 0,3129.8 163,2852.2 
					207.5,2775.9 228.8,2775.9 228.8,2814.1 274.3,2814.1 274.3,2708.5 294,2708.5 294,2752.9 312,2752.9 312,2681.1 330,2681.1 
					330,2704.6 348.8,2704.6 348.8,2622.7 361.8,2622.7 361.8,2646 386.1,2646 386.1,2569.8 405,2569.8 405,2603.2 428.6,2603.2 
					428.6,2521.4 441.7,2521.4 441.7,2542.1 460.1,2542.1 460.1,2469.8 479,2469.8 479,2513.3 496.9,2513.3 496.9,2452.3 
					515.8,2452.3 515.8,2491.4 534.6,2491.4 534.6,2441 557.4,2441 557.4,2522.5 577.9,2522.5 577.9,2413.1 601.9,2413.1 
					601.9,2477.6 621.7,2477.6 621.7,2385.4 639.9,2385.4 639.9,2450 661.4,2450 661.4,2367.9 672.8,2357 672.8,2393.5 
					693.7,2393.5 693.7,2336.2 719.4,2336.2 719.4,2417.7 738.5,2417.7 738.5,2309.2 768.7,2309.2 768.7,2367.9 785.9,2367.9 
					785.9,2284.9 803.8,2284.9 803.8,2331.2 826.6,2331.2 826.6,2258.9 840.2,2258.9 840.2,2369.9 866.5,2369.9 866.5,2219 
					892.6,2219 892.6,2309.2 908.6,2309.2 908.6,2239.3 926.7,2239.3 926.7,2282.3 947.8,2282.3 947.8,2198.4 974.6,2198.4 
					974.6,2255 996.2,2255 996.2,2179.1 1011.1,2179.1 1011.1,2295.1 1032.6,2295.1 1032.6,2190.6 1054.2,2190.6 1054.2,2239.3 
					1073.2,2239.3 1073.2,2156.1 1096.4,2156.1 1096.4,2216.3 1112.7,2216.3 1112.7,2124.8 1136.7,2124.8 1136.7,2245.8 
					1159.6,2245.8 1159.6,2109 1178.9,2109 1178.9,2187.6 1200.5,2187.6 1200.5,2084.9 1218.2,2084.9 1218.2,2137.8 1239,2137.8 
					1239,2052.1 1263,2052.1 1263,2210.4 1282.2,2210.4 1282.2,2005 1311.8,2005 1311.8,2071.5 1334.3,2071.5 1334.3,1974.8 
					1351.6,1974.8 1351.6,2015.5 1372.7,2015.5 1372.7,1946.1 1397.8,1946.1 1397.8,2071.5 1425.8,2071.5 1425.8,1916 1453,1916 
					1453,1979.5 1483.4,1979.5 1483.4,1904.8 1504.2,1904.8 1504.2,2005 1528.2,2005 1528.2,1885.7 1563.4,1885.7 1563.4,1933.1 
					1589,1933.1 1589,1864.9 1616.2,1864.9 1616.2,1959.5 1637,1959.5 1637,1851.8 1669,1851.8 1669,1881 1696.2,1881 
					1696.2,1823.9 2114.4,1820.8 2383.8,1716 				"/>
				<polygon class="st12" points="7282.6,4530.8 6347,4488.9 6052.9,4781.9 1509.2,3888.1 111.8,3408.8 0,3143.7 163,2868.4 
					207.5,2792.7 228.8,2792.7 228.8,2830.5 274.3,2830.5 274.3,2725.8 294,2725.8 294,2769.9 312,2769.9 312,2698.7 330,2698.7 
					330,2722 348.8,2722 348.8,2640.8 361.8,2640.8 361.8,2663.8 386.1,2663.8 386.1,2588.3 405,2588.3 405,2621.4 428.6,2621.4 
					428.6,2540.3 441.7,2540.3 441.7,2560.9 460.1,2560.9 460.1,2489.2 479,2489.2 479,2532.3 496.9,2532.3 496.9,2471.8 
					515.8,2471.8 515.8,2510.6 534.6,2510.6 534.6,2460.6 557.4,2460.6 557.4,2541.4 577.9,2541.4 577.9,2432.9 601.9,2432.9 
					601.9,2496.9 621.7,2496.9 621.7,2405.5 639.9,2405.5 639.9,2469.5 661.4,2469.5 661.4,2388.1 672.8,2377.3 672.8,2413.5 
					693.7,2413.5 693.7,2356.6 719.4,2356.6 719.4,2437.5 738.5,2437.5 738.5,2329.9 768.7,2329.9 768.7,2388.1 785.9,2388.1 
					785.9,2305.8 803.8,2305.8 803.8,2351.7 826.6,2351.7 826.6,2280 840.2,2280 840.2,2390.1 866.5,2390.1 866.5,2240.4 
					892.6,2240.4 892.6,2329.9 908.6,2329.9 908.6,2260.6 926.7,2260.6 926.7,2303.2 947.8,2303.2 947.8,2220.1 974.6,2220.1 
					974.6,2276.1 996.2,2276.1 996.2,2200.9 1011.1,2200.9 1011.1,2315.9 1032.6,2315.9 1032.6,2212.2 1054.2,2212.2 1054.2,2260.6 
					1073.2,2260.6 1073.2,2178.1 1096.4,2178.1 1096.4,2237.8 1112.7,2237.8 1112.7,2147 1136.7,2147 1136.7,2267.1 1159.6,2267.1 
					1159.6,2131.4 1178.9,2131.4 1178.9,2209.3 1200.5,2209.3 1200.5,2107.4 1218.2,2107.4 1218.2,2160 1239,2160 1239,2074.9 
					1263,2074.9 1263,2231.9 1282.2,2231.9 1282.2,2028.3 1311.8,2028.3 1311.8,2094.2 1334.3,2094.2 1334.3,1998.3 1351.6,1998.3 
					1351.6,2038.7 1372.7,2038.7 1372.7,1969.8 1397.8,1969.8 1397.8,2094.2 1425.8,2094.2 1425.8,1940 1453,1940 1453,2002.9 
					1483.4,2002.9 1483.4,1928.8 1504.2,1928.8 1504.2,2028.3 1528.2,2028.3 1528.2,1910 1563.4,1910 1563.4,1956.9 1589,1956.9 
					1589,1889.3 1616.2,1889.3 1616.2,1983.1 1637,1983.1 1637,1876.3 1669,1876.3 1669,1905.3 1696.2,1905.3 1696.2,1848.7 
					2115.3,1848.7 2383.8,1741.6 				"/>
				<polygon class="st0" points="7282.6,4518.1 6848.7,2154.3 5027.3,0 2873.7,0 2499.1,0 2136.6,140.6 1493.4,300 824,778.8 
					616,941.5 850.9,1072.8 1041.9,1015.2 1201.9,940.2 1657.3,616.8 2247.7,508.8 2597.3,674.6 3020.5,1024.8 2383.8,1587.7 				
					"/>
				<polygon class="st1" points="1495.1,316.9 1532.3,342.5 1541,341.3 1586.6,287.5 1595.7,286.3 1611.5,297.2 1622.2,295.8 
					1645.7,268 1656.5,266.6 1690.1,289.7 1698.7,288.6 1735.7,244.9 1743.5,243.9 1788,274.5 1796.8,273.3 1835.7,227.4 
					1849.4,225.7 1870.5,240.2 1881.5,238.8 1908.4,207.1 1924.9,204.9 1949.2,221.6 1962.9,219.8 1991.5,186.1 2002.6,184.7 
					2023.4,199 2033.3,197.7 2057,169.7 2069.1,168.2 2081.7,176.8 2091.6,175.5 2109.9,156.9 2125.5,153.8 2143.2,164.3 
					2154.5,162 2176.3,132.3 2185.5,130.5 2196.6,137.1 2205.8,135.3 2219.7,116.3 2240.1,112.3 2261.7,125 2273,122.8 2299.5,86.6 
					2311.9,84.2 2324.7,91.7 2337.6,89.2 2357,62.8 2367.5,60.7 2376.8,66.2 2389.7,63.6 2399,51 2413.6,48.1 2431.1,58.4 
					2441.6,56.3 2465,24.4 2481.5,21.2 2494.7,29 2513.9,46.5 2527.8,46.5 2566.5,11.3 2585.8,11.3 2606.9,30.5 2621.1,30.5 
					2638.2,14.9 2656.7,14.9 2679.5,35.7 2694.6,35.7 2723.7,9.3 2746.3,9.3 2767.1,28.1 2779.6,28.1 2789.8,18.9 2804.8,18.9 
					2830.4,42.1 2846.4,42.1 2877.2,14.1 2889.9,14.1 2906.7,27.7 2918.4,27.7 2941.1,9.3 2955.9,9.3 2987.9,35.1 3000.4,35.1 
					3026.1,14.3 3040.4,14.3 3071.6,39.7 3085.3,39.7 3121.2,10.6 3135.5,10.6 3154.3,25.8 3169.7,25.8 3192.1,7.7 3207,7.7 
					3237.3,32.2 3251.6,32.2 3276.6,11.9 3289.7,11.9 3308.1,26.9 3323.6,26.9 3347.3,7.7 3365.1,7.7 3405,39.9 3417.5,39.9 
					3449.5,14.1 3466.7,14.1 3486.8,30.3 3501.1,30.3 3529.1,7.7 3544.6,7.7 3563.7,23.1 3572.6,23.1 3585.1,13 3594,13 3621,34.9 
					3633.5,34.9 3665.8,8.7 3682.4,8.7 3705.5,27.4 3721,27.4 3740.1,11.9 3755.5,11.9 3790.1,39.9 3803.8,39.9 3832.8,16.5 
					3845.3,16.5 3869.7,36.2 3884,36.2 3915.6,10.6 3929.9,10.6 3952.9,29.3 3966.6,29.3 3993.3,7.7 4009.4,7.7 4023.9,19.4 
					4035.8,19.4 4046.3,10.9 4057,10.9 4086,34.3 4096.1,34.3 4129.1,7.7 4142.8,7.7 4159.6,21.3 4174.5,21.3 4191.3,7.7 
					4202.7,7.7 4231.4,30.9 4241.7,30.9 4267.9,9.7 4280.4,9.7 4300.6,26.1 4312.7,26.1 4335.4,7.7 4348.8,7.7 4373.3,27.5 
					4385.8,27.5 4408.3,9.3 4419.4,9.3 4434.7,21.7 4444.1,21.7 4461.4,7.7 4470.7,7.7 4494.2,26.7 4501.8,26.7 4517.6,13.9 
					4527.9,13.9 4557.3,37.7 4566.7,37.7 4590.6,18.3 4600.9,18.3 4608.8,24.7 4618.6,24.7 4639.6,7.7 4654.3,7.7 4668.1,18.9 
					4678.4,18.9 4689,10.3 4701.5,10.3 4723,27.7 4733.3,27.7 4758,7.7 4771.4,7.7 4789.5,22.3 4798.4,22.3 4813.2,10.3 
					4826.6,10.3 4854.6,32.9 4862.6,32.9 4895.8,6.1 4907.4,6.1 4921.2,17.3 4930.2,17.3 4940.8,8.7 4956.9,8.7 4976.5,24.5 
					4983.2,24.5 5009,14.3 5018.3,19.1 5032.4,53.6 5040,57.5 5051.5,56.6 5065.1,63.8 5089.9,124.3 5096.4,127.6 5113.2,126.3 
					5124.6,132.3 5135.1,157.9 5139,159.9 5147.4,159.3 5155.7,163.6 5185.1,235.3 5194,240 5212.8,238.6 5222.8,243.8 
					5244.9,297.7 5255.2,303.1 5268.1,302.1 5277,306.8 5311.9,391.8 5320.8,396.4 5335.4,395.3 5342.6,399.1 5371.5,469.6 
					5379.4,473.8 5398.1,472.3 5407,477 5445,569.7 5454.3,574.6 5479.1,572.7 5485.6,576.1 5502.1,616.4 5514.3,622.8 
					5527.9,621.7 5540.8,628.5 5595.3,761.4 5609.6,768.9 5640.4,766.6 5656.9,775.3 5682.4,837.3 5698.1,845.6 5717.2,844.1 
					5733,852.4 5772.1,947.8 5785.7,955 5802.9,953.7 5817.2,961.2 5845.8,1031 5856.6,1036.6 5881.1,1096.4 5894.7,1103.5 
					5929.4,1100.9 5946.6,1109.9 5999.7,1239.6 6013.3,1246.7 6041,1244.6 6053.9,1251.3 6109.4,1386.6 6126.6,1395.6 
					6164.1,1392.8 6177,1399.5 6203.4,1463.9 6216.3,1470.7 6236.7,1469.2 6252.8,1477.6 6292.3,1573.9 6302.7,1579.3 
					6326.9,1577.5 6340.5,1584.7 6386,1695.7 6401.8,1704 6429.8,1701.9 6442,1708.3 6496.5,1841.1 6515.9,1851.3 6549,1848.8 
					6565.5,1857.5 6618.4,1986.4 6639.2,1997.3 6666.8,1995.4 6686.5,2005.6 6700.3,2039.3 6712.7,2045.8 6732,2044.4 6744,2050.7 
					6780.4,2139.5 6791.4,2145.3 6825.8,2142.8 6848.7,2154.8 7282.6,4518.1 2383.8,1588.8 2645.1,1285.8 2853.3,1025.2 
					2684.8,910.8 2416,745.8 2176.2,662.7 2065.7,623.1 1971.5,640.7 1756.7,666.4 1491.9,678.4 1436.1,704.7 1392.5,735 1367,759 
					1349,775.7 1323.4,787.9 1305.8,804.2 1249.6,857.2 1233.7,871.9 1148.9,912.4 1134.1,926.1 1117.8,935.8 1085.9,957.4 
					1072.5,965.3 1008.6,981.8 1001,982.6 967.7,995.1 857.7,1049.2 844.4,1039.7 715.2,939.2 686.5,918.7 673.7,914.3 719,889.9 
					751.5,869.5 853.4,765 866,760.1 881.5,762.4 893,757.9 916.6,720.8 927,716.8 958.6,721.4 970.1,717 1010.4,653.5 
					1022.5,648.8 1042.4,651.7 1051.9,648.1 1075.9,610.3 1087.5,605.9 1127.8,611.7 1142.5,606 1176.2,552.9 1185.7,549.2 
					1199,551.2 1209.9,547 1242.3,496 1249.9,493.1 1267.4,495.6 1276,492.3 1307.7,442.4 1318.9,438.1 1358.1,443.7 1369.7,439.2 
					1411.9,372.9 1420.1,369.7 1444.6,373.2 1454.1,369.5 1485.2,320.7 				"/>
				<polygon class="st2" points="1496.9,333.7 1526.6,396 1538.6,395.1 1575.1,300.8 1587.6,299.9 1600.3,326.4 1615.1,325.3 
					1633.9,276.6 1648.7,275.5 1675.6,331.7 1687.6,330.8 1717.1,254.4 1727.9,253.6 1763.6,328 1775.7,327.1 1806.8,246.8 
					1825.8,245.4 1842.7,280.7 1857.9,279.6 1879.4,224.1 1902.2,222.4 1921.6,263 1940.6,261.5 1963.5,202.6 1978.7,201.4 
					1995.4,236.2 2009.1,235.2 2028,186.3 2044.8,185 2054.8,206 2068.5,205 2083.1,173.1 2104.9,170.6 2119.1,199.8 2134.8,198 
					2152.3,148.6 2165,147.2 2174,165.6 2186.7,164.1 2197.9,132.6 2226.4,129.4 2243.6,164.9 2259.4,163.1 2280.6,103.1 
					2297.9,101.2 2308.1,122.3 2326.1,120.2 2341.6,76.4 2356.3,74.7 2363.7,90 2381.7,87.9 2389.1,66.9 2409.4,64.7 2423.4,93.3 
					2438.2,91.7 2456.9,38.8 2479.8,36.3 2490.4,58.1 2505.7,92.9 2524.8,92.9 2555.8,22.5 2582.2,22.5 2599.1,60.9 2618.7,60.9 
					2632.4,29.7 2657.7,29.7 2676,71.3 2696.7,71.3 2719.9,18.5 2751,18.5 2767.6,56.1 2784.9,56.1 2792.9,37.7 2813.7,37.7 
					2834.1,84.1 2856,84.1 2880.7,28.1 2897.7,28.1 2911.1,55.3 2926.7,55.3 2944.9,18.5 2964.8,18.5 2990.4,70.3 3007.1,70.3 
					3027.6,28.7 3046.7,28.7 3071.8,79.3 3090.1,79.3 3118.8,21.2 3137.9,21.2 3152.9,51.6 3173.6,51.6 3191.5,15.3 3211.4,15.3 
					3235.6,64.4 3254.7,64.4 3274.7,23.9 3292.3,23.9 3307,53.7 3327.7,53.7 3346.7,15.3 3370.6,15.3 3402.4,79.9 3419.2,79.9 
					3444.7,28.1 3467.8,28.1 3483.9,60.7 3503,60.7 3525.4,15.3 3546.1,15.3 3561.4,46.3 3573.3,46.3 3583.3,26 3595.2,26 
					3616.8,69.7 3633.5,69.7 3659.4,17.5 3681.7,17.5 3700.1,54.8 3720.8,54.8 3736.1,23.9 3756.8,23.9 3784.5,79.9 3802.8,79.9 
					3826,32.9 3842.7,32.9 3862.2,72.4 3881.3,72.4 3906.6,21.2 3925.7,21.2 3944.2,58.5 3962.5,58.5 3983.8,15.3 4005.3,15.3 
					4016.9,38.8 4032.8,38.8 4041.2,21.7 4055.5,21.7 4078.7,68.7 4092.3,68.7 4118.7,15.3 4137,15.3 4150.4,42.5 4170.3,42.5 
					4183.8,15.3 4199.1,15.3 4222,61.7 4235.8,61.7 4256.7,19.3 4273.4,19.3 4289.6,52.1 4305.8,52.1 4324,15.3 4341.9,15.3 
					4361.4,54.9 4378.2,54.9 4396.1,18.5 4411.1,18.5 4423.3,43.3 4435.9,43.3 4449.7,15.3 4462.2,15.3 4481,53.3 4491.1,53.3 
					4503.8,27.7 4517.5,27.7 4541.1,75.3 4553.6,75.3 4572.8,36.5 4586.5,36.5 4592.8,49.3 4605.9,49.3 4622.8,15.3 4642.5,15.3 
					4653.5,37.7 4667.2,37.7 4675.7,20.5 4692.5,20.5 4709.7,55.3 4723.4,55.3 4743.2,15.3 4761.1,15.3 4775.5,44.5 4787.5,44.5 
					4799.3,20.5 4817.3,20.5 4839.6,65.7 4850.4,65.7 4876.9,12.1 4892.4,12.1 4903.5,34.5 4915.5,34.5 4924,17.3 4945.5,17.3 
					4961.1,48.9 4970.1,48.9 4990.8,28.5 5004.4,32.4 5015.7,81.4 5026.8,84.5 5036,66.3 5056.1,72 5075.9,157.8 5085.4,160.5 
					5098.8,134 5115.7,138.8 5124,175.1 5129.8,176.7 5136.5,163.5 5148.6,166.9 5172.2,268.7 5185.3,272.5 5200.3,243 5215,247.2 
					5232.7,323.7 5248,328 5258.3,307.8 5271.4,311.5 5299.3,432.1 5312.4,435.8 5324.1,412.8 5334.6,415.8 5357.8,516 
					5369.4,519.3 5384.4,489.8 5397.5,493.5 5427.9,625.1 5441.6,628.9 5461.4,590 5470.9,592.7 5484.1,649.9 5502,655 
					5512.9,633.6 5531.8,639 5575.4,827.6 5596.5,833.6 5621.2,785.2 5645.4,792.1 5665.8,880.2 5688.9,886.8 5704.2,856.8 
					5727.4,863.4 5758.7,998.8 5778.7,1004.5 5792.4,977.6 5813.5,983.6 5836.4,1082.7 5852.2,1087.1 5871.8,1171.9 5891.8,1177.6 
					5919.5,1123.2 5944.8,1130.4 5987.3,1314.3 6007.3,1320 6029.5,1276.4 6048.5,1281.8 6092.8,1473.7 6118.1,1480.9 6148.1,1422 
					6167.1,1427.4 6188.2,1518.8 6207.2,1524.2 6223.5,1492.2 6247.2,1499 6278.8,1635.5 6294,1639.9 6313.4,1601.9 6333.4,1607.7 
					6369.8,1765.1 6393,1771.8 6415.4,1727.8 6433.3,1732.9 6476.9,1921.3 6505.4,1929.4 6531.9,1877.6 6556.1,1884.5 
					6598.4,2067.3 6629,2076.1 6651.1,2032.8 6679.9,2041.1 6691,2088.8 6709.2,2094 6724.7,2063.8 6742.3,2068.8 6771.4,2194.7 
					6787.6,2199.3 6815,2145.7 6848.7,2155.3 7282.6,4518.1 2383.8,1589.9 2585.8,1267.5 2686.1,1025.6 2511.4,931.2 2234.8,816.9 
					1994.7,764.4 1883.6,737.4 1790.3,755.2 1577.7,766.9 1326.4,740.1 1272.1,752.1 1248.9,767.1 1228.5,793.5 1220.7,806.8 
					1200.2,809.5 1192.5,822.5 1147.6,880.5 1140.6,892.3 1072.7,901 1066.3,912 1058.4,919.7 1032.9,945 1026.4,951.3 975.3,948.5 
					969.2,947.4 952.5,957.4 864.4,1025.6 858.3,1018 754.9,903.6 741.7,887.2 731.3,887.1 767.7,880.8 801.2,864.5 882.7,751.1 
					899.9,747.2 912.3,765 927.9,761.5 946.8,707.5 960.8,704.3 986.1,740.6 1001.7,737 1034,644.6 1050.4,640.9 1066.3,663.8 
					1079.2,660.9 1098.3,606 1114.2,602.4 1146.3,648.5 1166.3,644 1193.3,566.7 1206.1,563.8 1216.7,579 1231.5,575.7 
					1257.4,501.5 1267.8,499.2 1281.8,519.2 1293.5,516.5 1318.8,444 1334.1,440.6 1365.4,485.4 1381.2,481.8 1414.9,385.2 
					1426,382.7 1445.6,410.7 1458.5,407.8 1483.4,336.8 				"/>
				<polygon class="st3" points="1498.6,350.6 1520.9,449.5 1536.2,448.8 1563.5,314.2 1579.5,313.5 1589,355.6 1607.9,354.8 
					1622.1,285.3 1641,284.4 1661.1,373.6 1676.4,373 1698.6,263.9 1712.4,263.3 1739.1,381.5 1754.6,380.8 1777.9,266.2 
					1802.2,265.2 1814.9,321.2 1834.3,320.4 1850.4,241.2 1879.5,239.9 1894.1,304.3 1918.3,303.3 1935.5,219 1954.9,218.2 
					1967.4,273.5 1984.8,272.7 1999.1,202.8 2020.4,201.9 2027.9,235.2 2045.4,234.4 2056.4,189.3 2084.3,187.5 2094.9,235.4 
					2115.2,234 2128.3,164.9 2144.6,163.9 2151.3,194.1 2167.7,193 2176,149 2212.6,146.6 2225.6,204.7 2245.8,203.4 2261.7,119.6 
					2283.8,118.2 2291.5,152.8 2314.6,151.3 2326.3,90 2345.1,88.7 2350.6,113.8 2373.7,112.3 2379.3,82.9 2405.3,81.2 
					2415.8,128.3 2434.8,127.1 2448.8,53.2 2478.1,51.3 2486.1,87.1 2497.6,139.4 2521.9,139.4 2545.1,33.8 2578.7,33.8 
					2591.4,91.4 2616.2,91.4 2626.5,44.6 2658.7,44.6 2672.4,107 2698.8,107 2716.2,27.8 2755.7,27.8 2768.1,84.2 2790.1,84.2 
					2796.1,56.6 2822.5,56.6 2837.8,126.2 2865.6,126.2 2884.1,42.2 2905.4,42.2 2915.5,83 2935.1,83 2948.7,27.8 2973.6,27.8 
					2992.8,105.4 3013.7,105.4 3029.1,43 3053.1,43 3071.9,119 3094.8,119 3116.3,31.8 3140.2,31.8 3151.5,77.4 3177.4,77.4 
					3190.9,23 3215.8,23 3234,96.6 3257.9,96.6 3272.9,35.8 3294.8,35.8 3305.9,80.6 3331.8,80.6 3346,23 3375.9,23 3399.9,119.8 
					3420.8,119.8 3440,42.2 3468.9,42.2 3480.9,91 3504.9,91 3521.7,23 3547.6,23 3559.1,69.4 3574,69.4 3581.5,39 3596.4,39 
					3612.7,104.6 3633.6,104.6 3653,26.2 3680.9,26.2 3694.7,82.2 3720.6,82.2 3732.1,35.8 3758,35.8 3778.8,119.8 3801.7,119.8 
					3819.1,49.4 3840.1,49.4 3854.7,108.6 3878.6,108.6 3897.6,31.8 3921.5,31.8 3935.4,87.8 3958.3,87.8 3974.3,23 4001.2,23 
					4009.9,58.2 4029.9,58.2 4036.2,32.6 4054,32.6 4071.4,103 4088.5,103 4108.2,23 4131.2,23 4141.3,63.8 4166.2,63.8 4176.3,23 
					4195.5,23 4212.7,92.6 4229.9,92.6 4245.6,29 4266.5,29 4278.7,78.2 4298.9,78.2 4312.5,23 4335,23 4349.6,82.4 4370.6,82.4 
					4384,27.8 4402.7,27.8 4411.9,65 4427.6,65 4438,23 4453.7,23 4467.8,80 4480.5,80 4490,41.6 4507.2,41.6 4524.8,113 
					4540.5,113 4554.9,54.8 4572.1,54.8 4576.9,74 4593.3,74 4605.9,23 4630.6,23 4638.9,56.6 4656.1,56.6 4662.4,30.8 4683.4,30.8 
					4696.3,83 4713.5,83 4728.3,23 4750.8,23 4761.6,66.8 4776.5,66.8 4785.4,30.8 4807.9,30.8 4824.6,98.6 4838.1,98.6 4858,18.2 
					4877.5,18.2 4885.8,51.8 4900.7,51.8 4907.1,26 4934,26 4945.8,73.4 4957,73.4 4972.5,42.8 4990.6,45.7 4999,109.1 
					5013.6,111.5 5020.6,75.9 5047,80.2 5061.9,191.4 5074.4,193.4 5084.5,141.7 5106.7,145.3 5113,192.3 5120.6,193.6 
					5125.6,167.7 5141.6,170.3 5159.3,302.1 5176.6,305 5187.9,247.4 5207.3,250.6 5220.6,349.7 5240.7,352.9 5248.4,313.4 
					5265.8,316.2 5286.7,472.3 5304.1,475.1 5312.8,430.3 5326.7,432.5 5344.1,562.3 5359.4,564.7 5370.6,507.2 5388,510 
					5410.8,680.4 5428.8,683.3 5443.7,607.3 5456.2,609.3 5466.1,683.4 5489.7,687.3 5497.9,645.5 5522.9,649.5 5555.6,893.8 
					5583.4,898.3 5601.9,803.8 5633.9,809 5649.1,923 5679.7,928 5691.2,869.5 5721.8,874.5 5745.2,1049.8 5771.6,1054.1 
					5782,1001.5 5809.8,1006 5826.9,1134.3 5847.8,1137.7 5862.5,1247.4 5888.9,1251.7 5909.7,1145.5 5943,1150.9 5974.9,1389 
					6001.3,1393.3 6018,1308.3 6043,1312.4 6076.2,1560.7 6109.6,1566.1 6132.1,1451.2 6157.2,1455.2 6173,1573.6 6198,1577.6 
					6210.2,1515.3 6241.5,1520.3 6265.2,1697.1 6285.4,1700.4 6299.9,1626.4 6326.3,1630.6 6353.6,1834.6 6384.2,1839.5 
					6401,1753.8 6424.6,1757.6 6457.3,2001.5 6494.9,2007.6 6514.7,1906.3 6546.7,1911.4 6578.4,2148.2 6618.8,2154.8 
					6635.4,2070.3 6673.4,2076.5 6681.7,2138.3 6705.8,2142.2 6717.4,2083.1 6740.5,2086.9 6762.4,2249.9 6783.7,2253.4 
					6804.3,2148.6 6848.7,2155.8 7282.6,4518.1 2383.8,1591 2526.5,1249.1 2518.9,1026 2338.1,951.6 2053.6,888.1 1813.2,866.1 
					1701.6,851.7 1609.2,869.7 1398.6,867.5 1161,801.8 1108,799.5 1105.3,799.3 1090.1,827.9 1092.3,838 1077,831 1079.2,840.8 
					1045.5,903.9 1047.5,912.7 996.6,889.7 998.4,897.9 999,903.7 979.9,932.7 980.4,937.4 942,915.2 937.5,912.1 937.2,919.6 
					871.1,1002 872.1,996.3 794.6,868 796.8,855.7 789,859.9 816.3,871.7 850.9,859.4 912.1,737.2 933.8,734.3 943.1,767.7 
					962.8,765 976.9,694.1 994.6,691.7 1013.6,759.7 1033.3,757.1 1057.5,635.8 1078.2,633 1090.2,675.8 1106.4,673.7 1120.8,601.6 
					1140.8,598.9 1164.9,685.4 1190,682 1210.3,580.5 1226.5,578.3 1234.5,606.9 1253.2,604.3 1272.6,507 1285.7,505.3 
					1296.2,542.8 1310.9,540.8 1329.9,445.6 1349.2,443 1372.7,527 1392.6,524.3 1417.9,397.6 1432,395.7 1446.7,448.2 1462.9,446 
					1481.6,352.9 				"/>
				<polygon class="st4" points="1500.3,367.5 1515.2,503 1533.8,502.5 1552,327.6 1571.5,327.1 1577.8,384.8 1600.8,384.2 
					1610.2,293.9 1633.2,293.4 1646.7,415.6 1665.3,415.2 1680,273.4 1696.8,273 1714.7,435 1733.6,434.5 1749.1,285.6 
					1778.6,284.9 1787,361.8 1810.6,361.2 1821.4,258.3 1856.8,257.4 1866.5,345.7 1896,345 1907.4,235.5 1931,234.9 1939.4,310.7 
					1960.6,310.2 1970.1,219.3 1996.1,218.7 2001.1,264.4 2022.3,263.9 2029.7,205.5 2063.7,204.3 2070.8,270.9 2095.5,270 
					2104.2,181.3 2124.2,180.6 2128.7,222.6 2148.6,221.9 2154.2,165.3 2198.9,163.7 2207.5,244.6 2232.2,243.7 2242.8,136.2 
					2269.8,135.2 2274.9,183.3 2303.1,182.3 2310.9,103.6 2333.8,102.8 2337.5,137.6 2365.7,136.6 2369.4,98.9 2401.2,97.7 
					2408.2,163.3 2431.3,162.4 2440.7,67.6 2476.4,66.3 2481.8,116.1 2489.4,185.9 2518.9,185.9 2534.4,45.1 2575.2,45.1 
					2583.6,121.9 2613.8,121.9 2620.7,59.5 2659.7,59.5 2668.9,142.7 2700.8,142.7 2712.4,37.1 2760.4,37.1 2768.7,112.3 
					2795.3,112.3 2799.4,75.5 2831.3,75.5 2841.5,168.3 2875.3,168.3 2887.6,56.3 2913.2,56.3 2919.9,110.7 2943.4,110.7 
					2952.5,37.1 2982.5,37.1 2995.3,140.5 3020.4,140.5 3030.7,57.3 3059.4,57.3 3071.9,158.7 3099.5,158.7 3113.9,42.4 
					3142.6,42.4 3150.1,103.2 3181.3,103.2 3190.2,30.7 3220.2,30.7 3232.3,128.8 3261,128.8 3271.1,47.7 3297.4,47.7 3304.8,107.5 
					3335.9,107.5 3345.4,30.7 3381.4,30.7 3397.3,159.7 3422.5,159.7 3435.2,56.3 3470,56.3 3478,121.3 3506.8,121.3 3518,30.7 
					3549.1,30.7 3556.8,92.5 3574.7,92.5 3579.7,52 3597.7,52 3608.5,139.5 3633.6,139.5 3646.6,34.9 3680.1,34.9 3689.3,109.6 
					3720.5,109.6 3728.1,47.7 3759.3,47.7 3773.1,159.7 3800.7,159.7 3812.3,65.9 3837.4,65.9 3847.2,144.8 3875.9,144.8 
					3888.6,42.4 3917.3,42.4 3926.6,117.1 3954.1,117.1 3964.8,30.7 3997.1,30.7 4002.9,77.6 4026.9,77.6 4031.1,43.5 4052.6,43.5 
					4064.2,137.3 4084.6,137.3 4097.8,30.7 4125.4,30.7 4132.1,85.1 4162,85.1 4168.8,30.7 4191.8,30.7 4203.3,123.5 4224,123.5 
					4234.4,38.7 4259.6,38.7 4267.7,104.3 4292,104.3 4301.1,30.7 4328,30.7 4337.8,109.9 4363,109.9 4372,37.1 4394.4,37.1 
					4400.5,86.7 4419.4,86.7 4426.3,30.7 4445.2,30.7 4454.6,106.7 4469.9,106.7 4476.2,55.5 4496.8,55.5 4508.6,150.7 
					4527.5,150.7 4537.1,73.1 4557.7,73.1 4560.9,98.7 4580.6,98.7 4589,30.7 4618.7,30.7 4624.2,75.5 4644.9,75.5 4649.1,41.1 
					4674.3,41.1 4682.9,110.7 4703.6,110.7 4713.5,30.7 4740.4,30.7 4747.6,89.1 4765.6,89.1 4771.5,41.1 4798.5,41.1 4809.7,131.5 
					4825.9,131.5 4839.1,24.3 4862.5,24.3 4868,69.1 4886,69.1 4890.3,34.7 4922.6,34.7 4930.4,97.9 4943.9,97.9 4954.3,57.1 
					4976.7,59 4982.4,136.9 5000.5,138.4 5005.1,85.5 5037.9,88.4 5047.8,224.9 5063.4,226.2 5070.1,149.4 5097.7,151.8 
					5101.9,209.6 5111.4,210.4 5114.8,171.9 5134.6,173.7 5146.4,335.6 5167.9,337.4 5175.4,251.9 5199.6,254 5208.4,375.6 
					5233.5,377.8 5238.6,319.1 5260.2,321 5274.1,512.6 5295.7,514.5 5301.5,447.8 5318.8,449.3 5330.4,608.6 5349.4,610.2 
					5356.9,524.7 5378.4,526.5 5393.6,735.7 5416.1,737.7 5426,624.6 5441.5,625.9 5448.1,717 5477.5,719.5 5482.9,657.4 
					5514,660.1 5535.8,960 5570.3,963 5582.7,822.4 5622.4,825.8 5632.6,965.9 5670.5,969.2 5678.2,882.2 5716.2,885.5 
					5731.8,1100.8 5764.6,1103.7 5771.5,1025.4 5806,1028.4 5817.5,1185.9 5843.4,1188.2 5853.2,1322.9 5886,1325.8 5899.8,1167.8 
					5941.3,1171.4 5962.5,1463.7 5995.3,1466.6 6006.4,1340.2 6037.5,1342.9 6059.7,1647.8 6101.1,1651.4 6116.1,1480.4 
					6147.2,1483.1 6157.8,1628.4 6188.9,1631.1 6197,1538.3 6235.9,1541.7 6251.7,1758.8 6276.7,1760.9 6286.4,1650.8 
					6319.2,1653.6 6337.4,1904 6375.4,1907.3 6386.6,1779.7 6415.9,1782.3 6437.7,2081.6 6484.4,2085.7 6497.6,1935 6537.3,1938.4 
					6558.5,2229.1 6608.6,2233.5 6619.6,2107.8 6666.8,2111.9 6672.4,2187.8 6702.3,2190.4 6710,2102.5 6738.8,2105 6753.4,2305.1 
					6779.9,2307.4 6793.6,2151.4 6848.7,2156.2 7282.6,4518.1 2383.8,1592.1 2467.1,1230.7 2351.7,1026.4 2164.8,972 1872.3,959.3 
					1631.6,967.8 1519.5,966 1428,984.2 1219.6,968 995.6,863.4 944,846.8 961.8,831.4 951.5,862.4 964,869.1 953.8,852.5 
					965.9,859 943.5,927.3 954.4,933.1 920.4,878.3 930.6,883.8 939.7,887.7 926.9,920.3 934.3,923.5 908.7,881.9 905.7,876.8 
					921.9,881.8 877.9,978.5 886,974.7 834.3,832.4 851.9,824.2 846.7,832.6 864.9,862.6 900.7,854.4 941.5,723.3 967.6,721.4 
					973.8,770.3 997.6,768.5 1007,680.7 1028.5,679.1 1041.1,778.9 1064.9,777.1 1081.1,626.9 1106.1,625 1114,687.9 1133.7,686.4 
					1143.3,597.2 1167.3,595.4 1183.4,722.3 1213.8,720 1227.3,594.3 1246.9,592.9 1252.3,634.7 1274.8,633 1287.7,512.6 
					1303.6,511.4 1310.6,566.4 1328.4,565.1 1341.1,447.2 1364.3,445.5 1380,568.7 1404.1,566.9 1420.9,410 1437.9,408.8 
					1447.7,485.8 1467.3,484.3 1479.8,369 				"/>
				<polygon class="st5" points="1502,384.3 1509.5,556.5 1531.4,556.3 1540.5,341 1563.4,340.8 1566.6,414 1593.7,413.7 
					1598.4,302.5 1625.5,302.3 1632.2,457.6 1654.1,457.4 1661.5,282.9 1681.3,282.7 1690.2,488.5 1712.4,488.3 1720.2,305 
					1755,304.6 1759.2,402.3 1787,402 1792.4,275.3 1834.1,274.9 1838.9,387 1873.7,386.7 1879.4,251.9 1907.2,251.6 1911.4,348 
					1936.4,347.7 1941.1,235.9 1971.7,235.6 1974.2,293.6 1999.2,293.3 2002.9,221.8 2043.2,221.1 2046.7,306.4 2075.8,306 
					2080.2,197.6 2103.8,197.3 2106,251.1 2129.6,250.7 2132.4,181.6 2185.1,180.9 2189.4,284.5 2218.6,284.1 2223.9,152.7 
					2255.8,152.2 2258.4,213.9 2291.7,213.4 2295.5,117.2 2322.6,116.8 2324.4,161.4 2357.8,160.9 2359.6,114.8 2397.1,114.3 
					2400.6,198.2 2427.9,197.8 2432.6,82 2474.8,81.4 2477.4,145.1 2481.3,232.3 2515.9,232.3 2523.7,56.3 2571.7,56.3 
					2575.9,152.3 2611.4,152.3 2614.8,74.3 2660.7,74.3 2665.3,178.3 2702.9,178.3 2708.7,46.3 2765.1,46.3 2769.2,140.3 
					2800.5,140.3 2802.6,94.3 2840.1,94.3 2845.3,210.3 2884.9,210.3 2891.1,70.3 2921,70.3 2924.3,138.3 2951.8,138.3 2956.3,46.3 
					2991.3,46.3 2997.7,175.7 3027.1,175.7 3032.2,71.7 3065.8,71.7 3072.1,198.3 3104.2,198.3 3111.4,53 3145,53 3148.7,129 
					3185.1,129 3189.6,38.3 3224.6,38.3 3230.6,161 3264.2,161 3269.2,59.7 3300,59.7 3303.7,134.3 3340,134.3 3344.8,38.3 
					3386.8,38.3 3394.7,199.7 3424.1,199.7 3430.5,70.3 3471.1,70.3 3475.1,151.7 3508.7,151.7 3514.3,38.3 3550.6,38.3 
					3554.5,115.7 3575.4,115.7 3577.9,65 3598.9,65 3604.3,174.3 3633.7,174.3 3640.2,43.7 3679.3,43.7 3683.9,137 3720.3,137 
					3724.1,59.7 3760.5,59.7 3767.4,199.7 3799.6,199.7 3805.4,82.3 3834.8,82.3 3839.7,181 3873.2,181 3879.6,53 3913.1,53 
					3917.8,146.3 3949.9,146.3 3955.3,38.3 3993.1,38.3 3995.9,97 4023.9,97 4026,54.3 4051.1,54.3 4056.9,171.7 4080.8,171.7 
					4087.4,38.3 4119.6,38.3 4122.9,106.3 4157.9,106.3 4161.3,38.3 4188.2,38.3 4193.9,154.3 4218.1,154.3 4223.3,48.3 
					4252.7,48.3 4256.7,130.3 4285.1,130.3 4289.6,38.3 4321.1,38.3 4326,137.3 4355.4,137.3 4359.9,46.3 4386.1,46.3 4389.1,108.3 
					4411.2,108.3 4414.6,38.3 4436.7,38.3 4441.4,133.3 4459.2,133.3 4462.4,69.3 4486.5,69.3 4492.4,188.3 4514.4,188.3 
					4519.2,91.3 4543.3,91.3 4544.9,123.3 4568,123.3 4572.2,38.3 4606.8,38.3 4609.6,94.3 4633.7,94.3 4635.9,51.3 4665.2,51.3 
					4669.5,138.3 4693.7,138.3 4698.6,38.3 4730.1,38.3 4733.7,111.3 4754.7,111.3 4757.6,51.3 4789.1,51.3 4794.7,164.3 
					4813.6,164.3 4820.2,30.3 4847.5,30.3 4850.3,86.3 4871.3,86.3 4873.4,43.3 4911.2,43.3 4915.1,122.3 4930.8,122.3 4936,71.3 
					4962.8,72.3 4965.6,164.6 4987.3,165.4 4989.6,95.2 5028.8,96.6 5033.8,258.5 5052.4,259.1 5055.7,157.1 5088.7,158.3 
					5090.8,226.8 5102.2,227.2 5103.9,176.2 5127.6,177 5133.5,369 5159.3,369.9 5163,256.3 5191.9,257.4 5196.3,401.6 
					5226.2,402.7 5228.8,324.7 5254.6,325.7 5261.5,552.9 5287.3,553.8 5290.3,465.3 5310.9,466 5316.7,654.9 5339.4,655.7 
					5343.1,542.1 5368.9,543.1 5376.5,791.1 5403.3,792 5408.3,641.9 5426.8,642.6 5430.1,750.5 5465.2,751.8 5467.9,669.3 
					5505.1,670.7 5516,1026.2 5557.2,1027.7 5563.4,841 5610.9,842.7 5616,1008.7 5661.4,1010.4 5665.2,894.9 5710.6,896.5 
					5718.4,1151.8 5757.6,1153.2 5761,1049.3 5802.3,1050.8 5808,1237.6 5839,1238.7 5843.9,1398.5 5883.1,1399.9 5890,1190.1 
					5939.5,1191.9 5950.1,1538.5 5989.4,1539.9 5994.9,1372.1 6032,1373.4 6043.1,1734.9 6092.6,1736.7 6100.1,1509.6 
					6137.3,1510.9 6142.6,1683.2 6179.7,1684.5 6183.8,1561.3 6230.2,1563 6238.1,1820.4 6268,1821.5 6272.9,1675.2 6312.1,1676.6 
					6321.2,1973.4 6366.6,1975 6372.2,1805.7 6407.3,1806.9 6418.1,2161.8 6473.9,2163.9 6480.5,1963.7 6528,1965.4 6538.5,2310 
					6598.4,2312.2 6603.9,2145.3 6660.3,2147.4 6663.1,2237.3 6698.8,2238.6 6702.7,2121.8 6737.1,2123.1 6744.4,2360.4 
					6776,2361.5 6782.9,2154.3 6848.7,2156.7 7282.6,4518.1 2383.8,1593.3 2407.8,1212.3 2184.5,1026.8 1991.4,992.4 1691.1,1030.4 
					1450.1,1069.5 1337.5,1080.3 1246.9,1098.7 1040.5,1068.6 830.2,925.1 780,894.2 818.2,863.6 813.1,896.9 835.7,900.2 
					830.6,874.1 852.6,877.3 841.4,950.6 861.3,953.6 844.3,867 862.8,869.7 880.3,871.6 873.9,907.9 888.2,909.5 875.4,848.6 
					873.9,841.5 906.6,844 884.6,954.9 899.9,953 874,796.8 907,792.7 904.4,805.4 913.5,853.5 950.4,849.4 970.8,709.5 
					1001.5,708.5 1004.6,772.9 1032.5,772.1 1037.2,667.4 1062.3,666.6 1068.6,798 1096.6,797.2 1104.6,618 1133.9,617.1 
					1137.9,699.9 1160.9,699.2 1165.7,592.8 1193.9,591.9 1202,759.1 1237.6,758 1244.3,608.2 1267.3,607.4 1270,662.5 
					1296.4,661.7 1302.9,518.1 1321.5,517.5 1325,590 1345.9,589.3 1352.2,448.8 1379.4,447.9 1387.3,610.3 1415.5,609.4 
					1423.9,422.4 1443.8,421.8 1448.7,523.3 1471.8,522.5 1478,385.1 				"/>
				<polygon class="st6" points="2383.8,1594.4 2348.5,1194 2017.3,1027.2 1818.1,1012.8 1268.5,1171.2 1065.7,1213.2 861.5,1169.1 
					616,941.5 674.6,895.7 674.6,931.3 707.4,931.3 707.4,895.6 739.4,895.6 739.4,974 768.2,974 768.2,855.6 821,855.6 821,895.6 
					842.1,895.6 842.1,806.3 891.4,806.3 891.4,931.3 913.8,931.3 913.8,761.2 962.1,761.2 962.1,844.4 1000.2,844.4 1000.2,695.6 
					1035.4,695.6 1035.4,775.6 1067.4,775.6 1067.4,654 1096.2,654 1096.2,817.2 1128.2,817.2 1128.2,609.2 1161.8,609.2 
					1161.8,712 1188.2,712 1188.2,588.4 1220.6,588.4 1220.6,796 1261.4,796 1261.4,622 1287.8,622 1287.8,690.4 1318.1,690.4 
					1318.1,523.6 1339.4,523.6 1339.4,613.6 1363.4,613.6 1363.4,450.4 1394.6,450.4 1394.6,652 1427,652 1427,434.8 1449.8,434.8 
					1449.8,560.8 1476.2,560.8 1476.2,401.2 1503.8,401.2 1503.8,610 1529,610 1529,354.4 1555.4,354.4 1555.4,443.2 1586.6,443.2 
					1586.6,311.2 1617.8,311.2 1617.8,499.6 1643,499.6 1643,292.4 1665.8,292.4 1665.8,542 1691.4,542 1691.4,324.4 1731.4,324.4 
					1731.4,442.8 1763.4,442.8 1763.4,292.4 1811.4,292.4 1811.4,428.4 1851.4,428.4 1851.4,268.4 1883.4,268.4 1883.4,385.2 
					1912.2,385.2 1912.2,252.4 1947.4,252.4 1947.4,322.8 1976.2,322.8 1976.2,238 2022.6,238 2022.6,342 2056.2,342 2056.2,214 
					2083.4,214 2083.4,279.6 2110.6,279.6 2110.6,198 2171.4,198 2171.4,324.4 2205,324.4 2205,169.2 2241.8,169.2 2241.8,244.4 
					2280.2,244.4 2280.2,130.8 2311.4,130.8 2311.4,185.2 2349.8,185.2 2349.8,130.8 2393,130.8 2393,233.2 2424.4,233.2 
					2424.4,96.4 2473.1,96.4 2473.1,278.8 2513,278.8 2513,67.6 2568.2,67.6 2568.2,182.8 2609,182.8 2609,89.2 2661.8,89.2 
					2661.8,214 2705,214 2705,55.6 2769.8,55.6 2769.8,168.4 2805.8,168.4 2805.8,113.2 2849,113.2 2849,252.4 2894.6,252.4 
					2894.6,84.4 2928.8,84.4 2928.8,166 2960.2,166 2960.2,55.6 3000.2,55.6 3000.2,210.8 3033.8,210.8 3033.8,86 3072.2,86 
					3072.2,238 3109,238 3109,63.6 3147.4,63.6 3147.4,154.8 3189,154.8 3189,46 3229,46 3229,193.2 3267.4,193.2 3267.4,71.6 
					3302.6,71.6 3302.6,161.2 3344.2,161.2 3344.2,46 3392.2,46 3392.2,239.6 3425.8,239.6 3425.8,84.4 3472.2,84.4 3472.2,182 
					3510.6,182 3510.6,46 3552.2,46 3552.2,138.8 3576.2,138.8 3576.2,78 3600.2,78 3600.2,209.2 3633.8,209.2 3633.8,52.4 
					3678.6,52.4 3678.6,164.4 3720.2,164.4 3720.2,71.6 3761.8,71.6 3761.8,239.6 3798.6,239.6 3798.6,98.8 3832.2,98.8 
					3832.2,217.2 3870.6,217.2 3870.6,63.6 3909,63.6 3909,175.6 3945.8,175.6 3945.8,46 3989,46 3989,116.4 4021,116.4 4021,65.2 
					4049.6,65.2 4049.6,206 4077,206 4077,46 4113.8,46 4113.8,127.6 4153.8,127.6 4153.8,46 4184.6,46 4184.6,185.2 4212.2,185.2 
					4212.2,58 4245.8,58 4245.8,156.4 4278.2,156.4 4278.2,46 4314.2,46 4314.2,164.8 4347.8,164.8 4347.8,55.6 4377.8,55.6 
					4377.8,130 4403,130 4403,46 4428.2,46 4428.2,160 4448.6,160 4448.6,83.2 4476.2,83.2 4476.2,226 4501.4,226 4501.4,109.6 
					4529,109.6 4529,148 4555.4,148 4555.4,46 4595,46 4595,113.2 4622.6,113.2 4622.6,61.6 4656.2,61.6 4656.2,166 4683.8,166 
					4683.8,46 4719.8,46 4719.8,133.6 4743.8,133.6 4743.8,61.6 4779.8,61.6 4779.8,197.2 4801.4,197.2 4801.4,36.4 4832.6,36.4 
					4832.6,103.6 4856.6,103.6 4856.6,52 4899.8,52 4899.8,146.8 4917.8,146.8 4917.8,85.6 4949,85.6 4949,192.4 4974.2,192.4 
					4974.2,104.8 5019.8,104.8 5019.8,292 5041.4,292 5041.4,164.8 5079.8,164.8 5079.8,244 5093,244 5093,180.4 5120.6,180.4 
					5120.6,402.4 5150.6,402.4 5150.6,260.8 5184.2,260.8 5184.2,427.6 5219,427.6 5219,330.4 5249,330.4 5249,593.2 5279,593.2 
					5279,482.8 5303,482.8 5303,701.2 5329.4,701.2 5329.4,559.6 5359.4,559.6 5359.4,846.4 5390.6,846.4 5390.6,659.2 
					5412.2,659.2 5412.2,784 5453,784 5453,681.2 5496.2,681.2 5496.2,1092.4 5544.2,1092.4 5544.2,859.6 5599.4,859.6 
					5599.4,1051.6 5652.2,1051.6 5652.2,907.6 5705,907.6 5705,1202.8 5750.6,1202.8 5750.6,1073.2 5798.6,1073.2 5798.6,1289.2 
					5834.6,1289.2 5834.6,1474 5880.2,1474 5880.2,1212.4 5937.8,1212.4 5937.8,1613.2 5983.4,1613.2 5983.4,1403.9 6026.6,1403.9 
					6026.6,1822 6084.2,1822 6084.2,1538.8 6127.4,1538.8 6127.4,1738 6170.6,1738 6170.6,1584.4 6224.6,1584.4 6224.6,1882 
					6259.4,1882 6259.4,1699.6 6305,1699.6 6305,2042.8 6357.8,2042.8 6357.8,1831.6 6398.6,1831.6 6398.6,2242 6463.4,2242 
					6463.4,1992.4 6518.6,1992.4 6518.6,2390.9 6588.2,2390.9 6588.2,2182.8 6653.8,2182.8 6653.8,2286.8 6695.4,2286.8 
					6695.4,2141.2 6735.4,2141.2 6735.4,2415.6 6772.2,2415.6 6772.2,2157.2 6848.7,2157.2 7282.6,4518.1 				"/>
				<polygon class="st7" points="2383.8,1634.4 2348.5,1194 2017.3,1027.2 1818.1,1012.8 1268.5,1171.2 1065.7,1213.2 861.5,1169.1 
					616,941.5 674.6,912.4 674.6,942.1 707.4,947.1 707.4,917.4 739.4,922.3 739.4,987.6 768.2,992.1 768.2,891.9 821,891.9 
					821,931.9 842.1,931.9 842.1,842.6 891.4,842.6 891.4,967.7 913.8,967.7 913.8,797.5 962.1,797.5 962.1,880.7 1000.2,880.7 
					1000.2,731.9 1035.4,731.9 1035.4,811.9 1067.4,811.9 1067.4,690.3 1096.2,690.3 1096.2,853.5 1128.2,853.5 1128.2,645.5 
					1161.8,645.5 1161.8,748.3 1188.2,748.3 1188.2,624.7 1220.6,624.7 1220.6,832.3 1261.4,832.3 1261.4,658.3 1287.8,658.3 
					1287.8,726.7 1318.1,726.7 1318.1,559.9 1339.4,559.9 1339.4,649.9 1363.4,649.9 1363.4,486.7 1394.6,486.7 1394.6,688.3 
					1427,688.3 1427,471.1 1449.8,471.1 1449.8,597.1 1476.2,597.1 1476.2,437.5 1503.8,437.5 1503.8,646.3 1529,646.3 1529,390.7 
					1555.4,390.7 1555.4,479.5 1586.6,479.5 1586.6,347.5 1617.8,347.5 1617.8,535.9 1643,535.9 1643,328.7 1665.8,328.7 
					1665.8,578.3 1691.4,578.3 1691.4,360.7 1731.4,360.7 1731.4,479.1 1763.4,479.1 1763.4,328.7 1811.4,328.7 1811.4,464.7 
					1851.4,464.7 1851.4,304.7 1883.4,304.7 1883.4,421.5 1912.2,421.5 1912.2,288.7 1947.4,288.7 1947.4,359.1 1976.2,359.1 
					1976.2,274.3 2022.6,274.3 2022.6,378.3 2056.2,378.3 2056.2,250.3 2083.4,250.3 2083.4,315.9 2110.6,315.9 2110.6,234.3 
					2171.4,234.3 2171.4,360.7 2205,360.7 2205,205.5 2241.8,205.5 2241.8,280.7 2280.2,280.7 2280.2,167.1 2311.4,167.1 
					2311.4,221.5 2349.8,221.5 2349.8,167.1 2393,167.1 2393,269.5 2424.4,269.5 2424.4,132.7 2473.1,132.7 2473.1,315.1 
					2513,315.1 2513,103.9 2568.2,103.9 2568.2,219.1 2609,219.1 2609,125.5 2661.8,125.5 2661.8,250.3 2705,250.3 2705,91.9 
					2769.8,91.9 2769.8,204.7 2805.8,204.7 2805.8,149.5 2849,149.5 2849,288.7 2894.6,288.7 2894.6,120.7 2928.8,120.7 
					2928.8,202.3 2960.2,202.3 2960.2,91.9 3000.2,91.9 3000.2,247.1 3033.8,247.1 3033.8,122.3 3072.2,122.3 3072.2,274.3 
					3109,274.3 3109,99.9 3147.4,99.9 3147.4,191.1 3189,191.1 3189,82.3 3229,82.3 3229,229.5 3267.4,229.5 3267.4,107.9 
					3302.6,107.9 3302.6,197.5 3344.2,197.5 3344.2,82.3 3392.2,82.3 3392.2,275.9 3425.8,275.9 3425.8,120.7 3472.2,120.7 
					3472.2,218.3 3510.6,218.3 3510.6,82.3 3552.2,82.3 3552.2,175.1 3576.2,175.1 3576.2,114.3 3600.2,114.3 3600.2,245.5 
					3633.8,245.5 3633.8,88.7 3678.6,88.7 3678.6,200.7 3720.2,200.7 3720.2,107.9 3761.8,107.9 3761.8,275.9 3798.6,275.9 
					3798.6,135.1 3832.2,135.1 3832.2,253.5 3870.6,253.5 3870.6,99.9 3909,99.9 3909,211.9 3945.8,211.9 3945.8,82.3 3989,82.3 
					3989,152.7 4021,152.7 4021,101.5 4049.6,101.5 4049.6,242.3 4077,242.3 4077,82.3 4113.8,82.3 4113.8,163.9 4153.8,163.9 
					4153.8,82.3 4184.6,82.3 4184.6,221.5 4212.2,221.5 4212.2,94.3 4245.8,94.3 4245.8,192.7 4278.2,192.7 4278.2,82.3 
					4314.2,82.3 4314.2,201.1 4347.8,201.1 4347.8,91.9 4377.8,91.9 4377.8,166.3 4403,166.3 4403,82.3 4428.2,82.3 4428.2,196.3 
					4448.6,196.3 4448.6,119.5 4476.2,119.5 4476.2,262.3 4501.4,262.3 4501.4,145.9 4529,145.9 4529,184.3 4555.4,184.3 
					4555.4,82.3 4595,82.3 4595,149.5 4622.6,149.5 4622.6,97.9 4656.2,97.9 4656.2,202.3 4683.8,202.3 4683.8,82.3 4719.8,82.3 
					4719.8,169.9 4743.8,169.9 4743.8,97.9 4779.8,97.9 4779.8,233.5 4801.4,233.5 4801.4,72.7 4832.6,72.7 4832.6,139.9 
					4856.6,139.9 4856.6,88.3 4899.8,88.3 4899.8,183.1 4917.8,183.1 4917.8,121.9 4949,121.9 4949,228.7 4974.2,228.7 
					4974.2,141.1 5019.8,141.1 5019.8,328.3 5041.4,328.3 5041.4,201.1 5079.8,201.1 5079.8,280.3 5093,280.3 5093,216.7 
					5120.6,216.7 5120.6,438.7 5150.6,438.7 5150.6,297.1 5184.2,297.1 5184.2,463.9 5219,463.9 5219,366.7 5249,366.7 5249,629.5 
					5279,629.5 5279,519.1 5303,519.1 5303,737.5 5329.4,737.5 5329.4,595.9 5359.4,595.9 5359.4,882.7 5390.6,882.7 5390.6,695.5 
					5412.2,695.5 5412.2,820.3 5453,820.3 5453,717.5 5496.2,717.5 5496.2,1128.7 5544.2,1128.7 5544.2,895.9 5599.4,895.9 
					5599.4,1087.9 5652.2,1087.9 5652.2,943.9 5705,943.9 5705,1239.1 5750.6,1239.1 5750.6,1109.5 5798.6,1109.5 5798.6,1325.5 
					5834.6,1325.5 5834.6,1510.3 5880.2,1510.3 5880.2,1248.7 5937.8,1248.7 5937.8,1649.5 5983.4,1649.5 5983.4,1440.3 
					6026.6,1440.3 6026.6,1858.3 6084.2,1858.3 6084.2,1575.1 6127.4,1575.1 6127.4,1774.3 6170.6,1774.3 6170.6,1620.7 
					6224.6,1620.7 6224.6,1918.3 6259.4,1918.3 6259.4,1735.9 6305,1735.9 6305,2079.1 6357.8,2079.1 6357.8,1867.9 6398.6,1867.9 
					6398.6,2278.3 6463.4,2278.3 6463.4,2028.7 6518.6,2028.7 6518.6,2427.3 6588.2,2427.3 6588.2,2219.1 6653.8,2219.1 
					6653.8,2323.1 6695.4,2323.1 6695.4,2177.5 6735.4,2177.5 6735.4,2451.9 6772.2,2451.9 6772.2,2193.5 6855.4,2193.5 
					7282.6,4518.1 				"/>
				<polygon class="st8" points="2383.8,1674.4 2348.5,1194 2017.3,1027.2 1818.1,1012.8 1268.5,1171.2 1065.7,1213.2 861.5,1169.1 
					616,941.5 674.6,929.1 674.6,952.8 707.4,963 707.4,939.1 739.4,949 739.4,1001.3 768.2,1010.2 768.2,928.3 821,928.3 
					821,968.3 842.1,968.3 842.1,878.9 891.4,878.9 891.4,1004 913.8,1004 913.8,833.9 962.1,833.9 962.1,917.1 1000.2,917.1 
					1000.2,768.3 1035.4,768.3 1035.4,848.3 1067.4,848.3 1067.4,726.7 1096.2,726.7 1096.2,889.9 1128.2,889.9 1128.2,681.9 
					1161.8,681.9 1161.8,784.7 1188.2,784.7 1188.2,661.1 1220.6,661.1 1220.6,868.7 1261.4,868.7 1261.4,694.7 1287.8,694.7 
					1287.8,763.1 1318.1,763.1 1318.1,596.3 1339.4,596.3 1339.4,686.3 1363.4,686.3 1363.4,523.1 1394.6,523.1 1394.6,724.7 
					1427,724.7 1427,507.5 1449.8,507.5 1449.8,633.5 1476.2,633.5 1476.2,473.9 1503.8,473.9 1503.8,682.7 1529,682.7 1529,427.1 
					1555.4,427.1 1555.4,515.9 1586.6,515.9 1586.6,383.9 1617.8,383.9 1617.8,572.3 1643,572.3 1643,365.1 1665.8,365.1 
					1665.8,614.7 1691.4,614.7 1691.4,397.1 1731.4,397.1 1731.4,515.5 1763.4,515.5 1763.4,365.1 1811.4,365.1 1811.4,501.1 
					1851.4,501.1 1851.4,341.1 1883.4,341.1 1883.4,457.9 1912.2,457.9 1912.2,325.1 1947.4,325.1 1947.4,395.5 1976.2,395.5 
					1976.2,310.7 2022.6,310.7 2022.6,414.7 2056.2,414.7 2056.2,286.7 2083.4,286.7 2083.4,352.3 2110.6,352.3 2110.6,270.7 
					2171.4,270.7 2171.4,397.1 2205,397.1 2205,241.9 2241.8,241.9 2241.8,317.1 2280.2,317.1 2280.2,203.5 2311.4,203.5 
					2311.4,257.9 2349.8,257.9 2349.8,203.5 2393,203.5 2393,305.9 2424.4,305.9 2424.4,169.1 2473.1,169.1 2473.1,351.5 
					2513,351.5 2513,140.3 2568.2,140.3 2568.2,255.5 2609,255.5 2609,161.9 2661.8,161.9 2661.8,286.7 2705,286.7 2705,128.3 
					2769.8,128.3 2769.8,241.1 2805.8,241.1 2805.8,185.9 2849,185.9 2849,325.1 2894.6,325.1 2894.6,157.1 2928.8,157.1 
					2928.8,238.7 2960.2,238.7 2960.2,128.3 3000.2,128.3 3000.2,283.5 3033.8,283.5 3033.8,158.7 3072.2,158.7 3072.2,310.7 
					3109,310.7 3109,136.3 3147.4,136.3 3147.4,227.5 3189,227.5 3189,118.7 3229,118.7 3229,265.9 3267.4,265.9 3267.4,144.3 
					3302.6,144.3 3302.6,233.9 3344.2,233.9 3344.2,118.7 3392.2,118.7 3392.2,312.3 3425.8,312.3 3425.8,157.1 3472.2,157.1 
					3472.2,254.7 3510.6,254.7 3510.6,118.7 3552.2,118.7 3552.2,211.5 3576.2,211.5 3576.2,150.7 3600.2,150.7 3600.2,281.9 
					3633.8,281.9 3633.8,125.1 3678.6,125.1 3678.6,237.1 3720.2,237.1 3720.2,144.3 3761.8,144.3 3761.8,312.3 3798.6,312.3 
					3798.6,171.5 3832.2,171.5 3832.2,289.9 3870.6,289.9 3870.6,136.3 3909,136.3 3909,248.3 3945.8,248.3 3945.8,118.7 
					3989,118.7 3989,189.1 4021,189.1 4021,137.9 4049.6,137.9 4049.6,278.7 4077,278.7 4077,118.7 4113.8,118.7 4113.8,200.3 
					4153.8,200.3 4153.8,118.7 4184.6,118.7 4184.6,257.9 4212.2,257.9 4212.2,130.7 4245.8,130.7 4245.8,229.1 4278.2,229.1 
					4278.2,118.7 4314.2,118.7 4314.2,237.5 4347.8,237.5 4347.8,128.3 4377.8,128.3 4377.8,202.7 4403,202.7 4403,118.7 
					4428.2,118.7 4428.2,232.7 4448.6,232.7 4448.6,155.9 4476.2,155.9 4476.2,298.7 4501.4,298.7 4501.4,182.3 4529,182.3 
					4529,220.7 4555.4,220.7 4555.4,118.7 4595,118.7 4595,185.9 4622.6,185.9 4622.6,134.3 4656.2,134.3 4656.2,238.7 
					4683.8,238.7 4683.8,118.7 4719.8,118.7 4719.8,206.3 4743.8,206.3 4743.8,134.3 4779.8,134.3 4779.8,269.9 4801.4,269.9 
					4801.4,109.1 4832.6,109.1 4832.6,176.3 4856.6,176.3 4856.6,124.7 4899.8,124.7 4899.8,219.5 4917.8,219.5 4917.8,158.3 
					4949,158.3 4949,265.1 4974.2,265.1 4974.2,177.5 5019.8,177.5 5019.8,364.7 5041.4,364.7 5041.4,237.5 5079.8,237.5 
					5079.8,316.7 5093,316.7 5093,253.1 5120.6,253.1 5120.6,475.1 5150.6,475.1 5150.6,333.5 5184.2,333.5 5184.2,500.3 
					5219,500.3 5219,403.1 5249,403.1 5249,665.9 5279,665.9 5279,555.5 5303,555.5 5303,773.9 5329.4,773.9 5329.4,632.3 
					5359.4,632.3 5359.4,919.1 5390.6,919.1 5390.6,731.9 5412.2,731.9 5412.2,856.7 5453,856.7 5453,753.9 5496.2,753.9 
					5496.2,1165.1 5544.2,1165.1 5544.2,932.3 5599.4,932.3 5599.4,1124.3 5652.2,1124.3 5652.2,980.3 5705,980.3 5705,1275.5 
					5750.6,1275.5 5750.6,1145.9 5798.6,1145.9 5798.6,1361.9 5834.6,1361.9 5834.6,1546.7 5880.2,1546.7 5880.2,1285.1 
					5937.8,1285.1 5937.8,1685.9 5983.4,1685.9 5983.4,1476.6 6026.6,1476.6 6026.6,1894.7 6084.2,1894.7 6084.2,1611.5 
					6127.4,1611.5 6127.4,1810.7 6170.6,1810.7 6170.6,1657.1 6224.6,1657.1 6224.6,1954.7 6259.4,1954.7 6259.4,1772.3 
					6305,1772.3 6305,2115.5 6357.8,2115.5 6357.8,1904.3 6398.6,1904.3 6398.6,2314.7 6463.4,2314.7 6463.4,2065.1 6518.6,2065.1 
					6518.6,2463.6 6588.2,2463.6 6588.2,2255.5 6653.8,2255.5 6653.8,2359.5 6695.4,2359.5 6695.4,2213.9 6735.4,2213.9 
					6735.4,2488.3 6772.2,2488.3 6772.2,2229.9 6862.2,2229.9 7282.6,4518.1 				"/>
				<polygon class="st9" points="2383.8,1714.4 2348.5,1194 2017.3,1027.2 1818.1,1012.8 1268.5,1171.2 1065.7,1213.2 861.5,1169.1 
					616,941.5 674.6,945.8 674.6,963.6 707.4,978.8 707.4,960.9 739.4,975.8 739.4,1015 768.2,1028.3 768.2,964.6 821,964.6 
					821,1004.6 842.1,1004.6 842.1,915.3 891.4,915.3 891.4,1040.3 913.8,1040.3 913.8,870.2 962.1,870.2 962.1,953.4 1000.2,953.4 
					1000.2,804.6 1035.4,804.6 1035.4,884.6 1067.4,884.6 1067.4,763 1096.2,763 1096.2,926.2 1128.2,926.2 1128.2,718.2 
					1161.8,718.2 1161.8,821 1188.2,821 1188.2,697.4 1220.6,697.4 1220.6,905 1261.4,905 1261.4,731 1287.8,731 1287.8,799.4 
					1318.1,799.4 1318.1,632.6 1339.4,632.6 1339.4,722.6 1363.4,722.6 1363.4,559.4 1394.6,559.4 1394.6,761 1427,761 1427,543.8 
					1449.8,543.8 1449.8,669.8 1476.2,669.8 1476.2,510.2 1503.8,510.2 1503.8,719 1529,719 1529,463.4 1555.4,463.4 1555.4,552.2 
					1586.6,552.2 1586.6,420.2 1617.8,420.2 1617.8,608.6 1643,608.6 1643,401.4 1665.8,401.4 1665.8,651 1691.4,651 1691.4,433.4 
					1731.4,433.4 1731.4,551.8 1763.4,551.8 1763.4,401.4 1811.4,401.4 1811.4,537.4 1851.4,537.4 1851.4,377.4 1883.4,377.4 
					1883.4,494.2 1912.2,494.2 1912.2,361.4 1947.4,361.4 1947.4,431.8 1976.2,431.8 1976.2,347 2022.6,347 2022.6,451 2056.2,451 
					2056.2,323 2083.4,323 2083.4,388.6 2110.6,388.6 2110.6,307 2171.4,307 2171.4,433.4 2205,433.4 2205,278.2 2241.8,278.2 
					2241.8,353.4 2280.2,353.4 2280.2,239.8 2311.4,239.8 2311.4,294.2 2349.8,294.2 2349.8,239.8 2393,239.8 2393,342.2 
					2424.4,342.2 2424.4,205.4 2473.1,205.4 2473.1,387.8 2513,387.8 2513,176.6 2568.2,176.6 2568.2,291.8 2609,291.8 2609,198.2 
					2661.8,198.2 2661.8,323 2705,323 2705,164.6 2769.8,164.6 2769.8,277.4 2805.8,277.4 2805.8,222.2 2849,222.2 2849,361.4 
					2894.6,361.4 2894.6,193.4 2928.8,193.4 2928.8,275 2960.2,275 2960.2,164.6 3000.2,164.6 3000.2,319.8 3033.8,319.8 
					3033.8,195 3072.2,195 3072.2,347 3109,347 3109,172.6 3147.4,172.6 3147.4,263.8 3189,263.8 3189,155 3229,155 3229,302.2 
					3267.4,302.2 3267.4,180.6 3302.6,180.6 3302.6,270.2 3344.2,270.2 3344.2,155 3392.2,155 3392.2,348.6 3425.8,348.6 
					3425.8,193.4 3472.2,193.4 3472.2,291 3510.6,291 3510.6,155 3552.2,155 3552.2,247.8 3576.2,247.8 3576.2,187 3600.2,187 
					3600.2,318.2 3633.8,318.2 3633.8,161.4 3678.6,161.4 3678.6,273.4 3720.2,273.4 3720.2,180.6 3761.8,180.6 3761.8,348.6 
					3798.6,348.6 3798.6,207.8 3832.2,207.8 3832.2,326.2 3870.6,326.2 3870.6,172.6 3909,172.6 3909,284.6 3945.8,284.6 
					3945.8,155 3989,155 3989,225.4 4021,225.4 4021,174.2 4049.6,174.2 4049.6,315 4077,315 4077,155 4113.8,155 4113.8,236.6 
					4153.8,236.6 4153.8,155 4184.6,155 4184.6,294.2 4212.2,294.2 4212.2,167 4245.8,167 4245.8,265.4 4278.2,265.4 4278.2,155 
					4314.2,155 4314.2,273.8 4347.8,273.8 4347.8,164.6 4377.8,164.6 4377.8,239 4403,239 4403,155 4428.2,155 4428.2,269 
					4448.6,269 4448.6,192.2 4476.2,192.2 4476.2,335 4501.4,335 4501.4,218.6 4529,218.6 4529,257 4555.4,257 4555.4,155 4595,155 
					4595,222.2 4622.6,222.2 4622.6,170.6 4656.2,170.6 4656.2,275 4683.8,275 4683.8,155 4719.8,155 4719.8,242.6 4743.8,242.6 
					4743.8,170.6 4779.8,170.6 4779.8,306.2 4801.4,306.2 4801.4,145.4 4832.6,145.4 4832.6,212.6 4856.6,212.6 4856.6,161 
					4899.8,161 4899.8,255.8 4917.8,255.8 4917.8,194.6 4949,194.6 4949,301.4 4974.2,301.4 4974.2,213.8 5019.8,213.8 5019.8,401 
					5041.4,401 5041.4,273.8 5079.8,273.8 5079.8,353 5093,353 5093,289.4 5120.6,289.4 5120.6,511.4 5150.6,511.4 5150.6,369.8 
					5184.2,369.8 5184.2,536.6 5219,536.6 5219,439.4 5249,439.4 5249,702.2 5279,702.2 5279,591.8 5303,591.8 5303,810.2 
					5329.4,810.2 5329.4,668.6 5359.4,668.6 5359.4,955.4 5390.6,955.4 5390.6,768.2 5412.2,768.2 5412.2,893 5453,893 5453,790.2 
					5496.2,790.2 5496.2,1201.4 5544.2,1201.4 5544.2,968.6 5599.4,968.6 5599.4,1160.6 5652.2,1160.6 5652.2,1016.6 5705,1016.6 
					5705,1311.8 5750.6,1311.8 5750.6,1182.2 5798.6,1182.2 5798.6,1398.2 5834.6,1398.2 5834.6,1583 5880.2,1583 5880.2,1321.4 
					5937.8,1321.4 5937.8,1722.2 5983.4,1722.2 5983.4,1512.9 6026.6,1512.9 6026.6,1931 6084.2,1931 6084.2,1647.8 6127.4,1647.8 
					6127.4,1847 6170.6,1847 6170.6,1693.4 6224.6,1693.4 6224.6,1991 6259.4,1991 6259.4,1808.6 6305,1808.6 6305,2151.8 
					6357.8,2151.8 6357.8,1940.6 6398.6,1940.6 6398.6,2351 6463.4,2351 6463.4,2101.4 6518.6,2101.4 6518.6,2500 6588.2,2500 
					6588.2,2291.8 6653.8,2291.8 6653.8,2395.8 6695.4,2395.8 6695.4,2250.2 6735.4,2250.2 6735.4,2524.6 6772.2,2524.6 
					6772.2,2266.2 6869,2266.2 7282.6,4518.1 				"/>
				<polygon class="st10" points="2383.8,1754.4 2348.5,1194 2017.3,1027.2 1818.1,1012.8 1268.5,1171.2 1065.7,1213.2 
					861.5,1169.1 616,941.5 674.6,962.5 674.6,974.3 707.4,994.6 707.4,982.7 739.4,1002.5 739.4,1028.6 768.2,1046.4 768.2,1001 
					821,1001 821,1040.9 842.1,1040.9 842.1,951.6 891.4,951.6 891.4,1076.7 913.8,1076.7 913.8,906.5 962.1,906.5 962.1,989.8 
					1000.2,989.8 1000.2,841 1035.4,841 1035.4,921 1067.4,921 1067.4,799.3 1096.2,799.3 1096.2,962.5 1128.2,962.5 1128.2,754.5 
					1161.8,754.5 1161.8,857.3 1188.2,857.3 1188.2,733.8 1220.6,733.8 1220.6,941.3 1261.4,941.3 1261.4,767.3 1287.8,767.3 
					1287.8,835.8 1318.1,835.8 1318.1,669 1339.4,669 1339.4,759 1363.4,759 1363.4,595.8 1394.6,595.8 1394.6,797.3 1427,797.3 
					1427,580.2 1449.8,580.2 1449.8,706.2 1476.2,706.2 1476.2,546.5 1503.8,546.5 1503.8,755.3 1529,755.3 1529,499.8 
					1555.4,499.8 1555.4,588.5 1586.6,588.5 1586.6,456.5 1617.8,456.5 1617.8,645 1643,645 1643,437.8 1665.8,437.8 1665.8,687.3 
					1691.4,687.3 1691.4,469.8 1731.4,469.8 1731.4,588.2 1763.4,588.2 1763.4,437.8 1811.4,437.8 1811.4,573.8 1851.4,573.8 
					1851.4,413.8 1883.4,413.8 1883.4,530.5 1912.2,530.5 1912.2,397.8 1947.4,397.8 1947.4,468.1 1976.2,468.1 1976.2,383.4 
					2022.6,383.4 2022.6,487.4 2056.2,487.4 2056.2,359.4 2083.4,359.4 2083.4,425 2110.6,425 2110.6,343.4 2171.4,343.4 
					2171.4,469.8 2205,469.8 2205,314.5 2241.8,314.5 2241.8,389.8 2280.2,389.8 2280.2,276.1 2311.4,276.1 2311.4,330.5 
					2349.8,330.5 2349.8,276.1 2393,276.1 2393,378.5 2424.4,378.5 2424.4,241.8 2473.1,241.8 2473.1,424.1 2513,424.1 2513,212.9 
					2568.2,212.9 2568.2,328.1 2609,328.1 2609,234.6 2661.8,234.6 2661.8,359.4 2705,359.4 2705,200.9 2769.8,200.9 2769.8,313.8 
					2805.8,313.8 2805.8,258.5 2849,258.5 2849,397.8 2894.6,397.8 2894.6,229.8 2928.8,229.8 2928.8,311.4 2960.2,311.4 
					2960.2,200.9 3000.2,200.9 3000.2,356.1 3033.8,356.1 3033.8,231.4 3072.2,231.4 3072.2,383.4 3109,383.4 3109,208.9 
					3147.4,208.9 3147.4,300.1 3189,300.1 3189,191.4 3229,191.4 3229,338.5 3267.4,338.5 3267.4,216.9 3302.6,216.9 3302.6,306.5 
					3344.2,306.5 3344.2,191.4 3392.2,191.4 3392.2,385 3425.8,385 3425.8,229.8 3472.2,229.8 3472.2,327.4 3510.6,327.4 
					3510.6,191.4 3552.2,191.4 3552.2,284.1 3576.2,284.1 3576.2,223.4 3600.2,223.4 3600.2,354.5 3633.8,354.5 3633.8,197.8 
					3678.6,197.8 3678.6,309.8 3720.2,309.8 3720.2,216.9 3761.8,216.9 3761.8,385 3798.6,385 3798.6,244.1 3832.2,244.1 
					3832.2,362.5 3870.6,362.5 3870.6,208.9 3909,208.9 3909,321 3945.8,321 3945.8,191.4 3989,191.4 3989,261.8 4021,261.8 
					4021,210.6 4049.6,210.6 4049.6,351.4 4077,351.4 4077,191.4 4113.8,191.4 4113.8,273 4153.8,273 4153.8,191.4 4184.6,191.4 
					4184.6,330.5 4212.2,330.5 4212.2,203.4 4245.8,203.4 4245.8,301.8 4278.2,301.8 4278.2,191.4 4314.2,191.4 4314.2,310.1 
					4347.8,310.1 4347.8,200.9 4377.8,200.9 4377.8,275.4 4403,275.4 4403,191.4 4428.2,191.4 4428.2,305.4 4448.6,305.4 
					4448.6,228.6 4476.2,228.6 4476.2,371.4 4501.4,371.4 4501.4,254.9 4529,254.9 4529,293.4 4555.4,293.4 4555.4,191.4 
					4595,191.4 4595,258.5 4622.6,258.5 4622.6,206.9 4656.2,206.9 4656.2,311.4 4683.8,311.4 4683.8,191.4 4719.8,191.4 
					4719.8,279 4743.8,279 4743.8,206.9 4779.8,206.9 4779.8,342.5 4801.4,342.5 4801.4,181.8 4832.6,181.8 4832.6,248.9 
					4856.6,248.9 4856.6,197.4 4899.8,197.4 4899.8,292.1 4917.8,292.1 4917.8,230.9 4949,230.9 4949,337.8 4974.2,337.8 
					4974.2,250.1 5019.8,250.1 5019.8,437.4 5041.4,437.4 5041.4,310.1 5079.8,310.1 5079.8,389.4 5093,389.4 5093,325.8 
					5120.6,325.8 5120.6,547.8 5150.6,547.8 5150.6,406.1 5184.2,406.1 5184.2,573 5219,573 5219,475.8 5249,475.8 5249,738.5 
					5279,738.5 5279,628.2 5303,628.2 5303,846.5 5329.4,846.5 5329.4,705 5359.4,705 5359.4,991.8 5390.6,991.8 5390.6,804.5 
					5412.2,804.5 5412.2,929.3 5453,929.3 5453,826.5 5496.2,826.5 5496.2,1237.8 5544.2,1237.8 5544.2,1005 5599.4,1005 
					5599.4,1196.9 5652.2,1196.9 5652.2,1052.9 5705,1052.9 5705,1348.2 5750.6,1348.2 5750.6,1218.6 5798.6,1218.6 5798.6,1434.6 
					5834.6,1434.6 5834.6,1619.3 5880.2,1619.3 5880.2,1357.8 5937.8,1357.8 5937.8,1758.6 5983.4,1758.6 5983.4,1549.3 
					6026.6,1549.3 6026.6,1967.3 6084.2,1967.3 6084.2,1684.2 6127.4,1684.2 6127.4,1883.3 6170.6,1883.3 6170.6,1729.8 
					6224.6,1729.8 6224.6,2027.3 6259.4,2027.3 6259.4,1844.9 6305,1844.9 6305,2188.1 6357.8,2188.1 6357.8,1976.9 6398.6,1976.9 
					6398.6,2387.4 6463.4,2387.4 6463.4,2137.8 6518.6,2137.8 6518.6,2536.3 6588.2,2536.3 6588.2,2328.1 6653.8,2328.1 
					6653.8,2432.1 6695.4,2432.1 6695.4,2286.6 6735.4,2286.6 6735.4,2560.9 6772.2,2560.9 6772.2,2302.6 6875.7,2302.6 
					7282.6,4518.1 				"/>
				<polygon class="st11" points="2383.8,1794.4 2348.5,1194 2017.3,1027.2 1818.1,1012.8 1268.5,1171.2 1065.7,1213.2 
					861.5,1169.1 616,941.5 674.6,979.2 674.6,985.1 707.4,1010.4 707.4,1004.5 739.4,1029.2 739.4,1042.3 768.2,1064.5 
					768.2,1037.3 821,1037.3 821,1077.3 842.1,1077.3 842.1,988 891.4,988 891.4,1113 913.8,1113 913.8,942.9 962.1,942.9 
					962.1,1026.1 1000.2,1026.1 1000.2,877.3 1035.4,877.3 1035.4,957.3 1067.4,957.3 1067.4,835.7 1096.2,835.7 1096.2,998.9 
					1128.2,998.9 1128.2,790.9 1161.8,790.9 1161.8,893.7 1188.2,893.7 1188.2,770.1 1220.6,770.1 1220.6,977.7 1261.4,977.7 
					1261.4,803.7 1287.8,803.7 1287.8,872.1 1318.1,872.1 1318.1,705.3 1339.4,705.3 1339.4,795.3 1363.4,795.3 1363.4,632.1 
					1394.6,632.1 1394.6,833.7 1427,833.7 1427,616.5 1449.8,616.5 1449.8,742.5 1476.2,742.5 1476.2,582.9 1503.8,582.9 
					1503.8,791.7 1529,791.7 1529,536.1 1555.4,536.1 1555.4,624.9 1586.6,624.9 1586.6,492.9 1617.8,492.9 1617.8,681.3 
					1643,681.3 1643,474.1 1665.8,474.1 1665.8,723.7 1691.4,723.7 1691.4,506.1 1731.4,506.1 1731.4,624.5 1763.4,624.5 
					1763.4,474.1 1811.4,474.1 1811.4,610.1 1851.4,610.1 1851.4,450.1 1883.4,450.1 1883.4,566.9 1912.2,566.9 1912.2,434.1 
					1947.4,434.1 1947.4,504.5 1976.2,504.5 1976.2,419.7 2022.6,419.7 2022.6,523.7 2056.2,523.7 2056.2,395.7 2083.4,395.7 
					2083.4,461.3 2110.6,461.3 2110.6,379.7 2171.4,379.7 2171.4,506.1 2205,506.1 2205,350.9 2241.8,350.9 2241.8,426.1 
					2280.2,426.1 2280.2,312.5 2311.4,312.5 2311.4,366.9 2349.8,366.9 2349.8,312.5 2393,312.5 2393,414.9 2424.4,414.9 
					2424.4,278.1 2473.1,278.1 2473.1,460.5 2513,460.5 2513,249.3 2568.2,249.3 2568.2,364.5 2609,364.5 2609,270.9 2661.8,270.9 
					2661.8,395.7 2705,395.7 2705,237.3 2769.8,237.3 2769.8,350.1 2805.8,350.1 2805.8,294.9 2849,294.9 2849,434.1 2894.6,434.1 
					2894.6,266.1 2928.8,266.1 2928.8,347.7 2960.2,347.7 2960.2,237.3 3000.2,237.3 3000.2,392.5 3033.8,392.5 3033.8,267.7 
					3072.2,267.7 3072.2,419.7 3109,419.7 3109,245.3 3147.4,245.3 3147.4,336.5 3189,336.5 3189,227.7 3229,227.7 3229,374.9 
					3267.4,374.9 3267.4,253.3 3302.6,253.3 3302.6,342.9 3344.2,342.9 3344.2,227.7 3392.2,227.7 3392.2,421.3 3425.8,421.3 
					3425.8,266.1 3472.2,266.1 3472.2,363.7 3510.6,363.7 3510.6,227.7 3552.2,227.7 3552.2,320.5 3576.2,320.5 3576.2,259.7 
					3600.2,259.7 3600.2,390.9 3633.8,390.9 3633.8,234.1 3678.6,234.1 3678.6,346.1 3720.2,346.1 3720.2,253.3 3761.8,253.3 
					3761.8,421.3 3798.6,421.3 3798.6,280.5 3832.2,280.5 3832.2,398.9 3870.6,398.9 3870.6,245.3 3909,245.3 3909,357.3 
					3945.8,357.3 3945.8,227.7 3989,227.7 3989,298.1 4021,298.1 4021,246.9 4049.6,246.9 4049.6,387.7 4077,387.7 4077,227.7 
					4113.8,227.7 4113.8,309.3 4153.8,309.3 4153.8,227.7 4184.6,227.7 4184.6,366.9 4212.2,366.9 4212.2,239.7 4245.8,239.7 
					4245.8,338.1 4278.2,338.1 4278.2,227.7 4314.2,227.7 4314.2,346.5 4347.8,346.5 4347.8,237.3 4377.8,237.3 4377.8,311.7 
					4403,311.7 4403,227.7 4428.2,227.7 4428.2,341.7 4448.6,341.7 4448.6,264.9 4476.2,264.9 4476.2,407.7 4501.4,407.7 
					4501.4,291.3 4529,291.3 4529,329.7 4555.4,329.7 4555.4,227.7 4595,227.7 4595,294.9 4622.6,294.9 4622.6,243.3 4656.2,243.3 
					4656.2,347.7 4683.8,347.7 4683.8,227.7 4719.8,227.7 4719.8,315.3 4743.8,315.3 4743.8,243.3 4779.8,243.3 4779.8,378.9 
					4801.4,378.9 4801.4,218.1 4832.6,218.1 4832.6,285.3 4856.6,285.3 4856.6,233.7 4899.8,233.7 4899.8,328.5 4917.8,328.5 
					4917.8,267.3 4949,267.3 4949,374.1 4974.2,374.1 4974.2,286.5 5019.8,286.5 5019.8,473.7 5041.4,473.7 5041.4,346.5 
					5079.8,346.5 5079.8,425.7 5093,425.7 5093,362.1 5120.6,362.1 5120.6,584.1 5150.6,584.1 5150.6,442.5 5184.2,442.5 
					5184.2,609.3 5219,609.3 5219,512.1 5249,512.1 5249,774.9 5279,774.9 5279,664.5 5303,664.5 5303,882.9 5329.4,882.9 
					5329.4,741.3 5359.4,741.3 5359.4,1028.1 5390.6,1028.1 5390.6,840.9 5412.2,840.9 5412.2,965.7 5453,965.7 5453,862.9 
					5496.2,862.9 5496.2,1274.1 5544.2,1274.1 5544.2,1041.3 5599.4,1041.3 5599.4,1233.3 5652.2,1233.3 5652.2,1089.3 5705,1089.3 
					5705,1384.5 5750.6,1384.5 5750.6,1254.9 5798.6,1254.9 5798.6,1470.9 5834.6,1470.9 5834.6,1655.7 5880.2,1655.7 
					5880.2,1394.1 5937.8,1394.1 5937.8,1794.9 5983.4,1794.9 5983.4,1585.6 6026.6,1585.6 6026.6,2003.7 6084.2,2003.7 
					6084.2,1720.5 6127.4,1720.5 6127.4,1919.7 6170.6,1919.7 6170.6,1766.1 6224.6,1766.1 6224.6,2063.7 6259.4,2063.7 
					6259.4,1881.3 6305,1881.3 6305,2224.5 6357.8,2224.5 6357.8,2013.3 6398.6,2013.3 6398.6,2423.7 6463.4,2423.7 6463.4,2174.1 
					6518.6,2174.1 6518.6,2572.6 6588.2,2572.6 6588.2,2364.5 6653.8,2364.5 6653.8,2468.5 6695.4,2468.5 6695.4,2322.9 
					6735.4,2322.9 6735.4,2597.3 6772.2,2597.3 6772.2,2338.9 6882.5,2338.9 7282.6,4518.1 				"/>
				<polygon class="st12" points="2383.8,1834.4 2348.5,1194 2017.3,1027.2 1818.1,1012.8 1268.5,1171.2 1065.7,1213.2 
					861.5,1169.1 616,941.5 674.6,995.9 674.6,995.9 707.4,1026.3 707.4,1026.3 739.4,1055.9 739.4,1055.9 768.2,1082.6 
					768.2,1073.6 821,1073.6 821,1113.6 842.1,1113.6 842.1,1024.3 891.4,1024.3 891.4,1149.4 913.8,1149.4 913.8,979.2 
					962.1,979.2 962.1,1062.4 1000.2,1062.4 1000.2,913.6 1035.4,913.6 1035.4,993.6 1067.4,993.6 1067.4,872 1096.2,872 
					1096.2,1035.2 1128.2,1035.2 1128.2,827.2 1161.8,827.2 1161.8,930 1188.2,930 1188.2,806.4 1220.6,806.4 1220.6,1014 
					1261.4,1014 1261.4,840 1287.8,840 1287.8,908.4 1318.1,908.4 1318.1,741.6 1339.4,741.6 1339.4,831.6 1363.4,831.6 
					1363.4,668.4 1394.6,668.4 1394.6,870 1427,870 1427,652.8 1449.8,652.8 1449.8,778.8 1476.2,778.8 1476.2,619.2 1503.8,619.2 
					1503.8,828 1529,828 1529,572.4 1555.4,572.4 1555.4,661.2 1586.6,661.2 1586.6,529.2 1617.8,529.2 1617.8,717.6 1643,717.6 
					1643,510.4 1665.8,510.4 1665.8,760 1691.4,760 1691.4,542.4 1731.4,542.4 1731.4,660.8 1763.4,660.8 1763.4,510.4 
					1811.4,510.4 1811.4,646.4 1851.4,646.4 1851.4,486.4 1883.4,486.4 1883.4,603.2 1912.2,603.2 1912.2,470.4 1947.4,470.4 
					1947.4,540.8 1976.2,540.8 1976.2,456 2022.6,456 2022.6,560 2056.2,560 2056.2,432 2083.4,432 2083.4,497.6 2110.6,497.6 
					2110.6,416 2171.4,416 2171.4,542.4 2205,542.4 2205,387.2 2241.8,387.2 2241.8,462.4 2280.2,462.4 2280.2,348.8 2311.4,348.8 
					2311.4,403.2 2349.8,403.2 2349.8,348.8 2393,348.8 2393,451.2 2424.4,451.2 2424.4,314.4 2473.1,314.4 2473.1,496.8 
					2513,496.8 2513,285.6 2568.2,285.6 2568.2,400.8 2609,400.8 2609,307.2 2661.8,307.2 2661.8,432 2705,432 2705,273.6 
					2769.8,273.6 2769.8,386.4 2805.8,386.4 2805.8,331.2 2849,331.2 2849,470.4 2894.6,470.4 2894.6,302.4 2928.8,302.4 
					2928.8,384 2960.2,384 2960.2,273.6 3000.2,273.6 3000.2,428.8 3033.8,428.8 3033.8,304 3072.2,304 3072.2,456 3109,456 
					3109,281.6 3147.4,281.6 3147.4,372.8 3189,372.8 3189,264 3229,264 3229,411.2 3267.4,411.2 3267.4,289.6 3302.6,289.6 
					3302.6,379.2 3344.2,379.2 3344.2,264 3392.2,264 3392.2,457.6 3425.8,457.6 3425.8,302.4 3472.2,302.4 3472.2,400 3510.6,400 
					3510.6,264 3552.2,264 3552.2,356.8 3576.2,356.8 3576.2,296 3600.2,296 3600.2,427.2 3633.8,427.2 3633.8,270.4 3678.6,270.4 
					3678.6,382.4 3720.2,382.4 3720.2,289.6 3761.8,289.6 3761.8,457.6 3798.6,457.6 3798.6,316.8 3832.2,316.8 3832.2,435.2 
					3870.6,435.2 3870.6,281.6 3909,281.6 3909,393.6 3945.8,393.6 3945.8,264 3989,264 3989,334.4 4021,334.4 4021,283.2 
					4049.6,283.2 4049.6,424 4077,424 4077,264 4113.8,264 4113.8,345.6 4153.8,345.6 4153.8,264 4184.6,264 4184.6,403.2 
					4212.2,403.2 4212.2,276 4245.8,276 4245.8,374.4 4278.2,374.4 4278.2,264 4314.2,264 4314.2,382.8 4347.8,382.8 4347.8,273.6 
					4377.8,273.6 4377.8,348 4403,348 4403,264 4428.2,264 4428.2,378 4448.6,378 4448.6,301.2 4476.2,301.2 4476.2,444 4501.4,444 
					4501.4,327.6 4529,327.6 4529,366 4555.4,366 4555.4,264 4595,264 4595,331.2 4622.6,331.2 4622.6,279.6 4656.2,279.6 
					4656.2,384 4683.8,384 4683.8,264 4719.8,264 4719.8,351.6 4743.8,351.6 4743.8,279.6 4779.8,279.6 4779.8,415.2 4801.4,415.2 
					4801.4,254.4 4832.6,254.4 4832.6,321.6 4856.6,321.6 4856.6,270 4899.8,270 4899.8,364.8 4917.8,364.8 4917.8,303.6 
					4949,303.6 4949,410.4 4974.2,410.4 4974.2,322.8 5019.8,322.8 5019.8,510 5041.4,510 5041.4,382.8 5079.8,382.8 5079.8,462 
					5093,462 5093,398.4 5120.6,398.4 5120.6,620.4 5150.6,620.4 5150.6,478.8 5184.2,478.8 5184.2,645.6 5219,645.6 5219,548.4 
					5249,548.4 5249,811.2 5279,811.2 5279,700.8 5303,700.8 5303,919.2 5329.4,919.2 5329.4,777.6 5359.4,777.6 5359.4,1064.4 
					5390.6,1064.4 5390.6,877.2 5412.2,877.2 5412.2,1002 5453,1002 5453,899.2 5496.2,899.2 5496.2,1310.4 5544.2,1310.4 
					5544.2,1077.6 5599.4,1077.6 5599.4,1269.6 5652.2,1269.6 5652.2,1125.6 5705,1125.6 5705,1420.8 5750.6,1420.8 5750.6,1291.2 
					5798.6,1291.2 5798.6,1507.2 5834.6,1507.2 5834.6,1692 5880.2,1692 5880.2,1430.4 5937.8,1430.4 5937.8,1831.2 5983.4,1831.2 
					5983.4,1622 6026.6,1622 6026.6,2040 6084.2,2040 6084.2,1756.8 6127.4,1756.8 6127.4,1956 6170.6,1956 6170.6,1802.4 
					6224.6,1802.4 6224.6,2100 6259.4,2100 6259.4,1917.6 6305,1917.6 6305,2260.8 6357.8,2260.8 6357.8,2049.6 6398.6,2049.6 
					6398.6,2460 6463.4,2460 6463.4,2210.4 6518.6,2210.4 6518.6,2609 6588.2,2609 6588.2,2400.8 6653.8,2400.8 6653.8,2504.8 
					6695.4,2504.8 6695.4,2359.2 6735.4,2359.2 6735.4,2633.6 6772.2,2633.6 6772.2,2375.2 6889.2,2375.2 7282.6,4518.1 				"/>
			</g>
			<polygon class="st13" points="1057.2,3113.1 1469.3,2364.7 1856,2182.6 2464.7,1874.9 2683,1554.5 3044.9,1133.4 3422.9,752.8 
				5054.3,1410.4 6129.5,2452 7070.3,4544.8 			"/>
			<polygon class="st10" points="1057.2,3144.5 1469.3,2412.6 1856,2234.5 2464.7,1933.5 2683,1620.1 3044.9,1208.2 3422.9,836 
				5054.3,1479.2 6129.5,2497.9 7070.3,4544.8 			"/>
			<polygon class="st14" points="1057.2,3175.9 1469.3,2460.4 1856,2286.3 2464.7,1992 2683,1685.7 3044.9,1283.1 3422.9,919.2 
				5054.3,1548 6129.5,2543.9 7070.3,4544.8 			"/>
			<polygon class="st15" points="1057.2,3207.3 1469.3,2508.2 1856,2338.1 2464.7,2050.6 2683,1751.3 3044.9,1357.9 3422.9,1002.4 
				5054.3,1616.7 6129.5,2589.8 7070.3,4544.8 			"/>
			<polygon class="st16" points="1057.2,3238.7 1469.3,2556.1 1856,2390 2464.7,2109.2 2683,1816.9 3044.9,1432.8 3422.9,1085.6 
				5054.3,1685.5 6129.5,2635.7 7070.3,4544.8 			"/>
			<polygon class="st17" points="1057.2,3270.1 1469.3,2603.9 1856,2441.8 2464.7,2167.8 2683,1882.5 3044.9,1507.6 3422.9,1168.8 
				5054.3,1754.3 6129.5,2681.6 7070.3,4544.8 			"/>
			<polygon class="st18" points="1057.2,3301.5 1469.3,2651.7 1856,2493.6 2464.7,2226.4 2683,1948.1 3044.9,1582.5 3422.9,1252 
				5054.3,1823.1 6129.5,2727.5 7070.3,4544.8 			"/>
		</g>
	</g>
</g>
</svg>
