<svg xmlns="http://www.w3.org/2000/svg" xmlns:xlink="http://www.w3.org/1999/xlink" viewBox="0 0 639.6 540.02"><defs><style>.cls-1{fill:none;}.cls-2{fill:#381e10;}.cls-2,.cls-4{opacity:0.42;}.cls-3{fill:#28160b;}.cls-4{fill:#281204;}.cls-5{fill:#160902;}.cls-6{fill:#160c06;}.cls-7{fill:#190e07;}.cls-8{fill:#1c0f08;}.cls-9{fill:#1f1109;}.cls-10{fill:#221309;}.cls-11{fill:#25140a;}.cls-12{opacity:0.32;}.cls-13{fill:url(#New_Pattern_Swatch_1);}.cls-14,.cls-15{fill:url(#New_Pattern_2);}.cls-15{opacity:0.68;}</style><pattern id="New_Pattern_Swatch_1" data-name="New Pattern Swatch 1" width="289.6" height="289.6" patternUnits="userSpaceOnUse" viewBox="0 0 289.6 289.6"><rect class="cls-1" width="289.6" height="289.6"/><path class="cls-4" d="M0,271.5s45.4-8.4,53.8-4,19.6,14.8,19.6,14.8,18.8-6.08,29.2-8L113,279.1l40.8-12.88s20.4,6.88,25.6,9.68,16.8,11.2,24.8,8.4,39.6-12.4,39.6-12.4,18.4,3.68,26.8,3.64,19-3.64,19-3.64v30.4H271l-27.6,9.2-29.2-4s-13.6-8.8-35.2-8.8-34.2-7.2-34.2-7.2l-25.4,11.2-24.8-6.8-34.8,8.4L38.6,291.5S3,302.3,0,302.3Z"/><rect class="cls-5" y="12.87" width="289.6" height="289.6"/><path class="cls-4" d="M289.6,27.37c-71.8,10.34-143.67,1.4-196.4-4C59.79,20,26.62,23,0,27.37v28c50.27-2,143.92-5.78,203.45-.19,26.17,2.46,57,1.94,86.15.21Z"/><path class="cls-4" d="M289.6,123.75c-57.72.56-143.35-5.41-195.2-12.64C58.14,106.05,39,125.68,0,123.86v26.58c41.61-4,113.6-12,152-3.54,24.31,5.37,82.18,6.26,137.6,3.36Z"/><path class="cls-4" d="M0,53.87s45.4-8.4,53.8-4,19.6,14.8,19.6,14.8,18.8-6.07,29.2-8L113,61.47,153.8,48.6s20.4,6.87,25.6,9.67,16.8,11.2,24.8,8.4,39.6-12.4,39.6-12.4,18.4,3.69,26.8,3.65,19-3.65,19-3.65v30.4H271l-27.6,9.2-29.2-4s-13.6-8.8-35.2-8.8-34.2-7.2-34.2-7.2l-25.4,11.2-24.8-6.8-34.8,8.4L38.6,73.87S3,84.67,0,84.67Z"/><path class="cls-4" d="M289.6,117.42V87.53s-7.4,6.69-15.4,8.69-28.4-9.6-34.4-8.8-34,3.2-50-4-10.4-1.2-10.4-1.2l-34.6,14-46.2-11h-26L49,91.82,0,87.53v29.89s23.4-8,29.2-8.4,26.6,4.2,39.4,2.2,21,1.8,26.8,1,25.6-7.8,25.6-7.8l9.4,10.4,7.2-4.8,9,12.2,14.8-3.8,17.8-14,6.4,2.4H213c7,0,18.8,14,18.8,14l30.8-10.4,27,7"/><path class="cls-4" d="M289.6,183c-71.8,10.34-143.67,1.4-196.4-4-33.41-3.42-66.58-.42-93.2,4v28c50.27-2,143.92-5.78,203.45-.19,26.17,2.46,57,1.94,86.15.21Z"/><path class="cls-4" d="M0,217.18s45.4-8.4,53.8-4S73.4,228,73.4,228s18.8-6.08,29.2-8l10.4,4.84,40.8-12.88s20.4,6.88,25.6,9.68,16.8,11.2,24.8,8.4,39.6-12.4,39.6-12.4,18.4,3.69,26.8,3.64,19-3.64,19-3.64V248H271l-27.6,9.2-29.2-4s-13.6-8.8-35.2-8.8-34.2-7.2-34.2-7.2l-25.4,11.2-24.8-6.8L59.8,250l-21.2-12.8S3,248,0,248Z"/><path class="cls-4" d="M0,273s45.4-8.4,53.8-4,19.6,14.8,19.6,14.8,18.8-6.08,29.2-8l10.4,4.84,40.8-12.88s20.4,6.88,25.6,9.68,16.8,11.2,24.8,8.4,39.6-12.4,39.6-12.4,18.4,3.69,26.8,3.64,19-3.64,19-3.64v30.4H271L243.4,313l-29.2-4s-13.6-8.8-35.2-8.8-34.2-7.2-34.2-7.2l-25.4,11.2-24.8-6.8-34.8,8.4L38.6,293S3,303.78,0,303.78Z"/><path class="cls-4" d="M0-18.1s45.4-8.4,53.8-4S73.4-7.3,73.4-7.3s18.8-6.08,29.2-8L113-10.5l40.8-12.88s20.4,6.88,25.6,9.68,16.8,11.2,24.8,8.4,39.6-12.4,39.6-12.4,18.4,3.68,26.8,3.64,19-3.64,19-3.64V12.7H271l-27.6,9.2-29.2-4S200.6,9.1,179,9.1s-34.2-7.2-34.2-7.2L119.4,13.1,94.6,6.3,59.8,14.7,38.6,1.9S3,12.7,0,12.7Z"/><path class="cls-4" d="M289.6,280.72V250.84s-7.4,6.68-15.4,8.68-28.4-9.6-34.4-8.8-34,3.2-50-4-10.4-1.2-10.4-1.2l-34.6,14-46.2-11h-26L49,255.12,0,250.84v29.88s23.4-8,29.2-8.4,26.6,4.2,39.4,2.2,21,1.8,26.8,1,25.6-7.8,25.6-7.8l9.4,10.4,7.2-4.8,9,12.2,14.8-3.8,17.8-14,6.4,2.4H213c7,0,18.8,14,18.8,14l30.8-10.4,27,7"/><path class="cls-4" d="M0,161.54l16.2-10.4,13.6,11.2L65,144.74H75.4s-1.2-2.8,8,3.2,40,2,40,2l24,10.4s26.8-5.2,35.2-1.2,29.6-1.6,29.6-1.6l10,10,26.8-9.2,25.6,9.2,15-6V195s-41.8-15.9-61.6-12.3S186.6,195,186.6,195l-25.2-25.48L114,176.14l-31.8-6.58-27,15.58-7.2-6.2-18,6.2L0,195Z"/><rect class="cls-5" y="-276.73" width="289.6" height="289.6"/><path class="cls-4" d="M0-16.62s45.4-8.4,53.8-4S73.4-5.82,73.4-5.82s18.8-6.08,29.2-8L113-9,153.8-21.9s20.4,6.88,25.6,9.68S196.2-1,204.2-3.82s39.6-12.4,39.6-12.4,18.4,3.69,26.8,3.64,19-3.64,19-3.64v30.4H271l-27.6,9.2-29.2-4s-13.6-8.8-35.2-8.8-34.2-7.2-34.2-7.2l-25.4,11.2L94.6,7.78l-34.8,8.4L38.6,3.38S3,14.18,0,14.18Z"/></pattern><pattern id="New_Pattern_2" data-name="New Pattern 2" width="289.6" height="289.6" patternUnits="userSpaceOnUse" viewBox="0 0 289.6 289.6"><rect class="cls-1" width="289.6" height="289.6"/><path class="cls-2" d="M0,271.5s45.4-8.4,53.8-4,19.6,14.8,19.6,14.8,18.8-6.08,29.2-8L113,279.1l40.8-12.88s20.4,6.88,25.6,9.68,16.8,11.2,24.8,8.4,39.6-12.4,39.6-12.4,18.4,3.68,26.8,3.64,19-3.64,19-3.64v30.4H271l-27.6,9.2-29.2-4s-13.6-8.8-35.2-8.8-34.2-7.2-34.2-7.2l-25.4,11.2-24.8-6.8-34.8,8.4L38.6,291.5S3,302.3,0,302.3Z"/><rect class="cls-3" y="12.87" width="289.6" height="289.6"/><path class="cls-2" d="M289.6,27.37c-71.8,10.34-143.67,1.4-196.4-4C59.79,20,26.62,23,0,27.37v28c50.27-2,143.92-5.78,203.45-.19,26.17,2.46,57,1.94,86.15.21Z"/><path class="cls-2" d="M289.6,123.75c-57.72.56-143.35-5.41-195.2-12.64C58.14,106.05,39,125.68,0,123.86v26.58c41.61-4,113.6-12,152-3.54,24.31,5.37,82.18,6.26,137.6,3.36Z"/><path class="cls-2" d="M0,53.87s45.4-8.4,53.8-4,19.6,14.8,19.6,14.8,18.8-6.07,29.2-8L113,61.47,153.8,48.6s20.4,6.87,25.6,9.67,16.8,11.2,24.8,8.4,39.6-12.4,39.6-12.4,18.4,3.69,26.8,3.65,19-3.65,19-3.65v30.4H271l-27.6,9.2-29.2-4s-13.6-8.8-35.2-8.8-34.2-7.2-34.2-7.2l-25.4,11.2-24.8-6.8-34.8,8.4L38.6,73.87S3,84.67,0,84.67Z"/><path class="cls-2" d="M289.6,117.42V87.53s-7.4,6.69-15.4,8.69-28.4-9.6-34.4-8.8-34,3.2-50-4-10.4-1.2-10.4-1.2l-34.6,14-46.2-11h-26L49,91.82,0,87.53v29.89s23.4-8,29.2-8.4,26.6,4.2,39.4,2.2,21,1.8,26.8,1,25.6-7.8,25.6-7.8l9.4,10.4,7.2-4.8,9,12.2,14.8-3.8,17.8-14,6.4,2.4H213c7,0,18.8,14,18.8,14l30.8-10.4,27,7"/><path class="cls-2" d="M289.6,183c-71.8,10.34-143.67,1.4-196.4-4-33.41-3.42-66.58-.42-93.2,4v28c50.27-2,143.92-5.78,203.45-.19,26.17,2.46,57,1.94,86.15.21Z"/><path class="cls-2" d="M0,217.18s45.4-8.4,53.8-4S73.4,228,73.4,228s18.8-6.08,29.2-8l10.4,4.84,40.8-12.88s20.4,6.88,25.6,9.68,16.8,11.2,24.8,8.4,39.6-12.4,39.6-12.4,18.4,3.69,26.8,3.64,19-3.64,19-3.64V248H271l-27.6,9.2-29.2-4s-13.6-8.8-35.2-8.8-34.2-7.2-34.2-7.2l-25.4,11.2-24.8-6.8L59.8,250l-21.2-12.8S3,248,0,248Z"/><path class="cls-2" d="M0,273s45.4-8.4,53.8-4,19.6,14.8,19.6,14.8,18.8-6.08,29.2-8l10.4,4.84,40.8-12.88s20.4,6.88,25.6,9.68,16.8,11.2,24.8,8.4,39.6-12.4,39.6-12.4,18.4,3.69,26.8,3.64,19-3.64,19-3.64v30.4H271L243.4,313l-29.2-4s-13.6-8.8-35.2-8.8-34.2-7.2-34.2-7.2l-25.4,11.2-24.8-6.8-34.8,8.4L38.6,293S3,303.78,0,303.78Z"/><path class="cls-2" d="M0-18.1s45.4-8.4,53.8-4S73.4-7.3,73.4-7.3s18.8-6.08,29.2-8L113-10.5l40.8-12.88s20.4,6.88,25.6,9.68,16.8,11.2,24.8,8.4,39.6-12.4,39.6-12.4,18.4,3.68,26.8,3.64,19-3.64,19-3.64V12.7H271l-27.6,9.2-29.2-4S200.6,9.1,179,9.1s-34.2-7.2-34.2-7.2L119.4,13.1,94.6,6.3,59.8,14.7,38.6,1.9S3,12.7,0,12.7Z"/><path class="cls-2" d="M289.6,280.72V250.84s-7.4,6.68-15.4,8.68-28.4-9.6-34.4-8.8-34,3.2-50-4-10.4-1.2-10.4-1.2l-34.6,14-46.2-11h-26L49,255.12,0,250.84v29.88s23.4-8,29.2-8.4,26.6,4.2,39.4,2.2,21,1.8,26.8,1,25.6-7.8,25.6-7.8l9.4,10.4,7.2-4.8,9,12.2,14.8-3.8,17.8-14,6.4,2.4H213c7,0,18.8,14,18.8,14l30.8-10.4,27,7"/><path class="cls-2" d="M0,161.54l16.2-10.4,13.6,11.2L65,144.74H75.4s-1.2-2.8,8,3.2,40,2,40,2l24,10.4s26.8-5.2,35.2-1.2,29.6-1.6,29.6-1.6l10,10,26.8-9.2,25.6,9.2,15-6V195s-41.8-15.9-61.6-12.3S186.6,195,186.6,195l-25.2-25.48L114,176.14l-31.8-6.58-27,15.58-7.2-6.2-18,6.2L0,195Z"/><rect class="cls-3" y="-276.73" width="289.6" height="289.6"/><path class="cls-2" d="M0-16.62s45.4-8.4,53.8-4S73.4-5.82,73.4-5.82s18.8-6.08,29.2-8L113-9,153.8-21.9s20.4,6.88,25.6,9.68S196.2-1,204.2-3.82s39.6-12.4,39.6-12.4,18.4,3.69,26.8,3.64,19-3.64,19-3.64v30.4H271l-27.6,9.2-29.2-4s-13.6-8.8-35.2-8.8-34.2-7.2-34.2-7.2l-25.4,11.2L94.6,7.78l-34.8,8.4L38.6,3.38S3,14.18,0,14.18Z"/></pattern></defs><title>Apoio Pedra Boss</title><g id="Layer_2" data-name="Layer 2"><g id="Apoio_Pedra_Boss" data-name="Apoio Pedra Boss"><path class="cls-6" d="M550.4,124.21l14.8,84.61,6,124.8L639.6,480,410.4,540,98.68,499.22,0,409.22,126,283l49.27-126.54L138.42,46S263.36-1.18,278.68,0,502.8,90.82,502.8,90.82Z"/><path class="cls-7" d="M182.51,157.89,147.88,58.36S265.93,27.43,278.7,28.43s210,79.33,210,79.33l56.74,21.55,13.93,82.31,4.2,125.6,67.93,144.91L410.4,540,98.68,499.22,5.56,415.66,128.7,288.05Z"/><path class="cls-8" d="M189.74,159.3,157.33,70.69S268.5,56,278.71,56.83s196,67.86,196,67.86l65.86,9.72,13.07,80,2.4,126.4,67.47,143.43L410.4,540,98.68,499.22,11.11,422.1l120.29-129Z"/><path class="cls-9" d="M197,160.7,166.78,83s104.29,1.61,112,2.21S460.6,141.62,460.6,141.62l75-2.1,12.2,77.7.6,127.2,67,141.94L410.4,540,98.68,499.22l-82-70.68L134.1,298.12Z"/><path class="cls-10" d="M204.21,162.11l-28-66.75s97.4,17.88,102.51,18.28,167.78,44.92,167.78,44.92l84.14-13.94L542,220l-1.2,128,66.54,140.45L410.4,540,98.68,499.22,22.23,435,136.8,303.15Z"/><path class="cls-11" d="M211.44,163.52l-25.75-55.83s90.53,34.15,93.08,34.35,153.7,33.45,153.7,33.45l93.26-25.77,10.47,73.1-3,128.8,66.07,139L410.4,540,98.68,499.22,27.79,441.41,139.5,308.19Z"/><polygon class="cls-3" points="520.8 154.82 530.4 225.62 525.6 355.22 591.2 492.69 410.4 540.02 98.68 499.22 33.34 447.85 142.2 313.22 218.68 164.93 195.15 120.02 278.79 170.44 418.4 192.42 520.8 154.82"/><g class="cls-12"><path class="cls-13" d="M550.4,124.21l14.8,84.61,6,124.8L639.6,480,410.4,540,98.68,499.22,0,409.22,126,283l49.27-126.54L138.42,46S263.36-1.18,278.68,0,502.8,90.82,502.8,90.82Z"/><polygon class="cls-14" points="520.8 154.82 530.4 225.62 525.6 355.22 591.2 492.69 410.4 540.02 98.68 499.22 33.34 447.85 142.2 313.22 218.68 164.93 195.15 120.02 278.79 170.44 418.4 192.42 520.8 154.82"/></g><polygon class="cls-15" points="520.8 154.82 530.4 225.62 525.6 355.22 591.2 492.69 410.4 540.02 98.68 499.22 33.34 447.85 142.2 313.22 218.68 164.93 195.15 120.02 278.79 170.44 418.4 192.42 520.8 154.82"/></g></g></svg>