<svg xmlns="http://www.w3.org/2000/svg" viewBox="0 0 4951.91 1722.96"><defs><style>.cls-1{fill:#5b5b5b;}.cls-2{fill:#575757;}.cls-3{fill:#535353;}.cls-4{fill:#4f4f4f;}.cls-5{fill:#4b4b4b;}.cls-6{fill:#474747;}.cls-7{fill:#434343;}.cls-8{fill:#3b3b3b;}.cls-9{fill:#343434;}.cls-10{fill:#2d2d2d;}.cls-11{fill:#252525;}.cls-12{fill:#1e1e1e;}.cls-13{fill:#161616;}</style></defs><title>Pedras</title><g id="Layer_2" data-name="Layer 2"><g id="Pedras_Obstáculos" data-name="Pedras Obstáculos"><polygon class="cls-1" points="3744.02 942.96 3732.92 920.46 3735.32 895.86 3726.32 862.86 3733.22 836.76 3735.17 808.26 3757.85 786.96 3746.12 768.36 3732.02 757.56 3691.85 762.96 3678.05 776.16 3674.12 790.86 3685.82 809.16 3683.42 846.51 3685.82 884.54 3696.62 907.34 3670.22 942.96 3744.02 942.96"/><polygon class="cls-2" points="3670.32 942.96 3743.78 942.96 3731.95 921.09 3731.82 915.19 3733.68 896.84 3733.34 895.2 3728.4 878.73 3725.16 864.06 3726.45 858.37 3730.14 838.11 3733.98 812.24 3734.08 810.42 3750.44 790.7 3753.45 787.82 3746.12 769.71 3731.31 760.02 3710.57 761.52 3692.45 766.7 3692.2 766.97 3677.63 777.96 3675.12 791.87 3684.58 807.23 3685.86 809.49 3684.47 845.04 3687.05 870 3687.79 883.68 3691.61 893.67 3697.62 907.29 3696.08 910.27 3670.32 942.96"/><polygon class="cls-3" points="3670.42 942.96 3743.53 942.96 3730.99 921.71 3730.12 916.06 3732.04 897.82 3731.81 896.17 3726.48 879.93 3724 865.25 3725.08 859.56 3727.07 839.46 3732.92 814.38 3733 812.58 3746.09 791.57 3749.05 788.67 3746.12 771.06 3730.61 762.48 3709.72 762.71 3693.06 770.44 3692.81 770.72 3677.22 779.76 3676.12 792.87 3684.82 807.61 3685.91 809.81 3685.52 843.56 3689.12 868.87 3689.76 882.83 3692.85 893.21 3698.63 907.25 3697.63 910.39 3670.42 942.96"/><polygon class="cls-4" points="3670.52 942.95 3743.29 942.95 3730.02 922.33 3728.42 916.94 3730.4 898.79 3730.28 897.14 3724.57 881.13 3722.85 866.45 3723.71 860.76 3723.99 840.81 3731.86 816.53 3731.92 814.74 3741.73 792.45 3744.66 789.53 3746.12 772.41 3729.9 764.94 3708.86 763.9 3693.66 774.17 3693.42 774.48 3676.8 781.56 3677.13 793.88 3685.07 808 3685.95 810.13 3686.58 842.09 3691.2 867.74 3691.73 881.97 3694.09 892.74 3699.63 907.2 3699.17 910.51 3670.52 942.95"/><polygon class="cls-5" points="3670.62 942.95 3743.05 942.95 3729.06 922.95 3726.72 917.81 3728.76 899.77 3728.74 898.12 3722.65 882.33 3721.69 867.64 3722.34 861.95 3720.92 842.16 3730.79 818.67 3730.84 816.89 3737.38 793.32 3740.26 790.38 3746.12 773.76 3729.2 767.4 3708.01 765.09 3694.27 777.91 3694.04 778.23 3676.38 783.36 3678.13 794.88 3685.32 808.39 3685.99 810.45 3687.63 840.61 3693.27 866.6 3693.7 881.12 3695.33 892.27 3700.64 907.16 3700.72 910.63 3670.62 942.95"/><polygon class="cls-6" points="3670.72 942.94 3742.81 942.94 3728.09 923.57 3725.02 918.69 3727.12 900.74 3727.21 899.09 3720.73 883.53 3720.53 868.84 3720.97 863.14 3717.85 843.51 3729.73 820.82 3729.75 819.05 3733.03 794.19 3735.86 791.24 3746.12 775.11 3728.49 769.86 3707.15 766.27 3694.87 781.64 3694.65 781.98 3675.96 785.16 3679.13 795.88 3685.57 808.78 3686.04 810.77 3688.69 839.14 3695.35 865.47 3695.67 880.26 3696.57 891.8 3701.64 907.11 3702.27 910.75 3670.72 942.94"/><polygon class="cls-7" points="3742.57 942.94 3723.32 919.56 3725.68 900.06 3718.82 884.74 3719.59 864.34 3714.77 844.86 3728.67 822.96 3728.67 795.06 3746.12 776.46 3706.3 767.46 3695.26 785.74 3675.55 786.96 3685.82 809.16 3689.74 837.66 3697.42 864.34 3697.82 891.34 3703.82 910.86 3670.82 942.94 3742.57 942.94"/><polygon class="cls-8" points="3738.53 942.94 3721.56 920.19 3723.65 901.22 3717.59 886.3 3718.28 866.45 3714.03 847.5 3726.28 826.19 3726.28 799.04 3741.66 780.94 3706.55 772.18 3696.82 789.96 3679.44 791.16 3688.49 812.76 3691.95 840.49 3698.73 866.45 3699.07 892.72 3704.37 911.73 3675.27 942.94 3738.53 942.94"/><polygon class="cls-9" points="3734.5 942.94 3719.8 920.82 3721.61 902.37 3716.37 887.87 3716.96 868.56 3713.28 850.14 3723.89 829.41 3723.89 803.01 3737.21 785.41 3706.81 776.9 3698.38 794.19 3683.33 795.35 3691.17 816.36 3694.17 843.32 3700.03 868.56 3700.34 894.11 3704.92 912.59 3679.72 942.94 3734.5 942.94"/><polygon class="cls-10" points="3730.47 942.94 3718.05 921.45 3719.57 903.52 3715.14 889.43 3715.65 870.67 3712.54 852.77 3721.5 832.64 3721.5 806.99 3732.76 789.89 3707.07 781.61 3699.94 798.41 3687.22 799.54 3693.85 819.95 3696.38 846.15 3701.34 870.67 3701.59 895.5 3705.47 913.45 3684.17 942.94 3730.47 942.94"/><polygon class="cls-11" points="3726.44 942.94 3716.29 922.08 3717.54 904.67 3713.92 890.99 3714.33 872.79 3711.79 855.41 3719.11 835.86 3719.11 810.96 3728.31 794.36 3707.32 786.33 3701.51 802.64 3691.12 803.73 3696.53 823.55 3698.6 848.98 3702.65 872.79 3702.85 896.88 3706.02 914.31 3688.62 942.94 3726.44 942.94"/><polygon class="cls-12" points="3722.41 942.94 3714.54 922.71 3715.5 905.83 3712.7 892.56 3713.01 874.9 3711.04 858.04 3716.72 839.09 3716.72 814.94 3723.86 798.84 3707.58 791.05 3703.07 806.86 3695.01 807.93 3699.21 827.14 3700.81 851.81 3703.95 874.9 3704.11 898.27 3706.57 915.17 3693.08 942.94 3722.41 942.94"/><polygon class="cls-13" points="3718.37 942.94 3712.78 923.33 3713.47 906.98 3711.47 894.12 3711.7 877.01 3710.3 860.68 3714.34 842.31 3714.34 818.91 3719.4 803.31 3707.84 795.76 3704.63 811.09 3698.9 812.12 3701.89 830.74 3703.03 854.64 3705.26 877.01 3705.37 899.66 3707.11 916.04 3697.53 942.94 3718.37 942.94"/><polygon class="cls-1" points="3250.22 1722.96 3239.12 1700.46 3241.52 1675.86 3232.52 1642.86 3239.42 1616.76 3241.37 1588.26 3254.72 1563.06 3272.72 1551.96 3258.62 1541.16 3214.82 1530.06 3166.22 1559.76 3180.32 1570.86 3192.02 1589.16 3189.62 1626.51 3192.02 1664.54 3202.82 1687.34 3176.42 1722.96 3250.22 1722.96"/><polygon class="cls-2" points="3176.52 1722.96 3249.97 1722.96 3238.33 1701.3 3238.2 1693.28 3239.81 1677.39 3238.69 1672.1 3233.46 1654.55 3231.32 1645 3234.09 1632.9 3236.63 1619.27 3236.79 1611.54 3239.63 1591.74 3243.44 1584.75 3251.41 1566.65 3258.9 1560.44 3267.49 1554.66 3257.57 1543.71 3214.43 1532.96 3191.52 1548.88 3168.8 1560.96 3181.42 1572.08 3190.13 1586.21 3192.08 1589.64 3190.67 1625.04 3193.18 1648.93 3193.99 1664.08 3196.87 1671.7 3204.02 1687.92 3176.52 1722.96"/><polygon class="cls-3" points="3176.62 1722.95 3249.73 1722.95 3237.54 1702.13 3236.47 1694.54 3238.1 1678.92 3237.33 1673.69 3231.77 1656.59 3230.13 1647.14 3232.43 1635.19 3233.84 1621.77 3233.63 1614.21 3237.9 1595.22 3241.73 1588.39 3248.1 1570.23 3254.09 1563.37 3262.27 1557.35 3256.52 1546.26 3214.04 1535.86 3193.51 1552.26 3171.39 1562.16 3182.52 1573.3 3190.51 1586.8 3192.15 1590.12 3191.72 1623.56 3195.27 1648.01 3195.97 1663.63 3198.3 1671.63 3205.22 1688.51 3176.62 1722.95"/><polygon class="cls-4" points="3176.72 1722.95 3249.49 1722.95 3236.75 1702.97 3234.73 1695.79 3236.4 1680.45 3235.97 1675.29 3230.08 1658.62 3228.94 1649.28 3230.77 1637.48 3231.05 1624.28 3230.47 1616.87 3236.16 1598.7 3240.01 1592.04 3244.79 1573.82 3249.29 1566.29 3257.05 1560.04 3255.47 1548.81 3213.66 1538.76 3195.5 1555.63 3173.98 1563.36 3183.62 1574.52 3190.88 1587.39 3192.21 1590.59 3192.78 1622.09 3197.36 1647.1 3197.95 1663.18 3199.73 1671.55 3206.42 1689.1 3176.72 1722.95"/><polygon class="cls-5" points="3176.82 1722.95 3249.25 1722.95 3235.96 1703.8 3232.99 1697.05 3234.69 1681.97 3234.61 1676.88 3228.39 1660.66 3227.75 1651.42 3229.11 1639.76 3228.26 1626.79 3227.3 1619.54 3234.43 1602.18 3238.3 1595.68 3241.49 1577.4 3244.48 1569.22 3251.83 1562.74 3254.42 1551.36 3213.27 1541.66 3197.48 1559 3176.57 1564.56 3184.73 1575.74 3191.26 1587.98 3192.28 1591.07 3193.83 1620.61 3199.44 1646.17 3199.92 1662.72 3201.16 1671.48 3207.62 1689.69 3176.82 1722.95"/><polygon class="cls-6" points="3176.92 1722.94 3249.01 1722.94 3235.17 1704.63 3231.25 1698.31 3232.99 1683.5 3233.24 1678.47 3226.7 1662.7 3226.55 1653.56 3227.45 1642.05 3225.48 1629.29 3224.14 1622.2 3232.69 1605.66 3236.59 1599.32 3238.18 1580.98 3239.68 1572.14 3246.6 1565.43 3253.37 1553.91 3212.88 1544.56 3199.47 1562.37 3179.16 1565.76 3185.83 1576.95 3191.64 1588.57 3192.34 1591.54 3194.89 1619.14 3201.53 1645.26 3201.9 1662.27 3202.59 1671.41 3208.82 1690.28 3176.92 1722.94"/><polygon class="cls-7" points="3248.77 1722.94 3229.52 1699.56 3231.88 1680.06 3225.02 1664.74 3225.8 1644.34 3220.97 1624.86 3234.87 1602.96 3234.87 1575.06 3252.32 1556.46 3212.5 1547.46 3201.46 1565.74 3181.75 1566.96 3192.02 1589.16 3195.94 1617.66 3203.62 1644.34 3204.02 1671.34 3210.02 1690.86 3177.02 1722.94 3248.77 1722.94"/><polygon class="cls-8" points="3244.74 1722.94 3227.76 1700.19 3229.85 1681.22 3223.79 1666.3 3224.48 1646.45 3220.23 1627.5 3232.48 1606.19 3232.48 1579.04 3247.86 1560.94 3212.75 1552.18 3203.02 1569.96 3185.64 1571.16 3194.69 1592.76 3198.15 1620.49 3204.93 1646.45 3205.28 1672.72 3210.57 1691.73 3181.47 1722.94 3244.74 1722.94"/><polygon class="cls-9" points="3240.7 1722.94 3226 1700.82 3227.81 1682.37 3222.57 1667.87 3223.16 1648.56 3219.48 1630.14 3230.09 1609.41 3230.09 1583.01 3243.41 1565.41 3213.01 1556.9 3204.58 1574.19 3189.53 1575.35 3197.37 1596.36 3200.37 1623.32 3206.23 1648.56 3206.53 1674.11 3211.12 1692.59 3185.92 1722.94 3240.7 1722.94"/><polygon class="cls-10" points="3236.67 1722.94 3224.25 1701.45 3225.77 1683.52 3221.34 1669.43 3221.85 1650.67 3218.74 1632.77 3227.7 1612.64 3227.7 1586.99 3238.96 1569.89 3213.27 1561.61 3206.14 1578.41 3193.43 1579.54 3200.05 1599.95 3202.58 1626.15 3207.54 1650.67 3207.79 1675.5 3211.67 1693.45 3190.37 1722.94 3236.67 1722.94"/><polygon class="cls-11" points="3232.64 1722.94 3222.49 1702.08 3223.74 1684.67 3220.12 1670.99 3220.53 1652.79 3217.99 1635.41 3225.31 1615.86 3225.31 1590.96 3234.51 1574.36 3213.52 1566.33 3207.71 1582.64 3197.32 1583.73 3202.73 1603.55 3204.8 1628.98 3208.85 1652.79 3209.05 1676.88 3212.22 1694.31 3194.82 1722.94 3232.64 1722.94"/><polygon class="cls-12" points="3228.61 1722.94 3220.74 1702.7 3221.7 1685.83 3218.9 1672.56 3219.22 1654.9 3217.24 1638.05 3222.93 1619.09 3222.93 1594.94 3230.06 1578.84 3213.78 1571.05 3209.27 1586.86 3201.21 1587.93 3205.41 1607.14 3207.01 1631.81 3210.15 1654.9 3210.31 1678.27 3212.76 1695.17 3199.28 1722.94 3228.61 1722.94"/><polygon class="cls-13" points="3224.57 1722.94 3218.98 1703.33 3219.67 1686.98 3217.67 1674.12 3217.9 1657.01 3216.5 1640.68 3220.54 1622.31 3220.54 1598.91 3225.6 1583.31 3214.04 1575.76 3210.83 1591.09 3205.1 1592.12 3208.09 1610.74 3209.23 1634.64 3211.46 1657.01 3211.57 1679.66 3213.32 1696.04 3203.73 1722.94 3224.57 1722.94"/><polygon class="cls-1" points="2770.22 1692.96 2759.12 1670.46 2761.52 1645.86 2752.52 1612.86 2759.42 1586.76 2761.37 1558.26 2774.72 1533.06 2796.65 1517.06 2778.62 1511.16 2734.82 1500.06 2715.04 1529.76 2700.32 1540.86 2712.02 1559.16 2709.62 1596.51 2712.02 1634.54 2722.82 1657.34 2696.42 1692.96 2770.22 1692.96"/><polygon class="cls-2" points="2696.52 1692.96 2769.97 1692.96 2758 1670.9 2757.88 1666.63 2759.91 1646.56 2755.19 1630.91 2751.38 1613.42 2751.78 1611.66 2755.11 1592.76 2756.87 1587.28 2759.76 1568.36 2760.28 1559.13 2767.23 1542.94 2771.59 1533.23 2790.33 1515.24 2774.01 1510.88 2734.43 1502.96 2723.14 1520.2 2713.59 1531.58 2701.88 1542.65 2707.99 1552.87 2712.14 1560.08 2710.67 1595.04 2713.25 1620.01 2713.99 1633.68 2717.81 1643.67 2723.82 1657.29 2722.28 1660.27 2696.52 1692.96"/><polygon class="cls-3" points="2696.62 1692.95 2769.73 1692.95 2756.88 1671.33 2756.2 1667.22 2758.3 1647.26 2753.16 1631.67 2750.25 1613.98 2750.58 1612.19 2752.29 1593.18 2754.33 1587.79 2758.78 1569.28 2759.2 1560 2764.76 1543.37 2768.46 1533.4 2784 1513.42 2769.4 1510.6 2734.04 1505.86 2722.8 1523.31 2712.14 1533.4 2703.44 1544.43 2708.8 1554.13 2712.27 1561 2711.72 1593.56 2715.32 1618.87 2715.96 1632.83 2719.05 1643.21 2724.83 1657.25 2723.83 1660.39 2696.62 1692.95"/><polygon class="cls-4" points="2696.72 1692.95 2769.49 1692.95 2755.76 1671.77 2754.53 1667.8 2756.7 1647.96 2751.12 1632.44 2749.12 1614.54 2749.39 1612.73 2749.46 1593.6 2751.79 1588.31 2757.8 1570.2 2758.12 1560.87 2762.29 1543.79 2765.34 1533.57 2777.68 1511.59 2764.8 1510.32 2733.66 1508.76 2722.47 1526.41 2710.69 1535.21 2705 1546.22 2709.6 1555.39 2712.39 1561.92 2712.78 1592.09 2717.4 1617.74 2717.93 1631.97 2720.29 1642.74 2725.83 1657.2 2725.37 1660.51 2696.72 1692.95"/><polygon class="cls-5" points="2696.82 1692.95 2769.25 1692.95 2754.64 1672.2 2752.86 1668.39 2755.09 1648.66 2749.09 1633.2 2747.99 1615.1 2748.19 1613.27 2746.63 1594.02 2749.24 1588.82 2756.83 1571.12 2757.04 1561.74 2759.82 1544.22 2762.21 1533.74 2771.36 1509.77 2760.19 1510.03 2733.27 1511.66 2722.13 1529.52 2709.24 1537.03 2706.57 1548.01 2710.41 1556.65 2712.52 1562.84 2713.83 1590.61 2719.47 1616.6 2719.9 1631.12 2721.53 1642.27 2726.84 1657.16 2726.92 1660.63 2696.82 1692.95"/><polygon class="cls-6" points="2696.92 1692.94 2769.01 1692.94 2753.52 1672.64 2751.19 1668.98 2753.49 1649.36 2747.05 1633.97 2746.86 1615.66 2746.99 1613.8 2743.8 1594.44 2746.7 1589.33 2755.85 1572.04 2755.95 1562.61 2757.34 1544.64 2759.08 1533.91 2765.03 1507.94 2755.58 1509.75 2732.88 1514.56 2721.8 1532.63 2707.8 1538.85 2708.13 1549.79 2711.21 1557.91 2712.65 1563.76 2714.89 1589.14 2721.55 1615.47 2721.87 1630.26 2722.77 1641.8 2727.84 1657.11 2728.47 1660.74 2696.92 1692.94"/><polygon class="cls-7" points="2768.77 1692.94 2749.52 1669.56 2751.88 1650.06 2745.02 1634.74 2745.8 1614.34 2740.97 1594.86 2754.87 1572.96 2754.87 1545.06 2758.71 1506.12 2732.5 1517.46 2721.46 1535.74 2706.35 1540.66 2712.02 1559.16 2715.94 1587.66 2723.62 1614.34 2724.02 1641.34 2730.02 1660.86 2697.02 1692.94 2768.77 1692.94"/><polygon class="cls-8" points="2764.74 1692.94 2747.76 1670.19 2749.85 1651.22 2743.79 1636.3 2744.48 1616.45 2740.23 1597.5 2752.48 1576.19 2752.48 1549.04 2756.53 1513.98 2732.75 1522.18 2723.02 1539.96 2709.47 1544.24 2714.69 1562.76 2718.15 1590.49 2724.93 1616.45 2725.28 1642.72 2730.57 1661.73 2701.47 1692.94 2764.74 1692.94"/><polygon class="cls-9" points="2760.7 1692.94 2746 1670.82 2747.81 1652.37 2742.57 1637.87 2743.16 1618.56 2739.48 1600.14 2750.09 1579.41 2750.09 1553.01 2754.34 1521.85 2733.01 1526.9 2724.58 1544.19 2712.6 1547.82 2717.37 1566.36 2720.37 1593.32 2726.23 1618.56 2726.53 1644.11 2731.12 1662.59 2705.92 1692.94 2760.7 1692.94"/><polygon class="cls-10" points="2756.67 1692.94 2744.25 1671.45 2745.77 1653.52 2741.34 1639.43 2741.85 1620.67 2738.74 1602.77 2747.7 1582.64 2747.7 1556.99 2752.16 1529.72 2733.27 1531.61 2726.14 1548.41 2715.73 1551.39 2720.05 1569.95 2722.58 1596.15 2727.54 1620.67 2727.79 1645.5 2731.67 1663.45 2710.37 1692.94 2756.67 1692.94"/><polygon class="cls-11" points="2752.64 1692.94 2742.49 1672.08 2743.74 1654.67 2740.12 1640.99 2740.53 1622.79 2737.99 1605.41 2745.31 1585.86 2745.31 1560.96 2749.97 1537.58 2733.52 1536.33 2727.71 1552.64 2718.85 1554.97 2722.73 1573.55 2724.8 1598.98 2728.85 1622.79 2729.05 1646.88 2732.22 1664.31 2714.82 1692.94 2752.64 1692.94"/><polygon class="cls-12" points="2748.61 1692.94 2740.74 1672.7 2741.7 1655.83 2738.9 1642.56 2739.22 1624.9 2737.24 1608.05 2742.93 1589.09 2742.93 1564.94 2747.79 1545.45 2733.78 1541.05 2729.27 1556.86 2721.98 1558.54 2725.41 1577.14 2727.01 1601.81 2730.15 1624.9 2730.31 1648.27 2732.76 1665.17 2719.28 1692.94 2748.61 1692.94"/><polygon class="cls-13" points="2744.57 1692.94 2738.98 1673.33 2739.67 1656.98 2737.67 1644.12 2737.9 1627.01 2736.5 1610.68 2740.54 1592.31 2740.54 1568.91 2745.6 1553.31 2734.04 1545.76 2730.83 1561.09 2725.1 1562.12 2728.09 1580.74 2729.23 1604.64 2731.46 1627.01 2731.57 1649.66 2733.32 1666.04 2723.73 1692.94 2744.57 1692.94"/><polygon class="cls-1" points="1644.02 702.96 1632.92 680.46 1635.32 655.86 1626.32 622.86 1633.22 596.76 1635.17 568.26 1648.52 543.06 1653.47 531.36 1652.42 521.16 1608.62 510.06 1580.85 537.16 1574.12 550.86 1585.82 569.16 1583.42 606.51 1585.82 644.54 1596.62 667.34 1570.22 702.96 1644.02 702.96"/><polygon class="cls-2" points="1570.32 702.96 1643.78 702.96 1631.93 681.06 1631.8 675.4 1633.71 656.56 1628.75 640.02 1625.17 623.8 1626.11 619.66 1629.73 599.68 1630.31 597.85 1633.87 573.78 1634.08 570.12 1643.89 547.55 1645.58 544.67 1651.11 533.43 1651.37 523.71 1608.23 512.96 1594.39 527.72 1579.97 538.8 1575.12 551.87 1584.56 567.21 1585.86 569.49 1584.47 605.04 1587.05 630 1587.79 643.68 1591.61 653.67 1597.62 667.29 1596.08 670.27 1570.32 702.96"/><polygon class="cls-3" points="1570.42 702.96 1643.53 702.96 1630.94 681.65 1630.1 676.24 1632.11 657.26 1626.76 640.96 1624.02 624.73 1624.8 620.6 1626.74 600.72 1627.4 598.94 1632.83 575.62 1633 571.98 1640.85 549.05 1642.64 546.27 1648.75 535.49 1650.32 526.26 1607.84 515.86 1594.57 531.32 1579.08 540.43 1576.13 552.88 1584.81 567.6 1585.91 569.82 1585.52 603.56 1589.12 628.87 1589.76 642.83 1592.85 653.21 1598.63 667.25 1597.63 670.39 1570.42 702.96"/><polygon class="cls-4" points="1570.52 702.95 1643.29 702.95 1629.96 682.25 1628.4 677.07 1630.5 657.96 1624.78 641.91 1622.88 625.67 1623.5 621.53 1623.75 601.75 1624.49 600.03 1631.79 577.46 1631.92 573.83 1637.8 550.55 1639.71 547.87 1646.38 537.55 1649.27 528.81 1607.46 518.76 1594.74 534.92 1578.2 542.06 1577.13 553.89 1585.07 567.99 1585.95 570.14 1586.58 602.09 1591.2 627.74 1591.73 641.97 1594.09 652.74 1599.63 667.2 1599.17 670.51 1570.52 702.95"/><polygon class="cls-5" points="1570.62 702.95 1643.05 702.95 1628.97 682.85 1626.71 677.9 1628.89 658.66 1622.79 642.85 1621.73 626.6 1622.2 622.47 1620.76 602.79 1621.59 601.12 1630.75 579.29 1630.84 575.69 1634.76 552.06 1636.77 549.48 1644.02 539.61 1648.22 531.36 1607.07 521.66 1594.91 538.53 1577.31 543.7 1578.14 554.9 1585.32 568.38 1585.99 570.47 1587.63 600.61 1593.27 626.6 1593.7 641.12 1595.33 652.27 1600.64 667.16 1600.72 670.63 1570.62 702.95"/><polygon class="cls-6" points="1570.72 702.94 1642.81 702.94 1627.99 683.44 1625.01 678.73 1627.29 659.36 1620.8 643.79 1620.58 627.54 1620.9 623.4 1617.77 603.83 1618.68 602.2 1629.71 581.13 1629.75 577.54 1631.71 553.56 1633.84 551.08 1641.66 541.67 1647.17 533.91 1606.68 524.56 1595.09 542.13 1576.43 545.33 1579.14 555.9 1585.57 568.77 1586.04 570.79 1588.69 599.14 1595.35 625.47 1595.67 640.26 1596.57 651.8 1601.64 667.11 1602.27 670.75 1570.72 702.94"/><polygon class="cls-7" points="1642.57 702.94 1623.32 679.56 1625.68 660.06 1618.82 644.74 1619.6 624.34 1614.77 604.86 1628.67 582.96 1628.67 555.06 1646.12 536.46 1606.3 527.46 1595.26 545.74 1575.55 546.96 1585.82 569.16 1589.74 597.66 1597.42 624.34 1597.82 651.34 1603.82 670.86 1570.82 702.94 1642.57 702.94"/><polygon class="cls-8" points="1638.54 702.94 1621.56 680.19 1623.65 661.22 1617.59 646.3 1618.28 626.45 1614.03 607.5 1626.28 586.19 1626.28 559.04 1641.66 540.94 1606.55 532.18 1596.82 549.96 1579.44 551.16 1588.49 572.76 1591.95 600.49 1598.73 626.45 1599.08 652.72 1604.37 671.73 1575.27 702.94 1638.54 702.94"/><polygon class="cls-9" points="1634.5 702.94 1619.8 680.82 1621.61 662.37 1616.37 647.87 1616.96 628.56 1613.28 610.14 1623.89 589.41 1623.89 563.01 1637.21 545.41 1606.81 536.9 1598.38 554.19 1583.33 555.35 1591.17 576.36 1594.17 603.32 1600.03 628.56 1600.34 654.11 1604.92 672.59 1579.72 702.94 1634.5 702.94"/><polygon class="cls-10" points="1630.47 702.94 1618.05 681.45 1619.57 663.52 1615.14 649.43 1615.65 630.67 1612.54 612.77 1621.5 592.64 1621.5 566.99 1632.76 549.89 1607.07 541.61 1599.94 558.41 1587.22 559.54 1593.85 579.95 1596.38 606.15 1601.34 630.67 1601.59 655.5 1605.47 673.45 1584.17 702.94 1630.47 702.94"/><polygon class="cls-11" points="1626.44 702.94 1616.29 682.08 1617.54 664.67 1613.92 650.99 1614.33 632.79 1611.79 615.41 1619.11 595.86 1619.11 570.96 1628.31 554.36 1607.32 546.33 1601.51 562.64 1591.12 563.73 1596.53 583.55 1598.6 608.98 1602.65 632.79 1602.85 656.88 1606.02 674.31 1588.62 702.94 1626.44 702.94"/><polygon class="cls-12" points="1622.4 702.94 1614.54 682.71 1615.5 665.83 1612.7 652.56 1613.02 634.9 1611.04 618.04 1616.72 599.09 1616.72 574.94 1623.86 558.84 1607.58 551.05 1603.07 566.86 1595.01 567.93 1599.21 587.14 1600.81 611.81 1603.95 634.9 1604.11 658.27 1606.57 675.17 1593.08 702.94 1622.4 702.94"/><polygon class="cls-13" points="1618.37 702.94 1612.78 683.33 1613.47 666.98 1611.47 654.12 1611.7 637.01 1610.3 620.68 1614.34 602.31 1614.34 578.91 1619.4 563.31 1607.84 555.76 1604.63 571.09 1598.9 572.12 1601.89 590.74 1603.03 614.64 1605.26 637.01 1605.37 659.66 1607.12 676.04 1597.53 702.94 1618.37 702.94"/><polygon class="cls-1" points="84 882.97 72.9 860.47 75.3 835.87 66.3 802.87 73.2 776.77 75.15 748.27 88.5 723.07 106.5 711.97 92.4 701.17 48.6 690.07 0 719.77 14.1 730.87 25.8 749.17 23.4 786.52 25.8 824.54 36.6 847.35 10.2 882.97 84 882.97"/><polygon class="cls-2" points="10.3 882.97 83.76 882.97 72.11 861.31 71.99 853.29 73.59 837.4 72.48 832.11 67.24 814.56 65.11 805.01 67.88 792.91 70.41 779.28 70.58 771.55 73.42 751.75 77.22 744.76 85.19 726.66 92.68 720.45 101.28 714.66 91.35 703.72 48.21 692.97 25.3 708.89 2.59 720.97 15.2 732.09 23.91 746.22 25.86 749.65 24.45 785.05 26.96 808.94 27.78 824.09 30.66 831.71 37.8 847.93 10.3 882.97"/><polygon class="cls-3" points="10.4 882.96 83.52 882.96 71.32 862.14 70.25 854.54 71.89 838.93 71.11 833.7 65.55 816.59 63.91 807.15 66.22 795.2 67.63 781.78 67.41 774.22 71.68 755.23 75.51 748.4 81.89 730.24 87.88 723.38 96.06 717.36 90.3 706.27 47.83 695.87 27.29 712.26 5.18 722.17 16.3 733.31 24.29 746.81 25.93 750.12 25.51 783.57 29.05 808.02 29.75 823.64 32.08 831.63 39 848.52 10.4 882.96"/><polygon class="cls-4" points="10.5 882.96 83.28 882.96 70.53 862.98 68.51 855.8 70.18 840.45 69.75 835.29 63.87 818.63 62.72 809.29 64.56 797.49 64.84 784.29 64.25 776.88 69.94 758.71 73.8 752.04 78.58 733.82 83.07 726.3 90.83 720.05 89.25 708.82 47.44 698.77 29.28 715.63 7.76 723.37 17.41 734.53 24.67 747.4 26 750.6 26.56 782.1 31.14 807.1 31.73 823.18 33.51 831.56 40.2 849.11 10.5 882.96"/><polygon class="cls-5" points="10.6 882.95 83.03 882.95 69.74 863.81 66.77 857.06 68.47 841.98 68.39 836.89 62.18 820.67 61.53 811.43 62.9 799.77 62.05 786.79 61.09 779.54 68.21 762.19 72.08 755.69 75.27 737.41 78.27 729.23 85.61 722.75 88.2 711.37 47.05 701.67 31.27 719 10.35 724.57 18.51 735.75 25.05 747.99 26.06 751.08 27.62 780.62 33.23 806.18 33.71 822.73 34.94 831.49 41.4 849.7 10.6 882.95"/><polygon class="cls-6" points="10.7 882.95 82.79 882.95 68.95 864.64 65.04 858.32 66.77 843.51 67.03 838.48 60.49 822.71 60.34 813.57 61.24 802.06 59.26 789.3 57.92 782.21 66.47 765.66 70.37 759.33 71.96 740.99 73.46 732.15 80.39 725.44 87.15 713.92 46.67 704.57 33.26 722.37 12.94 725.77 19.61 736.96 25.42 748.58 26.13 751.55 28.67 779.15 35.32 805.26 35.68 822.28 36.37 831.42 42.6 850.28 10.7 882.95"/><polygon class="cls-7" points="82.55 882.95 63.3 859.57 65.67 840.07 58.8 824.75 59.58 804.35 54.76 784.87 68.66 762.97 68.66 735.07 86.1 716.47 46.28 707.47 35.24 725.75 15.53 726.97 25.8 749.17 29.72 777.67 37.41 804.35 37.8 831.35 43.8 850.87 10.8 882.95 82.55 882.95"/><polygon class="cls-8" points="78.52 882.95 61.54 860.2 63.63 841.22 57.58 826.31 58.26 806.46 54.01 787.51 66.27 766.2 66.27 739.05 81.65 720.95 46.54 712.19 36.8 729.97 19.42 731.16 28.48 752.77 31.94 780.5 38.71 806.46 39.06 832.73 44.35 851.73 15.25 882.95 78.52 882.95"/><polygon class="cls-9" points="74.49 882.95 59.79 860.83 61.59 842.38 56.35 827.87 56.95 808.57 53.27 790.14 63.88 769.42 63.88 743.02 77.2 725.42 46.79 716.9 38.37 734.2 23.32 735.36 31.16 756.36 34.15 783.33 40.02 808.57 40.32 834.12 44.9 852.6 19.7 882.95 74.49 882.95"/><polygon class="cls-10" points="70.45 882.95 58.03 861.46 59.56 843.53 55.13 829.44 55.63 810.68 52.52 792.78 61.49 772.65 61.49 747 72.74 729.9 47.05 721.62 39.93 738.42 27.21 739.55 33.84 759.96 36.37 786.16 41.32 810.68 41.58 835.51 45.45 853.46 24.16 882.95 70.45 882.95"/><polygon class="cls-11" points="66.42 882.95 56.28 862.09 57.52 844.68 53.9 831 54.31 812.8 51.77 795.42 59.1 775.87 59.1 750.97 68.29 734.37 47.31 726.34 41.49 742.65 31.1 743.74 36.51 763.55 38.58 788.99 42.63 812.8 42.84 836.89 46 854.32 28.61 882.95 66.42 882.95"/><polygon class="cls-12" points="62.39 882.95 54.52 862.71 55.49 845.83 52.68 832.57 53 814.91 51.03 798.05 56.71 779.1 56.71 754.95 63.84 738.85 47.56 731.05 43.05 746.87 34.99 747.93 39.19 767.15 40.8 791.82 43.94 814.91 44.1 838.28 46.55 855.18 33.06 882.95 62.39 882.95"/><polygon class="cls-13" points="58.36 882.95 52.76 863.34 53.45 846.99 51.46 834.13 51.68 817.02 50.28 800.69 54.32 782.32 54.32 758.92 59.39 743.32 47.82 735.77 44.61 751.1 38.89 752.13 41.87 770.75 43.01 794.65 45.24 817.02 45.36 839.67 47.1 856.04 37.51 882.95 58.36 882.95"/><polygon class="cls-1" points="4929.41 192.9 4918.31 170.4 4920.71 145.8 4911.71 112.8 4918.61 86.7 4920.56 58.2 4933.91 33 4951.91 21.9 4937.81 11.1 4894.01 0 4845.41 29.7 4859.51 40.8 4871.21 59.1 4868.81 96.45 4871.21 134.47 4882.01 157.27 4855.61 192.9 4929.41 192.9"/><polygon class="cls-2" points="4855.71 192.9 4929.17 192.9 4917.52 171.23 4917.4 163.22 4919.01 147.33 4917.89 142.04 4912.65 124.48 4910.52 114.94 4913.29 102.84 4915.83 89.2 4915.99 81.48 4918.83 61.68 4922.64 54.69 4930.61 36.58 4938.1 30.38 4946.69 24.59 4936.76 13.65 4893.63 2.9 4870.72 18.82 4848 30.9 4860.62 42.02 4869.33 56.15 4871.28 59.58 4869.87 94.97 4872.38 118.87 4873.19 134.02 4876.07 141.63 4883.21 157.86 4855.71 192.9"/><polygon class="cls-3" points="4855.81 192.89 4928.93 192.89 4916.73 172.07 4915.66 164.47 4917.3 148.85 4916.53 143.63 4910.97 126.52 4909.33 117.08 4911.63 105.13 4913.04 91.71 4912.83 84.14 4917.09 65.16 4920.93 58.33 4927.3 40.17 4933.29 33.3 4941.47 27.29 4935.71 16.2 4893.24 5.8 4872.71 22.19 4850.59 32.1 4861.72 43.24 4869.7 56.74 4871.34 60.05 4870.92 93.5 4874.46 117.95 4875.17 133.57 4877.5 141.56 4884.41 158.45 4855.81 192.89"/><polygon class="cls-4" points="4855.91 192.89 4928.69 192.89 4915.95 172.9 4913.93 165.73 4915.6 150.38 4915.17 145.22 4909.28 128.56 4908.14 119.22 4909.97 107.41 4910.25 94.22 4909.66 86.81 4915.36 68.64 4919.21 61.97 4923.99 43.75 4928.48 36.23 4936.25 29.98 4934.66 18.75 4892.85 8.7 4874.69 25.56 4853.18 33.3 4862.82 44.45 4870.08 57.33 4871.41 60.53 4871.98 92.03 4876.55 117.03 4877.14 133.11 4878.93 141.49 4885.61 159.04 4855.91 192.89"/><polygon class="cls-5" points="4856.01 192.88 4928.45 192.88 4915.16 173.74 4912.19 166.99 4913.89 151.91 4913.8 146.81 4907.59 130.6 4906.94 121.36 4908.31 109.7 4907.46 96.72 4906.5 89.47 4913.62 72.11 4917.5 65.62 4920.68 47.34 4923.68 39.15 4931.02 32.67 4933.61 21.3 4892.47 11.6 4876.68 28.93 4855.77 34.5 4863.92 45.67 4870.46 57.92 4871.48 61 4873.03 90.55 4878.64 116.11 4879.12 132.66 4880.35 141.42 4886.81 159.62 4856.01 192.88"/><polygon class="cls-6" points="4856.11 192.88 4928.21 192.88 4914.37 174.57 4910.45 168.24 4912.18 153.44 4912.44 148.41 4905.9 132.63 4905.75 123.5 4906.65 111.99 4904.68 99.23 4903.34 92.14 4911.89 75.59 4915.78 69.26 4917.38 50.92 4918.87 42.08 4925.8 35.37 4932.56 23.85 4892.08 14.5 4878.67 32.3 4858.36 35.7 4865.03 46.89 4870.84 58.51 4871.54 61.48 4874.08 89.08 4880.73 115.19 4881.1 132.21 4881.78 141.34 4888.01 160.21 4856.11 192.88"/><polygon class="cls-7" points="4927.97 192.87 4908.71 169.5 4911.08 150 4904.21 134.67 4904.99 114.27 4900.17 94.8 4914.07 72.9 4914.07 45 4931.51 26.4 4891.69 17.4 4880.66 35.67 4860.94 36.9 4871.21 59.1 4875.14 87.6 4882.82 114.27 4883.21 141.27 4889.21 160.8 4856.21 192.87 4927.97 192.87"/><polygon class="cls-8" points="4923.93 192.87 4906.96 170.13 4909.04 151.15 4902.99 136.24 4903.68 116.39 4899.43 97.44 4911.68 76.13 4911.68 48.98 4927.06 30.88 4891.95 22.12 4882.22 39.9 4864.84 41.09 4873.89 62.7 4877.35 90.43 4884.13 116.39 4884.47 142.66 4889.76 161.66 4860.66 192.87 4923.93 192.87"/><polygon class="cls-9" points="4919.9 192.87 4905.2 170.76 4907.01 152.31 4901.77 137.8 4902.36 118.5 4898.68 100.07 4909.29 79.35 4909.29 52.95 4922.61 35.35 4892.21 26.83 4883.78 44.12 4868.73 45.28 4876.57 66.29 4879.57 93.26 4885.43 118.5 4885.73 144.05 4890.31 162.52 4865.12 192.87 4919.9 192.87"/><polygon class="cls-10" points="4915.87 192.87 4903.44 171.38 4904.97 153.46 4900.54 139.37 4901.04 120.61 4897.93 102.71 4906.9 82.58 4906.9 56.92 4918.16 39.82 4892.46 31.55 4885.34 48.35 4872.62 49.48 4879.25 69.89 4881.78 96.09 4886.74 120.61 4886.99 145.43 4890.86 163.39 4869.57 192.87 4915.87 192.87"/><polygon class="cls-11" points="4911.84 192.87 4901.69 172.01 4902.94 154.61 4899.32 140.93 4899.73 122.72 4897.19 105.34 4904.51 85.8 4904.51 60.9 4913.7 44.3 4892.72 36.27 4886.9 52.58 4876.52 53.67 4881.93 73.48 4883.99 98.92 4888.04 122.72 4888.25 146.82 4891.41 164.25 4874.02 192.87 4911.84 192.87"/><polygon class="cls-12" points="4907.8 192.87 4899.93 172.64 4900.9 155.76 4898.09 142.5 4898.41 124.84 4896.44 107.98 4902.12 89.02 4902.12 64.87 4909.25 48.77 4892.98 40.98 4888.47 56.8 4880.41 57.86 4884.6 77.08 4886.21 101.75 4889.35 124.84 4889.51 148.21 4891.96 165.11 4878.47 192.87 4907.8 192.87"/><polygon class="cls-13" points="4903.77 192.87 4898.18 173.27 4898.86 156.91 4896.87 144.06 4897.1 126.95 4895.7 110.62 4899.73 92.25 4899.73 68.85 4904.8 53.25 4893.23 45.7 4890.03 61.03 4884.3 62.05 4887.28 80.67 4888.42 104.58 4890.65 126.95 4890.77 149.59 4892.51 165.97 4882.93 192.87 4903.77 192.87"/><polygon class="cls-1" points="1329.88 462.96 1320.91 440.46 1322.85 415.86 1315.57 382.86 1321.15 356.76 1322.72 328.26 1333.52 303.06 1348.07 291.96 1336.67 281.16 1301.26 270.06 1261.97 299.76 1273.37 310.86 1282.83 329.16 1280.89 366.51 1282.83 404.54 1291.56 427.34 1270.22 462.96 1329.88 462.96"/><polygon class="cls-2" points="1270.3 462.96 1329.68 462.96 1320.18 441.17 1320.06 434.64 1321.49 417.14 1320.86 413.44 1316.7 396.21 1314.62 384.72 1316.53 374.37 1318.84 359 1318.94 353.11 1321.53 331.35 1323.4 327.1 1330.84 306.29 1336.27 300.92 1343.89 294.6 1335.82 283.71 1300.95 272.96 1281.1 289.89 1264.06 300.96 1274.22 311.98 1281.65 326.88 1282.87 329.52 1281.74 365.04 1283.75 388.59 1284.43 404.18 1286.68 411.51 1292.53 427.92 1270.3 462.96"/><polygon class="cls-3" points="1270.38 462.95 1329.49 462.95 1319.46 441.88 1318.68 435.63 1320.14 418.42 1319.7 414.77 1315.26 397.92 1313.66 386.58 1315.25 376.37 1316.53 361.23 1316.4 355.46 1320.33 334.43 1322.21 330.27 1328.17 309.52 1332.51 303.75 1339.71 297.24 1334.97 286.26 1300.64 275.86 1282.97 293.06 1266.15 302.16 1275.07 313.09 1281.88 327.34 1282.91 329.88 1282.59 363.56 1285.44 387.74 1286.03 403.81 1287.85 411.48 1293.5 428.51 1270.38 462.95"/><polygon class="cls-4" points="1270.46 462.95 1329.29 462.95 1318.74 442.59 1317.29 436.61 1318.78 419.69 1318.54 416.09 1313.82 399.62 1312.7 388.43 1313.97 378.36 1314.22 363.47 1313.86 357.81 1319.13 337.51 1321.03 333.44 1325.5 312.75 1328.75 306.58 1335.54 299.87 1334.12 288.81 1300.32 278.76 1284.84 296.23 1268.25 303.36 1275.93 314.21 1282.12 327.8 1282.95 330.24 1283.44 362.09 1287.13 386.89 1287.63 403.45 1289.02 411.44 1294.47 429.1 1270.46 462.95"/><polygon class="cls-5" points="1270.54 462.95 1329.1 462.95 1318.02 443.3 1315.91 437.59 1317.43 420.97 1317.38 417.42 1312.38 401.33 1311.75 390.29 1312.69 380.35 1311.92 365.7 1311.32 360.16 1317.93 340.59 1319.84 336.62 1322.82 315.98 1324.99 309.41 1331.36 302.5 1333.28 291.36 1300.01 281.66 1286.72 299.4 1270.34 304.56 1276.78 315.32 1282.36 328.25 1282.99 330.6 1284.3 360.61 1288.83 386.04 1289.22 403.09 1290.19 411.41 1295.44 429.69 1270.54 462.95"/><polygon class="cls-6" points="1270.62 462.94 1328.9 462.94 1317.3 444 1314.53 438.58 1316.07 422.25 1316.22 418.74 1310.94 403.03 1310.79 392.14 1311.42 382.34 1309.61 367.94 1308.78 362.51 1316.73 343.67 1318.66 339.79 1320.15 319.21 1321.23 312.24 1327.18 305.14 1332.43 293.91 1299.7 284.56 1288.59 302.57 1272.43 305.76 1277.63 316.44 1282.59 328.71 1283.03 330.96 1285.15 359.14 1290.52 385.19 1290.82 402.73 1291.36 411.37 1296.41 430.28 1270.62 462.94"/><polygon class="cls-7" points="1328.71 462.94 1313.14 439.56 1315.06 420.06 1309.51 404.74 1310.14 384.34 1306.24 364.86 1317.47 342.96 1317.47 315.06 1331.58 296.46 1299.39 287.46 1290.46 305.74 1274.53 306.96 1282.83 329.16 1286 357.66 1292.21 384.34 1292.53 411.34 1297.38 430.86 1270.7 462.94 1328.71 462.94"/><polygon class="cls-8" points="1325.45 462.94 1311.72 440.19 1313.41 421.22 1308.52 406.3 1309.07 386.45 1305.64 367.5 1315.54 346.19 1315.54 319.04 1327.98 300.94 1299.59 292.18 1291.72 309.96 1277.67 311.16 1284.99 332.76 1287.79 360.49 1293.27 386.45 1293.55 412.72 1297.83 431.73 1274.3 462.94 1325.45 462.94"/><polygon class="cls-9" points="1322.19 462.94 1310.31 440.82 1311.77 422.37 1307.53 407.87 1308.01 388.56 1305.03 370.14 1313.61 349.41 1313.61 323.01 1324.38 305.41 1299.8 296.9 1292.99 314.19 1280.82 315.35 1287.16 336.36 1289.58 363.32 1294.32 388.56 1294.57 414.11 1298.27 432.59 1277.9 462.94 1322.19 462.94"/><polygon class="cls-10" points="1318.93 462.94 1308.89 441.45 1310.12 423.52 1306.54 409.43 1306.94 390.68 1304.43 372.77 1311.68 352.64 1311.68 326.99 1320.78 309.89 1300.01 301.61 1294.25 318.41 1283.97 319.54 1289.32 339.95 1291.37 366.15 1295.38 390.68 1295.58 415.5 1298.71 433.45 1281.5 462.94 1318.93 462.94"/><polygon class="cls-11" points="1315.67 462.94 1307.47 442.08 1308.47 424.67 1305.55 410.99 1305.88 392.79 1303.83 375.41 1309.75 355.86 1309.75 330.96 1317.18 314.36 1300.21 306.33 1295.51 322.64 1287.11 323.73 1291.49 343.55 1293.16 368.98 1296.43 392.79 1296.6 416.88 1299.16 434.31 1285.1 462.94 1315.67 462.94"/><polygon class="cls-12" points="1312.41 462.94 1306.05 442.7 1306.83 425.83 1304.56 412.56 1304.82 394.9 1303.22 378.05 1307.82 359.09 1307.82 334.94 1313.58 318.84 1300.42 311.05 1296.78 326.86 1290.26 327.93 1293.65 347.14 1294.95 371.81 1297.49 394.9 1297.62 418.27 1299.6 435.17 1288.7 462.94 1312.41 462.94"/><polygon class="cls-13" points="1309.15 462.94 1304.63 443.33 1305.18 426.98 1303.57 414.12 1303.75 397.01 1302.62 380.68 1305.88 362.31 1305.88 338.91 1309.98 323.31 1300.63 315.76 1298.04 331.09 1293.41 332.12 1295.82 350.74 1296.74 374.64 1298.55 397.01 1298.64 419.66 1300.05 436.04 1292.3 462.94 1309.15 462.94"/></g></g></svg>