<?xml version="1.0" encoding="utf-8"?>
<!-- Generator: Adobe Illustrator 24.0.1, SVG Export Plug-In . SVG Version: 6.00 Build 0)  -->
<svg version="1.1" id="Layer_1" xmlns="http://www.w3.org/2000/svg" xmlns:xlink="http://www.w3.org/1999/xlink" x="0px" y="0px"
	 viewBox="0 0 4951.9 1839.9" style="enable-background:new 0 0 4951.9 1839.9;" xml:space="preserve">
<style type="text/css">
	.st0{fill:#5B5B5B;}
	.st1{fill:#575757;}
	.st2{fill:#535353;}
	.st3{fill:#4F4F4F;}
	.st4{fill:#4B4B4B;}
	.st5{fill:#474747;}
	.st6{fill:#434343;}
	.st7{fill:#3B3B3B;}
	.st8{fill:#343434;}
	.st9{fill:#2D2D2D;}
	.st10{fill:#252525;}
	.st11{fill:#1E1E1E;}
	.st12{fill:#161616;}
</style>
<title>Pedras</title>
<g id="Layer_2_1_">
	<g id="Pedras_Obstáculos">
		<polygon class="st0" points="3744,1059.9 3732.9,1037.4 3735.3,1012.8 3726.3,979.8 3733.2,953.7 3735.2,833.4 3757.9,812.1 
			3746.1,793.5 3732,782.7 3691.9,788.1 3678.1,801.3 3674.1,816 3685.8,834.3 3683.4,963.4 3685.8,1001.5 3696.6,1024.3 
			3670.2,1059.9 		"/>
		<polygon class="st1" points="3670.3,1059.9 3743.8,1059.9 3731.9,1038 3731.8,1032.1 3733.7,1013.8 3733.3,1012.1 3728.4,995.6 
			3725.2,981 3726.4,975.3 3730.1,955 3734,837.4 3734.1,835.5 3750.4,815.8 3753.4,812.9 3746.1,794.8 3731.3,785.1 3710.6,786.6 
			3692.4,791.8 3692.2,792.1 3677.6,803.1 3675.1,817 3684.6,832.4 3685.9,834.6 3684.5,962 3687.1,986.9 3687.8,1000.6 
			3691.6,1010.6 3697.6,1024.2 3696.1,1027.2 		"/>
		<polygon class="st2" points="3670.4,1059.9 3743.5,1059.9 3731,1038.6 3730.1,1033 3732,1014.7 3731.8,1013.1 3726.5,996.8 
			3724,982.2 3725.1,976.5 3727.1,956.4 3732.9,839.5 3733,837.7 3746.1,816.7 3749.1,813.8 3746.1,796.2 3730.6,787.6 
			3709.7,787.8 3693.1,795.6 3692.8,795.8 3677.2,804.9 3676.1,818 3684.8,832.7 3685.9,834.9 3685.5,960.5 3689.1,985.8 
			3689.8,999.8 3692.9,1010.1 3698.6,1024.2 3697.6,1027.3 		"/>
		<polygon class="st3" points="3670.5,1059.9 3743.3,1059.9 3730,1039.3 3728.4,1033.9 3730.4,1015.7 3730.3,1014.1 3724.6,998 
			3722.9,983.4 3723.7,977.7 3724,957.7 3731.9,841.7 3731.9,839.9 3741.7,817.6 3744.7,814.7 3746.1,797.5 3729.9,790.1 
			3708.9,789 3693.7,799.3 3693.4,799.6 3676.8,806.7 3677.1,819 3685.1,833.1 3685.9,835.3 3686.6,959 3691.2,984.7 3691.7,998.9 
			3694.1,1009.7 3699.6,1024.1 3699.2,1027.4 		"/>
		<polygon class="st4" points="3670.6,1059.9 3743.1,1059.9 3729.1,1039.9 3726.7,1034.7 3728.8,1016.7 3728.7,1015 3722.6,999.3 
			3721.7,984.6 3722.3,978.9 3720.9,959.1 3730.8,843.8 3730.8,842 3737.4,818.4 3740.3,815.5 3746.1,798.9 3729.2,792.5 
			3708,790.2 3694.3,803 3694,803.4 3676.4,808.5 3678.1,820 3685.3,833.5 3686,835.6 3687.6,957.5 3693.3,983.5 3693.7,998 
			3695.3,1009.2 3700.6,1024.1 3700.7,1027.6 		"/>
		<polygon class="st5" points="3670.7,1059.9 3742.8,1059.9 3728.1,1040.5 3725,1035.6 3727.1,1017.7 3727.2,1016 3720.7,1000.5 
			3720.5,985.8 3721,980.1 3717.9,960.4 3729.7,845.9 3729.8,844.2 3733,819.3 3735.9,816.4 3746.1,800.2 3728.5,795 3707.1,791.4 
			3694.9,806.8 3694.6,807.1 3676,810.3 3679.1,821 3685.6,833.9 3686,835.9 3688.7,956.1 3695.4,982.4 3695.7,997.2 3696.6,1008.7 
			3701.6,1024 3702.3,1027.7 		"/>
		<polygon class="st6" points="3742.6,1059.9 3723.3,1036.5 3725.7,1017 3718.8,1001.7 3719.6,981.3 3714.8,961.8 3728.7,848.1 
			3728.7,820.2 3746.1,801.6 3706.3,792.6 3695.3,810.9 3675.6,812.1 3685.8,834.3 3689.7,954.6 3697.4,981.3 3697.8,1008.3 
			3703.8,1027.8 3670.8,1059.9 		"/>
		<polygon class="st7" points="3738.5,1059.9 3721.6,1037.1 3723.6,1018.1 3717.6,1003.2 3718.3,983.4 3714,964.4 3726.3,943.1 
			3726.3,824.2 3741.7,806.1 3706.6,797.3 3696.8,815.1 3679.4,816.3 3688.5,837.9 3691.9,957.4 3698.7,983.4 3699.1,1009.6 
			3704.4,1028.7 3675.3,1059.9 		"/>
		<polygon class="st8" points="3734.5,1059.9 3719.8,1037.7 3721.6,1019.3 3716.4,1004.8 3717,985.5 3713.3,967.1 3723.9,946.3 
			3723.9,828.1 3737.2,810.5 3706.8,802 3698.4,819.3 3683.3,820.5 3691.2,841.5 3694.2,960.2 3700,985.5 3700.3,1011 
			3704.9,1029.5 3679.7,1059.9 		"/>
		<polygon class="st9" points="3730.5,1059.9 3718.1,1038.4 3719.6,1020.4 3715.1,1006.3 3715.6,987.6 3712.5,969.7 3721.5,949.6 
			3721.5,832.1 3732.8,815 3707.1,806.7 3699.9,823.5 3687.2,824.7 3693.9,845.1 3696.4,963.1 3701.3,987.6 3701.6,1012.4 
			3705.5,1030.4 3684.2,1059.9 		"/>
		<polygon class="st10" points="3726.4,1059.9 3716.3,1039 3717.5,1021.6 3713.9,1007.9 3714.3,989.7 3711.8,972.3 3719.1,952.8 
			3719.1,836.1 3728.3,819.5 3707.3,811.5 3701.5,827.8 3691.1,828.9 3696.5,848.7 3698.6,965.9 3702.6,989.7 3702.9,1013.8 
			3706,1031.2 3688.6,1059.9 		"/>
		<polygon class="st11" points="3722.4,1059.9 3714.5,1039.6 3715.5,1022.8 3712.7,1009.5 3713,991.8 3711,975 3716.7,956 
			3716.7,840.1 3723.9,824 3707.6,816.2 3703.1,832 3695,833.1 3699.2,944.1 3700.8,968.7 3703.9,991.8 3704.1,1015.2 
			3706.6,1032.1 3693.1,1059.9 		"/>
		<polygon class="st12" points="3718.4,1059.9 3712.8,1040.3 3713.5,1023.9 3711.5,1011 3711.7,993.9 3710.3,977.6 3714.3,959.2 
			3714.3,844 3719.4,828.4 3707.8,820.9 3704.6,836.2 3698.9,837.2 3701.9,947.7 3703,971.6 3705.3,993.9 3705.4,1016.6 
			3707.1,1033 3697.5,1059.9 		"/>
		<polygon class="st0" points="3250.2,1839.9 3239.1,1817.4 3241.5,1792.8 3232.5,1759.8 3239.4,1733.7 3241.4,1607.4 
			3254.7,1582.2 3272.7,1571.1 3258.6,1560.3 3214.8,1549.2 3166.2,1578.9 3180.3,1590 3192,1608.3 3189.6,1743.4 3192,1781.5 
			3202.8,1804.3 3176.4,1839.9 		"/>
		<polygon class="st1" points="3176.5,1839.9 3250,1839.9 3238.3,1818.2 3238.2,1810.2 3239.8,1794.3 3238.7,1789 3233.5,1771.5 
			3231.3,1761.9 3234.1,1749.8 3236.6,1736.2 3236.8,1728.5 3239.6,1610.9 3243.4,1603.9 3251.4,1585.8 3258.9,1579.6 
			3267.5,1573.8 3257.6,1562.8 3214.4,1552.1 3191.5,1568 3168.8,1580.1 3181.4,1591.2 3190.1,1605.3 3192.1,1608.8 3190.7,1742 
			3193.2,1765.9 3194,1781 3196.9,1788.6 3204,1804.8 		"/>
		<polygon class="st2" points="3176.6,1839.9 3249.7,1839.9 3237.5,1819.1 3236.5,1811.5 3238.1,1795.8 3237.3,1790.6 
			3231.8,1773.5 3230.1,1764.1 3232.4,1752.1 3233.8,1738.7 3233.6,1731.1 3237.9,1614.4 3241.7,1607.5 3248.1,1589.4 
			3254.1,1582.5 3262.3,1576.5 3256.5,1565.4 3214,1555 3193.5,1571.4 3171.4,1581.3 3182.5,1592.4 3190.5,1605.9 3192.1,1609.3 
			3191.7,1740.5 3195.3,1764.9 3196,1780.6 3198.3,1788.6 3205.2,1805.4 		"/>
		<polygon class="st3" points="3176.7,1839.9 3249.5,1839.9 3236.8,1819.9 3234.7,1812.7 3236.4,1797.4 3236,1792.2 3230.1,1775.5 
			3228.9,1766.2 3230.8,1754.4 3231.1,1741.2 3230.5,1733.8 3236.2,1617.8 3240,1611.2 3244.8,1593 3249.3,1585.4 3257.1,1579.2 
			3255.5,1567.9 3213.7,1557.9 3195.5,1574.8 3174,1582.5 3183.6,1593.7 3190.9,1606.5 3192.2,1609.7 3192.8,1739 3197.4,1764 
			3197.9,1780.1 3199.7,1788.5 3206.4,1806 		"/>
		<polygon class="st4" points="3176.8,1839.9 3249.3,1839.9 3236,1820.7 3233,1814 3234.7,1798.9 3234.6,1793.8 3228.4,1777.6 
			3227.8,1768.3 3229.1,1756.7 3228.3,1743.7 3227.3,1736.5 3234.4,1621.3 3238.3,1614.8 3241.5,1596.5 3244.5,1588.4 
			3251.8,1581.9 3254.4,1570.5 3213.3,1560.8 3197.5,1578.1 3176.6,1583.7 3184.7,1594.9 3191.3,1607.1 3192.3,1610.2 
			3193.8,1737.5 3199.4,1763.1 3199.9,1779.6 3201.2,1788.4 3207.6,1806.6 		"/>
		<polygon class="st5" points="3176.9,1839.9 3249,1839.9 3235.2,1821.6 3231.3,1815.2 3233,1800.4 3233.2,1795.4 3226.7,1779.6 
			3226.6,1770.5 3227.4,1759 3225.5,1746.2 3224.1,1739.1 3232.7,1624.8 3236.6,1618.5 3238.2,1600.1 3239.7,1591.3 3246.6,1584.6 
			3253.4,1573 3212.9,1563.7 3199.5,1581.5 3179.2,1584.9 3185.8,1596.1 3191.6,1607.7 3192.3,1610.7 3194.9,1736.1 3201.5,1762.2 
			3201.9,1779.2 3202.6,1788.3 3208.8,1807.2 		"/>
		<polygon class="st6" points="3248.8,1839.9 3229.5,1816.5 3231.9,1797 3225,1781.7 3225.8,1761.3 3221,1741.8 3234.9,1622.1 
			3234.9,1594.2 3252.3,1575.6 3212.5,1566.6 3201.5,1584.9 3181.8,1586.1 3192,1608.3 3195.9,1734.6 3203.6,1761.3 3204,1788.3 
			3210,1807.8 3177,1839.9 		"/>
		<polygon class="st7" points="3244.7,1839.9 3227.8,1817.1 3229.9,1798.1 3223.8,1783.2 3224.5,1763.4 3220.2,1744.4 
			3232.5,1625.3 3232.5,1598.2 3247.9,1580.1 3212.8,1571.3 3203,1589.1 3185.6,1590.3 3194.7,1611.9 3198.1,1737.4 3204.9,1763.4 
			3205.3,1789.6 3210.6,1808.7 3181.5,1839.9 		"/>
		<polygon class="st8" points="3240.7,1839.9 3226,1817.7 3227.8,1799.3 3222.6,1784.8 3223.2,1765.5 3219.5,1747.1 3230.1,1726.3 
			3230.1,1602.1 3243.4,1584.5 3213,1576 3204.6,1593.3 3189.5,1594.5 3197.4,1615.5 3200.4,1740.2 3206.2,1765.5 3206.5,1791 
			3211.1,1809.5 3185.9,1839.9 		"/>
		<polygon class="st9" points="3236.7,1839.9 3224.3,1818.4 3225.8,1800.4 3221.3,1786.4 3221.9,1767.6 3218.7,1749.7 
			3227.7,1729.6 3227.7,1606.1 3239,1589 3213.3,1580.7 3206.1,1597.5 3193.4,1598.7 3200.1,1619.1 3202.6,1743.1 3207.5,1767.6 
			3207.8,1792.4 3211.7,1810.4 3190.4,1839.9 		"/>
		<polygon class="st10" points="3232.6,1839.9 3222.5,1819 3223.7,1801.6 3220.1,1787.9 3220.5,1769.7 3218,1752.3 3225.3,1732.8 
			3225.3,1610.1 3234.5,1593.5 3213.5,1585.5 3207.7,1601.8 3197.3,1602.9 3202.7,1622.7 3204.8,1745.9 3208.9,1769.7 
			3209.1,1793.8 3212.2,1811.2 3194.8,1839.9 		"/>
		<polygon class="st11" points="3228.6,1839.9 3220.7,1819.6 3221.7,1802.8 3218.9,1789.5 3219.2,1771.8 3217.2,1755 3222.9,1736 
			3222.9,1614.1 3230.1,1598 3213.8,1590.2 3209.3,1606 3201.2,1607.1 3205.4,1626.3 3207,1748.7 3210.1,1771.8 3210.3,1795.2 
			3212.8,1812.1 3199.3,1839.9 		"/>
		<polygon class="st12" points="3224.6,1839.9 3219,1820.3 3219.7,1803.9 3217.7,1791 3217.9,1773.9 3216.5,1757.6 3220.5,1739.2 
			3220.5,1618 3225.6,1602.4 3214,1594.9 3210.8,1610.2 3205.1,1611.3 3208.1,1727.7 3209.2,1751.6 3211.5,1773.9 3211.6,1796.6 
			3213.3,1813 3203.7,1839.9 		"/>
		<polygon class="st0" points="2770.2,1809.9 2759.1,1787.4 2761.5,1762.8 2752.5,1729.8 2759.4,1703.7 2761.4,1585.6 
			2774.7,1560.4 2796.6,1544.4 2778.6,1538.5 2734.8,1527.4 2715,1557.1 2700.3,1568.2 2712,1586.5 2709.6,1713.4 2712,1751.5 
			2722.8,1774.3 2696.4,1809.9 		"/>
		<polygon class="st1" points="2696.5,1809.9 2770,1809.9 2758,1787.8 2757.9,1783.6 2759.9,1763.5 2755.2,1747.8 2751.4,1730.3 
			2751.8,1728.6 2755.1,1709.7 2756.9,1704.2 2759.8,1595.7 2760.3,1586.5 2767.2,1570.3 2771.6,1560.6 2790.3,1542.6 2774,1538.2 
			2734.4,1530.3 2723.1,1547.5 2713.6,1558.9 2701.9,1570 2708,1580.2 2712.1,1587.4 2710.7,1712 2713.3,1736.9 2714,1750.6 
			2717.8,1760.6 2723.8,1774.2 2722.3,1777.2 		"/>
		<polygon class="st2" points="2696.6,1809.9 2769.7,1809.9 2756.9,1788.3 2756.2,1784.1 2758.3,1764.2 2753.2,1748.6 
			2750.3,1730.9 2750.6,1729.1 2752.3,1710.1 2754.3,1704.7 2758.8,1596.6 2759.2,1587.3 2764.8,1570.7 2768.5,1560.7 2784,1540.8 
			2769.4,1537.9 2734,1533.2 2722.8,1550.7 2712.1,1560.7 2703.4,1571.8 2708.8,1581.5 2712.3,1588.3 2711.7,1710.5 2715.3,1735.8 
			2716,1749.8 2719.1,1760.1 2724.8,1774.2 2723.8,1777.3 		"/>
		<polygon class="st3" points="2696.7,1809.9 2769.5,1809.9 2755.8,1788.7 2754.5,1784.7 2756.7,1764.9 2751.1,1749.4 
			2749.1,1731.5 2749.4,1729.7 2749.5,1710.5 2751.8,1705.2 2757.8,1597.5 2758.1,1588.2 2762.3,1571.1 2765.3,1560.9 
			2777.7,1538.9 2764.8,1537.7 2733.7,1536.1 2722.5,1553.8 2710.7,1562.6 2705,1573.6 2709.6,1582.7 2712.4,1589.3 2712.8,1709 
			2717.4,1734.7 2717.9,1748.9 2720.3,1759.7 2725.8,1774.1 2725.4,1777.4 		"/>
		<polygon class="st4" points="2696.8,1809.9 2769.3,1809.9 2754.6,1789.1 2752.9,1785.3 2755.1,1765.6 2749.1,1750.1 2748,1732 
			2748.2,1730.2 2746.6,1710.9 2749.2,1705.7 2756.8,1598.5 2757,1589.1 2759.8,1571.6 2762.2,1561.1 2771.4,1537.1 2760.2,1537.4 
			2733.3,1539 2722.1,1556.9 2709.2,1564.4 2706.6,1575.4 2710.4,1584 2712.5,1590.2 2713.8,1707.5 2719.5,1733.5 2719.9,1748 
			2721.5,1759.2 2726.8,1774.1 2726.9,1777.6 		"/>
		<polygon class="st5" points="2696.9,1809.9 2769,1809.9 2753.5,1789.6 2751.2,1785.9 2753.5,1766.3 2747.1,1750.9 2746.9,1732.6 
			2747,1730.7 2743.8,1711.4 2746.7,1706.3 2755.9,1599.4 2755.9,1590 2757.3,1572 2759.1,1561.3 2765,1535.3 2755.6,1537.1 
			2732.9,1541.9 2721.8,1560 2707.8,1566.2 2708.1,1577.1 2711.2,1585.3 2712.6,1591.1 2714.9,1706.1 2721.6,1732.4 2721.9,1747.2 
			2722.8,1758.7 2727.8,1774 2728.5,1777.7 		"/>
		<polygon class="st6" points="2768.8,1809.9 2749.5,1786.5 2751.9,1767 2745,1751.7 2745.8,1731.3 2741,1711.8 2754.9,1600.3 
			2754.9,1572.4 2758.7,1533.5 2732.5,1544.8 2721.5,1563.1 2706.4,1568 2712,1586.5 2715.9,1704.6 2723.6,1731.3 2724,1758.3 
			2730,1777.8 2697,1809.9 		"/>
		<polygon class="st7" points="2764.7,1809.9 2747.8,1787.1 2749.9,1768.1 2743.8,1753.2 2744.5,1733.4 2740.2,1714.4 
			2752.5,1693.1 2752.5,1576.4 2756.5,1541.3 2732.8,1549.5 2723,1567.3 2709.5,1571.6 2714.7,1590.1 2718.1,1707.4 2724.9,1733.4 
			2725.3,1759.6 2730.6,1778.7 2701.5,1809.9 		"/>
		<polygon class="st8" points="2760.7,1809.9 2746,1787.7 2747.8,1769.3 2742.6,1754.8 2743.2,1735.5 2739.5,1717.1 2750.1,1696.3 
			2750.1,1580.4 2754.3,1549.2 2733,1554.2 2724.6,1571.5 2712.6,1575.2 2717.4,1593.7 2720.4,1710.2 2726.2,1735.5 2726.5,1761 
			2731.1,1779.5 2705.9,1809.9 		"/>
		<polygon class="st9" points="2756.7,1809.9 2744.3,1788.4 2745.8,1770.4 2741.3,1756.4 2741.9,1737.6 2738.7,1719.7 
			2747.7,1699.6 2747.7,1584.3 2752.2,1557.1 2733.3,1559 2726.1,1575.8 2715.7,1578.7 2720.1,1597.3 2722.6,1713.1 2727.5,1737.6 
			2727.8,1762.4 2731.7,1780.4 2710.4,1809.9 		"/>
		<polygon class="st10" points="2752.6,1809.9 2742.5,1789 2743.7,1771.6 2740.1,1757.9 2740.5,1739.7 2738,1722.3 2745.3,1702.8 
			2745.3,1588.3 2750,1564.9 2733.5,1563.7 2727.7,1580 2718.9,1582.3 2722.7,1690.5 2724.8,1715.9 2728.9,1739.7 2729.1,1763.8 
			2732.2,1781.2 2714.8,1809.9 		"/>
		<polygon class="st11" points="2748.6,1809.9 2740.7,1789.6 2741.7,1772.8 2738.9,1759.5 2739.2,1741.8 2737.2,1725 2742.9,1706 
			2742.9,1592.3 2747.8,1572.8 2733.8,1568.4 2729.3,1584.2 2722,1585.9 2725.4,1694.1 2727,1718.7 2730.1,1741.8 2730.3,1765.2 
			2732.8,1782.1 2719.3,1809.9 		"/>
		<polygon class="st12" points="2744.6,1809.9 2739,1790.3 2739.7,1773.9 2737.7,1761 2737.9,1743.9 2736.5,1727.6 2740.5,1709.2 
			2740.5,1596.3 2745.6,1580.7 2734,1573.1 2730.8,1588.4 2725.1,1589.5 2728.1,1697.7 2729.2,1721.6 2731.5,1743.9 2731.6,1766.6 
			2733.3,1783 2723.7,1809.9 		"/>
		<polygon class="st0" points="1644,819.9 1632.9,797.4 1635.3,772.8 1626.3,666 1633.2,639.9 1635.2,611.4 1648.5,586.2 
			1653.5,574.5 1652.4,564.3 1608.6,553.2 1580.8,580.3 1574.1,594 1585.8,612.3 1583.4,649.7 1585.8,761.5 1596.6,784.3 
			1570.2,819.9 		"/>
		<polygon class="st1" points="1570.3,819.9 1643.8,819.9 1631.9,798 1631.8,792.3 1633.7,773.5 1628.8,756.9 1625.2,666.9 
			1626.1,662.8 1629.7,642.8 1630.3,641 1633.9,616.9 1634.1,613.3 1643.9,590.7 1645.6,587.8 1651.1,576.6 1651.4,566.9 
			1608.2,556.1 1594.4,570.9 1580,581.9 1575.1,595 1584.6,610.4 1585.9,612.6 1584.5,648.2 1587.1,673.1 1587.8,760.6 
			1591.6,770.6 1597.6,784.2 1596.1,787.2 		"/>
		<polygon class="st2" points="1570.4,819.9 1643.5,819.9 1630.9,798.6 1630.1,793.2 1632.1,774.2 1626.8,757.9 1624,667.9 
			1624.8,663.7 1626.7,643.9 1627.4,642.1 1632.8,618.8 1633,615.1 1640.8,592.2 1642.6,589.4 1648.8,578.6 1650.3,569.4 
			1607.8,559 1594.6,574.5 1579.1,583.6 1576.1,596 1584.8,610.7 1585.9,613 1585.5,646.7 1589.1,672 1589.8,759.8 1592.8,770.1 
			1598.6,784.2 1597.6,787.3 		"/>
		<polygon class="st3" points="1570.5,819.9 1643.3,819.9 1630,799.2 1628.4,794 1630.5,774.9 1624.8,758.8 1622.9,668.8 
			1623.5,664.7 1623.8,644.9 1624.5,643.2 1631.8,620.6 1631.9,617 1637.8,593.7 1639.7,591 1646.4,580.7 1649.3,572 1607.5,561.9 
			1594.7,578.1 1578.2,585.2 1577.1,597 1585.1,611.1 1585.9,613.3 1586.6,645.2 1591.2,670.9 1591.7,758.9 1594.1,769.7 
			1599.6,784.1 1599.2,787.4 		"/>
		<polygon class="st4" points="1570.6,819.9 1643.1,819.9 1629,799.8 1626.7,794.8 1628.9,775.6 1622.8,759.8 1621.7,669.7 
			1622.2,665.6 1620.8,645.9 1621.6,644.3 1630.8,622.4 1630.8,618.8 1634.8,595.2 1636.8,592.6 1644,582.8 1648.2,574.5 
			1607.1,564.8 1594.9,581.7 1577.3,586.8 1578.1,598 1585.3,611.5 1586,613.6 1587.6,643.8 1593.3,669.7 1593.7,758 1595.3,769.2 
			1600.6,784.1 1600.7,787.5 		"/>
		<polygon class="st5" points="1570.7,819.9 1642.8,819.9 1628,800.4 1625,795.6 1627.3,776.3 1620.8,760.7 1620.6,670.7 
			1620.9,666.5 1617.8,647 1618.7,645.3 1629.7,624.3 1629.8,620.7 1631.7,596.7 1633.8,594.2 1641.7,584.8 1647.2,577.1 
			1606.7,567.7 1595.1,585.3 1576.4,588.5 1579.1,599 1585.6,611.9 1586,613.9 1588.7,642.3 1595.3,668.6 1595.7,757.2 
			1596.6,768.7 1601.6,784 1602.3,787.7 		"/>
		<polygon class="st6" points="1642.6,819.9 1623.3,796.5 1625.7,777 1618.8,761.7 1619.6,667.5 1614.8,648 1628.7,626.1 
			1628.7,598.2 1646.1,579.6 1606.3,570.6 1595.3,588.9 1575.6,590.1 1585.8,612.3 1589.7,640.8 1597.4,667.5 1597.8,768.3 
			1603.8,787.8 1570.8,819.9 		"/>
		<polygon class="st7" points="1638.5,819.9 1621.6,797.1 1623.7,778.1 1617.6,763.2 1618.3,669.6 1614,650.6 1626.3,629.3 
			1626.3,602.2 1641.7,584.1 1606.6,575.3 1596.8,593.1 1579.4,594.3 1588.5,615.9 1591.9,643.6 1598.7,669.6 1599.1,769.6 
			1604.4,788.6 1575.3,819.9 		"/>
		<polygon class="st8" points="1634.5,819.9 1619.8,797.7 1621.6,779.3 1616.4,764.8 1617,671.7 1613.3,653.3 1623.9,632.6 
			1623.9,606.2 1637.2,588.6 1606.8,580 1598.4,597.3 1583.3,598.5 1591.2,619.5 1594.2,646.5 1600,671.7 1600.3,771 1604.9,789.5 
			1579.7,819.9 		"/>
		<polygon class="st9" points="1630.5,819.9 1618.1,798.4 1619.6,780.4 1615.1,766.3 1615.7,673.8 1612.5,655.9 1621.5,635.8 
			1621.5,610.1 1632.8,593 1607.1,584.8 1599.9,601.6 1587.2,602.7 1593.8,623.1 1596.4,649.3 1601.3,673.8 1601.6,772.4 
			1605.5,790.4 1584.2,819.9 		"/>
		<polygon class="st10" points="1626.4,819.9 1616.3,799 1617.5,781.6 1613.9,767.9 1614.3,675.9 1611.8,658.6 1619.1,639 
			1619.1,614.1 1628.3,597.5 1607.3,589.5 1601.5,605.8 1591.1,606.9 1596.5,626.7 1598.6,652.1 1602.7,675.9 1602.8,773.8 
			1606,791.2 1588.6,819.9 		"/>
		<polygon class="st11" points="1622.4,819.9 1614.5,799.6 1615.5,782.8 1612.7,769.5 1613,678 1611,661.2 1616.7,642.2 
			1616.7,618.1 1623.9,602 1607.6,594.2 1603.1,610 1595,611.1 1599.2,630.3 1600.8,655 1603.9,678 1604.1,775.2 1606.6,792.1 
			1593.1,819.9 		"/>
		<polygon class="st12" points="1618.4,819.9 1612.8,800.3 1613.5,783.9 1611.5,771 1611.7,680.2 1610.3,663.8 1614.3,645.5 
			1614.3,622.1 1619.4,606.5 1607.8,598.9 1604.6,614.2 1598.9,615.3 1601.9,633.9 1603,657.8 1605.3,680.2 1605.4,776.6 
			1607.1,793 1597.5,819.9 		"/>
		<polygon class="st0" points="84,999.9 72.9,977.4 75.3,952.8 66.3,919.8 73.2,893.7 75.2,763.8 88.5,738.6 106.5,727.5 
			92.4,716.7 48.6,705.6 0,735.3 14.1,746.4 25.8,764.7 23.4,903.4 25.8,941.5 36.6,964.3 10.2,999.9 		"/>
		<polygon class="st1" points="10.3,999.9 83.8,999.9 72.1,978.2 72,970.2 73.6,954.3 72.5,949 67.2,931.5 65.1,921.9 67.9,909.8 
			70.4,896.2 70.6,888.5 73.4,868.7 77.2,760.3 85.2,742.2 92.7,736 101.3,730.2 91.3,719.3 48.2,708.5 25.3,724.4 2.6,736.5 
			15.2,747.6 23.9,761.8 25.9,765.2 24.5,902 27,925.9 27.8,941 30.7,948.6 37.8,964.8 		"/>
		<polygon class="st2" points="10.4,999.9 83.5,999.9 71.3,979.1 70.3,971.5 71.9,955.8 71.1,950.6 65.6,933.5 63.9,924.1 
			66.2,912.1 67.6,898.7 67.4,891.1 71.7,872.1 75.5,763.9 81.9,745.8 87.9,738.9 96.1,732.9 90.3,721.8 47.8,711.4 27.3,727.8 
			5.2,737.7 16.3,748.8 24.3,762.3 25.9,765.7 25.5,900.5 29,924.9 29.8,940.6 32.1,948.5 39,965.4 		"/>
		<polygon class="st3" points="10.5,999.9 83.3,999.9 70.5,979.9 68.5,972.7 70.2,957.4 69.8,952.2 63.9,935.5 62.7,926.2 
			64.6,914.4 64.8,901.2 64.3,893.8 69.9,875.6 73.8,869 78.6,749.4 83.1,741.8 90.8,735.6 89.3,724.4 47.4,714.3 29.3,731.2 
			7.8,738.9 17.4,750.1 24.7,762.9 26,867.5 26.6,899 31.1,924 31.7,940.1 33.5,948.5 40.2,966 		"/>
		<polygon class="st4" points="10.6,999.9 83,999.9 69.7,980.7 66.8,974 68.5,958.9 68.4,953.8 62.2,937.6 61.5,928.3 62.9,916.7 
			62,903.7 61.1,896.5 68.2,879.1 72.1,872.6 75.3,752.9 78.3,744.8 85.6,738.3 88.2,726.9 47,717.2 31.3,734.5 10.4,740.1 
			18.5,751.3 25,763.5 26.1,868 27.6,897.5 33.2,923.1 33.7,939.6 34.9,948.4 41.4,966.6 		"/>
		<polygon class="st5" points="10.7,999.9 82.8,999.9 68.9,981.6 65,975.2 66.8,960.4 67,955.4 60.5,939.6 60.3,930.5 61.2,919 
			59.3,906.2 57.9,899.1 66.5,882.6 70.4,876.3 72,756.5 73.5,747.7 80.4,741 87.2,729.5 46.7,720.1 33.3,737.9 12.9,741.3 
			19.6,752.5 25.4,764.1 26.1,868.5 28.7,896.1 35.3,922.2 35.7,939.2 36.4,948.3 42.6,967.2 		"/>
		<polygon class="st6" points="82.6,999.9 63.3,976.5 65.7,957 58.8,941.7 59.6,921.3 54.8,901.8 68.7,879.9 68.7,750.6 86.1,732 
			46.3,723 35.2,741.3 15.5,742.5 25.8,764.7 29.7,894.6 37.4,921.3 37.8,948.3 43.8,967.8 10.8,999.9 		"/>
		<polygon class="st7" points="78.5,999.9 61.5,977.1 63.6,958.1 57.6,943.2 58.3,923.4 54,904.4 66.3,883.1 66.3,754.6 81.7,736.5 
			46.5,727.7 36.8,745.5 19.4,746.7 28.5,869.7 31.9,897.4 38.7,923.4 39.1,949.6 44.3,968.6 15.3,999.9 		"/>
		<polygon class="st8" points="74.5,999.9 59.8,977.8 61.6,959.3 56.3,944.8 57,925.5 53.3,907.1 63.9,886.3 63.9,758.6 77.2,741 
			46.8,732.4 38.4,749.7 23.3,750.9 31.2,873.3 34.2,900.3 40,925.5 40.3,951 44.9,969.5 19.7,999.9 		"/>
		<polygon class="st9" points="70.4,999.9 58,978.4 59.6,960.5 55.1,946.4 55.6,927.6 52.5,909.7 61.5,889.6 61.5,762.5 72.7,745.4 
			47,737.2 39.9,754 27.2,755.1 33.8,876.9 36.4,903.1 41.3,927.6 41.6,952.4 45.5,970.4 24.2,999.9 		"/>
		<polygon class="st10" points="66.4,999.9 56.3,979 57.5,961.6 53.9,947.9 54.3,929.7 51.8,912.3 59.1,892.8 59.1,867.9 
			68.3,749.9 47.3,741.9 41.5,758.2 31.1,759.3 36.5,880.5 38.6,905.9 42.6,929.7 42.8,953.8 46,971.2 28.6,999.9 		"/>
		<polygon class="st11" points="62.4,999.9 54.5,979.6 55.5,962.8 52.7,949.5 53,931.8 51,915 56.7,896 56.7,871.9 63.8,754.4 
			47.6,746.6 43,762.4 35,763.5 39.2,884.1 40.8,908.7 43.9,931.8 44.1,955.2 46.5,972.1 33.1,999.9 		"/>
		<polygon class="st12" points="58.4,999.9 52.8,980.3 53.5,963.9 51.5,951 51.7,933.9 50.3,917.6 54.3,899.2 54.3,875.8 
			59.4,758.9 47.8,751.3 44.6,868 38.9,869 41.9,887.7 43,911.6 45.2,933.9 45.4,956.6 47.1,973 37.5,999.9 		"/>
		<polygon class="st0" points="4929.4,309.8 4918.3,287.3 4920.7,262.7 4911.7,112.8 4918.6,86.7 4920.6,58.2 4933.9,33 
			4951.9,21.9 4937.8,11.1 4894,0 4845.4,29.7 4859.5,40.8 4871.2,59.1 4868.8,96.4 4871.2,251.4 4882,274.2 4855.6,309.8 		"/>
		<polygon class="st1" points="4855.7,309.8 4929.2,309.8 4917.5,288.1 4917.4,280.1 4919,264.3 4917.9,259 4912.6,241.4 
			4910.5,114.9 4913.3,102.8 4915.8,89.2 4916,81.5 4918.8,61.7 4922.6,54.7 4930.6,36.6 4938.1,30.4 4946.7,24.6 4936.8,13.6 
			4893.6,2.9 4870.7,18.8 4848,30.9 4860.6,42 4869.3,56.2 4871.3,59.6 4869.9,95 4872.4,118.9 4873.2,250.9 4876.1,258.6 
			4883.2,274.8 		"/>
		<polygon class="st2" points="4855.8,309.8 4928.9,309.8 4916.7,289 4915.7,281.4 4917.3,265.8 4916.5,260.6 4911,243.4 
			4909.3,117.1 4911.6,105.1 4913,91.7 4912.8,84.1 4917.1,65.2 4920.9,58.3 4927.3,40.2 4933.3,33.3 4941.5,27.3 4935.7,16.2 
			4893.2,5.8 4872.7,22.2 4850.6,32.1 4861.7,43.2 4869.7,56.7 4871.3,60 4870.9,93.5 4874.5,117.9 4875.2,250.5 4877.5,258.5 
			4884.4,275.4 		"/>
		<polygon class="st3" points="4855.9,309.8 4928.7,309.8 4916,289.8 4913.9,282.6 4915.6,267.3 4915.2,262.1 4909.3,245.5 
			4908.1,119.2 4910,107.4 4910.3,94.2 4909.7,86.8 4915.4,68.6 4919.2,62 4924,43.8 4928.5,36.2 4936.3,30 4934.7,18.8 4892.9,8.7 
			4874.7,25.6 4853.2,33.3 4862.8,44.5 4870.1,57.3 4871.4,60.5 4872,92 4876.5,117 4877.1,250 4878.9,258.4 4885.6,276 		"/>
		<polygon class="st4" points="4856,309.8 4928.5,309.8 4915.2,290.7 4912.2,283.9 4913.9,268.8 4913.8,263.7 4907.6,247.5 
			4906.9,121.4 4908.3,109.7 4907.5,96.7 4906.5,89.5 4913.6,72.1 4917.5,65.6 4920.7,47.3 4923.7,39.2 4931,32.7 4933.6,21.3 
			4892.5,11.6 4876.7,28.9 4855.8,34.5 4863.9,45.7 4870.5,57.9 4871.5,61 4873,90.6 4878.6,116.1 4879.1,249.6 4880.4,258.3 
			4886.8,276.5 		"/>
		<polygon class="st5" points="4856.1,309.8 4928.2,309.8 4914.4,291.5 4910.5,285.2 4912.2,270.4 4912.4,265.3 4905.9,249.6 
			4905.8,240.4 4906.6,112 4904.7,99.2 4903.3,92.1 4911.9,75.6 4915.8,69.3 4917.4,50.9 4918.9,42.1 4925.8,35.4 4932.6,23.9 
			4892.1,14.5 4878.7,32.3 4858.4,35.7 4865,46.9 4870.8,58.5 4871.5,61.5 4874.1,89.1 4880.7,115.2 4881.1,249.1 4881.8,258.3 
			4888,277.1 		"/>
		<polygon class="st6" points="4928,309.8 4908.7,286.4 4911.1,266.9 4904.2,251.6 4905,114.3 4900.2,94.8 4914.1,72.9 4914.1,45 
			4931.5,26.4 4891.7,17.4 4880.7,35.7 4860.9,36.9 4871.2,59.1 4875.1,87.6 4882.8,114.3 4883.2,258.2 4889.2,277.7 4856.2,309.8 
					"/>
		<polygon class="st7" points="4923.9,309.8 4907,287.1 4909,268.1 4903,253.2 4903.7,116.4 4899.4,97.4 4911.7,76.1 4911.7,49 
			4927.1,30.9 4892,22.1 4882.2,39.9 4864.8,41.1 4873.9,62.7 4877.4,90.4 4884.1,116.4 4884.5,259.6 4889.8,278.6 4860.7,309.8 		
			"/>
		<polygon class="st8" points="4919.9,309.8 4905.2,287.7 4907,269.2 4901.8,254.7 4902.4,118.5 4898.7,100.1 4909.3,79.3 
			4909.3,53 4922.6,35.3 4892.2,26.8 4883.8,44.1 4868.7,45.3 4876.6,66.3 4879.6,93.3 4885.4,118.5 4885.7,261 4890.3,279.4 
			4865.1,309.8 		"/>
		<polygon class="st9" points="4915.9,309.8 4903.4,288.3 4905,270.4 4900.5,256.3 4901,120.6 4897.9,102.7 4906.9,82.6 
			4906.9,56.9 4918.2,39.8 4892.5,31.5 4885.3,48.3 4872.6,49.5 4879.3,69.9 4881.8,96.1 4886.7,120.6 4887,262.4 4890.9,280.3 
			4869.6,309.8 		"/>
		<polygon class="st10" points="4911.8,309.8 4901.7,288.9 4902.9,271.5 4899.3,257.9 4899.7,122.7 4897.2,105.3 4904.5,85.8 
			4904.5,60.9 4913.7,44.3 4892.7,36.3 4886.9,52.6 4876.5,53.7 4881.9,73.5 4884,98.9 4888,122.7 4888.3,263.7 4891.4,281.2 
			4874,309.8 		"/>
		<polygon class="st11" points="4907.8,309.8 4899.9,289.6 4900.9,272.7 4898.1,259.4 4898.4,241.8 4896.4,108 4902.1,89 
			4902.1,64.9 4909.3,48.8 4893,41 4888.5,56.8 4880.4,57.9 4884.6,77.1 4886.2,101.8 4889.4,241.8 4889.5,265.1 4892,282 
			4878.5,309.8 		"/>
		<polygon class="st12" points="4903.8,309.8 4898.2,290.2 4898.9,273.8 4896.9,261 4897.1,243.9 4895.7,110.6 4899.7,92.3 
			4899.7,68.8 4904.8,53.3 4893.2,45.7 4890,61 4884.3,62 4887.3,80.7 4888.4,104.6 4890.6,243.9 4890.8,266.5 4892.5,282.9 
			4882.9,309.8 		"/>
		<polygon class="st0" points="1329.9,579.9 1320.9,557.4 1322.8,532.8 1315.6,410.2 1321.2,384.1 1322.7,355.6 1333.5,330.4 
			1348.1,319.3 1336.7,308.5 1301.3,297.4 1262,327.1 1273.4,338.2 1282.8,356.5 1280.9,393.9 1282.8,521.5 1291.6,544.3 
			1270.2,579.9 		"/>
		<polygon class="st1" points="1270.3,579.9 1329.7,579.9 1320.2,558.1 1320.1,551.6 1321.5,534.1 1320.9,530.4 1316.7,513.1 
			1314.6,412.1 1316.5,401.7 1318.8,386.4 1318.9,380.5 1321.5,358.7 1323.4,354.5 1330.8,333.7 1336.3,328.3 1343.9,322 
			1335.8,311.1 1300.9,300.3 1281.1,317.3 1264.1,328.3 1274.2,339.4 1281.7,354.3 1282.9,356.9 1281.7,392.4 1283.8,505.5 
			1284.4,521.1 1286.7,528.4 1292.5,544.8 		"/>
		<polygon class="st2" points="1270.4,579.9 1329.5,579.9 1319.5,558.8 1318.7,552.5 1320.1,535.3 1319.7,531.7 1315.3,514.8 
			1313.7,503.5 1315.3,403.7 1316.5,388.6 1316.4,382.8 1320.3,361.8 1322.2,357.6 1328.2,336.9 1332.5,331.1 1339.7,324.6 
			1335,313.6 1300.6,303.2 1283,320.4 1266.2,329.5 1275.1,340.5 1281.9,354.7 1282.9,357.3 1282.6,390.9 1285.4,504.7 1286,520.7 
			1287.8,528.4 1293.5,545.4 		"/>
		<polygon class="st3" points="1270.5,579.9 1329.3,579.9 1318.7,559.5 1317.3,553.5 1318.8,536.6 1318.5,533 1313.8,516.5 
			1312.7,505.4 1314,405.7 1314.2,390.8 1313.9,385.2 1319.1,364.9 1321,360.8 1325.5,340.1 1328.8,333.9 1335.5,327.2 
			1334.1,316.2 1300.3,306.1 1284.8,323.6 1268.3,330.7 1275.9,341.6 1282.1,355.2 1282.9,357.6 1283.4,389.5 1287.1,503.8 
			1287.6,520.4 1289,528.4 1294.5,546 		"/>
		<polygon class="st4" points="1270.5,579.9 1329.1,579.9 1318,560.2 1315.9,554.5 1317.4,537.9 1317.4,534.3 1312.4,518.3 
			1311.8,507.2 1312.7,407.7 1311.9,393.1 1311.3,387.5 1317.9,368 1319.8,364 1322.8,343.4 1325,336.8 1331.4,329.9 1333.3,318.7 
			1300,309 1286.7,326.8 1270.3,331.9 1276.8,342.7 1282.4,355.6 1283,358 1284.3,388 1288.8,413.4 1289.2,520 1290.2,528.3 
			1295.4,546.6 		"/>
		<polygon class="st5" points="1270.6,579.9 1328.9,579.9 1317.3,560.9 1314.5,555.5 1316.1,539.2 1316.2,535.7 1310.9,520 
			1310.8,509.1 1311.4,409.7 1309.6,395.3 1308.8,389.9 1316.7,371 1318.7,367.2 1320.2,346.6 1321.2,339.6 1327.2,332.5 
			1332.4,321.3 1299.7,311.9 1288.6,329.9 1272.4,333.1 1277.6,343.8 1282.6,356.1 1283,358.3 1285.2,386.5 1290.5,412.6 
			1290.8,519.7 1291.4,528.3 1296.4,547.2 		"/>
		<polygon class="st6" points="1328.7,579.9 1313.1,556.5 1315.1,537 1309.5,521.7 1310.1,411.7 1306.2,392.2 1317.5,370.3 
			1317.5,342.4 1331.6,323.8 1299.4,314.8 1290.5,333.1 1274.5,334.3 1282.8,356.5 1286,385 1292.2,411.7 1292.5,528.3 
			1297.4,547.8 1270.7,579.9 		"/>
		<polygon class="st7" points="1325.4,579.9 1311.7,557.1 1313.4,538.1 1308.5,523.2 1309.1,413.8 1305.6,394.9 1315.5,373.6 
			1315.5,346.4 1328,328.3 1299.6,319.5 1291.7,337.3 1277.7,338.5 1285,360.1 1287.8,387.9 1293.3,413.8 1293.6,529.6 
			1297.8,548.7 1274.3,579.9 		"/>
		<polygon class="st8" points="1322.2,579.9 1310.3,557.7 1311.8,539.3 1307.5,524.8 1308,505.5 1305,397.5 1313.6,376.8 
			1313.6,350.4 1324.4,332.8 1299.8,324.3 1293,341.6 1280.8,342.7 1287.2,363.7 1289.6,390.7 1294.3,505.5 1294.6,531 
			1298.3,549.5 1277.9,579.9 		"/>
		<polygon class="st9" points="1318.9,579.9 1308.9,558.4 1310.1,540.4 1306.5,526.3 1306.9,507.6 1304.4,400.1 1311.7,380 
			1311.7,354.4 1320.8,337.3 1300,329 1294.3,345.8 1284,346.9 1289.3,367.3 1291.4,393.5 1295.4,507.6 1295.6,532.4 1298.7,550.4 
			1281.5,579.9 		"/>
		<polygon class="st10" points="1315.7,579.9 1307.5,559 1308.5,541.6 1305.6,527.9 1305.9,509.7 1303.8,402.8 1309.8,383.2 
			1309.8,358.3 1317.2,341.7 1300.2,333.7 1295.5,350 1287.1,351.1 1291.5,370.9 1293.2,396.4 1296.4,509.7 1296.6,533.8 
			1299.2,551.2 1285.1,579.9 		"/>
		<polygon class="st11" points="1312.4,579.9 1306.1,559.6 1306.8,542.8 1304.6,529.5 1304.8,511.8 1303.2,405.4 1307.8,386.5 
			1307.8,362.3 1313.6,346.2 1300.4,338.4 1296.8,354.2 1290.3,355.3 1293.7,374.5 1294.9,399.2 1297.5,511.8 1297.6,535.2 
			1299.6,552.1 1288.7,579.9 		"/>
		<polygon class="st12" points="1309.2,579.9 1304.6,560.3 1305.2,543.9 1303.6,531 1303.8,513.9 1302.6,408 1305.9,389.7 
			1305.9,366.3 1310,350.7 1300.6,343.1 1298,358.5 1293.4,359.5 1295.8,378.1 1296.7,402 1298.6,513.9 1298.6,536.6 1300.1,553 
			1292.3,579.9 		"/>
	</g>
</g>
</svg>
