<?xml version="1.0" encoding="utf-8"?>
<!-- Generator: Adobe Illustrator 23.1.0, SVG Export Plug-In . SVG Version: 6.00 Build 0)  -->
<svg version="1.1" id="Capa_1" xmlns="http://www.w3.org/2000/svg" xmlns:xlink="http://www.w3.org/1999/xlink" x="0px" y="0px"
	 viewBox="0 0 377.3 377.3" style="enable-background:new 0 0 377.3 377.3;" xml:space="preserve">
<style type="text/css">
	.st0{opacity:0.6;}
	.st1{fill:#42210B;}
	.st2{opacity:0.46;}
	.st3{opacity:0.3867;}
	.st4{opacity:0.3133;}
	.st5{opacity:0.24;}
	.st6{opacity:0.1667;}
	.st7{opacity:9.333333e-02;}
	.st8{opacity:2.000000e-02;}
	.st9{fill:#D6C787;}
	.st10{fill:#4F4F4F;}
	.st11{fill:#FFFFFF;}
</style>
<g class="st0">
	<rect class="st1" width="377.3" height="377.3"/>
	<g>
		<rect class="st2" width="377.3" height="377.3"/>
		<rect x="13.2" y="13.2" class="st3" width="351" height="351"/>
		<rect x="26.3" y="26.3" class="st4" width="324.7" height="324.7"/>
		<rect x="39.5" y="39.5" class="st5" width="298.4" height="298.4"/>
		<rect x="52.6" y="52.6" class="st6" width="272.1" height="272.1"/>
		<rect x="65.8" y="65.8" class="st7" width="245.8" height="245.8"/>
		<rect x="78.9" y="78.9" class="st8" width="219.5" height="219.5"/>
	</g>
	<g>
		<g>
			
				<rect x="17.4" y="82.3" transform="matrix(-1.836970e-16 1 -1 -1.836970e-16 111.0609 60.6952)" class="st9" width="15.6" height="7.2"/>
			
				<rect x="17.4" y="97.9" transform="matrix(-1.836970e-16 1 -1 -1.836970e-16 126.6751 76.3094)" class="st10" width="15.6" height="7.2"/>
			
				<rect x="10.2" y="74.5" transform="matrix(-1.836970e-16 1 -1 -1.836970e-16 96.0587 60.0832)" class="st9" width="15.6" height="7.2"/>
			
				<rect x="10.2" y="90.1" transform="matrix(-1.836970e-16 1 -1 -1.836970e-16 111.6729 75.6974)" class="st10" width="15.6" height="7.2"/>
			
				<rect x="17.4" y="113.5" transform="matrix(-1.836970e-16 1 -1 -1.836970e-16 142.2893 91.9236)" class="st9" width="15.6" height="7.2"/>
			
				<rect x="10.2" y="105.7" transform="matrix(-1.836970e-16 1 -1 -1.836970e-16 127.2871 91.3116)" class="st9" width="15.6" height="7.2"/>
			
				<rect x="3" y="82.3" transform="matrix(-1.836970e-16 1 -1 -1.836970e-16 96.6707 75.0854)" class="st10" width="15.6" height="7.2"/>
			
				<rect x="-4.2" y="74.5" transform="matrix(-1.836970e-16 1 -1 -1.836970e-16 81.6685 74.4734)" class="st10" width="15.6" height="7.2"/>
			
				<rect x="3" y="97.9" transform="matrix(-1.836970e-16 1 -1 -1.836970e-16 112.2849 90.6996)" class="st9" width="15.6" height="7.2"/>
			
				<rect x="3" y="113.5" transform="matrix(-1.836970e-16 1 -1 -1.836970e-16 127.8991 106.3138)" class="st10" width="15.6" height="7.2"/>
			
				<rect x="-4.2" y="90.1" transform="matrix(-1.836970e-16 1 -1 -1.836970e-16 97.2827 90.0876)" class="st9" width="15.6" height="7.2"/>
			
				<rect x="-4.2" y="105.7" transform="matrix(-1.836970e-16 1 -1 -1.836970e-16 112.8969 105.7018)" class="st10" width="15.6" height="7.2"/>
			
				<rect x="17.4" y="51.1" transform="matrix(-1.836970e-16 1 -1 -1.836970e-16 79.8325 29.4668)" class="st9" width="15.6" height="7.2"/>
			
				<rect x="17.4" y="66.7" transform="matrix(-1.836970e-16 1 -1 -1.836970e-16 95.4467 45.081)" class="st10" width="15.6" height="7.2"/>
			
				<rect x="10.2" y="43.2" transform="matrix(-1.836970e-16 1 -1 -1.836970e-16 64.8303 28.8548)" class="st9" width="15.6" height="7.2"/>
			
				<rect x="10.2" y="58.9" transform="matrix(-1.836970e-16 1 -1 -1.836970e-16 80.4445 44.469)" class="st10" width="15.6" height="7.2"/>
			
				<rect x="3" y="51.1" transform="matrix(-1.836970e-16 1 -1 -1.836970e-16 65.4423 43.857)" class="st10" width="15.6" height="7.2"/>
			
				<rect x="-4.2" y="43.2" transform="matrix(-1.836970e-16 1 -1 -1.836970e-16 50.4401 43.245)" class="st10" width="15.6" height="7.2"/>
			
				<rect x="3" y="66.7" transform="matrix(-1.836970e-16 1 -1 -1.836970e-16 81.0565 59.4712)" class="st9" width="15.6" height="7.2"/>
			
				<rect x="-4.2" y="58.9" transform="matrix(-1.836970e-16 1 -1 -1.836970e-16 66.0543 58.8592)" class="st9" width="15.6" height="7.2"/>
			
				<rect x="16.1" y="177.3" transform="matrix(-1.836970e-16 1 -1 -1.836970e-16 206.0472 155.6815)" class="st9" width="18.2" height="7.2"/>
			
				<rect x="10.2" y="168.2" transform="matrix(-1.836970e-16 1 -1 -1.836970e-16 189.7439 153.7684)" class="st9" width="15.6" height="7.2"/>
			
				<rect x="12.8" y="181.2" transform="matrix(-1.836970e-16 1 -1 -1.836970e-16 202.7557 166.7802)" class="st10" width="10.4" height="7.2"/>
			
				<rect x="1.7" y="177.3" transform="matrix(-1.836970e-16 1 -1 -1.836970e-16 191.657 170.0717)" class="st10" width="18.2" height="7.2"/>
			
				<rect x="-4.2" y="168.2" transform="matrix(-1.836970e-16 1 -1 -1.836970e-16 175.3537 168.1586)" class="st10" width="15.6" height="7.2"/>
			
				<rect x="-1.6" y="181.2" transform="matrix(-1.836970e-16 1 -1 -1.836970e-16 188.3655 181.1704)" class="st9" width="10.4" height="7.2"/>
			
				<rect x="17.4" y="129.1" transform="matrix(-1.836970e-16 1 -1 -1.836970e-16 157.9035 107.5378)" class="st10" width="15.6" height="7.2"/>
			
				<rect x="10.2" y="121.3" transform="matrix(-1.836970e-16 1 -1 -1.836970e-16 142.9013 106.9258)" class="st10" width="15.6" height="7.2"/>
			
				<rect x="17.4" y="144.7" transform="matrix(-1.836970e-16 1 -1 -1.836970e-16 173.5177 123.152)" class="st9" width="15.6" height="7.2"/>
			
				<rect x="17.4" y="160.4" transform="matrix(-1.836970e-16 1 -1 -1.836970e-16 189.1319 138.7662)" class="st10" width="15.6" height="7.2"/>
			
				<rect x="10.2" y="136.9" transform="matrix(-1.836970e-16 1 -1 -1.836970e-16 158.5155 122.54)" class="st9" width="15.6" height="7.2"/>
			
				<rect x="10.2" y="152.5" transform="matrix(-1.836970e-16 1 -1 -1.836970e-16 174.1297 138.1542)" class="st10" width="15.6" height="7.2"/>
			
				<rect x="3" y="129.1" transform="matrix(-1.836970e-16 1 -1 -1.836970e-16 143.5133 121.928)" class="st9" width="15.6" height="7.2"/>
			
				<rect x="3" y="144.7" transform="matrix(-1.836970e-16 1 -1 -1.836970e-16 159.1275 137.5422)" class="st10" width="15.6" height="7.2"/>
			
				<rect x="-4.2" y="121.3" transform="matrix(-1.836970e-16 1 -1 -1.836970e-16 128.5111 121.316)" class="st9" width="15.6" height="7.2"/>
			
				<rect x="-4.2" y="136.9" transform="matrix(-1.836970e-16 1 -1 -1.836970e-16 144.1253 136.9302)" class="st10" width="15.6" height="7.2"/>
			
				<rect x="3" y="160.4" transform="matrix(-1.836970e-16 1 -1 -1.836970e-16 174.7417 153.1564)" class="st9" width="15.6" height="7.2"/>
			
				<rect x="-4.2" y="152.5" transform="matrix(-1.836970e-16 1 -1 -1.836970e-16 159.7395 152.5444)" class="st9" width="15.6" height="7.2"/>
			
				<rect x="31.8" y="82.3" transform="matrix(-1.836970e-16 1 -1 -1.836970e-16 125.4511 46.305)" class="st10" width="15.6" height="7.2"/>
			
				<rect x="24.6" y="74.5" transform="matrix(-1.836970e-16 1 -1 -1.836970e-16 110.4489 45.693)" class="st10" width="15.6" height="7.2"/>
			
				<rect x="31.8" y="97.9" transform="matrix(-1.836970e-16 1 -1 -1.836970e-16 141.0653 61.9192)" class="st9" width="15.6" height="7.2"/>
			
				<rect x="31.8" y="113.5" transform="matrix(-1.836970e-16 1 -1 -1.836970e-16 156.6795 77.5334)" class="st10" width="15.6" height="7.2"/>
			
				<rect x="24.6" y="90.1" transform="matrix(-1.836970e-16 1 -1 -1.836970e-16 126.0631 61.3072)" class="st9" width="15.6" height="7.2"/>
			
				<rect x="24.6" y="105.7" transform="matrix(-1.836970e-16 1 -1 -1.836970e-16 141.6773 76.9214)" class="st10" width="15.6" height="7.2"/>
			
				<rect x="31.8" y="51.1" transform="matrix(-1.836970e-16 1 -1 -1.836970e-16 94.2227 15.0766)" class="st10" width="15.6" height="7.2"/>
			
				<rect x="24.6" y="43.2" transform="matrix(-1.836970e-16 1 -1 -1.836970e-16 79.2205 14.4646)" class="st10" width="15.6" height="7.2"/>
			
				<rect x="31.8" y="66.7" transform="matrix(-1.836970e-16 1 -1 -1.836970e-16 109.8369 30.6908)" class="st9" width="15.6" height="7.2"/>
			
				<rect x="24.6" y="58.9" transform="matrix(-1.836970e-16 1 -1 -1.836970e-16 94.8347 30.0788)" class="st9" width="15.6" height="7.2"/>
			
				<rect x="30.5" y="177.3" transform="matrix(-1.836970e-16 1 -1 -1.836970e-16 220.4374 141.2914)" class="st10" width="18.2" height="7.2"/>
			
				<rect x="24.6" y="168.2" transform="matrix(-1.836970e-16 1 -1 -1.836970e-16 204.1341 139.3782)" class="st10" width="15.6" height="7.2"/>
			
				<rect x="27.2" y="181.2" transform="matrix(-1.836970e-16 1 -1 -1.836970e-16 217.1459 152.39)" class="st9" width="10.4" height="7.2"/>
			
				<rect x="31.8" y="129.1" transform="matrix(-1.836970e-16 1 -1 -1.836970e-16 172.2937 93.1476)" class="st9" width="15.6" height="7.2"/>
			
				<rect x="31.8" y="144.7" transform="matrix(-1.836970e-16 1 -1 -1.836970e-16 187.9079 108.7618)" class="st10" width="15.6" height="7.2"/>
			
				<rect x="24.6" y="121.3" transform="matrix(-1.836970e-16 1 -1 -1.836970e-16 157.2915 92.5356)" class="st9" width="15.6" height="7.2"/>
			
				<rect x="24.6" y="136.9" transform="matrix(-1.836970e-16 1 -1 -1.836970e-16 172.9057 108.1498)" class="st10" width="15.6" height="7.2"/>
			
				<rect x="31.8" y="160.4" transform="matrix(-1.836970e-16 1 -1 -1.836970e-16 203.5221 124.376)" class="st9" width="15.6" height="7.2"/>
			
				<rect x="24.6" y="152.5" transform="matrix(-1.836970e-16 1 -1 -1.836970e-16 188.5199 123.764)" class="st9" width="15.6" height="7.2"/>
			
				<rect x="17.4" y="287.9" transform="matrix(-5.516115e-11 -1 1 -5.516115e-11 -266.2821 316.6478)" class="st9" width="15.6" height="7.2"/>
			
				<rect x="17.4" y="272.3" transform="matrix(-5.510253e-11 -1 1 -5.510253e-11 -250.6679 301.0336)" class="st10" width="15.6" height="7.2"/>
			
				<rect x="10.2" y="295.7" transform="matrix(-5.510253e-11 -1 1 -5.510253e-11 -281.2843 317.2598)" class="st9" width="15.6" height="7.2"/>
			
				<rect x="10.2" y="280.1" transform="matrix(-5.516115e-11 -1 1 -5.516115e-11 -265.6701 301.6456)" class="st10" width="15.6" height="7.2"/>
			
				<rect x="17.4" y="256.6" transform="matrix(-5.516115e-11 -1 1 -5.516115e-11 -235.0537 285.4194)" class="st9" width="15.6" height="7.2"/>
			
				<rect x="10.2" y="264.4" transform="matrix(-5.516115e-11 -1 1 -5.516115e-11 -250.0559 286.0314)" class="st9" width="15.6" height="7.2"/>
			
				<rect x="3" y="287.9" transform="matrix(-5.516115e-11 -1 1 -5.516115e-11 -280.6723 302.2576)" class="st10" width="15.6" height="7.2"/>
			
				<rect x="-4.2" y="295.7" transform="matrix(-5.510253e-11 -1 1 -5.510253e-11 -295.6745 302.8696)" class="st10" width="15.6" height="7.2"/>
			
				<rect x="3" y="272.3" transform="matrix(-5.510253e-11 -1 1 -5.510253e-11 -265.0581 286.6434)" class="st9" width="15.6" height="7.2"/>
			
				<rect x="3" y="256.6" transform="matrix(-5.516115e-11 -1 1 -5.516115e-11 -249.4439 271.0292)" class="st10" width="15.6" height="7.2"/>
			
				<rect x="-4.2" y="280.1" transform="matrix(-5.516115e-11 -1 1 -5.516115e-11 -280.0603 287.2554)" class="st9" width="15.6" height="7.2"/>
			
				<rect x="-4.2" y="264.4" transform="matrix(-5.516115e-11 -1 1 -5.516115e-11 -264.4461 271.6412)" class="st10" width="15.6" height="7.2"/>
			
				<rect x="17.4" y="319.1" transform="matrix(-5.516115e-11 -1 1 -5.516115e-11 -297.5105 347.8762)" class="st9" width="15.6" height="7.2"/>
			
				<rect x="17.4" y="303.5" transform="matrix(-5.510253e-11 -1 1 -5.510253e-11 -281.8963 332.262)" class="st10" width="15.6" height="7.2"/>
			
				<rect x="10.2" y="326.9" transform="matrix(-5.510253e-11 -1 1 -5.510253e-11 -312.5127 348.4882)" class="st9" width="15.6" height="7.2"/>
			
				<rect x="10.2" y="311.3" transform="matrix(-5.516115e-11 -1 1 -5.516115e-11 -296.8985 332.874)" class="st10" width="15.6" height="7.2"/>
			
				<rect x="3" y="319.1" transform="matrix(-5.516115e-11 -1 1 -5.516115e-11 -311.9007 333.486)" class="st10" width="15.6" height="7.2"/>
			
				<rect x="-4.2" y="326.9" transform="matrix(-5.510253e-11 -1 1 -5.510253e-11 -326.9029 334.098)" class="st10" width="15.6" height="7.2"/>
			
				<rect x="3" y="303.5" transform="matrix(-5.510253e-11 -1 1 -5.510253e-11 -296.2865 317.8718)" class="st9" width="15.6" height="7.2"/>
			
				<rect x="-4.2" y="311.3" transform="matrix(-5.516115e-11 -1 1 -5.516115e-11 -311.2887 318.4838)" class="st9" width="15.6" height="7.2"/>
			
				<rect x="16.1" y="192.9" transform="matrix(-5.551819e-11 -1 1 -5.551819e-11 -171.2957 221.6614)" class="st9" width="18.2" height="7.2"/>
			
				<rect x="10.2" y="202" transform="matrix(-5.516115e-11 -1 1 -5.516115e-11 -187.5991 223.5746)" class="st9" width="15.6" height="7.2"/>
			
				<rect x="12.8" y="189" transform="matrix(-5.583083e-11 -1 1 -5.583083e-11 -174.5873 210.5628)" class="st10" width="10.4" height="7.2"/>
			
				<rect x="1.7" y="192.9" transform="matrix(-5.551819e-11 -1 1 -5.551819e-11 -185.6859 207.2712)" class="st10" width="18.2" height="7.2"/>
			
				<rect x="-4.2" y="202" transform="matrix(-5.516115e-11 -1 1 -5.516115e-11 -201.9893 209.1844)" class="st10" width="15.6" height="7.2"/>
			
				<rect x="-1.6" y="189" transform="matrix(-5.583083e-11 -1 1 -5.583083e-11 -188.9775 196.1726)" class="st9" width="10.4" height="7.2"/>
			
				<rect x="17.4" y="241" transform="matrix(-5.510253e-11 -1 1 -5.510253e-11 -219.4395 269.8052)" class="st10" width="15.6" height="7.2"/>
			
				<rect x="10.2" y="248.8" transform="matrix(-5.510253e-11 -1 1 -5.510253e-11 -234.4417 270.4172)" class="st10" width="15.6" height="7.2"/>
			
				<rect x="17.4" y="225.4" transform="matrix(-5.516115e-11 -1 1 -5.516115e-11 -203.8253 254.191)" class="st9" width="15.6" height="7.2"/>
			
				<rect x="17.4" y="209.8" transform="matrix(-5.516115e-11 -1 1 -5.516115e-11 -188.2111 238.5768)" class="st10" width="15.6" height="7.2"/>
			
				<rect x="10.2" y="233.2" transform="matrix(-5.516115e-11 -1 1 -5.516115e-11 -218.8275 254.803)" class="st9" width="15.6" height="7.2"/>
			
				<rect x="10.2" y="217.6" transform="matrix(-5.510253e-11 -1 1 -5.510253e-11 -203.2133 239.1888)" class="st10" width="15.6" height="7.2"/>
			
				<rect x="3" y="241" transform="matrix(-5.510253e-11 -1 1 -5.510253e-11 -233.8297 255.415)" class="st9" width="15.6" height="7.2"/>
			
				<rect x="3" y="225.4" transform="matrix(-5.516115e-11 -1 1 -5.516115e-11 -218.2155 239.8008)" class="st10" width="15.6" height="7.2"/>
			
				<rect x="-4.2" y="248.8" transform="matrix(-5.510253e-11 -1 1 -5.510253e-11 -248.8319 256.027)" class="st9" width="15.6" height="7.2"/>
			
				<rect x="-4.2" y="233.2" transform="matrix(-5.516115e-11 -1 1 -5.516115e-11 -233.2177 240.4128)" class="st10" width="15.6" height="7.2"/>
			
				<rect x="3" y="209.8" transform="matrix(-5.516115e-11 -1 1 -5.516115e-11 -202.6013 224.1866)" class="st9" width="15.6" height="7.2"/>
			
				<rect x="-4.2" y="217.6" transform="matrix(-5.510253e-11 -1 1 -5.510253e-11 -217.6035 224.7986)" class="st9" width="15.6" height="7.2"/>
			
				<rect x="31.8" y="287.9" transform="matrix(-5.516115e-11 -1 1 -5.516115e-11 -251.8919 331.038)" class="st10" width="15.6" height="7.2"/>
			
				<rect x="24.6" y="295.7" transform="matrix(-5.510253e-11 -1 1 -5.510253e-11 -266.8941 331.65)" class="st10" width="15.6" height="7.2"/>
			
				<rect x="31.8" y="272.3" transform="matrix(-5.510253e-11 -1 1 -5.510253e-11 -236.2777 315.4238)" class="st9" width="15.6" height="7.2"/>
			
				<rect x="31.8" y="256.6" transform="matrix(-5.516115e-11 -1 1 -5.516115e-11 -220.6635 299.8096)" class="st10" width="15.6" height="7.2"/>
			
				<rect x="24.6" y="280.1" transform="matrix(-5.516115e-11 -1 1 -5.516115e-11 -251.2799 316.0358)" class="st9" width="15.6" height="7.2"/>
			
				<rect x="24.6" y="264.4" transform="matrix(-5.516115e-11 -1 1 -5.516115e-11 -235.6657 300.4216)" class="st10" width="15.6" height="7.2"/>
			
				<rect x="31.8" y="319.1" transform="matrix(-5.510253e-11 -1 1 -5.510253e-11 -283.1203 362.2664)" class="st10" width="15.6" height="7.2"/>
			
				<rect x="24.6" y="326.9" transform="matrix(-5.510253e-11 -1 1 -5.510253e-11 -298.1225 362.8784)" class="st10" width="15.6" height="7.2"/>
			
				<rect x="31.8" y="303.5" transform="matrix(-5.516115e-11 -1 1 -5.516115e-11 -267.5061 346.6522)" class="st9" width="15.6" height="7.2"/>
			
				<rect x="24.6" y="311.3" transform="matrix(-5.516115e-11 -1 1 -5.516115e-11 -282.5083 347.2642)" class="st9" width="15.6" height="7.2"/>
			
				<rect x="30.5" y="192.9" transform="matrix(-5.551819e-11 -1 1 -5.551819e-11 -156.9055 236.0516)" class="st10" width="18.2" height="7.2"/>
			
				<rect x="24.6" y="202" transform="matrix(-5.516115e-11 -1 1 -5.516115e-11 -173.2089 237.9648)" class="st10" width="15.6" height="7.2"/>
			
				<rect x="27.2" y="189" transform="matrix(-5.609285e-11 -1 1 -5.609285e-11 -160.1971 224.953)" class="st9" width="10.4" height="7.2"/>
			
				<rect x="31.8" y="241" transform="matrix(-5.510253e-11 -1 1 -5.510253e-11 -205.0493 284.1954)" class="st9" width="15.6" height="7.2"/>
			
				<rect x="31.8" y="225.4" transform="matrix(-5.516115e-11 -1 1 -5.516115e-11 -189.4351 268.5812)" class="st10" width="15.6" height="7.2"/>
			
				<rect x="24.6" y="248.8" transform="matrix(-5.510253e-11 -1 1 -5.510253e-11 -220.0515 284.8074)" class="st9" width="15.6" height="7.2"/>
			
				<rect x="24.6" y="233.2" transform="matrix(-5.516115e-11 -1 1 -5.516115e-11 -204.4373 269.1932)" class="st10" width="15.6" height="7.2"/>
			
				<rect x="31.8" y="209.8" transform="matrix(-5.516115e-11 -1 1 -5.516115e-11 -173.8209 252.967)" class="st9" width="15.6" height="7.2"/>
			
				<rect x="24.6" y="217.6" transform="matrix(-5.510253e-11 -1 1 -5.510253e-11 -188.8231 253.579)" class="st9" width="15.6" height="7.2"/>
		</g>
		<g>
			
				<rect x="344.4" y="82.3" transform="matrix(-5.510277e-11 1 -1 -5.510277e-11 438.0382 -266.2821)" class="st9" width="15.6" height="7.2"/>
			
				<rect x="344.4" y="97.9" transform="matrix(-5.521912e-11 1 -1 -5.521912e-11 453.6524 -250.6679)" class="st10" width="15.6" height="7.2"/>
			
				<rect x="351.5" y="74.5" transform="matrix(-5.510277e-11 1 -1 -5.510277e-11 437.4262 -281.2843)" class="st9" width="15.6" height="7.2"/>
			
				<rect x="351.5" y="90.1" transform="matrix(-5.521912e-11 1 -1 -5.521912e-11 453.0404 -265.6701)" class="st10" width="15.6" height="7.2"/>
			
				<rect x="344.4" y="113.5" transform="matrix(-5.510277e-11 1 -1 -5.510277e-11 469.2666 -235.0537)" class="st9" width="15.6" height="7.2"/>
			
				<rect x="351.5" y="105.7" transform="matrix(-5.510277e-11 1 -1 -5.510277e-11 468.6546 -250.0559)" class="st9" width="15.6" height="7.2"/>
			
				<rect x="358.7" y="82.3" transform="matrix(-5.510277e-11 1 -1 -5.510277e-11 452.4284 -280.6723)" class="st10" width="15.6" height="7.2"/>
			
				<rect x="365.9" y="74.5" transform="matrix(-5.521912e-11 1 -1 -5.521912e-11 451.8164 -295.6745)" class="st10" width="15.6" height="7.2"/>
			
				<rect x="358.7" y="97.9" transform="matrix(-5.510277e-11 1 -1 -5.510277e-11 468.0426 -265.0581)" class="st9" width="15.6" height="7.2"/>
			
				<rect x="358.7" y="113.5" transform="matrix(-5.510277e-11 1 -1 -5.510277e-11 483.6568 -249.4439)" class="st10" width="15.6" height="7.2"/>
			
				<rect x="365.9" y="90.1" transform="matrix(-5.510277e-11 1 -1 -5.510277e-11 467.4306 -280.0603)" class="st9" width="15.6" height="7.2"/>
			
				<rect x="365.9" y="105.7" transform="matrix(-5.510277e-11 1 -1 -5.510277e-11 483.0448 -264.4461)" class="st10" width="15.6" height="7.2"/>
			
				<rect x="344.4" y="51.1" transform="matrix(-5.533548e-11 1 -1 -5.533548e-11 406.8098 -297.5105)" class="st9" width="15.6" height="7.2"/>
			
				<rect x="344.4" y="66.7" transform="matrix(-5.510277e-11 1 -1 -5.510277e-11 422.424 -281.8963)" class="st10" width="15.6" height="7.2"/>
			
				<rect x="351.5" y="43.2" transform="matrix(-5.510277e-11 1 -1 -5.510277e-11 406.1978 -312.5127)" class="st9" width="15.6" height="7.2"/>
			
				<rect x="351.5" y="58.9" transform="matrix(-5.533548e-11 1 -1 -5.533548e-11 421.812 -296.8985)" class="st10" width="15.6" height="7.2"/>
			
				<rect x="358.7" y="51.1" transform="matrix(-5.533548e-11 1 -1 -5.533548e-11 421.2 -311.9007)" class="st10" width="15.6" height="7.2"/>
			
				<rect x="365.9" y="43.2" transform="matrix(-5.521912e-11 1 -1 -5.521912e-11 420.588 -326.9029)" class="st10" width="15.6" height="7.2"/>
			
				<rect x="358.7" y="66.7" transform="matrix(-5.521912e-11 1 -1 -5.521912e-11 436.8142 -296.2865)" class="st9" width="15.6" height="7.2"/>
			
				<rect x="365.9" y="58.9" transform="matrix(-5.521912e-11 1 -1 -5.521912e-11 436.2022 -311.2887)" class="st9" width="15.6" height="7.2"/>
			
				<rect x="343.1" y="177.3" transform="matrix(-5.511965e-11 1 -1 -5.511965e-11 533.0245 -171.2957)" class="st9" width="18.2" height="7.2"/>
			
				<rect x="351.5" y="168.2" transform="matrix(-5.510277e-11 1 -1 -5.510277e-11 531.1113 -187.5991)" class="st9" width="15.6" height="7.2"/>
			
				<rect x="354.2" y="181.2" transform="matrix(-5.504415e-11 1 -1 -5.504415e-11 544.1232 -174.5873)" class="st10" width="10.4" height="7.2"/>
			
				<rect x="357.4" y="177.3" transform="matrix(-5.511965e-11 1 -1 -5.511965e-11 547.4147 -185.6859)" class="st10" width="18.2" height="7.2"/>
			
				<rect x="365.9" y="168.2" transform="matrix(-5.510277e-11 1 -1 -5.510277e-11 545.5015 -201.9893)" class="st10" width="15.6" height="7.2"/>
			
				<rect x="368.5" y="181.2" transform="matrix(-5.504415e-11 1 -1 -5.504415e-11 558.5134 -188.9775)" class="st9" width="10.4" height="7.2"/>
			
				<rect x="344.4" y="129.1" transform="matrix(-5.510277e-11 1 -1 -5.510277e-11 484.8808 -219.4395)" class="st10" width="15.6" height="7.2"/>
			
				<rect x="351.5" y="121.3" transform="matrix(-5.510277e-11 1 -1 -5.510277e-11 484.2688 -234.4417)" class="st10" width="15.6" height="7.2"/>
			
				<rect x="344.4" y="144.7" transform="matrix(-5.533548e-11 1 -1 -5.533548e-11 500.495 -203.8253)" class="st9" width="15.6" height="7.2"/>
			
				<rect x="344.4" y="160.4" transform="matrix(-5.510277e-11 1 -1 -5.510277e-11 516.1092 -188.2111)" class="st10" width="15.6" height="7.2"/>
			
				<rect x="351.5" y="136.9" transform="matrix(-5.533548e-11 1 -1 -5.533548e-11 499.883 -218.8275)" class="st9" width="15.6" height="7.2"/>
			
				<rect x="351.5" y="152.5" transform="matrix(-5.510277e-11 1 -1 -5.510277e-11 515.4972 -203.2133)" class="st10" width="15.6" height="7.2"/>
			
				<rect x="358.7" y="129.1" transform="matrix(-5.521912e-11 1 -1 -5.521912e-11 499.271 -233.8297)" class="st9" width="15.6" height="7.2"/>
			
				<rect x="358.7" y="144.7" transform="matrix(-5.533548e-11 1 -1 -5.533548e-11 514.8852 -218.2155)" class="st10" width="15.6" height="7.2"/>
			
				<rect x="365.9" y="121.3" transform="matrix(-5.521912e-11 1 -1 -5.521912e-11 498.659 -248.8319)" class="st9" width="15.6" height="7.2"/>
			
				<rect x="365.9" y="136.9" transform="matrix(-5.521912e-11 1 -1 -5.521912e-11 514.2732 -233.2177)" class="st10" width="15.6" height="7.2"/>
			
				<rect x="358.7" y="160.4" transform="matrix(-5.510277e-11 1 -1 -5.510277e-11 530.4994 -202.6013)" class="st9" width="15.6" height="7.2"/>
			
				<rect x="365.9" y="152.5" transform="matrix(-5.521912e-11 1 -1 -5.521912e-11 529.8874 -217.6035)" class="st9" width="15.6" height="7.2"/>
			
				<rect x="330" y="82.3" transform="matrix(-5.510277e-11 1 -1 -5.510277e-11 423.648 -251.8919)" class="st10" width="15.6" height="7.2"/>
			
				<rect x="337.2" y="74.5" transform="matrix(-5.521912e-11 1 -1 -5.521912e-11 423.036 -266.8941)" class="st10" width="15.6" height="7.2"/>
			
				<rect x="330" y="97.9" transform="matrix(-5.521912e-11 1 -1 -5.521912e-11 439.2622 -236.2777)" class="st9" width="15.6" height="7.2"/>
			
				<rect x="330" y="113.5" transform="matrix(-5.510277e-11 1 -1 -5.510277e-11 454.8764 -220.6635)" class="st10" width="15.6" height="7.2"/>
			
				<rect x="337.2" y="90.1" transform="matrix(-5.510277e-11 1 -1 -5.510277e-11 438.6502 -251.2799)" class="st9" width="15.6" height="7.2"/>
			
				<rect x="337.2" y="105.7" transform="matrix(-5.510277e-11 1 -1 -5.510277e-11 454.2644 -235.6657)" class="st10" width="15.6" height="7.2"/>
			
				<rect x="330" y="51.1" transform="matrix(-5.533548e-11 1 -1 -5.533548e-11 392.4196 -283.1203)" class="st10" width="15.6" height="7.2"/>
			
				<rect x="337.2" y="43.2" transform="matrix(-5.521912e-11 1 -1 -5.521912e-11 391.8076 -298.1225)" class="st10" width="15.6" height="7.2"/>
			
				<rect x="330" y="66.7" transform="matrix(-5.510277e-11 1 -1 -5.510277e-11 408.0338 -267.5061)" class="st9" width="15.6" height="7.2"/>
			
				<rect x="337.2" y="58.9" transform="matrix(-5.521912e-11 1 -1 -5.521912e-11 407.4218 -282.5083)" class="st9" width="15.6" height="7.2"/>
			
				<rect x="328.7" y="177.3" transform="matrix(-5.511965e-11 1 -1 -5.511965e-11 518.6343 -156.9055)" class="st10" width="18.2" height="7.2"/>
			
				<rect x="337.2" y="168.2" transform="matrix(-5.510277e-11 1 -1 -5.510277e-11 516.7211 -173.2089)" class="st10" width="15.6" height="7.2"/>
			
				<rect x="339.8" y="181.2" transform="matrix(-5.504415e-11 1 -1 -5.504415e-11 529.733 -160.1971)" class="st9" width="10.4" height="7.2"/>
			
				<rect x="330" y="129.1" transform="matrix(-5.510277e-11 1 -1 -5.510277e-11 470.4906 -205.0493)" class="st9" width="15.6" height="7.2"/>
			
				<rect x="330" y="144.7" transform="matrix(-5.533548e-11 1 -1 -5.533548e-11 486.1048 -189.4351)" class="st10" width="15.6" height="7.2"/>
			
				<rect x="337.2" y="121.3" transform="matrix(-5.521912e-11 1 -1 -5.521912e-11 469.8786 -220.0515)" class="st9" width="15.6" height="7.2"/>
			
				<rect x="337.2" y="136.9" transform="matrix(-5.521912e-11 1 -1 -5.521912e-11 485.4928 -204.4373)" class="st10" width="15.6" height="7.2"/>
			
				<rect x="330" y="160.4" transform="matrix(-5.510277e-11 1 -1 -5.510277e-11 501.719 -173.8209)" class="st9" width="15.6" height="7.2"/>
			
				<rect x="337.2" y="152.5" transform="matrix(-5.521912e-11 1 -1 -5.521912e-11 501.107 -188.8231)" class="st9" width="15.6" height="7.2"/>
			
				<rect x="344.4" y="287.9" transform="matrix(1.102052e-10 -1 1 1.102052e-10 60.6952 643.6251)" class="st9" width="15.6" height="7.2"/>
			
				<rect x="344.4" y="272.3" transform="matrix(1.104379e-10 -1 1 1.104379e-10 76.3094 628.0109)" class="st10" width="15.6" height="7.2"/>
			
				<rect x="351.5" y="295.7" transform="matrix(1.103216e-10 -1 1 1.103216e-10 60.0832 658.6273)" class="st9" width="15.6" height="7.2"/>
			
				<rect x="351.5" y="280.1" transform="matrix(1.104379e-10 -1 1 1.104379e-10 75.6974 643.0131)" class="st10" width="15.6" height="7.2"/>
			
				<rect x="344.4" y="256.6" transform="matrix(1.103216e-10 -1 1 1.103216e-10 91.9236 612.3967)" class="st9" width="15.6" height="7.2"/>
			
				<rect x="351.5" y="264.4" transform="matrix(1.103216e-10 -1 1 1.103216e-10 91.3116 627.3989)" class="st9" width="15.6" height="7.2"/>
			
				<rect x="358.7" y="287.9" transform="matrix(1.103216e-10 -1 1 1.103216e-10 75.0854 658.0153)" class="st10" width="15.6" height="7.2"/>
			
				<rect x="365.9" y="295.7" transform="matrix(1.102052e-10 -1 1 1.102052e-10 74.4734 673.0175)" class="st10" width="15.6" height="7.2"/>
			
				<rect x="358.7" y="272.3" transform="matrix(1.104379e-10 -1 1 1.104379e-10 90.6996 642.4011)" class="st9" width="15.6" height="7.2"/>
			
				<rect x="358.7" y="256.6" transform="matrix(1.102052e-10 -1 1 1.102052e-10 106.3138 626.7869)" class="st10" width="15.6" height="7.2"/>
			
				<rect x="365.9" y="280.1" transform="matrix(1.105552e-10 -1 1 1.105552e-10 90.0876 657.4033)" class="st9" width="15.6" height="7.2"/>
			
				<rect x="365.9" y="264.4" transform="matrix(1.102052e-10 -1 1 1.102052e-10 105.7018 641.7891)" class="st10" width="15.6" height="7.2"/>
			
				<rect x="344.4" y="319.1" transform="matrix(1.102052e-10 -1 1 1.102052e-10 29.4668 674.8535)" class="st9" width="15.6" height="7.2"/>
			
				<rect x="344.4" y="303.5" transform="matrix(1.103216e-10 -1 1 1.103216e-10 45.081 659.2393)" class="st10" width="15.6" height="7.2"/>
			
				<rect x="351.5" y="326.9" transform="matrix(1.103216e-10 -1 1 1.103216e-10 28.8548 689.8557)" class="st9" width="15.6" height="7.2"/>
			
				<rect x="351.5" y="311.3" transform="matrix(1.102052e-10 -1 1 1.102052e-10 44.469 674.2415)" class="st10" width="15.6" height="7.2"/>
			
				<rect x="358.7" y="319.1" transform="matrix(1.103216e-10 -1 1 1.103216e-10 43.857 689.2437)" class="st10" width="15.6" height="7.2"/>
			
				<rect x="365.9" y="326.9" transform="matrix(1.102052e-10 -1 1 1.102052e-10 43.245 704.2458)" class="st10" width="15.6" height="7.2"/>
			
				<rect x="358.7" y="303.5" transform="matrix(1.102052e-10 -1 1 1.102052e-10 59.4712 673.6295)" class="st9" width="15.6" height="7.2"/>
			
				<rect x="365.9" y="311.3" transform="matrix(1.103216e-10 -1 1 1.103216e-10 58.8592 688.6317)" class="st9" width="15.6" height="7.2"/>
			
				<rect x="343.1" y="192.9" transform="matrix(1.107381e-10 -1 1 1.107381e-10 155.6815 548.6387)" class="st9" width="18.2" height="7.2"/>
			
				<rect x="351.5" y="202" transform="matrix(1.103216e-10 -1 1 1.103216e-10 153.7684 564.9421)" class="st9" width="15.6" height="7.2"/>
			
				<rect x="354.2" y="189" transform="matrix(1.111369e-10 -1 1 1.111369e-10 166.7802 551.9303)" class="st10" width="10.4" height="7.2"/>
			
				<rect x="357.4" y="192.9" transform="matrix(1.107381e-10 -1 1 1.107381e-10 170.0717 563.0289)" class="st10" width="18.2" height="7.2"/>
			
				<rect x="365.9" y="202" transform="matrix(1.102052e-10 -1 1 1.102052e-10 168.1586 579.3323)" class="st10" width="15.6" height="7.2"/>
			
				<rect x="368.5" y="189" transform="matrix(1.111369e-10 -1 1 1.111369e-10 181.1704 566.3205)" class="st9" width="10.4" height="7.2"/>
			
				<rect x="344.4" y="241" transform="matrix(1.102052e-10 -1 1 1.102052e-10 107.5378 596.7825)" class="st10" width="15.6" height="7.2"/>
			
				<rect x="351.5" y="248.8" transform="matrix(1.102052e-10 -1 1 1.102052e-10 106.9258 611.7847)" class="st10" width="15.6" height="7.2"/>
			
				<rect x="344.4" y="225.4" transform="matrix(1.103216e-10 -1 1 1.103216e-10 123.152 581.1683)" class="st9" width="15.6" height="7.2"/>
			
				<rect x="344.4" y="209.8" transform="matrix(1.103216e-10 -1 1 1.103216e-10 138.7662 565.5541)" class="st10" width="15.6" height="7.2"/>
			
				<rect x="351.5" y="233.2" transform="matrix(1.103216e-10 -1 1 1.103216e-10 122.54 596.1705)" class="st9" width="15.6" height="7.2"/>
			
				<rect x="351.5" y="217.6" transform="matrix(1.102052e-10 -1 1 1.102052e-10 138.1542 580.5563)" class="st10" width="15.6" height="7.2"/>
			
				<rect x="358.7" y="241" transform="matrix(1.103216e-10 -1 1 1.103216e-10 121.928 611.1727)" class="st9" width="15.6" height="7.2"/>
			
				<rect x="358.7" y="225.4" transform="matrix(1.103216e-10 -1 1 1.103216e-10 137.5422 595.5585)" class="st10" width="15.6" height="7.2"/>
			
				<rect x="365.9" y="248.8" transform="matrix(1.103216e-10 -1 1 1.103216e-10 121.316 626.1749)" class="st9" width="15.6" height="7.2"/>
			
				<rect x="365.9" y="233.2" transform="matrix(1.102052e-10 -1 1 1.102052e-10 136.9302 610.5607)" class="st10" width="15.6" height="7.2"/>
			
				<rect x="358.7" y="209.8" transform="matrix(1.102052e-10 -1 1 1.102052e-10 153.1564 579.9443)" class="st9" width="15.6" height="7.2"/>
			
				<rect x="365.9" y="217.6" transform="matrix(1.103216e-10 -1 1 1.103216e-10 152.5444 594.9465)" class="st9" width="15.6" height="7.2"/>
			
				<rect x="330" y="287.9" transform="matrix(1.103216e-10 -1 1 1.103216e-10 46.305 629.2349)" class="st10" width="15.6" height="7.2"/>
			
				<rect x="337.2" y="295.7" transform="matrix(1.103216e-10 -1 1 1.103216e-10 45.693 644.2371)" class="st10" width="15.6" height="7.2"/>
			
				<rect x="330" y="272.3" transform="matrix(1.104379e-10 -1 1 1.104379e-10 61.9192 613.6207)" class="st9" width="15.6" height="7.2"/>
			
				<rect x="330" y="256.6" transform="matrix(1.102052e-10 -1 1 1.102052e-10 77.5334 598.0065)" class="st10" width="15.6" height="7.2"/>
			
				<rect x="337.2" y="280.1" transform="matrix(1.104379e-10 -1 1 1.104379e-10 61.3072 628.6229)" class="st9" width="15.6" height="7.2"/>
			
				<rect x="337.2" y="264.4" transform="matrix(1.103216e-10 -1 1 1.103216e-10 76.9214 613.0087)" class="st10" width="15.6" height="7.2"/>
			
				<rect x="330" y="319.1" transform="matrix(1.103216e-10 -1 1 1.103216e-10 15.0766 660.4633)" class="st10" width="15.6" height="7.2"/>
			
				<rect x="337.2" y="326.9" transform="matrix(1.103216e-10 -1 1 1.103216e-10 14.4646 675.4655)" class="st10" width="15.6" height="7.2"/>
			
				<rect x="330" y="303.5" transform="matrix(1.102052e-10 -1 1 1.102052e-10 30.6908 644.8491)" class="st9" width="15.6" height="7.2"/>
			
				<rect x="337.2" y="311.3" transform="matrix(1.102052e-10 -1 1 1.102052e-10 30.0788 659.8513)" class="st9" width="15.6" height="7.2"/>
			
				<rect x="328.7" y="192.9" transform="matrix(1.107381e-10 -1 1 1.107381e-10 141.2914 534.2485)" class="st10" width="18.2" height="7.2"/>
			
				<rect x="337.2" y="202" transform="matrix(1.103216e-10 -1 1 1.103216e-10 139.3782 550.5519)" class="st10" width="15.6" height="7.2"/>
			
				<rect x="339.8" y="189" transform="matrix(1.113119e-10 -1 1 1.113119e-10 152.39 537.5401)" class="st9" width="10.4" height="7.2"/>
			
				<rect x="330" y="241" transform="matrix(1.103216e-10 -1 1 1.103216e-10 93.1476 582.3923)" class="st9" width="15.6" height="7.2"/>
			
				<rect x="330" y="225.4" transform="matrix(1.102052e-10 -1 1 1.102052e-10 108.7618 566.7781)" class="st10" width="15.6" height="7.2"/>
			
				<rect x="337.2" y="248.8" transform="matrix(1.102052e-10 -1 1 1.102052e-10 92.5356 597.3945)" class="st9" width="15.6" height="7.2"/>
			
				<rect x="337.2" y="233.2" transform="matrix(1.103216e-10 -1 1 1.103216e-10 108.1498 581.7803)" class="st10" width="15.6" height="7.2"/>
			
				<rect x="330" y="209.8" transform="matrix(1.103216e-10 -1 1 1.103216e-10 124.376 551.1639)" class="st9" width="15.6" height="7.2"/>
			
				<rect x="337.2" y="217.6" transform="matrix(1.102052e-10 -1 1 1.102052e-10 123.764 566.1661)" class="st9" width="15.6" height="7.2"/>
		</g>
		<g>
			
				<rect x="344.4" y="365.9" transform="matrix(5.510265e-11 -1 1 5.510265e-11 -17.3758 721.696)" class="st10" width="15.6" height="7.2"/>
			
				<rect x="355.5" y="369.8" transform="matrix(5.521900e-11 -1 1 5.521900e-11 -14.0842 732.7947)" class="st10" width="7.8" height="7.2"/>
			
				<rect x="344.4" y="350.3" transform="matrix(5.510265e-11 -1 1 5.510265e-11 -1.7616 706.0818)" class="st9" width="15.6" height="7.2"/>
			
				<rect x="351.5" y="358.1" transform="matrix(5.510265e-11 -1 1 5.510265e-11 -2.3736 721.084)" class="st9" width="15.6" height="7.2"/>
			
				<rect x="358.7" y="365.9" transform="matrix(5.521900e-11 -1 1 5.521900e-11 -2.9856 736.0862)" class="st9" width="15.6" height="7.2"/>
			
				<rect x="358.7" y="350.3" transform="matrix(5.510265e-11 -1 1 5.510265e-11 12.6286 720.472)" class="st10" width="15.6" height="7.2"/>
			
				<rect x="369.8" y="369.8" transform="matrix(5.521900e-11 -1 1 5.521900e-11 0.306 747.1849)" class="st9" width="7.8" height="7.2"/>
			
				<rect x="365.9" y="358.1" transform="matrix(5.510265e-11 -1 1 5.510265e-11 12.0166 735.4742)" class="st10" width="15.6" height="7.2"/>
			
				<rect x="344.4" y="334.7" transform="matrix(5.556895e-11 -1 1 5.556895e-11 13.8526 690.4677)" class="st10" width="15.6" height="7.2"/>
			
				<rect x="351.5" y="342.5" transform="matrix(5.521900e-11 -1 1 5.521900e-11 13.2406 705.4698)" class="st10" width="15.6" height="7.2"/>
			
				<rect x="358.7" y="334.7" transform="matrix(5.545259e-11 -1 1 5.545259e-11 28.2428 704.8578)" class="st9" width="15.6" height="7.2"/>
			
				<rect x="365.9" y="342.5" transform="matrix(5.510265e-11 -1 1 5.510265e-11 27.6308 719.86)" class="st9" width="15.6" height="7.2"/>
			
				<rect x="315.6" y="365.9" transform="matrix(5.521900e-11 -1 1 5.521900e-11 -46.1561 692.9156)" class="st10" width="15.6" height="7.2"/>
			
				<rect x="326.7" y="369.8" transform="matrix(5.521900e-11 -1 1 5.521900e-11 -42.8646 704.0143)" class="st10" width="7.8" height="7.2"/>
			
				<rect x="315.6" y="350.3" transform="matrix(5.510265e-11 -1 1 5.510265e-11 -30.542 677.3015)" class="st9" width="15.6" height="7.2"/>
			
				<rect x="322.8" y="358.1" transform="matrix(5.510265e-11 -1 1 5.510265e-11 -31.154 692.3036)" class="st9" width="15.6" height="7.2"/>
			
				<rect x="330" y="365.9" transform="matrix(5.521900e-11 -1 1 5.521900e-11 -31.7659 707.3058)" class="st9" width="15.6" height="7.2"/>
			
				<rect x="330" y="350.3" transform="matrix(5.510265e-11 -1 1 5.510265e-11 -16.1518 691.6917)" class="st10" width="15.6" height="7.2"/>
			
				<rect x="341.1" y="369.8" transform="matrix(5.498630e-11 -1 1 5.498630e-11 -28.4744 718.4045)" class="st9" width="7.8" height="7.2"/>
			
				<rect x="337.2" y="358.1" transform="matrix(5.521900e-11 -1 1 5.521900e-11 -16.7638 706.6938)" class="st10" width="15.6" height="7.2"/>
			
				<rect x="319.5" y="338.6" transform="matrix(5.521900e-11 -1 1 5.521900e-11 -18.8313 665.5908)" class="st10" width="7.8" height="7.2"/>
			
				<rect x="322.8" y="342.5" transform="matrix(5.510265e-11 -1 1 5.510265e-11 -15.5398 676.6895)" class="st10" width="15.6" height="7.2"/>
			
				<rect x="330" y="334.7" transform="matrix(5.545259e-11 -1 1 5.545259e-11 -0.5376 676.0775)" class="st9" width="15.6" height="7.2"/>
			
				<rect x="337.2" y="342.5" transform="matrix(5.510265e-11 -1 1 5.510265e-11 -1.1496 691.0797)" class="st9" width="15.6" height="7.2"/>
			
				<rect x="286.8" y="365.9" transform="matrix(5.521900e-11 -1 1 5.521900e-11 -74.9365 664.1353)" class="st10" width="15.6" height="7.2"/>
			
				<rect x="297.9" y="369.8" transform="matrix(5.521900e-11 -1 1 5.521900e-11 -71.645 675.2339)" class="st10" width="7.8" height="7.2"/>
			
				<rect x="286.8" y="350.3" transform="matrix(5.510265e-11 -1 1 5.510265e-11 -59.3224 648.5211)" class="st9" width="15.6" height="7.2"/>
			
				<rect x="294" y="358.1" transform="matrix(5.510265e-11 -1 1 5.510265e-11 -59.9343 663.5233)" class="st9" width="15.6" height="7.2"/>
			
				<rect x="301.2" y="365.9" transform="matrix(5.510265e-11 -1 1 5.510265e-11 -60.5463 678.5255)" class="st9" width="15.6" height="7.2"/>
			
				<rect x="301.2" y="350.3" transform="matrix(5.510265e-11 -1 1 5.510265e-11 -44.9322 662.9113)" class="st10" width="15.6" height="7.2"/>
			
				<rect x="312.3" y="369.8" transform="matrix(5.498630e-11 -1 1 5.498630e-11 -57.2548 689.6241)" class="st9" width="7.8" height="7.2"/>
			
				<rect x="308.4" y="358.1" transform="matrix(5.521900e-11 -1 1 5.521900e-11 -45.5442 677.9135)" class="st10" width="15.6" height="7.2"/>
			
				<rect x="290.7" y="338.6" transform="matrix(5.498630e-11 -1 1 5.498630e-11 -47.6117 636.8104)" class="st10" width="7.8" height="7.2"/>
			
				<rect x="294" y="342.5" transform="matrix(5.510265e-11 -1 1 5.510265e-11 -44.3202 647.9091)" class="st10" width="15.6" height="7.2"/>
			
				<rect x="305.1" y="338.6" transform="matrix(5.521900e-11 -1 1 5.521900e-11 -33.2215 651.2006)" class="st9" width="7.8" height="7.2"/>
			
				<rect x="308.4" y="342.5" transform="matrix(5.510265e-11 -1 1 5.510265e-11 -29.93 662.2993)" class="st9" width="15.6" height="7.2"/>
			
				<rect x="258" y="365.9" transform="matrix(5.521900e-11 -1 1 5.521900e-11 -103.7169 635.3549)" class="st10" width="15.6" height="7.2"/>
			
				<rect x="269.1" y="369.8" transform="matrix(5.498630e-11 -1 1 5.498630e-11 -100.4254 646.4535)" class="st10" width="7.8" height="7.2"/>
			
				<rect x="258" y="350.3" transform="matrix(5.510265e-11 -1 1 5.510265e-11 -88.1028 619.7407)" class="st9" width="15.6" height="7.2"/>
			
				<rect x="265.2" y="358.1" transform="matrix(5.521900e-11 -1 1 5.521900e-11 -88.7147 634.7429)" class="st9" width="15.6" height="7.2"/>
			
				<rect x="272.4" y="365.9" transform="matrix(5.510265e-11 -1 1 5.510265e-11 -89.3267 649.7451)" class="st9" width="15.6" height="7.2"/>
			
				<rect x="272.4" y="350.3" transform="matrix(5.510265e-11 -1 1 5.510265e-11 -73.7126 634.1309)" class="st10" width="15.6" height="7.2"/>
			
				<rect x="283.5" y="369.8" transform="matrix(5.521900e-11 -1 1 5.521900e-11 -86.0352 660.8437)" class="st9" width="7.8" height="7.2"/>
			
				<rect x="279.6" y="358.1" transform="matrix(5.510265e-11 -1 1 5.510265e-11 -74.3245 649.1331)" class="st10" width="15.6" height="7.2"/>
			
				<rect x="261.9" y="338.6" transform="matrix(5.498630e-11 -1 1 5.498630e-11 -76.3921 608.03)" class="st10" width="7.8" height="7.2"/>
			
				<rect x="265.2" y="342.5" transform="matrix(5.510265e-11 -1 1 5.510265e-11 -73.1006 619.1287)" class="st10" width="15.6" height="7.2"/>
			
				<rect x="276.3" y="338.6" transform="matrix(5.521900e-11 -1 1 5.521900e-11 -62.0019 622.4202)" class="st9" width="7.8" height="7.2"/>
			
				<rect x="279.6" y="342.5" transform="matrix(5.510265e-11 -1 1 5.510265e-11 -58.7104 633.5189)" class="st9" width="15.6" height="7.2"/>
			
				<rect x="229.2" y="365.9" transform="matrix(5.510265e-11 -1 1 5.510265e-11 -132.4973 606.5745)" class="st10" width="15.6" height="7.2"/>
			
				<rect x="240.3" y="369.8" transform="matrix(5.498630e-11 -1 1 5.498630e-11 -129.2058 617.6731)" class="st10" width="7.8" height="7.2"/>
			
				<rect x="229.2" y="350.3" transform="matrix(5.510265e-11 -1 1 5.510265e-11 -116.8831 590.9603)" class="st9" width="15.6" height="7.2"/>
			
				<rect x="236.4" y="358.1" transform="matrix(5.521900e-11 -1 1 5.521900e-11 -117.4951 605.9625)" class="st9" width="15.6" height="7.2"/>
			
				<rect x="243.6" y="365.9" transform="matrix(5.510265e-11 -1 1 5.510265e-11 -118.1071 620.9647)" class="st9" width="15.6" height="7.2"/>
			
				<rect x="243.6" y="350.3" transform="matrix(5.510265e-11 -1 1 5.510265e-11 -102.493 605.3505)" class="st10" width="15.6" height="7.2"/>
			
				<rect x="254.7" y="369.8" transform="matrix(5.521900e-11 -1 1 5.521900e-11 -114.8156 632.0633)" class="st9" width="7.8" height="7.2"/>
			
				<rect x="250.8" y="358.1" transform="matrix(5.510265e-11 -1 1 5.510265e-11 -103.1049 620.3527)" class="st10" width="15.6" height="7.2"/>
			
				<rect x="233.1" y="338.6" transform="matrix(5.521900e-11 -1 1 5.521900e-11 -105.1725 579.2496)" class="st10" width="7.8" height="7.2"/>
			
				<rect x="236.4" y="342.5" transform="matrix(5.510265e-11 -1 1 5.510265e-11 -101.881 590.3483)" class="st10" width="15.6" height="7.2"/>
			
				<rect x="247.5" y="338.6" transform="matrix(5.521900e-11 -1 1 5.521900e-11 -90.7823 593.6398)" class="st9" width="7.8" height="7.2"/>
			
				<rect x="250.8" y="342.5" transform="matrix(5.510265e-11 -1 1 5.510265e-11 -87.4908 604.7385)" class="st9" width="15.6" height="7.2"/>
			
				<rect x="200.5" y="365.9" transform="matrix(5.510265e-11 -1 1 5.510265e-11 -161.2777 577.7941)" class="st10" width="15.6" height="7.2"/>
			
				<rect x="211.5" y="369.8" transform="matrix(5.498630e-11 -1 1 5.498630e-11 -157.9862 588.8927)" class="st10" width="7.8" height="7.2"/>
			
				<rect x="200.5" y="350.3" transform="matrix(5.510265e-11 -1 1 5.510265e-11 -145.6635 562.1799)" class="st9" width="15.6" height="7.2"/>
			
				<rect x="207.6" y="358.1" transform="matrix(5.521900e-11 -1 1 5.521900e-11 -146.2755 577.1821)" class="st9" width="15.6" height="7.2"/>
			
				<rect x="214.8" y="365.9" transform="matrix(5.510265e-11 -1 1 5.510265e-11 -146.8875 592.1843)" class="st9" width="15.6" height="7.2"/>
			
				<rect x="214.8" y="350.3" transform="matrix(5.521900e-11 -1 1 5.521900e-11 -131.2733 576.5701)" class="st10" width="15.6" height="7.2"/>
			
				<rect x="225.9" y="369.8" transform="matrix(5.521900e-11 -1 1 5.521900e-11 -143.596 603.2829)" class="st9" width="7.8" height="7.2"/>
			
				<rect x="222" y="358.1" transform="matrix(5.510265e-11 -1 1 5.510265e-11 -131.8853 591.5723)" class="st10" width="15.6" height="7.2"/>
			
				<rect x="204.4" y="338.6" transform="matrix(5.521900e-11 -1 1 5.521900e-11 -133.9529 550.4692)" class="st10" width="7.8" height="7.2"/>
			
				<rect x="207.6" y="342.5" transform="matrix(5.510265e-11 -1 1 5.510265e-11 -130.6613 561.5679)" class="st10" width="15.6" height="7.2"/>
			
				<rect x="218.7" y="338.6" transform="matrix(5.498630e-11 -1 1 5.498630e-11 -119.5627 564.8594)" class="st9" width="7.8" height="7.2"/>
			
				<rect x="222" y="342.5" transform="matrix(5.510265e-11 -1 1 5.510265e-11 -116.2711 575.9581)" class="st9" width="15.6" height="7.2"/>
			
				<rect x="185.3" y="365.1" transform="matrix(5.516127e-11 -1 1 5.516127e-11 -176.4674 562.6044)" class="st9" width="15.6" height="8.8"/>
			
				<rect x="185.3" y="349.5" transform="matrix(5.510265e-11 -1 1 5.510265e-11 -160.8532 546.9902)" class="st10" width="15.6" height="8.8"/>
			
				<rect x="197.2" y="369.8" transform="matrix(5.498630e-11 -1 1 5.498630e-11 -172.3764 574.5025)" class="st9" width="7.8" height="7.2"/>
			
				<rect x="193.3" y="358.1" transform="matrix(5.521900e-11 -1 1 5.521900e-11 -160.6657 562.7919)" class="st10" width="15.6" height="7.2"/>
			
				<rect x="189.2" y="337.8" transform="matrix(5.521900e-11 -1 1 5.521900e-11 -149.1425 535.2795)" class="st9" width="7.8" height="8.8"/>
			
				<rect x="193.3" y="342.5" transform="matrix(5.510265e-11 -1 1 5.510265e-11 -145.0515 547.1777)" class="st9" width="15.6" height="7.2"/>
			
				<rect x="17.4" y="365.9" transform="matrix(-5.510253e-11 -1 1 -5.510253e-11 -344.3531 394.7188)" class="st10" width="15.6" height="7.2"/>
			
				<rect x="14.1" y="369.8" transform="matrix(-5.510253e-11 -1 1 -5.510253e-11 -355.4517 391.4272)" class="st10" width="7.8" height="7.2"/>
			
				<rect x="17.4" y="350.3" transform="matrix(-5.516115e-11 -1 1 -5.516115e-11 -328.7389 379.1046)" class="st9" width="15.6" height="7.2"/>
			
				<rect x="10.2" y="358.1" transform="matrix(-5.516115e-11 -1 1 -5.516115e-11 -343.7411 379.7166)" class="st9" width="15.6" height="7.2"/>
			
				<rect x="3" y="365.9" transform="matrix(-5.510253e-11 -1 1 -5.510253e-11 -358.7433 380.3286)" class="st9" width="15.6" height="7.2"/>
			
				<rect x="3" y="350.3" transform="matrix(-5.516115e-11 -1 1 -5.516115e-11 -343.1291 364.7144)" class="st10" width="15.6" height="7.2"/>
			
				<rect x="-0.3" y="369.8" transform="matrix(-5.510253e-11 -1 1 -5.510253e-11 -369.8419 377.037)" class="st9" width="7.8" height="7.2"/>
			
				<rect x="-4.2" y="358.1" transform="matrix(-5.516115e-11 -1 1 -5.516115e-11 -358.1313 365.3264)" class="st10" width="15.6" height="7.2"/>
			
				<rect x="17.4" y="334.7" transform="matrix(-5.516115e-11 -1 1 -5.516115e-11 -313.1247 363.4904)" class="st10" width="15.6" height="7.2"/>
			
				<rect x="10.2" y="342.5" transform="matrix(-5.510253e-11 -1 1 -5.510253e-11 -328.1269 364.1024)" class="st10" width="15.6" height="7.2"/>
			
				<rect x="3" y="334.7" transform="matrix(-5.516115e-11 -1 1 -5.516115e-11 -327.5149 349.1002)" class="st9" width="15.6" height="7.2"/>
			
				<rect x="-4.2" y="342.5" transform="matrix(-5.510253e-11 -1 1 -5.510253e-11 -342.5171 349.7122)" class="st9" width="15.6" height="7.2"/>
			
				<rect x="46.2" y="365.9" transform="matrix(-5.510253e-11 -1 1 -5.510253e-11 -315.5726 423.4991)" class="st10" width="15.6" height="7.2"/>
			
				<rect x="42.9" y="369.8" transform="matrix(-5.510253e-11 -1 1 -5.510253e-11 -326.6713 420.2076)" class="st10" width="7.8" height="7.2"/>
			
				<rect x="46.2" y="350.3" transform="matrix(-5.516115e-11 -1 1 -5.516115e-11 -299.9585 407.8849)" class="st9" width="15.6" height="7.2"/>
			
				<rect x="39" y="358.1" transform="matrix(-5.516115e-11 -1 1 -5.516115e-11 -314.9607 408.4969)" class="st9" width="15.6" height="7.2"/>
			
				<rect x="31.8" y="365.9" transform="matrix(-5.510253e-11 -1 1 -5.510253e-11 -329.9628 409.1089)" class="st9" width="15.6" height="7.2"/>
			
				<rect x="31.8" y="350.3" transform="matrix(-5.516115e-11 -1 1 -5.516115e-11 -314.3487 393.4948)" class="st10" width="15.6" height="7.2"/>
			
				<rect x="28.5" y="369.8" transform="matrix(-5.510253e-11 -1 1 -5.510253e-11 -341.0615 405.8174)" class="st9" width="7.8" height="7.2"/>
			
				<rect x="24.6" y="358.1" transform="matrix(-5.516115e-11 -1 1 -5.516115e-11 -329.3509 394.1068)" class="st10" width="15.6" height="7.2"/>
			
				<rect x="50.1" y="338.6" transform="matrix(-5.510253e-11 -1 1 -5.510253e-11 -288.2478 396.1743)" class="st10" width="7.8" height="7.2"/>
			
				<rect x="39" y="342.5" transform="matrix(-5.510253e-11 -1 1 -5.510253e-11 -299.3465 392.8828)" class="st10" width="15.6" height="7.2"/>
			
				<rect x="31.8" y="334.7" transform="matrix(-5.516115e-11 -1 1 -5.516115e-11 -298.7345 377.8806)" class="st9" width="15.6" height="7.2"/>
			
				<rect x="24.6" y="342.5" transform="matrix(-5.510253e-11 -1 1 -5.510253e-11 -313.7367 378.4926)" class="st9" width="15.6" height="7.2"/>
			
				<rect x="74.9" y="365.9" transform="matrix(-5.510253e-11 -1 1 -5.510253e-11 -286.7922 452.2795)" class="st10" width="15.6" height="7.2"/>
			
				<rect x="71.6" y="369.8" transform="matrix(-5.510253e-11 -1 1 -5.510253e-11 -297.8909 448.988)" class="st10" width="7.8" height="7.2"/>
			
				<rect x="74.9" y="350.3" transform="matrix(-5.516115e-11 -1 1 -5.516115e-11 -271.1781 436.6653)" class="st9" width="15.6" height="7.2"/>
			
				<rect x="67.7" y="358.1" transform="matrix(-5.516115e-11 -1 1 -5.516115e-11 -286.1802 437.2773)" class="st9" width="15.6" height="7.2"/>
			
				<rect x="60.5" y="365.9" transform="matrix(-5.510253e-11 -1 1 -5.510253e-11 -301.1824 437.8893)" class="st9" width="15.6" height="7.2"/>
			
				<rect x="60.5" y="350.3" transform="matrix(-5.516115e-11 -1 1 -5.516115e-11 -285.5683 422.2751)" class="st10" width="15.6" height="7.2"/>
			
				<rect x="57.3" y="369.8" transform="matrix(-5.510253e-11 -1 1 -5.510253e-11 -312.2811 434.5978)" class="st9" width="7.8" height="7.2"/>
			
				<rect x="53.4" y="358.1" transform="matrix(-5.516115e-11 -1 1 -5.516115e-11 -300.5705 422.8871)" class="st10" width="15.6" height="7.2"/>
			
				<rect x="78.8" y="338.6" transform="matrix(-5.510253e-11 -1 1 -5.510253e-11 -259.4674 424.9547)" class="st10" width="7.8" height="7.2"/>
			
				<rect x="67.7" y="342.5" transform="matrix(-5.510253e-11 -1 1 -5.510253e-11 -270.5661 421.6631)" class="st10" width="15.6" height="7.2"/>
			
				<rect x="64.4" y="338.6" transform="matrix(-5.510253e-11 -1 1 -5.510253e-11 -273.8576 410.5645)" class="st9" width="7.8" height="7.2"/>
			
				<rect x="53.4" y="342.5" transform="matrix(-5.510253e-11 -1 1 -5.510253e-11 -284.9563 407.2729)" class="st9" width="15.6" height="7.2"/>
			
				<rect x="103.7" y="365.9" transform="matrix(-5.510253e-11 -1 1 -5.510253e-11 -258.0118 481.0599)" class="st10" width="15.6" height="7.2"/>
			
				<rect x="100.4" y="369.8" transform="matrix(-5.510253e-11 -1 1 -5.510253e-11 -269.1105 477.7684)" class="st10" width="7.8" height="7.2"/>
			
				<rect x="103.7" y="350.3" transform="matrix(-5.516115e-11 -1 1 -5.516115e-11 -242.3977 465.4457)" class="st9" width="15.6" height="7.2"/>
			
				<rect x="96.5" y="358.1" transform="matrix(-5.510253e-11 -1 1 -5.510253e-11 -257.3998 466.0577)" class="st9" width="15.6" height="7.2"/>
			
				<rect x="89.3" y="365.9" transform="matrix(-5.510253e-11 -1 1 -5.510253e-11 -272.402 466.6697)" class="st9" width="15.6" height="7.2"/>
			
				<rect x="89.3" y="350.3" transform="matrix(-5.516115e-11 -1 1 -5.516115e-11 -256.7879 451.0555)" class="st10" width="15.6" height="7.2"/>
			
				<rect x="86" y="369.8" transform="matrix(-5.510253e-11 -1 1 -5.510253e-11 -283.5007 463.3782)" class="st9" width="7.8" height="7.2"/>
			
				<rect x="82.1" y="358.1" transform="matrix(-5.516115e-11 -1 1 -5.516115e-11 -271.79 451.6675)" class="st10" width="15.6" height="7.2"/>
			
				<rect x="107.6" y="338.6" transform="matrix(-5.510253e-11 -1 1 -5.510253e-11 -230.687 453.7351)" class="st10" width="7.8" height="7.2"/>
			
				<rect x="96.5" y="342.5" transform="matrix(-5.516115e-11 -1 1 -5.516115e-11 -241.7857 450.4435)" class="st10" width="15.6" height="7.2"/>
			
				<rect x="93.2" y="338.6" transform="matrix(-5.510253e-11 -1 1 -5.510253e-11 -245.0772 439.3449)" class="st9" width="7.8" height="7.2"/>
			
				<rect x="82.1" y="342.5" transform="matrix(-5.510253e-11 -1 1 -5.510253e-11 -256.1759 436.0533)" class="st9" width="15.6" height="7.2"/>
			
				<rect x="132.5" y="365.9" transform="matrix(-5.510253e-11 -1 1 -5.510253e-11 -229.2315 509.8403)" class="st10" width="15.6" height="7.2"/>
			
				<rect x="129.2" y="369.8" transform="matrix(-5.510253e-11 -1 1 -5.510253e-11 -240.3301 506.5488)" class="st10" width="7.8" height="7.2"/>
			
				<rect x="132.5" y="350.3" transform="matrix(-5.516115e-11 -1 1 -5.516115e-11 -213.6173 494.2261)" class="st9" width="15.6" height="7.2"/>
			
				<rect x="125.3" y="358.1" transform="matrix(-5.510253e-11 -1 1 -5.510253e-11 -228.6195 494.8381)" class="st9" width="15.6" height="7.2"/>
			
				<rect x="118.1" y="365.9" transform="matrix(-5.510253e-11 -1 1 -5.510253e-11 -243.6217 495.4501)" class="st9" width="15.6" height="7.2"/>
			
				<rect x="118.1" y="350.3" transform="matrix(-5.516115e-11 -1 1 -5.516115e-11 -228.0075 479.8359)" class="st10" width="15.6" height="7.2"/>
			
				<rect x="114.8" y="369.8" transform="matrix(-5.510253e-11 -1 1 -5.510253e-11 -254.7203 492.1586)" class="st9" width="7.8" height="7.2"/>
			
				<rect x="110.9" y="358.1" transform="matrix(-5.510253e-11 -1 1 -5.510253e-11 -243.0097 480.4479)" class="st10" width="15.6" height="7.2"/>
			
				<rect x="136.4" y="338.6" transform="matrix(-5.510253e-11 -1 1 -5.510253e-11 -201.9066 482.5155)" class="st10" width="7.8" height="7.2"/>
			
				<rect x="125.3" y="342.5" transform="matrix(-5.516115e-11 -1 1 -5.516115e-11 -213.0053 479.2239)" class="st10" width="15.6" height="7.2"/>
			
				<rect x="122" y="338.6" transform="matrix(-5.510253e-11 -1 1 -5.510253e-11 -216.2968 468.1253)" class="st9" width="7.8" height="7.2"/>
			
				<rect x="110.9" y="342.5" transform="matrix(-5.516115e-11 -1 1 -5.516115e-11 -227.3955 464.8337)" class="st9" width="15.6" height="7.2"/>
			
				<rect x="161.3" y="365.9" transform="matrix(-5.516115e-11 -1 1 -5.516115e-11 -200.451 538.6207)" class="st10" width="15.6" height="7.2"/>
			
				<rect x="158" y="369.8" transform="matrix(-5.521888e-11 -1 1 -5.521888e-11 -211.5497 535.3292)" class="st10" width="7.8" height="7.2"/>
			
				<rect x="161.3" y="350.3" transform="matrix(-5.516115e-11 -1 1 -5.516115e-11 -184.8369 523.0065)" class="st9" width="15.6" height="7.2"/>
			
				<rect x="154.1" y="358.1" transform="matrix(-5.510253e-11 -1 1 -5.510253e-11 -199.8391 523.6185)" class="st9" width="15.6" height="7.2"/>
			
				<rect x="146.9" y="365.9" transform="matrix(-5.510253e-11 -1 1 -5.510253e-11 -214.8412 524.2305)" class="st9" width="15.6" height="7.2"/>
			
				<rect x="146.9" y="350.3" transform="matrix(-5.516115e-11 -1 1 -5.516115e-11 -199.2271 508.6163)" class="st10" width="15.6" height="7.2"/>
			
				<rect x="143.6" y="369.8" transform="matrix(-5.510253e-11 -1 1 -5.510253e-11 -225.9399 520.939)" class="st9" width="7.8" height="7.2"/>
			
				<rect x="139.7" y="358.1" transform="matrix(-5.510253e-11 -1 1 -5.510253e-11 -214.2293 509.2283)" class="st10" width="15.6" height="7.2"/>
			
				<rect x="165.2" y="338.6" transform="matrix(-5.510253e-11 -1 1 -5.510253e-11 -173.1262 511.2959)" class="st10" width="7.8" height="7.2"/>
			
				<rect x="154.1" y="342.5" transform="matrix(-5.516115e-11 -1 1 -5.516115e-11 -184.2249 508.0043)" class="st10" width="15.6" height="7.2"/>
			
				<rect x="150.8" y="338.6" transform="matrix(-5.510253e-11 -1 1 -5.510253e-11 -187.5164 496.9057)" class="st9" width="7.8" height="7.2"/>
			
				<rect x="139.7" y="342.5" transform="matrix(-5.516115e-11 -1 1 -5.516115e-11 -198.6151 493.6141)" class="st9" width="15.6" height="7.2"/>
			
				<rect x="176.5" y="365.1" transform="matrix(-5.516115e-11 -1 1 -5.516115e-11 -185.2614 553.8104)" class="st9" width="15.6" height="8.8"/>
			
				<rect x="176.5" y="349.5" transform="matrix(-5.516115e-11 -1 1 -5.516115e-11 -169.6472 538.1962)" class="st10" width="15.6" height="8.8"/>
			
				<rect x="172.4" y="369.8" transform="matrix(-5.521888e-11 -1 1 -5.521888e-11 -197.1595 549.7194)" class="st9" width="7.8" height="7.2"/>
			
				<rect x="168.5" y="358.1" transform="matrix(-5.510253e-11 -1 1 -5.510253e-11 -185.4489 538.0087)" class="st10" width="15.6" height="7.2"/>
			
				<rect x="180.4" y="337.8" transform="matrix(-5.510253e-11 -1 1 -5.510253e-11 -157.9366 526.4855)" class="st9" width="7.8" height="8.8"/>
			
				<rect x="168.5" y="342.5" transform="matrix(-5.516115e-11 -1 1 -5.516115e-11 -169.8347 522.3945)" class="st9" width="15.6" height="7.2"/>
		</g>
		<g>
			
				<rect x="344.4" y="4.2" transform="matrix(5.510241e-11 1 -1 5.510241e-11 359.9672 -344.3531)" class="st10" width="15.6" height="7.2"/>
			
				<rect x="355.5" y="0.3" transform="matrix(5.521876e-11 1 -1 5.521876e-11 363.2588 -355.4517)" class="st10" width="7.8" height="7.2"/>
			
				<rect x="344.4" y="19.8" transform="matrix(5.510241e-11 1 -1 5.510241e-11 375.5814 -328.7389)" class="st9" width="15.6" height="7.2"/>
			
				<rect x="351.5" y="12" transform="matrix(5.510241e-11 1 -1 5.510241e-11 374.9694 -343.7411)" class="st9" width="15.6" height="7.2"/>
			
				<rect x="358.7" y="4.2" transform="matrix(5.521876e-11 1 -1 5.521876e-11 374.3574 -358.7433)" class="st9" width="15.6" height="7.2"/>
			
				<rect x="358.7" y="19.8" transform="matrix(5.510241e-11 1 -1 5.510241e-11 389.9716 -343.1291)" class="st10" width="15.6" height="7.2"/>
			
				<rect x="369.8" y="0.3" transform="matrix(5.521876e-11 1 -1 5.521876e-11 377.649 -369.8419)" class="st9" width="7.8" height="7.2"/>
			
				<rect x="365.9" y="12" transform="matrix(5.510241e-11 1 -1 5.510241e-11 389.3596 -358.1313)" class="st10" width="15.6" height="7.2"/>
			
				<rect x="344.4" y="35.4" transform="matrix(5.556870e-11 1 -1 5.556870e-11 391.1956 -313.1247)" class="st10" width="15.6" height="7.2"/>
			
				<rect x="351.5" y="27.6" transform="matrix(5.521876e-11 1 -1 5.521876e-11 390.5836 -328.1269)" class="st10" width="15.6" height="7.2"/>
			
				<rect x="358.7" y="35.4" transform="matrix(5.545235e-11 1 -1 5.545235e-11 405.5858 -327.5149)" class="st9" width="15.6" height="7.2"/>
			
				<rect x="365.9" y="27.6" transform="matrix(5.510241e-11 1 -1 5.510241e-11 404.9738 -342.5171)" class="st9" width="15.6" height="7.2"/>
			
				<rect x="315.6" y="4.2" transform="matrix(5.521876e-11 1 -1 5.521876e-11 331.1868 -315.5726)" class="st10" width="15.6" height="7.2"/>
			
				<rect x="326.7" y="0.3" transform="matrix(5.521876e-11 1 -1 5.521876e-11 334.4784 -326.6713)" class="st10" width="7.8" height="7.2"/>
			
				<rect x="315.6" y="19.8" transform="matrix(5.510241e-11 1 -1 5.510241e-11 346.801 -299.9585)" class="st9" width="15.6" height="7.2"/>
			
				<rect x="322.8" y="12" transform="matrix(5.510241e-11 1 -1 5.510241e-11 346.189 -314.9607)" class="st9" width="15.6" height="7.2"/>
			
				<rect x="330" y="4.2" transform="matrix(5.521876e-11 1 -1 5.521876e-11 345.577 -329.9628)" class="st9" width="15.6" height="7.2"/>
			
				<rect x="330" y="19.8" transform="matrix(5.510241e-11 1 -1 5.510241e-11 361.1912 -314.3487)" class="st10" width="15.6" height="7.2"/>
			
				<rect x="341.1" y="0.3" transform="matrix(5.498605e-11 1 -1 5.498605e-11 348.8686 -341.0615)" class="st9" width="7.8" height="7.2"/>
			
				<rect x="337.2" y="12" transform="matrix(5.521876e-11 1 -1 5.521876e-11 360.5792 -329.3509)" class="st10" width="15.6" height="7.2"/>
			
				<rect x="319.5" y="31.5" transform="matrix(5.521876e-11 1 -1 5.521876e-11 358.5117 -288.2478)" class="st10" width="7.8" height="7.2"/>
			
				<rect x="322.8" y="27.6" transform="matrix(5.510241e-11 1 -1 5.510241e-11 361.8032 -299.3465)" class="st10" width="15.6" height="7.2"/>
			
				<rect x="330" y="35.4" transform="matrix(5.545235e-11 1 -1 5.545235e-11 376.8054 -298.7345)" class="st9" width="15.6" height="7.2"/>
			
				<rect x="337.2" y="27.6" transform="matrix(5.510241e-11 1 -1 5.510241e-11 376.1934 -313.7367)" class="st9" width="15.6" height="7.2"/>
			
				<rect x="286.8" y="4.2" transform="matrix(5.521876e-11 1 -1 5.521876e-11 302.4064 -286.7922)" class="st10" width="15.6" height="7.2"/>
			
				<rect x="297.9" y="0.3" transform="matrix(5.521876e-11 1 -1 5.521876e-11 305.698 -297.8909)" class="st10" width="7.8" height="7.2"/>
			
				<rect x="286.8" y="19.8" transform="matrix(5.510241e-11 1 -1 5.510241e-11 318.0206 -271.1781)" class="st9" width="15.6" height="7.2"/>
			
				<rect x="294" y="12" transform="matrix(5.510241e-11 1 -1 5.510241e-11 317.4086 -286.1802)" class="st9" width="15.6" height="7.2"/>
			
				<rect x="301.2" y="4.2" transform="matrix(5.510241e-11 1 -1 5.510241e-11 316.7966 -301.1824)" class="st9" width="15.6" height="7.2"/>
			
				<rect x="301.2" y="19.8" transform="matrix(5.510241e-11 1 -1 5.510241e-11 332.4108 -285.5683)" class="st10" width="15.6" height="7.2"/>
			
				<rect x="312.3" y="0.3" transform="matrix(5.498605e-11 1 -1 5.498605e-11 320.0882 -312.2811)" class="st9" width="7.8" height="7.2"/>
			
				<rect x="308.4" y="12" transform="matrix(5.521876e-11 1 -1 5.521876e-11 331.7988 -300.5705)" class="st10" width="15.6" height="7.2"/>
			
				<rect x="290.7" y="31.5" transform="matrix(5.498605e-11 1 -1 5.498605e-11 329.7313 -259.4674)" class="st10" width="7.8" height="7.2"/>
			
				<rect x="294" y="27.6" transform="matrix(5.510241e-11 1 -1 5.510241e-11 333.0228 -270.5661)" class="st10" width="15.6" height="7.2"/>
			
				<rect x="305.1" y="31.5" transform="matrix(5.521876e-11 1 -1 5.521876e-11 344.1215 -273.8576)" class="st9" width="7.8" height="7.2"/>
			
				<rect x="308.4" y="27.6" transform="matrix(5.510241e-11 1 -1 5.510241e-11 347.413 -284.9563)" class="st9" width="15.6" height="7.2"/>
			
				<rect x="258" y="4.2" transform="matrix(5.521876e-11 1 -1 5.521876e-11 273.626 -258.0118)" class="st10" width="15.6" height="7.2"/>
			
				<rect x="269.1" y="0.3" transform="matrix(5.498605e-11 1 -1 5.498605e-11 276.9176 -269.1105)" class="st10" width="7.8" height="7.2"/>
			
				<rect x="258" y="19.8" transform="matrix(5.510241e-11 1 -1 5.510241e-11 289.2402 -242.3977)" class="st9" width="15.6" height="7.2"/>
			
				<rect x="265.2" y="12" transform="matrix(5.521876e-11 1 -1 5.521876e-11 288.6282 -257.3998)" class="st9" width="15.6" height="7.2"/>
			
				<rect x="272.4" y="4.2" transform="matrix(5.510241e-11 1 -1 5.510241e-11 288.0162 -272.402)" class="st9" width="15.6" height="7.2"/>
			
				<rect x="272.4" y="19.8" transform="matrix(5.510241e-11 1 -1 5.510241e-11 303.6304 -256.7879)" class="st10" width="15.6" height="7.2"/>
			
				<rect x="283.5" y="0.3" transform="matrix(5.521876e-11 1 -1 5.521876e-11 291.3078 -283.5007)" class="st9" width="7.8" height="7.2"/>
			
				<rect x="279.6" y="12" transform="matrix(5.510241e-11 1 -1 5.510241e-11 303.0184 -271.79)" class="st10" width="15.6" height="7.2"/>
			
				<rect x="261.9" y="31.5" transform="matrix(5.498605e-11 1 -1 5.498605e-11 300.9509 -230.687)" class="st10" width="7.8" height="7.2"/>
			
				<rect x="265.2" y="27.6" transform="matrix(5.510241e-11 1 -1 5.510241e-11 304.2424 -241.7857)" class="st10" width="15.6" height="7.2"/>
			
				<rect x="276.3" y="31.5" transform="matrix(5.521876e-11 1 -1 5.521876e-11 315.3411 -245.0772)" class="st9" width="7.8" height="7.2"/>
			
				<rect x="279.6" y="27.6" transform="matrix(5.510241e-11 1 -1 5.510241e-11 318.6326 -256.1759)" class="st9" width="15.6" height="7.2"/>
			
				<rect x="229.2" y="4.2" transform="matrix(5.510241e-11 1 -1 5.510241e-11 244.8456 -229.2315)" class="st10" width="15.6" height="7.2"/>
			
				<rect x="240.3" y="0.3" transform="matrix(5.498605e-11 1 -1 5.498605e-11 248.1372 -240.3301)" class="st10" width="7.8" height="7.2"/>
			
				<rect x="229.2" y="19.8" transform="matrix(5.510241e-11 1 -1 5.510241e-11 260.4598 -213.6173)" class="st9" width="15.6" height="7.2"/>
			
				<rect x="236.4" y="12" transform="matrix(5.521876e-11 1 -1 5.521876e-11 259.8478 -228.6195)" class="st9" width="15.6" height="7.2"/>
			
				<rect x="243.6" y="4.2" transform="matrix(5.510241e-11 1 -1 5.510241e-11 259.2358 -243.6217)" class="st9" width="15.6" height="7.2"/>
			
				<rect x="243.6" y="19.8" transform="matrix(5.510241e-11 1 -1 5.510241e-11 274.85 -228.0075)" class="st10" width="15.6" height="7.2"/>
			
				<rect x="254.7" y="0.3" transform="matrix(5.521876e-11 1 -1 5.521876e-11 262.5274 -254.7203)" class="st9" width="7.8" height="7.2"/>
			
				<rect x="250.8" y="12" transform="matrix(5.510241e-11 1 -1 5.510241e-11 274.238 -243.0097)" class="st10" width="15.6" height="7.2"/>
			
				<rect x="233.1" y="31.5" transform="matrix(5.521876e-11 1 -1 5.521876e-11 272.1705 -201.9066)" class="st10" width="7.8" height="7.2"/>
			
				<rect x="236.4" y="27.6" transform="matrix(5.510241e-11 1 -1 5.510241e-11 275.462 -213.0053)" class="st10" width="15.6" height="7.2"/>
			
				<rect x="247.5" y="31.5" transform="matrix(5.521876e-11 1 -1 5.521876e-11 286.5607 -216.2968)" class="st9" width="7.8" height="7.2"/>
			
				<rect x="250.8" y="27.6" transform="matrix(5.510241e-11 1 -1 5.510241e-11 289.8522 -227.3955)" class="st9" width="15.6" height="7.2"/>
			
				<rect x="200.5" y="4.2" transform="matrix(5.510241e-11 1 -1 5.510241e-11 216.0652 -200.451)" class="st10" width="15.6" height="7.2"/>
			
				<rect x="211.5" y="0.3" transform="matrix(5.498605e-11 1 -1 5.498605e-11 219.3568 -211.5497)" class="st10" width="7.8" height="7.2"/>
			
				<rect x="200.5" y="19.8" transform="matrix(5.510241e-11 1 -1 5.510241e-11 231.6794 -184.8369)" class="st9" width="15.6" height="7.2"/>
			
				<rect x="207.6" y="12" transform="matrix(5.521876e-11 1 -1 5.521876e-11 231.0674 -199.8391)" class="st9" width="15.6" height="7.2"/>
			
				<rect x="214.8" y="4.2" transform="matrix(5.510241e-11 1 -1 5.510241e-11 230.4554 -214.8412)" class="st9" width="15.6" height="7.2"/>
			
				<rect x="214.8" y="19.8" transform="matrix(5.521876e-11 1 -1 5.521876e-11 246.0696 -199.2271)" class="st10" width="15.6" height="7.2"/>
			
				<rect x="225.9" y="0.3" transform="matrix(5.521876e-11 1 -1 5.521876e-11 233.747 -225.9399)" class="st9" width="7.8" height="7.2"/>
			
				<rect x="222" y="12" transform="matrix(5.510241e-11 1 -1 5.510241e-11 245.4576 -214.2293)" class="st10" width="15.6" height="7.2"/>
			
				<rect x="204.4" y="31.5" transform="matrix(5.521876e-11 1 -1 5.521876e-11 243.3901 -173.1262)" class="st10" width="7.8" height="7.2"/>
			
				<rect x="207.6" y="27.6" transform="matrix(5.510241e-11 1 -1 5.510241e-11 246.6816 -184.2249)" class="st10" width="15.6" height="7.2"/>
			
				<rect x="218.7" y="31.5" transform="matrix(5.498605e-11 1 -1 5.498605e-11 257.7803 -187.5164)" class="st9" width="7.8" height="7.2"/>
			
				<rect x="222" y="27.6" transform="matrix(5.510241e-11 1 -1 5.510241e-11 261.0718 -198.6151)" class="st9" width="15.6" height="7.2"/>
			
				<rect x="185.3" y="3.4" transform="matrix(5.516103e-11 1 -1 5.516103e-11 200.8756 -185.2614)" class="st9" width="15.6" height="8.8"/>
			
				<rect x="185.3" y="19" transform="matrix(5.510241e-11 1 -1 5.510241e-11 216.4898 -169.6472)" class="st10" width="15.6" height="8.8"/>
			
				<rect x="197.2" y="0.3" transform="matrix(5.498605e-11 1 -1 5.498605e-11 204.9666 -197.1595)" class="st9" width="7.8" height="7.2"/>
			
				<rect x="193.3" y="12" transform="matrix(5.521876e-11 1 -1 5.521876e-11 216.6772 -185.4489)" class="st10" width="15.6" height="7.2"/>
			
				<rect x="189.2" y="30.7" transform="matrix(5.521876e-11 1 -1 5.521876e-11 228.2004 -157.9366)" class="st9" width="7.8" height="8.8"/>
			
				<rect x="193.3" y="27.6" transform="matrix(5.510241e-11 1 -1 5.510241e-11 232.2914 -169.8347)" class="st9" width="15.6" height="7.2"/>
			
				<rect x="17.4" y="4.2" transform="matrix(-5.510277e-11 1 -1 -5.510277e-11 32.9899 -17.3758)" class="st10" width="15.6" height="7.2"/>
			
				<rect x="14.1" y="0.3" transform="matrix(-5.510277e-11 1 -1 -5.510277e-11 21.8913 -14.0842)" class="st10" width="7.8" height="7.2"/>
			
				<rect x="17.4" y="19.8" transform="matrix(-5.516139e-11 1 -1 -5.516139e-11 48.6041 -1.7616)" class="st9" width="15.6" height="7.2"/>
			
				<rect x="10.2" y="12" transform="matrix(-5.516139e-11 1 -1 -5.516139e-11 33.6019 -2.3736)" class="st9" width="15.6" height="7.2"/>
			
				<rect x="3" y="4.2" transform="matrix(-5.510277e-11 1 -1 -5.510277e-11 18.5997 -2.9856)" class="st9" width="15.6" height="7.2"/>
			
				<rect x="3" y="19.8" transform="matrix(-5.516139e-11 1 -1 -5.516139e-11 34.2139 12.6286)" class="st10" width="15.6" height="7.2"/>
			
				<rect x="-0.3" y="0.3" transform="matrix(-5.510277e-11 1 -1 -5.510277e-11 7.5011 0.306)" class="st9" width="7.8" height="7.2"/>
			
				<rect x="-4.2" y="12" transform="matrix(-5.516139e-11 1 -1 -5.516139e-11 19.2117 12.0166)" class="st10" width="15.6" height="7.2"/>
			
				<rect x="17.4" y="35.4" transform="matrix(-5.516139e-11 1 -1 -5.516139e-11 64.2183 13.8526)" class="st10" width="15.6" height="7.2"/>
			
				<rect x="10.2" y="27.6" transform="matrix(-5.510277e-11 1 -1 -5.510277e-11 49.2161 13.2406)" class="st10" width="15.6" height="7.2"/>
			
				<rect x="3" y="35.4" transform="matrix(-5.516139e-11 1 -1 -5.516139e-11 49.8281 28.2428)" class="st9" width="15.6" height="7.2"/>
			
				<rect x="-4.2" y="27.6" transform="matrix(-5.510277e-11 1 -1 -5.510277e-11 34.8259 27.6308)" class="st9" width="15.6" height="7.2"/>
			
				<rect x="46.2" y="4.2" transform="matrix(-5.510277e-11 1 -1 -5.510277e-11 61.7703 -46.1561)" class="st10" width="15.6" height="7.2"/>
			
				<rect x="42.9" y="0.3" transform="matrix(-5.510277e-11 1 -1 -5.510277e-11 50.6717 -42.8646)" class="st10" width="7.8" height="7.2"/>
			
				<rect x="46.2" y="19.8" transform="matrix(-5.516139e-11 1 -1 -5.516139e-11 77.3845 -30.542)" class="st9" width="15.6" height="7.2"/>
			
				<rect x="39" y="12" transform="matrix(-5.516139e-11 1 -1 -5.516139e-11 62.3823 -31.154)" class="st9" width="15.6" height="7.2"/>
			
				<rect x="31.8" y="4.2" transform="matrix(-5.510277e-11 1 -1 -5.510277e-11 47.3801 -31.7659)" class="st9" width="15.6" height="7.2"/>
			
				<rect x="31.8" y="19.8" transform="matrix(-5.516139e-11 1 -1 -5.516139e-11 62.9943 -16.1518)" class="st10" width="15.6" height="7.2"/>
			
				<rect x="28.5" y="0.3" transform="matrix(-5.510277e-11 1 -1 -5.510277e-11 36.2815 -28.4744)" class="st9" width="7.8" height="7.2"/>
			
				<rect x="24.6" y="12" transform="matrix(-5.516139e-11 1 -1 -5.516139e-11 47.9921 -16.7638)" class="st10" width="15.6" height="7.2"/>
			
				<rect x="50.1" y="31.5" transform="matrix(-5.510277e-11 1 -1 -5.510277e-11 89.0952 -18.8313)" class="st10" width="7.8" height="7.2"/>
			
				<rect x="39" y="27.6" transform="matrix(-5.510277e-11 1 -1 -5.510277e-11 77.9965 -15.5398)" class="st10" width="15.6" height="7.2"/>
			
				<rect x="31.8" y="35.4" transform="matrix(-5.516139e-11 1 -1 -5.516139e-11 78.6085 -0.5376)" class="st9" width="15.6" height="7.2"/>
			
				<rect x="24.6" y="27.6" transform="matrix(-5.510277e-11 1 -1 -5.510277e-11 63.6063 -1.1496)" class="st9" width="15.6" height="7.2"/>
			
				<rect x="74.9" y="4.2" transform="matrix(-5.510277e-11 1 -1 -5.510277e-11 90.5507 -74.9365)" class="st10" width="15.6" height="7.2"/>
			
				<rect x="71.6" y="0.3" transform="matrix(-5.510277e-11 1 -1 -5.510277e-11 79.4521 -71.645)" class="st10" width="7.8" height="7.2"/>
			
				<rect x="74.9" y="19.8" transform="matrix(-5.516139e-11 1 -1 -5.516139e-11 106.1649 -59.3224)" class="st9" width="15.6" height="7.2"/>
			
				<rect x="67.7" y="12" transform="matrix(-5.516139e-11 1 -1 -5.516139e-11 91.1627 -59.9343)" class="st9" width="15.6" height="7.2"/>
			
				<rect x="60.5" y="4.2" transform="matrix(-5.510277e-11 1 -1 -5.510277e-11 76.1605 -60.5463)" class="st9" width="15.6" height="7.2"/>
			
				<rect x="60.5" y="19.8" transform="matrix(-5.516139e-11 1 -1 -5.516139e-11 91.7747 -44.9322)" class="st10" width="15.6" height="7.2"/>
			
				<rect x="57.3" y="0.3" transform="matrix(-5.510277e-11 1 -1 -5.510277e-11 65.0619 -57.2548)" class="st9" width="7.8" height="7.2"/>
			
				<rect x="53.4" y="12" transform="matrix(-5.516139e-11 1 -1 -5.516139e-11 76.7725 -45.5442)" class="st10" width="15.6" height="7.2"/>
			
				<rect x="78.8" y="31.5" transform="matrix(-5.510277e-11 1 -1 -5.510277e-11 117.8756 -47.6117)" class="st10" width="7.8" height="7.2"/>
			
				<rect x="67.7" y="27.6" transform="matrix(-5.510277e-11 1 -1 -5.510277e-11 106.7769 -44.3202)" class="st10" width="15.6" height="7.2"/>
			
				<rect x="64.4" y="31.5" transform="matrix(-5.510277e-11 1 -1 -5.510277e-11 103.4854 -33.2215)" class="st9" width="7.8" height="7.2"/>
			
				<rect x="53.4" y="27.6" transform="matrix(-5.510277e-11 1 -1 -5.510277e-11 92.3867 -29.93)" class="st9" width="15.6" height="7.2"/>
			
				<rect x="103.7" y="4.2" transform="matrix(-5.510277e-11 1 -1 -5.510277e-11 119.3311 -103.7169)" class="st10" width="15.6" height="7.2"/>
			
				<rect x="100.4" y="0.3" transform="matrix(-5.510277e-11 1 -1 -5.510277e-11 108.2325 -100.4254)" class="st10" width="7.8" height="7.2"/>
			
				<rect x="103.7" y="19.8" transform="matrix(-5.516139e-11 1 -1 -5.516139e-11 134.9453 -88.1028)" class="st9" width="15.6" height="7.2"/>
			
				<rect x="96.5" y="12" transform="matrix(-5.510277e-11 1 -1 -5.510277e-11 119.9431 -88.7147)" class="st9" width="15.6" height="7.2"/>
			
				<rect x="89.3" y="4.2" transform="matrix(-5.510277e-11 1 -1 -5.510277e-11 104.9409 -89.3267)" class="st9" width="15.6" height="7.2"/>
			
				<rect x="89.3" y="19.8" transform="matrix(-5.516139e-11 1 -1 -5.516139e-11 120.5551 -73.7126)" class="st10" width="15.6" height="7.2"/>
			
				<rect x="86" y="0.3" transform="matrix(-5.510277e-11 1 -1 -5.510277e-11 93.8423 -86.0352)" class="st9" width="7.8" height="7.2"/>
			
				<rect x="82.1" y="12" transform="matrix(-5.516139e-11 1 -1 -5.516139e-11 105.5529 -74.3245)" class="st10" width="15.6" height="7.2"/>
			
				<rect x="107.6" y="31.5" transform="matrix(-5.510277e-11 1 -1 -5.510277e-11 146.656 -76.3921)" class="st10" width="7.8" height="7.2"/>
			
				<rect x="96.5" y="27.6" transform="matrix(-5.516139e-11 1 -1 -5.516139e-11 135.5573 -73.1006)" class="st10" width="15.6" height="7.2"/>
			
				<rect x="93.2" y="31.5" transform="matrix(-5.510277e-11 1 -1 -5.510277e-11 132.2658 -62.0019)" class="st9" width="7.8" height="7.2"/>
			
				<rect x="82.1" y="27.6" transform="matrix(-5.510277e-11 1 -1 -5.510277e-11 121.1671 -58.7104)" class="st9" width="15.6" height="7.2"/>
			
				<rect x="132.5" y="4.2" transform="matrix(-5.510277e-11 1 -1 -5.510277e-11 148.1115 -132.4973)" class="st10" width="15.6" height="7.2"/>
			
				<rect x="129.2" y="0.3" transform="matrix(-5.510277e-11 1 -1 -5.510277e-11 137.0129 -129.2058)" class="st10" width="7.8" height="7.2"/>
			
				<rect x="132.5" y="19.8" transform="matrix(-5.516139e-11 1 -1 -5.516139e-11 163.7257 -116.8831)" class="st9" width="15.6" height="7.2"/>
			
				<rect x="125.3" y="12" transform="matrix(-5.510277e-11 1 -1 -5.510277e-11 148.7235 -117.4951)" class="st9" width="15.6" height="7.2"/>
			
				<rect x="118.1" y="4.2" transform="matrix(-5.510277e-11 1 -1 -5.510277e-11 133.7213 -118.1071)" class="st9" width="15.6" height="7.2"/>
			
				<rect x="118.1" y="19.8" transform="matrix(-5.516139e-11 1 -1 -5.516139e-11 149.3355 -102.493)" class="st10" width="15.6" height="7.2"/>
			
				<rect x="114.8" y="0.3" transform="matrix(-5.510277e-11 1 -1 -5.510277e-11 122.6227 -114.8156)" class="st9" width="7.8" height="7.2"/>
			
				<rect x="110.9" y="12" transform="matrix(-5.510277e-11 1 -1 -5.510277e-11 134.3333 -103.1049)" class="st10" width="15.6" height="7.2"/>
			
				<rect x="136.4" y="31.5" transform="matrix(-5.510277e-11 1 -1 -5.510277e-11 175.4364 -105.1725)" class="st10" width="7.8" height="7.2"/>
			
				<rect x="125.3" y="27.6" transform="matrix(-5.516139e-11 1 -1 -5.516139e-11 164.3377 -101.881)" class="st10" width="15.6" height="7.2"/>
			
				<rect x="122" y="31.5" transform="matrix(-5.510277e-11 1 -1 -5.510277e-11 161.0462 -90.7823)" class="st9" width="7.8" height="7.2"/>
			
				<rect x="110.9" y="27.6" transform="matrix(-5.516139e-11 1 -1 -5.516139e-11 149.9475 -87.4908)" class="st9" width="15.6" height="7.2"/>
			
				<rect x="161.3" y="4.2" transform="matrix(-5.516139e-11 1 -1 -5.516139e-11 176.8919 -161.2777)" class="st10" width="15.6" height="7.2"/>
			
				<rect x="158" y="0.3" transform="matrix(-5.521912e-11 1 -1 -5.521912e-11 165.7933 -157.9862)" class="st10" width="7.8" height="7.2"/>
			
				<rect x="161.3" y="19.8" transform="matrix(-5.516139e-11 1 -1 -5.516139e-11 192.5061 -145.6635)" class="st9" width="15.6" height="7.2"/>
			
				<rect x="154.1" y="12" transform="matrix(-5.510277e-11 1 -1 -5.510277e-11 177.5039 -146.2755)" class="st9" width="15.6" height="7.2"/>
			
				<rect x="146.9" y="4.2" transform="matrix(-5.510277e-11 1 -1 -5.510277e-11 162.5017 -146.8875)" class="st9" width="15.6" height="7.2"/>
			
				<rect x="146.9" y="19.8" transform="matrix(-5.516139e-11 1 -1 -5.516139e-11 178.1159 -131.2733)" class="st10" width="15.6" height="7.2"/>
			
				<rect x="143.6" y="0.3" transform="matrix(-5.510277e-11 1 -1 -5.510277e-11 151.4031 -143.596)" class="st9" width="7.8" height="7.2"/>
			
				<rect x="139.7" y="12" transform="matrix(-5.510277e-11 1 -1 -5.510277e-11 163.1137 -131.8853)" class="st10" width="15.6" height="7.2"/>
			
				<rect x="165.2" y="31.5" transform="matrix(-5.510277e-11 1 -1 -5.510277e-11 204.2168 -133.9529)" class="st10" width="7.8" height="7.2"/>
			
				<rect x="154.1" y="27.6" transform="matrix(-5.516139e-11 1 -1 -5.516139e-11 193.1181 -130.6613)" class="st10" width="15.6" height="7.2"/>
			
				<rect x="150.8" y="31.5" transform="matrix(-5.510277e-11 1 -1 -5.510277e-11 189.8266 -119.5627)" class="st9" width="7.8" height="7.2"/>
			
				<rect x="139.7" y="27.6" transform="matrix(-5.516139e-11 1 -1 -5.516139e-11 178.7279 -116.2711)" class="st9" width="15.6" height="7.2"/>
			
				<rect x="176.5" y="3.4" transform="matrix(-5.516139e-11 1 -1 -5.516139e-11 192.0816 -176.4674)" class="st9" width="15.6" height="8.8"/>
			
				<rect x="176.5" y="19" transform="matrix(-5.516139e-11 1 -1 -5.516139e-11 207.6958 -160.8532)" class="st10" width="15.6" height="8.8"/>
			
				<rect x="172.4" y="0.3" transform="matrix(-5.521912e-11 1 -1 -5.521912e-11 180.1835 -172.3764)" class="st9" width="7.8" height="7.2"/>
			
				<rect x="168.5" y="12" transform="matrix(-5.510277e-11 1 -1 -5.510277e-11 191.8941 -160.6657)" class="st10" width="15.6" height="7.2"/>
			
				<rect x="180.4" y="30.7" transform="matrix(-5.510277e-11 1 -1 -5.510277e-11 219.4064 -149.1425)" class="st9" width="7.8" height="8.8"/>
			
				<rect x="168.5" y="27.6" transform="matrix(-5.516139e-11 1 -1 -5.516139e-11 207.5083 -145.0515)" class="st9" width="15.6" height="7.2"/>
		</g>
	</g>
</g>
<g>
	<path class="st11" d="M119.1,88.9c-1,0-2.3-0.2-4.1-0.7c-1.8-0.5-3.7-1-5.5-1.7c-1.9-0.7-3.7-1.3-5.4-2c-1.7-0.7-2.8-1.2-3.4-1.6
		c-0.2-0.4-0.3-0.8-0.3-1.1c-0.2-0.4-0.3-0.9-0.3-1.4c0-2.7,1-4.9,3.1-6.8c2.1-1.9,4.5-3.5,7.3-4.7c2.7-1.2,5.5-2.2,8.1-2.8
		c2.7-0.7,4.7-1.1,6.3-1.3h3.4h2.8c4.6,0.4,10.3,1,17.4,1.7c7,0.8,14.5,1.6,22.3,2.4c7.9,0.9,15.8,1.7,23.9,2.6
		c8.1,0.9,15.4,1.7,21.9,2.6c6.5,0.9,12,1.5,16.5,2c4.5,0.5,7.1,0.7,7.8,0.7c1.5,0.2,3.5,0.5,5.8,1c2.4,0.5,4.8,1.2,7.3,2.3
		c2.5,1,4.7,2.3,6.8,3.7c2.1,1.4,3.6,3.2,4.6,5.3c-1.5,3-2.8,5.4-4,7c-1.1,1.6-2.4,2.8-3.7,3.7c-1.3,0.9-2.7,1.3-4.1,1.3
		s-3.2,0-5.3,0c-8,0-16-0.3-24-0.9c-8.1-0.6-16.1-1.1-24-1.7c-8-0.6-16-1.1-24-1.7c-8.1-0.6-16.2-0.9-24.3-0.9
		c0,3.4-0.4,8.5-1.3,15.4c-0.9,6.8-1.5,14-2,21.6c-0.5,7.6-0.3,15.1,0.6,22.6c0.9,7.5,3,13.8,6.4,18.9c6.6-4,13.6-6.1,20.8-6.3
		c7.2-0.2,14.5-0.3,21.9-0.3c3.2,0,7.3,0,12.2,0c4.9,0,9.7,0.6,14.4,1.7c4.6,1.1,8.6,3,11.8,5.7c3.2,2.7,4.8,6.6,4.8,12
		c0,3.8-0.8,6.6-2.3,8.5c-1.5,1.9-5,2.8-10.5,2.8c-0.6,0-1.8-0.3-3.6-0.9c-1.8-0.6-3.7-1.2-5.7-2c-2-0.8-3.8-1.4-5.5-2
		c-1.7-0.6-2.8-0.9-3.4-0.9c-0.2,0-0.9,0-2.1-0.1c-1.2-0.1-2.7-0.1-4.4-0.1s-3.4,0-5-0.1c-1.6-0.1-2.9-0.1-3.8-0.1
		c-4.4,0-8.6,0.3-12.7,0.9c-4.1,0.6-7.6,1.7-10.7,3.4c-3,1.7-5.5,4.2-7.3,7.4c-1.8,3.2-2.7,7.4-2.7,12.5c0,1.7,0.2,4.7,0.6,8.8
		c0.4,4.2,0.9,8.8,1.6,13.8c0.7,5,1.6,10.2,2.7,15.5c1.1,5.3,2.7,10.2,4.6,14.7c1.9,4.5,4,8.2,6.4,11.1c2.4,2.9,5.3,4.4,8.7,4.4
		c0.4,0,1.3-0.1,2.8-0.3c1.5-0.2,2.5-0.3,2.8-0.3c6.4-4.4,13-9.1,19.5-14.2s13.3-9.9,20.3-14.4c7-4.5,14.3-8.3,21.9-11.4
		c7.6-3.1,15.5-4.7,23.6-4.7v13.9c0,0.8-1.8,2.8-5.5,6.3c-3.7,3.4-8.5,7.4-14.5,12c-6,4.6-12.7,9.4-20.1,14.5
		c-7.4,5.1-14.8,9.8-22.2,14.1c-7.4,4.3-14.5,7.8-21.2,10.7c-6.7,2.8-12.4,4.3-16.9,4.3c-6.5,0-12.2-2.9-17.2-8.7
		c-5-5.8-9.5-13.5-13.5-23.1c-4-9.6-7.3-20.6-10-33.2c-2.7-12.5-5-25.4-7-38.7c-2-13.3-3.6-26.5-4.8-39.7c-1.2-13.2-2.2-25.4-3-36.6
		c-0.8-11.2-1.3-20.9-1.6-29.2C119.5,97.9,119.3,92.2,119.1,88.9z"/>
</g>
</svg>
