<svg xmlns="http://www.w3.org/2000/svg" viewBox="0 0 639.6 540.02"><defs><style>.cls-1{fill:#160c06;}.cls-2{fill:#190e07;}.cls-3{fill:#1c0f08;}.cls-4{fill:#1f1109;}.cls-5{fill:#221309;}.cls-6{fill:#25140a;}.cls-7{fill:#28160b;}</style></defs><title>Apoio Pedra Boss</title><g id="Layer_2" data-name="Layer 2"><g id="Apoio_Pedra_Boss" data-name="Apoio Pedra Boss"><path class="cls-1" d="M550.4,124.21l14.8,84.61,6,124.8L639.6,480,410.4,540,98.68,499.22,0,409.22,126,283l49.27-126.54L138.42,46S263.36-1.18,278.68,0,502.8,90.82,502.8,90.82Z"/><path class="cls-2" d="M182.51,157.89,147.88,58.36S265.93,27.43,278.7,28.43s210,79.33,210,79.33l56.74,21.55,13.93,82.31,4.2,125.6,67.93,144.91L410.4,540,98.68,499.22,5.56,415.66,128.7,288.05Z"/><path class="cls-3" d="M189.74,159.3,157.33,70.69S268.5,56,278.71,56.83s196,67.86,196,67.86l65.86,9.72,13.07,80,2.4,126.4,67.47,143.43L410.4,540,98.68,499.22,11.11,422.1l120.29-129Z"/><path class="cls-4" d="M197,160.7,166.78,83s104.29,1.61,112,2.21S460.6,141.62,460.6,141.62l75-2.1,12.2,77.7.6,127.2,67,141.94L410.4,540,98.68,499.22l-82-70.68L134.1,298.12Z"/><path class="cls-5" d="M204.21,162.11l-28-66.75s97.4,17.88,102.51,18.28,167.78,44.92,167.78,44.92l84.14-13.94L542,220l-1.2,128,66.54,140.45L410.4,540,98.68,499.22,22.23,435,136.8,303.15Z"/><path class="cls-6" d="M211.44,163.52l-25.75-55.83s90.53,34.15,93.08,34.35,153.7,33.45,153.7,33.45l93.26-25.77,10.47,73.1-3,128.8,66.07,139L410.4,540,98.68,499.22,27.79,441.41,139.5,308.19Z"/><polygon class="cls-7" points="520.8 154.82 530.4 225.62 525.6 355.22 591.2 492.69 410.4 540.02 98.68 499.22 33.34 447.85 142.2 313.22 218.68 164.93 195.15 120.02 278.79 170.44 418.4 192.42 520.8 154.82"/></g></g></svg>