<svg xmlns="http://www.w3.org/2000/svg" xmlns:xlink="http://www.w3.org/1999/xlink" viewBox="0 0 407.19 219.06"><defs><style>.cls-1{fill:none;}.cls-2{fill:#281204;opacity:0.42;}.cls-3{fill:#160902;}.cls-4{fill:#5e6614;}.cls-5{fill:#555912;}.cls-6{fill:#4c4b11;}.cls-7{fill:#433e10;}.cls-8{fill:#3a310e;}.cls-9{fill:#31230d;}.cls-10{fill:#28160b;}.cls-11{fill:#25140a;}.cls-12{fill:#221309;}.cls-13{fill:#1f1109;}.cls-14{fill:#1c0f08;}.cls-15{fill:#190e07;}.cls-16{fill:#160c06;}.cls-17{opacity:0.68;fill:url(#New_Pattern_Swatch_1);}</style><pattern id="New_Pattern_Swatch_1" data-name="New Pattern Swatch 1" width="289.6" height="289.6" patternUnits="userSpaceOnUse" viewBox="0 0 289.6 289.6"><rect class="cls-1" width="289.6" height="289.6"/><path class="cls-2" d="M0,271.5s45.4-8.4,53.8-4,19.6,14.8,19.6,14.8,18.8-6.08,29.2-8L113,279.1l40.8-12.88s20.4,6.88,25.6,9.68,16.8,11.2,24.8,8.4,39.6-12.4,39.6-12.4,18.4,3.68,26.8,3.64,19-3.64,19-3.64v30.4H271l-27.6,9.2-29.2-4s-13.6-8.8-35.2-8.8-34.2-7.2-34.2-7.2l-25.4,11.2-24.8-6.8-34.8,8.4L38.6,291.5S3,302.3,0,302.3Z"/><rect class="cls-3" y="12.87" width="289.6" height="289.6"/><path class="cls-2" d="M289.6,27.37c-71.8,10.34-143.67,1.4-196.4-4C59.79,20,26.62,23,0,27.37v28c50.27-2,143.92-5.78,203.45-.19,26.17,2.46,57,1.94,86.15.21Z"/><path class="cls-2" d="M289.6,123.75c-57.72.56-143.35-5.41-195.2-12.64C58.14,106.05,39,125.68,0,123.86v26.58c41.61-4,113.6-12,152-3.54,24.31,5.37,82.18,6.26,137.6,3.36Z"/><path class="cls-2" d="M0,53.87s45.4-8.4,53.8-4,19.6,14.8,19.6,14.8,18.8-6.07,29.2-8L113,61.47,153.8,48.6s20.4,6.87,25.6,9.67,16.8,11.2,24.8,8.4,39.6-12.4,39.6-12.4,18.4,3.69,26.8,3.65,19-3.65,19-3.65v30.4H271l-27.6,9.2-29.2-4s-13.6-8.8-35.2-8.8-34.2-7.2-34.2-7.2l-25.4,11.2-24.8-6.8-34.8,8.4L38.6,73.87S3,84.67,0,84.67Z"/><path class="cls-2" d="M289.6,117.42V87.53s-7.4,6.69-15.4,8.69-28.4-9.6-34.4-8.8-34,3.2-50-4-10.4-1.2-10.4-1.2l-34.6,14-46.2-11h-26L49,91.82,0,87.53v29.89s23.4-8,29.2-8.4,26.6,4.2,39.4,2.2,21,1.8,26.8,1,25.6-7.8,25.6-7.8l9.4,10.4,7.2-4.8,9,12.2,14.8-3.8,17.8-14,6.4,2.4H213c7,0,18.8,14,18.8,14l30.8-10.4,27,7"/><path class="cls-2" d="M289.6,183c-71.8,10.34-143.67,1.4-196.4-4-33.41-3.42-66.58-.42-93.2,4v28c50.27-2,143.92-5.78,203.45-.19,26.17,2.46,57,1.94,86.15.21Z"/><path class="cls-2" d="M0,217.18s45.4-8.4,53.8-4S73.4,228,73.4,228s18.8-6.08,29.2-8l10.4,4.84,40.8-12.88s20.4,6.88,25.6,9.68,16.8,11.2,24.8,8.4,39.6-12.4,39.6-12.4,18.4,3.69,26.8,3.64,19-3.64,19-3.64V248H271l-27.6,9.2-29.2-4s-13.6-8.8-35.2-8.8-34.2-7.2-34.2-7.2l-25.4,11.2-24.8-6.8L59.8,250l-21.2-12.8S3,248,0,248Z"/><path class="cls-2" d="M0,273s45.4-8.4,53.8-4,19.6,14.8,19.6,14.8,18.8-6.08,29.2-8l10.4,4.84,40.8-12.88s20.4,6.88,25.6,9.68,16.8,11.2,24.8,8.4,39.6-12.4,39.6-12.4,18.4,3.69,26.8,3.64,19-3.64,19-3.64v30.4H271L243.4,313l-29.2-4s-13.6-8.8-35.2-8.8-34.2-7.2-34.2-7.2l-25.4,11.2-24.8-6.8-34.8,8.4L38.6,293S3,303.78,0,303.78Z"/><path class="cls-2" d="M0-18.1s45.4-8.4,53.8-4S73.4-7.3,73.4-7.3s18.8-6.08,29.2-8L113-10.5l40.8-12.88s20.4,6.88,25.6,9.68,16.8,11.2,24.8,8.4,39.6-12.4,39.6-12.4,18.4,3.68,26.8,3.64,19-3.64,19-3.64V12.7H271l-27.6,9.2-29.2-4S200.6,9.1,179,9.1s-34.2-7.2-34.2-7.2L119.4,13.1,94.6,6.3,59.8,14.7,38.6,1.9S3,12.7,0,12.7Z"/><path class="cls-2" d="M289.6,280.72V250.84s-7.4,6.68-15.4,8.68-28.4-9.6-34.4-8.8-34,3.2-50-4-10.4-1.2-10.4-1.2l-34.6,14-46.2-11h-26L49,255.12,0,250.84v29.88s23.4-8,29.2-8.4,26.6,4.2,39.4,2.2,21,1.8,26.8,1,25.6-7.8,25.6-7.8l9.4,10.4,7.2-4.8,9,12.2,14.8-3.8,17.8-14,6.4,2.4H213c7,0,18.8,14,18.8,14l30.8-10.4,27,7"/><path class="cls-2" d="M0,161.54l16.2-10.4,13.6,11.2L65,144.74H75.4s-1.2-2.8,8,3.2,40,2,40,2l24,10.4s26.8-5.2,35.2-1.2,29.6-1.6,29.6-1.6l10,10,26.8-9.2,25.6,9.2,15-6V195s-41.8-15.9-61.6-12.3S186.6,195,186.6,195l-25.2-25.48L114,176.14l-31.8-6.58-27,15.58-7.2-6.2-18,6.2L0,195Z"/><rect class="cls-3" y="-276.73" width="289.6" height="289.6"/><path class="cls-2" d="M0-16.62s45.4-8.4,53.8-4S73.4-5.82,73.4-5.82s18.8-6.08,29.2-8L113-9,153.8-21.9s20.4,6.88,25.6,9.68S196.2-1,204.2-3.82s39.6-12.4,39.6-12.4,18.4,3.69,26.8,3.64,19-3.64,19-3.64v30.4H271l-27.6,9.2-29.2-4s-13.6-8.8-35.2-8.8-34.2-7.2-34.2-7.2l-25.4,11.2L94.6,7.78l-34.8,8.4L38.6,3.38S3,14.18,0,14.18Z"/></pattern></defs><title>Asset 58</title><g id="Layer_2" data-name="Layer 2"><g id="Chão"><polygon class="cls-4" points="0 219.06 30.13 110.81 48 0 107.19 0 225.7 30.64 251.75 60.26 336.81 59.31 370.72 89.31 407.19 99.57 407.19 219.06 0 219.06"/><polygon class="cls-5" points="407.19 101.9 407.19 219.06 0 219.06 30.13 110.81 47.31 4.29 49.33 4.29 53.09 2.69 57.38 2.69 65.32 6.04 67.09 6.04 77.02 1.84 81.03 1.84 84.8 3.43 86.49 3.43 91.73 1.22 95.17 1.22 97.72 2.3 99.44 2.3 100.94 1.67 103.03 1.67 108.37 5.38 109.83 5.64 112.8 5.1 115.78 5.64 120.61 8.99 123.21 9.46 130.66 8.15 132.13 8.41 135.71 10.9 137.66 11.24 139.73 10.87 141.66 11.22 146.38 14.48 147.76 14.73 150.36 14.27 152.69 14.68 158.27 18.54 160.22 18.89 167.02 17.7 168.5 17.96 172.83 20.95 174.5 21.25 177.32 20.76 180.32 21.3 189.35 27.52 190.83 27.79 198.32 26.52 200.48 26.91 203.79 29.18 205.41 29.48 210.78 28.57 211.24 28.7 212.51 33.3 213.21 33.51 214.01 32.41 214.78 32.64 215.33 34.66 215.87 34.82 216.58 33.83 217.32 34.06 218.72 39.12 219.46 39.34 220.53 37.9 221.51 38.21 222.05 40.18 222.87 40.44 223.63 39.4 224.37 39.63 225.54 43.85 226.2 44.05 227.03 42.95 227.81 43.2 229.28 48.47 229.97 48.68 231.2 47.06 231.94 47.3 232.7 50.04 233.29 50.22 234.2 49.02 235.15 49.32 236.34 53.5 237.12 53.75 237.85 52.77 238.7 53.03 239.94 57.45 240.85 57.73 241.72 56.53 242.67 57.16 243.39 58.38 244.09 58.37 245.12 56.63 246.06 56.63 248.28 60.23 249.01 60.23 250.6 57.6 251.49 57.6 252.29 58.92 252.81 58.92 253.92 57.06 254.72 57.06 256.21 59.48 256.72 59.48 257.68 57.88 258.57 57.88 260.51 61.01 261.3 61.01 262.69 58.72 263.67 58.72 264.55 60.15 265.25 60.15 265.72 59.32 266.85 59.32 268.93 62.67 269.72 62.67 271.02 60.52 271.91 60.52 274.3 64.35 275.32 64.35 276.47 62.46 277.45 62.46 277.92 61.65 278.41 61.64 279.56 63.49 280.12 63.49 280.68 62.56 281.33 62.56 283.2 65.56 283.91 65.56 286.39 61.6 287.15 61.59 288.39 63.57 288.88 63.56 290.39 61.12 291.44 61.12 293.75 64.75 294.69 64.75 296.33 62.12 297.65 62.12 298.55 63.55 299.25 63.55 300.67 61.29 301.66 61.29 303.58 64.28 304.34 64.28 305.87 61.84 306.87 61.84 307.25 62.46 307.87 62.46 308.49 61.46 309.82 61.45 312.79 66.01 313.6 66.01 315.81 62.55 317.1 62.55 318.01 63.96 318.63 63.95 320.2 61.5 321.39 61.49 322.06 62.56 322.87 62.56 324.76 65.37 325.49 65.37 326.78 63.43 327.85 63.42 328.49 62.42 330.18 62.42 330.98 63.66 331.54 63.65 332.86 61.71 333.83 61.7 334.72 62.91 335.64 62.91 336.15 62.17 337.07 62.16 340.34 68.97 341.47 69.42 344.05 68.61 345.27 69.09 346.68 72.04 347.39 72.31 348.33 72.01 349.4 72.43 352.58 79.02 353.24 79.27 354.73 78.8 355.7 79.19 358.69 85.37 359.77 85.8 361.97 85.14 362.93 85.51 364.23 88.22 365.22 88.62 367.02 88.08 368.06 88.5 370.29 93.08 371.15 93.52 372.81 92.43 374.38 92.65 377.68 96.64 378.82 96.81 381.34 95.17 382.72 95.37 384.2 97.16 384.87 97.26 387.12 95.82 388.28 95.98 390 98.06 390.92 98.19 393.02 96.85 394.07 97 397.76 101.42 398.62 101.54 401.2 99.92 402.32 100.09 404.24 102.4 405.35 102.57 406.58 101.81 407.19 101.9"/><polygon class="cls-6" points="407.19 104.23 407.19 219.06 0 219.06 30.13 110.81 46.61 8.59 48.96 8.59 51.97 5.39 56.94 5.39 63.3 12.09 65.35 12.09 73.29 3.69 77.93 3.69 80.95 6.87 82.91 6.87 87.1 2.44 91.08 2.44 93.12 4.6 95.11 4.6 96.31 3.35 98.86 3.35 103.14 9.1 104.85 9.31 107.23 7.32 110.7 7.75 114.56 12.94 117.6 13.32 123.55 8.39 125.28 8.6 128.14 12.46 130.42 12.74 132.07 11.35 134.34 11.63 138.11 16.69 139.72 16.89 141.81 15.16 144.51 15.49 148.98 21.47 151.25 21.75 156.7 17.25 158.43 17.47 161.89 22.11 163.84 22.35 166.1 20.49 169.58 20.92 176.81 30.56 178.53 30.77 184.53 25.91 187.04 26.23 189.69 29.75 191.56 29.98 195.86 26.5 196.63 26.6 197.65 34.06 198.82 34.23 199.46 30.93 200.76 31.12 201.2 34.4 202.11 34.53 202.68 31.59 203.91 31.78 205.04 39.98 206.27 40.15 207.13 35.8 208.77 36.05 209.2 39.26 210.57 39.47 211.18 36.35 212.42 36.54 213.35 43.39 214.46 43.55 215.12 40.22 216.43 40.41 217.6 48.95 218.77 49.12 219.75 44.22 220.99 44.41 221.6 48.85 222.58 48.99 223.31 45.34 224.89 45.59 225.83 52.34 227.14 52.53 227.73 49.56 229.16 49.77 230.15 56.92 231.66 57.14 232.35 53.57 233.59 54.07 234.17 56.5 235.27 56.5 236.1 53.03 237.56 53.03 239.34 60.27 240.5 60.27 241.78 55.03 243.17 55.03 243.81 57.69 244.63 57.69 245.52 53.99 246.77 53.99 247.97 58.86 248.78 58.85 249.55 55.67 250.94 55.67 252.49 61.95 253.74 61.94 254.85 57.39 256.38 57.39 257.08 60.28 258.19 60.27 258.57 58.62 260.32 58.62 261.99 65.35 263.23 65.35 264.27 61.08 265.67 61.08 267.57 68.78 269.18 68.77 270.09 65.02 271.63 65.02 272.01 63.39 272.79 63.39 273.71 67.1 274.6 67.1 275.04 65.25 276.08 65.25 277.57 71.27 278.68 71.27 280.67 63.39 281.88 63.39 282.86 67.35 283.65 67.35 284.86 62.48 286.5 62.48 288.34 69.78 289.81 69.77 291.13 64.54 293.16 64.53 293.88 67.42 295 67.42 296.13 62.92 297.67 62.92 299.21 68.94 300.39 68.94 301.62 64.08 303.17 64.08 303.47 65.32 304.44 65.32 304.94 63.33 306.99 63.32 309.37 72.49 310.63 72.48 312.39 65.6 314.38 65.59 315.11 68.42 316.08 68.42 317.33 63.53 319.17 63.52 319.71 65.67 320.97 65.67 322.48 71.33 323.61 71.33 324.64 67.46 326.28 67.45 326.79 65.46 329.37 65.46 330.01 67.94 330.86 67.94 331.92 64.07 333.42 64.07 334.12 66.5 335.51 66.5 335.92 65.02 337.33 65.02 339.95 75.16 341.6 75.52 343.66 71.16 345.46 71.54 346.59 75.94 347.63 76.16 348.38 74.56 349.95 74.9 352.5 84.69 353.47 84.9 354.66 82.38 356.08 82.68 358.47 91.89 360.05 92.23 361.81 88.57 363.23 88.87 364.27 92.91 365.71 93.23 367.14 90.24 368.66 90.58 370.44 97.37 371.57 97.72 372.91 94.98 375.07 95.16 377.72 102.03 379.31 102.16 381.33 98.05 383.25 98.2 384.43 101.29 385.38 101.36 387.18 97.73 388.78 97.86 390.16 101.42 391.45 101.53 393.13 98.15 394.57 98.27 397.53 105.85 398.73 105.95 400.79 101.85 402.33 101.98 403.87 105.96 405.37 106.09 406.35 104.16 407.19 104.23"/><polygon class="cls-7" points="407.19 106.55 407.19 219.06 0 219.06 30.13 110.81 45.92 12.89 48.59 12.89 50.85 8.09 56.5 8.09 61.27 18.13 63.61 18.13 69.57 5.53 74.83 5.53 77.09 10.3 79.33 10.3 82.48 3.66 86.99 3.66 88.52 6.89 90.78 6.89 91.68 5.02 94.7 5.02 97.9 12.83 99.87 12.98 101.65 9.53 105.62 9.85 108.52 16.9 111.98 17.18 116.45 8.63 118.42 8.79 120.58 14.03 123.17 14.24 124.41 11.83 127.01 12.04 129.84 18.9 131.69 19.05 133.25 16.05 136.34 16.3 139.69 24.4 142.29 24.61 146.38 16.81 148.35 16.97 150.95 23.26 153.18 23.44 154.87 20.22 158.85 20.54 164.27 33.6 166.24 33.76 170.74 25.31 173.6 25.54 175.59 30.31 177.71 30.48 180.94 24.43 182.03 24.51 182.79 34.82 184.44 34.95 184.92 29.45 186.74 29.59 187.07 34.14 188.35 34.23 188.77 29.36 190.51 29.49 191.35 40.83 193.09 40.97 193.73 33.7 196.02 33.89 196.35 38.34 198.27 38.49 198.72 33.31 200.46 33.45 201.16 42.92 202.71 43.04 203.21 37.48 205.04 37.63 205.92 49.44 207.57 49.56 208.3 41.38 210.04 41.52 210.5 47.66 211.87 47.76 212.42 41.66 214.62 41.85 215.33 51.17 217.16 51.31 217.6 46.37 219.61 46.52 220.36 56.39 222.47 56.56 222.99 50.6 224.51 50.98 224.94 54.63 226.45 54.63 227.07 49.43 229.07 49.43 230.4 60.31 232 60.31 232.95 52.47 234.84 52.47 235.32 56.46 236.45 56.46 237.12 50.92 238.82 50.92 239.72 58.23 240.84 58.23 241.42 53.45 243.31 53.45 244.47 62.89 246.18 62.88 247.01 56.07 249.09 56.06 249.62 60.4 251.13 60.4 251.42 57.92 253.79 57.92 255.04 68.04 256.74 68.03 257.52 61.64 259.42 61.64 260.85 73.2 263.03 73.2 263.72 67.57 265.81 67.57 266.09 65.14 267.17 65.14 267.85 70.71 269.08 70.7 269.41 67.94 270.82 67.93 271.95 76.99 273.46 76.98 274.95 65.18 276.6 65.18 277.34 71.13 278.42 71.13 279.32 63.84 281.55 63.84 282.94 74.8 284.93 74.8 285.92 66.96 288.68 66.95 289.22 71.29 290.74 71.29 291.59 64.55 293.68 64.55 294.83 73.59 296.44 73.59 297.36 66.31 299.46 66.31 299.69 68.18 301.01 68.18 301.38 65.2 304.15 65.19 305.94 78.96 307.65 78.96 308.98 68.65 311.66 68.64 312.2 72.89 313.53 72.89 314.47 65.56 316.95 65.56 317.36 68.79 319.07 68.79 320.2 77.28 321.73 77.28 322.5 71.49 324.71 71.48 325.09 68.5 328.56 68.5 329.04 72.23 330.19 72.23 330.98 66.44 333 66.44 333.53 70.09 335.38 70.09 335.68 67.87 337.59 67.87 339.56 81.35 341.73 81.62 343.28 73.71 345.65 74 346.5 79.85 347.87 80.02 348.43 77.11 350.51 77.36 352.42 90.37 353.69 90.52 354.59 85.95 356.47 86.18 358.26 98.41 360.34 98.66 361.66 92 363.53 92.23 364.31 97.6 366.19 97.83 367.27 92.41 369.26 92.66 370.6 101.67 372 101.93 373 97.53 375.77 97.67 377.75 107.42 379.8 107.51 381.31 100.92 383.78 101.03 384.66 105.41 385.88 105.47 387.23 99.64 389.29 99.74 390.32 104.79 391.97 104.87 393.23 99.44 395.08 99.53 397.3 110.28 398.83 110.35 400.38 103.77 402.35 103.87 403.5 109.51 405.39 109.61 406.13 106.5 407.19 106.55"/><polygon class="cls-8" points="407.19 108.88 407.19 219.06 0 219.06 30.13 110.81 45.23 17.18 48.23 17.18 49.73 10.78 56.06 10.78 59.24 24.17 61.87 24.17 65.84 7.38 71.73 7.38 73.24 13.73 75.75 13.73 77.85 4.88 82.9 4.88 83.92 9.19 86.45 9.19 87.05 6.7 90.54 6.7 92.67 16.55 94.89 16.66 96.08 11.74 100.54 11.96 102.47 20.85 106.37 21.04 109.35 8.88 111.57 8.98 113.01 15.59 115.93 15.73 116.76 12.31 119.68 12.45 121.56 21.11 123.65 21.21 124.69 16.94 128.17 17.11 130.41 27.33 133.33 27.47 136.05 16.37 138.28 16.48 140.01 24.41 142.51 24.54 143.65 19.95 148.11 20.16 151.72 36.64 153.95 36.75 156.95 24.7 160.16 24.86 161.48 30.87 163.86 30.99 166.01 22.36 167.42 22.41 167.93 35.58 170.05 35.67 170.37 27.98 172.72 28.07 172.94 33.88 174.59 33.94 174.87 27.12 177.1 27.21 177.67 41.69 179.9 41.78 180.33 31.6 183.28 31.73 183.49 37.42 185.97 37.52 186.27 30.26 188.51 30.36 188.97 42.46 190.97 42.54 191.3 34.75 193.66 34.84 194.25 49.92 196.36 50.01 196.85 38.54 199.09 38.63 199.4 46.47 201.16 46.54 201.53 37.99 204.36 38.11 204.83 50 207.19 50.09 207.48 43.17 210.07 43.27 210.56 55.86 213.27 55.98 213.62 47.63 215.43 47.89 215.72 52.76 217.64 52.76 218.05 45.84 220.58 45.83 221.47 60.35 223.49 60.35 224.12 49.9 226.52 49.9 226.84 55.23 228.27 55.23 228.72 47.85 230.88 47.85 231.47 57.6 232.9 57.6 233.29 51.24 235.68 51.24 236.46 63.82 238.61 63.82 239.17 54.74 241.81 54.74 242.16 60.52 244.07 60.52 244.26 57.23 247.26 57.23 248.1 70.72 250.25 70.72 250.78 62.2 253.17 62.2 254.13 77.62 256.89 77.62 257.35 70.13 259.99 70.12 260.17 66.89 261.54 66.89 262 74.31 263.56 74.31 263.78 70.62 265.57 70.62 266.32 82.7 268.24 82.7 269.23 66.97 271.32 66.97 271.81 74.91 273.19 74.91 273.79 65.2 276.61 65.2 277.53 79.83 280.05 79.82 280.71 69.38 284.2 69.37 284.56 75.16 286.48 75.16 287.04 66.19 289.69 66.18 290.45 78.25 292.49 78.25 293.11 68.55 295.75 68.55 295.9 71.04 297.58 71.04 297.83 67.07 301.32 67.06 302.51 85.44 304.68 85.43 305.56 71.69 308.93 71.69 309.3 77.36 310.98 77.36 311.6 67.59 314.74 67.59 315 71.9 317.17 71.9 317.92 83.24 319.85 83.24 320.36 75.52 323.14 75.51 323.39 71.54 327.75 71.54 328.07 76.53 329.52 76.53 330.05 68.8 332.58 68.8 332.93 73.68 335.24 73.67 335.45 70.72 337.86 70.72 339.17 87.54 341.86 87.72 342.9 76.26 345.84 76.45 346.4 83.76 348.11 83.87 348.49 79.66 351.06 79.83 352.34 96.05 353.93 96.15 354.52 89.53 356.85 89.68 358.05 104.92 360.62 105.09 361.5 95.43 363.83 95.58 364.35 102.28 366.68 102.44 367.4 94.57 369.86 94.74 370.75 105.96 372.43 106.14 373.09 100.08 376.47 100.17 377.79 112.8 380.3 112.87 381.3 103.79 384.31 103.87 384.9 109.54 386.39 109.58 387.29 101.54 389.8 101.61 390.49 108.16 392.49 108.21 393.33 100.73 395.58 100.79 397.06 114.71 398.94 114.76 399.97 105.69 402.36 105.75 403.13 113.06 405.41 113.13 405.9 108.84 407.19 108.88"/><polygon class="cls-9" points="407.19 111.21 407.19 219.06 0 219.06 30.13 110.81 44.54 21.48 47.86 21.48 48.61 13.47 55.63 13.47 57.22 30.21 60.13 30.21 62.11 9.22 68.63 9.22 69.39 17.16 72.17 17.16 73.22 6.1 78.81 6.1 79.32 11.49 82.12 11.49 82.42 8.37 86.38 8.37 87.44 20.28 89.92 20.33 90.51 13.96 95.46 14.06 96.43 24.81 100.76 24.9 102.25 9.12 104.72 9.17 105.44 17.16 108.69 17.23 109.1 12.8 112.35 12.87 113.29 23.32 115.61 23.37 116.13 17.83 120 17.91 121.12 30.26 124.37 30.33 125.73 15.93 128.2 15.98 129.07 25.57 131.85 25.63 132.42 19.68 137.37 19.78 139.18 39.68 141.66 39.74 143.15 24.09 146.72 24.17 147.38 31.44 150.02 31.5 151.09 20.28 152.82 20.31 153.07 36.34 155.66 36.39 155.82 26.5 158.7 26.55 158.81 33.62 160.82 33.65 160.97 24.88 163.7 24.92 163.98 42.55 166.72 42.59 166.93 29.5 170.53 29.57 170.64 36.5 173.66 36.55 173.82 27.22 176.55 27.26 176.78 42 179.23 42.04 179.4 32.01 182.28 32.06 182.57 50.41 185.16 50.45 185.41 35.69 188.14 35.74 188.29 45.27 190.45 45.31 190.64 34.31 194.09 34.38 194.33 48.83 197.21 48.88 197.36 39.97 200.52 40.02 200.77 55.34 204.08 55.39 204.26 44.67 206.35 44.79 206.5 50.89 208.82 50.89 209.02 42.24 212.09 42.24 212.53 60.39 214.98 60.39 215.3 47.33 218.2 47.33 218.36 54 220.09 54 220.32 44.77 222.93 44.77 223.22 56.97 224.96 56.97 225.15 49.02 228.05 49.02 228.44 64.76 231.05 64.76 231.33 53.41 234.52 53.41 234.7 60.64 237.01 60.64 237.11 56.53 240.74 56.53 241.16 73.4 243.77 73.4 244.03 62.76 246.93 62.76 247.4 82.05 250.74 82.04 250.97 72.68 254.16 72.68 254.26 68.64 255.92 68.64 256.15 77.92 258.03 77.92 258.14 73.31 260.32 73.31 260.69 88.41 263.01 88.41 263.51 68.76 266.04 68.76 266.29 78.69 267.95 78.69 268.26 66.56 271.67 66.56 272.13 84.85 275.18 84.85 275.5 71.79 279.72 71.79 279.9 79.03 282.22 79.03 282.5 67.82 285.69 67.81 286.08 82.9 288.54 82.9 288.85 70.79 292.05 70.78 292.12 73.9 294.15 73.9 294.28 68.94 298.49 68.94 299.09 91.91 301.7 91.91 302.14 74.74 306.21 74.74 306.39 81.83 308.42 81.83 308.74 69.63 312.52 69.63 312.65 75.01 315.26 75.01 315.64 89.19 317.97 89.19 318.22 79.55 321.57 79.54 321.7 74.58 326.94 74.58 327.1 80.82 328.84 80.82 329.11 71.17 332.16 71.17 332.34 77.26 335.11 77.26 335.21 73.57 338.12 73.57 338.77 93.73 342 93.81 342.51 78.81 346.02 78.91 346.31 87.67 348.35 87.72 348.54 82.21 351.62 82.3 352.25 101.73 354.15 101.78 354.45 93.11 357.23 93.18 357.83 111.44 360.91 111.53 361.35 98.86 364.13 98.94 364.39 106.97 367.17 107.05 367.53 96.73 370.46 96.82 370.91 110.26 372.85 110.35 373.18 102.64 377.17 102.68 377.83 118.19 380.79 118.22 381.29 106.66 384.83 106.7 385.13 113.66 386.9 113.68 387.35 103.45 390.3 103.49 390.65 111.53 393.01 111.55 393.43 102.03 396.09 102.06 396.83 119.14 399.04 119.17 399.56 107.61 402.37 107.64 402.75 116.62 405.43 116.65 405.67 111.19 407.19 111.21"/><polygon class="cls-10" points="43.84 25.77 47.49 25.77 47.49 16.17 55.19 16.17 55.19 36.26 58.38 36.26 58.38 11.06 65.53 11.06 65.53 20.6 68.6 20.6 68.6 7.32 74.72 7.32 74.72 13.79 77.79 13.79 77.79 10.04 82.21 10.04 82.21 24 84.94 24 84.94 16.17 90.38 16.17 90.38 28.77 95.15 28.77 95.15 9.36 97.87 9.36 97.87 18.72 101.45 18.72 101.45 13.28 105.02 13.28 105.02 25.53 107.57 25.53 107.57 18.72 111.83 18.72 111.83 33.19 115.4 33.19 115.4 15.49 118.13 15.49 118.13 26.72 121.19 26.72 121.19 19.4 126.64 19.4 126.64 42.72 129.36 42.72 129.36 23.49 133.28 23.49 133.28 32 136.17 32 136.17 18.21 138.21 18.21 138.21 37.11 141.28 37.11 141.28 25.02 144.68 25.02 144.68 33.36 147.06 33.36 147.06 22.64 150.3 22.64 150.3 43.4 153.53 43.4 153.53 27.4 157.79 27.4 157.79 35.57 161.36 35.57 161.36 24.17 164.6 24.17 164.6 41.53 167.49 41.53 167.49 29.28 170.89 29.28 170.89 50.89 173.96 50.89 173.96 32.85 177.19 32.85 177.19 44.09 179.75 44.09 179.75 30.64 183.83 30.64 183.83 47.66 187.23 47.66 187.23 36.77 190.98 36.77 190.98 54.81 194.89 54.81 194.89 41.7 197.28 41.7 197.28 49.02 200 49.02 200 38.64 203.59 38.64 203.59 60.43 206.47 60.43 206.47 44.77 209.87 44.77 209.87 52.77 211.91 52.77 211.91 41.7 214.98 41.7 214.98 56.34 217.02 56.34 217.02 46.81 220.43 46.81 220.43 65.7 223.49 65.7 223.49 52.09 227.23 52.09 227.23 60.77 229.96 60.77 229.96 55.83 234.21 55.83 234.21 76.08 237.28 76.08 237.28 63.32 240.68 63.32 240.68 86.47 244.6 86.47 244.6 75.23 248.34 75.23 248.34 70.38 250.3 70.38 250.3 81.53 252.51 81.53 252.51 76 255.06 76 255.06 94.13 257.79 94.13 257.79 70.55 260.77 70.55 260.77 82.47 262.72 82.47 262.72 67.92 266.72 67.92 266.72 89.87 270.3 89.87 270.3 74.21 275.23 74.21 275.23 82.89 277.96 82.89 277.96 69.45 281.7 69.45 281.7 87.55 284.6 87.55 284.6 73.02 288.34 73.02 288.34 76.77 290.72 76.77 290.72 70.81 295.66 70.81 295.66 98.38 298.72 98.38 298.72 77.79 303.49 77.79 303.49 86.3 305.87 86.3 305.87 71.66 310.3 71.66 310.3 78.13 313.36 78.13 313.36 95.15 316.08 95.15 316.08 83.57 320 83.57 320 77.62 326.13 77.62 326.13 85.11 328.17 85.11 328.17 73.53 331.75 73.53 331.75 80.85 334.98 80.85 334.98 76.43 338.38 76.43 338.38 99.92 342.13 99.92 342.13 81.36 346.21 81.36 346.21 91.57 348.6 91.57 348.6 84.77 352.17 84.77 352.17 107.4 354.38 107.4 354.38 96.68 357.62 96.68 357.62 117.96 361.19 117.96 361.19 102.3 364.43 102.3 364.43 111.66 367.66 111.66 367.66 98.89 371.06 98.89 371.06 114.55 373.28 114.55 373.28 105.19 377.87 105.19 377.87 123.57 381.28 123.57 381.28 109.53 385.36 109.53 385.36 117.79 387.4 117.79 387.4 105.36 390.81 105.36 390.81 114.89 393.53 114.89 393.53 103.32 396.6 103.32 396.6 123.57 399.15 123.57 399.15 109.53 402.38 109.53 402.38 120.17 405.45 120.17 405.45 113.53 407.19 113.53 407.19 219.06 0 219.06 30.13 110.81 43.84 25.77"/><polygon class="cls-11" points="407.19 116.13 407.19 219.06 0 219.06 30.13 110.81 43.08 30.54 47.49 30.54 47.49 21.17 55.19 21.17 55.19 40.76 58.38 40.76 58.38 16.19 65.53 16.19 65.53 25.49 68.6 25.49 68.6 12.54 74.72 12.54 74.72 18.85 77.79 18.85 77.79 15.2 82.21 15.2 82.21 28.81 84.94 28.81 84.94 21.17 90.38 21.17 90.38 33.46 95.15 33.46 95.15 14.53 97.87 14.53 97.87 23.66 101.45 23.66 101.45 18.35 105.02 18.35 105.02 30.3 107.57 30.3 107.57 23.66 111.83 23.66 111.83 37.77 115.4 37.77 115.4 20.51 118.13 20.51 118.13 31.46 121.19 31.46 121.19 24.33 126.64 24.33 126.64 47.07 129.36 47.07 129.36 28.31 133.28 28.31 133.28 36.61 136.17 36.61 136.17 23.16 138.21 23.16 138.21 41.59 141.28 41.59 141.28 29.8 144.68 29.8 144.68 37.94 147.06 37.94 147.06 27.48 150.3 27.48 150.3 47.73 153.53 47.73 153.53 32.13 157.79 32.13 157.79 40.1 161.36 40.1 161.36 28.98 164.6 28.98 164.6 45.91 167.49 45.91 167.49 33.95 170.89 33.95 170.89 55.04 173.96 55.04 173.96 37.44 177.19 37.44 177.19 48.4 179.75 48.4 179.75 35.28 183.83 35.28 183.83 51.88 187.23 51.88 187.23 41.26 190.98 41.26 190.98 58.86 194.89 58.86 194.89 46.07 197.28 46.07 197.28 53.21 200 53.21 200 43.09 203.59 43.09 203.59 64.34 206.47 64.34 206.47 49.06 209.87 49.06 209.87 56.87 211.91 56.87 211.91 46.07 214.98 46.07 214.98 60.35 217.02 60.35 217.02 51.05 220.43 51.05 220.43 69.48 223.49 69.48 223.49 56.2 227.23 56.2 227.23 64.67 229.96 64.67 229.96 59.85 234.21 59.85 234.21 79.61 237.28 79.61 237.28 67.16 240.68 67.16 240.68 89.74 244.6 89.74 244.6 78.78 248.34 78.78 248.34 74.05 250.3 74.05 250.3 84.92 252.51 84.92 252.51 79.53 255.06 79.53 255.06 97.21 257.79 97.21 257.79 74.21 260.77 74.21 260.77 85.83 262.72 85.83 262.72 71.64 266.72 71.64 266.72 93.06 270.3 93.06 270.3 77.78 275.23 77.78 275.23 86.25 277.96 86.25 277.96 73.14 281.7 73.14 281.7 90.8 284.6 90.8 284.6 76.62 288.34 76.62 288.34 80.27 290.72 80.27 290.72 74.46 295.66 74.46 295.66 101.36 298.72 101.36 298.72 81.27 303.49 81.27 303.49 89.57 305.87 89.57 305.87 75.29 310.3 75.29 310.3 81.6 313.36 81.6 313.36 98.2 316.08 98.2 316.08 86.92 320 86.92 320 81.1 326.13 81.1 326.13 88.41 328.17 88.41 328.17 77.12 331.75 77.12 331.75 84.26 334.98 84.26 334.98 79.94 338.38 79.94 338.38 102.85 342.13 102.85 342.13 84.76 346.21 84.76 346.21 94.72 348.6 94.72 348.6 88.08 352.17 88.08 352.17 110.16 354.38 110.16 354.38 99.7 357.62 99.7 357.62 120.45 361.19 120.45 361.19 105.18 364.43 105.18 364.43 114.31 367.66 114.31 367.66 101.86 371.06 101.86 371.06 117.13 373.28 117.13 373.28 108 377.87 108 377.87 125.93 381.28 125.93 381.28 112.23 385.36 112.23 385.36 120.28 387.4 120.28 387.4 108.17 390.81 108.17 390.81 117.46 393.53 117.46 393.53 106.17 396.6 106.17 396.6 125.93 399.15 125.93 399.15 112.23 402.38 112.23 402.38 122.61 405.45 122.61 405.45 116.13 407.19 116.13"/><polygon class="cls-12" points="407.19 118.73 407.19 219.06 0 219.06 30.13 110.81 42.31 35.3 47.49 35.3 47.49 26.17 55.19 26.17 55.19 45.27 58.38 45.27 58.38 21.32 65.53 21.32 65.53 30.38 68.6 30.38 68.6 17.76 74.72 17.76 74.72 23.91 77.79 23.91 77.79 20.35 82.21 20.35 82.21 33.62 84.94 33.62 84.94 26.17 90.38 26.17 90.38 38.15 95.15 38.15 95.15 19.7 97.87 19.7 97.87 28.6 101.45 28.6 101.45 23.42 105.02 23.42 105.02 35.07 107.57 35.07 107.57 28.6 111.83 28.6 111.83 42.36 115.4 42.36 115.4 25.53 118.13 25.53 118.13 36.21 121.19 36.21 121.19 29.25 126.64 29.25 126.64 51.42 129.36 51.42 129.36 33.13 133.28 33.13 133.28 41.22 136.17 41.22 136.17 28.11 138.21 28.11 138.21 46.08 141.28 46.08 141.28 34.59 144.68 34.59 144.68 42.52 147.06 42.52 147.06 32.32 150.3 32.32 150.3 52.06 153.53 52.06 153.53 36.85 157.79 36.85 157.79 44.62 161.36 44.62 161.36 33.78 164.6 33.78 164.6 50.28 167.49 50.28 167.49 38.63 170.89 38.63 170.89 59.19 173.96 59.19 173.96 42.03 177.19 42.03 177.19 52.71 179.75 52.71 179.75 39.93 183.83 39.93 183.83 56.11 187.23 56.11 187.23 45.75 190.98 45.75 190.98 62.91 194.89 62.91 194.89 50.45 197.28 50.45 197.28 57.41 200 57.41 200 47.53 203.59 47.53 203.59 68.25 206.47 68.25 206.47 53.36 209.87 53.36 209.87 60.97 211.91 60.97 211.91 50.45 214.98 50.45 214.98 64.36 217.02 64.36 217.02 55.3 220.43 55.3 220.43 73.26 223.49 73.26 223.49 60.32 227.23 60.32 227.23 68.57 229.96 68.57 229.96 63.88 234.21 63.88 234.21 83.13 237.28 83.13 237.28 71 240.68 71 240.68 93 244.6 93 244.6 82.33 248.34 82.33 248.34 77.71 250.3 77.71 250.3 88.31 252.51 88.31 252.51 83.05 255.06 83.05 255.06 100.29 257.79 100.29 257.79 77.88 260.77 77.88 260.77 89.2 262.72 89.2 262.72 75.37 266.72 75.37 266.72 96.24 270.3 96.24 270.3 81.35 275.23 81.35 275.23 89.61 277.96 89.61 277.96 76.82 281.7 76.82 281.7 94.04 284.6 94.04 284.6 80.22 288.34 80.22 288.34 83.78 290.72 83.78 290.72 78.12 295.66 78.12 295.66 104.33 298.72 104.33 298.72 84.75 303.49 84.75 303.49 92.84 305.87 92.84 305.87 78.93 310.3 78.93 310.3 85.08 313.36 85.08 313.36 101.26 316.08 101.26 316.08 90.25 320 90.25 320 84.59 326.13 84.59 326.13 91.71 328.17 91.71 328.17 80.71 331.75 80.71 331.75 87.67 334.98 87.67 334.98 83.46 338.38 83.46 338.38 105.79 342.13 105.79 342.13 88.15 346.21 88.15 346.21 97.86 348.6 97.86 348.6 91.39 352.17 91.39 352.17 112.91 354.38 112.91 354.38 102.72 357.62 102.72 357.62 122.94 361.19 122.94 361.19 108.06 364.43 108.06 364.43 116.95 367.66 116.95 367.66 104.82 371.06 104.82 371.06 119.71 373.28 119.71 373.28 110.81 377.87 110.81 377.87 128.28 381.28 128.28 381.28 114.93 385.36 114.93 385.36 122.78 387.4 122.78 387.4 110.97 390.81 110.97 390.81 120.03 393.53 120.03 393.53 109.03 396.6 109.03 396.6 128.28 399.15 128.28 399.15 114.93 402.38 114.93 402.38 125.05 405.45 125.05 405.45 118.73 407.19 118.73"/><polygon class="cls-13" points="407.19 121.34 407.19 219.06 0 219.06 30.13 110.81 41.54 40.07 47.49 40.07 47.49 31.18 55.19 31.18 55.19 49.77 58.38 49.77 58.38 26.45 65.53 26.45 65.53 35.27 68.6 35.27 68.6 22.98 74.72 22.98 74.72 28.97 77.79 28.97 77.79 25.5 82.21 25.5 82.21 38.43 84.94 38.43 84.94 31.18 90.38 31.18 90.38 42.84 95.15 42.84 95.15 24.87 97.87 24.87 97.87 33.54 101.45 33.54 101.45 28.5 105.02 28.5 105.02 39.84 107.57 39.84 107.57 33.54 111.83 33.54 111.83 46.94 115.4 46.94 115.4 30.55 118.13 30.55 118.13 40.95 121.19 40.95 121.19 34.17 126.64 34.17 126.64 55.77 129.36 55.77 129.36 37.95 133.28 37.95 133.28 45.83 136.17 45.83 136.17 33.07 138.21 33.07 138.21 50.56 141.28 50.56 141.28 39.37 144.68 39.37 144.68 47.09 147.06 47.09 147.06 37.16 150.3 37.16 150.3 56.4 153.53 56.4 153.53 41.58 157.79 41.58 157.79 49.14 161.36 49.14 161.36 38.58 164.6 38.58 164.6 54.66 167.49 54.66 167.49 43.31 170.89 43.31 170.89 63.33 173.96 63.33 173.96 46.62 177.19 46.62 177.19 57.03 179.75 57.03 179.75 44.57 183.83 44.57 183.83 60.34 187.23 60.34 187.23 50.25 190.98 50.25 190.98 66.96 194.89 66.96 194.89 54.82 197.28 54.82 197.28 61.6 200 61.6 200 51.98 203.59 51.98 203.59 72.16 206.47 72.16 206.47 57.66 209.87 57.66 209.87 65.06 211.91 65.06 211.91 54.82 214.98 54.82 214.98 68.38 217.02 68.38 217.02 59.55 220.43 59.55 220.43 77.04 223.49 77.04 223.49 64.43 227.23 64.43 227.23 72.47 229.96 72.47 229.96 67.9 234.21 67.9 234.21 86.66 237.28 86.66 237.28 74.84 240.68 74.84 240.68 96.27 244.6 96.27 244.6 85.87 248.34 85.87 248.34 81.38 250.3 81.38 250.3 91.7 252.51 91.7 252.51 86.58 255.06 86.58 255.06 103.37 257.79 103.37 257.79 81.54 260.77 81.54 260.77 92.57 262.72 92.57 262.72 79.09 266.72 79.09 266.72 99.43 270.3 99.43 270.3 84.92 275.23 84.92 275.23 92.96 277.96 92.96 277.96 80.51 281.7 80.51 281.7 97.28 284.6 97.28 284.6 83.82 288.34 83.82 288.34 87.29 290.72 87.29 290.72 81.77 295.66 81.77 295.66 107.31 298.72 107.31 298.72 88.23 303.49 88.23 303.49 96.12 305.87 96.12 305.87 82.56 310.3 82.56 310.3 88.55 313.36 88.55 313.36 104.31 316.08 104.31 316.08 93.59 320 93.59 320 88.08 326.13 88.08 326.13 95.01 328.17 95.01 328.17 84.3 331.75 84.3 331.75 91.07 334.98 91.07 334.98 86.97 338.38 86.97 338.38 108.73 342.13 108.73 342.13 91.55 346.21 91.55 346.21 101 348.6 101 348.6 94.7 352.17 94.7 352.17 115.66 354.38 115.66 354.38 105.73 357.62 105.73 357.62 125.44 361.19 125.44 361.19 110.93 364.43 110.93 364.43 119.6 367.66 119.6 367.66 107.78 371.06 107.78 371.06 122.28 373.28 122.28 373.28 113.61 377.87 113.61 377.87 130.64 381.28 130.64 381.28 117.63 385.36 117.63 385.36 125.28 387.4 125.28 387.4 113.77 390.81 113.77 390.81 122.6 393.53 122.6 393.53 111.88 396.6 111.88 396.6 130.64 399.15 130.64 399.15 117.63 402.38 117.63 402.38 127.48 405.45 127.48 405.45 121.34 407.19 121.34"/><polygon class="cls-14" points="407.19 123.94 407.19 219.06 0 219.06 30.13 110.81 40.77 44.83 47.49 44.83 47.49 36.18 55.19 36.18 55.19 54.28 58.38 54.28 58.38 31.57 65.53 31.57 65.53 40.17 68.6 40.17 68.6 28.2 74.72 28.2 74.72 34.03 77.79 34.03 77.79 30.65 82.21 30.65 82.21 43.23 84.94 43.23 84.94 36.18 90.38 36.18 90.38 47.53 95.15 47.53 95.15 30.04 97.87 30.04 97.87 38.48 101.45 38.48 101.45 33.57 105.02 33.57 105.02 44.62 107.57 44.62 107.57 38.48 111.83 38.48 111.83 51.52 115.4 51.52 115.4 35.56 118.13 35.56 118.13 45.69 121.19 45.69 121.19 39.09 126.64 39.09 126.64 60.11 129.36 60.11 129.36 42.77 133.28 42.77 133.28 50.45 136.17 50.45 136.17 38.02 138.21 38.02 138.21 55.05 141.28 55.05 141.28 44.16 144.68 44.16 144.68 51.67 147.06 51.67 147.06 42.01 150.3 42.01 150.3 60.73 153.53 60.73 153.53 46.3 157.79 46.3 157.79 53.67 161.36 53.67 161.36 43.39 164.6 43.39 164.6 59.04 167.49 59.04 167.49 47.99 170.89 47.99 170.89 67.48 173.96 67.48 173.96 51.21 177.19 51.21 177.19 61.34 179.75 61.34 179.75 49.22 183.83 49.22 183.83 64.56 187.23 64.56 187.23 54.74 190.98 54.74 190.98 71 194.89 71 194.89 59.19 197.28 59.19 197.28 65.79 200 65.79 200 56.43 203.59 56.43 203.59 76.07 206.47 76.07 206.47 61.95 209.87 61.95 209.87 69.16 211.91 69.16 211.91 59.19 214.98 59.19 214.98 72.39 217.02 72.39 217.02 63.79 220.43 63.79 220.43 80.83 223.49 80.83 223.49 68.55 227.23 68.55 227.23 76.38 229.96 76.38 229.96 71.93 234.21 71.93 234.21 90.18 237.28 90.18 237.28 78.68 240.68 78.68 240.68 99.54 244.6 99.54 244.6 89.42 248.34 89.42 248.34 85.04 250.3 85.04 250.3 95.09 252.51 95.09 252.51 90.11 255.06 90.11 255.06 106.45 257.79 106.45 257.79 85.2 260.77 85.2 260.77 95.94 262.72 95.94 262.72 82.82 266.72 82.82 266.72 102.61 270.3 102.61 270.3 88.5 275.23 88.5 275.23 96.32 277.96 96.32 277.96 84.2 281.7 84.2 281.7 100.52 284.6 100.52 284.6 87.42 288.34 87.42 288.34 90.8 290.72 90.8 290.72 85.43 295.66 85.43 295.66 110.28 298.72 110.28 298.72 91.72 303.49 91.72 303.49 99.39 305.87 99.39 305.87 86.19 310.3 86.19 310.3 92.03 313.36 92.03 313.36 107.37 316.08 107.37 316.08 96.94 320 96.94 320 91.56 326.13 91.56 326.13 98.31 328.17 98.31 328.17 87.88 331.75 87.88 331.75 94.48 334.98 94.48 334.98 90.49 338.38 90.49 338.38 111.66 342.13 111.66 342.13 94.94 346.21 94.94 346.21 104.15 348.6 104.15 348.6 98.01 352.17 98.01 352.17 118.42 354.38 118.42 354.38 108.75 357.62 108.75 357.62 127.93 361.19 127.93 361.19 113.81 364.43 113.81 364.43 122.25 367.66 122.25 367.66 110.74 371.06 110.74 371.06 124.86 373.28 124.86 373.28 116.42 377.87 116.42 377.87 132.99 381.28 132.99 381.28 120.33 385.36 120.33 385.36 127.77 387.4 127.77 387.4 116.57 390.81 116.57 390.81 125.17 393.53 125.17 393.53 114.73 396.6 114.73 396.6 132.99 399.15 132.99 399.15 120.33 402.38 120.33 402.38 129.92 405.45 129.92 405.45 123.94 407.19 123.94"/><polygon class="cls-15" points="407.19 126.54 407.19 219.06 0 219.06 30.13 110.81 40 49.6 47.49 49.6 47.49 41.18 55.19 41.18 55.19 58.79 58.38 58.79 58.38 36.7 65.53 36.7 65.53 45.06 68.6 45.06 68.6 33.42 74.72 33.42 74.72 39.09 77.79 39.09 77.79 35.81 82.21 35.81 82.21 48.04 84.94 48.04 84.94 41.18 90.38 41.18 90.38 52.22 95.15 52.22 95.15 35.21 97.87 35.21 97.87 43.42 101.45 43.42 101.45 38.64 105.02 38.64 105.02 49.39 107.57 49.39 107.57 43.42 111.83 43.42 111.83 56.1 115.4 56.1 115.4 40.58 118.13 40.58 118.13 50.43 121.19 50.43 121.19 44.01 126.64 44.01 126.64 64.46 129.36 64.46 129.36 47.6 133.28 47.6 133.28 55.06 136.17 55.06 136.17 42.97 138.21 42.97 138.21 59.53 141.28 59.53 141.28 48.94 144.68 48.94 144.68 56.25 147.06 56.25 147.06 46.85 150.3 46.85 150.3 65.06 153.53 65.06 153.53 51.03 157.79 51.03 157.79 58.19 161.36 58.19 161.36 48.19 164.6 48.19 164.6 63.41 167.49 63.41 167.49 52.67 170.89 52.67 170.89 71.62 173.96 71.62 173.96 55.8 177.19 55.8 177.19 65.65 179.75 65.65 179.75 53.86 183.83 53.86 183.83 68.79 187.23 68.79 187.23 59.24 190.98 59.24 190.98 75.05 194.89 75.05 194.89 63.56 197.28 63.56 197.28 69.98 200 69.98 200 60.88 203.59 60.88 203.59 79.98 206.47 79.98 206.47 66.25 209.87 66.25 209.87 73.26 211.91 73.26 211.91 63.56 214.98 63.56 214.98 76.4 217.02 76.4 217.02 68.04 220.43 68.04 220.43 84.61 223.49 84.61 223.49 72.67 227.23 72.67 227.23 80.28 229.96 80.28 229.96 75.95 234.21 75.95 234.21 93.71 237.28 93.71 237.28 82.52 240.68 82.52 240.68 102.81 244.6 102.81 244.6 92.96 248.34 92.96 248.34 88.71 250.3 88.71 250.3 98.48 252.51 98.48 252.51 93.63 255.06 93.63 255.06 109.53 257.79 109.53 257.79 88.86 260.77 88.86 260.77 99.31 262.72 99.31 262.72 86.55 266.72 86.55 266.72 105.8 270.3 105.8 270.3 92.07 275.23 92.07 275.23 99.68 277.96 99.68 277.96 87.89 281.7 87.89 281.7 103.76 284.6 103.76 284.6 91.02 288.34 91.02 288.34 94.31 290.72 94.31 290.72 89.08 295.66 89.08 295.66 113.26 298.72 113.26 298.72 95.2 303.49 95.2 303.49 102.66 305.87 102.66 305.87 89.83 310.3 89.83 310.3 95.5 313.36 95.5 313.36 110.42 316.08 110.42 316.08 100.28 320 100.28 320 95.05 326.13 95.05 326.13 101.62 328.17 101.62 328.17 91.47 331.75 91.47 331.75 97.89 334.98 97.89 334.98 94.01 338.38 94.01 338.38 114.6 342.13 114.6 342.13 98.33 346.21 98.33 346.21 107.29 348.6 107.29 348.6 101.32 352.17 101.32 352.17 121.17 354.38 121.17 354.38 111.77 357.62 111.77 357.62 130.42 361.19 130.42 361.19 116.69 364.43 116.69 364.43 124.9 367.66 124.9 367.66 113.71 371.06 113.71 371.06 127.44 373.28 127.44 373.28 119.23 377.87 119.23 377.87 135.34 381.28 135.34 381.28 123.03 385.36 123.03 385.36 130.27 387.4 130.27 387.4 119.38 390.81 119.38 390.81 127.73 393.53 127.73 393.53 117.59 396.6 117.59 396.6 135.34 399.15 135.34 399.15 123.03 402.38 123.03 402.38 132.36 405.45 132.36 405.45 126.54 407.19 126.54"/><polygon class="cls-16" points="39.23 54.36 47.49 54.36 47.49 46.18 55.19 46.18 55.19 63.3 58.38 63.3 58.38 41.83 65.53 41.83 65.53 49.95 68.6 49.95 68.6 38.64 74.72 38.64 74.72 44.15 77.79 44.15 77.79 40.96 82.21 40.96 82.21 52.85 84.94 52.85 84.94 46.18 90.38 46.18 90.38 56.91 95.15 56.91 95.15 40.38 97.87 40.38 97.87 48.36 101.45 48.36 101.45 43.72 105.02 43.72 105.02 54.16 107.57 54.16 107.57 48.36 111.83 48.36 111.83 60.68 115.4 60.68 115.4 45.6 118.13 45.6 118.13 55.17 121.19 55.17 121.19 48.94 126.64 48.94 126.64 68.81 129.36 68.81 129.36 52.42 133.28 52.42 133.28 59.67 136.17 59.67 136.17 47.92 138.21 47.92 138.21 64.02 141.28 64.02 141.28 53.72 144.68 53.72 144.68 60.83 147.06 60.83 147.06 51.69 150.3 51.69 150.3 69.39 153.53 69.39 153.53 55.75 157.79 55.75 157.79 62.71 161.36 62.71 161.36 53 164.6 53 164.6 67.79 167.49 67.79 167.49 57.35 170.89 57.35 170.89 75.77 173.96 75.77 173.96 60.39 177.19 60.39 177.19 69.97 179.75 69.97 179.75 58.51 183.83 58.51 183.83 73.01 187.23 73.01 187.23 63.73 190.98 63.73 190.98 79.1 194.89 79.1 194.89 67.94 197.28 67.94 197.28 74.17 200 74.17 200 65.33 203.59 65.33 203.59 83.89 206.47 83.89 206.47 70.55 209.87 70.55 209.87 77.36 211.91 77.36 211.91 67.94 214.98 67.94 214.98 80.41 217.02 80.41 217.02 72.29 220.43 72.29 220.43 88.39 223.49 88.39 223.49 76.78 227.23 76.78 227.23 84.18 229.96 84.18 229.96 79.97 234.21 79.97 234.21 97.23 237.28 97.23 237.28 86.36 240.68 86.36 240.68 106.08 244.6 106.08 244.6 96.51 248.34 96.51 248.34 92.37 250.3 92.37 250.3 101.87 252.51 101.87 252.51 97.16 255.06 97.16 255.06 112.61 257.79 112.61 257.79 92.52 260.77 92.52 260.77 102.67 262.72 102.67 262.72 90.27 266.72 90.27 266.72 108.98 270.3 108.98 270.3 95.64 275.23 95.64 275.23 103.03 277.96 103.03 277.96 91.58 281.7 91.58 281.7 107 284.6 107 284.6 94.62 288.34 94.62 288.34 97.81 290.72 97.81 290.72 92.74 295.66 92.74 295.66 116.23 298.72 116.23 298.72 98.68 303.49 98.68 303.49 105.94 305.87 105.94 305.87 93.46 310.3 93.46 310.3 98.97 313.36 98.97 313.36 113.48 316.08 113.48 316.08 103.61 320 103.61 320 98.54 326.13 98.54 326.13 104.92 328.17 104.92 328.17 95.06 331.75 95.06 331.75 101.29 334.98 101.29 334.98 97.52 338.38 97.52 338.38 117.54 342.13 117.54 342.13 101.73 346.21 101.73 346.21 110.43 348.6 110.43 348.6 104.63 352.17 104.63 352.17 123.92 354.38 123.92 354.38 114.78 357.62 114.78 357.62 132.91 361.19 132.91 361.19 119.57 364.43 119.57 364.43 127.55 367.66 127.55 367.66 116.67 371.06 116.67 371.06 130.01 373.28 130.01 373.28 122.03 377.87 122.03 377.87 137.7 381.28 137.7 381.28 125.73 385.36 125.73 385.36 132.77 387.4 132.77 387.4 122.18 390.81 122.18 390.81 130.3 393.53 130.3 393.53 120.44 396.6 120.44 396.6 137.7 399.15 137.7 399.15 125.73 402.38 125.73 402.38 134.8 405.45 134.8 405.45 129.14 407.19 129.14 407.19 219.06 0 219.06 30.13 110.81 39.23 54.36"/><polygon class="cls-17" points="39.23 54.36 47.49 54.36 47.49 46.18 55.19 46.18 55.19 63.3 58.38 63.3 58.38 41.83 65.53 41.83 65.53 49.95 68.6 49.95 68.6 38.64 74.72 38.64 74.72 44.15 77.79 44.15 77.79 40.96 82.21 40.96 82.21 52.85 84.94 52.85 84.94 46.18 90.38 46.18 90.38 56.91 95.15 56.91 95.15 40.38 97.87 40.38 97.87 48.36 101.45 48.36 101.45 43.72 105.02 43.72 105.02 54.16 107.57 54.16 107.57 48.36 111.83 48.36 111.83 60.68 115.4 60.68 115.4 45.6 118.13 45.6 118.13 55.17 121.19 55.17 121.19 48.94 126.64 48.94 126.64 68.81 129.36 68.81 129.36 52.42 133.28 52.42 133.28 59.67 136.17 59.67 136.17 47.92 138.21 47.92 138.21 64.02 141.28 64.02 141.28 53.72 144.68 53.72 144.68 60.83 147.06 60.83 147.06 51.69 150.3 51.69 150.3 69.39 153.53 69.39 153.53 55.75 157.79 55.75 157.79 62.71 161.36 62.71 161.36 53 164.6 53 164.6 67.79 167.49 67.79 167.49 57.35 170.89 57.35 170.89 75.77 173.96 75.77 173.96 60.39 177.19 60.39 177.19 69.97 179.75 69.97 179.75 58.51 183.83 58.51 183.83 73.01 187.23 73.01 187.23 63.73 190.98 63.73 190.98 79.1 194.89 79.1 194.89 67.94 197.28 67.94 197.28 74.17 200 74.17 200 65.33 203.59 65.33 203.59 83.89 206.47 83.89 206.47 70.55 209.87 70.55 209.87 77.36 211.91 77.36 211.91 67.94 214.98 67.94 214.98 80.41 217.02 80.41 217.02 72.29 220.43 72.29 220.43 88.39 223.49 88.39 223.49 76.78 227.23 76.78 227.23 84.18 229.96 84.18 229.96 79.97 234.21 79.97 234.21 97.23 237.28 97.23 237.28 86.36 240.68 86.36 240.68 106.08 244.6 106.08 244.6 96.51 248.34 96.51 248.34 92.37 250.3 92.37 250.3 101.87 252.51 101.87 252.51 97.16 255.06 97.16 255.06 112.61 257.79 112.61 257.79 92.52 260.77 92.52 260.77 102.67 262.72 102.67 262.72 90.27 266.72 90.27 266.72 108.98 270.3 108.98 270.3 95.64 275.23 95.64 275.23 103.03 277.96 103.03 277.96 91.58 281.7 91.58 281.7 107 284.6 107 284.6 94.62 288.34 94.62 288.34 97.81 290.72 97.81 290.72 92.74 295.66 92.74 295.66 116.23 298.72 116.23 298.72 98.68 303.49 98.68 303.49 105.94 305.87 105.94 305.87 93.46 310.3 93.46 310.3 98.97 313.36 98.97 313.36 113.48 316.08 113.48 316.08 103.61 320 103.61 320 98.54 326.13 98.54 326.13 104.92 328.17 104.92 328.17 95.06 331.75 95.06 331.75 101.29 334.98 101.29 334.98 97.52 338.38 97.52 338.38 117.54 342.13 117.54 342.13 101.73 346.21 101.73 346.21 110.43 348.6 110.43 348.6 104.63 352.17 104.63 352.17 123.92 354.38 123.92 354.38 114.78 357.62 114.78 357.62 132.91 361.19 132.91 361.19 119.57 364.43 119.57 364.43 127.55 367.66 127.55 367.66 116.67 371.06 116.67 371.06 130.01 373.28 130.01 373.28 122.03 377.87 122.03 377.87 137.7 381.28 137.7 381.28 125.73 385.36 125.73 385.36 132.77 387.4 132.77 387.4 122.18 390.81 122.18 390.81 130.3 393.53 130.3 393.53 120.44 396.6 120.44 396.6 137.7 399.15 137.7 399.15 125.73 402.38 125.73 402.38 134.8 405.45 134.8 405.45 129.14 407.19 129.14 407.19 219.06 0 219.06 30.13 110.81 39.23 54.36"/></g></g></svg>