<svg xmlns="http://www.w3.org/2000/svg" xmlns:xlink="http://www.w3.org/1999/xlink" viewBox="0 0 360 339.79"><defs><style>.cls-1{fill:none;}.cls-2{fill:#381e10;}.cls-2,.cls-4{opacity:0.42;}.cls-3{fill:#28160b;}.cls-4{fill:#281204;}.cls-5{fill:#160902;}.cls-6{fill:#25140a;}.cls-7{fill:#221309;}.cls-8{fill:#1f1109;}.cls-9{fill:#1c0f08;}.cls-10{fill:#190e07;}.cls-11{fill:#160c06;}.cls-12{opacity:0.32;}.cls-13{fill:url(#New_Pattern_2);}.cls-14,.cls-15{fill:url(#New_Pattern_Swatch_1);}.cls-15{opacity:0.68;}</style><pattern id="New_Pattern_2" data-name="New Pattern 2" width="289.6" height="289.6" patternUnits="userSpaceOnUse" viewBox="0 0 289.6 289.6"><rect class="cls-1" width="289.6" height="289.6"/><path class="cls-2" d="M0,271.5s45.4-8.4,53.8-4,19.6,14.8,19.6,14.8,18.8-6.08,29.2-8L113,279.1l40.8-12.88s20.4,6.88,25.6,9.68,16.8,11.2,24.8,8.4,39.6-12.4,39.6-12.4,18.4,3.68,26.8,3.64,19-3.64,19-3.64v30.4H271l-27.6,9.2-29.2-4s-13.6-8.8-35.2-8.8-34.2-7.2-34.2-7.2l-25.4,11.2-24.8-6.8-34.8,8.4L38.6,291.5S3,302.3,0,302.3Z"/><rect class="cls-3" y="12.87" width="289.6" height="289.6"/><path class="cls-2" d="M289.6,27.37c-71.8,10.34-143.67,1.4-196.4-4C59.79,20,26.62,23,0,27.37v28c50.27-2,143.92-5.78,203.45-.19,26.17,2.46,57,1.94,86.15.21Z"/><path class="cls-2" d="M289.6,123.75c-57.72.56-143.35-5.41-195.2-12.64C58.14,106.05,39,125.68,0,123.86v26.58c41.61-4,113.6-12,152-3.54,24.31,5.37,82.18,6.26,137.6,3.36Z"/><path class="cls-2" d="M0,53.87s45.4-8.4,53.8-4,19.6,14.8,19.6,14.8,18.8-6.07,29.2-8L113,61.47,153.8,48.6s20.4,6.87,25.6,9.67,16.8,11.2,24.8,8.4,39.6-12.4,39.6-12.4,18.4,3.69,26.8,3.65,19-3.65,19-3.65v30.4H271l-27.6,9.2-29.2-4s-13.6-8.8-35.2-8.8-34.2-7.2-34.2-7.2l-25.4,11.2-24.8-6.8-34.8,8.4L38.6,73.87S3,84.67,0,84.67Z"/><path class="cls-2" d="M289.6,117.42V87.53s-7.4,6.69-15.4,8.69-28.4-9.6-34.4-8.8-34,3.2-50-4-10.4-1.2-10.4-1.2l-34.6,14-46.2-11h-26L49,91.82,0,87.53v29.89s23.4-8,29.2-8.4,26.6,4.2,39.4,2.2,21,1.8,26.8,1,25.6-7.8,25.6-7.8l9.4,10.4,7.2-4.8,9,12.2,14.8-3.8,17.8-14,6.4,2.4H213c7,0,18.8,14,18.8,14l30.8-10.4,27,7"/><path class="cls-2" d="M289.6,183c-71.8,10.34-143.67,1.4-196.4-4-33.41-3.42-66.58-.42-93.2,4v28c50.27-2,143.92-5.78,203.45-.19,26.17,2.46,57,1.94,86.15.21Z"/><path class="cls-2" d="M0,217.18s45.4-8.4,53.8-4S73.4,228,73.4,228s18.8-6.08,29.2-8l10.4,4.84,40.8-12.88s20.4,6.88,25.6,9.68,16.8,11.2,24.8,8.4,39.6-12.4,39.6-12.4,18.4,3.69,26.8,3.64,19-3.64,19-3.64V248H271l-27.6,9.2-29.2-4s-13.6-8.8-35.2-8.8-34.2-7.2-34.2-7.2l-25.4,11.2-24.8-6.8L59.8,250l-21.2-12.8S3,248,0,248Z"/><path class="cls-2" d="M0,273s45.4-8.4,53.8-4,19.6,14.8,19.6,14.8,18.8-6.08,29.2-8l10.4,4.84,40.8-12.88s20.4,6.88,25.6,9.68,16.8,11.2,24.8,8.4,39.6-12.4,39.6-12.4,18.4,3.69,26.8,3.64,19-3.64,19-3.64v30.4H271L243.4,313l-29.2-4s-13.6-8.8-35.2-8.8-34.2-7.2-34.2-7.2l-25.4,11.2-24.8-6.8-34.8,8.4L38.6,293S3,303.78,0,303.78Z"/><path class="cls-2" d="M0-18.1s45.4-8.4,53.8-4S73.4-7.3,73.4-7.3s18.8-6.08,29.2-8L113-10.5l40.8-12.88s20.4,6.88,25.6,9.68,16.8,11.2,24.8,8.4,39.6-12.4,39.6-12.4,18.4,3.68,26.8,3.64,19-3.64,19-3.64V12.7H271l-27.6,9.2-29.2-4S200.6,9.1,179,9.1s-34.2-7.2-34.2-7.2L119.4,13.1,94.6,6.3,59.8,14.7,38.6,1.9S3,12.7,0,12.7Z"/><path class="cls-2" d="M289.6,280.72V250.84s-7.4,6.68-15.4,8.68-28.4-9.6-34.4-8.8-34,3.2-50-4-10.4-1.2-10.4-1.2l-34.6,14-46.2-11h-26L49,255.12,0,250.84v29.88s23.4-8,29.2-8.4,26.6,4.2,39.4,2.2,21,1.8,26.8,1,25.6-7.8,25.6-7.8l9.4,10.4,7.2-4.8,9,12.2,14.8-3.8,17.8-14,6.4,2.4H213c7,0,18.8,14,18.8,14l30.8-10.4,27,7"/><path class="cls-2" d="M0,161.54l16.2-10.4,13.6,11.2L65,144.74H75.4s-1.2-2.8,8,3.2,40,2,40,2l24,10.4s26.8-5.2,35.2-1.2,29.6-1.6,29.6-1.6l10,10,26.8-9.2,25.6,9.2,15-6V195s-41.8-15.9-61.6-12.3S186.6,195,186.6,195l-25.2-25.48L114,176.14l-31.8-6.58-27,15.58-7.2-6.2-18,6.2L0,195Z"/><rect class="cls-3" y="-276.73" width="289.6" height="289.6"/><path class="cls-2" d="M0-16.62s45.4-8.4,53.8-4S73.4-5.82,73.4-5.82s18.8-6.08,29.2-8L113-9,153.8-21.9s20.4,6.88,25.6,9.68S196.2-1,204.2-3.82s39.6-12.4,39.6-12.4,18.4,3.69,26.8,3.64,19-3.64,19-3.64v30.4H271l-27.6,9.2-29.2-4s-13.6-8.8-35.2-8.8-34.2-7.2-34.2-7.2l-25.4,11.2L94.6,7.78l-34.8,8.4L38.6,3.38S3,14.18,0,14.18Z"/></pattern><pattern id="New_Pattern_Swatch_1" data-name="New Pattern Swatch 1" width="289.6" height="289.6" patternUnits="userSpaceOnUse" viewBox="0 0 289.6 289.6"><rect class="cls-1" width="289.6" height="289.6"/><path class="cls-4" d="M0,271.5s45.4-8.4,53.8-4,19.6,14.8,19.6,14.8,18.8-6.08,29.2-8L113,279.1l40.8-12.88s20.4,6.88,25.6,9.68,16.8,11.2,24.8,8.4,39.6-12.4,39.6-12.4,18.4,3.68,26.8,3.64,19-3.64,19-3.64v30.4H271l-27.6,9.2-29.2-4s-13.6-8.8-35.2-8.8-34.2-7.2-34.2-7.2l-25.4,11.2-24.8-6.8-34.8,8.4L38.6,291.5S3,302.3,0,302.3Z"/><rect class="cls-5" y="12.87" width="289.6" height="289.6"/><path class="cls-4" d="M289.6,27.37c-71.8,10.34-143.67,1.4-196.4-4C59.79,20,26.62,23,0,27.37v28c50.27-2,143.92-5.78,203.45-.19,26.17,2.46,57,1.94,86.15.21Z"/><path class="cls-4" d="M289.6,123.75c-57.72.56-143.35-5.41-195.2-12.64C58.14,106.05,39,125.68,0,123.86v26.58c41.61-4,113.6-12,152-3.54,24.31,5.37,82.18,6.26,137.6,3.36Z"/><path class="cls-4" d="M0,53.87s45.4-8.4,53.8-4,19.6,14.8,19.6,14.8,18.8-6.07,29.2-8L113,61.47,153.8,48.6s20.4,6.87,25.6,9.67,16.8,11.2,24.8,8.4,39.6-12.4,39.6-12.4,18.4,3.69,26.8,3.65,19-3.65,19-3.65v30.4H271l-27.6,9.2-29.2-4s-13.6-8.8-35.2-8.8-34.2-7.2-34.2-7.2l-25.4,11.2-24.8-6.8-34.8,8.4L38.6,73.87S3,84.67,0,84.67Z"/><path class="cls-4" d="M289.6,117.42V87.53s-7.4,6.69-15.4,8.69-28.4-9.6-34.4-8.8-34,3.2-50-4-10.4-1.2-10.4-1.2l-34.6,14-46.2-11h-26L49,91.82,0,87.53v29.89s23.4-8,29.2-8.4,26.6,4.2,39.4,2.2,21,1.8,26.8,1,25.6-7.8,25.6-7.8l9.4,10.4,7.2-4.8,9,12.2,14.8-3.8,17.8-14,6.4,2.4H213c7,0,18.8,14,18.8,14l30.8-10.4,27,7"/><path class="cls-4" d="M289.6,183c-71.8,10.34-143.67,1.4-196.4-4-33.41-3.42-66.58-.42-93.2,4v28c50.27-2,143.92-5.78,203.45-.19,26.17,2.46,57,1.94,86.15.21Z"/><path class="cls-4" d="M0,217.18s45.4-8.4,53.8-4S73.4,228,73.4,228s18.8-6.08,29.2-8l10.4,4.84,40.8-12.88s20.4,6.88,25.6,9.68,16.8,11.2,24.8,8.4,39.6-12.4,39.6-12.4,18.4,3.69,26.8,3.64,19-3.64,19-3.64V248H271l-27.6,9.2-29.2-4s-13.6-8.8-35.2-8.8-34.2-7.2-34.2-7.2l-25.4,11.2-24.8-6.8L59.8,250l-21.2-12.8S3,248,0,248Z"/><path class="cls-4" d="M0,273s45.4-8.4,53.8-4,19.6,14.8,19.6,14.8,18.8-6.08,29.2-8l10.4,4.84,40.8-12.88s20.4,6.88,25.6,9.68,16.8,11.2,24.8,8.4,39.6-12.4,39.6-12.4,18.4,3.69,26.8,3.64,19-3.64,19-3.64v30.4H271L243.4,313l-29.2-4s-13.6-8.8-35.2-8.8-34.2-7.2-34.2-7.2l-25.4,11.2-24.8-6.8-34.8,8.4L38.6,293S3,303.78,0,303.78Z"/><path class="cls-4" d="M0-18.1s45.4-8.4,53.8-4S73.4-7.3,73.4-7.3s18.8-6.08,29.2-8L113-10.5l40.8-12.88s20.4,6.88,25.6,9.68,16.8,11.2,24.8,8.4,39.6-12.4,39.6-12.4,18.4,3.68,26.8,3.64,19-3.64,19-3.64V12.7H271l-27.6,9.2-29.2-4S200.6,9.1,179,9.1s-34.2-7.2-34.2-7.2L119.4,13.1,94.6,6.3,59.8,14.7,38.6,1.9S3,12.7,0,12.7Z"/><path class="cls-4" d="M289.6,280.72V250.84s-7.4,6.68-15.4,8.68-28.4-9.6-34.4-8.8-34,3.2-50-4-10.4-1.2-10.4-1.2l-34.6,14-46.2-11h-26L49,255.12,0,250.84v29.88s23.4-8,29.2-8.4,26.6,4.2,39.4,2.2,21,1.8,26.8,1,25.6-7.8,25.6-7.8l9.4,10.4,7.2-4.8,9,12.2,14.8-3.8,17.8-14,6.4,2.4H213c7,0,18.8,14,18.8,14l30.8-10.4,27,7"/><path class="cls-4" d="M0,161.54l16.2-10.4,13.6,11.2L65,144.74H75.4s-1.2-2.8,8,3.2,40,2,40,2l24,10.4s26.8-5.2,35.2-1.2,29.6-1.6,29.6-1.6l10,10,26.8-9.2,25.6,9.2,15-6V195s-41.8-15.9-61.6-12.3S186.6,195,186.6,195l-25.2-25.48L114,176.14l-31.8-6.58-27,15.58-7.2-6.2-18,6.2L0,195Z"/><rect class="cls-5" y="-276.73" width="289.6" height="289.6"/><path class="cls-4" d="M0-16.62s45.4-8.4,53.8-4S73.4-5.82,73.4-5.82s18.8-6.08,29.2-8L113-9,153.8-21.9s20.4,6.88,25.6,9.68S196.2-1,204.2-3.82s39.6-12.4,39.6-12.4,18.4,3.69,26.8,3.64,19-3.64,19-3.64v30.4H271l-27.6,9.2-29.2-4s-13.6-8.8-35.2-8.8-34.2-7.2-34.2-7.2l-25.4,11.2L94.6,7.78l-34.8,8.4L38.6,3.38S3,14.18,0,14.18Z"/></pattern></defs><title>Parede</title><g id="Layer_2" data-name="Layer 2"><g id="Pedra_Meio" data-name="Pedra Meio"><polygon class="cls-3" points="2.93 0 169.07 30.6 360 39.74 360 105.15 239.19 136.64 163.96 176.9 178.6 269.06 178.6 299.26 174.05 339.79 111.19 339.7 71.67 281.31 54.91 226.75 74.89 167.79 63.37 155.19 0 99.74 0 60.68 2.93 0"/><polygon class="cls-6" points="2.93 0 169.07 30.6 360 36.84 360 105.15 236.13 132.91 158.38 174.06 176.22 268.23 176.33 296.7 174.05 339.79 111.19 339.7 71.67 281.31 56.58 227.25 79.65 169.28 67.62 154.6 4.6 94.34 0 60.68 2.93 0"/><polygon class="cls-7" points="2.93 0 169.07 30.6 360 33.94 360 105.15 233.06 129.18 152.8 171.22 173.84 267.41 174.06 294.13 174.05 339.79 111.19 339.7 71.67 281.31 58.26 227.76 84.4 170.76 71.88 154 9.21 88.95 0 60.68 2.93 0"/><polygon class="cls-8" points="2.93 0 169.07 30.6 360 31.04 360 105.15 230 125.45 147.22 168.38 171.47 266.59 171.79 291.57 174.05 339.79 111.19 339.7 71.67 281.31 59.93 228.26 89.16 172.25 76.13 153.41 13.81 83.55 0 60.68 2.93 0"/><polygon class="cls-9" points="2.93 0 169.07 30.6 360 28.14 360 105.15 226.94 121.72 141.64 165.54 169.09 265.77 169.53 289 174.05 339.79 111.19 339.7 71.67 281.31 61.6 228.77 93.91 173.74 80.39 152.81 18.41 78.16 0 60.68 2.93 0"/><polygon class="cls-10" points="2.93 0 169.07 30.6 360 25.24 360 105.15 223.87 117.99 136.06 162.7 166.72 264.94 167.26 286.44 174.05 339.79 111.19 339.7 71.67 281.31 63.27 229.27 98.67 175.22 84.64 152.22 23.02 72.76 0 60.68 2.93 0"/><polygon class="cls-11" points="2.93 0 169.07 30.6 360 22.34 360 105.15 220.81 114.26 130.49 159.86 164.34 264.12 164.99 283.87 174.05 339.79 111.19 339.7 71.67 281.31 64.94 229.78 103.42 176.71 88.9 151.62 27.62 67.36 0 60.68 2.93 0"/><g class="cls-12"><polygon class="cls-13" points="2.93 0 169.07 30.6 360 39.74 360 105.15 239.19 136.64 163.96 176.9 178.6 269.06 178.6 299.26 174.05 339.79 111.19 339.7 71.67 281.31 54.91 226.75 74.89 167.79 63.37 155.19 0 99.74 0 60.68 2.93 0"/><polygon class="cls-14" points="2.93 0 169.07 30.6 360 22.34 360 105.15 220.81 114.26 130.49 159.86 164.34 264.12 164.99 283.87 174.05 339.79 111.19 339.7 71.67 281.31 64.94 229.78 103.42 176.71 88.9 151.62 27.62 67.36 0 60.68 2.93 0"/></g><polygon class="cls-15" points="2.93 0 169.07 30.6 360 22.34 360 105.15 220.81 114.26 130.49 159.86 164.34 264.12 164.99 283.87 174.05 339.79 111.19 339.7 71.67 281.31 64.94 229.78 103.42 176.71 88.9 151.62 27.62 67.36 0 60.68 2.93 0"/></g></g></svg>