<svg xmlns="http://www.w3.org/2000/svg" viewBox="0 0 174.93 30"><defs><style>.cls-1{fill:#c1272d;}</style></defs><title>Vida</title><g id="Layer_2" data-name="Layer 2"><g id="Layer_1-2" data-name="Layer 1"><rect class="cls-1" width="174.93" height="30"/><polygon points="174.94 10.65 174.94 10.65 174.94 3.92 174.94 3.92 170.35 0 162.45 0 174.94 10.65"/><polygon points="43.73 3.92 39.14 0 31.25 0 43.73 10.65 56.21 0 48.32 0 43.73 3.92"/><polygon points="0 3.92 0 10.65 12.48 0 4.59 0 0 3.92"/><polygon points="0 26.45 4.17 30 12.24 30 0 19.55 0 26.45"/><path d="M77.5,15.18,65.35,4.82,53.21,15.18,65.35,25.54ZM65.35,11.55l4.25,3.63-4.25,3.63L61.1,15.18Z"/><path d="M165.38,15.18,153.24,4.82,141.09,15.18l12.15,10.36Zm-12.14-3.63,4.25,3.63-4.25,3.63L149,15.18Z"/><polygon points="131.19 3.92 126.61 0 118.71 0 131.19 10.65 143.67 0 135.78 0 131.19 3.92"/><polygon points="3.11 15.18 20.9 0 18.64 0 0.85 15.18 18.21 30 20.47 30 3.11 15.18"/><polygon points="87.46 3.92 82.88 0 74.98 0 87.46 10.65 99.94 0 92.05 0 87.46 3.92"/><path d="M121.44,15.18,109.3,4.82,97.15,15.18,109.3,25.54ZM109.3,11.55l4.25,3.63-4.25,3.63L105,15.18Z"/><path d="M33.55,15.18,21.41,4.82,9.27,15.18,21.41,25.54ZM21.41,11.55l4.25,3.63-4.25,3.63-4.25-3.63Z"/><polygon points="25.09 0 21.92 0 39.71 15.18 22.35 30 25.52 30 42.88 15.18 25.09 0"/><polygon points="134.94 15.18 152.72 0 149.83 0 132.04 15.18 149.41 30 152.3 30 134.94 15.18"/><polygon points="112.56 0 109.81 0 127.59 15.18 110.23 30 112.98 30 130.34 15.18 112.56 0"/><polygon points="156.3 0 153.75 0 171.54 15.18 154.17 30 156.72 30 174.08 15.18 156.3 0"/><polygon points="174.94 26.45 174.94 26.45 174.94 19.55 174.94 19.55 169.07 24.55 162.69 30 170.77 30 174.94 26.45"/><polygon points="118.95 30 127.03 30 131.19 26.45 135.36 30 143.44 30 131.19 19.55 118.95 30"/><polygon points="68.83 0 65.87 0 83.65 15.18 66.29 30 69.25 30 86.61 15.18 68.83 0"/><polygon points="47.05 15.18 64.84 0 62.37 0 44.58 15.18 61.95 30 64.42 30 47.05 15.18"/><polygon points="37.87 24.55 31.49 30 39.57 30 43.73 26.45 47.9 30 55.98 30 43.73 19.55 37.87 24.55"/><polygon points="75.22 30 83.3 30 87.46 26.45 91.63 30 99.71 30 87.46 19.55 75.22 30"/><polygon points="91 15.18 108.78 0 106.1 0 88.31 15.18 105.68 30 108.36 30 91 15.18"/></g></g></svg>