<?xml version="1.0" encoding="utf-8"?>
<!-- Generator: Adobe Illustrator 23.1.0, SVG Export Plug-In . SVG Version: 6.00 Build 0)  -->
<svg version="1.1" id="Layer_1" xmlns="http://www.w3.org/2000/svg" xmlns:xlink="http://www.w3.org/1999/xlink" x="0px" y="0px"
	 viewBox="0 0 7473.6 680.5" style="enable-background:new 0 0 7473.6 680.5;" xml:space="preserve">
<style type="text/css">
	.st0{fill:#586620;}
	.st1{fill:#66581F;}
</style>
<title>Grama Chão</title>
<g>
	<g id="grama_chao">
		<g id="grama">
			<path class="st0" d="M999.4,100.9c0,0-1.3-27.2-7.5-37.9c0,0,12.2,29.1,13.8,33l4.6-38.3l4,39.2l6.5-32.5l2.8,34.3
				c0,0,12.8-28.8,10-34c0,0-0.7,28.5,0.9,31.6s-1.5,4.7-1.5,4.7L999.4,100.9z"/>
			<path class="st0" d="M977.8,100.9c0,0-1.3-27.2-7.5-37.9c0,0,12.2,29.1,13.8,33l4.6-38.3l4,39.2l6.5-32.5l2.8,34.3
				c0,0,12.8-28.8,10-34c0,0-0.7,28.5,0.9,31.6s-1.5,4.7-1.5,4.7L977.8,100.9z"/>
			<path class="st1" d="M948.1,100.9c0,0-1.3-17.2-7.5-24c0,0,12.2,18.4,13.8,20.9l4.6-24.3l4,24.8l6.5-20.6l2.8,21.7
				c0,0,12.8-18.2,10-21.5c0,0-0.7,18,0.9,20s-1.5,3-1.5,3L948.1,100.9z"/>
			<path class="st0" d="M923.1,101.9c0,0-1.3-12-7.5-16.7c0,0,12.2,12.9,13.8,14.6l4.6-16.9l4,17.3l6.5-14.4l2.8,15.2
				c0,0,12.8-12.7,10-15c0,0-0.7,12.6,0.9,14s-1.5,2.1-1.5,2.1L923.1,101.9z"/>
			<path class="st0" d="M891.1,101.9c0,0-1.3-10-7.5-13.9c0,0,12.2,10.7,13.8,12.2l4.6-14.1l4,14.4l6.5-12l2.9,12.6
				c0,0,12.8-10.6,10-12.5c0,0-0.7,10.5,0.9,11.6s-1.5,1.7-1.5,1.7L891.1,101.9z"/>
			<path class="st1" d="M866.1,101.9c0,0-1.3-21.2-7.5-29.6c0,0,12.2,22.7,13.8,25.8l4.6-29.9l4,30.6l6.5-25.4l2.8,26.8
				c0,0,12.8-22.5,10-26.5c0,0-0.7,22.2,0.9,24.6s-1.5,3.7-1.5,3.7L866.1,101.9z"/>
			<path class="st0" d="M841.5,103.5c0,0-1.3-13.7-7.5-19.1c0,0,12.2,14.7,13.8,16.6l4.6-19.3l4,19.7l6.6-16.4l2.8,17.3
				c0,0,12.8-14.5,10-17.1c0,0-0.7,14.4,0.9,15.9s-1.5,2.4-1.5,2.4L841.5,103.5z"/>
			<path class="st1" d="M2404.5,100.8c0,0-1.3-18.5-7.5-25.7c0,0,12.2,19.8,13.8,22.4l4.6-26.1l4,26.6l6.6-22.1l2.9,23.3
				c0,0,12.8-19.6,10-23.1c0,0-0.7,19.4,0.9,21.4s-1.6,3.2-1.6,3.2L2404.5,100.8z"/>
			<path class="st1" d="M2372.5,100.8c0,0-1.3-25.4-7.5-35.4c0,0,12.2,27.2,13.8,30.9l4.6-35.9l4,36.6l6.5-30.4l2.9,32.1
				c0,0,12.8-26.9,10-31.8c0,0-0.7,26.6,0.9,29.5s-1.6,4.4-1.6,4.4H2372.5z"/>
			<path class="st1" d="M2347.5,100.8c0,0-1.3-21.2-7.5-29.6c0,0,12.2,22.7,13.8,25.8l4.6-29.9l4,30.6l6.5-25.4l2.9,26.8
				c0,0,12.8-22.5,10-26.5c0,0-0.7,22.2,0.9,24.6s-1.5,3.7-1.5,3.7H2347.5z"/>
			<path class="st1" d="M2432.4,100.8c0,0-1.3-10.6-7.5-14.8c0,0,12.2,11.4,13.8,12.9l4.6-15l4,15.3l6.5-12.7l2.9,13.4
				c0,0,12.8-11.3,10-13.3c0,0-0.3,13,1.3,14.2h-2L2432.4,100.8z"/>
			<path class="st1" d="M2322.9,102.4c0,0-1.3-13.7-7.5-19.1c0,0,12.2,14.7,13.8,16.7l4.6-19.3l4,19.7l6.5-16.4l2.9,17.3
				c0,0,12.8-14.5,10-17.1c0,0-0.7,14.4,0.9,15.9s-1.5,2.4-1.5,2.4H2322.9z"/>
			<path class="st0" d="M809.4,103.5c0,0-1.3-11.4-7.5-15.9c0,0,12.2,12.2,13.8,13.9l4.6-16.1l4,16.4l6.5-13.7l2.8,14.4
				c0,0,12.8-12.1,10-14.3c0,0-0.7,12,0.9,13.3s-1.5,2-1.5,2L809.4,103.5z"/>
			<path class="st0" d="M784.4,103.5c0,0-1.3-26.2-7.5-36.5c0,0,12.2,28,13.8,31.8l4.6-36.9l4,37.7l6.5-31.3l2.8,33
				c0,0,12.8-27.7,10-32.7c0,0-0.7,27.4,0.9,30.4s-1.5,4.5-1.5,4.5L784.4,103.5z"/>
			<path class="st0" d="M766.3,103.5c0,0-1.3-18.5-7.5-25.8c0,0,12.2,19.8,13.8,22.5l4.6-26.1l4,26.7l6.5-22.1l2.8,23.3
				c0,0,12.8-19.6,10-23.1c0,0-0.7,19.4,0.9,21.5s-1.5,3.2-1.5,3.2L766.3,103.5z"/>
			<path class="st0" d="M741.3,103.5c0,0-1.3-26.2-7.5-36.5c0,0,12.2,28,13.8,31.8l4.6-36.9l4,37.7l6.5-31.3l2.8,33
				c0,0,12.8-27.7,10-32.7c0,0-0.7,27.4,0.9,30.4s-1.5,4.5-1.5,4.5L741.3,103.5z"/>
			<path class="st0" d="M2283.1,99.3c0,0-1.3-10-7.5-13.9c0,0,12.2,10.7,13.8,12.2l4.6-14.1l4,14.4l6.5-12l2.9,12.6
				c0,0,12.8-10.6,10-12.5c0,0-0.7,10.5,0.9,11.6s-1.5,1.7-1.5,1.7L2283.1,99.3z"/>
			<path class="st0" d="M2258.1,99.3c0,0-1.3-21.2-7.5-29.5c0,0,12.2,22.7,13.8,25.8l4.6-29.9l4,30.6l6.5-25.4l2.8,26.8
				c0,0,12.8-22.5,10-26.5c0,0-0.7,22.2,0.9,24.6s-1.5,3.7-1.5,3.7L2258.1,99.3z"/>
			<path class="st0" d="M2233.5,100.9c0,0-1.3-13.7-7.5-19.1c0,0,12.2,14.7,13.8,16.7l4.6-19.3l4,19.8l6.5-16.4l2.8,17.3
				c0,0,12.8-14.5,10-17.1c0,0-0.7,14.4,0.9,15.9s-1.5,2.4-1.5,2.4H2233.5z"/>
			<path class="st0" d="M2201.4,100.9c0,0-1.3-11.4-7.5-15.9c0,0,12.2,12.2,13.8,13.9l4.6-16.1l4,16.4l6.5-13.7l2.8,14.4
				c0,0,12.8-12.1,10.1-14.3c0,0-0.7,12,0.9,13.3s-1.5,2-1.5,2L2201.4,100.9z"/>
			<path class="st0" d="M2176.4,100.9c0,0-1.3-18.5-7.5-25.8c0,0,12.2,19.8,13.8,22.5l4.6-26.1l4,26.7l6.6-22.1l2.8,23.3
				c0,0,12.8-19.6,10.1-23.1c0,0-0.7,19.4,0.9,21.5s-1.5,3.2-1.5,3.2L2176.4,100.9z"/>
			<path class="st0" d="M2158.3,100.9c0,0-1.3-13.1-7.5-18.2c0,0,12.2,14,13.8,15.9l4.6-18.5l4,18.8l6.5-15.7l2.9,16.5
				c0,0,12.8-13.9,10-16.4c0,0-0.7,13.7,0.9,15.2s-1.6,2.3-1.6,2.3H2158.3z"/>
			<path class="st0" d="M2133.3,100.9c0,0-1.3-11.6-7.5-16.2c0,0,12.2,12.4,13.8,14.1l4.6-16.4l4,16.7l6.5-13.9l2.8,14.7
				c0,0,12.8-12.3,10.1-14.5c0,0-0.7,12.2,0.9,13.5s-1.5,2-1.5,2L2133.3,100.9z"/>
			<path class="st0" d="M424.2,154.7c0,0-1.3-12.1-7.5-16.9c0,0,12.2,13,13.8,14.7l4.6-17.1l4,17.5l6.5-14.5l2.9,15.3
				c0,0,12.8-12.9,10-15.1c0,0-0.7,12.7,0.9,14.1s-1.5,2.1-1.5,2.1L424.2,154.7z"/>
			<path class="st0" d="M399.2,154.7c0,0-1.3-18.8-7.5-26.2c0,0,12.2,20.1,13.8,22.8l4.6-26.5l4,27.1l6.5-22.5l2.9,23.7
				c0,0,12.8-19.9,10-23.5c0,0-0.7,19.7,0.9,21.8s-1.5,3.2-1.5,3.2H399.2z"/>
			<path class="st0" d="M374.6,154.7c0,0-1.3-14.6-7.5-20.3c0,0,12.2,15.6,13.8,17.7l4.6-20.5l4,21l6.6-17.4l2.9,18.4
				c0,0,12.8-15.4,10-18.2c0,0-0.7,15.3,0.9,16.9s-1.5,2.5-1.5,2.5H374.6z"/>
			<path class="st0" d="M342.6,154.7c0,0-1.3-12.1-7.5-16.9c0,0,12.2,13,13.8,14.7l4.6-17.1l4,17.5l6.6-14.5l2.9,15.3
				c0,0,12.8-12.9,10-15.1c0,0-0.7,12.7,0.9,14.1s-1.5,2.1-1.5,2.1L342.6,154.7z"/>
			<path class="st0" d="M317.6,154.7c0,0-1.3-17.1-7.5-23.9c0,0,12.2,18.4,13.8,20.8l4.6-24.2l4,24.7l6.6-20.5l2.9,21.6
				c0,0,12.8-18.2,10-21.4c0,0-0.7,18,0.9,19.9s-1.5,3-1.5,3L317.6,154.7z"/>
			<path class="st0" d="M299.5,154.7c0,0-1.3-12.1-7.5-16.9c0,0,12.2,13,13.8,14.7l4.6-17.1l4,17.5l6.5-14.5l2.8,15.3
				c0,0,12.8-12.9,10-15.1c0,0-0.7,12.7,0.9,14.1s-1.5,2.1-1.5,2.1L299.5,154.7z"/>
			<path class="st0" d="M274.5,154.7c0,0-1.3-17.1-7.5-23.9c0,0,12.2,18.4,13.8,20.8l4.6-24.2l4,24.7l6.5-20.5l2.9,21.6
				c0,0,12.8-18.2,10-21.4c0,0-0.7,18,0.9,19.9s-1.5,3-1.5,3L274.5,154.7z"/>
			<path class="st0" d="M242.3,154.7c0,0-1.3-12.1-7.5-16.9c0,0,12.2,13,13.8,14.7l4.6-17.1l4,17.5l6.5-14.5l2.9,15.3
				c0,0,12.8-12.9,10-15.1c0,0-0.7,12.7,0.9,14.1s-1.5,2.1-1.5,2.1L242.3,154.7z"/>
			<path class="st0" d="M217.3,154.7c0,0-1.3-24.4-7.5-34c0,0,12.2,26.1,13.8,29.6l4.6-34.4l4,35.1l6.5-29.2l2.8,30.8
				c0,0,12.8-25.8,10.1-30.5c0,0-0.7,25.6,0.9,28.3s-1.5,4.2-1.5,4.2L217.3,154.7z"/>
			<path class="st0" d="M192.6,154.7c0,0-1.3-18.9-7.5-26.3c0,0,12.2,20.3,13.8,23l4.6-26.7l4,27.2l6.5-22.7l2.8,23.9
				c0,0,12.8-20,10-23.6c0,0-0.7,19.8,0.9,21.9s-1.5,3.3-1.5,3.3H192.6z"/>
			<path class="st0" d="M160.6,154.7c0,0-1.3-13.2-7.5-18.4c0,0,12.2,14.2,13.8,16.1l4.6-18.7l4,19.1l6.6-15.8l2.8,16.7
				c0,0,12.8-14,10-16.5c0,0-0.7,13.9,0.9,15.4s-1.5,2.3-1.5,2.3H160.6z"/>
			<path class="st0" d="M135.6,154.7c0,0-1.3-26.4-7.5-36.8c0,0,12.2,28.3,13.8,32.1l4.6-37.2l4,38l6.6-31.6l2.8,33.3
				c0,0,12.8-28,10-33c0,0-0.7,27.7,0.9,30.6s-1.5,4.6-1.5,4.6H135.6z"/>
			<path class="st0" d="M117.5,154.7c0,0-1.3-18.7-7.5-26c0,0,12.2,20,13.8,22.7l4.6-26.3l4,26.9l6.5-22.3l2.9,23.6
				c0,0,12.8-19.8,10-23.3c0,0-0.7,19.6,0.9,21.7s-1.6,3.2-1.6,3.2H117.5z"/>
			<path class="st0" d="M92.5,154.7c0,0-1.3-39.6-7.5-55.1c0,0,12.2,42.4,13.8,48.1l4.6-55.9l4,57l6.5-47.4l2.8,50
				c0,0,12.8-42,10.1-49.5c0,0-0.7,41.5,0.9,46c1,2.4,0.4,5.1-1.5,6.8L92.5,154.7z"/>
			<path class="st0" d="M50.7,154.7c0,0-1.3-24.4-7.5-34c0,0,12.2,26.1,13.8,29.6l4.6-34.4l4,35.1l6.5-29.2l2.8,30.8
				c0,0,12.8-25.8,10-30.5c0,0-0.7,25.5,0.9,28.3s-1.5,4.2-1.5,4.2L50.7,154.7z"/>
			<path class="st0" d="M32.5,154.7c0,0-1.3-17.3-7.5-24c0,0,12.2,18.5,13.8,20.9l4.6-24.3l4,24.8l6.5-20.6l2.8,21.8
				c0,0,12.8-18.3,10-21.6c0,0-0.7,18.1,0.9,20s-1.5,3-1.5,3L32.5,154.7z"/>
			<path class="st0" d="M7.5,154.7c0,0-1.3-16.5-7.5-22.9c0,0,12.2,17.6,13.8,20l4.6-23.2l4,23.7l6.5-19.7l2.8,20.8
				c0,0,12.8-17.4,10-20.6c0,0-0.7,17.2,0.9,19.1s-1.5,2.8-1.5,2.8L7.5,154.7z"/>
			<path class="st0" d="M569.3,146.1c0,0-1.8-22.8-8.1-31c0,0,12.2,22.2,13.8,25.1l4.6-29.2l4,29.8l6.5-24.7l2.8,26.1
				c0,0,12.8-21.9,10-25.8c0,0,1.3,25.2,2.8,27.6l-3.6,0.2L569.3,146.1z"/>
			<path class="st0" d="M532.8,149.1c0,0-1.8-17.6-8.1-23.8c0,0,12.2,17,13.8,19.3l4.6-22.4l4,22.9l6.5-19l2.8,20.1
				c0,0,12.8-16.9,10-19.9c0,0,1.3,19.4,2.8,21.2l-3.6,0.2L532.8,149.1z"/>
			<path class="st0" d="M496.6,151.6c0,0,0-25.5,0.4-35.1c0,0,3.8,24.9,5.3,28.3l3.5-26l5.1,26.7l6.5-28.9l2.8,30.4
				c0,0,7.2-17,4.4-21.6c0,0,6.9,20.9,8.5,23.6l-3.6,0.2L496.6,151.6z"/>
			<path class="st0" d="M71.6,154.8c0,0,0-35.6,0.4-48.9c0,0,3.8,34.6,5.3,39.4l3.5-36.2l5.1,37.2l6.5-40.3l2.8,42.4
				c0,0,7.2-23.7,4.4-30.1c0,0,6.9,32.6,8.4,36.4L71.6,154.8L71.6,154.8z"/>
			<path class="st1" d="M460.4,154.7c0,0-1.9-18.9-8.1-25.7c0,0,12.2,18.4,13.8,20.8l4.6-24.2l4,24.7l6.5-20.5l2.9,21.6
				c0,0,9.5-12.9,6.8-16.1c0,0,4.5,15.6,6.1,17.6l-3.6,0.2L460.4,154.7z"/>
			<path class="st1" d="M643.2,140.7c0,0,4.6-38.7,3-51.9c0,0,5.8,37.3,4,44.1l9.5-49.1l1,50.5l2.6-42.4l11,40.1
				c0,0-1.2-32.6-4-38.6c0,0,15.8,35,17.4,38.6l-14.6,8.6L643.2,140.7z"/>
			<path class="st0" d="M605.8,144c0,0,4.2-26.2,2.6-34.8c0,0,5.8,24.6,4,29.1l9.5-32.3l1,33.3l2.7-27.9l7,27.6c0,0,2.7-22.7,0-26.6
				c0,0,9,28.7,10.6,31h-26.4L605.8,144z"/>
			<path class="st0" d="M714.8,116.4c0,0-1.3-26.2-7.5-36.4c0,0,12.2,28,13.8,31.8l4.6-36.9l1.4-14.4v7.9l2.8,33
				c0,0,12.8-27.7,10-32.7c0,0,0,31.9,1.6,34.9l-1.9,0.8L714.8,116.4z"/>
			<path class="st0" d="M687.7,132.1c0,0,0.7-16.7-5.6-29c0,0,10.2,18.5,11.8,23l6.6-29.1l1.4-17.3v9.5l0.8,24.5
				c0,0,14.8-18.1,12-24.1c0,0-1.6,23.4,0,26.9l-2.1,1.3L687.7,132.1z"/>
			<path class="st0" d="M1011.4,100.9c0,0-7.9-17.5-14.2-28.2c0,0,18.8,19.4,20.4,23.3l-2.1-28.6l10.6,29.4l-0.1-22.8l9.5,24.6
				c0,0,6.2-19.1,3.4-24.3c0,0,5.9,18.8,7.5,21.8s-1.6,4.7-1.6,4.7H1011.4z"/>
			<path class="st0" d="M2329.3,102.4c0,0,4.5-25.3-1.7-40.8c0,0,6.4,28.1,8,33.7l10.4-41.5l-1.8,42.6l12.4-33l-3,35.6
				c0,0,18.6-27.7,15.9-35.2c0,0-1.6,27-4.9,31.6c-3,4.2-1.6,6.8-1.6,6.8L2329.3,102.4z"/>
			<path class="st1" d="M1116.6,100.9c0,0,4.5-14.9-1.7-23.9c0,0,6.4,16.5,8,19.8l10.4-24.3l-1.8,25l12.3-19.3l-3,20.9
				c0,0,18.6-16.2,15.9-20.6c0,0-1.6,15.8-4.9,18.5c-3,2.4-1.6,4-1.6,4L1116.6,100.9z"/>
			<path class="st1" d="M1092.9,100.9c0,0,4.5-33.3-1.7-53.7c0,0,6.4,37,8,44.4l10.4-54.6l-1.8,56.2l12.3-43.5l-3,46.9
				c0,0,18.6-36.4,15.9-46.3c0,0-1.6,35.5-4.9,41.7c-3,5.5-1.6,9-1.6,9L1092.9,100.9z"/>
			<path class="st1" d="M1069.2,100.9c0,0-2-29.7-8.3-47.8c0,0,12.9,32.9,14.5,39.5l3.9-48.6l4.7,50l5.8-38.7l3.6,41.7
				c0,0,12.1-32.4,9.3-41.2c0,0,4.9,31.6,1.6,37.1c-3,4.9-1.5,8-1.5,8L1069.2,100.9z"/>
			<path class="st1" d="M1045.5,100.9c0,0,4.5-21.3-1.7-34.2c0,0,6.4,23.6,8,28.3l10.4-34.8l-1.8,35.8l12.3-27.7l-3,29.9
				c0,0,18.6-23.2,15.8-29.5c0,0-1.6,22.7-4.9,26.6c-3,3.5-1.5,5.7-1.5,5.7H1045.5z"/>
			<path class="st0" d="M2308.2,102.4c0,0,4.5-18.8-1.7-30.2c0,0,6.4,20.8,8,25l10.4-30.8l-1.8,31.6l12.3-24.5l-3,26.4
				c0,0,18.6-20.5,15.9-26.1c0,0-1.6,20-4.9,23.5c-3,3.1-1.5,5-1.5,5L2308.2,102.4z"/>
			<path class="st0" d="M2284.5,102.4c0,0,4.5-42.2-1.7-68c0,0,6.4,46.9,8,56.3l10.4-69.1l-1.8,71.1l12.3-55.1l-3,59.4
				c0,0,18.6-46.1,15.9-58.6c0,0-1.6,45-4.9,52.7c-3,7-1.5,11.3-1.5,11.3L2284.5,102.4z"/>
			<path class="st0" d="M2260.8,102.4c0,0-2-37.5-8.2-60.5c0,0,12.9,41.7,14.5,50l3.9-61.5l4.7,63.2l5.8-49l3.6,52.8
				c0,0,12.1-41,9.3-52.1c0,0,4.9,40,1.6,46.9c-3,6.2-1.5,10.1-1.5,10.1L2260.8,102.4z"/>
			<path class="st0" d="M2237.1,102.4c0,0,4.5-26.9-1.7-43.3c0,0,6.4,29.9,8,35.8l10.4-44.1l-1.8,45.3l12.3-35.1l-3,37.8
				c0,0,18.6-29.4,15.9-37.3c0,0-1.6,28.7-4.9,33.6c-3,4.4-1.5,7.2-1.5,7.2H2237.1z"/>
			<path class="st1" d="M325.7,154.8c0,0,4.5-18.8-1.7-30.2c0,0,6.4,20.8,8,25l10.4-30.8l-1.8,31.6l12.4-24.5l-3,26.4
				c0,0,18.6-20.5,15.9-26.1c0,0-1.6,20-4.9,23.4c-3,3.1-1.5,5-1.5,5L325.7,154.8z"/>
			<path class="st1" d="M302,154.8c0,0,4.5-42.2-1.7-68c0,0,6.4,46.9,8,56.3l10.4-69.1l-1.8,71.1l12.3-55.1l-3,59.4
				c0,0,18.6-46.1,15.9-58.6c0,0-1.6,45-4.9,52.7c-3,7-1.5,11.3-1.5,11.3H302z"/>
			<path class="st1" d="M278.3,154.8c0,0-2-37.5-8.3-60.4c0,0,12.9,41.7,14.5,50l3.9-61.5l4.7,63.2l5.8-49l3.6,52.8
				c0,0,12.1-41,9.3-52.1c0,0,4.9,40,1.6,46.9c-3,6.2-1.5,10.1-1.5,10.1L278.3,154.8z"/>
			<path class="st1" d="M254.6,154.8c0,0,4.5-26.9-1.7-43.3c0,0,6.4,29.9,8,35.8l10.4-44.1l-1.8,45.3l12.3-35.1l-3,37.8
				c0,0,18.6-29.4,15.9-37.3c0,0-1.6,28.7-4.9,33.6c-3,4.4-1.5,7.2-1.5,7.2L254.6,154.8z"/>
			<path class="st0" d="M6390.5,289.7c0,0,0.9-11.4,5.3-15.9c0,0-8.6,12.2-9.6,13.9l-3.2-16.1l-2.8,16.4l-4.6-13.6l-2,14.4
				c0,0-8.9-12.1-7-14.3c0,0,0.5,12-0.6,13.3s1.1,2,1.1,2L6390.5,289.7z"/>
			<path class="st0" d="M6408,289.7c0,0,0.9-26.2,5.3-36.4c0,0-8.5,28-9.6,31.8l-3.2-36.9l-2.8,37.7l-4.6-31.3l-2,33
				c0,0-8.9-27.7-7-32.7c0,0,0.5,27.4-0.6,30.4c-0.7,1.6-0.3,3.4,1.1,4.5L6408,289.7z"/>
			<path class="st0" d="M6423.9,289.7c0,0,1-18.5,6-25.8c0,0-9.7,19.8-10.9,22.5l-3.6-26.1l-3.2,26.7l-5.2-22.2l-2.3,23.4
				c0,0-10.1-19.6-8-23.1c0,0,0.6,19.4-0.7,21.5s1.2,3.2,1.2,3.2L6423.9,289.7z"/>
			<path class="st0" d="M6443.7,289.7c0,0,1-26.2,6-36.4c0,0-9.7,28-10.9,31.8l-3.6-36.9l-3.2,37.7l-5.2-31.3l-2.3,33
				c0,0-10.1-27.7-8-32.7c0,0,0.6,27.4-0.7,30.4c-0.8,1.6-0.3,3.5,1.2,4.5L6443.7,289.7z"/>
			<path class="st0" d="M6013,159.7c0,0-4.6-38.7-3-51.9c0,0-5.9,37.3-4,44.1l-9.5-49.1l-1,50.5l-2.6-42.4l-11,40.1
				c0,0,1.2-32.6,4-38.6c0,0-15.8,35-17.4,38.6l14.6,8.6H6013z"/>
			<path class="st0" d="M5909.8,114.6c0,0,1.3-26.2,7.5-36.4c0,0-12.2,28-13.8,31.8L5899,73l-1.4-14.4v7.9l-2.8,33
				c0,0-12.8-27.7-10-32.7c0,0,0,31.9-1.6,34.9l1.9,0.8L5909.8,114.6z"/>
			<path class="st0" d="M5936.9,130.4c0,0-0.6-16.7,5.6-29c0,0-10.2,18.5-11.8,23l-6.6-29.2l-1.4-17.3v9.5l-0.8,24.5
				c0,0-14.8-18.2-12-24.1c0,0,1.6,23.4,0,26.9l2.1,1.3L5936.9,130.4z"/>
			<path class="st0" d="M5952.5,141.7c0,0,1.3-26.2,7.5-36.4c0,0-12.2,28-13.8,31.8l-4.6-36.9l-1.4-14.4v7.9l-2.8,33
				c0,0-12.8-27.7-10-32.7c0,0,0,31.9-1.6,34.9l1.9,0.8L5952.5,141.7z"/>
			<path class="st0" d="M5977.5,156.1c0,0-0.7-16.7,5.6-29c0,0-10.2,18.5-11.8,23l-6.6-29.1l-1.4-17.3v9.5l-0.8,24.5
				c0,0-14.8-18.2-12-24.1c0,0,1.6,23.4,0,26.9l2.1,1.3L5977.5,156.1z"/>
			<path class="st1" d="M6013,159.7c0,0-4-18.6,1.5-29.9c0,0-5.7,20.6-7.1,24.8l-9.2-30.5l1.6,31.3l-11-24.3l2.6,26.2
				c0,0-16.5-20.2-14.1-25.8c0,0,1.4,19.8,4.4,23.2c2.7,3.1,1.4,5,1.4,5L6013,159.7z"/>
			<path class="st1" d="M6034.1,159.7c0,0-4-41.8,1.5-67.3c0,0-5.7,46.5-7.1,55.7l-9.2-68.5l1.6,70.4l-11-54.6l2.6,58.8
				c0,0-16.5-45.7-14.1-58.1c0,0,1.4,44.6,4.4,52.3c2.7,6.9,1.4,11.2,1.4,11.2L6034.1,159.7z"/>
			<path class="st1" d="M6055.2,159.7c0,0,1.8-37.2,7.3-59.9c0,0-11.5,41.3-12.9,49.6l-3.4-60.9l-4.2,62.7l-5.2-48.5l-3.2,52.3
				c0,0-10.7-40.6-8.3-51.6c0,0-4.4,39.7-1.4,46.5c2.7,6.1,1.4,10,1.4,10L6055.2,159.7z"/>
			<path class="st1" d="M6076.3,159.7c0,0-4-26.6,1.5-42.9c0,0-5.7,29.6-7.1,35.5l-9.2-43.7l1.6,44.9l-11-34.8l2.6,37.5
				c0,0-16.5-29.1-14.1-37c0,0,1.4,28.4,4.4,33.3c2.7,4.4,1.4,7.1,1.4,7.1L6076.3,159.7z"/>
			<path class="st1" d="M6089.4,159.7c0,0-4-26.6,1.5-42.9c0,0-5.7,29.6-7.1,35.5l-9.2-43.7l1.6,44.9l-11-34.8l2.6,37.5
				c0,0-16.5-29.1-14.1-37c0,0,1.4,28.4,4.4,33.3c2.7,4.4,1.4,7.1,1.4,7.1L6089.4,159.7z"/>
			<path class="st0" d="M6550.6,337.9c0,0-4-18.6,1.5-30c0,0-5.6,20.6-7,24.8l-9.1-30.5l1.6,31.3l-10.8-24.3l2.6,26.2
				c0,0-16.2-20.3-13.8-25.8c0,0,1.4,19.8,4.3,23.2c2.6,3.1,1.4,5,1.4,5L6550.6,337.9z"/>
			<path class="st0" d="M6571.3,337.9c0,0-4-41.8,1.5-67.4c0,0-5.6,46.5-7,55.7l-9.1-68.5l1.6,70.5l-10.8-54.6l2.6,58.8
				c0,0-16.2-45.7-13.8-58.1c0,0,1.4,44.6,4.3,52.3c2.6,6.9,1.4,11.2,1.4,11.2H6571.3z"/>
			<path class="st0" d="M6592,337.9c0,0,1.7-37.2,7.2-59.9c0,0-11.3,41.3-12.6,49.6l-3.4-60.9l-4.1,62.7l-5-48.5l-3.1,52.3
				c0,0-10.5-40.6-8.1-51.6c0,0-4.3,39.6-1.4,46.5c2.6,6.1,1.4,10,1.4,10L6592,337.9z"/>
			<path class="st0" d="M6612.7,337.9c0,0-4-26.6,1.5-42.9c0,0-5.6,29.6-7,35.5l-9.1-43.7l1.6,44.9L6589,297l2.6,37.5
				c0,0-16.2-29.1-13.8-37c0,0,1.4,28.4,4.3,33.3c2.6,4.4,1.4,7.1,1.4,7.1L6612.7,337.9z"/>
			<path class="st1" d="M6116,166.1c0,0-0.7-12.6,6.6-18.1c0,0-9,11.3-11.1,13.4l-3.6-21.4l-3.9,19.8l-6.4-18l-2,16.9
				c0,0-12.4-17-9.1-19.8c0,0-2.1,12.6,0.2,15.6c2.1,2.6,0.5,3.5,0.5,3.5L6116,166.1z"/>
			<path class="st1" d="M6136.3,171.8c0,0-4.9-28.1,4.8-42.4c0,0-5.2,28.4-8.2,33.8l-5.3-46l-2.4,45.2l-9.4-37.9l0.7,38.3
				c0,0-16.3-33.8-11.8-40.9c0,0,1.9,29.1,3.5,34.7c1.4,5-0.6,7.3-0.6,7.3L6136.3,171.8z"/>
			<path class="st1" d="M6156.6,177.4c0,0,8.1-22.6,17.4-35.1c0,0-18.2,22.5-21,27.2l-1.1-39.8l-6.6,38.8l3.4-31.4l-12.1,31.6
				c0,0-11.6-29.2-7.4-35.3c0,0-2.8,24.5-1.1,29.5c1.5,4.5-0.4,6.6-0.4,6.6L6156.6,177.4z"/>
			<path class="st1" d="M6176.9,183.1c0,0,0.7-17.6,8.9-26.2c0,0-10.6,16.8-13,20.1l-1.4-29.5l-6.2,28.2l-4.6-24.5l-3.9,23.9
				c0,0-10.9-22.5-7.2-26.7c0,0-3.5,18-1.5,21.8c1.8,3.4,0.1,4.8,0.1,4.8L6176.9,183.1z"/>
			<path class="st0" d="M4248.2,101.3c0,0-1.3-12-7.5-16.8c0,0,12.2,12.9,13.8,14.6l4.6-17l4,17.3l6.5-14.4l2.9,15.2
				c0,0,12.8-12.7,10-15c0,0-0.7,12.6,0.9,14s-1.5,2.1-1.5,2.1L4248.2,101.3z"/>
			<path class="st0" d="M4216.1,101.3c0,0-1.3-10-7.5-13.9c0,0,12.2,10.7,13.8,12.2l4.6-14.1l4,14.4l6.5-12l2.9,12.6
				c0,0,12.8-10.6,10-12.5c0,0-0.7,10.5,0.9,11.6s-1.5,1.7-1.5,1.7L4216.1,101.3z"/>
			<path class="st0" d="M4191.1,101.3c0,0-1.3-21.2-7.5-29.6c0,0,12.2,22.7,13.8,25.8l4.6-29.9l4,30.6l6.5-25.4l2.9,26.8
				c0,0,12.8-22.5,10-26.5c0,0-0.7,22.2,0.9,24.6s-1.5,3.7-1.5,3.7H4191.1z"/>
			<path class="st0" d="M4166.5,103c0,0-1.3-13.7-7.5-19.1c0,0,12.2,14.7,13.8,16.7l4.6-19.3l4,19.8l6.5-16.4l2.9,17.3
				c0,0,12.8-14.5,10-17.1c0,0-0.7,14.4,0.9,15.9s-1.5,2.4-1.5,2.4L4166.5,103z"/>
			<path class="st1" d="M4319.3,102c0,0-1.3-19.6-7.5-27.3c0,0,12.2,21,13.8,23.8l4.6-27.6l4,28.2l6.5-23.4l2.8,24.7
				c0,0,12.8-20.7,10-24.5c0,0-0.7,20.5,0.9,22.7s-1.5,3.4-1.5,3.4L4319.3,102z"/>
			<path class="st1" d="M4287.3,102c0,0-1.3-16.3-7.5-22.7c0,0,12.2,17.5,13.8,19.8l4.6-23l4,23.5l6.5-19.5l2.8,20.6
				c0,0,12.8-17.3,10-20.4c0,0-0.7,17.1,0.9,18.9s-1.5,2.8-1.5,2.8L4287.3,102z"/>
			<path class="st1" d="M4262.3,102c0,0-1.3-34.6-7.5-48.1c0,0,12.2,37,13.8,42l4.6-48.8l4,49.8l6.5-41.3l2.9,43.6
				c0,0,12.8-36.6,10-43.2c0,0-0.7,36.2,0.9,40.1c1,2.1,0.4,4.6-1.5,6L4262.3,102z"/>
			<path class="st1" d="M4237.7,104.6c0,0-1.3-22.3-7.5-31.1c0,0,12.2,23.9,13.8,27.1l4.6-31.5l4,32.2l6.5-26.7l2.9,28.2
				c0,0,12.8-23.7,10-27.9c0,0-0.7,23.4,0.9,25.9s-1.5,3.8-1.5,3.8H4237.7z"/>
			<path class="st0" d="M4163.3,102.3c0,0-1.3-17.3-7.5-24.2c0,0,12.2,18.6,13.8,21.1l4.6-24.5l4,25l6.6-20.7l2.9,21.9
				c0,0,12.8-18.4,10-21.7c0,0-0.7,18.2,0.9,20.1s-1.5,3-1.5,3L4163.3,102.3z"/>
			<path class="st0" d="M4131.3,102.3c0,0-1.3-14.4-7.5-20.1c0,0,12.2,15.5,13.8,17.5l4.6-20.4l4,20.8l6.5-17.3l2.9,18.2
				c0,0,12.8-15.3,10-18c0,0-0.7,15.1,0.9,16.8s-1.5,2.5-1.5,2.5L4131.3,102.3z"/>
			<path class="st0" d="M4106.3,102.3c0,0-1.3-30.6-7.5-42.7c0,0,12.2,32.8,13.8,37.2l4.6-43.2l4,44.1l6.5-36.6l2.8,38.6
				c0,0,12.8-32.4,10-38.3c0,0-0.7,32.1,0.9,35.6c1,1.9,0.3,4.2-1.5,5.3L4106.3,102.3z"/>
			<path class="st0" d="M4081.6,104.6c0,0-1.3-19.8-7.5-27.5c0,0,12.2,21.2,13.8,24l4.6-27.9l4,28.5L4103,78l2.9,25
				c0,0,12.8-21,10-24.7c0,0-0.7,20.7,0.9,23s-1.5,3.4-1.5,3.4L4081.6,104.6z"/>
			<path class="st0" d="M4444.1,102.6c0,0-1.3-26.1-7.5-36.4c0,0,12.2,28,13.8,31.7l4.6-36.8l4,37.6l6.5-31.3l2.9,33
				c0,0,12.8-27.7,10-32.7c0,0-0.7,27.4,0.9,30.3s-1.5,4.5-1.5,4.5L4444.1,102.6z"/>
			<path class="st0" d="M4412.1,102.6c0,0-1.3-21.8-7.5-30.3c0,0,12.2,23.3,13.8,26.4l4.6-30.7l4,31.3l6.5-26l2.8,27.4
				c0,0,12.8-23,10-27.2c0,0-0.7,22.8,0.9,25.2s-1.5,3.8-1.5,3.8L4412.1,102.6z"/>
			<path class="st0" d="M4387.1,102.6c0,0-1.3-46.1-7.5-64.2c0,0,12.2,49.4,13.8,56l4.6-65l4,66.4l6.5-55.2l2.9,58.2
				c0,0,12.8-48.8,10-57.6c0,0-0.7,48.3,0.9,53.5s-1.5,8-1.5,8L4387.1,102.6z"/>
			<path class="st0" d="M4362.5,104.1c0,0-1.3-29.8-7.5-41.5c0,0,12.2,31.9,13.8,36.2l4.6-42l4,42.9l6.5-35.7l2.9,37.6
				c0,0,12.8-31.6,10-37.2c0,0-0.7,31.2,0.9,34.6c0.9,1.9,0.3,4.1-1.5,5.1L4362.5,104.1z"/>
			<path class="st0" d="M4055.4,102.2c0,0-1.3-12-7.5-16.8c0,0,12.2,12.9,13.8,14.6l4.6-17l4,17.3l6.6-14.3l2.8,15.2
				c0,0,12.8-12.7,10.1-15c0,0-0.7,12.6,0.9,13.9s-1.5,2.1-1.5,2.1L4055.4,102.2z"/>
			<path class="st0" d="M4023.4,102.2c0,0-1.3-10-7.5-13.9c0,0,12.2,10.7,13.8,12.2l4.6-14.1l4,14.4l6.5-12l2.8,12.6
				c0,0,12.8-10.6,10-12.5c0,0-0.7,10.5,0.9,11.6s-1.5,1.7-1.5,1.7L4023.4,102.2z"/>
			<path class="st0" d="M3998.4,102.2c0,0-1.3-21.2-7.5-29.6c0,0,12.2,22.7,13.8,25.8l4.6-29.9l4,30.6l6.5-25.4l2.8,26.8
				c0,0,12.8-22.5,10-26.5c0,0-0.7,22.2,0.9,24.6s-1.5,3.7-1.5,3.7L3998.4,102.2z"/>
			<path class="st0" d="M3973.7,103.8c0,0-1.3-13.7-7.5-19.1c0,0,12.2,14.7,13.8,16.7l4.6-19.3l4,19.8l6.5-16.4l2.8,17.3
				c0,0,12.8-14.5,10.1-17.1c0,0-0.7,14.4,0.9,15.9s-1.5,2.4-1.5,2.4L3973.7,103.8z"/>
			<path class="st0" d="M3902,100.5c0,0-1.3-12-7.5-16.8c0,0,12.2,12.9,13.8,14.6l4.6-17l4,17.3l6.5-14.4l2.9,15.2
				c0,0,12.8-12.7,10-15c0,0-0.7,12.6,0.9,14s-1.6,2.1-1.6,2.1L3902,100.5z"/>
			<path class="st0" d="M3869.9,100.5c0,0-1.3-10-7.5-13.9c0,0,12.2,10.7,13.8,12.2l4.6-14.1l4,14.4l6.5-12l2.9,12.6
				c0,0,12.8-10.6,10-12.5c0,0-0.7,10.5,0.9,11.6s-1.6,1.7-1.6,1.7L3869.9,100.5z"/>
			<path class="st0" d="M3844.9,101.4c0,0-1.3-21.2-7.5-29.6c0,0,12.2,22.7,13.8,25.8l4.6-29.9l4,30.6l6.5-25.4l2.9,26.8
				c0,0,12.8-22.5,10-26.5c0,0-0.7,22.2,0.9,24.6s-1.5,3.7-1.5,3.7L3844.9,101.4z"/>
			<path class="st0" d="M3820.3,102.1c0,0-1.3-13.7-7.5-19.1c0,0,12.2,14.7,13.8,16.7l4.6-19.3l4,19.8l6.5-16.4l2.9,17.3
				c0,0,12.8-14.5,10-17.1c0,0-0.7,14.4,0.9,15.9s-1.5,2.4-1.5,2.4L3820.3,102.1z"/>
			<path class="st1" d="M2958.5,101.5c0,0-1.3-12-7.5-16.7c0,0,12.2,12.9,13.8,14.6l4.6-17l4,17.3l6.5-14.4l2.8,15.2
				c0,0,12.8-12.7,10.1-15c0,0-0.7,12.6,0.9,14s-1.5,2.1-1.5,2.1L2958.5,101.5z"/>
			<path class="st1" d="M2926.5,101.5c0,0-1.3-10-7.5-13.9c0,0,12.2,10.7,13.8,12.2l4.6-14.1l4,14.4l6.5-12l2.8,12.6
				c0,0,12.8-10.6,10-12.5c0,0-0.7,10.5,0.9,11.6s-1.5,1.7-1.5,1.7L2926.5,101.5z"/>
			<path class="st1" d="M2901.5,101.5c0,0-1.3-21.2-7.5-29.6c0,0,12.2,22.7,13.8,25.8l4.6-29.9l4,30.6l6.5-25.4l2.8,26.8
				c0,0,12.8-22.5,10-26.5c0,0-0.7,22.2,0.9,24.6s-1.5,3.7-1.5,3.7L2901.5,101.5z"/>
			<path class="st1" d="M2876.9,103.1c0,0-1.3-13.7-7.5-19.1c0,0,12.2,14.7,13.8,16.7l4.6-19.3l4,19.7l6.5-16.4l2.8,17.3
				c0,0,12.8-14.5,10.1-17.1c0,0-0.7,14.4,0.9,15.9s-1.5,2.4-1.5,2.4L2876.9,103.1z"/>
			<path class="st0" d="M3168.8,101.1c0,0,4.6-30.8,3-41.2c0,0,5.9,29.6,4,35.1l9.5-39l1,40.2l2.6-33.7l7,33.3c0,0,2.7-27.3,0-32.1
				c0,0,9,34.7,10.6,37.5H3168.8L3168.8,101.1z"/>
			<path class="st0" d="M3193.1,101.1c0,0,4.6-30.8,3-41.2c0,0,5.8,29.6,4,35.1l9.5-39l1,40.2l2.6-33.7l7.1,33.3
				c0,0,2.7-27.3,0-32.1c0,0,9,34.7,10.6,37.5L3193.1,101.1L3193.1,101.1z"/>
			<path class="st0" d="M3072,101.1c0,0,4.6-30.8,3-41.2c0,0,5.8,29.6,4,35.1l9.5-39l1,40.2l2.6-33.7l7.1,33.3c0,0,2.7-27.3,0-32.1
				c0,0,9,34.7,10.6,37.5L3072,101.1L3072,101.1z"/>
			<path class="st0" d="M3109.8,101.1c0,0,4.6-22.7,3-30.4c0,0,5.8,21.9,4,25.9l9.5-28.8l1,29.6l2.6-24.8l7.1,24.6
				c0,0,2.7-20.2,0-23.7c0,0,9,25.6,10.6,27.7L3109.8,101.1L3109.8,101.1z"/>
			<path class="st0" d="M3137,101.1c0,0,4.6-22.7,3-30.4c0,0,5.9,21.9,4,25.9l9.5-28.8l1,29.6l2.5-24.8l7,24.6c0,0,2.7-20.2,0-23.7
				c0,0,9,25.6,10.6,27.7C3174.6,101.1,3137,101.1,3137,101.1z"/>
			<path class="st0" d="M3261.7,101.1c0,0,4.6-30.8,3-41.2c0,0,5.9,29.6,4,35.1l9.5-39l1,40.2l2.6-33.7l7.1,33.3
				c0,0,2.7-27.3,0-32.1c0,0,9,34.7,10.6,37.5L3261.7,101.1L3261.7,101.1z"/>
			<path class="st0" d="M3286,101.1c0,0,4.6-30.8,3-41.2c0,0,5.9,29.6,4,35.1l9.5-39l1,40.2l2.6-33.7l7,33.3c0,0,2.7-27.3,0-32.1
				c0,0,9,34.7,10.6,37.5L3286,101.1L3286,101.1z"/>
			<path class="st0" d="M3202.7,101.1c0,0,4.6-22.7,3-30.4c0,0,5.9,21.9,4,25.9l9.5-28.8l1,29.6l2.6-24.8l7.1,24.6
				c0,0,2.7-20.2,0-23.7c0,0,9,25.6,10.6,27.7L3202.7,101.1L3202.7,101.1z"/>
			<path class="st0" d="M3229.9,101.1c0,0,4.6-22.7,3-30.4c0,0,5.9,21.9,4,25.9l9.5-28.8l1,29.6l2.6-24.8l7,24.6
				c0,0,2.7-20.2,0-23.7c0,0,9,25.6,10.6,27.7H3229.9z"/>
			<path class="st0" d="M3354.6,101.1c0,0,4.6-30.8,3-41.2c0,0,5.8,29.6,4,35.1l9.5-39l1,40.2l2.6-33.7l7.1,33.3
				c0,0,2.7-27.3,0-32.1c0,0,9,34.7,10.6,37.5L3354.6,101.1L3354.6,101.1z"/>
			<path class="st0" d="M3378.9,101.1c0,0,4.6-30.8,3-41.2c0,0,5.9,29.6,4,35.1l9.5-39l1,40.2l2.6-33.7l7.1,33.3
				c0,0,2.7-27.3,0-32.1c0,0,9,34.7,10.6,37.5H3378.9L3378.9,101.1z"/>
			<path class="st1" d="M3295.6,101.1c0,0,4.6-22.7,3-30.4c0,0,5.9,21.9,4,25.9l9.4-28.8l1,29.6l2.6-24.8l7.1,24.6
				c0,0,2.7-20.2,0-23.7c0,0,9,25.6,10.6,27.7C3333.3,101.1,3295.6,101.1,3295.6,101.1z"/>
			<path class="st0" d="M3322.8,101.1c0,0,4.6-22.7,3-30.4c0,0,5.8,21.9,4,25.9l9.5-28.8l1,29.6l2.6-24.8l7.1,24.6
				c0,0,2.7-20.2,0-23.7c0,0,9,25.6,10.6,27.7L3322.8,101.1L3322.8,101.1z"/>
			<path class="st0" d="M3447.6,101.1c0,0,4.6-30.8,3-41.2c0,0,5.9,29.6,4,35.1l9.5-39l1,40.2l2.6-33.7l7.1,33.3
				c0,0,2.7-27.3,0-32.1c0,0,9,34.7,10.6,37.5L3447.6,101.1L3447.6,101.1z"/>
			<path class="st0" d="M3471.8,101.1c0,0,4.6-30.8,3-41.2c0,0,5.8,29.6,4,35.1l9.5-39l1,40.2l2.6-33.7l7,33.3c0,0,2.7-27.3,0-32.1
				c0,0,9,34.7,10.6,37.5H3471.8L3471.8,101.1z"/>
			<path class="st0" d="M3388.5,101.1c0,0,4.6-22.7,3-30.4c0,0,5.8,21.9,4,25.9l9.5-28.8l1,29.6l2.6-24.8l7.1,24.6
				c0,0,2.7-20.2,0-23.7c0,0,9,25.6,10.6,27.7L3388.5,101.1L3388.5,101.1z"/>
			<path class="st0" d="M3415.7,101.1c0,0,4.6-22.7,3-30.4c0,0,5.9,21.9,4,25.9l9.5-28.8l1,29.6l2.6-24.8l7.1,24.6
				c0,0,2.7-20.2,0-23.7c0,0,9,25.6,10.6,27.7L3415.7,101.1L3415.7,101.1z"/>
			<path class="st0" d="M3540.5,101.1c0,0,4.6-30.8,3-41.2c0,0,5.8,29.6,4,35.1l9.5-39l1,40.2l2.6-33.7l7.1,33.3
				c0,0,2.7-27.3,0-32.1c0,0,9,34.7,10.6,37.5L3540.5,101.1L3540.5,101.1z"/>
			<path class="st0" d="M3564.8,101.1c0,0,4.6-30.8,3-41.2c0,0,5.9,29.6,4,35.1l9.5-39l1,40.2l2.6-33.7l7.1,33.3
				c0,0,2.7-27.3,0-32.1c0,0,9,34.7,10.6,37.5L3564.8,101.1L3564.8,101.1z"/>
			<path class="st0" d="M3481.4,101.1c0,0,4.6-22.7,3-30.4c0,0,5.9,21.9,4,25.9l9.5-28.8l1,29.6l2.6-24.8l7.1,24.6
				c0,0,2.7-20.2,0-23.7c0,0,9,25.6,10.6,27.7C3519.2,101.1,3481.4,101.1,3481.4,101.1z"/>
			<path class="st0" d="M3508.6,101.1c0,0,4.6-22.7,3-30.4c0,0,5.8,21.9,4,25.9l9.4-28.8l1,29.6l2.6-24.8l7.1,24.6
				c0,0,2.7-20.2,0-23.7c0,0,9,25.6,10.6,27.7L3508.6,101.1L3508.6,101.1z"/>
			<path class="st0" d="M3633.4,101.1c0,0,4.6-30.8,3-41.2c0,0,5.9,29.6,4,35.1l9.5-39l1,40.2l2.6-33.7l7.1,33.3
				c0,0,2.7-27.3,0-32.1c0,0,9,34.7,10.6,37.5L3633.4,101.1L3633.4,101.1z"/>
			<path class="st0" d="M3657.7,101.1c0,0,4.6-30.8,3-41.2c0,0,5.8,29.6,4,35.1l9.5-39l1,40.2l2.6-33.7l7.1,33.3
				c0,0,2.7-27.3,0-32.1c0,0,9,34.7,10.6,37.5L3657.7,101.1L3657.7,101.1z"/>
			<path class="st0" d="M3574.3,101.1c0,0,4.6-22.7,3-30.4c0,0,5.8,21.9,4,25.9l9.5-28.8l1,29.6l2.6-24.8l7.1,24.6
				c0,0,2.7-20.2,0-23.7c0,0,9,25.6,10.6,27.7L3574.3,101.1L3574.3,101.1z"/>
			<path class="st0" d="M3601.5,101.1c0,0,4.6-22.7,3-30.4c0,0,5.9,21.9,4,25.9l9.5-28.8l1,29.6l2.6-24.8l7.1,24.6
				c0,0,2.7-20.2,0-23.7c0,0,9,25.6,10.6,27.7L3601.5,101.1L3601.5,101.1z"/>
			<path class="st0" d="M3726.3,101.1c0,0,4.6-22.7,3-30.4c0,0,5.8,21.9,4,25.9l9.5-28.8l1,29.6l2.6-24.8l7.1,24.6
				c0,0,2.7-20.2,0-23.7c0,0,9,25.6,10.6,27.7L3726.3,101.1L3726.3,101.1z"/>
			<path class="st0" d="M3750.6,101.1c0,0,4.6-22.7,3-30.4c0,0,5.9,21.9,4,25.9l9.4-28.8l1,29.6l2.6-24.8l7.1,24.6
				c0,0,2.7-20.2,0-23.7c0,0,9,25.6,10.6,27.7L3750.6,101.1L3750.6,101.1z"/>
			<path class="st0" d="M3667.2,101.1c0,0,4.6-16.8,3-22.4c0,0,5.9,16.1,4,19.1l9.5-21.2l1,21.9l2.6-18.3l7.1,18.1
				c0,0,2.7-14.9,0-17.5c0,0,9,18.9,10.6,20.4L3667.2,101.1L3667.2,101.1z"/>
			<path class="st1" d="M3694.4,101.1c0,0,4.6-16.8,3-22.4c0,0,5.9,16.1,4,19.1l9.5-21.2l1,21.9l2.6-18.3l7.1,18.1
				c0,0,2.7-14.9,0-17.5c0,0,9,18.9,10.6,20.4L3694.4,101.1L3694.4,101.1z"/>
			<path class="st1" d="M3910.6,101.1c0,0-4.5-18.8,1.7-30.2c0,0-6.4,20.8-8,25l-10.4-30.8l1.8,31.6l-12.3-24.5l3,26.4
				c0,0-18.6-20.5-15.9-26.1c0,0,1.6,20,4.9,23.5c3,3.1,1.5,5,1.5,5L3910.6,101.1z"/>
			<path class="st1" d="M3934.3,101.1c0,0-4.5-42.2,1.7-68c0,0-6.4,46.9-8,56.3l-10.4-69.1l1.8,71.1l-12.3-55.1l3,59.4
				c0,0-18.6-46.1-15.9-58.6c0,0,1.6,45,4.9,52.7c3,7,1.5,11.3,1.5,11.3L3934.3,101.1z"/>
			<path class="st1" d="M3958,101.1c0,0,2-37.5,8.2-60.5c0,0-12.9,41.7-14.5,50l-3.9-61.5l-4.7,63.2l-5.8-49l-3.6,52.8
				c0,0-12.1-41-9.3-52.1c0,0-4.9,40-1.6,46.9c3,6.2,1.5,10.1,1.5,10.1L3958,101.1z"/>
			<path class="st1" d="M3981.7,101.1c0,0-4.5-26.9,1.7-43.3c0,0-6.4,29.9-8,35.8L3965,49.5l1.8,45.3l-12.3-35.1l3,37.8
				c0,0-18.6-29.4-15.9-37.3c0,0,1.6,28.7,4.9,33.6c3,4.4,1.5,7.2,1.5,7.2L3981.7,101.1z"/>
			<path class="st1" d="M3466.1,100.8c0,0,4.5-12.9-1.7-20.9c0,0,6.4,14.4,8,17.3l10.4-21.2l-1.8,21.8l12.3-16.9l-3,18.2
				c0,0,18.6-14.1,15.9-18c0,0-1.6,13.8-4.9,16.2c-3,2.1-1.6,3.5-1.6,3.5L3466.1,100.8z"/>
			<path class="st1" d="M3442.4,100.8c0,0,4.5-29.1-1.7-46.9c0,0,6.4,32.3,8,38.8l10.4-47.7l-1.8,49.1l12.3-38l-3,41
				c0,0,18.6-31.8,15.9-40.4c0,0-1.6,31-4.9,36.4c-3,4.8-1.5,7.8-1.5,7.8L3442.4,100.8z"/>
			<path class="st1" d="M3418.8,100.8c0,0-2-25.9-8.3-41.7c0,0,12.9,28.8,14.5,34.5l3.9-42.4l4.7,43.6l5.8-33.8l3.6,36.5
				c0,0,12.1-28.3,9.3-36c0,0,4.9,27.6,1.6,32.4c-3,4.3-1.5,7-1.5,7L3418.8,100.8z"/>
			<path class="st1" d="M3395.1,100.8c0,0,4.5-18.6-1.7-29.9c0,0,6.4,20.6,8,24.7l10.4-30.4l-1.8,31.3l12.3-24.2l-3,26.1
				c0,0,18.6-20.3,15.9-25.8c0,0-1.6,19.8-4.9,23.2c-3,3.1-1.5,5-1.5,5L3395.1,100.8z"/>
			<path class="st0" d="M2845.7,101.1c0,0,4.5-14.4-1.7-23.2c0,0,6.4,16,8,19.2l10.4-23.6l-1.8,24.3l12.3-18.8l-3,20.3
				c0,0,18.6-15.7,15.9-20c0,0-1.6,15.4-4.9,18c-3,2.4-1.5,3.9-1.5,3.9L2845.7,101.1z"/>
			<path class="st0" d="M2822,101.1c0,0,4.5-32.4-1.7-52.2c0,0,6.4,36,8,43.2l10.4-53l-1.8,54.6l12.3-42.3l-3,45.6
				c0,0,18.6-35.4,15.9-45c0,0-1.6,34.5-4.9,40.5c-3,5.3-1.5,8.7-1.5,8.7L2822,101.1z"/>
			<path class="st0" d="M2798.3,101.1c0,0-2-28.8-8.2-46.4c0,0,12.9,32,14.5,38.4l3.9-47.2l4.7,48.5l5.8-37.6l3.6,40.5
				c0,0,12.1-31.4,9.3-40c0,0,4.9,30.7,1.6,36c-3,4.8-1.5,7.7-1.5,7.7L2798.3,101.1z"/>
			<path class="st0" d="M2774.6,101.1c0,0,4.5-20.6-1.7-33.2c0,0,6.4,22.9,8,27.5l10.4-33.8l-1.8,34.8l12.4-26.9l-3,29
				c0,0,18.6-22.5,15.9-28.7c0,0-1.6,22-4.9,25.8c-3,3.4-1.6,5.5-1.6,5.5L2774.6,101.1z"/>
			<path class="st0" d="M2784.6,101.1c0,0-2-20.6-8.2-33.2c0,0,12.9,22.9,14.5,27.5l3.9-33.8l4.7,34.8l5.8-26.9l3.6,29
				c0,0,12.1-22.5,9.3-28.7c0,0,4.9,22,1.6,25.8c-3,3.4-1.5,5.5-1.5,5.5L2784.6,101.1z"/>
			<path class="st0" d="M2760.9,101.1c0,0,4.5-13.3-1.7-21.5c0,0,6.4,14.8,8,17.8l10.4-21.8l-1.8,22.4l12.4-17.4l-3,18.8
				c0,0,18.6-14.6,15.9-18.5c0,0-1.6,14.2-4.9,16.7c-3,2.2-1.5,3.6-1.5,3.6H2760.9z"/>
			<path class="st0" d="M4550.6,101.1c0,0,4.5-18.8-1.7-30.2c0,0,6.4,20.8,8,25l10.4-30.8l-1.8,31.6l12.3-24.5l-3,26.4
				c0,0,18.6-20.5,15.9-26.1c0,0-1.6,20-4.9,23.5c-3,3.1-1.5,5-1.5,5L4550.6,101.1z"/>
			<path class="st0" d="M4526.9,101.1c0,0,4.5-42.2-1.7-68c0,0,6.4,46.9,8,56.3l10.4-69.1l-1.8,71.1l12.3-55.1l-3,59.4
				c0,0,18.6-46.1,15.9-58.6c0,0-1.6,45-4.9,52.7c-3,7-1.5,11.3-1.5,11.3L4526.9,101.1z"/>
			<path class="st0" d="M4503.3,101.1c0,0-2-37.5-8.3-60.5c0,0,12.9,41.7,14.5,50l3.9-61.5l4.7,63.2l5.8-49l3.6,52.8
				c0,0,12.1-41,9.3-52.1c0,0,4.9,40,1.6,46.9c-3,6.2-1.5,10.1-1.5,10.1L4503.3,101.1z"/>
			<path class="st0" d="M4479.6,101.1c0,0,4.5-26.9-1.7-43.3c0,0,6.4,29.9,8,35.8l10.4-44.1l-1.8,45.3l12.3-35.1l-3,37.8
				c0,0,18.6-29.4,15.9-37.3c0,0-1.6,28.7-4.9,33.6c-3,4.4-1.5,7.2-1.5,7.2L4479.6,101.1z"/>
			<path class="st0" d="M4720.3,101.3c0,0-1.3-12-7.5-16.8c0,0,12.2,12.9,13.8,14.6l4.6-17l4,17.3l6.5-14.4l2.9,15.2
				c0,0,12.8-12.7,10-15c0,0-0.7,12.6,0.9,14s-1.5,2.1-1.5,2.1L4720.3,101.3z"/>
			<path class="st0" d="M4688.3,101.3c0,0-1.3-10-7.5-13.9c0,0,12.2,10.7,13.8,12.2l4.6-14.1l4,14.4l6.5-12l2.8,12.6
				c0,0,12.8-10.6,10-12.5c0,0-0.7,10.5,0.9,11.6s-1.5,1.7-1.5,1.7L4688.3,101.3z"/>
			<path class="st0" d="M4663.3,101.3c0,0-1.3-21.2-7.5-29.6c0,0,12.2,22.7,13.8,25.8l4.6-29.9l4,30.6l6.5-25.4l2.9,26.8
				c0,0,12.8-22.5,10-26.5c0,0-0.7,22.2,0.9,24.6s-1.5,3.7-1.5,3.7L4663.3,101.3z"/>
			<path class="st0" d="M4638.7,103c0,0-1.3-13.7-7.5-19.1c0,0,12.2,14.7,13.8,16.7l4.6-19.3l4,19.8l6.5-16.4l2.9,17.3
				c0,0,12.8-14.5,10-17.1c0,0-0.7,14.4,0.9,15.9s-1.5,2.4-1.5,2.4L4638.7,103z"/>
			<path class="st0" d="M4791.5,102c0,0-1.3-19.6-7.5-27.3c0,0,12.2,21,13.8,23.8l4.6-27.6l4,28.2l6.5-23.4l2.8,24.7
				c0,0,12.8-20.7,10-24.5c0,0-0.7,20.5,0.9,22.7s-1.5,3.4-1.5,3.4L4791.5,102z"/>
			<path class="st0" d="M4759.4,102c0,0-1.3-16.3-7.5-22.7c0,0,12.2,17.5,13.8,19.8l4.6-23l4,23.5l6.5-19.5l2.8,20.6
				c0,0,12.8-17.3,10-20.4c0,0-0.7,17.1,0.9,18.9s-1.6,2.8-1.6,2.8H4759.4z"/>
			<path class="st0" d="M4734.4,102c0,0-1.3-34.6-7.5-48.1c0,0,12.2,37,13.8,42l4.6-48.8l4,49.8l6.5-41.3l2.9,43.6
				c0,0,12.8-36.6,10-43.2c0,0-0.7,36.2,0.9,40.1c1,2.1,0.4,4.6-1.5,6L4734.4,102z"/>
			<path class="st0" d="M4709.8,104.6c0,0-1.3-22.3-7.5-31.1c0,0,12.2,23.9,13.8,27.1l4.6-31.5l4,32.2l6.5-26.7l2.9,28.2
				c0,0,12.8-23.7,10-27.9c0,0-0.7,23.4,0.9,25.9s-1.5,3.8-1.5,3.8H4709.8z"/>
			<path class="st1" d="M4635.4,102.3c0,0-1.3-17.3-7.5-24.2c0,0,12.2,18.6,13.8,21.1l4.6-24.5l4,25l6.5-20.7l2.9,21.9
				c0,0,12.8-18.4,10-21.7c0,0-0.7,18.2,0.9,20.1s-1.5,3-1.5,3L4635.4,102.3z"/>
			<path class="st1" d="M4603.4,102.3c0,0-1.3-14.4-7.5-20.1c0,0,12.2,15.5,13.8,17.5l4.6-20.4l4,20.8l6.5-17.3l2.9,18.2
				c0,0,12.8-15.3,10-18c0,0-0.7,15.1,0.9,16.8s-1.5,2.5-1.5,2.5L4603.4,102.3z"/>
			<path class="st1" d="M4578.4,102.3c0,0-1.3-30.6-7.5-42.7c0,0,12.2,32.8,13.8,37.2l4.6-43.2l4,44.1l6.5-36.6l2.9,38.6
				c0,0,12.8-32.4,10-38.3c0,0-0.7,32.1,0.9,35.6c1,1.9,0.3,4.2-1.5,5.3L4578.4,102.3z"/>
			<path class="st1" d="M4553.8,104.6c0,0-1.3-19.8-7.5-27.5c0,0,12.2,21.2,13.8,24l4.6-27.9l4,28.5l6.6-23.6l2.9,25
				c0,0,12.8-21,10-24.7c0,0-0.7,20.7,0.9,23s-1.5,3.4-1.5,3.4L4553.8,104.6z"/>
			<path class="st1" d="M5195.1,101.3c0,0-1.3-12-7.5-16.8c0,0,12.2,12.9,13.8,14.6l4.6-17l4,17.3l6.5-14.4l2.9,15.2
				c0,0,12.8-12.7,10-15c0,0-0.7,12.6,0.9,14s-1.5,2.1-1.5,2.1L5195.1,101.3z"/>
			<path class="st1" d="M5163.1,101.3c0,0-1.3-10-7.5-13.9c0,0,12.2,10.7,13.8,12.2l4.6-14.1l4,14.4l6.5-12l2.9,12.6
				c0,0,12.8-10.6,10-12.5c0,0-0.7,10.5,0.9,11.6s-1.5,1.7-1.5,1.7L5163.1,101.3z"/>
			<path class="st1" d="M5138.1,101.3c0,0-1.3-21.2-7.5-29.6c0,0,12.2,22.7,13.8,25.8l4.6-29.9l4,30.6l6.5-25.4l2.8,26.8
				c0,0,12.8-22.5,10-26.5c0,0-0.7,22.2,0.9,24.6s-1.5,3.7-1.5,3.7L5138.1,101.3z"/>
			<path class="st1" d="M5113.5,102.3c0,0-1.3-13.7-7.5-19.1c0,0,12.2,14.7,13.8,16.6l4.6-19.3l4,19.7l6.5-16.4l2.8,17.3
				c0,0,12.8-14.5,10-17.1c0,0-0.7,14.4,0.9,15.9s-1.5,2.4-1.5,2.4L5113.5,102.3z"/>
			<path class="st0" d="M5266.3,102c0,0-1.3-19.6-7.5-27.3c0,0,12.2,21,13.8,23.8l4.6-27.6l4,28.2l6.5-23.4l2.9,24.7
				c0,0,12.8-20.7,10-24.5c0,0-0.7,20.5,0.9,22.7s-1.5,3.4-1.5,3.4L5266.3,102z"/>
			<path class="st0" d="M5234.2,102c0,0-1.3-16.3-7.5-22.7c0,0,12.2,17.5,13.8,19.8l4.6-23l4,23.5l6.5-19.5l2.9,20.6
				c0,0,12.8-17.3,10-20.4c0,0-0.7,17.1,0.9,18.9s-1.5,2.8-1.5,2.8L5234.2,102z"/>
			<path class="st0" d="M5209.2,102c0,0-1.3-34.6-7.5-48.1c0,0,12.2,37,13.8,42l4.6-48.8l4,49.8l6.5-41.3l2.9,43.6
				c0,0,12.8-36.6,10-43.2c0,0-0.7,36.2,0.9,40.1c1,2.1,0.4,4.6-1.5,6L5209.2,102z"/>
			<path class="st0" d="M5184.6,104.6c0,0-1.3-22.3-7.5-31.1c0,0,12.2,23.9,13.8,27.1l4.6-31.5l4,32.2l6.6-26.7l2.9,28.2
				c0,0,12.8-23.7,10-27.9c0,0-0.7,23.4,0.9,25.9s-1.5,3.8-1.5,3.8H5184.6z"/>
			<path class="st0" d="M5347.9,101.3c0,0-1.3-12-7.5-16.8c0,0,12.2,12.9,13.8,14.6l4.6-17l4,17.3l6.5-14.4l2.9,15.2
				c0,0,12.8-12.7,10-15c0,0-0.7,12.6,0.9,14s-1.5,2.1-1.5,2.1L5347.9,101.3z"/>
			<path class="st0" d="M5315.9,101.3c0,0-1.3-10-7.5-13.9c0,0,12.2,10.7,13.8,12.2l4.6-14.1l4,14.4l6.5-12l2.9,12.6
				c0,0,12.8-10.6,10-12.5c0,0-0.7,10.5,0.9,11.6s-1.5,1.7-1.5,1.7L5315.9,101.3z"/>
			<path class="st0" d="M5290.9,101.3c0,0-1.3-21.2-7.5-29.6c0,0,12.2,22.7,13.8,25.8l4.6-29.9l4,30.6l6.5-25.4l2.9,26.8
				c0,0,12.8-22.5,10-26.5c0,0-0.7,22.2,0.9,24.6s-1.5,3.7-1.5,3.7L5290.9,101.3z"/>
			<path class="st0" d="M5266.3,103c0,0-1.3-13.7-7.5-19.1c0,0,12.2,14.7,13.8,16.7l4.6-19.3l4,19.8l6.5-16.4l2.9,17.3
				c0,0,12.8-14.5,10-17.1c0,0-0.7,14.4,0.9,15.9s-1.5,2.4-1.5,2.4L5266.3,103z"/>
			<path class="st0" d="M5419.1,102c0,0-1.3-19.6-7.5-27.3c0,0,12.2,21,13.8,23.8l4.6-27.6l4,28.2l6.5-23.4l2.9,24.7
				c0,0,12.8-20.7,10-24.5c0,0-0.7,20.5,0.9,22.7s-1.5,3.4-1.5,3.4L5419.1,102z"/>
			<path class="st0" d="M5387,102c0,0-1.3-16.3-7.5-22.7c0,0,12.2,17.5,13.8,19.8l4.6-23l4,23.5l6.5-19.5l2.9,20.6
				c0,0,12.8-17.3,10-20.4c0,0-0.7,17.1,0.9,18.9s-1.5,2.8-1.5,2.8L5387,102z"/>
			<path class="st0" d="M5362,102c0,0-1.3-21.6-7.5-30.1c0,0,12.2,23.2,13.8,26.3l4.6-30.5l4,31.2l6.5-25.9l2.9,27.3
				c0,0,12.8-22.9,10-27c0,0-0.7,22.7,0.9,25.1s-1.5,3.7-1.5,3.7L5362,102z"/>
			<path class="st0" d="M5337.4,104.6c0,0-1.3-22.3-7.5-31.1c0,0,12.2,23.9,13.8,27.1l4.6-31.5l4,32.2l6.5-26.7l2.9,28.2
				c0,0,12.8-23.7,10-27.9c0,0-0.7,23.4,0.9,25.9s-1.5,3.8-1.5,3.8H5337.4z"/>
			<path class="st0" d="M5110.2,102.3c0,0-1.3-17.3-7.5-24.2c0,0,12.2,18.6,13.8,21.1l4.6-24.5l4,25l6.5-20.7l2.8,21.9
				c0,0,12.8-18.4,10-21.7c0,0-0.7,18.2,0.9,20.1s-1.5,3-1.5,3L5110.2,102.3z"/>
			<path class="st0" d="M5078.2,102.3c0,0-1.3-14.4-7.5-20.1c0,0,12.2,15.5,13.8,17.5l4.6-20.4l4,20.8l6.5-17.3l2.8,18.2
				c0,0,12.8-15.3,10-18c0,0-0.7,15.1,0.9,16.8s-1.5,2.5-1.5,2.5L5078.2,102.3z"/>
			<path class="st0" d="M5053.2,102.3c0,0-1.3-30.6-7.5-42.7c0,0,12.2,32.8,13.8,37.2l4.6-43.2l4,44.1l6.5-36.6l2.9,38.6
				c0,0,12.8-32.4,10-38.3c0,0-0.7,32.1,0.9,35.6c1,1.9,0.3,4.2-1.5,5.3L5053.2,102.3z"/>
			<path class="st0" d="M5028.6,104.6c0,0-1.3-19.8-7.5-27.5c0,0,12.2,21.2,13.8,24l4.6-27.9l4,28.5L5050,78l2.8,25
				c0,0,12.8-21,10-24.7c0,0-0.7,20.7,0.9,23s-1.5,3.4-1.5,3.4L5028.6,104.6z"/>
			<path class="st1" d="M4916.2,102.3c0,0-1.3-17.3-7.5-24.2c0,0,12.2,18.6,13.8,21.1l4.6-24.5l4,25l6.5-20.7l2.8,21.9
				c0,0,12.8-18.4,10-21.7c0,0-0.7,18.2,0.9,20.1s-1.5,3-1.5,3L4916.2,102.3z"/>
			<path class="st1" d="M4884.2,102.3c0,0-1.3-14.4-7.5-20.1c0,0,12.2,15.5,13.8,17.5l4.5-20.4l4,20.8l6.5-17.3l2.8,18.2
				c0,0,12.8-15.3,10-18c0,0-0.7,15.1,0.9,16.8s-1.5,2.5-1.5,2.5L4884.2,102.3z"/>
			<path class="st1" d="M4859.2,102.3c0,0-1.3-30.6-7.5-42.7c0,0,12.2,32.8,13.8,37.2l4.6-43.2l4,44.1l6.5-36.6l2.9,38.6
				c0,0,12.8-32.4,10-38.3c0,0-0.7,32.1,0.9,35.6c1,1.9,0.3,4.2-1.5,5.3L4859.2,102.3z"/>
			<path class="st1" d="M4834.6,104.6c0,0-1.3-19.8-7.5-27.5c0,0,12.2,21.2,13.8,24l4.6-27.9l4,28.5L4856,78l2.9,25
				c0,0,12.8-21,10-24.7c0,0-0.7,20.7,0.9,23s-1.5,3.4-1.5,3.4L4834.6,104.6z"/>
			<path class="st0" d="M5022.8,101.1c0,0,4.5-18.8-1.7-30.2c0,0,6.4,20.8,8,25l10.4-30.8l-1.8,31.6l12.4-24.5l-3,26.4
				c0,0,18.6-20.5,15.9-26.1c0,0-1.6,20-4.9,23.5c-3,3.1-1.5,5-1.5,5L5022.8,101.1z"/>
			<path class="st0" d="M4999.1,101.1c0,0,4.5-42.2-1.7-68c0,0,6.4,46.9,8,56.3l10.4-69.1l-1.8,71.1l12.3-55.1l-3,59.4
				c0,0,18.6-46.1,15.9-58.6c0,0-1.6,45-4.9,52.7c-3,7-1.5,11.3-1.5,11.3L4999.1,101.1z"/>
			<path class="st0" d="M4975.4,101.1c0,0-2-37.5-8.3-60.5c0,0,12.9,41.7,14.5,50l3.9-61.5l4.7,63.2l5.8-49l3.6,52.8
				c0,0,12.1-41,9.3-52.1c0,0,4.9,40,1.6,46.9c-3,6.2-1.5,10.1-1.5,10.1L4975.4,101.1z"/>
			<path class="st0" d="M4951.7,101.1c0,0,4.5-26.9-1.7-43.3c0,0,6.4,29.9,8,35.8l10.4-44.1l-1.8,45.3l12.3-35.1l-3,37.8
				c0,0,18.6-29.4,15.9-37.3c0,0-1.6,28.7-4.9,33.6c-3,4.4-1.5,7.2-1.5,7.2L4951.7,101.1z"/>
			<path class="st0" d="M5626.6,102.4c0,0,1.3-12,7.5-16.8c0,0-12.2,12.9-13.8,14.6l-4.6-17l-4,17.3l-6.5-14.4l-2.8,15.2
				c0,0-12.8-12.7-10-15c0,0,0.7,12.6-0.9,14s1.5,2.1,1.5,2.1L5626.6,102.4z"/>
			<path class="st0" d="M5658.7,102.4c0,0,1.3-10,7.5-13.9c0,0-12.2,10.7-13.8,12.2l-4.6-14.1l-4,14.4l-6.5-12l-2.8,12.6
				c0,0-12.8-10.5-10.1-12.5c0,0,0.7,10.5-0.9,11.6s1.5,1.7,1.5,1.7H5658.7z"/>
			<path class="st0" d="M5683.7,102.4c0,0,1.3-21.2,7.5-29.6c0,0-12.2,22.7-13.8,25.8l-4.6-29.9l-4,30.6l-6.5-25.4l-2.9,26.8
				c0,0-12.8-22.5-10-26.5c0,0,0.7,22.2-0.9,24.6s1.5,3.7,1.5,3.7L5683.7,102.4z"/>
			<path class="st0" d="M5708.3,104c0,0,1.3-13.7,7.5-19.1c0,0-12.2,14.7-13.8,16.6l-4.6-19.3l-4,19.8l-6.5-16.4l-2.8,17.3
				c0,0-12.8-14.5-10.1-17.1c0,0,0.7,14.4-0.9,15.9s1.5,2.4,1.5,2.4L5708.3,104z"/>
			<path class="st0" d="M5555.5,103.1c0,0,1.3-19.6,7.5-27.3c0,0-12.2,21-13.8,23.8l-4.6-27.6l-4,28.2l-6.5-23.4l-2.8,24.7
				c0,0-12.8-20.8-10.1-24.5c0,0,0.7,20.5-0.9,22.7s1.5,3.4,1.5,3.4L5555.5,103.1z"/>
			<path class="st0" d="M5587.5,103.1c0,0,1.3-16.3,7.5-22.7c0,0-12.2,17.5-13.8,19.8l-4.6-23l-4,23.5l-6.5-19.5l-2.8,20.6
				c0,0-12.8-17.3-10-20.4c0,0,0.7,17.1-0.9,18.9s1.5,2.8,1.5,2.8L5587.5,103.1z"/>
			<path class="st0" d="M5612.5,103.1c0,0,1.3-34.6,7.5-48.1c0,0-12.2,37-13.8,42l-4.6-48.8l-4,49.8l-6.5-41.3l-2.8,43.6
				c0,0-12.8-36.7-10.1-43.2c0,0,0.7,36.2-0.9,40.1c-1,2.1-0.4,4.6,1.5,6L5612.5,103.1z"/>
			<path class="st0" d="M5637.1,105.7c0,0,1.3-22.3,7.5-31.1c0,0-12.2,23.9-13.8,27.1l-4.6-31.5l-4,32.2l-6.5-26.7l-2.8,28.2
				c0,0-12.8-23.7-10-27.9c0,0,0.7,23.4-0.9,25.9s1.5,3.8,1.5,3.8L5637.1,105.7z"/>
			<path class="st0" d="M5473.8,102.4c0,0,1.3-12,7.5-16.8c0,0-12.2,12.9-13.8,14.6l-4.6-17l-4,17.3l-6.5-14.4l-2.9,15.2
				c0,0-12.8-12.7-10-15c0,0,0.7,12.6-0.9,14s1.5,2.1,1.5,2.1L5473.8,102.4z"/>
			<path class="st0" d="M5505.9,102.4c0,0,1.3-10,7.5-13.9c0,0-12.2,10.7-13.8,12.2l-4.6-14.1l-4,14.4l-6.5-12l-2.9,12.6
				c0,0-12.8-10.6-10-12.5c0,0,0.7,10.5-0.9,11.6s1.5,1.7,1.5,1.7L5505.9,102.4z"/>
			<path class="st0" d="M5530.9,102.4c0,0,1.3-21.2,7.5-29.6c0,0-12.2,22.7-13.8,25.8l-4.6-29.9l-4,30.6l-6.5-25.4l-2.8,26.8
				c0,0-12.8-22.5-10-26.5c0,0,0.7,22.2-0.9,24.6s1.5,3.7,1.5,3.7H5530.9z"/>
			<path class="st0" d="M5555.5,104c0,0,1.3-13.7,7.5-19.1c0,0-12.2,14.7-13.8,16.6l-4.6-19.3l-4,19.8l-6.5-16.4l-2.8,17.3
				c0,0-12.8-14.5-10-17.1c0,0,0.7,14.4-0.9,15.9s1.5,2.4,1.5,2.4L5555.5,104z"/>
			<path class="st0" d="M5402.6,103.1c0,0,1.3-19.6,7.5-27.3c0,0-12.2,21-13.8,23.8l-4.6-27.6l-4,28.2l-6.5-23.4l-2.9,24.7
				c0,0-12.8-20.7-10-24.5c0,0,0.7,20.5-0.9,22.7s1.5,3.4,1.5,3.4L5402.6,103.1z"/>
			<path class="st0" d="M5434.7,103.1c0,0,1.3-16.3,7.5-22.7c0,0-12.2,17.5-13.8,19.8l-4.6-23l-4,23.5l-6.5-19.5l-2.9,20.6
				c0,0-12.8-17.3-10-20.4c0,0,0.7,17.1-0.9,18.9s1.5,2.8,1.5,2.8L5434.7,103.1z"/>
			<path class="st0" d="M5459.7,103.1c0,0,1.3-21.6,7.5-30.1c0,0-12.2,23.2-13.8,26.3l-4.6-30.5l-4,31.2l-6.6-25.8l-2.8,27.3
				c0,0-12.8-22.9-10-27c0,0,0.7,22.7-0.9,25.1s1.5,3.7,1.5,3.7L5459.7,103.1z"/>
			<path class="st0" d="M5484.3,105.7c0,0,1.3-22.3,7.5-31.1c0,0-12.2,23.9-13.8,27.1l-4.6-31.5l-4,32.2l-6.5-26.7l-2.8,28.2
				c0,0-12.8-23.7-10.1-27.9c0,0,0.7,23.4-0.9,25.9s1.5,3.8,1.5,3.8L5484.3,105.7z"/>
			<path class="st1" d="M5711.5,103.3c0,0,1.3-17.3,7.5-24.2c0,0-12.2,18.6-13.8,21.1l-4.6-24.5l-4,25l-6.5-20.8l-2.9,21.9
				c0,0-12.8-18.4-10-21.7c0,0,0.7,18.2-0.9,20.1s1.5,3,1.5,3L5711.5,103.3z"/>
			<path class="st1" d="M5743.5,103.3c0,0,1.3-14.4,7.5-20.1c0,0-12.2,15.5-13.8,17.5l-4.6-20.4l-4,20.8l-6.5-17.3l-2.9,18.2
				c0,0-12.8-15.3-10-18.1c0,0,0.7,15.1-0.9,16.8s1.5,2.5,1.5,2.5L5743.5,103.3z"/>
			<path class="st1" d="M5768.5,102.4c0,0,1.3-30.6,7.5-42.7c0,0-12.2,32.8-13.8,37.2l-4.6-43.2l-4,44.1l-6.5-36.6l-2.9,38.6
				c0,0-12.8-32.4-10-38.3c0,0,0.7,32.1-0.9,35.6c-1,1.9-0.3,4.2,1.5,5.3H5768.5z"/>
			<path class="st1" d="M5793.7,101.3c0,0,1.3-19.8,7.5-27.5c0,0-12.2,21.2-13.8,24l-4.6-27.9l-4,28.5l-6.5-23.7l-2.8,25
				c0,0-12.8-21-10-24.7c0,0,0.7,20.7-0.9,23s1.5,3.4,1.5,3.4L5793.7,101.3z"/>
			<path class="st0" d="M5799,101.2c0,0-4.5-18.8,1.7-30.2c0,0-6.4,20.8-8,25l-10.4-30.7l1.8,31.6l-12.3-24.5l3,26.4
				c0,0-18.6-20.5-15.9-26c0,0,1.6,20,4.9,23.5c3,3.1,1.5,5,1.5,5L5799,101.2z"/>
			<path class="st0" d="M5885.7,101.2c0,0-4.5-18.8,1.7-30.2c0,0-6.4,20.8-8,25l-10.4-30.7l1.8,31.6l-12.4-24.5l3,26.4
				c0,0-18.6-20.5-15.9-26c0,0,1.6,20,4.9,23.4c3,3.1,1.5,5,1.5,5L5885.7,101.2z"/>
			<path class="st0" d="M5822.6,101.2c0,0-4.5-42.2,1.7-68c0,0-6.4,46.9-8,56.3L5806,20.3l1.8,71.1l-12.3-55.1l3,59.4
				c0,0-18.6-46.1-15.9-58.6c0,0,1.6,45,4.9,52.7c3,7,1.5,11.3,1.5,11.3L5822.6,101.2z"/>
			<path class="st0" d="M5846.4,101.2c0,0,2-37.5,8.2-60.5c0,0-12.9,41.7-14.5,50l-3.9-61.5l-4.7,63.2l-5.8-49l-3.5,52.8
				c0,0-12.1-41-9.3-52.1c0,0-4.9,40-1.6,46.9c3,6.2,1.5,10.1,1.5,10.1L5846.4,101.2z"/>
			<path class="st0" d="M5870,101.2c0,0-4.5-26.9,1.7-43.3c0,0-6.4,29.9-8,35.8l-10.3-44.1l1.8,45.3l-12.3-35.1l3,37.8
				c0,0-18.6-29.4-15.9-37.3c0,0,1.6,28.7,4.9,33.6c3,4.4,1.5,7.2,1.5,7.2H5870z"/>
			<path class="st0" d="M3814.5,101.1c0,0,4.5-18.8-1.7-30.2c0,0,6.4,20.8,8,25l10.4-30.8l-1.8,31.6l12.3-24.5l-3,26.4
				c0,0,18.6-20.5,15.9-26.1c0,0-1.6,20-4.9,23.5c-3,3.1-1.5,5-1.5,5L3814.5,101.1z"/>
			<path class="st0" d="M3790.8,101.1c0,0,4.5-42.2-1.7-68c0,0,6.4,46.9,8,56.3l10.4-69.1l-1.8,71.1l12.3-55l-3,59.4
				c0,0,18.6-46.1,15.9-58.6c0,0-1.6,45-4.9,52.7c-3,7-1.5,11.3-1.5,11.3L3790.8,101.1z"/>
			<path class="st0" d="M3767.1,101.1c0,0-2-37.5-8.2-60.5c0,0,12.9,41.7,14.5,50l3.9-61.5l4.8,63.3l5.8-49l3.6,52.8
				c0,0,12.1-41,9.3-52.1c0,0,4.9,40,1.6,46.9c-3,6.2-1.5,10.1-1.5,10.1L3767.1,101.1z"/>
			<path class="st0" d="M3743.4,101.1c0,0,4.5-26.9-1.7-43.3c0,0,6.4,29.9,8,35.8l10.4-44.1l-1.8,45.3l12.4-35.1l-3,37.8
				c0,0,18.6-29.4,15.9-37.3c0,0-1.6,28.7-4.9,33.6c-3,4.4-1.5,7.2-1.5,7.2L3743.4,101.1z"/>
			<path class="st0" d="M3050.5,101.1c0,0,4.5-23.4-1.7-37.8c0,0,6.4,26.1,8,31.3l10.4-38.4l-1.8,39.5l12.3-30.7l-3,33
				c0,0,18.6-25.6,15.9-32.6c0,0-1.6,25-4.9,29.3c-3,3.9-1.5,6.3-1.5,6.3L3050.5,101.1z"/>
			<path class="st0" d="M3026.8,101.1c0,0,4.5-52.7-1.7-85c0,0,6.4,58.6,8,70.3L3043.5,0l-1.8,88.9L3054,20l-3,74.2
				c0,0,18.6-57.6,15.9-73.3c0,0-1.6,56.2-4.9,65.9c-3,8.7-1.6,14.2-1.6,14.2L3026.8,101.1z"/>
			<path class="st0" d="M3003.1,101.1c0,0-2-46.9-8.2-75.6c0,0,12.9,52.1,14.5,62.5l3.9-76.9l4.7,79.1l5.8-61.2l3.6,66
				c0,0,12.1-51.3,9.3-65.2c0,0,4.9,50,1.6,58.6c-3,7.7-1.6,12.6-1.6,12.6H3003.1z"/>
			<path class="st0" d="M2979.5,101.1c0,0,4.5-33.6-1.7-54.2c0,0,6.4,37.3,8,44.8l10.4-55.1l-1.8,56.6l12.3-43.9l-3,47.3
				c0,0,18.6-36.7,15.9-46.7c0,0-1.6,35.8-4.9,42c-3,5.6-1.6,9-1.6,9L2979.5,101.1z"/>
			<path class="st0" d="M6214.5,195.1c0,0,9.7-28.1,19.9-44c0,0-19.9,28.6-23,34.6l1.4-48.6l-9.1,47.9l5.4-38.7l-14.2,39.4
				c0,0-10-35-5.3-42.8c0,0-4.4,30.1-3,36.2c1.3,5.4-0.8,8-0.8,8L6214.5,195.1z"/>
			<path class="st0" d="M6228.3,197.4c0,0,0.1-15.4,7.9-22.6c0,0-9.9,14.3-12.1,17.1l-2.4-25.9l-5.2,24.5l-5.4-21.6l-3.1,20.8
				c0,0-11.6-20-8.1-23.6c0,0-2.9,15.6-0.7,19c1.9,3.1,0.3,4.2,0.3,4.2L6228.3,197.4z"/>
			<path class="st0" d="M6253.3,213.8c0,0,3.2-12.2,11.8-15.3c0,0-12,8-14.7,9.4l3-21.4l-9.7,17.7l-0.6-19.1l-7,15.5
				c0,0-6.7-20-2.7-21.6c0,0-5.8,11.4-4.5,14.9c1.2,3.1-0.6,3.4-0.6,3.4L6253.3,213.8z"/>
			<path class="st0" d="M6271,225.3c0,0,3.8-28.3,17.4-39c0,0-13.6,25.5-18,29.7l8.8-45.5l-15.9,42.4l2.5-38.9l-11,36.7
				c0,0-5.3-37.2,1.1-42.5c0,0-7,28.3-7.2,34.1c-0.2,5.2-2.8,6.8-2.8,6.8L6271,225.3z"/>
			<path class="st0" d="M6288.6,236.8c0,0,14.6-19,27.2-28.2c0,0-24.2,15.9-28.2,19.6l11-38.3l-18,35l12.7-29l-21,26.4
				c0,0-2.2-31.3,3.7-35.9c0,0-10.1,22.5-10,27.8c0.1,4.8-2.4,6.1-2.4,6.1L6288.6,236.8z"/>
			<path class="st0" d="M6306.2,248.4c0,0,6-16.5,16.4-22.3c0,0-15.2,12.8-18.4,15.2l7.6-28.6l-14.5,25l3-24.7l-11,21.6
				c0,0-3.6-24.7,1.2-27.6c0,0-8.8,16.1-8,20.3c0.7,3.8-1.4,4.6-1.4,4.6L6306.2,248.4z"/>
			<path class="st0" d="M6332.8,265.6c0,0,6-16.5,16.4-22.3c0,0-15.2,12.8-18.4,15.2l7.6-28.6l-14.5,25l3-24.7L6316,252
				c0,0-3.6-24.7,1.2-27.6c0,0-8.8,16.1-8,20.3c0.7,3.8-1.4,4.6-1.4,4.6L6332.8,265.6z"/>
			<path class="st1" d="M6636.9,351.6c0,0,2.7-12.3,11.2-15.7c0,0-11.7,8.5-14.3,10l2.2-21.5l-9,18.1l-1.4-19l-6.4,15.8
				c0,0-7.5-19.7-3.5-21.5c0,0-5.4,11.6-3.9,15.1c1.3,3.1-0.5,3.5-0.5,3.5L6636.9,351.6z"/>
			<path class="st1" d="M6655,362.4c0,0,2.7-28.4,15.9-39.6c0,0-12.6,26-16.9,30.4l7.1-45.8l-14.3,42.9l1-39l-9.5,37.1
				c0,0-6.7-37-0.5-42.5c0,0-5.9,28.6-5.9,34.4c0,5.2-2.5,6.9-2.5,6.9L6655,362.4z"/>
			<path class="st1" d="M6773.5,433.1c0,0,2.7-28.4,15.9-39.6c0,0-12.6,26-16.9,30.4l7.1-45.8l-14.3,43l1-39l-9.6,37
				c0,0-6.7-37-0.5-42.5c0,0-5.9,28.6-5.9,34.4c0,5.2-2.5,6.9-2.5,6.9L6773.5,433.1z"/>
			<path class="st1" d="M6673,373.3c0,0,13.8-19.6,26.1-29.2c0,0-23.5,16.8-27.5,20.7l9.6-38.6l-16.7,35.7l11.6-29.4l-20,27.2
				c0,0-3.4-31.2,2.3-36c0,0-9.2,22.9-8.9,28.2c0.3,4.8-2.1,6.2-2.1,6.2L6673,373.3z"/>
			<path class="st1" d="M6743.6,415.4c0,0,2.7-28.4,15.9-39.6c0,0-12.6,26-16.9,30.4l7.1-45.8l-14.3,42.9l1-39l-9.5,37.1
				c0,0-6.7-37-0.5-42.5c0,0-5.9,28.6-5.9,34.4c0,5.2-2.5,6.9-2.5,6.9L6743.6,415.4z"/>
			<path class="st1" d="M6761.6,426.2c0,0,13.8-19.6,26.1-29.2c0,0-23.5,16.9-27.5,20.7l9.6-38.6l-16.7,35.6l11.6-29.4l-20,27.2
				c0,0-3.4-31.2,2.3-36c0,0-9.2,22.9-8.9,28.2c0.3,4.8-2.1,6.2-2.1,6.2L6761.6,426.2z"/>
			<path class="st1" d="M6691.1,384.1c0,0,5.4-16.8,15.5-22.9c0,0-14.7,13.4-17.8,15.9l6.5-28.8l-13.5,25.6l2.1-24.8l-10.1,22
				c0,0-4.5-24.5,0.1-27.6c0,0-8.2,16.4-7.3,20.6c0.8,3.8-1.2,4.6-1.2,4.6L6691.1,384.1z"/>
			<path class="st1" d="M6718.3,400.4c0,0,5.4-16.8,15.5-22.9c0,0-14.7,13.4-17.8,15.9l6.5-28.8l-13.5,25.6l2.1-24.8l-10.1,22
				c0,0-4.5-24.6,0.1-27.6c0,0-8.2,16.4-7.3,20.6c0.8,3.8-1.2,4.6-1.2,4.6L6718.3,400.4z"/>
			<path class="st0" d="M6801.3,443.3c0,0-0.6-10.1,6.6-13.6c0,0-8.9,7.8-10.9,9.3l-3.5-17.5l-3.9,15.4l-6.2-15.2l-2,13.3
				c0,0-12.1-15.2-8.8-17c0,0-2.1,9.9,0.1,12.5c2,2.4,0.4,2.8,0.4,2.8L6801.3,443.3z"/>
			<path class="st0" d="M6821.1,450.5c0,0-4.7-23.1,4.9-33.3c0,0-5.2,22-8.1,25.9l-5-37.5l-2.5,35.8l-9.1-31.5l0.5,30.7
				c0,0-15.8-29.2-11.4-34.2c0,0,1.8,23.5,3.3,28.2c1.4,4.2-0.6,5.8-0.6,5.8L6821.1,450.5z"/>
			<path class="st0" d="M6951,497.1c0,0-4.7-23.1,4.9-33.3c0,0-5.2,22-8.1,25.9l-5-37.5l-2.5,35.8l-9.1-31.5l0.5,30.7
				c0,0-15.8-29.2-11.4-34.2c0,0,1.8,23.5,3.3,28.2c1.4,4.2-0.6,5.8-0.6,5.8L6951,497.1z"/>
			<path class="st0" d="M6840.9,457.7c0,0,8-17,17.1-25.8c0,0-17.9,15.6-20.6,19l-0.9-32l-6.6,30.2l3.4-24.7l-11.9,23.6
				c0,0-11.2-24.8-7-29.2c0,0-2.8,19.2-1.2,23.5c1.5,3.8-0.4,5.2-0.4,5.2L6840.9,457.7z"/>
			<path class="st0" d="M6918.2,485.5c0,0-4.7-23.1,4.9-33.3c0,0-5.2,22-8.1,25.9l-5-37.5l-2.5,35.8l-9.1-31.5l0.5,30.7
				c0,0-15.8-29.2-11.4-34.2c0,0,1.8,23.5,3.3,28.2c1.4,4.2-0.6,5.8-0.6,5.8L6918.2,485.5z"/>
			<path class="st0" d="M6938,492.6c0,0,8-17,17.1-25.8c0,0-17.9,15.6-20.6,19l-0.9-32l-6.6,30.2l3.4-24.7l-11.9,23.6
				c0,0-11.2-24.8-7-29.2c0,0-2.8,19.2-1.2,23.5c1.5,3.8-0.4,5.2-0.4,5.2L6938,492.6z"/>
			<path class="st0" d="M6860.7,464.8c0,0,0.8-14,8.8-19.8c0,0-10.4,12-12.7,14.4l-1.2-23.8l-6.2,21.8l-4.3-20.2l-4,18.6
				c0,0-10.6-19.4-6.9-22.3c0,0-3.5,13.9-1.6,17.2c1.8,3,0.1,3.9,0.1,3.9L6860.7,464.8z"/>
			<path class="st0" d="M6890.5,475.5c0,0,0.8-14,8.8-19.8c0,0-10.4,12-12.7,14.4l-1.2-23.8l-6.2,21.8l-4.4-20.1l-3.9,18.6
				c0,0-10.6-19.4-6.9-22.3c0,0-3.5,13.9-1.6,17.2c1.8,3,0.1,3.9,0.1,3.9L6890.5,475.5z"/>
			<path class="st0" d="M6975.2,505.4c0,0,0.3-12.6,8-17.6c0,0-9.9,10.5-12.1,12.6l-2-21.6l-5.4,19.5l-5-18.4l-3.2,16.7
				c0,0-11.1-17.9-7.6-20.4c0,0-3,12.5-1,15.5c1.9,2.8,0.2,3.5,0.2,3.5L6975.2,505.4z"/>
			<path class="st0" d="M6995,512.6c0,0-2.8-28.4,8-42c0,0-7.4,27.9-10.7,33l-1.9-46.3l-5.8,44.9l-6.5-38.5L6976,502
				c0,0-13.7-35-8.7-41.7c0,0-0.3,29.2,0.9,34.8c1,5.1-1.2,7.3-1.2,7.3L6995,512.6z"/>
			<path class="st0" d="M7125,559.1c0,0-2.8-28.4,8-42c0,0-7.4,27.9-10.7,33l-1.9-46.3l-5.8,44.9l-6.5-38.5l-2.2,38.2
				c0,0-13.7-35-8.7-41.6c0,0-0.3,29.2,0.9,34.8c1,5.1-1.2,7.3-1.2,7.3L7125,559.1z"/>
			<path class="st0" d="M7014.9,519.8c0,0,9.8-21.9,20-33.7c0,0-19.9,21.1-23,25.6l1.9-39.8l-9.5,38.2l5.7-31.1l-14.4,30.5
				c0,0-9.4-30-4.7-35.8c0,0-4.6,24.2-3.3,29.4c1.2,4.6-0.9,6.5-0.9,6.5L7014.9,519.8z"/>
			<path class="st0" d="M7092.2,547.5c0,0-2.8-28.4,8-42c0,0-7.4,27.9-10.7,33l-1.9-46.3l-5.8,44.9l-6.5-38.5l-2.2,38.2
				c0,0-13.7-35-8.7-41.6c0,0-0.3,29.2,0.9,34.8c1,5.1-1.2,7.3-1.2,7.3L7092.2,547.5z"/>
			<path class="st0" d="M7112,554.7c0,0,9.8-21.9,20-33.7c0,0-19.9,21.1-23,25.6l2-39.8l-9.5,38.2l5.8-31.1l-14.4,30.6
				c0,0-9.4-30-4.7-35.8c0,0-4.6,24.2-3.3,29.4c1.2,4.6-0.9,6.5-0.9,6.5L7112,554.7z"/>
			<path class="st0" d="M7034.7,526.9c0,0,2-17.5,10.8-25.4c0,0-11.8,16-14.4,19.1l0.9-29.5l-8.3,27.7l-2.7-24.7l-5.7,23.6
				c0,0-9.2-23.3-5.2-27.2c0,0-4.9,17.7-3.1,21.6c1.6,3.6-0.3,4.8-0.3,4.8L7034.7,526.9z"/>
			<path class="st0" d="M7064.5,537.6c0,0,2-17.5,10.8-25.4c0,0-11.8,16-14.4,19.1l0.9-29.5l-8.3,27.7l-2.7-24.8l-5.7,23.6
				c0,0-9.2-23.2-5.2-27.2c0,0-4.9,17.6-3.2,21.6c1.6,3.6-0.3,4.8-0.3,4.8L7064.5,537.6z"/>
			<path class="st0" d="M7149.8,568.1c0,0,2.1-17.6,10.9-25.6c0,0-11.9,16-14.5,19.2l0.9-29.7l-8.4,27.8L7136,535l-5.8,23.7
				c0,0-9.1-23.3-5.1-27.3c0,0-4.9,17.7-3.2,21.7c1.5,3.6-0.3,4.8-0.3,4.8L7149.8,568.1z"/>
			<path class="st1" d="M7169.6,575.3c0,0,1.1-39.1,14.3-59.4c0,0-11.7,39.8-15.9,47.4l4.6-64.1l-12.4,63.2l-1.5-52.6l-7.7,53.4
				c0,0-9.5-46.7-3.3-56.7c0,0-4.4,40.6-4,48.3c0.3,6.9-2.3,10.2-2.3,10.2L7169.6,575.3z"/>
			<path class="st1" d="M7299.6,621.6c0,0,1.1-39.1,14.3-59.4c0,0-11.7,39.8-15.9,47.4l4.6-64.1l-12.4,63.2l-1.4-52.6l-7.7,53.4
				c0,0-9.5-46.7-3.3-56.7c0,0-4.4,40.6-4,48.3c0.4,6.9-2.3,10.2-2.3,10.2L7299.6,621.6z"/>
			<path class="st1" d="M7189.4,582.4c0,0,13.4-31.8,25.8-49.7c0,0-23.8,32.1-27.7,38.8l7.6-55.5l-15.4,54.4l10.4-44l-19.5,44.5
				c0,0-5.6-40.3,0.1-49.1c0,0-8.3,34.3-7.6,41.3c0.6,6.3-1.9,9.2-1.9,9.2L7189.4,582.4z"/>
			<path class="st1" d="M7266.8,610.1c0,0,1.1-39.1,14.3-59.4c0,0-11.7,39.8-15.9,47.4l4.6-64.1l-12.4,63.2l-1.4-52.6l-7.7,53.4
				c0,0-9.5-46.7-3.3-56.7c0,0-4.4,40.6-4,48.3c0.4,6.9-2.3,10.2-2.3,10.2L7266.8,610.1z"/>
			<path class="st1" d="M7286.6,617.3c0,0,13.4-31.8,25.8-49.7c0,0-23.8,32.1-27.7,38.8l7.6-55.5l-15.4,54.4l10.4-44l-19.5,44.5
				c0,0-5.6-40.3,0.1-49.1c0,0-8.3,34.3-7.6,41.3c0.6,6.3-1.9,9.2-1.9,9.2L7286.6,617.3z"/>
			<path class="st1" d="M7209.2,589.6c0,0,4.6-24.6,15-36.9c0,0-14.7,23.8-17.9,28.5l5.1-41.2l-12.6,39.7l0.6-34l-9.3,33.5
				c0,0-6.4-31-1.6-37c0,0-7.6,25.2-6.4,30.5c1.1,4.7-1,6.7-1,6.7L7209.2,589.6z"/>
			<path class="st1" d="M7239.1,600.3c0,0,4.6-24.6,15-36.9c0,0-14.7,23.8-17.9,28.5l5.1-41.2l-12.6,39.7l0.6-34l-9.3,33.5
				c0,0-6.4-31-1.6-37c0,0-7.6,25.2-6.4,30.5c1.1,4.7-1,6.7-1,6.7L7239.1,600.3z"/>
			<path class="st1" d="M7323.8,631.2c0,0,0.3-12.6,8-17.6c0,0-9.9,10.5-12.1,12.6l-2-21.6l-5.4,19.5l-5-18.4l-3.3,16.7
				c0,0-11.1-17.9-7.6-20.4c0,0-3,12.5-1,15.5c1.9,2.8,0.2,3.5,0.2,3.5L7323.8,631.2z"/>
			<path class="st1" d="M7343.6,638.4c0,0-2.8-28.4,8-41.9c0,0-7.4,27.9-10.7,33l-1.9-46.3l-5.8,44.9l-6.5-38.5l-2.2,38.2
				c0,0-13.7-35-8.7-41.7c0,0-0.3,29.2,0.9,34.8c1,5.1-1.2,7.3-1.2,7.3L7343.6,638.4z"/>
			<path class="st0" d="M7448.9,676.1c0,0-3.8-14.3,2.4-20.3c0,0-3,13.3-4.8,15.7l-4.4-23.1l-0.7,21.9l-6.9-19.6l1.1,18.8
				c0,0-11.4-18.3-8.6-21.3c0,0,1.8,14.5,2.9,17.4c1,2.6-0.3,3.5-0.3,3.5L7448.9,676.1z"/>
			<path class="st0" d="M7363.4,645.6c0,0,9.8-21.9,20-33.7c0,0-19.8,21.1-23,25.6l1.9-39.8l-9.5,38.2l5.8-31.1l-14.4,30.6
				c0,0-9.4-30-4.7-35.8c0,0-4.6,24.2-3.3,29.4c1.2,4.6-0.9,6.5-0.9,6.5L7363.4,645.6z"/>
			<path class="st0" d="M7440.7,673.3c0,0-5-22.4,4.5-32.2c0,0-5,21.2-7.8,25l-5.5-36.4l-2,34.6l-9.4-30.6l0.8,29.7
				c0,0-16.1-28.4-11.8-33.3c0,0,2,22.8,3.6,27.3c1.4,4-0.6,5.6-0.6,5.6L7440.7,673.3z"/>
			<path class="st0" d="M7460.5,680.5c0,0,5.5-10,13.1-14.6c0,0-15.1,7.9-17.2,9.8l-4.9-20.9l-2.4,18.8l0.1-15.6l-8.4,13.8
				c0,0-13.9-17.5-10.4-19.9c0,0-0.3,12.1,1.8,15.1c1.9,2.7,0.3,3.3,0.3,3.3L7460.5,680.5z"/>
			<path class="st0" d="M7383.2,652.7c0,0,2-17.5,10.8-25.4c0,0-11.8,16-14.4,19.1l0.9-29.5l-8.3,27.7l-2.7-24.8l-5.7,23.6
				c0,0-9.2-23.2-5.2-27.2c0,0-4.9,17.7-3.2,21.6c1.6,3.6-0.3,4.8-0.3,4.8L7383.2,652.7z"/>
			<path class="st0" d="M7413,663.4c0,0,0.6-13.5,8.5-19c0,0-10.2,11.5-12.5,13.8l-1.5-23l-5.9,21l-4.6-19.6l-3.7,18
				c0,0-10.8-18.9-7.2-21.7c0,0-3.4,13.4-1.4,16.7c1.8,2.9,0.1,3.7,0.1,3.7L7413,663.4z"/>
			<path class="st0" d="M6350.9,277.6c0,0,4.7-14.6,14.4-19.1c0,0-13.8,10.7-16.8,12.7l5.6-25.4l-12.3,21.8l1.4-22.2l-9.2,18.9
				c0,0-5-22.6-0.5-25c0,0-7.5,14-6.5,17.9c0.9,3.5-1,4.1-1,4.1L6350.9,277.6z"/>
			<path class="st0" d="M6366.9,288.1c0,0,4.7-14.6,14.4-19.2c0,0-13.8,10.7-16.8,12.7l5.6-25.4l-12.3,21.8l1.4-22.2l-9.2,18.9
				c0,0-5-22.6-0.5-24.9c0,0-7.5,14-6.5,17.9c0.9,3.5-1,4.1-1,4.1L6366.9,288.1z"/>
			<path class="st0" d="M6474.7,305.6c0,0,4.7-14.6,14.4-19.1c0,0-13.8,10.7-16.8,12.7l5.6-25.4l-12.3,21.8l1.4-22.2l-9.2,18.9
				c0,0-5-22.6-0.5-25c0,0-7.5,14-6.5,17.9c0.9,3.5-1,4.1-1,4.1L6474.7,305.6z"/>
			<path class="st0" d="M6514.1,331.6c0,0,4.7-14.6,14.4-19.1c0,0-13.8,10.7-16.8,12.7l5.6-25.4l-12.3,21.8l1.4-22.2l-9.2,18.9
				c0,0-5-22.6-0.5-24.9c0,0-7.5,14-6.5,17.9c0.9,3.5-1,4.1-1,4.1L6514.1,331.6z"/>
			<path class="st1" d="M6490.8,316.1c0,0,4.7-14.6,14.3-19.1c0,0-13.8,10.7-16.7,12.7l5.6-25.4l-12.3,21.8l1.4-22.2l-9.2,18.9
				c0,0-5-22.6-0.5-25c0,0-7.5,14-6.5,17.9c0.9,3.5-1,4.1-1,4.1L6490.8,316.1z"/>
			<path class="st0" d="M6520.8,336.2c0,0,4.7-14.6,14.4-19.1c0,0-13.8,10.7-16.8,12.7l5.6-25.4l-12.3,21.8l1.4-22.2l-9.2,18.9
				c0,0-5-22.6-0.5-25c0,0-7.5,14-6.5,17.9c0.9,3.5-1,4.1-1,4.1L6520.8,336.2z"/>
		</g>
	</g>
</g>
</svg>
