<svg xmlns="http://www.w3.org/2000/svg" viewBox="0 0 2355.72 1464.86"><defs><style>.cls-1{fill:#4d4d4d;}.cls-2{fill:#494949;}.cls-3{fill:#444;}.cls-4{fill:#404040;}.cls-5{fill:#3c3c3c;}.cls-6{fill:#373737;}.cls-7{fill:#333;}.cls-8{fill:#160c06;}.cls-9{fill:#1d1008;}.cls-10{fill:#24130a;}.cls-11{fill:#2b170d;}.cls-12{fill:#311b0f;}.cls-13{fill:#381e11;}.cls-14{fill:#3f2213;}.cls-15{fill:#120a05;}.cls-16{fill:#0f0804;}.cls-17{fill:#0b0603;}.cls-18{fill:#070402;}.cls-19{fill:#040201;}.cls-20{fill:#402214;}.cls-21{fill:#472617;}.cls-22{fill:#4f2b1a;}.cls-23{fill:#572f1c;}.cls-24{fill:#5e331f;}.cls-25{fill:#663722;}.cls-26{fill:#6f3c27;}.cls-27{fill:#77422b;}.cls-28{fill:#804730;}.cls-29{fill:#884c34;}.cls-30{fill:#905238;}.cls-31{fill:#99573d;}.cls-32{fill:#a15d42;}.cls-33{fill:#a96248;}.cls-34{fill:#b1684d;}.cls-35{fill:#b96e52;}.cls-36{fill:#c17358;}.cls-37{fill:#c9795d;}</style></defs><title>Interior Caverna</title><g id="Layer_2" data-name="Layer 2"><g id="interior_caverna" data-name="interior caverna"><g id="interior_caverna-2" data-name="interior caverna"><polygon class="cls-1" points="2254.27 478.46 2236.17 450.89 1803.42 216.75 1575.26 190.52 1357.55 328.68 1315.75 508.81 1326.2 695.7 1374.97 746.65 1899.21 778.13 2161.28 752.8 2236.19 641.8 2262.53 536.88 2254.27 478.46"/><polygon class="cls-2" points="1216.08 290.02 1375.16 199.11 1449.94 162.61 1688.64 184.47 1923.17 260.66 2078.34 322.55 2191.23 390.65 2243.9 440.2 2251.77 452.11 2261.34 490.18 2264.72 519.99 2268.69 550.79 2257.76 609.79 2254.91 635.99 2245.58 655.66 2156.54 753.39 2070.35 776.16 1943.6 791.64 1812 809.11 1458.31 814.98 1246.22 800.73 1191.22 738.99 1144.41 532.08 1162.93 394.93 1216.08 290.02"/><polygon class="cls-3" points="1074.61 251.37 1244.06 163.91 1324.63 134.71 1573.86 152.2 1873.95 213.15 2071.78 276.05 2209.64 364.69 2263.88 436.14 2267.37 453.32 2268.4 501.9 2271.11 532.79 2274.86 564.7 2267.22 626.05 2267.97 652.7 2254.97 669.53 2151.8 753.99 2047.31 792.96 1888.99 814.72 1724.78 840.08 1346.07 871.56 1117.47 854.8 1056.24 782.28 973.08 555.35 987.89 376.82 1074.61 251.37"/><polygon class="cls-4" points="933.13 212.72 1112.95 128.71 1199.31 106.81 1459.08 119.93 1824.74 165.64 2065.23 229.56 2228.05 338.72 2283.85 432.07 2282.98 454.54 2275.47 513.62 2277.5 545.59 2281.02 578.61 2276.68 642.31 2281.03 669.41 2264.36 683.39 2147.06 754.58 2024.27 809.76 1834.38 837.8 1637.56 871.05 1233.83 928.14 988.72 908.88 921.27 825.57 801.74 578.63 812.85 358.7 933.13 212.72"/><polygon class="cls-5" points="791.66 174.07 981.85 93.5 1073.99 78.91 1344.3 87.65 1775.52 118.13 2058.67 183.06 2246.46 312.76 2303.83 428 2298.58 455.75 2282.54 525.34 2283.89 558.39 2287.19 592.52 2286.13 658.57 2294.1 686.12 2273.75 697.25 2142.32 755.18 2001.23 826.56 1779.77 860.88 1550.34 902.02 1121.59 984.73 859.97 962.96 786.29 868.86 630.4 601.9 637.81 340.59 791.66 174.07"/><polygon class="cls-6" points="650.18 135.42 850.75 58.3 948.67 51.01 1229.52 55.38 1726.3 70.61 2052.11 136.56 2264.87 286.79 2323.8 423.94 2314.18 456.97 2289.61 537.06 2290.29 571.19 2293.35 606.43 2295.59 674.82 2307.16 702.83 2283.14 711.12 2137.58 755.77 1978.19 843.37 1725.16 883.96 1463.13 932.99 1009.35 1041.31 731.21 1017.03 651.31 912.15 459.06 625.17 462.77 322.47 650.18 135.42"/><polygon class="cls-7" points="2343.78 419.87 2296.68 548.78 2296.68 583.99 2305.05 691.08 2320.23 719.54 2132.84 756.37 1955.16 860.17 1670.56 907.04 1375.91 963.96 897.11 1097.89 602.46 1071.11 287.73 648.45 287.73 304.36 508.71 96.77 719.65 23.1 1114.74 23.1 1677.08 23.1 2045.56 90.07 2283.29 260.83 2343.78 419.87"/><polygon class="cls-6" points="650.18 135.42 850.75 58.3 948.67 51.01 1229.52 55.38 1726.3 70.61 2052.11 136.56 2264.87 286.79 2323.8 423.94 2314.18 456.97 2289.61 537.06 2290.29 571.19 2293.35 606.43 2295.59 674.82 2307.16 702.83 2283.14 711.12 2137.58 755.77 1978.19 843.37 1725.16 883.96 1463.13 932.99 1009.35 1041.31 731.21 1017.03 651.31 912.15 459.06 625.17 462.77 322.47 650.18 135.42"/><polygon class="cls-5" points="791.66 174.07 981.85 93.5 1073.99 78.91 1344.3 87.65 1775.52 118.13 2058.67 183.06 2246.46 312.76 2303.83 428 2298.58 455.75 2282.54 525.34 2283.89 558.39 2287.19 592.52 2286.13 658.57 2294.1 686.12 2273.75 697.25 2142.32 755.18 2001.23 826.56 1779.77 860.88 1550.34 902.02 1121.59 984.73 859.97 962.96 786.29 868.86 630.4 601.9 637.81 340.59 791.66 174.07"/><polygon class="cls-4" points="933.13 212.72 1112.95 128.71 1199.31 106.81 1459.08 119.93 1824.74 165.64 2065.23 229.56 2228.05 338.72 2283.85 432.07 2282.98 454.54 2275.47 513.62 2277.5 545.59 2281.02 578.61 2276.68 642.31 2281.03 669.41 2264.36 683.39 2147.06 754.58 2024.27 809.76 1834.38 837.8 1637.56 871.05 1233.83 928.14 988.72 908.88 921.27 825.57 801.74 578.63 812.85 358.7 933.13 212.72"/><polygon class="cls-3" points="1074.61 251.37 1244.06 163.91 1324.63 134.71 1573.86 152.2 1873.95 213.15 2071.78 276.05 2209.64 364.69 2263.88 436.14 2267.37 453.32 2268.4 501.9 2271.11 532.79 2274.86 564.7 2267.22 626.05 2267.97 652.7 2254.97 669.53 2151.8 753.99 2047.31 792.96 1888.99 814.72 1724.78 840.08 1346.07 871.56 1117.47 854.8 1056.24 782.28 973.08 555.35 987.89 376.82 1074.61 251.37"/><polygon class="cls-2" points="1216.08 290.02 1375.16 199.11 1449.94 162.61 1688.64 184.47 1923.17 260.66 2078.34 322.55 2191.23 390.65 2243.9 440.2 2251.77 452.11 2261.34 490.18 2264.72 519.99 2268.69 550.79 2257.76 609.79 2254.91 635.99 2245.58 655.66 2156.54 753.39 2070.35 776.16 1943.6 791.64 1812 809.11 1458.31 814.98 1246.22 800.73 1191.22 738.99 1144.41 532.08 1162.93 394.93 1216.08 290.02"/><polygon class="cls-1" points="2254.27 478.46 2236.17 450.89 1803.42 216.75 1575.26 190.52 1357.55 328.68 1315.75 508.81 1326.2 695.7 1374.97 746.65 1899.21 778.13 2161.28 752.8 2236.19 641.8 2262.53 536.88 2254.27 478.46"/><path class="cls-8" d="M2334.35,683l-14.28-134.2,35.65-105.44L2239.09,175.78,1589.86,0H795.32L406.25,53.91,200.81,601l652.32,426.34s408.6,29.68,422.67,27.34,494.49-143.22,494.49-143.22L2334.35,683"/><path class="cls-9" d="M2326.27,682.46l-12.87-121L2342.3,466l-27.89-68.21-65.29-174-48-11.56-590-120.19s-677.61,4.89-693,9.68C912.8,103.4,583.27,150,578.64,151.39c-8.06,2.48-124.4,298.05-125,298.11l-68,166.83,85.63,61.72L912.65,997.94s175.57,17.81,278.06,24.58c62,4.09,135,4.75,139.47,4,11.72-2,492.07-128.07,492.07-128.07l504-216"/><path class="cls-10" d="M2318.2,682l-11.47-107.87,22.15-85.46-23-61.27-46.71-155.51-47.29-9.91-579.55-77.81s-560.68,9.78-591.38,19.35C1030.28,206.79,760.29,246,751,248.88c-16.11,5-116.42,243.59-117.62,243.71L570.56,631.65l63.25,52.84,338.36,284s192.48,24.09,274.47,29.5c49.59,3.28,134.39.94,137.93.35,9.37-1.57,489.65-112.91,489.65-112.91L2318.2,682"/><path class="cls-11" d="M2310.13,681.43l-10.07-94.7,15.4-75.47-18.16-54.33-28.12-137.06-46.53-8.26-569.12-35.43s-443.74,14.67-489.8,29c-16,5-226.42,36.88-240.33,41.16C899.24,353.81,815,535.5,813.16,535.67L755.44,647l40.86,44,235.39,248.18s209.38,30.37,270.88,34.44c37.19,2.45,133.73-2.89,136.38-3.33,7-1.18,487.23-97.76,487.23-97.76l384-191"/><path class="cls-12" d="M2302.05,680.91l-8.67-81.53L2302,533.9l-13.29-47.39L2279.2,367.9l-45.76-6.61-558.68,6.94S1347.94,387.8,1286.54,407c-21.3,6.64-172.21,31.2-190.76,36.91-32.21,9.91-100.47,134.67-102.87,134.9l-52.59,83.51,18.48,35.09L1091.21,909.7s226.29,36.65,267.29,39.36c24.79,1.64,133.07-6.71,134.84-7,4.68-.78,484.81-82.6,484.81-82.6l323.9-178.54"/><path class="cls-13" d="M2294,680.39,2286.71,612l1.91-55.49-8.43-40.45,9-100.16-45-5L1696,460.29s-209.89,24.45-286.64,48.39c-26.62,8.31-118,25.53-141.18,32.67-40.27,12.39-92.5,80.21-95.49,80.49l-47.48,55.74-3.89,26.22,29.42,176.48s243.21,42.94,263.71,44.29c12.39.82,132.41-10.53,133.29-10.68,2.35-.39,482.4-67.45,482.4-67.45L2294,680.39"/><path class="cls-14" d="M2285.91,679.88,2082.08,833.44l-611.72,66.65-260.12-49.22,73.55-140.63,68.64-45.31c11.61-1.1,364.78-112.58,364.78-112.58l537.8-91.7,44.25,3.31-27.62,81.71Z"/><path class="cls-8" d="M471.88,361.72V562.51l181.25,193L825,880.48l331.25-68.75-457,535.94-459.38-25S97.66,1061.73,97.66,1053.92,158.6,752.35,158.6,752.35Z"/><path class="cls-15" d="M614.33,823.71,792.85,937.77,1141.68,862,683,1367.2l-459.38-25S81.38,1081.26,81.38,1073.45s60.94-301.57,60.94-301.57l292.58-356,8.86,207.42Z"/><path class="cls-16" d="M575.53,891.94,760.69,995.06l366.41-82.81L666.67,1386.73l-459.38-25S65.1,1100.79,65.1,1093,126,791.42,126,791.42L397.92,470.06l17.71,214.06Z"/><path class="cls-17" d="M536.73,960.17l191.79,92.19,384-89.85L650.4,1406.27l-459.38-25S48.83,1120.33,48.83,1112.51,109.77,811,109.77,811L360.94,524.22,387.5,744.93Z"/><path class="cls-18" d="M497.92,1028.4l198.44,81.25,401.57-96.88-463.81,413-459.38-25S32.55,1139.86,32.55,1132,93.49,830.48,93.49,830.48L324,578.39l35.42,227.35Z"/><path class="cls-19" d="M459.12,1096.63l205.08,70.31L1083.35,1063l-465.5,382.3-459.38-25S16.28,1159.39,16.28,1151.58,77.21,850,77.21,850L287,632.56l44.27,234Z"/><path d="M250,686.73l53.13,240.62,117.19,237.51L632,1224.23l436.72-110.94L601.57,1464.86l-459.38-25S0,1178.92,0,1171.11,60.94,869.54,60.94,869.54Z"/><path class="cls-13" d="M2285.91,679.88,2082.08,833.44l-611.72,66.65-260.12-49.22,73.55-140.63,68.64-45.31c11.61-1.1,364.78-112.58,364.78-112.58l537.8-91.7,44.25,3.31-27.62,81.71Z"/><path class="cls-20" d="M2288.93,643.86l-21,21.94L2208.14,721l-83.92,87.38-555.7,61.93-75.06-12.14L1332,832.1l67.74-132.61,63.77-41.42c3.44-.32,52.19-17.44,101.66-32.74,89.49-27.67,229.73-82.35,229.73-82.35l461.69-80.05,38,2.46-20.89,67.53Z"/><path class="cls-21" d="M2292,607.83l-8,18.23-53.34,60.48-64.27,96.74L1666.68,840.5l-67.57-8.66-145.34-18.5,61.93-124.61,58.91-37.51c2.75-.26,52.85-20.12,92.42-32.36,71.59-22.14,205.58-85.26,205.58-85.26l385.58-68.39,31.7,1.62-14.14,53.33Z"/><path class="cls-22" d="M2295,571.81l5.09,14.5-46.91,65.79-44.64,106.11-443.66,52.5-60.09-5.19-129.22-10.94L1631.65,678l54-33.62c2.06-.19,53.5-22.79,83.18-32,53.7-16.61,181.44-88.17,181.44-88.17l309.46-56.72,25.43.77-7.41,39.13Z"/><path class="cls-23" d="M2298,535.79l18.14,10.77-40.48,71.1-25,115.47L1863,780.92l-52.6-1.72-113.1-3.38,50.3-108.6,49.18-29.71c1.37-.13,54.16-25.47,73.94-31.59,35.8-11.07,157.29-91.07,157.29-91.07l233.35-45.07,19.15-.08-.66,24.95Z"/><path class="cls-24" d="M2301,499.77l31.19,7-34.05,76.41-5.37,124.84-331.62,43.07-45.12,1.76-97,4.16,44.48-100.58,44.32-25.82c.68-.07,54.81-28.14,64.71-31.2,17.89-5.54,133.13-94,133.13-94L2263,472.06l12.87-.92,6.09,10.75Z"/><polygon class="cls-25" points="2348.29 467.06 2304.04 463.75 2183.42 496.1 2074.44 592.98 1979.52 645.71 1940.84 738.29 2021.7 726.57 2334.93 682.98 2320.66 548.78 2348.29 467.06"/><polygon class="cls-26" points="2348.29 467.06 2307.62 463.75 2196.78 496.1 2096.62 592.98 2009.39 645.71 1973.85 734.09 2049.43 722.82 2336.01 682.98 2322.9 548.78 2348.29 467.06"/><polygon class="cls-27" points="2348.29 467.06 2311.2 463.75 2210.13 496.1 2118.8 592.98 2039.26 645.71 2006.85 729.89 2077.16 719.08 2337.09 682.98 2325.14 548.78 2348.29 467.06"/><polygon class="cls-28" points="2348.29 467.06 2314.79 463.75 2223.49 496.1 2140.98 592.98 2069.13 645.71 2039.85 725.68 2104.88 715.33 2338.18 682.98 2327.37 548.78 2348.29 467.06"/><polygon class="cls-29" points="2348.29 467.06 2318.37 463.75 2236.84 496.1 2163.17 592.98 2099 645.71 2072.86 721.48 2132.61 711.58 2339.26 682.98 2329.61 548.78 2348.29 467.06"/><polygon class="cls-30" points="2348.29 467.06 2321.96 463.75 2250.19 496.1 2185.35 592.98 2128.87 645.71 2105.86 717.28 2160.34 707.83 2340.34 682.98 2331.85 548.78 2348.29 467.06"/><polygon class="cls-31" points="2348.29 467.06 2325.54 463.75 2263.55 496.1 2207.53 592.98 2158.74 645.71 2138.86 713.08 2188.06 704.08 2341.42 682.98 2334.09 548.78 2348.29 467.06"/><polygon class="cls-32" points="2348.29 467.06 2328.35 463.75 2274.02 496.1 2224.93 592.98 2182.17 645.71 2164.75 709.87 2208.1 701.86 2342.27 682.98 2335.84 548.78 2348.29 467.06"/><polygon class="cls-33" points="2348.29 467.06 2331.17 463.75 2284.5 496.1 2242.33 592.98 2205.61 645.71 2190.65 706.66 2228.14 699.64 2343.12 682.98 2337.6 548.78 2348.29 467.06"/><polygon class="cls-34" points="2348.29 467.06 2333.98 463.75 2294.98 496.1 2259.74 592.98 2229.04 645.71 2216.54 703.46 2248.17 697.42 2343.97 682.98 2339.35 548.78 2348.29 467.06"/><polygon class="cls-35" points="2348.29 467.06 2336.79 463.75 2305.45 496.1 2277.14 592.98 2252.48 645.71 2242.43 700.25 2268.21 695.21 2344.82 682.98 2341.11 548.78 2348.29 467.06"/><polygon class="cls-36" points="2348.29 467.06 2339.6 463.75 2315.93 496.1 2294.54 592.98 2275.91 645.71 2268.32 697.04 2288.25 692.99 2345.67 682.98 2342.86 548.78 2348.29 467.06"/><polygon class="cls-37" points="2348.29 467.06 2342.41 463.75 2326.41 496.1 2311.94 592.98 2299.35 645.71 2294.21 693.84 2308.28 690.77 2346.51 682.98 2344.62 548.78 2348.29 467.06"/></g></g></g></svg>