<svg xmlns="http://www.w3.org/2000/svg" xmlns:xlink="http://www.w3.org/1999/xlink" viewBox="0 0 492.86 459.03"><defs><style>.cls-1,.cls-8,.cls-9{fill:none;}.cls-2{isolation:isolate;}.cls-3{fill:#261409;}.cls-4{fill:#351e0c;}.cls-5{fill:#542d13;}.cls-6{opacity:0.35;}.cls-7{fill:#140904;}.cls-8,.cls-9{stroke:#140904;stroke-miterlimit:10;}.cls-8{stroke-width:2.85px;}.cls-9{stroke-width:2.31px;}.cls-10{opacity:0.7;}.cls-11{opacity:0.31;mix-blend-mode:screen;}.cls-12{clip-path:url(#clip-path);}.cls-13{fill:#512b12;}.cls-14{fill:#4d2911;}.cls-15{fill:#4a2711;}.cls-16{fill:#472610;}.cls-17{fill:#44240f;}.cls-18{fill:#41220f;}.cls-19{fill:#3e210e;}.cls-20{fill:#3c1f0d;}.cls-21{fill:#391e0d;}.cls-22{fill:#361c0c;}.cls-23{fill:#341b0b;}.cls-24{fill:#311a0b;}.cls-25{fill:#2f180a;}.cls-26{fill:#2d170a;}.cls-27{fill:#2b1609;}.cls-28{fill:#291509;}.cls-29{fill:#271408;}.cls-30{fill:#251308;}.cls-31{fill:#231208;}.cls-32{fill:#221107;}.cls-33{fill:#201007;}.cls-34{fill:#1f0f07;}.cls-35{fill:#1d0e06;}.cls-36{fill:#1c0e06;}.cls-37{fill:#1b0d06;}.cls-38{fill:#1a0c05;}.cls-39{fill:#190c05;}.cls-40{fill:#180b05;}.cls-41{fill:#26160b;}.cls-42{clip-path:url(#clip-path-2);}</style><clipPath id="clip-path" transform="translate(0 -0.25)"><path class="cls-1" d="M245.18.62,236.47.25S0,70.13,1.66,459.28H491.2C492.86,70.13,245.18.62,245.18.62Z"/></clipPath><clipPath id="clip-path-2" transform="translate(0 -0.25)"><path class="cls-1" d="M168.86,459.28H305.4V273.71a89.22,89.22,0,0,0-12.91-46.46h0A47,47,0,0,0,278,212a75.19,75.19,0,0,0-81.71,0,47,47,0,0,0-14.51,15.24h0a89.22,89.22,0,0,0-12.91,46.46Z"/></clipPath></defs><title>Ocas</title><g class="cls-2"><g id="Layer_2" data-name="Layer 2"><g id="oca_default" data-name="oca default"><g id="Layer_8" data-name="Layer 8"><path class="cls-3" d="M245.2.64c1.91.52,247.66,71,246,458.64H398.27C410.61,143.88,247.67,2.76,245.2.64Z" transform="translate(0 -0.25)"/><path class="cls-4" d="M245.2.64c2.47,2.12,165.41,143.24,153.07,458.64H20.11C11.4,111,235,5.41,235,5.41L245.18.62Z" transform="translate(0 -0.25)"/><path class="cls-5" d="M245.18.62,235,5.41S11.4,111,20.11,459.28H1.65C0,70.13,236.47.25,236.47.25Z" transform="translate(0 -0.25)"/></g><g id="Layer_9" data-name="Layer 9" class="cls-6"><path class="cls-7" d="M242.76,3.61c19.49,10.25,37.37,23.31,54.31,37.32a434.52,434.52,0,0,1,47.16,46.15,464.09,464.09,0,0,1,71.58,110.56c1.25,2.46,2.24,5,3.36,7.55l3.26,7.6c1.08,2.53,2.19,5.05,3.24,7.6l2.91,7.73,2.92,7.73c.95,2.59,2,5.14,2.81,7.78l5.12,15.71,1.28,3.93c.4,1.32.74,2.66,1.12,4l2.19,8,2.2,8,1.1,4,.92,4,3.66,16.12.92,4c.31,1.35.5,2.71.76,4.06l1.46,8.14a655.62,655.62,0,0,1,10,131.67,1.5,1.5,0,0,1-3-.07h0A652.89,652.89,0,0,0,452.83,324l-1.41-8.12c-.25-1.34-.43-2.71-.74-4.05l-.89-4-3.55-16.08-.9-4-1.07-4-2.14-7.95L440,267.79c-.37-1.33-.7-2.66-1.09-4l-1.25-3.93-5-15.69c-.78-2.63-1.82-5.18-2.75-7.76L427,228.72,424.14,221c-1-2.55-2.12-5.07-3.18-7.6l-3.21-7.59c-1.09-2.51-2.07-5.09-3.3-7.54a463.54,463.54,0,0,0-70.78-110.7,435.23,435.23,0,0,0-46.84-46.35C280,27.13,262.19,14,242.76,3.61Z" transform="translate(0 -0.25)"/><path class="cls-7" d="M480.09,455.18c.71-45.14-2.37-90.4-10.39-134.83a546.78,546.78,0,0,0-16-65.71c-3.42-10.75-7-21.44-11.19-31.92s-8.52-20.88-13.41-31C409.72,151,384,113.22,352.5,81.05Q340.7,69,327.82,58c-8.57-7.29-17.44-14.23-26.67-20.67a326,326,0,0,0-28.53-18c-4.91-2.73-9.89-5.34-14.95-7.76S247.45,6.9,242.27,5l-.05,0a1.5,1.5,0,0,1,1-2.82h0c5.43,2,10.56,4.35,15.68,6.82s10.12,5.14,15.07,7.93A330.8,330.8,0,0,1,302.67,35.2c9.25,6.55,18.15,13.58,26.74,21s16.83,15.16,24.7,23.31C385.65,112,411.24,150.1,430.43,191c4.85,10.22,9.22,20.66,13.27,31.21s7.67,21.27,11,32.06a548.15,548.15,0,0,1,15.7,65.91C478.22,364.74,481.05,410,480.09,455.18Z" transform="translate(0 -0.25)"/><path class="cls-7" d="M443.58,455.18A604.68,604.68,0,0,0,436.2,326.9c-.72-5.31-2-10.54-3-15.8l-1.6-7.88c-.54-2.63-1-5.26-1.73-7.85L426,279.76l-1-3.9c-.35-1.29-.75-2.57-1.13-3.86l-2.28-7.7c-2.86-10.34-6.57-20.41-10-30.55-1.89-5-3.9-10-5.84-15L404.27,215l-.73-1.87-.8-1.84L399.5,204c-4.17-9.88-9-19.45-13.77-29l-7.6-14.16c-.62-1.19-1.28-2.35-2-3.5l-2-3.47-4.06-6.93A516.09,516.09,0,0,0,333.7,93.94,501.78,501.78,0,0,0,291,46c-7.65-7.47-15.53-14.72-23.68-21.65-2.05-1.71-4.09-3.44-6.16-5.13s-4.16-3.36-6.28-5c-4.21-3.27-8.53-6.47-12.91-9.4l0,0a1.5,1.5,0,0,1,1.67-2.49h0c4.52,3.07,8.81,6.29,13.06,9.62,2.13,1.65,4.2,3.38,6.3,5.07s4.12,3.47,6.18,5.2q12.24,10.54,23.7,21.92a504.89,504.89,0,0,1,42.65,48.39,520.43,520.43,0,0,1,36.21,53.35l4,7,2,3.49c.68,1.16,1.35,2.33,2,3.52l7.54,14.26c4.72,9.65,9.52,19.28,13.64,29.21l3.21,7.39.79,1.85.73,1.88,1.45,3.77c1.91,5,3.9,10,5.76,15.05,3.4,10.19,7.06,20.3,9.86,30.68l2.25,7.74c.37,1.29.77,2.57,1.11,3.87l1,3.91,3.81,15.66c.69,2.59,1.17,5.24,1.69,7.87l1.56,7.91c1,5.27,2.2,10.51,2.89,15.84A605.14,605.14,0,0,1,443.58,455.18Z" transform="translate(0 -0.25)"/><path class="cls-7" d="M242.76,3.61c7.56,7.29,14.78,15,21.85,22.72s13.93,15.74,20.64,23.84q20.12,24.27,38.19,50.17a695.21,695.21,0,0,1,62.77,109.28c17.43,38.28,31,78.46,39,119.84a432.52,432.52,0,0,1,6.18,125.88,1.5,1.5,0,0,1-3-.3v0A430.33,430.33,0,0,0,423,329.88c-7.74-41.23-21-81.35-38.15-119.65a694.39,694.39,0,0,0-62-109.47Q304.94,74.82,285,50.4q-10-12.19-20.49-23.94C257.45,18.64,250.28,11,242.76,3.61Z" transform="translate(0 -0.25)"/><path class="cls-7" d="M242.76,4.85a128.84,128.84,0,0,1,10.05,11c1.62,1.88,3.11,3.86,4.67,5.79s3,4,4.47,5.95c5.85,8,11.23,16.38,16.3,24.9S288,69.77,292.47,78.61c2.14,4.48,4.33,8.94,6.39,13.45l3,6.81c1,2.27,2,4.53,2.95,6.83l2.83,6.89c.94,2.3,1.9,4.59,2.75,6.92,1.73,4.65,3.55,9.27,5.2,14l4.85,14.08,4.45,14.22q8.54,28.53,14.75,57.7A927.23,927.23,0,0,1,356.2,337.38c3.1,39.61,3.84,79.37,3,119.08a1.5,1.5,0,0,1-3-.06h0c1.09-39.62.6-79.31-2.24-118.85a925.17,925.17,0,0,0-15.77-117.78q-6-29.12-14.35-57.68l-4.36-14.22-4.75-14.08c-1.62-4.69-3.41-9.31-5.11-14-.83-2.33-1.78-4.62-2.7-6.92l-2.78-6.9c-.9-2.31-1.92-4.57-2.9-6.84l-3-6.82c-2-4.52-4.2-9-6.3-13.47-4.45-8.85-9-17.68-14.05-26.21s-10.32-16.93-16.12-25c-1.48-2-2.93-4-4.43-6s-3-3.93-4.63-5.82A127.16,127.16,0,0,0,242.76,4.85Z" transform="translate(0 -0.25)"/><path class="cls-7" d="M374.3,456.42c.53-40.39-.53-80.82-3.86-121.08a857.83,857.83,0,0,0-18-119.68,602.54,602.54,0,0,0-16.16-58.3,482.42,482.42,0,0,0-22.48-56.09l-3.3-6.79c-1.1-2.27-2.33-4.46-3.49-6.7l-3.55-6.67-3.77-6.53c-2.44-4.41-5.22-8.61-7.87-12.89-1.32-2.13-2.8-4.17-4.19-6.27s-2.8-4.17-4.32-6.18a231.53,231.53,0,0,0-19-23.33c-1.67-1.87-3.49-3.6-5.23-5.41-.88-.89-1.81-1.73-2.71-2.6s-1.8-1.74-2.75-2.55l-2.81-2.48-2.88-2.38a73.34,73.34,0,0,0-6-4.35l0,0a1.5,1.5,0,1,1,1.59-2.54h0c2.27,1.45,4.22,3,6.25,4.61l2.94,2.46,2.85,2.56c1,.83,1.86,1.74,2.79,2.61s1.85,1.75,2.74,2.67c1.75,1.84,3.59,3.61,5.27,5.51a235.92,235.92,0,0,1,19.1,23.72c1.51,2,2.91,4.16,4.32,6.27s2.86,4.19,4.18,6.35c2.64,4.33,5.41,8.58,7.85,13L305.59,80l3.52,6.73c1.16,2.26,2.39,4.47,3.48,6.76l3.27,6.86a485.21,485.21,0,0,1,22.24,56.47c6.37,19.21,11.41,38.82,15.83,58.55a859.15,859.15,0,0,1,17.26,119.95C374.27,375.59,375.08,416,374.3,456.42Z" transform="translate(0 -0.25)"/><path class="cls-7" d="M337.79,456.42a1116.92,1116.92,0,0,0-.3-117.17A911.71,911.71,0,0,0,323.77,223l-1.33-7.2c-.42-2.41-1-4.78-1.46-7.18-1-4.77-2-9.55-3-14.32L314.61,180c-.54-2.38-1.17-4.74-1.78-7.1L311,165.83c-5-18.87-10.74-37.54-17.35-55.89A561.75,561.75,0,0,0,271,56c-4.28-8.75-8.81-17.38-13.66-25.81-1.23-2.11-2.43-4.22-3.71-6.29l-1.9-3.11-2-3.08c-2.62-4.08-5.35-8.15-8.24-11.94l0,0a1.5,1.5,0,1,1,2.38-1.82h0c3,4,5.69,8.07,8.33,12.23l1.95,3.12,1.9,3.16c1.28,2.09,2.48,4.23,3.7,6.36,4.84,8.53,9.33,17.25,13.59,26.07a564.89,564.89,0,0,1,22.34,54.32c6.52,18.46,12.15,37.22,17,56.16l1.81,7.11c.6,2.37,1.22,4.74,1.74,7.13l3.26,14.31c1,4.78,2,9.58,2.94,14.37.47,2.4,1,4.79,1.42,7.2l1.28,7.22a912,912,0,0,1,13,116.52A1115,1115,0,0,1,337.79,456.42Z" transform="translate(0 -0.25)"/><path class="cls-7" d="M242.76,4.85c8.87,17.21,16.52,35,23.74,53s13.68,36.23,19.63,54.66,11.33,37,16.12,55.8S311.14,206,314.75,225l2.57,14.3c.82,4.77,1.52,9.57,2.29,14.35l1.11,7.18,1,7.2c.62,4.8,1.33,9.6,1.87,14.41,1.05,9.63,2.19,19.25,2.91,28.92l.61,7.24.3,3.62.21,3.63.85,14.51c.16,2.42.24,4.84.31,7.26l.23,7.27c.12,4.84.39,9.68.35,14.53l.06,14.54v3.64l-.09,3.63-.18,7.27c-.31,19.39-1.8,38.74-3.54,58.05a1.5,1.5,0,0,1-3-.27h0v0c1.86-19.23,3.47-38.49,3.91-57.81l.22-7.25.12-3.62V384l0-14.49c.08-4.84-.16-9.67-.25-14.5l-.19-7.24c-.05-2.42-.11-4.83-.26-7.24L325.44,326l-.19-3.62-.28-3.62-.56-7.22c-.65-9.65-1.73-19.26-2.71-28.87-.51-4.81-1.19-9.6-1.78-14.4L319,261.1l-1.07-7.17c-.74-4.78-1.41-9.57-2.19-14.34l-2.48-14.29q-5.2-28.53-12.12-56.73t-15.73-55.86Q276.67,85.05,266.15,58C259.06,40,251.52,22.12,242.76,4.85Z" transform="translate(0 -0.25)"/><path class="cls-7" d="M241.44,4.85a221.85,221.85,0,0,1,10.2,26.66c3,9,5.47,18.24,8,27.41L263,72.8c.55,2.32,1.16,4.62,1.66,7l1.47,7,2.92,14c.52,2.32.92,4.67,1.33,7l1.24,7,2.49,14.06c.45,2.34.79,4.7,1.13,7.06l1,7.06,2.06,14.14,1,7.07.83,7.09,3.31,28.38c.94,9.47,1.71,19,2.58,28.45l1.26,14.23.9,14.26L290,285.08l.22,3.57.13,3.57.26,7.13.52,14.28.52,14.28L292,335c.09,2.38.2,4.76.2,7.14l.35,28.57.17,14.29.09,7.14,0,3.57,0,3.57-.64,57.14a1.5,1.5,0,1,1-3,0h0v0l1-57.08.06-3.57v-3.56l0-7.14-.08-14.27-.16-28.54c0-2.38-.08-4.76-.15-7.13l-.21-7.14-.43-14.26-.43-14.27-.21-7.13-.11-3.57-.2-3.56-1.58-28.5-.8-14.25-1.17-14.22c-.8-9.48-1.51-19-2.38-28.44l-3.13-28.37-.78-7.1-1-7.06-2-14.14-1-7.07c-.32-2.36-.65-4.71-1.08-7.05l-2.39-14.07-1.2-7c-.4-2.34-.78-4.69-1.28-7l-2.83-14-1.42-7c-.49-2.33-1.08-4.63-1.62-7L259.28,59c-2.47-9.19-4.87-18.4-7.82-27.45A221.33,221.33,0,0,0,241.44,4.85Z" transform="translate(0 -0.25)"/><path class="cls-7" d="M307.21,456.42l.13-57.64v-7.2c0-2.4-.11-4.8-.16-7.21l-.35-14.4-.72-28.81c-.11-9.61-.78-19.19-1.26-28.79l-1.55-28.77c-.19-4.8-.65-9.58-1.05-14.36L301,254.88l-1.22-14.35c-.43-4.78-.74-9.57-1.38-14.34l-3.39-28.6-.84-7.15c-.27-2.38-.71-4.75-1-7.12L291,169.09l-2.2-14.23c-.33-2.37-.82-4.72-1.28-7.08l-1.37-7.06-2.75-14.13c-.47-2.35-.88-4.72-1.41-7.06l-1.66-7-3.33-14-.84-3.5c-.26-1.17-.55-2.33-.9-3.48l-2-6.91L269.3,70.82c-1.47-4.55-3.05-9.08-4.56-13.62-.79-2.26-1.49-4.55-2.34-6.79l-2.64-6.67-2.63-6.67c-.9-2.22-2-4.36-2.94-6.54s-2-4.35-3-6.5l-3.34-6.31c-1.06-2.14-2.38-4.11-3.59-6.14l-.93-1.52-1-1.44c-.67-1-1.34-1.95-2-2.79l0,0a1.5,1.5,0,1,1,2.31-1.92h0c.84,1,1.5,2,2.21,3l1,1.52.94,1.57c1.23,2.09,2.57,4.14,3.63,6.32l3.36,6.44c1,2.19,2,4.4,3,6.6s2,4.39,2.93,6.63l2.61,6.75,2.62,6.75c.84,2.25,1.53,4.56,2.31,6.85,1.5,4.58,3,9.14,4.5,13.73L275.59,84l1.94,7c.34,1.15.62,2.32.88,3.5l.81,3.51L282.47,112l1.62,7c.52,2.35.91,4.73,1.37,7.09l2.67,14.18,1.33,7.09c.44,2.36.91,4.72,1.23,7.11l2.11,14.27,2.12,14.26c.33,2.38.76,4.75,1,7.14l.8,7.17L299.94,226c.6,4.77.89,9.57,1.28,14.36l1.13,14.38,1.12,14.37c.37,4.79.8,9.58,1,14.38l1.36,28.8c.42,9.6,1,19.19,1.08,28.81L307.4,370l.26,14.41c0,2.4.11,4.8.11,7.2l-.06,7.21Z" transform="translate(0 -0.25)"/><path class="cls-7" d="M270.7,456.42l2.16-56.72.48-28.38.24-14.19c.07-4.73.2-9.46.13-14.19l-.14-28.38-.07-14.18-.37-14.19-.76-28.36c0-2.37-.16-4.73-.28-7.09l-.35-7.09-.7-14.17c-2-37.77-4.92-75.51-9.77-113-1.22-9.37-2.61-18.72-3.91-28.09l-2.3-14-1.15-7c-.37-2.34-.86-4.65-1.28-7L250,46.52l-3-13.86c-2.14-9.17-4.26-18.42-7-27.35v0a1.5,1.5,0,0,1,2.86-.89h0c2.79,9.18,4.82,18.41,6.93,27.67L252.66,46l2.55,14c.41,2.33.88,4.66,1.24,7l1.11,7,2.21,14c1.24,9.39,2.57,18.77,3.73,28.17,4.62,37.6,7.3,75.41,9,113.22l.6,14.19.31,7.09c.1,2.36.2,4.73.23,7.09l.58,28.39.27,14.19,0,14.2,0,28.39c0,4.73-.13,9.46-.23,14.19l-.33,14.19-.66,28.38Z" transform="translate(0 -0.25)"/><path class="cls-7" d="M241.44,4.85c7.19,37.09,12.13,74.59,16,112.16,2,18.78,3.5,37.62,4.88,56.46l1.75,28.28c.48,9.44.81,18.88,1.21,28.32l.3,7.08c.1,2.36.19,4.72.22,7.08l.27,14.17.27,14.17.13,7.08c0,2.36,0,4.73,0,7.09l-.12,28.34,0,7.09-.21,7.08-.42,14.17-.42,14.17-.22,7.08c-.09,2.37-.25,4.72-.38,7.08l-1.61,28.31-.4,7.07-.21,3.54-.31,3.53-1.21,14.13-2.44,28.25a1.49,1.49,0,0,1-1.62,1.37,1.51,1.51,0,0,1-1.37-1.63h0v0l2.61-28.18L259.44,414l.33-3.53.23-3.53.45-7.06,1.8-28.25c.14-2.36.32-4.71.43-7.06l.25-7.08.52-14.14L264,329.2l.26-7.07.08-7.08.32-28.31c0-2.36.07-4.72.06-7.08l-.09-7.08-.18-14.15-.18-14.16c0-2.36-.08-4.72-.17-7.08l-.24-7.07c-.35-9.43-.62-18.87-1-28.3l-1.56-28.28c-1.26-18.83-2.64-37.67-4.51-56.46C253.07,79.5,248.39,42,241.44,4.85Z" transform="translate(0 -0.25)"/><path class="cls-7" d="M234.05,4.2c-18.41,11.39-35.12,25.31-50.93,40A459.5,459.5,0,0,0,139.27,92a475.13,475.13,0,0,0-36.78,53.34l-4.16,7-3.89,7.11-3.89,7.1c-.64,1.2-1.33,2.36-1.92,3.57l-1.8,3.63c-2.39,4.85-4.84,9.66-7.17,14.53L73.05,203c-.55,1.24-1.12,2.46-1.64,3.71l-1.5,3.76-3,7.53-3,7.53c-1,2.52-1.8,5.09-2.71,7.63-1.76,5.1-3.61,10.18-5.31,15.3l-4.69,15.51L50,267.81l-.58,1.94-.51,2-2,7.85-2,7.85c-.65,2.62-1.41,5.21-1.91,7.86L39.7,311.12l-.83,4-.42,2-.34,2-1.32,8A661.55,661.55,0,0,0,28.14,456.1a1.5,1.5,0,1,1-3,.09h0a663.3,663.3,0,0,1,9.44-129.51l1.37-8,.35-2,.43-2,.86-4L41,294.81c.52-2.66,1.29-5.26,2-7.89L45,279.06l2.06-7.86.52-2,.59-1.94,1.2-3.88,4.8-15.53c1.73-5.13,3.61-10.22,5.41-15.33.93-2.54,1.79-5.11,2.77-7.64l3-7.53,3-7.53L70,206.08c.52-1.24,1.11-2.47,1.66-3.7l6.72-14.8c2.36-4.87,4.85-9.68,7.27-14.53l1.83-3.62c.6-1.22,1.3-2.38,1.94-3.57l3.94-7.11,3.95-7.1,4.21-6.94a477.71,477.71,0,0,1,37.15-53.23A459.84,459.84,0,0,1,182.86,44C198.77,29.31,215.57,15.48,234.05,4.2Z" transform="translate(0 -0.25)"/><path class="cls-7" d="M13,456.14c-1.42-11-2.1-22.13-2.49-33.24s-.36-22.24,0-33.35a543.23,543.23,0,0,1,6.17-66.39A514.63,514.63,0,0,1,31.08,258q4.7-16,10.52-31.67c3.88-10.43,8.09-20.75,12.77-30.85S64,175.44,69.43,165.71s11.21-19.25,17.37-28.53,12.72-18.3,19.63-27c1.71-2.21,3.52-4.33,5.27-6.49l2.65-3.23c.89-1.07,1.82-2.11,2.73-3.17l5.48-6.3,5.67-6.15c1.86-2.07,3.81-4.06,5.77-6s3.87-4,5.86-6c4-3.86,8-7.79,12.16-11.48,8.18-7.57,16.82-14.64,25.57-21.54A469.44,469.44,0,0,1,233.32,2.89,1.5,1.5,0,1,1,234.8,5.5h0a466.06,466.06,0,0,0-55.59,36.35c-8.73,6.81-17.36,13.78-25.54,21.26-4.17,3.65-8.12,7.54-12.14,11.35-2,1.92-3.91,3.93-5.87,5.89s-3.91,3.93-5.77,6l-5.67,6.08-5.49,6.24c-.91,1-1.84,2.07-2.73,3.13l-2.66,3.2c-1.75,2.15-3.57,4.25-5.27,6.43-6.93,8.66-13.45,17.64-19.69,26.8s-12,18.67-17.46,28.31S60.44,186.1,55.73,196.15s-9,20.3-12.9,30.68-7.49,20.9-10.68,31.53a514.65,514.65,0,0,0-14.79,64.92,543.43,543.43,0,0,0-6.54,66.28q-.62,16.67-.17,33.33C11,434,11.6,445.11,13,456.14Z" transform="translate(0 -0.25)"/><path class="cls-7" d="M237.67,4.57c-16.84,13-32,28-46.57,43.44a550.3,550.3,0,0,0-40.36,49.28,569.64,569.64,0,0,0-34.47,53.54l-3.88,7c-1.28,2.32-2.63,4.61-3.81,7l-7.28,14.16c-4.56,9.59-9.22,19.13-13.26,28.95L84.9,215.2c-.54,1.22-1,2.45-1.5,3.69L82,222.61c-1.9,4.95-3.85,9.88-5.71,14.86-3.41,10.05-7.06,20-10,30.23L64,275.32l-1.14,3.81-1,3.85-4,15.41c-.33,1.29-.69,2.56-1,3.86l-.84,3.89-1.68,7.77-1.68,7.78c-.28,1.3-.58,2.59-.83,3.89l-.68,3.92A650.12,650.12,0,0,0,40.59,456.12h0a1.5,1.5,0,1,1-3,0h0A652.56,652.56,0,0,1,49,329.08l.71-3.93c.25-1.31.57-2.6.85-3.9l1.73-7.8L54,305.66l.86-3.9c.3-1.3.67-2.57,1-3.86L60,282.46l1-3.86,1.17-3.82,2.35-7.63c3-10.23,6.68-20.21,10.16-30.26,1.89-5,3.88-9.92,5.81-14.87L82,218.3c.48-1.24,1-2.48,1.52-3.69l3.19-7.32c4.11-9.81,8.84-19.35,13.46-28.94l7.39-14.14c1.19-2.38,2.56-4.67,3.85-7l3.93-6.95a572.86,572.86,0,0,1,34.84-53.42,552.14,552.14,0,0,1,40.69-49.1C205.45,32.34,220.76,17.47,237.67,4.57Z" transform="translate(0 -0.25)"/><path class="cls-7" d="M242.76,4.57c-15.6,14-29.67,29.58-43.1,45.62a608.32,608.32,0,0,0-37.42,50.39,623.43,623.43,0,0,0-58.72,110.71l-2.94,7.28c-1,2.42-2,4.84-2.84,7.31l-5.4,14.72c-.94,2.45-1.67,5-2.51,7.43l-2.44,7.46L85,262.94l-2.19,7.53c-1.43,5-2.93,10-4.32,15.07l-3.8,15.22-1,3.8c-.32,1.27-.64,2.53-.89,3.82l-1.61,7.67-1.62,7.67-.8,3.84c-.28,1.27-.55,2.55-.75,3.84A661.38,661.38,0,0,0,57.14,456.13h0a1.5,1.5,0,0,1-3,0h0A664.42,664.42,0,0,1,65.81,331c.21-1.29.49-2.58.77-3.86l.83-3.84,1.67-7.69,1.67-7.69c.26-1.28.58-2.55.91-3.82l1-3.81L76.54,285c1.42-5,3-10.06,4.43-15.1l2.23-7.54,2.5-7.46,2.49-7.46c.85-2.47,1.61-5,2.56-7.43l5.5-14.73c.88-2.47,1.88-4.89,2.89-7.32l3-7.27a624.54,624.54,0,0,1,59.49-110.56A608.25,608.25,0,0,1,199.37,50C212.91,34,227.08,18.46,242.76,4.57Z" transform="translate(0 -0.25)"/><path class="cls-7" d="M66.47,456.14,67,440.73l.28-7.71c.12-2.57.36-5.13.54-7.69L69,410c.47-5.12,1.13-10.22,1.69-15.34l.87-7.66c.13-1.28.31-2.55.51-3.82l.58-3.82L75,364.06c.83-5.08,1.85-10.12,2.77-15.18l1.42-7.58c.48-2.53,1.09-5,1.63-7.54l3.34-15.07,3.81-15c.64-2.48,1.24-5,1.93-7.47L92,288.85l2.14-7.41c.72-2.47,1.39-5,2.2-7.4l4.71-14.7c.76-2.46,1.61-4.88,2.48-7.31l2.56-7.28,2.55-7.28c.88-2.42,1.83-4.81,2.74-7.22,1.85-4.8,3.62-9.63,5.55-14.4A843.12,843.12,0,0,1,171.22,105q15.59-26.67,33.1-52.15c5.81-8.51,11.86-16.84,18-25.09s12.53-16.35,19.29-24.22a1.5,1.5,0,1,1,2.27,2h0l0,0c-6.68,7.69-13.07,15.77-19.29,23.91s-12.27,16.45-18.11,24.9q-17.62,25.24-33.32,51.79a841.26,841.26,0,0,0-54.84,110.24c-1.95,4.75-3.75,9.56-5.63,14.34-.92,2.4-1.88,4.78-2.77,7.19l-2.6,7.25-2.6,7.26c-.87,2.41-1.74,4.83-2.51,7.28l-4.79,14.65c-.83,2.43-1.51,4.9-2.25,7.37L93,289.14l-2.18,7.39c-.7,2.47-1.32,5-2,7.44l-3.89,14.92-3.43,15c-.55,2.51-1.17,5-1.67,7.53L78.38,349c-.95,5.05-2,10.09-2.87,15.15l-2.39,15.23-.6,3.81c-.2,1.27-.4,2.54-.53,3.81l-.92,7.66c-.59,5.1-1.28,10.2-1.78,15.31L68,425.34c-.2,2.56-.46,5.12-.59,7.69l-.33,7.7Z" transform="translate(0 -0.25)"/><path class="cls-7" d="M242.76,4.57c-9.68,17.49-18.87,35.25-27.84,53.12s-17.6,35.9-26,54.06C172.27,148.08,156.75,185,143,222.5c-6.84,18.77-13.22,37.71-18.94,56.85q-4.32,14.34-8,28.85t-6.81,29.15a428.66,428.66,0,0,0-8.44,59.16c-1.3,19.84-.85,39.92,3.22,59.32h0a1.5,1.5,0,0,1-2.94.62h0c-4-19.82-4.33-40.12-2.9-60.12A432.94,432.94,0,0,1,107,336.88q3.13-14.69,7-29.2t8.25-28.88c5.85-19.14,12.36-38.07,19.33-56.82,14-37.51,29.71-74.31,46.64-110.54Q201,84.26,214.59,57.52C223.66,39.71,233,22,242.76,4.57Z" transform="translate(0 -0.25)"/><path class="cls-7" d="M83.89,453.65c-.92-10-1.31-20.12-1.26-30.21,0-2.52,0-5,.11-7.56l.29-7.56c.3-5,.58-10.07,1.07-15.09a476.92,476.92,0,0,1,9.37-59.74c8.66-39.43,21.31-77.89,36.17-115.4A1165,1165,0,0,1,180.4,108.24q14-26.82,29.29-53c10.18-17.43,20.66-34.67,31.83-51.53A1.5,1.5,0,1,1,244,5.38h0l0,0C232.8,22.1,222.21,39.27,212,56.59s-20.1,34.91-29.56,52.7A1162.86,1162.86,0,0,0,131,218.65C116,256,103.09,294.33,94.2,333.65a478.76,478.76,0,0,0-9.73,59.62c-.52,5-.83,10-1.16,15.07L83,415.89c-.12,2.52-.11,5-.16,7.55C82.71,433.52,83,443.61,83.89,453.65Z" transform="translate(0 -0.25)"/><path class="cls-7" d="M242.33,4.2c18.8,11.09,36,24.73,52.3,39.16a467.21,467.21,0,0,1,45.42,47.05,478.65,478.65,0,0,1,38.48,52.91l4.35,6.93c.75,1.15,1.43,2.33,2.1,3.52l2,3.55,4.07,7.1,2,3.55c.69,1.18,1.28,2.41,1.92,3.61l7.58,14.52c2.36,4.92,4.65,9.88,7,14.82s4.39,10,6.53,15,4.3,10,6.1,15.2l5.67,15.37,5,15.6c.82,2.6,1.71,5.19,2.46,7.81l2.15,7.9c1.41,5.28,2.92,10.53,4.24,15.83l3.59,16c.58,2.67,1.23,5.32,1.76,8l1.43,8.07a643.91,643.91,0,0,1,10,130.48,1.5,1.5,0,1,1-3-.07h0a640.46,640.46,0,0,0-9.24-130L445,318.05c-.5-2.67-1.14-5.32-1.7-8l-3.48-15.94c-1.29-5.29-2.76-10.53-4.14-15.79l-2.09-7.89c-.74-2.62-1.61-5.2-2.41-7.8l-4.9-15.57-5.57-15.35c-1.76-5.16-3.93-10.15-6-15.19s-4.05-10.11-6.43-15-4.55-9.89-6.88-14.81L393.9,172.2c-.64-1.2-1.22-2.43-1.9-3.61L390,165l-4-7.11-2-3.55c-.66-1.19-1.34-2.38-2.07-3.52l-4.3-6.94a477.4,477.4,0,0,0-38.1-53,466,466,0,0,0-45.1-47.25C278.14,29.12,261.07,15.39,242.33,4.2Z" transform="translate(0 -0.25)"/><path class="cls-7" d="M470.77,456.14c1.1-11.1,1.46-22.27,1.53-33.42s-.27-22.31-.93-33.44a556.17,556.17,0,0,0-8-66.38A525.78,525.78,0,0,0,447.27,258c-3.37-10.62-7.15-21.11-11.25-31.47S427.49,206,422.62,196A424.84,424.84,0,0,0,347.11,86.43c-1.88-2.05-3.85-4-5.82-6s-3.91-4-5.92-5.88c-4.05-3.8-8-7.69-12.23-11.34-8.24-7.48-16.92-14.46-25.7-21.28A474.27,474.27,0,0,0,241.6,5.51h0a1.5,1.5,0,1,1,1.46-2.62h0a478.37,478.37,0,0,1,56,37c8.79,6.91,17.48,14,25.73,21.55C329,65.11,333,69,337,72.89c2,2,3.94,4,5.91,6s3.94,4,5.83,6A426.66,426.66,0,0,1,424,195.31c4.84,10.08,9.21,20.37,13.28,30.77S445,247,448.35,257.69a529.34,529.34,0,0,1,15.77,65.07,556.35,556.35,0,0,1,7.62,66.5q.9,16.71.75,33.46C472.35,433.88,471.93,445,470.77,456.14Z" transform="translate(0 -0.25)"/><path class="cls-7" d="M238.72,4.57c17.26,12.71,33,27.37,48,42.63a548.65,548.65,0,0,1,41.95,48.66A559.21,559.21,0,0,1,394.62,206c4.58,9.7,8.46,19.71,12.53,29.63l5.51,15.11c.89,2.53,1.89,5,2.69,7.58L417.8,266l2.44,7.66c.81,2.56,1.67,5.1,2.33,7.7l4.27,15.52,1.06,3.88c.35,1.29.62,2.61.93,3.91l1.81,7.84,1.81,7.84.9,3.92c.29,1.31.51,2.64.76,3.95a632.68,632.68,0,0,1,12,128,1.5,1.5,0,0,1-3,0h0a630.67,630.67,0,0,0-11.23-127.51c-.25-1.31-.46-2.63-.74-3.94l-.88-3.91-1.75-7.82-1.76-7.82c-.3-1.3-.57-2.61-.9-3.91l-1-3.87-4.16-15.48c-.65-2.6-1.49-5.14-2.28-7.69L416,266.52l-2.39-7.66c-.79-2.55-1.77-5-2.64-7.57l-5.41-15.1c-4-9.91-7.81-19.91-12.32-29.61A558.73,558.73,0,0,0,328.08,96.31a548.74,548.74,0,0,0-41.63-48.85C271.53,32.13,255.9,17.38,238.72,4.57Z" transform="translate(0 -0.25)"/><path class="cls-7" d="M233.63,4.57c8.06,6.81,15.67,14.13,23.08,21.63s14.56,15.27,21.51,23.21a603.14,603.14,0,0,1,39,49.81q18.22,25.89,33.8,53.52a624.49,624.49,0,0,1,28.13,56.74,612.35,612.35,0,0,1,38.11,120.65,641.39,641.39,0,0,1,12.29,126,1.5,1.5,0,0,1-3,0h0a638.26,638.26,0,0,0-11.5-125.56,610.2,610.2,0,0,0-37.28-120.5,621.67,621.67,0,0,0-27.73-56.78q-15.37-27.61-33.43-53.64a605,605,0,0,0-38.7-50q-10.35-12-21.36-23.32C249.21,18.79,241.64,11.42,233.63,4.57Z" transform="translate(0 -0.25)"/><path class="cls-7" d="M417.25,456.14l-.67-15.51-.33-7.76c-.16-2.58-.42-5.15-.62-7.73l-1.3-15.47c-.55-5.15-1.25-10.28-1.87-15.41l-.95-7.7c-.33-2.57-.81-5.11-1.2-7.67l-2.5-15.32c-.94-5.08-2-10.15-3-15.22l-1.52-7.61-1.78-7.55-3.59-15.1-4.08-15c-.7-2.49-1.3-5-2.09-7.47l-2.28-7.42-2.28-7.41-1.13-3.71c-.4-1.23-.83-2.45-1.24-3.68l-5-14.68c-.8-2.46-1.76-4.86-2.65-7.29l-2.71-7.27-2.72-7.26-2.91-7.19-2.91-7.19c-1-2.4-1.93-4.8-3-7.16l-6.19-14.22c-2.13-4.71-4.36-9.38-6.53-14.07s-4.49-9.31-6.77-13.95l-3.44-7-3.59-6.88q-14.31-27.51-30.64-53.92T271.18,53.94c-6.05-8.38-12.33-16.58-18.74-24.68s-13-16.07-19.91-23.67l0,0a1.5,1.5,0,1,1,2.22-2h0c7,7.78,13.5,15.81,19.92,24S267.29,44,273.31,52.4q18.15,25.26,34.37,51.83t30.39,54.23l3.55,6.92,3.41,7c2.25,4.66,4.59,9.29,6.7,14s4.35,9.41,6.45,14.14l6.12,14.29c1.05,2.37,2,4.78,2.95,7.19l2.88,7.22,2.87,7.22,2.68,7.29,2.67,7.3c.87,2.44,1.82,4.85,2.61,7.32l4.92,14.74c.4,1.23.83,2.45,1.22,3.68l1.11,3.73,2.24,7.44,2.23,7.44c.78,2.47,1.36,5,2.05,7.49l4,15L402.23,333l1.73,7.57,1.48,7.63c1,5.08,2,10.16,2.93,15.25l2.4,15.35c.38,2.56.85,5.11,1.15,7.68l.91,7.71c.59,5.14,1.26,10.28,1.78,15.43l1.21,15.48c.18,2.58.43,5.16.57,7.74l.29,7.76Z" transform="translate(0 -0.25)"/><path class="cls-7" d="M233.63,4.57c10.16,17.35,19.83,35,29.27,52.72S281.46,93,290.3,111c17.65,36.12,34.13,72.85,48.77,110.32,7.31,18.74,14.16,37.67,20.34,56.82,3.12,9.57,6,19.21,8.73,28.9s5.22,19.45,7.46,29.26A422.93,422.93,0,0,1,385.21,396c1.63,20.09,1.45,40.52-2.58,60.46a1.5,1.5,0,1,1-2.94-.6h0c4.08-19.51,4.4-39.7,2.91-59.63a420.06,420.06,0,0,0-9.19-59.37q-3.27-14.68-7.26-29.21t-8.52-28.88c-6.05-19.15-12.77-38.09-20-56.85-14.39-37.51-30.63-74.32-48.05-110.54q-13.06-27.16-27.05-53.88C253.24,39.67,243.68,22,233.63,4.57Z" transform="translate(0 -0.25)"/><path class="cls-7" d="M399.83,453.65a299.28,299.28,0,0,0,1-30.39c-.07-2.53,0-5.07-.2-7.6l-.36-7.6c-.38-5.05-.72-10.11-1.28-15.15A465.66,465.66,0,0,0,388.61,333c-9.42-39.45-23-77.8-38.74-115.14a1146.62,1146.62,0,0,0-53.56-109.11q-14.74-26.58-30.7-52.47C255,39.08,244,22,232.4,5.44v0a1.5,1.5,0,0,1,2.46-1.71h0c11.56,16.76,22.43,33.89,33,51.24s20.7,34.94,30.44,52.75a1152.74,1152.74,0,0,1,53,109.62c15.55,37.49,28.9,76,38.08,115.55a465.54,465.54,0,0,1,10,60c.53,5.05.84,10.12,1.19,15.18l.32,7.6c.13,2.53.1,5.07.15,7.61A302.24,302.24,0,0,1,399.83,453.65Z" transform="translate(0 -0.25)"/><path class="cls-7" d="M234.05,4.2c-.73,2.25-1.39,4.53-2,6.81l-1.85,6.86-1.66,6.91c-.57,2.3-1.12,4.6-1.6,6.92l-1.5,7c-.49,2.32-1,4.63-1.43,7l-2.65,14c-3.25,18.67-6.1,37.41-8.36,56.22s-4.17,37.66-5.88,56.53l-2.15,28.34c-.4,4.72-.64,9.45-.89,14.18L203.26,229c-1.21,18.91-1.64,37.85-2.36,56.78l-.25,7.1-.11,7.11-.23,14.21-.45,28.41.2,56.84,1.2,56.82v0a1.5,1.5,0,1,1-3,.07h0l-.82-56.88.17-56.88.64-28.44.32-14.21.16-7.11.29-7.1c.85-18.95,1.4-37.9,2.74-56.82l.88-14.19c.29-4.73.56-9.46,1-14.18L206,172.22c1.84-18.87,3.74-37.73,6.26-56.53S217.59,78.16,221,59.5l2.74-14c.44-2.33,1-4.64,1.48-6.95l1.55-6.94c.49-2.32,1.06-4.62,1.64-6.91l1.71-6.9L232,11C232.63,8.72,233.3,6.45,234.05,4.2Z" transform="translate(0 -0.25)"/><path class="cls-7" d="M237.67,4.57c-3.34,18.58-5.82,37.3-8,56l-.85,7-.75,7-1.51,14.07-2.67,28.18c-3.31,37.61-5.55,75.29-7.26,113l-1.18,28.28-.82,28.29-.42,14.15-.24,14.15-.46,28.3-.11,7.08,0,7.07,0,14.16-.1,28.3.51,56.61v0a1.5,1.5,0,0,1-3,0h0l-.14-56.65.29-28.32.14-14.16.08-7.08.15-7.08.65-28.32.34-14.15.5-14.16,1-28.3,1.37-28.29c1.95-37.7,4.44-75.39,8-113L226,88.69l1.6-14.07.81-7,.89-7C231.6,41.84,234.21,23.13,237.67,4.57Z" transform="translate(0 -0.25)"/><path class="cls-7" d="M242.76,4.57c-1.69,18.76-3,37.56-4.15,56.36s-2.15,37.61-3.05,56.43c-1.76,37.63-3,75.29-3.93,113L231,258.56c-.21,9.42-.3,18.83-.45,28.25-.34,18.83-.43,37.67-.58,56.51-.1,9.41-.08,18.83-.08,28.25v28.25l.36,56.51h0a1.5,1.5,0,1,1-3,0h0V399.82l.2-28.26c.07-9.42.11-18.84.27-28.26.28-18.85.49-37.69.95-56.52.22-9.42.37-18.84.64-28.26l.8-28.25c1.19-37.66,2.67-75.32,4.68-113,1-18.81,2.12-37.62,3.43-56.41S241,23.32,242.76,4.57Z" transform="translate(0 -0.25)"/><path class="cls-7" d="M239.59,456.34q.84-56.47,1.44-112.94t.79-112.94q.24-56.47.12-112.94T241.26,4.58a1.5,1.5,0,0,1,3,0v0q.26,56.49-.07,113t-.87,113q-.63,56.47-1.54,112.94T239.59,456.34Z" transform="translate(0 -0.25)"/><path class="cls-7" d="M242.76,4.57c.47,37.79,1.54,75.57,2.93,113.33.38,9.44.68,18.88,1.13,28.32l1.29,28.31c1,18.86,2,37.73,3.22,56.58l.9,14.14c.29,4.72.68,9.42,1,14.13l2.13,28.26,2.48,28.22.62,7.06.73,7,1.47,14.09,1.47,14.09c.54,4.69,1.16,9.37,1.74,14.05l1.76,14.05.88,7c.31,2.33.7,4.66,1,7l2.14,14,1.06,7,.54,3.5.26,1.75.33,1.74L277.15,456v.07a1.49,1.49,0,0,1-1.19,1.75,1.51,1.51,0,0,1-1.76-1.2h0l-5.09-27.94L268.8,427l-.25-1.76-.52-3.51-1-7-2-14c-.34-2.34-.71-4.68-1-7l-.83-7-1.67-14.09c-.55-4.7-1.14-9.39-1.65-14.09l-1.38-14.11-1.37-14.11-.69-7.06-.58-7.06-2.29-28.26-1.94-28.29c-.3-4.72-.67-9.43-.92-14.14l-.8-14.16c-1.14-18.86-2-37.74-2.85-56.62l-1.11-28.33c-.38-9.44-.62-18.88-.94-28.33C243.8,80.15,243,42.36,242.76,4.57Z" transform="translate(0 -0.25)"/><path class="cls-7" d="M257,453.85c-3.44-37.32-6-74.71-8.17-112.12q-3-56.13-4.71-112.33T241.73,117c-.47-37.47-.7-74.95-.47-112.44a1.5,1.5,0,1,1,3,0h0C243.78,42,243.76,79.51,244,117s.79,74.93,1.65,112.39,2.24,74.9,4,112.33C251.47,379.11,253.82,416.51,257,453.85Z" transform="translate(0 -0.25)"/><path class="cls-7" d="M234.05,5c-3.58,3.47-6.89,7.2-10.11,11-1.62,1.89-3.19,3.83-4.73,5.79s-3.05,3.94-4.57,5.92c-6,8-11.55,16.25-16.86,24.68a466.57,466.57,0,0,0-28,52.78,561.73,561.73,0,0,0-21.63,55.71C141.87,179.82,136.4,199,132,218.43l-1.73,7.27L128.7,233l-3,14.63-2.62,14.71-1.3,7.36-1.1,7.39-2.2,14.78-1.8,14.83c-1.31,9.88-2.09,19.81-3,29.73a1039.11,1039.11,0,0,0-3.06,119.42,1.5,1.5,0,1,1-3,.09h0a1039.64,1039.64,0,0,1,3.82-119.7c1-9.93,1.84-19.88,3.21-29.78l1.9-14.85,2.3-14.8,1.15-7.4L121.3,262,124,247.32l3.12-14.65,1.58-7.32,1.78-7.27c4.57-19.44,10.17-38.63,16.55-57.54a564.07,564.07,0,0,1,22-55.66,467.6,467.6,0,0,1,28.39-52.67c5.37-8.4,11-16.65,17-24.6,1.53-2,3-4,4.61-5.89s3.13-3.88,4.77-5.76A148.53,148.53,0,0,1,234.05,5Z" transform="translate(0 -0.25)"/><path class="cls-7" d="M237.67,5.38a272.92,272.92,0,0,0-16.6,24.41c-5.13,8.4-10,16.94-14.6,25.66A585.15,585.15,0,0,0,181.65,109c-7.41,18.23-14,36.8-19.87,55.58s-10.87,37.83-15.36,57L143.19,236l-2.9,14.47-1.43,7.23-1.26,7.27-2.5,14.54-2.17,14.6-1.08,7.3-.9,7.32-1.79,14.64c-.56,4.89-1,9.79-1.47,14.68A1056.43,1056.43,0,0,0,123,455.88a1.5,1.5,0,1,1-3,.05h0a1061.14,1061.14,0,0,1,5.43-118.12c.52-4.9,1-9.81,1.56-14.7l1.9-14.67,1-7.33,1.13-7.31,2.26-14.61,2.6-14.55,1.31-7.28,1.48-7.24,3-14.48,3.33-14.4c4.62-19.16,9.73-38.21,15.75-57s12.71-37.32,20.25-55.53a584.76,584.76,0,0,1,25.18-53.44c4.62-8.7,9.58-17.22,14.77-25.59A273.73,273.73,0,0,1,237.67,5.38Z" transform="translate(0 -0.25)"/><path class="cls-7" d="M242.76,5.38c-5.24,8.22-9.92,16.78-14.42,25.42s-8.75,17.43-12.75,26.31C207.5,74.84,200.28,93,193.7,111.31S181.2,148.23,175.94,167s-9.87,37.7-14,56.73c-1.93,9.55-4,19.08-5.62,28.68L155,259.58l-.64,3.6-.58,3.61-2.3,14.42c-.4,2.4-.74,4.82-1.06,7.23l-1,7.24-1,7.23-.49,3.62-.42,3.63c-1.09,9.68-2.32,19.34-3.12,29a1130.88,1130.88,0,0,0-4.85,116.69,1.5,1.5,0,1,1-3,0h0A1132.87,1132.87,0,0,1,142.18,339c.87-9.72,2.16-19.39,3.31-29.08l.44-3.63.52-3.62,1-7.25,1-7.24c.34-2.42.69-4.83,1.11-7.23L152,266.49l.6-3.61.68-3.6,1.35-7.19c1.72-9.61,3.82-19.13,5.81-28.68,4.26-19,9-38,14.38-56.73s11.45-37.31,18.14-55.63,14-36.4,22.25-54.1c4.06-8.86,8.39-17.6,12.92-26.23S237.47,13.57,242.76,5.38Z" transform="translate(0 -0.25)"/><path class="cls-7" d="M148.9,455.9q1-57.86,7.41-115.45c4.37-38.34,10.26-76.51,18-114.32s17-75.31,28.06-112.31q8.27-27.75,17.89-55.08c6.48-18.2,13.27-36.26,21.12-54A1.5,1.5,0,1,1,244.14,6h0l0,0c-7.88,17.49-14.79,35.52-21.37,53.61S210.17,96,204.54,114.47q-16.83,55.29-28.74,112c-8,37.72-14.13,75.82-18.75,114.1Q150.39,398,148.9,455.9Z" transform="translate(0 -0.25)"/><path class="cls-7" d="M242.76,5.38c-5.23,18.33-10,36.77-14.68,55.26s-9,37-13.13,55.64c-8.3,37.2-15.57,74.63-21.58,112.25-3,18.82-5.58,37.69-7.78,56.61s-3.81,37.9-4.9,56.9-1.32,38-.62,57,2.47,38,6.39,56.51a1.5,1.5,0,1,1-2.93.63h0c-3.84-18.81-5.45-37.94-6.07-57s-.14-38.22,1-57.27,3-38.05,5.28-57,5.1-37.81,8.17-56.63c6.26-37.62,13.78-75,22.32-112.18q6.39-27.87,13.51-55.56C232.47,42.09,237.41,23.67,242.76,5.38Z" transform="translate(0 -0.25)"/><path class="cls-7" d="M166.32,453.41c-1.7-19-2.36-38.05-2.27-57.12l.27-14.3c0-2.38.16-4.76.26-7.14l.32-7.14.32-7.15.5-7.13c.35-4.75.6-9.52,1-14.26,1.58-19,3.84-37.95,6.44-56.84s5.86-37.69,9.35-56.44q10.69-56.2,25.52-111.52c9.86-36.86,20.72-73.43,33.29-109.5a1.5,1.5,0,1,1,2.83,1h0v0C231.41,41.73,220.32,78.23,210.23,115S191.38,188.79,184,226.17c-3.61,18.71-6.91,37.47-9.71,56.32s-5.1,37.76-6.8,56.74c-.46,4.74-.75,9.5-1.13,14.24l-.54,7.13-.37,7.13-.37,7.14c-.11,2.38-.27,4.76-.3,7.14l-.37,14.28C164.21,415.35,164.74,434.41,166.32,453.41Z" transform="translate(0 -0.25)"/><path class="cls-8" d="M242.67,3.61S450.1,115.91,442.24,455.18" transform="translate(0 -0.25)"/><path class="cls-8" d="M457.21,455.18C463.2,87.7,242.67,3.61,242.67,3.61" transform="translate(0 -0.25)"/><path class="cls-8" d="M424.27,455.18C438.87,144.54,242.67,3.61,242.67,3.61" transform="translate(0 -0.25)"/><path class="cls-8" d="M242.67,3.61S435.5,205.52,411.91,455.18" transform="translate(0 -0.25)"/><path class="cls-8" d="M242.67,4.85s112,112.3,104.09,451.57" transform="translate(0 -0.25)"/><path class="cls-8" d="M361.74,456.42C367.73,88.94,242.67,4.85,242.67,4.85" transform="translate(0 -0.25)"/><path class="cls-8" d="M328.79,456.42C343.39,145.78,242.67,4.85,242.67,4.85" transform="translate(0 -0.25)"/><path class="cls-8" d="M242.67,4.85S340,206.77,316.43,456.42" transform="translate(0 -0.25)"/><path class="cls-8" d="M241.48,4.85s52.6,112.3,44.74,451.57" transform="translate(0 -0.25)"/><path class="cls-8" d="M301.19,456.42c6-367.48-59.71-451.57-59.71-451.57" transform="translate(0 -0.25)"/><path class="cls-8" d="M268.25,456.42C282.85,145.78,241.48,4.85,241.48,4.85" transform="translate(0 -0.25)"/><path class="cls-8" d="M241.48,4.85s38,201.92,14.41,451.57" transform="translate(0 -0.25)"/><path class="cls-8" d="M234.82,4.2S40.13,128.07,48,456.14" transform="translate(0 -0.25)"/><path class="cls-8" d="M35.64,456.14S-3.76,151.8,234.82,4.2" transform="translate(0 -0.25)"/><path class="cls-8" d="M238.08,4.57S55.85,151.72,59.22,456.14" transform="translate(0 -0.25)"/><path class="cls-8" d="M242.67,4.57S72.26,165.41,74.16,456.14" transform="translate(0 -0.25)"/><path class="cls-8" d="M83.93,456.14C88.43,197.77,242.67,4.57,242.67,4.57" transform="translate(0 -0.25)"/><path class="cls-8" d="M242.67,4.57S88.43,307.3,116.51,456.14" transform="translate(0 -0.25)"/><path class="cls-8" d="M99.66,453.65c-15.73-189.92,143-449.08,143-449.08" transform="translate(0 -0.25)"/><path class="cls-8" d="M242.29,4.2s202,123.87,194.16,451.94" transform="translate(0 -0.25)"/><path class="cls-8" d="M448.8,456.14S480.86,151.8,242.29,4.2" transform="translate(0 -0.25)"/><path class="cls-8" d="M239,4.57S428.59,151.72,425.22,456.14" transform="translate(0 -0.25)"/><path class="cls-8" d="M234.43,4.57S412.18,165.41,410.27,456.14" transform="translate(0 -0.25)"/><path class="cls-8" d="M400.5,456.14C396,197.77,234.43,4.57,234.43,4.57" transform="translate(0 -0.25)"/><path class="cls-8" d="M234.43,4.57S396,307.3,367.93,456.14" transform="translate(0 -0.25)"/><path class="cls-8" d="M384.78,453.65C400.5,263.73,234.43,4.57,234.43,4.57" transform="translate(0 -0.25)"/><path class="cls-8" d="M234.82,4.2s-38.46,124.07-30.6,452.14" transform="translate(0 -0.25)"/><path class="cls-8" d="M238.08,4.57s-26,147.35-22.62,451.77" transform="translate(0 -0.25)"/><path class="cls-8" d="M242.67,4.57s-14.18,161-12.27,451.77" transform="translate(0 -0.25)"/><path class="cls-8" d="M240.17,456.34c4.49-258.37,2.5-451.77,2.5-451.77" transform="translate(0 -0.25)"/><path class="cls-8" d="M242.67,4.57s2,302.92,30.07,451.77" transform="translate(0 -0.25)"/><path class="cls-8" d="M255.89,453.85C240.17,263.93,242.67,4.57,242.67,4.57" transform="translate(0 -0.25)"/><path class="cls-8" d="M234.82,5S114.52,127.83,122.38,455.9" transform="translate(0 -0.25)"/><path class="cls-8" d="M238.08,5.38S130.24,151.48,133.61,455.9" transform="translate(0 -0.25)"/><path class="cls-8" d="M242.67,5.38s-96,159.79-94.12,450.52" transform="translate(0 -0.25)"/><path class="cls-8" d="M158.32,455.9c4.5-258.37,84.35-450.52,84.35-450.52" transform="translate(0 -0.25)"/><path class="cls-8" d="M242.67,5.38S162.82,307.06,190.9,455.9" transform="translate(0 -0.25)"/><path class="cls-8" d="M174.05,453.41c-15.73-189.92,68.62-448,68.62-448" transform="translate(0 -0.25)"/><path class="cls-9" d="M242.4,3.61s137.71,112.3,132.54,451.57" transform="translate(0 -0.25)"/><path class="cls-9" d="M384.79,455.18C388.73,87.7,242.4,3.61,242.4,3.61" transform="translate(0 -0.25)"/><path class="cls-9" d="M363.11,455.18C372.72,144.54,242.4,3.61,242.4,3.61" transform="translate(0 -0.25)"/><path class="cls-9" d="M242.4,3.61S370.5,205.52,355,455.18" transform="translate(0 -0.25)"/><path class="cls-9" d="M242.4,4.85s74.9,112.3,69.73,451.57" transform="translate(0 -0.25)"/><path class="cls-9" d="M322,456.42C325.92,88.94,242.4,4.85,242.4,4.85" transform="translate(0 -0.25)"/><path class="cls-9" d="M300.3,456.42C309.91,145.78,242.4,4.85,242.4,4.85" transform="translate(0 -0.25)"/><path class="cls-9" d="M242.4,4.85s65.29,201.92,49.78,451.57" transform="translate(0 -0.25)"/><path class="cls-9" d="M241.61,4.85s35.86,112.3,30.69,451.57" transform="translate(0 -0.25)"/><path class="cls-9" d="M282.15,456.42C286.09,88.94,241.61,4.85,241.61,4.85" transform="translate(0 -0.25)"/><path class="cls-9" d="M260.48,456.42c9.6-310.64-18.87-451.57-18.87-451.57" transform="translate(0 -0.25)"/><path class="cls-9" d="M241.61,4.85s26.26,201.92,10.74,451.57" transform="translate(0 -0.25)"/><path class="cls-9" d="M237.23,4.2S110.41,128.07,115.58,456.14" transform="translate(0 -0.25)"/><path class="cls-9" d="M107.45,456.14S80.28,151.8,237.23,4.2" transform="translate(0 -0.25)"/><path class="cls-9" d="M239.37,4.57S120.75,151.72,123,456.14" transform="translate(0 -0.25)"/><path class="cls-9" d="M242.4,4.57S131.54,165.41,132.8,456.14" transform="translate(0 -0.25)"/><path class="cls-9" d="M139.23,456.14C142.18,197.77,242.4,4.57,242.4,4.57" transform="translate(0 -0.25)"/><path class="cls-9" d="M242.4,4.57S142.18,307.3,160.65,456.14" transform="translate(0 -0.25)"/><path class="cls-9" d="M149.57,453.65C139.23,263.73,242.4,4.57,242.4,4.57" transform="translate(0 -0.25)"/><path class="cls-9" d="M242.15,4.2s134.15,123.87,129,451.94" transform="translate(0 -0.25)"/><path class="cls-9" d="M379.26,456.14S399.09,151.8,242.15,4.2" transform="translate(0 -0.25)"/><path class="cls-9" d="M240,4.57S366,151.72,363.74,456.14" transform="translate(0 -0.25)"/><path class="cls-9" d="M237,4.57S355.16,165.41,353.91,456.14" transform="translate(0 -0.25)"/><path class="cls-9" d="M347.48,456.14C344.53,197.77,237,4.57,237,4.57" transform="translate(0 -0.25)"/><path class="cls-9" d="M237,4.57S344.53,307.3,326.05,456.14" transform="translate(0 -0.25)"/><path class="cls-9" d="M337.14,453.65C347.48,263.73,237,4.57,237,4.57" transform="translate(0 -0.25)"/><path class="cls-9" d="M237.23,4.2s-24,124.07-18.87,452.14" transform="translate(0 -0.25)"/><path class="cls-9" d="M239.37,4.57s-15.84,147.35-13.62,451.77" transform="translate(0 -0.25)"/><path class="cls-9" d="M242.4,4.57s-8.08,161-6.82,451.77" transform="translate(0 -0.25)"/><path class="cls-9" d="M242,456.34c3-258.37.4-451.77.4-451.77" transform="translate(0 -0.25)"/><path class="cls-9" d="M242.4,4.57s2.56,302.92,21,451.77" transform="translate(0 -0.25)"/><path class="cls-9" d="M252.35,453.85C242,263.93,242.4,4.57,242.4,4.57" transform="translate(0 -0.25)"/><path class="cls-9" d="M237.23,5S159.35,127.83,164.52,455.9" transform="translate(0 -0.25)"/><path class="cls-9" d="M239.37,5.38s-69.68,146.1-67.46,450.52" transform="translate(0 -0.25)"/><path class="cls-9" d="M242.4,5.38S180.48,165.17,181.74,455.9" transform="translate(0 -0.25)"/><path class="cls-9" d="M188.16,455.9c3-258.37,54.24-450.52,54.24-450.52" transform="translate(0 -0.25)"/><path class="cls-9" d="M242.4,5.38S191.12,307.06,209.59,455.9" transform="translate(0 -0.25)"/><path class="cls-9" d="M198.51,453.41c-10.35-189.92,43.89-448,43.89-448" transform="translate(0 -0.25)"/></g><g id="Layer_11" data-name="Layer 11" class="cls-10"><path class="cls-7" d="M40.74,459.28,42,426.65c.07-2.73.33-5.44.5-8.15l.58-8.15,1.15-16.3c.15-2.72.47-5.42.76-8.13l.88-8.12,1.74-16.25c.25-2.71.71-5.4,1.07-8.1l1.15-8.09,2.3-16.18,2.85-16.1,1.45-8,.73-4,.88-4,3.49-16c.6-2.65,1.12-5.33,1.79-8l2-7.92,4.08-15.84,4.66-15.68,2.34-7.84L79,218c1.77-5.16,3.47-10.34,5.3-15.48a558.82,558.82,0,0,1,26.33-59.91c2.58-4.8,5.13-9.63,7.75-14.42l8.32-14.1c2.9-4.63,5.9-9.18,8.86-13.77.73-1.16,1.54-2.26,2.33-3.37l2.38-3.33L145.05,87a335.59,335.59,0,0,1,43.66-48.66A267.8,267.8,0,0,1,214.29,18c2.26-1.52,4.47-3.12,6.8-4.54l3.45-2.18c1.16-.72,2.35-1.39,3.52-2.08a121.24,121.24,0,0,1,14.58-7.34,122.34,122.34,0,0,0-14.35,7.73c-1.15.72-2.32,1.41-3.46,2.15l-3.4,2.24c-2.29,1.46-4.46,3.11-6.68,4.66A269.62,269.62,0,0,0,189.7,39.41a335.42,335.42,0,0,0-42.79,48.94,429.73,429.73,0,0,0-33.83,55.55,562.55,562.55,0,0,0-25.94,59.69c-14.86,40.81-25.34,83.15-32.79,126l-2.49,16.11-1.25,8.05c-.39,2.69-.88,5.37-1.16,8.07l-2,16.2-1,8.09c-.33,2.7-.66,5.4-.87,8.11l-1.49,16.25-.74,8.12c-.23,2.71-.55,5.42-.67,8.14Z" transform="translate(0 -0.25)"/><path class="cls-7" d="M478.84,459.28l-2.64-33.41-1.9-16.65-1-8.32-.47-4.15c-.17-1.39-.42-2.77-.62-4.15-3.19-22.09-6.84-44.13-12-65.84-1.29-5.43-2.47-10.88-3.85-16.28L452,294.33l-2.2-8.07-2.51-8-5-16-5.66-15.74c-1-2.62-1.86-5.25-2.86-7.85L430.6,231l-3.15-7.74c-1.07-2.57-2-5.19-3.23-7.71l-6.92-15.22a559.41,559.41,0,0,0-31.95-58.68,501.56,501.56,0,0,0-39.39-54c-1.73-2.19-3.62-4.23-5.44-6.34L335,75.05c-1.83-2.1-3.79-4.08-5.68-6.13s-3.8-4.08-5.74-6.08c-7.86-7.91-15.82-15.73-24.27-23-2.08-1.86-4.16-3.71-6.32-5.48s-4.27-3.59-6.43-5.35L280,23.81c-2.2-1.72-4.47-3.35-6.69-5A251,251,0,0,0,245.18.62c5,2.49,9.83,5.33,14.6,8.23s9.41,6.06,14,9.29c2.27,1.63,4.57,3.22,6.81,4.9l6.69,5.06c2.21,1.72,4.37,3.5,6.56,5.24s4.33,3.55,6.46,5.37c8.57,7.2,16.66,14.95,24.65,22.8,2,2,3.89,4,5.84,6s3.91,4,5.79,6.08l5.61,6.25C344,82,346,84,347.72,86.18l5.4,6.45c1.78,2.15,3.63,4.26,5.32,6.5l5.13,6.65,2.57,3.32,1.28,1.67,1.23,1.7c3.24,4.57,6.53,9.1,9.75,13.69l9.25,14A558.81,558.81,0,0,1,420,199.06l6.89,15.33c1.2,2.53,2.16,5.17,3.23,7.76l3.13,7.79,3.13,7.8c1,2.61,1.89,5.27,2.84,7.9l5.63,15.83,5,16,2.49,8,2.17,8.11,4.32,16.23c1.31,5.44,2.43,10.93,3.66,16.39,4.92,21.84,8.33,44,11.22,66.16.18,1.38.4,2.77.53,4.16l.4,4.17.79,8.35L477,425.8C477.71,437,478.25,448.12,478.84,459.28Z" transform="translate(0 -0.25)"/><path class="cls-7" d="M369.52,459.28c-.84-19.92-2.77-39.78-5.21-59.55s-5.34-39.5-8.81-59.11c-7-39.22-15.52-78.18-26.25-116.54-2.54-9.63-5.4-19.17-8.15-28.74l-4.39-14.28c-.74-2.38-1.45-4.77-2.21-7.14l-2.32-7.1c-6-19-12.91-37.68-19.76-56.39l-5.36-14-2.7-7-2.82-6.92-5.63-13.84L270,55c-3.82-9.21-8-18.25-12.09-27.34-2-4.57-4.22-9-6.35-13.54L245.18.62c4.5,8.9,9.14,17.73,13.45,26.73s8.69,17.95,12.72,27.08l6.11,13.66,5.84,13.79,2.91,6.89,2.8,6.94,5.57,13.9c1.82,4.64,3.55,9.32,5.32,14s3.52,9.34,5.15,14.05l5,14.13c1.63,4.71,3.16,9.46,4.75,14.19l2.36,7.11c.78,2.37,1.5,4.76,2.25,7.14l4.47,14.29c2.79,9.58,5.71,19.13,8.29,28.77s5.08,19.31,7.54,29l3.47,14.57c1.17,4.85,2.19,9.74,3.29,14.61,4.26,19.5,8.16,39.08,11.33,58.79C364.09,379.63,368.87,419.38,369.52,459.28Z" transform="translate(0 -0.25)"/><path class="cls-7" d="M88,459.28a274.42,274.42,0,0,1-2.59-30.85c-.39-10.32-.34-20.65,0-31a559.76,559.76,0,0,1,5.69-61.71A587.47,587.47,0,0,1,103.43,275q7.71-30,18-59.34c1.74-4.87,3.64-9.68,5.45-14.52.92-2.41,1.81-4.84,2.76-7.24l3-7.17c2-4.76,3.89-9.57,6-14.3l6.36-14.14c2.06-4.75,4.4-9.35,6.65-14l3.4-7c1.14-2.32,2.23-4.66,3.47-6.93,4.86-9.12,9.49-18.37,14.78-27.25L181,89.67l8.14-13.18c5.3-8.87,11.15-17.39,16.84-26,1.45-2.14,2.82-4.32,4.35-6.41l4.51-6.29,9-12.59C230,16.9,236.36,8.8,242.64.62l-9.1,12.52L229,19.38c-1.52,2.08-3.08,4.14-4.5,6.29l-8.74,12.76-4.37,6.38c-1.47,2.12-2.79,4.33-4.2,6.49-5.54,8.69-11.28,17.26-16.45,26.18l-7.94,13.26-7.52,13.5a749.21,749.21,0,0,0-51,112.4A670.31,670.31,0,0,0,93.41,336.09a562.13,562.13,0,0,0-6.51,61.42c-.55,10.29-.82,20.6-.66,30.9A306.16,306.16,0,0,0,88,459.28Z" transform="translate(0 -0.25)"/><path class="cls-7" d="M120,346.76a41.32,41.32,0,0,1-.21-4.31V340.3l.08-2.16c.08-2.88.37-5.74.63-8.61.6-5.72,1.35-11.43,2.35-17.1s2.17-11.3,3.31-16.94c.54-2.83,1.28-5.61,1.93-8.41l2-8.39c5.6-22.33,12.61-44.26,19.91-66.06l5.81-16.24c2-5.4,3.82-10.84,5.93-16.19l6.19-16.09,3.11-8c1.05-2.67,2.18-5.32,3.26-8l6.58-15.93c2.21-5.3,4.34-10.64,6.67-15.89,4.67-10.5,9.24-21,14-31.5-4.12,10.73-8.42,21.37-12.62,32.06-2.18,5.31-4.2,10.69-6.27,16l-6.19,16.07c-2.09,5.34-4.07,10.73-6.06,16.11l-6,16.14c-2.05,5.36-3.9,10.79-5.83,16.19l-5.73,16.23-5.46,16.31-2.72,8.16-2.55,8.22-2.58,8.2-1.28,4.11L137,262.74,134.65,271c-.78,2.76-1.66,5.49-2.37,8.27l-2.19,8.31c-.71,2.78-1.51,5.53-2.12,8.33-1.28,5.59-2.67,11.16-3.71,16.79-1.22,5.6-2.18,11.25-3,16.92-.37,2.85-.77,5.69-1,8.55l-.2,2.14-.09,2.15A41.11,41.11,0,0,0,120,346.76Z" transform="translate(0 -0.25)"/><path class="cls-7" d="M52.13,451.58c.43-11.48,1.29-22.92,2.16-34.37s2.1-22.87,3.34-34.29q3.76-34.23,9.68-68.22c4-22.62,8.65-45.15,14.6-67.36,3-11.09,6.16-22.15,9.84-33s7.73-21.65,12.44-32.12q-6.12,16.09-11,32.57c-3.38,10.95-6.28,22-9,33.16s-5.2,22.31-7.48,33.54-4.43,22.48-6.4,33.77-3.81,22.6-5.52,33.93-3.29,22.69-4.83,34.05S57,406,55.74,417.35,53.23,440.15,52.13,451.58Z" transform="translate(0 -0.25)"/><path class="cls-7" d="M434.87,298.84c3.28,11.34,6.09,22.81,8.69,34.31,1.34,5.75,2.51,11.53,3.73,17.31s2.26,11.58,3.31,17.39,2,11.64,2.89,17.47,1.71,11.68,2.33,17.56a262.9,262.9,0,0,1,2.07,35.36c-1-11.77-2.65-23.41-4.39-35.05s-3.76-23.23-5.85-34.82-4.22-23.16-6.37-34.75S436.94,310.46,434.87,298.84Z" transform="translate(0 -0.25)"/><path class="cls-7" d="M293.6,409.61c.15-4,0-8-.09-12s-.25-8-.4-12-.39-8-.59-12l-.32-6-.4-6-.76-12-.9-12c-.55-8-1.35-16-2-24-1.55-16-3-32-4.89-47.92l-1.34-12-1.49-11.95c-1-8-1.95-15.94-3.07-23.89l-3.22-23.87-.8-6-.89-5.95L270.62,170l-1.78-11.91c-.59-4-1.19-7.94-1.86-11.9q-2-11.88-3.84-23.78c-.65-4-1.23-7.94-1.92-11.89l-2.07-11.87L255,74.94l-8.6-47.42q2.58,11.76,5.08,23.56c1.65,7.86,3.4,15.71,5,23.59L261,98.34l2.27,11.84c.76,3.95,1.41,7.91,2.12,11.87q2.11,11.87,4.13,23.75c.69,4,1.32,7.93,1.93,11.9l1.85,11.92,1.85,11.91.92,6,.84,6,3.35,23.88c1.08,8,2,16,2.94,23.93l1.43,12,1.27,12c.84,8,1.74,16,2.43,24s1.52,16,2,24,1.21,16,1.63,24.06l.7,12,.54,12,.23,6,.16,6c.08,4,.24,8,.25,12.06s.12,8,.06,12.05S293.9,405.6,293.6,409.61Z" transform="translate(0 -0.25)"/><path class="cls-7" d="M179.1,329.33q1.32-19.69,3.2-39.33c.59-6.55,1.28-13.08,1.93-19.63l2.09-19.61,2.26-19.6c.81-6.52,1.56-13,2.43-19.57q2.46-19.58,5.51-39.08-1.31,19.71-3.19,39.34c-.59,6.55-1.29,13.09-1.93,19.63l-2.1,19.61L187,270.68c-.8,6.52-1.56,13.06-2.42,19.57Q182.15,309.83,179.1,329.33Z" transform="translate(0 -0.25)"/><path class="cls-7" d="M145.5,329.33l-3,32.46c-.43,5.41-1,10.81-1.34,16.22-.22,2.7-.45,5.4-.63,8.11s-.43,5.41-.57,8.11l-.56,8.12-.45,8.12c-.19,2.7-.31,5.41-.42,8.12s-.29,5.41-.37,8.12c-.45,10.84-.6,21.68-.74,32.57a316.87,316.87,0,0,1-1.6-32.61q0-16.34,1.15-32.64c.17-2.72.42-5.43.64-8.14s.43-5.43.73-8.13c.55-5.42,1.13-10.83,1.84-16.22C141.57,350.75,143.24,340,145.5,329.33Z" transform="translate(0 -0.25)"/><path class="cls-7" d="M240.09,40.58q.87,19.92,1.16,39.83c.14,6.64.17,13.28.25,19.92l.08,19.91-.07,19.91c-.09,6.64-.11,13.28-.25,19.92q-.3,19.91-1.17,39.82-.89-19.9-1.17-39.82c-.14-6.64-.17-13.28-.25-19.92l-.08-19.91.08-19.91c.08-6.64.11-13.28.25-19.92Q239.22,60.51,240.09,40.58Z" transform="translate(0 -0.25)"/><path class="cls-7" d="M339.65,120.86c5.06,10,9.66,20.26,14.25,30.51s8.79,20.65,13,31.07q12.54,31.27,22.65,63.45c3.32,10.73,6.51,21.51,9.38,32.37.74,2.71,1.39,5.45,2.09,8.17s1.37,5.45,2,8.19,1.3,5.46,1.9,8.21l1.73,8.25c2.19,11,4.19,22.08,5.65,33.23s2.4,22.34,2.68,33.56c-1-11.18-2.3-22.3-4.14-33.35s-4-22-6.44-33c-5-21.82-11-43.41-17.71-64.77-3.31-10.7-6.89-21.31-10.54-31.9s-7.5-21.11-11.39-31.62-8-20.94-12.18-31.34S344.09,131.17,339.65,120.86Z" transform="translate(0 -0.25)"/></g><g id="Layer_12" data-name="Layer 12"><g class="cls-11"><g class="cls-12"><polygon class="cls-5" points="492.86 59.86 0 56.01 0 0 492.86 0 492.86 59.86"/><polygon class="cls-5" points="492.86 74.21 0 70.36 0 56.01 492.86 59.86 492.86 74.21"/><polygon class="cls-13" points="492.86 88.56 0 84.7 0 70.36 492.86 74.21 492.86 88.56"/><polygon class="cls-14" points="492.86 102.91 0 99.05 0 84.7 492.86 88.56 492.86 102.91"/><polygon class="cls-15" points="492.86 117.26 0 113.4 0 99.05 492.86 102.91 492.86 117.26"/><polygon class="cls-16" points="492.86 131.6 0 127.75 0 113.4 492.86 117.26 492.86 131.6"/><polygon class="cls-17" points="492.86 145.95 0 142.1 0 127.75 492.86 131.6 492.86 145.95"/><polygon class="cls-18" points="492.86 160.3 0 156.45 0 142.1 492.86 145.95 492.86 160.3"/><polygon class="cls-19" points="492.86 174.65 0 170.79 0 156.45 492.86 160.3 492.86 174.65"/><polygon class="cls-20" points="492.86 189 0 185.14 0 170.79 492.86 174.65 492.86 189"/><polygon class="cls-21" points="492.86 203.35 0 199.49 0 185.14 492.86 189 492.86 203.35"/><polygon class="cls-22" points="492.86 217.7 0 213.84 0 199.49 492.86 203.35 492.86 217.7"/><polygon class="cls-23" points="492.86 232.04 0 228.19 0 213.84 492.86 217.7 492.86 232.04"/><polygon class="cls-24" points="492.86 246.39 0 242.54 0 228.19 492.86 232.04 492.86 246.39"/><polygon class="cls-25" points="492.86 260.74 0 256.89 0 242.54 492.86 246.39 492.86 260.74"/><polygon class="cls-26" points="492.86 275.09 0 271.23 0 256.89 492.86 260.74 492.86 275.09"/><polygon class="cls-27" points="492.86 289.44 0 285.58 0 271.23 492.86 275.09 492.86 289.44"/><polygon class="cls-28" points="492.86 303.79 0 299.93 0 285.58 492.86 289.44 492.86 303.79"/><polygon class="cls-29" points="492.86 318.13 0 314.28 0 299.93 492.86 303.79 492.86 318.13"/><polygon class="cls-30" points="492.86 332.48 0 328.63 0 314.28 492.86 318.13 492.86 332.48"/><polygon class="cls-31" points="492.86 346.83 0 342.98 0 328.63 492.86 332.48 492.86 346.83"/><polygon class="cls-32" points="492.86 361.18 0 357.32 0 342.98 492.86 346.83 492.86 361.18"/><polygon class="cls-33" points="492.86 375.53 0 371.67 0 357.32 492.86 361.18 492.86 375.53"/><polygon class="cls-34" points="492.86 389.88 0 386.02 0 371.67 492.86 375.53 492.86 389.88"/><polygon class="cls-35" points="492.86 404.23 0 400.37 0 386.02 492.86 389.88 492.86 404.23"/><polygon class="cls-36" points="492.86 418.57 0 414.72 0 400.37 492.86 404.23 492.86 418.57"/><polygon class="cls-37" points="492.86 432.92 0 429.07 0 414.72 492.86 418.57 492.86 432.92"/><polygon class="cls-38" points="492.86 447.27 0 443.42 0 429.07 492.86 432.92 492.86 447.27"/><polygon class="cls-39" points="161.9 459.03 0 457.76 0 443.42 492.86 447.27 492.86 459.03 161.9 459.03"/><polygon class="cls-40" points="0 457.76 161.9 459.03 0 459.03 0 457.76"/></g></g></g><g id="Layer_13" data-name="Layer 13"><path class="cls-41" d="M156.87,459.28H305.4V273.71a84,84,0,0,0-14-46.46h0A49,49,0,0,0,275.58,212a87.88,87.88,0,0,0-88.89,0,49.08,49.08,0,0,0-15.78,15.24h0a84,84,0,0,0-14,46.46Z" transform="translate(0 -0.25)"/><g class="cls-42"><polygon class="cls-18" points="169.92 195.67 173.52 459.03 168.86 459.03 168.86 195.67 169.92 195.67"/><polygon class="cls-19" points="177.98 195.67 181.58 459.03 173.52 459.03 169.92 195.67 177.98 195.67"/><polygon class="cls-20" points="186.04 195.67 189.64 459.03 181.58 459.03 177.98 195.67 186.04 195.67"/><polygon class="cls-21" points="194.1 195.67 197.7 459.03 189.64 459.03 186.04 195.67 194.1 195.67"/><polygon class="cls-22" points="202.16 195.67 205.76 459.03 197.7 459.03 194.1 195.67 202.16 195.67"/><polygon class="cls-23" points="210.22 195.67 213.82 459.03 205.76 459.03 202.16 195.67 210.22 195.67"/><polygon class="cls-24" points="218.28 195.67 221.88 459.03 213.82 459.03 210.22 195.67 218.28 195.67"/><polygon class="cls-25" points="226.35 195.67 229.94 459.03 221.88 459.03 218.28 195.67 226.35 195.67"/><polygon class="cls-26" points="234.41 195.67 238 459.03 229.94 459.03 226.35 195.67 234.41 195.67"/><polygon class="cls-27" points="242.47 195.67 246.06 459.03 238 459.03 234.41 195.67 242.47 195.67"/><polygon class="cls-28" points="250.53 195.67 254.13 459.03 246.06 459.03 242.47 195.67 250.53 195.67"/><polygon class="cls-29" points="258.59 195.67 262.19 459.03 254.13 459.03 250.53 195.67 258.59 195.67"/><polygon class="cls-30" points="266.65 195.67 270.25 459.03 262.19 459.03 258.59 195.67 266.65 195.67"/><polygon class="cls-31" points="274.71 195.67 278.31 459.03 270.25 459.03 266.65 195.67 274.71 195.67"/><polygon class="cls-32" points="282.77 195.67 286.37 459.03 278.31 459.03 274.71 195.67 282.77 195.67"/><polygon class="cls-33" points="290.83 195.67 294.43 459.03 286.37 459.03 282.77 195.67 290.83 195.67"/><polygon class="cls-34" points="298.89 195.67 302.49 459.03 294.43 459.03 290.83 195.67 298.89 195.67"/><polygon class="cls-35" points="302.49 459.03 298.89 195.67 305.4 195.67 305.4 459.03 302.49 459.03"/></g></g></g></g></g></svg>