<svg xmlns="http://www.w3.org/2000/svg" viewBox="0 0 958.95 673.65"><defs><style>.cls-1{fill:#603813;}.cls-2{fill:#643c15;}.cls-3{fill:#683f17;}.cls-4{fill:#6c421a;}.cls-5{fill:#6f461c;}.cls-6{fill:#73491e;}.cls-7{fill:#774d20;}.cls-8{fill:#42210b;}.cls-9{fill:#1c0f08;}.cls-10{fill:#210f06;}.cls-11,.cls-12,.cls-13,.cls-14,.cls-15,.cls-16,.cls-17,.cls-25{fill:#160a04;}.cls-11{opacity:0.02;}.cls-12{opacity:0.1;}.cls-13{opacity:0.18;}.cls-14{opacity:0.26;}.cls-15{opacity:0.34;}.cls-16{opacity:0.42;}.cls-17{opacity:0.5;}.cls-18{fill:#0f0704;}.cls-19{fill:#281206;}.cls-20{fill:#251106;}.cls-21{fill:#220f05;}.cls-22{fill:#1f0e05;}.cls-23{fill:#1c0d05;}.cls-24{fill:#190b04;}.cls-26{fill:#2c1507;}.cls-27{fill:#311708;}.cls-28{fill:#351a09;}.cls-29{fill:#391c09;}.cls-30{fill:#3e1e0a;}</style></defs><title>pescador acessórios</title><g id="Layer_2" data-name="Layer 2"><g id="Layer_18" data-name="Layer 18"><path class="cls-1" d="M490.44,58.77s20.85,286.73,123.38,603c0,0,6.08,4.34,10-3.48C623.81,658.29,517.81,350.71,490.44,58.77Z"/><path class="cls-2" d="M490.44,58.77s21.4,285.9,123.92,602.16c0,0,5.54,5.18,9.45-2.64C623.81,658.29,517.81,350.71,490.44,58.77Z"/><path class="cls-3" d="M490.44,58.77S512.38,343.83,614.9,660.1c0,0,5,6,8.91-1.81C623.81,658.29,517.81,350.71,490.44,58.77Z"/><path class="cls-4" d="M490.44,58.77s22.48,284.23,125,600.5c0,0,4.45,6.84,8.36-1C623.81,658.29,517.81,350.71,490.44,58.77Z"/><path class="cls-5" d="M490.44,58.77s23,283.4,125.55,599.67c0,0,3.91,7.67,7.82-.15C623.81,658.29,517.81,350.71,490.44,58.77Z"/><path class="cls-6" d="M490.44,58.77S514,341.34,616.53,657.6c0,0,3.37,8.51,7.28.69C623.81,658.29,517.81,350.71,490.44,58.77Z"/><path class="cls-7" d="M490.44,58.77s24.11,281.73,126.64,598c0,0,2.82,9.34,6.73,1.52C623.81,658.29,517.81,350.71,490.44,58.77Z"/><path class="cls-8" d="M606.05,603.21a7.9,7.9,0,0,0-5.08.33,12.43,12.43,0,0,0-2.24,1.26l-1.06.81c-.34.29-.68.59-1.06.87a12.23,12.23,0,0,1,.7-1.21,12.92,12.92,0,0,1,.92-1.06,7.41,7.41,0,0,1,2.36-1.6,6.19,6.19,0,0,1,2.85-.43A4.67,4.67,0,0,1,606.05,603.21Z"/><path class="cls-8" d="M585.88,534.63a6.14,6.14,0,0,0-4.73,0,11.08,11.08,0,0,0-2.1,1.21l-1,.78c-.33.27-.65.55-1,.81a12.13,12.13,0,0,1,.66-1.15c.26-.35.54-.69.84-1a7.16,7.16,0,0,1,2.24-1.54,5.12,5.12,0,0,1,2.74-.35A4,4,0,0,1,585.88,534.63Z"/><path class="cls-8" d="M564.89,458.49a8.71,8.71,0,0,0-2.1,0,6,6,0,0,0-1.88.51,7.27,7.27,0,0,0-1.66,1.08c-.27.2-.5.46-.77.69s-.48.52-.77.77a6.55,6.55,0,0,1,.37-1,5.91,5.91,0,0,1,.61-1,5,5,0,0,1,1.8-1.45A4.35,4.35,0,0,1,564.89,458.49Z"/><path class="cls-8" d="M544.73,377a3.33,3.33,0,0,0-2.92.6,9.39,9.39,0,0,0-1.2,1c-.4.38-.78.8-1.25,1.19a5,5,0,0,1,.63-1.67,7.91,7.91,0,0,1,.54-.75,6,6,0,0,1,.7-.62,3,3,0,0,1,1.84-.59A2.16,2.16,0,0,1,544.73,377Z"/><path class="cls-8" d="M528.26,302.47a8.93,8.93,0,0,0-1.23-.7.9.9,0,0,0-.92,0,2.79,2.79,0,0,0-.82.85c-.27.37-.52.78-.87,1.18a3.67,3.67,0,0,1,.18-1.54,4,4,0,0,1,.35-.73,2.49,2.49,0,0,1,.66-.63,1.57,1.57,0,0,1,1-.2,1.77,1.77,0,0,1,.84.39A2.44,2.44,0,0,1,528.26,302.47Z"/><path class="cls-8" d="M516.16,240.6a7.81,7.81,0,0,0-.9-.69c-.13,0-.22-.08-.2,0s0,0,0,0l-.1.12a2.5,2.5,0,0,0-.25.4c-.1.15-.17.31-.27.48a6.88,6.88,0,0,1-.68,1,3.17,3.17,0,0,1-.06-1.26,2.72,2.72,0,0,1,.47-1.24,3,3,0,0,1,.31-.3,1.07,1.07,0,0,1,.49-.19,1,1,0,0,1,.85.39A1.83,1.83,0,0,1,516.16,240.6Z"/><path class="cls-8" d="M504,168.41c-.26-.1-.45-.21-.58-.24s-.1,0,0,.07.09,0,.13,0h0l-.27.35a2,2,0,0,1-.52.46,1.27,1.27,0,0,1,0-1.43,2,2,0,0,1,.22-.19.66.66,0,0,1,.41-.12.65.65,0,0,1,.55.34A.86.86,0,0,1,504,168.41Z"/><path class="cls-1" d="M825.58,69.45s20.85,286.73,123.38,603c0,0,6.08,4.34,10-3.48C959,669,853,361.39,825.58,69.45Z"/><path class="cls-2" d="M825.58,69.45S847,355.35,949.5,671.61c0,0,5.54,5.18,9.45-2.64C959,669,853,361.39,825.58,69.45Z"/><path class="cls-3" d="M825.58,69.45s21.94,285.06,124.47,601.33c0,0,5,6,8.9-1.81C959,669,853,361.39,825.58,69.45Z"/><path class="cls-4" d="M825.58,69.45s22.48,284.23,125,600.5c0,0,4.45,6.84,8.36-1C959,669,853,361.39,825.58,69.45Z"/><path class="cls-5" d="M825.58,69.45s23,283.4,125.55,599.66c0,0,3.91,7.68,7.82-.14C959,669,853,361.39,825.58,69.45Z"/><path class="cls-6" d="M825.58,69.45S849.15,352,951.68,668.28c0,0,3.36,8.51,7.27.69C959,669,853,361.39,825.58,69.45Z"/><path class="cls-7" d="M825.58,69.45s24.11,281.73,126.64,598c0,0,2.82,9.34,6.73,1.52C959,669,853,361.39,825.58,69.45Z"/><path class="cls-8" d="M941.2,613.89a7.87,7.87,0,0,0-5.09.33,12.43,12.43,0,0,0-2.24,1.26l-1.06.81c-.34.29-.68.59-1.06.87.21-.42.45-.81.7-1.21s.58-.73.92-1.06a7.52,7.52,0,0,1,2.36-1.6,6.19,6.19,0,0,1,2.85-.43A4.73,4.73,0,0,1,941.2,613.89Z"/><path class="cls-8" d="M921,545.31a6.17,6.17,0,0,0-4.74.05,11.08,11.08,0,0,0-2.1,1.21l-1,.77a12.18,12.18,0,0,1-1,.82c.2-.39.43-.77.66-1.15s.55-.7.85-1a7,7,0,0,1,2.23-1.54,5,5,0,0,1,2.74-.35A4,4,0,0,1,921,545.31Z"/><path class="cls-8" d="M900,469.16a9.87,9.87,0,0,0-2.1,0,6.24,6.24,0,0,0-1.88.52,7.82,7.82,0,0,0-1.66,1.07c-.27.21-.49.47-.77.7s-.48.52-.77.77a9.32,9.32,0,0,1,.37-1.05,7.41,7.41,0,0,1,.61-1,5,5,0,0,1,1.81-1.44A4.36,4.36,0,0,1,900,469.16Z"/><path class="cls-8" d="M879.87,387.71a3.3,3.3,0,0,0-2.92.6,9.39,9.39,0,0,0-1.2,1c-.39.38-.77.8-1.24,1.19a4.82,4.82,0,0,1,.63-1.68,7.21,7.21,0,0,1,.53-.74,5.35,5.35,0,0,1,.71-.62,3,3,0,0,1,1.83-.59A2.16,2.16,0,0,1,879.87,387.71Z"/><path class="cls-8" d="M863.4,313.15a8.93,8.93,0,0,0-1.23-.7.89.89,0,0,0-.91,0,3,3,0,0,0-.82.86c-.28.37-.53.78-.88,1.18a3.84,3.84,0,0,1,.18-1.54,3.49,3.49,0,0,1,.35-.73,2.39,2.39,0,0,1,.67-.63,1.52,1.52,0,0,1,1-.2,1.77,1.77,0,0,1,.84.39A2.44,2.44,0,0,1,863.4,313.15Z"/><path class="cls-8" d="M851.3,251.28a9.43,9.43,0,0,0-.9-.7c-.13,0-.22-.07-.2,0s0,0,0,0l-.1.12a3.49,3.49,0,0,0-.25.4c-.1.14-.17.31-.27.48a6.33,6.33,0,0,1-.68,1,3.11,3.11,0,0,1-.06-1.25,2.72,2.72,0,0,1,.47-1.24,3,3,0,0,1,.31-.3,1.07,1.07,0,0,1,.49-.19,1,1,0,0,1,.86.39A1.82,1.82,0,0,1,851.3,251.28Z"/><path class="cls-8" d="M839.17,179.09a5.25,5.25,0,0,0-.58-.24c-.07,0-.09,0,0,.06s.1,0,.13,0,0,0,0,0l-.27.35a2,2,0,0,1-.52.46,1.3,1.3,0,0,1-.22-.7,1.23,1.23,0,0,1,.22-.73,1.5,1.5,0,0,1,.23-.2.68.68,0,0,1,.41-.11.65.65,0,0,1,.54.34A.86.86,0,0,1,839.17,179.09Z"/><path class="cls-1" d="M104.73,98.78S88.36,324,7.85,572.31c0,0-4.78,3.41-7.85-2.73C0,569.58,83.24,328,104.73,98.78Z"/><path class="cls-2" d="M104.73,98.78S87.93,323.29,7.42,571.65c0,0-4.35,4.07-7.42-2.07C0,569.58,83.24,328,104.73,98.78Z"/><path class="cls-3" d="M104.73,98.78S87.51,322.64,7,571c0,0-3.92,4.72-7-1.42C0,569.58,83.24,328,104.73,98.78Z"/><path class="cls-4" d="M104.73,98.78S87.08,322,6.57,570.35c0,0-3.5,5.37-6.57-.77C0,569.58,83.24,328,104.73,98.78Z"/><path class="cls-5" d="M104.73,98.78S86.65,321.33,6.14,569.69c0,0-3.07,6-6.14-.11C0,569.58,83.24,328,104.73,98.78Z"/><path class="cls-6" d="M104.73,98.78S86.23,320.68,5.71,569c0,0-2.64,6.68-5.71.54C0,569.58,83.24,328,104.73,98.78Z"/><path class="cls-7" d="M104.73,98.78S85.8,320,5.29,568.39c0,0-2.22,7.33-5.29,1.19C0,569.58,83.24,328,104.73,98.78Z"/><path class="cls-8" d="M13.94,526.32a3.54,3.54,0,0,1,2.05-.89,4.74,4.74,0,0,1,2.29.33A5.93,5.93,0,0,1,20.15,527a9.52,9.52,0,0,1,.7.87,7.6,7.6,0,0,1,.51,1c-.32-.2-.59-.43-.87-.64l-.85-.61a11,11,0,0,0-1.74-1A6.74,6.74,0,0,0,13.94,526.32Z"/><path class="cls-8" d="M29.78,472.47a3,3,0,0,1,1.86-1,3.94,3.94,0,0,1,2.2.26,5.22,5.22,0,0,1,1.77,1.25,8.8,8.8,0,0,1,.65.83,8.24,8.24,0,0,1,.47.94,8.89,8.89,0,0,1-.83-.61c-.27-.19-.55-.38-.8-.58a10.25,10.25,0,0,0-1.64-.91A5.14,5.14,0,0,0,29.78,472.47Z"/><path class="cls-8" d="M46.27,412.67a3.32,3.32,0,0,1,3.5-.42,3.81,3.81,0,0,1,1.43,1.17,4.43,4.43,0,0,1,.46.78,5.27,5.27,0,0,1,.25.86c-.25-.19-.44-.39-.65-.57s-.41-.37-.62-.52a6.6,6.6,0,0,0-1.29-.81,5.15,5.15,0,0,0-1.43-.42A9.7,9.7,0,0,0,46.27,412.67Z"/><path class="cls-8" d="M62.1,348.71a1.64,1.64,0,0,1,1.31-.72,2.39,2.39,0,0,1,1.5.46,3.84,3.84,0,0,1,.56.5,6,6,0,0,1,.42.61,3.38,3.38,0,0,1,.42,1.36,10.43,10.43,0,0,1-1-.88,7.22,7.22,0,0,0-.94-.77A2.74,2.74,0,0,0,62.1,348.71Z"/><path class="cls-8" d="M75,290.16a1.7,1.7,0,0,1,.59-1.14,1.36,1.36,0,0,1,.69-.34,1.38,1.38,0,0,1,.85.17,2,2,0,0,1,.55.52,2.43,2.43,0,0,1,.26.6,2.52,2.52,0,0,1,.07,1.25,8.23,8.23,0,0,1-.76-.89,2.56,2.56,0,0,0-.62-.62.63.63,0,0,0-.63,0A8,8,0,0,0,75,290.16Z"/><path class="cls-8" d="M84.54,241.57a1.33,1.33,0,0,1,.24-1.06.84.84,0,0,1,.74-.34.87.87,0,0,1,.43.17,1.6,1.6,0,0,1,.27.25,2,2,0,0,1,.36,1,2.1,2.1,0,0,1-.13,1,4,4,0,0,1-.61-.76c-.15-.25-.3-.49-.41-.65s-.05,0-.06-.08,0,0,0,0,0,0-.09,0A7.74,7.74,0,0,0,84.54,241.57Z"/><path class="cls-8" d="M94.06,184.88a.67.67,0,0,1,0-.67.57.57,0,0,1,.49-.31.63.63,0,0,1,.38.11l.2.17a.89.89,0,0,1,.17.61,1,1,0,0,1-.25.58,1.59,1.59,0,0,1-.49-.34l-.22-.23h0a.27.27,0,0,0,.16,0c.15,0,.14-.1.09-.1A4.17,4.17,0,0,0,94.06,184.88Z"/><polygon class="cls-9" points="836.17 484.93 773.61 245.78 798.25 220.31 794.69 206.71 758.17 216.26 721.66 225.81 725.22 239.42 759.17 249.55 821.73 488.71 793.12 532.78 827.48 664.16 859.58 669.82 875.72 665.6 891.85 661.38 917.07 640.73 882.7 509.35 836.17 484.93"/><polygon class="cls-8" points="839.5 484.06 776.93 244.91 798.98 220.12 795.42 206.52 762.14 215.22 728.86 223.93 732.42 237.53 763.78 248.35 826.34 487.5 801.05 530.71 835.42 662.09 864.98 668.41 879.68 664.57 894.39 660.72 917.07 640.73 882.7 509.35 839.5 484.06"/><polygon class="cls-10" points="882.7 509.35 801.05 530.71 826.34 487.5 763.78 248.35 732.42 237.53 728.86 223.93 795.42 206.52 798.98 220.12 776.93 244.91 839.5 484.06 882.7 509.35"/><polygon class="cls-10" points="913.42 626.8 831.77 648.16 835.42 662.09 864.98 668.41 894.39 660.72 917.07 640.73 913.42 626.8"/><rect class="cls-10" x="827.51" y="621.85" width="84.4" height="9.2" transform="translate(-130.23 240.5) rotate(-14.66)"/><rect class="cls-10" x="802" y="524.33" width="84.4" height="9.2" transform="translate(-106.38 230.87) rotate(-14.66)"/><polygon class="cls-10" points="909.38 611.32 861.39 594.62 827.72 632.68 824.14 618.99 857.81 580.93 905.79 597.63 909.38 611.32"/><polygon class="cls-10" points="886.19 522.7 852.53 560.76 804.54 544.06 808.12 557.75 856.11 574.45 889.77 536.39 886.19 522.7"/><polygon class="cls-10" points="892.27 545.92 864.23 575.84 903.33 588.2 901.1 579.68 877.87 572.27 894.5 554.43 892.27 545.92"/><polygon class="cls-10" points="810.62 567.28 849.72 579.63 821.67 609.55 819.45 601.04 836.07 583.2 812.84 575.79 810.62 567.28"/><polygon class="cls-10" points="887.4 622.34 868.55 622 852.28 631.52 851.01 626.68 866.04 612.4 886.13 617.49 887.4 622.34"/><polygon class="cls-10" points="861.65 523.91 845.38 533.43 826.53 533.09 827.8 537.94 847.89 543.03 862.92 528.75 861.65 523.91"/><rect class="cls-8" x="807.18" y="386.02" width="13.6" height="54.77" transform="translate(-78.12 219.46) rotate(-14.66)"/><rect class="cls-8" x="770.47" y="245.68" width="13.6" height="54.77" transform="translate(-43.8 205.6) rotate(-14.66)"/><polygon class="cls-11" points="839.5 484.06 776.93 244.91 798.98 220.12 795.42 206.52 762.14 215.22 728.86 223.93 732.42 237.53 763.78 248.35 826.34 487.5 801.05 530.71 835.42 662.09 864.98 668.41 879.68 664.57 894.39 660.72 917.07 640.73 882.7 509.35 839.5 484.06"/><polygon class="cls-12" points="838.12 484.36 775.84 245.19 792.01 221.94 788.46 208.34 759.61 215.88 728.86 223.93 732.42 237.53 763.78 248.35 826.34 487.5 801.05 530.71 835.42 662.09 864.98 668.41 879.68 664.57 889.14 658.44 906.85 638.96 872.74 514.06 838.12 484.36"/><polygon class="cls-13" points="836.74 484.66 774.74 245.46 785.05 223.77 781.49 210.16 757.08 216.55 728.86 223.93 732.42 237.53 763.78 248.35 826.34 487.5 801.05 530.71 835.42 662.09 864.98 668.41 879.68 664.57 883.89 656.16 896.64 637.18 862.77 518.77 836.74 484.66"/><polygon class="cls-14" points="835.36 484.96 773.64 245.74 778.08 225.59 774.52 211.98 754.55 217.21 728.86 223.93 732.42 237.53 763.78 248.35 826.34 487.5 801.05 530.71 835.42 662.09 864.98 668.41 879.68 664.57 878.65 653.88 886.42 635.41 852.8 523.48 835.36 484.96"/><polygon class="cls-15" points="833.99 485.26 772.54 246.02 771.12 227.41 767.56 213.81 752.01 217.87 728.86 223.93 732.42 237.53 763.78 248.35 826.34 487.5 801.05 530.71 835.42 662.09 864.98 668.41 879.68 664.57 873.4 651.6 876.21 633.64 842.84 528.18 833.99 485.26"/><polygon class="cls-16" points="832.61 485.56 771.44 246.3 764.15 229.23 760.59 215.63 749.48 218.53 728.86 223.93 732.42 237.53 763.78 248.35 826.34 487.5 801.05 530.71 835.42 662.09 864.98 668.41 879.68 664.57 868.15 649.32 866 631.87 832.87 532.89 832.61 485.56"/><polygon class="cls-17" points="831.23 485.86 770.34 246.57 757.19 231.05 753.63 217.45 746.95 219.2 728.86 223.93 732.42 237.53 763.78 248.35 826.34 487.5 801.05 530.71 835.42 662.09 864.98 668.41 879.68 664.57 862.9 647.04 855.78 630.09 822.9 537.6 831.23 485.86"/><polygon class="cls-18" points="801.05 530.71 793.12 532.78 821.73 488.71 809.76 442.93 814.33 441.62 826.34 487.5 801.05 530.71"/><polygon class="cls-18" points="802.21 535.16 794.27 537.21 799.77 558.23 808.12 557.75 802.21 535.16"/><polygon class="cls-18" points="810.62 567.28 802.83 569.91 804.54 576.46 812.84 575.79 810.62 567.28"/><polygon class="cls-18" points="819.45 601.04 811.58 603.38 813.66 611.32 821.67 609.55 819.45 601.04"/><polygon class="cls-18" points="824.14 618.99 816.63 622.67 821.96 643.04 830.05 641.58 824.14 618.99"/><polygon class="cls-18" points="831.77 648.16 823.71 649.75 827.48 664.16 859.58 669.82 864.98 668.41 835.42 662.09 831.77 648.16"/><polygon class="cls-18" points="800.47 388.63 795.9 389.95 773.31 303.6 777.62 301.28 800.47 388.63"/><polygon class="cls-18" points="763.78 248.35 759.17 249.55 725.22 239.42 721.66 225.81 728.86 223.93 732.42 237.53 763.78 248.35"/><path class="cls-19" d="M928,659.07S685.7,401.48,718.06,0L665.87,59.74,638,153l70.83,265.84,80.61,201.65,105.89,41.83Z"/><path class="cls-20" d="M928,659.07S676.18,411.47,718.06,0L665.87,59.74,638,153l70.83,265.84,80.61,201.65,105.89,41.83Z"/><path class="cls-21" d="M928,659.07S666.66,421.46,718.06,0L665.87,59.74,638,153l70.83,265.84,80.61,201.65,105.89,41.83Z"/><path class="cls-22" d="M928,659.07S657.14,431.44,718.06,0L665.87,59.74,638,153l70.83,265.84,80.61,201.65,105.89,41.83Z"/><path class="cls-23" d="M928,659.07S647.62,441.43,718.06,0L665.87,59.74,638,153l70.83,265.84,80.61,201.65,105.89,41.83Z"/><path class="cls-24" d="M928,659.07S638.1,451.42,718.06,0L665.87,59.74,638,153l70.83,265.84,80.61,201.65,105.89,41.83Z"/><path class="cls-25" d="M928,659.07S628.58,461.41,718.06,0L665.87,59.74,638,153l70.83,265.84,80.61,201.65,105.89,41.83Z"/><path class="cls-19" d="M928,659.07S813.19,691.85,771.61,643,600.8,151.63,603.09,114,718.06,0,718.06,0,657,69.69,680.8,186.49s115.07,403.4,136.56,423.43S892,664.26,928,659.07Z"/><path class="cls-26" d="M928,659.07s-109.86,31.2-151.44-17.69-170.81-491.33-168.52-529S718.06,0,718.06,0,657,69.69,680.8,186.49s115.07,403.4,136.56,423.43S892,664.26,928,659.07Z"/><path class="cls-27" d="M928,659.07s-104.9,29.62-146.48-19.27S610.72,148.47,613,110.79,718.06,0,718.06,0,657,69.69,680.8,186.49s115.07,403.4,136.56,423.43S892,664.26,928,659.07Z"/><path class="cls-28" d="M928,659.07s-100,28-141.52-20.85S615.67,146.89,618,109.21,718.06,0,718.06,0,657,69.69,680.8,186.49s115.07,403.4,136.56,423.43S892,664.26,928,659.07Z"/><path class="cls-29" d="M928,659.07s-95,26.46-136.57-22.43-170.81-491.33-168.51-529S718.06,0,718.06,0,657,69.69,680.8,186.49s115.07,403.4,136.56,423.43S892,664.26,928,659.07Z"/><path class="cls-30" d="M928,659.07s-90,24.88-131.61-24-170.81-491.33-168.52-529S718.06,0,718.06,0,657,69.69,680.8,186.49s115.07,403.4,136.56,423.43S892,664.26,928,659.07Z"/><path class="cls-8" d="M928,659.07s-85.07,23.3-126.65-25.59-170.81-491.33-168.52-529S718.06,0,718.06,0,657,69.69,680.8,186.49s115.07,403.4,136.56,423.43S892,664.26,928,659.07Z"/><polygon class="cls-9" points="696.2 482.5 633.64 243.35 658.28 217.88 654.72 204.28 618.21 213.83 581.69 223.38 585.25 236.99 619.21 247.12 681.76 486.28 653.15 530.35 687.52 661.73 719.62 667.39 735.75 663.17 751.88 658.95 777.1 638.3 742.74 506.92 696.2 482.5"/><polygon class="cls-8" points="699.53 481.63 636.97 242.48 659.01 217.69 655.45 204.09 622.17 212.79 588.89 221.5 592.45 235.1 623.81 245.92 686.37 485.07 661.08 528.28 695.45 659.66 725.01 665.98 739.72 662.13 754.42 658.29 777.1 638.3 742.74 506.92 699.53 481.63"/><polygon class="cls-10" points="742.74 506.92 661.08 528.28 686.37 485.07 623.81 245.92 592.45 235.1 588.89 221.5 655.45 204.09 659.01 217.69 636.97 242.48 699.53 481.63 742.74 506.92"/><polygon class="cls-10" points="773.46 624.37 691.81 645.73 695.45 659.66 725.01 665.98 754.42 658.29 777.1 638.3 773.46 624.37"/><rect class="cls-10" x="687.55" y="619.42" width="84.4" height="9.2" transform="translate(-134.17 204.99) rotate(-14.66)"/><rect class="cls-10" x="662.04" y="521.9" width="84.4" height="9.2" transform="translate(-110.32 195.36) rotate(-14.66)"/><polygon class="cls-10" points="769.41 608.89 721.42 592.19 687.76 630.25 684.17 616.56 717.84 578.5 765.83 595.2 769.41 608.89"/><polygon class="cls-10" points="746.23 520.27 712.56 558.33 664.58 541.63 668.16 555.32 716.14 572.02 749.81 533.96 746.23 520.27"/><polygon class="cls-10" points="752.3 543.49 724.26 573.41 763.36 585.76 761.13 577.25 737.9 569.84 754.53 552 752.3 543.49"/><polygon class="cls-10" points="670.65 564.85 709.75 577.2 681.71 607.12 679.48 598.61 696.11 580.77 672.88 573.36 670.65 564.85"/><polygon class="cls-10" points="747.43 619.9 728.58 619.57 712.31 629.09 711.05 624.25 726.07 609.97 746.16 615.06 747.43 619.9"/><polygon class="cls-10" points="721.68 521.48 705.41 531 686.57 530.66 687.83 535.5 707.92 540.6 722.95 526.32 721.68 521.48"/><rect class="cls-8" x="667.22" y="383.59" width="13.6" height="54.77" transform="translate(-82.06 183.95) rotate(-14.66)"/><rect class="cls-8" x="630.51" y="243.25" width="13.6" height="54.77" transform="translate(-47.74 170.1) rotate(-14.66)"/><polygon class="cls-11" points="699.53 481.63 636.97 242.48 659.01 217.69 655.45 204.09 622.17 212.79 588.89 221.5 592.45 235.1 623.81 245.92 686.37 485.07 661.08 528.28 695.45 659.66 725.01 665.98 739.72 662.13 754.42 658.29 777.1 638.3 742.74 506.92 699.53 481.63"/><polygon class="cls-12" points="698.15 481.93 635.87 242.75 652.05 219.51 648.49 205.91 619.64 213.45 588.89 221.5 592.45 235.1 623.81 245.92 686.37 485.07 661.08 528.28 695.45 659.66 725.01 665.98 739.72 662.13 749.17 656.01 766.89 636.52 732.77 511.63 698.15 481.93"/><polygon class="cls-13" points="696.77 482.23 634.77 243.03 645.08 221.34 641.52 207.73 617.11 214.12 588.89 221.5 592.45 235.1 623.81 245.92 686.37 485.07 661.08 528.28 695.45 659.66 725.01 665.98 739.72 662.13 743.93 653.73 756.67 634.75 722.8 516.34 696.77 482.23"/><polygon class="cls-14" points="695.4 482.53 633.67 243.31 638.12 223.16 634.56 209.55 614.58 214.78 588.89 221.5 592.45 235.1 623.81 245.92 686.37 485.07 661.08 528.28 695.45 659.66 725.01 665.98 739.72 662.13 738.68 651.45 746.46 632.98 712.84 521.04 695.4 482.53"/><polygon class="cls-15" points="694.02 482.83 632.57 243.59 631.15 224.98 627.59 211.38 612.05 215.44 588.89 221.5 592.45 235.1 623.81 245.92 686.37 485.07 661.08 528.28 695.45 659.66 725.01 665.98 739.72 662.13 733.43 649.17 736.24 631.21 702.87 525.75 694.02 482.83"/><polygon class="cls-16" points="692.64 483.13 631.47 243.87 624.18 226.8 620.63 213.2 609.52 216.1 588.89 221.5 592.45 235.1 623.81 245.92 686.37 485.07 661.08 528.28 695.45 659.66 725.01 665.98 739.72 662.13 728.18 646.89 726.03 629.43 692.9 530.46 692.64 483.13"/><polygon class="cls-17" points="691.26 483.43 630.38 244.14 617.22 228.62 613.66 215.02 606.99 216.76 588.89 221.5 592.45 235.1 623.81 245.92 686.37 485.07 661.08 528.28 695.45 659.66 725.01 665.98 739.72 662.13 722.94 644.61 715.82 627.66 682.94 535.17 691.26 483.43"/><polygon class="cls-18" points="661.08 528.28 653.15 530.35 681.76 486.28 669.79 440.5 674.37 439.18 686.37 485.07 661.08 528.28"/><polygon class="cls-18" points="662.25 532.73 654.31 534.78 659.81 555.8 668.16 555.32 662.25 532.73"/><polygon class="cls-18" points="670.65 564.85 662.86 567.48 664.58 574.03 672.88 573.36 670.65 564.85"/><polygon class="cls-18" points="679.48 598.61 671.62 600.95 673.69 608.89 681.71 607.12 679.48 598.61"/><polygon class="cls-18" points="684.17 616.56 676.66 620.24 681.99 640.61 690.09 639.15 684.17 616.56"/><polygon class="cls-18" points="691.81 645.73 683.75 647.32 687.52 661.73 719.62 667.39 725.01 665.98 695.45 659.66 691.81 645.73"/><polygon class="cls-18" points="660.51 386.2 655.93 387.52 633.34 301.17 637.66 298.85 660.51 386.2"/><polygon class="cls-18" points="623.81 245.92 619.21 247.12 585.25 236.99 581.69 223.38 588.89 221.5 592.45 235.1 623.81 245.92"/><polygon class="cls-9" points="119.2 406.85 181.76 167.7 157.12 142.24 160.68 128.63 197.2 138.18 233.71 147.74 230.15 161.34 196.2 171.48 133.64 410.63 162.25 454.71 127.89 586.09 95.79 591.75 79.65 587.52 63.52 583.3 38.3 562.65 72.67 431.27 119.2 406.85"/><polygon class="cls-8" points="115.88 405.98 178.44 166.83 156.39 142.04 159.95 128.44 193.23 137.15 226.51 145.85 222.95 159.46 191.59 170.27 129.03 409.42 154.32 452.63 119.95 584.01 90.39 590.33 75.69 586.49 60.98 582.64 38.3 562.65 72.67 431.27 115.88 405.98"/><polygon class="cls-10" points="72.67 431.27 154.32 452.63 129.03 409.42 191.59 170.27 222.95 159.46 226.51 145.85 159.95 128.44 156.39 142.04 178.44 166.83 115.88 405.98 72.67 431.27"/><polygon class="cls-10" points="41.95 548.72 123.6 570.08 119.95 584.01 90.39 590.33 60.98 582.64 38.3 562.65 41.95 548.72"/><rect class="cls-10" x="81.06" y="506.17" width="9.2" height="84.4" transform="translate(-466.54 492.46) rotate(-75.34)"/><rect class="cls-10" x="106.57" y="408.65" width="9.2" height="84.4" transform="matrix(0.25, -0.97, 0.97, 0.25, -353.14, 444.3)"/><polygon class="cls-10" points="45.99 533.24 93.98 516.54 127.65 554.6 131.23 540.91 97.56 502.85 49.58 519.55 45.99 533.24"/><polygon class="cls-10" points="69.18 444.62 102.84 482.68 150.83 465.98 147.25 479.67 99.26 496.37 65.6 458.31 69.18 444.62"/><polygon class="cls-10" points="63.1 467.84 91.14 497.76 52.04 510.12 54.27 501.61 77.5 494.19 60.88 476.35 63.1 467.84"/><polygon class="cls-10" points="144.75 489.2 105.66 501.56 133.7 531.48 135.92 522.96 119.3 505.13 142.53 497.71 144.75 489.2"/><polygon class="cls-10" points="67.97 544.26 86.82 543.92 103.09 553.44 104.36 548.6 89.33 534.32 69.24 539.41 67.97 544.26"/><polygon class="cls-10" points="93.72 445.83 109.99 455.35 128.84 455.01 127.57 459.86 107.48 464.95 92.45 450.67 93.72 445.83"/><rect class="cls-8" x="114" y="328.52" width="54.77" height="13.6" transform="translate(-218.8 387.25) rotate(-75.34)"/><rect class="cls-8" x="150.71" y="188.19" width="54.77" height="13.6" transform="translate(-55.62 317.94) rotate(-75.34)"/><polygon class="cls-11" points="115.88 405.98 178.44 166.83 156.39 142.04 159.95 128.44 193.23 137.15 226.51 145.85 222.95 159.46 191.59 170.27 129.03 409.42 154.32 452.63 119.95 584.01 90.39 590.33 75.69 586.49 60.98 582.64 38.3 562.65 72.67 431.27 115.88 405.98"/><polygon class="cls-12" points="117.25 406.28 179.53 167.11 163.36 143.87 166.91 130.26 195.76 137.81 226.51 145.85 222.95 159.46 191.59 170.27 129.03 409.42 154.32 452.63 119.95 584.01 90.39 590.33 75.69 586.49 66.23 580.36 48.52 560.88 82.64 435.98 117.25 406.28"/><polygon class="cls-13" points="118.63 406.58 180.63 167.38 170.32 145.69 173.88 132.08 198.29 138.47 226.51 145.85 222.95 159.46 191.59 170.27 129.03 409.42 154.32 452.63 119.95 584.01 90.39 590.33 75.69 586.49 71.48 578.08 58.73 559.11 92.6 440.69 118.63 406.58"/><polygon class="cls-14" points="120.01 406.88 181.73 167.66 177.29 147.51 180.85 133.91 200.82 139.13 226.51 145.85 222.95 159.46 191.59 170.27 129.03 409.42 154.32 452.63 119.95 584.01 90.39 590.33 75.69 586.49 76.72 575.8 68.94 557.33 102.57 445.4 120.01 406.88"/><polygon class="cls-15" points="121.39 407.18 182.83 167.94 184.25 149.33 187.81 135.73 203.36 139.79 226.51 145.85 222.95 159.46 191.59 170.27 129.03 409.42 154.32 452.63 119.95 584.01 90.39 590.33 75.69 586.49 81.97 573.52 79.16 555.56 112.53 450.11 121.39 407.18"/><polygon class="cls-16" points="122.76 407.48 183.93 168.22 191.22 151.16 194.78 137.55 205.89 140.46 226.51 145.85 222.95 159.46 191.59 170.27 129.03 409.42 154.32 452.63 119.95 584.01 90.39 590.33 75.69 586.49 87.22 571.24 89.37 553.79 122.5 454.81 122.76 407.48"/><polygon class="cls-17" points="124.14 407.78 185.03 168.5 198.19 152.98 201.74 139.37 208.42 141.12 226.51 145.85 222.95 159.46 191.59 170.27 129.03 409.42 154.32 452.63 119.95 584.01 90.39 590.33 75.69 586.49 92.47 568.96 99.59 552.01 132.47 459.52 124.14 407.78"/><polygon class="cls-18" points="154.32 452.63 162.25 454.71 133.64 410.63 145.61 364.85 141.04 363.54 129.03 409.42 154.32 452.63"/><polygon class="cls-18" points="153.16 457.08 161.1 459.13 155.6 480.16 147.25 479.67 153.16 457.08"/><polygon class="cls-18" points="144.75 489.2 152.54 491.84 150.83 498.38 142.53 497.71 144.75 489.2"/><polygon class="cls-18" points="135.92 522.96 143.79 525.3 141.71 533.24 133.7 531.48 135.92 522.96"/><polygon class="cls-18" points="131.23 540.91 138.74 544.59 133.41 564.96 125.32 563.5 131.23 540.91"/><polygon class="cls-18" points="123.6 570.08 131.66 571.67 127.89 586.09 95.79 591.75 90.39 590.33 119.95 584.01 123.6 570.08"/><polygon class="cls-18" points="154.9 310.55 159.47 311.87 182.06 225.52 177.75 223.2 154.9 310.55"/><polygon class="cls-18" points="191.59 170.27 196.2 171.48 230.15 161.34 233.71 147.74 226.51 145.85 222.95 159.46 191.59 170.27"/></g></g></svg>