<svg xmlns="http://www.w3.org/2000/svg" xmlns:xlink="http://www.w3.org/1999/xlink" viewBox="0 0 10632.91 1537.21"><defs><style>.cls-1{fill:#191410;}.cls-2{fill:#302720;}.cls-3{fill:#46392f;}.cls-4{fill:#5d4c3f;}.cls-5{fill:#735f4f;}.cls-6{fill:#89715e;}.cls-7{fill:#a0846e;}.cls-8{fill:#352a22;}.cls-9{fill:#47392f;}.cls-10{fill:#59483b;}.cls-11{fill:#6b5748;}.cls-12{fill:#7c6655;}.cls-13{fill:#8e7561;}.cls-14{fill:#1c4c19;}.cls-15{fill:#2da321;}.cls-16{fill:#5b4e31;}.cls-17{fill:#645635;}.cls-18{fill:#6c5d39;}.cls-19{fill:#75653e;}.cls-20{fill:#7d6c42;}.cls-21{fill:#857346;}.cls-22{fill:#8e7b4a;}.cls-23{fill:#435629;}.cls-24{fill:#3c5426;}.cls-25{fill:#365324;}.cls-26{fill:#305121;}.cls-27{fill:#294f1e;}.cls-28{fill:#234e1c;}.cls-29{fill:#6d5e52;}.cls-30{fill:#5f5247;}.cls-31{fill:#51453c;}.cls-32{fill:#433931;}.cls-33{fill:#352d26;}.cls-34{fill:#27201b;}.cls-35{fill:#50453c;}.cls-36{fill:#6c5e53;}.cls-37{fill:#887769;}.cls-38{fill:#a38f7f;}.cls-39{fill:#bfa895;}</style><image id="image" width="7885" height="6168" xlink:href="../%C3%81rvores%20-%20Floresta/4x/Asset%208@4x.png"/><image id="image-2" width="5252" height="4898" xlink:href="../%C3%81rvores%20-%20Floresta/4x/Asset%205@4x.png"/></defs><title>BG - Estático</title><g id="Layer_2" data-name="Layer 2"><g id="Background_estático" data-name="Background estático"><path class="cls-1" d="M285.38,961.22c-.12-1,21.57-27.43,21.57-27.43l30.69-50,32.18-18.42-.64-5.68L347.87,862l21.92-27.47,2.78-27-6.77.76-21.7,38.07-18.86,18.57L305.08,911l-24.31,26.39-11.09,22Z"/><path class="cls-2" d="M306.47,912l-24.1,26.45-11.66,21,14.67,1.74c-.12-1,21.57-27.43,21.57-27.43l30.69-50,32.18-18.42-1.36-5L347.09,863l22.7-28.44,2.78-27-6.77.76-19.39,37.1L327.1,866.23Z"/><path class="cls-3" d="M307.87,913,284,939.52l-12.21,20,13.63,1.66c-.12-1,21.57-27.43,21.57-27.43l30.69-50,32.18-18.42-2.08-4.26L346.32,864l23.47-29.41,2.78-27-6.77.76-17.08,36.13L329,867.54Z"/><path class="cls-4" d="M309.27,914l-23.72,26.58-12.76,19.07,12.59,1.58c-.12-1,21.57-27.43,21.57-27.43l30.69-50,32.18-18.42-2.8-3.55L345.54,865l24.25-30.39,2.78-27-6.77.76L351,843.44l-20.21,25.4Z"/><path class="cls-5" d="M310.66,915l-23.51,26.64-13.32,18.11,11.55,1.49c-.12-1,21.57-27.43,21.57-27.43l30.69-50,32.18-18.42-3.52-2.84-21.53,3.45,25-31.36,2.78-27-6.77.76-12.46,34.18-20.66,27.67Z"/><path class="cls-6" d="M312.06,916l-23.32,26.7-13.88,17.14,10.52,1.41c-.12-1,21.57-27.43,21.57-27.43l30.69-50,32.18-18.42-4.24-2.13L344,866.9l25.8-32.33,2.78-27-6.77.76-10.16,33.2-21.1,30Z"/><path class="cls-7" d="M285.38,961.22c-.12-1,21.57-27.43,21.57-27.43l30.69-50,32.18-18.42-5-1.42-21.64,4,26.57-33.3,2.78-27-6.77.76L358,840.52,336.4,872.75,313.45,917l-23.11,26.78L275.9,959.89Z"/><polygon class="cls-8" points="236.93 957.15 255.13 951.99 253.53 937 238.99 920.4 238.83 890.18 260.43 867.42 254.12 843.75 245.64 848.86 250.24 865.12 225.42 883.79 182.88 878.47 186.11 885.82 216.73 896.13 222.49 915.56 223.5 928.35 234.18 939.41 236.93 957.15"/><polygon class="cls-9" points="235.05 938.17 237.66 953.63 254.86 949.5 252.71 936.06 238.99 920.4 238.83 890.18 260.43 867.42 254.12 843.75 246.03 849.38 251.34 865.25 227.38 884.03 182.88 878.47 188.07 885.31 219.48 895.63 224.33 914.99 225.7 927.58 235.05 938.17"/><polygon class="cls-10" points="235.92 936.94 238.39 950.12 254.6 947 251.89 935.13 238.99 920.4 238.83 890.18 260.43 867.42 254.12 843.75 246.41 849.9 252.44 865.37 229.34 884.28 182.88 878.47 190.02 884.79 222.23 895.12 226.16 914.42 227.9 926.8 235.92 936.94"/><polygon class="cls-11" points="236.79 935.7 239.12 946.6 254.33 944.5 251.07 934.19 238.99 920.4 238.83 890.18 260.43 867.42 254.12 843.75 246.8 850.43 253.54 865.5 231.29 884.52 182.88 878.47 191.98 884.28 224.99 894.62 228 913.85 230.09 926.03 236.79 935.7"/><polygon class="cls-12" points="237.66 934.47 239.86 943.09 254.06 942 250.25 933.26 238.99 920.4 238.83 890.18 260.43 867.42 254.12 843.75 247.19 850.95 254.64 865.63 233.25 884.76 182.88 878.47 193.93 883.76 227.74 894.12 229.84 913.27 232.29 925.26 237.66 934.47"/><polygon class="cls-13" points="238.53 933.23 240.59 939.57 253.8 939.5 249.44 932.32 238.99 920.4 238.83 890.18 260.43 867.42 254.12 843.75 247.57 851.48 255.74 865.75 235.21 885.01 182.88 878.47 195.88 883.25 230.49 893.62 231.68 912.7 234.49 924.49 238.53 933.23"/><polygon class="cls-7" points="241.32 936.06 253.53 937 248.62 931.39 238.99 920.4 238.83 890.18 260.43 867.42 254.12 843.75 247.96 852 256.83 865.88 237.16 885.25 182.88 878.47 197.84 882.73 233.24 893.12 233.52 912.13 236.68 923.72 239.4 932 241.32 936.06"/><polygon class="cls-1" points="237.27 1037.13 249.88 1010.7 213.88 975.36 197.48 942.26 174.16 905.49 169.01 908.81 177.69 933.87 139 903.62 73.17 880.73 81.61 900.83 133.54 918.97 166.39 957.67 187.43 994.78 144.17 967.8 99.34 965.21 102.28 976.27 141.11 983.2 178.59 1011.87 157.47 1019.04 160.26 1025.58 194.83 1013.13 217.46 1013.32 224.41 1032.41 237.27 1037.13"/><polygon class="cls-2" points="225.94 1030.1 237.8 1036.03 244.63 1021.71 248.19 1010.48 213.88 975.36 198.71 944.74 197.15 941.75 177.39 910.59 174.73 907.73 174.11 906.73 170.45 910.42 177.86 928.97 178.5 934.04 174.75 931.57 139 903.62 73.17 880.73 81.39 896.13 83.51 899.67 126.88 914.83 135.92 918.76 165.95 952.66 169.85 957.56 186.89 987.43 188.96 994.31 181.25 990.92 144.8 968.2 140.78 967.61 99.34 965.21 102.41 972.1 103.8 975.01 132.81 979.84 143.07 982.53 178.46 1009.25 180.24 1011.31 158.72 1018.62 159.8 1024.49 164.44 1023.67 195.34 1012.59 218.32 1011.3 219.72 1013.45 225.94 1030.1"/><polygon class="cls-3" points="227.48 1027.78 238.32 1034.93 244.97 1020.99 246.49 1010.26 213.88 975.36 198.46 944.25 196.83 941.24 176.75 909.57 174.34 908.44 174.06 907.97 171.88 912.03 180.25 930.46 179.3 934.21 175.34 932.03 139 903.62 73.17 880.73 82.83 895.37 85.41 898.51 129.49 913.94 138.31 918.56 169.51 952.37 173.32 957.46 190.7 987.78 190.5 993.85 182.49 991.69 145.44 968.59 141.46 967.64 99.34 965.21 103.44 971.34 105.33 973.76 134.91 978.34 145.03 981.85 181.23 1008.84 181.89 1010.75 159.96 1018.2 159.33 1023.4 163.98 1023.43 195.85 1012.04 219.18 1009.28 220.96 1010.77 227.48 1027.78"/><polygon class="cls-4" points="229.02 1025.47 238.85 1033.82 245.32 1020.27 244.8 1010.04 213.88 975.36 198.22 943.75 196.5 940.73 176.1 908.55 173.94 909.16 174 909.2 173.32 913.64 182.64 931.96 180.11 934.38 175.93 932.49 139 903.62 73.17 880.73 84.27 894.61 87.3 897.36 132.1 913.05 140.69 918.35 173.07 952.07 176.78 957.35 194.51 988.12 192.03 993.38 183.72 992.46 146.07 968.99 142.14 967.68 99.34 965.21 104.47 970.59 106.86 972.5 137.01 976.84 147 981.18 184 1008.43 183.53 1010.19 161.21 1017.77 158.87 1022.31 163.52 1023.18 196.36 1011.5 220.04 1007.26 222.19 1008.09 229.02 1025.47"/><polygon class="cls-5" points="230.56 1023.15 239.37 1032.72 245.66 1019.54 243.1 1009.82 213.88 975.36 197.97 943.25 196.18 940.21 175.45 907.53 173.54 909.87 173.96 910.44 174.75 915.25 185.03 933.45 180.91 934.55 176.52 932.95 139 903.62 73.17 880.73 85.7 893.85 89.2 896.2 134.71 912.15 143.08 918.15 176.63 951.77 180.25 957.24 198.33 988.47 193.56 992.92 184.96 993.23 146.71 969.38 142.81 967.72 99.34 965.21 105.5 969.83 108.39 971.25 139.11 975.34 148.97 980.51 186.77 1008.03 185.18 1009.63 162.46 1017.35 158.4 1021.22 163.06 1022.94 196.87 1010.96 220.91 1005.23 223.43 1005.4 230.56 1023.15"/><polygon class="cls-6" points="232.1 1020.84 239.9 1031.62 246.01 1018.82 241.41 1009.59 213.88 975.36 197.72 942.76 195.85 939.7 174.8 906.51 173.15 910.59 173.9 911.68 176.19 916.87 187.41 934.95 181.72 934.72 177.1 933.41 139 903.62 73.17 880.73 87.14 893.09 91.1 895.04 137.32 911.26 145.47 917.95 180.19 951.47 183.71 957.13 202.14 988.81 195.09 992.45 186.19 994.01 147.34 969.78 143.49 967.76 99.34 965.21 106.54 969.07 109.91 970 141.21 973.84 150.93 979.83 189.54 1007.62 186.83 1009.07 163.7 1016.93 157.94 1020.13 162.6 1022.7 197.38 1010.41 221.77 1003.21 224.67 1002.72 232.1 1020.84"/><polygon class="cls-7" points="240.43 1030.52 246.35 1018.1 213.88 975.36 197.48 942.26 174.16 905.49 172.75 911.3 189.8 936.44 177.69 933.87 139 903.62 73.17 880.73 88.58 892.34 139.93 910.37 183.75 951.17 205.96 989.15 187.43 994.78 144.17 967.8 99.34 965.21 107.57 968.3 143.31 972.34 192.31 1007.21 157.47 1019.04 162.14 1022.46 197.89 1009.87 225.9 1000.04 233.63 1018.53 240.43 1030.52"/><path class="cls-14" d="M86.06,958.91l4.71-22,10.76-35,10.28-22.52,21.65-18.49v5l-13.78,13.45-12.1,21.85-6.39,16.47s-4,21.85-4,23.54v17.62Z"/><path class="cls-14" d="M73,856.23s5.38-.67,6.72,0l9.42,4.71,6,7.39,4.55,14.46,5.21,11.77-2,4.38s-5.41-13.12-6.08-14-5.71-11.59-6.39-13.61-4.37-10.09-6.05-10.42L76,859.26Z"/><path class="cls-14" d="M108.87,898.94s8.79-1,9.8-1.36,15.13,1,16.14,0,9.08-.78,11.76-.05,4.71,4.09,7.4,6.44,8.74,9.08,8.74,9.08.67,2.55,0,3.29-4-3-6.05-5-6.72-9.08-8.07-9.42-7.39-4.68-11.43-3-11.09,4.36-13.11,4.36-8.4-1.35-10.42-1-7.52,2.77-7.52,2.77Z"/><path class="cls-14" d="M102.9,898.94l-10.11-7.41s-7.74-2.69-8.74-2.69-11.1-2-11.1-2H66.23l-8,2.69-5.81,5.72v1.67l7.4-4s6.72-3.7,9.08-3.7a35.58,35.58,0,0,1,11.76,2c4.37,1.69,8.41,5.37,10.76,5.71S101.53,902,101.53,902Z"/><path class="cls-14" d="M457.7,1027.38l2.21-5.59,6.07-7.42,3-2.69-4.38-5.39-7.24-2h-4.55l2.35-3s2.7.67,5.73,1.35S469,1006,469,1006l2,5.73,5.06-4,4-5,1.69-5.39v-2.36h3v6.06l-4,4.38s-2.7,2-1.69,2,8.76-2.7,8.76-2.7l5.73-1,3.37-8.76,1.69,2.36L497,1001.9l5.39-.33,4.05-.68,1.68,3-9.1.33-5.39,1.35,5.39,3,2.7,2.33,4.38,1.38.34,2.7-4.72.33a66.05,66.05,0,0,1-6.07-4.41c-1.34-1.32-3-4.35-4.38-4.35s-9.1,3.37-9.1,3.37l8.09,1,3.37,5.42-1.35,2.68-4.71-4.7s-5.4-2-7.08-2-10.11,2.7-10.11,2.7-3.71,2.66-4,4-1.13,11.31-1.13,11.31Z"/><polygon class="cls-14" points="559.88 1060.49 568.26 1053.44 578.58 1047.18 590.36 1032.63 592.57 1037.24 582.75 1044.72 600.92 1043.13 606.57 1044.59 606.57 1047.18 594.41 1047.18 581.8 1050.13 570.84 1056.81 570.47 1063.76 570.52 1069.25 554.65 1064.2 559.88 1060.49"/><path class="cls-14" d="M2048.66,1126.27V1117s-3.84-11.8-4.38-12.62-3.57-18.38-3.57-18.38-1.37-3.56-2.74-3.56-7.68,3.29-7.68,3.29-5.49,4.11-6.31,4.94-3.29,6.58-3.29,7.68v20l-1.92-14,1.92-15.63s5.48-7.13,6.58-7.41,5.76-1.92,6.45-1.92h2l.55-10.15,4.39-2.19s3.57,1.09,1.92,2.19-5.21,1.1-5.21,3.57v6s3.56.82,4.39,0,3.56-7.13,4.93-8.23,14-8.5,14-8.5,9.6-4.11,11-4.11,9.6,3.56,11.52,5.76,4.93,9,4.93,9l-8.23-9.6-7.95-3a42.39,42.39,0,0,0-6,1.37c-1.1.55-12.49,6.58-12.49,6.58s-4.8,4.12-5.89,5.76-5.49,8.23-5.49,9.06,6.31,20.57,6.31,21.39,3.84,17,3.84,17l-.27,4.93Z"/><path class="cls-14" d="M702.54,1126.29l1.84-11.24,6-10.42,9.47-17.36,11-5.69,1.26,1.9-9.79,5.68s-3.47,6.93-3.79,7.41l-9.68,14.82-2,13.76-.18,2.06Z"/><polygon class="cls-14" points="23.2 956.73 21.18 938.35 12.61 915.76 0 889.94 0 896.32 14.62 929.61 19.59 958.91 23.2 958.91 23.2 956.73"/><polygon class="cls-14" points="52.44 958.91 56.48 939.24 65.56 924.37 68.92 925.8 60.68 938.57 54.8 958.91 52.44 958.91"/><path class="cls-14" d="M133.46,860.36h15.8L163,863l10.35,10.09,7.17,11.77L163,867.75S152,863.38,151,863.38s-8.41-.67-9.75-.67-7.74,2.69-7.74,2.69Z"/><polygon class="cls-14" points="143.07 958.91 157 935.66 180.53 902.37 173.36 918.18 147.31 958.93 143.07 958.91"/><polygon class="cls-14" points="2136.44 1092.13 2115.04 1034.66 2111.2 1008.88 2118.33 1033.56 2141.11 1092.13 2141.11 1100.08 2136.44 1092.13"/><path class="cls-14" d="M2443.7,944.49l-2-17.68-8.18-19.38-4.59,4-1.31,6.55-2.62-2.62,1.8-4.58,5.57-5.4-9.66-6.71-8.35-2.3-2.62,9.5-2.89-.49,4.2-9-6.71.82-9.17.33-4.25,6.06-2.13-.17,3.93-6.38s2.29-2.62,2-3.11-2.78-8.84-2.78-8.84-1.64-5.57-2.13-5.89-3.93-4.75-3.93-4.75l2.95-9.66,3-4.58a30.47,30.47,0,0,1,3.93,2.78c.49.65,1,5.07,1,6.38s.32,7.86.32,7.86l-3.11-.82s.5-2.94.66-3.6.82-3.6.33-4.42a13.22,13.22,0,0,0-2.62-2.29,25.54,25.54,0,0,0-1.64,3.6c0,.49-.82,7.2-.33,7.53s3.93,4.58,4.1,5.4,1.14,9.83,1.14,9.83l12.12.81.65-7.2,3.44-7.53,2,1.15-3.35,6.05s-.66,3.77-.66,4.75v2.95l12.61,2.45,2.45-6.38s5.08-7,5.57-7,3.11-16.53,3.11-16.53l1.64.16-2,14.41,7.86-6.23,5.57-6,9.82.16,1.31-1.8,2.12,1.15-2.78,2.62-8.35.65s-3.76,3.11-4.58,3.6-4.26,1.15-1.64,1.48,8,.32,8,.32a24.36,24.36,0,0,0,2.79-2.45,14.93,14.93,0,0,1,2.94-2.13l-.49,3.6s-4.25,3.77-4.91,3.77-11.13-.82-11.13-.82-4.42,3.43-5.07,4.09-6.39,5.73-6.39,5.73-2.29,3.93-2.29,4.58-.33,4.91-.33,4.91,4.26,1,4.26,1.48,3.76-3.6,3.76-3.6l3.6-5.24,1.64,1.14s-4.09,4.42-4.58,5.08a20,20,0,0,0-2.29,4.58c0,.66,2,3.6,2.12,4.42s3.44,7,3.44,7l6.22-6.71,3.6-1,2,2.78S2445,909,2444.2,910a33.64,33.64,0,0,0-2.95,4.42,40.45,40.45,0,0,0,0,4.42l1.64,6.71s3.92-2.62,4.42-3.11l7.2-7.2,6.06-2.29,6.22-1,.65,1s-4.58,2.94-5.57,2.94-4.91-.16-5.89,1.15-3.93,3.27-2.94,3.76,8.67,1.64,8.67,1.64,5.89,1.15,6.55,1.15.65,2.13.65,2.13-5.23.16-6,0-8-1.64-8.68-1.64-6.06,1.14-6.06,1.14l-.32,8.35,4,12-8.33,1Z"/><path class="cls-14" d="M2517.4,910.61l1.26-21.51,14.55-16.76-1.89-.64-12.81,14.08.15-8.54L2521,864l-3.64,10.91-.79-13.29V850.67l8.3-13H2521l-7.28,11.86s.95,20.55.95,21,.48,5.06.48,5.06l-3.8-3.8-6-8.22-1.26,1.11,9.17,12.65-5.54-2.53-6.64,1.9-3.64,3.47,1.27.64s4.11-2.38,4.74-2.53,2.38-1.43,3.8-1.11,4.43,2.53,5.53,3.16a7.52,7.52,0,0,1,2.53,3.32c.48,1.11,0,19.61,0,19.61v10.91l2.06-.79Z"/><path class="cls-14" d="M2635.7,896l6-15.48s14.12-22,15.13-23.38,4.37-6.72,4.37-6.72l-3.36-5.71h5.71l4.37,7.39s-18.15,21.79-18.82,22.49-9.75,21.41-9.75,21.41Z"/><polygon class="cls-14" points="3173.03 1324.12 3167.83 1295.39 3167.83 1272.69 3162.29 1261.59 3152.71 1261.59 3162.79 1270.68 3162.79 1299.32 3169.61 1324.12 3173.03 1324.12"/><polygon class="cls-15" points="3455.98 956.67 3444.18 942.38 3437.11 927.76 3430.05 918.18 3426.85 921.71 3430.56 927.76 3445.69 949.02 3453.92 958.86 3455.98 956.67"/><path class="cls-14" d="M7037.61,959.82l4-19.73,4-7.79-6.05-8.57-7.56-3.37H7019l-23.2,6.9-18.66,12.83,23.7-19.73,26.73-5.21,12.1,3,6.05,5.55V910.11l-12.1-11.6-19.67-8.57h-10.59l-26.22,8.57-7.56,9.58V902.8l16.13-12.86,27.24-4,32.77,16.9,4-11.85,3-12.11,18.16-14.62,18.15-4.54v3l-18.15,3.78-15.38,14.12-3,19.16L7051,912.13l11.09-13.37,11.6-4,9.08,1.51-3.79,4.29-12.1.25s-7.31,9.83-8.32,10.34-8.57,7.06-8.57,7.06l-2.77,7.06L7051,930l15.88-16.14L7087,915.4l-3,2-15.13-.75-18.66,17.14-5.55,10.34-1.51,15.67Z"/><polygon class="cls-16" points="2841.87 692.23 2843.34 675.91 2854.74 660.2 2870.19 624.29 2872.1 611.07 2889.16 602.31 2893.47 614.71 2883.07 624.72 2877.96 660.2 2872.06 692.23 2841.87 692.23"/><polygon class="cls-17" points="2844.51 675.91 2855.64 660.44 2870.34 624.52 2872.93 610.98 2889.17 602.23 2893.28 614.63 2882.61 624.95 2877.47 660.2 2871.85 692.23 2843.11 692.23 2844.51 675.91"/><polygon class="cls-18" points="2845.68 675.91 2856.53 660.67 2870.5 624.76 2873.76 610.9 2889.18 602.14 2893.08 614.54 2882.14 625.18 2876.97 660.2 2871.64 692.23 2844.35 692.23 2845.68 675.91"/><polygon class="cls-19" points="2846.85 675.91 2857.43 660.9 2870.65 624.99 2874.59 610.82 2889.19 602.06 2892.88 614.46 2881.67 625.42 2876.48 660.2 2871.43 692.23 2845.59 692.23 2846.85 675.91"/><polygon class="cls-20" points="2848.02 675.91 2858.32 661.14 2870.8 625.22 2875.42 610.73 2889.2 601.98 2892.68 614.38 2881.2 625.65 2875.98 660.2 2871.22 692.23 2846.83 692.23 2848.02 675.91"/><polygon class="cls-21" points="2849.19 675.91 2859.22 661.37 2870.96 625.46 2876.25 610.65 2889.21 601.89 2892.48 614.29 2880.74 625.89 2875.49 660.2 2871.01 692.23 2848.07 692.23 2849.19 675.91"/><polygon class="cls-22" points="2849.31 692.23 2850.36 675.91 2860.11 661.61 2871.11 625.69 2877.08 610.57 2889.22 601.81 2892.28 614.21 2880.27 626.12 2874.99 660.2 2870.8 692.23 2849.31 692.23"/><polygon class="cls-22" points="2841.59 705.81 2839.32 681.27 2877.5 688.4 2867.34 708.37 2841.59 705.81"/><polygon class="cls-21" points="2839.45 682.67 2876.85 689.69 2867.34 708.37 2841.59 705.81 2839.45 682.67"/><polygon class="cls-20" points="2839.58 684.08 2876.2 690.97 2867.34 708.37 2841.59 705.81 2839.58 684.08"/><polygon class="cls-19" points="2839.71 685.48 2875.55 692.25 2867.34 708.37 2841.59 705.81 2839.71 685.48"/><polygon class="cls-18" points="2839.84 686.89 2874.89 693.53 2867.34 708.37 2841.59 705.81 2839.84 686.89"/><polygon class="cls-17" points="2839.97 688.29 2874.24 694.81 2867.34 708.37 2841.59 705.81 2839.97 688.29"/><polygon class="cls-16" points="2841.59 705.81 2840.1 689.7 2873.59 696.1 2867.34 708.37 2841.59 705.81"/><polygon class="cls-22" points="2836.68 724.67 2834.02 695.93 2878.73 704.28 2866.84 727.66 2836.68 724.67"/><polygon class="cls-21" points="2834.18 697.57 2877.97 705.78 2866.84 727.66 2836.68 724.67 2834.18 697.57"/><polygon class="cls-20" points="2834.33 699.22 2877.21 707.28 2866.84 727.66 2836.68 724.67 2834.33 699.22"/><polygon class="cls-19" points="2834.48 700.86 2876.44 708.78 2866.84 727.66 2836.68 724.67 2834.48 700.86"/><polygon class="cls-18" points="2834.63 702.5 2875.68 710.28 2866.84 727.66 2836.68 724.67 2834.63 702.5"/><polygon class="cls-17" points="2834.78 704.15 2874.92 711.79 2866.84 727.66 2836.68 724.67 2834.78 704.15"/><polygon class="cls-16" points="2836.68 724.67 2834.94 705.79 2874.15 713.29 2866.84 727.66 2836.68 724.67"/><polygon class="cls-22" points="2831.07 741.86 2828.42 713.12 2873.13 721.48 2861.23 744.86 2831.07 741.86"/><polygon class="cls-21" points="2828.57 714.77 2872.36 722.98 2861.23 744.86 2831.07 741.86 2828.57 714.77"/><polygon class="cls-20" points="2828.72 716.41 2871.6 724.48 2861.23 744.86 2831.07 741.86 2828.72 716.41"/><polygon class="cls-19" points="2828.87 718.05 2870.83 725.98 2861.23 744.86 2831.07 741.86 2828.87 718.05"/><polygon class="cls-18" points="2829.02 719.7 2870.07 727.48 2861.23 744.86 2831.07 741.86 2829.02 719.7"/><polygon class="cls-17" points="2829.18 721.34 2869.31 728.98 2861.23 744.86 2831.07 741.86 2829.18 721.34"/><polygon class="cls-16" points="2831.07 741.86 2829.33 722.99 2868.54 730.48 2861.23 744.86 2831.07 741.86"/><polygon class="cls-22" points="2826.09 759.46 2823.44 730.72 2868.15 739.08 2856.25 762.46 2826.09 759.46"/><polygon class="cls-21" points="2823.59 732.37 2867.38 740.58 2856.25 762.46 2826.09 759.46 2823.59 732.37"/><polygon class="cls-20" points="2823.74 734.01 2866.62 742.08 2856.25 762.46 2826.09 759.46 2823.74 734.01"/><polygon class="cls-19" points="2823.89 735.65 2865.86 743.58 2856.25 762.46 2826.09 759.46 2823.89 735.65"/><polygon class="cls-18" points="2824.05 737.3 2865.09 745.08 2856.25 762.46 2826.09 759.46 2824.05 737.3"/><polygon class="cls-17" points="2824.2 738.94 2864.33 746.58 2856.25 762.46 2826.09 759.46 2824.2 738.94"/><polygon class="cls-16" points="2826.09 759.46 2824.35 740.59 2863.56 748.08 2856.25 762.46 2826.09 759.46"/><polygon class="cls-22" points="2823.64 776.26 2820.98 747.52 2865.69 755.88 2853.8 779.26 2823.64 776.26"/><polygon class="cls-21" points="2821.13 749.17 2864.93 757.38 2853.8 779.26 2823.64 776.26 2821.13 749.17"/><polygon class="cls-20" points="2821.29 750.81 2864.16 758.88 2853.8 779.26 2823.64 776.26 2821.29 750.81"/><polygon class="cls-19" points="2821.44 752.46 2863.4 760.38 2853.8 779.26 2823.64 776.26 2821.44 752.46"/><polygon class="cls-18" points="2821.59 754.1 2862.64 761.88 2853.8 779.26 2823.64 776.26 2821.59 754.1"/><polygon class="cls-17" points="2821.74 755.75 2861.87 763.38 2853.8 779.26 2823.64 776.26 2821.74 755.75"/><polygon class="cls-16" points="2823.64 776.26 2821.89 757.39 2861.11 764.89 2853.8 779.26 2823.64 776.26"/><polygon class="cls-22" points="2822.17 787.72 2819.51 758.99 2864.22 767.34 2852.32 790.72 2822.17 787.72"/><polygon class="cls-21" points="2819.66 760.63 2863.46 768.84 2852.32 790.72 2822.17 787.72 2819.66 760.63"/><polygon class="cls-20" points="2819.82 762.27 2862.69 770.34 2852.32 790.72 2822.17 787.72 2819.82 762.27"/><polygon class="cls-19" points="2819.97 763.92 2861.93 771.84 2852.32 790.72 2822.17 787.72 2819.97 763.92"/><polygon class="cls-18" points="2820.12 765.56 2861.17 773.34 2852.32 790.72 2822.17 787.72 2820.12 765.56"/><polygon class="cls-17" points="2820.27 767.21 2860.4 774.85 2852.32 790.72 2822.17 787.72 2820.27 767.21"/><polygon class="cls-16" points="2822.17 787.72 2820.42 768.85 2859.64 776.35 2852.32 790.72 2822.17 787.72"/><polygon class="cls-22" points="2820.22 805.87 2814.73 777.54 2860.05 781.43 2850.52 805.87 2820.22 805.87"/><polygon class="cls-21" points="2815.04 779.16 2859.44 783 2850.52 805.87 2820.22 805.87 2815.04 779.16"/><polygon class="cls-20" points="2815.36 780.78 2858.82 784.57 2850.52 805.87 2820.22 805.87 2815.36 780.78"/><polygon class="cls-19" points="2815.67 782.4 2858.21 786.14 2850.52 805.87 2820.22 805.87 2815.67 782.4"/><polygon class="cls-18" points="2815.99 784.02 2857.6 787.71 2850.52 805.87 2820.22 805.87 2815.99 784.02"/><polygon class="cls-17" points="2816.3 785.65 2856.99 789.27 2850.52 805.87 2820.22 805.87 2816.3 785.65"/><polygon class="cls-16" points="2820.22 805.87 2816.61 787.27 2856.38 790.84 2850.52 805.87 2820.22 805.87"/><polygon class="cls-22" points="2816.33 827.62 2810.04 795.16 2861.96 799.61 2851.05 827.62 2816.33 827.62"/><polygon class="cls-21" points="2810.4 797.02 2861.26 801.41 2851.05 827.62 2816.33 827.62 2810.4 797.02"/><polygon class="cls-20" points="2810.76 798.87 2860.56 803.21 2851.05 827.62 2816.33 827.62 2810.76 798.87"/><polygon class="cls-19" points="2811.12 800.73 2859.86 805.01 2851.05 827.62 2816.33 827.62 2811.12 800.73"/><polygon class="cls-18" points="2811.48 802.59 2859.16 806.8 2851.05 827.62 2816.33 827.62 2811.48 802.59"/><polygon class="cls-17" points="2811.84 804.45 2858.45 808.6 2851.05 827.62 2816.33 827.62 2811.84 804.45"/><polygon class="cls-16" points="2816.33 827.62 2812.2 806.3 2857.76 810.4 2851.05 827.62 2816.33 827.62"/><polygon class="cls-22" points="2812.57 843.85 2806.28 811.39 2858.2 815.84 2847.29 843.85 2812.57 843.85"/><polygon class="cls-21" points="2806.64 813.25 2857.5 817.64 2847.29 843.85 2812.57 843.85 2806.64 813.25"/><polygon class="cls-20" points="2807 815.1 2856.8 819.44 2847.29 843.85 2812.57 843.85 2807 815.1"/><polygon class="cls-19" points="2807.36 816.96 2856.1 821.24 2847.29 843.85 2812.57 843.85 2807.36 816.96"/><polygon class="cls-18" points="2807.72 818.82 2855.4 823.04 2847.29 843.85 2812.57 843.85 2807.72 818.82"/><polygon class="cls-17" points="2808.08 820.68 2854.7 824.83 2847.29 843.85 2812.57 843.85 2808.08 820.68"/><polygon class="cls-16" points="2812.57 843.85 2808.44 822.53 2854 826.63 2847.29 843.85 2812.57 843.85"/><polygon class="cls-22" points="2808.8 861.4 2801.97 826.14 2858.36 830.98 2846.51 861.4 2808.8 861.4"/><polygon class="cls-21" points="2802.36 828.16 2857.59 832.93 2846.51 861.4 2808.8 861.4 2802.36 828.16"/><polygon class="cls-20" points="2802.75 830.18 2856.84 834.89 2846.51 861.4 2808.8 861.4 2802.75 830.18"/><polygon class="cls-19" points="2803.14 832.2 2856.07 836.84 2846.51 861.4 2808.8 861.4 2803.14 832.2"/><polygon class="cls-18" points="2803.53 834.21 2855.31 838.79 2846.51 861.4 2808.8 861.4 2803.53 834.21"/><polygon class="cls-17" points="2803.92 836.23 2854.55 840.75 2846.51 861.4 2808.8 861.4 2803.92 836.23"/><polygon class="cls-16" points="2808.8 861.4 2804.31 838.25 2853.79 842.7 2846.51 861.4 2808.8 861.4"/><polygon class="cls-22" points="2804.64 881.17 2797.81 845.92 2854.19 850.75 2842.34 881.17 2804.64 881.17"/><polygon class="cls-21" points="2798.2 847.93 2853.43 852.71 2842.34 881.17 2804.64 881.17 2798.2 847.93"/><polygon class="cls-20" points="2798.59 849.95 2852.67 854.66 2842.34 881.17 2804.64 881.17 2798.59 849.95"/><polygon class="cls-19" points="2798.98 851.97 2851.91 856.61 2842.34 881.17 2804.64 881.17 2798.98 851.97"/><polygon class="cls-18" points="2799.37 853.99 2851.15 858.57 2842.34 881.17 2804.64 881.17 2799.37 853.99"/><polygon class="cls-17" points="2799.76 856 2850.39 860.52 2842.34 881.17 2804.64 881.17 2799.76 856"/><polygon class="cls-16" points="2804.64 881.17 2800.15 858.02 2849.63 862.47 2842.34 881.17 2804.64 881.17"/><polygon class="cls-22" points="2803.94 895.99 2797.11 860.73 2853.5 865.57 2841.65 895.99 2803.94 895.99"/><polygon class="cls-21" points="2797.5 862.75 2852.74 867.52 2841.65 895.99 2803.94 895.99 2797.5 862.75"/><polygon class="cls-20" points="2797.89 864.77 2851.98 869.48 2841.65 895.99 2803.94 895.99 2797.89 864.77"/><polygon class="cls-19" points="2798.28 866.79 2851.22 871.43 2841.65 895.99 2803.94 895.99 2798.28 866.79"/><polygon class="cls-18" points="2798.68 868.8 2850.46 873.38 2841.65 895.99 2803.94 895.99 2798.68 868.8"/><polygon class="cls-17" points="2799.07 870.82 2849.7 875.34 2841.65 895.99 2803.94 895.99 2799.07 870.82"/><polygon class="cls-16" points="2803.94 895.99 2799.46 872.84 2848.94 877.29 2841.65 895.99 2803.94 895.99"/><polygon class="cls-23" points="2872.1 611.07 2885.17 583.7 2894.89 579.91 2905.01 546.55 2918.45 538.2 2908.46 530.61 2911.33 520.78 2934.07 525.6 2941.07 533.24 2925.41 538.67 2906.11 594.02 2893.47 614.71 2889.16 602.31 2872.1 611.07"/><polygon class="cls-24" points="2886.14 584.28 2895.86 580.5 2906.32 546.86 2919.19 537.9 2909.26 530.41 2911.33 520.78 2934.07 525.6 2941.07 533.24 2925.41 538.67 2906.11 594.02 2893.47 614.71 2889.16 602.31 2872.1 611.07 2886.14 584.28"/><polygon class="cls-25" points="2887.1 584.87 2896.82 581.09 2907.63 547.16 2919.93 537.61 2910.06 530.21 2911.33 520.78 2934.07 525.6 2941.07 533.24 2925.41 538.67 2906.11 594.02 2893.47 614.71 2889.16 602.31 2872.1 611.07 2887.1 584.87"/><polygon class="cls-26" points="2888.07 585.45 2897.78 581.67 2908.94 547.47 2920.68 537.32 2910.86 530.02 2911.33 520.78 2934.07 525.6 2941.07 533.24 2925.41 538.67 2906.11 594.02 2893.47 614.71 2889.16 602.31 2872.1 611.07 2888.07 585.45"/><polygon class="cls-27" points="2889.03 586.04 2898.75 582.26 2910.25 547.78 2921.42 537.02 2911.66 529.82 2911.33 520.78 2934.07 525.6 2941.07 533.24 2925.41 538.67 2906.11 594.02 2893.47 614.71 2889.16 602.31 2872.1 611.07 2889.03 586.04"/><polygon class="cls-28" points="2889.99 586.62 2899.71 582.84 2911.56 548.08 2922.16 536.73 2912.47 529.63 2911.33 520.78 2934.07 525.6 2941.07 533.24 2925.41 538.67 2906.11 594.02 2893.47 614.71 2889.16 602.31 2872.1 611.07 2889.99 586.62"/><polygon class="cls-14" points="2872.1 611.07 2890.96 587.21 2900.68 583.43 2912.87 548.39 2922.91 536.44 2913.27 529.43 2911.33 520.78 2934.07 525.6 2941.07 533.24 2925.41 538.67 2906.11 594.02 2893.47 614.71 2889.16 602.31 2872.1 611.07"/><polygon class="cls-14" points="2931.71 530.37 2954.9 533.22 2955.8 533.33 2956.2 534.08 2975.65 570.61 2975.78 570.84 2975.79 571.08 2978.55 621.85 2978.54 621.77 2986.34 653.14 2977.69 621.99 2977.68 621.96 2977.68 621.91 2973.55 571.23 2973.68 571.69 2953.25 535.7 2954.54 536.57 2931.27 534.34 2931.71 530.37"/><polygon class="cls-14" points="2917.16 524.8 2889.41 500.88 2890.74 501.24 2835.36 510.45 2836.1 509.92 2784.77 601.27 2834.24 508.9 2834.47 508.46 2834.99 508.37 2890.18 498.03 2890.91 497.9 2891.51 498.39 2919.74 521.74 2917.16 524.8"/><polygon class="cls-14" points="2922.08 538.43 2890.49 540.29 2891.18 540.09 2856.19 559.58 2856.69 559 2840.48 599.17 2840.53 598.93 2840.62 653.14 2839.24 598.94 2839.24 598.83 2839.29 598.7 2854.55 558.16 2854.68 557.8 2855.05 557.58 2889.57 537.26 2889.87 537.08 2890.26 537.05 2921.8 534.44 2922.08 538.43"/><polygon class="cls-14" points="2928.63 534.14 2926.5 559.68 2925.45 572.46 2924.83 585.26 2922.36 636.47 2922.36 636.38 2927.01 663.41 2921.53 636.54 2921.52 636.5 2921.52 636.45 2922.41 585.14 2922.64 572.31 2923.29 559.5 2924.64 533.87 2928.63 534.14"/><polygon class="cls-14" points="2925.78 525.85 2969.21 499.33 2969.74 499.01 2970.32 499.11 3006.99 505.64 3007.55 505.74 3007.85 506.21 3037.47 552.85 3037.56 552.99 3037.59 553.15 3046.98 606.88 3046.99 606.94 3046.99 606.99 3041.82 653.89 3046.22 606.91 3046.22 607.02 3035.96 553.45 3036.08 553.75 3005.7 507.6 3006.56 508.17 2969.79 502.24 2970.89 502.02 2927.89 529.25 2925.78 525.85"/><polygon class="cls-14" points="2923.19 635.38 2932.77 640.58 2933.18 640.8 2933.28 641.06 2937.91 652.21 2931.42 642.03 2931.93 642.51 2921.6 639.04 2923.19 635.38"/><polygon class="cls-14" points="2922.46 627.84 2934.15 630.75 2934.5 630.83 2934.63 630.98 2941.07 638.21 2933.41 632.28 2933.88 632.51 2921.86 631.79 2922.46 627.84"/><polygon class="cls-14" points="2923.63 612.36 2939.49 619.89 2939.64 619.97 2939.69 620.02 2945.71 626.25 2938.81 621 2939.02 621.13 2922.19 616.09 2923.63 612.36"/><polygon class="cls-14" points="2923.06 600.31 2934.02 601.37 2934.43 601.41 2934.61 601.57 2941.69 608.41 2933.43 603.05 2934.02 603.25 2923.06 604.31 2923.06 600.31"/><polygon class="cls-14" points="2923.45 586.09 2935.63 586.53 2936.19 586.55 2936.44 586.85 2945.71 597.81 2934.9 588.37 2935.71 588.69 2923.61 590.09 2923.45 586.09"/><polygon class="cls-14" points="2923.35 574.4 2936.4 573.91 2936.95 573.89 2937.19 574.21 2943.89 583.03 2935.83 575.44 2936.62 575.74 2923.83 578.38 2923.35 574.4"/><polygon class="cls-14" points="2923.97 563.74 2935.44 561.82 2935.85 561.75 2936.06 561.88 2943.89 566.68 2935.29 563.47 2935.9 563.53 2925 567.6 2923.97 563.74"/><polygon class="cls-14" points="2924.85 552.96 2938.57 551.74 2938.84 551.71 2938.96 551.77 2946.09 555.33 2938.43 553.14 2938.83 553.18 2925.57 556.9 2924.85 552.96"/><polygon class="cls-14" points="2924.96 560.68 2916.56 559.77 2917.21 559.55 2908.46 564.68 2915.91 557.8 2916.09 557.64 2916.56 557.59 2924.96 556.68 2924.96 560.68"/><polygon class="cls-14" points="2924.84 571.43 2915.71 574.45 2916.28 573.91 2909.14 585.32 2914.21 572.85 2914.33 572.55 2914.79 572.31 2923.26 567.75 2924.84 571.43"/><polygon class="cls-14" points="2924.82 583.69 2915.15 590.62 2915.24 590.52 2906.59 598.68 2913.76 589.19 2913.85 589.1 2922.23 580.64 2924.82 583.69"/><polygon class="cls-14" points="2924.14 600.69 2907.08 608.79 2907.37 608.53 2897.86 620.24 2905.93 607.49 2906.01 607.37 2906.22 607.23 2922.21 597.18 2924.14 600.69"/><polygon class="cls-14" points="2923.76 609.47 2910.7 620.16 2910.95 619.66 2908.51 631.63 2909.29 619.43 2909.3 619.2 2909.55 618.93 2921.03 606.55 2923.76 609.47"/><polygon class="cls-14" points="2923.59 622.01 2914.23 633.84 2914.38 633.51 2909.14 649.25 2912.36 632.98 2912.38 632.86 2912.51 632.65 2920.3 619.73 2923.59 622.01"/><polygon class="cls-14" points="2923.82 633.65 2917.78 647.99 2917.84 647.61 2916.71 668.03 2915.57 647.61 2915.57 647.48 2915.64 647.23 2920.06 632.3 2923.82 633.65"/><polygon class="cls-14" points="2947.97 534.63 2942.29 548.33 2942.36 547.77 2943.58 574.83 2939.79 548.01 2939.76 547.79 2939.86 547.46 2944.21 533.27 2947.97 534.63"/><path class="cls-14" d="M2958.59,538l-2,11.78c-.64,3.93-1.35,7.86-1.93,11.81l-2.47,23.78.48-24c.25-4,.63-8,.93-11.94l1-11.95Z"/><polygon class="cls-14" points="2969.7 561.56 2962.42 579.19 2962.46 579.04 2956.76 601.27 2960.32 578.6 2960.32 578.58 2960.36 578.46 2965.93 560.22 2969.7 561.56"/><polygon class="cls-14" points="2976.58 580.99 2963.07 591.35 2963.49 590.51 2960.51 616.08 2961.09 590.34 2961.1 589.89 2961.51 589.5 2974 577.93 2976.58 580.99"/><polygon class="cls-14" points="2977.43 597.33 2967.7 602.98 2968.28 602.2 2959.7 626.75 2965.6 601.42 2965.7 600.99 2966.17 600.64 2975.24 593.98 2977.43 597.33"/><polygon class="cls-14" points="2979.18 616.39 2971.03 627.04 2971.24 626.47 2966.94 650.5 2968.68 626.15 2968.7 625.9 2968.9 625.58 2975.89 614.13 2979.18 616.39"/><polygon class="cls-14" points="2978.63 608.11 2988.93 619.27 2989.11 619.46 2989.14 619.6 2991.14 628.51 2987.7 620.04 2987.91 620.37 2975.93 611.06 2978.63 608.11"/><polygon class="cls-14" points="2977.38 599.27 2988.47 600.85 2989.12 600.94 2989.29 601.39 2992.97 611.2 2987.55 602.23 2988.37 602.78 2977.18 603.27 2977.38 599.27"/><polygon class="cls-14" points="2975.54 588.47 2986.1 587.03 2986.8 586.93 2987.13 587.34 2995.18 597.33 2985.55 588.85 2986.58 589.16 2976.42 592.38 2975.54 588.47"/><polygon class="cls-14" points="2976.16 574.4 2985.69 576.07 2986.14 576.15 2986.34 576.33 2997.31 586.64 2984.82 578.23 2985.46 578.49 2975.79 578.38 2976.16 574.4"/><polygon class="cls-14" points="2972.82 565.81 2983.19 563.96 2983.91 563.83 2984.29 564.23 2995.18 575.54 2982.7 566.01 2983.79 566.28 2973.82 569.68 2972.82 565.81"/><polygon class="cls-14" points="2966.05 553.27 2980.43 555.56 2980.61 555.59 2980.66 555.62 2985.38 558.68 2980.15 556.61 2980.37 556.67 2965.82 557.27 2966.05 553.27"/><polygon class="cls-14" points="2903.45 537.35 2908.69 550.41 2908.82 550.75 2908.8 550.98 2906.59 572.98 2906.36 550.87 2906.47 551.45 2899.82 539.04 2903.45 537.35"/><polygon class="cls-14" points="2891.36 538.7 2894.57 553.79 2894.61 553.94 2894.61 553.97 2896.38 579.46 2892.13 554.26 2892.16 554.43 2887.49 539.73 2891.36 538.7"/><polygon class="cls-14" points="2883.58 543.34 2885.83 560.66 2885.85 560.8 2885.85 560.84 2885.17 583.7 2883.58 560.88 2883.6 561.06 2879.64 544.05 2883.58 543.34"/><polygon class="cls-14" points="2870.26 550.47 2874.56 563.24 2874.65 563.49 2874.64 563.61 2874.01 577.55 2872.61 563.66 2872.69 564.03 2866.58 552.02 2870.26 550.47"/><polygon class="cls-14" points="2860.17 555.33 2866.18 561.76 2866.57 562.18 2866.62 562.59 2870.19 590.42 2863.63 563.14 2864.07 563.96 2857.4 558.21 2860.17 555.33"/><polygon class="cls-14" points="2853.32 567.42 2859.43 576.7 2859.64 577.01 2859.68 577.23 2864.49 604.7 2856.89 577.87 2857.13 578.4 2850.1 569.79 2853.32 567.42"/><polygon class="cls-14" points="2847.43 583.25 2855.76 599.2 2855.82 599.32 2855.83 599.35 2861.39 616.08 2853.99 600.07 2854.06 600.22 2843.99 585.29 2847.43 583.25"/><polygon class="cls-14" points="2842.22 601.11 2851.25 614.53 2851.36 614.7 2851.39 614.78 2860.03 637.78 2849.18 615.74 2849.32 615.98 2839.01 603.51 2842.22 601.11"/><polygon class="cls-14" points="2840.81 630.21 2839.32 629.06 2841.5 626.19 2853.55 639.74 2839.04 628.85 2841.23 625.98 2842.92 626.81 2840.81 630.21"/><polygon class="cls-14" points="2842.32 620.59 2829.52 637.78 2838.91 618.51 2842.32 620.59"/><polygon class="cls-14" points="2840.89 607.96 2829.52 612.3 2838.88 604.51 2840.89 607.96"/><polygon class="cls-14" points="2846.45 586.64 2834.82 596.82 2843.45 584 2846.45 586.64"/><polygon class="cls-14" points="2996.44 505.63 2988.92 521.65 2989.03 521.07 2988.42 564.4 2986.19 521.12 2986.18 520.86 2986.31 520.53 2992.77 504.05 2996.44 505.63"/><polygon class="cls-14" points="2982.39 503.11 2974.84 522.08 2974.89 521.83 2970.91 548.39 2972.63 521.59 2972.64 521.5 2972.69 521.33 2978.62 501.79 2982.39 503.11"/><polygon class="cls-14" points="2966.54 503.74 2957.75 522.69 2957.85 522.15 2958.2 556.77 2955.35 522.26 2955.34 522.02 2955.45 521.72 2962.85 502.19 2966.54 503.74"/><polygon class="cls-14" points="2949.08 515.04 2946.09 540.46 2945.08 514.88 2949.08 515.04"/><polygon class="cls-14" points="3010.24 510.18 3000.89 530.31 3000.98 529.9 2998.91 559.34 2998.7 529.83 2998.7 529.66 2998.79 529.42 3006.55 508.64 3010.24 510.18"/><polygon class="cls-14" points="3018.93 523.64 3012.04 538.23 3012.15 537.7 3010.79 571.79 3009.43 537.7 3009.43 537.48 3009.54 537.17 3015.25 522.08 3018.93 523.64"/><polygon class="cls-14" points="3031.83 542.5 3026.19 581.51 3027.85 542.13 3031.83 542.5"/><polygon class="cls-14" points="3041.84 570.55 3031.31 617.09 3037.9 569.83 3041.84 570.55"/><polygon class="cls-14" points="3047.45 601.95 3034.71 631.63 3043.68 600.6 3047.45 601.95"/><polygon class="cls-14" points="3045.56 635.04 3036.02 647.02 3042.13 632.98 3045.56 635.04"/><polygon class="cls-14" points="2794.24 587.86 2789.1 612.3 2790.27 587.36 2794.24 587.86"/><polygon class="cls-14" points="2800.3 575.75 2803.44 587.71 2803.53 588.03 2803.5 588.2 2800.69 606.24 2801.12 587.99 2801.18 588.47 2796.51 577.02 2800.3 575.75"/><polygon class="cls-14" points="2811.93 555.11 2814.06 591.55 2807.95 555.56 2811.93 555.11"/><polygon class="cls-14" points="2820.01 539.81 2824.23 553.38 2824.31 553.63 2824.31 553.82 2825.51 611.2 2821.11 553.97 2821.2 554.41 2816.22 541.1 2820.01 539.81"/><polygon class="cls-14" points="2827.45 526.16 2832.09 539.93 2832.19 540.23 2832.18 540.43 2831.47 581.08 2829.24 540.48 2829.33 540.98 2823.71 527.57 2827.45 526.16"/><polygon class="cls-14" points="2838.69 507.82 2843.59 529.16 2843.62 529.3 2843.62 529.35 2844.44 551.25 2841.63 529.51 2841.66 529.7 2834.84 508.89 2838.69 507.82"/><polygon class="cls-14" points="2853.66 506.04 2856.22 519.42 2856.28 519.73 2856.25 519.94 2849.31 565.12 2853.19 519.58 2853.22 520.1 2849.76 506.93 2853.66 506.04"/><polygon class="cls-14" points="2866.24 503.11 2868.77 507.39 2869.05 507.87 2869.06 508.25 2869.56 545.23 2865.54 508.47 2865.83 509.33 2862.9 505.31 2866.24 503.11"/><polygon class="cls-14" points="2882.68 500.94 2884.69 513.69 2884.74 513.96 2884.72 514.09 2880.91 539.36 2882.07 513.84 2882.09 514.24 2878.76 501.77 2882.68 500.94"/><polygon class="cls-14" points="2898.38 503.88 2897.72 518.6 2897.71 518.48 2898.87 548.39 2895.04 518.71 2895.04 518.6 2894.38 503.88 2898.38 503.88"/><polygon class="cls-14" points="2907.94 513.65 2904.33 520.29 2904.44 519.69 2903.9 534.76 2901.78 519.83 2901.75 519.64 2901.89 519.23 2904.27 512.05 2907.94 513.65"/><path class="cls-29" d="M342.57,1184.43l11.43-2.35,7.39-3.7V1171l10.09-2.36,29.58,5,22.86,7.73,6.73.67,5.38,10.09,8.74,13.11,7.06,14.79-20.17,3-19.84-3.69s-14.79,1-14.62,1.34-26.06-10.42-26.06-10.42l-28.57-14.46Z"/><path class="cls-30" d="M371.48,1170.5l29.58,4.87,22.86,7.47,6.73.65,5.38,9.74,8.74,12.66,7.06,14.28-20.17,2.92-19.84-3.57s-14.79,1-14.62,1.3-26.06-10.06-26.06-10.06l-28.57-14v-11l11.43-2.27,7.39-3.57v-7.14Z"/><path class="cls-31" d="M371.48,1172.38l29.58,4.69,22.86,7.2,6.73.63,5.38,9.39,8.74,12.21,7.06,13.78-20.17,2.81-19.84-3.44s-14.79.94-14.62,1.25-26.06-9.7-26.06-9.7l-28.57-13.47v-10.64L354,1184.9l7.39-3.45v-6.88Z"/><path class="cls-32" d="M371.48,1174.25l29.58,4.52,22.86,6.93,6.73.61,5.38,9,8.74,11.76,7.06,13.27-20.17,2.71-19.84-3.31s-14.79.9-14.62,1.2-26.06-9.34-26.06-9.34l-28.57-13v-10.25l11.43-2.11,7.39-3.32v-6.63Z"/><path class="cls-33" d="M371.48,1176.12l29.58,4.35,22.86,6.67,6.73.58,5.38,8.7,8.74,11.31,7.06,12.75-20.17,2.61-19.84-3.19s-14.79.87-14.62,1.16-26.06-9-26.06-9l-28.57-12.47v-9.86l11.43-2,7.39-3.19v-6.38Z"/><path class="cls-34" d="M371.48,1178l29.58,4.18,22.86,6.4,6.73.56,5.38,8.35,8.74,10.86,7.06,12.25-20.17,2.5L411.82,1220s-14.79.84-14.62,1.12-26.06-8.64-26.06-8.64l-28.57-12v-9.46l11.43-1.95,7.39-3.07v-6.12Z"/><path class="cls-1" d="M342.57,1192.4l11.43-1.86,7.39-2.94v-5.87l10.09-1.87,29.58,4,22.86,6.14,6.73.54,5.38,8,8.74,10.41,7.06,11.74-20.17,2.4-19.84-2.93s-14.79.8-14.62,1.07-26.06-8.28-26.06-8.28l-28.57-11.47Z"/><polygon class="cls-29" points="438.49 1195.86 449.31 1189.48 463.43 1182.42 475.02 1182.42 484.61 1189.14 499.23 1207.13 502.25 1218.72 498.73 1223.09 478.55 1225.78 455.86 1223.09 451.83 1220.07 444.77 1205.28 438.49 1195.86"/><polygon class="cls-30" points="463.43 1184.1 475.02 1184.1 484.61 1190.56 499.23 1207.85 502.25 1219 498.73 1223.2 478.55 1225.78 455.86 1223.2 451.83 1220.29 444.77 1206.07 438.49 1197.02 449.31 1190.88 463.43 1184.1"/><polygon class="cls-31" points="463.43 1185.78 475.02 1185.78 484.61 1191.98 499.23 1208.57 502.25 1219.27 498.73 1223.3 478.55 1225.78 455.86 1223.3 451.83 1220.51 444.77 1206.87 438.49 1198.18 449.31 1192.29 463.43 1185.78"/><polygon class="cls-32" points="463.43 1187.46 475.02 1187.46 484.61 1193.4 499.23 1209.3 502.25 1219.55 498.73 1223.41 478.55 1225.78 455.86 1223.41 451.83 1220.73 444.77 1207.66 438.49 1199.34 449.31 1193.7 463.43 1187.46"/><polygon class="cls-33" points="463.43 1189.14 475.02 1189.14 484.61 1194.82 499.23 1210.02 502.25 1219.82 498.73 1223.51 478.55 1225.78 455.86 1223.51 451.83 1220.95 444.77 1208.46 438.49 1200.5 449.31 1195.11 463.43 1189.14"/><polygon class="cls-34" points="463.43 1190.82 475.02 1190.82 484.61 1196.24 499.23 1210.74 502.25 1220.09 498.73 1223.62 478.55 1225.78 455.86 1223.62 451.83 1221.18 444.77 1209.25 438.49 1201.66 449.31 1196.51 463.43 1190.82"/><polygon class="cls-1" points="438.49 1202.82 449.31 1197.92 463.43 1192.5 475.02 1192.5 484.61 1197.66 499.23 1211.46 502.25 1220.37 498.73 1223.72 478.55 1225.78 455.86 1223.72 451.83 1221.4 444.77 1210.05 438.49 1202.82"/><polygon class="cls-29" points="492.06 1223.98 488.13 1230.83 495.19 1238.39 534.02 1240.91 552.68 1240.91 558.73 1244.95 576.38 1241.42 607.14 1238.89 611.51 1227.88 591.93 1210.66 579.32 1207.63 560.75 1204.1 547.64 1201.08 539.07 1201.08 533.52 1195.86 529.49 1192.5 521.92 1192.5 517.16 1202.34 510.61 1205.87 506.29 1209.14 500.15 1210.68 502.25 1218.72 498.73 1223.09 492.06 1223.98"/><polygon class="cls-30" points="521.92 1194.43 517.16 1203.91 510.61 1207.31 506.29 1210.46 500.15 1211.94 502.25 1219.69 498.73 1223.9 492.06 1224.76 488.13 1231.35 495.19 1238.63 534.02 1241.06 552.68 1241.06 558.73 1244.95 576.38 1241.55 607.14 1239.12 611.51 1228.51 591.93 1211.92 579.32 1209.01 560.75 1205.61 547.64 1202.69 539.07 1202.69 533.52 1197.67 529.49 1194.43 521.92 1194.43"/><polygon class="cls-31" points="521.92 1196.37 517.16 1205.48 510.61 1208.75 506.29 1211.78 500.15 1213.2 502.25 1220.66 498.73 1224.7 492.06 1225.53 488.13 1231.87 495.19 1238.87 534.02 1241.21 552.68 1241.21 558.73 1244.95 576.38 1241.68 607.14 1239.34 611.51 1229.14 591.93 1213.18 579.32 1210.38 560.75 1207.11 547.64 1204.31 539.07 1204.31 533.52 1199.48 529.49 1196.37 521.92 1196.37"/><polygon class="cls-32" points="521.92 1198.3 517.16 1207.05 510.61 1210.19 506.29 1213.1 500.15 1214.47 502.25 1221.62 498.73 1225.51 492.06 1226.3 488.13 1232.39 495.19 1239.12 534.02 1241.36 552.68 1241.36 558.73 1244.95 576.38 1241.81 607.14 1239.56 611.51 1229.77 591.93 1214.45 579.32 1211.76 560.75 1208.62 547.64 1205.93 539.07 1205.93 533.52 1201.29 529.49 1198.3 521.92 1198.3"/><polygon class="cls-33" points="521.92 1200.23 517.16 1208.62 510.61 1211.63 506.29 1214.42 500.15 1215.73 502.25 1222.59 498.73 1226.32 492.06 1227.07 488.13 1232.91 495.19 1239.36 534.02 1241.51 552.68 1241.51 558.73 1244.95 576.38 1241.94 607.14 1239.79 611.51 1230.4 591.93 1215.71 579.32 1213.13 560.75 1210.12 547.64 1207.54 539.07 1207.54 533.52 1203.1 529.49 1200.23 521.92 1200.23"/><polygon class="cls-34" points="521.92 1202.17 517.16 1210.19 510.61 1213.07 506.29 1215.74 500.15 1216.99 502.25 1223.56 498.73 1227.12 492.06 1227.85 488.13 1233.43 495.19 1239.6 534.02 1241.65 552.68 1241.65 558.73 1244.95 576.38 1242.07 607.14 1240.01 611.51 1231.03 591.93 1216.97 579.32 1214.51 560.75 1211.63 547.64 1209.16 539.07 1209.16 533.52 1204.91 529.49 1202.17 521.92 1202.17"/><polygon class="cls-1" points="492.06 1228.62 488.13 1233.95 495.19 1239.84 534.02 1241.8 552.68 1241.8 558.73 1244.95 576.38 1242.2 607.14 1240.23 611.51 1231.66 591.93 1218.24 579.32 1215.88 560.75 1213.13 547.64 1210.78 539.07 1210.78 533.52 1206.72 529.49 1204.1 521.92 1204.1 517.16 1211.76 510.61 1214.51 506.29 1217.06 500.15 1218.26 502.25 1224.52 498.73 1227.93 492.06 1228.62"/><polygon class="cls-29" points="260.71 1086.61 255.67 1090.64 245.08 1086.61 234.99 1080.05 223.39 1080.05 205.74 1087.61 185.57 1097.19 176.5 1102.74 173.97 1111.31 171.45 1121.9 181.03 1130.48 203.22 1145.1 207.26 1150.14 227.43 1150.14 241.04 1150.14 250.12 1147.12 266.76 1144.6 270.79 1139.55 278.86 1144.09 290.46 1143.08 296.51 1134.51 296.51 1124.42 287.94 1112.32 279.37 1095.68 272.96 1088.51 260.71 1086.61"/><polygon class="cls-30" points="295.74 1126.17 287.16 1114.89 278.59 1099.38 272.19 1092.7 259.93 1090.92 254.89 1094.68 244.3 1090.92 234.22 1084.81 222.62 1084.81 204.97 1091.86 184.8 1100.79 175.72 1105.96 173.2 1113.95 170.68 1123.82 180.26 1131.81 202.45 1145.44 206.48 1150.14 226.65 1150.14 240.27 1150.14 249.34 1147.32 265.99 1144.97 270.02 1140.27 278.09 1144.5 289.69 1143.56 295.74 1135.57 295.74 1126.17"/><polygon class="cls-31" points="294.96 1127.92 286.39 1117.46 277.82 1103.08 271.41 1096.88 259.16 1095.23 254.12 1098.72 243.53 1095.23 233.44 1089.57 221.84 1089.57 204.19 1096.11 184.02 1104.39 174.94 1109.18 172.42 1116.59 169.9 1125.74 179.48 1133.15 201.67 1145.79 205.71 1150.14 225.88 1150.14 239.49 1150.14 248.57 1147.53 265.21 1145.35 269.24 1140.99 277.31 1144.91 288.91 1144.04 294.96 1136.63 294.96 1127.92"/><polygon class="cls-32" points="294.19 1129.66 285.61 1120.03 277.04 1106.78 270.64 1101.07 258.38 1099.55 253.34 1102.76 242.75 1099.55 232.67 1094.33 221.07 1094.33 203.42 1100.35 183.25 1107.98 174.17 1112.4 171.65 1119.22 169.13 1127.66 178.71 1134.48 200.9 1146.13 204.93 1150.14 225.1 1150.14 238.72 1150.14 247.79 1147.73 264.44 1145.73 268.47 1141.71 276.54 1145.33 288.13 1144.52 294.19 1137.7 294.19 1129.66"/><polygon class="cls-33" points="293.41 1131.41 284.84 1122.6 276.27 1110.48 269.86 1105.25 257.61 1103.87 252.57 1106.8 241.98 1103.87 231.89 1099.09 220.29 1099.09 202.64 1104.6 182.47 1111.58 173.4 1115.62 170.87 1121.86 168.35 1129.58 177.93 1135.82 200.12 1146.47 204.16 1150.14 224.33 1150.14 237.94 1150.14 247.02 1147.94 263.66 1146.1 267.69 1142.43 275.76 1145.74 287.36 1145 293.41 1138.76 293.41 1131.41"/><polygon class="cls-34" points="292.64 1133.16 284.06 1125.16 275.49 1114.17 269.09 1109.44 256.83 1108.18 251.79 1110.84 241.2 1108.18 231.12 1103.85 219.52 1103.85 201.87 1108.85 181.7 1115.17 172.62 1118.84 170.1 1124.5 167.58 1131.49 177.16 1137.15 199.35 1146.81 203.38 1150.14 223.55 1150.14 237.17 1150.14 246.24 1148.14 262.88 1146.48 266.92 1143.15 274.99 1146.15 286.58 1145.48 292.64 1139.82 292.64 1133.16"/><polygon class="cls-1" points="256.06 1112.49 251.02 1114.88 240.43 1112.49 230.34 1108.61 218.74 1108.61 201.09 1113.09 180.92 1118.77 171.84 1122.06 169.32 1127.14 166.8 1133.41 176.38 1138.49 198.57 1147.15 202.61 1150.14 222.78 1150.14 236.39 1150.14 245.47 1148.35 262.11 1146.86 266.14 1143.87 274.21 1146.56 285.81 1145.96 291.86 1140.88 291.86 1134.9 283.29 1127.73 274.72 1117.87 268.31 1113.62 256.06 1112.49"/><path class="cls-1" d="M3005.21,1328.41h-13.4l-14.59-1.27-15.63-10.59,5-11.09,12.1,4s7.9,1.52,11.26,1.52,7.9,5.29,7.9,5.29l14.52,7.82Z"/><path class="cls-33" d="M2962.22,1315.16l4.41-9.7,12.1,4s7.9,1.52,11.26,1.52,7.9,5.29,7.9,5.29l14.52,7.82-7.4,3.21-12.76-.45-12.92-1.86Z"/><path class="cls-35" d="M2962.85,1313.77l3.78-8.31,12.1,4s7.9,1.52,11.26,1.52,7.9,5.29,7.9,5.29l14.52,7.82-7.6,2.12-12.13-.89-11.23-2.45Z"/><path class="cls-36" d="M2963.48,1312.38l3.15-6.92,12.1,4s7.9,1.52,11.26,1.52,7.9,5.29,7.9,5.29l14.52,7.82-7.8,1-11.5-1.33-9.54-3Z"/><path class="cls-37" d="M2964.12,1311l2.51-5.53,12.1,4s7.9,1.52,11.26,1.52,7.9,5.29,7.9,5.29l14.52,7.82-8,0-10.86-1.78-7.87-3.65Z"/><path class="cls-38" d="M2964.75,1309.6l1.88-4.14,12.1,4s7.9,1.52,11.26,1.52,7.9,5.29,7.9,5.29l14.52,7.82-8.2-1.13-10.23-2.22-6.18-4.24Z"/><path class="cls-39" d="M3004,1321.91l-9.6-2.67-4.5-4.83-24.53-6.2,1.25-2.75,12.1,4s7.9,1.52,11.26,1.52,7.9,5.29,7.9,5.29l14.52,7.82Z"/><polygon class="cls-39" points="3086.82 1339.41 3099.59 1330 3113.71 1322.6 3121.11 1319.24 3146.66 1319.24 3152.71 1329.33 3152.71 1339.41 3143.97 1343.45 3137.24 1343.45 3128.5 1351.52 3119.76 1351.52 3105.64 1347.48 3099.59 1342.1 3086.82 1339.41"/><polygon class="cls-38" points="3146.66 1320.06 3152.71 1329.89 3152.71 1339.72 3143.97 1343.65 3137.24 1343.65 3128.5 1351.52 3119.76 1351.52 3105.64 1347.58 3099.59 1342.34 3086.82 1339.72 3099.59 1330.54 3113.71 1323.33 3121.11 1320.06 3146.66 1320.06"/><polygon class="cls-37" points="3146.66 1320.87 3152.71 1330.44 3152.71 1340.02 3143.97 1343.85 3137.24 1343.85 3128.5 1351.52 3119.76 1351.52 3105.64 1347.68 3099.59 1342.58 3086.82 1340.02 3099.59 1331.08 3113.71 1324.06 3121.11 1320.87 3146.66 1320.87"/><polygon class="cls-36" points="3146.66 1321.68 3152.71 1331 3152.71 1340.33 3143.97 1344.06 3137.24 1344.06 3128.5 1351.52 3119.76 1351.52 3105.64 1347.79 3099.59 1342.81 3086.82 1340.33 3099.59 1331.63 3113.71 1324.79 3121.11 1321.68 3146.66 1321.68"/><polygon class="cls-35" points="3146.66 1322.49 3152.71 1331.56 3152.71 1340.63 3143.97 1344.26 3137.24 1344.26 3128.5 1351.52 3119.76 1351.52 3105.64 1347.89 3099.59 1343.05 3086.82 1340.63 3099.59 1332.17 3113.71 1325.52 3121.11 1322.49 3146.66 1322.49"/><polygon class="cls-33" points="3146.66 1323.3 3152.71 1332.12 3152.71 1340.94 3143.97 1344.46 3137.24 1344.46 3128.5 1351.52 3119.76 1351.52 3105.64 1347.99 3099.59 1343.29 3086.82 1340.94 3099.59 1332.71 3113.71 1326.24 3121.11 1323.3 3146.66 1323.3"/><polygon class="cls-1" points="3086.82 1341.24 3099.59 1333.25 3113.71 1326.97 3121.11 1324.12 3146.66 1324.12 3152.71 1332.68 3152.71 1341.24 3143.97 1344.67 3137.24 1344.67 3128.5 1351.52 3119.76 1351.52 3105.64 1348.09 3099.59 1343.52 3086.82 1341.24"/><polygon class="cls-39" points="3209.07 1324.12 3237.42 1339.24 3261.63 1346.31 3279.78 1351.52 3312.06 1343.78 3348.36 1335.38 3356.94 1319.24 3372.06 1292.35 3359.46 1284.28 3356.43 1266.63 3339.79 1261.59 3291.13 1261.59 3282.56 1244.81 3274.74 1269.15 3259.11 1279.74 3248.52 1288.31 3234.4 1301.42 3230.87 1310 3217.76 1316.3 3209.07 1324.12"/><polygon class="cls-38" points="3235.52 1301.81 3231.64 1310.46 3218.52 1317.07 3209.97 1324.61 3237.92 1339.52 3262.13 1346.58 3280.28 1351.79 3312.56 1344.06 3348.86 1335.65 3357.44 1319.52 3372.56 1292.62 3359.96 1284.55 3356.93 1266.9 3340.29 1261.86 3291.63 1261.86 3283.54 1245.39 3275.72 1269.73 3260.71 1279.98 3249.75 1289.25 3235.52 1301.81"/><polygon class="cls-37" points="3236.64 1302.2 3232.42 1310.92 3219.28 1317.83 3210.87 1325.09 3238.42 1339.8 3262.63 1346.86 3280.78 1352.07 3313.06 1344.33 3349.36 1335.93 3357.94 1319.79 3373.06 1292.9 3360.46 1284.83 3357.43 1267.18 3340.79 1262.14 3292.13 1262.14 3284.53 1245.97 3276.7 1270.31 3262.31 1280.21 3250.98 1290.19 3236.64 1302.2"/><polygon class="cls-36" points="3237.76 1302.58 3233.19 1311.38 3220.03 1318.6 3211.77 1325.58 3238.92 1340.07 3263.13 1347.13 3281.28 1352.34 3313.56 1344.61 3349.86 1336.2 3358.44 1320.07 3373.56 1293.17 3360.96 1285.1 3357.93 1267.45 3341.29 1262.41 3292.63 1262.41 3285.51 1246.55 3277.69 1270.89 3263.91 1280.45 3252.22 1291.12 3237.76 1302.58"/><polygon class="cls-35" points="3238.87 1302.97 3233.96 1311.84 3220.79 1319.36 3212.67 1326.07 3239.42 1340.35 3263.63 1347.4 3281.78 1352.62 3314.06 1344.88 3350.36 1336.48 3358.94 1320.34 3374.06 1293.45 3361.46 1285.38 3358.43 1267.73 3341.79 1262.69 3293.13 1262.69 3286.49 1247.13 3278.67 1271.47 3265.51 1280.69 3253.45 1292.06 3238.87 1302.97"/><polygon class="cls-33" points="3239.99 1303.35 3234.74 1312.3 3221.55 1320.13 3213.57 1326.56 3239.92 1340.62 3264.13 1347.68 3282.28 1352.89 3314.56 1345.16 3350.86 1336.75 3359.44 1320.62 3374.56 1293.72 3361.96 1285.65 3358.93 1268.01 3342.29 1262.96 3293.63 1262.96 3287.47 1247.71 3279.65 1272.05 3267.11 1280.92 3254.68 1293 3239.99 1303.35"/><polygon class="cls-1" points="3214.47 1327.04 3240.42 1340.89 3264.63 1347.95 3282.78 1353.17 3315.06 1345.43 3351.36 1337.03 3359.94 1320.89 3375.06 1294 3362.46 1285.93 3359.43 1268.28 3342.79 1263.24 3294.13 1263.24 3288.45 1248.29 3280.63 1272.63 3268.71 1281.16 3255.91 1293.93 3241.11 1303.74 3235.51 1312.76 3222.31 1320.89 3214.47 1327.04"/><use transform="matrix(-0.17, 0, 0, 0.17, 7295.87, 0.45)" xlink:href="#image"/><use transform="matrix(-0.17, 0, 0, 0.17, 4909.75, 0)" xlink:href="#image"/><use transform="matrix(-0.25, 0, 0, 0.25, 9729.64, 312.71)" xlink:href="#image-2"/><use transform="matrix(-0.16, 0, 0, 0.19, 4892.25, 76.08)" xlink:href="#image-2"/><use transform="translate(7808.39 443.3) scale(0.17)" xlink:href="#image"/><use transform="matrix(-0.17, 0, 0, 0.17, 10632.91, 443.3)" xlink:href="#image"/></g></g></svg>