<svg xmlns="http://www.w3.org/2000/svg" xmlns:xlink="http://www.w3.org/1999/xlink" viewBox="0 0 1312.84 703"><defs><style>.cls-1{fill:#435629;}.cls-2{fill:#4f6832;}.cls-3{fill:#516b32;}.cls-4{fill:#4e6d26;}</style><symbol id="Figueira-Foliage-BG-2" data-name="Figueira-Foliage-BG-2" viewBox="0 0 79.33 82.26"><polygon class="cls-2" points="41.84 81.49 59.23 76.2 73.87 60.16 79.33 49.27 77.2 41.8 66.42 50.98 62.57 46.53 60.79 21.55 49.12 0 42.71 12.28 45.3 35.37 30.77 28.78 12.96 9.72 3.58 17.71 1.76 31.27 22.86 38.41 36.13 51.29 17.1 53.43 6.11 51.6 0 61.28 15.01 66.78 30.34 63.77 46.87 64.49 49.33 71.15 34.08 74.14 34.99 82.26 41.84 81.49"/><path class="cls-3" d="M72.13,75.9l-2.76-3.48L64.43,67l-1.07-1.21-.93-1v-.72l.82-1.9.86-1.54,1.57-1.46,1.08-.9,1.86-1.72,1.11-1.64,1.11-2.11L69.44,55l-1,1.39-1.22,1.22-1.42,1.18-1.07,1-.93.87-.83,1.44-.38,1-.31,1.16-.22.06-.43-.56-.25-1.55L60.89,60l-.57-4.32-.45-4.37-.35-2.5-.27-2.9-.88-5.31-1.64-5.69-1.26-4.65-.78-4.48-.27-4.37L54,16.27l.41,6.45.26,3.83.57,3,.67,3.14,1,3.44,1,3.35.56,3.14.67,4.06.16,2.06.4,3.52.27,2.85.27,2.6.4,2.66.49,2.71.16,1-2.74-3L55.82,58l-3.63-3.33L44.35,48.2l-8.76-6.66L23.1,33.08l-4.94-3.2-.89-.24,1.12.56,4.69,3,6.15,4.18,12.48,9.17L47,50.84l9.44,8.41,2.58,3,2.11,2.38.46.92-2.6-1-4.78-1.34-3.36-.54L41.6,61.29,37.7,61l-7-.43L22,59.86l-2.95.38,3.33-.11L33.89,61l8.5.59L54,63.44l4.79,1.4L61.43,66l-.22.25-1.68.25L57.6,67l-1.22.94-2.22,1.57L51.8,71.28l-1.43.89L47.72,73l1.9-.32,1.71-.79,2.83-2L56.77,68l1.79-1,3.22-.68.67.48.18.43.94.72L71.14,77Z"/></symbol><symbol id="Figueira-Foliage-BG-7" data-name="Figueira-Foliage-BG-7" viewBox="0 0 79.33 82.26"><polygon class="cls-4" points="41.84 81.49 59.23 76.2 73.87 60.16 79.33 49.27 77.2 41.8 66.42 50.98 62.57 46.53 60.79 21.55 49.12 0 42.71 12.28 45.3 35.37 30.77 28.78 12.96 9.72 3.58 17.71 1.76 31.27 22.86 38.41 36.13 51.29 17.1 53.43 6.11 51.6 0 61.28 15.01 66.78 30.34 63.77 46.87 64.49 49.33 71.15 34.08 74.14 34.99 82.26 41.84 81.49"/></symbol><symbol id="Figueira-Foliage-BG-11" data-name="Figueira-Foliage-BG-11" viewBox="0 0 79.33 82.26"><polygon class="cls-1" points="41.84 81.49 59.23 76.2 73.87 60.16 79.33 49.27 77.2 41.8 66.42 50.98 62.57 46.53 60.79 21.55 49.12 0 42.71 12.28 45.3 35.37 30.77 28.78 12.96 9.72 3.58 17.71 1.76 31.27 22.86 38.41 36.13 51.29 17.1 53.43 6.11 51.6 0 61.28 15.01 66.78 30.34 63.77 46.87 64.49 49.33 71.15 34.08 74.14 34.99 82.26 41.84 81.49"/></symbol></defs><title>Folhas 3</title><g id="Layer_2" data-name="Layer 2"><g id="ÁRVORE_3_-_FOLHAS_FRENTE" data-name="ÁRVORE 3 - FOLHAS FRENTE"><use width="79.33" height="82.26" transform="matrix(-0.71, -0.27, 0.27, -0.71, 169.04, 582.2)"/><use width="79.33" height="82.26" transform="translate(113.7 589.32) rotate(-123.18) scale(0.85)"/><use width="79.33" height="82.26" transform="translate(119.8 554.34) rotate(-122.5) scale(0.78)"/><use width="79.33" height="82.26" transform="translate(52.61 556.46) rotate(-85.57) scale(0.99)"/><use width="79.33" height="82.26" transform="matrix(0.24, -0.92, 0.92, 0.24, 60.03, 515.47)"/><use width="79.33" height="82.26" transform="translate(35.61 451.92) rotate(-65.87) scale(1.14)"/><use width="79.33" height="82.26" transform="translate(17.58 492.54) rotate(-69.77) scale(1.17)"/><use width="79.33" height="82.26" transform="matrix(-0.53, -0.43, 0.43, -0.53, 151.21, 529.16)"/><use width="79.33" height="82.26" transform="translate(176.75 545.58) rotate(-164.78) scale(0.63)"/><use width="79.33" height="82.26" transform="matrix(-0.73, -0.15, 0.15, -0.73, 201.19, 585.29)"/><use width="79.33" height="82.26" transform="translate(213.78 517.3) rotate(-172.52) scale(0.59)"/><use width="79.33" height="82.26" transform="matrix(-0.87, -0.24, 0.24, -0.87, 272.77, 551.2)"/><use width="79.33" height="82.26" transform="translate(240.25 513.25) rotate(-128.89)"/><use width="79.33" height="82.26" transform="translate(281.99 571.46) rotate(-133.19) scale(1.09)"/><use width="79.33" height="82.26" transform="translate(223.31 486.58) rotate(-73.65) scale(1.18)"/><use width="79.33" height="82.26" transform="translate(263.85 528.01) rotate(-157.24) scale(0.92)"/><use width="79.33" height="82.26" transform="matrix(-0.76, -0.1, 0.1, -0.76, 248.39, 559.7)"/><use width="79.33" height="82.26" transform="matrix(-0.63, -0.05, 0.05, -0.63, 214.74, 546.38)"/><use width="79.33" height="82.26" transform="matrix(-0.05, -0.79, 0.79, -0.05, 155.02, 471.11)"/><use width="79.33" height="82.26" transform="translate(197.48 485.43) rotate(-107.04) scale(0.9)"/><use width="79.33" height="82.26" transform="matrix(0.42, -0.91, 0.91, 0.42, 343.58, 479.91)"/><use width="79.33" height="82.26" transform="matrix(0.87, -0.48, 0.48, 0.87, 376.08, 451.86)"/><use width="79.33" height="82.26" transform="matrix(0.97, -0.25, 0.25, 0.97, 386.68, 395.67)"/><use width="79.33" height="82.26" transform="translate(302.97 409.13) rotate(-68.96) scale(1.01)"/><use width="79.33" height="82.26" transform="translate(307.22 442.58) rotate(-66.63) scale(1.04)"/><use width="79.33" height="82.26" transform="translate(308.42 507.55) rotate(-84.63) scale(1.06)"/><use width="79.33" height="82.26" transform="translate(298.96 555.84) rotate(-103.55) scale(1.07)"/><use width="79.33" height="82.26" transform="translate(435.85 392.71)"/><use width="79.33" height="82.26" transform="translate(454.67 371.6)"/><use width="79.33" height="82.26" transform="translate(430.23 343.77)"/><use width="79.33" height="82.26" transform="translate(392.51 323.71) rotate(-7.05)"/><use width="79.33" height="82.26" transform="translate(391.76 352.13) rotate(-11.97)"/><use width="79.33" height="82.26" transform="translate(338.93 413.58) rotate(-44.63)"/><use width="79.33" height="82.26" transform="translate(250.05 449.92) rotate(-63.45) scale(1.13)"/><use width="79.33" height="82.26" transform="translate(249.68 489.23) rotate(-68.3) scale(1.15)"/><use width="79.33" height="82.26" transform="matrix(0.71, -0.8, 0.8, 0.71, 237.2, 395.73)"/><use width="79.33" height="82.26" transform="matrix(0.97, -0.31, 0.31, 0.97, 259.29, 339.65)"/><use width="79.33" height="82.26" transform="translate(179.24 423.72) rotate(-64.15) scale(1.05)"/><use width="79.33" height="82.26" transform="translate(210.76 500.9) rotate(-152) scale(0.72)"/><use width="79.33" height="82.26" transform="matrix(0.22, -0.85, 0.85, 0.22, 112.95, 454.2)"/><use width="79.33" height="82.26" transform="translate(80.03 469.41) rotate(-71.4) scale(0.93)"/><use width="79.33" height="82.26" transform="matrix(-0.22, -0.7, 0.7, -0.22, 140.48, 495.34)"/><use width="79.33" height="82.26" transform="translate(377.35 580.72) rotate(-150.25)"/><use width="79.33" height="82.26" transform="translate(430.35 555.88) rotate(-162.83)"/><use width="79.33" height="82.26" transform="matrix(0.44, -0.95, 0.95, 0.44, 157.25, 309)"/><use width="79.33" height="82.26" transform="translate(113.8 254.8) rotate(-37.4) scale(1.09)"/><use width="79.33" height="82.26" transform="translate(43.5 258) rotate(-47.41) scale(1.02)"/><use width="79.33" height="82.26" transform="translate(21.95 318.5) rotate(-70.91)"/><use width="79.33" height="82.26" transform="translate(22.41 365.78) rotate(-75.87) scale(1.07)"/><use width="79.33" height="82.26" transform="translate(12.42 404.53) rotate(-73.97) scale(1.11)"/><use width="79.33" height="82.26" transform="translate(42.66 425.9) rotate(-61.31) scale(1.16)"/><use width="79.33" height="82.26" transform="translate(102.1 406.75) rotate(-84.78) scale(1.09)"/><use width="79.33" height="82.26" transform="translate(101.42 377.59) rotate(-80.16) scale(1.06)"/><use width="79.33" height="82.26" transform="translate(97.53 318.18) rotate(-58.21) scale(1.02)"/><use width="79.33" height="82.26" transform="translate(63.33 292.39) rotate(-50.57) scale(1.02)"/><use width="79.33" height="82.26" transform="translate(52.16 373.74) rotate(-66.22) scale(1.11)"/><use width="79.33" height="82.26" transform="matrix(0.32, -1.08, 1.08, 0.32, 81.41, 435.18)"/><use width="79.33" height="82.26" transform="translate(161.19 436.47) rotate(-106.36) scale(1.03)"/><use width="79.33" height="82.26" transform="translate(210.63 351.01) rotate(-85.77)"/><use width="79.33" height="82.26" transform="translate(151.86 247.13) rotate(-34.82) scale(1.08)"/><use width="79.33" height="82.26" transform="matrix(0.86, -0.69, 0.69, 0.86, 101.27, 227.1)"/><use width="79.33" height="82.26" transform="matrix(0.97, -0.52, 0.52, 0.97, 97.92, 190.57)"/><use width="79.33" height="82.26" transform="translate(228.76 175.27) rotate(-19.63)"/><use width="79.33" height="82.26" transform="translate(272.96 217.14) rotate(-11.12)"/><use width="79.33" height="82.26" transform="matrix(0.97, -0.26, 0.26, 0.97, 288.72, 285.07)"/><use width="79.33" height="82.26" transform="translate(122.48 312.44) rotate(-61.37) scale(1.04)"/><use width="79.33" height="82.26" transform="matrix(0.81, -0.68, 0.68, 0.81, 88.57, 264.08)"/><use width="79.33" height="82.26" transform="matrix(0.88, -0.6, 0.6, 0.88, 172.02, 193.03)"/><use width="79.33" height="82.26" transform="translate(371.11 232.49) rotate(-0.25) scale(1.08)"/><use width="79.33" height="82.26" transform="translate(425.86 275.82) rotate(8.93) scale(1.09)"/><use width="79.33" height="82.26" transform="matrix(1.11, 0.05, -0.05, 1.11, 435.57, 244.59)"/><use width="79.33" height="82.26" transform="matrix(1.06, 0.11, -0.11, 1.06, 462.02, 264.92)"/><use width="79.33" height="82.26" transform="translate(462.69 293.15) rotate(9.43) scale(1.05)"/><use width="79.33" height="82.26" transform="translate(332.4 172.45) rotate(-12.79)"/><use width="79.33" height="82.26" transform="translate(301.94 187.38) rotate(-12.45)"/><use width="79.33" height="82.26" transform="translate(345.81 265.61) rotate(-0.75) scale(1.04)"/><use width="79.33" height="82.26" transform="matrix(0.99, -0.11, 0.11, 0.99, 332.14, 334.77)"/><use width="79.33" height="82.26" transform="matrix(0.15, -0.99, 0.99, 0.15, 277.89, 410.08)"/><use width="79.33" height="82.26" transform="translate(241.57 448.21) rotate(-114.5)"/><use width="79.33" height="82.26" transform="translate(204.65 441.48) rotate(-113.29)"/><use width="79.33" height="82.26" transform="translate(401.28 338.82) rotate(9.37) scale(1.01)"/><use width="79.33" height="82.26" transform="matrix(1.01, -0.03, 0.03, 1.01, 334.97, 303.27)"/><use width="79.33" height="82.26" transform="matrix(0.75, -0.67, 0.67, 0.75, 220.68, 276.62)"/><use width="79.33" height="82.26" transform="translate(182.2 257.8) rotate(-38.27) scale(1.05)"/><use width="79.33" height="82.26" transform="translate(74.66 320.73) rotate(-55.34) scale(1.03)"/><use width="79.33" height="82.26" transform="translate(218.02 398.21) rotate(-107.63)"/><use width="79.33" height="82.26" transform="translate(250.58 396.19) rotate(-94.66)"/><use width="79.33" height="82.26" transform="translate(211.51 477.71) rotate(-114.58)"/><use width="79.33" height="82.26" transform="translate(174.73 384.63) rotate(-104.06)"/><use width="79.33" height="82.26" transform="translate(305.47 243.26) rotate(-6.94)"/><use width="79.33" height="82.26" transform="matrix(1, -0.16, 0.16, 1, 332.2, 207.84)"/><use width="79.33" height="82.26" transform="translate(200.97 213.29) rotate(-33.81) scale(1.04)"/><use width="79.33" height="82.26" transform="matrix(0.99, -0.48, 0.48, 0.99, 140.52, 181.14)"/><use width="79.33" height="82.26" transform="matrix(0.79, 0.61, -0.61, 0.79, 664.14, 0.4)"/><use width="79.33" height="82.26" transform="translate(639.5 -2.67) rotate(48.61)"/><use width="79.33" height="82.26" transform="translate(618.07 39.93) rotate(45.69)"/><use width="79.33" height="82.26" transform="translate(660.8 37.21) rotate(51.92)"/><use width="79.33" height="82.26" transform="matrix(0.29, 0.96, -0.96, 0.29, 657.04, 123.19)"/><use width="79.33" height="82.26" transform="translate(607.82 8.12) rotate(43.94)"/><use width="79.33" height="82.26" transform="matrix(0.89, 0.45, -0.45, 0.89, 565.89, -14.51)"/><use width="79.33" height="82.26" transform="translate(528.26 66.25) rotate(14.63)"/><use width="79.33" height="82.26" transform="translate(631.94 150.66) rotate(84.65)"/><use width="79.33" height="82.26" transform="translate(594.53 188.49) rotate(89.41)"/><use width="79.33" height="82.26" transform="translate(609.37 243.1) rotate(82.48)"/><use width="79.33" height="82.26" transform="matrix(0.99, 0.17, -0.17, 0.99, 526.26, 278.34)"/><use width="79.33" height="82.26" transform="translate(451.54 342.94) rotate(-24.97)"/><use width="79.33" height="82.26" transform="translate(470.21 403.42) rotate(-57.11)"/><use width="79.33" height="82.26" transform="translate(572.26 536.81) rotate(-119.01)"/><use width="79.33" height="82.26" transform="translate(500.46 483.99) rotate(-99.79)"/><use width="79.33" height="82.26" transform="translate(569.2 484.08) rotate(-116.04)"/><use width="79.33" height="82.26" transform="translate(799.18 288.71) rotate(106.42)"/><use width="79.33" height="82.26" transform="translate(812.2 257.46) rotate(113.43)"/><use width="79.33" height="82.26" transform="translate(785.44 196.81) rotate(113.6)"/><use width="79.33" height="82.26" transform="translate(733.99 77.31) rotate(65.95)"/><use width="79.33" height="82.26" transform="matrix(0.64, 0.77, -0.77, 0.64, 684.98, 54.75)"/><use width="79.33" height="82.26" transform="matrix(-0.39, 0.92, -0.92, -0.39, 806.64, 163.84)"/><use width="79.33" height="82.26" transform="translate(735.09 213.69) rotate(100.61)"/><use width="79.33" height="82.26" transform="translate(659.47 254.1) rotate(84.19)"/><use width="79.33" height="82.26" transform="matrix(-0.5, 0.86, -0.86, -0.5, 722.41, 334.65)"/><use width="79.33" height="82.26" transform="matrix(-0.25, 0.97, -0.97, -0.25, 689.58, 326.66)"/><use width="79.33" height="82.26" transform="matrix(-0.11, 0.99, -0.99, -0.11, 743.41, 239.06)"/><use width="79.33" height="82.26" transform="matrix(-0.27, 0.96, -0.96, -0.27, 759.78, 148.67)"/><use width="79.33" height="82.26" transform="translate(782.41 111.85) rotate(97.13)"/><use width="79.33" height="82.26" transform="translate(716.49 39.36) rotate(36.71)"/><use width="79.33" height="82.26" transform="translate(676.44 77.03) rotate(50.87)"/><use width="79.33" height="82.26" transform="translate(785.06 71.59) rotate(61.38)"/><use width="79.33" height="82.26" transform="translate(830.85 99.94) rotate(88.31)"/><use width="79.33" height="82.26" transform="translate(747.35 34.53) rotate(27.24)"/><use width="79.33" height="82.26" transform="matrix(0.78, 0.63, -0.63, 0.78, 624.8, 79.68)"/><use width="79.33" height="82.26" transform="matrix(0.92, 0.39, -0.39, 0.92, 567.52, 98.65)"/><use width="79.33" height="82.26" transform="translate(574.98 30.62) rotate(35.15)"/><use width="79.33" height="82.26" transform="translate(502.41 33.36) rotate(8.05)"/><use width="79.33" height="82.26" transform="translate(474.44 129.12) rotate(0.13)"/><use width="79.33" height="82.26" transform="translate(454.96 156.67) rotate(8.09)"/><use width="79.33" height="82.26" transform="translate(412.9 244.74) rotate(-36.25)"/><use width="79.33" height="82.26" transform="translate(418.88 305.2) rotate(-43.34)"/><use width="79.33" height="82.26" transform="translate(376.1 322.96) rotate(-45.65)"/><use width="79.33" height="82.26" transform="matrix(0.65, -0.76, 0.76, 0.65, 528.39, 355.13)"/><use width="79.33" height="82.26" transform="translate(590.13 402.26) rotate(-44.35)"/><use width="79.33" height="82.26" transform="translate(705.28 275.93) rotate(90.74)"/><use width="79.33" height="82.26" transform="translate(643.69 221.87) rotate(97.04)"/><use width="79.33" height="82.26" transform="translate(526.83 236.05) rotate(44.82)"/><use width="79.33" height="82.26" transform="translate(817.34 223.91) rotate(113.58)"/><use width="79.33" height="82.26" transform="matrix(-0.39, 0.92, -0.92, -0.39, 860.31, 166.73)"/><use width="79.33" height="82.26" transform="translate(830.38 185.62) rotate(113.52)"/><use width="79.33" height="82.26" transform="translate(737.53 182.13) rotate(103.25)"/><use width="79.33" height="82.26" transform="matrix(0.48, 0.88, -0.88, 0.48, 912.42, 118.39)"/><use width="79.33" height="82.26" transform="translate(864.58 124.33) rotate(51.14)"/><use width="79.33" height="82.26" transform="translate(732.85 206.91) rotate(-11.1)"/><use width="79.33" height="82.26" transform="translate(900.36 247.35) rotate(112.19)"/><use width="79.33" height="82.26" transform="translate(951.92 141.24) rotate(72.44)"/><use width="79.33" height="82.26" transform="translate(768.06 73.71) rotate(44.48)"/><use width="79.33" height="82.26" transform="translate(670.12 170.26) rotate(-34.87)"/><use width="79.33" height="82.26" transform="translate(844.36 166.26) rotate(54.08)"/><use width="79.33" height="82.26" transform="translate(859.04 298.13) rotate(137.56)"/><use width="79.33" height="82.26" transform="translate(917.25 217.92) rotate(70.31)"/><use width="79.33" height="82.26" transform="matrix(0.65, 0.76, -0.76, 0.65, 919.25, 180.75)"/><use width="79.33" height="82.26" transform="translate(805.38 101.14) rotate(43.87)"/><use width="79.33" height="82.26" transform="translate(950.51 106.27) rotate(71.11)"/><use width="79.33" height="82.26" transform="matrix(0.52, 0.86, -0.86, 0.52, 935, 69.18)"/><use width="79.33" height="82.26" transform="translate(843.73 52.75) rotate(44.91)"/><use width="79.33" height="82.26" transform="translate(999.21 84.65) rotate(72.69)"/><use width="79.33" height="82.26" transform="translate(1014.76 121.37) rotate(75.06)"/><use width="79.33" height="82.26" transform="translate(1027.33 146.84) rotate(71.32)"/><use width="79.33" height="82.26" transform="translate(1033.19 83.6) rotate(72.91)"/><use width="79.33" height="82.26" transform="translate(978.2 159.36) rotate(67.59)"/><use width="79.33" height="82.26" transform="matrix(0.56, 0.83, -0.83, 0.56, 906.01, 167.37)"/><use width="79.33" height="82.26" transform="matrix(0.61, 0.79, -0.79, 0.61, 871.92, 162.53)"/><use width="79.33" height="82.26" transform="translate(878.05 81.97) rotate(48.95)"/><use width="79.33" height="82.26" transform="translate(712.88 184.58) rotate(-33.68)"/><use width="79.33" height="82.26" transform="matrix(-0.71, 0.7, -0.7, -0.71, 868.75, 267.3)"/><use width="79.33" height="82.26" transform="translate(925.94 292.09) rotate(121.81)"/><use width="79.33" height="82.26" transform="matrix(-0.5, 0.87, -0.87, -0.5, 889.79, 296.89)"/><use width="79.33" height="82.26" transform="translate(773.97 227.93) rotate(63.13)"/><use width="79.33" height="82.26" transform="matrix(0.41, -0.91, 0.91, 0.41, 666.16, 269.94)"/><use width="79.33" height="82.26" transform="translate(693.05 264.23) rotate(-57.64)"/><use width="79.33" height="82.26" transform="translate(762.82 169.59) rotate(-0.58)"/><use width="79.33" height="82.26" transform="matrix(0.43, 0.91, -0.91, 0.43, 1080.96, 295.1)"/><use width="79.33" height="82.26" transform="matrix(0.99, -0.17, 0.17, 0.99, 962.31, 331.1)"/><use width="79.33" height="82.26" transform="translate(961.36 461.43) rotate(-175.01)"/><use width="79.33" height="82.26" transform="translate(924.31 447.8) rotate(-115.29)"/><use width="79.33" height="82.26" transform="translate(897.75 346) rotate(-37.59)"/><use width="79.33" height="82.26" transform="translate(883.69 435.65) rotate(-120.05)"/><use width="79.33" height="82.26" transform="translate(949.13 276.64) rotate(11.82) scale(1.01)"/><use width="79.33" height="82.26" transform="matrix(0.74, -0.67, 0.67, 0.74, 867.97, 317.48)"/><use width="79.33" height="82.26" transform="translate(823.11 354.29) rotate(-54.25)"/><use width="79.33" height="82.26" transform="translate(886.95 250.92) rotate(-14.28)"/><use width="79.33" height="82.26" transform="matrix(0.93, -0.37, 0.37, 0.93, 812.23, 289.74)"/><use width="79.33" height="82.26" transform="translate(846.17 286.3) rotate(-40.99)"/><use width="79.33" height="82.26" transform="matrix(0.86, 0.71, -0.71, 0.86, 983.82, 172.85)"/><use width="79.33" height="82.26" transform="translate(1051.98 174.94) rotate(61.5) scale(1.22)"/><use width="79.33" height="82.26" transform="translate(1090.03 165.57) rotate(66.94) scale(1.16)"/><use width="79.33" height="82.26" transform="matrix(0.44, 0.96, -0.96, 0.44, 1131.72, 166.25)"/><use width="79.33" height="82.26" transform="translate(1209.55 349.43) rotate(108.72)"/><use width="79.33" height="82.26" transform="translate(1225.88 388.27) rotate(115.83)"/><use width="79.33" height="82.26" transform="matrix(-0.61, 0.8, -0.8, -0.61, 1238.06, 428.98)"/><use width="79.33" height="82.26" transform="translate(1057.28 258.13) rotate(52.2) scale(1.07)"/><use width="79.33" height="82.26" transform="translate(1091.71 286.05) rotate(63.81) scale(1.01)"/><use width="79.33" height="82.26" transform="translate(1259.25 373.07) rotate(123.47)"/><use width="79.33" height="82.26" transform="matrix(-0.43, 0.9, -0.9, -0.43, 1241.4, 327.99)"/><use width="79.33" height="82.26" transform="translate(1153 313.51) rotate(87.28)"/><use width="79.33" height="82.26" transform="translate(1174.46 250.09) rotate(62.53)"/><use width="79.33" height="82.26" transform="translate(1223.47 231.52) rotate(60.11)"/><use width="79.33" height="82.26" transform="matrix(-0.41, 0.91, -0.91, -0.41, 1291.49, 310.34)"/><use width="79.33" height="82.26" transform="translate(1290.05 351.04) rotate(124.61)"/><use width="79.33" height="82.26" transform="matrix(-0.6, 0.8, -0.8, -0.6, 1298.21, 408.07)"/><use width="79.33" height="82.26" transform="translate(1276.99 452.23) rotate(124.25)"/><use width="79.33" height="82.26" transform="translate(1174.47 574.66) rotate(-173.22)" xlink:href="#Figueira-Foliage-BG-2"/><use width="79.33" height="82.26" transform="translate(1124.87 548.63) rotate(-174.45)"/><use width="79.33" height="82.26" transform="matrix(-0.64, 0.77, -0.77, -0.64, 1110.06, 467.2)"/><use width="79.33" height="82.26" transform="translate(1054.42 427.7) rotate(72.6)"/><use width="79.33" height="82.26" transform="translate(1066.04 398.34) rotate(86.49)"/><use width="79.33" height="82.26" transform="matrix(-0.63, 0.78, -0.78, -0.63, 1116.51, 416.68)"/><use width="79.33" height="82.26" transform="translate(1201.45 492.31) rotate(166.77)"/><use width="79.33" height="82.26" transform="translate(1203.58 532) rotate(-175.41)"/><use width="79.33" height="82.26" transform="translate(1167.25 530.83) rotate(-175.03)"/><use width="79.33" height="82.26" transform="translate(1149.65 501.96) rotate(-176.82)"/><use width="79.33" height="82.26" transform="matrix(-0.99, 0.1, -0.1, -0.99, 1131.91, 475.51)"/><use width="79.33" height="82.26" transform="translate(1165.77 445.82) rotate(157.57)"/><use width="79.33" height="82.26" transform="translate(1146.46 428.13) rotate(151.46)"/><use width="79.33" height="82.26" transform="translate(1171.73 367.41) rotate(110.22)"/><use width="79.33" height="82.26" transform="translate(1153.27 212.48) rotate(64.11) scale(1.01)"/><use width="79.33" height="82.26" transform="translate(1127.07 209.96) rotate(66.18) scale(1.08)"/><use width="79.33" height="82.26" transform="matrix(0.43, 1.06, -1.06, 0.43, 1101.54, 208.39)"/><use width="79.33" height="82.26" transform="matrix(0.44, 0.96, -0.96, 0.44, 1092.96, 263.36)"/><use width="79.33" height="82.26" transform="translate(1029.89 303.89) rotate(40.81)"/><use width="79.33" height="82.26" transform="translate(1014.41 445.63) rotate(-134.05)"/><use width="79.33" height="82.26" transform="matrix(0.69, 0.89, -0.89, 0.69, 1018.26, 223.31)"/><use width="79.33" height="82.26" transform="matrix(0.93, 0.53, -0.53, 0.93, 959.64, 214.29)"/><use width="79.33" height="82.26" transform="translate(1209.82 294.12) rotate(89.14)"/><use width="79.33" height="82.26" transform="translate(1202.71 317.66) rotate(98.99)"/><use width="79.33" height="82.26" transform="translate(1156.39 271.97) rotate(68.27)"/><use width="79.33" height="82.26" transform="translate(1126.16 261.43) rotate(66.34) scale(1.02)"/><use width="79.33" height="82.26" transform="matrix(0.32, 0.95, -0.95, 0.32, 1126.28, 287.28)"/><use width="79.33" height="82.26" transform="translate(1139.8 332.61) rotate(103.62)"/><use width="79.33" height="82.26" transform="translate(1120.07 326.75) rotate(89.09)"/><use width="79.33" height="82.26" transform="translate(760.81 152.44) rotate(17.02)"/><use width="79.33" height="82.26" transform="translate(714 76.88) rotate(35.74)"/><use width="79.33" height="82.26" transform="translate(648.19 353.6) rotate(-88.84)"/><use width="79.33" height="82.26" transform="translate(617.95 177.16) rotate(4.54)"/><use width="79.33" height="82.26" transform="matrix(0.88, 0.47, -0.47, 0.88, 672.95, 100.8)"/><use width="79.33" height="82.26" transform="translate(538.28 185.95) rotate(-9.1)"/><use width="79.33" height="82.26" transform="translate(666.58 276.58) rotate(-41.05)"/><use width="79.33" height="82.26" transform="translate(662.83 185.46) rotate(4.84)"/><use width="79.33" height="82.26" transform="translate(892.31 109.85) rotate(42.57)"/><use width="79.33" height="82.26" transform="matrix(0.33, 0.94, -0.94, 0.33, 846.33, 187.32)"/><use width="79.33" height="82.26" transform="translate(729 125.45) rotate(13.83)"/><use width="79.33" height="82.26" transform="matrix(0.69, -0.73, 0.73, 0.69, 591.75, 255.09)"/><use width="79.33" height="82.26" transform="translate(659.01 151.36) rotate(16.64)"/><use width="79.33" height="82.26" transform="translate(675.32 334.29) rotate(-60.36)"/><use width="79.33" height="82.26" transform="matrix(0.78, 0.62, -0.62, 0.78, 851.37, 100.61)"/><use width="79.33" height="82.26" transform="translate(935.6 231.57) rotate(95.84)"/><use width="79.33" height="82.26" transform="translate(946.64 133.6) rotate(60.19)"/><use width="79.33" height="82.26" transform="translate(1043.09 286.65) rotate(113.57)"/><use width="79.33" height="82.26" transform="translate(1099.33 312.38) rotate(94.8)"/><use width="79.33" height="82.26" transform="translate(1114.82 260.58) rotate(105.79)"/><use width="79.33" height="82.26" transform="translate(1014.97 264.75) rotate(117.9)"/><use width="79.33" height="82.26" transform="translate(842.41 141.13) rotate(52.68)"/><use width="79.33" height="82.26" transform="translate(884.22 204.72) rotate(79.33)"/><use width="79.33" height="82.26" transform="translate(935.59 161.55) rotate(82.06)"/><use width="79.33" height="82.26" transform="translate(996.62 191.22) rotate(92.31)"/><use width="79.33" height="82.26" transform="translate(1048.84 252.34) rotate(105.08)"/><use width="79.33" height="82.26" transform="matrix(-0.21, 0.98, -0.98, -0.21, 1068.89, 209.95)"/><use width="79.33" height="82.26" transform="translate(1034.95 213.22) rotate(99.61)"/><use width="79.33" height="82.26" transform="translate(1034.16 162.98) rotate(74.53)"/><use width="79.33" height="82.26" transform="translate(992.15 145.36) rotate(60.83)"/><use width="79.33" height="82.26" transform="translate(1072.09 239.48) rotate(99.03)"/><use width="79.33" height="82.26" transform="translate(967.98 233.69) rotate(100.15)"/><use width="79.33" height="82.26" transform="translate(883.64 132.01) rotate(60.58)"/><use width="79.33" height="82.26" transform="translate(918.33 196.24) rotate(96.96)"/><use width="79.33" height="82.26" transform="translate(971.08 206.47) rotate(106.81)"/><use width="79.33" height="82.26" transform="translate(720.28 181.46) rotate(7.6)"/><use width="79.33" height="82.26" transform="translate(710.32 289.58) rotate(-21.16)"/><use width="79.33" height="82.26" transform="translate(628.8 335.23) rotate(-95.4)"/><use width="79.33" height="82.26" transform="translate(740.47 89.59) rotate(36.84)"/><use width="79.33" height="82.26" transform="translate(768.69 104.23) rotate(10.7)"/><use width="79.33" height="82.26" transform="translate(756.67 74.86) rotate(18.61)"/><use width="79.33" height="82.26" transform="translate(519.93 245.88) rotate(-40.08)"/><use width="79.33" height="82.26" transform="translate(569.82 150.4) rotate(1.42)"/><use width="79.33" height="82.26" transform="translate(563.35 115.29) rotate(5.85)"/><use width="79.33" height="82.26" transform="translate(485.24 172.12) rotate(-14.3)"/><use width="79.33" height="82.26" transform="translate(506.04 174.17) rotate(-33.57)"/><use width="79.33" height="82.26" transform="matrix(0.93, 0.36, -0.36, 0.93, 611.78, 113.69)"/><use width="79.33" height="82.26" transform="translate(1254.91 490.63) rotate(-116.57)"/><use width="79.33" height="82.26" transform="translate(1167.33 567.26) rotate(-111.3)"/><use width="79.33" height="82.26" transform="translate(1129.98 599.23) rotate(-107.1)"/><use width="79.33" height="82.26" transform="translate(1072.58 588.33) rotate(-101.66)"/><use width="79.33" height="82.26" transform="translate(993.9 608.82) rotate(-90)"/><use width="79.33" height="82.26" transform="translate(944.64 620.51) rotate(-90)"/><use width="79.33" height="82.26" transform="translate(902.96 609.29) rotate(-77.47)"/><use width="79.33" height="82.26" transform="matrix(1, -0.04, 0.04, 1, 935.4, 385.28)"/><use width="79.33" height="82.26" transform="translate(900.86 403.55) rotate(-59.04)"/><use width="79.33" height="82.26" transform="translate(826.59 498.94) rotate(-101.82)"/><use width="79.33" height="82.26" transform="matrix(-0.5, -0.86, 0.86, -0.5, 806.72, 577.75)"/><use width="79.33" height="82.26" transform="translate(779.32 654.74) rotate(-118.07)"/><use width="79.33" height="82.26" transform="translate(1057.57 515.59) rotate(-106.35)"/><use width="79.33" height="82.26" transform="translate(884.12 621.69) rotate(-101.84)"/><use width="79.33" height="82.26" transform="translate(784.02 521.35) rotate(-100.04)"/><use width="79.33" height="82.26" transform="translate(708.58 592.68) rotate(-101.31)"/><use width="79.33" height="82.26" transform="translate(187.41 630) rotate(-110.82)"/><use width="79.33" height="82.26" transform="matrix(-0.08, -1, 1, -0.08, 140.57, 595.9)"/><use width="79.33" height="82.26" transform="translate(92.24 467.69) rotate(-59.53)"/><use width="79.33" height="82.26" transform="translate(51.1 393.18) rotate(-63.43)"/><use width="79.33" height="82.26" transform="translate(312.4 691.37) rotate(-109.24)"/><use width="79.33" height="82.26" transform="translate(240.54 623.24) rotate(-63.43)"/><use width="79.33" height="82.26" transform="translate(196.95 603.84) rotate(-82.09)"/><use width="79.33" height="82.26" transform="matrix(0.32, -0.95, 0.95, 0.32, 163.45, 555.09)"/><use width="79.33" height="82.26" transform="translate(196.61 302.97) rotate(34.51)"/><use width="79.33" height="82.26" transform="matrix(0.31, 0.95, -0.95, 0.31, 375.66, 219.35)"/><use width="79.33" height="82.26" transform="translate(516.32 381.51) rotate(108.08)"/><use width="79.33" height="82.26" transform="translate(581.5 606.62) rotate(123.69)"/><use width="79.33" height="82.26" transform="translate(632.61 662.03) rotate(131.99)"/><use width="79.33" height="82.26" transform="translate(504.98 711.52) rotate(-106.7)"/><use width="79.33" height="82.26" transform="translate(366.1 661.74) rotate(-90)"/><use width="79.33" height="82.26" transform="translate(325.33 609.16) rotate(-77.47)"/><use width="79.33" height="82.26" transform="translate(314.61 644.51) rotate(-90)"/><use width="79.33" height="82.26" transform="matrix(0.93, -0.37, 0.37, 0.93, 298.68, 528.51)"/><use width="79.33" height="82.26" transform="translate(288.6 309.6) rotate(7.13)"/><use width="79.33" height="82.26" transform="translate(468.46 469.07) rotate(97.13)"/><use width="79.33" height="82.26" transform="translate(537.56 585.14) rotate(113.2)"/><use width="79.33" height="82.26" transform="translate(455.46 703.41) rotate(-132.51)"/><use width="79.33" height="82.26" transform="translate(360.8 700.8) rotate(-104.93)"/><use width="79.33" height="82.26" transform="translate(269.17 606.51) rotate(-69.15)"/><use width="79.33" height="82.26" transform="matrix(0.76, 0.65, -0.65, 0.76, 341.15, 265.85)"/><use width="79.33" height="82.26" transform="translate(503.92 236.24) rotate(80.91)"/><use width="79.33" height="82.26" transform="translate(564.5 306.36) rotate(99.46)"/><use width="79.33" height="82.26" transform="translate(606.62 383.22) rotate(90)"/><use width="79.33" height="82.26" transform="translate(576.26 292.69) rotate(63.43)"/><use width="79.33" height="82.26" transform="translate(603.23 278.45) rotate(59.04)"/><use width="79.33" height="82.26" transform="translate(524.69 458.27) rotate(-116.57)"/><use width="79.33" height="82.26" transform="translate(383.15 463.8) rotate(-93.37)"/><use width="79.33" height="82.26" transform="translate(314.02 477.94) rotate(-90)"/><use width="79.33" height="82.26" transform="translate(246.13 368.66) rotate(-90)"/><use width="79.33" height="82.26" transform="matrix(-0.21, -0.98, 0.98, -0.21, 177.21, 524.85)"/><use width="79.33" height="82.26" transform="translate(138.1 547.18) rotate(-104.04)"/><use width="79.33" height="82.26" transform="translate(92.57 555.59) rotate(-90)"/><use width="79.33" height="82.26" transform="translate(58.75 515.86) rotate(-90)"/><use width="79.33" height="82.26" transform="translate(16.5 524.94) rotate(-87.8)"/><use width="79.33" height="82.26" transform="translate(-3.77 483.96) rotate(-85.6)"/><use width="79.33" height="82.26" transform="translate(1166.38 527.69) rotate(-135)"/><use width="79.33" height="82.26" transform="translate(1076.17 542.32) rotate(-90)"/><use width="79.33" height="82.26" transform="translate(979.31 517.76) rotate(-78.69)"/><use width="79.33" height="82.26" transform="translate(948.38 348.06) rotate(-35.54)"/><use width="79.33" height="82.26" transform="translate(1056.73 260.05) rotate(51.84)"/><use width="79.33" height="82.26" transform="translate(1007.19 447.34) rotate(-132.51)"/><use width="79.33" height="82.26" transform="matrix(-0.34, -0.94, 0.94, -0.34, 856.31, 561.73)" xlink:href="#Figueira-Foliage-BG-7"/><use width="79.33" height="82.26" transform="matrix(-0.2, -0.98, 0.98, -0.2, 808.89, 607.72)" xlink:href="#Figueira-Foliage-BG-7"/><use width="79.33" height="82.26" transform="matrix(-0.2, -0.98, 0.98, -0.2, 749.67, 624.54)" xlink:href="#Figueira-Foliage-BG-7"/><use width="79.33" height="82.26" transform="translate(697.53 660.01) rotate(-101.31)" xlink:href="#Figueira-Foliage-BG-7"/><use width="79.33" height="82.26" transform="translate(647.97 670.56) rotate(-101.31)" xlink:href="#Figueira-Foliage-BG-7"/><use width="79.33" height="82.26" transform="translate(558.5 640.18) rotate(-90)" xlink:href="#Figueira-Foliage-BG-7"/><use width="79.33" height="82.26" transform="translate(530.85 616.58) rotate(-90)" xlink:href="#Figueira-Foliage-BG-7"/><use width="79.33" height="82.26" transform="translate(679.51 505.52) rotate(75.53)" xlink:href="#Figueira-Foliage-BG-7"/><use width="79.33" height="82.26" transform="translate(762.56 483.46) rotate(-90)" xlink:href="#Figueira-Foliage-BG-7"/><use width="79.33" height="82.26" transform="translate(698.66 443.3) rotate(-87.8)" xlink:href="#Figueira-Foliage-BG-7"/><use width="79.33" height="82.26" transform="translate(658.39 438.57) rotate(-102.09)" xlink:href="#Figueira-Foliage-BG-7"/><use width="79.33" height="82.26" transform="translate(790.4 420.77) rotate(128.66)" xlink:href="#Figueira-Foliage-BG-7"/><use width="79.33" height="82.26" transform="matrix(0.16, 0.99, -0.99, 0.16, 911.66, 366.09)"/><use width="79.33" height="82.26" transform="translate(957.05 287.74) rotate(55.62)"/><use width="79.33" height="82.26" transform="matrix(0.37, -0.93, 0.93, 0.37, 867.64, 336.9)"/><use width="79.33" height="82.26" transform="translate(772.1 463.66) rotate(-109.59)" xlink:href="#Figueira-Foliage-BG-7"/><use width="79.33" height="82.26" transform="translate(745.01 581.66) rotate(-112.17)" xlink:href="#Figueira-Foliage-BG-7"/><use width="79.33" height="82.26" transform="translate(684.44 624.1) rotate(-112.38)" xlink:href="#Figueira-Foliage-BG-7"/><use width="79.33" height="82.26" transform="translate(623.86 674.22) rotate(-111.8)" xlink:href="#Figueira-Foliage-BG-7"/><use width="79.33" height="82.26" transform="translate(566.36 697.99) rotate(-107.24)" xlink:href="#Figueira-Foliage-BG-7"/><use width="79.33" height="82.26" transform="matrix(0.22, -0.97, 0.97, 0.22, 403.25, 600.61)" xlink:href="#Figueira-Foliage-BG-7"/><use width="79.33" height="82.26" transform="translate(354.9 478.11) rotate(-63.43)"/><use width="79.33" height="82.26" transform="translate(304.55 410.47) rotate(-85.43)"/><use width="79.33" height="82.26" transform="translate(238.67 420.72) rotate(-93.27)"/><use width="79.33" height="82.26" transform="translate(152.21 456.75) rotate(-96.91)"/><use width="79.33" height="82.26" transform="translate(90.96 447.36) rotate(-88.41)"/><use width="79.33" height="82.26" transform="translate(1168.87 293.56) rotate(80.54)"/><use width="79.33" height="82.26" transform="matrix(0.18, 0.98, -0.98, 0.18, 1222.1, 280.42)"/><use width="79.33" height="82.26" transform="translate(1274.64 291.55) rotate(75.07)"/><use width="79.33" height="82.26" transform="translate(1257.12 243.69) rotate(54.46)"/><use width="79.33" height="82.26" transform="translate(1183.91 435.35) rotate(-119.05)"/><use width="79.33" height="82.26" transform="matrix(-0.54, -0.84, 0.84, -0.54, 628.7, 393.76)" xlink:href="#Figueira-Foliage-BG-7"/><use width="79.33" height="82.26" transform="translate(543.4 436.42) rotate(-109.98)" xlink:href="#Figueira-Foliage-BG-7"/><use width="79.33" height="82.26" transform="translate(485.78 515.01) rotate(-113.5)" xlink:href="#Figueira-Foliage-BG-7"/><use width="79.33" height="82.26" transform="translate(408.96 603.85) rotate(-109.8)" xlink:href="#Figueira-Foliage-BG-7"/><use width="79.33" height="82.26" transform="matrix(-0.51, -0.86, 0.86, -0.51, 431.29, 667.1)" xlink:href="#Figueira-Foliage-BG-7"/><use width="79.33" height="82.26" transform="translate(602.96 573.02) rotate(88.49)" xlink:href="#Figueira-Foliage-BG-7"/><use width="79.33" height="82.26" transform="translate(498.35 530.36)" xlink:href="#Figueira-Foliage-BG-7"/><use width="79.33" height="82.26" transform="translate(466.42 562.88) rotate(-73.3)" xlink:href="#Figueira-Foliage-BG-7"/><use width="79.33" height="82.26" transform="translate(455.69 605.33) rotate(-90)" xlink:href="#Figueira-Foliage-BG-7"/><use width="79.33" height="82.26" transform="translate(428.94 562.95) rotate(-90)" xlink:href="#Figueira-Foliage-BG-7"/><use width="79.33" height="82.26" transform="translate(421.62 527.85) rotate(-90)" xlink:href="#Figueira-Foliage-BG-7"/><use width="79.33" height="82.26" transform="translate(556.24 442.44) rotate(82.41)" xlink:href="#Figueira-Foliage-BG-7"/><use width="79.33" height="82.26" transform="translate(606.15 472.92) rotate(78.69)" xlink:href="#Figueira-Foliage-BG-7"/><use width="79.33" height="82.26" transform="translate(657.31 423.01) rotate(75.96)" xlink:href="#Figueira-Foliage-BG-7"/><use width="79.33" height="82.26" transform="translate(661.85 461.24) rotate(75.96)" xlink:href="#Figueira-Foliage-BG-7"/><use width="79.33" height="82.26" transform="translate(675.34 371.93) rotate(71.57)" xlink:href="#Figueira-Foliage-BG-7"/><use width="79.33" height="82.26" transform="translate(556.1 392.1) rotate(-71.57)" xlink:href="#Figueira-Foliage-BG-7"/><use width="79.33" height="82.26" transform="matrix(0.34, -0.94, 0.94, 0.34, 508.64, 331.89)" xlink:href="#Figueira-Foliage-BG-7"/><use width="79.33" height="82.26" transform="translate(466.99 312.51) rotate(-74.05)" xlink:href="#Figueira-Foliage-BG-7"/><use width="82.26" height="79.33" transform="translate(1102.49 387.09) rotate(90)"/><use width="82.26" height="79.33" transform="translate(1121.85 355.88) rotate(90)"/><use width="82.26" height="79.33" transform="translate(1161.07 365.66) rotate(90)"/><use width="82.26" height="79.33" transform="translate(1102.38 500.93) rotate(-123.69)"/><use width="82.26" height="79.33" transform="translate(1031.7 559.91) rotate(-104.04)"/><use width="82.26" height="79.33" transform="translate(996.52 502.17) rotate(-97.13)"/><use width="82.26" height="79.33" transform="translate(988.14 581.18) rotate(-99.46)"/><use width="82.26" height="79.33" transform="translate(951.46 534.44) rotate(-90)"/><use width="82.26" height="79.33" transform="translate(939.1 575.81) rotate(-90)"/><use width="82.26" height="79.33" transform="translate(899.34 569.48) rotate(-80.54)"/><use width="82.26" height="79.33" transform="matrix(0.53, -0.85, 0.85, 0.53, 880.33, 510.39)"/><use width="82.26" height="79.33" transform="translate(884.59 463.35) rotate(-45)"/><use width="82.26" height="79.33" transform="matrix(0.84, -0.54, 0.54, 0.84, 869.34, 413.54)"/><use width="82.26" height="79.33" transform="translate(860.63 362.61) rotate(-28.61)"/><use width="82.26" height="79.33" transform="translate(837.22 352.5) rotate(-45)"/><use width="82.26" height="79.33" transform="translate(830.06 345.44) rotate(-75.96)"/><use width="82.26" height="79.33" transform="translate(801.63 366.21) rotate(-92.86)"/><use width="82.26" height="79.33" transform="matrix(-0.2, -0.98, 0.98, -0.2, 771.02, 343.98)"/><use width="82.26" height="79.33" transform="translate(784.01 406.29) rotate(-113.96)"/><use width="82.26" height="79.33" transform="matrix(-0.37, -0.93, 0.93, -0.37, 744.12, 410.09)"/><use width="82.26" height="79.33" transform="translate(702.64 414.78) rotate(-115.02)"/><use width="82.26" height="79.33" transform="translate(676.69 540.63) rotate(-112.25)"/><use width="82.26" height="79.33" transform="translate(652 572.73) rotate(-109.98)"/><use width="82.26" height="79.33" transform="translate(598.36 446.24) rotate(-99.46)"/><use width="82.26" height="79.33" transform="matrix(-0.18, -0.98, 0.98, -0.18, 563.77, 507.72)"/><use width="82.26" height="79.33" transform="matrix(-0.22, -0.98, 0.98, -0.22, 548.54, 544.54)"/><use width="82.26" height="79.33" transform="translate(511.87 507.62) rotate(-96.34)"/><use width="82.26" height="79.33" transform="translate(458.42 413.37) rotate(-90)"/><use width="82.26" height="79.33" transform="translate(417.21 478.95) rotate(-86.82)"/><use width="82.26" height="79.33" transform="translate(391.11 369.83) rotate(-75.96)"/><use width="82.26" height="79.33" transform="translate(376.08 331.62) rotate(-78.69)"/><use width="82.26" height="79.33" transform="translate(350.38 337.27) rotate(-90)"/><use width="82.26" height="79.33" transform="translate(335.97 374.34) rotate(-90)"/><use width="82.26" height="79.33" transform="translate(350.42 463.11) rotate(-116.57)"/><use width="82.26" height="79.33" transform="matrix(-0.58, -0.81, 0.81, -0.58, 348.14, 527.5)"/><use width="82.26" height="79.33" transform="matrix(-0.51, -0.86, 0.86, -0.51, 340.69, 565.64)"/><use width="82.26" height="79.33" transform="translate(291.22 541.22) rotate(-105.95)"/><use width="82.26" height="79.33" transform="translate(285.71 586.64) rotate(-108.43)"/><use width="82.26" height="79.33" transform="translate(231.53 546.35) rotate(-81.87)"/><use width="82.26" height="79.33" transform="matrix(0.53, -0.85, 0.85, 0.53, 206.74, 434.67)"/><use width="82.26" height="79.33" transform="translate(190.27 346.81) rotate(-71.57)"/><use width="82.26" height="79.33" transform="translate(199.72 395.88) rotate(-90)"/><use width="82.26" height="79.33" transform="translate(185.11 433.56) rotate(-90)"/><use width="82.26" height="79.33" transform="translate(238.92 495.34) rotate(-153.43)"/><use width="82.26" height="79.33" transform="translate(295.54 448.23) rotate(100.3)"/><use width="82.26" height="79.33" transform="translate(326.05 409.6) rotate(83.99)"/><use width="82.26" height="79.33" transform="translate(349.82 366.04) rotate(76.76)"/><use width="82.26" height="79.33" transform="translate(423.66 326.76) rotate(78.69)"/><use width="82.26" height="79.33" transform="translate(473.69 323.03) rotate(80.91)"/><use width="82.26" height="79.33" transform="translate(516.31 275.98) rotate(90)"/><use width="82.26" height="79.33" transform="translate(550.52 362.34) rotate(94.4)"/><use width="82.26" height="79.33" transform="translate(644.96 385.57) rotate(95.04)"/><use width="82.26" height="79.33" transform="translate(711.71 424.72) rotate(90)"/><use width="82.26" height="79.33" transform="translate(760.12 426.69) rotate(90)"/><use width="82.26" height="79.33" transform="translate(780.18 472.27) rotate(90)"/><use width="82.26" height="79.33" transform="translate(812.77 443.61) rotate(90)"/><use width="79.33" height="82.26" transform="translate(971.96 530.55) rotate(-150.95)" xlink:href="#Figueira-Foliage-BG-11"/><use width="79.33" height="82.26" transform="matrix(-0.5, -0.87, 0.87, -0.5, 929.64, 571.64)" xlink:href="#Figueira-Foliage-BG-11"/><use width="79.33" height="82.26" transform="matrix(-0.16, -0.99, 0.99, -0.16, 870.52, 586.93)" xlink:href="#Figueira-Foliage-BG-11"/><use width="79.33" height="82.26" transform="translate(818.56 554.91) rotate(-90)" xlink:href="#Figueira-Foliage-BG-11"/><use width="79.33" height="82.26" transform="translate(795.16 444) rotate(-26.57)" xlink:href="#Figueira-Foliage-BG-11"/><use width="79.33" height="82.26" transform="translate(864.26 357.41) rotate(45)" xlink:href="#Figueira-Foliage-BG-11"/><use width="79.33" height="82.26" transform="translate(929.08 374.53) rotate(69.44)" xlink:href="#Figueira-Foliage-BG-11"/><use width="79.33" height="82.26" transform="translate(913.2 552.26) rotate(-151.7)" xlink:href="#Figueira-Foliage-BG-11"/><use width="79.33" height="82.26" transform="matrix(-0.36, -0.93, 0.93, -0.36, 839.95, 621.84)" xlink:href="#Figueira-Foliage-BG-11"/><use width="79.33" height="82.26" transform="translate(784.53 590.48) rotate(-90)" xlink:href="#Figueira-Foliage-BG-11"/><use width="79.33" height="82.26" transform="translate(759.87 510.4) rotate(-90)" xlink:href="#Figueira-Foliage-BG-11"/><use width="79.33" height="82.26" transform="translate(752.95 551.69) rotate(-90)" xlink:href="#Figueira-Foliage-BG-11"/><use width="79.33" height="82.26" transform="translate(733.21 508.8) rotate(-105.26)" xlink:href="#Figueira-Foliage-BG-11"/><use width="79.33" height="82.26" transform="translate(747.71 610.34) rotate(-111.8)" xlink:href="#Figueira-Foliage-BG-11"/><use width="79.33" height="82.26" transform="translate(701.37 544.65) rotate(-90)" xlink:href="#Figueira-Foliage-BG-11"/><use width="79.33" height="82.26" transform="translate(736.38 646.87) rotate(-116.57)" xlink:href="#Figueira-Foliage-BG-11"/><use width="79.33" height="82.26" transform="translate(676.72 515.38) rotate(-99.46)" xlink:href="#Figueira-Foliage-BG-11"/><use width="79.33" height="82.26" transform="translate(679.17 586.59) rotate(-90)" xlink:href="#Figueira-Foliage-BG-11"/><use width="79.33" height="82.26" transform="translate(685.47 570.76) rotate(-116.57)" xlink:href="#Figueira-Foliage-BG-11"/><use width="79.33" height="82.26" transform="translate(703.81 669.86) rotate(-116.57)" xlink:href="#Figueira-Foliage-BG-11"/><use width="79.33" height="82.26" transform="translate(675.16 629.02) rotate(-108.43)" xlink:href="#Figueira-Foliage-BG-11"/><use width="79.33" height="82.26" transform="translate(642.23 656.1) rotate(-90)" xlink:href="#Figueira-Foliage-BG-11"/><use width="79.33" height="82.26" transform="translate(623.39 525.67) rotate(-90)" xlink:href="#Figueira-Foliage-BG-11"/><use width="79.33" height="82.26" transform="translate(614.27 605.73) rotate(-90)" xlink:href="#Figueira-Foliage-BG-11"/><use width="79.33" height="82.26" transform="translate(602.94 566.97) rotate(-90)" xlink:href="#Figueira-Foliage-BG-11"/><use width="79.33" height="82.26" transform="translate(592.17 647.02) rotate(-90)" xlink:href="#Figueira-Foliage-BG-11"/><use width="79.33" height="82.26" transform="translate(571.17 522.87) rotate(-90)" xlink:href="#Figueira-Foliage-BG-11"/><use width="79.33" height="82.26" transform="translate(558.15 613.9) rotate(-90)" xlink:href="#Figueira-Foliage-BG-11"/><use width="79.33" height="82.26" transform="translate(543.95 543.85) rotate(-90)"/><use width="79.33" height="82.26" transform="translate(527.32 580.28) rotate(-90)"/><use width="79.33" height="82.26" transform="translate(509.67 525.62) rotate(-90)"/><use width="79.33" height="82.26" transform="translate(527.13 652.28) rotate(-108.43)"/><use width="79.33" height="82.26" transform="translate(492.23 608.63) rotate(-96.34)"/><use width="79.33" height="82.26" transform="matrix(-0.2, -0.98, 0.98, -0.2, 486.44, 669.35)"/><use width="79.33" height="82.26" transform="translate(461.07 573.87) rotate(-90)"/><use width="79.33" height="82.26" transform="translate(446.06 621.05) rotate(-90)"/><use width="79.33" height="82.26" transform="translate(426.81 665.51) rotate(-90)"/><use width="79.33" height="82.26" transform="translate(388.68 639.99) rotate(-83.66)"/><use width="79.33" height="82.26" transform="translate(379.18 601.9) rotate(-82.87)"/><use width="79.33" height="82.26" transform="translate(347.01 650.94) rotate(-75.96)"/><use width="79.33" height="82.26" transform="matrix(0.16, -0.99, 0.99, 0.16, 317.46, 649.1)"/><use width="79.33" height="82.26" transform="matrix(0.37, -0.93, 0.93, 0.37, 324, 594.52)"/><use width="79.33" height="82.26" transform="translate(280.84 592.32) rotate(-59.74)"/><use width="79.33" height="82.26" transform="matrix(0.35, -0.94, 0.94, 0.35, 285.97, 557.64)"/><use width="79.33" height="82.26" transform="translate(263.47 543.45) rotate(-77.47)"/><use width="79.33" height="82.26" transform="translate(246.28 609.61) rotate(-90)"/><use width="79.33" height="82.26" transform="translate(220.05 590.94) rotate(-90)"/><use width="79.33" height="82.26" transform="translate(215.37 630.1) rotate(-90)"/><use width="79.33" height="82.26" transform="matrix(0.62, -0.78, 0.78, 0.62, 211.57, 511.53)"/><use width="79.33" height="82.26" transform="translate(172.67 550.03) rotate(-71.57)"/><use width="79.33" height="82.26" transform="translate(179.45 503.96) rotate(-63.43)"/><use width="79.33" height="82.26" transform="translate(159.34 589.63) rotate(-90)"/><use width="79.33" height="82.26" transform="matrix(0.62, -0.78, 0.78, 0.62, 155.44, 462.8)"/><use width="79.33" height="82.26" transform="translate(130.31 520.77) rotate(-71.57)"/><use width="79.33" height="82.26" transform="translate(112.93 478.63) rotate(-74.05)"/><use width="79.33" height="82.26" transform="translate(96.25 543.29) rotate(-90)"/><use width="79.33" height="82.26" transform="translate(82.01 509.41) rotate(-90)"/><use width="79.33" height="82.26" transform="translate(94.3 384.68)"/><use width="79.33" height="82.26" transform="translate(223.53 363.94) rotate(86.99)"/><use width="79.33" height="82.26" transform="translate(275.35 369.03) rotate(98.53)"/><use width="79.33" height="82.26" transform="translate(299.8 388.42) rotate(90)"/><use width="79.33" height="82.26" transform="translate(327.57 349.22) rotate(90)"/><use width="79.33" height="82.26" transform="translate(347.87 401.67) rotate(96.34)"/><use width="79.33" height="82.26" transform="matrix(-0.2, 0.98, -0.98, -0.2, 379.23, 360.69)"/><use width="79.33" height="82.26" transform="translate(396.35 407.96) rotate(108.43)"/><use width="79.33" height="82.26" transform="translate(388.26 427.51) rotate(90)"/><use width="79.33" height="82.26" transform="translate(406.24 344.49) rotate(80.54)"/><use width="79.33" height="82.26" transform="translate(428.42 378.65) rotate(81.87)"/><use width="79.33" height="82.26" transform="translate(465.13 341.32) rotate(90)" xlink:href="#Figueira-Foliage-BG-11"/><use width="79.33" height="82.26" transform="translate(497.52 353.16) rotate(90)" xlink:href="#Figueira-Foliage-BG-11"/><use width="79.33" height="82.26" transform="translate(491.68 385.56) rotate(90)" xlink:href="#Figueira-Foliage-BG-11"/><use width="79.33" height="82.26" transform="translate(482.25 518.85) rotate(180)"/><use width="79.33" height="82.26" transform="translate(427.23 567.1) rotate(-135)"/><use width="79.33" height="82.26" transform="translate(350.86 555.51) rotate(-90)"/><use width="79.33" height="82.26" transform="translate(343.6 442.4) rotate(-21.8)"/><use width="79.33" height="82.26" transform="translate(1011.22 404.68) rotate(-151.39)"/><use width="79.33" height="82.26" transform="translate(993.23 423.58) rotate(-163.3)"/><use width="79.33" height="82.26" transform="translate(1042.16 435.96) rotate(180)"/><use width="79.33" height="82.26" transform="translate(1051.73 472.81) rotate(-168.69)"/><use width="79.33" height="82.26" transform="translate(995.99 509.68) rotate(-129.81)"/><use width="79.33" height="82.26" transform="translate(926.04 472.89) rotate(-105.95)"/><use width="79.33" height="82.26" transform="translate(904.51 466.68) rotate(-116.57)"/><use width="79.33" height="82.26" transform="translate(999.25 411.51) rotate(81.87)"/><use width="79.33" height="82.26" transform="translate(1032.8 447.09) rotate(90)"/><use width="79.33" height="82.26" transform="matrix(-0.5, -0.86, 0.86, -0.5, 937.38, 560.55)"/><use width="79.33" height="82.26" transform="translate(883.73 542.38) rotate(-102.09)"/><use width="79.33" height="82.26" transform="translate(859.36 508.69) rotate(-101.31)"/><use width="79.33" height="82.26" transform="translate(841.53 565.58) rotate(-96.34)"/><use width="79.33" height="82.26" transform="translate(827.18 493.07) rotate(-104.04)"/><use width="79.33" height="82.26" transform="translate(814.86 534.3) rotate(-90)"/><use width="79.33" height="82.26" transform="matrix(0.08, -1, 1, 0.08, 770.29, 520.6)"/><use width="79.33" height="82.26" transform="translate(733.15 472.96) rotate(-78.69)"/><use width="79.33" height="82.26" transform="translate(708.48 447.39) rotate(-85.91)"/><use width="79.33" height="82.26" transform="translate(703.48 492.43) rotate(-108.43)"/><use width="79.33" height="82.26" transform="matrix(-0.55, -0.83, 0.83, -0.55, 717.5, 540.75)"/><use width="79.33" height="82.26" transform="translate(685.73 570.04) rotate(-111.8)"/><use width="79.33" height="82.26" transform="translate(629.74 520.34) rotate(-90)"/><use width="79.33" height="82.26" transform="matrix(0.04, -1, 1, 0.04, 586.18, 550.69)"/><use width="79.33" height="82.26" transform="translate(561.64 487.24) rotate(-74.48)"/><use width="79.33" height="82.26" transform="translate(527.57 505.28) rotate(-63.43)"/><use width="79.33" height="82.26" transform="translate(525.84 452.79) rotate(-63.43)"/><use width="79.33" height="82.26" transform="translate(525.13 425.53) rotate(-75.96)"/><use width="79.33" height="82.26" transform="translate(507.2 461.12) rotate(-98.13)"/><use width="79.33" height="82.26" transform="translate(493.54 531.57) rotate(-95.71)"/><use width="79.33" height="82.26" transform="translate(495.33 504.08) rotate(-108.43)"/><use width="79.33" height="82.26" transform="translate(434.28 470.32) rotate(-82.87)"/><use width="79.33" height="82.26" transform="translate(421.89 428.73) rotate(-78.69)"/><use width="79.33" height="82.26" transform="matrix(-0.16, -0.99, 0.99, -0.16, 402.7, 461.39)"/><use width="79.33" height="82.26" transform="translate(449.75 515.93) rotate(-146.31)"/><use width="79.33" height="82.26" transform="matrix(-0.87, -0.49, 0.49, -0.87, 474.14, 570.9)"/><use width="79.33" height="82.26" transform="matrix(-0.58, -0.81, 0.81, -0.58, 415.59, 560.34)"/><use width="79.33" height="82.26" transform="matrix(-0.26, -0.96, 0.96, -0.26, 379.76, 587.03)"/><use width="79.33" height="82.26" transform="translate(342.8 532.23) rotate(-95.71)"/><use width="79.33" height="82.26" transform="matrix(-0.15, -0.99, 0.99, -0.15, 313.21, 578.03)" xlink:href="#Figueira-Foliage-BG-11"/><use width="79.33" height="82.26" transform="translate(272.46 551.67) rotate(-90)"/><use width="79.33" height="82.26" transform="translate(235.3 490.75) rotate(-61.93)"/></g></g></svg>