<svg xmlns="http://www.w3.org/2000/svg" xmlns:xlink="http://www.w3.org/1999/xlink" viewBox="0 0 1263.27 1224.4"><defs><style>.cls-1{fill:#4f6832;}.cls-2{fill:#516b32;}.cls-3{fill:#1e150f;}.cls-4{fill:#2a1e16;}.cls-5{fill:#35261c;}.cls-6{fill:#412f23;}.cls-7{fill:#4c3829;}.cls-8{fill:#57402f;}.cls-9{fill:#634936;}.cls-10{fill:#664b38;}.cls-11{fill:#684d39;}.cls-12{fill:#6b4f3b;}.cls-13{fill:#6d513c;}.cls-14{fill:#6f533d;}.cls-15{fill:#72553f;}.cls-16{fill:#936e54;}.cls-17{fill:url(#Gradiente_sem_nome_335);}.cls-18{fill:url(#linear-gradient);}.cls-19{fill:url(#linear-gradient-2);}.cls-20{fill:url(#linear-gradient-3);}.cls-21{fill:url(#linear-gradient-4);}.cls-22{fill:url(#linear-gradient-5);}.cls-23{fill:#3d2c21;}.cls-24{fill:#39291f;}.cls-25{fill:#35271d;}.cls-26{fill:#32241a;}.cls-27{fill:#2e2118;}.cls-28{fill:#281c15;}.cls-29{fill:#261b14;}.cls-30{fill:#241a12;}.cls-31{fill:#221811;}.cls-32{fill:#201710;}.cls-33{fill:url(#linear-gradient-6);}.cls-34{fill:url(#linear-gradient-7);}.cls-35{fill:url(#linear-gradient-8);}.cls-36{fill:url(#linear-gradient-9);}.cls-37{fill:url(#linear-gradient-10);}.cls-38{fill:url(#linear-gradient-11);}.cls-39{fill:#1c130e;}.cls-40{fill:#1a120d;}.cls-41{fill:#18100c;}.cls-42{fill:#150f0b;}.cls-43{fill:#130e0a;}.cls-44{fill:#110c09;}.cls-45{fill:#1d150f;}.cls-46{fill:#1c150f;}.cls-47{fill:#1c1410;}.cls-48{fill:#1b1410;}.cls-49{fill:#1a1410;}.cls-50{fill:#191410;}.cls-51{fill:#281c16;}.cls-52{fill:#241914;}.cls-53{fill:#201712;}.cls-54{fill:#19110d;}</style><linearGradient id="Gradiente_sem_nome_335" x1="541.54" y1="986.56" x2="665.15" y2="986.56" gradientUnits="userSpaceOnUse"><stop offset="0" stop-color="#72553f"/><stop offset="0.04" stop-color="#644a37"/><stop offset="0.14" stop-color="#463326"/><stop offset="0.24" stop-color="#302219"/><stop offset="0.34" stop-color="#221812"/><stop offset="0.43" stop-color="#1e150f"/></linearGradient><linearGradient id="linear-gradient" x1="544.31" y1="990.35" x2="659.22" y2="990.35" gradientUnits="userSpaceOnUse"><stop offset="0" stop-color="#6a4f3a"/><stop offset="0.11" stop-color="#4c3829"/><stop offset="0.23" stop-color="#36271c"/><stop offset="0.33" stop-color="#281c15"/><stop offset="0.43" stop-color="#241912"/></linearGradient><linearGradient id="linear-gradient-2" x1="547.07" y1="994.14" x2="653.29" y2="994.14" gradientUnits="userSpaceOnUse"><stop offset="0" stop-color="#624836"/><stop offset="0.07" stop-color="#523c2d"/><stop offset="0.2" stop-color="#3c2b20"/><stop offset="0.32" stop-color="#2e2119"/><stop offset="0.43" stop-color="#2a1e16"/></linearGradient><linearGradient id="linear-gradient-3" x1="549.84" y1="997.93" x2="647.36" y2="997.93" gradientUnits="userSpaceOnUse"><stop offset="0" stop-color="#5a4231"/><stop offset="0.01" stop-color="#584030"/><stop offset="0.16" stop-color="#422f23"/><stop offset="0.3" stop-color="#34251c"/><stop offset="0.43" stop-color="#302219"/></linearGradient><linearGradient id="linear-gradient-4" x1="552.6" y1="1001.72" x2="641.44" y2="1001.72" gradientUnits="userSpaceOnUse"><stop offset="0" stop-color="#513c2c"/><stop offset="0.09" stop-color="#473426"/><stop offset="0.27" stop-color="#392a1f"/><stop offset="0.43" stop-color="#35261c"/></linearGradient><linearGradient id="linear-gradient-5" x1="555.37" y1="1005.51" x2="635.51" y2="1005.51" gradientUnits="userSpaceOnUse"><stop offset="0" stop-color="#493528"/><stop offset="0.2" stop-color="#3f2e23"/><stop offset="0.43" stop-color="#3b2b20"/></linearGradient><linearGradient id="linear-gradient-6" x1="383.86" y1="1007.17" x2="569.94" y2="926.73" gradientUnits="userSpaceOnUse"><stop offset="0.36" stop-color="#1e150f"/><stop offset="0.56" stop-color="#201710"/><stop offset="0.67" stop-color="#281d15"/><stop offset="0.76" stop-color="#36271d"/><stop offset="0.83" stop-color="#493628"/><stop offset="0.9" stop-color="#624836"/><stop offset="0.94" stop-color="#72553f"/></linearGradient><linearGradient id="linear-gradient-7" x1="391.99" y1="1009.22" x2="567.6" y2="933.3" gradientUnits="userSpaceOnUse"><stop offset="0.36" stop-color="#241912"/><stop offset="0.57" stop-color="#261b13"/><stop offset="0.69" stop-color="#2e2118"/><stop offset="0.78" stop-color="#3c2b20"/><stop offset="0.86" stop-color="#4f3a2a"/><stop offset="0.93" stop-color="#674d38"/><stop offset="0.94" stop-color="#6a4f3a"/></linearGradient><linearGradient id="linear-gradient-8" x1="400.13" y1="1011.26" x2="565.25" y2="939.88" gradientUnits="userSpaceOnUse"><stop offset="0.36" stop-color="#2a1e16"/><stop offset="0.59" stop-color="#2c2017"/><stop offset="0.71" stop-color="#34261c"/><stop offset="0.81" stop-color="#423024"/><stop offset="0.89" stop-color="#553e2e"/><stop offset="0.94" stop-color="#624836"/></linearGradient><linearGradient id="linear-gradient-9" x1="408.27" y1="1013.3" x2="562.9" y2="946.46" gradientUnits="userSpaceOnUse"><stop offset="0.36" stop-color="#302219"/><stop offset="0.61" stop-color="#32241a"/><stop offset="0.74" stop-color="#3a2a1f"/><stop offset="0.85" stop-color="#483427"/><stop offset="0.94" stop-color="#5a4231"/></linearGradient><linearGradient id="linear-gradient-10" x1="416.4" y1="1015.35" x2="560.55" y2="953.03" gradientUnits="userSpaceOnUse"><stop offset="0.36" stop-color="#35261c"/><stop offset="0.64" stop-color="#37281d"/><stop offset="0.79" stop-color="#3f2e22"/><stop offset="0.91" stop-color="#4d392a"/><stop offset="0.94" stop-color="#513c2c"/></linearGradient><linearGradient id="linear-gradient-11" x1="424.54" y1="1017.39" x2="558.21" y2="959.61" gradientUnits="userSpaceOnUse"><stop offset="0.36" stop-color="#3b2b20"/><stop offset="0.7" stop-color="#3d2d21"/><stop offset="0.89" stop-color="#453226"/><stop offset="0.94" stop-color="#493528"/></linearGradient><symbol id="Figueira-Foliage-BG-2" data-name="Figueira-Foliage-BG-2" viewBox="0 0 79.33 82.26"><polygon class="cls-1" points="41.84 81.49 59.23 76.2 73.87 60.16 79.33 49.27 77.2 41.8 66.42 50.98 62.57 46.53 60.79 21.55 49.12 0 42.71 12.28 45.3 35.37 30.77 28.78 12.96 9.72 3.58 17.71 1.76 31.27 22.86 38.41 36.13 51.29 17.1 53.43 6.11 51.6 0 61.28 15.01 66.78 30.34 63.77 46.87 64.49 49.33 71.15 34.08 74.14 34.99 82.26 41.84 81.49"/><path class="cls-2" d="M72.13,75.9l-2.76-3.48L64.43,67l-1.07-1.21-.93-1v-.72l.82-1.9.86-1.54,1.57-1.46,1.08-.9,1.86-1.72,1.11-1.64,1.11-2.11L69.44,55l-1,1.39-1.22,1.22-1.42,1.18-1.07,1-.93.87-.83,1.44-.38,1-.31,1.16-.22.06-.43-.56-.25-1.55L60.89,60l-.57-4.32-.45-4.37-.35-2.5-.27-2.9-.88-5.31-1.64-5.69-1.26-4.65-.78-4.48-.27-4.37L54,16.27l.41,6.45.26,3.83.57,3,.67,3.14,1,3.44,1,3.35.56,3.14.67,4.06.16,2.06.4,3.52.27,2.85.27,2.6.4,2.66.49,2.71.16,1-2.74-3L55.82,58l-3.63-3.33L44.35,48.2l-8.76-6.66L23.1,33.08l-4.94-3.2-.89-.24,1.12.56,4.69,3,6.15,4.18,12.48,9.17L47,50.84l9.44,8.41,2.58,3,2.11,2.38.46.92-2.6-1-4.78-1.34-3.36-.54L41.6,61.29,37.7,61l-7-.43L22,59.86l-2.95.38,3.33-.11L33.89,61l8.5.59L54,63.44l4.79,1.4L61.43,66l-.22.25-1.68.25L57.6,67l-1.22.94-2.22,1.57L51.8,71.28l-1.43.89L47.72,73l1.9-.32,1.71-.79,2.83-2L56.77,68l1.79-1,3.22-.68.67.48.18.43.94.72L71.14,77Z"/></symbol></defs><title>Árvore 4</title><g id="Layer_2" data-name="Layer 2"><g id="ÁRVORE_4" data-name="ÁRVORE 4"><use width="79.33" height="82.26" transform="matrix(-0.71, -0.27, 0.27, -0.71, 142.21, 733.59)"/><use width="79.33" height="82.26" transform="translate(86.88 740.71) rotate(-123.18) scale(0.85)"/><use width="79.33" height="82.26" transform="translate(92.98 705.73) rotate(-122.5) scale(0.78)"/><use width="79.33" height="82.26" transform="translate(25.78 707.85) rotate(-85.57) scale(0.99)"/><use width="79.33" height="82.26" transform="matrix(0.24, -0.92, 0.92, 0.24, 33.21, 666.86)"/><use width="79.33" height="82.26" transform="translate(8.79 603.31) rotate(-65.87) scale(1.14)"/><use width="79.33" height="82.26" transform="translate(-9.25 643.93) rotate(-69.77) scale(1.17)"/><use width="79.33" height="82.26" transform="matrix(-0.53, -0.43, 0.43, -0.53, 124.39, 680.55)"/><use width="79.33" height="82.26" transform="translate(149.93 696.97) rotate(-164.78) scale(0.63)"/><use width="79.33" height="82.26" transform="matrix(-0.73, -0.15, 0.15, -0.73, 174.36, 736.68)"/><use width="79.33" height="82.26" transform="translate(186.95 668.69) rotate(-172.52) scale(0.59)"/><use width="79.33" height="82.26" transform="matrix(-0.87, -0.24, 0.24, -0.87, 245.95, 702.59)"/><use width="79.33" height="82.26" transform="translate(213.42 664.65) rotate(-128.89)"/><use width="79.33" height="82.26" transform="translate(255.16 722.86) rotate(-133.19) scale(1.09)"/><use width="79.33" height="82.26" transform="translate(196.49 637.97) rotate(-73.65) scale(1.18)"/><use width="79.33" height="82.26" transform="translate(237.03 679.4) rotate(-157.24) scale(0.92)"/><use width="79.33" height="82.26" transform="matrix(-0.76, -0.1, 0.1, -0.76, 221.57, 711.09)"/><use width="79.33" height="82.26" transform="matrix(-0.63, -0.05, 0.05, -0.63, 187.92, 697.77)"/><use width="79.33" height="82.26" transform="matrix(-0.05, -0.79, 0.79, -0.05, 128.2, 622.5)"/><use width="79.33" height="82.26" transform="translate(170.66 636.83) rotate(-107.04) scale(0.9)"/><use width="79.33" height="82.26" transform="matrix(0.42, -0.91, 0.91, 0.42, 316.75, 631.31)"/><use width="79.33" height="82.26" transform="matrix(0.87, -0.48, 0.48, 0.87, 349.25, 603.25)"/><use width="79.33" height="82.26" transform="matrix(0.97, -0.25, 0.25, 0.97, 359.85, 547.07)"/><use width="79.33" height="82.26" transform="translate(276.14 560.53) rotate(-68.96) scale(1.01)"/><use width="79.33" height="82.26" transform="translate(280.4 593.98) rotate(-66.63) scale(1.04)"/><use width="79.33" height="82.26" transform="translate(281.59 658.94) rotate(-84.63) scale(1.06)"/><use width="79.33" height="82.26" transform="translate(272.13 707.24) rotate(-103.55) scale(1.07)"/><use width="79.33" height="82.26" transform="translate(409.02 544.11)"/><use width="79.33" height="82.26" transform="translate(427.85 522.99)"/><use width="79.33" height="82.26" transform="translate(403.41 495.16)"/><use width="79.33" height="82.26" transform="translate(365.68 475.1) rotate(-7.05)"/><use width="79.33" height="82.26" transform="translate(364.94 503.53) rotate(-11.97)"/><use width="79.33" height="82.26" transform="translate(312.11 564.97) rotate(-44.63)"/><use width="79.33" height="82.26" transform="translate(223.23 601.31) rotate(-63.45) scale(1.13)"/><use width="79.33" height="82.26" transform="translate(222.86 640.63) rotate(-68.3) scale(1.15)"/><use width="79.33" height="82.26" transform="matrix(0.71, -0.8, 0.8, 0.71, 210.37, 547.13)"/><use width="79.33" height="82.26" transform="matrix(0.97, -0.31, 0.31, 0.97, 232.47, 491.04)"/><use width="79.33" height="82.26" transform="translate(152.42 575.12) rotate(-64.15) scale(1.05)"/><use width="79.33" height="82.26" transform="translate(183.94 652.29) rotate(-152) scale(0.72)"/><use width="79.33" height="82.26" transform="matrix(0.22, -0.85, 0.85, 0.22, 86.13, 605.6)"/><use width="79.33" height="82.26" transform="translate(53.21 620.8) rotate(-71.4) scale(0.93)"/><use width="79.33" height="82.26" transform="matrix(-0.22, -0.7, 0.7, -0.22, 113.66, 646.73)"/><use width="79.33" height="82.26" transform="translate(350.52 732.12) rotate(-150.25)"/><use width="79.33" height="82.26" transform="translate(403.53 707.27) rotate(-162.83)"/><use width="79.33" height="82.26" transform="matrix(0.44, -0.95, 0.95, 0.44, 130.43, 460.39)"/><use width="79.33" height="82.26" transform="translate(86.98 406.19) rotate(-37.4) scale(1.09)"/><use width="79.33" height="82.26" transform="translate(16.67 409.39) rotate(-47.41) scale(1.02)"/><use width="79.33" height="82.26" transform="translate(-4.88 469.9) rotate(-70.91)"/><use width="79.33" height="82.26" transform="translate(-4.41 517.18) rotate(-75.87) scale(1.07)"/><use width="79.33" height="82.26" transform="translate(-14.4 555.92) rotate(-73.97) scale(1.11)"/><use width="79.33" height="82.26" transform="translate(15.83 577.29) rotate(-61.31) scale(1.16)"/><use width="79.33" height="82.26" transform="translate(75.28 558.15) rotate(-84.78) scale(1.09)"/><use width="79.33" height="82.26" transform="translate(74.59 528.99) rotate(-80.16) scale(1.06)"/><use width="79.33" height="82.26" transform="translate(70.71 469.57) rotate(-58.21) scale(1.02)"/><use width="79.33" height="82.26" transform="translate(36.51 443.79) rotate(-50.57) scale(1.02)"/><use width="79.33" height="82.26" transform="translate(25.34 525.13) rotate(-66.22) scale(1.11)"/><use width="79.33" height="82.26" transform="matrix(0.32, -1.08, 1.08, 0.32, 54.58, 586.57)"/><use width="79.33" height="82.26" transform="translate(134.37 587.86) rotate(-106.36) scale(1.03)"/><use width="79.33" height="82.26" transform="translate(183.81 502.4) rotate(-85.77)"/><use width="79.33" height="82.26" transform="translate(125.04 398.52) rotate(-34.82) scale(1.08)"/><use width="79.33" height="82.26" transform="matrix(0.86, -0.69, 0.69, 0.86, 74.44, 378.49)"/><use width="79.33" height="82.26" transform="matrix(0.97, -0.52, 0.52, 0.97, 71.1, 341.97)"/><use width="79.33" height="82.26" transform="translate(201.93 326.67) rotate(-19.63)"/><use width="79.33" height="82.26" transform="translate(246.14 368.53) rotate(-11.12)"/><use width="79.33" height="82.26" transform="matrix(0.97, -0.26, 0.26, 0.97, 261.9, 436.47)"/><use width="79.33" height="82.26" transform="translate(95.66 463.84) rotate(-61.37) scale(1.04)"/><use width="79.33" height="82.26" transform="matrix(0.81, -0.68, 0.68, 0.81, 61.75, 415.47)"/><use width="79.33" height="82.26" transform="matrix(0.88, -0.6, 0.6, 0.88, 145.2, 344.43)"/><use width="79.33" height="82.26" transform="translate(344.28 383.88) rotate(-0.25) scale(1.08)"/><use width="79.33" height="82.26" transform="translate(399.04 427.22) rotate(8.93) scale(1.09)"/><use width="79.33" height="82.26" transform="matrix(1.11, 0.05, -0.05, 1.11, 408.75, 395.99)"/><use width="79.33" height="82.26" transform="matrix(1.06, 0.11, -0.11, 1.06, 435.2, 416.32)"/><use width="79.33" height="82.26" transform="translate(435.86 444.54) rotate(9.43) scale(1.05)"/><use width="79.33" height="82.26" transform="translate(305.58 323.84) rotate(-12.79)"/><use width="79.33" height="82.26" transform="translate(275.11 338.77) rotate(-12.45)"/><use width="79.33" height="82.26" transform="translate(318.99 417.01) rotate(-0.75) scale(1.04)"/><use width="79.33" height="82.26" transform="matrix(0.99, -0.11, 0.11, 0.99, 305.31, 486.17)"/><use width="79.33" height="82.26" transform="matrix(0.15, -0.99, 0.99, 0.15, 251.07, 561.47)"/><use width="79.33" height="82.26" transform="translate(214.75 599.6) rotate(-114.5)"/><use width="79.33" height="82.26" transform="translate(177.83 592.88) rotate(-113.29)"/><use width="79.33" height="82.26" transform="translate(374.46 490.21) rotate(9.37) scale(1.01)"/><use width="79.33" height="82.26" transform="matrix(1.01, -0.03, 0.03, 1.01, 308.14, 454.66)"/><use width="79.33" height="82.26" transform="matrix(0.75, -0.67, 0.67, 0.75, 193.86, 428.02)"/><use width="79.33" height="82.26" transform="translate(155.38 409.2) rotate(-38.27) scale(1.05)"/><use width="79.33" height="82.26" transform="translate(47.84 472.12) rotate(-55.34) scale(1.03)"/><use width="79.33" height="82.26" transform="translate(191.2 549.6) rotate(-107.63)"/><use width="79.33" height="82.26" transform="translate(223.75 547.59) rotate(-94.66)"/><use width="79.33" height="82.26" transform="translate(184.68 629.1) rotate(-114.58)"/><use width="79.33" height="82.26" transform="translate(147.9 536.02) rotate(-104.06)"/><use width="79.33" height="82.26" transform="translate(278.65 394.66) rotate(-6.94)"/><use width="79.33" height="82.26" transform="matrix(1, -0.16, 0.16, 1, 305.38, 359.24)"/><use width="79.33" height="82.26" transform="translate(174.14 364.68) rotate(-33.81) scale(1.04)"/><use width="79.33" height="82.26" transform="matrix(0.99, -0.48, 0.48, 0.99, 113.7, 332.53)"/><use width="79.33" height="82.26" transform="translate(244.39 185.9) rotate(-20.6)"/><use width="79.33" height="82.26" transform="translate(192.28 262.08) rotate(-15.95) scale(1.05)"/><use width="79.33" height="82.26" transform="matrix(1.03, -0.03, 0.03, 1.03, 159.65, 247.38)"/><use width="79.33" height="82.26" transform="translate(141.66 243.88) rotate(9.19) scale(1.01)"/><use width="79.33" height="82.26" transform="translate(214.58 289.57) rotate(-17.8) scale(1.08)"/><use width="79.33" height="82.26" transform="translate(178.88 347.16) rotate(-23.07) scale(1.05)"/><use width="79.33" height="82.26" transform="matrix(0.99, -0.18, 0.18, 0.99, 255.42, 217.47)"/><use width="79.33" height="82.26" transform="translate(232.59 199.81) rotate(-16.95)"/><use width="79.33" height="82.26" transform="matrix(0.99, -0.3, 0.3, 0.99, 210.64, 240.98)"/><use width="79.33" height="82.26" transform="translate(134.46 289.95) rotate(-8.56) scale(1.02)"/><use width="79.33" height="82.26" transform="matrix(0.97, -0.37, 0.37, 0.97, 151.62, 326.72)"/><use width="79.33" height="82.26" transform="translate(126.86 350.06) rotate(-23.75) scale(1.01)"/><use width="79.33" height="82.26" transform="matrix(0.96, -0.42, 0.42, 0.96, 250.44, 281.07)"/><use width="79.33" height="82.26" transform="translate(275.72 247.79) rotate(-15.49) scale(1.02)"/><use width="79.33" height="82.26" transform="translate(362.52 384.1) rotate(-33.33)"/><use width="79.33" height="82.26" transform="translate(378.08 408.31) rotate(-30.99)"/><use width="79.33" height="82.26" transform="matrix(0.85, -0.53, 0.53, 0.85, 346.26, 462.29)"/><use width="79.33" height="82.26" transform="matrix(0.87, -0.5, 0.5, 0.87, 385.59, 445.03)"/><use width="79.33" height="82.26" transform="translate(302.28 358.62) rotate(-52.55)"/><use width="79.33" height="82.26" transform="matrix(0.57, -0.82, 0.82, 0.57, 294.34, 395.76)"/><use width="79.33" height="82.26" transform="translate(286.18 437.57) rotate(-54.98)"/><use width="79.33" height="82.26" transform="matrix(0.62, -0.78, 0.78, 0.62, 251.08, 436.77)"/><use width="79.33" height="82.26" transform="matrix(0.78, -0.63, 0.63, 0.78, 330.29, 419.54)"/><use width="79.33" height="82.26" transform="translate(440.41 331.39) rotate(-11.38)"/><use width="79.33" height="82.26" transform="translate(498.27 244.57) rotate(22.52)"/><use width="79.33" height="82.26" transform="translate(527.39 149.01) rotate(37.07)"/><use width="79.33" height="82.26" transform="translate(458.82 72.8) rotate(6.2)"/><use width="79.33" height="82.26" transform="matrix(1.06, 0.01, -0.01, 1.06, 383.52, 141.7)"/><use width="79.33" height="82.26" transform="matrix(0.68, -0.73, 0.73, 0.68, 331.95, 319.32)"/><use width="79.33" height="82.26" transform="translate(341.04 348.45) rotate(-45.89)"/><use width="79.33" height="82.26" transform="matrix(0.76, -0.72, 0.72, 0.76, 234.53, 360.21)"/><use width="79.33" height="82.26" transform="matrix(1.03, -0.21, 0.21, 1.03, 261.95, 152.67)"/><use width="79.33" height="82.26" transform="translate(235.27 60.24) rotate(-2.35)"/><use width="79.33" height="82.26" transform="translate(181.74 72.57) rotate(-13.25)"/><use width="79.33" height="82.26" transform="translate(188.78 106.65) rotate(-15.27)"/><use width="79.33" height="82.26" transform="matrix(0.97, -0.26, 0.26, 0.97, 152.4, 100.49)" xlink:href="#Figueira-Foliage-BG-2"/><use width="79.33" height="82.26" transform="translate(248.41 19.91) rotate(4.84)"/><use width="79.33" height="82.26" transform="translate(304.16 19.96) rotate(23.75) scale(1.04)"/><use width="79.33" height="82.26" transform="translate(215.54 107.37) rotate(-13.51)"/><use width="79.33" height="82.26" transform="translate(188.48 155.75) rotate(-19.13)"/><use width="79.33" height="82.26" transform="translate(152.3 196.18) rotate(-20.29)"/><use width="79.33" height="82.26" transform="translate(197.36 187.89) rotate(-20.23)"/><use width="79.33" height="82.26" transform="matrix(0.95, -0.31, 0.31, 0.95, 159.91, 149.78)"/><use width="79.33" height="82.26" transform="translate(212.25 141.83) rotate(-17.61)"/><use width="79.33" height="82.26" transform="translate(131.35 167.5) rotate(-18.76)"/><use width="79.33" height="82.26" transform="matrix(0.93, -0.36, 0.36, 0.93, 179.85, 209.82)"/><use width="79.33" height="82.26" transform="translate(279.15 93.88) rotate(4.28) scale(1.09)"/><use width="79.33" height="82.26" transform="translate(324.78 83.44) rotate(4.67) scale(1.18)"/><use width="79.33" height="82.26" transform="matrix(1.11, -0.02, 0.02, 1.11, 368.4, 87.03)"/><use width="79.33" height="82.26" transform="translate(378.87 32.81) rotate(7.26) scale(1.05)"/><use width="79.33" height="82.26" transform="translate(394.23 59.92) rotate(0.21) scale(1.05)"/><use width="79.33" height="82.26" transform="translate(352.33 50.14) rotate(7.11) scale(1.1)"/><use width="79.33" height="82.26" transform="translate(346.89 5.33) rotate(29.17) scale(1.04)"/><use width="79.33" height="82.26" transform="translate(316.15 -14.62) rotate(27.61)"/><use width="79.33" height="82.26" transform="translate(321.3 128.11) rotate(-1.73) scale(1.13)"/><use width="79.33" height="82.26" transform="translate(425.03 190.16) rotate(6.48)"/><use width="79.33" height="82.26" transform="matrix(0.94, -0.34, 0.34, 0.94, 382.21, 298.63)"/><use width="79.33" height="82.26" transform="translate(440.06 287.82) rotate(1.1)"/><use width="79.33" height="82.26" transform="translate(533.67 208.32) rotate(29.6)"/><use width="79.33" height="82.26" transform="matrix(0.64, 0.77, -0.77, 0.64, 566.56, 169.56)"/><use width="79.33" height="82.26" transform="translate(553.57 115.51) rotate(47.4)"/><use width="79.33" height="82.26" transform="translate(520.4 92.4) rotate(34.79)"/><use width="79.33" height="82.26" transform="translate(497.25 186.04) rotate(20.29)"/><use width="79.33" height="82.26" transform="matrix(0.93, 0.36, -0.36, 0.93, 489.85, 209.85)"/><use width="79.33" height="82.26" transform="translate(467.74 146.04) rotate(8.76)"/><use width="79.33" height="82.26" transform="translate(426.25 150.23) rotate(-0.6)"/><use width="79.33" height="82.26" transform="translate(413.23 124.09) rotate(-1.11) scale(1.03)"/><use width="79.33" height="82.26" transform="translate(442.57 109.11) rotate(1.79)"/><use width="79.33" height="82.26" transform="matrix(0.98, 0.18, -0.18, 0.98, 430.95, 240.87)"/><use width="79.33" height="82.26" transform="translate(403.95 216.33) rotate(8.56)"/><use width="79.33" height="82.26" transform="translate(369.34 263.05) rotate(-18.23)"/><use width="79.33" height="82.26" transform="translate(354.05 199.58) rotate(-3.14)"/><use width="79.33" height="82.26" transform="translate(347.32 244.92) rotate(-22.55)"/><use width="79.33" height="82.26" transform="matrix(0.78, -0.63, 0.63, 0.78, 308.49, 268.43)"/><use width="79.33" height="82.26" transform="translate(313.16 176.5) rotate(-4.74) scale(1.05)"/><use width="79.33" height="82.26" transform="translate(281.39 204.18) rotate(-24.65) scale(1.02)"/><use width="79.33" height="82.26" transform="matrix(0.85, -0.53, 0.53, 0.85, 294.48, 233.03)"/><use width="79.33" height="82.26" transform="matrix(0.79, 0.61, -0.61, 0.79, 635.8, 144.34)" xlink:href="#Figueira-Foliage-BG-2"/><use width="79.33" height="82.26" transform="translate(612.67 148.73) rotate(48.61)"/><use width="79.33" height="82.26" transform="translate(591.25 191.32) rotate(45.69)"/><use width="79.33" height="82.26" transform="translate(633.97 188.6) rotate(51.92)"/><use width="79.33" height="82.26" transform="matrix(0.29, 0.96, -0.96, 0.29, 630.22, 274.58)"/><use width="79.33" height="82.26" transform="translate(580.99 159.51) rotate(43.94)"/><use width="79.33" height="82.26" transform="matrix(0.89, 0.45, -0.45, 0.89, 539.07, 136.88)"/><use width="79.33" height="82.26" transform="translate(501.44 217.64) rotate(14.63)"/><use width="79.33" height="82.26" transform="translate(605.12 302.05) rotate(84.65)"/><use width="79.33" height="82.26" transform="translate(567.71 339.89) rotate(89.41)"/><use width="79.33" height="82.26" transform="translate(582.55 394.49) rotate(82.48)"/><use width="79.33" height="82.26" transform="matrix(0.99, 0.17, -0.17, 0.99, 499.44, 429.74)"/><use width="79.33" height="82.26" transform="translate(424.72 494.33) rotate(-24.97)"/><use width="79.33" height="82.26" transform="translate(443.39 554.82) rotate(-57.11)"/><use width="79.33" height="82.26" transform="translate(545.43 688.21) rotate(-119.01)"/><use width="79.33" height="82.26" transform="translate(473.63 635.39) rotate(-99.79)"/><use width="79.33" height="82.26" transform="translate(542.38 635.48) rotate(-116.04)"/><use width="79.33" height="82.26" transform="translate(772.36 440.1) rotate(106.42)"/><use width="79.33" height="82.26" transform="translate(785.37 408.85) rotate(113.43)"/><use width="79.33" height="82.26" transform="translate(758.61 348.2) rotate(113.6)"/><use width="79.33" height="82.26" transform="translate(707.17 228.71) rotate(65.95)"/><use width="79.33" height="82.26" transform="matrix(0.64, 0.77, -0.77, 0.64, 658.16, 206.14)"/><use width="79.33" height="82.26" transform="matrix(-0.39, 0.92, -0.92, -0.39, 779.82, 315.24)"/><use width="79.33" height="82.26" transform="translate(708.26 365.08) rotate(100.61)"/><use width="79.33" height="82.26" transform="translate(632.64 405.5) rotate(84.19)"/><use width="79.33" height="82.26" transform="matrix(-0.5, 0.86, -0.86, -0.5, 695.58, 486.04)"/><use width="79.33" height="82.26" transform="matrix(-0.25, 0.97, -0.97, -0.25, 662.76, 478.06)"/><use width="79.33" height="82.26" transform="matrix(-0.11, 0.99, -0.99, -0.11, 716.59, 390.46)"/><use width="79.33" height="82.26" transform="matrix(-0.27, 0.96, -0.96, -0.27, 732.96, 300.06)"/><use width="79.33" height="82.26" transform="translate(755.59 263.24) rotate(97.13)"/><use width="79.33" height="82.26" transform="translate(689.67 190.76) rotate(36.71)"/><use width="79.33" height="82.26" transform="translate(649.62 228.42) rotate(50.87)"/><use width="79.33" height="82.26" transform="translate(758.23 222.98) rotate(61.38)"/><use width="79.33" height="82.26" transform="translate(804.03 251.34) rotate(88.31)"/><use width="79.33" height="82.26" transform="translate(720.52 185.92) rotate(27.24)"/><use width="79.33" height="82.26" transform="matrix(0.78, 0.63, -0.63, 0.78, 597.98, 231.07)"/><use width="79.33" height="82.26" transform="matrix(0.92, 0.39, -0.39, 0.92, 540.69, 250.04)"/><use width="79.33" height="82.26" transform="translate(548.16 182.01) rotate(35.15)"/><use width="79.33" height="82.26" transform="translate(475.58 184.75) rotate(8.05)"/><use width="79.33" height="82.26" transform="translate(447.62 280.51) rotate(0.13)"/><use width="79.33" height="82.26" transform="translate(428.14 308.06) rotate(8.09)"/><use width="79.33" height="82.26" transform="translate(386.07 396.14) rotate(-36.25)"/><use width="79.33" height="82.26" transform="translate(392.06 456.6) rotate(-43.34)"/><use width="79.33" height="82.26" transform="translate(349.28 474.35) rotate(-45.65)"/><use width="79.33" height="82.26" transform="matrix(0.65, -0.76, 0.76, 0.65, 501.57, 506.53)"/><use width="79.33" height="82.26" transform="translate(563.3 553.66) rotate(-44.35)"/><use width="79.33" height="82.26" transform="translate(678.46 427.33) rotate(90.74)"/><use width="79.33" height="82.26" transform="translate(616.87 373.27) rotate(97.04)"/><use width="79.33" height="82.26" transform="translate(500.01 387.45) rotate(44.82)"/><use width="79.33" height="82.26" transform="translate(790.51 375.3) rotate(113.58)"/><use width="79.33" height="82.26" transform="matrix(-0.39, 0.92, -0.92, -0.39, 833.48, 318.12)"/><use width="79.33" height="82.26" transform="translate(803.56 337.01) rotate(113.52)"/><use width="79.33" height="82.26" transform="translate(710.71 333.53) rotate(103.25)"/><use width="79.33" height="82.26" transform="matrix(0.48, 0.88, -0.88, 0.48, 885.6, 269.79)"/><use width="79.33" height="82.26" transform="translate(837.75 275.73) rotate(51.14)"/><use width="79.33" height="82.26" transform="translate(706.03 358.3) rotate(-11.1)"/><use width="79.33" height="82.26" transform="translate(873.53 398.74) rotate(112.19)"/><use width="79.33" height="82.26" transform="translate(925.1 292.64) rotate(72.44)"/><use width="79.33" height="82.26" transform="translate(741.23 225.1) rotate(44.48)"/><use width="79.33" height="82.26" transform="translate(643.29 321.66) rotate(-34.87)"/><use width="79.33" height="82.26" transform="translate(817.54 317.65) rotate(54.08)"/><use width="79.33" height="82.26" transform="translate(832.21 449.53) rotate(137.56)"/><use width="79.33" height="82.26" transform="translate(890.43 369.31) rotate(70.31)"/><use width="79.33" height="82.26" transform="matrix(0.65, 0.76, -0.76, 0.65, 892.42, 332.15)"/><use width="79.33" height="82.26" transform="translate(778.56 252.53) rotate(43.87)"/><use width="79.33" height="82.26" transform="translate(926.56 250.62) rotate(71.11)" xlink:href="#Figueira-Foliage-BG-2"/><use width="79.33" height="82.26" transform="matrix(0.52, 0.86, -0.86, 0.52, 909.49, 213.07)" xlink:href="#Figueira-Foliage-BG-2"/><use width="79.33" height="82.26" transform="translate(816.91 204.14) rotate(44.91)"/><use width="79.33" height="82.26" transform="translate(975.45 229.08) rotate(72.69)" xlink:href="#Figueira-Foliage-BG-2"/><use width="79.33" height="82.26" transform="translate(987.94 272.76) rotate(75.06)"/><use width="79.33" height="82.26" transform="translate(1000.51 298.23) rotate(71.32)"/><use width="79.33" height="82.26" transform="translate(1009.46 228.04) rotate(72.91)" xlink:href="#Figueira-Foliage-BG-2"/><use width="79.33" height="82.26" transform="translate(951.38 310.76) rotate(67.59)"/><use width="79.33" height="82.26" transform="matrix(0.56, 0.83, -0.83, 0.56, 879.19, 318.76)"/><use width="79.33" height="82.26" transform="matrix(0.61, 0.79, -0.79, 0.61, 845.1, 313.92)"/><use width="79.33" height="82.26" transform="translate(851.23 233.37) rotate(48.95)"/><use width="79.33" height="82.26" transform="translate(686.06 335.98) rotate(-33.68)"/><use width="79.33" height="82.26" transform="matrix(-0.71, 0.7, -0.7, -0.71, 841.92, 418.69)"/><use width="79.33" height="82.26" transform="translate(899.12 443.49) rotate(121.81)"/><use width="79.33" height="82.26" transform="matrix(-0.5, 0.87, -0.87, -0.5, 862.97, 448.28)"/><use width="79.33" height="82.26" transform="translate(747.15 379.33) rotate(63.13)"/><use width="79.33" height="82.26" transform="matrix(0.41, -0.91, 0.91, 0.41, 639.33, 421.34)"/><use width="79.33" height="82.26" transform="translate(666.23 415.62) rotate(-57.64)"/><use width="79.33" height="82.26" transform="translate(735.99 320.99) rotate(-0.58)"/><use width="79.33" height="82.26" transform="matrix(0.43, 0.91, -0.91, 0.43, 1054.14, 446.49)"/><use width="79.33" height="82.26" transform="matrix(0.99, -0.17, 0.17, 0.99, 935.49, 482.49)"/><use width="79.33" height="82.26" transform="translate(934.54 612.83) rotate(-175.01)"/><use width="79.33" height="82.26" transform="translate(897.49 599.2) rotate(-115.29)"/><use width="79.33" height="82.26" transform="translate(870.93 497.39) rotate(-37.59)"/><use width="79.33" height="82.26" transform="translate(856.86 587.05) rotate(-120.05)"/><use width="79.33" height="82.26" transform="translate(922.31 428.04) rotate(11.82) scale(1.01)"/><use width="79.33" height="82.26" transform="matrix(0.74, -0.67, 0.67, 0.74, 841.15, 468.87)"/><use width="79.33" height="82.26" transform="translate(796.29 505.69) rotate(-54.25)"/><use width="79.33" height="82.26" transform="translate(860.13 402.32) rotate(-14.28)"/><use width="79.33" height="82.26" transform="matrix(0.93, -0.37, 0.37, 0.93, 785.4, 441.13)"/><use width="79.33" height="82.26" transform="translate(819.35 437.7) rotate(-40.99)"/><use width="79.33" height="82.26" transform="matrix(0.86, 0.71, -0.71, 0.86, 957, 324.25)"/><use width="79.33" height="82.26" transform="translate(1025.16 326.33) rotate(61.5) scale(1.22)"/><use width="79.33" height="82.26" transform="translate(1063.21 316.96) rotate(66.94) scale(1.16)"/><use width="79.33" height="82.26" transform="matrix(0.44, 0.96, -0.96, 0.44, 1104.9, 317.65)"/><use width="79.33" height="82.26" transform="translate(1182.72 500.82) rotate(108.72)"/><use width="79.33" height="82.26" transform="translate(1199.05 539.67) rotate(115.83)"/><use width="79.33" height="82.26" transform="matrix(-0.61, 0.8, -0.8, -0.61, 1211.24, 580.37)"/><use width="79.33" height="82.26" transform="translate(1030.45 409.52) rotate(52.2) scale(1.07)"/><use width="79.33" height="82.26" transform="translate(1064.89 437.45) rotate(63.81) scale(1.01)"/><use width="79.33" height="82.26" transform="translate(1232.43 524.46) rotate(123.47)"/><use width="79.33" height="82.26" transform="matrix(-0.43, 0.9, -0.9, -0.43, 1214.57, 479.38)"/><use width="79.33" height="82.26" transform="translate(1126.18 464.91) rotate(87.28)"/><use width="79.33" height="82.26" transform="translate(1147.64 401.48) rotate(62.53)"/><use width="79.33" height="82.26" transform="translate(1196.65 382.92) rotate(60.11)"/><use width="79.33" height="82.26" transform="matrix(-0.41, 0.91, -0.91, -0.41, 1264.66, 461.74)"/><use width="79.33" height="82.26" transform="translate(1263.23 502.44) rotate(124.61)"/><use width="79.33" height="82.26" transform="matrix(-0.6, 0.8, -0.8, -0.6, 1278.84, 557.91)" xlink:href="#Figueira-Foliage-BG-2"/><use width="79.33" height="82.26" transform="translate(1257.54 601.7) rotate(124.25)" xlink:href="#Figueira-Foliage-BG-2"/><use width="79.33" height="82.26" transform="translate(1147.65 726.06) rotate(-173.22)" xlink:href="#Figueira-Foliage-BG-2"/><use width="79.33" height="82.26" transform="translate(1098.04 700.02) rotate(-174.45)"/><use width="79.33" height="82.26" transform="matrix(-0.64, 0.77, -0.77, -0.64, 1083.23, 618.59)"/><use width="79.33" height="82.26" transform="translate(1027.59 579.1) rotate(72.6)"/><use width="79.33" height="82.26" transform="translate(1039.21 549.73) rotate(86.49)"/><use width="79.33" height="82.26" transform="matrix(-0.63, 0.78, -0.78, -0.63, 1089.69, 568.08)"/><use width="79.33" height="82.26" transform="translate(1174.62 643.71) rotate(166.77)"/><use width="79.33" height="82.26" transform="translate(1182.07 688.84) rotate(-175.41)" xlink:href="#Figueira-Foliage-BG-2"/><use width="79.33" height="82.26" transform="translate(1140.43 682.22) rotate(-175.03)"/><use width="79.33" height="82.26" transform="translate(1122.82 653.36) rotate(-176.82)"/><use width="79.33" height="82.26" transform="matrix(-0.99, 0.1, -0.1, -0.99, 1105.08, 626.91)"/><use width="79.33" height="82.26" transform="translate(1138.95 597.21) rotate(157.57)"/><use width="79.33" height="82.26" transform="translate(1119.64 579.53) rotate(151.46)"/><use width="79.33" height="82.26" transform="translate(1144.9 518.81) rotate(110.22)"/><use width="79.33" height="82.26" transform="translate(1126.44 363.87) rotate(64.11) scale(1.01)"/><use width="79.33" height="82.26" transform="translate(1100.24 361.36) rotate(66.18) scale(1.08)"/><use width="79.33" height="82.26" transform="matrix(0.43, 1.06, -1.06, 0.43, 1074.71, 359.79)"/><use width="79.33" height="82.26" transform="matrix(0.44, 0.96, -0.96, 0.44, 1066.14, 414.76)"/><use width="79.33" height="82.26" transform="translate(1003.06 455.28) rotate(40.81)"/><use width="79.33" height="82.26" transform="translate(987.59 597.03) rotate(-134.05)"/><use width="79.33" height="82.26" transform="matrix(0.69, 0.89, -0.89, 0.69, 991.44, 374.71)"/><use width="79.33" height="82.26" transform="matrix(0.93, 0.53, -0.53, 0.93, 932.82, 365.69)"/><use width="79.33" height="82.26" transform="translate(1182.99 445.52) rotate(89.14)"/><use width="79.33" height="82.26" transform="translate(1175.89 469.06) rotate(98.99)"/><use width="79.33" height="82.26" transform="translate(1129.57 423.37) rotate(68.27)"/><use width="79.33" height="82.26" transform="translate(1099.33 412.83) rotate(66.34) scale(1.02)"/><use width="79.33" height="82.26" transform="matrix(0.32, 0.95, -0.95, 0.32, 1099.46, 438.67)"/><use width="79.33" height="82.26" transform="translate(1112.97 484.01) rotate(103.62)"/><use width="79.33" height="82.26" transform="translate(1093.25 478.14) rotate(89.09)"/><use width="79.33" height="82.26" transform="translate(692.65 468.87) rotate(17.02)"/><use width="79.33" height="82.26" transform="translate(657.17 395.39) rotate(35.74)"/><use width="79.33" height="82.26" transform="translate(590.02 680.53) rotate(-88.84)"/><use width="79.33" height="82.26" transform="translate(569.88 514.18) rotate(4.54)"/><use width="79.33" height="82.26" transform="matrix(0.88, 0.47, -0.47, 0.88, 621.86, 421.8)"/><use width="79.33" height="82.26" transform="translate(500.97 532.61) rotate(-9.1)"/><use width="79.33" height="82.26" transform="translate(609.33 608.27) rotate(-41.05)"/><use width="79.33" height="82.26" transform="translate(608.12 513.43) rotate(4.84)"/><use width="79.33" height="82.26" transform="translate(815.79 410.89) rotate(42.57)"/><use width="79.33" height="82.26" transform="matrix(0.33, 0.94, -0.94, 0.33, 774.69, 523.17)"/><use width="79.33" height="82.26" transform="translate(667.02 436.53) rotate(13.83)"/><use width="79.33" height="82.26" transform="matrix(0.69, -0.73, 0.73, 0.69, 542.64, 593.8)"/><use width="79.33" height="82.26" transform="translate(606.3 477.18) rotate(16.64)"/><use width="79.33" height="82.26" transform="translate(616.88 665.85) rotate(-60.36)"/><use width="79.33" height="82.26" transform="matrix(0.78, 0.62, -0.62, 0.78, 779.5, 408.46)"/><use width="79.33" height="82.26" transform="translate(852.07 533.14) rotate(95.84)"/><use width="79.33" height="82.26" transform="translate(857.62 439.95) rotate(60.19)"/><use width="79.33" height="82.26" transform="translate(940.28 581.88) rotate(113.57)"/><use width="79.33" height="82.26" transform="translate(998.98 562.32) rotate(94.8)"/><use width="79.33" height="82.26" transform="translate(981.32 585.77) rotate(105.79)"/><use width="79.33" height="82.26" transform="translate(911.97 595.03) rotate(117.9)"/><use width="79.33" height="82.26" transform="translate(770.41 456.56) rotate(52.68)"/><use width="79.33" height="82.26" transform="translate(808.15 501.36) rotate(79.33)"/><use width="79.33" height="82.26" transform="translate(850.82 479.87) rotate(82.06)"/><use width="79.33" height="82.26" transform="translate(901.09 494.01) rotate(92.31)"/><use width="79.33" height="82.26" transform="translate(942.41 546.27) rotate(105.08)"/><use width="79.33" height="82.26" transform="matrix(-0.21, 0.98, -0.98, -0.21, 970.89, 501.24)"/><use width="79.33" height="82.26" transform="translate(939.13 505.99) rotate(99.61)"/><use width="79.33" height="82.26" transform="translate(940.27 451.86) rotate(74.53)"/><use width="79.33" height="82.26" transform="translate(898.95 438.75) rotate(60.83)"/><use width="79.33" height="82.26" transform="translate(968.74 531.66) rotate(99.03)"/><use width="79.33" height="82.26" transform="translate(882.61 532.56) rotate(100.15)"/><use width="79.33" height="82.26" transform="translate(809.09 441.27) rotate(60.58)"/><use width="79.33" height="82.26" transform="translate(829.51 558.98) rotate(96.96)"/><use width="79.33" height="82.26" transform="translate(872.96 572.83) rotate(106.81)"/><use width="79.33" height="82.26" transform="translate(660.54 506.61) rotate(7.6)"/><use width="79.33" height="82.26" transform="translate(653.74 615.97) rotate(-21.16)"/><use width="79.33" height="82.26" transform="translate(564.35 680.05) rotate(-95.4)"/><use width="79.33" height="82.26" transform="translate(683.55 383.92) rotate(36.84)"/><use width="79.33" height="82.26" transform="translate(709.99 392.41) rotate(10.7)"/><use width="79.33" height="82.26" transform="translate(694.32 402.34) rotate(18.61)"/><use width="79.33" height="82.26" transform="translate(477.35 598.24) rotate(-40.08)"/><use width="79.33" height="82.26" transform="translate(527.91 482.09) rotate(1.42)"/><use width="79.33" height="82.26" transform="translate(522.94 442.61) rotate(5.85)"/><use width="79.33" height="82.26" transform="translate(459.98 520.46) rotate(-14.3)"/><use width="79.33" height="82.26" transform="translate(472.34 511.3) rotate(-33.57)"/><use width="79.33" height="82.26" transform="matrix(0.93, 0.36, -0.36, 0.93, 567.19, 438.33)"/><path class="cls-3" d="M484.08,733.21,436.34,693l-39-26.89L377.6,626.44,348.26,613l-62.53-13.45-60.18-6.72H192.27L160,599.54l-22.86,6.73L123,618.37l-11.43,1.35L67.88,637.87l-4.7-9.41L90.74,615l31.61-12.1,16.13-14.8,32.28-12.77,37.65,3.36,51.77-3.36,52.44,10.76,57.16,2.69,15.46,6.72L397.34,611s8.07,23.54,10.76,25.55,8.74,18.2,8.74,18.2l22.52,7.35,23.87,23.54L479.37,691v8.74L494.83,693l15.47,5.38L510,708.8H496.85L490.63,716l-9.92,2.91,3.37,7.06Z"/><polygon class="cls-3" points="297.48 602.07 270.94 614.34 236.65 641.9 236.65 649.97 250.77 642.58 280.64 621.06 310.61 619.04 348.26 612.99 297.48 602.07"/><polygon class="cls-3" points="111.59 619.72 95.45 654.72 95.45 666.11 111.59 642.91 123.02 618.37 111.59 619.72"/><polygon class="cls-3" points="312.62 586.1 302.54 565.93 286.74 557.19 254.8 517.52 242.03 517.52 217.82 487.93 202.36 484.41 188.91 477.85 150.59 484.41 125.71 489.95 113.61 493.31 87.38 518.19 84.69 524.91 73.26 525.59 89.4 502.05 128.4 473.81 159.33 469.11 186.89 469.11 182.86 460.37 192.94 460.37 208.41 474.49 248.08 493.31 270.94 498.02 280.64 518.19 301.87 540.38 316.66 554.5 320.02 561.89 342.88 580.05 358.34 588.25 312.62 586.1"/><path class="cls-3" d="M436,661V626L421.73,590.8V580.72L400,557.19,377.6,528.27l2.93-22.18-14.79-35.64L355,450.28l-6.72-16.81L361,409.94H377.6l-7.15-10.09H358.34l11.44-16.13L358.34,381l-15.46,16.13-7.16,29.59L348.26,455l4,12.77-16.57-.67,5.82,9.41L353,477.85l-.68,15.46,6,19.5s19,35.63,19.26,37.65,8.27,20.17,8.27,20.17L394,584.75l10.76,21.52,9.41,23.53,2.69,24.92Z"/><path class="cls-3" d="M260.09,495.78v-26l-7.31-25.55V426.75h7.31l3.45,20.84,6,12.78v12.77l11.43,7.4,11.43-20.17,22.19-13.45,6.05-20.17,7.4,4-5.38,20.84s-16.14,17.49-19.5,18.16-10.76,15.46-12.77,17.48-12.35,25.64-12.35,25.64L270.94,498Z"/><polygon class="cls-3" points="459.85 682.27 465.92 649.97 453.15 637.2 453.15 626.02 470.63 633.84 470.63 610.98 480.71 617.03 480.71 649.97 470.63 688.07 463.23 685.61 459.85 682.27"/><path class="cls-3" d="M494.83,693V675.52l10.76-26,8.07-41.91-3.36-46.39L490.8,521l4-8.11-24.2-26.31-24.21-16.77v-4.08l-60.55-14.12-85.35-9.41-23.19,5.38L244,442.21l-18.49-5.38-13.78-31.6,13.78,4,5,14.12,10.08,8.74,36.65-5.38,23.19-7.4,65.89,10.09,47.07,1.34,57.15,21.52,10.08,4.7,26.23-76,6.72-30.93-8.07-20.17-17.48-14.79,2.69-7.4,28.91,17.48,29.59-1.34,16.13-16.14,15.47-31.6,8.74,4.7-9.42,20.85,2,8.74,26.9-4,23.53-12.1,18.15-26.89,11.43,5.38L649.48,286.9l-.67,5.37,17.48-.67,16.13-3.36V293l-31.6,12.77s-18.15,6.73-21.51,8.74-13.45,5.38-13.45,5.38l34.29,5.38,12.1,7.4-8.74,11.43L626.62,334s-14.12-4-22.86-4.71-33-2-33-2l-17.48,11.43-16.14,29.58L515.68,414l-14.12,35.64,3.36,34.8,25.55,32.43L531.81,529l22.86-36.31,30.26-32.27,4-11.43,42.35-22.19,30.93-31.6,7.4.67-6,10.76,43.7-16.81L759.75,381l37-12.78,55.13-2,19.5-18.82,16.81-15.47,8.74,6.06L872.7,358.17l-6.05,12.1-49.75,6.05-54.47,11.43s-42.35,16.81-44.37,17.48-72.62,29.59-72.62,29.59l-29.58,32.27-46.39,43-32,62.53-6.31,65.89,2.69,42.36,20.51,16.81h14.45a74.23,74.23,0,0,0,5.38,6.72c2,2,12.11,18.16,12.11,18.16l5.4,11.51-14.14-11.18-10.09-11.09-30-3.7-17.4.67H510l.34-10.42Z"/><polygon class="cls-3" points="510.3 610.98 490.8 588.25 466.93 570.63 463.23 578.03 486.77 594.84 502.9 622.4 508.03 636.86 512.12 615.64 510.3 610.98"/><polygon class="cls-3" points="474.66 545.75 480.71 561.89 480.71 580.8 490.8 588.25 493.49 575.34 487.67 552.48 480.71 539.03 474.66 545.75"/><polygon class="cls-3" points="490.8 521 463.23 500.75 439.03 496.67 420.88 484.41 410.79 488.61 410.79 497.35 420.2 497.35 450.8 508.1 474.66 524.31 506.94 563.64 510.3 561.22 490.8 521"/><polygon class="cls-3" points="421.43 433.78 436.02 415.99 417.51 356.82 385.87 251.93 339.52 183.35 315.99 116.12 315.99 77.79 328.09 77.79 328.09 96.62 335.72 124.86 358.34 164.53 379.19 195.46 399.36 228.4 410.79 249.92 420.88 311.77 436.02 325.89 449.79 356.15 468.61 372.29 479.37 389.77 496.95 409.97 480.71 457 421.43 433.78"/><polygon class="cls-3" points="328.09 280.17 322.71 289.59 345.57 294.96 381.88 319.17 412.36 339.74 404.68 314.28 379.19 297.65 346.24 285.55 328.09 280.17"/><path class="cls-3" d="M358.34,211.2l-35.63-13.06-23.53-5.37v-9.42a26.34,26.34,0,0,0,11.43,0c6.72-1.34,25.11,2.69,25.11,2.69l8,3.49Z"/><polygon class="cls-3" points="402.87 235 412.36 235 416.84 197.14 423.56 202.18 426.93 216.07 420.88 255.29 420.88 311.77 410.79 249.92 402.87 235"/><polygon class="cls-3" points="591.67 734.1 615.86 708.13 671.67 649.52 705.96 626.02 779.24 575.34 865.31 551.13 888.17 521 901.61 509.45 906.99 515.5 887.49 539.03 869.34 560.55 806.81 579.37 726.8 626.02 665.62 684.26 589.4 767.14 583.27 744.07 591.67 734.1"/><path class="cls-3" d="M549.42,693.68l18.7-12.11h8.74l9.42-13.44,29.58-27.57,20.84-69.93L641.41,535V435.49l-4-30.26,11.43-50.43,27.56-43L689.82,303V310l-25.55,35.43,16.81-2.69-4.71,7.4-20.84,14.12-7.4,36.31,4.71,45,8.74,38.84,8.07,45.21-11.43,25.55-6.05,36.31,43-52.45s37.65-18.82,39.67-20.84S753,493.31,753,493.31l20.68-8.9,53.45-8.58s40.85,2,42.36,2,31.26-9.58,31.26-9.58L932,486.92l43.87,27.23,24.2,33.29,32.78,33.78s5.89,3.2,6.89,3.2,28.92-8.07,28.92-8.07l19.83-1h6.72l-2.69,12.91-10.08,8.61-18.83-8.61s-14.12,3.9-16.81,5.24-12.1,5.38-12.1,5.38l-16.81-16.13-7.39,14.79-10.76-9.28,7.39-17.62L987,547.77l-37-31.6L907,494l-29.58.68s-19.5,3.36-22.86,3.69-67.91,2.4-67.91,2.4L752.35,515.5s-37.65,35.63-41,37.65-47.07,50.6-47.07,50.6L624.6,660.06l-5.38,18.15-27.54,32.27v18.41L564.1,714.41l-5.38-6.72-4.38-10Z"/><path class="cls-3" d="M502.68,461.25l46.74-52,42.26-43,12.75-3.36,3.36,6.73s-33.62,28.24-35.63,30.25-16.92,30.93-16.92,30.93-24.1,32.27-25.44,35-15.25,30.9-15.25,30.9l-9.63-12.23Z"/><polygon class="cls-3" points="559.38 356.15 554.34 381.03 554.34 404.25 571.03 387.26 568.12 344.72 559.38 356.15"/><path class="cls-3" d="M556.93,427.52l62.29-35.06h11.43v6.72s-36.74,18.15-36.86,19.5-36.86,22.19-36.86,22.19h-9.19l7.5-10.09Z"/><polygon class="cls-3" points="647.51 360.5 626.62 348.08 621.91 354.29 644.34 374.49 647.51 360.5"/><polygon class="cls-3" points="727.47 386.41 749.33 344.72 761.76 325.89 765.8 329.25 741.54 384.06 727.47 386.41"/><path class="cls-3" d="M711.8,407.73l85.6,5.57s-4-9.35,0-9.05-66.78-3.91-66.78-3.91l-12.56,4.89Z"/><polygon class="cls-3" points="664.5 500.75 679.73 472.47 697.22 453.64 703.94 457 677.72 496.64 667.21 515.96 664.5 500.75"/><polygon class="cls-3" points="641.41 500.75 624.6 484.8 619.22 492.78 641.41 526.26 641.41 500.75"/><polygon class="cls-3" points="816.9 376.32 844.46 400.34 853.88 397.16 831.97 374.49 816.9 376.32"/><polygon class="cls-3" points="856.47 371.51 871.36 387.41 880.77 381.03 866.65 370.27 856.47 371.51"/><polygon class="cls-3" points="705.96 626.02 718.73 596.18 732.85 570.63 741.59 575.34 723.77 613.7 705.96 626.02"/><polygon class="cls-3" points="791.78 571.81 810.85 549.12 826.31 524.02 835.39 526.26 828.33 539.03 808.41 567.14 791.78 571.81"/><polygon class="cls-3" points="730.16 626.02 791.78 619.04 850.51 626.02 850.51 610.98 829 603.75 816.9 610.98 757.39 608.19 730.16 626.02"/><polygon class="cls-3" points="869.34 560.55 892.87 586.77 896.91 595.51 903.63 590.8 892.87 565.93 880.77 547 869.34 560.55"/><polygon class="cls-3" points="927.83 484.41 956.75 463.06 967.5 440.87 976.92 444.9 963.47 467.09 943.3 484.41 935.7 489.2 927.83 484.41"/><polygon class="cls-3" points="975.91 514.15 1005.16 492.64 1017.93 489.2 1024.66 492.64 1000.28 505.53 983.09 524.02 975.91 514.15"/><polygon class="cls-3" points="250.77 642.58 252.78 654.72 259.51 654.72 263.84 633.16 250.77 642.58"/><polygon class="cls-3" points="330.06 1064.24 368.04 1047.15 451.92 1030.3 483.03 962.25 477.27 873.16 483.03 823.42 482.48 766.73 472.06 742.53 472.06 725.44 504.02 737.45 540.47 731.14 557.97 728.27 601.24 732.56 593.25 798.05 601.24 855.13 596.97 913.25 613.31 1033.88 708.79 1064.24 330.06 1064.24"/><polygon class="cls-4" points="453.2 1031.36 485.31 964.7 479.77 873.81 485.84 824.23 484.11 767.21 472.06 742.53 472.06 725.44 504.02 737.45 540.47 731.14 557.97 728.27 598.42 732.32 584.63 796.12 588.66 852.31 588.23 913.51 607.46 1035.2 708.79 1064.24 334.11 1064.24 369.32 1048.37 453.2 1031.36"/><polygon class="cls-5" points="454.49 1032.42 487.59 967.15 482.26 874.46 488.66 825.04 485.74 767.68 472.06 742.53 472.06 725.44 504.02 737.45 540.47 731.14 557.97 728.27 595.6 732.09 576.01 794.2 576.08 849.49 579.5 913.77 601.62 1036.53 708.79 1064.24 338.15 1064.24 370.59 1049.6 454.49 1032.42"/><polygon class="cls-6" points="455.77 1033.48 489.87 969.6 484.76 875.11 491.47 825.85 487.37 768.15 472.06 742.53 472.06 725.44 504.02 737.45 540.47 731.14 557.97 728.27 592.77 731.85 567.39 792.27 563.5 846.66 570.77 914.03 595.77 1037.85 708.79 1064.24 342.2 1064.24 371.87 1050.83 455.77 1033.48"/><polygon class="cls-7" points="457.06 1034.55 492.15 972.04 487.26 875.76 494.28 826.66 489 768.63 472.06 742.53 472.06 725.44 504.02 737.45 540.47 731.14 557.97 728.27 589.95 731.61 558.77 790.34 550.92 843.84 562.03 914.29 589.93 1039.18 708.79 1064.24 346.24 1064.24 373.14 1052.05 457.06 1034.55"/><polygon class="cls-8" points="458.35 1035.61 494.43 974.49 489.76 876.42 497.1 827.47 490.63 769.1 472.06 742.53 472.06 725.44 504.02 737.45 540.47 731.14 557.97 728.27 587.13 731.38 550.15 788.41 538.34 841.02 553.3 914.55 584.08 1040.5 708.79 1064.24 350.29 1064.24 374.41 1053.28 458.35 1035.61"/><polygon class="cls-9" points="354.33 1064.24 375.69 1054.51 459.63 1036.67 496.71 976.94 492.26 877.07 499.91 828.28 492.26 769.58 472.06 742.53 472.06 725.44 504.02 737.45 540.47 731.14 557.97 728.27 584.3 731.14 541.52 786.48 525.76 838.2 544.57 914.81 578.24 1041.83 708.79 1064.24 354.33 1064.24"/><polygon class="cls-10" points="367.05 1064.24 386.87 1054.51 464.79 1036.67 499.21 976.94 495.08 877.07 502.18 828.28 495.08 769.58 476.33 742.53 474.92 726.51 504.02 737.45 538.71 731.44 557.97 728.27 581.95 730.88 539.86 784.67 525.02 835.97 540.38 911.72 570.37 1041.43 681.31 1064.26 367.05 1064.24"/><polygon class="cls-11" points="379.76 1064.24 398.06 1054.51 469.95 1036.67 501.72 976.94 497.9 877.07 504.45 828.28 497.9 769.58 480.6 742.53 477.77 727.59 504.02 737.45 536.96 731.75 557.97 728.27 579.6 730.62 538.2 782.86 524.29 833.75 536.19 908.63 562.5 1041.03 653.83 1064.27 379.76 1064.24"/><polygon class="cls-12" points="392.48 1064.24 409.24 1054.51 475.12 1036.67 504.22 976.94 500.72 877.07 506.72 828.28 500.72 769.58 484.87 742.53 480.63 728.66 504.02 737.45 535.2 732.05 557.97 728.27 577.25 730.37 536.54 781.04 523.56 831.53 532 905.53 554.63 1040.63 626.35 1064.28 392.48 1064.24"/><polygon class="cls-13" points="405.2 1064.24 420.43 1054.51 480.28 1036.67 506.72 976.94 503.54 877.07 508.99 828.28 503.54 769.58 489.14 742.53 483.48 729.73 504.02 737.45 533.45 732.35 557.97 728.27 574.89 730.11 534.88 779.23 522.83 829.3 527.81 902.44 546.77 1040.23 598.88 1064.3 405.2 1064.24"/><polygon class="cls-14" points="417.92 1064.24 431.61 1054.51 485.44 1036.67 509.22 976.94 506.36 877.07 511.26 828.28 506.36 769.58 493.41 742.53 486.34 730.8 504.02 737.45 531.69 732.66 557.97 728.27 572.54 729.86 533.22 777.41 522.1 827.08 523.62 899.35 538.9 1039.83 571.4 1064.31 417.92 1064.24"/><polygon class="cls-15" points="430.63 1064.24 442.8 1054.51 490.6 1036.67 511.72 976.94 509.18 877.07 513.54 828.28 509.18 769.58 497.68 742.53 489.19 731.88 504.02 737.45 529.93 732.96 557.97 728.27 570.19 729.6 531.56 775.6 521.37 824.86 519.43 896.25 531.03 1039.43 543.92 1064.32 430.63 1064.24"/><path class="cls-3" d="M501.49,867.23c-.07,4.59-.34,9.17-.62,13.74l-.49,6.85-.58,6.84c-.45,4.55-.86,9.1-1.39,13.64s-1,9.09-1.64,13.62l0,.17,0,.14c-1.33,4.53-2.66,9.06-4.07,13.57l-2.08,6.77-2.16,6.75c-1.43,4.5-2.94,9-4.46,13.45s-3.1,8.94-4.78,13.37c.93-4.64,2-9.26,3.06-13.86s2.19-9.2,3.37-13.77l1.75-6.87,1.83-6.84c1.2-4.57,2.48-9.11,3.77-13.66l-.07.3c.5-4.54,1.11-9.07,1.7-13.61s1.28-9.05,1.95-13.58l1.09-6.77,1.17-6.77C499.61,876.21,500.46,871.71,501.49,867.23Z"/><path class="cls-3" d="M563.21,964q-1.68-7.93-3.23-15.89c-1-5.3-2.05-10.61-3-15.92s-2-10.63-2.9-16-1.9-10.63-2.8-16l.07.27-7-21-6.87-21-6.8-21L524,816.54l-.18-.55.16-.53,6.31-21.89,6.45-21.85c4.35-14.56,8.78-29.09,13.44-43.56C546.68,743,543,757.7,539.2,772.41l-5.75,22.05-5.89,22,0-1.08,6.89,21,6.84,21,6.75,21,6.67,21.07,0,.15,0,.12c.81,5.34,1.56,10.69,2.31,16s1.5,10.69,2.2,16.05,1.4,10.72,2.07,16.08S562.62,958.66,563.21,964Z"/><path class="cls-3" d="M507.27,936.52c.45-6.25,1.07-12.48,1.68-18.71s1.32-12.44,2.07-18.65,1.52-12.42,2.3-18.62S515,868.15,515.84,862v.41L514.59,843c-.32-6.47-.73-12.93-1-19.4s-.54-12.94-.74-19.41-.34-13-.33-19.44c.89,6.42,1.6,12.86,2.32,19.3s1.32,12.89,1.89,19.34,1.1,12.9,1.65,19.35l1.41,19.36v.22l0,.2c-.92,6.18-1.79,12.38-2.75,18.56s-1.92,12.35-3,18.52-2.11,12.33-3.21,18.49S508.57,930.39,507.27,936.52Z"/><path class="cls-3" d="M572.85,752.69c.95,7.18,1.78,14.37,2.58,21.56s1.56,14.38,2.25,21.58l1.06,10.8,1,10.8c.66,7.2,1.26,14.41,1.84,21.62v.28c-.5,8.82-1.11,17.63-1.71,26.45s-1.3,17.63-2,26.44l-1.1,13.21-1.19,13.2c-.84,8.8-1.69,17.6-2.74,26.39.08-8.85.35-17.68.64-26.52l.5-13.25.59-13.24c.45-8.83.87-17.66,1.41-26.48s1-17.64,1.66-26.45v.27c-.54-7.21-1.07-14.42-1.53-21.64l-.71-10.82-.64-10.83c-.43-7.22-.78-14.45-1.12-21.67S573,759.93,572.85,752.69Z"/><polygon class="cls-16" points="472.06 725.22 477.08 699.57 496.66 697.55 536.15 693.63 595.47 698.07 601.24 732.34 557.97 728.04 503.7 739.57 472.06 725.22"/><path class="cls-17" d="M665.15,1064.26s-21.25-29.13-22.35-29.71S612.62,1011,612.62,1011l-16.54-65.7-6.49-28.29-9.47-8.19L563.4,932l-13.07,102.36-8.79,29.91Z"/><path class="cls-18" d="M552.43,1033.44l-8.12,30.82H659.22s-20.29-28.5-21.21-29-27.81-23.37-27.81-23.37l-14.66-59.73-6.86-28.1L579,916.44l-14.51,22.44Z"/><path class="cls-19" d="M554.52,1032.53l-7.45,31.73H653.29S634,1036.38,633.23,1036s-25.45-23.23-25.45-23.23L595,959l-7.22-27.9-10-7.07-12.3,21.76Z"/><path class="cls-20" d="M556.62,1031.62l-6.78,32.64h97.52S629,1037,628.44,1036.71s-23.09-23.09-23.09-23.09l-10.89-47.8-7.58-27.71-10.23-6.51-10.11,21.07Z"/><path class="cls-21" d="M558.72,1030.7l-6.12,33.56h88.84s-17.41-26.63-17.78-26.83-20.73-23-20.73-23l-9-41.82L586,945.12l-10.48-5.94-7.9,20.39Z"/><path class="cls-22" d="M560.81,1029.79l-5.44,34.47h80.14s-16.45-26-16.63-26.1-18.37-22.83-18.37-22.83l-7.13-35.85-8.31-27.34-10.74-5.39-5.69,19.71Z"/><polygon class="cls-6" points="629.58 1064.27 614.09 1038.88 598.09 1016.19 592.84 986.3 584.16 959.16 573.17 954.33 569.69 973.36 562.91 1028.88 558.13 1064.27 629.58 1064.27"/><polygon class="cls-23" points="564.2 1027 559.82 1064.27 628.39 1064.27 613.72 1039.76 597.35 1016.43 591.87 986.04 583.81 960.65 573.08 955.54 570.16 972.99 564.2 1027"/><polygon class="cls-24" points="565.48 1025.12 561.51 1064.27 627.2 1064.27 613.34 1040.64 596.61 1016.66 590.9 985.78 583.46 962.13 573 956.75 570.63 972.62 565.48 1025.12"/><polygon class="cls-25" points="566.76 1023.24 563.2 1064.27 626.01 1064.27 612.96 1041.52 595.86 1016.9 589.93 985.52 583.11 963.62 572.91 957.95 571.1 972.25 566.76 1023.24"/><polygon class="cls-26" points="568.05 1021.37 564.89 1064.27 624.83 1064.27 612.59 1042.4 595.12 1017.14 588.97 985.26 582.76 965.11 572.82 959.16 571.57 971.87 568.05 1021.37"/><polygon class="cls-27" points="569.33 1019.49 566.58 1064.27 623.64 1064.27 612.21 1043.28 594.38 1017.37 588 984.99 582.41 966.59 572.74 960.37 572.04 971.5 569.33 1019.49"/><polygon class="cls-4" points="622.45 1064.27 611.83 1044.16 593.64 1017.61 587.02 984.73 582.05 968.08 572.65 961.58 572.51 971.13 570.62 1017.61 568.27 1064.27 622.45 1064.27"/><polygon class="cls-4" points="620.29 1065.6 610.88 1045.5 593.68 1021.16 587.01 991.87 582.66 976.44 573.84 970.07 573.72 979.95 572.14 1021.21 569.4 1065.6 620.29 1065.6"/><polygon class="cls-4" points="618.12 1066.94 609.94 1046.83 593.72 1024.71 587 999.01 583.28 984.8 575.02 978.56 574.93 988.77 573.67 1024.81 570.53 1066.94 618.12 1066.94"/><polygon class="cls-4" points="615.95 1068.28 608.99 1048.17 593.76 1028.27 586.99 1006.14 583.89 993.15 576.21 987.05 576.14 997.6 575.19 1028.41 571.67 1068.28 615.95 1068.28"/><polygon class="cls-4" points="613.78 1069.62 608.04 1049.51 593.8 1031.82 586.98 1013.28 584.5 1001.51 577.39 995.54 577.35 1006.42 576.72 1032.01 572.8 1069.62 613.78 1069.62"/><polygon class="cls-4" points="611.62 1070.96 607.1 1050.84 593.84 1035.37 586.97 1020.42 585.11 1009.87 578.58 1004.03 578.56 1015.24 578.24 1035.61 573.93 1070.96 611.62 1070.96"/><polygon class="cls-4" points="609.45 1072.3 606.15 1052.18 593.88 1038.92 586.96 1027.55 585.72 1018.23 579.77 1012.52 579.77 1024.06 579.77 1039.21 575.07 1072.3 609.45 1072.3"/><polygon class="cls-28" points="608.72 1072.74 605.58 1053.02 593.81 1040.62 587.17 1029.99 585.99 1021.27 580.28 1015.93 580.28 1026.72 580.28 1040.89 575.79 1072.74 608.72 1072.74"/><polygon class="cls-29" points="608 1073.18 605 1053.87 593.74 1042.33 587.38 1032.43 586.25 1024.31 580.78 1019.35 580.78 1029.39 580.78 1042.58 576.51 1073.18 608 1073.18"/><polygon class="cls-30" points="607.27 1073.62 604.43 1054.71 593.67 1044.03 587.6 1034.87 586.52 1027.36 581.29 1022.76 581.29 1032.05 581.29 1044.26 577.24 1073.62 607.27 1073.62"/><polygon class="cls-31" points="606.54 1074.06 603.86 1055.56 593.6 1045.73 587.81 1037.31 586.78 1030.4 581.8 1026.17 581.8 1034.72 581.8 1045.95 577.96 1074.06 606.54 1074.06"/><polygon class="cls-32" points="605.81 1074.5 603.28 1056.4 593.53 1047.43 588.03 1039.75 587.05 1033.44 582.31 1029.58 582.31 1037.38 582.31 1047.63 578.69 1074.5 605.81 1074.5"/><polygon class="cls-3" points="605.09 1074.94 602.71 1057.25 593.46 1049.14 588.24 1042.19 587.31 1036.48 582.82 1032.99 582.82 1040.05 582.82 1049.32 579.41 1074.94 605.09 1074.94"/><polygon class="cls-33" points="389.35 1064.27 436.2 1023.06 462.56 980.52 485.6 877.08 494.65 832.54 507.84 819.65 531.14 856.06 549.35 1017.22 561.6 1064.27 547.24 1064.27 431.69 1064.26 389.35 1064.27"/><polygon class="cls-34" points="495.98 843.57 507.73 832.45 528.94 861.9 533.18 897.28 544.7 999.85 546.82 1018.39 557.81 1064.27 544.47 1064.27 437.05 1064.26 397.69 1064.27 440.09 1023.69 442.23 1020.18 465.03 983.4 468.92 968.76 482.83 903.94 487.03 885.65 495.98 843.57"/><polygon class="cls-35" points="497.31 854.61 507.63 845.25 526.74 867.75 531.11 902.04 542.21 1001.58 544.28 1019.56 554.03 1064.27 541.71 1064.27 442.41 1064.26 406.02 1064.27 443.98 1024.32 445.97 1020.99 467.51 986.29 471.78 972.71 484.37 911.45 488.47 894.22 497.31 854.61"/><polygon class="cls-36" points="498.64 865.64 507.52 858.05 524.55 873.59 529.03 906.8 539.72 1003.31 541.74 1020.73 550.25 1064.27 538.95 1064.27 447.77 1064.26 414.35 1064.27 447.86 1024.95 449.71 1021.8 469.99 989.17 474.64 976.66 485.91 918.95 489.9 902.79 498.64 865.64"/><polygon class="cls-37" points="499.97 876.67 507.42 870.86 522.35 879.44 526.96 911.56 537.23 1005.04 539.21 1021.9 546.47 1064.27 536.18 1064.27 453.13 1064.26 422.69 1064.27 451.75 1025.58 453.45 1022.61 472.46 992.06 477.5 980.61 487.45 926.46 491.34 911.37 499.97 876.67"/><polygon class="cls-38" points="501.3 887.7 507.31 883.66 520.15 885.28 524.88 916.32 534.74 1006.76 536.67 1023.08 542.69 1064.27 533.42 1064.27 458.48 1064.26 431.02 1064.27 455.64 1026.21 457.19 1023.42 474.94 994.94 480.37 984.57 489 933.96 492.77 919.94 501.3 887.7"/><polygon class="cls-6" points="439.35 1064.27 460.93 1024.23 483.23 988.51 490.54 941.47 502.63 898.73 517.95 891.13 522.8 921.08 532.25 1008.49 538.91 1064.27 439.35 1064.27"/><polygon class="cls-23" points="530.46 1005.53 536.56 1064.27 441.01 1064.28 461.45 1025.62 484.26 988.89 491.91 945.54 503.14 905.56 517.51 897.97 522.16 924.98 530.46 1005.53"/><polygon class="cls-24" points="528.67 1002.58 534.2 1064.27 442.66 1064.3 461.98 1027.01 485.3 989.26 493.27 949.61 503.64 912.39 517.07 904.81 521.53 928.89 528.67 1002.58"/><polygon class="cls-25" points="526.88 999.62 531.85 1064.27 444.31 1064.32 462.5 1028.39 486.33 989.63 494.64 953.69 504.15 919.22 516.63 911.65 520.89 932.79 526.88 999.62"/><polygon class="cls-26" points="525.09 996.66 529.49 1064.27 445.97 1064.34 463.03 1029.78 487.37 990.01 496.01 957.76 504.66 926.04 516.19 918.49 520.25 936.7 525.09 996.66"/><polygon class="cls-27" points="523.3 993.71 527.14 1064.27 447.63 1064.35 463.55 1031.17 488.4 990.38 497.38 961.84 505.17 932.87 515.75 925.33 519.61 940.6 523.3 993.71"/><polygon class="cls-4" points="449.28 1064.37 464.08 1032.56 489.43 990.75 498.74 965.91 505.67 939.7 515.31 932.16 518.97 944.5 521.51 990.75 524.78 1064.27 449.28 1064.37"/><polygon class="cls-4" points="452.3 1067.7 465.4 1034.66 489.38 996.34 498.32 972.5 505.58 946.87 514.99 939.1 517.96 954.22 520.34 996.61 523.21 1067.61 452.3 1067.7"/><polygon class="cls-4" points="455.32 1071.03 466.72 1036.76 489.32 1001.93 497.9 979.09 505.48 954.05 514.68 946.03 516.95 963.93 519.16 1002.47 521.63 1070.96 455.32 1071.03"/><polygon class="cls-4" points="458.34 1074.36 468.04 1038.86 489.27 1007.52 497.47 985.68 505.39 961.22 514.36 952.96 515.95 973.64 517.99 1008.33 520.05 1074.3 458.34 1074.36"/><polygon class="cls-4" points="461.36 1077.69 469.36 1040.97 489.21 1013.12 497.05 992.27 505.3 968.39 514.04 959.89 514.93 983.35 516.82 1014.19 518.47 1077.65 461.36 1077.69"/><polygon class="cls-4" points="464.38 1081.02 470.68 1043.07 489.16 1018.71 496.63 998.86 505.2 975.57 513.72 966.83 513.93 993.06 515.65 1020.05 516.89 1081 464.38 1081.02"/><polygon class="cls-4" points="467.4 1084.34 471.99 1045.17 489.1 1024.3 496.2 1005.45 505.11 982.74 513.41 973.76 512.92 1002.77 514.48 1025.91 515.31 1084.34 467.4 1084.34"/><polygon class="cls-28" points="468.41 1085.28 472.79 1046.5 489.2 1026.98 496.33 1009.45 503.96 989.03 511.92 980.63 511.51 1006.65 512.82 1028.37 514.3 1085.28 468.41 1085.28"/><polygon class="cls-29" points="469.43 1086.22 473.59 1047.83 489.3 1029.66 496.45 1013.45 502.82 995.32 510.44 987.5 510.11 1010.54 511.15 1030.83 513.29 1086.22 469.43 1086.22"/><polygon class="cls-30" points="470.44 1087.15 474.39 1049.16 489.39 1032.34 496.58 1017.45 501.68 1001.6 508.95 994.36 508.71 1014.42 509.49 1033.29 512.28 1087.15 470.44 1087.15"/><polygon class="cls-31" points="471.45 1088.09 475.19 1050.49 489.49 1035.02 496.7 1021.45 500.54 1007.89 507.47 1001.23 507.31 1018.31 507.83 1035.75 511.28 1088.09 471.45 1088.09"/><polygon class="cls-32" points="472.46 1089.03 475.99 1051.82 489.59 1037.7 496.83 1025.44 499.39 1014.18 505.99 1008.1 505.91 1022.19 506.17 1038.21 510.27 1089.03 472.46 1089.03"/><polygon class="cls-3" points="473.48 1089.96 476.79 1053.15 489.68 1040.39 496.95 1029.44 498.25 1020.47 504.5 1014.97 504.5 1026.08 504.5 1040.67 509.26 1089.96 473.48 1089.96"/><path class="cls-3" d="M461.17,1117.07,431.65,1127l2.78-11.66,26.74-12.53-9.84-29.36s8-39.29,9.84-40.81,24.54-35.2,24.54-35.2l25.46-25.91v44.91l6.62,33.26-11.5,20.72,4.28,25.48,16.26,26.78-3.61,14.68L502.13,1108l-10.07,13.53,3.92,69.1-15.67-13-4.88-57.43-1.07-8.79Z"/><path class="cls-39" d="M513.53,1050.07l-9.29,19.19,4.95,24.8,16.9,28.11-3.34,13.37L501,1104.83l-9.76,16.29,4.06,67.68L481,1177.09l-4.92-55.69L475,1110l-14.73,6.51-28.2,9.46,2.57-10.61,29.75-13.41-10.19-30s6.78-36,8.28-37.27S484.93,1004,484.93,1004l22.34-21.42.69,39Z"/><path class="cls-40" d="M509.26,1050.44l-7.07,17.66,5.63,24.11,17.52,29.44-3.06,12-22.46-32-9.45,19,4.21,66.26-12.95-10.46-5-53.94-.95-14-16.28,7.4-26.86,9,2.35-9.57,32.76-14.3-10.54-30.67s5.53-32.73,6.73-33.74,20.28-26.09,20.28-26.09l19.21-16.92,1.37,33Z"/><path class="cls-41" d="M505,1050.8l-4.86,16.13,6.31,23.42,18.15,30.78-2.79,10.73-23.14-33.37-9.14,21.78,4.35,64.84-11.6-9.21-5-52.2-.89-16.64-17.82,8.3L433,1123.87l2.14-8.51,35.78-15.2-10.9-31.32s4.27-29.45,5.18-30.21,18.14-21.52,18.14-21.52l16.09-12.44,2.06,27.08Z"/><path class="cls-42" d="M500.73,1051.17l-2.63,14.59,7,22.74,18.77,32.11-2.51,9.42-23.83-34.72-8.82,24.53,4.48,63.42-10.23-8-5-50.44-.83-19.26-19.36,9.19-24.22,8,1.93-7.47,38.79-16.09-11.24-32s3-26.17,3.61-26.68,16-17,16-17l13-7.94,2.74,21.13Z"/><path class="cls-43" d="M496.47,1051.53l-.42,13.06,7.65,22.06,19.41,33.44-2.24,8.1-24.51-36-8.51,27.28,4.62,62-8.87-6.7-5.07-48.7-.77-21.88-20.9,10.09L434,1121.78l1.71-6.42,41.8-17-11.59-32.64s1.76-22.88,2.06-23.14,13.88-12.4,13.88-12.4l9.85-3.45,3.43,15.19Z"/><polygon class="cls-44" points="456 1113.65 434.43 1120.73 435.93 1115.37 480.74 1097.5 468.8 1064.21 469.31 1044.6 481.06 1036.76 487.78 1037.81 491.9 1047.05 492.2 1051.89 494 1063.42 502.33 1084.79 522.37 1119.57 520.4 1126.36 495.2 1088.97 487.01 1118.99 491.77 1179.57 484.26 1174.11 479.14 1127.16 478.44 1102.66 456 1113.65"/><path class="cls-3" d="M599.59,1093.2l9,3.34-.84-3.92-8.12-4.21,3-9.87s-2.44-13.2-3-13.71-7.44-11.83-7.44-11.83l-7.73-8.71v15.09l-2,11.18,3.49,7-1.3,8.57-4.93,9,1.09,4.94,6.4-9.87,3.39,18.58L589.36,1132l4.75-4.36,1.48-19.3v-17Z"/><path class="cls-45" d="M583.7,1070.68l2.82,6.45-1.5,8.33-5.13,9.45,1,4.49,6.61-10.32,3.3,18.38-1.16,20.63,4.34-4,1.35-17,0-16.31,4.48,2.19,8.55,3.17-.78-3.56-9-4.51,3.1-10.09s-2.06-12.1-2.52-12.52-6.8-10.3-6.8-10.3l-6.78-7.2-.21,13.1Z"/><path class="cls-46" d="M585,1070.8l2.14,5.94-1.71,8.1-5.31,9.89.93,4,6.81-10.76,3.22,18.17-1.14,18,3.93-3.6L595.1,1106l.08-15.64,4.94,2.49,8.15,3-.71-3.21-9.95-4.81,3.2-10.31s-1.67-11-2-11.33-6.15-8.77-6.15-8.77l-5.84-5.69-.41,11.1Z"/><path class="cls-47" d="M586.29,1070.92l1.47,5.42-1.91,7.88-5.51,10.34.85,3.61,7-11.22,3.14,18-1.11,15.47,3.51-3.23,1.1-12.37.12-15,5.41,2.79,7.75,2.86-.65-2.86-10.86-5.11,3.31-10.52s-1.3-9.9-1.57-10.16-5.51-7.23-5.51-7.23l-4.88-4.18-.63,9.1Z"/><path class="cls-48" d="M587.59,1071.05l.8,4.9-2.12,7.64-5.7,10.8.76,3.16,7.23-11.67,3.05,17.77-1.08,12.88,3.11-2.85,1-10,.17-14.29,5.87,3.09,7.35,2.7-.58-2.51-11.78-5.41,3.42-10.74s-.92-8.8-1.1-9-4.86-5.7-4.86-5.7l-3.94-2.67-.83,7.11Z"/><path class="cls-49" d="M588.88,1071.17l.13,4.39-2.33,7.41-5.89,11.24.68,2.72,7.44-12.11,3,17.56-1.06,10.3,2.7-2.48.84-7.74.2-13.61,6.34,3.39,7,2.54-.52-2.16-12.69-5.7,3.52-11s-.53-7.69-.62-7.78-4.22-4.17-4.22-4.17l-3-1.15-1,5.1Z"/><polygon class="cls-50" points="601.16 1092.05 607.71 1094.43 607.25 1092.62 593.65 1086.62 597.28 1075.43 597.12 1068.84 593.56 1066.21 591.52 1066.56 590.27 1069.67 590.18 1071.29 589.63 1075.16 587.1 1082.35 581.02 1094.04 581.62 1096.32 589.26 1083.75 592.15 1101.11 591.12 1108.83 593.4 1106.73 594.11 1101.3 594.35 1088.35 601.16 1092.05"/><path class="cls-3" d="M613.63,1114.22l19.9,6.7-1.87-7.86-18-8.45,6.64-19.79s-5.42-26.49-6.64-27.51-16.54-23.73-16.54-23.73l-17.16-17.47v30.28l-4.47,22.41,7.76,14L580.33,1100l-11,18,2.44,9.9L586,1108.11l6.79,9.12-2.64,46.58,10.56-8.73,3.29-38.72.72-5.92Z"/><path class="cls-39" d="M578.34,1069.05,584.6,1082l-3.34,16.71-11.39,19,2.25,9L586.8,1106l6.58,11-2.59,40.31,9.44-7.2,3.37-32.92.68-7.69,9.94,4.39,19,6.37-1.73-7.15-20.06-9,6.87-20.23s-4.57-24.27-5.58-25.13-15.1-20.66-15.1-20.66l-15.06-14.43-.47,26.27Z"/><path class="cls-40" d="M581.21,1069.3l4.77,11.9-3.8,16.26-11.81,19.84,2.07,8.13,15.14-21.6,6.37,12.83-2.54,34,8.32-5.66,3.45-27.13.64-9.45,11,5,18.11,6.06-1.59-6.45-22.08-9.64,7.1-20.68s-3.72-22.06-4.53-22.75-13.67-17.58-13.67-17.58l-13-11.41-.92,22.26Z"/><path class="cls-41" d="M584.09,1069.54l3.27,10.87-4.25,15.8L570.87,1117l1.88,7.24,15.6-22.5,6.16,14.68L592,1144.14l7.21-4.11,3.53-21.34.6-11.22,12,5.6,17.22,5.73-1.45-5.74L607,1102.82l7.34-21.12s-2.88-19.85-3.49-20.36-12.23-14.51-12.23-14.51l-10.85-8.38-1.39,18.25Z"/><path class="cls-42" d="M587,1069.79l1.78,9.83L584,1095l-12.65,21.64,1.69,6.35,16.06-23.4,6,16.54-2.43,21.5,6.09-2.58,3.61-15.54.56-13,13.05,6.2,16.32,5.42-1.3-5-26.14-10.84,7.58-21.56s-2-17.64-2.44-18-10.8-11.44-10.8-11.44l-8.74-5.35-1.85,14.25Z"/><path class="cls-43" d="M589.84,1070l.28,8.81L585,1093.71l-13.08,22.54,1.51,5.46,16.52-24.3,5.74,18.39L593.27,1131l5-1,3.69-9.75.52-14.75,14.09,6.81,15.43,5.09-1.15-4.32-28.18-11.45,7.81-22s-1.19-15.43-1.39-15.6l-9.35-8.36-6.64-2.32-2.32,10.24Z"/><polygon class="cls-44" points="617.12 1111.91 631.66 1116.69 630.65 1113.07 600.44 1101.02 608.49 1078.59 608.15 1065.37 600.23 1060.08 595.69 1060.78 592.92 1067.02 592.72 1070.28 591.5 1078.05 585.88 1092.46 572.38 1115.9 573.7 1120.48 590.69 1095.27 596.21 1115.51 593.89 1124.47 597.75 1124.97 601.52 1121.02 601.99 1104.5 617.12 1111.91"/><polygon class="cls-51" points="502.39 1072.8 516.63 1090.3 557.65 1109.08 569.14 1135.69 573 1179.3 558.66 1135.99 548.08 1115.81 506.25 1098.61 496.45 1078.36 486.07 1084.89 484.17 1109.08 467.68 1140.44 461.6 1201.55 435.63 1224.4 454.62 1197.4 452.58 1166.25 430.3 1185.15 442.75 1155.27 457 1150.53 457 1133.03 474.39 1104.64 471.53 1089.71 448.1 1094.16 430.3 1102.76 412.2 1104.24 400.03 1131.24 402.7 1109.08 386.98 1112.55 379.86 1132.54 379.86 1103.95 399.44 1103.06 414.87 1094.45 430 1095.34 445.32 1084.89 489.63 1068.35 502.39 1072.8"/><polygon class="cls-52" points="502.39 1072.8 516.63 1090.3 557.65 1109.08 569.14 1135.69 573 1179.3 559.01 1135.32 547.54 1114.79 506.75 1098 496.1 1077.6 485.71 1084.14 483.55 1108.78 467.23 1139.2 461.18 1200.82 435.63 1224.4 454.62 1197.4 452.51 1165.23 430.3 1185.15 442.75 1155.27 457 1150.53 457 1133.03 474.39 1104.64 471.53 1088.9 448.1 1093.35 430.3 1102.16 412.2 1103.65 400.54 1129.46 402.7 1108.41 386.98 1111.89 380.25 1130.33 379.86 1103.95 399.44 1103.06 414.87 1094.45 430 1095.34 445.32 1084.89 489.63 1068.35 502.39 1072.8"/><polygon class="cls-53" points="502.39 1072.8 516.63 1090.3 557.65 1109.08 569.14 1135.69 573 1179.3 559.37 1134.64 547 1113.77 507.25 1097.39 495.74 1076.85 485.36 1083.39 482.94 1108.47 466.77 1137.97 460.76 1200.09 435.63 1224.4 454.62 1197.4 452.45 1164.2 430.3 1185.15 442.75 1155.27 457 1150.53 457 1133.03 474.39 1104.64 471.53 1088.1 448.1 1092.55 430.3 1101.57 412.2 1103.05 401.05 1127.68 402.7 1107.75 386.98 1111.22 380.63 1128.12 379.86 1103.95 399.44 1103.06 414.87 1094.45 430 1095.34 445.32 1084.89 489.63 1068.35 502.39 1072.8"/><polygon class="cls-47" points="502.39 1072.8 516.63 1090.3 557.65 1109.08 569.14 1135.69 573 1179.3 559.72 1133.97 546.47 1112.75 507.75 1096.79 495.39 1076.1 485 1082.64 482.32 1108.17 466.32 1136.73 460.34 1199.36 435.63 1224.4 454.62 1197.4 452.38 1163.18 430.3 1185.15 442.75 1155.27 457 1150.53 457 1133.03 474.39 1104.64 471.53 1087.3 448.1 1091.75 430.3 1100.97 412.2 1102.46 401.55 1125.91 402.7 1107.09 386.98 1110.56 381.02 1125.9 379.86 1103.95 399.44 1103.06 414.87 1094.45 430 1095.34 445.32 1084.89 489.63 1068.35 502.39 1072.8"/><polygon class="cls-54" points="502.39 1072.8 516.63 1090.3 557.65 1109.08 569.14 1135.69 573 1179.3 560.07 1133.29 545.93 1111.73 508.25 1096.18 495.03 1075.35 484.65 1081.89 481.7 1107.87 465.88 1135.5 459.92 1198.63 435.63 1224.4 454.62 1197.4 452.31 1162.16 430.3 1185.15 442.75 1155.27 457 1150.53 457 1133.03 474.39 1104.64 471.53 1086.5 448.1 1090.95 430.3 1100.38 412.2 1101.86 402.06 1124.13 402.7 1106.42 386.98 1109.9 381.4 1123.69 379.86 1103.95 399.44 1103.06 414.87 1094.45 430 1095.34 445.32 1084.89 489.63 1068.35 502.39 1072.8"/><polygon class="cls-42" points="502.39 1072.8 516.63 1090.3 557.65 1109.08 569.14 1135.69 573 1179.3 560.42 1132.62 545.39 1110.7 508.76 1095.58 494.68 1074.6 484.29 1081.13 481.09 1107.57 465.42 1134.26 459.5 1197.9 435.63 1224.4 454.62 1197.4 452.25 1161.13 430.3 1185.15 442.75 1155.27 457 1150.53 457 1133.03 474.39 1104.64 471.53 1085.7 448.1 1090.15 430.3 1099.78 412.2 1101.27 402.57 1122.35 402.7 1105.76 386.98 1109.23 381.79 1121.48 379.86 1103.95 399.44 1103.06 414.87 1094.45 430 1095.34 445.32 1084.89 489.63 1068.35 502.39 1072.8"/><polygon class="cls-44" points="502.39 1072.8 516.63 1090.3 557.65 1109.08 569.14 1135.69 573 1179.3 560.77 1131.95 544.86 1109.68 509.26 1094.97 494.32 1073.84 483.94 1080.38 480.47 1107.27 464.97 1133.03 459.07 1197.17 435.63 1224.4 454.62 1197.4 452.18 1160.11 430.3 1185.15 442.75 1155.27 457 1150.53 457 1133.03 474.39 1104.64 471.53 1084.89 448.1 1089.35 430.3 1099.19 412.2 1100.67 403.07 1120.57 402.7 1105.1 386.97 1108.57 382.17 1119.27 379.86 1103.95 399.44 1103.06 414.87 1094.45 430 1095.34 445.32 1084.89 489.63 1068.35 502.39 1072.8"/><polygon class="cls-51" points="593.85 1072.3 561.6 1091.27 545.48 1101.47 536.12 1110.9 542.14 1113.37 555.17 1103.57 586.06 1084.34 589.67 1101.47 581.02 1129.67 566.57 1148.87 561.6 1189.37 572.38 1155.77 577.67 1171.07 576.47 1149.47 582.47 1137.47 595.36 1103.27 612.77 1126.97 617.87 1148.27 629.58 1157.87 622.45 1147.07 618.47 1123.37 601.45 1098.2 618.05 1091.44 639.31 1098.77 615.17 1082.87 598.97 1090.97 593.85 1072.3"/><polygon class="cls-52" points="593.85 1072.3 561.6 1091.27 545.48 1101.47 536.61 1110.29 542.48 1112.71 554.8 1103.02 586.11 1083.86 590.31 1101.14 581.02 1129.67 566.57 1148.87 561.6 1189.37 572.13 1155.04 577.67 1171.07 576.42 1148.46 582.35 1136.88 595.49 1102.97 613.04 1126.72 618.16 1148.01 629.58 1157.87 622.45 1147.07 618.47 1123.37 601.15 1097.75 617.79 1090.88 639.31 1098.77 615.17 1082.87 598.97 1090.97 593.85 1072.3"/><polygon class="cls-53" points="593.85 1072.3 561.6 1091.27 545.48 1101.47 537.09 1109.69 542.82 1112.05 554.42 1102.47 586.17 1083.38 590.95 1100.82 581.02 1129.67 566.57 1148.87 561.6 1189.37 571.87 1154.31 577.67 1171.07 576.36 1147.44 582.22 1136.3 595.63 1102.67 613.3 1126.47 618.45 1147.74 629.58 1157.87 622.45 1147.07 618.47 1123.37 600.85 1097.3 617.54 1090.33 639.31 1098.77 615.17 1082.87 598.97 1090.97 593.85 1072.3"/><polygon class="cls-47" points="593.85 1072.3 561.6 1091.27 545.48 1101.47 537.57 1109.08 543.16 1111.4 554.05 1101.92 586.22 1082.89 591.59 1100.49 581.02 1129.67 566.57 1148.87 561.6 1189.37 571.62 1153.58 577.67 1171.07 576.3 1146.43 582.1 1135.71 595.76 1102.37 613.56 1126.22 618.74 1147.48 629.58 1157.87 622.45 1147.07 618.47 1123.37 600.54 1096.85 617.29 1089.78 639.31 1098.77 615.17 1082.87 598.97 1090.97 593.85 1072.3"/><polygon class="cls-54" points="593.85 1072.3 561.6 1091.27 545.48 1101.47 538.05 1108.48 543.5 1110.74 553.67 1101.37 586.27 1082.41 592.22 1100.17 581.02 1129.67 566.57 1148.87 561.6 1189.37 571.37 1152.85 577.67 1171.07 576.25 1145.42 581.97 1135.12 595.89 1102.07 613.82 1125.97 619.02 1147.22 629.58 1157.87 622.45 1147.07 618.47 1123.37 600.24 1096.4 617.03 1089.22 639.31 1098.77 615.17 1082.87 598.97 1090.97 593.85 1072.3"/><polygon class="cls-42" points="593.85 1072.3 561.6 1091.27 545.48 1101.47 538.53 1107.87 543.84 1110.08 553.3 1100.82 586.32 1081.93 592.86 1099.85 581.02 1129.67 566.57 1148.87 561.6 1189.37 571.12 1152.12 577.67 1171.07 576.19 1144.4 581.85 1134.53 596.03 1101.76 614.09 1125.72 619.31 1146.96 629.58 1157.87 622.45 1147.07 618.47 1123.37 599.93 1095.96 616.78 1088.67 639.31 1098.77 615.17 1082.87 598.97 1090.97 593.85 1072.3"/><polygon class="cls-44" points="593.85 1072.3 561.6 1091.27 545.48 1101.47 539.01 1107.27 544.17 1109.42 552.92 1100.27 586.37 1081.44 593.5 1099.52 581.02 1129.67 566.57 1148.87 561.6 1189.37 570.86 1151.39 577.67 1171.07 576.14 1143.39 581.72 1133.94 596.16 1101.46 614.35 1125.47 619.6 1146.69 629.58 1157.87 622.45 1147.07 618.47 1123.37 599.63 1095.51 616.52 1088.12 639.31 1098.77 615.17 1082.87 598.97 1090.97 593.85 1072.3"/></g></g></svg>