<svg xmlns="http://www.w3.org/2000/svg" xmlns:xlink="http://www.w3.org/1999/xlink" viewBox="0 0 1263.27 956.99"><defs><style>.cls-1{fill:#4f6832;}.cls-2{fill:#516b32;}.cls-3{fill:#1e150f;}.cls-4{fill:#936e54;}.cls-5{fill:#2a1e16;}.cls-6{fill:#35261c;}.cls-7{fill:#412f23;}.cls-8{fill:#4c3829;}.cls-9{fill:#57402f;}.cls-10{fill:#634936;}.cls-11{fill:#664b38;}.cls-12{fill:#684d39;}.cls-13{fill:#6b4f3b;}.cls-14{fill:#6d513c;}.cls-15{fill:#6f533d;}.cls-16{fill:#72553f;}.cls-17{fill:url(#Gradiente_sem_nome_335);}.cls-18{fill:url(#linear-gradient);}.cls-19{fill:url(#linear-gradient-2);}.cls-20{fill:url(#linear-gradient-3);}.cls-21{fill:url(#linear-gradient-4);}.cls-22{fill:url(#linear-gradient-5);}.cls-23{fill:#3d2c21;}.cls-24{fill:#39291f;}.cls-25{fill:#35271d;}.cls-26{fill:#32241a;}.cls-27{fill:#2e2118;}.cls-28{fill:#281c15;}.cls-29{fill:#261b14;}.cls-30{fill:#241a12;}.cls-31{fill:#221811;}.cls-32{fill:#201710;}.cls-33{fill:url(#linear-gradient-6);}.cls-34{fill:url(#linear-gradient-7);}.cls-35{fill:url(#linear-gradient-8);}.cls-36{fill:url(#linear-gradient-9);}.cls-37{fill:url(#linear-gradient-10);}.cls-38{fill:url(#linear-gradient-11);}.cls-39{fill:#1c130e;}.cls-40{fill:#1a120d;}.cls-41{fill:#18100c;}.cls-42{fill:#150f0b;}.cls-43{fill:#130e0a;}.cls-44{fill:#110c09;}.cls-45{fill:#1d150f;}.cls-46{fill:#1c150f;}.cls-47{fill:#1c1410;}.cls-48{fill:#1b1410;}.cls-49{fill:#1a1410;}.cls-50{fill:#191410;}.cls-51{fill:#281c16;}.cls-52{fill:#241914;}.cls-53{fill:#201712;}.cls-54{fill:#19110d;}</style><linearGradient id="Gradiente_sem_nome_335" x1="585.58" y1="787.1" x2="709.19" y2="787.1" gradientUnits="userSpaceOnUse"><stop offset="0" stop-color="#72553f"/><stop offset="0.04" stop-color="#644a37"/><stop offset="0.14" stop-color="#463326"/><stop offset="0.24" stop-color="#302219"/><stop offset="0.34" stop-color="#221812"/><stop offset="0.43" stop-color="#1e150f"/></linearGradient><linearGradient id="linear-gradient" x1="588.34" y1="789.8" x2="703.26" y2="789.8" gradientUnits="userSpaceOnUse"><stop offset="0" stop-color="#6a4f3a"/><stop offset="0.11" stop-color="#4c3829"/><stop offset="0.23" stop-color="#36271c"/><stop offset="0.33" stop-color="#281c15"/><stop offset="0.43" stop-color="#241912"/></linearGradient><linearGradient id="linear-gradient-2" x1="591.11" y1="792.51" x2="697.33" y2="792.51" gradientUnits="userSpaceOnUse"><stop offset="0" stop-color="#624836"/><stop offset="0.07" stop-color="#523c2d"/><stop offset="0.2" stop-color="#3c2b20"/><stop offset="0.32" stop-color="#2e2119"/><stop offset="0.43" stop-color="#2a1e16"/></linearGradient><linearGradient id="linear-gradient-3" x1="593.87" y1="795.22" x2="691.4" y2="795.22" gradientUnits="userSpaceOnUse"><stop offset="0" stop-color="#5a4231"/><stop offset="0.01" stop-color="#584030"/><stop offset="0.16" stop-color="#422f23"/><stop offset="0.3" stop-color="#34251c"/><stop offset="0.43" stop-color="#302219"/></linearGradient><linearGradient id="linear-gradient-4" x1="596.64" y1="797.92" x2="685.47" y2="797.92" gradientUnits="userSpaceOnUse"><stop offset="0" stop-color="#513c2c"/><stop offset="0.09" stop-color="#473426"/><stop offset="0.27" stop-color="#392a1f"/><stop offset="0.43" stop-color="#35261c"/></linearGradient><linearGradient id="linear-gradient-5" x1="599.4" y1="800.63" x2="679.54" y2="800.63" gradientUnits="userSpaceOnUse"><stop offset="0" stop-color="#493528"/><stop offset="0.2" stop-color="#3f2e23"/><stop offset="0.43" stop-color="#3b2b20"/></linearGradient><linearGradient id="linear-gradient-6" x1="438.83" y1="815.72" x2="604.27" y2="744.2" gradientUnits="userSpaceOnUse"><stop offset="0.36" stop-color="#1e150f"/><stop offset="0.56" stop-color="#201710"/><stop offset="0.67" stop-color="#281d15"/><stop offset="0.76" stop-color="#36271d"/><stop offset="0.83" stop-color="#493628"/><stop offset="0.9" stop-color="#624836"/><stop offset="0.94" stop-color="#72553f"/></linearGradient><linearGradient id="linear-gradient-7" x1="446.35" y1="816.2" x2="601.89" y2="748.97" gradientUnits="userSpaceOnUse"><stop offset="0.36" stop-color="#241912"/><stop offset="0.57" stop-color="#261b13"/><stop offset="0.69" stop-color="#2e2118"/><stop offset="0.78" stop-color="#3c2b20"/><stop offset="0.86" stop-color="#4f3a2a"/><stop offset="0.93" stop-color="#674d38"/><stop offset="0.94" stop-color="#6a4f3a"/></linearGradient><linearGradient id="linear-gradient-8" x1="453.87" y1="816.69" x2="599.51" y2="753.73" gradientUnits="userSpaceOnUse"><stop offset="0.36" stop-color="#2a1e16"/><stop offset="0.59" stop-color="#2c2017"/><stop offset="0.71" stop-color="#34261c"/><stop offset="0.81" stop-color="#423024"/><stop offset="0.89" stop-color="#553e2e"/><stop offset="0.94" stop-color="#624836"/></linearGradient><linearGradient id="linear-gradient-9" x1="461.39" y1="817.17" x2="597.12" y2="758.49" gradientUnits="userSpaceOnUse"><stop offset="0.36" stop-color="#302219"/><stop offset="0.61" stop-color="#32241a"/><stop offset="0.74" stop-color="#3a2a1f"/><stop offset="0.85" stop-color="#483427"/><stop offset="0.94" stop-color="#5a4231"/></linearGradient><linearGradient id="linear-gradient-10" x1="468.91" y1="817.65" x2="594.74" y2="763.26" gradientUnits="userSpaceOnUse"><stop offset="0.36" stop-color="#35261c"/><stop offset="0.64" stop-color="#37281d"/><stop offset="0.79" stop-color="#3f2e22"/><stop offset="0.91" stop-color="#4d392a"/><stop offset="0.94" stop-color="#513c2c"/></linearGradient><linearGradient id="linear-gradient-11" x1="476.43" y1="818.14" x2="592.36" y2="768.02" gradientUnits="userSpaceOnUse"><stop offset="0.36" stop-color="#3b2b20"/><stop offset="0.7" stop-color="#3d2d21"/><stop offset="0.89" stop-color="#453226"/><stop offset="0.94" stop-color="#493528"/></linearGradient><symbol id="Figueira-Foliage-BG-2" data-name="Figueira-Foliage-BG-2" viewBox="0 0 79.33 82.26"><polygon class="cls-1" points="41.84 81.49 59.23 76.2 73.87 60.16 79.33 49.27 77.2 41.8 66.42 50.98 62.57 46.53 60.79 21.55 49.12 0 42.71 12.28 45.3 35.37 30.77 28.78 12.96 9.72 3.58 17.71 1.76 31.27 22.86 38.41 36.13 51.29 17.1 53.43 6.11 51.6 0 61.28 15.01 66.78 30.34 63.77 46.87 64.49 49.33 71.15 34.08 74.14 34.99 82.26 41.84 81.49"/><path class="cls-2" d="M72.13,75.9l-2.76-3.48L64.43,67l-1.07-1.21-.93-1v-.72l.82-1.9.86-1.54,1.57-1.46,1.08-.9,1.86-1.72,1.11-1.64,1.11-2.11L69.44,55l-1,1.39-1.22,1.22-1.42,1.18-1.07,1-.93.87-.83,1.44-.38,1-.31,1.16-.22.06-.43-.56-.25-1.55L60.89,60l-.57-4.32-.45-4.37-.35-2.5-.27-2.9-.88-5.31-1.64-5.69-1.26-4.65-.78-4.48-.27-4.37L54,16.27l.41,6.45.26,3.83.57,3,.67,3.14,1,3.44,1,3.35.56,3.14.67,4.06.16,2.06.4,3.52.27,2.85.27,2.6.4,2.66.49,2.71.16,1-2.74-3L55.82,58l-3.63-3.33L44.35,48.2l-8.76-6.66L23.1,33.08l-4.94-3.2-.89-.24,1.12.56,4.69,3,6.15,4.18,12.48,9.17L47,50.84l9.44,8.41,2.58,3,2.11,2.38.46.92-2.6-1-4.78-1.34-3.36-.54L41.6,61.29,37.7,61l-7-.43L22,59.86l-2.95.38,3.33-.11L33.89,61l8.5.59L54,63.44l4.79,1.4L61.43,66l-.22.25-1.68.25L57.6,67l-1.22.94-2.22,1.57L51.8,71.28l-1.43.89L47.72,73l1.9-.32,1.71-.79,2.83-2L56.77,68l1.79-1,3.22-.68.67.48.18.43.94.72L71.14,77Z"/></symbol></defs><title>Árvore 3</title><g id="Layer_2" data-name="Layer 2"><g id="ÁRVORE_3" data-name="ÁRVORE 3"><use width="79.33" height="82.26" transform="matrix(-0.71, -0.27, 0.27, -0.71, 142.21, 582.2)"/><use width="79.33" height="82.26" transform="translate(86.88 589.32) rotate(-123.18) scale(0.85)"/><use width="79.33" height="82.26" transform="translate(92.98 554.34) rotate(-122.5) scale(0.78)"/><use width="79.33" height="82.26" transform="translate(25.78 556.46) rotate(-85.57) scale(0.99)"/><use width="79.33" height="82.26" transform="matrix(0.24, -0.92, 0.92, 0.24, 33.21, 515.47)"/><use width="79.33" height="82.26" transform="translate(8.79 451.92) rotate(-65.87) scale(1.14)"/><use width="79.33" height="82.26" transform="translate(-9.25 492.54) rotate(-69.77) scale(1.17)"/><use width="79.33" height="82.26" transform="matrix(-0.53, -0.43, 0.43, -0.53, 124.39, 529.16)"/><use width="79.33" height="82.26" transform="translate(149.93 545.58) rotate(-164.78) scale(0.63)"/><use width="79.33" height="82.26" transform="matrix(-0.73, -0.15, 0.15, -0.73, 174.36, 585.29)"/><use width="79.33" height="82.26" transform="translate(186.95 517.3) rotate(-172.52) scale(0.59)"/><use width="79.33" height="82.26" transform="matrix(-0.87, -0.24, 0.24, -0.87, 245.95, 551.2)"/><use width="79.33" height="82.26" transform="translate(213.42 513.25) rotate(-128.89)"/><use width="79.33" height="82.26" transform="translate(255.16 571.46) rotate(-133.19) scale(1.09)"/><use width="79.33" height="82.26" transform="translate(196.49 486.58) rotate(-73.65) scale(1.18)"/><use width="79.33" height="82.26" transform="translate(237.03 528.01) rotate(-157.24) scale(0.92)"/><use width="79.33" height="82.26" transform="matrix(-0.76, -0.1, 0.1, -0.76, 221.57, 559.7)"/><use width="79.33" height="82.26" transform="matrix(-0.63, -0.05, 0.05, -0.63, 187.92, 546.38)"/><use width="79.33" height="82.26" transform="matrix(-0.05, -0.79, 0.79, -0.05, 128.2, 471.11)"/><use width="79.33" height="82.26" transform="translate(170.66 485.43) rotate(-107.04) scale(0.9)"/><use width="79.33" height="82.26" transform="matrix(0.42, -0.91, 0.91, 0.42, 316.75, 479.91)"/><use width="79.33" height="82.26" transform="matrix(0.87, -0.48, 0.48, 0.87, 349.25, 451.86)"/><use width="79.33" height="82.26" transform="matrix(0.97, -0.25, 0.25, 0.97, 359.85, 395.67)"/><use width="79.33" height="82.26" transform="translate(276.14 409.13) rotate(-68.96) scale(1.01)"/><use width="79.33" height="82.26" transform="translate(280.4 442.58) rotate(-66.63) scale(1.04)"/><use width="79.33" height="82.26" transform="translate(281.59 507.55) rotate(-84.63) scale(1.06)"/><use width="79.33" height="82.26" transform="translate(272.13 555.84) rotate(-103.55) scale(1.07)"/><use width="79.33" height="82.26" transform="translate(409.02 392.71)"/><use width="79.33" height="82.26" transform="translate(427.85 371.6)"/><use width="79.33" height="82.26" transform="translate(403.41 343.77)"/><use width="79.33" height="82.26" transform="translate(365.68 323.71) rotate(-7.05)"/><use width="79.33" height="82.26" transform="translate(364.94 352.13) rotate(-11.97)"/><use width="79.33" height="82.26" transform="translate(312.11 413.58) rotate(-44.63)"/><use width="79.33" height="82.26" transform="translate(223.23 449.92) rotate(-63.45) scale(1.13)"/><use width="79.33" height="82.26" transform="translate(222.86 489.23) rotate(-68.3) scale(1.15)"/><use width="79.33" height="82.26" transform="matrix(0.71, -0.8, 0.8, 0.71, 210.37, 395.73)"/><use width="79.33" height="82.26" transform="matrix(0.97, -0.31, 0.31, 0.97, 232.47, 339.65)"/><use width="79.33" height="82.26" transform="translate(152.42 423.72) rotate(-64.15) scale(1.05)"/><use width="79.33" height="82.26" transform="translate(183.94 500.9) rotate(-152) scale(0.72)"/><use width="79.33" height="82.26" transform="matrix(0.22, -0.85, 0.85, 0.22, 86.13, 454.2)"/><use width="79.33" height="82.26" transform="translate(53.21 469.41) rotate(-71.4) scale(0.93)"/><use width="79.33" height="82.26" transform="matrix(-0.22, -0.7, 0.7, -0.22, 113.66, 495.34)"/><use width="79.33" height="82.26" transform="translate(350.52 580.72) rotate(-150.25)"/><use width="79.33" height="82.26" transform="translate(403.53 555.88) rotate(-162.83)"/><use width="79.33" height="82.26" transform="matrix(0.44, -0.95, 0.95, 0.44, 130.43, 309)"/><use width="79.33" height="82.26" transform="translate(86.98 254.8) rotate(-37.4) scale(1.09)"/><use width="79.33" height="82.26" transform="translate(16.67 258) rotate(-47.41) scale(1.02)"/><use width="79.33" height="82.26" transform="translate(-4.88 318.5) rotate(-70.91)"/><use width="79.33" height="82.26" transform="translate(-4.41 365.78) rotate(-75.87) scale(1.07)"/><use width="79.33" height="82.26" transform="translate(-14.4 404.53) rotate(-73.97) scale(1.11)"/><use width="79.33" height="82.26" transform="translate(15.83 425.9) rotate(-61.31) scale(1.16)"/><use width="79.33" height="82.26" transform="translate(75.28 406.75) rotate(-84.78) scale(1.09)"/><use width="79.33" height="82.26" transform="translate(74.59 377.59) rotate(-80.16) scale(1.06)"/><use width="79.33" height="82.26" transform="translate(70.71 318.18) rotate(-58.21) scale(1.02)"/><use width="79.33" height="82.26" transform="translate(36.51 292.39) rotate(-50.57) scale(1.02)"/><use width="79.33" height="82.26" transform="translate(25.34 373.74) rotate(-66.22) scale(1.11)"/><use width="79.33" height="82.26" transform="matrix(0.32, -1.08, 1.08, 0.32, 54.58, 435.18)"/><use width="79.33" height="82.26" transform="translate(134.37 436.47) rotate(-106.36) scale(1.03)"/><use width="79.33" height="82.26" transform="translate(183.81 351.01) rotate(-85.77)"/><use width="79.33" height="82.26" transform="translate(125.04 247.13) rotate(-34.82) scale(1.08)"/><use width="79.33" height="82.26" transform="matrix(0.86, -0.69, 0.69, 0.86, 74.44, 227.1)"/><use width="79.33" height="82.26" transform="matrix(0.97, -0.52, 0.52, 0.97, 71.1, 190.57)"/><use width="79.33" height="82.26" transform="translate(201.93 175.27) rotate(-19.63)"/><use width="79.33" height="82.26" transform="translate(246.14 217.14) rotate(-11.12)"/><use width="79.33" height="82.26" transform="matrix(0.97, -0.26, 0.26, 0.97, 261.9, 285.07)"/><use width="79.33" height="82.26" transform="translate(95.66 312.44) rotate(-61.37) scale(1.04)"/><use width="79.33" height="82.26" transform="matrix(0.81, -0.68, 0.68, 0.81, 61.75, 264.08)"/><use width="79.33" height="82.26" transform="matrix(0.88, -0.6, 0.6, 0.88, 145.2, 193.03)"/><use width="79.33" height="82.26" transform="translate(344.28 232.49) rotate(-0.25) scale(1.08)"/><use width="79.33" height="82.26" transform="translate(399.04 275.82) rotate(8.93) scale(1.09)"/><use width="79.33" height="82.26" transform="matrix(1.11, 0.05, -0.05, 1.11, 408.75, 244.59)"/><use width="79.33" height="82.26" transform="matrix(1.06, 0.11, -0.11, 1.06, 435.2, 264.92)"/><use width="79.33" height="82.26" transform="translate(435.86 293.15) rotate(9.43) scale(1.05)"/><use width="79.33" height="82.26" transform="translate(305.58 172.45) rotate(-12.79)"/><use width="79.33" height="82.26" transform="translate(275.11 187.38) rotate(-12.45)"/><use width="79.33" height="82.26" transform="translate(318.99 265.61) rotate(-0.75) scale(1.04)"/><use width="79.33" height="82.26" transform="matrix(0.99, -0.11, 0.11, 0.99, 305.31, 334.77)"/><use width="79.33" height="82.26" transform="matrix(0.15, -0.99, 0.99, 0.15, 251.07, 410.08)"/><use width="79.33" height="82.26" transform="translate(214.75 448.21) rotate(-114.5)"/><use width="79.33" height="82.26" transform="translate(177.83 441.48) rotate(-113.29)"/><use width="79.33" height="82.26" transform="translate(374.46 338.82) rotate(9.37) scale(1.01)"/><use width="79.33" height="82.26" transform="matrix(1.01, -0.03, 0.03, 1.01, 308.14, 303.27)"/><use width="79.33" height="82.26" transform="matrix(0.75, -0.67, 0.67, 0.75, 193.86, 276.62)"/><use width="79.33" height="82.26" transform="translate(155.38 257.8) rotate(-38.27) scale(1.05)"/><use width="79.33" height="82.26" transform="translate(47.84 320.73) rotate(-55.34) scale(1.03)"/><use width="79.33" height="82.26" transform="translate(191.2 398.21) rotate(-107.63)"/><use width="79.33" height="82.26" transform="translate(223.75 396.19) rotate(-94.66)"/><use width="79.33" height="82.26" transform="translate(184.68 477.71) rotate(-114.58)"/><use width="79.33" height="82.26" transform="translate(147.9 384.63) rotate(-104.06)"/><use width="79.33" height="82.26" transform="translate(278.65 243.26) rotate(-6.94)"/><use width="79.33" height="82.26" transform="matrix(1, -0.16, 0.16, 1, 305.38, 207.84)"/><use width="79.33" height="82.26" transform="translate(174.14 213.29) rotate(-33.81) scale(1.04)"/><use width="79.33" height="82.26" transform="matrix(0.99, -0.48, 0.48, 0.99, 113.7, 181.14)"/><use width="79.33" height="82.26" transform="matrix(0.79, 0.61, -0.61, 0.79, 635.8, -7.06)" xlink:href="#Figueira-Foliage-BG-2"/><use width="79.33" height="82.26" transform="translate(612.67 -2.67) rotate(48.61)"/><use width="79.33" height="82.26" transform="translate(591.25 39.93) rotate(45.69)"/><use width="79.33" height="82.26" transform="translate(633.97 37.21) rotate(51.92)"/><use width="79.33" height="82.26" transform="matrix(0.29, 0.96, -0.96, 0.29, 630.22, 123.19)"/><use width="79.33" height="82.26" transform="translate(580.99 8.12) rotate(43.94)"/><use width="79.33" height="82.26" transform="matrix(0.89, 0.45, -0.45, 0.89, 539.07, -14.51)"/><use width="79.33" height="82.26" transform="translate(501.44 66.25) rotate(14.63)"/><use width="79.33" height="82.26" transform="translate(605.12 150.66) rotate(84.65)"/><use width="79.33" height="82.26" transform="translate(567.71 188.49) rotate(89.41)"/><use width="79.33" height="82.26" transform="translate(582.55 243.1) rotate(82.48)"/><use width="79.33" height="82.26" transform="matrix(0.99, 0.17, -0.17, 0.99, 499.44, 278.34)"/><use width="79.33" height="82.26" transform="translate(424.72 342.94) rotate(-24.97)"/><use width="79.33" height="82.26" transform="translate(443.39 403.42) rotate(-57.11)"/><use width="79.33" height="82.26" transform="translate(545.43 536.81) rotate(-119.01)"/><use width="79.33" height="82.26" transform="translate(473.63 483.99) rotate(-99.79)"/><use width="79.33" height="82.26" transform="translate(542.38 484.08) rotate(-116.04)"/><use width="79.33" height="82.26" transform="translate(772.36 288.71) rotate(106.42)"/><use width="79.33" height="82.26" transform="translate(785.37 257.46) rotate(113.43)"/><use width="79.33" height="82.26" transform="translate(758.61 196.81) rotate(113.6)"/><use width="79.33" height="82.26" transform="translate(707.17 77.31) rotate(65.95)"/><use width="79.33" height="82.26" transform="matrix(0.64, 0.77, -0.77, 0.64, 658.16, 54.75)"/><use width="79.33" height="82.26" transform="matrix(-0.39, 0.92, -0.92, -0.39, 779.82, 163.84)"/><use width="79.33" height="82.26" transform="translate(708.26 213.69) rotate(100.61)"/><use width="79.33" height="82.26" transform="translate(632.64 254.1) rotate(84.19)"/><use width="79.33" height="82.26" transform="matrix(-0.5, 0.86, -0.86, -0.5, 695.58, 334.65)"/><use width="79.33" height="82.26" transform="matrix(-0.25, 0.97, -0.97, -0.25, 662.76, 326.66)"/><use width="79.33" height="82.26" transform="matrix(-0.11, 0.99, -0.99, -0.11, 716.59, 239.06)"/><use width="79.33" height="82.26" transform="matrix(-0.27, 0.96, -0.96, -0.27, 732.96, 148.67)"/><use width="79.33" height="82.26" transform="translate(755.59 111.85) rotate(97.13)"/><use width="79.33" height="82.26" transform="translate(689.67 39.36) rotate(36.71)"/><use width="79.33" height="82.26" transform="translate(649.62 77.03) rotate(50.87)"/><use width="79.33" height="82.26" transform="translate(758.23 71.59) rotate(61.38)"/><use width="79.33" height="82.26" transform="translate(804.03 99.94) rotate(88.31)"/><use width="79.33" height="82.26" transform="translate(720.52 34.53) rotate(27.24)"/><use width="79.33" height="82.26" transform="matrix(0.78, 0.63, -0.63, 0.78, 597.98, 79.68)"/><use width="79.33" height="82.26" transform="matrix(0.92, 0.39, -0.39, 0.92, 540.69, 98.65)"/><use width="79.33" height="82.26" transform="translate(548.16 30.62) rotate(35.15)"/><use width="79.33" height="82.26" transform="translate(475.58 33.36) rotate(8.05)"/><use width="79.33" height="82.26" transform="translate(447.62 129.12) rotate(0.13)"/><use width="79.33" height="82.26" transform="translate(428.14 156.67) rotate(8.09)"/><use width="79.33" height="82.26" transform="translate(386.07 244.74) rotate(-36.25)"/><use width="79.33" height="82.26" transform="translate(392.06 305.2) rotate(-43.34)"/><use width="79.33" height="82.26" transform="translate(349.28 322.96) rotate(-45.65)"/><use width="79.33" height="82.26" transform="matrix(0.65, -0.76, 0.76, 0.65, 501.57, 355.13)"/><use width="79.33" height="82.26" transform="translate(563.3 402.26) rotate(-44.35)"/><use width="79.33" height="82.26" transform="translate(678.46 275.93) rotate(90.74)"/><use width="79.33" height="82.26" transform="translate(616.87 221.87) rotate(97.04)"/><use width="79.33" height="82.26" transform="translate(500.01 236.05) rotate(44.82)"/><use width="79.33" height="82.26" transform="translate(790.51 223.91) rotate(113.58)"/><use width="79.33" height="82.26" transform="matrix(-0.39, 0.92, -0.92, -0.39, 833.48, 166.73)"/><use width="79.33" height="82.26" transform="translate(803.56 185.62) rotate(113.52)"/><use width="79.33" height="82.26" transform="translate(710.71 182.13) rotate(103.25)"/><use width="79.33" height="82.26" transform="matrix(0.48, 0.88, -0.88, 0.48, 885.6, 118.39)"/><use width="79.33" height="82.26" transform="translate(837.75 124.33) rotate(51.14)"/><use width="79.33" height="82.26" transform="translate(706.03 206.91) rotate(-11.1)"/><use width="79.33" height="82.26" transform="translate(873.53 247.35) rotate(112.19)"/><use width="79.33" height="82.26" transform="translate(925.1 141.24) rotate(72.44)"/><use width="79.33" height="82.26" transform="translate(741.23 73.71) rotate(44.48)"/><use width="79.33" height="82.26" transform="translate(643.29 170.26) rotate(-34.87)"/><use width="79.33" height="82.26" transform="translate(817.54 166.26) rotate(54.08)"/><use width="79.33" height="82.26" transform="translate(832.21 298.13) rotate(137.56)"/><use width="79.33" height="82.26" transform="translate(890.43 217.92) rotate(70.31)"/><use width="79.33" height="82.26" transform="matrix(0.65, 0.76, -0.76, 0.65, 892.42, 180.75)"/><use width="79.33" height="82.26" transform="translate(778.56 101.14) rotate(43.87)"/><use width="79.33" height="82.26" transform="translate(926.56 99.23) rotate(71.11)" xlink:href="#Figueira-Foliage-BG-2"/><use width="79.33" height="82.26" transform="matrix(0.52, 0.86, -0.86, 0.52, 909.49, 61.68)" xlink:href="#Figueira-Foliage-BG-2"/><use width="79.33" height="82.26" transform="translate(816.91 52.75) rotate(44.91)"/><use width="79.33" height="82.26" transform="translate(975.45 77.68) rotate(72.69)" xlink:href="#Figueira-Foliage-BG-2"/><use width="79.33" height="82.26" transform="translate(987.94 121.37) rotate(75.06)"/><use width="79.33" height="82.26" transform="translate(1000.51 146.84) rotate(71.32)"/><use width="79.33" height="82.26" transform="translate(1009.46 76.64) rotate(72.91)" xlink:href="#Figueira-Foliage-BG-2"/><use width="79.33" height="82.26" transform="translate(951.38 159.36) rotate(67.59)"/><use width="79.33" height="82.26" transform="matrix(0.56, 0.83, -0.83, 0.56, 879.19, 167.37)"/><use width="79.33" height="82.26" transform="matrix(0.61, 0.79, -0.79, 0.61, 845.1, 162.53)"/><use width="79.33" height="82.26" transform="translate(851.23 81.97) rotate(48.95)"/><use width="79.33" height="82.26" transform="translate(686.06 184.58) rotate(-33.68)"/><use width="79.33" height="82.26" transform="matrix(-0.71, 0.7, -0.7, -0.71, 841.92, 267.3)"/><use width="79.33" height="82.26" transform="translate(899.12 292.09) rotate(121.81)"/><use width="79.33" height="82.26" transform="matrix(-0.5, 0.87, -0.87, -0.5, 862.97, 296.89)"/><use width="79.33" height="82.26" transform="translate(747.15 227.93) rotate(63.13)"/><use width="79.33" height="82.26" transform="matrix(0.41, -0.91, 0.91, 0.41, 639.33, 269.94)"/><use width="79.33" height="82.26" transform="translate(666.23 264.23) rotate(-57.64)"/><use width="79.33" height="82.26" transform="translate(735.99 169.59) rotate(-0.58)"/><use width="79.33" height="82.26" transform="matrix(0.43, 0.91, -0.91, 0.43, 1054.14, 295.1)"/><use width="79.33" height="82.26" transform="matrix(0.99, -0.17, 0.17, 0.99, 935.49, 331.1)"/><use width="79.33" height="82.26" transform="translate(934.54 461.43) rotate(-175.01)"/><use width="79.33" height="82.26" transform="translate(897.49 447.8) rotate(-115.29)"/><use width="79.33" height="82.26" transform="translate(870.93 346) rotate(-37.59)"/><use width="79.33" height="82.26" transform="translate(856.86 435.65) rotate(-120.05)"/><use width="79.33" height="82.26" transform="translate(922.31 276.64) rotate(11.82) scale(1.01)"/><use width="79.33" height="82.26" transform="matrix(0.74, -0.67, 0.67, 0.74, 841.15, 317.48)"/><use width="79.33" height="82.26" transform="translate(796.29 354.29) rotate(-54.25)"/><use width="79.33" height="82.26" transform="translate(860.13 250.92) rotate(-14.28)"/><use width="79.33" height="82.26" transform="matrix(0.93, -0.37, 0.37, 0.93, 785.4, 289.74)"/><use width="79.33" height="82.26" transform="translate(819.35 286.3) rotate(-40.99)"/><use width="79.33" height="82.26" transform="matrix(0.86, 0.71, -0.71, 0.86, 957, 172.85)"/><use width="79.33" height="82.26" transform="translate(1025.16 174.94) rotate(61.5) scale(1.22)"/><use width="79.33" height="82.26" transform="translate(1063.21 165.57) rotate(66.94) scale(1.16)"/><use width="79.33" height="82.26" transform="matrix(0.44, 0.96, -0.96, 0.44, 1104.9, 166.25)"/><use width="79.33" height="82.26" transform="translate(1182.72 349.43) rotate(108.72)"/><use width="79.33" height="82.26" transform="translate(1199.05 388.27) rotate(115.83)"/><use width="79.33" height="82.26" transform="matrix(-0.61, 0.8, -0.8, -0.61, 1211.24, 428.98)"/><use width="79.33" height="82.26" transform="translate(1030.45 258.13) rotate(52.2) scale(1.07)"/><use width="79.33" height="82.26" transform="translate(1064.89 286.05) rotate(63.81) scale(1.01)"/><use width="79.33" height="82.26" transform="translate(1232.43 373.07) rotate(123.47)"/><use width="79.33" height="82.26" transform="matrix(-0.43, 0.9, -0.9, -0.43, 1214.57, 327.99)"/><use width="79.33" height="82.26" transform="translate(1126.18 313.51) rotate(87.28)"/><use width="79.33" height="82.26" transform="translate(1147.64 250.09) rotate(62.53)"/><use width="79.33" height="82.26" transform="translate(1196.65 231.52) rotate(60.11)"/><use width="79.33" height="82.26" transform="matrix(-0.41, 0.91, -0.91, -0.41, 1264.66, 310.34)"/><use width="79.33" height="82.26" transform="translate(1263.23 351.04) rotate(124.61)"/><use width="79.33" height="82.26" transform="matrix(-0.6, 0.8, -0.8, -0.6, 1278.84, 406.52)" xlink:href="#Figueira-Foliage-BG-2"/><use width="79.33" height="82.26" transform="translate(1257.54 450.3) rotate(124.25)" xlink:href="#Figueira-Foliage-BG-2"/><use width="79.33" height="82.26" transform="translate(1147.65 574.66) rotate(-173.22)" xlink:href="#Figueira-Foliage-BG-2"/><use width="79.33" height="82.26" transform="translate(1098.04 548.63) rotate(-174.45)"/><use width="79.33" height="82.26" transform="matrix(-0.64, 0.77, -0.77, -0.64, 1083.23, 467.2)"/><use width="79.33" height="82.26" transform="translate(1027.59 427.7) rotate(72.6)"/><use width="79.33" height="82.26" transform="translate(1039.21 398.34) rotate(86.49)"/><use width="79.33" height="82.26" transform="matrix(-0.63, 0.78, -0.78, -0.63, 1089.69, 416.68)"/><use width="79.33" height="82.26" transform="translate(1174.62 492.31) rotate(166.77)"/><use width="79.33" height="82.26" transform="translate(1182.07 537.45) rotate(-175.41)" xlink:href="#Figueira-Foliage-BG-2"/><use width="79.33" height="82.26" transform="translate(1140.43 530.83) rotate(-175.03)"/><use width="79.33" height="82.26" transform="translate(1122.82 501.96) rotate(-176.82)"/><use width="79.33" height="82.26" transform="matrix(-0.99, 0.1, -0.1, -0.99, 1105.08, 475.51)"/><use width="79.33" height="82.26" transform="translate(1138.95 445.82) rotate(157.57)"/><use width="79.33" height="82.26" transform="translate(1119.64 428.13) rotate(151.46)"/><use width="79.33" height="82.26" transform="translate(1144.9 367.41) rotate(110.22)"/><use width="79.33" height="82.26" transform="translate(1126.44 212.48) rotate(64.11) scale(1.01)"/><use width="79.33" height="82.26" transform="translate(1100.24 209.96) rotate(66.18) scale(1.08)"/><use width="79.33" height="82.26" transform="matrix(0.43, 1.06, -1.06, 0.43, 1074.71, 208.39)"/><use width="79.33" height="82.26" transform="matrix(0.44, 0.96, -0.96, 0.44, 1066.14, 263.36)"/><use width="79.33" height="82.26" transform="translate(1003.06 303.89) rotate(40.81)"/><use width="79.33" height="82.26" transform="translate(987.59 445.63) rotate(-134.05)"/><use width="79.33" height="82.26" transform="matrix(0.69, 0.89, -0.89, 0.69, 991.44, 223.31)"/><use width="79.33" height="82.26" transform="matrix(0.93, 0.53, -0.53, 0.93, 932.82, 214.29)"/><use width="79.33" height="82.26" transform="translate(1182.99 294.12) rotate(89.14)"/><use width="79.33" height="82.26" transform="translate(1175.89 317.66) rotate(98.99)"/><use width="79.33" height="82.26" transform="translate(1129.57 271.97) rotate(68.27)"/><use width="79.33" height="82.26" transform="translate(1099.33 261.43) rotate(66.34) scale(1.02)"/><use width="79.33" height="82.26" transform="matrix(0.32, 0.95, -0.95, 0.32, 1099.46, 287.28)"/><use width="79.33" height="82.26" transform="translate(1112.97 332.61) rotate(103.62)"/><use width="79.33" height="82.26" transform="translate(1093.25 326.75) rotate(89.09)"/><use width="79.33" height="82.26" transform="translate(692.65 317.47) rotate(17.02)"/><use width="79.33" height="82.26" transform="translate(657.17 244) rotate(35.74)"/><use width="79.33" height="82.26" transform="translate(590.02 529.14) rotate(-88.84)"/><use width="79.33" height="82.26" transform="translate(569.88 362.78) rotate(4.54)"/><use width="79.33" height="82.26" transform="matrix(0.88, 0.47, -0.47, 0.88, 621.86, 270.41)"/><use width="79.33" height="82.26" transform="translate(500.97 381.22) rotate(-9.1)"/><use width="79.33" height="82.26" transform="translate(609.33 456.87) rotate(-41.05)"/><use width="79.33" height="82.26" transform="translate(608.12 362.04) rotate(4.84)"/><use width="79.33" height="82.26" transform="translate(815.79 259.5) rotate(42.57)"/><use width="79.33" height="82.26" transform="matrix(0.33, 0.94, -0.94, 0.33, 774.69, 371.78)"/><use width="79.33" height="82.26" transform="translate(667.02 285.13) rotate(13.83)"/><use width="79.33" height="82.26" transform="matrix(0.69, -0.73, 0.73, 0.69, 542.64, 442.41)"/><use width="79.33" height="82.26" transform="translate(606.3 325.78) rotate(16.64)"/><use width="79.33" height="82.26" transform="translate(616.88 514.46) rotate(-60.36)"/><use width="79.33" height="82.26" transform="matrix(0.78, 0.62, -0.62, 0.78, 779.5, 257.06)"/><use width="79.33" height="82.26" transform="translate(852.07 381.74) rotate(95.84)"/><use width="79.33" height="82.26" transform="translate(857.62 288.55) rotate(60.19)"/><use width="79.33" height="82.26" transform="translate(940.28 430.48) rotate(113.57)"/><use width="79.33" height="82.26" transform="translate(998.98 410.93) rotate(94.8)"/><use width="79.33" height="82.26" transform="translate(981.32 434.38) rotate(105.79)"/><use width="79.33" height="82.26" transform="translate(911.97 443.64) rotate(117.9)"/><use width="79.33" height="82.26" transform="translate(770.41 305.17) rotate(52.68)"/><use width="79.33" height="82.26" transform="translate(808.15 349.96) rotate(79.33)"/><use width="79.33" height="82.26" transform="translate(850.82 328.47) rotate(82.06)"/><use width="79.33" height="82.26" transform="translate(901.09 342.62) rotate(92.31)"/><use width="79.33" height="82.26" transform="translate(942.41 394.87) rotate(105.08)"/><use width="79.33" height="82.26" transform="matrix(-0.21, 0.98, -0.98, -0.21, 970.89, 349.85)"/><use width="79.33" height="82.26" transform="translate(939.13 354.6) rotate(99.61)"/><use width="79.33" height="82.26" transform="translate(940.27 300.47) rotate(74.53)"/><use width="79.33" height="82.26" transform="translate(898.95 287.35) rotate(60.83)"/><use width="79.33" height="82.26" transform="translate(968.74 380.27) rotate(99.03)"/><use width="79.33" height="82.26" transform="translate(882.61 381.17) rotate(100.15)"/><use width="79.33" height="82.26" transform="translate(809.09 289.87) rotate(60.58)"/><use width="79.33" height="82.26" transform="translate(829.51 407.58) rotate(96.96)"/><use width="79.33" height="82.26" transform="translate(872.96 421.43) rotate(106.81)"/><use width="79.33" height="82.26" transform="translate(660.54 355.22) rotate(7.6)"/><use width="79.33" height="82.26" transform="translate(653.74 464.57) rotate(-21.16)"/><use width="79.33" height="82.26" transform="translate(564.35 528.66) rotate(-95.4)"/><use width="79.33" height="82.26" transform="translate(683.55 232.52) rotate(36.84)"/><use width="79.33" height="82.26" transform="translate(709.99 241.02) rotate(10.7)"/><use width="79.33" height="82.26" transform="translate(694.32 250.94) rotate(18.61)"/><use width="79.33" height="82.26" transform="translate(477.35 446.84) rotate(-40.08)"/><use width="79.33" height="82.26" transform="translate(527.91 330.7) rotate(1.42)"/><use width="79.33" height="82.26" transform="translate(522.94 291.21) rotate(5.85)"/><use width="79.33" height="82.26" transform="translate(459.98 369.07) rotate(-14.3)"/><use width="79.33" height="82.26" transform="translate(472.34 359.91) rotate(-33.57)"/><use width="79.33" height="82.26" transform="matrix(0.93, 0.36, -0.36, 0.93, 567.19, 286.93)"/><path class="cls-3" d="M515.14,627.19,467.41,587l-39-26.89-19.74-39.67L379.33,507,316.8,493.53l-60.18-6.73H223.34l-32.27,6.73-22.86,6.72-14.12,12.1-11.43,1.35L99,531.85l-4.7-9.41L121.81,509l31.6-12.1,16.14-14.79,32.27-12.78,37.66,3.36,51.77-3.36,52.44,10.76,57.15,2.69,15.47,6.72L428.41,505s8.07,23.53,10.76,25.55,8.74,18.19,8.74,18.19l22.52,7.35,23.87,23.54L510.44,585v8.74L525.9,587l15.47,5.38L541,602.78H527.92L521.7,610l3,5-9.56,5Z"/><polygon class="cls-3" points="328.55 496.05 302.01 508.32 267.71 535.88 267.71 543.95 281.83 536.56 311.7 515.04 341.68 513.02 379.33 506.97 328.55 496.05"/><polygon class="cls-3" points="142.66 513.7 126.52 548.7 126.52 560.09 142.66 536.89 154.09 512.35 142.66 513.7"/><polygon class="cls-3" points="343.69 480.08 333.61 459.91 317.81 451.17 285.87 411.5 273.09 411.5 248.89 381.91 233.43 378.39 219.98 371.83 181.65 378.39 156.78 383.93 144.67 387.29 118.45 412.17 115.76 418.89 104.33 419.56 120.47 396.03 159.47 367.79 190.39 363.09 217.96 363.09 213.93 354.35 224.01 354.35 239.48 368.47 279.14 387.29 302.01 392 311.7 412.17 332.93 434.36 347.73 448.48 351.09 455.87 373.95 474.03 389.41 482.23 343.69 480.08"/><path class="cls-3" d="M467.09,555V520L452.8,484.78V474.7l-21.7-23.53-22.43-28.92,2.93-22.18-14.79-35.64-10.76-20.17-6.72-16.81,12.77-23.53h16.57l-7.15-10.09H389.41l11.43-16.13L389.41,275,374,291.14l-7.16,29.59L379.33,349l4,12.77-16.57-.67,5.81,9.41L384,371.83l-.67,15.46,6.05,19.5s19,35.64,19.26,37.65,8.27,20.17,8.27,20.17l8.11,14.12,10.76,21.52,9.41,23.53,2.69,24.92Z"/><path class="cls-3" d="M291.15,389.76v-26l-7.3-25.55V320.73h7.3l3.46,20.84,6.05,12.78v12.77l11.43,7.4,11.43-20.17,22.19-13.45,6.05-20.17,7.4,4-5.38,20.85s-16.14,17.48-19.5,18.15-10.76,15.46-12.78,17.48-12.34,25.64-12.34,25.64L302,392Z"/><polygon class="cls-3" points="490.92 576.25 496.99 543.95 484.22 531.18 484.22 520 501.7 527.82 501.7 504.95 511.78 511.01 511.78 543.95 501.7 582.05 494.3 579.59 490.92 576.25"/><path class="cls-3" d="M525.9,587V569.5l10.76-26,8.07-41.91-3.36-46.39L521.87,415l4-8.11-24.2-26.31L477.49,363.8v-4.07l-60.55-14.12-85.35-9.42-23.2,5.38-33.28-5.38-18.49-5.38-13.78-31.6,13.78,4,5,14.12,10.09,8.74,36.64-5.38,23.2-7.4,65.89,10.09,47.07,1.34,57.15,21.52,10.08,4.7L538,275l6.73-30.93-8.07-20.17-17.48-14.79,2.69-7.4,28.91,17.48,29.58-1.34,16.14-16.14L612,170.12l8.75,4.71-9.42,20.84,2,8.74,26.89-4,23.54-12.11,18.15-26.89,11.43,5.38-12.77,14.12-.68,5.38,17.48-.68,16.14-3.36v4.71l-31.6,12.77s-18.15,6.73-21.52,8.74-13.44,5.38-13.44,5.38l34.29,5.38,12.1,7.4L684.58,238l-26.89-10.09s-14.12-4-22.87-4.7-32.94-2-32.94-2L584.4,232.65l-16.14,29.58L546.75,308l-14.12,35.64,3.36,34.8,25.55,32.43,1.34,12.11,22.86-36.31L616,354.35l4-11.43,42.36-22.19,30.93-31.6,7.4.67-6.05,10.76,43.7-16.81L790.81,275l37-12.78,55.14-2,19.5-18.83,16.8-15.46,8.74,6-24.2,20.17-6,12.1L848,270.3,793.5,281.73s-42.36,16.81-44.37,17.48-72.62,29.59-72.62,29.59l-29.58,32.27-46.4,43-32,62.53-6.3,65.89,2.69,42.36,20.51,16.81h14.45a72.4,72.4,0,0,0,5.38,6.72c2,2,12.1,18.16,12.1,18.16l5.4,11.51L608.6,616.9l-10.08-11.09-30-3.7-17.39.67H541l.34-10.42Z"/><polygon class="cls-3" points="541.37 504.95 521.87 482.23 498 464.61 494.3 472.01 517.83 488.82 533.97 516.39 539.1 530.85 543.18 509.62 541.37 504.95"/><polygon class="cls-3" points="505.73 439.74 511.78 455.87 511.78 474.79 521.87 482.23 524.56 469.32 518.74 446.46 511.78 433.01 505.73 439.74"/><polygon class="cls-3" points="521.87 414.99 494.3 394.73 470.1 390.65 451.94 378.39 441.86 382.59 441.86 391.33 451.27 391.33 481.86 402.08 505.73 418.29 538 457.62 541.37 455.2 521.87 414.99"/><polygon class="cls-3" points="622.74 628.08 646.93 602.11 702.73 543.5 737.02 520 810.31 469.32 896.37 445.12 919.23 414.99 932.68 403.43 938.06 409.48 918.56 433.01 900.41 454.53 837.88 473.35 757.87 520 696.68 578.24 620.47 661.12 614.34 638.05 622.74 628.08"/><path class="cls-3" d="M580.48,587.66l18.71-12.11h8.74l9.41-13.44,29.59-27.57,20.84-69.93L672.48,429V329.47l-4-30.26,11.43-50.42,27.57-43L720.89,197v6.93l-25.55,35.43,16.81-2.69-4.71,7.4L686.6,258.2l-7.4,36.31,4.71,45,8.74,38.84,8.07,45.21-11.43,25.55-6.06,36.31,43-52.45s37.65-18.82,39.67-20.84,18.15-24.88,18.15-24.88l20.67-8.9,53.46-8.58s40.84,2,42.36,2,31.26-9.58,31.26-9.58l31.27,18.65L1007,408.14l24.2,33.28L1064,475.2s5.88,3.2,6.89,3.2,28.91-8.07,28.91-8.07l19.84-1h6.72l-2.69,12.91-10.08,8.61-18.83-8.61s-14.12,3.9-16.81,5.24-12.1,5.38-12.1,5.38L1049,476.72l-7.4,14.79-10.75-9.28,7.39-17.62-20.17-22.86-37-31.6-43-22.19-29.58.68S889,392,885.62,392.33s-67.91,2.4-67.91,2.4l-34.29,14.75s-37.66,35.64-41,37.65-47.06,50.6-47.06,50.6L655.67,554l-5.38,18.15-27.55,32.28v18.4L602.2,600.15l-5.38-6.72-11.41-1.74Z"/><path class="cls-3" d="M533.75,355.23l46.73-52,42.26-43,12.76-3.37,3.36,6.73s-33.62,28.24-35.64,30.25-16.92,30.93-16.92,30.93-24.09,32.28-25.43,35-15.25,30.89-15.25,30.89L536,378.39Z"/><polygon class="cls-3" points="590.45 250.13 585.41 275.01 585.41 298.24 602.1 281.24 599.19 238.7 590.45 250.13"/><path class="cls-3" d="M588,321.5l62.29-35.06h11.43v6.72s-36.74,18.16-36.86,19.5S588,334.85,588,334.85h-9.19l7.49-10.09Z"/><polygon class="cls-3" points="678.58 254.48 657.68 242.06 652.98 248.27 675.41 268.47 678.58 254.48"/><polygon class="cls-3" points="758.54 280.39 780.4 238.7 792.83 219.87 796.86 223.24 772.61 278.04 758.54 280.39"/><path class="cls-3" d="M742.87,301.71l85.6,5.57s-4-9.35,0-9-66.78-3.92-66.78-3.92l-12.56,4.89Z"/><polygon class="cls-3" points="695.56 394.73 710.8 366.45 728.28 347.62 735.01 350.99 708.78 390.62 698.28 409.94 695.56 394.73"/><polygon class="cls-3" points="672.48 394.73 655.67 378.78 650.29 386.76 672.48 420.24 672.48 394.73"/><polygon class="cls-3" points="847.96 270.3 875.53 294.32 884.94 291.14 863.04 268.47 847.96 270.3"/><polygon class="cls-3" points="887.54 265.49 902.42 281.39 911.84 275.01 897.72 264.25 887.54 265.49"/><polygon class="cls-3" points="737.02 520 749.8 490.16 763.92 464.61 772.66 469.32 754.84 507.68 737.02 520"/><polygon class="cls-3" points="822.85 465.79 841.91 443.1 857.38 418.01 866.45 420.24 859.39 433.01 839.48 461.12 822.85 465.79"/><polygon class="cls-3" points="761.23 520 822.85 513.02 881.58 520 881.58 504.95 860.07 497.73 847.96 504.95 788.46 502.17 761.23 520"/><polygon class="cls-3" points="900.41 454.53 923.94 480.75 927.98 489.49 934.7 484.79 923.94 459.91 911.84 440.98 900.41 454.53"/><polygon class="cls-3" points="958.89 378.39 987.82 357.04 998.57 334.85 1007.99 338.88 994.54 361.07 974.37 378.39 966.77 383.18 958.89 378.39"/><polygon class="cls-3" points="1006.98 408.13 1036.22 386.62 1049 383.18 1055.72 386.62 1031.35 399.51 1014.16 418.01 1006.98 408.13"/><polygon class="cls-3" points="281.83 536.56 283.85 548.7 290.57 548.7 294.9 527.14 281.83 536.56"/><path class="cls-4" d="M515.14,627.19l.45-22.7,16.19-7.7s67.4,5.6,69.2,5.8,27.52,1.9,27.52,1.9l-.6,23.59-27.4,3.62-52.3,6.4Z"/><polygon class="cls-3" points="373.14 842.6 411.11 831.73 494.99 821.02 526.1 777.75 520.34 721.11 526.1 689.48 525.55 653.44 515.13 638.05 515.13 627.19 547.09 634.82 583.54 630.81 601.05 628.98 627.9 628.08 636.33 673.35 644.32 709.65 640.04 746.6 656.38 823.3 751.86 842.6 373.14 842.6"/><polygon class="cls-5" points="496.28 821.7 528.38 779.31 522.84 721.52 528.92 690 527.18 653.74 515.13 638.05 515.13 627.19 547.09 634.82 583.54 630.81 601.05 628.98 627.84 628.51 627.71 672.13 631.73 707.85 631.3 746.76 650.54 824.14 751.86 842.6 377.18 842.6 412.39 832.51 496.28 821.7"/><polygon class="cls-6" points="497.56 822.37 530.66 780.87 525.34 721.93 531.73 690.51 528.81 654.04 515.13 638.05 515.13 627.19 547.09 634.82 583.54 630.81 601.05 628.98 627.79 628.94 619.09 670.9 619.15 706.06 622.57 746.93 644.69 824.98 751.86 842.6 381.23 842.6 413.66 833.29 497.56 822.37"/><polygon class="cls-7" points="498.85 823.05 532.95 782.42 527.84 722.35 534.54 691.03 530.44 654.34 515.13 638.05 515.13 627.19 547.09 634.82 583.54 630.81 601.05 628.98 627.73 629.37 610.46 669.67 606.57 704.26 613.84 747.1 638.85 825.82 751.86 842.6 385.27 842.6 414.94 834.07 498.85 823.05"/><polygon class="cls-8" points="500.13 823.72 535.23 783.98 530.33 722.76 537.36 691.54 532.07 654.64 515.13 638.05 515.13 627.19 547.09 634.82 583.54 630.81 601.05 628.98 627.67 629.8 601.84 668.45 593.99 702.47 605.11 747.26 633 826.66 751.86 842.6 389.31 842.6 416.21 834.85 500.13 823.72"/><polygon class="cls-9" points="501.42 824.4 537.51 785.53 532.83 723.18 540.17 692.06 533.7 654.95 515.13 638.05 515.13 627.19 547.09 634.82 583.54 630.81 601.05 628.98 627.62 630.23 593.22 667.22 581.41 700.67 596.37 747.42 627.16 827.51 751.86 842.6 393.36 842.6 417.49 835.63 501.42 824.4"/><polygon class="cls-10" points="397.4 842.6 418.76 836.41 502.7 825.07 539.79 787.09 535.33 723.59 542.98 692.57 535.33 655.25 515.13 638.05 515.13 627.19 547.09 634.82 583.54 630.81 601.05 628.98 627.56 630.65 584.6 666 568.83 698.88 587.64 747.59 621.31 828.35 751.86 842.6 397.4 842.6"/><polygon class="cls-11" points="410.12 842.6 429.95 836.41 507.87 825.07 542.29 787.09 538.15 723.59 545.25 692.57 538.15 655.25 519.4 638.05 517.99 627.87 547.09 634.82 581.79 631 601.05 628.98 625.18 630.52 582.94 664.84 568.1 697.46 583.45 745.62 613.44 828.09 724.38 842.61 410.12 842.6"/><polygon class="cls-12" points="422.84 842.6 441.13 836.41 513.03 825.07 544.79 787.09 540.97 723.59 547.52 692.57 540.97 655.25 523.67 638.05 520.84 628.55 547.09 634.82 580.03 631.19 601.05 628.98 622.8 630.38 581.28 663.69 567.37 696.05 579.26 743.66 605.58 827.84 696.91 842.62 422.84 842.6"/><polygon class="cls-13" points="435.56 842.6 452.31 836.41 518.19 825.07 547.29 787.09 543.79 723.59 549.8 692.57 543.79 655.25 527.94 638.05 523.7 629.23 547.09 634.82 578.27 631.39 601.05 628.98 620.41 630.24 579.62 662.54 566.64 694.64 575.07 741.69 597.71 827.59 669.43 842.63 435.56 842.6"/><polygon class="cls-14" points="448.27 842.6 463.5 836.41 523.35 825.07 549.79 787.09 546.61 723.59 552.07 692.57 546.61 655.25 532.21 638.05 526.56 629.91 547.09 634.82 576.52 631.58 601.05 628.98 618.03 630.1 577.96 661.38 565.91 693.22 570.88 739.72 589.84 827.33 641.95 842.63 448.27 842.6"/><polygon class="cls-15" points="460.99 842.6 474.68 836.41 528.51 825.07 552.29 787.09 549.43 723.59 554.34 692.57 549.43 655.25 536.48 638.05 529.41 630.6 547.09 634.82 574.76 631.77 601.05 628.98 615.64 629.97 576.29 660.23 565.17 691.81 566.69 737.76 581.97 827.08 614.47 842.64 460.99 842.6"/><polygon class="cls-16" points="473.71 842.6 485.87 836.41 533.67 825.07 554.79 787.09 552.25 723.59 556.61 692.57 552.25 655.25 540.75 638.05 532.27 631.28 547.09 634.82 573 631.97 601.05 628.98 613.26 629.83 574.63 659.08 564.44 690.4 562.5 735.79 574.1 826.83 586.99 842.65 473.71 842.6"/><path class="cls-3" d="M544.56,717.33c-.08,3-.35,5.92-.63,8.86l-.5,4.39-.58,4.38c-.82,5.83-1.85,11.61-3,17.37l-.05.25-.09.2q-2,4.31-4.06,8.59t-4.24,8.51c-1.42,2.83-2.93,5.62-4.43,8.42s-3.07,5.56-4.73,8.28c.94-3,2-6,3.09-9s2.21-5.95,3.4-8.89,2.36-5.89,3.59-8.81,2.49-5.82,3.77-8.72l-.14.44c1.06-5.78,2.26-11.53,3.66-17.25l1.08-4.28,1.18-4.26C542.7,723,543.53,720.13,544.56,717.33Z"/><path class="cls-3" d="M606.28,778.89q-1.66-5-3.21-10c-1-3.35-2.05-6.69-3-10.06s-2-6.71-2.89-10.08-1.9-6.74-2.79-10.11l.14.37-7-13.29-6.86-13.34c-2.3-4.44-4.54-8.91-6.79-13.38s-4.53-8.91-6.74-13.4l-.41-.82.36-.78,6.3-13.87,6.43-13.81c4.34-9.18,8.76-18.34,13.39-27.39-3.5,9.55-7.22,19-11,28.43l-5.76,14.1-5.9,14,0-1.6c2.33,4.42,4.59,8.88,6.89,13.32s4.59,8.89,6.83,13.36L591,724l6.68,13.43.09.2,0,.18c.8,3.4,1.56,6.81,2.31,10.23s1.5,6.83,2.2,10.26,1.4,6.85,2.08,10.29S605.69,775.43,606.28,778.89Z"/><path class="cls-3" d="M550.34,761.39c.46-4,1.08-8,1.69-12s1.33-8,2.08-11.93,1.53-7.93,2.31-11.88,1.69-7.89,2.52-11.84l0,.65L557.68,702c-.33-4.12-.74-8.23-1-12.35s-.53-8.25-.74-12.38-.34-8.27-.33-12.42c.88,4.05,1.58,8.13,2.3,12.21s1.32,8.16,1.9,12.25,1.09,8.19,1.64,12.29L562.87,714l0,.32-.07.32c-.92,3.93-1.8,7.87-2.75,11.79s-1.91,7.83-3,11.73-2.1,7.8-3.2,11.68S551.64,757.55,550.34,761.39Z"/><path class="cls-3" d="M615.92,644.51c1,4.54,1.78,9.09,2.58,13.64s1.56,9.12,2.25,13.68l1,6.85,1,6.86c.67,4.57,1.26,9.15,1.85,13.74l0,.2,0,.23c-.5,5.61-1.12,11.22-1.71,16.82s-1.3,11.2-2,16.79l-1.1,8.39-1.19,8.37c-.84,5.58-1.69,11.16-2.74,16.72.08-5.66.36-11.29.65-16.93l.5-8.44.59-8.44c.45-5.62.87-11.24,1.4-16.85s1-11.22,1.67-16.82v.43c-.54-4.58-1.07-9.17-1.53-13.77l-.71-6.89-.64-6.9c-.44-4.6-.79-9.21-1.13-13.82S616.1,649.14,615.92,644.51Z"/><path class="cls-17" d="M709.19,842.6s-21.26-20.81-22.36-21.22-30.17-16.8-30.17-16.8l-16.54-46.93-6.5-20.21-9.46-5.85-16.72,16.52-13.07,73.13-8.79,21.36Z"/><path class="cls-18" d="M596.46,820.58l-8.12,22H703.26S683,822.24,682.05,821.89s-27.82-16.69-27.82-16.69l-14.65-42.67-6.86-20.07L623,737l-14.52,16Z"/><path class="cls-19" d="M598.56,819.93l-7.45,22.67H697.33S678,822.68,677.27,822.41s-25.46-16.6-25.46-16.6L639,767.4l-7.22-19.93-10-5.05L609.53,758Z"/><path class="cls-20" d="M600.66,819.28l-6.79,23.32H691.4S673,823.13,672.48,822.92s-23.09-16.5-23.09-16.5L638.5,772.28l-7.59-19.8-10.23-4.65-10.1,15.06Z"/><path class="cls-21" d="M602.75,818.63l-6.11,24h88.83s-17.41-19-17.77-19.16S647,807,647,807l-9-29.88-8-19.66-10.49-4.25-7.89,14.56Z"/><path class="cls-22" d="M604.85,818,599.4,842.6h80.14S663.1,824,662.91,824s-18.36-16.3-18.36-16.3L637.42,782l-8.31-19.53-10.74-3.85-5.69,14.08Z"/><polygon class="cls-7" points="673.62 842.6 658.13 824.47 642.13 808.26 636.88 786.91 628.2 767.52 617.21 764.07 613.73 777.66 606.95 817.33 602.17 842.6 673.62 842.6"/><polygon class="cls-23" points="608.23 815.98 603.86 842.6 672.43 842.6 657.75 825.1 641.38 808.43 635.91 786.73 627.85 768.59 617.12 764.94 614.2 777.4 608.23 815.98"/><polygon class="cls-24" points="609.52 814.64 605.55 842.6 671.24 842.6 657.38 825.73 640.64 808.6 634.94 786.54 627.5 769.65 617.03 765.8 614.67 777.13 609.52 814.64"/><polygon class="cls-25" points="610.8 813.3 607.24 842.6 670.05 842.6 657 826.36 639.9 808.77 633.97 786.35 627.15 770.71 616.95 766.66 615.14 776.87 610.8 813.3"/><polygon class="cls-26" points="612.09 811.96 608.92 842.6 668.87 842.6 656.62 826.99 639.16 808.94 633 786.16 626.79 771.77 616.86 767.52 615.61 776.6 612.09 811.96"/><polygon class="cls-27" points="613.37 810.62 610.61 842.6 667.68 842.6 656.25 827.61 638.41 809.11 632.03 785.98 626.44 772.83 616.77 768.38 616.08 776.34 613.37 810.62"/><polygon class="cls-5" points="666.49 842.6 655.87 828.24 637.67 809.28 631.06 785.79 626.09 773.89 616.69 769.25 616.55 776.08 614.66 809.28 612.3 842.6 666.49 842.6"/><polygon class="cls-5" points="664.32 843.56 654.92 829.2 637.71 811.81 631.05 790.89 626.7 779.87 617.87 775.31 617.75 782.38 616.18 811.85 613.44 843.56 664.32 843.56"/><polygon class="cls-5" points="662.16 844.52 653.98 830.15 637.75 814.35 631.04 795.99 627.31 785.84 619.06 781.38 618.97 788.68 617.71 814.42 614.57 844.52 662.16 844.52"/><polygon class="cls-5" points="659.99 845.47 653.03 831.11 637.79 816.89 631.03 801.08 627.92 791.81 620.25 787.44 620.17 794.98 619.23 816.99 615.7 845.47 659.99 845.47"/><polygon class="cls-5" points="657.82 846.43 652.08 832.06 637.83 819.42 631.02 806.18 628.54 797.78 621.43 793.51 621.38 801.28 620.75 819.56 616.84 846.43 657.82 846.43"/><polygon class="cls-5" points="655.65 847.39 651.14 833.01 637.87 821.96 631 811.28 629.15 803.75 622.62 799.58 622.59 807.58 622.28 822.13 617.97 847.39 655.65 847.39"/><polygon class="cls-5" points="653.49 848.34 650.19 833.97 637.91 824.5 630.99 816.38 629.76 809.72 623.8 805.64 623.8 813.88 623.8 824.71 619.1 848.34 653.49 848.34"/><polygon class="cls-28" points="652.76 848.66 649.62 834.57 637.84 825.71 631.21 818.12 630.02 811.89 624.31 808.08 624.31 815.78 624.31 825.91 619.83 848.66 652.76 848.66"/><polygon class="cls-29" points="652.03 848.97 649.04 835.17 637.77 826.93 631.42 819.86 630.29 814.07 624.82 810.52 624.82 817.69 624.82 827.11 620.55 848.97 652.03 848.97"/><polygon class="cls-30" points="651.31 849.29 648.47 835.78 637.7 828.15 631.63 821.61 630.55 816.24 625.33 812.95 625.33 819.59 625.33 828.31 621.27 849.29 651.31 849.29"/><polygon class="cls-31" points="650.58 849.6 647.9 836.38 637.63 829.36 631.85 823.35 630.82 818.41 625.84 815.39 625.84 821.5 625.84 829.52 622 849.6 650.58 849.6"/><polygon class="cls-32" points="649.85 849.92 647.32 836.99 637.56 830.58 632.06 825.09 631.08 820.58 626.35 817.83 626.35 823.4 626.35 830.72 622.72 849.92 649.85 849.92"/><polygon class="cls-3" points="649.12 850.23 646.75 837.59 637.5 831.8 632.28 826.83 631.35 822.76 626.86 820.26 626.86 825.3 626.86 831.92 623.45 850.23 649.12 850.23"/><polygon class="cls-33" points="433.39 842.6 480.24 813.16 506.59 782.78 529.63 708.89 538.68 677.07 551.88 667.86 575.18 693.87 593.39 809 605.63 842.6 591.28 842.6 475.73 842.6 433.39 842.6"/><polygon class="cls-34" points="540.01 684.95 551.81 676.99 572.98 698.05 577.26 723.55 588.81 797.05 590.84 809.75 601.85 842.6 588.51 842.6 481.09 842.6 441.72 842.6 484.36 813.31 509.29 784.59 512.58 775.59 526.53 729.16 531.11 714.91 540.01 684.95"/><polygon class="cls-35" points="541.35 692.83 551.75 686.12 570.78 702.22 575.17 726.91 586.31 798.19 588.29 810.5 598.07 842.6 585.75 842.6 486.45 842.6 450.06 842.6 488.48 813.45 511.98 786.41 515.51 778.17 528.14 734.3 532.59 720.93 541.35 692.83"/><polygon class="cls-36" points="542.68 700.71 551.68 695.25 568.58 706.4 573.09 730.26 583.8 799.33 585.74 811.25 594.29 842.6 582.98 842.6 491.81 842.6 458.39 842.6 492.6 813.59 514.67 788.22 518.45 780.75 529.75 739.45 534.06 726.95 542.68 700.71"/><polygon class="cls-37" points="544.01 708.59 551.62 704.38 566.38 710.57 571.01 733.61 581.3 800.48 583.18 812 590.51 842.6 580.22 842.6 497.16 842.6 466.72 842.6 496.73 813.73 517.36 790.03 521.39 783.33 531.36 744.59 535.54 732.97 544.01 708.59"/><polygon class="cls-38" points="545.34 716.48 551.56 713.51 564.19 714.75 568.92 736.97 578.79 801.62 580.63 812.75 586.73 842.6 577.45 842.6 502.52 842.6 475.06 842.6 500.85 813.87 520.05 791.85 524.33 785.91 532.97 749.74 537.01 738.99 545.34 716.48"/><polygon class="cls-7" points="483.39 842.6 504.97 814.01 527.26 788.49 534.58 754.88 546.67 724.36 561.99 718.92 566.84 740.32 576.29 802.76 582.95 842.6 483.39 842.6"/><polygon class="cls-23" points="574.5 800.65 580.59 842.6 485.04 842.62 505.49 815 528.3 788.76 535.94 757.79 547.18 729.23 561.55 723.81 566.2 743.11 574.5 800.65"/><polygon class="cls-24" points="572.71 798.54 578.24 842.6 486.7 842.63 506.02 815.99 529.33 789.02 537.31 760.7 547.68 734.11 561.11 728.7 565.56 745.9 572.71 798.54"/><polygon class="cls-25" points="570.92 796.43 575.88 842.6 488.35 842.64 506.54 816.98 530.37 789.29 538.68 763.61 548.19 738.99 560.67 733.58 564.92 748.69 570.92 796.43"/><polygon class="cls-26" points="569.13 794.31 573.53 842.6 490.01 842.65 507.07 817.97 531.4 789.56 540.05 766.52 548.7 743.87 560.23 738.47 564.29 751.48 569.13 794.31"/><polygon class="cls-27" points="567.34 792.2 571.18 842.6 491.66 842.67 507.59 818.96 532.44 789.82 541.41 769.43 549.2 748.74 559.79 743.35 563.65 754.26 567.34 792.2"/><polygon class="cls-5" points="493.32 842.68 508.12 819.95 533.47 790.09 542.78 772.35 549.71 753.62 559.35 748.24 563.01 757.05 565.54 790.09 568.82 842.6 493.32 842.68"/><polygon class="cls-5" points="496.34 845.06 509.44 821.45 533.42 794.08 542.36 777.05 549.62 758.75 559.03 753.19 562 763.99 564.37 794.28 567.24 844.99 496.34 845.06"/><polygon class="cls-5" points="499.36 847.43 510.75 822.96 533.36 798.08 541.93 781.76 549.52 763.87 558.71 758.14 560.99 770.93 563.2 798.46 565.66 847.38 499.36 847.43"/><polygon class="cls-5" points="502.38 849.81 512.07 824.46 533.3 802.07 541.51 786.47 549.43 768.99 558.4 763.09 559.98 777.86 562.03 802.65 564.09 849.77 502.38 849.81"/><polygon class="cls-5" points="505.4 852.19 513.39 825.96 533.25 806.07 541.09 791.17 549.33 774.12 558.08 768.05 558.97 784.8 560.86 806.83 562.51 852.16 505.4 852.19"/><polygon class="cls-5" points="508.42 854.57 514.71 827.46 533.19 810.06 540.66 795.88 549.24 779.24 557.76 773 557.96 791.74 559.69 811.02 560.93 854.56 508.42 854.57"/><polygon class="cls-5" points="511.44 856.95 516.03 828.96 533.14 814.05 540.24 800.59 549.15 784.37 557.44 777.95 556.95 798.67 558.51 815.21 559.35 856.95 511.44 856.95"/><polygon class="cls-28" points="512.45 857.62 516.83 829.91 533.24 815.97 540.37 803.44 548 788.86 555.96 782.86 555.55 801.45 556.85 816.96 558.34 857.62 512.45 857.62"/><polygon class="cls-29" points="513.46 858.28 517.63 830.86 533.33 817.88 540.49 806.3 546.86 793.35 554.48 787.76 554.15 804.22 555.19 818.72 557.33 858.28 513.46 858.28"/><polygon class="cls-30" points="514.48 858.95 518.43 831.82 533.43 819.8 540.62 809.16 545.72 797.84 552.99 792.67 552.75 807 553.53 820.48 556.32 858.95 514.48 858.95"/><polygon class="cls-31" points="515.49 859.62 519.23 832.76 533.53 821.72 540.74 812.01 544.57 802.33 551.51 797.58 551.35 809.77 551.87 822.23 555.31 859.62 515.49 859.62"/><polygon class="cls-32" points="516.5 860.29 520.03 833.72 533.62 823.63 540.87 814.87 543.43 806.82 550.02 802.48 549.94 812.55 550.2 823.99 554.3 860.29 516.5 860.29"/><polygon class="cls-3" points="517.51 860.96 520.83 834.67 533.72 825.55 540.99 817.73 542.28 811.32 548.54 807.39 548.54 815.32 548.54 825.75 553.29 860.96 517.51 860.96"/><path class="cls-3" d="M498.36,880.33l-29.51,7.09,2.77-8.33,26.74-8.94-9.84-21s8-28.06,9.84-29.15,24.54-25.15,24.54-25.15l25.46-18.51v32.09L555,832.2,543.48,847l4.28,18.2L564,884.34l-3.62,10.49-21.08-21-10.08,9.67,3.92,49.36-15.66-9.26-4.88-41-1.08-6.27Z"/><path class="cls-39" d="M550.72,832.46l-9.29,13.71,5,17.72L563.28,884l-3.34,9.55-21.77-21.94-9.76,11.64,4.06,48.34-14.3-8.36-4.92-39.78-1-8.15-14.73,4.65-28.19,6.76,2.56-7.58,29.76-9.59-10.19-21.44s6.77-25.72,8.28-26.63,22.4-21.89,22.4-21.89l22.34-15.3.69,27.84Z"/><path class="cls-40" d="M546.46,832.72l-7.07,12.62L545,862.56l17.52,21-3.07,8.6L537,869.32l-9.45,13.59,4.2,47.33-12.95-7.47-5-38.53-1-10-16.27,5.29-26.87,6.42,2.36-6.83,32.76-10.22L494.35,847s5.52-23.38,6.73-24.1,20.27-18.64,20.27-18.64l19.22-12.09,1.37,23.6Z"/><path class="cls-41" d="M542.19,833l-4.85,11.52,6.3,16.74,18.15,22L559,890.89l-23.15-23.84-9.13,15.56,4.34,46.31-11.59-6.57-5-37.29-.89-11.89-17.81,5.93-25.55,6.08,2.15-6.08,35.77-10.86-10.89-22.37s4.27-21,5.17-21.58,18.14-15.37,18.14-15.37l16.1-8.89,2.06,19.35Z"/><path class="cls-42" d="M537.93,833.25l-2.64,10.42,7,16.24,18.78,22.94-2.51,6.73-23.83-24.8-8.82,17.53,4.48,45.3-10.23-5.69-5-36-.83-13.76-19.35,6.57-24.22,5.74,1.93-5.34,38.78-11.49-11.24-22.84s3-18.7,3.62-19.06,16-12.11,16-12.11l13-5.68,2.75,15.1Z"/><path class="cls-43" d="M533.66,833.51l-.42,9.32,7.66,15.76,19.41,23.89-2.24,5.79-24.52-25.75L525.05,882l4.62,44.29-8.88-4.79-5.07-34.79L515,871.08l-20.9,7.21-22.89,5.4,1.72-4.59L514.68,867l-11.6-23.31s1.76-16.35,2.07-16.53L519,818.28l9.85-2.47,3.43,10.86Z"/><polygon class="cls-44" points="493.19 877.88 471.62 882.94 473.13 879.11 517.94 866.34 505.99 842.57 506.5 828.56 518.25 822.96 524.98 823.7 529.09 830.31 529.39 833.77 531.19 842 539.53 857.27 559.56 882.11 557.6 886.96 532.4 860.25 524.2 881.7 528.97 924.97 521.45 921.07 516.34 887.53 515.63 870.03 493.19 877.88"/><path class="cls-3" d="M643.63,863.27l9,2.39-.84-2.8-8.12-3,3-7.05s-2.44-9.43-3-9.8-7.45-8.45-7.45-8.45l-7.72-6.22v10.78l-2,8,3.5,5-1.3,6.12-4.94,6.43,1.1,3.52,6.4-7,3.38,13.27L633.39,891l4.76-3.11,1.48-13.79V861.92Z"/><path class="cls-45" d="M627.74,847.19l2.82,4.6-1.5,6-5.13,6.74,1,3.21,6.61-7.37,3.3,13.13-1.16,14.74,4.34-2.84,1.35-12.14,0-11.65,4.47,1.56,8.56,2.27-.78-2.54-9-3.22,3.09-7.21s-2.05-8.64-2.51-8.95-6.8-7.35-6.8-7.35L629.64,831l-.21,9.36Z"/><path class="cls-46" d="M629,847.27l2.15,4.24-1.71,5.79-5.32,7.07.93,2.89,6.82-7.69,3.22,13L634,885.45l3.93-2.58,1.22-10.48.09-11.17,4.93,1.78,8.16,2.15-.71-2.29-10-3.44,3.2-7.36s-1.68-7.86-2-8.1-6.16-6.26-6.16-6.26l-5.83-4.06-.41,7.92Z"/><path class="cls-47" d="M630.33,847.36l1.47,3.87-1.91,5.63-5.51,7.38.85,2.58,7-8,3.13,12.83-1.11,11.05,3.52-2.3,1.1-8.84.12-10.68,5.41,2,7.75,2-.65-2-10.86-3.65,3.31-7.52s-1.3-7.07-1.57-7.25-5.51-5.17-5.51-5.17l-4.88-3-.63,6.5Z"/><path class="cls-48" d="M631.62,847.45l.8,3.5-2.12,5.46-5.69,7.71.76,2.26,7.23-8.33,3,12.69-1.08,9.2,3.1-2,1-7.18.16-10.21,5.88,2.21,7.35,1.93-.59-1.79L639.67,859l3.41-7.68s-.91-6.28-1.1-6.4-4.85-4.08-4.85-4.08l-3.94-1.9-.83,5.07Z"/><path class="cls-49" d="M632.92,847.54l.13,3.13-2.33,5.3-5.89,8,.68,2,7.44-8.66,3,12.55-1.06,7.36,2.7-1.77.83-5.53.21-9.73,6.34,2.43,6.95,1.81-.52-1.54-12.69-4.08L642.2,851s-.54-5.49-.63-5.56l-4.21-3-3-.83-1,3.65Z"/><polygon class="cls-50" points="645.2 862.45 651.75 864.15 651.29 862.86 637.69 858.57 641.32 850.58 641.16 845.87 637.6 843.99 635.55 844.24 634.3 846.46 634.21 847.62 633.67 850.39 631.14 855.52 625.06 863.87 625.65 865.5 633.3 856.52 636.18 868.92 635.15 874.44 637.44 872.94 638.15 869.06 638.39 859.81 645.2 862.45"/><path class="cls-3" d="M657.67,878.29l19.9,4.78-1.87-5.61-18-6,6.63-14.15s-5.41-18.91-6.63-19.65-16.54-17-16.54-17L624,808.2v21.63l-4.47,16,7.76,10-2.89,12.27-11,12.89,2.43,7.07,14.22-14.14,6.79,6.52-2.64,33.27,10.55-6.23,3.29-27.66.73-4.24Z"/><path class="cls-39" d="M622.37,846l6.27,9.24L625.3,867.2l-11.39,13.54,2.25,6.44,14.68-14.79,6.58,7.85L634.83,909l9.44-5.14,3.37-23.52.68-5.49,9.93,3.13,19,4.56-1.73-5.11L655.47,871l6.87-14.46s-4.57-17.34-5.58-17.95-15.11-14.75-15.11-14.75l-15.06-10.32-.46,18.77Z"/><path class="cls-40" d="M625.25,846.2l4.77,8.5-3.8,11.61-11.81,14.18,2.07,5.8,15.13-15.43L638,880l-2.53,24.32,8.32-4,3.45-19.38.64-6.76,11,3.57L677,882.06l-1.59-4.6-22.09-6.89,7.11-14.77s-3.73-15.76-4.54-16.25S642.18,827,642.18,827l-13-8.15-.92,15.9Z"/><path class="cls-41" d="M628.13,846.37l3.27,7.77-4.25,11.28-12.24,14.82,1.88,5.17,15.6-16.07,6.16,10.49-2.48,19.83,7.2-2.94,3.53-15.24.6-8,12,4,17.22,4.1-1.44-4.1-24.12-7.32,7.35-15.08s-2.88-14.18-3.49-14.55-12.23-10.36-12.23-10.36l-10.85-6-1.39,13Z"/><path class="cls-42" d="M631,846.55l1.78,7-4.71,10.95L615.41,880l1.7,4.54,16.06-16.72,6,11.81L636.69,895l6.09-1.84,3.61-11.1.56-9.28,13,4.43,16.32,3.87-1.3-3.6-26.15-7.74,7.58-15.4s-2-12.61-2.44-12.85-10.79-8.17-10.79-8.17l-8.74-3.82-1.85,10.18Z"/><path class="cls-43" d="M633.88,846.72l.28,6.29L629,863.63l-13.09,16.11,1.51,3.9L634,866.28l5.73,13.14-2.37,10.88,5-.75,3.69-7,.52-10.54,14.09,4.86L676,880.55l-1.16-3.09-28.18-8.17,7.82-15.72s-1.19-11-1.39-11.14l-9.36-6-6.64-1.66-2.31,7.31Z"/><polygon class="cls-44" points="661.16 876.64 675.7 880.05 674.68 877.47 644.48 868.86 652.53 852.83 652.18 843.39 644.26 839.61 639.73 840.12 636.96 844.57 636.75 846.9 635.54 852.45 629.92 862.74 616.42 879.49 617.74 882.76 634.73 864.75 640.25 879.21 637.93 885.61 641.78 885.97 645.55 883.14 646.03 871.35 661.16 876.64"/><polygon class="cls-51" points="546.42 848.7 560.67 861.2 601.69 874.61 613.18 893.63 617.03 924.78 602.7 893.84 592.11 879.43 550.28 867.13 540.49 852.67 530.11 857.34 528.21 874.61 511.71 897.02 505.64 940.67 479.67 956.99 498.66 937.71 496.62 915.46 474.33 928.96 486.79 907.61 501.03 904.22 501.03 891.72 518.43 871.45 515.57 860.78 492.13 863.96 474.33 870.1 456.23 871.16 444.07 890.45 446.74 874.61 431.02 877.1 423.9 891.38 423.9 870.95 443.48 870.31 458.9 864.17 474.04 864.8 489.36 857.34 533.67 845.52 546.42 848.7"/><polygon class="cls-52" points="546.42 848.7 560.67 861.2 601.69 874.61 613.18 893.63 617.03 924.78 603.05 893.36 591.58 878.7 550.78 866.7 540.14 852.13 529.75 856.8 527.59 874.4 511.26 896.13 505.22 940.15 479.67 956.99 498.66 937.71 496.55 914.72 474.33 928.96 486.79 907.61 501.03 904.22 501.03 891.72 518.43 871.45 515.57 860.2 492.13 863.38 474.33 869.68 456.23 870.74 444.58 889.18 446.74 874.14 431.02 876.62 424.28 889.79 423.9 870.95 443.48 870.31 458.9 864.17 474.04 864.8 489.36 857.34 533.67 845.52 546.42 848.7"/><polygon class="cls-53" points="546.42 848.7 560.67 861.2 601.69 874.61 613.18 893.63 617.03 924.78 603.4 892.88 591.04 877.97 551.29 866.27 539.78 851.59 529.4 856.27 526.97 874.18 510.81 895.25 504.8 939.63 479.67 956.99 498.66 937.71 496.49 913.99 474.33 928.96 486.79 907.61 501.03 904.22 501.03 891.72 518.43 871.45 515.57 859.63 492.13 862.81 474.33 869.25 456.23 870.31 445.08 887.91 446.74 873.67 431.01 876.15 424.67 888.22 423.9 870.95 443.48 870.31 458.9 864.17 474.04 864.8 489.36 857.34 533.67 845.52 546.42 848.7"/><polygon class="cls-47" points="546.42 848.7 560.67 861.2 601.69 874.61 613.18 893.63 617.03 924.78 603.76 892.39 590.5 877.24 551.79 865.84 539.43 851.06 529.04 855.73 526.36 873.97 510.36 894.37 504.37 939.11 479.67 956.99 498.66 937.71 496.42 913.26 474.33 928.96 486.79 907.61 501.03 904.22 501.03 891.72 518.43 871.45 515.57 859.06 492.13 862.24 474.33 868.83 456.23 869.88 445.59 886.64 446.74 873.19 431.01 875.67 425.05 886.63 423.9 870.95 443.48 870.31 458.9 864.17 474.04 864.8 489.36 857.34 533.67 845.52 546.42 848.7"/><polygon class="cls-54" points="546.42 848.7 560.67 861.2 601.69 874.61 613.18 893.63 617.03 924.78 604.11 891.91 589.97 876.51 552.29 865.4 539.07 850.52 528.69 855.19 525.74 873.75 509.91 893.49 503.95 938.59 479.67 956.99 498.66 937.71 496.35 912.53 474.33 928.96 486.79 907.61 501.03 904.22 501.03 891.72 518.43 871.45 515.57 858.49 492.13 861.66 474.33 868.4 456.23 869.46 446.1 885.37 446.74 872.72 431.01 875.2 425.44 885.05 423.9 870.95 443.48 870.31 458.9 864.17 474.04 864.8 489.36 857.34 533.67 845.52 546.42 848.7"/><polygon class="cls-42" points="546.42 848.7 560.67 861.2 601.69 874.61 613.18 893.63 617.03 924.78 604.46 891.43 589.43 875.78 552.79 864.97 538.72 849.98 528.33 854.65 525.13 873.54 509.46 892.61 503.53 938.07 479.67 956.99 498.66 937.71 496.28 911.8 474.33 928.96 486.79 907.61 501.03 904.22 501.03 891.72 518.43 871.45 515.57 857.91 492.13 861.09 474.33 867.97 456.23 869.03 446.6 884.1 446.74 872.24 431.01 874.73 425.82 883.48 423.9 870.95 443.48 870.31 458.9 864.17 474.04 864.8 489.36 857.34 533.67 845.52 546.42 848.7"/><polygon class="cls-44" points="546.42 848.7 560.67 861.2 601.69 874.61 613.18 893.63 617.03 924.78 604.81 890.95 588.9 875.05 553.29 864.54 538.36 849.45 527.98 854.12 524.51 873.32 509.01 891.72 503.11 937.54 479.67 956.99 498.66 937.71 496.22 911.07 474.33 928.96 486.79 907.61 501.03 904.22 501.03 891.72 518.43 871.45 515.57 857.34 492.13 860.52 474.33 867.55 456.23 868.61 447.11 882.82 446.74 871.77 431.01 874.25 426.21 881.89 423.9 870.95 443.48 870.31 458.9 864.17 474.04 864.8 489.36 857.34 533.67 845.52 546.42 848.7"/><polygon class="cls-51" points="637.89 848.34 605.63 861.89 589.51 869.18 580.16 875.91 586.18 877.68 599.21 870.68 630.1 856.95 633.71 869.18 625.06 889.33 610.61 903.04 605.63 931.97 616.42 907.97 621.71 918.9 620.51 903.47 626.51 894.9 639.4 870.47 656.81 887.4 661.91 902.61 673.62 909.47 666.49 901.75 662.51 884.82 645.49 866.84 662.09 862.01 683.35 867.25 659.21 855.89 643.01 861.68 637.89 848.34"/><polygon class="cls-52" points="637.89 848.34 605.63 861.89 589.51 869.18 580.64 875.48 586.52 877.21 598.84 870.29 630.15 856.6 634.35 868.95 625.06 889.33 610.61 903.04 605.63 931.97 616.16 907.45 621.71 918.9 620.46 902.74 626.39 894.48 639.53 870.25 657.07 887.22 662.2 902.42 673.62 909.47 666.49 901.75 662.51 884.82 645.18 866.52 661.83 861.62 683.35 867.25 659.21 855.89 643.01 861.68 637.89 848.34"/><polygon class="cls-53" points="637.89 848.34 605.63 861.89 589.51 869.18 581.12 875.05 586.86 876.74 598.46 869.89 630.2 856.26 634.99 868.72 625.06 889.33 610.61 903.04 605.63 931.97 615.91 906.93 621.71 918.9 620.4 902.02 626.26 894.06 639.66 870.03 657.34 887.04 662.49 902.24 673.62 909.47 666.49 901.75 662.51 884.82 644.88 866.2 661.58 861.22 683.35 867.25 659.21 855.89 643.01 861.68 637.89 848.34"/><polygon class="cls-47" points="637.89 848.34 605.63 861.89 589.51 869.18 581.6 874.62 587.19 876.27 598.09 869.5 630.25 855.91 635.62 868.48 625.06 889.33 610.61 903.04 605.63 931.97 615.66 906.4 621.71 918.9 620.34 901.3 626.14 893.64 639.8 869.82 657.6 886.86 662.77 902.05 673.62 909.47 666.49 901.75 662.51 884.82 644.58 865.88 661.32 860.83 683.35 867.25 659.21 855.89 643.01 861.68 637.89 848.34"/><polygon class="cls-54" points="637.89 848.34 605.63 861.89 589.51 869.18 582.09 874.18 587.53 875.8 597.71 869.11 630.31 855.57 636.26 868.25 625.06 889.33 610.61 903.04 605.63 931.97 615.4 905.88 621.71 918.9 620.29 900.57 626.01 893.22 639.93 869.61 657.86 886.68 663.06 901.86 673.62 909.47 666.49 901.75 662.51 884.82 644.27 865.56 661.07 860.43 683.35 867.25 659.21 855.89 643.01 861.68 637.89 848.34"/><polygon class="cls-42" points="637.89 848.34 605.63 861.89 589.51 869.18 582.57 873.75 587.87 875.33 597.34 868.72 630.36 855.22 636.9 868.02 625.06 889.33 610.61 903.04 605.63 931.97 615.15 905.36 621.71 918.9 620.23 899.85 625.89 892.8 640.07 869.39 658.12 886.5 663.35 901.67 673.62 909.47 666.49 901.75 662.51 884.82 643.97 865.24 660.82 860.04 683.35 867.25 659.21 855.89 643.01 861.68 637.89 848.34"/><polygon class="cls-44" points="637.89 848.34 605.63 861.89 589.51 869.18 583.05 873.32 588.21 874.86 596.96 868.32 630.41 854.88 637.54 867.79 625.06 889.33 610.61 903.04 605.63 931.97 614.9 904.84 621.71 918.9 620.17 899.12 625.76 892.38 640.2 869.17 658.39 886.32 663.64 901.49 673.62 909.47 666.49 901.75 662.51 884.82 643.67 864.92 660.56 859.64 683.35 867.25 659.21 855.89 643.01 861.68 637.89 848.34"/></g></g></svg>