<svg xmlns="http://www.w3.org/2000/svg" xmlns:xlink="http://www.w3.org/1999/xlink" viewBox="0 0 844.77 2272.8"><defs><style>.cls-1{fill:none;}.cls-2{fill:#281204;opacity:0.42;}.cls-3{fill:#160902;}.cls-18,.cls-19,.cls-20,.cls-21,.cls-22,.cls-23,.cls-24,.cls-25,.cls-26,.cls-27,.cls-28,.cls-29,.cls-30,.cls-4{fill:#5e6614;}.cls-5{fill:#555912;}.cls-6{fill:#4c4b11;}.cls-7{fill:#433e10;}.cls-8{fill:#3a310e;}.cls-9{fill:#31230d;}.cls-10{fill:#28160b;}.cls-11{fill:#25140a;}.cls-12{fill:#221309;}.cls-13{fill:#1f1109;}.cls-14{fill:#1c0f08;}.cls-15{fill:#190e07;}.cls-16{fill:#160c06;}.cls-17{opacity:0.68;fill:url(#New_Pattern_Swatch_1);}.cls-18{opacity:0.5;}.cls-19{opacity:0.55;}.cls-20{opacity:0.61;}.cls-21{opacity:0.66;}.cls-22{opacity:0.71;}.cls-23{opacity:0.77;}.cls-24{opacity:0.82;}.cls-25{opacity:0.4;}.cls-26{opacity:0.47;}.cls-27{opacity:0.54;}.cls-28{opacity:0.61;}.cls-29{opacity:0.68;}.cls-30{opacity:0.75;}</style><pattern id="New_Pattern_Swatch_1" data-name="New Pattern Swatch 1" width="289.6" height="289.6" patternUnits="userSpaceOnUse" viewBox="0 0 289.6 289.6"><rect class="cls-1" width="289.6" height="289.6"/><path class="cls-2" d="M0,271.5s45.4-8.4,53.8-4,19.6,14.8,19.6,14.8,18.8-6.08,29.2-8L113,279.1l40.8-12.88s20.4,6.88,25.6,9.68,16.8,11.2,24.8,8.4,39.6-12.4,39.6-12.4,18.4,3.68,26.8,3.64,19-3.64,19-3.64v30.4H271l-27.6,9.2-29.2-4s-13.6-8.8-35.2-8.8-34.2-7.2-34.2-7.2l-25.4,11.2-24.8-6.8-34.8,8.4L38.6,291.5S3,302.3,0,302.3Z"/><rect class="cls-3" y="12.87" width="289.6" height="289.6"/><path class="cls-2" d="M289.6,27.37c-71.8,10.34-143.67,1.4-196.4-4C59.79,20,26.62,23,0,27.37v28c50.27-2,143.92-5.78,203.45-.19,26.17,2.46,57,1.94,86.15.21Z"/><path class="cls-2" d="M289.6,123.75c-57.72.56-143.35-5.41-195.2-12.64C58.14,106.05,39,125.68,0,123.86v26.58c41.61-4,113.6-12,152-3.54,24.31,5.37,82.18,6.26,137.6,3.36Z"/><path class="cls-2" d="M0,53.87s45.4-8.4,53.8-4,19.6,14.8,19.6,14.8,18.8-6.07,29.2-8L113,61.47,153.8,48.6s20.4,6.87,25.6,9.67,16.8,11.2,24.8,8.4,39.6-12.4,39.6-12.4,18.4,3.69,26.8,3.65,19-3.65,19-3.65v30.4H271l-27.6,9.2-29.2-4s-13.6-8.8-35.2-8.8-34.2-7.2-34.2-7.2l-25.4,11.2-24.8-6.8-34.8,8.4L38.6,73.87S3,84.67,0,84.67Z"/><path class="cls-2" d="M289.6,117.42V87.53s-7.4,6.69-15.4,8.69-28.4-9.6-34.4-8.8-34,3.2-50-4-10.4-1.2-10.4-1.2l-34.6,14-46.2-11h-26L49,91.82,0,87.53v29.89s23.4-8,29.2-8.4,26.6,4.2,39.4,2.2,21,1.8,26.8,1,25.6-7.8,25.6-7.8l9.4,10.4,7.2-4.8,9,12.2,14.8-3.8,17.8-14,6.4,2.4H213c7,0,18.8,14,18.8,14l30.8-10.4,27,7"/><path class="cls-2" d="M289.6,183c-71.8,10.34-143.67,1.4-196.4-4-33.41-3.42-66.58-.42-93.2,4v28c50.27-2,143.92-5.78,203.45-.19,26.17,2.46,57,1.94,86.15.21Z"/><path class="cls-2" d="M0,217.18s45.4-8.4,53.8-4S73.4,228,73.4,228s18.8-6.08,29.2-8l10.4,4.84,40.8-12.88s20.4,6.88,25.6,9.68,16.8,11.2,24.8,8.4,39.6-12.4,39.6-12.4,18.4,3.69,26.8,3.64,19-3.64,19-3.64V248H271l-27.6,9.2-29.2-4s-13.6-8.8-35.2-8.8-34.2-7.2-34.2-7.2l-25.4,11.2-24.8-6.8L59.8,250l-21.2-12.8S3,248,0,248Z"/><path class="cls-2" d="M0,273s45.4-8.4,53.8-4,19.6,14.8,19.6,14.8,18.8-6.08,29.2-8l10.4,4.84,40.8-12.88s20.4,6.88,25.6,9.68,16.8,11.2,24.8,8.4,39.6-12.4,39.6-12.4,18.4,3.69,26.8,3.64,19-3.64,19-3.64v30.4H271L243.4,313l-29.2-4s-13.6-8.8-35.2-8.8-34.2-7.2-34.2-7.2l-25.4,11.2-24.8-6.8-34.8,8.4L38.6,293S3,303.78,0,303.78Z"/><path class="cls-2" d="M0-18.1s45.4-8.4,53.8-4S73.4-7.3,73.4-7.3s18.8-6.08,29.2-8L113-10.5l40.8-12.88s20.4,6.88,25.6,9.68,16.8,11.2,24.8,8.4,39.6-12.4,39.6-12.4,18.4,3.68,26.8,3.64,19-3.64,19-3.64V12.7H271l-27.6,9.2-29.2-4S200.6,9.1,179,9.1s-34.2-7.2-34.2-7.2L119.4,13.1,94.6,6.3,59.8,14.7,38.6,1.9S3,12.7,0,12.7Z"/><path class="cls-2" d="M289.6,280.72V250.84s-7.4,6.68-15.4,8.68-28.4-9.6-34.4-8.8-34,3.2-50-4-10.4-1.2-10.4-1.2l-34.6,14-46.2-11h-26L49,255.12,0,250.84v29.88s23.4-8,29.2-8.4,26.6,4.2,39.4,2.2,21,1.8,26.8,1,25.6-7.8,25.6-7.8l9.4,10.4,7.2-4.8,9,12.2,14.8-3.8,17.8-14,6.4,2.4H213c7,0,18.8,14,18.8,14l30.8-10.4,27,7"/><path class="cls-2" d="M0,161.54l16.2-10.4,13.6,11.2L65,144.74H75.4s-1.2-2.8,8,3.2,40,2,40,2l24,10.4s26.8-5.2,35.2-1.2,29.6-1.6,29.6-1.6l10,10,26.8-9.2,25.6,9.2,15-6V195s-41.8-15.9-61.6-12.3S186.6,195,186.6,195l-25.2-25.48L114,176.14l-31.8-6.58-27,15.58-7.2-6.2-18,6.2L0,195Z"/><rect class="cls-3" y="-276.73" width="289.6" height="289.6"/><path class="cls-2" d="M0-16.62s45.4-8.4,53.8-4S73.4-5.82,73.4-5.82s18.8-6.08,29.2-8L113-9,153.8-21.9s20.4,6.88,25.6,9.68S196.2-1,204.2-3.82s39.6-12.4,39.6-12.4,18.4,3.69,26.8,3.64,19-3.64,19-3.64v30.4H271l-27.6,9.2-29.2-4s-13.6-8.8-35.2-8.8-34.2-7.2-34.2-7.2l-25.4,11.2L94.6,7.78l-34.8,8.4L38.6,3.38S3,14.18,0,14.18Z"/></pattern></defs><title>4</title><g id="Layer_2" data-name="Layer 2"><g id="Chão"><polyline class="cls-4" points="64.77 360 184.77 300 304.77 240 424.77 120 544.77 0 784.77 0 769.49 90 712.3 240 664.77 262.52 664.77 1500 64.77 1500"/><path class="cls-5" d="M65.68,361.07l.74-.14,3,3.12,1-.18,2.64-5.36,1.17-.23,1.51,1.59.74-.14,2.21-4.51,1-.19,1.41,1.46.74-.14,2-4.06.74-.14,2.57,2.63.89-.16L90.85,349l.82-.16,1.64,1.69.6-.11L96,346.21l.75-.13,2.65,2.71.65-.12,2.07-4.18.63-.12,1.38-2.79.64-.12,1.71,1.75.56-.1,1.31-2.64.68-.13.69.74.57-.11,1.64-3.3.67-.13,1.11,1.15.68-.13,1.45-2.94.61-.11,1.93,1.95.49-.08,1.64-3.31.57-.11.83.87.46-.09,1.59-3.19.6-.11,2,2,.57-.11,2.28-4.55.61-.11,1.37,1.38.71-.13,1.74-3.49.57-.1,1.29,1.29.72-.13,1.09-2.21.58-.11,1.95,2,.54-.1,2.65-5.28.76-.15,2.11,2.08.68-.13,2.47-4.89.65-.12,1.3,1.3.72-.14,1-2.07.69-.13,1.7,1.68.73-.14,2.45-4.84.75-.14,1.36,1.34.87-.17,1.82-3.59.72-.14,2.45,2.31.54-.1,1.73-3.38.58-.11.65.66.7-.14,1.92-3.72.65-.13,2.28,2.14.69-.13,2-3.79.56-.11,1,.9.73-.14,1.9-3.63.74-.15,1.26,1.14.78-.16,1.66-3.13.71-.12,1.65,2,.61-.1L191,299l.58-.09.53.69.74-.13,1.29-2.88.64-.11.79,1,.75-.13,1.19-2.65.67-.12,1.45,1.79.61-.1,1.18-2.64.67-.11.58.75.55-.09,1.35-3,.66-.11,1.06,1.31.59-.1,1.39-3.09.67-.11,1.57,1.92.57-.09,1.84-4.07.73-.13,1.16,1.44.58-.1.8-1.82.46-.08.6.77.58-.1.86-1.93.48-.08.67-1.51.62-.11,2.27,2.77.56-.09,1.86-4.13.6-.1,1.28,1.57.63-.1,2.11-4.69.62-.11.43.57.62-.11.65-1.47.6-.1,1.49,1.82.58-.1,1.14-2.54.53-.09.67.85.55-.09,1.47-3.25.66-.11,1.21,1.48.55-.09,1.5-3.32.62-.1,1.06,1.31.56-.09.36-.83.67-.12.61.77.6-.1,1.82-4,.66-.11.81,1,.56-.1,1.11-2.45.64-.11,1.45,1.74.62-.1,1.64-3.63.71-.12.95,1.16.55-.1.71-1.6.56-.09,1.14,1.38.57-.09,1.85-4.05.69-.12,1.11,1.35.61-.1.89-2,.6-.1,1.18,1.44.69-.12,2-4.45.65-.11,1.37,1.64.72-.12,1.77-3.9.67-.11,1.28,1.55.71-.13,1.88-4.13.74-.13,2.27,2.68.65-.11,1.35-3,.61-.1,1.68-3.68.74-.13,1.75,2.1.58-.09,1.21-2.67.7-.12.77.93.61-.1,2.44-5.31.63-.11,3.18,3.72.65-.11,3.54-7.69.6-.1,1.91,2.23L308,240l2.16-4.72.63-.12,2.07,3.28.58-.17,1.06-3.34.47-.14.54.66.46-.13,2.22-6.95.6-.18L320,229.6l.45-.13.44-1.42.37-.1.19.26s.43,0,.43-.12,1.63-5.11,1.63-5.11l.46-.13,1.05,1.19.52-.15.76-2.41.56-.16,1,1.14.58-.17,2.12-6.57.58-.16,1,1.18.54-.16.29-1,.33-.09.16.24.46-.13,1.29-4,.71-.21.54.64.58-.18,1.33-4.13.54-.16,1,1.12.5-.14.77-2.41.37-.1.51.59.48-.14,1.35-4.18.6-.18,1.51,1.68.59-.17,1.94-6,.56-.17,1.53,1.68.5-.14,1.28-3.94.54-.16,1.52,1.66.52-.15,2.45-7.56.59-.18,1.7,1.86.59-.18,2.21-6.82.59-.17.23.29.5-.15.66-2.06.54-.16,1.21,1.32.65-.2,1.1-3.41.57-.17.51.6.42-.11L371,175l.86-.26.28.35.43-.13.51-1.6.65-.19.78.85.52-.15,1.34-4.12.57-.17.8.89.44-.12,1.22-3.74.6-.18,1.36,1.46.56-.17,1.22-3.72.46-.14.76.82.47-.14,1.55-4.72.57-.17.51.57.63-.19.89-2.75.74-.23,1.15,1.23.51-.15,1.64-5,.78-.24,1.11,1.17.52-.16,1-3,.5-.15.55.59.5-.16,1.31-4,.44-.13.45.5.57-.17,1-3.18.66-.2.76.81.63-.19,1.14-3.47.79-.25.67.71.65-.2.28-.87.48-.14.83.88.51-.15,1.77-5.35.7-.22.56.59.57-.17,1.24-3.72.51-.16.76.78.51-.15,1.15-3.45.82-.26,1.36,1.36.64-.2,1.73-5.16.65-.2,1,1,.51-.16.86-2.57.53-.17.53.54.51-.15,1.59-4.69.68-.21.46.46.51-.16,1-2.91.63-.2,1.4,1.32.56-.17,1.83-5.37.62-.2,1.12,1L437,112l.76-2.22.59-.2.47.46.53-.17,1.91-5.42.61-.2.71.6.64-.2,1.33-3.74.81-.48,2.39-.74.82-.48,1.7-2.87.88-.52.95-.28.74-.43L455,91.35l1-.56,3.6-1.13.95-.55,3-5,.85-.49,1.12-.34.89-.52,1.43-2.43.74-.43,2.12-.66.78-.45,1.33-2.25.65-.38,1-1.69.78-.46,1.65-.51.92-.54L478.91,71l.64-.37,2.82-.89.74-.43,2.38-4,.89-.51,1.49-.46.81-.48,2.54-4.26.92-.54,2-.63.86-.5,1.4-2.36.88-.52,2.59-.82.89-.52,2.94-4.95.79-.46,2.45-.78,1.06-.61,2.91-4.9.85-.5,3.16-1,.75-.44,2-3.31.57-.33,1.07-.33.75-.43,1.75-3,.79-.46,2.28-.71.78-.46,1.94-3.27,1-.59,1.12-.34.85-.5.71-1.2.74-.43,1.94-.62.82-.49,2.91-4.89.54-.31,1.61-.5.51-.3,1.1-1.85,1-.57,1.56-.5.68-.39.94-1.59.72-.43,1-1.74.86-.51,2.47-.79,1-.62,2-3.41.87-.51,1.51-.49.77-.45,1.85-2.65h.84l2.14,1.05h1.11L566.07.57h1.23l2,1h1l1.35-.66h.93L574.9,2h1l3-1.43h1.1l2.45,1.19h1.14l1.63-.8h1.36l1.18.59h.92L591,.43h1l2.66,1.29h1.23l2.07-1h1.23l3.16,1.53h1.21l2.69-1.3h1.28L609.76,2H611L614,.6h1.15l3.62,1.74h1.15l2.55-1.23h1.35l1.26.61h1.28L629,.47h.76L633,2h1.15L636.75.75h1.49l1.66.8h.82l1.35-.66h1.36L645.63,2h1.62L650.18.55h1.22l4,1.94h1.35L659.85,1H661l1.57.77H664l1.77-.85h1.15l.91-.45h.89l3.75,1.79h1.35l1.86-.9h.88l1,.49h.82L680.15,1H681l2.22,1.07h1L686,1.26h1l.82.4h1.16L691.31.51h.77l4.23,2h1.36l2.92-1.38h1l1.74.83h1L706.91.77h1.3l1.46.7H711l1.15-.55h1.1l2,.93h1.57l2.76-1.3h1.56l3.95,1.86h1.18L729,1.09h.63l2,.93h1.24L735.71.7h1.44l1.71.81h1.31l1.35-.64h1.24l2.78,1.3h1.35l1.87-.87h1.34l1.2.57h1.4L755.77.45h1.53l1.74.81h1.39L762,2h1.53L766.34.72h1.19l1.78.83h1.06l2.3-1h.92l1.64.75h1.34L777.8.7h1.43l1.36.62h.87l1.8-.81h1.43L769.5,90.12l-57.19,150-47.54,22.52V1500.12h-600v-188.5"/><path class="cls-6" d="M66.59,362.13l1.15-.11,2.43,8.06,1.48-.14,2.11-9.14,1.8-.18,1.21,4.08,1.16-.11,1.77-7.7,1.59-.15,1.12,3.78,1.16-.12,1.6-6.92,1.16-.11,2,6.8,1.38-.14L92,350.41l1.26-.12,1.31,4.36,1-.09,1.65-7.12,1.15-.11,2.13,7,1-.09,1.65-7.13,1-.09,1.1-4.76,1-.1,1.37,4.54.89-.09,1-4.5,1.06-.1.55,1.89.89-.08,1.31-5.64,1-.1.89,3,1-.1,1.17-5,.94-.09,1.54,5.06.78-.07,1.31-5.64.89-.08.66,2.22.73-.06,1.27-5.45.94-.09,1.6,5.25.89-.09,1.82-7.73,1-.1,1.1,3.6,1.11-.11,1.39-5.93.89-.08,1,3.36,1.11-.11.87-3.76.9-.08,1.56,5.09.84-.08,2.12-9,1.17-.11,1.69,5.41,1-.1,2-8.31,1-.1,1,3.4,1.12-.11.83-3.53,1.06-.1,1.36,4.38,1.12-.11,2-8.21,1.16-.12,1.09,3.5,1.34-.13,1.45-6.09,1.12-.11,2,6.08.85-.08,1.38-5.71.9-.09.52,1.7,1.07-.11,1.53-6.3,1-.1,1.82,5.64,1.06-.1,1.6-6.38.85-.08.78,2.38,1.12-.12,1.52-6.12,1.13-.12,1,3,1.19-.13,1.33-5.26,1.13-.09,1.32,5,1-.08,1-4.6.92-.08.42,1.71,1.18-.11,1-5,1-.09.63,2.5,1.18-.11,1-4.6,1.08-.09,1.16,4.44,1-.08,1-4.56,1.07-.09.47,1.85.86-.07,1.08-5.22,1.06-.09.85,3.26,1-.07,1.11-5.35,1.06-.1,1.26,4.8.92-.08,1.47-7,1.16-.1.93,3.56.92-.08.64-3.15.75-.06.47,1.89.93-.08.68-3.35.78-.07.54-2.62,1-.08,1.82,6.89.88-.07,1.49-7.13,1-.08,1,3.91,1-.09,1.69-8.11,1-.08.34,1.39,1-.08.52-2.56,1-.08,1.19,4.53.92-.07.92-4.4.85-.07.53,2.09.89-.08,1.17-5.61,1.06-.09,1,3.69.88-.07,1.21-5.74,1-.08.85,3.26.88-.07.29-1.45,1.06-.09.49,1.91,1-.08,1.46-6.91,1.06-.09.64,2.48.89-.07.89-4.25,1-.09,1.16,4.36,1-.08,1.31-6.28,1.13-.09.76,2.88.89-.07.56-2.78.89-.08.91,3.46.92-.08,1.48-7,1.1-.09.89,3.35,1-.08.71-3.45,1-.08.94,3.59,1.1-.1,1.63-7.68,1-.09,1.09,4.11,1.13-.1,1.43-6.73,1.06-.09,1,3.86,1.14-.1,1.5-7.13,1.17-.1,1.81,6.72,1-.09,1.09-5.19,1-.09,1.34-6.34,1.17-.11,1.4,5.26.92-.08,1-4.59,1.11-.1.62,2.33,1-.09,1.95-9.15,1-.08,2.54,9.34,1-.09L313,231.9l.94-.08,1.53,5.6,1.14-.1,1.73-8.14,1-.1,1.65,7.8,1-.13.84-5.42.79-.11.44,1.95.75-.1,1.78-11.23,1-.14,1,4.3.75-.11.36-2.31.62-.08.15.76s.69.07.69-.1,1.31-8.26,1.31-8.26l.76-.11.84,3.65.86-.12.61-3.9.92-.13.81,3.5,1-.14,1.69-10.6,1-.13.82,3.6.9-.13.23-1.57.55-.07.13.67.76-.11,1-6.53,1.16-.17.44,1.92,1-.14,1.06-6.68.89-.12.79,3.43.83-.11L352,198l.62-.08.41,1.8.79-.1,1.08-6.76,1-.14,1.21,5.17,1-.13,1.56-9.7.92-.13,1.23,5.21.83-.12,1-6.35.9-.13,1.21,5.14.86-.12,2-12.17,1-.14,1.36,5.75,1-.14,1.78-11,1-.13.18.86.83-.12.53-3.33L377,171l1,4.08L379,175l.88-5.51.93-.13.41,1.82.69-.09,1.13-7,1.4-.21.22,1,.72-.1.41-2.59,1.06-.16.63,2.64.85-.12,1.08-6.63.93-.14.64,2.76.73-.1,1-6,1-.15,1.08,4.56.93-.13,1-6,.76-.11.61,2.54.79-.11,1.24-7.59.93-.14.4,1.75,1-.15.72-4.43,1.2-.18.93,3.84.83-.12,1.31-8,1.27-.19.89,3.65.86-.12.79-4.84.83-.13.43,1.84.83-.12,1-6.38.73-.1.36,1.54.94-.14.83-5.12,1.07-.16.61,2.54,1-.15.92-5.57,1.27-.2.53,2.22,1.07-.16.22-1.41.8-.12.66,2.77.84-.12,1.41-8.57,1.14-.17.45,1.85.93-.14,1-6,.83-.12.62,2.48.83-.12.92-5.52,1.32-.21,1.09,4.36,1-.16,1.38-8.25,1.07-.16L441,112l.84-.13.68-4.11.87-.13.42,1.71.83-.13,1.27-7.46,1.11-.17.37,1.48.84-.13.78-4.64,1-.16,1.12,4.32.91-.14,1.47-8.53,1-.16.9,3.36.91-.14.6-3.53,1-.16.37,1.47.87-.13,1.52-8.56,1-.16.57,2.07,1-.17,1.07-5.89,1.06-.38,1.91,1.38,1.06-.38,1.36-3.71,1.15-.41.76.57,1-.34,1.76-4.8,1.24-.44,2.88,2,1.24-.44,2.38-6.47,1.11-.4.89.66,1.15-.41,1.15-3.13,1-.35L489,66l1-.36,1.07-2.91.83-.3.8-2.19,1-.37,1.32,1,1.2-.43.91-2.51.84-.29,2.25,1.6,1-.35,1.9-5.16,1.15-.41,1.2.87,1.06-.38,2-5.48,1.2-.44L511.39,49l1.11-.4,1.11-3.05,1.15-.41,2.08,1.47,1.15-.41,2.35-6.38,1-.37,2,1.39,1.38-.5L527,34l1.11-.4,2.52,1.79,1-.35,1.57-4.26.75-.27.86.62,1-.35,1.4-3.81,1-.37L540,27.9l1-.37,1.56-4.22,1.28-.46.9.66,1.11-.4.57-1.56,1-.35L549,22.29l1.06-.38,2.33-6.3.7-.25,1.29.92.66-.23.88-2.38,1.25-.46,1.25.88.88-.32.75-2,.94-.34.83-2.25,1.11-.4,2,1.37,1.34-.5,1.63-4.37L569,4.82l1.2.83,1-.36,1.49-3.07h1l1.71,2.09h1.33l2.62-3.17h1.47l1.58,1.93h1.17l1.08-1.34h1.11l1.91,2.33h1.17l2.36-2.87h1.33l2,2.39h1.37L597.14,2h1.64l.94,1.16h1.11l1.9-2.3H604l2.13,2.59h1.48l1.65-2h1.48l2.53,3.05h1.45l2.15-2.6h1.54l1.78,2.18h1.54L624,1.19h1.38l2.9,3.49h1.38l2-2.46h1.62l1,1.23h1.54L638,.94h.91l2.58,3.11h1.39L645,1.49h1.78l1.32,1.62h1l1.08-1.32h1.62l1.77,2.13h1.93l2.35-2.81h1.46L662.51,5h1.62l2.44-2.93h1.31l1.26,1.53h1.78l1.41-1.71h1.38l.73-.89h1.07l3,3.58h1.63l1.48-1.79h1.07l.79,1h1l1.41-1.7H687l1.77,2.12h1.16l1.38-1.66h1.15l.65.81h1.39L696.39,1h.92l3.38,4h1.62l2.34-2.76h1.23l1.39,1.66h1.24l2-2.39h1.55l1.18,1.41h1.55l.92-1.11H717l1.58,1.87h1.87l2.21-2.59h1.86l3.16,3.7h1.4l2.24-2.64h.76l1.59,1.88h1.48l2.25-2.64h1.72L740.53,3h1.56l1.08-1.27h1.48l2.22,2.59h1.6L750,2.6h1.59l1,1.15h1.65L756.64.9h1.8l1.4,1.61h1.65L762.78,4h1.8l2.22-2.55h1.42l1.42,1.66h1.26L772.73,1h1.09l1.32,1.49h1.58l1-1.1h1.69l1.09,1.23h1L783,1h1.67L769.51,90.24l-57.19,150-47.54,22.52V1500.24h-600v-377"/><path class="cls-7" d="M67.5,363.2l1.56-.09,1.82,13,2-.11,1.58-12.92,2.44-.13.91,6.56,1.57-.08,1.32-10.87,2.15-.12.84,6.09,1.58-.09,1.2-9.79,1.57-.08,1.54,11,1.86-.1,1.67-13.6,1.72-.09,1,7,1.28-.07,1.24-10.06,1.57-.08,1.59,11.33,1.36-.08,1.24-10.06,1.35-.07.83-6.74,1.35-.07,1,7.32,1.2-.06.79-6.37,1.42-.08.42,3.05,1.21-.06,1-8,1.42-.08.67,4.78,1.42-.08.88-7.07,1.28-.07,1.15,8.17,1.07-.05,1-8,1.21-.07.5,3.58,1,0,.95-7.69,1.28-.07,1.2,8.46,1.21-.06,1.37-10.92,1.29-.07.82,5.81,1.5-.08,1-8.38,1.21-.06.77,5.42,1.51-.08.65-5.3,1.22-.07,1.17,8.22,1.14-.06,1.59-12.66,1.58-.09,1.27,8.75,1.42-.08,1.49-11.72,1.35-.07.79,5.48,1.5-.08.63-5,1.43-.08,1,7.08,1.51-.08,1.47-11.59,1.57-.08.82,5.65,1.8-.1,1.09-8.58,1.51-.09,1.46,9.87,1.15-.07,1-8.05,1.21-.06.39,2.74,1.44-.08,1.15-8.88,1.37-.07,1.36,9.14,1.44-.07,1.19-9,1.15-.07.58,3.86,1.52-.09,1.14-8.61,1.51-.09.76,4.92,1.59-.09,1-7.39,1.55-.07,1,8.05,1.34-.06.71-6.54,1.26-.06.32,2.71,1.62-.07.78-7.09,1.4-.07.48,4,1.62-.08.71-6.55,1.48-.07.87,7.1,1.34-.06.7-6.48,1.48-.07.35,2.95,1.19-.05.81-7.43,1.46-.06.63,5.21,1.31-.06.83-7.61,1.46-.07.94,7.66,1.26-.06,1.11-10,1.59-.08.7,5.7,1.26-.06.49-4.5,1,0,.36,3,1.27-.06.51-4.77,1.08-.05.4-3.73,1.36-.06,1.36,11,1.22-.06,1.11-10.13,1.32-.06.77,6.25,1.36-.06,1.27-11.53,1.36-.06.26,2.21,1.36-.06.39-3.64,1.31-.06.89,7.25,1.27-.06.68-6.26,1.17-.05.4,3.33,1.22-.05.88-8,1.45-.07.73,5.89,1.21-.05.9-8.16,1.36-.06.64,5.22,1.22-.06.21-2.06,1.46-.07.37,3.05,1.31-.06,1.09-9.83,1.46-.07.48,4,1.22-.06.67-6,1.4-.06.87,7,1.36-.06,1-8.92,1.55-.07L273,264l1.22-.06.43-4,1.22-.05.68,5.53,1.27-.06,1.1-9.92,1.51-.07.66,5.37,1.32-.06.53-4.91,1.32-.06.71,5.73,1.5-.07,1.22-10.91,1.41-.06.82,6.56,1.55-.07,1.07-9.55,1.46-.07.76,6.17,1.56-.08,1.12-10.14,1.6-.07L300.43,254l1.41-.06.81-7.39,1.31-.06,1-9,1.6-.07,1.05,8.41,1.27-.06.73-6.53,1.51-.08.46,3.73,1.32-.07,1.46-13,1.37-.07,1.9,15,1.42-.06,2.12-18.81,1.3-.06,1.14,9,1.56-.08,1.3-11.56,1.35-.07,1.24,12.31,1.34-.1.63-7.49,1.1-.08.33,3.25,1-.07,1.34-15.51,1.38-.1.74,7.17,1-.07.27-3.21.87-.06.11,1.25s1,.18,1-.07,1-11.41,1-11.41l1.06-.08.63,6.09,1.2-.08.45-5.4,1.29-.1.61,5.87,1.34-.11,1.26-14.63,1.34-.1.62,6,1.24-.1.18-2.17.77-.05.1,1.09,1.06-.08.77-9,1.62-.12.33,3.2,1.33-.1.8-9.22,1.24-.1.6,5.75,1.14-.09.46-5.39.88-.07.3,3,1.11-.08.8-9.32,1.39-.11.91,8.67,1.33-.11,1.17-13.37,1.29-.1.92,8.73,1.15-.08.76-8.77,1.25-.09.91,8.62,1.2-.09L379.51,170l1.34-.11,1,9.66,1.34-.1,1.33-15.16,1.34-.11.14,1.44,1.15-.09.39-4.61,1.25-.09.72,6.85,1.48-.12.66-7.6,1.29-.1.32,3.05,1-.07.84-9.61L397,153l.16,1.7,1-.07.31-3.58L400,151l.46,4.43,1.2-.09.81-9.15,1.29-.1.48,4.62,1-.07.73-8.31,1.39-.11.81,7.66,1.29-.1.73-8.27,1.06-.08.46,4.28,1.1-.09.93-10.46L415,135l.31,2.93,1.43-.12.54-6.11,1.67-.13.69,6.45,1.15-.09,1-11.07,1.76-.14.66,6.14,1.2-.09.59-6.68,1.16-.09.32,3.08,1.16-.09.78-8.78,1-.08.27,2.58,1.29-.1.63-7,1.48-.13.46,4.27,1.43-.11.69-7.67,1.76-.15.4,3.73,1.49-.12.16-2,1.11-.09.5,4.65,1.15-.09,1.07-11.79,1.57-.13.34,3.11,1.29-.1.75-8.19,1.15-.09.46,4.18,1.16-.1.69-7.58,1.81-.16.82,7.35,1.44-.12,1-11.33,1.48-.12.59,5.29,1.16-.1.51-5.66,1.2-.1.32,2.88,1.16-.1.95-10.23,1.54-.13.27,2.49,1.16-.09.59-6.38,1.39-.12.85,7.33,1.25-.1,1.1-11.7,1.35-.12.68,5.71,1.25-.11.46-4.84,1.31-.11.28,2.49,1.2-.11,1.15-11.69,1.35-.12.43,3.53,1.4-.13.8-8,1.3-.28,1.44,3.5,1.3-.29,1-4.55,1.42-.31.57,1.43,1.19-.26L493.62,56l1.52-.33,2.16,5.24,1.52-.33,1.79-7.92,1.36-.3.68,1.67,1.41-.31.86-3.84,1.2-.26,1.27,3.12,1.25-.28.8-3.56,1-.23.6-2.68,1.25-.27,1,2.41,1.47-.32.69-3.07,1-.22,1.69,4.09,1.2-.26L520.81,42l1.42-.31.9,2.21,1.3-.28L526,36.91l1.48-.33,1.2,2.93,1.36-.3.84-3.73,1.42-.31,1.55,3.76,1.42-.31L537,30.81l1.26-.27,1.47,3.55,1.69-.37L543.15,26l1.36-.3,1.89,4.58,1.2-.26,1.18-5.22.92-.2.64,1.57,1.2-.26,1.05-4.67,1.26-.28,1.36,3.32,1.26-.28,1.16-5.16,1.58-.35.68,1.66,1.36-.29.42-1.92,1.2-.26,1.16,2.8,1.31-.29,1.75-7.7.87-.19,1,2.35.82-.18.66-2.91,1.53-.34.94,2.25,1.09-.23.56-2.52,1.15-.26.62-2.75,1.36-.3L579.14,11l1.64-.37L582,5.24l1.37-.3.91,2.15,1.21-.27,1.11-3.5h1.18l1.29,3.15h1.55l2-4.76h1.73l1.18,2.89h1.37l.81-2H599l1.43,3.49h1.37l1.77-4.3h1.55l1.47,3.58h1.6l1-2.39H611l.71,1.75h1.3l1.42-3.45h1.43l1.6,3.87h1.72l1.25-3h1.72l1.89,4.58h1.7l1.61-3.9h1.8l1.33,3.26h1.8l1.77-4.28h1.61L637.87,7h1.61L641,3.32h1.88l.76,1.85h1.79L647,1.41h1.06L650,6.07h1.61l1.6-3.83h2.06l1,2.42h1.15l.82-2h1.88l1.32,3.2h2.25l1.76-4.22h1.7l2.43,5.81h1.88l1.83-4.4h1.53l.94,2.3h2.07l1.06-2.56h1.61L681,1.47h1.25l2.25,5.36h1.89l1.11-2.68h1.25l.59,1.47h1.16l1.06-2.55h1.25l1.33,3.19h1.35l1-2.49h1.34L698.39,5H700l1.45-3.44h1.07l2.54,6H707l1.76-4.15h1.43l1,2.49h1.44l1.51-3.58h1.8l.88,2.11h1.8l.7-1.66h1.53L722,5.56h2.17l1.65-3.9H728l2.37,5.56H732l1.68-4h.89l1.2,2.81h1.71l1.69-4h2l1,2.43H744l.8-1.92h1.72l1.67,3.89h1.86l1.12-2.61H753l.73,1.72h1.91l1.84-4.28h2.09l1,2.43h1.91l1,2.23h2.09l1.66-3.83h1.64L770,4.66h1.46l1.38-3.12h1.26l1,2.23h1.82l.74-1.66h1.93L780.36,4h1.18l1.09-2.42h1.92l-15,88.82-57.19,150-47.54,22.52V1500.36h-600V934.85"/><path class="cls-8" d="M68.4,364.26l2-.05,1.21,17.94,2.53-.07,1.05-16.7,3.07-.09.61,9.06,2-.05.89-14.06,2.71-.08.56,8.4,2-.06.8-12.65,2-.06,1,15.15,2.35-.07,1.11-17.58,2.17-.06.66,9.72,1.61-.05.83-13,2-.05,1.06,15.64,1.72-.05.83-13,1.71-.05.55-8.7,1.71,0,.68,10.09,1.53,0,.52-8.23,1.8-.05.28,4.2,1.53,0,.66-10.28,1.8,0,.44,6.58,1.81-.05.58-9.14,1.62,0,.77,11.27,1.35,0,.65-10.28,1.53,0,.33,4.94,1.26,0,.63-9.94,1.62,0,.8,11.68,1.53,0,.92-14.11,1.62,0,.55,8,1.89-.05.7-10.82,1.53,0,.51,7.49,1.9-.05.43-6.86,1.54,0,.78,11.35,1.44,0,1.06-16.36,2-.06.84,12.09,1.81,0,1-15.13,1.72-.05.52,7.57,1.9-.06.41-6.42,1.81-.05.68,9.79,1.9-.06,1-15,2-.05.54,7.81,2.26-.07.73-11.09,1.9,0,1,13.64,1.44,0,.69-10.39,1.54-.05.26,3.79,1.81-.05.76-11.45,1.72-.05.91,12.65,1.81,0,.8-11.55,1.45,0,.38,5.33,1.91,0,.75-11.11,1.91-.06.5,6.82,2-.07.67-9.52,2-.05.66,11.08,1.7-.05.47-8.49,1.61,0,.22,3.73,2.06,0,.51-9.2,1.79,0,.32,5.46,2.06-.05.47-8.49,1.88-.05.58,9.75,1.7,0,.47-8.41,1.88,0,.23,4.05,1.52,0,.54-9.63,1.85-.05.42,7.16,1.67,0L220,286l1.85,0,.63,10.53,1.61,0,.73-13,2-.05.47,7.82,1.61,0,.32-5.83,1.31,0,.24,4.13,1.6,0,.35-6.18,1.37,0,.27-4.85,1.72,0,.91,15.15,1.55,0,.75-13.14,1.67,0,.51,8.6,1.73,0,.85-14.95,1.73,0,.17,3,1.73,0,.26-4.73,1.67,0,.59,10,1.61,0,.46-8.12,1.49,0,.26,4.58,1.55,0,.59-10.33,1.85-.05.48,8.1,1.55,0,.6-10.57,1.73,0,.42,7.17,1.55,0,.15-2.68,1.85-.05.24,4.19,1.67,0,.73-12.73,1.85-.05.32,5.46,1.55,0,.45-7.82,1.79-.05.57,9.59,1.73-.05.66-11.56,2,0,.38,6.34,1.55,0,.28-5.13,1.55,0,.46,7.6,1.61,0,.73-12.85,1.92,0,.44,7.38,1.67,0,.36-6.36,1.67,0,.47,7.88,1.91,0,.81-14.14,1.8,0,.54,9,2-.05.72-12.38,1.85-.05.5,8.48,2,0,.75-13.14,2,0,.91,14.81,1.79-.05.54-9.57,1.67,0,.68-11.69,2-.05.7,11.57,1.61,0,.48-8.47,1.92-.05.31,5.12,1.67,0,1-16.83,1.74,0,1.27,20.58,1.79,0,1.42-24.37,1.64,0,.76,12.35,2,0,.87-15,1.7,0,.83,16.83,1.71-.06.43-9.56,1.41-.06.22,4.55,1.35,0,.9-19.78,1.77-.07.49,10.06,1.36,0,.17-4.09,1.12,0,.08,1.74s1.24.29,1.24,0,.65-14.56.65-14.56l1.36-.05.42,8.54,1.54-.06.3-6.88,1.65-.07.41,8.22,1.71-.07.85-18.66,1.71-.07.41,8.44L362,201l.12-2.78,1,0,.06,1.52,1.36-.05.52-11.52,2.07-.09.21,4.5,1.72-.07.53-11.77,1.59-.06.4,8.06,1.47-.06.31-6.89,1.12,0,.2,4.22,1.42,0,.54-11.89,1.77-.07.61,12.16,1.71-.07.78-17.06,1.65-.07.62,12.27,1.47-.06.51-11.17,1.6-.07L388,182l1.53-.06,1-21.4,1.72-.07.68,13.56,1.72-.07.88-19.33,1.72-.07.09,2,1.48-.06.26-5.88,1.59-.06.49,9.61,1.89-.08.44-9.69,1.66-.06.21,4.27,1.23,0,.57-12.25,2.48-.11.11,2.39,1.3-.05.21-4.58,1.89-.07.31,6.21L415,146l.53-11.66,1.66-.07.32,6.49,1.3,0,.49-10.59,1.77-.07.54,10.75,1.66-.07.49-10.53,1.36,0,.3,6,1.41-.06.62-13.33,1.66-.07.2,4.11,1.84-.07.36-7.79,2.13-.09.46,9.07,1.48-.06.66-14.11,2.25-.09.44,8.63,1.54-.06.39-8.51,1.48-.06.22,4.32L444,118l.52-11.19,1.3-.05.18,3.62,1.66-.07.41-9,1.9-.08.31,6,1.83-.07.46-9.77,2.25-.1.27,5.24,1.9-.08.11-2.49,1.41-.06.34,6.53,1.48-.06.71-15,2-.08.23,4.37,1.65-.07.5-10.42,1.48-.06.31,5.87,1.48-.06.46-9.65,2.31-.1L472,91.46l1.84-.08L474.57,77l1.89-.08.4,7.44,1.48-.06.34-7.21,1.54-.07.21,4,1.48-.06.64-13,2-.08.18,3.5,1.48-.06.39-8.11,1.79-.08.56,10.33,1.6-.07.73-14.86,1.73-.08.45,8.06,1.6-.07.3-6.15,1.67-.08.19,3.51,1.54-.07.76-14.83,1.73-.09.28,5,1.79-.09.53-10.17,1.55-.19,1,5.62,1.55-.19.68-5.39,1.68-.2.38,2.29,1.42-.18.88-6.95,1.81-.22,1.44,8.43,1.81-.22,1.19-9.37,1.62-.19.45,2.67,1.68-.21.57-4.54,1.42-.17.85,5,1.49-.18.53-4.22L529,34.9l.4-3.18,1.49-.18.65,3.88,1.75-.22.46-3.63,1.23-.15L536.1,38l1.42-.17,1-7.48,1.68-.21.59,3.55,1.56-.19,1-7.94,1.75-.21.8,4.7,1.62-.2.56-4.42,1.68-.21,1,6.06,1.69-.21,1.17-9.23,1.49-.18,1,5.71,2-.25,1.16-9.1,1.62-.2,1.26,7.36,1.43-.18.78-6.17,1.1-.13.43,2.52,1.42-.18.7-5.52,1.49-.19.91,5.33,1.49-.18.78-6.11,1.87-.23.45,2.67,1.62-.2.28-2.27,1.42-.17.78,4.5,1.56-.19,1.16-9.11,1-.12.64,3.78,1-.12.44-3.45,1.82-.22.62,3.63,1.3-.16.37-3,1.36-.16.42-3.26,1.62-.2,1,5.71,2-.25.82-6.31,1.62-.21.6,3.48,1.44-.18.74-3.92h1.35l.86,4.2h1.77l1.31-6.36h2l.79,3.86h1.56l.54-2.66h1.5l.95,4.65h1.56l1.19-5.73h1.76l1,4.76h1.83L621.13,4h2.18l.47,2.32h1.49l1-4.59h1.63l1.07,5.16h2l.83-4h2L635,8.94h1.94L638,3.75h2l.9,4.34h2l1.18-5.7H646l1.45,7h1.84l1-4.94h2.15l.5,2.47H655l1-5h1.22l1.29,6.21h1.84L661.43,3h2.36l.66,3.24h1.33l.54-2.64h2.15l.88,4.25h2.56l1.17-5.61H675L676.64,10h2.15L680,4.09h1.74l.62,3.06h2.36l.71-3.4h1.84L687.65,2h1.43l1.5,7.15h2.15l.74-3.57h1.43l.39,2h1.33l.71-3.4h1.42l.89,4.26h1.54L701.87,5h1.53l.33,1.61h1.84l1-4.59h1.22l1.7,8h2.15l1.17-5.53h1.64l.69,3.31h1.64l1-4.76h2l.58,2.81h2.06l.46-2.22h1.74l.79,3.75h2.47L729,2.22h2.47l1.58,7.4h1.85L736,4.35h1l.79,3.74h1.95l1.13-5.28h2.26l.69,3.24h2l.54-2.56h1.95l1.12,5.2h2.12l.74-3.49h2.1L755,7.49h2.17l1.23-5.7h2.37L761.43,5h2.17l.65,3h2.37l1.11-5.11h1.85l.71,3.32h1.65l.92-4.17h1.44L775,5H777l.49-2.22h2.18l.54,2.47h1.35l.72-3.23h2.16L769.53,90.48l-57.19,150L664.8,263V1500.48H64.8v-754"/><path class="cls-9" d="M69.31,365.33l2.4,0,.61,22.89,3.05,0,.52-20.48,3.71,0,.3,11.55,2.4,0,.44-17.24,3.27,0,.28,10.71,2.4,0,.4-15.52,2.39,0L92,376.32l2.83,0,.56-21.55,2.61,0,.33,12.39,2,0,.41-15.95,2.4,0,.53,20,2.07,0,.41-15.95,2.07,0,.27-10.67,2.07,0,.34,12.87,1.85,0,.26-10.09,2.18,0,.14,5.35,1.85,0,.33-12.61,2.18,0,.22,8.4,2.18,0,.29-11.21,2,0,.38,14.38,1.63,0,.33-12.61,1.85,0,.17,6.3h1.52l.32-12.18,2,0,.4,14.91,1.85,0,.45-17.29,2,0,.28,10.22,2.28,0,.35-13.26,1.85,0,.26,9.56,2.29,0,.22-8.41,1.85,0,.39,14.49,1.74,0,.53-20.06,2.4,0,.42,15.43,2.18,0,.49-18.55,2.07,0,.26,9.65,2.29,0,.21-7.87,2.18,0,.34,12.49,2.29,0,.49-18.33,2.4,0,.27,10,2.73,0,.36-13.59,2.29,0,.49,17.41,1.74,0,.35-12.73,1.85,0,.13,4.83,2.18,0,.39-14,2.07,0,.45,16.15,2.18,0,.4-14.14,1.75,0,.19,6.82,2.29,0,.38-13.6,2.29,0,.26,8.71,2.4,0,.33-11.66,2.39,0,.33,14.09,2.06,0,.24-10.44,1.95,0,.11,4.74,2.5,0,.25-11.3,2.18,0,.15,6.94,2.5,0,.24-10.44,2.28,0,.29,12.41,2.06,0,.24-10.33,2.28,0,.11,5.15H219l.27-11.84,2.24,0,.21,9.11,2,0L224,285l2.24,0,.31,13.39,2,0,.36-15.93,2.46,0,.24,9.95h1.95l.16-7.18h1.59l.12,5.26,2,0,.18-7.61h1.66l.13-6,2.1,0,.46,19.28,1.88,0,.37-16.14,2,0,.25,10.93,2.1,0,.43-18.37,2.09,0,.09,3.86,2.1,0,.13-5.81,2,0,.3,12.69,2,0,.23-10,1.8,0,.14,5.82,1.88,0,.29-12.7,2.24,0,.24,10.3h1.88l.31-13,2.09,0,.22,9.11,1.88,0,.07-3.3,2.24,0,.13,5.33,2,0,.37-15.64,2.24,0,.16,6.94h1.88l.23-9.62,2.17,0,.29,12.2,2.1,0,.32-14.2,2.39,0,.19,8.06h1.88l.14-6.32,1.89,0,.22,9.68,2,0,.37-15.79,2.31,0,.23,9.39,2,0,.18-7.82,2,0,.23,10,2.32,0,.41-17.37,2.17,0,.27,11.49,2.39,0L309,240l2.24,0,.26,10.8,2.39,0,.37-16.14,2.47,0,.45,18.85,2.17,0,.27-11.76,2,0,.34-14.35,2.46,0,.35,14.71h1.95l.25-10.41,2.32,0,.15,6.51,2,0,.49-20.67,2.1,0,.63,26.21,2.17,0,.71-29.93,2,0,.38,15.73,2.39,0,.43-18.41,2.07,0,.41,21.35,2.09,0,.21-11.63,1.73,0,.11,5.85,1.66,0,.44-24.06,2.17,0,.24,12.95,1.66,0,.09-5,1.37,0,0,2.23s1.52.4,1.52,0,.33-17.7.33-17.7l1.65,0,.21,11,1.88,0,.15-8.38,2,0,.2,10.58,2.09,0,.42-22.69,2.09,0,.21,10.85,2,0,0-3.39,1.23,0,0,2,1.66,0,.26-14,2.52,0,.11,5.78,2.09,0,.27-14.3,1.94,0,.2,10.36,1.8,0,.15-8.38,1.37,0,.11,5.43,1.72,0,.27-14.46,2.17,0,.3,15.65,2.09,0,.39-20.75,2,0,.31,15.79,1.8,0,.25-13.59,2,0,.3,15.58,1.88,0,.49-26,2.09,0,.34,17.46,2.09,0,.45-23.5,2.09,0,0,2.58,1.8,0,.14-7.16,1.94,0,.24,12.39,2.31,0,.22-11.79,2,0,.11,5.5,1.51,0,.28-14.89,3-.06.06,3.07,1.58,0,.1-5.56,2.31,0,.16,8,1.87,0,.27-14.17,2,0,.16,8.35,1.59,0,.24-12.86,2.16,0,.28,13.84,2,0,.25-12.8,1.66,0,.15,7.72,1.72,0,.31-16.2,2,0,.1,5.29,2.23,0,.18-9.47,2.6,0,.23,11.68,1.81,0,.32-17.14,2.75-.05.22,11.13,1.87,0,.2-10.34,1.8,0,.11,5.57,1.81,0,.26-13.59,1.58,0,.09,4.67,2,0L463.54,87l2.31,0,.15,7.72,2.24,0,.23-11.86,2.74,0,.14,6.74,2.31,0,0-3,1.73,0,.17,8.41,1.8,0,.36-18.22,2.45,0,.11,5.64,2,0,.24-12.66,1.81,0,.15,7.58,1.8,0,.23-11.72,2.82,0,.27,13.34,2.24,0L492.27,61l2.31,0,.19,9.59,1.81,0,.17-8.75,1.88,0,.1,5.21,1.81,0,.31-15.78,2.39,0,.09,4.52,1.8,0,.2-9.84,2.17,0L507.78,59l2,0,.36-18,2.1,0,.23,10.41,2,0,.15-7.46,2,0,.1,4.52,1.87,0,.38-18,2.1,0,.14,6.46,2.17,0,.27-12.33,1.8-.09.47,7.75,1.8-.1.34-6.22,1.95-.11.19,3.15,1.64-.09.45-8,2.09-.11L535,32.1l2.1-.11.6-10.81,1.87-.1.22,3.68,2-.11.29-5.25,1.64-.08.43,6.88,1.72-.09.26-4.88,1.43-.07.2-3.68,1.72-.09.33,5.34,2-.1.23-4.2,1.42-.08.56,9.08,1.65-.08.48-8.63,1.94-.11.3,4.88,1.8-.09.51-9.16,2-.11.4,6.48,1.87-.1.28-5.1,2-.11.52,8.35,1.95-.11.58-10.65,1.73-.1.49,7.88,2.32-.12L575.38,10l1.88-.1.63,10.15,1.64-.09.4-7.13,1.27-.07.21,3.48,1.65-.09.35-6.38,1.72-.09.46,7.34,1.72-.09.39-7,2.17-.12.23,3.68,1.87-.1.14-2.63,1.65-.08.39,6.21,1.8-.1.58-10.51,1.19-.06.33,5.21,1.12-.06.22-4,2.1-.11.31,5,1.5-.08.18-3.45,1.58-.08.21-3.75,1.87-.11.49,7.88,2.26-.12.4-7.29,1.88-.1.3,4.8,1.65-.09.37-4.34H616l.43,5.25h2l.66-7.95h2.21l.4,4.83h1.76l.27-3.34h1.68l.48,5.82h1.76L628.25,3h2l.49,6h2.07l.32-4h2.46l.23,2.91h1.68L638,2.13h1.83l.54,6.46h2.22l.41-5h2.22l.63,7.63H648l.53-6.49h2.3l.45,5.42h2.3L654.18,3h2.07l.72,8.73H659l.51-6.17H662l.26,3.08h2.3L665,2.35h1.37l.65,7.76h2.07l.53-6.38h2.64l.34,4h1.49l.27-3.3h2.41l.44,5.32h2.88l.59-7h2.18l.81,9.68h2.42l.61-7.34h2L689,8.94h2.64L692,4.69h2.06l.19-2.24h1.6l.75,8.94H699l.37-4.47H701l.2,2.45h1.49l.35-4.26h1.61l.44,5.32h1.73l.34-4.15h1.73l.16,2h2.07l.49-5.74H713l.85,10h2.42l.58-6.92h1.84L719,9.79h1.84l.5-5.95h2.31L724,7.35h2.3l.23-2.77h2l.39,4.68h2.77l.55-6.49h2.77l.79,9.26h2.07l.56-6.6h1.15l.39,4.68h2.19l.57-6.59h2.53l.35,4h2.3l.27-3.19h2.19l.55,6.49h2.38l.37-4.36H756l.24,2.87h2.43l.61-7.13h2.66l.34,4h2.43L765,10h2.65l.56-6.39h2.07l.36,4.15h1.85l.46-5.21h1.61l.33,3.72h2.31l.24-2.76h2.44l.27,3.08h1.5l.36-4h2.41l-14.87,88-57.19,150-47.53,22.52V1500.6h-600V558.09"/><path class="cls-10" d="M64.82,1500.72h600V263.24l47.53-22.52,57.19-150L784.33,3.07h-2.66V7.92H780V4.22h-2.68V7.54h-2.55V3.07H773V9.33h-2v-5h-2.3V12h-2.94V7.54H763V2.69H760.1v8.55h-2.68V7.79h-2.6V13h-2.64V5.24h-2.42V9.07H747.2V4.22h-2.81v7.92H742V6.52h-1.28v7.91h-2.3V3.33h-3.06v7.78h-3.06V5.5H730.1V8.82h-2.56V4.6H725v7.15h-2v-5H720.9v8.3h-2.68v-12h-1.53V10h-2.3V7.54h-1.91v5h-1.92V6.14h-1.78v5.1h-1.66V8.31h-1.79v5.36h-2.68V2.94h-1.79V5.62h-2.3v5.11h-2.93V6.14h-2.17v8.8h-2.68V3.33h-2.43v8.42h-3.19V5.37h-2.68v4h-1.66V4.48h-2.94v7.66h-2.29V2.82h-1.54v7.53H671.5V6.65h-2.68v7.4h-2.3V3.58h-2.3v8.56h-2.55V5.62h-2.55v7.79h-2.43V4.26h-2.47v6.05h-2.46V2.56h-2V9.45h-1.87V6h-2.72v4.77h-2.3V3.58h-2.21v8.6h-2v-7h-1.87v4h-2V3.41h-2.47v9.53h-2.21V6.65h-1.7v4.76h-1.88V5.28h-2.12v8.26h-2.56V3.5h-2.12V7.75H618v3.92h-1.7V5.28h-2.39V9.79h-1.27V3.16h-1.36V15.07h-2V7.16h-1.87v3H605.2V5.45h-2.47v8h-2V4.09h-2v7.24H597V6.9H595.5V15h-1.87V2.05H591.5V14h-2.64v-10h-2V16h-2.21V5.37h-2.21v5.79h-2.13V2.9h-2.3V13.28h-2V7.07H573.8v9.79h-1.87V5.28h-1.62v4.77H568V3.24h-2V7.41h-1.61v5.53h-2V4.18h-1.87v6h-2.22V5.45h-2.12V17.71h-2.39V2.9H551.5V12h-1.87V8h-2.21v7.06h-2V5.2h-2V19.67h-2.55V11.75h-2.47V32.86H536.1V27.33h-2.39v8.76h-2.29V23.33H529V44.52h-2.3V28.18H524.1V39.75H522V34.22h-2.81V52.77H517V46.39h-2.21v10.3h-2.13V44.94H510v20.6h-2.64V49.2H504V63h-2.13V53.71h-2.12V68.6h-2.39V61.71h-2.89V83.16h-2.13V72.86h-2v3.57h-2.72V68.18h-3.24v14h-2.64V72.69H479V85.54h-2.38v-5.7h-1.88v16h-2.12V89h-2.13V101.2h-2.21V87.58H465v20.17H462.9V93.45h-3.06V104.6H457.2V98.14h-2.38V117.2h-2v-9.45h-2v15.07h-2.38V105.88h-2.56V121H444V110.82h-2.38V127.5h-2.21v-9.79h-2.73v6.55h-1.87v-3.74h-3.57v17.53h-1.79v-6.72h-2.38V145.2h-2.73V130.05h-2.3v8.43h-2.12v-3.15h-2.47V163H415V141.62h-2.47v30.64h-2.21V153.2H408v16h-2.13V149.88H403.5v24.43H401V155.16h-2.55v17h-2v-6.64h-1.62v9.87h-2.13V162.73h-2.3v16.85h-2.46v-7.06h-3V189h-2v-2.38h-1.45v4h-2.29V177.37h-2.47v26.72h-2.47V191.16h-2.38V201h-2.22V187.58h-1.95v20.85c0,.51-1.79,0-1.79,0v-2.72h-1.62v5.87h-2V195.75h-2.55v28.34h-2v-7.15h-2v13.71h-2.47V204.77H351V226.6h-2.81V207.5H345.8V243h-2.55V211.16h-2.47v24.51h-2.39v-7.92h-2.72v12.34h-2.3V222.22h-2.89v17H328.1v14h-2.56V230.31h-2.89v19.14h-2.81v-13.1H317.2v18h-2.81v-14h-2.55V261h-2.72V248.86h-2.39v9.28h-2.38V246.73h-2.72v18.72h-2.3V253.71h-2.21v7.49H294.9v-9.79h-2.8v16.85h-2.47V253.45h-2.55v11.41h-2.22v-8.43h-2.64V275h-2.38v-6.47H277.2v3.91H275V261.37h-2.47v15.4h-2.21V264.26h-2.64v15.07h-2.21v-7.07h-2.13v11.83H261v-15.4h-2.38v6.89h-2.47V270.9h-2.47v21.79h-2.46V279.41h-2.39v19.15h-2.21v-23.4h-2.47v7.06h-2v9h-2.29v-6.38h-1.88v8.51h-2.29V281.28h-2.9v18.9h-2.3V283.92h-2.63v14.39h-2.39V287.24H222.9v14h-2.17V295h-2.68v12.25h-2.42V292.22H213V304.6H210v-8.42h-2.55v13.4h-2.94v-5.74h-2.3v12.38H199.8V299.11H197V312.9h-2.81V302.31H191.5v16.08h-2.68v-8.3h-2v16.73h-2.56V307.16H181.8v16.59h-2.55v-5.87h-2.17v15.06H175V311.75h-2.68v16.09h-3.19V315.71h-2.81v21.7h-2.68V322.22h-2.55v9.32h-2.68V319.79H156v22h-2.55V323h-2.81v23.74h-2V329.11h-2.17v10h-2.68V327.45h-2.17v15.71H138.9V330.72h-2.29V351.2h-2.17V333.07h-2.3V347.5h-1.79v-7.66h-2.17v14.93h-1.91V337.28H124v13.28h-2.55V340.35h-2.56v14.93h-2.17v-6.51h-2.55v12H112V345.07h-2.43v12.64h-2.42V376.6h-2.43V352.35h-2.81v18.89H99.59V356.18H96.52v25.53H93.2V358.22H90.39V376.6h-2.8v-13H83.76V384H81V370H76.61v24.26H73V366.39H70.22v19.4H67.16V369.71H64.82Z"/><path class="cls-11" d="M64.81,372.84V1629.4h600V263.12l47.53-22.52,57.19-150,14.6-86.43h-2.47V9.08H780V5.38h-2.68V9.54h-2.55V6.2H773v6.26h-2v-5h-2.3v7.66h-2.93V10.67H763V5.82h-2.93v8.55h-2.68V10.92h-2.6v5.24h-2.64V8.37h-2.42V12.2h-2.56V7.35h-2.8v7.91H742V9.65h-1.28v7.91h-2.29V6.45h-3.07v7.79h-3.06V8.62h-2.17v3.32h-2.56V7.73H725v7.15h-2v-5h-2v8.3h-2.68V6.2h-1.54v6.89h-2.29V10.67h-1.92v5h-1.91V9.26h-1.79v5.11h-1.66V11.43h-1.79v5.36h-2.68V6.07h-1.79V8.75h-2.29v5.11h-2.94V9.26h-2.17v8.81h-2.68V6.45h-2.43v8.43h-3.19V8.5h-2.68v3.95h-1.66V7.6h-2.93v7.66h-2.3V5.94h-1.53v7.54h-2.56V9.77h-2.68v7.41h-2.3V6.71h-2.29v8.55h-2.56V8.75h-2.55v7.79h-2.43V7.39h-2.46v6h-2.47V5.69h-2v6.89h-1.88V9.09h-2.72v4.77h-2.3V6.71H640.6v8.6h-2v-7h-1.87v4h-2V6.54h-2.47v9.53h-2.21V9.77h-1.7v4.77h-1.87V8.41h-2.13v8.26h-2.55v-10h-2.13v4.26H618v3.91h-1.7V8.41h-2.38v4.51H612.6V6.28h-1.36V18.2h-2V10.28h-1.87v3h-2.13V8.58h-2.46v8h-2V7.22h-2v7.23h-1.87V10h-1.45v8.08h-1.87V5.18h-2.13V17.09h-2.64v-10h-2V19.14h-2.22V8.5h-2.21v5.78h-2.13V6h-2.29V16.41h-2V10.2h-2.21V20h-1.87V8.41H570.3v4.77H568V6.37h-2v4.17h-1.62v5.53h-2V7.31H560.6v6h-2.21V8.58h-2.13V20.84h-2.38V6h-2.39v9.11h-1.87v-4h-2.21V18.2h-2V8.33h-2V22.79h-2.55V14.88H538.3V36h-2.21V30.45h-2.38v8.77h-2.3V26.45h-2.47v21.2h-2.3V31.31h-2.55V42.88H522V37.35h-2.81V55.9H517V49.52h-2.21v10.3h-2.13V48.07H510v20.6h-2.64V52.33H504V66.11h-2.12V56.84h-2.13V71.73h-2.39V64.84h-2.89V86.28h-2.13V76h-2v3.57h-2.72V71.31h-3.24v14h-2.63V75.82H479V88.67H476.6V83h-1.87V99H472.6V92.16h-2.13v12.17h-2.21V90.71H465v20.17H462.9V96.58h-3.07v11.15h-2.64v-6.47h-2.38v19.07h-2v-9.45h-2v15.06h-2.38V109h-2.55v15.15H444V113.94h-2.38v16.68h-2.21v-9.78h-2.73v6.55h-1.87v-3.74h-3.57v17.53h-1.79v-6.73h-2.38v13.88h-2.73V133.18h-2.29v8.42h-2.13v-3.15h-2.47v27.66H415V144.75h-2.47v30.64H410.3V156.33H408v16h-2.12V153h-2.39v24.42H401V158.28h-2.55v17h-2v-6.64h-1.62v9.87h-2.13V165.86h-2.29v16.85h-2.47v-7.06h-3v16.51h-2v-2.39h-1.45v4h-2.29V180.5h-2.47v26.72H374.3V194.28h-2.38v9.88h-2.21V190.71h-2v20.85c0,.51-1.79,0-1.79,0v-2.72h-1.62v5.87h-1.95V198.88h-2.56v28.34h-1.95v-7.15h-2.05v13.7h-2.47V207.9h-2.42v21.83h-2.81V210.62h-2.34v35.49h-2.55V214.28h-2.47v24.51h-2.38v-7.91h-2.73v12.34h-2.3V225.35h-2.89v17h-2.38v14h-2.56v-22.9h-2.89v19.15h-2.81v-13.1h-2.64v18h-2.8v-14h-2.56v20.6h-2.72V252h-2.38v9.27h-2.39v-11.4h-2.72v18.72h-2.3V256.84h-2.21v7.49H294.9v-9.79h-2.81v16.85h-2.47V256.58h-2.55V268h-2.22v-8.43h-2.63v18.55h-2.39v-6.46h-2.64v3.91H275V264.5h-2.47v15.4H270.3V267.39h-2.64v15.06h-2.21v-7.06h-2.13v11.83H261v-15.4h-2.38v6.89h-2.47V274h-2.46v21.79h-2.47V282.54h-2.39v19.15h-2.21V278.28h-2.47v7.07h-1.95v9h-2.3V288h-1.87v8.51h-2.3V284.41h-2.9v18.9h-2.29V287.05h-2.64v14.38h-2.39V290.37H222.9v14h-2.17v-6.25h-2.68v12.25h-2.43V295.35h-2.68v12.38H210v-8.42h-2.55v13.4h-2.94V307h-2.29v12.38h-2.43V302.24H197V316h-2.81v-10.6h-2.68v16.09h-2.68v-8.3h-2v16.72h-2.55V310.28h-2.43v16.6h-2.55V321h-2.17v15.06h-2V314.88h-2.68V331h-3.19V318.84h-2.81v21.7h-2.68V325.35h-2.55v9.32h-2.68V322.92H156v22h-2.55V326.11h-2.81v23.75h-2V332.24h-2.17v10h-2.68V330.58h-2.17v15.7H138.9V333.85h-2.3v20.48h-2.17V336.2h-2.3v14.42h-1.79V343h-2.17V357.9h-1.91V340.41H124v13.28h-2.55V343.48h-2.56v14.93h-2.17V351.9h-2.55v12H112V348.2h-2.43v12.64h-2.42v18.89h-2.43V355.48h-2.8v18.89h-2.3V359.31H96.51v25.53H93.19V361.35h-2.8v18.38H87.58v-13H83.75v20.43H80.94V373.09H76.6v24.26H73V369.52h-2.8v19.4H67.15V372.84Z"/><path class="cls-12" d="M64.8,376l0,1382.11h600V263l47.54-22.52,57.19-150,14.4-85.21h-2.28v5H780V6.53h-2.68v5h-2.55V9.33H773V15.6l-2,0v-5h-2.3v7.66H765.7V13.8H763V8.94h-2.94V17.5H757.4V14.05h-2.6v5.23h-2.64V11.5h-2.42v3.83h-2.55V10.48h-2.81v7.91H742V12.77h-1.27v7.92h-2.3V9.58h-3.07v7.79h-3.06V11.75h-2.17v3.32h-2.55V10.86H725V18h-2V13h-2v8.3h-2.68v-12h-1.53v6.89h-2.3V13.8h-1.92v5h-1.91V12.39h-1.79V17.5H707.1V14.56h-1.79v5.36h-2.68V9.2h-1.78v2.68h-2.3V17h-2.94v-4.6h-2.17V21.2h-2.68V9.58h-2.42V18h-3.2V11.62h-2.68v4H680.8V10.73h-2.93v7.66h-2.3V9.07H674V16.6h-2.56V12.9H668.8v7.41h-2.29V9.84h-2.3v8.55h-2.56V11.88H659.1v7.79h-2.42V10.52h-2.47v6h-2.47V8.82h-2v6.89h-1.88V12.22H645.1V17h-2.3V9.84h-2.21v8.59h-2v-7h-1.87v4h-2V9.67h-2.46V19.2h-2.22V12.9h-1.7v4.77h-1.87V11.54h-2.13V19.8h-2.55v-10h-2.13V14H618v3.91h-1.7V11.54h-2.38v4.51h-1.28V9.41h-1.36V21.33h-2V13.41h-1.88v3h-2.12V11.71h-2.47v8h-2V10.35h-2v7.23h-1.87V13.16h-1.45v8.08h-1.87V8.31h-2.13V20.22h-2.63v-10h-2V22.26h-2.21V11.62h-2.22v5.79h-2.12V9.16H578V19.54h-2V13.33h-2.21v9.78h-1.87V11.54h-1.62v4.77H568V9.5h-2v4.17h-1.62V19.2h-2V10.43h-1.87v6h-2.21V11.71h-2.13V24h-2.38V9.16h-2.39v9.1h-1.87v-4H547.4v7.07h-2V11.45h-2.05V25.92h-2.55V18h-2.47v21.1h-2.21V33.58H533.7v8.77h-2.3V29.58h-2.47V50.77h-2.3V34.43h-2.55V46H522V40.48h-2.81V59H517V52.65H514.8V62.94h-2.12V51.2H510V71.8h-2.64V55.45H504V69.24h-2.12V60h-2.13V74.86h-2.38V68h-2.9V89.41h-2.12V79.11h-2v3.58h-2.72V74.43h-3.23v14H481.7V78.94H479V91.8h-2.38V86.09h-1.87v16h-2.13V95.28h-2.13v12.17h-2.21V93.84H465V114h-2.13V99.71h-3.07v11.15h-2.63v-6.47H454.8v19.06h-2V114h-2v15.06h-2.38V112.14h-2.55v15.14H444V117.07h-2.38v16.68H439.4V124h-2.72v6.55H434.8v-3.75h-3.57v17.54h-1.79v-6.73h-2.38v13.87h-2.72V136.31H422v8.42h-2.13v-3.15h-2.47v27.66H415V147.88h-2.46v30.64h-2.22V159.45H408v16h-2.12V156.14h-2.39v24.42H401V161.41h-2.56v17h-2V171.8H394.8v9.87h-2.12V169h-2.3v16.85h-2.47v-7.07h-3v16.51h-2V192.9h-1.44v4h-2.3V183.62h-2.47v26.73h-2.47V197.41h-2.38v9.87H369.7V193.84h-2v20.85c0,.51-1.79,0-1.79,0V212h-1.61v5.87h-2V202h-2.56v28.34h-1.95V223.2h-2.05v13.7h-2.46V211h-2.43v21.83h-2.81V213.75h-2.34v35.49h-2.55V217.41h-2.47v24.51h-2.38V234h-2.73v12.34h-2.29V228.48h-2.9v17h-2.38v13.95h-2.55V236.56h-2.9v19.15h-2.81V242.6h-2.63v18h-2.81v-14h-2.56v20.59H309.1V255.11h-2.38v9.28h-2.38V253h-2.73v18.72h-2.3V260H297.1v7.48h-2.21v-9.78h-2.81v16.85h-2.47V259.71h-2.55v11.4h-2.21v-8.42h-2.64v18.55h-2.39v-6.47h-2.63v3.92H275V267.62h-2.46V283h-2.22V270.52h-2.64v15.06h-2.21v-7.06h-2.13v11.83H261V274.94h-2.39v6.9h-2.47v-4.68H253.7v21.78h-2.47V285.67h-2.38v19.15h-2.22V281.41h-2.47v7.07h-1.95v9h-2.3v-6.39H238v8.51h-2.3V287.54h-2.89v18.89h-2.3V290.18h-2.64v14.38h-2.38V293.5h-2.64v14h-2.17v-6.26H218v12.26h-2.43V298.48h-2.68v12.38H210v-8.43h-2.55v13.41h-2.93v-5.75h-2.3v12.39h-2.43V305.37H197v13.79h-2.81v-10.6h-2.68v16.09H188.8v-8.3h-2v16.72h-2.55V313.41h-2.43V330h-2.55v-5.87h-2.17V339.2h-2V318h-2.68v16.08h-3.2V322h-2.8v21.7h-2.69V328.48H161.1v9.32h-2.68V326.05H156v22h-2.55V329.24h-2.81V353h-2V335.37h-2.17v10h-2.68V333.71h-2.17v15.7h-2.68V337h-2.3v20.47h-2.17V339.33h-2.3v14.42h-1.78v-7.66h-2.18V361h-1.91V343.54H124v13.28H121.4V346.6h-2.55v14.94h-2.17V355h-2.56v12H112V351.33h-2.42V364H107.1v18.89h-2.42V358.6h-2.81v18.9h-2.3V362.43H96.51V388H93.19V364.48H90.38v18.38H87.57v-13H83.74v20.42H80.93v-14H76.59v24.26H73V372.65H70.21v19.4H67.14V376Z"/><path class="cls-13" d="M64.79,379.09l0,1507.67h600V262.88l47.54-22.52,57.19-150,14.21-84h-2.08v5H780V7.69h-2.68v5.84h-2.56V12.45H773v6.28l-2.05,0v-5h-2.3v7.66h-2.93V16.92H763V12.07h-2.94v8.56h-2.68V17.18h-2.6v5.23h-2.63V14.63h-2.43v3.82h-2.55V13.6h-2.81v7.92h-2.43V15.9h-1.27v7.92h-2.3V12.71h-3.06V20.5h-3.07V14.88h-2.17V18.2h-2.55V14H725v7.15h-2.05v-5h-2v8.29H718.2v-12h-1.53v6.9h-2.3V16.92h-1.92v5h-1.91V15.52h-1.79v5.11h-1.66V17.69h-1.78v5.36h-2.69V12.33h-1.78V15h-2.3v5.1H695.6V15.52h-2.17v8.81h-2.68V12.71h-2.42v8.43h-3.19V14.75h-2.69v4h-1.66V13.86h-2.93v7.66h-2.3V12.2H674v7.53h-2.55V16h-2.69v7.4H666.5V13h-2.3v8.55h-2.55V15h-2.56V22.8h-2.42V13.65H654.2v6h-2.47V11.94h-2v6.9h-1.87V15.35h-2.73v4.76h-2.3V13h-2.21v8.59h-2v-7h-1.87v4h-2V12.8h-2.46v9.53h-2.22V16h-1.7V20.8h-1.87V14.67h-2.13v8.25h-2.55v-10h-2.13v4.26h-1.79v3.91h-1.7V14.67h-2.38v4.51h-1.28V12.54h-1.36V24.45h-2V16.54h-1.87v3h-2.13V14.84h-2.47v8h-2V13.48h-2v7.23h-1.87V16.28h-1.44v8.09H593.6V11.43h-2.12V23.35h-2.64v-10h-2V25.39h-2.21V14.75h-2.22v5.79h-2.12V12.28H578V22.67h-2V16.45h-2.22v9.79H571.9V14.67h-1.62v4.76H568v-6.8h-2V16.8h-1.62v5.53h-2V13.56h-1.87v6h-2.21V14.84h-2.13V27.09h-2.38V12.28h-2.38v9.11H549.6v-4h-2.21v7.06h-2V14.58h-2V29.05h-2.56V21.14h-2.47v21.1h-2.21V36.71h-2.38v8.77h-2.3V32.71h-2.47V53.9h-2.3V37.56h-2.55V49.14h-2.13V43.6h-2.8V62.16H517V55.77h-2.22v10.3h-2.12V54.33h-2.73V74.92h-2.63V58.58H504V72.37h-2.13V63.09h-2.13V78h-2.38v-6.9h-2.9V92.54h-2.12V82.24h-2.05v3.58h-2.72V77.56h-3.23v14h-2.64V82.07H479V94.92h-2.39v-5.7h-1.87v16h-2.13V98.41h-2.13v12.17h-2.21V97H465v20.17h-2.13v-14.3h-3.06V114h-2.64v-6.47h-2.39v19.06h-2v-9.44h-2V132.2h-2.38V115.26h-2.55v15.15H444V120.2H441.6v16.68h-2.21v-9.79h-2.72v6.56h-1.88V129.9h-3.57v17.53h-1.79v-6.72h-2.38v13.87h-2.72V139.43H422v8.43H419.9v-3.15h-2.47v27.66H415V151H412.5v30.64h-2.22V162.58H408v16h-2.13V159.26h-2.38v24.43H401V164.54h-2.56v17h-2v-6.64h-1.62v9.88h-2.12V172.11h-2.3V189H387.9V181.9h-3v16.51H383V196h-1.45v4h-2.3V186.75h-2.47v26.73h-2.47V200.54H371.9v9.87h-2.21V197h-2v20.85c0,.51-1.79,0-1.79,0v-2.73h-1.61V221h-2V205.14h-2.55v28.34h-2v-7.15h-2V240h-2.47V214.16h-2.43V236h-2.81V216.88h-2.34v35.49h-2.55V220.54h-2.47v24.51h-2.38v-7.91h-2.72v12.34h-2.3V231.6h-2.9v17h-2.38v13.95h-2.55V239.69h-2.9v19.15h-2.8V245.73h-2.64v18h-2.81V249.82h-2.55v20.59h-2.73V258.24h-2.38v9.28h-2.38V256.11H301.6v18.73h-2.29V263.09h-2.22v7.49h-2.21V260.8h-2.81v16.85H289.6V262.84h-2.55v11.4h-2.21v-8.42H282.2v18.55h-2.38V277.9h-2.64v3.92H275V270.75H272.5v15.41h-2.22V273.65h-2.63v15.06h-2.22v-7.06h-2.12v11.83H261V278.07h-2.39V285h-2.46v-4.69h-2.47v21.79h-2.47V288.8h-2.38v19.14h-2.22v-23.4h-2.46v7.06h-2v9h-2.3v-6.39H238v8.51h-2.3V290.67h-2.89v18.89h-2.3V293.31H227.9v14.38h-2.38V296.63h-2.64v14h-2.17v-6.26H218v12.26H215.6V301.6h-2.68V314H210v-8.43h-2.56V319H204.5v-5.75h-2.3V325.6h-2.43V308.5H197v13.78h-2.81V311.69h-2.68v16.08h-2.69v-8.29h-2V336.2H184.2V316.54h-2.43v16.6h-2.55v-5.88h-2.17v15.07h-2V321.14h-2.68v16.08h-3.19V325.09h-2.81V346.8h-2.68V331.6h-2.56v9.32h-2.68V329.18H156v22h-2.56V332.37h-2.81v23.74h-2V338.5h-2.17v9.95h-2.68V336.84h-2.17v15.7h-2.68V340.11h-2.3v20.47h-2.17V342.45h-2.3v14.43h-1.78v-7.66h-2.17v14.94h-1.92V346.67h-2.3v13.27h-2.55V349.73h-2.55v14.94h-2.17v-6.51h-2.56v11.95h-2.17V354.45h-2.42v12.64h-2.43V386h-2.42V361.73h-2.81v18.9h-2.3V365.56H96.5v25.53H93.18V367.6H90.37V386H87.56V373H83.73v20.42H80.92v-14H76.58V403.6H73V375.77H70.2v19.41H67.14V379.09Z"/><path class="cls-14" d="M64.78,382.22l0,1633.22h600V262.76l47.54-22.52,57.19-150,14-82.77h-1.89v5.08H780V8.85H777.3v6.68h-2.56v.05H773v6.29l-2.05,0v-5h-2.29v7.66h-2.94V20.05H763V15.2h-2.94v8.55h-2.68V20.31h-2.6v5.23h-2.63V17.75h-2.43v3.83h-2.55V16.73h-2.81v7.92h-2.42V19h-1.28v7.91h-2.3V15.84H735.3v7.79h-3.07V18h-2.17v3.32h-2.55V17.11H725v7.15h-2.05v-5h-2v8.3h-2.68v-12h-1.53v6.9h-2.3V20.05h-1.91v5h-1.92V18.65h-1.79v5.1h-1.66V20.82H705.3v5.36h-2.68V15.45h-1.79v2.69h-2.3v5.1H695.6V18.65h-2.17v8.8h-2.69V15.84h-2.42v8.42h-3.19V17.88h-2.68v4h-1.66V17h-2.94v7.66h-2.3V15.33H674v7.53h-2.55v-3.7h-2.68v7.4h-2.3V16.09h-2.3v8.56h-2.55V18.14h-2.56v7.78h-2.42V16.77h-2.47v6.05h-2.47V15.07h-2V22h-1.87V18.48h-2.73v4.76h-2.29V16.09h-2.22v8.6h-2v-7h-1.88v4h-2V15.92h-2.46v9.53h-2.21V19.16H628.4v4.76h-1.87V17.8H624.4v8.25h-2.55V16h-2.13v4.25h-1.78v3.92h-1.71V17.8h-2.38v4.51h-1.28V15.67h-1.36V27.58h-2V19.67H607.3v3h-2.13V18H602.7v8h-2V16.6h-2v7.24h-1.88V19.41h-1.44V27.5H593.6V14.56h-2.13V26.48h-2.64v-10h-2V28.52h-2.21V17.88h-2.21v5.79h-2.13V15.41H578V25.8h-2V19.58h-2.21v9.79h-1.88V17.8h-1.61v4.76H568V15.75h-2v4.17H564.4v5.53h-1.95V16.69h-1.88v6h-2.21V18h-2.13V30.22h-2.38V15.41h-2.38v9.11H549.6v-4h-2.22v7.06h-2V17.71h-2V32.18h-2.56V24.26h-2.46V45.37h-2.22V39.84h-2.38V48.6h-2.3V35.84h-2.47V57h-2.29V40.69h-2.56V52.26h-2.12V46.73h-2.81V65.28H517V58.9h-2.22V69.2h-2.12V57.45h-2.72v20.6H507.3V61.71H504V75.5h-2.13V66.22h-2.13V81.11h-2.38V74.22h-2.89V95.67h-2.13V85.37h-2v3.57h-2.73V80.69h-3.23v14h-2.64V85.2H479V98.05h-2.39v-5.7H474.7v16h-2.13v-6.81h-2.12v12.17h-2.22V100.09H465v20.17h-2.13V106h-3.06v11.14h-2.64v-6.46h-2.39v19.06h-2v-9.45h-1.95v15.07H448.4V118.39h-2.55v15.15H444V123.33H441.6V140h-2.22v-9.79h-2.72v6.55h-1.87V133h-3.58v17.53h-1.78v-6.72H427v13.87h-2.72V142.56H422V151h-2.13v-3.15h-2.46V175.5H415V154.14h-2.47v30.63h-2.21V165.71H408v16h-2.13V162.39h-2.38v24.43H401V167.67h-2.55v17H396.4v-6.64h-1.62v9.87h-2.12V175.24h-2.3v16.85h-2.47V185h-3v16.51h-2v-2.38h-1.45v4h-2.3V189.88h-2.47V216.6h-2.46V203.67h-2.39v9.87h-2.21V200.09h-2v20.85c0,.51-1.78,0-1.78,0v-2.72h-1.62v5.87h-2V208.26h-2.55V236.6h-2v-7.15h-2v13.71h-2.47V217.28h-2.43v21.83h-2.8V220h-2.34V255.5h-2.56V223.67h-2.47v24.51h-2.38v-7.92h-2.72V252.6h-2.3V234.73h-2.89v17h-2.39v14h-2.55V242.82h-2.89V262h-2.81V248.86h-2.64v18h-2.81v-14h-2.55v20.6h-2.73V261.37H306.7v9.28h-2.38V259.24H301.6V278h-2.3V266.22h-2.22v7.49h-2.21v-9.79h-2.81v16.85H289.6V266H287v11.4h-2.21v-8.43h-2.64V287.5h-2.38V281h-2.64v3.91H275V273.88h-2.47v15.4h-2.21V276.77h-2.64v15.07h-2.21v-7.07H263.3V296.6H261V281.2h-2.38v6.89h-2.47v-4.68h-2.47V305.2h-2.47V291.92h-2.38v19.15h-2.21v-23.4h-2.47v7.06h-2v9h-2.3v-6.38H238v8.51h-2.3V293.8h-2.89v18.89h-2.3V296.43h-2.64v14.39h-2.38V299.75h-2.64V313.8H220.7v-6.26H218V319.8H215.6V304.73h-2.69v12.38H210v-8.42h-2.55v13.4h-2.94v-5.74h-2.3v12.38h-2.42v-17.1H197v13.78h-2.81V314.82h-2.68V330.9h-2.68v-8.3h-2v16.73h-2.55V319.67h-2.42v16.59h-2.56v-5.87H177v15.06h-2V324.26h-2.68v16.09h-3.19V328.22h-2.81v21.7h-2.68V334.73h-2.56v9.32H158.4V332.31H156v21.95h-2.55V335.5h-2.81v23.74h-2.05V341.63H146.4v9.95h-2.68V340h-2.17v15.7h-2.68V343.23h-2.3v20.48H134.4V345.58h-2.29V360h-1.79v-7.66h-2.17v14.93h-1.92V349.8h-2.29v13.27h-2.56V352.86h-2.55V367.8h-2.17v-6.52h-2.55v12h-2.17V357.58h-2.43v12.64h-2.43v18.89h-2.42V364.86h-2.81v18.89h-2.3V368.69H96.49v25.53H93.17V370.73H90.36v18.38H87.55v-13H83.72v20.43H80.91v-14H76.57v24.25H73V378.9H70.19v19.41H67.13V382.22Z"/><path class="cls-15" d="M64.77,385.35l0,1758.77h600V262.64l47.54-22.52,57.19-150L783.33,8.57h-1.7V13.7H780V10h-2.68v7.52h-2.55v1.19H773V25l-2,0V20h-2.3v7.66h-2.94V23.18H763V18.33h-2.93v8.55h-2.69V23.43h-2.6v5.24h-2.63V20.88h-2.43v3.83h-2.55V19.86h-2.81v7.91h-2.42V22.16h-1.28v7.91h-2.3V19h-3.06v7.78h-3.06V21.14h-2.17v3.32H727.5V20.24H725v7.15h-2v-5h-2v8.3h-2.68v-12h-1.53V25.6h-2.3V23.18h-1.91v5h-1.92V21.77h-1.78v5.11h-1.66V23.94h-1.79v5.37h-2.68V18.58h-1.79v2.68h-2.3v5.11h-2.93v-4.6h-2.17v8.81h-2.68V19h-2.43v8.42h-3.19V21h-2.68v4h-1.66V20.11h-2.94v7.66h-2.3V18.46H674V26h-2.55V22.28h-2.68v7.41h-2.3V19.22h-2.3v8.55h-2.55V21.26h-2.55v7.79h-2.43V19.9h-2.47v6h-2.47V18.2h-2v6.89H647.8V21.6h-2.72v4.77h-2.3V19.22h-2.21v8.6h-2v-7h-1.87v4h-2V19.05h-2.46v9.53H630.1v-6.3h-1.7v4.77h-1.88V20.92H624.4v8.26h-2.56v-10h-2.13v4.25h-1.78v3.92h-1.7V20.92h-2.39v4.51h-1.27V18.8H611.2V30.71h-2V22.8h-1.87v3h-2.13V21.09h-2.47v8h-2V19.73h-2V27h-1.87V22.54h-1.45v8.09h-1.87V17.69h-2.13V29.6h-2.64v-10h-2V31.65h-2.21V21h-2.21V26.8h-2.13V18.54H578V28.92h-2V22.71h-2.21V32.5h-1.88V20.92h-1.61v4.77H568V18.88h-2v4.17H564.4v5.53h-2V19.82h-1.87v5.95h-2.22V21.09h-2.12V33.35h-2.39V18.54h-2.38v9.11h-1.87v-4h-2.22v7.06h-2V20.84h-2V35.31h-2.55V27.39h-2.47V48.5h-2.21V43h-2.39v8.76h-2.3V39h-2.46V60.16h-2.3V43.82h-2.55V55.39h-2.13V49.86h-2.81V68.41H517V62h-2.22v10.3h-2.12V60.58h-2.72v20.6h-2.64V64.84H504V78.63h-2.13V69.35h-2.13V84.24h-2.38V77.35h-2.89V98.8h-2.13V88.5h-2v3.57h-2.73V83.82h-3.23v14h-2.64V88.33H479v12.85h-2.38v-5.7h-1.88v16h-2.12v-6.81h-2.13v12.17h-2.21V103.22H465v20.17h-2.13v-14.3H459.8v11.15h-2.64v-6.47h-2.39v19.07h-2v-9.45h-2v15.07H448.4V121.52h-2.56v15.15H444V126.46h-2.38v16.68h-2.22v-9.79h-2.72v6.55h-1.87v-3.74H431.2v17.53h-1.78V147H427v13.87h-2.72V145.69H422v8.42h-2.13V151h-2.46v27.66H415V157.26h-2.47V187.9h-2.21V168.84H408v16h-2.13V165.52h-2.38v24.42H401V170.8h-2.55v17h-2v-6.64h-1.63v9.87h-2.12V178.37h-2.3v16.85h-2.47v-7.06h-3v16.51h-2v-2.39H381.5v4h-2.3V193h-2.46v26.72h-2.47V206.8h-2.39v9.87h-2.21V203.22h-2v20.85c0,.51-1.78,0-1.78,0v-2.72h-1.62v5.87h-2V211.39H359.8v28.34h-2v-7.15h-2v13.7h-2.47V220.41h-2.42v21.83H348.1v-19.1h-2.34v35.49H343.2V226.8h-2.46v24.51h-2.39v-7.92h-2.72v12.34h-2.3V237.86h-2.89v17h-2.38v14H325.5v-22.9h-2.89v19.15H319.8V252h-2.64v18h-2.81v-14H311.8v20.6h-2.72V264.5h-2.39v9.27h-2.38v-11.4h-2.72v18.72h-2.3V269.35h-2.21v7.49h-2.22v-9.79h-2.8V283.9h-2.47V269.09H287V280.5h-2.21v-8.43h-2.64v18.56H279.8v-6.47h-2.64v3.91H275V277h-2.47v15.4h-2.21V279.9h-2.64V295h-2.21V287.9h-2.13v11.83H261v-15.4h-2.38v6.89h-2.47v-4.68h-2.47v21.79H251.2V295.05h-2.38V314.2h-2.21V290.8h-2.47v7.06h-2v9h-2.3V300.5H238V309h-2.3V296.92h-2.89v18.9h-2.3V299.56h-2.64v14.38H225.5V302.88h-2.64v14h-2.17v-6.25H218v12.25h-2.42V307.86h-2.68v12.38H210v-8.42h-2.55v13.4h-2.94v-5.74h-2.3v12.38h-2.42V314.75H197v13.79h-2.81v-10.6h-2.68V334h-2.68v-8.3h-2v16.73h-2.56V322.8h-2.42v16.59H179.2v-5.87H177v15.06h-2V327.39h-2.68v16.09h-3.19V331.35h-2.81v21.7h-2.68V337.86h-2.55v9.32H158.4V335.43H156v22h-2.55V338.63h-2.81v23.74h-2V344.75H146.4v10h-2.69V343.09h-2.17V358.8h-2.68V346.36h-2.29v20.48H134.4V348.71h-2.3v14.43h-1.79v-7.66h-2.17v14.93h-1.91V352.92h-2.3V366.2h-2.56V356h-2.55v14.93h-2.17v-6.51H114.1v11.95h-2.17V360.71H109.5v12.64h-2.42v18.89h-2.43V368h-2.81v18.89h-2.3V371.82H96.48v25.53H93.16V373.86H90.35v18.38H87.54v-13H83.71v20.43h-2.8v-14H76.57v24.26H73V382H70.18v19.4H67.12V385.35Z"/><path class="cls-16" d="M64.82,2272.8h600V262.52L712.3,240,769.49,90,783.13,9.67h-1.51v5.19H780v-3.7h-2.68v8.36h-2.55v2.32h-1.79v6.3l-2-.05v-5h-2.3v7.66h-2.94V26.31H763V21.46h-2.93V30h-2.68V26.56h-2.6V31.8h-2.64V24h-2.42v3.83h-2.56V23h-2.81V30.9h-2.42V25.29h-1.28V33.2h-2.3V22.09h-3.06v7.79h-3.06V24.26h-2.17v3.32h-2.56V23.37h-2.55v7.15h-2v-5h-2v8.3h-2.69v-12h-1.53v6.89h-2.3V26.31h-1.91v5h-1.92V24.9h-1.78V30h-1.66V27.07h-1.79v5.36H702.6V21.71h-1.79v2.68h-2.3V29.5h-2.93V24.9h-2.17v8.81h-2.68V22.09H688.3v8.43h-3.19V24.14h-2.68v3.95h-1.66V23.24h-2.94V30.9h-2.29V21.58H674v7.53h-2.55v-3.7h-2.68v7.41h-2.3V22.35h-2.3V30.9h-2.55V24.39h-2.55v7.79h-2.43V23h-2.47v6h-2.46V21.33h-2.05v6.89h-1.87V24.73h-2.72V29.5h-2.3V22.35h-2.21v8.59h-2V24h-1.87v4h-2V22.18H632.3v9.53h-2.21v-6.3h-1.7v4.77h-1.88V24.05h-2.12v8.26h-2.56v-10h-2.12v4.26h-1.79v3.91h-1.7V24.05h-2.39v4.51h-1.27V21.92H611.2V33.84h-2.05V25.92h-1.87v3h-2.13V24.22h-2.46v8h-2V22.86h-2v7.23H596.9V25.67h-1.45v8.08h-1.87V20.82h-2.13V32.73h-2.64v-10h-1.95V34.77h-2.22V24.14h-2.21v5.78H580.3V21.67H578V32.05h-2V25.84h-2.21v9.79h-1.87V24.05h-1.62v4.77H568V22h-2v4.17h-1.61v5.53h-2V22.94h-1.87v6h-2.22V24.22h-2.12V36.48h-2.39V21.67h-2.38v9.1h-1.87v-4h-2.21v7.07h-2V24h-2V38.43h-2.55V30.52h-2.47V51.63h-2.21V46.09h-2.39v8.77h-2.29V42.09H528.9v21.2h-2.3V46.94h-2.55V58.52h-2.13V53h-2.81V71.54H517V65.16h-2.21v10.3h-2.13V63.71h-2.72v20.6h-2.64V68H504V81.75h-2.13V72.48h-2.12V87.37h-2.39V80.48h-2.89v21.44H492.3V91.63h-2V95.2h-2.72V86.94H484.3v14h-2.64V91.46h-2.72v12.85h-2.38V98.6h-1.87v16h-2.13v-6.8h-2.13V120h-2.21V106.35H465v20.17h-2.12v-14.3h-3.07v11.15h-2.64V116.9h-2.38V136h-2v-9.45h-2v15.06h-2.38V124.65h-2.56V139.8H444V129.58h-2.38v16.68h-2.21v-9.78h-2.73V143h-1.87v-3.74H431.2v17.53h-1.79v-6.73H427V164H424.3V148.82H422v8.42h-2.12v-3.15h-2.47v27.66h-2.47V160.39h-2.47V191h-2.21V172H408v16h-2.13V168.65h-2.38v24.42H401V173.92h-2.55v17h-2v-6.63h-1.62v9.87h-2.13V181.5h-2.3v16.85h-2.46v-7.06h-3V207.8h-2v-2.39h-1.45v4H379.2V196.14h-2.47v26.72h-2.47V209.92h-2.38v9.88h-2.22V206.35h-2V227.2c0,.51-1.79,0-1.79,0v-2.72H364.3v5.87h-2V214.52h-2.55v28.34h-2v-7.15h-2v13.7h-2.47V223.54H350.9v21.83h-2.81V226.26h-2.34v35.49H343.2V229.92h-2.47v24.51h-2.39v-7.91h-2.72v12.34h-2.3V241h-2.89v17h-2.38v14h-2.56v-22.9H322.6v19.15h-2.81V255.11h-2.64v18.05h-2.81v-14h-2.55v20.6h-2.72V267.63h-2.38v9.27H304.3V265.5h-2.72v18.72h-2.3V272.48h-2.21V280h-2.21v-9.79h-2.81V287h-2.47V272.22H287v11.41h-2.22V275.2h-2.64v18.55h-2.38v-6.46h-2.64v3.91h-2.21V280.14h-2.47v15.4h-2.21V283h-2.64v15.06h-2.21V291h-2.13v11.83H261v-15.4H258.6v6.89h-2.47v-4.68h-2.47v21.79H251.2V298.18h-2.39v19.15H246.6V293.92h-2.47V301h-2v9h-2.29v-6.38H238v8.51h-2.29V300.05h-2.9v18.89h-2.3V302.69h-2.63v14.38h-2.39V306h-2.63v14h-2.17V313.8H218v12.25h-2.42V311H212.9v12.38H210v-8.43h-2.55v13.41h-2.94V322.6h-2.3V335h-2.42V317.88h-2.81v13.79h-2.81v-10.6h-2.68v16.09h-2.68v-8.3h-2v16.72h-2.56V325.92h-2.42v16.6H179.2v-5.87H177v15.06H175V330.52H172.3V346.6h-3.19V334.48H166.3v21.7h-2.68V341h-2.55v9.32h-2.68V338.56H156v22h-2.55V341.75H150.6V365.5h-2V347.88h-2.17v10h-2.68V346.22h-2.17v15.7h-2.68V349.49h-2.3V370h-2.17V351.84h-2.3v14.42H130.3V358.6h-2.17v14.94h-1.91V356.05h-2.3v13.28h-2.55V359.11h-2.56v14.94h-2.17v-6.51h-2.55v11.95h-2.17V363.84h-2.43v12.64h-2.42v18.89h-2.43V371.11h-2.81V390H99.54V374.94H96.47v25.54H93.15V377H90.34v18.38h-2.8v-13H83.71v20.42H80.9v-14H76.56V413H73V385.16H70.17v19.4H67.11V388.48H64.77Z"/><polygon class="cls-4" points="68.05 1500 0 1500 4.77 420 64.77 360 68.05 1500"/><polygon class="cls-5" points="7.41 419.03 8.46 418.49 10.63 418.28 11.59 417.79 15.1 411.13 16.69 410.3 21.57 409.81 22.84 409.15 28.59 398.25 29.35 397.86 30.32 397.78 31.12 397.37 33.15 393.51 34.39 392.86 37.92 392.48 38.8 392.02 43.37 383.37 44.53 382.76 46.29 382.57 47.18 382.11 50.59 375.68 51.75 375.08 56.28 374.54 57.17 374.08 62.8 363.52 64.14 362.82 64.17 374.86 65.36 380.77 68.05 1500 0 1500 3.61 503.91 4.9 498.12 4.93 491.73 5.45 489.42 5.52 476.81 5.98 474.76 6.07 451.56 6.73 448.6 6.78 439.4 7.35 436.87 7.41 419.03"/><polygon class="cls-6" points="10.06 418.06 11.51 417.63 13.24 419.81 14.57 419.42 17.38 410.31 19.58 409.65 23.48 414.51 25.22 413.99 29.82 399.09 30.88 398.77 31.66 399.78 32.75 399.45 34.37 394.17 36.08 393.65 38.91 397.12 40.13 396.76 43.78 384.94 45.37 384.45 46.78 386.19 48 385.82 50.73 377.05 52.32 376.57 55.95 380.94 57.17 380.57 61.67 366.2 63.51 365.63 63.53 377.67 65.9 382.39 68.05 1500 0 1500 2.89 488.86 5.45 484.22 5.47 477.73 6.5 475.88 6.55 470.04 7.47 468.39 7.54 444.85 8.85 442.48 8.89 438.19 10.01 436.16 10.06 418.06"/><polygon class="cls-7" points="12.71 417.09 14.56 416.76 15.86 421.34 17.56 421.04 19.66 409.49 22.46 408.99 25.39 419.21 27.61 418.82 31.06 399.92 32.4 399.69 32.99 401.79 34.38 401.54 35.6 394.83 37.77 394.44 39.9 401.77 41.45 401.5 44.19 386.5 46.21 386.14 47.27 389.8 48.82 389.52 50.87 378.42 52.89 378.05 55.61 387.33 57.16 387.06 60.54 368.87 62.88 368.45 62.89 380.48 66.44 384.02 68.05 1500 0 1500 2.17 473.81 5.99 470.33 6 463.74 7.54 462.35 7.59 463.26 8.95 462.03 9 438.14 10.97 436.36 11 436.97 12.67 435.45 12.71 417.09"/><polygon class="cls-8" points="15.35 416.12 17.61 415.9 18.48 422.87 20.55 422.67 21.95 408.67 25.34 408.34 27.3 423.92 30 423.66 32.3 400.76 33.93 400.6 34.32 403.79 36.02 403.63 36.83 395.49 39.47 395.24 40.88 406.42 42.77 406.24 44.59 388.07 47.05 387.82 47.75 393.42 49.64 393.23 51.01 379.78 53.46 379.54 55.27 393.73 57.16 393.54 59.41 371.55 62.24 371.27 62.26 383.29 66.97 385.65 68.05 1500 0 1500 1.44 458.75 6.53 456.43 6.54 449.74 8.59 448.82 8.62 456.49 10.44 455.67 10.47 431.43 13.09 430.25 13.11 435.76 15.32 434.75 15.35 416.12"/><polygon class="cls-9" points="18 415.15 20.66 415.04 21.09 424.39 23.53 424.3 24.23 407.85 28.23 407.69 29.2 428.62 32.38 428.49 33.53 401.6 35.46 401.52 35.65 405.79 37.65 405.71 38.05 396.16 41.16 396.03 41.87 411.06 44.09 410.97 45 389.63 47.89 389.51 48.24 397.03 50.46 396.94 51.14 381.15 54.03 381.03 54.94 400.12 57.16 400.03 58.28 374.23 61.61 374.08 61.62 386.1 67.51 387.27 68.05 1500 0 1500 0.72 443.7 7.08 442.54 7.08 435.75 9.64 435.29 9.65 449.72 11.92 449.31 11.94 424.72 15.21 424.13 15.21 434.54 17.98 434.04 18 415.15"/><polygon class="cls-10" points="68.05 1500 0 1500 0 428.65 7.62 428.65 7.62 421.75 10.69 421.75 10.69 442.94 13.41 442.94 13.41 418.01 17.32 418.01 17.32 433.33 20.64 433.33 20.64 414.18 23.71 414.18 23.71 425.92 26.52 425.92 26.52 407.03 31.11 407.03 31.11 433.33 34.77 433.33 34.77 402.43 36.98 402.43 36.98 407.8 39.28 407.8 39.28 396.82 42.85 396.82 42.85 415.71 45.41 415.71 45.41 391.2 48.73 391.2 48.73 400.65 51.28 400.65 51.28 382.52 54.6 382.52 54.6 406.52 57.15 406.52 57.15 376.9 60.98 376.9 60.98 388.9 68.05 388.9 68.05 1500"/><polygon class="cls-11" points="0 431.89 7.62 431.89 7.62 425 10.69 425 10.69 446.19 13.41 446.19 13.41 421.26 17.32 421.26 17.32 436.58 20.64 436.58 20.64 417.43 23.71 417.43 23.71 429.17 26.52 429.17 26.52 410.28 31.11 410.28 31.11 436.58 34.77 436.58 34.77 405.68 36.98 405.68 36.98 411.04 39.28 411.04 39.28 400.06 42.85 400.06 42.85 418.96 45.41 418.96 45.41 394.45 48.73 394.45 48.73 403.89 51.28 403.89 51.28 385.77 54.6 385.77 54.6 409.77 57.15 409.77 57.15 380.15 60.98 380.15 60.98 392.15 68.06 392.15 68.06 1628.8 0 1628.8 0 431.89"/><polygon class="cls-12" points="0 435.14 7.62 435.14 7.62 428.25 10.69 428.25 10.69 449.44 13.41 449.44 13.41 424.5 17.32 424.5 17.32 439.82 20.64 439.82 20.64 420.68 23.71 420.68 23.71 432.42 26.52 432.42 26.52 413.53 31.11 413.53 31.11 439.82 34.77 439.82 34.77 408.93 36.98 408.93 36.98 414.29 39.28 414.29 39.28 403.31 42.85 403.31 42.85 422.21 45.41 422.21 45.41 397.7 48.73 397.7 48.73 407.14 51.28 407.14 51.28 389.02 54.6 389.02 54.6 413.02 57.15 413.02 57.15 383.4 60.98 383.4 60.98 395.4 68.07 395.4 68.07 1757.6 0 1757.6 0 435.14"/><polygon class="cls-13" points="0 438.39 7.62 438.39 7.62 431.5 10.69 431.5 10.69 452.69 13.41 452.69 13.41 427.75 17.32 427.75 17.32 443.07 20.64 443.07 20.64 423.92 23.71 423.92 23.71 435.67 26.52 435.67 26.52 416.77 31.11 416.77 31.11 443.07 34.77 443.07 34.77 412.18 36.98 412.18 36.98 417.54 39.28 417.54 39.28 406.56 42.85 406.56 42.85 425.45 45.41 425.45 45.41 400.94 48.73 400.94 48.73 410.39 51.28 410.39 51.28 392.26 54.6 392.26 54.6 416.26 57.15 416.26 57.15 386.65 60.98 386.65 60.98 398.65 68.08 398.65 68.08 1886.4 0 1886.4 0 438.39"/><polygon class="cls-14" points="0 441.64 7.62 441.64 7.62 434.75 10.69 434.75 10.69 455.94 13.41 455.94 13.41 431 17.32 431 17.32 446.32 20.64 446.32 20.64 427.17 23.71 427.17 23.71 438.92 26.52 438.92 26.52 420.02 31.11 420.02 31.11 446.32 34.77 446.32 34.77 415.43 36.98 415.43 36.98 420.79 39.28 420.79 39.28 409.81 42.85 409.81 42.85 428.7 45.41 428.7 45.41 404.19 48.73 404.19 48.73 413.64 51.28 413.64 51.28 395.51 54.6 395.51 54.6 419.51 57.15 419.51 57.15 389.89 60.98 389.89 60.98 401.89 68.08 401.89 68.08 2015.2 0 2015.2 0 441.64"/><polygon class="cls-15" points="0 444.89 7.62 444.89 7.62 437.99 10.69 437.99 10.69 459.19 13.41 459.19 13.41 434.25 17.32 434.25 17.32 449.57 20.64 449.57 20.64 430.42 23.71 430.42 23.71 442.17 26.52 442.17 26.52 423.27 31.11 423.27 31.11 449.57 34.77 449.57 34.77 418.68 36.98 418.68 36.98 424.04 39.28 424.04 39.28 413.06 42.85 413.06 42.85 431.95 45.41 431.95 45.41 407.44 48.73 407.44 48.73 416.89 51.28 416.89 51.28 398.76 54.6 398.76 54.6 422.76 57.15 422.76 57.15 393.14 60.98 393.14 60.98 405.14 68.09 405.14 68.09 2144 0 2144 0 444.89"/><polygon class="cls-16" points="68.1 408.39 60.98 408.39 60.98 396.39 57.15 396.39 57.15 426.01 54.6 426.01 54.6 402.01 51.28 402.01 51.28 420.14 48.73 420.14 48.73 410.69 45.41 410.69 45.41 435.2 42.85 435.2 42.85 416.31 39.28 416.31 39.28 427.29 36.98 427.29 36.98 421.92 34.77 421.92 34.77 452.82 31.11 452.82 31.11 426.52 26.52 426.52 26.52 445.41 23.71 445.41 23.71 433.67 20.64 433.67 20.64 452.82 17.32 452.82 17.32 437.5 13.41 437.5 13.41 462.43 10.69 462.43 10.69 441.24 7.62 441.24 7.62 448.14 0 448.14 0 2272.8 68.1 2272.8 68.1 408.39"/><path class="cls-17" d="M64.82,2272.8h600V262.52L712.3,240,769.49,90,783.13,9.67h-1.51v5.19H780v-3.7h-2.68v8.36h-2.55v2.32h-1.79v6.3l-2-.05v-5h-2.3v7.66h-2.94V26.31H763V21.46h-2.93V30h-2.68V26.56h-2.6V31.8h-2.64V24h-2.42v3.83h-2.56V23h-2.81V30.9h-2.42V25.29h-1.28V33.2h-2.3V22.09h-3.06v7.79h-3.06V24.26h-2.17v3.32h-2.56V23.37h-2.55v7.15h-2v-5h-2v8.3h-2.69v-12h-1.53v6.89h-2.3V26.31h-1.91v5h-1.92V24.9h-1.78V30h-1.66V27.07h-1.79v5.36H702.6V21.71h-1.79v2.68h-2.3V29.5h-2.93V24.9h-2.17v8.81h-2.68V22.09H688.3v8.43h-3.19V24.14h-2.68v3.95h-1.66V23.24h-2.94V30.9h-2.29V21.58H674v7.53h-2.55v-3.7h-2.68v7.41h-2.3V22.35h-2.3V30.9h-2.55V24.39h-2.55v7.79h-2.43V23h-2.47v6h-2.46V21.33h-2.05v6.89h-1.87V24.73h-2.72V29.5h-2.3V22.35h-2.21v8.59h-2V24h-1.87v4h-2V22.18H632.3v9.53h-2.21v-6.3h-1.7v4.77h-1.88V24.05h-2.12v8.26h-2.56v-10h-2.12v4.26h-1.79v3.91h-1.7V24.05h-2.39v4.51h-1.27V21.92H611.2V33.84h-2.05V25.92h-1.87v3h-2.13V24.22h-2.46v8h-2V22.86h-2v7.23H596.9V25.67h-1.45v8.08h-1.87V20.82h-2.13V32.73h-2.64v-10h-1.95V34.77h-2.22V24.14h-2.21v5.78H580.3V21.67H578V32.05h-2V25.84h-2.21v9.79h-1.87V24.05h-1.62v4.77H568V22h-2v4.17h-1.61v5.53h-2V22.94h-1.87v6h-2.22V24.22h-2.12V36.48h-2.39V21.67h-2.38v9.1h-1.87v-4h-2.21v7.07h-2V24h-2V38.43h-2.55V30.52h-2.47V51.63h-2.21V46.09h-2.39v8.77h-2.29V42.09H528.9v21.2h-2.3V46.94h-2.55V58.52h-2.13V53h-2.81V71.54H517V65.16h-2.21v10.3h-2.13V63.71h-2.72v20.6h-2.64V68H504V81.75h-2.13V72.48h-2.12V87.37h-2.39V80.48h-2.89v21.44H492.3V91.63h-2V95.2h-2.72V86.94H484.3v14h-2.64V91.46h-2.72v12.85h-2.38V98.6h-1.87v16h-2.13v-6.8h-2.13V120h-2.21V106.35H465v20.17h-2.12v-14.3h-3.07v11.15h-2.64V116.9h-2.38V136h-2v-9.45h-2v15.06h-2.38V124.65h-2.56V139.8H444V129.58h-2.38v16.68h-2.21v-9.78h-2.73V143h-1.87v-3.74H431.2v17.53h-1.79v-6.73H427V164H424.3V148.82H422v8.42h-2.12v-3.15h-2.47v27.66h-2.47V160.39h-2.47V191h-2.21V172H408v16h-2.13V168.65h-2.38v24.42H401V173.92h-2.55v17h-2v-6.63h-1.62v9.87h-2.13V181.5h-2.3v16.85h-2.46v-7.06h-3V207.8h-2v-2.39h-1.45v4H379.2V196.14h-2.47v26.72h-2.47V209.92h-2.38v9.88h-2.22V206.35h-2V227.2c0,.51-1.79,0-1.79,0v-2.72H364.3v5.87h-2V214.52h-2.55v28.34h-2v-7.15h-2v13.7h-2.47V223.54H350.9v21.83h-2.81V226.26h-2.34v35.49H343.2V229.92h-2.47v24.51h-2.39v-7.91h-2.72v12.34h-2.3V241h-2.89v17h-2.38v14h-2.56v-22.9H322.6v19.15h-2.81V255.11h-2.64v18.05h-2.81v-14h-2.55v20.6h-2.72V267.63h-2.38v9.27H304.3V265.5h-2.72v18.72h-2.3V272.48h-2.21V280h-2.21v-9.79h-2.81V287h-2.47V272.22H287v11.41h-2.22V275.2h-2.64v18.55h-2.38v-6.46h-2.64v3.91h-2.21V280.14h-2.47v15.4h-2.21V283h-2.64v15.06h-2.21V291h-2.13v11.83H261v-15.4H258.6v6.89h-2.47v-4.68h-2.47v21.79H251.2V298.18h-2.39v19.15H246.6V293.92h-2.47V301h-2v9h-2.29v-6.38H238v8.51h-2.29V300.05h-2.9v18.89h-2.3V302.69h-2.63v14.38h-2.39V306h-2.63v14h-2.17V313.8H218v12.25h-2.42V311H212.9v12.38H210v-8.43h-2.55v13.41h-2.94V322.6h-2.3V335h-2.42V317.88h-2.81v13.79h-2.81v-10.6h-2.68v16.09h-2.68v-8.3h-2v16.72h-2.56V325.92h-2.42v16.6H179.2v-5.87H177v15.06H175V330.52H172.3V346.6h-3.19V334.48H166.3v21.7h-2.68V341h-2.55v9.32h-2.68V338.56H156v22h-2.55V341.75H150.6V365.5h-2V347.88h-2.17v10h-2.68V346.22h-2.17v15.7h-2.68V349.49h-2.3V370h-2.17V351.84h-2.3v14.42H130.3V358.6h-2.17v14.94h-1.91V356.05h-2.3v13.28h-2.55V359.11h-2.56v14.94h-2.17v-6.51h-2.55v11.95h-2.17V363.84h-2.43v12.64h-2.42v18.89h-2.43V371.11h-2.81V390H99.54V374.94H96.47v25.54H93.15V377H90.34v18.38h-2.8v-13H83.71v20.42H80.9v-14H76.56V413H73V385.16H70.17v19.4H67.11V388.48H64.77Z"/><polyline class="cls-18" points="765.41 0 784.77 0 784.77 107.92 783.37 107.92 783.37 7.41 782.02 7.41 782.02 86.6 780.6 86.6 780.6 59.87 778.2 59.87 778.2 10.39 773.86 10.39 773.86 84.13 771.58 84.13 771.58 6.89 769.45 6.89 769.45 51.6 768.03 51.6 768.03 4.52 766.68 4.52 766.68 70.06 765.41 70.06 765.41 0"/><polyline class="cls-19" points="765.41 0 784.77 0 784.77 91.44 783.37 91.44 783.37 6.44 782.02 6.44 782.02 73.38 780.6 73.38 780.6 50.73 778.2 50.73 778.2 9.39 773.86 9.39 773.86 71.28 771.58 71.28 771.58 6.35 769.45 6.35 769.45 43.72 768.03 43.72 768.03 4.18 766.68 4.18 766.68 59.36 765.41 59.36 765.41 0"/><polyline class="cls-20" points="765.41 0 784.77 0 784.77 74.96 783.37 74.96 783.37 5.47 782.02 5.47 782.02 60.15 780.6 60.15 780.6 41.59 778.2 41.59 778.2 8.38 773.86 8.38 773.86 58.43 771.58 58.43 771.58 5.81 769.45 5.81 769.45 35.84 768.03 35.84 768.03 3.85 766.68 3.85 766.68 48.66 765.41 48.66 765.41 0"/><polyline class="cls-21" points="765.41 0 784.77 0 784.77 58.48 783.37 58.48 783.37 4.5 782.02 4.5 782.02 46.93 780.6 46.93 780.6 32.44 778.2 32.44 778.2 7.38 773.86 7.38 773.86 45.59 771.58 45.59 771.58 5.27 769.45 5.27 769.45 27.96 768.03 27.96 768.03 3.52 766.68 3.52 766.68 37.96 765.41 37.96 765.41 0"/><polyline class="cls-22" points="765.41 0 784.77 0 784.77 42 783.37 42 783.37 3.53 782.02 3.53 782.02 33.7 780.6 33.7 780.6 23.3 778.2 23.3 778.2 6.38 773.86 6.38 773.86 32.74 771.58 32.74 771.58 4.73 769.45 4.73 769.45 20.08 768.03 20.08 768.03 3.19 766.68 3.19 766.68 27.26 765.41 27.26 765.41 0"/><polyline class="cls-23" points="765.41 0 784.77 0 784.77 25.52 783.37 25.52 783.37 2.56 782.02 2.56 782.02 20.48 780.6 20.48 780.6 14.16 778.2 14.16 778.2 5.38 773.86 5.38 773.86 19.89 771.58 19.89 771.58 4.19 769.45 4.19 769.45 12.2 768.03 12.2 768.03 2.85 766.68 2.85 766.68 16.56 765.41 16.56 765.41 0"/><polyline class="cls-24" points="765.41 0 784.77 0 784.77 9.04 783.37 9.04 783.37 1.59 782.02 1.59 782.02 7.25 780.6 7.25 780.6 5.01 778.2 5.01 778.2 4.37 773.86 4.37 773.86 7.04 771.58 7.04 771.58 3.65 769.45 3.65 769.45 4.32 768.03 4.32 768.03 2.52 766.68 2.52 766.68 5.87 765.41 5.87 765.41 0"/><polyline class="cls-25" points="745.09 0 764.45 0 764.45 50.26 763.04 50.26 763.04 3.45 761.7 3.45 761.7 40.33 760.28 40.33 760.28 27.89 757.88 27.89 757.88 4.84 753.54 4.84 753.54 39.18 751.26 39.18 751.26 3.21 749.13 3.21 749.13 24.03 747.71 24.03 747.71 2.1 746.36 2.1 746.36 32.63 745.09 32.63 745.09 0"/><polyline class="cls-26" points="745.09 0 764.45 0 764.45 42.59 763.04 42.59 763.04 3 761.7 3 761.7 34.17 760.28 34.17 760.28 23.63 757.88 23.63 757.88 4.37 753.54 4.37 753.54 33.2 751.26 33.2 751.26 2.96 749.13 2.96 749.13 20.36 747.71 20.36 747.71 1.95 746.36 1.95 746.36 27.64 745.09 27.64 745.09 0"/><polyline class="cls-27" points="745.09 0 764.45 0 764.45 34.91 763.04 34.91 763.04 2.55 761.7 2.55 761.7 28.02 760.28 28.02 760.28 19.37 757.88 19.37 757.88 3.9 753.54 3.9 753.54 27.21 751.26 27.21 751.26 2.71 749.13 2.71 749.13 16.69 747.71 16.69 747.71 1.79 746.36 1.79 746.36 22.66 745.09 22.66 745.09 0"/><polyline class="cls-28" points="745.09 0 764.45 0 764.45 27.24 763.04 27.24 763.04 2.1 761.7 2.1 761.7 21.86 760.28 21.86 760.28 15.11 757.88 15.11 757.88 3.44 753.54 3.44 753.54 21.23 751.26 21.23 751.26 2.46 749.13 2.46 749.13 13.02 747.71 13.02 747.71 1.64 746.36 1.64 746.36 17.68 745.09 17.68 745.09 0"/><polyline class="cls-29" points="745.09 0 764.45 0 764.45 19.56 763.04 19.56 763.04 1.64 761.7 1.64 761.7 15.7 760.28 15.7 760.28 10.85 757.88 10.85 757.88 2.97 753.54 2.97 753.54 15.25 751.26 15.25 751.26 2.2 749.13 2.2 749.13 9.35 747.71 9.35 747.71 1.48 746.36 1.48 746.36 12.7 745.09 12.7 745.09 0"/><polyline class="cls-30" points="745.09 0 764.45 0 764.45 11.88 763.04 11.88 763.04 1.19 761.7 1.19 761.7 9.54 760.28 9.54 760.28 6.59 757.88 6.59 757.88 2.5 753.54 2.5 753.54 9.26 751.26 9.26 751.26 1.95 749.13 1.95 749.13 5.68 747.71 5.68 747.71 1.33 746.36 1.33 746.36 7.71 745.09 7.71 745.09 0"/><polyline class="cls-24" points="745.09 0 764.45 0 764.45 4.21 763.04 4.21 763.04 0.74 761.7 0.74 761.7 3.38 760.28 3.38 760.28 2.33 757.88 2.33 757.88 2.04 753.54 2.04 753.54 3.28 751.26 3.28 751.26 1.7 749.13 1.7 749.13 2.01 747.71 2.01 747.71 1.17 746.36 1.17 746.36 2.73 745.09 2.73 745.09 0"/><polyline class="cls-25" points="725.73 0 745.09 0 745.09 22.09 743.69 22.09 743.69 1.52 742.34 1.52 742.34 17.73 740.92 17.73 740.92 12.26 738.52 12.26 738.52 2.13 734.18 2.13 734.18 17.22 731.9 17.22 731.9 1.41 729.77 1.41 729.77 10.56 728.35 10.56 728.35 0.93 727 0.93 727 14.34 725.73 14.34 725.73 0"/><polyline class="cls-26" points="725.73 0 745.09 0 745.09 18.72 743.69 18.72 743.69 1.32 742.34 1.32 742.34 15.02 740.92 15.02 740.92 10.38 738.52 10.38 738.52 1.92 734.18 1.92 734.18 14.59 731.9 14.59 731.9 1.3 729.77 1.3 729.77 8.95 728.35 8.95 728.35 0.86 727 0.86 727 12.15 725.73 12.15 725.73 0"/><polyline class="cls-27" points="725.73 0 745.09 0 745.09 15.35 743.69 15.35 743.69 1.12 742.34 1.12 742.34 12.31 740.92 12.31 740.92 8.51 738.52 8.51 738.52 1.72 734.18 1.72 734.18 11.96 731.9 11.96 731.9 1.19 729.77 1.19 729.77 7.34 728.35 7.34 728.35 0.79 727 0.79 727 9.96 725.73 9.96 725.73 0"/><polyline class="cls-28" points="725.73 0 745.09 0 745.09 11.97 743.69 11.97 743.69 0.92 742.34 0.92 742.34 9.61 740.92 9.61 740.92 6.64 738.52 6.64 738.52 1.51 734.18 1.51 734.18 9.33 731.9 9.33 731.9 1.08 729.77 1.08 729.77 5.72 728.35 5.72 728.35 0.72 727 0.72 727 7.77 725.73 7.77 725.73 0"/><polyline class="cls-29" points="725.73 0 745.09 0 745.09 8.6 743.69 8.6 743.69 0.72 742.34 0.72 742.34 6.9 740.92 6.9 740.92 4.77 738.52 4.77 738.52 1.31 734.18 1.31 734.18 6.7 731.9 6.7 731.9 0.97 729.77 0.97 729.77 4.11 728.35 4.11 728.35 0.65 727 0.65 727 5.58 725.73 5.58 725.73 0"/><polyline class="cls-30" points="725.73 0 745.09 0 745.09 5.22 743.69 5.22 743.69 0.52 742.34 0.52 742.34 4.19 740.92 4.19 740.92 2.9 738.52 2.9 738.52 1.1 734.18 1.1 734.18 4.07 731.9 4.07 731.9 0.86 729.77 0.86 729.77 2.5 728.35 2.5 728.35 0.58 727 0.58 727 3.39 725.73 3.39 725.73 0"/><polyline class="cls-24" points="725.73 0 745.09 0 745.09 1.85 743.69 1.85 743.69 0.33 742.34 0.33 742.34 1.48 740.92 1.48 740.92 1.03 738.52 1.03 738.52 0.9 734.18 0.9 734.18 1.44 731.9 1.44 731.9 0.75 729.77 0.75 729.77 0.88 728.35 0.88 728.35 0.52 727 0.52 727 1.2 725.73 1.2 725.73 0"/><polygon class="cls-4" points="664.77 510 844.77 510 844.77 540 730.68 564.18 664.77 575.41 664.77 575.41 664.77 510"/><polygon class="cls-5" points="665.71 512.73 669.16 512.73 672.85 515.97 674.65 515.97 679.33 511.88 681.86 511.88 688.99 518.09 691.51 518.09 696.98 513.33 699.15 513.33 702.65 516.39 704.81 516.39 710 511.88 711.98 511.88 718.35 517.41 719.77 517.41 723.68 514.01 725.57 514.01 728.29 516.39 730.18 516.39 734.48 512.65 736.1 512.65 741.48 517.33 743.65 517.33 749.95 511.88 752.12 511.88 755.24 514.6 757.27 514.6 760.4 511.88 762.54 511.88 767.74 516.39 769.73 516.39 774.07 512.65 776.63 512.65 779.33 514.99 781.52 514.99 785.12 511.88 787.29 511.88 791.44 515.45 792.52 515.45 797.05 511.54 799.61 511.54 802.06 513.67 803.87 513.67 805.75 512.05 807.2 512.05 810.42 514.82 812.06 514.82 815.89 511.54 817.9 511.54 820.6 513.84 822.8 513.84 826.02 511.12 827.48 511.12 831.59 514.6 833.24 514.6 835.75 512.48 837.61 512.48 838.96 513.58 840.42 513.58 842.84 511.54 844.77 511.54 844.77 540 730.68 564.18 664.77 575.41 664.77 575.41 664.77 555.84 665.71 550.21 665.71 512.73"/><polygon class="cls-6" points="666.65 515.46 671.35 515.46 674.3 521.93 676.77 521.93 680.51 513.76 683.96 513.76 689.66 526.19 693.12 526.19 697.49 516.65 700.45 516.65 703.25 522.78 706.21 522.78 710.36 513.76 713.06 513.76 718.16 524.83 720.12 524.83 723.24 518.02 725.82 518.02 728 522.78 730.59 522.78 734.03 515.29 736.24 515.29 740.55 524.65 743.51 524.65 748.55 513.76 751.51 513.76 754.01 519.21 756.77 519.21 759.27 513.76 762.19 513.76 766.35 522.78 769.07 522.78 772.54 515.29 776.02 515.29 778.18 519.97 781.15 519.97 784.04 513.76 787 513.76 790.32 520.9 791.79 520.9 795.42 513.08 798.9 513.08 800.86 517.34 803.33 517.34 804.83 514.1 806.81 514.1 809.38 519.63 811.62 519.63 814.68 513.08 817.41 513.08 819.57 517.68 822.56 517.68 825.13 512.23 827.12 512.23 830.4 519.21 832.65 519.21 834.65 514.95 837.16 514.95 838.24 517.17 840.23 517.17 842.16 513.08 844.77 513.08 844.77 540 730.68 564.18 664.77 575.41 664.77 575.41 664.77 556.39 666.65 551.88 666.65 515.46"/><polygon class="cls-7" points="667.6 518.2 673.55 518.2 675.76 527.9 678.88 527.9 681.69 515.64 686.07 515.64 690.35 534.28 694.72 534.28 698 519.98 701.76 519.98 703.86 529.17 707.6 529.17 710.72 515.64 714.15 515.64 717.97 532.24 720.46 532.24 722.8 522.03 726.07 522.03 727.71 529.17 731 529.17 733.58 517.94 736.39 517.94 739.61 531.98 743.37 531.98 747.14 515.64 750.9 515.64 752.77 523.81 756.27 523.81 758.14 515.64 761.85 515.64 764.97 529.17 768.41 529.17 771.02 517.94 775.41 517.94 777.03 524.96 780.79 524.96 782.96 515.64 786.71 515.64 789.2 526.35 791.07 526.35 793.79 514.62 798.18 514.62 799.65 521 802.78 521 803.91 516.15 806.41 516.15 808.35 524.45 811.17 524.45 813.47 514.62 816.92 514.62 818.54 521.51 822.31 521.51 824.24 513.35 826.75 513.35 829.22 523.81 832.05 523.81 833.56 517.43 836.71 517.43 837.52 520.75 840.03 520.75 841.48 514.62 844.77 514.62 844.77 540 730.68 564.18 664.77 575.41 664.77 575.41 664.77 556.93 667.6 553.55 667.6 518.2"/><polygon class="cls-8" points="668.54 520.93 675.74 520.93 677.22 533.86 681 533.86 682.87 517.52 688.18 517.52 691.03 542.37 696.33 542.37 698.51 523.31 703.06 523.31 704.46 535.57 709 535.57 711.07 517.52 715.24 517.52 717.78 539.65 720.81 539.65 722.37 526.03 726.33 526.03 727.41 535.57 731.4 535.57 733.12 520.59 736.53 520.59 738.68 539.31 743.22 539.31 745.74 517.52 750.29 517.52 751.54 528.42 755.77 528.42 757.02 517.52 761.5 517.52 763.58 535.57 767.75 535.57 769.49 520.59 774.8 520.59 775.88 529.95 780.43 529.95 781.87 517.52 786.42 517.52 788.08 531.8 790.35 531.8 792.16 516.16 797.47 516.16 798.45 524.67 802.24 524.67 802.99 518.2 806.02 518.2 807.31 529.27 810.73 529.27 812.25 516.16 816.43 516.16 817.51 525.35 822.07 525.35 823.36 514.46 826.39 514.46 828.03 528.42 831.45 528.42 832.46 519.91 836.26 519.91 836.8 524.33 839.84 524.33 840.8 516.16 844.77 516.16 844.77 540 730.68 564.18 664.77 575.41 664.77 575.41 664.77 557.47 668.54 555.22 668.54 520.93"/><polygon class="cls-9" points="669.49 523.66 677.94 523.66 678.67 539.83 683.12 539.83 684.06 519.4 690.28 519.4 691.71 550.47 697.93 550.47 699.02 526.64 704.36 526.64 705.06 541.96 710.39 541.96 711.43 519.4 716.32 519.4 717.6 547.06 721.15 547.06 721.93 530.04 726.58 530.04 727.12 541.96 731.81 541.96 732.67 523.23 736.67 523.23 737.75 546.64 743.08 546.64 744.34 519.4 749.68 519.4 750.3 533.02 755.27 533.02 755.89 519.4 761.16 519.4 762.2 541.96 767.09 541.96 767.96 523.23 774.19 523.23 774.73 534.94 780.07 534.94 780.79 519.4 786.13 519.4 786.96 537.25 789.62 537.25 790.53 517.7 796.76 517.7 797.25 528.34 801.7 528.34 802.07 520.25 805.63 520.25 806.27 534.09 810.28 534.09 811.04 517.7 815.94 517.7 816.48 529.19 821.82 529.19 822.47 515.57 826.03 515.57 826.85 533.02 830.86 533.02 831.36 522.38 835.82 522.38 836.08 527.91 839.64 527.91 840.13 517.7 844.77 517.7 844.77 540 730.68 564.18 664.77 575.41 664.77 575.41 664.77 558.02 669.49 556.89 669.49 523.66"/><polygon class="cls-10" points="664.77 558.56 670.43 558.56 670.43 526.39 680.13 526.39 680.13 545.8 685.24 545.8 685.24 521.28 692.39 521.28 692.39 558.56 699.54 558.56 699.54 529.97 705.66 529.97 705.66 548.35 711.79 548.35 711.79 521.28 717.41 521.28 717.41 554.48 721.49 554.48 721.49 534.05 726.83 534.05 726.83 548.35 732.22 548.35 732.22 525.88 736.81 525.88 736.81 553.97 742.94 553.97 742.94 521.28 749.07 521.28 749.07 537.63 754.77 537.63 754.77 521.28 760.81 521.28 760.81 548.35 766.43 548.35 766.43 525.88 773.58 525.88 773.58 539.92 779.71 539.92 779.71 521.28 785.83 521.28 785.83 542.71 788.9 542.71 788.9 519.24 796.05 519.24 796.05 532.01 801.15 532.01 801.15 522.31 805.24 522.31 805.24 538.9 809.83 538.9 809.83 519.24 815.45 519.24 815.45 533.03 821.58 533.03 821.58 516.69 825.66 516.69 825.66 537.63 830.26 537.63 830.26 524.86 835.37 524.86 835.37 531.5 839.45 531.5 839.45 519.24 844.77 519.24 844.77 540 730.68 564.18 664.77 575.41 664.77 558.56"/><polygon class="cls-11" points="844.77 520.09 844.77 540 730.68 564.18 664.77 584.41 664.77 560.14 670.43 560.14 670.43 527.97 680.13 527.97 680.13 547.37 685.24 547.37 685.24 522.86 692.39 522.86 692.39 560.14 699.54 560.14 699.54 531.54 705.66 531.54 705.66 549.92 711.79 549.92 711.79 522.86 717.41 522.86 717.41 556.05 721.49 556.05 721.49 535.63 726.83 535.63 726.83 549.92 732.22 549.92 732.22 525.88 736.81 525.88 736.81 554.81 742.94 554.81 742.94 523.49 749.07 523.49 749.07 539.83 754.77 539.83 754.77 523.49 760.81 523.49 760.81 549.2 766.43 549.2 766.43 527.2 773.58 527.2 773.58 541.24 779.71 541.24 779.71 522.6 785.83 522.6 785.83 544.03 788.9 544.03 788.9 520.56 796.05 520.56 796.05 533.33 801.15 533.33 801.15 522.31 805.24 522.31 805.24 540.09 809.83 540.09 809.83 520.43 815.45 520.43 815.45 534.22 821.58 534.22 821.58 517.88 825.66 517.88 825.66 538.47 830.26 538.47 830.26 525.71 835.37 525.71 835.37 532.35 839.45 532.35 839.45 520.09 844.77 520.09"/><polygon class="cls-12" points="844.77 520.94 844.77 540 730.68 564.18 664.77 593.41 664.77 561.71 670.43 561.71 670.43 529.54 680.13 529.54 680.13 548.95 685.24 548.95 685.24 524.43 692.39 524.43 692.39 561.71 699.54 561.71 699.54 533.12 705.66 533.12 705.66 551.5 711.79 551.5 711.79 524.43 717.41 524.43 717.41 557.63 721.49 557.63 721.49 537.2 726.83 537.2 726.83 551.5 732.22 551.5 732.22 525.88 736.81 525.88 736.81 555.66 742.94 555.66 742.94 525.7 749.07 525.7 749.07 542.04 754.77 542.04 754.77 525.7 760.81 525.7 760.81 550.04 766.43 550.04 766.43 528.52 773.58 528.52 773.58 542.56 779.71 542.56 779.71 523.92 785.83 523.92 785.83 545.35 788.9 545.35 788.9 521.88 796.05 521.88 796.05 534.65 801.15 534.65 801.15 522.31 805.24 522.31 805.24 541.28 809.83 541.28 809.83 521.63 815.45 521.63 815.45 535.41 821.58 535.41 821.58 519.07 825.66 519.07 825.66 539.32 830.26 539.32 830.26 526.55 835.37 526.55 835.37 533.19 839.45 533.19 839.45 520.94 844.77 520.94"/><polygon class="cls-13" points="844.77 521.78 844.77 540 730.68 564.18 664.77 602.41 664.77 563.28 670.43 563.28 670.43 531.12 680.13 531.12 680.13 550.52 685.24 550.52 685.24 526.01 692.39 526.01 692.39 563.28 699.54 563.28 699.54 534.69 705.66 534.69 705.66 553.07 711.79 553.07 711.79 526.01 717.41 526.01 717.41 559.2 721.49 559.2 721.49 538.77 726.83 538.77 726.83 553.07 732.22 553.07 732.22 525.88 736.81 525.88 736.81 556.51 742.94 556.51 742.94 527.91 749.07 527.91 749.07 544.25 754.77 544.25 754.77 527.91 760.81 527.91 760.81 550.89 766.43 550.89 766.43 529.84 773.58 529.84 773.58 543.88 779.71 543.88 779.71 525.24 785.83 525.24 785.83 546.66 788.9 546.66 788.9 523.2 796.05 523.2 796.05 535.97 801.15 535.97 801.15 522.31 805.24 522.31 805.24 542.48 809.83 542.48 809.83 522.82 815.45 522.82 815.45 536.6 821.58 536.6 821.58 520.26 825.66 520.26 825.66 540.17 830.26 540.17 830.26 527.4 835.37 527.4 835.37 534.04 839.45 534.04 839.45 521.78 844.77 521.78"/><polygon class="cls-14" points="844.77 522.63 844.77 540 730.68 564.18 664.77 611.41 664.77 564.86 670.43 564.86 670.43 532.69 680.13 532.69 680.13 552.09 685.24 552.09 685.24 527.58 692.39 527.58 692.39 564.86 699.54 564.86 699.54 536.26 705.66 536.26 705.66 554.65 711.79 554.65 711.79 527.58 717.41 527.58 717.41 560.77 721.49 560.77 721.49 540.35 726.83 540.35 726.83 554.65 732.22 554.65 732.22 525.88 736.81 525.88 736.81 557.35 742.94 557.35 742.94 530.12 749.07 530.12 749.07 546.46 754.77 546.46 754.77 530.12 760.81 530.12 760.81 551.74 766.43 551.74 766.43 531.16 773.58 531.16 773.58 545.2 779.71 545.2 779.71 526.56 785.83 526.56 785.83 547.98 788.9 547.98 788.9 524.52 796.05 524.52 796.05 537.28 801.15 537.28 801.15 522.31 805.24 522.31 805.24 543.67 809.83 543.67 809.83 524.01 815.45 524.01 815.45 537.8 821.58 537.8 821.58 521.46 825.66 521.46 825.66 541.01 830.26 541.01 830.26 528.25 835.37 528.25 835.37 534.88 839.45 534.88 839.45 522.63 844.77 522.63"/><polygon class="cls-15" points="844.77 523.48 844.77 540 730.68 564.18 664.77 620.41 664.77 566.43 670.43 566.43 670.43 534.26 680.13 534.26 680.13 553.67 685.24 553.67 685.24 529.16 692.39 529.16 692.39 566.43 699.54 566.43 699.54 537.84 705.66 537.84 705.66 556.22 711.79 556.22 711.79 529.16 717.41 529.16 717.41 562.35 721.49 562.35 721.49 541.92 726.83 541.92 726.83 556.22 732.22 556.22 732.22 525.88 736.81 525.88 736.81 558.2 742.94 558.2 742.94 532.33 749.07 532.33 749.07 548.67 754.77 548.67 754.77 532.33 760.81 532.33 760.81 552.58 766.43 552.58 766.43 532.48 773.58 532.48 773.58 546.52 779.71 546.52 779.71 527.88 785.83 527.88 785.83 549.3 788.9 549.3 788.9 525.84 796.05 525.84 796.05 538.6 801.15 538.6 801.15 522.31 805.24 522.31 805.24 544.86 809.83 544.86 809.83 525.2 815.45 525.2 815.45 538.99 821.58 538.99 821.58 522.65 825.66 522.65 825.66 541.86 830.26 541.86 830.26 529.09 835.37 529.09 835.37 535.73 839.45 535.73 839.45 523.48 844.77 523.48"/><polygon class="cls-16" points="664.77 568.01 670.43 568.01 670.43 535.84 680.13 535.84 680.13 555.24 685.24 555.24 685.24 530.73 692.39 530.73 692.39 568.01 699.54 568.01 699.54 539.41 705.66 539.41 705.66 557.8 711.79 557.8 711.79 530.73 717.41 530.73 717.41 563.92 721.49 563.92 721.49 543.5 726.83 543.5 726.83 557.8 732.22 557.8 732.22 525.88 736.81 525.88 736.81 559.05 742.94 559.05 742.94 534.54 749.07 534.54 749.07 550.88 754.77 550.88 754.77 534.54 760.81 534.54 760.81 553.43 766.43 553.43 766.43 533.8 773.58 533.8 773.58 547.84 779.71 547.84 779.71 529.2 785.83 529.2 785.83 550.62 788.9 550.62 788.9 527.16 796.05 527.16 796.05 539.92 801.15 539.92 801.15 522.31 805.24 522.31 805.24 546.05 809.83 546.05 809.83 526.39 815.45 526.39 815.45 540.18 821.58 540.18 821.58 523.84 825.66 523.84 825.66 542.71 830.26 542.71 830.26 529.94 835.37 529.94 835.37 536.58 839.45 536.58 839.45 524.32 844.77 524.32 844.77 540 730.68 564.18 664.77 629.41 664.77 568.01"/><polygon class="cls-17" points="664.77 568.01 670.43 568.01 670.43 535.84 680.13 535.84 680.13 555.24 685.24 555.24 685.24 530.73 692.39 530.73 692.39 568.01 699.54 568.01 699.54 539.41 705.66 539.41 705.66 557.8 711.79 557.8 711.79 530.73 717.41 530.73 717.41 563.92 721.49 563.92 721.49 543.5 726.83 543.5 726.83 557.8 732.22 557.8 732.22 525.88 736.81 525.88 736.81 559.05 742.94 559.05 742.94 534.54 749.07 534.54 749.07 550.88 754.77 550.88 754.77 534.54 760.81 534.54 760.81 553.43 766.43 553.43 766.43 533.8 773.58 533.8 773.58 547.84 779.71 547.84 779.71 529.2 785.83 529.2 785.83 550.62 788.9 550.62 788.9 527.16 796.05 527.16 796.05 539.92 801.15 539.92 801.15 522.31 805.24 522.31 805.24 546.05 809.83 546.05 809.83 526.39 815.45 526.39 815.45 540.18 821.58 540.18 821.58 523.84 825.66 523.84 825.66 542.71 830.26 542.71 830.26 529.94 835.37 529.94 835.37 536.58 839.45 536.58 839.45 524.32 844.77 524.32 844.77 540 730.68 564.18 664.77 629.41 664.77 568.01"/><polyline class="cls-18" points="807.99 510 844.77 510 844.77 567.13 842.1 567.13 842.1 513.92 839.55 513.92 839.55 578.48 836.85 578.48 836.85 545.18 832.3 545.18 832.3 515.5 824.05 515.5 824.05 559.74 819.71 559.74 819.71 513.65 815.66 513.65 815.66 552.8 812.96 552.8 812.96 512.39 810.4 512.39 810.4 562.57 807.99 562.57 807.99 510"/><polyline class="cls-19" points="807.99 510 844.77 510 844.77 558.41 842.1 558.41 842.1 513.41 839.55 513.41 839.55 567.7 836.85 567.7 836.85 539.75 832.3 539.75 832.3 514.97 824.05 514.97 824.05 552.07 819.71 552.07 819.71 513.36 815.66 513.36 815.66 546.05 812.96 546.05 812.96 512.22 810.4 512.22 810.4 554.33 807.99 554.33 807.99 510"/><polyline class="cls-20" points="807.99 510 844.77 510 844.77 549.68 842.1 549.68 842.1 512.89 839.55 512.89 839.55 556.93 836.85 556.93 836.85 534.34 832.3 534.34 832.3 514.44 824.05 514.44 824.05 544.4 819.71 544.4 819.71 513.08 815.66 513.08 815.66 539.3 812.96 539.3 812.96 512.04 810.4 512.04 810.4 546.08 807.99 546.08 807.99 510"/><polyline class="cls-21" points="807.99 510 844.77 510 844.77 540.96 842.1 540.96 842.1 512.38 839.55 512.38 839.55 546.16 836.85 546.16 836.85 528.91 832.3 528.91 832.3 513.91 824.05 513.91 824.05 536.73 819.71 536.73 819.71 512.79 815.66 512.79 815.66 532.54 812.96 532.54 812.96 511.86 810.4 511.86 810.4 537.84 807.99 537.84 807.99 510"/><polyline class="cls-22" points="807.99 510 844.77 510 844.77 532.23 842.1 532.23 842.1 511.87 839.55 511.87 839.55 535.38 836.85 535.38 836.85 523.49 832.3 523.49 832.3 513.38 824.05 513.38 824.05 529.06 819.71 529.06 819.71 512.5 815.66 512.5 815.66 525.79 812.96 525.79 812.96 511.69 810.4 511.69 810.4 529.59 807.99 529.59 807.99 510"/><polyline class="cls-23" points="807.99 510 844.77 510 844.77 523.51 842.1 523.51 842.1 511.35 839.55 511.35 839.55 524.61 836.85 524.61 836.85 518.07 832.3 518.07 832.3 512.85 824.05 512.85 824.05 521.4 819.71 521.4 819.71 512.22 815.66 512.22 815.66 519.04 812.96 519.04 812.96 511.51 810.4 511.51 810.4 521.35 807.99 521.35 807.99 510"/><polyline class="cls-24" points="807.99 510 844.77 510 844.77 514.78 842.1 514.78 842.1 510.84 839.55 510.84 839.55 513.84 836.85 513.84 836.85 512.65 832.3 512.65 832.3 512.32 824.05 512.32 824.05 513.73 819.71 513.73 819.71 511.93 815.66 511.93 815.66 512.29 812.96 512.29 812.96 511.33 810.4 511.33 810.4 513.11 807.99 513.11 807.99 510"/><polyline class="cls-18" points="771.21 510 807.99 510 807.99 552.22 805.33 552.22 805.33 512.9 802.77 512.9 802.77 560.6 800.07 560.6 800.07 536 795.52 536 795.52 514.07 787.27 514.07 787.27 546.75 782.93 546.75 782.93 512.7 778.89 512.7 778.89 541.63 776.19 541.63 776.19 511.77 773.63 511.77 773.63 548.85 771.21 548.85 771.21 510"/><polyline class="cls-19" points="771.21 510 807.99 510 807.99 545.77 805.33 545.77 805.33 512.52 802.77 512.52 802.77 552.64 800.07 552.64 800.07 531.99 795.52 531.99 795.52 513.67 787.27 513.67 787.27 541.09 782.93 541.09 782.93 512.48 778.89 512.48 778.89 536.64 776.19 536.64 776.19 511.64 773.63 511.64 773.63 542.76 771.21 542.76 771.21 510"/><polyline class="cls-20" points="771.21 510 807.99 510 807.99 539.33 805.33 539.33 805.33 512.14 802.77 512.14 802.77 544.68 800.07 544.68 800.07 527.98 795.52 527.98 795.52 513.28 787.27 513.28 787.27 535.42 782.93 535.42 782.93 512.27 778.89 512.27 778.89 531.65 776.19 531.65 776.19 511.51 773.63 511.51 773.63 536.67 771.21 536.67 771.21 510"/><polyline class="cls-21" points="771.21 510 807.99 510 807.99 532.88 805.33 532.88 805.33 511.76 802.77 511.76 802.77 536.72 800.07 536.72 800.07 523.98 795.52 523.98 795.52 512.89 787.27 512.89 787.27 529.75 782.93 529.75 782.93 512.06 778.89 512.06 778.89 526.66 776.19 526.66 776.19 511.38 773.63 511.38 773.63 530.57 771.21 530.57 771.21 510"/><polyline class="cls-22" points="771.21 510 807.99 510 807.99 526.43 805.33 526.43 805.33 511.38 802.77 511.38 802.77 528.76 800.07 528.76 800.07 519.97 795.52 519.97 795.52 512.5 787.27 512.5 787.27 524.09 782.93 524.09 782.93 511.85 778.89 511.85 778.89 521.67 776.19 521.67 776.19 511.25 773.63 511.25 773.63 524.48 771.21 524.48 771.21 510"/><polyline class="cls-23" points="771.21 510 807.99 510 807.99 519.98 805.33 519.98 805.33 511 802.77 511 802.77 520.8 800.07 520.8 800.07 515.97 795.52 515.97 795.52 512.1 787.27 512.1 787.27 518.42 782.93 518.42 782.93 511.64 778.89 511.64 778.89 516.68 776.19 516.68 776.19 511.12 773.63 511.12 773.63 518.39 771.21 518.39 771.21 510"/><polyline class="cls-24" points="771.21 510 807.99 510 807.99 513.53 805.33 513.53 805.33 510.62 802.77 510.62 802.77 512.84 800.07 512.84 800.07 511.96 795.52 511.96 795.52 511.71 787.27 511.71 787.27 512.75 782.93 512.75 782.93 511.43 778.89 511.43 778.89 511.69 776.19 511.69 776.19 510.99 773.63 510.99 773.63 512.29 771.21 512.29 771.21 510"/><polyline class="cls-18" points="728.61 510 754.94 510 754.94 595.82 753.04 595.82 753.04 515.89 751.21 515.89 751.21 612.86 749.27 612.86 749.27 562.84 746.01 562.84 746.01 518.26 740.11 518.26 740.11 584.71 737 584.71 737 515.48 734.11 515.48 734.11 574.29 732.17 574.29 732.17 513.59 730.34 513.59 730.34 588.97 728.61 588.97 728.61 510"/><polyline class="cls-19" points="728.61 510 754.94 510 754.94 582.71 753.04 582.71 753.04 515.12 751.21 515.12 751.21 596.68 749.27 596.68 749.27 554.7 746.01 554.7 746.01 517.46 740.11 517.46 740.11 573.19 737 573.19 737 515.05 734.11 515.05 734.11 564.15 732.17 564.15 732.17 513.33 730.34 513.33 730.34 576.59 728.61 576.59 728.61 510"/><polyline class="cls-20" points="728.61 510 754.94 510 754.94 569.61 753.04 569.61 753.04 514.35 751.21 514.35 751.21 580.5 749.27 580.5 749.27 546.55 746.01 546.55 746.01 516.67 740.11 516.67 740.11 561.67 737 561.67 737 514.62 734.11 514.62 734.11 554.01 732.17 554.01 732.17 513.06 730.34 513.06 730.34 564.2 728.61 564.2 728.61 510"/><polyline class="cls-21" points="728.61 510 754.94 510 754.94 556.5 753.04 556.5 753.04 513.58 751.21 513.58 751.21 564.31 749.27 564.31 749.27 538.41 746.01 538.41 746.01 515.87 740.11 515.87 740.11 550.15 737 550.15 737 514.19 734.11 514.19 734.11 543.87 732.17 543.87 732.17 512.8 730.34 512.8 730.34 551.82 728.61 551.82 728.61 510"/><polyline class="cls-22" points="728.61 510 754.94 510 754.94 543.4 753.04 543.4 753.04 512.8 751.21 512.8 751.21 548.13 749.27 548.13 749.27 530.27 746.01 530.27 746.01 515.07 740.11 515.07 740.11 538.64 737 538.64 737 513.76 734.11 513.76 734.11 533.72 732.17 533.72 732.17 512.53 730.34 512.53 730.34 539.43 728.61 539.43 728.61 510"/><polyline class="cls-23" points="728.61 510 754.94 510 754.94 530.29 753.04 530.29 753.04 512.03 751.21 512.03 751.21 531.95 749.27 531.95 749.27 522.13 746.01 522.13 746.01 514.27 740.11 514.27 740.11 527.12 737 527.12 737 513.33 734.11 513.33 734.11 523.58 732.17 523.58 732.17 512.27 730.34 512.27 730.34 527.05 728.61 527.05 728.61 510"/><polyline class="cls-24" points="728.61 510 754.94 510 754.94 517.18 753.04 517.18 753.04 511.26 751.21 511.26 751.21 515.76 749.27 515.76 749.27 513.99 746.01 513.99 746.01 513.48 740.11 513.48 740.11 515.6 737 515.6 737 512.91 734.11 512.91 734.11 513.43 732.17 513.43 732.17 512 730.34 512 730.34 514.66 728.61 514.66 728.61 510"/><polygon class="cls-17" points="68.1 408.39 60.98 408.39 60.98 396.39 57.15 396.39 57.15 426.01 54.6 426.01 54.6 402.01 51.28 402.01 51.28 420.14 48.73 420.14 48.73 410.69 45.41 410.69 45.41 435.2 42.85 435.2 42.85 416.31 39.28 416.31 39.28 427.29 36.98 427.29 36.98 421.92 34.77 421.92 34.77 452.82 31.11 452.82 31.11 426.52 26.52 426.52 26.52 445.41 23.71 445.41 23.71 433.67 20.64 433.67 20.64 452.82 17.32 452.82 17.32 437.5 13.41 437.5 13.41 462.43 10.69 462.43 10.69 441.24 7.62 441.24 7.62 448.14 0 448.14 0 2272.8 68.1 2272.8 68.1 408.39"/></g></g></svg>