<svg xmlns="http://www.w3.org/2000/svg" xmlns:xlink="http://www.w3.org/1999/xlink" viewBox="0 0 180 1792.8"><defs><style>.cls-1{fill:none;}.cls-2{fill:#281204;opacity:0.42;}.cls-3{fill:#160902;}.cls-4{fill:#5e6614;}.cls-5{fill:#555912;}.cls-6{fill:#4c4b11;}.cls-7{fill:#433e10;}.cls-8{fill:#3a310e;}.cls-9{fill:#31230d;}.cls-10{fill:#28160b;}.cls-11{fill:#25140a;}.cls-12{fill:#221309;}.cls-13{fill:#1f1109;}.cls-14{fill:#1c0f08;}.cls-15{fill:#190e07;}.cls-16{fill:#160c06;}.cls-17{opacity:0.68;fill:url(#New_Pattern_Swatch_1);}</style><pattern id="New_Pattern_Swatch_1" data-name="New Pattern Swatch 1" width="289.6" height="289.6" patternUnits="userSpaceOnUse" viewBox="0 0 289.6 289.6"><rect class="cls-1" width="289.6" height="289.6"/><path class="cls-2" d="M0,271.5s45.4-8.4,53.8-4,19.6,14.8,19.6,14.8,18.8-6.08,29.2-8L113,279.1l40.8-12.88s20.4,6.88,25.6,9.68,16.8,11.2,24.8,8.4,39.6-12.4,39.6-12.4,18.4,3.68,26.8,3.64,19-3.64,19-3.64v30.4H271l-27.6,9.2-29.2-4s-13.6-8.8-35.2-8.8-34.2-7.2-34.2-7.2l-25.4,11.2-24.8-6.8-34.8,8.4L38.6,291.5S3,302.3,0,302.3Z"/><rect class="cls-3" y="12.87" width="289.6" height="289.6"/><path class="cls-2" d="M289.6,27.37c-71.8,10.34-143.67,1.4-196.4-4C59.79,20,26.62,23,0,27.37v28c50.27-2,143.92-5.78,203.45-.19,26.17,2.46,57,1.94,86.15.21Z"/><path class="cls-2" d="M289.6,123.75c-57.72.56-143.35-5.41-195.2-12.64C58.14,106.05,39,125.68,0,123.86v26.58c41.61-4,113.6-12,152-3.54,24.31,5.37,82.18,6.26,137.6,3.36Z"/><path class="cls-2" d="M0,53.87s45.4-8.4,53.8-4,19.6,14.8,19.6,14.8,18.8-6.07,29.2-8L113,61.47,153.8,48.6s20.4,6.87,25.6,9.67,16.8,11.2,24.8,8.4,39.6-12.4,39.6-12.4,18.4,3.69,26.8,3.65,19-3.65,19-3.65v30.4H271l-27.6,9.2-29.2-4s-13.6-8.8-35.2-8.8-34.2-7.2-34.2-7.2l-25.4,11.2-24.8-6.8-34.8,8.4L38.6,73.87S3,84.67,0,84.67Z"/><path class="cls-2" d="M289.6,117.42V87.53s-7.4,6.69-15.4,8.69-28.4-9.6-34.4-8.8-34,3.2-50-4-10.4-1.2-10.4-1.2l-34.6,14-46.2-11h-26L49,91.82,0,87.53v29.89s23.4-8,29.2-8.4,26.6,4.2,39.4,2.2,21,1.8,26.8,1,25.6-7.8,25.6-7.8l9.4,10.4,7.2-4.8,9,12.2,14.8-3.8,17.8-14,6.4,2.4H213c7,0,18.8,14,18.8,14l30.8-10.4,27,7"/><path class="cls-2" d="M289.6,183c-71.8,10.34-143.67,1.4-196.4-4-33.41-3.42-66.58-.42-93.2,4v28c50.27-2,143.92-5.78,203.45-.19,26.17,2.46,57,1.94,86.15.21Z"/><path class="cls-2" d="M0,217.18s45.4-8.4,53.8-4S73.4,228,73.4,228s18.8-6.08,29.2-8l10.4,4.84,40.8-12.88s20.4,6.88,25.6,9.68,16.8,11.2,24.8,8.4,39.6-12.4,39.6-12.4,18.4,3.69,26.8,3.64,19-3.64,19-3.64V248H271l-27.6,9.2-29.2-4s-13.6-8.8-35.2-8.8-34.2-7.2-34.2-7.2l-25.4,11.2-24.8-6.8L59.8,250l-21.2-12.8S3,248,0,248Z"/><path class="cls-2" d="M0,273s45.4-8.4,53.8-4,19.6,14.8,19.6,14.8,18.8-6.08,29.2-8l10.4,4.84,40.8-12.88s20.4,6.88,25.6,9.68,16.8,11.2,24.8,8.4,39.6-12.4,39.6-12.4,18.4,3.69,26.8,3.64,19-3.64,19-3.64v30.4H271L243.4,313l-29.2-4s-13.6-8.8-35.2-8.8-34.2-7.2-34.2-7.2l-25.4,11.2-24.8-6.8-34.8,8.4L38.6,293S3,303.78,0,303.78Z"/><path class="cls-2" d="M0-18.1s45.4-8.4,53.8-4S73.4-7.3,73.4-7.3s18.8-6.08,29.2-8L113-10.5l40.8-12.88s20.4,6.88,25.6,9.68,16.8,11.2,24.8,8.4,39.6-12.4,39.6-12.4,18.4,3.68,26.8,3.64,19-3.64,19-3.64V12.7H271l-27.6,9.2-29.2-4S200.6,9.1,179,9.1s-34.2-7.2-34.2-7.2L119.4,13.1,94.6,6.3,59.8,14.7,38.6,1.9S3,12.7,0,12.7Z"/><path class="cls-2" d="M289.6,280.72V250.84s-7.4,6.68-15.4,8.68-28.4-9.6-34.4-8.8-34,3.2-50-4-10.4-1.2-10.4-1.2l-34.6,14-46.2-11h-26L49,255.12,0,250.84v29.88s23.4-8,29.2-8.4,26.6,4.2,39.4,2.2,21,1.8,26.8,1,25.6-7.8,25.6-7.8l9.4,10.4,7.2-4.8,9,12.2,14.8-3.8,17.8-14,6.4,2.4H213c7,0,18.8,14,18.8,14l30.8-10.4,27,7"/><path class="cls-2" d="M0,161.54l16.2-10.4,13.6,11.2L65,144.74H75.4s-1.2-2.8,8,3.2,40,2,40,2l24,10.4s26.8-5.2,35.2-1.2,29.6-1.6,29.6-1.6l10,10,26.8-9.2,25.6,9.2,15-6V195s-41.8-15.9-61.6-12.3S186.6,195,186.6,195l-25.2-25.48L114,176.14l-31.8-6.58-27,15.58-7.2-6.2-18,6.2L0,195Z"/><rect class="cls-3" y="-276.73" width="289.6" height="289.6"/><path class="cls-2" d="M0-16.62s45.4-8.4,53.8-4S73.4-5.82,73.4-5.82s18.8-6.08,29.2-8L113-9,153.8-21.9s20.4,6.88,25.6,9.68S196.2-1,204.2-3.82s39.6-12.4,39.6-12.4,18.4,3.69,26.8,3.64,19-3.64,19-3.64v30.4H271l-27.6,9.2-29.2-4s-13.6-8.8-35.2-8.8-34.2-7.2-34.2-7.2l-25.4,11.2L94.6,7.78l-34.8,8.4L38.6,3.38S3,14.18,0,14.18Z"/></pattern></defs><title>8</title><g id="Layer_2" data-name="Layer 2"><g id="Chão"><rect class="cls-4" width="180" height="1020"/><polygon class="cls-5" points="0 1.49 1.01 1.49 1.59 1.98 2.61 1.98 3.4 1.32 4.68 1.32 5.9 2.32 7.17 2.32 7.74 1.84 8.95 1.84 9.94 2.67 11.03 2.67 12.49 1.47 13.84 1.47 15.97 3.21 17.19 3.21 18.94 1.79 20.09 1.79 21.16 2.67 22.25 2.67 23.53 1.62 24.81 1.62 27.02 3.42 28.24 3.42 30.69 1.44 31.91 1.44 33.67 2.87 34.83 2.87 36.46 1.54 37.55 1.54 38.46 2.3 39.61 2.3 41.06 1.11 42.09 1.11 44.7 3.21 46.11 3.21 47.84 1.8 49.06 1.8 50.11 2.67 51.46 2.67 53.24 1.23 54.4 1.23 57.76 3.92 58.85 3.92 61.16 2.06 62.26 2.06 64.08 3.53 65.23 3.53 66.27 2.67 67.49 2.67 69.26 4.1 70.48 4.1 73.99 1.3 75.27 1.3 78.2 3.66 79.49 3.66 82.69 1.11 83.78 1.11 87.88 4.36 89.11 4.36 92.58 1.59 93.81 1.59 96.68 3.89 97.78 3.89 99.61 2.43 100.89 2.43 101.85 3.21 103.02 3.21 105.01 1.62 106.17 1.62 108.97 3.84 110.07 3.84 113.2 1.36 114.38 1.36 118.03 4.23 119.25 4.23 120.51 3.21 121.61 3.21 122.4 2.56 123.5 2.56 125.13 3.87 126.18 3.87 128.73 1.85 130.1 1.85 133.26 4.34 134.3 4.34 138.2 1.28 139.31 1.28 141.77 3.21 142.95 3.21 145.15 1.49 146.52 1.49 149.05 3.47 150.03 3.47 151.7 2.17 152.76 2.17 153.79 2.98 155.03 2.98 157 1.45 158.29 1.45 161.66 4.02 162.84 4.02 165.56 1.96 166.76 1.96 167.83 2.78 169.16 2.78 171.04 1.34 172.19 1.34 175.1 3.54 176.34 3.54 178.75 1.71 180 1.71 180 1020 0 1020 0 1.49"/><polygon class="cls-6" points="0 2.98 1.36 2.98 1.83 3.97 3.21 3.97 3.85 2.63 5.57 2.63 6.55 4.65 8.26 4.65 8.72 3.68 10.35 3.68 11.15 5.34 12.62 5.34 13.79 2.95 15.6 2.95 17.3 6.42 18.94 6.42 20.34 3.57 21.9 3.57 22.75 5.34 24.23 5.34 25.25 3.23 26.97 3.23 28.75 6.84 30.38 6.84 32.35 2.87 33.98 2.87 35.4 5.74 36.95 5.74 38.26 3.08 39.73 3.08 40.46 4.59 42.02 4.59 43.18 2.21 44.57 2.21 46.65 6.42 48.55 6.42 49.93 3.6 51.57 3.6 52.41 5.34 54.23 5.34 55.65 2.45 57.21 2.45 59.9 7.84 61.38 7.84 63.22 4.12 64.7 4.12 66.16 7.05 67.71 7.05 68.54 5.34 70.19 5.34 71.6 8.2 73.25 8.2 76.05 2.61 77.77 2.61 80.12 7.31 81.85 7.31 84.41 2.21 85.89 2.21 89.16 8.72 90.81 8.72 93.59 3.18 95.24 3.18 97.54 7.78 99.02 7.78 100.48 4.86 102.21 4.86 102.97 6.42 104.54 6.42 106.14 3.23 107.7 3.23 109.94 7.68 111.42 7.68 113.92 2.71 115.5 2.71 118.42 8.46 120.06 8.46 121.07 6.42 122.55 6.42 123.18 5.13 124.66 5.13 125.97 7.73 127.37 7.73 129.41 3.71 131.24 3.71 133.77 8.67 135.17 8.67 138.29 2.56 139.77 2.56 141.74 6.42 143.32 6.42 145.08 2.97 146.91 2.97 148.93 6.95 150.25 6.95 151.59 4.33 153 4.33 153.83 5.95 155.48 5.95 157.06 2.9 158.77 2.9 161.47 8.04 163.05 8.04 165.22 3.91 166.82 3.91 167.67 5.56 169.43 5.56 170.94 2.69 172.46 2.69 174.79 7.08 176.43 7.08 178.36 3.42 180 3.42 180 1020 0 1020 0 2.98"/><polygon class="cls-7" points="0 4.46 1.72 4.46 2.07 5.95 3.82 5.95 4.3 3.95 6.46 3.95 7.19 6.97 9.36 6.97 9.7 5.52 11.76 5.52 12.35 8.01 14.21 8.01 15.08 4.42 17.36 4.42 18.64 9.63 20.7 9.63 21.75 5.36 23.71 5.36 24.35 8.01 26.2 8.01 26.97 4.85 29.14 4.85 30.47 10.26 32.53 10.26 34 4.3 36.06 4.3 37.12 8.62 39.08 8.62 40.06 4.62 41.91 4.62 42.46 6.89 44.42 6.89 45.29 3.32 47.04 3.32 48.61 9.63 50.98 9.63 52.02 5.4 54.09 5.4 54.72 8.01 56.99 8.01 58.06 3.67 60.02 3.67 62.04 11.75 63.9 11.75 65.28 6.18 67.14 6.18 68.23 10.58 70.19 10.58 70.82 8.01 72.88 8.01 73.94 12.3 76.01 12.3 78.11 3.91 80.28 3.91 82.04 10.97 84.21 10.97 86.13 3.32 87.99 3.32 90.45 13.09 92.52 13.09 94.6 4.77 96.67 4.77 98.4 11.68 100.25 11.68 101.35 7.28 103.52 7.28 104.1 9.63 106.06 9.63 107.26 4.85 109.22 4.85 110.9 11.52 112.76 11.52 114.64 4.07 116.63 4.07 118.82 12.7 120.87 12.7 121.63 9.63 123.49 9.63 123.96 7.7 125.82 7.7 126.8 11.6 128.56 11.6 130.09 5.56 132.38 5.56 134.28 13.01 136.03 13.01 138.38 3.83 140.24 3.83 141.72 9.63 143.69 9.63 145.01 4.46 147.3 4.46 148.82 10.42 150.47 10.42 151.47 6.5 153.24 6.5 153.86 8.93 155.94 8.93 157.12 4.34 159.26 4.34 161.28 12.07 163.26 12.07 164.89 5.87 166.88 5.87 167.52 8.34 169.71 8.34 170.84 4.03 172.73 4.03 174.48 10.62 176.52 10.62 177.97 5.13 180 5.13 180 1020 0 1020 0 4.46"/><polygon class="cls-8" points="0 5.95 2.08 5.95 2.31 7.94 4.42 7.94 4.74 5.27 7.35 5.27 7.84 9.29 10.45 9.29 10.68 7.36 13.16 7.36 13.56 10.68 15.79 10.68 16.38 5.9 19.11 5.9 19.97 12.84 22.45 12.84 23.16 7.15 25.52 7.15 25.94 10.68 28.18 10.68 28.69 6.47 31.3 6.47 32.19 13.68 34.67 13.68 35.66 5.74 38.14 5.74 38.85 11.49 41.21 11.49 41.86 6.16 44.1 6.16 44.46 9.19 46.83 9.19 47.41 4.43 49.52 4.43 50.56 12.84 53.42 12.84 54.12 7.2 56.6 7.2 57.02 10.68 59.76 10.68 60.48 4.9 62.84 4.9 64.18 15.67 66.42 15.67 67.34 8.25 69.58 8.25 70.31 14.1 72.67 14.1 73.09 10.68 75.58 10.68 76.28 16.4 78.77 16.4 80.17 5.21 82.79 5.21 83.96 14.63 86.58 14.63 87.86 4.43 90.09 4.43 91.73 17.45 94.22 17.45 95.61 6.36 98.1 6.36 99.25 15.57 101.49 15.57 102.22 9.71 104.84 9.71 105.22 12.84 107.59 12.84 108.39 6.47 110.75 6.47 111.87 15.36 114.11 15.36 115.36 5.43 117.75 5.43 119.21 16.93 121.68 16.93 122.19 12.84 124.42 12.84 124.74 10.26 126.98 10.26 127.63 15.46 129.75 15.46 130.77 7.41 133.52 7.41 134.78 17.34 136.9 17.34 138.46 5.11 140.7 5.11 141.69 12.84 144.06 12.84 144.94 5.95 147.69 5.95 148.7 13.89 150.69 13.89 151.36 8.66 153.48 8.66 153.9 11.91 156.39 11.91 157.18 5.79 159.75 5.79 161.09 16.09 163.47 16.09 164.55 7.83 166.93 7.83 167.36 11.12 169.99 11.12 170.75 5.37 173.01 5.37 174.17 14.15 176.61 14.15 177.58 6.84 180 6.84 180 1020 0 1020 0 5.95"/><polygon class="cls-9" points="0 7.44 2.44 7.44 2.56 9.92 5.03 9.92 5.19 6.59 8.24 6.59 8.49 11.62 11.54 11.62 11.65 9.2 14.56 9.2 14.76 13.35 17.38 13.35 17.67 7.37 20.87 7.37 21.3 16.05 24.21 16.05 24.56 8.94 27.32 8.94 27.54 13.35 30.16 13.35 30.41 8.09 33.47 8.09 33.91 17.11 36.82 17.11 37.31 7.17 40.22 7.17 40.58 14.36 43.34 14.36 43.66 7.69 46.28 7.69 46.47 11.48 49.23 11.48 49.52 5.54 51.99 5.54 52.51 16.05 55.86 16.05 56.21 9 59.12 9 59.33 13.35 62.53 13.35 62.89 6.13 65.65 6.13 66.33 19.59 68.94 19.59 69.41 10.31 72.03 10.31 72.39 17.63 75.15 17.63 75.36 13.35 78.27 13.35 78.63 20.5 81.54 20.5 82.24 6.52 85.29 6.52 85.88 18.28 88.94 18.28 89.58 5.54 92.2 5.54 93.02 21.81 95.93 21.81 96.62 7.96 99.53 7.96 100.11 19.46 102.73 19.46 103.1 12.14 106.15 12.14 106.34 16.05 109.11 16.05 109.51 8.09 112.27 8.09 112.83 19.2 115.45 19.2 116.08 6.78 118.88 6.78 119.61 21.16 122.49 21.16 122.74 16.05 125.36 16.05 125.52 12.82 128.14 12.82 128.47 19.33 130.94 19.33 131.45 9.26 134.66 9.26 135.29 21.68 137.77 21.68 138.55 6.39 141.17 6.39 141.66 16.05 144.43 16.05 144.87 7.43 148.08 7.43 148.58 17.37 150.91 17.37 151.25 10.83 153.72 10.83 153.93 14.88 156.85 14.88 157.24 7.24 160.23 7.24 160.91 20.11 163.68 20.11 164.22 9.79 166.99 9.79 167.21 13.9 170.27 13.9 170.65 6.71 173.28 6.71 173.86 17.69 176.71 17.69 177.19 8.55 180 8.55 180 1020 0 1020 0 7.44"/><polygon class="cls-10" points="180 10.26 176.8 10.26 176.8 21.23 173.55 21.23 173.55 8.06 170.55 8.06 170.55 16.68 167.05 16.68 167.05 11.74 163.88 11.74 163.88 24.13 160.72 24.13 160.72 8.68 157.3 8.68 157.3 17.86 153.97 17.86 153.97 13 151.13 13 151.13 20.84 148.47 20.84 148.47 8.92 144.8 8.92 144.8 19.27 141.63 19.27 141.63 7.67 138.63 7.67 138.63 26.02 135.8 26.02 135.8 11.12 132.13 11.12 132.13 23.19 129.3 23.19 129.3 15.39 126.3 15.39 126.3 19.27 123.3 19.27 123.3 25.39 120 25.39 120 8.14 116.8 8.14 116.8 23.04 113.8 23.04 113.8 9.7 110.63 9.7 110.63 19.27 107.47 19.27 107.47 14.57 103.97 14.57 103.97 23.35 100.97 23.35 100.97 9.55 97.63 9.55 97.63 26.17 94.3 26.17 94.3 6.64 91.3 6.64 91.3 21.94 87.8 21.94 87.8 7.82 84.3 7.82 84.3 24.61 80.97 24.61 80.97 16.02 77.63 16.02 77.63 21.15 74.47 21.15 74.47 12.37 71.47 12.37 71.47 23.51 68.47 23.51 68.47 7.35 65.3 7.35 65.3 16.02 61.63 16.02 61.63 10.8 58.3 10.8 58.3 19.27 54.47 19.27 54.47 6.64 51.63 6.64 51.63 13.78 48.47 13.78 48.47 9.23 45.47 9.23 45.47 17.23 42.3 17.23 42.3 8.61 38.97 8.61 38.97 20.53 35.63 20.53 35.63 9.7 32.13 9.7 32.13 16.02 29.13 16.02 29.13 10.72 25.97 10.72 25.97 19.27 22.63 19.27 22.63 8.85 18.97 8.85 18.97 16.02 15.97 16.02 15.97 11.04 12.63 11.04 12.63 13.94 9.13 13.94 9.13 7.91 5.63 7.91 5.63 11.9 2.8 11.9 2.8 8.92 0 8.92 0 1020 180 1020 180 10.26"/><polygon class="cls-11" points="180 11.96 176.8 11.96 176.8 22.92 173.55 22.92 173.55 9.76 170.55 9.76 170.55 18.38 167.05 18.38 167.05 13.44 163.88 13.44 163.88 25.81 160.72 25.81 160.72 10.39 157.3 10.39 157.3 19.55 153.97 19.55 153.97 14.7 151.13 14.7 151.13 22.53 148.47 22.53 148.47 10.63 144.8 10.63 144.8 20.95 141.63 20.95 141.63 9.38 138.63 9.38 138.63 27.69 135.8 27.69 135.8 12.82 132.13 12.82 132.13 24.88 129.3 24.88 129.3 17.08 126.3 17.08 126.3 20.95 123.3 20.95 123.3 27.07 120 27.07 120 9.85 116.8 9.85 116.8 24.72 113.8 24.72 113.8 11.41 110.63 11.41 110.63 20.95 107.47 20.95 107.47 16.26 103.97 16.26 103.97 25.03 100.97 25.03 100.97 11.25 97.63 11.25 97.63 27.85 94.3 27.85 94.3 8.35 91.3 8.35 91.3 23.62 87.8 23.62 87.8 9.53 84.3 9.53 84.3 26.28 80.97 26.28 80.97 17.71 77.63 17.71 77.63 22.84 74.47 22.84 74.47 14.07 71.47 14.07 71.47 25.19 68.47 25.19 68.47 9.06 65.3 9.06 65.3 17.71 61.63 17.71 61.63 12.5 58.3 12.5 58.3 20.95 54.47 20.95 54.47 8.35 51.63 8.35 51.63 15.48 48.47 15.48 48.47 10.94 45.47 10.94 45.47 18.92 42.3 18.92 42.3 10.32 38.97 10.32 38.97 22.21 35.63 22.21 35.63 11.41 32.13 11.41 32.13 17.71 29.13 17.71 29.13 12.43 25.97 12.43 25.97 20.95 22.63 20.95 22.63 10.55 18.97 10.55 18.97 17.71 15.97 17.71 15.97 12.74 12.63 12.74 12.63 15.64 9.13 15.64 9.13 9.61 5.63 9.61 5.63 13.61 2.8 13.61 2.8 10.63 0 10.63 0 1148.8 180 1148.8 180 11.96"/><polygon class="cls-12" points="180 13.66 176.8 13.66 176.8 24.6 173.55 24.6 173.55 11.47 170.55 11.47 170.55 20.07 167.05 20.07 167.05 15.14 163.88 15.14 163.88 27.5 160.72 27.5 160.72 12.1 157.3 12.1 157.3 21.24 153.97 21.24 153.97 16.39 151.13 16.39 151.13 24.21 148.47 24.21 148.47 12.33 144.8 12.33 144.8 22.64 141.63 22.64 141.63 11.09 138.63 11.09 138.63 29.37 135.8 29.37 135.8 14.52 132.13 14.52 132.13 26.56 129.3 26.56 129.3 18.78 126.3 18.78 126.3 22.64 123.3 22.64 123.3 28.75 120 28.75 120 11.55 116.8 11.55 116.8 26.4 113.8 26.4 113.8 13.11 110.63 13.11 110.63 22.64 107.47 22.64 107.47 17.96 103.97 17.96 103.97 26.71 100.97 26.71 100.97 12.96 97.63 12.96 97.63 29.53 94.3 29.53 94.3 10.06 91.3 10.06 91.3 25.31 87.8 25.31 87.8 11.24 84.3 11.24 84.3 27.96 80.97 27.96 80.97 19.4 77.63 19.4 77.63 24.52 74.47 24.52 74.47 15.77 71.47 15.77 71.47 26.87 68.47 26.87 68.47 10.77 65.3 10.77 65.3 19.4 61.63 19.4 61.63 14.21 58.3 14.21 58.3 22.64 54.47 22.64 54.47 10.06 51.63 10.06 51.63 17.18 48.47 17.18 48.47 12.64 45.47 12.64 45.47 20.62 42.3 20.62 42.3 12.02 38.97 12.02 38.97 23.9 35.63 23.9 35.63 13.11 32.13 13.11 32.13 19.4 29.13 19.4 29.13 14.13 25.97 14.13 25.97 22.64 22.63 22.64 22.63 12.26 18.97 12.26 18.97 19.4 15.97 19.4 15.97 14.44 12.63 14.44 12.63 17.33 9.13 17.33 9.13 11.32 5.63 11.32 5.63 15.31 2.8 15.31 2.8 12.34 0 12.34 0 1277.6 180 1277.6 180 13.66"/><polygon class="cls-13" points="180 15.37 176.8 15.37 176.8 26.29 173.55 26.29 173.55 13.18 170.55 13.18 170.55 21.76 167.05 21.76 167.05 16.84 163.88 16.84 163.88 29.18 160.72 29.18 160.72 13.8 157.3 13.8 157.3 22.93 153.97 22.93 153.97 18.09 151.13 18.09 151.13 25.9 148.47 25.9 148.47 14.04 144.8 14.04 144.8 24.33 141.63 24.33 141.63 12.79 138.63 12.79 138.63 31.05 135.8 31.05 135.8 16.22 132.13 16.22 132.13 28.24 129.3 28.24 129.3 20.47 126.3 20.47 126.3 24.33 123.3 24.33 123.3 30.42 120 30.42 120 13.26 116.8 13.26 116.8 28.08 113.8 28.08 113.8 14.82 110.63 14.82 110.63 24.33 107.47 24.33 107.47 19.66 103.97 19.66 103.97 28.39 100.97 28.39 100.97 14.66 97.63 14.66 97.63 31.2 94.3 31.2 94.3 11.77 91.3 11.77 91.3 26.99 87.8 26.99 87.8 12.94 84.3 12.94 84.3 29.64 80.97 29.64 80.97 21.1 77.63 21.1 77.63 26.21 74.47 26.21 74.47 17.47 71.47 17.47 71.47 28.55 68.47 28.55 68.47 12.48 65.3 12.48 65.3 21.1 61.63 21.1 61.63 15.91 58.3 15.91 58.3 24.33 54.47 24.33 54.47 11.77 51.63 11.77 51.63 18.87 48.47 18.87 48.47 14.35 45.47 14.35 45.47 22.31 42.3 22.31 42.3 13.73 38.97 13.73 38.97 25.59 35.63 25.59 35.63 14.82 32.13 14.82 32.13 21.1 29.13 21.1 29.13 15.83 25.97 15.83 25.97 24.33 22.63 24.33 22.63 13.96 18.97 13.96 18.97 21.1 15.97 21.1 15.97 16.14 12.63 16.14 12.63 19.03 9.13 19.03 9.13 13.03 5.63 13.03 5.63 17.01 2.8 17.01 2.8 14.04 0 14.04 0 1406.4 180 1406.4 180 15.37"/><polygon class="cls-14" points="180 17.07 176.8 17.07 176.8 27.97 173.55 27.97 173.55 14.88 170.55 14.88 170.55 23.45 167.05 23.45 167.05 18.55 163.88 18.55 163.88 30.86 160.72 30.86 160.72 15.51 157.3 15.51 157.3 24.62 153.97 24.62 153.97 19.79 151.13 19.79 151.13 27.58 148.47 27.58 148.47 15.74 144.8 15.74 144.8 26.02 141.63 26.02 141.63 14.5 138.63 14.5 138.63 32.72 135.8 32.72 135.8 17.92 132.13 17.92 132.13 29.92 129.3 29.92 129.3 22.17 126.3 22.17 126.3 26.02 123.3 26.02 123.3 32.1 120 32.1 120 14.97 116.8 14.97 116.8 29.76 113.8 29.76 113.8 16.52 110.63 16.52 110.63 26.02 107.47 26.02 107.47 21.35 103.97 21.35 103.97 30.08 100.97 30.08 100.97 16.36 97.63 16.36 97.63 32.88 94.3 32.88 94.3 13.48 91.3 13.48 91.3 28.67 87.8 28.67 87.8 14.65 84.3 14.65 84.3 31.32 80.97 31.32 80.97 22.79 77.63 22.79 77.63 27.89 74.47 27.89 74.47 19.17 71.47 19.17 71.47 30.23 68.47 30.23 68.47 14.18 65.3 14.18 65.3 22.79 61.63 22.79 61.63 17.61 58.3 17.61 58.3 26.02 54.47 26.02 54.47 13.48 51.63 13.48 51.63 20.57 48.47 20.57 48.47 16.05 45.47 16.05 45.47 24 42.3 24 42.3 15.44 38.97 15.44 38.97 27.27 35.63 27.27 35.63 16.52 32.13 16.52 32.13 22.79 29.13 22.79 29.13 17.53 25.97 17.53 25.97 26.02 22.63 26.02 22.63 15.67 18.97 15.67 18.97 22.79 15.97 22.79 15.97 17.84 12.63 17.84 12.63 20.73 9.13 20.73 9.13 14.73 5.63 14.73 5.63 18.71 2.8 18.71 2.8 15.75 0 15.75 0 1535.2 180 1535.2 180 17.07"/><polygon class="cls-15" points="180 18.77 176.8 18.77 176.8 29.66 173.55 29.66 173.55 16.59 170.55 16.59 170.55 25.15 167.05 25.15 167.05 20.25 163.88 20.25 163.88 32.53 160.72 32.53 160.72 17.21 157.3 17.21 157.3 26.31 153.97 26.31 153.97 21.49 151.13 21.49 151.13 29.27 148.47 29.27 148.47 17.45 144.8 17.45 144.8 27.71 141.63 27.71 141.63 16.21 138.63 16.21 138.63 34.4 135.8 34.4 135.8 19.63 132.13 19.63 132.13 31.6 129.3 31.6 129.3 23.86 126.3 23.86 126.3 27.71 123.3 27.71 123.3 33.78 120 33.78 120 16.68 116.8 16.68 116.8 31.45 113.8 31.45 113.8 18.23 110.63 18.23 110.63 27.71 107.47 27.71 107.47 23.05 103.97 23.05 103.97 31.76 100.97 31.76 100.97 18.07 97.63 18.07 97.63 34.56 94.3 34.56 94.3 15.19 91.3 15.19 91.3 30.36 87.8 30.36 87.8 16.36 84.3 16.36 84.3 33 80.97 33 80.97 24.49 77.63 24.49 77.63 29.58 74.47 29.58 74.47 20.87 71.47 20.87 71.47 31.91 68.47 31.91 68.47 15.89 65.3 15.89 65.3 24.49 61.63 24.49 61.63 19.31 58.3 19.31 58.3 27.71 54.47 27.71 54.47 15.19 51.63 15.19 51.63 22.27 48.47 22.27 48.47 17.76 45.47 17.76 45.47 25.69 42.3 25.69 42.3 17.14 38.97 17.14 38.97 28.96 35.63 28.96 35.63 18.23 32.13 18.23 32.13 24.49 29.13 24.49 29.13 19.24 25.97 19.24 25.97 27.71 22.63 27.71 22.63 17.38 18.97 17.38 18.97 24.49 15.97 24.49 15.97 19.55 12.63 19.55 12.63 22.43 9.13 22.43 9.13 16.44 5.63 16.44 5.63 20.41 2.8 20.41 2.8 17.45 0 17.45 0 1664 180 1664 180 18.77"/><polygon class="cls-16" points="180 20.48 176.8 20.48 176.8 31.34 173.55 31.34 173.55 18.3 170.55 18.3 170.55 26.84 167.05 26.84 167.05 21.95 163.88 21.95 163.88 34.22 160.72 34.22 160.72 18.92 157.3 18.92 157.3 28 153.97 28 153.97 23.19 151.13 23.19 151.13 30.95 148.47 30.95 148.47 19.15 144.8 19.15 144.8 29.4 141.63 29.4 141.63 17.92 138.63 17.92 138.63 36.08 135.8 36.08 135.8 21.33 132.13 21.33 132.13 33.28 129.3 33.28 129.3 25.56 126.3 25.56 126.3 29.4 123.3 29.4 123.3 35.46 120 35.46 120 18.38 116.8 18.38 116.8 33.13 113.8 33.13 113.8 19.93 110.63 19.93 110.63 29.4 107.47 29.4 107.47 24.74 103.97 24.74 103.97 33.44 100.97 33.44 100.97 19.77 97.63 19.77 97.63 36.23 94.3 36.23 94.3 16.9 91.3 16.9 91.3 32.04 87.8 32.04 87.8 18.07 84.3 18.07 84.3 34.68 80.97 34.68 80.97 26.18 77.63 26.18 77.63 31.27 74.47 31.27 74.47 22.57 71.47 22.57 71.47 33.59 68.47 33.59 68.47 17.6 65.3 17.6 65.3 26.18 61.63 26.18 61.63 21.02 58.3 21.02 58.3 29.4 54.47 29.4 54.47 16.9 51.63 16.9 51.63 23.97 48.47 23.97 48.47 19.46 45.47 19.46 45.47 27.38 42.3 27.38 42.3 18.85 38.97 18.85 38.97 30.64 35.63 30.64 35.63 19.93 32.13 19.93 32.13 26.18 29.13 26.18 29.13 20.94 25.97 20.94 25.97 29.4 22.63 29.4 22.63 19.08 18.97 19.08 18.97 26.18 15.97 26.18 15.97 21.25 12.63 21.25 12.63 24.12 9.13 24.12 9.13 18.15 5.63 18.15 5.63 22.11 2.8 22.11 2.8 19.16 0 19.16 0 1792.8 180 1792.8 180 20.48"/><polygon class="cls-17" points="180 20.48 176.8 20.48 176.8 31.34 173.55 31.34 173.55 18.3 170.55 18.3 170.55 26.84 167.05 26.84 167.05 21.95 163.88 21.95 163.88 34.22 160.72 34.22 160.72 18.92 157.3 18.92 157.3 28 153.97 28 153.97 23.19 151.13 23.19 151.13 30.95 148.47 30.95 148.47 19.15 144.8 19.15 144.8 29.4 141.63 29.4 141.63 17.92 138.63 17.92 138.63 36.08 135.8 36.08 135.8 21.33 132.13 21.33 132.13 33.28 129.3 33.28 129.3 25.56 126.3 25.56 126.3 29.4 123.3 29.4 123.3 35.46 120 35.46 120 18.38 116.8 18.38 116.8 33.13 113.8 33.13 113.8 19.93 110.63 19.93 110.63 29.4 107.47 29.4 107.47 24.74 103.97 24.74 103.97 33.44 100.97 33.44 100.97 19.77 97.63 19.77 97.63 36.23 94.3 36.23 94.3 16.9 91.3 16.9 91.3 32.04 87.8 32.04 87.8 18.07 84.3 18.07 84.3 34.68 80.97 34.68 80.97 26.18 77.63 26.18 77.63 31.27 74.47 31.27 74.47 22.57 71.47 22.57 71.47 33.59 68.47 33.59 68.47 17.6 65.3 17.6 65.3 26.18 61.63 26.18 61.63 21.02 58.3 21.02 58.3 29.4 54.47 29.4 54.47 16.9 51.63 16.9 51.63 23.97 48.47 23.97 48.47 19.46 45.47 19.46 45.47 27.38 42.3 27.38 42.3 18.85 38.97 18.85 38.97 30.64 35.63 30.64 35.63 19.93 32.13 19.93 32.13 26.18 29.13 26.18 29.13 20.94 25.97 20.94 25.97 29.4 22.63 29.4 22.63 19.08 18.97 19.08 18.97 26.18 15.97 26.18 15.97 21.25 12.63 21.25 12.63 24.12 9.13 24.12 9.13 18.15 5.63 18.15 5.63 22.11 2.8 22.11 2.8 19.16 0 19.16 0 1792.8 180 1792.8 180 20.48"/></g></g></svg>