<?xml version="1.0" encoding="utf-8"?>
<!-- Generator: Adobe Illustrator 23.1.0, SVG Export Plug-In . SVG Version: 6.00 Build 0)  -->
<svg version="1.1" id="Layer_1" xmlns="http://www.w3.org/2000/svg" xmlns:xlink="http://www.w3.org/1999/xlink" x="0px" y="0px"
	 viewBox="0 0 10023.6 3276.9" style="enable-background:new 0 0 10023.6 3276.9;" xml:space="preserve">
<style type="text/css">
	.st0{fill:#2A2A2A;}
	.st1{fill:#272727;}
	.st2{fill:#232323;}
	.st3{fill:#202020;}
	.st4{fill:#1D1D1D;}
	.st5{fill:#191919;}
	.st6{fill:#161616;}
</style>
<g>
	<path class="st0" d="M8602.2,2320.1l-38.4,199.2l-48,86.4l-160.5,38.1l-127.5-83.7l-26.4-91.2l-26.4,122.4l-56.8,83.2l-197.7-15.7
		l-84.4-31.1l-29.1-82l-42.3,64.8l-100.4,48.3c0,0-53.2-60.3-50.8-67.5c2.4-7.2,36-95.1,36-95.1l55-56.1l26.2-73.2l-98-59.3
		l-79.6-88.9l48.4-59.4l50.4-79.2l-19.2-96l-31.2-103.2l36-111.8l33.6-71.4l-26.4-71.2l-100.8-102l-127.2-42.7l-108,42.7l31.2,53
		v60.3l-9.6,48.7l-64.8,22.4l-9.6,58.6l20,56.7v94.6l-44,46.1l12,55.2l-48,36.6l-52.8,16.2l-122.4-14.4l-243,58.4l-214,3l-90.2-63.8
		l-36.6-73.8l-60.3,26.1l-138.7,17.8l-93.4,39.5l-107.7,34.8l-86.5-6l-64.8-74.4l-45.6-40.8l-33.3,64.7l-50.6,67.7l-119.4,35.6
		l-82.1-52.7l19.8-105.7l62.3-69.6l25.3-76.8l-86.3-103.2l-56-68.7l-18.8-76.4l74.7-98.5l28.9-64.2l-112.1-59.9l-154.1,56.2
		l-136.8,50.8l12,114l-79.2,125.6l-156,35.5h-134.4l-60,139.1l-127.2,117.8l81.6,158.3v94.1l-31.2,124.8l-186,90.8l-147.6-76.8
		l-98.4-72.3l-57.6,72.3l-62.4-14l-55.2-94l-52.8-150l-50.4,162l-57.6,60.8l-194.6,108.9l-367.2,20.9l-172.8-70.7l-159.8-88.6
		l-260,29.5l-112.8-12.3l-153.6-13.2l-156-35.3l-196.8-31l-55.2,40.6l-84,27.9l-88.8-145.5l-105.6,96l-237.6,58l-173.2-35.5
		l12.4-89.7l57.6-74.4l40.8-91.2l-76.8-132l-9.9-187.6l41.1-126l148.8-214.4l33.6,45.6l105.6,147.3l36.7-149.8l80.9-112.7l113,12.8
		l59.6,100l21.9-74.4l57.5-64.8l91.2-26.4l113.6,50.6l61.6,93.4l37.5-64.8l87.3-74.4l-31.2-14.4l-67.2-38.4l-42.2-26.4l-127.4,4.8
		l-46.4-96.2l-110.4-31l-138.4-139.2l-168,34.4l-208,34.4l-143.2,152l-48.2-114.7V946.4L1443,854l40.8,26.1l40.8-148.8l33.6-48
		l88.8,4.8l50.4,91.2l14.4-33.6l50.4-76.8h88.8l115.2,192l16-45.6l130.4-146.4l73.6,49.6l19.2,92.8l59.2-75.2l129.8-67.2l90,25.6
		l97,104l59.2-24l46.4,124.8l110.4,256l-16,172.8l-14.4,86.4l-81.8,57.3l57.8,79.7l83.2,34.3l113.6-112l97.6-92.8l34.4-86.9
		l88.8,38.9l13.8-180.8l82.2-164.8l300.8-118.4l137.8,51.2l147-35.2l137.6-40l177.6-28.8l120,105.6l88-92.8l132.8-6.4l92.8-60.8
		l209.6,30.4l83.8,97.6l17,96l20.8,145.6l22.2-113.6l40.2-134.4l105.6-99.2l228.8,1.6l70.4,27.2l30.4,89.6l48.3-80l130.2-35.2
		l137.1,13.6l55.6,56l14,41.2l20.4,82.8l19.2-75.6l49.2-100.8l92.4-4.8l67.2,66.6l78,46.2l31.2,58.8l1.2,97.2l32.4-75.6l49.2-61.2
		l111.6-20.4l68.4,50.4l51.6,65.6l39.6,96.4l34.6,92.4l18.4,82.8l11.9-42l16.8-36l21.6-37.2l45.6-25.2l43.5-76.7l45.3,14.3
		l28.8,50.4l63.6-150l21.6-87.6l27.6-15.8l132-111.4l124.8-31.2l112.8,110.6l74.4,151l24,160.6l33.6-189.4l48-208.8l120-52.8
		l158.4,50.4l43.2,240l51.3-138.4l60.3-106.4l85.4-19.2l112.6,168l48,180l38.4-222.4l48-84.8h168l122.4,151.2l7.2,112.8l-24,60.4
		l4.8,75.6l43.2,39.2l54.2,141.6l-15.8,88.1l9.6,129.5l30.3,161l-51.9,67.8l-31.2,36l50.4,75.3l55,111.1L8602.2,2320.1z M0,0v3276.9
		h10023.6V0H0z"/>
	<path class="st1" d="M1520.8,729.5l35.3-50.5l93.4,5l47.6,86.1l15.2-32.9l47.6-72.5h93.4l111.8,186.4l0,0l18.6-43.9l128.1-143.9
		l73.3,49.4l10.5,31.3l11.9,57.5l29.8-37.8l31.3-34.6l103.5-53.6l26.2-9.9l88.1,25.1l95.8,102.8L2643,769l46.3,124.5l10.6,25.2
		l99.3,230.3l-0.4,36.5l-12.5,135.4l-7.2,46.5l-6.6,39.8l-42.6,38.5l-32.5,22.8l16.5,35.7l31.9,44l62.6,25.8l19.6,4.5l88.6-87.3
		l24.6-24.1l70.5-67l24.6-26.8l29.2-73.8l6.3-9.8l69.3,30.4l16.2,3.6l10.1-132.8l6.5-46.5l69.3-138.9l14.8-22.8l299.5-117.9
		l137.3,51l4.9-0.7l141.5-33.9l137.7-40l179.8-29.2l118.5,104.2l86.4-91.1l133.3-6.4l93.2-61l212.7,30.9l85.6,99.7l17.2,97.3
		l1.1,7.4l22.3,95.2l30-105.5l41.6-119.6l107.9-82.5l145.5,1l80.1,6l61.5,31l29.6,67.6l52.7-70l120.1-32.5l139.4,13.8l57.4,57.8
		l14,41.2l22.1,58.5l19.4-69.9l60.7-85l89.1,8l69.6,63.5l71.2,50.1l33.4,39.8l13.8,78.7l36.1-64.7l49.5-44.7l41.1-3.1l62.5-3
		l32.2,25.6l30.5,26.1l47.7,66.1l38.9,96l0.6,1.6l0.5,1l32.1,67.1l22.9,64.8l12.8-40.1l16.7-34.7l20.8-35.9l44.7-18.9l23.4-29.6
		l19.9-30l40.3,6l28.7,31l43.6-109.6l19.1-34.8l27.3-80.8L6906,879l71-59.9l59-43.8l118-29.5l109.3,107.2l27.1,49l47.2,95.8
		l19.5,100.5l2.3,15.6l6.1,26.4l0.1-0.7l33.7-182.5l19-82.7l39.3-109.8l54.8-24.1l61.8-20.4l153.4,48.8l35.3,196.4l7.4,26.3
		l11.3-30.5l40.6-102.5l25.2-44.4l37.8-52.6l68.8-15.5l13.1-1l109.1,162.7l16.9,53.4l23.5,88l8.1,22.9l17.9-103.6l24.4-110
		l12.5-22.1l38.9-51.7H8381l123.1,152.1l2.1,12.3l6.4,100.6l-6.6,21l-15.9,40l-0.2,19.9l3.6,56.3l42.7,38.7l54.6,142.5l-0.5,6.3
		l-14.8,82.4l0.2,6.5l9,120.9l0.3,2.9l30.5,162.1l-52,68l-7.3,8.6l-23,26.5l39.9,59.6l10.4,16.3l49.2,99.4l4.7,12.4l-29.8,270.6
		l-0.1,1l-1.4,11.1l-36.2,188l-2.9,11.8l-48.2,86.8l-164,38.9l-130.3-85.5l-1.5-5l-21.9-66.7l-33.3,118.5l-63.5,68.1l-184.6-14.6
		l-86.8-32l-27-76l-38.3,58.7l-104.3,50.2c0,0-46.4-52.6-44.4-58.6c1.9-6.1,27.7-81.8,25.5-84.5c-1.3-1.6,43.5-49.8,42.7-50.8
		c-1-1.4,19.3-64.6,20.1-67c0.4-1.2-76.5-63-75.6-65.4l-2.6-4l-54.3-80.2l43.2-57.6l28-74.4l-32.1-97.9l-15.8-98.5l37.4-104.8
		l25.2-73.7l-27.5-77.6l-77.5-105.1l-49.7-28.9l-54.8-26.6l-105.5,20l7.2,37.8l-12.1,55l-4.7,46.2l-54,30.3l-10.1,59.7l6,50.9
		l-1,85.1l-33.5,47.5l10,64.2l-46.3,36.8l-40.2,21.4l-112.9,1.1l-75.9,16.1l-159.6,31.2l-218.5,12.2l-93.7-52.9l-49.4-61.2
		l-59.2,15.4l-56.8,0.6l-71.7-1l-91.7,37.6l-106.1,30.3l-86.9,1.3l-72.6-55.9l-48.2-33.6l-35.7,54.3l-55.5,46.7l-26.8,3.5
		l-83.3,36.5l-84.3-40l-0.6-51l0.5-38.3l40.5-65.3l23.6-77.4l-24.6-39.3l-35.2-66.6l-43.4-67.1l-24.2-73.9l15.8-31.8l32.2-67.7
		l20.3-69.1l-80.1-67.5l-31.4,5.8l-85.6,19l-26.4,9.6l-133.5,49.4l-9.7,102.4l-43.9,89.8l-24.4,38.7l-108.5,39.3l-38.9,8.8
		l-133.6,4.9l-59.5,91.4l-12.7,29.5l-72.3,76.9l-49,45.4l23.5,77.9l39.9,77.4l5.9,75v17.8l-17,82.3l-10.8,43.2l-76.9,51.5
		l-98.7,48.2l-105.9-36.9l-42.2-22l-100.3-69.8l-6.1,5.3l-54.5,45.9l-14.8-4.4l-44.4-2.4l-18.3-20.4l-43.6-56.2l-6.7-12.4
		l-43.8-112.7l-7.6-21.7l-18.9,39.6l-29.4,94.6l-3.1,7.9l-57.7,60.9l-196,109.6l-369.1,21l-173.9-71.2l-158.8-88.1l-259.1,29.5
		l-113.2-12.3l-153.8-13.2l-156.1-35.3l-183.9-28.9l-12.9-0.4l-38.7,28.5l-17.1,11.2l-84.5,28.1l-82.8-135.6l-6.6-7.1l-78.5,71.4
		l-28.7,22.1l-211.6,51.7l-26.4,4.4l-173.4-35.6l12.4-90.3l13.9-21.6l41.9-54.2l11.8-23.7l30.2-67.5l-2.7-6.7l-71.4-122.6l-1.7-3.5
		l-10-188.7l41.5-127.3l147.9-213.1l32.6,31.4l55.3,76.8l49.8,69.5l13.3-30.9l25.7-105l82.8-115.3l112.2,12.7l19.6,24.6l41.5,69.6
		l7.6-25.7l17.3-46.5l35-39.4l23.7-22.4l88.7-25.7l116.1,51.7l45,68.3l16.7,14.9l41.4-62.7l39.7-49.4l0.2-0.3l15.9-22.3l-31.4-11.8
		l-68.1-31.5l-40.3-21.8l-114.3-12.8l-55-84.7l-104.6-39.1l-59.8-60.5l-82.1-61.5l-63.5,13.2l-103.4,20.3l-111.1,18.1l-91.1,24.2
		l-96.4,101.2l-43.1,31.3l-36.2-86.1l-9.8-28.1v-86.5l0.9-14.7l38.3-91.7l19.8,7.8l18.8,12l8.4-17L1520.8,729.5z M4.2,4.2v3268.6
		h10015.3V4.2H4.2z"/>
	<path class="st2" d="M1516.9,727.7l37.1-53l98,5.3l44.8,81l16.1-32.2l44.8-68.3h98l108.5,180.8l0,0l21.1-42.1l125.9-141.3
		l73.1,49.3l14,28.8l11.6,56l29.7-37.7l33.4-32l103.2-53.4l26.5-6.3l86.2,24.5l94.7,101.5l61.8-25.1l46.2,124.2l10.4,25.2
		l99.1,229.8l2.6,35.9l-12.5,135.1l-6.6,46.4l-6.6,39.7l-36.1,42.4l-32.4,22.7l5.7,33.8l33.3,45.8l62.3,25.7l18.7,0.6l88.2-87
		l24.6-24l70.2-66.8l22.3-28.2l29.1-73.5l7.5-6.8l69.1,30.3l13.3-1.2l10.1-132.3l9.3-45.5l69-138.4l17-20.3L3557.3,860l136.8,50.8
		l4.9-0.2l141-33.8l137.9-40.1l182-29.5l116.9,102.9l84.8-89.4l133.9-6.5l93.5-61.3l215.8,31.3l87.3,101.7l17.4,98.5l1,7.2l25,52.4
		l37.8-97.3l43.1-104.9l110.3-65.9l141.1,1l81.2,11.4l52.6,34.7l28.8,45.5l57.1-60.1l110-29.7l141.6,14l59.1,59.5l14,41.2l23.8,34.2
		l19.5-64.2l72.2-69.2l85.9,20.9l71.9,60.5l64.3,54.1l35.7,20.7l26.4,60.1l39.8-53.7l49.8-28.3l38.6,1.8l56.9,6.3l30,25.9l27,27.2
		l43.8,66.7l38.1,95.6l0.5,1.6l0.5,0.5l30.8,44.9l27.4,46.8l13.7-38.3l16.5-33.4l19.9-34.5l43.9-12.5l25.4-21.6l17.6-21l35.3-2.4
		l28.5,11.6l39.6-106.9l22.3-31.8l33-74.1l25-16.1l68.6-57.9l59.2-38l111.1-27.8L7261,845.1l28.4,45.8l45.7,92.7l23.2,95.9l2.3,15.1
		l6.3,13.2l0.1-0.7l33.9-176.4l18.4-80l50.3-96.1l53.1-23.3l60.1-12.9l148.3,47.2l34.2,190.1l8,15.2l10.9-29.5l41.6-98.1l24.4-43
		l41.3-44.5l66.5-15l11.8,1.1l105.6,157.5l18.8,50.6l22.7,85.2l7.4,12.9l17.3-100.3l28.9-104.5l12.1-21.3l42.7-41.4H8383
		l123.8,152.9l3.3,11.9l6.5,101.2l-5,21.4l-16,40.3l-1.7,19.7l3.6,57l42.2,38.3l54.9,143.5l0,6.3l-14.9,82.9l-0.1,6.5l9,121.8
		l0.3,2.9l30.7,163.2l-52.1,68.2l-7.2,8.7l-22.1,25.5l40,59.8l10,16.5l49.4,99.8l3.5,12.6l-29.9,271.7l-0.1,1l-1.5,11.2l-36.4,188.8
		l-3.6,11.6l-48.4,87.1l-167.6,39.8l-133.1-87.4l-1.5-5l-18.8-47.3l-40.2,114.7l-70.1,52.9l-171.4-13.6l-89.2-32.8l-24.8-69.9
		l-34.4,52.7l-108.2,52.1c0,0-39.6-45-38-49.8c1.4-5,19.4-68.6,15-74c-2.6-3.3,31.9-43.4,30.4-45.5c-2-2.8,12.5-56,14.1-60.8
		c0.8-2.4-55.1-66.6-53.2-71.6l-1.7-4.2l-32.5-75.3l38.1-55.9l5.7-69.7l-44.9-99.9l-0.5-93.7l38.7-97.7l16.7-75.9l-28.6-84
		l-54.2-108.3l-33.8-35.8l-48-32.6l-102.9-2.8l-16.8,22.7l-24.1,49.7l0.2,43.7l-43.2,38.1l-10.7,60.8l-8.1,45.2l-2.1,75.6l-22.9,49
		l8,73.1l-44.6,37l-27.6,26.5l-103.4,16.5l-76.2,14l-151.8,22.1l-223.1,21.4l-97.3-42l-62.3-48.7l-58.1,4.7l-55.1-6.4l-63.2-12.3
		l-90,35.6l-104.5,25.8l-87.3,8.5l-80.5-37.4l-50.9-26.3l-38,43.8l-60.5,25.7l-25.6-1.3l-75,45.7l-86.6-27.3l-13.3-37.6l-6.7-35.2
		l18.7-61l21.9-78l-17.8-41.2l-15.5-67.5l-30.9-65.4l-29.6-71.4l7.4-31.7l13.8-68.8l11.6-73.9l-48-75.2l-21.5-3.4l-84.8,6.5
		l-26.4,9.6l-130.2,48.1l-31.5,90.7l-32.9,92.5l-24.4,38.7l-99.7,52l-38.9,8.8l-132.8,9.8l-71.8,73.1l-12.8,29.6l-66.4,81.3
		l-49.1,45.5l5.3,74.9l40,77.6l11.8,73.7v17.9l-13.6,82.8l-10.8,43.3l-66.3,60.3l-98.9,48.3l-106.3-19l-42.3-22l-102.1-67.2
		l-6.6,3.4l-57.2,26.8l-14.4-5.4l-41.6,5.7l-19-10.8l-49.5-48.2l-8.3-10.6l-47.4-111.2l-7.6-21.7l-19.3,19.8l-29.5,94.8l-3.7,7.5
		l-57.8,61l-197.4,110.4l-371,21.1l-175-71.6l-157.9-87.5l-258.3,29.4l-113.6-12.4l-154.1-13.2l-156.3-35.3l-184.3-29l-12.5,1.3
		l-38.8,28.5l-17.6,10.3l-84.9,28.2l-82.9-135.8l-7-4l-78.6,71.5l-30.2,19.4l-211.9,51.8l-26.5,2.5l-173.7-35.6l12.5-90.8l11.8-22.6
		l42.2-54.5l12.8-23.3l30.4-67.9l-1.5-6.9l-71.8-123.3l-1.4-3.6l-10-189.8l42-128.6l147-211.8l31.6,17.2l55.2,76.2l49.5,69.1
		l15.7-17.6l25.6-104.3l84.7-118l111.4,12.6l22,20.4l40.5,68l7.5-25.5l20.3-44.5l34.7-39.2l25.2-19.7l86.1-24.9l118.6,52.8
		l44.7,67.8l17.3,5.2l45.3-60.6l18.6-47l0.1-0.3l5.6-22.3l-31.6-9.2l-69-24.7l-38.5-17.2l-101.1-30.4l-63.6-73.3l-98.9-47.1
		l-59.2-60.3l-86.3-44.5l-63,13.3L1772,991.3l-110.3,17.7l-86.1,32.4l-96.2,99.9l-39.5,13l-35.9-85.5l-7.8-28.3v-85.8l1.8-14.5
		l38-91.1l17.8,1.7l18.7,11.9l10.6-11.2L1516.9,727.7z M8.3,8.3v3260.3h10006.9V8.3H8.3z"/>
	<path class="st3" d="M1513.1,725.9l38.8-55.5l102.6,5.5l42,76l16.9-31.6l42-64h102.6l105.1,175.2l0,0l23.7-40.4l123.6-138.8
		l72.8,49.1l17.5,26.4l11.3,54.6l29.6-37.6l35.4-29.3l102.9-53.3l26.8-2.8l84.3,24l93.5,100.3l63.2-25.6l46.1,123.9l10.1,25.2
		l98.8,229.2l5.6,35.4l-12.5,134.8l-6,46.4l-6.6,39.6l-29.5,46.4l-32.3,22.7l-5.1,31.9l34.6,47.7l62.1,25.6l17.9-3.4l87.9-86.6
		l24.6-23.8l70-66.5l20-29.5l29-73.2l8.7-3.7l68.8,30.2l10.4-6l10.1-131.7l12.2-44.5l68.7-137.8l19.2-17.7l296.9-116.9l136.4,50.7
		l4.8,0.3l140.5-33.7l138-40.1l184.2-29.9l115.4,101.5l83.2-87.7l134.4-6.5l93.9-61.5l218.9,31.8l89.1,103.7l17.7,99.8l1,7l27.6,9.6
		l45.6-89.2l44.5-90.1l112.6-49.2l136.8,1l82.3,16.8l43.6,38.5l28,23.5l61.5-50.1l99.9-27l143.9,14.3l60.9,61.3l14,41.2l25.6,9.9
		l19.7-58.5l83.7-53.5l82.6,33.7l74.3,57.4l57.5,58l37.9,1.7l39.1,41.6l43.4-42.8l50.1-11.8l36.2,6.6l51.3,15.7l27.8,26.2l23.5,28.3
		l39.9,67.2l37.4,95.2l0.5,1.5l0.5,0.1l29.5,22.6l31.9,28.8l14.7-36.4l16.4-32.1l19.1-33.2l43-6.2l27.4-13.5l15.4-12l30.2-10.7
		l28.4-7.8l35.6-104.2l25.5-28.9l38.7-67.3l23.6-16.2l66.3-55.9l59.5-32.3l104.3-26.1l102.4,100.4l29.8,42.7l44.2,89.7l27,91.4
		l2.2,14.6l6.4,0.1l0.1-0.7l34.2-170.2l17.8-77.3l61.3-82.4l51.3-22.6l58.5-5.4l143.3,45.6l33.1,183.7l8.7,4.2l10.6-28.5l42.7-93.7
		l23.5-41.5l44.8-36.5l64.3-14.5l10.5,3.3l102,152.2l20.7,47.7l22,82.3l6.8,2.8l16.7-96.9l33.4-99.1l11.7-20.6l46.5-31H8385
		l124.5,153.8l4.6,11.5l6.5,101.7l-3.4,21.8l-16.1,40.5l-3.2,19.6l3.7,57.7l41.7,37.8l55.3,144.5l0.6,6.3l-15,83.5l-0.4,6.6
		l9.1,122.6l0.4,2.9l30.9,164.3l-52.3,68.3l-7.2,8.8l-21.3,24.5l40.2,60.1l9.7,16.8l49.6,100.2l2.2,12.9l-30,272.8l-0.1,1l-1.7,11.2
		l-36.5,189.6l-4.2,11.5l-48.6,87.5l-171.1,40.6l-135.9-89.2l-1.4-5l-15.7-27.9l-47.1,110.8l-76.8,37.8l-158.3-12.5l-91.6-33.7
		l-22.6-63.8l-30.4,46.6l-112.1,53.9c0,0-32.9-37.3-31.7-40.9c0.9-3.9,11.1-55.4,4.5-63.5c-4-4.9,20.4-37,18.2-40.2
		c-3-4.3,5.6-47.3,8-54.5c1.2-3.7-33.6-70.3-30.8-77.7l-0.8-4.3l-10.7-70.5l32.9-54.1l-16.7-64.9l-57.8-101.8l14.9-89l40.1-90.6
		l8.3-78.2l-29.8-90.4l-31-111.4l-17.9-42.7l-41.2-38.5l-100.4-25.6l-40.8,7.5l-36.2,44.5l5.1,41.2l-32.4,46l-11.2,61.9l-22.1,39.5
		l-3.1,66.1l-12.4,50.4l6,82.1l-42.9,37.3l-15,31.7l-94,32l-76.6,12l-143.9,13l-227.7,30.5l-100.8-31.1l-75.1-36.1l-57-5.9
		l-53.4-13.3l-54.7-23.7l-88.3,33.7l-102.9,21.3l-87.7,15.8l-88.3-18.9l-53.5-19.1l-40.4,33.4l-65.4,4.7l-24.5-6.1l-66.8,55
		l-88.8-14.6l-26-24.3l-14-32.1l-3.1-56.7l20.2-78.6l-11.1-43l4.2-68.3l-18.3-63.7l-35.1-68.9l-1-31.6l-4.5-69.8l3-78.8l-16-82.8
		l-11.6-12.6l-84-6l-26.4,9.6l-126.9,46.7l-53.2,79l-22,95.2l-24.4,38.8l-91,64.7l-39,8.9l-132,14.7l-84,54.8l-12.8,29.6l-60.5,85.7
		l-49.2,45.6l-12.9,71.8l40.1,77.7l17.7,72.4v17.9l-10.2,83.4l-10.8,43.3l-55.7,69.1l-99.1,48.4l-106.8-1.1l-42.4-22.1l-104-64.7
		l-7,1.4l-59.9,7.6l-14-6.4l-38.9,13.9l-19.7-1.2l-55.5-40.3l-10-8.8l-51.1-109.8l-7.7-21.7l-19.7,0.1l-29.6,95l-4.2,7.2l-57.9,61.1
		L3748,2487.6l-372.9,21.2l-176.1-72.1l-156.9-87l-257.4,29.3l-114.1-12.4l-154.3-13.3l-156.4-35.3l-184.6-29.1l-12.1,3l-38.8,28.6
		l-18.2,9.4l-85.4,28.4l-83-136l-7.5-1l-78.8,71.6l-31.6,16.8l-212.2,51.8l-26.6,0.5l-174-35.7l12.6-91.3l9.8-23.6l42.4-54.8
		l13.7-22.8l30.6-68.3l-0.3-7l-72.2-124l-1.1-3.7l-10.1-190.9l42.4-129.9l146.1-210.5l30.5,3l55,75.7l49.3,68.7l18.2-4.3l25.4-103.7
		l86.6-120.6l110.5,12.5l24.5,16.2l39.6,66.4l7.5-25.4l23.2-42.4l34.5-38.9l26.6-17l83.6-24.2l121.1,53.9l44.4,67.3l17.8-4.4
		l49.3-58.4l-2.4-44.6l0-0.3l-4.7-22.3l-31.8-6.6l-69.9-17.8l-36.6-12.6l-88-48l-72.2-61.8l-93.1-55.1l-58.6-60l-90.5-27.6
		l-62.5,13.4L1756,998.5l-109.5,17.4l-81.1,40.7l-96,98.6l-35.9-5.2l-35.7-84.8l-5.9-28.4v-85.2l2.8-14.2l37.7-90.4l15.7-4.5
		l18.6,11.9l12.7-5.3L1513.1,725.9z M12.5,12.5v3251.9h9998.6V12.5H12.5z"/>
	<path class="st4" d="M1509.3,724.1l40.6-58l107.3,5.8l39.2,70.9l17.7-30.9l39.2-59.7h107.2l101.8,169.6l0,0l26.2-38.6l121.4-136.3
		l72.6,48.9l21,23.9l11,53.1l29.5-37.5l37.4-26.7l102.6-53.1l27.1,0.8l82.4,23.4l92.3,99l64.5-26.1l45.9,123.6l9.9,25.3l98.6,228.7
		l8.5,34.8l-12.4,134.4l-5.4,46.4l-6.6,39.5l-22.9,50.4l-32.3,22.6l-15.9,30l36,49.6l61.8,25.5l17-7.3l87.5-86.3l24.5-23.6
		l69.7-66.2l17.8-30.9l28.9-72.9l9.9-0.7l68.5,30l7.4-10.8l10-131.2l15-43.6l68.5-137.3l21.3-15.2L3557.2,851l135.9,50.5l4.8,0.8
		l140-33.5l138.2-40.2l186.4-30.2l113.9,100.2l81.6-86l135-6.5l94.3-61.8l222,32.2l90.8,105.8l17.9,101l1,6.8l30.3-33.2l53.4-81.1
		l46-75.4l115-32.5l132.4,0.9l83.4,22.2l34.7,42.2l27.3,1.5l65.9-40.1l89.8-24.3l146.1,14.5l62.6,63l14,41.2l27.3-14.4l19.9-52.8
		l95.2-37.7l79.4,46.5l76.7,54.4l50.6,61.9l40.1-17.4l51.7,23l47.1-31.8l50.4,4.7l33.7,11.5l45.7,25.1l25.7,26.5l20,29.4l36,67.7
		l36.7,94.8l0.4,1.5l0.5-0.3l28.2,0.4l36.4,10.8l15.6-34.5l16.2-30.7l18.3-31.9l42.1,0.1l29.5-5.5l13.1-3l25.2-19.1l28.2-27.2
		l31.7-101.5l28.6-25.9l44.4-60.6l22.3-16.3l64-54l59.8-26.6l97.4-24.4l98.9,97l31.1,39.5l42.7,86.7l30.8,86.8l2.1,14.1l6.6-13.1
		l0.1-0.6l34.4-164l17.2-74.7l72.2-68.8l49.5-21.8l56.9,2.1l138.3,44l31.9,177.4l9.4-6.8l10.2-27.5l43.7-89.4l22.7-40.1l48.2-28.5
		l62.1-14l9.2,5.5l98.5,147l22.5,44.9l21.2,79.5l6.1-7.3l16.2-93.6l37.9-93.7l11.3-19.9l50.3-20.7H8387l125.2,154.6l5.8,11.1
		l6.5,102.3l-1.8,22.2l-16.2,40.7l-4.7,19.5l3.7,58.5l41.1,37.3l55.7,145.5l1.2,6.3l-15.1,84.1l-0.6,6.6l9.1,123.4l0.4,2.9
		l31.1,165.4l-52.4,68.5l-7.1,8.9l-20.4,23.5l40.4,60.3l9.4,17.1l49.8,100.6l1,13.2l-30.2,274l-0.2,1l-1.9,11.2l-36.7,190.3
		l-4.8,11.3l-48.8,87.9l-174.6,41.5l-138.7-91l-1.4-4.9l-12.7-8.5l-54,106.9l-83.5,22.6l-145.1-11.5l-93.9-34.6l-20.5-57.7
		l-26.4,40.5l-116,55.8c0,0-26.1-29.6-25.3-32c0.4-2.8,2.8-42.1-6-52.9c-5.3-6.5,8.9-30.7,5.9-34.9c-4-5.7-1.2-38.7,2-48.3
		c1.6-4.9-12.2-74-8.4-83.8l0.1-4.5l11.1-65.6l27.8-52.4l-39-60.2l-70.6-103.7l30.2-84.3l41.5-83.6l-0.1-80.4l-30.9-96.7l-7.7-114.5
		l-2-49.6l-34.4-44.4l-97.9-48.4l-64.9-7.6l-48.2,39.2l10,38.7l-21.6,53.8l-11.8,63l-36.2,33.7l-4.1,56.6l-1.8,51.8l4,91l-41.2,37.5
		l-2.5,36.8l-84.5,47.5l-77,9.9l-136.1,4l-232.2,39.7l-104.3-20.2l-87.9-23.5l-55.9-16.6l-51.7-20.3l-46.2-35l-86.6,31.7
		l-101.3,16.8l-88.1,23.1l-96.1-0.3l-56.1-11.8l-42.8,23l-70.3-16.3l-23.3-10.8l-58.6,64.2l-91-1.9l-38.7-10.9l-21.2-29.1
		l-24.8-52.5l18.5-79.3l-4.4-44.9l24-69.2l-5.8-62l-40.5-66.5l-9.4-31.5l-22.8-70.9l-5.7-83.7l16.1-90.5l-1.7-21.8l-83.2-18.6
		l-26.5,9.7l-123.7,45.4l-75,67.3l-11,97.9l-24.5,38.9l-82.2,77.4l-39.1,8.9l-131.2,19.6l-96.3,36.5l-12.8,29.7l-54.6,90.2
		l-49.3,45.7l-31.2,68.8l40.2,77.9l23.6,71.2v17.9l-6.8,84l-10.9,43.4l-45.1,77.9l-99.3,48.5l-107.2,16.9l-42.5-22.1l-105.9-62.1
		l-7.4-0.5l-62.5-11.5l-13.5-7.4l-36.1,22l-20.4,8.3l-61.5-32.3l-11.6-7l-54.7-108.4l-7.7-21.8l-20.1-19.7l-29.6,95.1l-4.8,6.9
		l-58.1,61.2l-200.2,112l-374.8,21.3l-177.2-72.5l-156-86.5l-256.5,29.2l-114.5-12.5l-154.5-13.3l-156.6-35.4l-185-29.1l-11.7,4.7
		l-38.9,28.6l-18.7,8.4l-85.9,28.5l-83.1-136.2l-7.9,2l-78.9,71.7l-33.1,14.1l-212.5,51.9l-26.6-1.5l-174.2-35.8l12.6-91.8l7.7-24.6
		l42.7-55.1l14.7-22.4l30.7-68.7l0.9-7.1l-72.6-124.7l-0.8-3.9l-10.1-192l42.8-131.3l145.2-209.2l29.5-11.2l54.8,75.1l49,68.3
		l20.6,9l25.2-103l88.5-123.2l109.7,12.4l26.9,12l38.6,64.8l7.4-25.2l26.2-40.4l34.3-38.6l28.1-14.3l81-23.5l123.6,55l44,66.8
		l18.3-14.1l53.2-56.3l-23.4-42.2l-0.2-0.3l-15-22.3l-32-4l-70.8-11l-34.8-8l-74.9-65.6l-80.7-50.4l-87.3-63.1l-57.9-59.7
		l-94.7-10.6l-62,13.6l-101.5,17.2l-108.7,17l-76.1,49l-95.9,97.3l-32.4-23.5l-35.4-84.2l-3.9-28.6v-84.6l3.7-13.9l37.4-89.7
		l13.6-10.6l18.4,11.8l14.9,0.5L1509.3,724.1z M16.7,16.7v3243.6h9990.3V16.7H16.7z"/>
	<path class="st5" d="M1505.5,722.3l42.3-60.4l111.9,6l36.4,65.8l18.5-30.2L1751,648h111.8l98.4,164.1l0,0l28.8-36.9l119.1-133.8
		l72.3,48.7l24.6,21.4l10.7,51.6l29.4-37.3l39.4-24.1l102.3-53l27.4,4.3l80.5,22.9l91.2,97.8l65.8-26.7l45.8,123.3l9.7,25.3
		l98.4,228.1l11.5,34.3l-12.4,134.1l-4.9,46.3l-6.6,39.4l-16.3,54.4l-32.2,22.5l-26.7,28.1l37.3,51.5l61.6,25.4l16.2-11.2l87.2-85.9
		l24.5-23.5l69.4-66l15.5-32.2l28.7-72.6l11.1,2.4l68.2,29.9l4.5-15.6l10-130.7l17.9-42.6l68.2-136.7l23.5-12.6l294.3-115.8
		l135.4,50.3l4.7,1.3l139.5-33.4l138.3-40.2l188.6-30.6l112.3,98.8l79.9-84.3l135.5-6.5l94.7-62l225.1,32.7l92.6,107.8l18.1,102.3
		l0.9,6.5l32.9-76l61.2-72.9l47.4-60.6l117.3-15.8l128.1,0.9l84.5,27.6l25.8,46l26.5-20.5l70.3-30.2l79.8-21.6l148.4,14.7l64.3,64.7
		l14,41.3l29-38.6l20.1-47.1l106.7-21.9l76.1,59.3l79,51.3l43.8,65.8l42.4-36.4l64.3,4.5l50.8-20.9l50.8,21.2l31.2,16.3l40.1,34.5
		l23.5,26.8l16.5,30.5l32.2,68.3l35.9,94.4l0.4,1.5l0.5-0.7l26.9-21.9l41-7.1l16.5-32.7l16.1-29.4l17.4-30.6l41.3,6.4l31.5,2.5
		l10.9,6.1l20.2-27.4l28.1-46.6l27.7-98.8l31.8-23l50.1-53.8l21-16.5l61.6-52l60-20.8l90.6-22.6l95.5,93.6l32.5,36.4L7328,941
		l34.5,82.3l2,13.6l6.8-26.2l0.1-0.6l34.6-157.9l16.5-72l83.2-55.1l47.7-21l55.2,9.6l133.2,42.4l30.8,171.1l10-17.8l9.8-26.5
		l44.7-85l21.9-38.7l51.7-20.4l59.9-13.5l7.9,7.7l95,141.7l24.4,42.1l20.4,76.7l5.4-17.3l15.6-90.3l42.4-88.2l10.9-19.2l54.1-10.3
		h141.8l125.9,155.5l7.1,10.7l6.6,102.9l-0.1,22.5l-16.3,41l-6.2,19.4l3.8,59.2l40.6,36.8l56.1,146.4l1.8,6.2l-15.2,84.6l-0.9,6.6
		l9.2,124.2l0.5,3l31.3,166.5l-52.5,68.6l-7,9l-19.5,22.5l40.5,60.5l9.1,17.4l50,101.1l-0.3,13.4l-30.3,275.1l-0.2,1l-2,11.2
		l-36.8,191.1l-5.4,11.1l-49,88.2l-178.2,42.3l-141.4-92.9l-1.4-4.9l-9.6,10.9l-60.8,103.1l-90.2,7.5l-131.9-10.5l-96.3-35.4
		l-18.3-51.6l-22.5,34.4l-119.9,57.7c0,0-19.3-21.9-18.9-23.1c-0.1-1.7-5.5-28.9-16.5-42.4c-6.6-8.1-2.7-24.3-6.4-29.6
		c-5-7.1-8.1-30-4.1-42c2-6.1,9.3-77.7,14-90l1-4.7l33-60.8l22.6-50.6l-61.4-55.4l-83.5-105.6l45.6-79.6l42.8-76.5l-8.6-82.7
		l-32-103.1l15.6-117.6l13.9-56.5l-27.7-50.4l-95.4-71.2l-88.9-22.8l-60.3,33.9l14.9,36.2l-10.8,61.7l-12.3,64.1l-50.2,28l-5.1,47.1
		l8.7,53.2l2,100l-39.5,37.7l10.1,42l-75,63l-77.4,7.8l-128.2-5.1l-236.8,48.8l-107.8-9.3l-100.8-11l-54.8-27.3l-49.9-27.2
		l-37.8-46.3l-84.9,29.8l-99.7,12.3l-88.4,30.3l-104,18.2l-58.8-4.6l-45.1,12.5l-75.2-37.3l-22.2-15.6l-50.3,73.5l-93.3,10.8
		l-51.4,2.5l-28.5-26l-46.6-48.2l16.8-79.9l2.4-46.8l43.7-70l6.7-60.3l-45.9-64l-17.8-31.4l-41.2-72l-14.3-88.6l48.1-98.1l8.2-31.1
		l-82.4-31.1l-26.5,9.7l-120.4,44.1l-96.7,55.6l-0.1,100.6l-24.5,38.9l-73.5,90.1l-39.2,8.9l-130.4,24.6l-108.5,18.3l-12.8,29.8
		l-48.6,94.6l-49.4,45.8l-49.4,65.7l40.2,78l29.5,69.9v18l-3.4,84.6l-10.9,43.5l-34.5,86.7l-99.5,48.6l-107.6,34.8l-42.6-22.1
		l-107.7-59.6l-7.8-2.4l-65.2-30.7l-13.1-8.4l-33.3,30.1l-21.1,17.9l-67.4-24.4l-13.3-5.1l-58.3-106.9l-7.7-21.8l-20.5-39.5
		l-29.7,95.3l-5.4,6.6l-58.2,61.3l-201.6,112.8l-376.7,21.4l-178.3-73l-155-86l-255.7,29.1l-114.9-12.5l-154.8-13.3l-156.7-35.4
		L2173,2297l-11.3,6.3l-39,28.7l-19.2,7.5l-86.4,28.7l-83.3-136.4l-8.4,5l-79,71.8l-34.6,11.5l-212.9,52l-26.7-3.5l-174.5-35.8
		l12.7-92.4l5.7-25.6l42.9-55.4l15.7-22l30.9-69.1l2.1-7.2l-73-125.4l-0.5-4l-10.2-193.1l43.3-132.6l144.3-207.9l28.5-25.4
		l54.7,74.6l48.7,67.9l23.1,22.3l25.1-102.4l90.4-125.9l108.9,12.3l29.4,7.8l37.6,63.2l7.4-25l29.2-38.3l34-38.4l29.5-11.7
		l78.5-22.7l126.1,56.1l43.7,66.3l18.8-23.8l57.2-54.2l-44.5-39.8l-0.3-0.3l-25.4-22.3l-32.1-1.4l-71.8-4.1l-32.9-3.4l-61.7-83.1
		l-89.3-39l-81.6-71.2l-57.3-59.5l-98.8,6.3l-61.5,13.7l-100.9,16.2l-108,16.6l-71.1,57.3l-95.7,96l-28.8-41.7l-35.1-83.5l-2-28.8
		v-83.9l4.6-13.6l37.2-89l11.6-16.7l18.3,11.7l17,6.4L1505.5,722.3z M20.8,20.8v3235.3h9981.9V20.8H20.8z"/>
	<path class="st6" d="M8626.9,2323.8l-0.2,1l-39.2,203.1l-55.3,99.5l-181.7,43.1l-144.2-94.7l-1.4-4.9l-6.5,30.3l-67.7,99.2
		l-215.6-17.1l-98.7-36.3l-16.2-45.5l-18.5,28.4l-123.7,59.6l-12.5-14.2c-0.6-0.6-13.8-15.6-26.9-31.8c-7.9-9.8-14.2-17.9-18.7-24.4
		c-5.9-8.5-14.9-21.4-10.1-35.8c2.4-7.3,30.7-81.3,36.4-96.1l1.9-4.9l54.8-55.9l17.5-48.8l-83.7-50.6l-96.3-107.6l61-74.8l44.2-69.5
		l-17-85l-33.1-109.5l38.9-120.8l29.8-63.4l-20.9-56.3l-92.8-93.9l-112.9-37.9L7345,1537l19.8,33.7v69.5l-12.9,65.2l-64.3,22.2
		l-6.2,37.5l19.3,54.7v108.9l-37.8,37.9l22.7,47.1l-65.5,78.4l-77.7,5.8l-120.4-14.2l-241.4,58l-224.9,3.2l-101.9-72.1l-29.3-57.6
		l-83.2,27.9l-98.1,7.8l-88.8,37.6l-111.8,36.7l-108.9,4.7l-80.1-58.3l-21-20.4l-42.1,82.7l-159.7,39.4l-104.1-66.8l24.2-129.1
		l63.4-70.9l19.3-58.6l-77.6-92.8l-59.5-73.1l-22.9-93.4l80.2-105.8l18.1-40.3l-81.6-43.6l-143.6,52.4l-118.5,44l10.9,103.3
		l-89.3,141.7l-168.9,38.4h-120.8l-55.6,128.8L4687.5,2016l75.7,146.8V2266l-34.8,139.1l-207.8,101.4l-160.5-83.5l-80.6-59.2
		l-52.4,65.7l-88.3-19.7l-61.9-105.5l-28.6-81.1l-29.7,95.5l-64.2,67.7l-202.9,113.5l-378.6,21.5l-179.4-73.4l-154.1-85.4l-254.8,29
		l-115.3-12.6l-155-13.3l-156.9-35.4l-185.7-29.2l-50,36.7l-106.6,35.4l-83.4-136.6l-87.9,79.9l-249.2,60.9l-201.6-41.4l16.5-119.5
		l59.9-77.3l34.3-76.8l-73.4-126.1l-10.5-198.3l43.7-133.9l170.8-246.1l54.5,74l73.9,103.1l24.9-101.7l92.3-128.5l139.9,15.8
		l36.7,61.5l7.3-24.9l66-74.4l106.9-31l128.6,57.3l43.3,65.8l19.4-33.5l61.1-52.1l-65.5-37.4l-0.4-0.3l-35.7-22.3l-136.1,5.1
		l-48.6-100.7l-97.9-27.5l-132.5-138.4l-164,37l-207.5,31.4l-161.7,160.2l-60.1-142.9V941.4l52-124.5l37.3,23.8l33-120.3l44-62.9
		l116.5,6.3l33.6,60.7l53-80.7h116.5l95.1,158.5l0,0l148.2-166.4l100.2,67.5l10.4,50.2l29.3-37.2l143.4-74.2l106.2,30.2l90,96.5
		l67.1-27.2l55.1,148.3l112.7,261.3l-16.7,180.1l-16.3,97.6l-69.6,48.7l38.7,53.3l61.4,25.3l102.1-100.7l93.6-89l41.9-105.9
		l80.3,35.2l11.5-150.5l88.7-177.8l318.6-125.4l139.6,51.9l139-33.3l138.5-40.3l190.8-30.9l110.8,97.5l78.3-82.6l136-6.6l95-62.3
		l228.2,33.1l94.4,109.9l18.3,103.6l0.9,6.3l35.5-118.8L5080.4,759l243.4,1.7l85.6,33.1l16.9,49.7l25.7-42.6l144.3-39l150.6,14.9
		l66.1,66.5l14,41.3l50.9-104.4l118.1-6.1l72.9,72.2l81.4,48.3l37,69.7l44.6-55.5l131.4-24l79.8,58.8l55.8,71l41.2,100.4l35.2,94
		l0.3,1.4l0.5-1.1l25.6-44.1l45.5-25.1l50-88.2l73.9,23.3l8.6,15.1l43.1-101.7l23.7-96.1l34.9-20l134.7-113.7l144-36l125.8,123.4
		l78,158.3l2,13.1l7-39.4l0.1-0.6l50.8-221L7564,695l181.8,57.8l29.6,164.7l20.2-54.4l66.8-117.8l112.9-25.4l124.5,185.7l19.7,73.8
		l19.7-114.3l57.3-101.3h194.5l134.9,166.7l8.1,126.4l-24,60.4l3.8,59.9l40.1,36.4l58.8,153.6l-16.5,91.9l9.3,125l32.1,170.6
		l-59.6,77.9l-18.7,21.5l40.7,60.8l59,119.1L8626.9,2323.8z M25,25v3226.9h9973.6V25H25z"/>
</g>
</svg>
