<?xml version="1.0" encoding="utf-8"?>
<!-- Generator: Adobe Illustrator 23.1.0, SVG Export Plug-In . SVG Version: 6.00 Build 0)  -->
<svg version="1.1" id="Layer_1" xmlns="http://www.w3.org/2000/svg" xmlns:xlink="http://www.w3.org/1999/xlink" x="0px" y="0px"
	 viewBox="0 0 9667.8 3060.4" style="enable-background:new 0 0 9667.8 3060.4;" xml:space="preserve">
<style type="text/css">
	.st0{fill:#181818;}
	.st1{fill:#161616;}
	.st2{fill:#141414;}
	.st3{fill:#121212;}
	.st4{fill:#101010;}
	.st5{fill:#0E0E0E;}
	.st6{fill:#0C0C0C;}
</style>
<g>
	<path class="st0" d="M8360.3,2256l-80.8,120.8l-76,106l-75.6,35.2l-62.4-46l-39.6-109.2l-18-91.2l-16.9,166.1l-76.7,59.5
		l-93.6,15.6L7761,2454l-10.2-43.2l-19.9,33.6l-24.2-14.4l-14.4-49.2l-26.4-14.4l-13.2,66l-52.8,38.4l-60.8,18.3l-58-59.1l-31.2,42
		l-50.4-48l7.2-79.2l54-65.1l38.4,22.4c0,0,18,83.6,18,78.8c0-4.8,3.6-121.2,3.6-121.2l-3.6-31.2l-33.6-33.6l-42-21.6l-57.6-16.8
		l-50.4-126l38.4-52.8l27.6,63.6l12,25.2l8.4-69.6l12-87.6l-30-79.2l-38.4-97.2l20.4-84.7l30,55.9l13.2,73.2l15.6-73.2l14.4-52.8
		l19.2,16.2l4.8-68.2l-55.2-118.1l-3.6-57.9l15.6-34.8l6,37.2l19.2-32l-20.6-34.5h-49l-66.6-11l-94.2-53.3l-25.2-22.2l-36,56.2
		l-43.2,30.4l-52.8,21.6l-24.2,49.6l-5.8,50.7l27.6-20.7l19.2,66l-1.2,61.6l-58.2,98.8l-35.4,48.4l-36,127.2l3.6,49.2l-33.8,61.2
		l-103-43.2l-37.2-54l-39.8,123.6l-80.2-79.2l-25.2-38.4l-26.4,56.4l-87.7,79.5l-56.3-74.7l-18-50.2l-9.6-83l-12,70.8l-8.4,64.8
		l-52,47l-87.2,25l-28.8-74.4l-24-68.4l-24,64.8l-150,25.2l-9.7-49.7l-20.5-26.6l-33.4-70.3l-39.6,21.9l-18,40.8l-29,36l-44.2-28.4
		l-15.8-50.8l-22.6,74.4l-35,44.4l-45.4,38.4l-55.2-30l-7.2-27.6l-28.6,28.5l-56.6-0.9l-57.6-63.5l-34.8,16.7l-98.4,46.8l-68.6,13
		l-37-121l60.9-69.6l38.2,46.8v59l25.8-99.8l-25.8-39.6l14.9-54l-14.9-47.5l-22.5-68.9l-56.2-60l-35.4-49.9l31.2-58.1l20.6,15.6
		l14.8,42.5l2.4-80.8l1.2-44l-18.3-58l-20.1-58.8l-79.5,1.2l-41.7,15.6l-88.8-14.4l-49.2-45.6l-12-36.8l-21.6,66.8l-33.6,34.8
		l-12,90.7l18,42.5l-88.8,130.8l2.4,93.6l-156-3.6l-78,57.6l-115.2,2.4l-48,60l-60,75.6l14.4,147.6l-56.4,115.2l-1.2,94.8l43.2-80.4
		l48,9.6l31.2,211.2l-75.8,69.5l-51.4-98.3l1.2-58.8l-60,79.2l-84,23.8l-133.2-129.4l-41.9,69.5l-39.9,51.7l-129.4-102l-85.2,48
		l-127.2,15.6l-94.3,38.3l-132.7-15.5l-33.3-69.4l-104.5-79.1l-20.4-37.7l-40.8,186.3l-192.2,45.8l-49,28.2l-147.6-81.2l-118.8-42.8
		l-68.4-62.8l-55.2-81.1l-70.8,59.5l-21.6,75.6l-108,58.8l-188.4-91.2l-102.2-83.2l-54.6-56l-115.1,112.8l-40.3,52l-135.8-30.4
		l-196.8,40l-193.6-115.2l-89.6,83.2h-70.4l-44.6-75.6l-3.4-102l43.2-33.6l19.2,97.6l35.2-97.6l-22.4-115.2l-51.2-113.6v-175.9
		l61.7-116.2h64.7l41.6,121.3v103.7l32-236.1l102.4-119.1l67.2-20.8l51.2,27.2l16,101.4l25.6-130.2l60.8-65.6l88.9-38.4l82.3,75.2
		l35.2,89.6l46.4-120l124.8-48l86.8-1.6l22.6,65.6l50.6-83.2l-35.2-88l-73.6-16l-57.6-46.4l-89.6-17.6l-54.7,15.3l-73.3-71.3
		l-86.6-32L1666.7,884l-36.8-33.6l-11.2-46.4l-20.8,62.4l-65.6,31.6l-88,18l-84.8-28.8l-70.4,28.8l-21.1,22.7l-25.3-69.1l-36.7-49.3
		l16.2-108.4l51.7-26.3l96.8,46.3l33.6,120V714.4c0,0,63.8-100.9,64.3-100.8c0.4,0.1,74.9-25.6,74.9-25.6l51.2,108.8l20.8,30.4
		l38.4-27.2l83.2-32l89.6-19.2l51.2,48l33.6,134.4c0,0,16-126.4,20.8-131.2s99.2-73.6,99.2-73.6l80-9.6l38.4,68.8l30.4,49.6
		l46.4-97.6l66.6-7.8l82.6,47.8l9.2,134.4l78.4,64l32,203.2l62.4-158.4l65.6,66.4l-28.8,208.8l-27.2,96l-36.7,68.6l-0.1,77.5
		l48,67.5l25.6,110.4l12.8-133.2l38.4-82l68.8-20.8l24.1,38.6l17.5,87l35.2-77.6l10.4-131.2l59.6-68.9l33.6,36.9l16.4-86.4l67.2-144
		l41.6-3.5l27.2,118.7l48-179.2V884l145.6-204.8l19.2,150.4l33.6,107.2l93.8-185.6l170.2-24.2l64,81.8l44.8,20.8l40,75.2l8,82.4
		l44.8-93.6l41.6-22.4l24-52.8l48-73.6l108-36l111.2-0.8l28.8,43.2l52.8,86.4l49.6-64l22.4-104l64-40l117.2,33.8v107l12.4,209.6
		l60.8-252.2l88-29.4l40.2,176l73.2-203.2l173-41.6l52.8,172.8l38.4,97.2l52.8,149.2l27.2-149.2l51.2-165l89.6-67.4l50.5,74
		l32.3,158.4v75.6l62.1-161.6l30.1-43.2l121.4-8.7l36,54.3l8.2,46.8l48.2-142.8l85.2-2.4l42,72l45.6,195.6l19.2-124.8l55.8-96.4
		l90.6-15.1l94.8,26.3l57.6,124.4l48-117.2l72,21.6l51.6,177.6l54-70.8l70.8,231.8l-7.2,81.2l32.5,84.3L6391,1420l-68.8,11.7
		l-53.6,28.1l26.9,21.1l15.6,77.2l7-61.6l47-28.4l42,9.2l11.8,68.6l26.6,88.6v88.8l19.2-114l35.2-75.2l18.9,3.8l32.3,88.2l42-78.4
		l-25.2-44l-39.6-34.8l-34.8-76.8l-39.6-85.2l1.1-51l26.3-15.8l14.6,30.6l8.4-46.8l-31.2-47v-88.4l25.2-80.4l60-68.4l34.8-56.4
		l45.6,48c0,0,20.4,87.6,22.8,79.2c2.4-8.4,29.8-118.8,29.8-118.8l11-79.2l63.6-63.1l99.6,40.3l26.4,73.2l28.8-66l86.4-30l44.2,61.2
		l71,98.4l43.6-59.6l71.6-54.4l48,9.6l51.6,84l27.6,86.4l20.4-60l27.6-76.8l10.8-78l40.8-27.2V798l36-32.4l74.4,17.8l50.5,41.4
		l20.4,200l46.9-241.4l57.5-33l41.6,79.2l22.4,70.4l46.4,248l44.8-286.4l46.4-104l67.2,1.6l124.8,80l73.6,56l57.6,108.4v152
		l-59.2,123.8l36.8,63.4l-6.4,152.3l78.4-111.9l86.4,101.8l-73.6,149.4V1740l-38.4,89.6l-3.2,92.8l35.2-43.2l92.8,92.8L8360.3,2256z
		 M0,0v3060.4h9667.8V0H0z"/>
	<path class="st1" d="M1273.9,682l99.1,47.4l2,6l2,4.6c0,0,27.1,83.1,29.8,78.9c1.6-2.4,2.8-44.3,3.7-45.7
		c0.5-0.8,0.9-14.8,1.2-15.2c0.2-0.2,0.3-4.4,0.4-4.5c0.6-1,1.4-58.9,2.1-59.1c1.1-0.4,61.2-86.8,65.8-88.2c0.1,0,9.9-3.3,19.1-6.4
		c18.5-6.3,49.8-8.2,49.8-8.2l48.7,103.6l18.7,27.4l36-25.5l83.8-32.2l91.6-19.6l53.2,49.9l11.4,45.7c0.1-0.5,2,6.4,2,6
		c0.7-3.8,17.4,61.1,18.3,60.2c0.7-0.7,19.7-110.2,34.3-121.9c0.4-0.4,2.5-2,4.6-3.6c16.6-12.8,95.2-60.2,95.2-60.2l74.1,5.4
		l11.6,20.5l28.1,27.5l39.4,39.7l54.9-71.9l56.1,3l69.8,53.1l20.6,122.6l67.6,67.5l9.5,60.6l26.3,97.8l67.7-116.1l52.9,68.5
		l-22.2,161.1l-6.7,42.4l-25.7,90.5l-36.5,68.2l-0.1,75.6l47.5,66.8l4.2,13.9l23,63.2l3.9-26.7l23.8-92.5l37.7-59.3l29.3-3.6
		l30.4-11.8l20.6,25.6l15.6,59.8l7.7-19.5l27.9-55.1l12.1-71.1l7.3-42.5l33.1-44.6l20.3-25.4l31,24.2l19.1-83.6l11.2-24.1l40.3-62.2
		l19.5-31.1l14.2,1.2l22-5.3l20.6,61.8l5.5,19.8l15.8-69.9l33.6-103.4l7.3-82.2l88.2-124l48-51.2l16.7,130.7l2.5,16.4l15.6,49.8
		l18.6,39.3l59.5-117.8l38-55.9l144.4-20.5l20.9-0.1l62.6,80l45.1,20.9l40.8,76.8l6.9,71.2l40.1-83.8l41.6-22.4l23.6-52l40.1-61.5
		l98.6-43.3l112.3-7.2l44.9,35.9l49.9,80.8l47.6-43.1l23.5-92.9l57.2-51.3l110.8,20l23.4,95.9l10.3,194.9l18.1-59.7l38.6-160.1
		l93.2-31.2l38.5,168.5l70-194.2l177.8-42.8l53.7,175.7l38.4,97.1l0.1,0.4l48.5,137.1l25-137.1l0.4-1.3l51.2-164.9l93.3-70.2
		l52.8,77.4l31.9,156.1l4.7,50.8l29.7-70.1l41.1-74.4l36-36.8l107.1,1.8l35.3,29.5l13.3,38.8l52.2-119.3l79.2,12.1l38.8,76.3l6.8,22
		l42.3,118.7l33.4-106.9l64.5-75.3l82.5,2.6l85.2,6.7l64.6,108.6l44.8-81.3l62.5,26.6l34.3,75.6l20.6,70.5l48.5-47.5l66.4,217.3
		l-7.2,81.1l32.5,84.3l-6.8,115.2l-70.8,12l-48.6,25.5l23.9,18.7l1.3,6.5l19.7,54.1l16.3-49.1l41.5-10.2l37.3,15.5l15.8,44.4
		l29.7,75.3l3.5,83.5l8.4-39.2l7.2-66l22.6-68.6l14.7,0.8l21.9,62.4l28.1-80.2l-20.8-47.8l-26-33.2l-33-70l-33-87.3l2.9-48.9
		l24.5-21.3l15.1,22.1l14.4-47.4l-22.2-45.4l4.1-80.3l28.6-59l26-21.6l4-3.5c0.1,0.4,24.1-26.3,24.2-25.9
		c0.7-2.7,30.3-52.4,30.9-54.8l39.2,31.4c0,0,4.8,11.7,9.1,28.6c4.6,17.9,13.5,31.6,14.5,28c2-7,33.9-108,33.9-108l19-62l63.2-48.4
		l37.4,20l49.7,14.6l31.9,57.6l32.3-57.9l79.2-15l42.8,59.2l34.7,48.1l34.1,33.9l44.2-55.7l40.5-30.8l29.7-17.8l46,9.2l49.9,81.3
		l12.1,33.9l15.2,47.5l1.2-3.4l18.7-54.7l12.5-34.9l13-39.8l10.2-73.3l39.6-26.4l5.4,36.1l14.5-12.5l17.7-12.1l16.5,6.7l15.6,1.7
		l36.8,8.8l51.7,36.8l18.2,87.7l10.1,99.5l26.9-138.4l28-89.3l13.5-7.7l39.5-14.8l40.1,76.4l21.8,68.4l3.7,18.1l29.6,158.2
		l11.8,46.1l21.8-139.5l26.7-137.2l4.9-11.1l48.8-76.8l63.7,6.3l99.2,63.6l0.8,0.5l20.9,13.8l71.4,54.3l57,107.3l1.3,17.8v132.2
		l-14,35.3l-42,87.7l14.7,36l15.7,27l1.8,40.4l-4,94.9l0.8,10.3l48.8-69.6l29.4-28.6l85.5,100.7l-73.2,148.5l-1.1,14.8v89.9
		l-6.1,17.3l-30.9,72l-2.1,22.3l-1.1,30.6l1.4,13.6l1.7,19l35.7-29.7l66.6,66.6l20.2,27.2l-60.6,272.5l-2.7,9.5l-80.3,120.1
		l-76.5,106.7l-78.2,36.5l-64.8-47.8l-38.5-106.2l-15.9-66.8l-28.6,149.7l-82,52.6l-89.8,1.3l-49.8-49.1l-9.3-34.6l-24.6,23.2
		l-22-18.4l-13.3-34.5l-32.3-4.5l-23.6,58.8l-52.4,23.5l-55.8,22.2l-60.6-61l-24.6,19.2l-30.5-53.8l13.3-61.7
		c0-1.4,45.1-56.7,45.1-57.4l31.6,14.8c0,0,10.6,65.2,10.6,61.2c0-4-3.3-104.2-3.3-104.2l-13.9-29.2l-30.7-34.9l-41.9-35.3l-37.1-29
		l-38-95.8l33.9-57.5l18.3,40.6l3.2,3.8l12.7-81.6l18.4-57.4l-21.8-77.7l-29.8-79.2l17.3-74.6l15.9,27.1l10.3,49.9l16-67.7l7.3-44
		l4,11.5l-12.5-66.2l-6.4-11.7l-45.4-81.5l-11-42.6l5-25.7l1.8,37.6l16-26.5l-14.9-30.5l-36.2,16.1l-55.7,2.5l-88.7-27l-21.1-18.4
		l-35.6,54.4l-38.2,33l-47.5,30.4l-19.5,49.9l-12.4,55.9l18.2-19.2l-0.1,48.3l-3.9,47.1l-54.7,101.6l-35.9,34.1l-41.1,95l1.9,39.3
		l-30.3,55.6l-93.1-20.8l-35.3-36.1l-39.5,116.2l-72.1-82.3l-23.1-38.6l-26.5,32.9l-17.6,11l-57.4,55.7l-51.7-48.8l-20.4-26.7
		l-26.2-64l-11.8,48.4l-8.7,44.3l-45.8,24.8l-16.2,1.7l-58.9,20.4l-35.8-60l-38.3-53.9l-22.1,43.3l-31.7,0.7l-100.7,7.4l-10.6-40
		l-19.8-16l-34.8-49.9l-43.5,11.5l-15.9,37.1l-30.6,38.2l-46.4-15.5l-25.6-49.1l-0.7,1.7l-5.5,14.2l-26.7,47.2l-38.1,27.2
		l-41.4,33.7l-54.4-21l-14.4-19l-26.6,24.3l-49.9,9.8l-48-62.9l-38.3,15.7l-86.7,23.8l-60.1,1.3l-16.9-116.8l57.4-49.9l5.5,4.9
		l22.4,26.1l2.6,39.7l8.2-47.2l7.6-53.7l-26.2-38l8.1-49.6l-19.6-49.7l-13.8-66.7l-43.8-55.7l-25.5-38.6l5.2-11.5l21-45.6l16,9.4
		l10.6,29.9l-0.5-74.8l-9.3-36.6l-22.5-45.6l-25.7-50.5l-73.9-0.2l-42.9,5.4l-22.4,0.2l-58.2-3l-42.7-24.9l-6.6-22.7l-23.7,64.1
		l-32,34.8l-15.5,83.7l15.2,42.2l-35.5,64l-50.1,56l-14.4,77.6l-104.7,7.4l-44.9-0.7l-77,48.3l-70.9,10.1l-35.7,5.1l-45.6,57.1
		l-48.6,77.2l6.5,66.4l1.3,77.3l-28.3,57.8l-3.6,8.7l-8.2,17.1l-5.6,19.8l8.4,53.8l0.4,31.8l38-53.7l41.1,15.2l13.7,93l1.5,108.7
		l-28.6,26.2l-43.2,27.4l-44-84.2l-1-2.3l-5.4-7.1l-2.8-27.7l-2.5-15.9l-64.1,70l-79.3,10.8l-75-72.8l-43.4-29.2l-10.2-6.9
		l-42.4,67.6l-40.8,37.1l-99.1-78.1l-28.3-16l-54.5,30.7l-29.7,14.5l-109.2,13.4l-15.4,2.5l-92.5,37.6l-135.3-15.8l-33.7-70.4
		l-103.8-78.6l-18.5-24.6l-24.2,110.5l-26,65.7l-131.2,31.3l-59.7,17.4l-48.8,19.1l-110.5-60.8l-36.9-19.1l-84.8-30.5l-32.3-14
		l-48.6-44.7l-18.7-18.5l-30.2-44.4l-26.2-25.8l-16.7,14l-48.7,50.8l-29.1,69l-59.5,32.4l-48.1,18l-156.7-75.9l-29.9-15.9
		l-81.7-66.5l-19.6-16.6l-24.7-25.4l-29.7-20.6l-72.5,71l-41,41.9l-12.7,16.4l-30,28l-104.7-23.4l-30.3-4.7l-175.9,35.7l-19.4,1.7
		l-175.7-104.6l-16.3-6.2l-72.6,67.5l-17.4,12.8h-70l-44.3-75l-2.3-20.9l-2.6-79.9l27.7-28.5l9.6-7.5l25.7,64.7l1.8,9.4l16.6-33.3
		l9.2-25.5l5.9-22l-17.3-88.9l-5.8-25.1l-43.4-96.4l-6.2-16.6v-174.6l63.1-118.7h63.4l16.1,30.4l29.1,84.7l1.9,72.4l39.8-179.7
		l11.7-40.4l33.8-33.4l69.7-62l23.9-11.3l37.1-14.7l49.8,15l30.8,77l37.2-94l35.4-27.2l20-24.1l54.7-31.2l26.9-11.4l83.6,56.9
		l11.8,19.5l31.2,53.6l22.9-40.1l16.6-30.5l11.1-26.7l18.8-9.3l61.8-37l16.8-8.7l37.2-2.5l23.9-3.5l8.2,36.2l2.3,13.3l22.3-56.6
		l6.1-14.1l-23.5-38.5l-17.5-37.1l-70-21.8l-58-42.4l-26.3-5.8l-60.8-13l-53.4,10.3l-61.9-52.7l-12.6-12.2l-36.6-15.9l-13.6-2.5
		l-31.5-7.8l-57.7-12l-103.5-24.8l-17.2-13.9l-16.5-11.3l-9.3-31.3l-19.9,43l-19.2,5.5l-43.6,15.1l-71.6,16.6l-13,3.8l-49.2-9.1
		l-28.5-13.6l-62.4,13.9l-7.2,5.6l-12.6,9.6l-22.1-53.3l-3.8-13l-29.3-49.7l10.9-72.8l8.5-30.3L1273.9,682z M3.3,3.3v3053.8h9661.1
		V3.3H3.3z"/>
	<path class="st2" d="M1273.8,678.3l101.4,48.5l1.6,3.2l2.3,2.7c0,0,24.9,61.4,30.2,53c3.1-4.9,5.6-40.7,7.4-43.5
		c1-1.6,1.9-13.6,2.5-14.5c0.3-0.5,0.6-4,0.7-4.3c1.3-1.9,2.8-48.8,4.2-49.1c2.2-0.7,58.5-72.7,67.3-75.6c0.1,0,11.3-3.8,18.7-6.3
		c14.8-5.1,44.2,2.7,44.2,2.7l46.3,98.3l16.7,24.4l33.6-23.8l84.5-32.5l93.5-20l55.2,51.7l11.2,44.7c0.2-0.9,1.7,4,1.9,3.2
		c1.3-7.5,15.1,43.2,16.8,41.5c1.3-1.3,23.4-94.1,47.7-112.7c0.4-0.4,2.8-2.3,4.5-3.5c13.2-10.3,95.9-50.5,95.9-50.5l68.2,20.3
		l11.5,19.9l29.6,7.1l48.3,29.8l63.5-46.3l45.7,13.7l56.9,58.4l32,110.7l56.7,71.1l9.3,59.1l30.4,54.5l73-73.8l40.1,70.6l-21.7,157
		l-7.4,41.2l-24.1,85.1l-36.3,67.8l-0.1,73.7l47,66.2l3.7,7.6l25.1,36.2l5.1-25.7l37.4-79.6l37-36.5l24.7,3.1l25.9-13l17.1,12.7
		l13.7,32.5l6.5-19.4l29.5-52.4l18.2-66.8l10.2-29.2l28.3-45.6l18.7-25.6l28.5,11.5l21.7-80.8l11-23.5l46.3-50.9l17.6-16.2l12,3.7
		l18.7-8.5l20.6,33.9l4.4,10.7l12.7-68.7l38.2-98.7l14.6-78.1l86.3-121.3l40.5-24.4L3275,817l2.9,16l15.3,48.7l19.5,22.2l58.2-115.2
		l43.1-46.5l141.3-20.1l19.2,3.1l61.3,78.3l45.4,21.1l41.7,78.3l5.8,59.9l35.4-74l41.5-22.4l23.3-51.2l32.3-49.5l89.3-50.5
		l113.3-13.6l60.9,28.5l46.9,75.2l45.6-22.1l24.6-81.8l50.4-62.6l104.4,6.2l46.8,84.8l8.2,180.2l15.4-32.8l37.3-154.5l98.5-32.9
		l36.8,161l66.7-185.2l182.6-43.9l54.6,178.5l38.3,97l0.1,0.4l44.4,125.4l22.8-125l0.4-1.3l51.6-166.1l96.9-72.9l55.2,80.8
		l31.4,153.8l9.4,25.9l31.1-66.7l48.4-60.6l41.8-30.4l92.9,12.2l34.6,4.7l18.4,30.8l56.2-95.9l73.3,26.7l35.6,80.6l6.3,12.4
		l46.3,73.4l47.6-89l73.2-54.3l74.5,20.3l75.7-13l71.7,92.9l41.5-45.3l53,31.6l38.2,46.4l20.1,68.2l43-24.2l62,202.8l-7.2,81
		l32.5,84.2l-7,118.5l-72.9,12.4l-43.6,22.8l20.8,16.2l1.3,6.3l25.1,37.6l25.6-36.5l36,8l32.7,21.7l19.9,20.1l32.8,62.1l6.9,78.1
		l9.9-37.2l2.2-59.1l10-61.9l10.5-2.2l11.5,36.6l14.2-82l-16.3-51.5l-12.4-31.6l-31.2-63.3l-26.4-89.3l4.8-46.8l22.6-26.8l15.6,13.7
		l20.3-48l-13.1-43.8l8.2-72.2l31.9-37.7l25.1-12.7l3.5-1.7c0.2,0.9,19.5-20,19.7-19.2c1.3-5.4,25.9-48.4,27.1-53.2l32.8,14.7
		c0,0,4.7,2.8,8.2,16.3c3.7,14.3,15.5,20.6,16.3,17.8c1.6-5.6,38-97.2,38-97.2l27-44.8l62.8-33.8l32.4,22.9l42.2,6.1l37.3,42
		l35.7-49.7l72-0.1l41.3,57.3l33.6,46.5l33.1,19.2l44.8-51.8l39.2-29.7l29.7-13.1l44,8.8l48.3,78.6l12.8,32.3l14.1,44.2l1.1-3.3
		l18.3-52.8l12.1-33.8l11.4-38.8l9.5-68.6l38.3-25.6l10.8,24.5l14.3-11.8l14.2-5l13.2,8.7l14.6-0.5l35.7,8.5l53,32.2L7638,885
		l9.6,94.3l26.1-134.2l36.8-79.7l13.1-7.5l35.5-4.5l38.7,73.7l21.1,66.4l3.9,17.4l28.7,153.5l11.2,25.9l21.2-135.3l31.1-131.6
		l4.8-10.7l56.2-61l60.3,11l96.1,61.6l0.7,0.5l20.1,13.6l69.2,52.6l56.4,106.1l2.7,17.3V1145l-11.2,35.5l-41.5,86.8l8.4,35.9
		l15.5,26.7l5.4,39.1l-3.9,93.9l2.2,6l48.3-68.9l29.6-15.6l84.6,99.7l-72.7,147.6l-2.1,14.4v89.4l-4.9,17.4l-30.7,71.6l-3.4,21.8
		l-1,30.4l3.4,8l4.1,18l36.1-16.2l66.2,66.2l14.6,28.6l-60.3,270.8l-3.2,9.2l-79.8,119.4l-77,107.4l-80.8,37.7l-67.2-49.6
		l-37.4-103.2l-13.9-42.4l-40.4,133.4l-87.4,45.7l-86.1-12.9l-39.8-39.4l-8.4-26.1l-29.3,12.8l-19.9-22.3l-12.2-19.8l-38.2,5.4
		l-34,51.6l-51.9,8.6l-50.8,26l-63.3-62.8l-17.9-3.7l-10.7-59.6l19.5-44.3c0.1-2.7,36.2-48.3,36.2-49.7l24.7,7.3
		c0,0,3.2,46.9,3.2,43.7c0-3.2-10.1-87.2-10.1-87.2l-24.1-27.1l-27.9-36.1l-41.9-49.1l-16.6-41.2l-25.6-65.6l29.3-62.3l9,17.6
		l-5.6-17.5l17-93.7l24.7-27.2l-13.6-76.2l-21.2-61.1l14.2-64.4l1.8-1.7l7.4,26.6l16.4-62.3l0.2-35.2l-11.1,6.9l-29.8-64.2l-6.9-11
		l-41.5-57.2l-18.5-27.3l-5.5-16.7l-2.5,38l12.8-20.9l-9.2-26.4l-23.3,32.2l-44.8,16l-83.3-0.8l-17-14.5l-35.1,52.6l-33.1,35.6
		l-42.2,39.1l-14.9,50.3l-19,61.2l8.9-17.8l-19.3,30.5l-6.6,32.6l-51.2,104.5l-36.3,19.7l-46.2,62.8l0.2,29.4l-26.8,50l-83.2,1.6
		l-33.3-18.1l-39.2,108.9l-63.9-85.3l-21.1-38.9l-26.7,9.4l-15.7,4.3l-46.6,49.6l-47.1-22.9l-22.8-3.2l-42.8-44.9l-11.6,26
		l-8.9,23.9l-39.6,2.5l-14.1-1.9l-48.9,21l-42.9-45.6l-52.5-39.5l-20.2,21.8l-29.1-4.4l-85.6-4.7l-11.5-30.4l-19.1-5.4l-36.2-29.6
		l-47.5,1.1l-13.9,33.4l-32.2,40.3l-48.6-2.7l-35.5-47.5l-0.7,0.9l-6.4,13.4l-36.1,37.5l-41.1,10l-37.4,29l-53.5-12.1l-21.7-10.4
		l-24.5,20.1l-43.2,20.5l-38.4-62.4l-41.9,14.7l-74.9,0.7l-51.6-10.5l3.3-112.6l53.9-30.2l4.8,2.3l12.8,12.9l5.2,20.3l4-46.1
		l1.8-55.9l-26.6-36.4l1.3-45.3l-24.4-52l-5.1-64.4l-31.3-51.4l-15.6-27.2l4.2-11.5l17.1-44.6l11.5,3.2l6.4,17.4l-3.5-68.8
		l-19.7-29.1l-26.7-33.3l-31.4-42.1l-68.3-1.7l-44.1-4.7l-19.3,4.5l-53,4.3l-36.3-4.2l-1.3-8.7l-25.9,61.4l-30.3,34.8l-19.1,76.7
		l12.3,41.9l-28.1,64.7l-54.5,44.4l-31.2,61.6l-99.3,17.4l-43.9-0.4l-76,38.9l-65.1,18.6l-32.8,9.4l-43.3,54.2l-37.2,78.8l6.4,65.1
		l-5.2,74.7l-27.7,56.7l-2.9,8.7l-4.2,9.3l-0.1,16.7l17.5,45.2l1.1,31.1l32.7-26.9l34.1,20.7l13.5,91.3l-14.2,101.1l-28.1,25.7
		l-39.8,11.9l-43.2-82.6l-0.8-2.3l-5.6-4.1l-6.4-16.7l-5.4-11.8l-68.1,60.8l-74.5-2.1l-73.5-71.4l-40.6-13.6l-9.8-3.4l-42.9,65.8
		l-41.7,22.5l-97.1-76.6l-28.2-9.7l-53.4,30.1l-29.8,12.4l-107.1,13.1l-14.9,3.1l-90.7,36.8l-138-16.1l-34.2-71.3l-103.1-78.1
		l-16.6-11.5l-24.1,110l-35.4,56.1l-130.6,31.1l-59,20.4l-48.7,10l-110-60.5l-37.2-18l-84.4-30.4l-30.9-15.9l-48.4-44.5l-17.9-19.1
		l-30.1-44.2l-27.5-15.1l-16.6,14l-43.4,56.2l-36.6,62.5l-59.1,32.2l-48,9.8l-155.8-75.4l-29-16.9l-81.2-66.1l-19.2-16.8l-24.6-25.2
		l-29.6-10.7l-72.1,70.6l-39.7,42.6l-12.7,16.3l-32.5,20.5l-104.1-23.3l-30.1-2.5l-174.8,35.5l-18.9-0.6l-174.7-104l-15.8-2.4
		l-72.2,67.1l-18.3,10.2h-69.6l-43.9-74.4l-4-20.2l-2.6-79.3l21.9-30.9l9.5-7.4l34.1,41.2l1.8,9.3l15.2-16.7l9.1-25.3l3.9-22
		l-17.2-88.3l-6.7-24.6l-43.1-95.6l-5-16.7v-173.3l64.4-121.3h62.1l19.7,24.3l29,84.6l3.8,41.1l53.8-169.3l17.2-34.7l35.4-29.3
		l69.2-42.5l20.1-14.1l34.6-17.1l48.3,2.8l45.6,52.5l48.8-57.8l31.9-12.6l18-24.5l48-35.8l26.4-11l85,38.6l13.8,13.9l37,42.7
		l27.2-32.3l15.9-16.6l11.6-25.7l17-10.7l43.9-43.4l8.9-7.9l20.6-4l14.6-6.4l-0.4,23.3l-1.2,10.1l4.8-47.8l1.4-10.3l-27.6-28.3
		l-19.3-34.8l-66.4-27.6l-58.4-38.3l-25.5-6.3l-59.1-13.8l-52.1,5.2l-63.4-46.6l-12.4-11.8l-34.6-17.5l-11.8,0.7l-30.6-3.7
		l-55.9-4.9l-102-16l-17.5-12.4l-13.2-4.4l-7.5-16.2l-18.9,23.5l-16.5,0.4l-43.5,9.1l-69.2,18.2l-12,4.8l-45.8-0.4l-24.8-16.3
		l-54.3-1l-6.4,2.6l-12,5.1l-23.7-50.7L1224,851l-21.9-50.1l10.6-70.9l12-26.8L1273.8,678.3z M6.7,6.7v3047.1h9654.5V6.7H6.7z"/>
	<path class="st3" d="M1273.8,674.6l103.7,49.6l1.2,0.5l2.5,0.8c0,0,22.7,39.8,30.7,27.2c4.7-7.3,8.4-37.1,11.1-41.3
		c1.5-2.4,2.8-12.4,3.7-13.7c0.5-0.7,0.9-3.7,1.1-4.1c1.9-2.9,4.2-38.7,6.3-39.2c3.3-1.1,55.8-58.6,68.8-62.9
		c0.1,0,12.7-4.3,18.2-6.2c11.1-3.8,38.6,13.6,38.6,13.6l43.8,93.1l14.6,21.3l31.1-22l85.1-32.7l95.5-20.5l57.2,53.6l10.9,43.7
		c0.2-1.4,1.5,1.7,1.7,0.5c2-11.3,12.7,25.4,15.3,22.8c2-2,27-77.9,61.2-103.4c0.3-0.3,3.2-2.5,4.4-3.4c9.9-7.7,96.5-40.8,96.5-40.8
		l62.4,35.3l11.3,19.4l31-13.2l57.3,19.9l72-20.6l35.2,24.5l44,63.7l43.4,98.9l45.9,74.6l9.1,57.5l34.5,11.2l78.3-31.6l27.4,72.7
		l-21.1,153l-8.1,39.9l-22.6,79.6l-36.1,67.3l-0.1,71.8l46.6,65.5l3.2,1.3l27.2,9.2l6.4-24.6l51.1-66.6l36.2-13.7l20,9.8l21.5-14.3
		l13.6-0.3l11.8,5.3l5.2-19.2l31.1-49.7l24.4-62.4l13.1-15.9l23.6-46.6l17.1-25.8l26-1.3l24.4-78l10.7-23l52.4-39.7l15.7-1.4
		l9.8,6.3l15.5-11.7l20.7,6.1l3.3,1.5l9.5-67.6l42.8-93.9l21.9-73.9l84.4-118.7l33,2.4l16,125l3.3,15.5l14.9,47.6l20.4,5.2
		l56.9-112.7l48.1-37.1l138.2-19.6l17.5,6.3l59.9,76.6l45.7,21.2l42.5,79.9l4.7,48.6l30.7-64.2L3803,864l22.9-50.4l24.4-37.4
		l79.9-57.7l114.4-20l77,21.2l44,69.6l43.6-1.2l25.7-70.7l43.6-73.9l98-7.7l70.1,73.7l6.2,165.5l12.6-5.8l35.9-149l103.7-34.7
		l35.1,153.5l63.5-176.2l187.4-45.1l55.4,181.4l38.3,97l0.1,0.4l40.2,113.6l20.6-112.8l0.4-1.2l52-167.4l100.5-75.7l57.5,84.3
		l30.9,151.5l14.1,1l32.6-63.2l55.6-46.9l47.6-23.9l78.6,22.6l33.9-20.1l23.5,22.9l60.2-72.4l67.3,41.2l32.4,84.9l5.7,2.7l50.3,28.1
		l61.7-71.1l81.9-33.2l66.4,38l66.1-32.6l78.7,77.2l38.3-9.4l43.5,36.6l42,17.2l19.6,65.8l37.5-0.9l57.6,188.4l-7.2,80.9l32.4,84.2
		l-7.2,121.9l-75,12.7l-38.5,20.2l17.7,13.8l1.2,6.1l30.5,21.1l35-23.9l30.5,26.2l28,28l23.9-4.1l35.9,48.9l10.4,72.8l11.3-35.2
		l-2.9-52.2l-2.6-55.3l6.2-5.2l1.1,10.8l0.3-83.9l-11.9-55.3l1.2-30l-29.5-56.5l-19.8-91.3l6.6-44.7l20.8-32.3l16.1,5.3l26.3-48.6
		l-4.1-42.2l12.3-64.1l35.3-16.3l24.3-3.8l2.9,0c0.3,1.3,14.9-13.7,15.2-12.4c2-8,21.5-44.5,23.2-51.5l26.4-1.9c0,0,4.7-6.2,7.3,4
		c2.8,10.7,17.5,9.7,18.1,7.5c1.2-4.2,42.1-86.3,42.1-86.3l35-27.7l62.3-19.2l27.4,25.7l34.7-2.4l42.8,26.3l39.2-41.6l64.8,14.9
		l39.9,55.3l32.4,44.9l32.1,4.4l45.5-47.8l37.8-28.7l29.6-8.3l41.9,8.4l46.6,75.9l13.6,30.6l13.1,40.9l1.1-3.2l17.8-51l11.7-32.6
		l9.7-37.8l8.9-64l37.1-24.8l16.2,13l14.1-11.1l10.6,2.1l9.9,10.7l13.5-2.7l34.5,8.3l54.2,27.6l35.1,72.4l9.1,89.1l25.2-130
		l45.6-70.1l12.7-7.3l31.4,5.8l37.2,70.9l20.5,64.3l4.1,16.8l27.8,148.8l10.5,5.6l20.5-131.2l35.5-126l4.6-10.4l63.7-45.3l56.8,15.7
		l93,59.6l0.7,0.5l19.3,13.4l66.9,50.9l55.8,105l4,16.7v129.4l-8.4,35.7l-41.1,85.8l2,35.8l15.3,26.4l8.9,37.8l-3.9,92.9l3.6,1.7
		l47.7-68.1l29.9-2.7l83.7,98.6l-72.3,146.7l-3.2,14.1v88.8l-3.7,17.5l-30.5,71.2l-4.7,21.4l-1,30.2l5.5,2.4l6.5,16.9l36.6-2.6
		l65.8,65.8l9.1,30l-59.9,269.1l-3.8,8.9l-79.4,118.7l-77.5,108.1l-83.4,38.9l-69.6-51.4l-36.4-100.2L8009,2360l-52.2,117
		l-92.7,38.8l-82.3-27.2l-29.9-29.7l-7.5-17.5l-34,2.5l-17.7-26.3l-11.1-5.1l-44.1,15.3l-44.4,44.4l-51.5-6.3l-45.8,29.8l-65.9-64.7
		l-11.3-26.5l9.2-65.5l25.6-26.8c0.1-4.1,27.2-40,27.3-42.1l17.9-0.2c0,0-4.2,28.5-4.2,26.1c0-2.4-17-70.2-17-70.2l-34.4-25.1
		l-25-37.4l-41.8-62.8l3.9-53.4l-13.2-35.4l24.8-67l-0.3-5.4l-14.3-38.9l21.3-105.7l31.1,2.9l-5.4-74.7l-12.7-43.1l11-54.2
		l-12.3-30.5l4.5,3.3l16.9-56.8l-6.9-26.4l-26.3,2.2l-47.2-62.2l-7.5-10.3l-37.5-32.9l-25.9-12l-16.1-7.6l-6.7,38.4l9.5-15.4
		l-3.5-22.4l-10.4,48.3l-34,29.4l-77.8,25.4l-12.9-10.7l-34.7,50.9l-28.1,38.3l-36.9,47.9l-10.2,50.6l-25.6,66.4l-0.5-16.3
		l-38.6,12.8l-9.3,18.1l-47.7,107.3l-36.8,5.4l-51.3,30.7l-1.6,19.5l-23.4,44.4l-73.3,24l-31.4-0.2l-38.8,101.5l-55.8-88.4l-19-39.1
		l-26.8-14.1l-13.8-2.4l-35.7,43.5l-42.5,2.9l-25.1,20.3l-59.4-25.9l-11.4,3.6l-9.2,3.4l-33.4-19.7l-11.9-5.4l-38.8,21.7l-49.9-31.2
		l-66.8-25l-18.3,0.3l-26.6-9.4l-70.5-16.8l-12.4-20.7l-18.4,5.2l-37.7-9.2l-51.4-9.3l-11.8,29.7l-33.8,42.5l-50.8,10.1l-45.3-45.8
		l-0.7,0.1l-7.2,12.5l-45.5,27.8l-44.2-7.2l-33.4,24.3l-52.7-3.1l-28.9-1.7l-22.5,15.8l-36.5,31.2l-28.8-61.8l-45.4,13.7l-63.2-22.3
		l-43.1-22.2l23.4-108.4l50.3-10.4l4.1-0.4l3.1-0.2l7.9,1l-0.3-45l-3.9-58.1l-26.9-34.8l-5.6-40.9l-29.1-54.3l3.6-62.1l-18.9-47.2
		l-5.7-15.9l3.3-11.5l13.1-43.6l6.9-3.1l2.2,4.8l-6.4-62.8l-30.2-21.6l-30.9-20.9l-37.1-33.8l-62.6-3.1l-45.4-14.9l-16.2,8.8
		l-47.8,11.6l-29.8,16.6l4.1,5.4l-28,58.7l-28.7,34.9l-22.6,69.8l9.5,41.6l-20.6,65.4l-58.8,32.9l-48,45.6l-93.9,27.4l-43-0.1
		l-75.1,29.6l-59.4,27.1l-29.9,13.7l-40.9,51.3l-25.8,80.4l6.2,63.8l-11.8,72l-27.2,55.5l-2.2,8.7l-0.3,1.6l5.5,13.6l26.7,36.6
		l1.9,30.5l27.5-0.2l27.2,26.3l13.2,89.5l-29.9,93.5l-27.5,25.2l-36.3-3.5l-42.3-81l-0.6-2.3l-5.7-1l-10-5.7l-8.4-7.6l-72.2,51.6
		l-69.8-15.1l-72.1-70.1l-37.8,2.1l-9.3,0l-43.4,63.9l-42.7,7.9l-95.2-75l-28.1-3.3l-52.3,29.5l-29.8,10.2L3720,2278l-14.5,3.6
		l-88.9,36.1l-140.7-16.4l-34.6-72.2l-102.4-77.5l-14.7,1.6l-24,109.5l-44.9,46.4l-130.1,31l-58.3,23.4l-48.6,0.8l-109.5-60.2
		l-37.4-17l-84-30.2l-29.6-17.8l-48.2-44.3l-17-19.7l-29.9-44l-28.9-4.4l-16.5,13.9l-38.1,61.6l-44.1,55.9l-58.8,32l-47.9,1.6
		l-154.9-75l-28.2-17.9l-80.7-65.7l-18.7-17.1l-24.4-25.1l-29.6-0.8l-71.6,70.2l-38.5,43.2l-12.6,16.2l-34.9,13l-103.5-23.2l-30-0.4
		l-173.8,35.3l-18.3-3l-173.7-103.3l-15.3,1.4l-71.8,66.7l-19.2,7.7h-69.1l-43.6-73.8l-5.6-19.6l-2.6-78.7l16.1-33.3l9.4-7.3
		l42.5,17.8l1.8,9.2l13.9-0.1l9-25.1l1.8-22l-17-87.6l-7.6-24.1l-42.8-94.9l-3.7-16.9v-171.9l65.7-123.8h60.8l23.2,18.3l29,84.5
		l5.7,9.8l67.9-159l22.6-29.1l36.9-25.2l68.7-22.9l16.3-16.9l32.2-19.5l46.9-9.4l60.3,28.1l60.4-21.6l28.5,2.1l16-24.9l41.2-40.4
		l25.9-10.6l86.3,20.2l15.8,8.3l42.8,31.7l31.6-24.4l15.3-2.7l12-24.8l15.2-12.1l26.1-49.8l1.1-7.1l4.1-5.4l5.4-9.3l-9.1,10.4
		l-4.6,6.8l-12.7-39.1l-3.3-6.5l-31.6-18.2l-21.1-32.5l-62.8-33.4l-58.7-34.3l-24.7-6.8l-57.4-14.5l-50.7,0.2l-64.8-40.5l-12.2-11.5
		l-32.5-19.2l-10,3.9l-29.7,0.5l-54.1,2.2l-100.4-7.1l-17.8-10.9l-9.9,2.5l-5.6-1.1l-18,4.1l-13.8-4.8l-43.5,3.2l-66.7,19.7
		l-11.1,5.8l-42.4,8.3l-21-19l-46.3-15.9l-5.7-0.4l-11.5,0.5l-25.3-48.2l-1.5-12.5l-14.5-50.4l10.3-69l15.4-23.4L1273.8,674.6z
		 M10,10v3040.4h9647.8V10H10z"/>
	<path class="st4" d="M1273.8,670.8l106,50.8l0.8-2.3l2.7-1.1c0,0,20.4,18.1,31.1,1.3c6.2-9.8,11.2-33.5,14.7-39.1
		c2-3.2,3.7-11.2,4.9-13c0.6-1,1.1-3.3,1.5-3.8c2.6-3.9,5.6-28.6,8.4-29.3c4.5-1.5,53.1-44.5,70.3-50.3c0,0,14.1-4.8,17.8-6.1
		c7.4-2.5,33,24.5,33,24.5l41.3,87.9l12.5,18.3l28.7-20.3l85.7-33l97.4-20.9l59.2,55.5l10.7,42.6c0.3-1.8,1.3-0.6,1.6-2.2
		c2.6-15,10.4,7.5,13.8,4.1c2.6-2.6,30.7-61.7,74.6-94.1c0.2-0.2,3.5-2.7,4.4-3.3c6.6-5.1,97.2-31.2,97.2-31.2l56.5,50.2l11.2,18.9
		l32.4-33.6l66.2,10l80.5,5.1l24.8,35.2l31.2,69l54.8,87l35.1,78.1l8.8,56l38.6-32l83.5,10.7l14.6,74.8l-20.6,149l-8.8,38.7
		l-21,74.2l-35.8,66.9l-0.1,69.9l46.1,64.8l2.7-5l29.3-17.8l7.6-23.6l64.7-53.7l35.5,9.1l15.3,16.5l17-15.5l10.1-13.3l9.9-21.9l4-19
		l32.7-46.9l30.5-58.1l16-2.6l18.9-47.5l15.5-26l23.4-14l27.1-75.1l10.5-22.5l58.4-28.4l13.7,13.5l7.6,8.8l12.2-14.9l20.7-21.8
		l2.2-7.7l6.3-66.4l47.4-89.2l29.1-69.8l82.4-116l25.6,29.2l15.6,122.2l3.7,15l14.6,46.6l21.4-11.9l55.7-110.1l53.1-27.8l135-19.2
		l15.8,9.4l58.6,74.8l45.9,21.3l43.3,81.5l3.6,37.4l26-54.3l41.5-22.3L3823,812l16.6-25.4l70.5-65l115.5-26.4l93.1,13.8l41.1,64
		l41.7,19.8l26.8-59.7L4265,648l91.6-21.5l93.5,62.6l4.1,150.8l9.9,21.1l34.6-143.4l109-36.4l33.3,146l60.2-167.2l192.2-46.2
		l56.3,184.3l38.3,96.9l0.1,0.3l36.1,101.9l18.4-100.7l0.4-1.2l52.3-168.6l104.2-78.4l59.9,87.7l30.5,149.2l18.9-23.9l34.1-59.8
		l62.9-33.1l53.5-17.5l64.3,33.1l33.3-44.9l28.6,14.9l64.2-49l61.4,55.8l29.2,89.1l5.1-6.9l54.3-17.2l75.9-53.2l90.6-12.1l58.3,55.7
		l56.6-52.2l85.7,61.4l35,26.5l34,41.6l45.9-11.9l19,63.5l32,22.4l53.1,173.9l-7.2,80.8l32.4,84.1l-7.4,125.3l-77.1,13.1L6293,1462
		l14.6,11.4l1.2,5.9l36,4.7l44.3-11.4l24.9,44.3l23.4,34.3l27.9-28.4l39.1,35.7l13.9,67.4l12.8-33.2l-7.9-45.3l-15.2-48.7l2-8.2
		l-9.3-14.9l-13.7-85.7l-7.4-59.1l14.8-28.4l-27.7-49.8l-13.2-93.4l8.4-42.7l19-37.8l16.5-3.1l32.2-49.2l4.9-40.6l16.4-56l38.7,5
		l23.5,5.2l2.4,1.8c0.4,1.7,10.4-7.4,10.8-5.7c2.7-10.7,17-40.5,19.3-49.9l20-18.6c0,0,4.7-15.1,6.4-8.4c1.8,7.2,19.5-1.3,19.9-2.8
		c0.8-2.8,46.1-75.5,46.1-75.5l43-10.5l61.9-4.6l22.4,28.6l27.2-10.9l48.3,10.7l42.6-33.5l57.6,29.9l38.5,53.3l31.3,43.3l31.1-10.3
		l46.1-43.9l36.4-27.7l29.6-3.6l39.9,8l45,73.2l14.3,29l12,37.6l1.1-3.1l17.3-49.2l11.3-31.5l8.1-36.9l8.2-59.3l35.9-23.9l21.7,1.4
		l13.9-10.4l7.1,9.2l6.6,12.7l12.5-4.9l33.4,8l55.5,23.1l43.5,64.8l8.6,83.9l24.4-125.8l54.4-60.5l12.3-7l27.4,16.1l35.8,68.1
		l19.8,62.3l4.3,16.2l27,144.1l9.9-14.7l19.9-127.1l39.9-120.4l4.5-10.1l71.2-29.5l53.3,20.4l89.9,57.7l0.7,0.5l18.5,13.2l64.7,49.2
		l55.2,103.8l5.4,16.2v128l-5.6,35.9l-40.6,84.9l-4.3,35.6l15.2,26.1l12.5,36.4l-3.9,91.9l5-2.6l47.2-67.4l30.2,10.3l82.7,97.5
		l-71.8,145.7l-4.3,13.8v88.2l-2.4,17.7l-30.3,70.7l-6,21l-1,30l7.5-3.1l8.9,15.8l37,10.9l65.4,65.4l3.5,31.4l-59.5,267.5l-4.3,8.6
		l-78.9,117.9l-78,108.8l-85.9,40.1l-72-53.1l-35.3-97.3l-9.7,6.3l-64,100.6l-98,31.9l-78.6-41.5l-20-20l-6.6-9l-38.8-7.9
		l-15.5-30.2l-10,9.5l-50,25.2l-54.8,37.2l-51-21.2l-40.7,33.7l-68.5-66.5l-4.6-49.3l29.1-71.3l31.7-9.3
		c0.2-5.4,18.3-31.6,18.4-34.4l11-7.8c0,0-11.6,10.2-11.6,8.6s-23.8-53.3-23.8-53.3l-44.6-23.1l-22.2-38.7l-41.7-76.6l24.5-65.6
		l-0.8-5.2l20.2-71.7l-9.6-28.3l-23.1-60.2l25.6-117.8l37.4,33.1l2.8-73.2l-4.1-25l7.9-44.1l-26.4-59.3l1.6-20l17.3-51.3l-14.1-17.6
		l-41.4-2.5l-64.5-60.1l-8.1-9.6l-33.5-8.7l-33.4,3.3l-26.7,1.4l-10.9,38.8l6.3-9.9l2.2-18.3l2.4,64.4l-23.1,42.9l-72.3,51.7
		l-8.8-6.9l-34.2,49.1l-23.1,40.9l-31.6,56.7l-5.5,50.9l-32.2,71.6l-9.9-14.9l-57.9-4.9l-12,3.6l-44.3,110.2l-37.2-9l-56.5-1.5
		l-3.3,9.6l-19.9,38.8l-63.3,46.4l-29.4,17.7l-38.5,94.2l-47.6-91.5l-16.9-39.3l-26.9-37.6l-11.9-9.1l-24.9,37.3l-37.9,28.8
		l-27.5,43.8l-76-6.8l-11.3-18.9l-9.4-17.1l-27.2-42l-9.8-9l-28.8,22.3l-57-16.8l-81-10.5l-16.4-21.2l-24-14.5l-55.4-28.9l-13.3-11
		l-17.7,15.8l-39.1,11.2l-55.3-19.7l-9.8,26l-35.4,44.6l-53,22.9l-55.2-44.1l-0.6-0.7l-8.1,11.6l-54.9,18.1l-47.3-24.4l-29.4,19.6
		l-51.8,5.9l-36.2,6.9l-20.5,11.6l-29.8,41.8l-19.2-61.2l-48.9,12.7l-51.4-45.3l-34.6-34l43.5-104.2l46.8,9.3l3.5-3l-6.6-13.4
		l10.5-18.3l-4.6-43.9l-9.6-60.3l-27.3-33.2l-12.4-36.5l-33.9-56.6l12.3-59.8l-6.4-42.9l4.2-4.5l2.3-11.5l9.1-42.6l2.3-9.3l-2-7.7
		l-9.4-56.8l-40.6-14.1l-35.1-8.5l-42.8-25.5l-57-4.5l-46.6-25.1l-13.1,13l-42.6,18.8l-23.3,37.3l9.4,19.4l-30.1,56.1l-27,34.9
		l-26.1,62.8l6.7,41.3l-13.2,66.1l-63.2,21.4l-64.7,29.7l-88.5,37.4l-42,0.2l-74.1,20.2l-53.6,35.7l-27,18l-38.5,48.4l-14.5,82
		l6.1,62.6l-18.3,69.3l-26.7,54.4l-1.5,8.7l3.7-6.1l11,10.6l35.9,28l2.7,29.8l22.3,26.6l20.2,31.8l13,87.7l-45.6,85.8l-27,24.7
		l-32.9-18.9l-41.5-79.4l-0.4-2.3l-5.8,2l-13.6,5.3l-11.3-3.5l-76.3,42.3l-65.1-28.1l-70.7-68.7l-35,17.7l-8.9,3.5l-43.9,62
		l-43.6-6.6l-93.2-73.5l-28,3l-51.3,28.9l-29.9,8l-102.8,12.6l-14,4.2l-87.1,35.4l-143.4-16.8l-35.1-73.2l-101.7-77l-12.8,14.7
		l-23.9,109l-54.3,36.8l-129.5,30.9l-57.6,26.4l-48.4-8.3l-109-59.9l-37.7-15.9l-83.6-30.1l-28.3-19.7l-47.9-44.1l-16.2-20.2
		l-29.8-43.8l-30.2,6.3l-16.5,13.8l-32.8,67l-51.6,49.4l-58.4,31.8l-47.8-6.6l-154-74.5l-27.3-18.9l-80.3-65.3l-18.3-17.3
		l-24.3-24.9l-29.5,9l-71.2,69.8l-37.3,43.8l-12.5,16.1l-37.4,5.5l-102.9-23l-29.8,1.7l-172.8,35.1l-17.8-5.3l-172.6-102.7
		l-14.8,5.2l-71.4,66.3l-20,5.1h-68.7l-43.3-73.2l-7.2-19l-2.6-78.1l10.3-35.7l9.3-7.3l50.9-5.7l1.8,9.1l12.5,16.5l9-24.9l-0.2-22
		l-16.9-86.9l-8.5-23.7l-42.4-94.2l-2.5-17v-170.6l67.1-126.3h59.6l26.8,12.2l29,84.5l7.6-21.4l81.9-148.6l28.1-23.4l38.5-21.1
		l68.2-3.4l12.5-19.7l29.8-22l45.5-21.6l75.1,3.7l72,14.6l25,16.8l14.1-25.3l34.5-45l25.3-10.2l87.6,1.9l17.8,2.8l48.6,20.8
		l35.9-16.5l14.7,11.2l12.5-23.8l13.5-13.5l8.2-56.1l-6.7-6.4l-12.5-6.9l-3.9-12.2l-17.7-2.5l-8.1,3.6l-30.2-30.3l-8-2.7l-35.7-8
		l-22.8-30.2l-59.3-39.2l-59.1-30.2l-23.9-7.3l-55.7-15.3l-49.4-4.9l-66.3-34.4l-11.9-11.1l-30.4-20.8l-8.1,7.1l-28.7,4.6l-52.2,9.3
		l-98.9,1.8l-18.1-9.4l-6.6,9.4l-3.7,14l-17.1-15.3l-11.1-9.9l-43.4-2.8l-64.3,21.2l-10.1,6.8l-38.9,17.1l-17.3-21.7l-38.3-30.8
		l-4.9-3.3l-10.9-4l-26.9-45.6l-0.4-12.3l-7.1-50.8l10.1-67.2l18.9-20L1273.8,670.8z M13.3,13.3v3033.8h9641.1V13.3H13.3z"/>
	<path class="st5" d="M1273.7,667.1L1382,719l0.4-5l2.9-3c0,0,18.2-3.6,31.6-24.6c7.8-12.2,14-29.9,18.4-36.9
		c2.5-4,4.7-9.9,6.2-12.3c0.8-1.2,1.4-3,1.9-3.6c3.2-4.8,7-18.5,10.4-19.4c5.6-1.8,50.5-30.4,71.8-37.7c0,0,15.5-5.3,17.4-6
		c3.7-1.3,27.4,35.3,27.4,35.3l38.9,82.6l10.5,15.3l26.3-18.6l86.4-33.2l99.4-21.3l61.1,57.3l10.4,41.6c0.4-2.3,1.1-3,1.4-5
		c3.3-18.8,8.1-10.3,12.3-14.5c3.3-3.3,34.4-45.5,88.1-84.9c0.1-0.1,3.9-2.9,4.3-3.2c3.3-2.6,97.8-21.5,97.8-21.5l50.6,65.2
		l11.1,18.3l33.9-53.9l75.2,0.1l89.1,30.8l14.3,46l18.3,74.4l66.2,75.2l24.2,81.7l8.6,54.5l42.6-75.3l88.8,53l1.9,76.9l-20,145
		l-9.5,37.4l-19.5,68.7l-35.6,66.5l-0.1,68l45.6,64.1l2.2-11.4l31.5-44.7l8.8-22.6l78.4-40.8l34.8,31.9l10.7,23.2l12.6-16.8
		l6.6-26.2l8-49.2l2.7-18.8l34.3-44.2l36.6-53.8l18.9,10.6l14.1-48.5l13.9-26.2l20.9-26.7l29.8-72.3l10.2-22l64.4-17.2l11.8,28.3
		l5.4,11.4l9-18.1l20.7-49.7l1.1-16.8l3.2-65.3l52-84.4l36.4-65.6l80.5-113.3l18.1,56.1l15.2,119.3l4,14.6l14.3,45.5l22.3-28.9
		l54.4-107.6l58.2-18.4l131.9-18.7l14,12.6l57.2,73.1l46.2,21.5l44.2,83.1l2.5,26.1l21.3-44.5l41.4-22.3l22.2-48.8l8.7-13.3
		l61.2-72.2l116.6-32.8l109.1,6.5l38.1,58.4l39.7,40.7l27.9-48.6l30-96.5l85.2-35.4l116.9,51.6l2.1,136.1l7.2,48l33.2-137.9
		l114.2-38.2l31.6,138.5l57-158.2l197-47.4l57.2,187.2l38.3,96.8l0.1,0.3l31.9,90.1l16.2-88.6l0.4-1.2l52.7-169.9l107.8-81.2
		l62.2,91.1l30,146.9l23.6-48.8l35.5-56.4l70.2-19.3l59.3-11.1l50.1,43.5l32.6-69.7l33.7,6.9l68.2-25.5l55.4,70.3l26,93.4l4.6-16.6
		l58.4-62.5l90.1-35.3l99.3,8.9l50.3,73.4l47-71.9l92.8,45.7l31.8,62.4l24.5,46.6l49.7-41.1l18.5,61.1l26.6,45.7l48.7,159.5
		l-7.1,80.6l32.4,84.1l-7.6,128.6l-79.2,13.5l-28.4,14.9l11.5,9l1.1,5.7l41.4-11.8l53.6,1.2l19.4,62.5l18.7,40.6l31.9-52.6
		l42.2,22.4l17.3,62.1l14.2-31.3l-13-38.4l-27.7-42.1l-2.2-11.2l-19.7-40.7l-27.6-87.5l-3-62.9l28.4-26.8l-25.9-43.1l-6.6-95.4
		l10.2-40.6l17.1-43.3l17-11.6l38.2-49.7l14-38.9l20.4-47.9l42,26.4l22.7,14.1l1.8,3.5c0.5,2.1,5.8-1.1,6.3,1.1
		c3.3-13.4,12.6-36.5,15.5-48.3l13.6-35.2c0,0,4.6-24.1,5.5-20.7c0.9,3.6,21.5-12.3,21.7-13c0.4-1.4,50.2-64.7,50.2-64.7l51,6.7
		l61.5,10.1l17.4,31.5l19.7-19.4l53.7-4.9l46.1-25.3l50.4,44.9l37.1,51.3l30.1,41.7l30.1-25l46.8-39.9l35.1-26.6l29.5,1.2l37.9,7.6
		l43.3,70.5l15,27.3l10.9,34.2l1-3l16.9-47.4l10.9-30.4l6.5-35.9l7.6-54.6l34.6-23.1l27.1-10.1l13.7-9.7l3.5,16.3l3.3,14.7l11.5-7.2
		l32.2,7.7l56.8,18.5l51.9,57.2l8,78.7l23.6-121.7l63.2-50.9l11.9-6.8l23.3,26.4l34.3,65.3l19.2,60.3l4.6,15.6l26.1,139.4l9.3-34.9
		l19.2-122.9l44.3-114.8l4.4-9.8l78.6-13.7l49.9,25.1l86.9,55.7l0.7,0.5l17.6,13l62.5,47.5l54.5,102.7l6.7,15.7v126.5l-2.8,36.2
		l-40.2,83.9l-10.6,35.5l15,25.8l16.1,35.1l-3.8,90.8l6.5-6.9l46.7-66.6l30.5,23.3l81.8,96.4l-71.4,144.8l-5.4,13.4v87.7l-1.2,17.8
		l-30.1,70.3l-7.3,20.5l-1,29.9l9.6-8.7l11.3,14.8l37.5,24.4l65,65l-2.1,32.8l-59.1,265.8l-4.8,8.3l-78.4,117.2l-78.5,109.5
		l-88.5,41.3l-74.4-54.9l-34.2-94.3l-7.7,30.7l-75.7,84.2l-103.3,25l-74.8-55.7l-10.1-10.2l-5.7-0.4l-43.5-18.3l-13.3-34.2
		l-8.9,24.2l-56,35.1l-65.2,30l-50.6-36.2l-35.7,37.5l-71.1-68.4l2-72.2l48.9-77.1l37.8,8.1c0.2-6.8,9.4-23.2,9.5-26.7l4.2-15.3
		c0,0-19.1-8.1-19.1-8.9c0-0.8-30.7-36.3-30.7-36.3l-54.9-21l-19.3-40l-41.7-90.3l45-77.8l11.6,25l15.7-76.5l-18.9-51.3l-31.9-81.6
		l29.9-129.8l43.8,63.3l11-71.7l4.5-7l4.8-33.9l-40.5-88.1l-1.3-43.3l17.7-45.9l-21.2-8.8l-56.6-7.2l-81.8-58.1l-8.7-8.9l-29.5,15.6
		l-40.8,18.7l-37.3,10.5l-15.1,39.3l3.1-4.4l7.9-14.2l15.3,80.6l-12.2,56.4l-66.8,77.9l-4.7-3l-33.8,47.3l-18.1,43.5l-26.3,65.5
		l-0.9,51.3l-38.8,76.9l-19.2-13.4l-77.1-22.7l-14.8-10.9l-40.8,113l-37.7-23.3l-61.6-33.7l-5-0.3l-16.4,33.2l-53.4,68.9l-27.5,35.6
		l-38.2,86.8l-39.5-94.6l-14.8-39.5l-27-61.1l-10-15.8l-14.1,31.2l-33.3,54.6l-29.9,67.3l-92.6,12.2l-11.1-41.3l-9.7-37.5l-21-64.2
		l-7.7-12.5l-18.8,23l-64-2.5l-95.3,3.9l-14.4-42.7l-21.5-19.5l-40.3-41l-14.2-1.3l-17,26.4l-40.5,31.6l-59.3-30.1l-7.7,22.3
		l-37,46.8l-55.2,35.7l-65-42.4l-0.6-1.5l-9,10.7l-64.3,8.5l-50.3-41.6l-25.4,14.9l-51,14.9l-43.4,15.5l-18.4,7.4l-23.1,52.5
		l-9.6-60.7l-52.5,11.6l-39.7-68.3l-26.1-45.7l63.7-100l43.3,29l2.8-5.6l-16.2-26.6l13.1-37.7l-8.8-42.8l-15.4-62.5l-27.7-31.6
		l-19.2-32.1l-38.6-58.9l21-57.5l6-38.6l14.1,6.8l1.3-11.5l5.1-41.6l-2.3-15.5l-6.2-20.3l-12.3-50.8l-51.1-6.6l-39.2,3.9l-48.5-17.1
		l-51.4-6l-47.8-35.3l-10.1,17.3l-37.4,26.1l-16.9,58l14.8,33.5l-32.3,53.4l-25.4,34.9l-29.6,55.8l3.9,41l-5.7,66.8l-67.5,9.9
		l-81.5,13.7l-83,47.3l-41,0.5l-73.1,10.9l-47.9,44.2l-24,22.3l-36.2,45.5l-3.1,83.6l6,61.3l-24.8,66.7l-26.1,53.3l-0.8,8.7
		l7.6-13.8l16.6,7.5l45,19.4l3.4,29.1l17.1,53.3l13.3,37.4l12.7,85.9l-61.2,78.2l-26.4,24.2l-29.5-34.4l-40.6-77.7l-0.2-2.3l-6,5
		l-17.1,16.4l-14.2,0.7l-80.3,33.1l-60.3-41l-69.3-67.3l-32.3,33.3l-8.5,6.9l-44.4,60.1l-44.5-21.2l-91.3-72l-27.9,9.3l-50.2,28.3
		l-29.9,5.8l-100.7,12.3l-13.6,4.8l-85.3,34.6l-146-17.1l-35.5-74.1l-101-76.5l-10.9,27.7l-23.8,108.6l-63.7,27.1l-129,30.7
		l-56.9,29.3l-48.3-17.4l-108.5-59.7l-38-14.8l-83.3-30l-26.9-21.6l-47.7-43.9l-15.4-20.8l-29.7-43.6l-31.5,17l-16.4,13.8
		l-27.5,72.4l-59.1,42.8l-58.1,31.6l-47.7-14.8l-153-74.1l-26.5-19.8l-79.8-65l-17.8-17.6l-24.1-24.8l-29.5,18.9l-70.8,69.4
		L1975,2223l-12.4,16.1l-39.9-2l-102.3-22.9l-29.7,3.9L1619,2253l-17.3-7.7l-171.6-102.1l-14.3,9l-71,65.9l-20.9,2.6h-68.3
		l-42.9-72.7l-8.8-18.3l-2.6-77.4l4.5-38.1l9.3-7.2l59.3-29.2l1.8,9.1l11.1,33l8.9-24.7l-2.2-22l-16.8-86.2l-9.4-23.2l-42.1-93.4
		l-1.2-17.1V1584l68.4-128.8h58.3l30.4,6.1l28.9,84.4l9.5-52.7l96-138.3l33.6-17.7l40.1-17l67.8,16.2l8.7-22.4l27.3-24.4l44.1-33.8
		l89.9-20.8l83.6,50.8l21.6,31.5l12.1-25.7l27.7-49.6l24.8-9.8l89-16.4l19.8-2.8l54.4,9.8l40.3-8.7l14.1,25.2l12.9-22.9l11.7-14.9
		l-9.7-62.5l-14.5-5.6l-29-8.4l-13.1-15.1l-26.4-15.3l-11.5,0.3l-47.7-21.6l-12.7,1.1l-39.8,2.1l-24.6-28l-55.7-44.9l-59.5-26.2
		l-23.1-7.8l-54-16l-48-9.9l-67.8-28.3l-11.7-10.8l-28.4-22.4l-6.3,10.3l-27.8,8.8l-50.4,16.3l-97.3,10.7l-18.4-7.9l-3.3,16.2
		l-1.9,29.1l-16.1-34.8l-8.4-15l-43.4-8.8l-61.8,22.8l-9.2,7.8l-35.5,25.8l-13.6-24.4l-30.2-45.7l-4.2-6.3l-10.4-8.6l-28.6-43
		l0.7-12.1l0.3-51.2l9.8-65.3l22.3-16.5L1273.7,667.1z M16.7,16.7v3027.1h9634.5V16.7H16.7z"/>
	<path class="st6" d="M8379,2264l-83.3,124.5l-79.1,110.3l-91.1,42.5l-76.8-56.7l-33.1-91.3l-5.6,55.1l-87.5,67.8l-108.6,18.1
		l-71.1-70l-0.1-0.5l-4.8,8.2l-48.2-28.7l-11.2-38.1l-7.8,38.9l-61.9,45l-75.6,22.8l-50.1-51.1l-30.7,41.4l-73.8-70.3l8.6-95
		l68.8-82.9l44,25.6c0.3-8.1,0.5-14.8,0.6-19l-2.6-22.8l-26.5-26.5l-37.5-19.3l-65.1-19l-58.1-145.3l65.5-90l24,55.2l11.1-81.2
		l-28.1-74.3l-40.7-103l34.2-141.8l50.2,93.5l19.2-70.2l13.1,11l1.7-23.8l-54.6-116.9l-4.1-66.6l18.1-40.4h-28.3l-71.7-11.8
		l-99.1-56.1l-9.3-8.2l-25.5,39.9l-48.3,34l-47.8,19.6l-19.4,39.7l-0.1,1.2l13.6-10.2l28.1,96.7l-1.4,69.9l-61.3,104.2l-0.6,0.8
		l-33.3,45.5l-34.1,120.3l3.8,51.6l-45.4,82.1l-125-52.4l-17.5-25.4l-37.3,115.9l-104.8-103.5l-6.7-10.2l-12.9,27.6L6529,2174.4
		l-71.3-222l-8.1-22.5l-3.3,25.1l-60.9,171.2l-109.2,31.3l-35.6-208.2l-5.6-16.1l-8.8,23.6l-180.6,30.3l-12.5-64.2l-18.9-24.6
		l-25.2-53.1l-15.1,8.3l-16.3,37.1l-41.9,52l-63.2-40.5l-5.7,18.6l-38.6,48.9l-57.4,48.5l-74.8-40.7l-0.6-2.2l-9.9,9.9l-73.7-1.2
		l-53.4-58.9l-21.4,10.2l-100.8,47.9l-16.4,3.1l-16.3,63.2v-60.1l-56,10.6l-45.5-148.8l83.8-95.8l39.8,48.7l2.1-8.2l-25.9-39.8
		l15.7-57l-13.1-41.6l-21.1-64.7l-54.1-57.8l-43.4-61.2l48.2-89.6l24,18.2l0.3-11.5l1.1-40.6l-17.2-54.6l-15.3-44.8l-61.5,0.9
		l-43.4,16.2l-100-16.2l-49-45.4l-7,21.6l-32.2,33.4l-10.4,78.7l20.1,47.5l-91.3,134.5l2.8,108.1l-170.2-3.9l-77.6,57.3l-112.2,2.3
		l-42.2,52.7l-54.9,69.2l14.2,145.2L4435,2070l-0.1,8.7l11.6-21.5l76.3,15.3l34.8,235.6l-102.8,94.3l-65.8-125.9l0-2.3l-26.8,35.4
		l-101.6,28.8l-123.4-119.9l-29.5,48.9l-53,68.6L3920,2229.6l-77,43.4l-128.5,15.8l-96.6,39.2l-148.7-17.4l-35.9-75l-100.3-75.9
		l-32.6,148.9l-201.6,48.1l-56.2,32.3l-156.1-85.8l-121.1-43.6l-73.1-67.1l-44-64.7l-49.2,41.3l-22.2,77.8l-124.4,67.7l-199.8-96.7
		l-104.9-85.4l-41.4-42.5l-99.8,97.8l-47.3,61l-144-32.2l-200.2,40.7l-187.4-111.5l-84.4,78.4h-89.7l-53-89.8l-3.9-117.3l76.9-59.8
		l11.5,58.6l8.8-24.5l-20.9-107.5l-52-115.4v-185.2l69.7-131.3h91l28.9,84.3l11.4-84l110-128l80.6-25l67.3,35.7l5-25.2l67.5-72.9
		l104.7-45.2l95.3,87.1l18.1,46.2l31.1-80.4l136.4-52.4l104.9-1.9l13.5,39.1l23.3-38.3l-27.5-68.9l-67.8-14.7l-57.4-46.3l-80.1-15.7
		l-61.3,17.2l-78.5-76.4l-82.2-30.4l-168.3-54l-37.7-34.5l-4.5,13.5l-75.5,36.4l-95.7,19.5l-18.7-6.3v67.3l-20.8-74.3l-43.3-14.7
		l-59.4,24.3l-40.3,43.4l-35.5-97l-40-53.6l19-126.8l69.7-35.4l110.6,53v-7.7l3.1-4.9c0,0,16-25.2,32-50.5
		c9.3-14.7,16.7-26.3,22.1-34.7c3.1-4.8,5.6-8.7,7.4-11.5c1-1.5,1.7-2.6,2.2-3.4c3.9-5.8,8.4-8.4,12.5-9.4
		c6.7-2.2,47.8-16.3,73.3-25.1l17-5.8l58.2,123.6l8.4,12.3l23.9-16.9l87-33.5l101.4-21.7l63.1,59.2l10.1,40.6
		c0.5-2.8,0.9-5.3,1.3-7.7c3.9-22.6,5.7-28.1,10.8-33.2c3.9-3.9,38.1-29.4,101.6-75.6l4.2-3.1l98.5-11.8l44.7,80.1l10.9,17.8
		l35.3-74.3l84.2-9.8l97.6,56.4l9.3,136.4l77.6,63.3l21.8,138.2l46.7-118.6l94.1,95.3l-30.3,219.9l-28.2,99.4l-35.4,66.1l-0.1,66.1
		l45.1,63.5l1.7-17.7l43.6-93.2l92-27.8l34.1,54.6l6,29.9l8.2-18l10.6-134.3l78.7-90.9l21.8,23.9l9.4-49.5l73.2-156.8l70.4-5.9
		l13.1,57.1l26.5-98.9v-90.2l179-251.7l25.5,199.4l18.3,58.5l76.3-151l192-27.3l68.2,87.1l46.5,21.6l45,84.6l1.4,14.9l16.6-34.7
		l41.4-22.3l21.8-48l0.8-1.3l51.8-79.4l117.6-39.3l125.2-0.9l35.2,52.8l37.7,61.7l29.1-37.5l23.2-107.8l78.7-49.2l140.3,40.5v121.4
		l4.4,74.9l31.9-132.3l119.4-39.9l29.9,131l53.7-149.2l201.8-48.5l58.1,190l38.2,96.8l0.1,0.3l27.7,78.4l13.9-76.5l0.4-1.2
		l53.1-171.1l111.5-83.9l64.5,94.6l29.5,144.6l28.3-73.7l37-53l142.6-10.2l35.8,54l31.9-94.5l111-3.1l49.5,84.9l22.8,97.7l4-26.2
		l62.4-107.8l104.3-17.4l108,30l42.2,91.2l37.5-91.5l99.8,29.9l43.6,150l53.6-70.3l83.3,272.8l-7.1,80.5l32.4,84l-7.8,132
		l-81.3,13.8l-23.4,12.3l8.4,6.6l1.1,5.4l46.8-28.3l62.9,13.8l13.9,80.7l14.1,46.9l36-76.8l45.3,9.2l20.8,56.8l15.7-29.3l-18-31.5
		l-40.3-35.4l-36.6-80.6l-41.5-89.3l1.4-66.6l42-25.2l-24.1-36.3v-97.4l27.4-87.4l61.7-70.3l47.6-77.1l67.2,70.8l1.2,5.3
		c0.6,2.6,1.2,5.2,1.8,7.8c4-16.1,8.1-32.5,11.6-46.7l11.8-84.8l77.8-77.1l120.1,48.6l12.4,34.3l12.2-28l108.7-37.8l107.8,149.3
		l29-39.8l81.1-61.6l65.4,13.1l57.4,93.5l9.9,30.9l1-2.9l26.9-74.8l11.7-84.8l79.4-53v40.1l10.4-9.4l89.1,21.3l60.4,49.6l7.5,73.5
		l22.8-117.5l83.4-47.9l52.1,99.2l23.3,73.3l25.2,134.7l27.2-174l52.9-118.6l86.1,2.1l130.2,83.5l0.6,0.5l77.1,58.7l62,116.7v161.5
		l-56.6,118.3l34.4,59.4l-3.8,89.8l54-77.1l111.7,131.6l-77.3,157v105l-38.5,89.9l-1,29.7l11.6-14.3l116.2,116.2L8379,2264z M20,20
		v3020.4h9627.8V20H20z"/>
</g>
</svg>
