<?xml version="1.0" encoding="utf-8"?>
<!-- Generator: Adobe Illustrator 23.1.0, SVG Export Plug-In . SVG Version: 6.00 Build 0)  -->
<svg version="1.1" id="Layer_1" xmlns="http://www.w3.org/2000/svg" xmlns:xlink="http://www.w3.org/1999/xlink" x="0px" y="0px"
	 viewBox="0 0 8841.6 3235.2" style="enable-background:new 0 0 8841.6 3235.2;" xml:space="preserve">
<style type="text/css">
	.st0{fill:#181818;}
	.st1{fill:#161616;}
	.st2{fill:#141414;}
	.st3{fill:#121212;}
	.st4{fill:#101010;}
	.st5{fill:#0E0E0E;}
	.st6{fill:#0C0C0C;}
</style>
<g>
	<path class="st0" d="M7855.2,2256l33.8,151.2l-89,120l-98.4-110.4l-48,14.4l-65.5-1.3l-59,53.8l-69.9-96.5l-69.6-188.8l-26.4,206.4
		l-51.3,85.2l-108.3-21.6l-41.5-63.6l-65.3,55.2l-98.4-48l-35.2-121.3l59-116.3l-11.8-132l-36-160.8l-72.2-131.2l79.4-59l40.6,59
		l26.6-99.2l-50.4-110.4l-76.8-74.4l41.6-42.2l59,51.2l-3.7-58.6l-92.1-52l-104.6,19.3l-121-63.6l-79.2,63.6l-45.6,127.5l39.2,93.6
		l5.6,138.4l-92.8,169.2l-105.8-96l-60-66.4l-20.2,161.2l-121.4,101.5l-79,82.1l-70.4-26l-52-235.2l26-143.7l26-255.3l24.8-114.4
		l-61.2-59.7c0,0-20.4-101.7-15.6-108.9s165.6-77.5,165.6-77.5l134.4,24.5l72,125l91-212.8l41-149.6l50.4,28.8l72,93.6l57.6,55.6
		l60,90.8l40.3-144L6912,912l53.9-37.2l70.9,39.6l67.2,72l72.1-115.2l105.7,24l62.2,187.2l175.2,64.8l64.3,163l41.4-195l96-37.6
		l102.6,118.7l66.6,204.2l-13,163.6l-72.2,136.8l-7.2,63.2l110.4,89.7l-28.8,174.3l-76.8,228H7855.2z M5930.4,2049.8l-112.8,9.8
		l-140.4-101.2l-155,25.7l-197.8-60l-86.4-105l-90,208l-119.6-23.5l-48.3-113.6l70.7-78.5l-42.8-66.7l-76.2-161.2l-39.8-190.2
		l-201.3-158.6l-98.3-22.1L4490,1322.2l-44,88.3l84.1,98.4l-66.1,175.2l-141.8-30.4c0,0-74.2-24.8-85-18.4
		c-10.8,6.4-133.2,116-133.2,116l-133.2,153.2l-18,122.7l75.6,126.5l-21.6,198.2L3840,2336l-81.6-73.6l-52.8,30.4l-118.4,59
		l-72-172.4l-60.8-195.3l-73.6,153.8l-108.8,82.9l-209.8-96l-41.4,54.6L2912,2292.8l-164.8-23.9l-56-56.1l-69.2,94.4l-99.8,80
		l-96.8-15.4l-32.6-182.5l-64.8-370.2l-11.2-277.5l76.5-223.6l102.7-155l112.8,53.8l79.2,129.6l36-168l40.8-155.2l96-128
		c0,0,141.6,41.6,148.8,56.8c7.2,15.2,93.6,231.2,93.6,231.2l36,187.2l57.6-266.4l141.6-228l143.8,14.4l120,163.2l29,76.8
		l52.8-107.2l76.8-71.2l110.4-128.8l57.6,128.8l76.8,183.2l69.6,337.2l48-303.6l139-254.4L4416,799.2l84,136.4l14.4,206.8
		L4629.6,912l137.2,7.2l114.8,155.6l107.9-45.2l151.7-130.9l83.7,1.3l158.4,111.2l62.4,145.6l88.8-156l132-47.2l74.4,47.2
		l76.8,103.8l33.6,155.2l60.5,105.6l21.1,209l21.6,151.2L5930.4,2049.8z M0,0v3235.2h8841.6V0H0z M2246,2276.4L2092.2,2393
		L1944,2153.6l-66.2,61.6l-207.9,15.2l-150.7-96.3l-103.2-14.9l-189.6,91.2L1068,2080.8l-74.4,136.8L888,2161.7L837.1,2015
		l48.5-289.4l-60-240.2l132-28.6l146.4-7.2l136.8-62.4l141.4,24l175.4-88.8l170.4-19.2h112.8l14.4-62.4l-64.8-79.2l-78.2-88.8
		l-116.2,16.8l-93.8-40.3l-47.8-67.7l-201.6-64.8L1068,859.2L916.8,934l-73,16.4l-25.4-69.6l-49.2-63.6l37.3-68.4l82.7,68.4
		l51.6-93.6l93.6,67.2l43.2-31.2l60-74.4l93.6,120l37.2,12.6l66-57l55.2-14.4l80.4,64.1l70.8-25.7l88.8-48l100.8-9.6l112.8,80.4
		l110.4,21.6l37.2,165.6l34.8,154.8l73.6,104.8l132.8,379.8l37.2,259.9L2246,2276.4z"/>
	<path class="st1" d="M6169.9,1077.5c6.7-3.1,85,7.1,85.1,7l5.8,0.5l42.8,7.8l61.6,79.6l19.3,33.5l30-45.1l62.6-146.3l8-26.8
		l33.7-123l37.7,12.3l7.8,4.4l50.7,57.6l25,32.4l56,56.8l45.9,64.1l16.6,25.2l11.3-23.4l29.8-106.6l1.4-3.4l109-74.7l53.5-36.9
		l14.2,5.2l55.9,31.2l26.3,25.6l41.4,44.4l10.1-10.8l61.8-98.8l11.8,0.7l92.2,20.9l19.1,37.8l47.4,142.6l48.3,25.5l119.7,44.3
		l30.6,56l39.2,99.5l3.7-10.8l31.1-146.8l10.2-27.8l95.2-37.3l103.4,119.7l3.6,9l64.1,196.6l-0.1,7.1l-12.5,157.9l-2.8,6.3
		l-69.5,131.7l-5.4,47.8l0.6,14.6l96.9,78.7l11,12.4l-27.5,166.6l-0.3,1.5l-1.3,6.7l-64.6,191.8l-3.5,30.7l46,8.7l27.2,121.7
		l2.5,29.1l-89.2,120.3l-97.4-109.3l-19.8,2.7l-26.7,8l-14.6,0.4l-50.1-1l-10.7,7.8l-48.3,44l-20.7-19.5l-49.3-68.1l-26.1-62.3
		l-45.3-122.9l-17.4,136l-13,67l-28.1,46.7l-26,30.4l-93.6-18.7l-12.7-4.1l-27.8-42.6l-14.1-14.6l-42.3,35.7l-23.1,13.9l-97.5-47.6
		l-35.9-124l59.1-116.6l-11.7-130.8l-35.8-160.1l-71.1-129.2l18.4-19.5l53.8-40l43.9,41.7l16.3-36.9l12.7-47.5l-49.6-108.7
		l-75.5-73.2l14.3-20.9l20.3-20.6l56.4,35.4l-7.5-37l-3.6-14.4l-91.5-40.6l-101.5,8.6l-32.3-17l-84.3-30l-71.2,67.6l-10.5,29.4
		l-22.8,96.3l33.3,93.4l2.4,59.2l-3.1,75.8l-79,143.9l-13.6,16.6l-104.3-94.6l-10.7-11.4l-0.7-0.8l-33.2-36.7l-12.9-10.4
		l-14.2,113.7l-10.2,42.7l-101.6,85l-17.8,15.4l-77.9,80.9l-71.5-26.4l-5.5-13.8l-49.3-223.2l1-9.2l24.7-136.7l25.6-251.4l5.1-25.8
		l0.3-1.2l18.6-85.7l-15.7-20.3l-40.6-39.6c0,0-5.6-14.4-8.3-28.8c-0.3-1.8-0.9-4.7-1.2-6.6c-3-16.7-7.2-40.5-9-57.1
		c-0.7-6.7-0.7-11.5-0.1-13.4c0.9-3.1,9.3-7.8,20.4-15.8c8.4-6.1,17.5-13.2,29-19C6105.8,1105,6155.5,1084,6169.9,1077.5z
		 M2494.8,1158.7l111.5,53.2l19.7,26.7l60.4,98.9l27.2-126.8l8.7-39.3l34.2-130.2l7.4-22.6l95.5-127.4c0,0,6.8,2,14.1,4.2
		c15,4.6,47.4,14.6,77,25.1c28,10,51.2,20.3,56.3,25.9c5.2,5.6,12.2,19.5,20.2,39.1c23.6,57.7,70.9,175.8,75.3,186.7
		c1.9,4.7,13.8,62.8,14.3,63.9l0.4,2l19,98.9l3.8,13.5l35.9-165.9l26-95.3l107.3-172.7l37.2-43.4l114.2,11.4l26.1,5.9l118.6,161.2
		l26.4,70l49.7-100.8l77.1-71.5l109.3-127.5l19.1,27.8l39.5,88.4l33.4,78.8l43,102.5l23.2,97.2l0.4,2l48.5,235l33.2-209.7l19-89.1
		l106.7-195.3l34.1-53.6l133.2-99.7l18-8.8l84.4,137l10.3,147.4l7.4,40.1l68.3-136.6l54.3-76l68.2,3.6l63.1,11.5l78,105.8l38.5,36.9
		l41.1-17.2l63.7-30.5l111-95.8l40.8-28.2l52.3,0.8l29.6,3.1l156.1,109.6l51.6,120.4l10.5,16.4l64-112.5l27.2-37.8l111.4-39.8
		l18.9-4.1l73.6,46.7l77.6,104.9l33.6,155.4l60.6,105.8l21.2,209.6l21.6,151.5l-24.2,327.4l-116.9,10.2l-140.3-101.1l-154.4,25.6
		l-199.5-60.6l-83.6-101.5l-88.9,205.4l-124-24.3l-49.8-117.2l70.4-78.2l-41.5-64.7l-0.5-1.1l-76-160.6l-0.5-2.3l-39.1-187.2
		l-199.7-157.3l-95.7-21.5l-100.9,107.7L4450,1410l84,98.2l-66.5,176.2l-19.3-0.3l-120.9-26c0,0-18.9-5.6-33.8-9.8
		c-0.3-0.1-0.8-0.2-1.1-0.3c-20.4-5.9-43.3-10.9-50.6-9c-3,0.8-8.7,4-15.7,9.4c-32,26.9-110.9,97.4-119.6,105.2L3980.8,1898l-7.1,10
		l-13.9,94.9l-0.9,27.7l58.9,98.6l13.5,29.3l-20.3,186.3l-3.3,10.4l-167.6-15.9l-6.5-4.7l-75.6-68.2l-39.4,22.7l-0.5,0.3l-13.4,7.5
		l-119.2,59.5l-71.7-171.6l-8.8-26.9l-0.3-0.9l-46.8-150.3l-5.4-11l-47.8,99.8l-29,50.4l-78.2,59.6l-30.7,16.6l-176.9-80.9
		l-30.2-7.7l-12,15.9l-0.7,0.9l-29.1,37l-86.1,89.7l-23.7,18.6l-154.4-22.4l-9.1-2.3l-38.5-38.6l-16.8-11.3l-43.9,60l-26.2,32.8
		l-78.6,63l-21.6,13.2l-96.3-15.3l-32.8-183.3l-1.6-9.3l-63.5-362.7l-11.2-278.3l1.1-3.3l73.6-215l2.9-7.4L2494.8,1158.7z M3.3,3.3
		v3228.5h8834.9V3.3H3.3z M805.5,743.7l82.7,68.4l51.5-93.4l94.7,68l29.2-21.1l13.5-10.7l60.5-75.1l93.6,119.9l17.6,7.8l18.9,6.4
		l61.3-52.9l4.8-3.6l55.1-14.4l7.4,4.3l73.2,58.3l7.9-1.6l59.3-21.5l3.2-1.2l88.7-47.9l101.9-9.7l3.8,2.1l110.2,78.5l111.8,21.9
		l37.3,166l35,155.9l73.5,104.6l0.9,2.6l132.2,378l0.3,1.9l37,258.7l-0.1,1.9l-23.2,382.3l-154.6,117.2l-13.9-14.5l-136.3-220.1
		l-9,5.4l-52.1,48.5l-5.2,3.9l-209,15.3l-151-96.5l-92.1-13.3l-11.1-0.5l-188.9,90.9l-146.6-119.9l-11.7-6.1l-63.2,116.2l-13.2,15.7
		l-106-56.2l-51.6-148.7l0.8-4.9l46.5-278l0.8-8.1l-60.3-241.5l135.6-29.4l1.6-0.1l144.4-7.1l137.2-62.6l141.3,24l175-88.6l3.5-0.4
		l167.6-18.9h110.3l8.5-36.9l2.1-24.7l-41.1-50.2l-24-29l-45.2-51.3l-36-30.1l-60.2,8.7l-55.6,3l-50.9-21.9l-40.4-21.9l-19.6-27.7
		l-31.4-35.9l-146.4-47.1l-55.7-17.8l-119.2-37.2l-65.3-11.9l-82.6,40.9L905.3,940l-16.5,3.7l-50.5,1.4l-10.1-27.7l-17.4-40.9
		l-27.3-35.3l-15.4-29L805.5,743.7z"/>
	<path class="st2" d="M6155,1080.4c13.5-6.1,84.2-1.6,84.3-1.6l5.8-0.1l43,7.8l70.5,67.5l19.3,33.6l31.4-23.2l62.7-146.7l8.7-26.7
		l33.8-123.4l32.8,0.2l7.8,4.5l54.2,53.9l25,32.5l54.5,58l48.3,62.5l16.7,25.3l13.1-12.7l29.9-107l1.7-3.2l109.5-75l53-36.5l14,2.4
		l55.5,31l27.2,23.9l41.1,44l10.5-6.1l61.3-98l10.7-1.6l91.4,20.7l23.7,32.2l47,141.3l42.1,30.9l118.6,43.9l36.5,49.2l38.9,98.6
		l4.1-5.8l30.9-145.5l13.8-24.5l94.3-37l104.3,120.6l4.3,8.8l64.7,198.2l0.4,7.1l-12.7,159.2l-2.4,6.5l-70.1,132.8l-5.5,47.9
		l2.9,13.7l97.2,79l8.2,13.5l-27.6,167.2l-0.3,1.5l-1.5,6.7l-64.8,192.4l5.4,24.6l39.1,17.5l27.3,122l-1.7,28.3l-89.5,120.6
		l-96.5-108.2l-18.6-0.9l-26.4,7.9l-14.4,1.1l-49.6-1l-11.2,6.2l-47.8,43.5l-21.3-11.3l-48.8-67.4l-28.4-60.3l-44.7-121.2
		l-17.2,134.7l-17.2,64.9l-27.8,46.2l-29,22.7l-92.7-18.5l-11.6-5.5l-27.5-42.2l-14.9-8.7l-41.9,35.4l-23.5,8.7l-96.6-47.1
		l-36.7-126.7l59.3-116.9l-11.6-129.7l-35.7-159.4l-70-127.2l12-20.5l53-39.4l47.2,24.4l18.6-21.4l12.9-48.1l-48.9-107.1l-74.3-72
		l7.6-20.4l19.9-20.2l53.7,19.5l-12.4-33.2l-6.1-10.9l-90.9-29.2l-98.3-2.2l-31.8-16.7l-80.3-13.6l-63.2,71.6l-10.4,29l-10.7,95
		l27.4,93.3l2.4,58.3l-9.4,73.2l-77.8,141.9l-14.4,10l-102.8-93.3l-10.7-11.1l-0.7-0.8l-32.7-36.2l-10.8-4.3l-14,112l-14.6,39.6
		l-100.1,83.7l-17.2,15.4l-76.7,79.7l-72.5-26.8l-7.6-12.2l-50.1-226.5l0.4-9.3l25.1-138.7l25.2-247.4l4.6-25.5l0.2-1.1l18.3-84.4
		l-11.5-21.2l-40-39c0,0-8.5-15.5-10.7-27c-0.3-1.4-0.9-5-1.2-6.5c-2.4-13.4-6.9-37.6-9.1-56.1c-0.7-6.2-0.8-10.9-0.5-13.1
		c0.5-4.5,7.6-9.4,15.6-17.9c7.3-7.8,13.4-16.1,23.7-21.9C6085.4,1110.2,6126.1,1093.5,6155,1080.4z M2493.6,1154.5l110.2,52.6
		l21.5,24.1l59.6,97.5l26.9-125.3l8.9-38.7l33.8-128.7l8.6-21.7l95-126.7c0,0,8.1,2.4,14,4.2c12.1,3.7,45.2,13.8,76.1,24.7
		c27.4,9.7,49.3,19.5,56,24.8c9,7.1,15.9,19.1,22.9,36.1c19.9,48.3,65.7,162.5,74.5,184.4c3.8,9.4,15.1,60.4,16,62.6l0.5,1.9
		l18.8,97.7l3.9,7.1l35.4-163.9l30.6-92.1l106-170.6l41.3-33.5l112.8,11.3l24,9l117.1,159.3l23.9,63.3l46.6-94.5l77.4-71.8
		l108.2-126.2l20.6,16l39.1,87.5l33.3,77.8l42.5,101.4l25.9,95.3l0.4,2l48.3,233.9l32.8-207.5l23.6-86.6l105.6-193.2l37-50.2
		l131.7-98.7l16.7-3.2l84.8,137.6l10.1,145.7l10.7,22.4l67.5-135l62.6-59.8l67.4,3.5l58,19.4l77.1,104.5l41.2,25.2l40.6-17
		l61.1-33.1l109.7-94.6l42.3-22.4l51.6,0.8l28.3,5.8l153.8,108l51,119.1l10.8,8.9l63.3-111.2l30.3-33.3l110.2-39.4l18.3-1.2
		l72.8,46.2l78.4,106l33.7,155.6l60.7,105.9l21.2,210.3l21.7,151.8l-24.5,330.6l-120.9,10.5l-140.2-101l-153.8,25.5l-201.2-61.1
		l-80.7-98.1l-87.8,202.9l-128.3-25.2l-51.3-120.8l70.1-77.9l-40.2-62.8l-0.5-1.1l-76.2-161.2l-0.5-2.3l-38.9-186.3L4687.9,1241
		l-93.1-20.9l-99.3,106l-41.6,83.4l83.8,98.1l-66.9,177.2l-17,4l-121.6-26.1c0,0-22.2-6-34.1-9.4c-0.2-0.1-0.8-0.3-1.1-0.3
		c-19.9-5.9-42-10.9-50.7-10.2c-4.1,0.3-10.1,2.6-16.5,6.8c-28.6,23.9-103.5,90.7-121.1,106.4L3982.6,1901l-6.1,10.5l-14,95.4
		l2.3,27.2l59.2,99.1l10.1,30.2l-20.4,187.2l-5.3,8.1l-168.4-16l-6.9-3.9l-75.6-68.2l-39.7,22.8l-0.5,0.3l-13.5,7.4l-120.1,59.9
		l-71.3-170.7l-9.2-26.7l-0.3-0.9l-46.6-149.6l-5.7-5.8l-47.5,99.3l-32.3,47.3l-77.9,59.3l-31.3,10.2l-176-80.6l-28.3-0.7l-12,15.8
		l-0.7,0.9l-29.7,36.2l-85.7,89.3l-25.1,14l-153.7-22.2l-8.6-3.1l-38.3-38.4l-16.3-5.2l-43.7,59.7l-27.4,31.3l-78.2,62.7l-22.4,9.8
		l-95.8-15.3l-32.9-184l-1.6-9.3l-63.8-364.5l-11.3-279.2l1.2-3.4l74.3-217.2l3.2-7.3L2493.6,1154.5z M6.7,6.7v3221.9h8828.3V6.7
		H6.7z M804.5,738.5l82.7,68.4l51.3-93.1l95.8,68.8l29.3-21.1l12.9-11.2l61.1-75.8l93.5,119.9l16.5,9.4l19.3,6.5l61.2-52.9l5-3.2
		l55.1-14.4l7.7,3l73.1,58.2l7.7-0.2l59.2-21.5l3.1-1.3l88.6-47.9l103-9.8l4,1.6l111.2,79.3l113.3,22.2l37.4,166.4l35.3,157
		l73.4,104.5l0.9,2.6l132.4,378.7l0.3,1.9l37.1,259.3l-0.1,2l-23.3,384.1L2097,2397.7l-15.1-8.6l-137-221.3l-8.6,2.1l-52.4,48.8
		l-5.5,3.2l-210.2,15.4l-151.3-96.7l-92.3-13.3l-10.9,0.6l-188.2,90.5l-147.2-120.4l-10.9-2l-63.4,116.6l-14.9,10.2l-106.5-56.4
		l-52.3-150.7l0.8-4.9l46.8-279.4l0.2-8.1l-60.6-242.8l139.3-30.2l1.6-0.1l144.1-7.1l137.5-62.7l141.3,24l174.5-88.4l3.5-0.4
		l168.4-19h107.9l8.5-37l-1.7-23.9l-41.2-50.3l-24.2-28.9l-45.3-51.4l-38.8-22.6l-60.3,8.7l-55-2.2l-51-21.9l-37.8-25.3l-19.6-27.8
		l-34.6-31.7l-146.7-47.2l-55.8-17.8L1112.5,880l-64.8-3.3l-82.8,41L893.8,946l-16.5,3.7l-44.4-9.9L822.7,912l-19.4-39.9l-27.4-35.4
		l-8.8-29.6L804.5,738.5z"/>
	<path class="st3" d="M6140.2,1083.4c20.2-9.2,83.3-10.2,83.5-10.2l5.7-0.7l43.1,7.9l79.4,55.5l19.4,33.7l32.8-1.3l62.9-147.2
		l9.3-26.6l33.9-123.8l27.9-11.9l7.8,4.5l57.8,50.2L6629,946l52.9,59.1l50.8,60.9l16.8,25.4l14.8-1.9l30-107.5l2.1-2.9l110-75.4
		l52.5-36.2l13.7-0.4l55,30.7l28.2,22.2l40.7,43.6l10.8-1.4l60.7-97.1l9.7-3.8l90.6,20.6l28.4,26.5l46.6,140.1l36,36.3l117.6,43.5
		l42.4,42.5l38.5,97.8l4.5-0.8l30.6-144.3l17.4-21.1l93.5-36.6l105.2,121.6l4.9,8.5l65.2,199.8l0.9,7.1l-12.8,160.5l-1.9,6.7
		l-70.7,133.8l-5.5,48.1l5.3,12.8l97.5,79.3l5.4,14.6l-27.7,167.7l-0.4,1.5l-1.7,6.6l-65,193.1l14.3,18.4l32.3,26.2l27.3,122.4
		l-6,27.5l-89.7,121l-95.5-107.1l-17.4-4.5l-26.2,7.9l-14.1,1.9l-49.1-1l-11.7,4.6l-47.3,43.1l-21.9-3l-48.3-66.7l-30.8-58.2
		l-44.1-119.6l-17.1,133.4l-21.4,62.8l-27.6,45.8l-32,14.9l-91.9-18.3l-10.5-6.9l-27.3-41.8l-15.6-2.8l-41.5,35l-23.9,3.4L6990,2419
		l-37.5-129.3l59.5-117.3l-11.5-128.5l-35.5-158.8l-68.9-125.2l5.6-21.5l52.1-38.8l50.5,7.1l20.9-5.9l13-48.7l-48.1-105.4l-73-70.7
		l0.8-20l19.6-19.9l51.1,3.7l-17.4-29.5l-8.5-7.5l-90.2-17.9l-95.2-12.9l-31.3-16.4l-76.4,2.7l-55.3,75.6l-10.2,28.6l1.3,93.7
		l21.5,93.2l2.3,57.4l-15.6,70.6l-76.7,139.8l-15.3,3.5l-101.3-91.9l-10.7-10.8l-0.7-0.8l-32.2-35.6l-8.8,1.8l-13.8,110.4
		l-19.1,36.5l-98.7,82.5l-16.7,15.5l-75.6,78.5l-73.6-27.2l-9.8-10.6l-50.8-229.9l-0.3-9.4l25.5-140.8l24.8-243.5l4.1-25.1l0.2-1.1
		l18-83l-7.3-22l-39.4-38.4c0,0-11.5-16.5-13.1-25.2c-0.2-1.1-1-5.2-1.2-6.4c-1.8-10.1-6.6-34.7-9.3-55.2
		c-0.8-5.7-0.9-10.3-0.9-12.9c0.1-5.9,4-12.9,10.7-19.9c3.9-11,9.3-18.9,18.5-24.8C6065.2,1115.7,6096.8,1103.1,6140.2,1083.4z
		 M2492.5,1150.2l108.9,52l23.4,21.5l58.7,96.1L2710,1196l9.1-38.2l33.4-127.2l9.9-20.8l94.6-126.1c0,0,9.4,2.8,13.8,4.1
		c9.1,2.8,43,13,75.2,24.2c26.7,9.3,47.6,18.5,55.8,23.7c13.1,8.4,19.6,18.7,25.7,33c16.3,38.9,60.4,149.2,73.6,182.1
		c5.7,14.1,16.4,57.9,17.7,61.2l0.5,1.9l18.6,96.5l3.9,0.8l35-161.9l35.3-88.9L3316.7,892l45.4-23.7l111.4,11.2l21.9,12l115.7,157.3
		l21.3,56.5l43.4-88.2l77.7-72.1l107.1-124.9l22.1,4.3l38.7,86.6l33.3,76.9l42.1,100.4l28.6,93.4l0.4,1.9l48.1,232.9l32.4-205.2
		l28.1-84l104.4-191.2l39.9-46.8l130.3-97.6l15.5,2.4l85.1,138.2l10,143.9l14,4.8l66.7-133.4l70.9-43.6l66.5,3.5l53,27.3l76.2,103.3
		l43.8,13.4l40.1-16.8l58.5-35.7l108.4-93.5l43.8-16.6l51,0.8l27.1,8.5l151.5,106.4l50.5,117.8l11.1,1.4l62.6-110L5549,985l109-39
		l17.8,1.7l72,45.7l79.2,107l33.7,155.8l60.8,106.1l21.3,210.9l21.7,152.1l-24.7,333.8l-125,10.9l-140-101l-153.2,25.4l-202.9-61.6
		l-77.9-94.7l-86.7,200.4l-132.7-26l-52.9-124.3l69.9-77.6l-39-60.8l-0.5-1.1l-76.5-161.7l-0.5-2.3L4883,1399l-196.6-154.9
		l-90.5-20.3l-97.6,104.2l-40.4,81l83.7,97.9l-67.3,178.2l-14.8,8.3l-122.3-26.3c0,0-25.5-6.4-34.5-8.9c-0.2,0-0.9-0.3-1.1-0.3
		c-19.5-5.9-40.8-10.9-50.8-11.4c-5.2-0.2-11.4,1.1-17.3,4.2c-25.2,20.9-96.2,84-122.5,107.6L3984.4,1904l-5,11l-14.1,95.8l5.5,26.7
		l59.5,99.6l6.6,31.1l-20.5,188.1l-7.2,5.7l-169.2-16l-7.2-3.1l-75.6-68.2l-39.9,23l-0.5,0.3l-13.7,7.3l-120.9,60.3l-71-169.9
		l-9.6-26.4l-0.3-0.9l-46.3-148.9l-6.1-0.7l-47.3,98.8l-35.7,44.2l-77.5,59.1l-31.8,3.8l-175.2-80.2l-26.4,6.3l-11.9,15.7l-0.8,0.9
		l-30.2,35.5l-85.3,88.9l-26.6,9.3l-152.9-22.1l-8.1-4l-38.1-38.2l-15.7,0.9l-43.5,59.4l-28.6,29.9l-77.8,62.4l-23.2,6.3l-95.4-15.2
		l-33-184.8l-1.7-9.3l-64.1-366.3l-11.3-280l1.2-3.4l75.1-219.4l3.6-7.2L2492.5,1150.2z M10,10v3215.2h8821.6V10H10z M803.5,733.4
		l82.7,68.4l51.2-92.9l96.9,69.6l29.3-21.2l12.4-11.8l61.6-76.4l93.5,119.8l15.4,10.9l19.6,6.7l61.1-52.8l5.2-2.8l55-14.3l7.9,1.7
		l73,58.2l7.5,1.2l59.2-21.4l3.1-1.4l88.5-47.8l104.2-9.9l4.2,1.1l112.3,80l114.7,22.4l37.5,166.8l35.5,158l73.3,104.3l0.9,2.6
		l132.7,379.4l0.3,1.9l37.2,260l-0.1,2l-23.4,386l-156.3,118.5l-16.2-2.7l-137.7-222.5l-8.2-1.3l-52.7,49l-5.9,2.5l-211.3,15.5
		l-151.7-96.9l-92.4-13.3l-10.8,1.7l-187.4,90.2l-147.8-120.9l-10.1,2.1l-63.7,117.1l-16.6,4.8l-106.9-56.6l-53-152.8l0.8-4.9
		l47-280.9l-0.3-8.2l-61-244.1l142.9-31l1.6-0.1l143.7-7.1l137.9-62.9l141.2,24l174.1-88.1l3.6-0.4l169.2-19.1h105.4l8.6-37.1
		l-5.5-23.1l-41.3-50.4l-24.5-28.8l-45.4-51.5l-41.6-15.2l-60.5,8.7l-54.4-7.3l-51.1-22l-35.2-28.6l-19.7-27.8l-37.7-27.6l-147-47.3
		l-56-17.7l-119.8-37.3l-64.2,5.2l-83,41.1l-72.3,25.5l-16.5,3.7l-38.4-21.3l-10.2-27.9l-21.5-38.9l-27.4-35.4l-2.3-30.2
		L803.5,733.4z"/>
	<path class="st4" d="M6125.3,1086.4c27-12.2,82.5-18.8,82.8-18.9l5.7-1.3l43.3,7.9l88.2,43.4l19.5,33.8l34.3,20.6l63.1-147.6
		l9.9-26.4l34-124.2l23-24l7.8,4.5l61.3,46.5l25.2,32.8l51.3,60.3l53.2,59.3l16.8,25.5l16.6,8.9l30.2-107.9l2.5-2.7l110.4-75.7
		l52.1-35.9l13.5-3.3l54.5,30.4l29.1,20.6l40.4,43.3l11.2,3.3l60.2-96.3l8.7-6.1l89.8,20.4l33.1,20.9l46.1,138.9l29.8,41.6
		l116.6,43.1l48.3,35.7l38.2,96.9l4.9,4.3l30.3-143l21-17.8l92.7-36.3l106,122.6l5.5,8.3l65.7,201.5l1.4,7.1l-12.9,161.8l-1.5,6.9
		l-71.2,134.9l-5.5,48.2l7.7,11.9l97.9,79.5l2.6,15.7l-27.8,168.3l-0.4,1.5l-1.8,6.6l-65.3,193.7l23.2,12.3l25.4,34.9l27.4,122.7
		l-10.2,26.7l-90,121.3l-94.5-106l-16.2-8.2l-25.9,7.8l-13.9,2.6l-48.6-0.9l-12.1,2.9l-46.8,42.7l-22.6,5.2l-47.8-66l-33.1-56.2
		l-43.5-118l-16.9,132.1l-25.6,60.6l-27.3,45.4l-35.1,7.2l-91-18.1l-9.4-8.3l-27-41.4l-16.3,3.1l-41.1,34.7l-24.3-1.8l-94.8-46.2
		l-38.3-132l59.6-117.6l-11.4-127.3l-35.4-158.1l-67.9-123.3l-0.8-22.6l51.3-38.2l53.8-10.2l23.2,9.5l13.2-49.3l-47.4-103.8
		l-71.8-69.5l-5.9-19.6l19.3-19.5l48.5-12.2l-22.3-25.7l-11-4l-89.6-6.5l-92-23.6l-30.8-16.2l-72.5,19.1l-47.3,79.6l-10.1,28.2
		l13.4,92.4l15.6,93l2.3,56.6l-21.9,68l-75.5,137.7l-16.1-3.1l-99.7-90.5l-10.7-10.4l-0.7-0.7l-31.7-35.1l-6.7,8l-13.6,108.7
		l-23.5,33.3l-97.2,81.3l-16.2,15.6l-74.4,77.4l-74.7-27.6l-11.9-9.1l-51.6-233.2l-0.9-9.6l25.8-142.8l24.4-239.5l3.5-24.8l0.2-1.1
		l17.7-81.7l-3.1-22.9l-38.7-37.8c0,0-14.4-17.6-15.5-23.4c-0.1-0.7-1.1-5.5-1.2-6.3c-1.2-6.8-6.2-31.8-9.4-54.2
		c-0.8-5.2-1.1-9.7-1.3-12.7c-0.5-7.4,1.7-14.9,5.9-21.9c1.9-13.1,5.2-21.6,13.3-27.7C6045.2,1121.6,6067.4,1112.6,6125.3,1086.4z
		 M2491.3,1145.9l107.6,51.4l25.2,18.9l57.9,94.7l26.2-122.4l9.3-37.7l33.1-125.7l11.1-19.9l94.1-125.5c0,0,10.7,3.1,13.6,4
		c6.2,1.9,40.7,12.2,74.3,23.8c26.1,9,45.9,17.4,55.5,22.7c17.2,9.4,23.3,18.3,28.4,30c12.6,29.5,55.2,135.9,72.8,179.8
		c7.6,18.9,17.7,55.5,19.5,59.9l0.6,1.8l18.3,95.3l3.9-5.6l34.6-159.9l40-85.7l103.3-166.4l49.6-13.9l110,11l19.8,15.1l114.2,155.3
		l18.8,49.8l40.3-81.8l78.1-72.4l106-123.6l23.5-7.4l38.3,85.7l33.2,76l41.7,99.4l31.3,91.5l0.4,1.9l47.8,231.8l32.1-203l32.6-81.5
		l103.3-189.1l42.9-43.3l128.9-96.5l14.3,8l85.5,138.8l9.9,142.2l17.4-12.8l65.9-131.8l79.1-27.4l65.7,3.4l47.9,35.3l75.2,102
		l46.5,1.7l39.6-16.6l55.8-38.4l107.1-92.4l45.3-10.8l50.4,0.8l25.9,11.1l149.2,104.8l49.9,116.4l11.4-6.1l61.9-108.8l36.6-24.3
		l107.7-38.5l17.3,4.6l71.2,45.1l80,108.1l33.8,156l60.9,106.3l21.4,211.6l21.8,152.4l-24.9,337l-129,11.2l-139.9-100.9l-152.6,25.3
		l-204.6-62.1l-75.1-91.2l-85.6,197.8l-137.1-26.9l-54.4-127.9l69.6-77.3l-37.7-58.9l-0.5-1.1l-76.7-162.3l-0.5-2.3l-38.6-184.7
		l-195.1-153.7l-87.9-19.7l-96,102.5l-39.2,78.6l83.5,97.7l-67.6,179.1l-12.5,12.6l-122.9-26.4c0,0-28.8-6.8-34.8-8.5
		c-0.1,0-0.9-0.3-1.1-0.3c-19-6-39.5-11.1-51-12.5c-6.4-0.8-12.8-0.4-18,1.6c-21.8,17.8-88.9,77.3-124,108.7l-127.4,146.5l-4,11.6
		l-14.1,96.3l8.7,26.2l59.8,100l3.2,32l-20.6,189l-9.2,3.4l-170-16.1l-7.6-2.4l-75.7-68.3l-40.2,23.1l-0.5,0.3l-13.8,7.2
		l-121.7,60.7l-70.6-169.1l-9.9-26.1l-0.3-0.9l-46.1-148.1l-6.4,4.5l-47.1,98.4l-39.1,41.1l-77.1,58.8l-32.4-2.6l-174.3-79.8
		l-24.5,13.3l-11.9,15.6l-0.8,0.9l-30.8,34.7l-84.9,88.4l-28,4.7l-152.2-22l-7.6-4.9l-37.9-38l-15.2,7l-43.3,59.1l-29.8,28.5
		l-77.4,62.1l-24,2.9l-94.9-15.1l-33.2-185.5l-1.7-9.4l-64.4-368l-11.3-280.9l1.2-3.5l75.8-221.6l3.9-7.1L2491.3,1145.9z M13.3,13.3
		v3208.5h8814.9V13.3H13.3z M802.6,728.2l82.7,68.4l51.1-92.7l98,70.4l29.3-21.2l11.9-12.4l62.2-77.1l93.4,119.8l14.3,12.4l20,6.8
		l61-52.7l5.4-2.3l54.9-14.3l8.2,0.4l72.9,58.1l7.2,2.6l59.1-21.4l3-1.4l88.4-47.8l105.3-10l4.4,0.6l113.3,80.8l116.1,22.7
		l37.6,167.2l35.8,159.1l73.1,104.2l0.9,2.6L2245,1631l0.3,1.9l37.3,260.6l-0.1,2l-23.5,387.8l-157.1,119.1l-17.4,3.2L1945.9,2182
		l-7.8-4.6l-53,49.3l-6.2,1.9l-212.4,15.5l-152-97.2l-92.6-13.4l-10.6,2.8l-186.7,89.8l-148.4-121.4l-9.4,6.2l-63.9,117.6l-18.4-0.7
		L877.1,2171l-53.7-154.8l0.8-5l47.3-282.4l-0.9-8.2l-61.3-245.4l146.5-31.7l1.6-0.1l143.3-7l138.2-63l141.1,23.9l173.6-87.9
		l3.6-0.4l170-19.2h102.9l8.6-37.2l-9.3-22.2l-41.3-50.5l-24.7-28.7l-45.5-51.6l-44.5-7.7l-60.6,8.8l-53.9-12.4l-51.2-22l-32.6-32
		l-19.7-27.9l-40.9-23.4l-147.4-47.4l-56.1-17.7l-120-37.4l-63.7,13.8l-83.2,41.2l-73.4,22.7l-16.6,3.7l-32.3-32.6l-10.2-27.9
		l-23.6-37.8l-27.5-35.5l4.3-30.7L802.6,728.2z"/>
	<path class="st5" d="M6110.4,1089.4c33.7-15.3,81.7-27.4,82-27.5l5.6-1.9l43.4,7.9l97.1,31.4l19.5,33.9l35.7,42.4l63.3-148.1
		l10.6-26.3l34.1-124.5l18.1-36.2l7.9,4.5l64.8,42.8l25.3,32.9l49.8,61.5l55.7,57.7l16.9,25.6l18.3,19.6l30.3-108.4l2.8-2.4
		l110.9-76l51.6-35.6l13.2-6.1l54,30.2l30,18.9l40,42.9l11.5,8l59.7-95.4l7.6-8.3l89,20.2l37.7,15.3l45.7,137.6l23.6,47l115.6,42.7
		l54.2,29l37.9,96.1l5.3,9.3l30.1-141.8l24.6-14.4l91.9-36l106.9,123.6l6.1,8l66.3,203.1l1.8,7.1l-13,163.1l-1,7.1l-71.8,136
		l-5.5,48.4l10,11l98.2,79.8l-0.2,16.8l-27.9,168.9l-0.5,1.5l-2,6.6l-65.5,194.4l32.1,6.1l18.6,43.6l27.5,123.1l-14.4,25.9
		l-90.2,121.6l-93.5-104.9l-14.9-11.8l-25.7,7.7l-13.7,3.3l-48.1-0.9l-12.6,1.3l-46.3,42.2l-23.2,13.4l-47.3-65.3l-35.5-54.2
		l-42.9-116.4l-16.7,130.9l-29.8,58.5l-27,44.9l-38.1-0.5l-90.1-18l-8.3-9.7l-26.7-41l-17,9.1l-40.7,34.4l-24.7-7l-93.8-45.8
		l-39.1-134.7l59.8-117.9l-11.3-126.1l-35.2-157.4l-66.8-121.3l-7.2-23.6l50.5-37.6l57.1-27.6l25.5,25l13.4-49.8l-46.6-102.1
		l-70.5-68.3l-12.6-19.2l18.9-19.2l45.9-28l-27.3-21.9l-13.5-0.5l-89,4.9l-88.9-34.3l-30.3-15.9l-68.5,35.5l-39.3,83.6l-9.9,27.8
		l25.5,91.1l9.7,92.9l2.3,55.7l-28.2,65.4l-74.4,135.6l-17-9.7l-98.2-89.1l-10.7-10.1l-0.7-0.7l-31.2-34.5l-4.6,14.1l-13.4,107.1
		l-27.9,30.2l-95.7,80l-15.7,15.7l-73.3,76.2l-75.7-28l-14-7.5l-52.3-236.6l-1.5-9.7l26.2-144.9l24-235.5l3-24.5l0.2-1.1l17.4-80.3
		l1.1-23.8l-38.1-37.1c0,0-17.3-18.7-17.9-21.6c-0.1-0.4-1.1-5.8-1.2-6.2c-0.6-3.5-5.7-28.9-9.6-53.3c-0.7-4.8-1.2-9-1.7-12.5
		c-1-8.8,0.3-16.7,1.1-23.9c1.8-15,1.2-24.1,8-30.6C6025.6,1128.1,6038.1,1122.1,6110.4,1089.4z M2490.1,1141.7l106.3,50.7l27,16.3
		l57,93.3l25.9-120.9l9.5-37.2l32.7-124.2l12.3-19l93.6-124.8c0,0,12,3.5,13.5,4c3.3,1,38.5,11.4,73.4,23.4
		c25.4,8.7,44.1,16.2,55.2,21.6c21.3,10.3,27.1,17.9,31.1,27c8.9,20.1,50,122.6,72,177.4c9.5,23.6,19,53,21.2,58.6l0.7,1.8
		l18.1,94.1l3.9-11.9l34.1-157.8l44.6-82.6l102-164.3l53.7-4l108.6,10.9l17.7,18.1l112.8,153.3l16.2,43l37.2-75.5l78.4-72.7
		l104.8-122.3l25-19.2l37.9,84.8l33.2,75.1l41.2,98.3l34.1,89.6l0.4,1.9l47.6,230.7l31.7-200.8l37.2-78.9l102.2-187l45.8-39.9
		l127.5-95.5l13,13.6l85.9,139.4l9.8,140.4l20.7-30.5l65.1-130.1l87.4-11.2l64.9,3.4l42.8,43.2l74.3,100.7l49.1-10l39.1-16.4
		l53.2-41l105.7-91.2l46.8-5.1l49.8,0.7l24.7,13.8l147,103.2l49.3,115.1l11.7-13.6l61.2-107.6l39.8-19.8l106.5-38.1l16.8,7.4
		l70.3,44.6l80.8,109.2l33.8,156.2l61,106.4l21.4,212.2l21.8,152.6l-25.2,340.1l-133.1,11.6L5673.1,1976l-152,25.2l-206.3-62.6
		l-72.3-87.8L5158,2046l-141.4-27.8l-55.9-131.5l69.3-77l-36.5-56.9l-0.5-1.2l-77-162.8l-0.5-2.3l-38.4-183.9l-193.5-152.5
		l-85.3-19.1l-94.4,100.7l-38,76.2l83.4,97.5l-68,180.1l-10.3,17l-123.6-26.5c0,0-32.1-7.2-35.1-8c-0.1,0-1-0.3-1.1-0.3
		c-18.5-6-38.2-11.2-51.1-13.7c-7.5-1.4-14.1-1.9-18.8-1c-18.4,14.8-81.5,70.7-125.4,109.9l-127.9,147.2l-2.9,12.1l-14.2,96.7
		l11.9,25.7l60.1,100.5l-0.2,32.9l-20.7,189.8l-11.1,1.1l-170.8-16.2l-8-1.6l-75.7-68.3l-40.5,23.3l-0.5,0.3l-14,7.2l-122.5,61.1
		l-70.3-168.2l-10.3-25.8l-0.3-0.9l-45.9-147.4l-6.7,9.6l-46.8,97.9l-42.4,38l-76.7,58.5l-33-8.9l-173.5-79.4l-22.6,20.3l-11.8,15.6
		l-0.8,0.9l-31.3,33.9l-84.5,88l-29.5,0.1l-151.4-21.9l-7.1-5.8l-37.8-37.8l-14.6,13.1l-43.1,58.8l-30.9,27.1l-77,61.8l-24.8-0.6
		l-94.4-15l-33.3-186.3l-1.7-9.4l-64.7-369.8l-11.4-281.7l1.2-3.5l76.6-223.8l4.3-7L2490.1,1141.7z M16.7,16.7v3201.9h8808.3V16.7
		H16.7z M801.6,723.1l82.8,68.5l50.9-92.4l99.1,71.2l29.3-21.2l11.4-12.9l62.7-77.8l93.4,119.7l13.2,13.9l20.3,6.9l60.9-52.7
		l5.6-1.9l54.8-14.3l8.5-1l72.8,58l7,4l59-21.4l3-1.5l88.2-47.7l106.4-10.1l4.6,0.1l114.3,81.5l117.5,23l37.7,167.6l36,160.2l73,104
		l0.9,2.6l133.2,380.9l0.3,1.9l37.4,261.3l-0.1,2l-23.6,389.7l-158,119.7l-18.6,9.1L1946.3,2189l-7.4-8l-53.3,49.6l-6.5,1.2
		l-213.6,15.6l-152.3-97.4l-92.7-13.4l-10.4,3.9l-186,89.5l-149-121.9l-8.6,10.3l-64.2,118l-20.1-6.1l-107.8-57.1L820,2016.5l0.8-5
		l47.5-283.9l-1.5-8.2l-61.6-246.7l150.1-32.5l1.6-0.1l142.9-7l138.6-63.2l141,23.9l173.2-87.7l3.6-0.4l170.7-19.2h100.5l8.6-37.3
		l-13-21.4l-41.4-50.6l-24.9-28.6l-45.6-51.8l-47.3-0.2l-60.7,8.8l-53.3-17.5l-51.3-22.1l-30-35.4l-19.8-28l-44.1-19.3L1257,935.6
		l-56.3-17.6l-120.3-37.5l-63.2,22.4l-83.4,41.3l-74.6,19.9l-16.6,3.7l-26.2-43.9l-10.2-28l-25.6-36.8L753,823.5l10.8-31.3
		L801.6,723.1z"/>
	<path class="st6" d="M7871.2,2236l39.3,175.8l-109.1,147l-106.3-119.2l-38.8,11.6l-60.7-1.2l-69.6,63.5l-84.6-116.8l-42.3-114.8
		l-16.6,129.6l-60.7,100.9l-130.3-26l-33.7-51.7l-58,49l-118.1-57.6l-39.8-137.4l59.9-118.2l-11.2-125l-35.1-156.7l-79.2-143.9
		l110.1-81.8l27.8,40.4l13.5-50.4l-45.8-100.4l-88.6-85.8l61.9-62.8l-32.2-18.2l-104.3,19.2l-115.5-60.7l-64.6,51.8l-41.1,114.9
		l37.6,89.8l6,147.5l-107.7,196.3L6408,1830.9l-0.7-0.7l-30.7-34l-15.8,125.7l-126.6,105.9l-87.3,90.7l-92.9-34.3l-55.2-249.7
		l26.6-146.9l26-255.7l0.2-1.1l22.5-103.6l-57.7-56.3l-1.2-6.1c-0.1-0.3-5.2-26-9.7-52.3c-2.7-15.6-4.6-28.5-5.7-38.1
		c-2-17.2-2.1-26.1,2.8-33.5c4-6,6.2-9.3,93-48.6c40.5-18.3,80.8-36,81.2-36.2l5.6-2.4l149.5,27.3l56.6,98.3l74.7-174.7l47.5-173.2
		L6587,875l73.5,95.6l58.1,56.1l37.1,56.1l30.4-108.8l114.5-78.5l64.1-44.2l84.5,47.2l51.6,55.3l65.8-105.2l130.6,29.6L7360,1067
		l174.6,64.6l43.1,109.5l29.8-140.5l119.2-46.7l114.5,132.4l69.1,211.8l-13.6,171.7l-72.4,137.1l-5.5,48.5l110.9,90.1l-31,187.4
		l-0.5,1.5l-67.9,201.6H7871.2z M5949.1,2068.2l-137.2,11.9l-139.7-100.7l-151.4,25.1l-208.1-63.2l-69.4-84.4l-83.4,192.7
		l-145.8-28.6l-57.4-135.1l69-76.6l-35.2-54.9l-0.5-1.2l-77.3-163.3l-0.5-2.3l-38.3-183.1l-192-151.2l-82.7-18.6l-92.7,99
		l-36.8,73.8l83.2,97.3l-76.4,202.4l-159.7-34.3l-1.1-0.4c-28.7-9.6-59.9-17.7-70.8-18.4c-15,11.8-74.2,64-126.8,111.1l-128.5,147.8
		l-16.1,109.8l75.4,126.2l-24.5,224.5l-193-18.3l-75.7-68.3l-40.7,23.4l-0.5,0.3l-137.5,68.6l-80.6-193l-0.3-0.9l-45.7-146.7
		l-53.7,112.2l-122.2,93.1l-206.1-94.3l-32.4,42.8l-0.8,0.8L2919.3,2314l-181.6-26.3l-44.2-44.3l-57,77.7l-108.8,87.2l-119.5-19
		l-35.1-196.5l-65-371.6l-11.4-282.6l1.2-3.5l77.3-226l113.7-171.7l133.8,63.9l56.2,91.9l25.6-119.5l41.9-159.4l106.7-142.3
		l13.3,3.9c0.4,0.1,36.2,10.7,72.5,22.9c74.7,25.3,84.2,34.8,88.8,44.5c7.3,15.3,85.2,210.2,94.1,232.3l0.7,1.8l17.9,92.9
		l37.6-174.1l150-241.5l165.1,16.5l126.9,172.6l13.7,36.3l34.1-69.1l78.7-73l130.2-151.9l70.7,158.1l77.6,185l0.4,1.9l47.4,229.7
		l31.4-198.6L4246.7,901l174.8-130.9l98.1,159.2l9.7,138.7l88.3-176.6l159.7,8.4l111.1,150.6l90.4-37.9l155-133.8l97.4,1.5
		l168.1,118l48.8,113.8l72.6-127.5l148.2-53l85.8,54.4l81.6,110.3l33.9,156.4l61.1,106.6l21.5,212.8l21.8,152.9L5949.1,2068.2z
		 M20,20v3195.2h8801.6V20H20z M2289.2,1895.3l-23.8,391.5l-178.6,135.4l-147-237.4l-53.5,49.8l-221.6,16.2l-152.7-97.6l-92.9-13.4
		l-195.6,94.1L1074,2111.6l-72.3,133l-130-68.9l-55.1-158.9l0.8-5l47.8-285.3l-64-256.2l153.8-33.3l1.6-0.1l142.6-7l138.9-63.4
		l141,23.9l172.7-87.5l3.6-0.4l171.5-19.3h98l8.6-37.3l-58.4-71.3l-70.8-80.4l-111.1,16.1l-104.2-44.8l-47.2-66.8l-195.2-62.8
		l-177-55.2L923.5,953l-92.5,20.8l-30.4-83.2l-55.3-71.5l55.2-101.2l82.8,68.5l50.8-92.2l100.2,71.9l29.3-21.2l74.1-91.9
		l105.4,135.2l20.7,7l60.9-52.6l69.4-18.1l79.5,63.3l58.9-21.3l91.1-49.2l112.3-10.7l115.4,82.2l119,23.3l74,329.3l72.9,103.8
		l0.9,2.6l133.4,381.6l0.3,1.9l37.5,261.9L2289.2,1895.3z"/>
</g>
</svg>
