<?xml version="1.0" encoding="utf-8"?>
<!-- Generator: Adobe Illustrator 23.1.0, SVG Export Plug-In . SVG Version: 6.00 Build 0)  -->
<svg version="1.1" id="Layer_1" xmlns="http://www.w3.org/2000/svg" xmlns:xlink="http://www.w3.org/1999/xlink" x="0px" y="0px"
	 viewBox="0 0 8592 3280.4" style="enable-background:new 0 0 8592 3280.4;" xml:space="preserve">
<style type="text/css">
	.st0{fill:#0C0C0C;}
	.st1{fill:#0B0B0B;}
	.st2{fill:#090909;}
	.st3{fill:#080808;}
	.st4{fill:#070707;}
	.st5{fill:#050505;}
	.st6{fill:#040404;}
</style>
<g>
	<path class="st0" d="M7748.2,2143.2L7624,2331.6l-9.6,104.7l-52.8,101.7l-89.6-116.4l-112-56.4l-57.6-112l-79.3,204.4l-126.5-46.8
		l-116-133.6l-67.1,9.6l-57.6-118.4l22.2-131.2l-43-119.6l-60.4-83.6l103.4-55.5l37,69.8l43.2-140.8l-99.2-84.8l-62.4-136
		l-159.7-19.1l-109.1-75.5l-78.4,91.3l-56,103.8l64.6,197l-88.6,75.2l-65.6-40l-17.6,22.4l-86.4,87.2l-176,48.8l-70.4-81.6
		l-14.4-76.8l-64.7,76.8l-109.1-70.4L5656,1707.6l-45.4,241.6l-50.6,58.4l-140.8,62l-171.2-40.4l-84.8-153.6l-40.7,61.7l-67.2,54.8
		c0,0-48.9-57.3-48.9-62.9c0-5.6,22.4-128,22.4-128l-78.4,44l-66-86.4l-106.2-45.6l57.9-144.8l26-34l-65.9-6l-44.6-34.3
		l-128.8-107.9l-77.2-102.1l-59.2,33.6l-129.6,33.2L4280,1445l-4.8,71l58.7,98.2l-125.7,71l-105.8,88l-35.2,160l134.4,393.6
		l-101.2,20.1l-159.7-405.3l-33.8-112v-164.2l13.5-260.5l83.3-246.9l114.6,3.2l120,135l60.2-201.5l164-75.6l138.4,75.6l52.9,80.2
		l50.6-61.8l141.2,0l84.3,48.1l99.5-38.7l57.6,105.8l51.4,165.6l120-195.2l110.4-76.2l150.2,45.7l91.8,193.2l75.4-116l124.4-57.3
		c0,0,159.2,17,164,18.6c4.8,1.6,108.8,89.6,108.8,89.6l75-108.1l187.4-85.4l72,156.8l49.6,124l64-152.8l81.6-86.4h116.8l32,67.2
		l28.8-12.8l56-75.6l64,10l36.8,49.4l44.9,29l60.3-17.6l93.7-38.4l38.1,81.6l94.1,86.4l35.2,165.7l118.4-221.7l139.2-1.6l24,147.2
		l43.2,121.6l67.2,112l-88,198.4l24,220.8l32-148.4l118.2-58.7L7748.2,2143.2z M3801.6,2310.8l-52.8,42.3l-118.4-135.4l-97.6-142.4
		l-44.8,150l-188.8,101.5l-124.8-142.4l-108.8-85.8l-52.8-216.6l-176,288l-142.4,129.6l-116.8,39.7l-79.4-42.9l-67.8-219l-43.2,95.8
		l-84.8,79.2l-129.6,13.6l-134.4,84.8l-94.4-105.5l-118.4-23.8L1704,2077.4l-82.5,123L1403.2,2306l-174.4-57.6L1096,1977.6
		l-40,157.1l-129.6,120l-136-75.2l-27.2-95.8l-70.4-238.6l80-179.2l43.2-30.4l56,320.8l36.8-278.8l41.8-144l67,22.3l16.8,47.7
		l27.2,69l85.6,98.2l21.6-141.6l60.8-158.4l41.6,98.2l20.8-69.4l40.4-98.7l60.4,9.1l43.2,117.6l12-60.8l30.2-31.2l46.6-60.8l43.4,4
		l36.6,40l23.2-44.8l23.2-12.8l42.4,57.6l23.2-79.2l-6.2-48.2L1692,1234l-24.8,9.6l-12-23.2l-16.8-36.8l-37.6-20l-44.8,20
		l-29.6,17.6l-40-44l-24-62.4l-17.6-16.8l-21.6,51.2l-28,12l-69-17.3l-19.4-59.9l-10-46.8l-19.2-31.2l-10.4,16.8l-24,51.2
		c0,0-111.2,5.6-116.1,0c-4.9-5.6-30.4-57.4-30.4-57.4l-33.5-21.8l-56-28l-30.4-39.2l-15.2,32.8L828,1017.6L778.4,994l-15.2-60
		l31.2-22.5l56-86.3l44-7.2l68.8-30.4l41.6,62.4l46.4-62.4l88,17.6L1216,890l86.4-72H1440l100.8,169.6l44.8-86.4l118.4-76
		l59.2,114.4l114.8,104.6l109.2,247.4l-75.2,89.6l-83.2,9.6l-50.6,76.8l10.6,90l12.8-47.7l52.8,27.4l35.2,112.2l59.2-35.3l57.6,8.3
		l52.8,188.6l113.6-159.8l138.8-93.8l36.6-97.4l154.9-337.1h60.1l105.6,377.2l52.8-95.4l307.2-367.8l76.8,161.6l96,118.8
		l136.6-259.6l240-20.8l165.8,136.3l28.8,169.9l57.6,304.3l-32,319.1l84.8,196.8L3801.6,2310.8z M0,0v3280.4h8592V0H0z"/>
	<path class="st1" d="M4000.7,1153.8l113.5,3.2l26.6,23.4l95.6,107.5l53.3-178.4l8.5-19.3l162.4-74.9l12.7,4.9l124.4,68l26.6,34.4
		l28,42.5l13-10.9l37-45.2l139.7,0l25.8,12.1l58.2,33.2l27.6-6.8l70.6-27.4l26.2,32.5l34.2,62.9l26.5,76.8l26.7,86.1l18.3-21.2
		l99.1-161.2l112.8-77.8l153.9,46.8l89.4,188.2l57.1-87.8l19.7-25.2l121.8-56.1c0,0,3.3,0.4,7.1,0.8c52.8,5.6,154.9,16.8,159,18.1
		c3.2,1.1,32.2,24.9,66.1,53.3c20.7,17.3,39,32.8,40.5,34.1l73-105.3l186.3-84.9l20.1,28l54.7,119.2l27.9,68.2l22.9,57.1l43.8-104.6
		l22.2-45.4l60.7-64.3l21.8-18h116.5l31.4,65.9l0.5-0.2l26.5-14.4l45-60.8l11.7-11.5l63.5,9.9l7.5,8l29.7,39.9l16.1,11.7l28.5,18.4
		l50.2-14.6l9.6-3l93-38.1l9.4,13l29.9,64.1l29.4,30.6l61.7,56.7l15.4,48.9l23.9,112.6l96.7-181.1l24.6-32.8l138.2-1.6l23.2,142.6
		l17.5,53.5l23,64.7l39,69.2l24.1,40.2l-33.6,110l-36,81.3l6.4,174.3l4.1,37.6l6.8-24.3l2.3-10.8l31.1-91.5l114.6-56.9l-44.3,288.2
		l-13.3,23.9L7629,2331.6l-1.6,9.1l-8.9,96.8l-52.6,101.2l-28.1-24.9l-59.9-77.8l-101.9-58.2l-67-102.9l-30,50.4l-50.3,129.7
		l-43.7-7.1l-77.5-28.7l-60.1-58.9l-59.6-68.6l-64.7-2.1l-38.9-53.6l-25.2-51.8l11.1-124.5l-32.1-121.7l-56.9-88l73.6-63.5
		l42.2,52.1l37.3-84.1l15.9-34.2l-42.2-50.3l-44.3-37.8l-30.1-55.1l-35.6-77.7l-52.4-14.5l-101.2-12.1l-45.9-26.7l-64.3-44.5
		l-27.4,21.9l-53.7,62.5l-54.9,101.9l64.9,198l-88.1,74.7l-33.3-13.2l-31.3-19.1l-19.9,15.5l-5.5,5.7l-80.2,81l-19.6,7.2
		l-154.3,42.8l-36.6-30.8l-35.9-41.6l-20.4-73.7l-19,16.1l-43.4,51.5l-108.2-69.8l-23.2-23.2l-81.2-87.9l-4.4-3.4l-37.7,200.9
		l-10.2,37.3l-35.4,40.9l-15.7,15.8l-139.6,61.4l-174.4-41.1l-82.4-149.2l-20.3,30.8l-21.6,29.5l-66.1,54c0,0-8.6-10.1-15.9-18.9
		c-12-14.5-29.4-36.2-31.6-41.6c-1.2-2.9,0-13.4,0.8-27.1c0.5-9.2,0.6-19.2,2.3-29.7c4.7-28.6,10.5-59.1,12.7-71.5l-51.5,28.9
		l-25.4,8.5l-64.5-84.4l-108.9-46.7l57.8-144.5l23.5-33l-0.7-0.2l-28.2-2.6l-35.4-6.5l-22.3-17.2l-22.1-17.2l-110.4-92.4l-17.6-15.9
		l-51.8-68.5l-28.3-23.9l-60.2,30.8l-60.4,15.5l-64.9,23.8l-22.4,27.5l-30.2,45.5L4286,1460l2,69.3l16.9,28.2l23.2,64.8l-76.9,43.4
		l-47.6,28.8l-55.6,46.3l-44,45.1l-18.2,82.9l-9.9,76.4l117.5,344.2l5.6,42.2l-101,20.1L3936.7,1943l-34-112.8l0-165l13.2-253.8
		l0.9-8.8L4000.7,1153.8z M801.2,893.3l34.4-41.1l27.4-35.1l44.4-9.4l62.9-16.9l34.9,35.9l7.4,8.7l50.4-49.7l32.4,6.5l51.8,15.6
		l33.5,37l43.2,33.1l31.8-26.5l56.1-37.7h102.4l30.9,4.5l73.9,124.3l25.2,29.5l5.9-11.4l43.2-69.3l87.3-56.1l27.5-11.2l58.4,112.9
		l114.9,104.6l2.2,5l108.3,245.6l-77.9,92.9l-82.9,9.6l-48.7,73.9l1.2,10.6l19.4,72.2l13-32.4l46.5,30.9l19,35.5l30.7,56.1
		l52.2-19.2l50.4,15.6l12.2,43.6l48,100.2l117.3-148.5l78-64l0.7-0.6l46.7-37.6l37.2-95.8l103.8-225.9l57.3-90.3l52.6,9l83.8,299.2
		l16.2,36l0.8,1.7l6.8,14.4l54.9-92.6l269.1-322.1l32.9-27.3l75.7,159.3l74,91.6l20.1,17.2l116.4-221.3l22.2-30.6l237.6-20.6
		l167.1,137.3l2.5,8.6l27.5,162.1l1.9,10.2l56.1,296.4l-31,309l-0.2,11.5l80.4,186.7l3,10.9l-82,147.9l-52.5,42l-22-17.2
		l-96.2-110.1l-38.2-53.6l-61.6-89.8l-34.1,114.1l-13.8,31.9L3298.3,2332l-123.8-141.3l-21.3-17.8l-86.1-67.8l-13.4-37.9
		l-42.5-174.5l-152.6,249.7l-23.5,34.8l-123.8,112.7l-18.2,14.5l-115.8,39.4l-78.8-42.6l-10.3-23.1l-53.4-172.5l-6.5-13.5
		l-10.4,23.1l-36.4,69l-40.9,38.2l-45.8,34.9l-78.7,8.3l-48.7,8.7l-110.9,70l-21.7,8.7l-89.5-100l-4.5-4.1l-117.5-23.6l-110.5-130.8
		l-9.9-8l-62,92.4l-21.8,27.3l-215.7,104.4l-173.1-57.2l-15.6-24l-111.7-227.7l-6.5-9.5l-22.1,86.9l-23.1,65.7l-101.7,94.2
		l-27.8,18.1l-135-74.7l-27.7-97.4l-69.7-236.3l-0.8-4.5l80.8-180.9l42.5-29.9l15.3,42.4l38.1,218l7,28.8l11.7-88.6l29-185.7
		l52-114.2l59.3,28.4l18.2,50.5l30.6,66.5l73.6,66.7l25.7-138.1l41.1-107l19-34l21.8,51.5l1.8,3l17.2,28.3l22.8-71.2l49.4-79.9
		l53.9,17.4l16.7,28.9l32.7,52.8l21.1-49.6l28.3-22.5l14.5-20l34.2-38.5l40.4,9.1l18.6,14.6l12.8,11.1l8.6-20.8l8.7-24.9l0.1,0
		l15.7-9.3l31.5,40.6l6.4-34.1l2.6-21.8l2.1-15.5l-4.7-15.1l-6.7-21.7l-12.3-23.1l-10-25.4l-23.3,5.1l-12.6-22.2l-7-13.6l-9.9-22.2
		l-18.7-12.5l-15.1-4.5l-44.8,19.9l-29.5,13.5l-41.7-38.8l-6-11.2l-18.3-48.6l-15.8-17.4l-4.6,7.9l-15,28.3l-25.2,14l-13.3-1.1
		l-16.3-3.3c0,0-33.8-7.7-37-7.6c-1.2,0-9.2-20.7-10.6-20.7c-2.1,0.1-13.3-29.1-14.8-29.1c-0.5,0-2.7-8.1-3.2-8.1
		c-2.4-0.1-10.7-31.1-12-31.9c-0.4-0.2-4.6-6.8-4.9-7.2c-0.2-0.2-12.7-20.4-14.2-23.1c-0.4-0.7-9.5,12.5-10,11.4
		c-0.5-1-10.4,17.8-11.1,16.5l-15.1,19.8c0,0-46-3.2-74.1-2.9c-4.9,0-10.9-1.8-15.1-1.9c-1,0-2.1,0.4-3.1,0.4
		c-8.9-0.2-17.6,0.6-18.6-0.5c-4.1-4.7-33.5-43.1-33.5-43.1l-32.9-15.3l-54.5-18.8l-9.4-8.6l-22.4-25.1l-17.4,25.1l-17.8,7.4
		l-79,28.9l-17.5,9.6l-18.7-13L780,974.2l-7.8-57.5L801.2,893.3z M4.2,4.2v3272h8583.7V4.2H4.2z"/>
	<path class="st2" d="M3997.7,1149.5l112.5,3.2l28.3,18.9l95.9,107.9l52.7-176.6l10.6-17.2l160.7-74.1l12.7,2.7l123.1,67.3
		l28.6,31.5l27.7,42.1l12.6-5.4l36.9-45.1l138.2,0l26.1,9.7l57.6,32.9l27-2.6l69.8-27.2l29.3,22.7l33.9,62.2l28.6,75l26.4,85.2
		l16.7-10.2l98.1-159.5l115.2-79.5l157.5,48l87,183.1l56.7-87.2l21.5-22.8l119.1-54.9c0,0,4,0.4,7,0.8c74.6,8,157.2,17.2,161,18.5
		c3.7,1.2,27.2,20.4,65.8,52.6c18.8,15.8,35.7,30,38.8,32.6l71.1-102.5l185.2-84.4l23.2,19.2l54.4,118.5l28.3,67.6l23.7,59.1
		l43.5-103.8l24.5-43.5l60.3-63.8l23.1-14.4h116.2l30.8,64.6l0.5-0.2l24.7-16.3l44.7-60.4l12.7-8.7l63.1,9.8l8.2,6.7l29.5,39.6
		l15.2,12.5l29.1,18.8l49.8-14.5l9.5-3.1l92.2-37.8l10.8,9.1l29.7,63.5l27,31.9l61.2,56.2l19.7,45.9l23.7,111.4l96-179.7l28.1-26.3
		l137.1-1.6l22.5,138l15.5,52.1l22.2,62.6l35.6,68l23.4,38.9l-16.4,105.4l-34.9,78.6l-6.9,166.7l4,36.4l6.1-13.7l2.2-10.4l40.1-80.8
		l110.9-55l-44.9,292.2l-11.6,25L7634,2331.6l-2.4,9l-9,98.1l-52.4,100.8l-26.8-11.6l-59.7-77.5l-91.8-59.9l-76.5-93.8l-31.2,26.3
		l-50.1,129.3l-38.7,3.9l-77.3-28.6l-63.9-53l-59.4-68.4l-62.2-13.8l-45.4-40.9l-25.1-51.6l0-117.8l-21.2-123.9l-53.4-92.4
		l43.9-71.6l47.3,34.4l46.4-76.1l16.8-19.6l-29.6-53.7l-44.1-37.7l-33.6-52.2l-35.5-77.4l-46.7-22l-100.8-12.1l-47.3-22.7l-64-44.3
		l-28.5,13l-55.3,64.4l-53.9,99.9l65.2,199l-87.6,74.3l-32.6-5.5l-31.2-19l-22.3,8.5l-5.3,5.8l-79.7,80.4l-18.6,8.7l-153.3,42.5
		l-39-22l-35.7-41.4l-26.4-70.7l-16.4,6.6l-43.7,51.9l-107.3-69.2l-23.9-22l-80.5-87.2l-3.8-1.3l-37.4,199.2l-13.1,35.6L5575,2003
		l-16.5,14.3l-138.5,60.9l-177.5-41.9l-79.9-144.8l-20.3,30.7l-22.9,28.2l-65.1,53.1c0,0-10-11.8-15.9-18.9
		c-9.7-11.7-26-31.9-30.3-39.2c-2.4-4.1-2.1-14.1-2.8-26.1c-0.6-9.5-2.2-18.9-0.6-29.2c3.5-23.4,8.4-48.6,12.8-73.2L4966,1846l-24,2
		l-62.9-82.4l-111.7-47.9l57.6-144.2l21.1-32l-0.4-0.3l-28.2-2.6l-34.1-9.7l-22.3-17.2l-21.9-17.4l-110.2-92.3l-17-16.5l-51.7-68.4
		L4529,1303l-61.2,27.9l-60.3,15.4l-60.8,29.9l-22.3,27.4l-24.9,47.5l-7.5,23.8l8.8,67.5l16.8,28.1l4.5,59.8l-76.7,43.3l-46.6,30.1
		l-55.5,46.2l-38,48.7l-18.2,82.7l-2.9,75.8l117.3,343.4l-5.5,35.8l-100.8,20.1l-162.4-412.1l-34.2-113.5l0-165.8l13.3-255.8
		l1.3-8.7L3997.7,1149.5z M808.1,875.1l37.9-34.6l29.7-31.5l44.7-11.6l57.1-3.5l34.8,19.4l8.1,7.4l54.4-36.9l32,6.4l48.4,20.2
		l33.1,36.6l43.6,19l31.3-26.1l57.9-30.1h101l27.9,9l72.9,122.7l24.5,15.2l5.9-11.3l47.7-63.9l86.2-55.3l25-3.1l57.7,111.5
		l115,104.7l2.2,5l109.8,248.8l-80.7,96.1l-82.6,9.5l-46.8,71.1l1.2,10.5l29.5,65l13.1-17.2l40.2,34.3l23.1,23.7l41.1,47.3l45.2-3.1
		l43.2,22.8l12.1,43.1l55.6,56l121.1-137.2l69.2-69.3l0.6-0.6l42.2-40.5l37.8-94.1l102.5-223.1l64.9-72.2l45.1,18l82.8,295.9
		l17.9,19.9l1,1l8,8.5l57-89.7l266.1-318.6l30.8-12.6l74.6,157.1l73.3,90.7l19.1,8.1l115.2-219l25.4-25.2l235.2-20.4l168.4,138.4
		l3.5,8.1l27.7,163.3l1.9,10.3l56.5,298.7l-31.1,310.4l0.8,11.4l80.8,187.6l1.2,10.9l-82.4,148.6L3756,2358l-22.5-9.9l-95.6-109.4
		l-39-52.5l-63-91.9l-33.8,113.3l-17.2,28.8l-187.5,100.8l-122.8-140.1l-20.5-18.3l-85.4-67.3l-17-35.2l-42.1-172.9l-151.4,247.7
		l-24.8,33.3l-122.9,111.8l-18.8,13.1l-114.7,39l-78.2-42.2l-12.7-20.9l-53-171.1l-6.8-7.2l-10.4,23l-40.2,65.5l-40.6,37.9
		l-47.9,29.1l-78.1,8.2l-47.1,12.1l-110,69.4l-20.8,3.2l-88.8-99.2l-4.8-3.5l-116.6-23.4l-109.5-129.8l-9.6-3.9l-61.5,91.7
		l-23.5,24.8l-213.1,103.1l-171.8-56.8l-17.9-21l-110.9-226l-6-4.7l-22,86.3l-28.6,61.9l-101,93.5l-28.4,11.1l-134-74.1l-28.1-99.1
		l-70.4-238.5l-0.2-4.5l81.5-182.6l41.7-29.4l20.7,28l37.4,214.2l6.6,15.4l11.5-87l33.1-182.7l62.3-84.5l51.6,34.5l19.7,53.3
		l33.9,64.1l61.7,35.1l29.8-134.7l40.4-105.2l18.9-18.4l21.4,50.6l1.7,1.6l16.8,15.1l24.8-73.1l58.4-61.1l47.5,25.8l18.6,17.6
		l37,28.1l30.3-38.5l26.4-13.9l13.6-19.9l37.2-36.2l37.4,14.2l16.4,6.5l9.7,4.8l6.4-20.7l5-25.9l0,0l8.4-5.8l20.7,23.7l2.4-33.1
		l-1.8-19.5l-1.6-10.9l-6.9-10.7l-9.7-14.8l-14.7-15.6l-11.4-24l-21.7,0.7l-13.1-21.1l-7.4-12.9l-9.5-21.8l-16.4-13.8l-13.5-0.2
		l-44.9,19.8l-29.4,9.3l-43.4-33.5l-7.1-9.5l-17.5-47.7l-13.9-17.9l-4.4,4.2l-13.2,16.9l-22.4,16.1l-11.8,1.6l-16.1-2.5
		c-0.1,0-30.1-6-36.4-5.8c-2.4,0.1-10.4-16.4-13-16.4c-4.2,0.1-15.3-23.2-18.3-23.2c-1,0-3.4-6.5-4.3-6.5
		c-4.8-0.1-13.5-25.1-16.1-26.7c-0.7-0.4-4.5-6.1-5.1-6.8c-0.4-0.5-11-17.2-13.9-22.6c-0.7-1.4-8.6,8.1-9.6,6.1
		c-1-2-9.6,11.7-11,9.1l-17.4,12.4c0,0-48.7-8.5-71.2-8.3c-3.9,0-10.5-3.7-13.8-3.8c-0.8,0-2,0.9-2.7,0.9c-7.1-0.2-17,2.2-17.8,1.3
		c-3.3-3.7-36.6-28.8-36.6-28.8l-32.3-8.8l-53-9.6l-9.7-5.6l-23.3-22.7l-19.6,17.4l-17.5,4.4l-67.7,5.6l-9.9,4.8L793,967.9
		l-11.3-13.5l-0.4-55L808.1,875.1z M8.3,8.3V3272h8575.3V8.3H8.3z"/>
	<path class="st3" d="M3994.8,1145.3l111.5,3.1l30.1,14.5l96.3,108.3l52.2-174.8l12.7-15.1l159.1-73.4l12.6,0.6l121.9,66.6
		l30.7,28.7l27.5,41.7l12.2,0.1l36.9-45l136.7,0l26.4,7.3l57,32.5l26.4,1.5l69.1-26.9l32.5,13l33.5,61.5l30.6,73.2l26.2,84.2
		l15.2,0.8l97-157.8l117.6-81.1l161.2,49.1l84.6,178l56.2-86.5l23.3-20.4l116.5-53.7c0,0,4.7,0.5,7,0.7
		c96.4,10.3,159.4,17.6,163.1,18.8c4.2,1.4,22.3,15.9,65.4,51.9c17,14.2,32.4,27.2,37,31.1l69.1-99.7l184-83.9l26.3,10.3l54.1,117.7
		l28.7,66.9l24.5,61.2l43.2-103l26.8-41.5l59.8-63.3l24.5-10.8h115.8l30.2,63.3l0.5-0.2l23-18.2l44.4-59.9l13.8-5.9l62.6,9.8
		l8.9,5.5l29.3,39.3l14.3,13.2l29.7,19.2l49.4-14.4l9.3-3.2l91.4-37.5l12.2,5.1l29.4,63l24.6,33.2l60.7,55.8l24.1,43l23.4,110.2
		l95.3-178.4l31.7-19.9l136.1-1.6l21.7,133.4l13.5,50.7l21.5,60.5l32.3,66.7l22.6,37.6l0.8,100.9l-33.7,76l-20.3,159l3.8,35.2l5.3-3
		l2.2-10.1l49.1-70l107.2-53.2l-45.5,296.1l-9.8,26.1l-113.7,172.4l-3.2,8.8l-9.1,99.5l-52.1,100.4l-25.5,1.8l-59.4-77.2l-81.7-61.6
		l-85.9-84.8l-32.4,2.3l-50,129l-33.6,14.8l-77.1-28.5l-67.7-47l-59.2-68.3l-59.8-25.5l-52-28.1l-25-51.5l-11.1-111.1l-10.3-126.1
		l-50-96.8l14.2-79.7l52.5,16.7l55.5-68.2l17.7-5.1l-17.1-57.1l-43.9-37.6l-37.1-49.3l-35.4-77.1l-41-29.5l-100.5-12l-48.6-18.6
		l-63.8-44.1l-29.5,4.1l-57,66.4l-52.8,97.9l65.5,199.9l-87.2,73.9l-31.8,2.1l-31-18.9l-24.6,1.6l-5.2,5.9l-79.2,79.9l-17.6,10.2
		l-152.3,42.2l-41.4-13.1l-35.5-41.1l-32.4-67.6l-13.8-3l-44,52.2l-106.4-68.6l-24.5-20.8l-79.8-86.4l-3.1,0.7l-37.1,197.5l-16,33.8
		l-34.9,40.3l-17.3,12.9l-137.3,60.4l-180.7-42.6l-77.5-140.4l-20.2,30.6l-24.2,26.9l-64.1,52.3c0,0-11.5-13.5-15.9-18.8
		c-7.4-8.9-22.7-27.6-28.9-36.9c-3.6-5.3-4.5-14.8-6.5-25.1c-1.9-9.9-4.9-18.6-3.6-28.7c2.4-18.1,6.3-38,13-75l-51.3,28.8l-22.6-4.5
		l-61.4-80.4l-114.4-49.1l57.5-143.8l18.6-30.9l-0.2-0.4l-28.2-2.6l-32.9-12.8l-22.2-17.1l-21.8-17.5l-110.1-92.2l-16.3-17.1
		l-51.6-68.3l-34.2-4.6l-62.1,25.1l-60.2,15.4l-56.7,36.1l-22.3,27.3l-19.6,49.4l-1.9,24.2l15.6,65.7l16.8,28.1l-14.1,54.7
		l-76.5,43.2l-45.5,31.4l-55.4,46.1l-31.9,52.2l-18.2,82.6l4.1,75.3l117,342.7l-16.6,29.3l-100.5,20l-163.8-415.5l-34.4-114.3
		l0-166.6l13.4-257.8l1.7-8.7L3994.8,1145.3z M814.9,856.9l41.3-28.1l32-27.9l45.1-13.8l51.2,10l34.8,2.9l8.8,6.1l58.4-24.2
		l31.6,6.3l45,24.8l32.7,36.1l44,4.8l30.9-25.8l59.7-22.6h99.7l25,13.5l72,121.1l23.8,1l5.8-11.1l52.1-58.4l85.1-54.6l22.5,5
		l56.9,110l115.1,104.8l2.2,5l111.2,252l-83.4,99.4l-82.3,9.5l-44.9,68.2l1.2,10.3l39.6,57.8l13.3-2l34,37.8l27.2,11.8l51.4,38.5
		l38.2,13l36,30l11.9,42.5l63.2,11.8l124.8-125.8l60.4-74.7l0.6-0.7l37.6-43.4l38.4-92.5l101.3-220.3l72.4-54.2l37.6,27l81.9,292.6
		l19.5,3.9l1.1,0.3l9.1,2.6l59.1-86.9l263.2-315l28.6,2.1l73.5,154.8l72.5,89.8l18-0.9l114.1-216.8l28.6-19.7l232.8-20.2
		l169.6,139.4l4.5,7.6l27.9,164.6l1.9,10.3l57,300.9l-31.3,311.9l1.8,11.3l81.2,188.5l-0.6,10.9l-82.8,149.3l-51.8,41.5l-23.1-2.5
		l-95-108.7l-39.7-51.3l-64.5-94.1l-33.6,112.4l-20.6,25.7l-186.8,100.4l-121.8-139l-19.8-18.7l-84.7-66.7l-20.5-32.5l-41.8-171.3
		l-150.1,245.7l-26.1,31.8l-121.9,110.9l-19.5,11.6l-113.7,38.7l-77.6-41.9l-15.1-18.7l-52.6-169.7l-7.1-0.9l-10.3,22.8l-44,62
		l-40.2,37.6l-50.1,23.3l-77.4,8.1l-45.5,15.5l-109.2,68.9l-19.8-2.4l-88-98.4l-5.1-3l-115.6-23.2l-108.6-128.7l-9.3,0.2l-61,90.9
		l-25.3,22.3l-210.5,101.9l-170.5-56.3l-20.3-18l-110-224.3l-5.4,0.2l-21.8,85.6l-34,58.1l-100.2,92.8l-29,4l-133-73.6l-28.6-100.7
		l-71-240.7l0.3-4.5l82.3-184.3l41-28.8l26.1,13.5l36.7,210.4l6.2,2.1l11.3-85.5l37.2-179.7l72.5-54.8l43.9,40.5l21.1,56.1
		l37.3,61.6l49.7,3.6l34-131.2l39.7-103.4l18.9-2.7l21.1,49.8l1.5,0.1l16.5,1.9l26.9-74.9l67.4-42.2l41,34.1l20.6,6.4l41.3,3.5
		l39.4-27.3l24.6-5.2l12.8-19.9l40.2-33.9l34.4,19.3l14.1-1.5l6.6-1.5l4.1-20.6l1.3-27l0,0l1.1-2.3l9.8,6.7l-1.5-32.1l-6.1-17.2
		l-5.4-6.3l-9.1-6.3l-12.7-7.9l-17-8.1l-12.7-22.6l-20.2-3.8l-13.7-20.1l-7.9-12.2l-9-21.4l-14.2-15.2l-12,4.1l-44.9,19.6l-29.3,5.2
		l-45-28.3l-8.3-7.9l-16.6-46.7l-12.1-18.5l-4.1,0.6l-11.4,5.5l-19.7,18.1l-10.3,4.2l-15.8-1.7c-0.1,0-26.3-4.3-35.7-4
		c-3.6,0.1-11.6-12.2-15.5-12.1c-6.3,0.2-17.3-17.3-21.8-17.3c-1.6,0-4-4.9-5.4-4.9c-7.2-0.2-16.3-19.1-20.2-21.5
		c-1.1-0.7-4.4-5.3-5.3-6.3c-0.6-0.7-9.2-14-13.6-22.1c-1.1-2.1-7.6,3.8-9.2,0.7c-1.5-2.9-8.8,5.6-10.8,1.6l-19.7,5
		c0,0-51.5-13.9-68.4-13.7c-2.9,0-10.1-5.6-12.6-5.6c-0.6,0-1.8,1.3-2.3,1.3c-5.3-0.1-16.5,3.8-17.1,3.1
		c-2.5-2.8-39.6-14.6-39.6-14.6l-31.8-2.2l-51.5-0.4l-10.1-2.6l-24.3-20.3l-21.8,9.6l-17.3,1.3l-56.3-17.8l-2.3-0.1l-2.9-13.8
		l-5.5-14.8l7-52.5L814.9,856.9z M12.5,12.5v3255.4h8567V12.5H12.5z"/>
	<path class="st4" d="M3991.8,1141l110.5,3.1l31.8,10l96.7,108.8l51.7-173l14.8-13l157.5-72.6l12.6-1.5l120.6,65.9l32.7,25.8
		l27.2,41.2l11.8,5.6l36.8-44.9l135.2,0l26.7,4.8l56.3,32.2l25.8,5.7l68.4-26.6l35.7,3.2l33.1,60.9l32.7,71.3l25.9,83.3l13.6,11.8
		l96-156.1l119.9-82.7l164.9,50.2l82.2,173l55.8-85.9l25-18l113.9-52.5c0,0,5.4,0.6,6.9,0.7c118.2,12.6,161.7,17.9,165.1,19.1
		c4.6,1.5,17.4,11.5,65,51.3c15.1,12.6,29.1,24.4,35.2,29.6l67.2-96.8l182.9-83.4l29.4,1.5l53.7,117l29.1,66.3l25.3,63.2l42.8-102.2
		l29.1-39.6l59.3-62.8l25.8-7.2h115.5l29.5,62l0.5-0.2l21.2-20.1l44.1-59.5l14.8-3l62.2,9.7l9.5,4.2l29.1,39l13.4,14l30.3,19.6
		l49-14.3l9.2-3.4l90.7-37.2l13.6,1.2l29.2,62.5l22.2,34.6l60.2,55.3l28.4,40l23.1,109l94.5-177l35.3-13.4l135.1-1.6l21,128.8
		l11.6,49.4l20.7,58.4l29,65.4l21.8,36.3l18,96.3l-32.6,73.4l-33.6,151.3l3.7,33.9l4.6,7.6l2.1-9.7l58.1-59.3l103.5-51.4
		l-46.1,300.1l-8,27.2l-115.2,174.7l-4,8.7l-9.2,100.8l-51.9,99.9l-24.3,15.1l-59.2-76.9l-71.6-63.3l-95.3-75.7l-33.5-21.7
		l-49.9,128.6l-28.6,25.8l-76.9-28.4l-71.5-41.1l-59.1-68.1l-57.4-37.1l-58.5-15.3l-24.9-51.3l-22.1-104.4l0.6-128.3l-46.5-101.2
		l-15.6-87.8l57.6-1l64.6-60.3l18.7,9.5l-4.5-60.5l-43.8-37.4l-40.5-46.4l-35.3-76.8l-35.3-37l-100.1-12l-49.9-14.5l-63.5-44
		l-30.5-4.8l-58.7,68.3l-51.7,96l65.9,200.9l-86.7,73.5l-31,9.7l-30.8-18.8l-26.9-5.4l-5.1,5.9l-78.6,79.4l-16.6,11.7l-151.2,41.9
		l-43.7-4.3l-35.2-40.8l-38.4-64.6l-11.2-12.5l-44.3,52.6l-105.5-68l-25.2-19.6l-79.2-85.7l-2.5,2.8l-36.8,195.8l-18.9,32.1
		l-34.6,39.9l-18.1,11.5l-136.2,59.9l-183.8-43.4l-75-135.9l-20.2,30.5l-25.6,25.6l-63,51.4c0,0-13-15.2-15.9-18.7
		c-5.1-6.1-19.3-23.3-27.5-34.5c-4.8-6.6-7.2-15.5-10.2-24.2c-3.5-10.3-7.7-18.3-6.6-28.2c1.4-12.9,4.2-27.4,13.1-76.7l-51.2,28.7
		l-21.2-11.1l-59.9-78.4l-117.1-50.2l57.3-143.5l16.1-29.9l0.1-0.5l-28.1-2.6l-31.6-16l-22.2-17.1l-21.6-17.6l-109.9-92.1
		l-15.6-17.7l-51.6-68.2l-37.2,5.1l-63.1,22.3l-60,15.4l-52.6,42.2l-22.2,27.3l-14.3,51.4l3.8,24.5l22.5,63.9l16.7,28l-32.7,49.7
		l-76.4,43.1l-44.5,32.7l-55.3,46l-25.9,55.7l-18.1,82.4l11.1,74.7l116.8,341.9l-27.7,22.8l-100.3,20l-165.1-418.9l-34.7-115
		l0-167.5l13.5-259.9l2.1-8.7L3991.8,1141z M821.8,838.7l44.8-21.5l34.3-24.4l45.5-16l45.3,23.4l34.7-13.6l9.5,4.8l62.4-11.4
		l31.2,6.2l41.6,29.3l32.2,35.6l44.4-9.4l30.5-25.4l61.5-15.1h98.4l22,17.9l71,119.5l23.1-13.2l5.7-11l56.6-52.9l83.9-53.9l20,13
		l56.2,108.6l115.2,104.9l2.2,4.9l112.6,255.2l-86.1,102.6l-82.1,9.5l-43,65.3l1.2,10.2l49.7,50.6l13.4,13.3l27.7,41.3l31.4,0
		l61.8,29.6l31.2,29.1l28.9,37.3l11.7,41.9l70.7-32.4l128.5-114.5l51.7-80.1l0.5-0.7l33.1-46.3l39-90.9l100-217.5l80-36.1l30.1,36
		l81,289.3l21.1-12.1l1.3-0.4l10.3-3.3l61.2-84l260.2-311.5l26.4,16.8l72.5,152.5l71.8,88.8l16.9-10l112.9-214.5l31.8-14.2l230.4-20
		l170.9,140.5l5.5,7.1l28.1,165.8l1.8,10.4l57.4,303.1l-31.4,313.3l2.8,11.2l81.6,189.4l-2.4,10.8l-83.2,150.1l-51.4,41.2l-23.6,4.9
		l-94.4-107.9l-40.5-50.2l-65.9-96.2l-33.3,111.5l-23.9,22.7l-186.1,100.1l-120.8-137.8l-19.1-19.2l-84-66.2l-24.1-29.9l-41.4-169.8
		l-148.9,243.7l-27.4,30.3l-120.9,110l-20.1,10.2l-112.7,38.3l-76.9-41.6l-17.5-16.5l-52.1-168.4l-7.4,5.4l-10.2,22.6l-47.8,58.6
		l-39.9,37.3l-52.2,17.5l-76.8,8.1l-44,18.9l-108.3,68.3l-18.9-7.9l-87.3-97.6l-5.3-2.4l-114.7-23l-107.7-127.6l-9,4.3l-60.5,90.1
		l-27.1,19.8l-208,100.6l-169.3-55.9l-22.6-15l-109.2-222.6l-4.9,5.1l-21.6,85l-39.5,54.3l-99.4,92.1l-29.6-3l-132-73l-29.1-102.4
		l-71.7-242.9l0.9-4.5l83-186l40.2-28.3l31.5-0.9l36.1,206.5l5.8-11.3l11.1-83.9l41.3-176.7l82.8-25l36.1,46.6l22.6,58.9l40.6,59.2
		l37.8-27.9l38.1-127.7l39-101.6l18.8,12.9l20.7,48.9l1.4-1.3l16.1-11.2l28.9-76.7l76.4-23.4l34.6,42.4l22.5-4.8l45.6-21.2
		l48.5-16.2l22.7,3.4l11.9-19.8l43.1-31.6l31.4,24.4l11.9-9.6l3.6-7.7l1.9-20.6l-2.4-28l-0.1,0l-6.3,1.2l-1.1-10.3l-5.4-31.1
		l-10.5-14.9l-9.1-1.7l-11.3-1.8l-15.7-0.9l-19.4-0.6l-14-21.2l-18.7-8.3l-14.3-19l-8.3-11.5l-8.6-21l-11.9-16.6l-10.4,8.5
		l-44.9,19.5l-29.2,1l-46.7-23l-9.4-6.2l-15.8-45.8l-10.2-19l-3.8-3.1l-9.6-5.9l-16.9,20.1l-8.7,6.9l-15.5-0.9
		c-0.1,0-22.5-2.6-35.1-2.2c-4.8,0.2-12.8-8-18-7.8c-8.3,0.2-19.3-11.4-25.3-11.4c-2.1,0-4.7-3.3-6.5-3.3
		c-9.6-0.2-19.1-13-24.3-16.2c-1.4-0.9-4.3-4.5-5.5-5.9c-0.8-0.9-7.4-10.8-13.2-21.6c-1.5-2.8-6.7-0.5-8.8-4.6
		c-2-3.9-8-0.5-10.7-5.8l-22-2.4c0,0-54.3-19.2-65.5-19.1c-1.9,0-9.6-7.5-11.3-7.5c-0.4,0-1.6,1.8-2,1.8c-3.6-0.1-15.9,5.4-16.3,4.9
		c-1.6-1.9-42.7-0.3-42.7-0.3l-31.2,4.3l-50,8.8l-10.4,0.4l-25.3-17.9l-24,1.9l-17-1.7l-45-41.1l5.3-5l5-14.2l0.4-16.1l14.4-50.1
		L821.8,838.7z M16.7,16.7v3247h8558.7V16.7H16.7z"/>
	<path class="st5" d="M3988.8,1136.8l109.5,3.1l33.6,5.5l97,109.2l51.1-171.2l16.9-10.9l155.8-71.9l12.5-3.6l119.3,65.2l34.8,23
		l26.9,40.8l11.4,11.2l36.7-44.8l133.8,0l27.1,2.4l55.7,31.8l25.2,9.9l67.6-26.3l38.8-6.6l32.8,60.2l34.8,69.5l25.6,82.4l12.1,22.8
		l95-154.4l122.3-84.4l168.6,51.3l79.8,167.9l55.4-85.2l26.8-15.6l111.2-51.3c0,0,6.1,0.7,6.9,0.7c140.1,14.9,163.9,18.3,167.2,19.4
		c5.1,1.7,12.4,7,64.7,50.6c13.2,11,25.8,21.6,33.5,28.1l65.2-94l181.8-82.9l32.5-7.4l53.4,116.3l29.5,65.7l26.1,65.2l42.5-101.4
		l31.4-37.6l58.9-62.4l27.1-3.6h115.2l28.9,60.8l0.5-0.2l19.4-21.9l43.8-59.1l15.9-0.2l61.7,9.6l10.2,2.9l28.9,38.8l12.5,14.8
		l30.9,19.9l48.5-14.2l9-3.5l89.9-36.8l15.1-2.8l29,62l19.8,35.9l59.7,54.8l32.8,37l22.9,107.7l93.8-175.7l38.9-6.9l134-1.5
		l20.2,124.2l9.6,48l20,56.3l25.7,64.2l21,35l35.2,91.8l-31.4,70.8l-47,143.6l3.6,32.7l3.9,18.3l2-9.4l67.1-48.5l99.8-49.5
		l-46.7,304l-6.3,28.3l-116.7,177l-4.8,8.5l-9.4,102.1l-51.7,99.5l-23,28.4l-58.9-76.5l-61.5-65L7335,2362l-34.7-45.7l-49.7,128.2
		l-23.5,36.7l-76.7-28.4l-75.3-35.2l-58.9-67.9l-54.9-48.8l-65.1-2.5l-24.9-51.1l-33.2-97.8l11.5-130.5l-43.1-105.7l-45.3-95.8
		l62.8-18.7l73.7-52.3l19.6,24.1l8.1-64l-43.6-37.3l-44-43.5l-35.1-76.5l-29.6-44.5l-99.7-11.9l-51.3-10.4l-63.3-43.8l-31.6-13.7
		l-60.3,70.3l-50.7,94l66.2,201.9l-86.2,73.1l-30.3,17.4l-30.7-18.7l-29.2-12.3l-4.9,6l-78.1,78.8l-15.5,13.2l-150.2,41.6l-46.1,4.6
		l-35-40.5l-44.4-61.5l-8.5-22.1l-44.6,53l-104.6-67.4l-25.9-18.3l-78.5-85l-1.9,4.8l-36.5,194.2l-21.8,30.3l-34.3,39.6l-18.9,10.1
		l-135,59.4l-187-44.1l-72.6-131.5l-20.1,30.5l-26.9,24.3l-62,50.6c0,0-14.4-16.9-15.9-18.7c-2.8-3.4-15.9-19-26.2-32.2
		c-6.1-7.8-10.2-16.1-13.8-23.2c-5.3-10.4-10.4-18-9.6-27.6c0.6-7.6,2.1-16.8,13.2-78.5l-51.1,28.7l-19.8-17.6l-58.3-76.4
		l-119.8-51.4l57.2-143.1l13.6-28.9l0.3-0.6l-28.1-2.6l-30.3-19.2l-22.2-17.1l-21.5-17.7l-109.8-91.9l-14.9-18.3l-51.5-68.1
		l-40.1,14.8L4440,1351l-59.9,15.3l-48.5,48.4l-22.2,27.2l-9,53.3l9.4,24.9l29.3,62.1l16.7,27.9l-51.4,44.6l-76.2,43l-43.5,34
		l-55.2,45.9l-19.9,59.3l-18.1,82.2l18.1,74.1l116.5,341.2l-38.7,16.4l-100.1,19.9L3921,1948.4l-34.9-115.8l0-168.3l13.6-261.9
		l2.5-8.7L3988.8,1136.8z M828.6,820.5l48.3-15l36.6-20.8l45.8-18.2l39.5,36.9l34.7-30.1l10.2,3.5l66.4,1.3l30.8,6.2l38.2,33.9
		l31.8,35.1l44.8-23.5l30.1-25.1l63.3-7.5h97l19,22.4l70,117.9l22.3-27.5l5.6-10.9l61-47.5l82.8-53.1l17.6,21.1l55.4,107.1
		l115.3,105l2.2,4.9l114,258.5l-88.9,105.9l-81.8,9.4l-41.1,62.4l1.2,10.1l59.8,43.4l13.6,28.5l21.4,44.7l35.5-11.8l72.1,20.8
		l24.2,45.2l21.7,44.5l11.6,41.4l78.3-76.6l132.2-103.2l42.9-85.4l0.4-0.8l28.5-49.2l39.6-89.2l98.7-214.7l87.5-18.1l22.6,45.1
		l80.1,286l22.8-28.2l1.4-1.1l11.4-9.2l63.3-81.1l257.2-307.9l24.2,31.5l71.4,150.2l71,87.9l15.8-19l111.7-212.3l35-8.8l228-19.8
		l172.2,141.5l6.5,6.6l28.3,167l1.8,10.5l57.8,305.4l-31.6,314.8l3.8,11.1l82,190.3l-4.2,10.8l-83.6,150.8l-51.1,40.9l-24.1,12.3
		l-93.8-107.2l-41.2-49.1l-67.4-98.3l-33.1,110.7l-27.3,19.6l-185.5,99.7l-119.8-136.7l-18.3-19.6L3073,2131l-27.6-27.2l-41-168.2
		l-147.7,241.7l-28.7,28.8l-119.9,109.1l-20.8,8.7l-111.7,38l-76.3-41.2l-19.9-14.2l-51.7-167l-7.8,11.7l-10.1,22.4l-51.5,55.1
		l-39.6,37l-54.4,11.7l-76.2,8l-42.4,22.3l-107.4,67.8l-18-13.5l-86.6-96.8l-5.6-1.8l-113.8-22.9L1707.6,2114l-8.7,8.4l-60,89.3
		l-28.9,17.3l-205.4,99.4l-168-55.5l-25-12L1103.4,2040l-4.3,9.9l-21.5,84.3l-44.9,50.4l-98.7,91.4l-30.3-10l-131-72.5l-29.5-104.1
		l-72.3-245.1l1.5-4.5l83.8-187.7l39.5-27.8l36.9-15.3l35.4,202.7l5.4-24.7l10.9-82.4l45.4-173.8l93,4.7l28.4,52.7l24,61.7l44,56.8
		l25.8-59.5l42.2-124.2l38.3-99.9l18.8,28.5l20.4,48.1l1.3-2.7l15.8-24.4l30.9-78.6l85.4-4.6l28.1,50.7l24.4-16l49.8-45.9l57.6-5
		l20.8,12.1l11.1-19.8l46.1-29.3l28.5,29.5l9.7-17.7l0.5-14l-0.4-20.5l-6.1-29l-0.1,0l-13.6,4.6l-12-27.3l-9.4-30.1l-14.9-12.6
		l-12.9,2.9l-13.5,2.6l-18.7,6l-21.8,6.9l-15.3-19.7l-17.2-12.7l-14.8-18l-8.8-10.8l-8.2-20.6l-9.7-17.9l-8.8,12.8l-45,19.4
		l-29.1-3.1l-48.4-17.8l-10.5-4.5l-15-44.8l-8.4-19.6l-3.6-6.7l-7.9-17.2l-14.1,22.2l-7.2,9.5l-15.3-0.1c-0.2,0-18.7-0.9-34.5-0.4
		c-6,0.2-13.9-3.7-20.5-3.6c-10.4,0.3-21.3-5.5-28.7-5.5c-2.6,0-5.4-1.7-7.6-1.7c-11.9-0.3-21.9-7-28.3-11c-1.8-1.1-4.2-3.8-5.8-5.5
		c-1-1.2-5.6-7.6-12.9-21.2c-1.9-3.5-5.8-4.9-8.4-10c-2.5-4.9-7.2-6.6-10.5-13.3l-24.3-9.9c0,0-57-24.6-62.7-24.5
		c-1,0-9.2-9.4-10-9.4c-0.2,0-1.4,2.3-1.6,2.2c-1.8,0-15.3,6.9-15.5,6.7c-0.8-0.9-45.8,14-45.8,14l-30.6,10.8l-48.5,18l-10.8,3.4
		l-26.3-15.4l-26.2-5.8l-16.7-4.8l-33.6-64.5l12.9-9.9l12.8-14.6l6.2-17.3l21.9-47.6L828.6,820.5z M20.8,20.8v3238.7h8550.3V20.8
		H20.8z"/>
	<path class="st6" d="M7772.1,2152.4l-123.8,187.7l-9.5,103.4l-73.1,140.8l-110-142.9l-114.2-57.5l-35.9-69.8l-68.1,175.5L7082,2432
		l-111.2-128.2l-71.7,10.3l-69.1-142l22.4-132.6l-39.6-110.1l-75-103.9l150.7-80.8l20.5,38.7l20.7-67.4l-90.9-77.7l-58.9-128.3
		l-152-18.2l-95.7-66.2l-62,72.2l-49.6,92l66.5,202.8l-115.2,97.7l-62.1-37.8l-4.8,6.1l-92.1,92.9l-197.7,54.8l-85.1-98.7l-5.9-31.6
		l-44.9,53.3l-130.2-84l-77.8-84.2l-37.5,199.4l-58.7,67.8l-153.6,67.6l-190.1-44.9l-70.2-127.1l-20,30.4l-89.1,72.7l-15.9-18.6
		c-0.5-0.6-12.6-14.7-24.8-29.8c-7.3-9-13.2-16.5-17.5-22.2c-7.6-10.2-12.6-17.6-12.6-27.1c0-2.3,0-6.3,13.3-80.2l-51,28.6
		l-75.2-98.4l-122.6-52.6l68.2-170.7l0.6-0.8l-28-2.6l-51.1-39.4l-131-109.7l-65.7-86.9l-43,24.4l-124.9,31.9l-66.6,81.6l-3.7,55.3
		l67.8,113.4l-146.1,82.5l-97.5,81.1l-31.9,144.8l141.4,414l-149.7,29.8L3917,1949.8l-35.1-116.6l0-169.1l13.7-263.9l90.3-267.6
		l143.8,4l97.4,109.6l50.6-169.4l185.7-85.6l154.9,84.7l37.6,57l36.6-44.7l159.7,0l79.7,45.5l108.9-42.3l69.3,127.2l35.8,115.4
		l93.9-152.8l124.7-86l172.3,52.5l77.4,162.8l55-84.6l137.2-63.3l6.9,0.7c161.9,17.3,166.1,18.7,169.3,19.7
		c5.6,1.9,7.5,2.5,64.3,49.9c11.3,9.4,22.5,18.8,31.7,26.6l63.3-91.2l216.3-98.6l82.9,180.6l26.9,67.3l42.2-100.6l92.1-97.5h143.4
		l28.3,59.5l0.5-0.2l61.1-82.4l89,13.9l40.2,54l31.5,20.3l48.1-14l114.6-46.9l46.1,98.7l96.3,88.5l22.6,106.5l93.1-174.3l175.5-2
		l27.1,166.2l41.6,117.1l72.6,121l-90.5,204.1l6.6,60.5l1.9-9l172.2-85.5L7772.1,2152.4z M3821.1,2327.2l-75.3,60.4L3610.6,2233
		l-68.8-100.4l-32.8,109.8l-215.5,115.8l-136.4-155.6l-113.8-89.7l-40.6-166.6L2856.3,2186l-148.9,135.5l-132.1,44.9l-98-52.9
		l-51.3-165.6l-18.1,40.2l-94.6,88.3l-132.1,13.9l-147.3,93l-102.9-115.1l-118.8-23.9l-105.8-125.4l-67.8,101.1l-233.5,113
		l-194-64.1l-107.5-219.2l-25.1,98.4l-148.3,137.3l-160.9-89l-30-105.7l-73-247.3l86.6-193.9l81.1-57.1l34.7,198.9l15.7-118.9
		l49.6-170.8l103.3,34.4l20.7,58.8l25.5,64.5l47.3,54.3l13.9-91l84-218.7l38.7,91.4l1.2-4.1l48.3-118l94.4,14.3l21.7,59l26.4-27.3
		l54.1-70.6l66.8,6.2l18.9,20.7l10.2-19.7l49-27.1l25.5,34.6l7.5-25.7l-5.2-40.7l-9.8-30.1l-0.2,0.1l-20.9,8.1l-22.8-44.2
		l-13.3-29.1l-19.3-10.3l-32.3,14.4l-45.9,27.3l-56.9-62.6l-15.2-39.5l-7.2,17.2l-45,19.3l-90.6-22.7l-24.1-74.3l-6.1-28.6l-17,36.3
		l-15,0.8c-0.3,0-28.5,1.4-56.9,2.1c-16.9,0.4-30.7,0.5-40.9,0.3c-18.3-0.4-30.1-1.4-38.4-10.8c-1.9-2.1-6.7-7.6-31-56.7l-26.5-17.3
		l-59.8-29.9l-8.7-11.2L981,958l-151.8,87.8l-72.1-34.4l-22.3-87.9l41.2-29.7l59.5-91.7l51.8-8.5l85.1-37.6l33.6,50.4l34.7-46.6
		l111.6,22.3l66.2,73.1l74.9-62.4h160.9l85.1,143.2l27.2-52.4l147.1-94.4l69.8,134.8l115.4,105.1l2.1,4.8l115.4,261.7l-91.6,109.1
		l-81.5,9.4l-39.2,59.5l1.2,10l69.9,36.2l28.8,92l39.6-23.6l82.5,12l43.1,153.8l85.9-120.8l136-91.9l34.1-90.8l0.4-0.8l161.6-351.6
		h95.1l94.3,336.7l24.4-44.2l1.5-1.8l332.2-397.7l92.3,194.2l70.3,87l125.3-238.1l263.8-22.9l180.9,148.7l30.3,178.9l58.2,307.6
		l-31.7,316.3l87.1,202.1L3821.1,2327.2z M25,25v3230.4h8542V25H25z"/>
</g>
</svg>
