<svg xmlns="http://www.w3.org/2000/svg" viewBox="0 0 1054.38 552.68"><defs><style>.cls-1{fill:#c1272d;}.cls-2{fill:#1c4c19;}</style></defs><title>Espinhos</title><g id="Layer_2" data-name="Layer 2"><g id="ESPINHOS"><polygon class="cls-1" points="200.03 365.4 205.39 354.6 207.37 367 218.58 367 222.75 356.9 227.09 367 235.52 362.77 233.73 355.82 239.6 360.8 246.75 355.82 242.41 351.02 250.58 351.02 248.03 343.62 240.12 339.79 245.99 335.96 241.34 326.26 233.22 324.98 242.22 319.6 237.82 315.53 231.69 312.98 236.03 308.13 233.73 302.77 226.58 305.32 231.69 296.38 221.73 293.58 230.16 290.26 225.31 279.53 233.99 279.53 237.82 272.77 233.73 267.26 241.34 267.26 245.48 260.13 241.34 252.23 251.01 253.93 256.71 245.12 257.99 253.93 265.65 251.65 265.65 258.95 273.05 262.75 275.86 258.95 277.36 265.81 284.29 266 284.29 268.81 278.16 267.26 271.77 268.56 274.6 264.25 268.2 261.41 263.35 262.75 261.05 257.52 255.18 255.37 253.39 253.93 250.58 257.52 252.88 262.75 246.75 264.21 243.34 267.26 248.03 277.24 239.86 275.19 242.16 282.09 236.04 279.94 232 286.97 234.75 294.34 245.48 296.9 238.07 303.28 240.12 310.35 246.75 310.35 244.2 316.56 247.52 327.53 255.69 329.32 251.35 336.98 253.65 344.38 262.84 345.66 254.46 353.45 252.88 365.4 248.03 358.94 243.26 360.1 244.2 369.05 240.37 364.16 236.29 366.6 235.01 374.22 231.69 369.05 225.56 369.05 222.5 375.65 217.14 369.05 208.97 374.22 204.91 366.76 199.01 372.12 196.2 365.4 188.29 359.96 195.33 357.11 189.56 350.26 192.03 344.28 188.29 339.28 190.21 337.2 193.9 336.98 193.02 348.12 196.46 355.82 199.52 354.6 197.99 363.97 200.03 365.4"/><path class="cls-2" d="M185.58,319.2c1.2,3.86,2.45,7.7,3.61,11.56l3.49,11.59L196.1,354l3.34,11.63-1.63-1.4c5.11.34,10.21.74,15.31,1.14l15.3,1.19-1.55.35,13-8c4.36-2.65,8.69-5.33,13.07-7.93l-1.25,3.46-5.92-16.17c-2-5.39-4-10.78-5.87-16.2l-5.79-16.22c-1.95-5.4-3.83-10.83-5.71-16.25l-.43-1.24.63-1.06c3.64-6.12,7.22-12.27,10.92-18.35l5.51-9.14c1.85-3.05,3.66-6.11,5.54-9.14l1.06-1.71,1.62,1,11,6.65c3.68,2.21,7.32,4.48,11,6.71s7.3,4.51,10.94,6.79,7.25,4.59,10.87,6.89c-3.84-1.91-7.7-3.8-11.51-5.76s-7.65-3.9-11.45-5.88-7.62-3.93-11.4-5.95l-11.37-6,2.68-.73c-1.67,3.14-3.41,6.24-5.12,9.37l-5.13,9.36c-3.41,6.25-6.93,12.43-10.39,18.65l.2-2.3c2,5.38,4.05,10.75,6,16.15L245.54,320c2,5.39,3.92,10.79,5.84,16.2l5.8,16.23.8,2.25-2.05,1.21c-4.38,2.6-8.81,5.12-13.22,7.67l-13.24,7.64-.76.43-.79-.09-15.24-1.8c-5.08-.6-10.16-1.2-15.24-1.86l-1.36-.18-.28-1.22-2.67-11.8-2.6-11.82L188,331.07C187.15,327.12,186.39,323.16,185.58,319.2Z"/><polygon class="cls-1" points="262.52 266.78 263.96 278.75 269.97 267.72 280.54 271.48 281.09 282.4 288.56 274.32 295.08 281.13 291.07 287.08 298.27 284.35 303.34 291.44 297.65 294.51 305.35 297.24 300.47 303.36 291.73 304.33 295.98 309.9 288.35 317.49 280.28 315.98 286.95 324.06 281.45 326.42 274.82 326.77 277.29 332.8 273.33 337.08 267.44 332.28 269.27 342.41 258.94 341.73 265.77 347.67 257.62 356.16 265.8 359.06 267.14 366.72 261.45 370.54 268.62 373.08 270.13 381.19 263.59 387.25 273.28 388.88 275.7 399.09 279.85 391.21 286.31 395.93 288.75 389.05 296.99 387.95 298.37 392.47 302.08 386.5 308.67 388.64 309.61 385.99 303.32 385.4 297.73 382.05 298.95 387.05 291.97 387.59 287.85 384.7 283.94 388.86 277.68 388.92 275.52 389.68 274.07 385.36 277.99 381.2 272.7 377.77 270.5 373.75 278.26 365.92 269.88 365.12 274.35 359.39 267.87 359.36 266.41 351.39 271.47 345.36 282.43 346.54 277.59 338.05 281.88 332.07 288.13 334.29 287.8 327.59 294.6 318.35 302.9 319.4 301.37 310.73 306.02 304.52 315.11 306.39 309.81 296.25 312.32 284.46 305.59 288.93 301.48 286.24 305.36 278.12 300.12 281.44 297.08 277.78 298.43 270.17 293.57 273.93 287.8 271.88 287.12 264.64 279.86 269.07 273.89 261.46 267.58 267.13 263.8 260.11 258.91 265.5 249.63 267.98 255.31 273.02 247.59 277.55 247.91 284.01 242.71 287.47 243.83 290.07 247.24 291.51 250.13 280.72 255.94 274.61 258.42 276.79 260.11 267.44 262.52 266.78"/><path class="cls-2" d="M233.45,305.49c2.08-3.46,4.13-6.94,6.25-10.37L246,284.81l6.4-10.27,6.47-10.22.67-1.06,1.34.28c5,1.08,10,2.21,15,3.35l15,3.4.78.17.57.67,9.92,11.62c3.3,3.89,6.63,7.74,9.89,11.65l1.53,1.83L312,298.08l-10.88,13.36q-5.43,6.68-10.93,13.31l-11,13.26c-3.65,4.43-7.36,8.82-11.06,13.2l.58-2.23c1.18,7,2.43,14,3.55,21L274,380.57c.56,3.52,1.16,7,1.69,10.55l-2.29-1.59,12.73-1.86c4.24-.64,8.49-1.2,12.74-1.79s8.49-1.17,12.75-1.71,8.51-1.07,12.77-1.59c-4.18,1-8.36,1.95-12.55,2.86s-8.37,1.85-12.57,2.74-8.38,1.81-12.59,2.65l-12.6,2.59-1.85.38-.43-2c-.75-3.48-1.44-7-2.16-10.46l-2.14-10.46c-1.45-7-2.76-14-4.15-20.94l-.24-1.21.82-1c3.59-4.49,7.17-9,10.82-13.41L285.64,321c3.61-4.47,7.28-8.89,10.95-13.3l11-13.26v3.68c-3.26-3.92-6.44-7.9-9.66-11.85l-9.63-11.86,1.35.84-14.83-4c-4.94-1.33-9.88-2.66-14.81-4.05l2-.77-7,9.83L247.88,286l-7.17,9.76C238.33,299.05,235.87,302.26,233.45,305.49Z"/><polygon class="cls-1" points="263.95 335.01 271.02 340.49 268.33 331.57 275.81 327.94 281.87 333.34 281.5 325.19 288.49 325.3 289.54 330.51 291.85 325.29 298.23 326.3 296.89 330.91 302.34 328.27 303.03 334.03 298.98 339.15 304.14 339.81 304.17 347.79 299.17 351.26 306.91 351.95 305.29 356.08 302.02 359.77 306.49 361.6 306.69 365.92 301.09 366.53 307.39 370.84 301.65 375.94 308.35 375.43 308.57 384.15 314.37 381.35 319.11 384.63 318.17 389.62 323.24 387.16 328.31 390.59 328.1 397.2 334.01 392.93 340.66 396.97 338.66 390.68 344.51 389.73 342.15 384.86 345.87 379.93 348.97 381.56 347.75 376.49 352.31 374.12 351.41 372.25 347.82 375.26 343.14 376.46 346.42 378.43 343.06 382.39 339.39 383.06 339.55 387.29 336.32 390.63 335.6 392.16 332.56 390.68 332.41 386.45 327.84 387.45 324.58 386.52 324.49 378.34 319.69 382.35 319 377 315.61 380.41 310.64 377.03 310.09 371.22 316.43 366.05 309.42 364.18 308.5 358.8 312.93 356.65 309.22 353.34 307.89 344.94 312.76 341.1 307.39 337.39 306.53 331.71 312.25 327.88 304.14 325.39 299.23 317.93 298.08 323.81 294.52 324.58 292.25 318.3 291.27 322.8 287.76 322.49 284.45 317.82 283.9 322.34 279.81 324.32 275.63 320.91 274.19 327.05 267.06 326.24 266.77 332.52 261.09 330.85 261.39 336.25 257.87 342.44 263.49 342.06 261.86 348.5 265.44 351.7 264.55 356.24 266.51 357.01 269.05 355.96 264.85 348.81 264.66 342.56 267.1 342.39 263.05 336.62 263.95 335.01"/><path class="cls-2" d="M269.24,370.52c-.73-2.91-1.48-5.8-2.18-8.71l-2.1-8.73q-2.08-8.73-4-17.48l-.19-.82.76-.49c3.18-2.07,6.38-4.11,9.58-6.15l9.61-6.11.45-.28.58,0,11.3.83c3.77.28,7.54.54,11.3.86l1.59.13.17,1.58c.89,8.47,1.87,16.94,2.7,25.41s1.74,16.95,2.5,25.43l-.79-1.32c4.32,3,8.68,6,13,9.07l12.91,9.16-1.82.34,5.62-7.7,5.67-7.68q5.66-7.66,11.48-15.24-5,8.11-10.2,16.13l-5.18,8-5.22,8-.7,1.07-1.13-.73-13.26-8.65c-4.42-2.88-8.8-5.83-13.2-8.74l-.69-.45-.1-.87c-1-8.46-1.88-16.93-2.81-25.4s-1.72-16.94-2.59-25.42l1.75,1.72c-3.77-.32-7.52-.7-11.29-1.06l-11.28-1.08,1-.24-9.82,5.76c-3.27,1.92-6.54,3.85-9.83,5.73l.57-1.31c1,5.89,2.07,11.78,3.05,17.68l1.45,8.86C268.35,364.6,268.78,367.56,269.24,370.52Z"/><polygon class="cls-1" points="381.26 429.01 378.68 417.22 373.75 428.78 362.88 426.06 361.28 415.24 354.62 423.99 347.47 417.83 350.89 411.53 343.99 414.93 338.26 408.37 343.64 404.77 335.71 402.78 339.99 396.22 348.6 394.43 343.83 389.29 350.7 381 358.88 381.74 351.46 374.33 356.71 371.45 363.28 370.47 360.25 364.71 363.78 360.06 370.09 364.28 367.31 354.37 377.65 354.06 370.28 348.8 377.59 339.57 369.17 337.46 367.1 329.97 372.4 325.62 365.02 323.77 362.74 315.85 368.68 309.19 358.87 308.5 355.49 298.56 352.11 306.8 345.23 302.73 343.46 309.8 335.35 311.69 333.55 307.32 330.43 313.62 323.67 312.12 322.98 314.85 329.3 314.83 335.18 317.64 333.49 312.77 340.38 311.57 344.76 314.05 348.26 309.54 354.48 308.87 356.56 307.92 358.42 312.08 354.92 316.59 360.51 319.5 363.08 323.29 356.11 331.82 364.53 331.83 360.63 337.95 367.08 337.36 369.3 345.16 364.83 351.64 353.81 351.51 359.44 359.5 355.75 365.87 349.31 364.25 350.27 370.9 344.39 380.74 336.03 380.49 338.38 388.97 334.35 395.6 325.13 394.61 331.36 404.19 329.99 416.17 336.27 411.08 340.61 413.36 337.53 421.82 342.43 418.01 345.8 421.36 345.19 429.06 349.66 424.86 355.61 426.34 356.98 433.49 363.78 428.39 370.45 435.39 376.19 429.14 380.62 435.77 384.98 429.94 393.98 426.58 387.84 422.11 395.09 416.86 394.15 410.46 399 406.52 397.64 404.03 394.11 402.92 392.26 413.95 387.06 420.58 384.38 418.65 383.59 428.12 381.26 429.01"/><path class="cls-2" d="M406.49,387.7c-1.74,3.64-3.44,7.3-5.22,10.92l-5.33,10.87-5.39,10.83-5.46,10.79-.57,1.12-1.36-.15c-5.08-.6-10.16-1.25-15.23-1.9l-15.23-1.95-.79-.1-.63-.61-11-10.63c-3.65-3.54-7.34-7.06-11-10.64l-1.69-1.68,1.33-2,9.56-14.33c3.18-4.78,6.36-9.56,9.6-14.3l9.68-14.25c3.21-4.76,6.48-9.48,9.75-14.2l-.36,2.28c-1.85-6.88-3.76-13.73-5.55-20.62l-2.71-10.33c-.89-3.44-1.83-6.88-2.69-10.33l2.43,1.36-12.49,3.07c-4.16,1-8.34,2-12.51,3s-8.35,2-12.53,2.93-8.38,1.87-12.57,2.8c4.07-1.36,8.14-2.75,12.22-4.05s8.16-2.65,12.26-3.93,8.17-2.6,12.27-3.85l12.29-3.77,1.82-.56.61,1.92c1.09,3.39,2.1,6.8,3.15,10.2l3.13,10.21c2.11,6.8,4.09,13.63,6.14,20.45l.35,1.18-.72,1.1c-3.14,4.8-6.28,9.61-9.48,14.38l-9.56,14.33c-3.17,4.79-6.39,9.54-9.62,14.29l-9.68,14.25-.36-3.67c3.61,3.59,7.16,7.25,10.74,10.87l10.73,10.89-1.42-.71,15.14,2.56c5,.85,10.09,1.7,15.12,2.61l-1.92,1,6.06-10.46L394,408.43l6.2-10.39C402.25,394.57,404.39,391.15,406.49,387.7Z"/><polygon class="cls-1" points="475.95 304.88 470.71 315.74 468.59 303.36 457.38 303.48 453.32 313.63 448.87 303.57 440.49 307.9 442.35 314.83 436.43 309.92 429.33 314.97 433.73 319.72 425.56 319.81 428.19 327.19 436.15 330.93 430.32 334.83 435.08 344.48 443.2 345.66 434.27 351.14 438.71 355.16 444.87 357.65 440.58 362.54 442.94 367.88 450.06 365.25 445.05 374.24 455.04 376.94 446.65 380.35 451.62 391.02 442.94 391.12 439.18 397.92 443.33 403.38 435.72 403.47 431.66 410.64 435.89 418.5 426.19 416.9 420.59 425.77 419.22 416.98 411.58 419.35 411.5 412.05 404.06 408.33 401.29 412.16 399.72 405.31 392.79 405.2 392.76 402.39 398.9 403.87 405.27 402.51 402.5 406.85 408.93 409.62 413.76 408.23 416.12 413.42 422.01 415.51 423.81 416.93 426.58 413.31 424.23 408.11 430.34 406.57 433.72 403.49 428.92 393.57 437.11 395.52 434.74 388.65 440.88 390.73 444.85 383.66 442.01 376.32 431.26 373.88 438.59 367.42 436.47 360.37 429.83 360.44 432.32 354.21 428.88 343.27 420.69 341.57 424.94 333.86 422.56 326.49 413.36 325.31 421.65 317.43 423.1 305.46 428.02 311.87 432.78 310.66 431.74 301.72 435.62 306.56 439.68 304.08 440.88 296.45 444.25 301.58 450.38 301.51 453.37 294.88 458.8 301.42 466.92 296.17 471.05 303.57 476.9 298.15 479.78 304.84 487.75 310.19 480.74 313.12 486.58 319.91 484.18 325.92 487.98 330.87 486.08 332.97 482.39 333.23 483.15 322.08 479.63 314.42 476.58 315.68 478.01 306.29 475.95 304.88"/><path class="cls-2" d="M490.9,350.92c-1.24-3.84-2.53-7.67-3.73-11.52l-3.61-11.55L480,316.28l-3.47-11.58,1.65,1.38c-5.11-.28-10.21-.63-15.32-1l-15.31-1,1.54-.36-13,8.1c-4.32,2.7-8.62,5.43-13,8.08l1.21-3.48,6.1,16.11c2,5.36,4.07,10.73,6.05,16.13l6,16.15c2,5.38,3.94,10.79,5.88,16.19l.45,1.24-.62,1.06c-3.58,6.16-7.09,12.35-10.72,18.47L432.06,411c-1.81,3.06-3.59,6.14-5.43,9.19l-1.05,1.72-1.63-1-11.08-6.53c-3.7-2.16-7.37-4.39-11.05-6.59s-7.35-4.42-11-6.67-7.31-4.51-10.95-6.77c3.86,1.87,7.73,3.72,11.57,5.64s7.69,3.81,11.51,5.75,7.67,3.85,11.47,5.82l11.44,5.89-2.68.76c1.64-3.16,3.35-6.28,5-9.42l5-9.42c3.34-6.29,6.79-12.51,10.18-18.77l-.18,2.3c-2.08-5.35-4.17-10.7-6.18-16.07l-6.11-16.11c-2.05-5.37-4-10.75-6-16.14l-6-16.16-.83-2.24,2-1.24c4.35-2.65,8.76-5.21,13.14-7.81l13.15-7.78.76-.45.79.09,15.26,1.63c5.09.55,10.18,1.09,15.26,1.7l1.36.16.29,1.22L483,315.49l2.72,11.79,2.66,11.8C489.24,343,490.05,347,490.9,350.92Z"/><polygon class="cls-1" points="378.45 291.99 388.77 298.25 376.24 299.17 375.29 310.34 385.01 315.35 374.57 318.82 378.07 327.57 385.15 326.38 379.69 331.81 384.05 339.36 389.19 335.44 388.5 343.58 396.1 341.66 400.58 334.1 403.9 340.27 413.96 336.46 415.92 328.48 420.52 337.9 424.94 333.86 428.01 327.97 432.47 332.71 438.01 330.87 436.07 323.54 444.54 329.38 448.19 319.7 450.78 328.37 461.88 324.45 461.14 333.1 467.56 337.49 473.39 333.88 472.74 341.46 479.5 346.19 487.73 342.73 485.2 352.23 493.5 358.65 484.61 359.18 486.24 367 478.97 366.39 474.56 373.44 478.11 376.56 471.14 377.47 470.36 384.36 467.56 384.12 469.63 378.15 468.88 371.68 472.93 374.86 476.3 368.72 475.38 363.77 480.78 361.93 483.43 356.26 485 354.6 481.67 351.5 476.27 353.34 475.32 347.11 472.57 343.45 462.24 347.28 464.97 339.32 457.9 341.02 460.56 335.11 453.9 330.48 446.32 332.61 442.87 343.07 437.13 335.16 429.92 336.59 429.35 343.21 423.39 340.14 412.17 342.51 409.69 350.5 402.43 345.53 394.86 347.19 392.81 356.24 385.75 347.23 373.98 344.65 380.83 340.36 380.08 335.51 371.08 335.69 376.27 332.29 374.19 328.01 366.71 326.09 372.14 323.23 372.66 317.12 366.34 313.51 373.38 308.72 368.92 300.14 376.69 296.74 371.85 290.4 378.78 288.17 384.87 280.75 387.11 288 394.43 282.84 400.18 285.8 405.48 282.5 407.39 284.59 407.3 288.29 396.27 286.46 388.31 289.24 389.26 292.39 380.06 290.07 378.45 291.99"/><path class="cls-2" d="M425.71,281.51c-3.94.87-7.87,1.78-11.82,2.61l-11.84,2.49L390.2,289l-11.87,2.35,1.53-1.51c-.77,5.06-1.6,10.11-2.43,15.16l-2.49,15.14-.21-1.57,6.83,13.68c2.27,4.56,4.58,9.1,6.8,13.69L385,344.44l16.62-4.53c5.53-1.52,11.07-3,16.63-4.47l16.65-4.4c5.55-1.49,11.12-2.9,16.68-4.31l1.27-.33,1,.72c5.78,4.15,11.61,8.24,17.36,12.43l8.64,6.27c2.87,2.1,5.77,4.17,8.63,6.29l1.61,1.2L489,354.85l-7.56,10.4c-2.51,3.48-5.08,6.92-7.62,10.37s-5.1,6.89-7.68,10.32-5.19,6.83-7.79,10.25c2.23-3.67,4.44-7.35,6.72-11s4.52-7.29,6.82-10.91,4.57-7.26,6.9-10.86l6.95-10.82.5,2.74c-3-1.94-5.93-3.93-8.9-5.9l-8.89-5.91c-5.94-3.92-11.81-7.95-17.71-11.93l2.27.4c-5.52,1.56-11.05,3.13-16.59,4.62l-16.62,4.53c-5.54,1.53-11.09,3-16.64,4.46L386.5,350l-2.31.61-1-2.14c-2.21-4.58-4.34-9.21-6.51-13.82l-6.49-13.84-.37-.79.16-.78,3.08-15c1-5,2.06-10,3.15-15l.29-1.33,1.24-.18,12-1.67,12-1.58,12-1.52C417.69,282.4,421.7,282,425.71,281.51Z"/><polygon class="cls-1" points="412.37 335.97 405.24 330.57 408.03 339.46 400.58 343.17 394.47 337.84 394.93 345.98 387.94 345.95 386.83 340.75 384.57 346 378.18 345.06 379.48 340.44 374.05 343.14 373.3 337.38 377.29 332.22 372.13 331.62 372.01 323.64 376.97 320.11 369.22 319.51 370.8 315.36 374.02 311.64 369.54 309.85 369.29 305.53 374.88 304.86 368.54 300.62 374.22 295.46 367.53 296.04 367.2 287.32 361.44 290.19 356.66 286.97 357.56 281.96 352.51 284.47 347.4 281.11 347.54 274.49 341.68 278.82 334.98 274.86 337.05 281.13 331.21 282.14 333.62 286.99 329.96 291.96 326.84 290.36 328.11 295.41 323.58 297.83 324.5 299.7 328.06 296.64 332.73 295.39 329.43 293.47 332.74 289.46 336.4 288.75 336.2 284.52 339.38 281.15 340.1 279.61 343.15 281.06 343.35 285.29 347.9 284.24 351.18 285.13 351.36 293.31 356.11 289.25 356.86 294.59 360.21 291.14 365.22 294.47 365.83 300.27 359.55 305.51 366.58 307.31 367.56 312.67 363.15 314.87 366.9 318.14 368.32 326.53 363.49 330.42 368.9 334.07 369.83 339.74 364.15 343.63 372.28 346.03 377.28 353.44 378.37 347.55 381.92 346.74 384.25 352.99 385.18 348.49 388.69 348.75 392.06 353.39 392.56 348.86 396.62 346.83 400.84 350.2 402.22 344.05 409.35 344.78 409.58 338.49 415.27 340.1 414.91 334.71 418.37 328.48 412.75 328.92 414.31 322.46 410.7 319.3 411.53 314.75 409.57 314 407.04 315.08 411.31 322.18 411.57 328.43 409.14 328.63 413.25 334.35 412.37 335.97"/><path class="cls-2" d="M406.69,300.53c.75,2.89,1.54,5.78,2.27,8.68l2.2,8.7c1.45,5.81,2.85,11.62,4.24,17.43l.2.82-.76.51c-3.15,2.1-6.33,4.17-9.51,6.25l-9.54,6.21-.45.29-.58,0-11.31-.71c-3.77-.24-7.54-.45-11.31-.73l-1.59-.12-.18-1.58c-1-8.46-2.06-16.91-3-25.38s-1.93-16.92-2.78-25.39l.8,1.31c-4.35-3-8.74-5.92-13.07-8.93l-13-9,1.82-.36-5.54,7.76L330,294q-5.58,7.74-11.32,15.37,4.95-8.18,10-16.24l5.1-8.07,5.13-8,.69-1.08,1.13.72,13.35,8.51c4.46,2.83,8.87,5.73,13.3,8.59l.69.45.12.87c1.1,8.44,2.06,16.9,3.08,25.36s1.91,16.93,2.88,25.39l-1.78-1.7c3.77.28,7.53.62,11.3.93L395,346l-1,.26,9.75-5.87c3.25-2,6.5-3.92,9.77-5.84l-.56,1.32q-1.65-8.82-3.24-17.65l-1.55-8.84C407.64,306.44,407.18,303.48,406.69,300.53Z"/><polygon class="cls-1" points="99.68 227.2 110.89 222.75 104.06 233.3 112.4 240.8 122.26 236.07 118.73 246.49 127.83 248.98 131.14 242.62 132.18 250.25 140.82 251.33 140.81 244.86 146.88 250.32 149.93 243.11 146.61 234.97 153.54 236.05 156.57 225.73 151.39 219.35 161.68 221.37 161.13 215.4 158.28 209.41 164.75 208.7 166.63 203.18 159.61 200.29 169.38 197.07 163.85 188.32 172.34 191.49 175.91 180.27 182.36 186.08 189.73 183.61 190.38 176.78 196.03 181.87 203.88 179.34 206.09 170.69 212.14 178.44 222.27 175.69 217.32 183.1 224.54 186.53 219.66 191.95 222.63 199.73 227.26 198.78 223.78 204.88 228.8 209.66 226.92 211.75 223.4 206.5 217.79 203.19 222.77 201.88 219.92 195.49 215.41 193.24 217.2 187.82 214.28 182.29 213.91 180.03 209.42 180.81 207.63 186.24 202.09 183.23 197.52 183.21 194.33 193.76 189.63 186.78 186.72 193.44 183.61 187.75 175.91 190.27 173.02 197.6 179.29 206.67 169.51 206.46 166.3 213.08 171.24 217.52 165.19 220.43 160.31 230.81 165.19 237.6 156.84 240.4 153.6 247.44 159.57 254.53 148.14 254.72 138.97 262.55 139.69 254.5 135.37 252.17 130.08 259.45 130.5 253.26 125.83 252.34 119.79 257.15 120.78 251.08 116.22 246.99 109.53 249.84 109.96 241.35 100.43 239.73 102.4 231.48 94.43 231.51 96.83 224.64 94.59 215.3 101.73 217.89 102.03 208.94 107.86 206.14 108.42 199.92 111.24 199.66 114.14 201.97 106.03 209.66 103.43 217.69 106.53 218.82 99.12 224.77 99.68 227.2"/><path class="cls-2" d="M119.84,183.19c-1.68,3.67-3.33,7.36-5,11l-5.16,10.95-5.21,10.92-5.3,10.88-.27-2.14c3.57,3.67,7.09,7.38,10.62,11.09L120,247l-1.38-.77,15,2.8c5,1,10,1.85,15,2.85l-3.24,1.74,6.41-16c2.14-5.33,4.28-10.66,6.47-16l6.55-15.93c2.16-5.32,4.4-10.61,6.63-15.9l.51-1.21,1.18-.37c6.79-2.11,13.57-4.29,20.38-6.34l10.22-3.1c3.41-1,6.8-2.1,10.22-3.09l1.93-.56.56,1.81,3.73,12.31c1.26,4.09,2.45,8.22,3.67,12.33s2.41,8.23,3.59,12.35,2.32,8.26,3.47,12.4c-1.57-4-3.18-8-4.7-12s-3.08-8-4.58-12-3-8-4.5-12.05l-4.43-12.08,2.49,1.25c-3.35,1.22-6.72,2.36-10.08,3.55l-10.07,3.52c-6.72,2.37-13.47,4.61-20.2,6.92l1.68-1.57c-2.09,5.34-4.17,10.7-6.33,16l-6.41,16c-2.12,5.34-4.3,10.65-6.49,16l-6.55,15.94L149.9,258l-2.33-.47c-5-1-10-2.09-15-3.14l-15-3.18-.85-.18-.53-.6-10.12-11.54c-3.38-3.84-6.76-7.69-10.09-11.57l-.89-1,.61-1.1,5.9-10.56,6-10.52,6-10.49C115.71,190.13,117.8,186.67,119.84,183.19Z"/><polygon class="cls-1" points="212.1 195.68 205.16 205.54 217 201.37 222.35 211.22 215.46 219.71 226.41 218.7 226.7 228.13 219.75 229.87 226.92 232.66 225.95 241.32 219.67 239.79 223.56 246.97 215.84 248.26 208.7 243.13 208.13 250.11 197.38 250.65 192.39 244.13 191.95 254.6 186.28 252.67 181.12 248.5 178.92 254.63 173.11 255.17 171.95 247.67 166.53 256.42 159.31 249 160.41 257.99 148.67 258.84 152.81 266.47 148.69 273.06 141.9 272.1 145.53 278.78 141.23 285.82 132.31 285.95 138.43 293.64 133.4 302.85 141.75 299.77 143.4 307.6 149.81 304.12 156.68 308.81 154.68 313.09 161.43 311.14 164.9 317.14 167.37 315.8 163.09 311.15 161.18 304.92 158.74 309.46 153.19 305.19 152.06 300.29 146.37 300.76 141.67 296.62 139.56 295.74 141.38 291.56 147.06 291.08 145.43 285 146.49 280.54 157.49 279.91 151.8 273.7 158.95 272.44 154.15 268.08 158.4 261.18 166.19 260.08 173.55 268.29 175.63 258.74 182.82 257.17 185.99 263 190.22 257.8 201.46 255.48 206.92 261.81 211.59 254.34 219.19 252.83 224.69 260.3 227.54 249.22 237.3 242.13 229.3 240.95 228.05 236.21 236.36 232.77 230.25 231.73 230.44 226.98 236.52 222.22 230.4 221.77 227.48 216.38 231.82 210.54 223.46 208.98 224.1 199.33 215.62 199.32 217.52 191.58 210.27 192.31 201.71 187.95 202.57 195.5 193.79 193.7 189.71 198.72 183.53 197.81 182.63 200.49 184.19 203.84 193.56 197.75 201.97 197.11 202.36 200.38 209.87 194.56 212.1 195.68"/><path class="cls-2" d="M164.6,205c3.86-1.18,7.71-2.4,11.58-3.53l11.61-3.42,11.62-3.35,11.65-3.28,1.21-.34.8,1.11c3,4.15,6,8.33,8.91,12.51l8.85,12.54.46.65,0,.88-.39,15.27c-.15,5.1-.24,10.19-.44,15.28l-.09,2.38-2.36.37-17,2.64c-5.67.89-11.34,1.77-17,2.59l-17,2.5c-5.68.85-11.37,1.63-17.06,2.42l1.93-1.28c-3.82,6-7.58,12.05-11.44,18l-5.78,9c-1.94,3-3.84,6-5.8,9l-.64-2.71,10.71,7.13c3.58,2.37,7.11,4.79,10.67,7.19s7.09,4.82,10.62,7.26,7,4.91,10.56,7.37c-3.75-2.09-7.52-4.14-11.25-6.27s-7.46-4.23-11.17-6.38-7.44-4.26-11.13-6.44L136,297.56l-1.63-.95,1-1.76c1.77-3.09,3.6-6.14,5.39-9.21l5.41-9.21c3.58-6.15,7.28-12.23,10.92-18.35l.63-1.06,1.3-.21c5.66-.93,11.33-1.87,17-2.73l17-2.65c5.67-.9,11.35-1.73,17-2.56l17-2.5-2.45,2.74c.2-5.09.49-10.18.74-15.27l.78-15.26.43,1.52-8.35-12.88c-2.78-4.29-5.57-8.58-8.3-12.91l2,.77-11.81,2.6-11.83,2.53-11.85,2.45C172.53,203.49,168.56,204.23,164.6,205Z"/><polygon class="cls-1" points="270.79 274.59 260.3 268.62 265.6 280.02 256.3 286.28 247.19 280.23 249.24 291.04 239.88 292.23 237.48 285.47 235.4 292.88 226.68 292.75 227.6 286.34 220.83 290.91 218.81 283.34 223.23 275.74 216.22 275.85 214.66 265.2 220.68 259.61 210.21 260.17 211.59 254.34 215.24 248.8 208.93 247.2 207.84 241.47 215.2 239.59 205.97 235.03 212.66 227.14 203.81 229.1 201.85 217.49 194.65 222.34 187.69 218.87 188 212.02 181.7 216.27 174.28 212.67 173.3 203.8 166.22 210.63 156.57 206.5 160.44 214.52 152.81 216.91 156.89 222.96 152.87 230.25 148.42 228.66 151.01 235.19 145.37 239.22 146.94 241.55 151.16 236.84 157.18 234.35 152.43 232.36 156.15 226.43 160.92 224.83 159.9 219.21 163.57 214.14 164.25 211.95 168.59 213.36 169.6 218.98 175.5 216.77 180.03 217.39 181.72 228.28 187.35 222.03 189.3 229.03 193.17 223.83 200.45 227.4 202.29 235.05 194.82 243.16 204.53 244.32 206.78 251.32 201.28 255.03 206.86 258.75 210.24 269.71 204.47 275.76 212.34 279.69 214.58 287.11 207.67 293.31 218.97 295.08 226.96 304.12 227.37 296.04 231.97 294.34 236.19 302.29 236.64 296.1 241.39 295.83 246.7 301.44 246.57 295.3 251.65 291.88 257.88 295.64 258.64 287.17 268.3 286.89 267.5 278.44 275.39 279.59 273.96 272.45 277.49 263.51 270.06 265.08 271.01 256.18 265.62 252.59 265.93 246.36 263.18 245.71 259.99 247.59 266.95 256.34 268.4 264.64 265.17 265.34 271.68 272.26 270.79 274.59"/><path class="cls-2" d="M257,228.2c1.54,3.73,3.12,7.44,4.62,11.19l4.51,11.23,4.45,11.25,4.37,11.28.46,1.17-1,.91c-3.84,3.38-7.72,6.71-11.6,10l-11.63,10-.61.51-.87.07-15.25,1.06c-5.08.34-10.16.74-15.25,1l-2.37.14-.59-2.32-4.26-16.69c-1.43-5.57-2.85-11.13-4.21-16.71l-4.12-16.72c-1.39-5.57-2.71-11.16-4-16.75l1.45,1.79c-6.34-3.22-12.71-6.39-19-9.66l-9.49-4.9c-3.16-1.64-6.34-3.24-9.48-4.91l2.63-.89-6.07,11.34c-2,3.78-4.09,7.53-6.13,11.3s-4.12,7.53-6.21,11.27-4.21,7.48-6.32,11.21c1.71-3.93,3.4-7.88,5.16-11.79s3.49-7.83,5.28-11.73,3.53-7.82,5.35-11.7l5.41-11.67.8-1.72,1.84.83c3.24,1.46,6.46,3,9.69,4.48l9.68,4.5c6.46,3,12.87,6.09,19.31,9.12l1.11.53.34,1.27c1.47,5.55,2.94,11.1,4.34,16.67L213.46,261c1.44,5.55,2.82,11.13,4.19,16.71l4.12,16.72-3-2.18c5.09-.29,10.18-.48,15.27-.72l15.27-.69-1.48.58,12-9.54c4-3.18,8-6.37,12.06-9.5l-.58,2.08-3.72-11.51L264,251.36l-3.58-11.56C259.23,236,258.11,232.07,257,228.2Z"/><polygon class="cls-1" points="163.76 287.62 175.35 284.27 167.54 294.11 175.12 302.37 185.39 298.61 180.88 308.65 189.69 311.99 193.6 305.98 193.9 313.67 202.41 315.57 203.01 309.13 208.53 315.15 212.26 308.26 209.73 299.84 216.53 301.58 220.53 291.59 215.99 284.75 226.03 287.74 226.05 281.75 223.79 275.51 230.3 275.43 232.7 270.11 225.99 266.57 236.02 264.29 231.36 255.06 239.5 259.02 244.13 248.2 249.99 254.59 257.57 252.84 258.86 246.11 264 251.71 272.06 249.94 275.08 241.55 280.37 249.84 290.71 248.08 285.08 254.97 291.94 259.07 286.57 264.01 288.77 272.03 293.47 271.53 289.42 277.27 293.97 282.51 291.9 284.41 288.89 278.85 283.63 275.02 288.71 274.19 286.48 267.55 282.21 264.88 284.51 259.66 282.13 253.87 281.98 251.59 277.43 251.94 275.14 257.17 269.91 253.65 265.36 253.19 261.18 263.39 257.16 255.99 253.63 262.34 251.08 256.38 243.17 258.15 239.6 265.17 244.97 274.8 235.26 273.66 231.43 279.94 235.91 284.83 229.62 287.15 223.77 297.01 227.98 304.24 219.4 306.22 215.49 312.92 220.77 320.56 209.36 319.65 199.49 326.57 200.97 318.62 196.9 315.89 190.93 322.63 191.94 316.51 187.39 315.14 180.91 319.35 182.48 313.41 178.34 308.9 171.4 311.1 172.64 302.69 163.31 300.16 166.06 292.14 158.12 291.41 161.17 284.8 159.83 275.29 166.69 278.55 167.84 269.67 173.92 267.44 175.07 261.31 177.9 261.32 180.56 263.89 171.75 270.77 168.41 278.51 171.38 279.94 163.44 285.15 163.76 287.62"/><path class="cls-2" d="M188,245.74c-2,3.49-4,7-6.08,10.47l-6.18,10.41L169.54,277l-6.31,10.33-.07-2.16q4.8,6,9.51,12.06l9.47,12.08-1.3-.91,14.68,4.24c4.89,1.42,9.8,2.79,14.68,4.26l-3.4,1.43,7.92-15.3c2.63-5.1,5.27-10.2,8-15.27l8-15.24c2.67-5.08,5.4-10.14,8.12-15.19l.62-1.16,1.21-.25c7-1.45,13.92-3,20.9-4.36L272,249.43c3.49-.7,7-1.43,10.47-2.1l2-.37.37,1.86,2.54,12.6c.87,4.2,1.65,8.42,2.48,12.63s1.61,8.42,2.39,12.64,1.51,8.45,2.27,12.67c-1.19-4.12-2.4-8.24-3.53-12.38s-2.3-8.26-3.41-12.41-2.26-8.27-3.33-12.42L281,249.71l2.36,1.48c-3.45.89-6.91,1.71-10.36,2.56l-10.37,2.55c-6.91,1.71-13.85,3.29-20.77,4.95l1.83-1.4c-2.6,5.12-5.18,10.25-7.84,15.34L228,290.49c-2.62,5.11-5.3,10.19-8,15.26l-8,15.24-1.11,2.11-2.28-.69c-4.88-1.47-9.73-3-14.59-4.56l-14.58-4.59-.83-.26-.47-.65-9-12.45c-3-4.15-6-8.3-8.93-12.49l-.79-1.12.71-1,6.89-9.95,6.95-9.9,7-9.87C183.26,252.25,185.67,249,188,245.74Z"/><polygon class="cls-1" points="317.93 385.84 329.69 383.13 318.08 378.33 320.68 367.42 331.48 365.71 322.66 359.14 328.74 351.93 335.08 355.28 331.6 348.41 338.1 342.62 341.76 347.95 343.66 340 350.26 344.21 352.15 352.8 357.24 347.97 365.6 354.75 364.96 362.94 372.28 355.44 375.21 360.66 376.27 367.21 382 364.12 386.68 367.6 382.54 373.96 392.42 371.07 392.83 381.4 398.02 373.98 407.32 381.19 409.34 372.74 416.81 370.59 421.22 375.84 422.98 368.45 430.88 366.07 437.61 371.94 438.19 362.13 448.09 358.63 439.81 355.34 443.81 348.42 436.71 346.73 434.74 338.64 439.09 336.8 432.76 333.75 434.18 326.96 431.45 326.31 431.53 332.63 428.79 338.54 433.63 336.79 434.91 343.68 432.49 348.08 437.03 351.53 437.77 357.74 438.74 359.81 434.6 361.71 430.05 358.26 427.2 363.88 423.45 366.5 414.83 359.62 414.92 368.04 408.75 364.2 409.42 370.65 401.65 372.96 395.11 368.56 395.12 357.54 387.19 363.26 380.79 359.63 382.33 353.17 375.7 354.22 365.79 348.44 365.95 340.08 357.49 342.52 350.82 338.57 351.72 329.33 342.2 335.67 330.2 334.43 335.37 340.65 333.13 345.02 324.64 342.03 328.5 346.89 325.19 350.3 317.48 349.77 321.74 354.2 320.31 360.16 313.18 361.61 318.36 368.35 311.44 375.1 317.74 380.77 311.16 385.27 317.04 389.56 320.5 398.53 324.9 392.34 330.24 399.54 336.63 398.53 340.62 403.33 343.08 401.94 344.16 398.4 333.11 396.67 326.42 391.54 328.32 388.84 318.85 388.16 317.93 385.84"/><path class="cls-2" d="M359.52,410.62c-3.66-1.71-7.34-3.37-11-5.11l-10.92-5.21L326.72,395l-10.85-5.34-1.13-.55.15-1.37c.53-5.09,1.13-10.17,1.72-15.25l1.79-15.25.09-.79.6-.63,10.5-11.11c3.51-3.69,7-7.42,10.53-11.08l1.66-1.71,2,1.31,14.44,9.4c4.81,3.13,9.62,6.26,14.4,9.45L387,361.63c4.79,3.15,9.55,6.37,14.31,9.59l-2.29-.34c6.86-1.92,13.69-3.91,20.56-5.77l10.3-2.82c3.43-.94,6.85-1.91,10.3-2.81l-1.34,2.45-3.21-12.46c-1.08-4.15-2.09-8.32-3.13-12.48s-2.07-8.32-3.06-12.49-2-8.36-2.94-12.54c1.4,4.06,2.83,8.11,4.18,12.18s2.74,8.13,4.06,12.21,2.69,8.14,4,12.23l3.92,12.25.57,1.81-1.91.63c-3.38,1.12-6.78,2.18-10.17,3.27l-10.17,3.24c-6.77,2.18-13.59,4.23-20.38,6.36l-1.18.36-1.1-.7c-4.84-3.09-9.69-6.18-14.49-9.33l-14.43-9.4c-4.82-3.12-9.61-6.29-14.39-9.47l-14.36-9.51,3.66-.41c-3.55,3.66-7.16,7.25-10.75,10.87l-10.77,10.84.69-1.42-2.39,15.16c-.79,5.05-1.59,10.11-2.44,15.16l-1-1.92,10.54,5.95,10.49,6,10.46,6.09C352.6,406.45,356.05,408.55,359.52,410.62Z"/><polygon class="cls-1" points="843.02 292.93 854.93 291.08 845.94 299.85 852.41 309.01 863.08 306.58 857.33 315.96 865.65 320.4 870.29 314.93 869.61 322.6 877.8 325.56 879.22 319.25 883.93 325.92 888.51 319.57 887.07 310.89 893.58 313.48 898.82 304.08 895.18 296.72 904.77 300.96 905.55 295.02 904.1 288.54 910.57 289.29 913.62 284.32 907.41 279.95 917.65 278.96 914.2 269.21 921.77 274.18 927.73 264.03 932.74 271.12 940.48 270.34 942.62 263.83 947 270.04 955.22 269.3 959.28 261.36 963.47 270.25 973.96 269.82 967.5 275.95 973.78 280.88 967.83 285.09 968.99 293.33 973.72 293.44 968.98 298.62 972.82 304.39 970.52 306.01 968.25 300.11 963.51 295.64 968.66 295.46 967.29 288.6 963.39 285.41 966.34 280.52 964.71 274.48 964.85 272.19 960.29 271.97 957.36 276.86 952.62 272.7 948.16 271.68 942.72 281.26 939.67 273.41 935.37 279.26 933.59 273.03 925.52 273.78 921.09 280.29 925.19 290.52 915.71 288.15 911.11 293.9 914.94 299.32 908.4 300.82 901.35 309.87 904.6 317.57 895.84 318.45 891.12 324.6 895.38 332.84 884.19 330.49 873.51 336.1 875.99 328.41 872.3 325.18 865.53 331.11 867.31 325.17 862.96 323.23 856 326.59 858.31 320.89 854.77 315.89 847.61 317.2 849.91 309.01 840.98 305.32 844.72 297.71 836.94 295.98 840.81 289.81 840.68 280.2 847.07 284.31 849.35 275.64 855.65 274.21 857.58 268.27 860.38 268.64 862.69 271.53 853.08 277.23 848.78 284.49 851.55 286.28 843.01 290.44 843.02 292.93"/><path class="cls-2" d="M872.41,254.48c-2.45,3.2-4.87,6.43-7.36,9.61l-7.45,9.54-7.5,9.49-7.57,9.44.2-2.15c2.67,4.37,5.29,8.77,7.91,13.16l7.85,13.19-1.17-1.06,14,6.06c4.67,2,9.36,4,14,6.09l-3.54,1,9.79-14.17c3.26-4.73,6.52-9.46,9.84-14.14l9.91-14.09c3.28-4.71,6.63-9.38,10-14.05l.76-1.06,1.23-.1c7.1-.55,14.18-1.18,21.29-1.67l10.64-.77c3.55-.25,7.1-.54,10.66-.75l2-.12.13,1.89.92,12.83c.33,4.27.57,8.55.85,12.83s.54,8.56.77,12.85.44,8.57.64,12.85c-.65-4.24-1.33-8.48-1.93-12.72s-1.23-8.49-1.8-12.74-1.19-8.5-1.72-12.75l-1.66-12.76,2.15,1.77c-3.53.45-7.07.82-10.61,1.23l-10.6,1.21c-7.07.82-14.16,1.51-21.23,2.28l2-1.16c-3.22,4.75-6.44,9.51-9.72,14.22l-9.79,14.17c-3.25,4.74-6.55,9.44-9.86,14.13l-9.9,14.09-1.38,2-2.17-1c-4.65-2.08-9.26-4.25-13.89-6.38l-13.88-6.4-.79-.37-.38-.7-7.33-13.49c-2.44-4.5-4.88-9-7.27-13.52l-.64-1.21.84-.94,8.09-9,8.15-8.94,8.21-8.89C866.85,260.33,869.65,257.42,872.41,254.48Z"/><polygon class="cls-1" points="857.83 295.89 859.69 307.81 850.91 298.82 841.75 305.29 844.18 315.95 834.8 310.2 830.37 318.52 835.83 323.17 828.16 322.49 825.2 330.68 831.51 332.09 824.84 336.81 831.2 341.38 839.87 339.94 837.29 346.46 846.68 351.7 854.05 348.06 849.81 357.64 855.75 358.43 862.22 356.98 861.48 363.44 866.45 366.49 870.81 360.28 871.8 370.53 881.55 367.08 876.59 374.65 886.74 380.61 879.65 385.62 880.42 393.35 886.94 395.49 880.73 399.88 881.46 408.1 889.4 412.16 880.51 416.35 880.95 426.83 874.82 420.37 869.88 426.66 865.67 420.7 857.43 421.87 857.33 426.59 852.15 421.85 846.38 425.69 844.75 423.4 850.65 421.13 855.12 416.39 855.3 421.53 862.16 420.16 865.35 416.27 870.24 419.21 876.28 417.58 878.57 417.72 878.79 413.17 873.9 410.23 878.06 405.5 879.09 401.04 869.5 395.6 877.36 392.55 871.5 388.25 877.73 386.47 876.98 378.4 870.48 373.96 860.24 378.07 862.61 368.58 856.86 363.99 851.44 367.82 849.94 361.27 840.9 354.22 833.19 357.48 832.32 348.72 826.17 344 817.92 348.26 820.27 337.06 814.66 326.39 822.36 328.87 825.59 325.17 819.65 318.4 825.6 320.18 827.53 315.84 824.18 308.88 829.87 311.18 834.87 307.65 833.57 300.49 841.76 302.79 845.45 293.85 853.05 297.6 854.79 289.81 860.96 293.68 870.56 293.56 866.45 299.95 875.12 302.22 876.56 308.53 882.5 310.45 882.12 313.26 879.24 315.57 873.53 305.96 866.28 301.65 864.48 304.42 860.32 295.88 857.83 295.89"/><path class="cls-2" d="M896.29,325.29c-3.21-2.46-6.44-4.88-9.61-7.37l-9.54-7.44L867.65,303l-9.44-7.56,2.14.2c-4.37,2.67-8.76,5.28-13.16,7.9L834,311.37l1.07-1.18-6.07,14c-2,4.68-4,9.37-6.09,14l-1-3.55,14.17,9.79q7.1,4.89,14.14,9.84l14.09,9.91c4.71,3.29,9.37,6.64,14,10l1.06.76.1,1.24c.56,7.09,1.18,14.18,1.68,21.28l.77,10.65c.24,3.55.53,7.1.74,10.65l.13,2-1.9.14-12.82.92c-4.28.32-8.56.57-12.84.85s-8.56.53-12.84.77-8.57.43-12.86.64c4.24-.65,8.48-1.33,12.73-1.93s8.49-1.23,12.74-1.81,8.49-1.18,12.74-1.72L880.56,417l-1.77,2.15c-.44-3.54-.82-7.07-1.23-10.61l-1.21-10.61c-.82-7.07-1.51-14.15-2.27-21.23l1.16,2c-4.76-3.23-9.51-6.44-14.23-9.72l-14.17-9.79c-4.73-3.25-9.43-6.55-14.13-9.86l-14.09-9.91-2-1.37,1-2.18c2.08-4.65,4.25-9.26,6.37-13.89l6.41-13.87.36-.8.7-.38L845,299.62c4.5-2.44,9-4.89,13.52-7.28l1.21-.64.94.84,9,8.09,8.94,8.16,8.9,8.2C890.44,319.73,893.35,322.52,896.29,325.29Z"/><polygon class="cls-1" points="923.44 265.72 935.36 263.86 926.37 272.64 932.84 281.8 943.5 279.37 937.75 288.75 946.07 293.18 950.71 287.72 950.03 295.39 958.23 298.35 959.64 292.04 964.36 298.71 968.93 292.35 967.49 283.68 974.01 286.26 979.25 276.87 975.61 269.5 985.19 273.74 985.97 267.81 984.52 261.33 990.99 262.07 994.04 257.1 987.83 252.74 998.08 251.75 994.62 242 1002.2 246.96 1008.15 236.81 1013.16 243.9 1020.9 243.13 1023.04 236.61 1027.43 242.82 1035.64 242.09 1039.71 234.15 1043.9 243.04 1054.38 242.6 1047.92 248.73 1054.21 253.67 1048.25 257.88 1049.42 266.12 1054.14 266.22 1049.4 271.4 1053.24 277.17 1050.95 278.8 1048.67 272.9 1043.94 268.43 1049.08 268.25 1047.71 261.38 1043.82 258.2 1046.76 253.31 1045.13 247.26 1045.27 244.98 1040.72 244.76 1037.78 249.65 1033.04 245.49 1028.58 244.46 1023.14 254.05 1020.1 246.19 1015.79 252.05 1014.02 245.82 1005.94 246.57 1001.51 253.07 1005.62 263.31 996.13 260.94 991.53 266.69 995.36 272.11 988.82 273.61 981.77 282.65 985.03 290.36 976.26 291.23 971.54 297.38 975.81 305.63 964.61 303.28 953.94 308.88 956.42 301.19 952.72 297.96 945.95 303.9 947.73 297.95 943.38 296.02 936.43 299.37 938.73 293.68 935.2 288.68 928.04 289.98 930.33 281.8 921.4 278.1 925.15 270.5 917.36 268.76 921.23 262.59 921.11 252.99 927.5 257.1 929.77 248.43 936.08 246.99 938 241.05 940.8 241.43 943.12 244.31 933.51 250.02 929.2 257.27 931.97 259.07 923.43 263.23 923.44 265.72"/><path class="cls-2" d="M952.84,227.26c-2.46,3.21-4.88,6.44-7.37,9.61L938,246.41l-7.5,9.49L923,265.34l.2-2.14c2.67,4.37,5.28,8.76,7.9,13.16l7.85,13.19-1.17-1.07,14,6.07c4.67,2,9.37,4,14,6.09l-3.55,1L972,287.45c3.26-4.73,6.52-9.45,9.84-14.14l9.91-14.09c3.29-4.71,6.64-9.37,10-14l.76-1.06,1.23-.1c7.1-.55,14.19-1.18,21.29-1.68l10.65-.77c3.55-.24,7.09-.53,10.65-.74l2-.12.14,1.89.92,12.82c.32,4.28.57,8.56.85,12.84s.53,8.56.76,12.84.44,8.57.65,12.86c-.65-4.24-1.33-8.48-1.93-12.73s-1.24-8.49-1.81-12.74-1.19-8.49-1.72-12.74L1044.56,243l2.14,1.77c-3.53.44-7.07.82-10.6,1.23l-10.61,1.21c-7.07.82-14.15,1.51-21.23,2.27l2-1.16c-3.22,4.76-6.43,9.51-9.71,14.23l-9.8,14.17c-3.24,4.73-6.55,9.43-9.85,14.13L967,304.93l-1.38,1.95-2.17-1c-4.65-2.08-9.26-4.25-13.89-6.37l-13.88-6.41-.79-.36-.38-.7-7.32-13.49c-2.45-4.5-4.89-9-7.28-13.52l-.64-1.21.84-.94,8.09-9,8.16-8.94,8.2-8.9C947.27,233.11,950.07,230.2,952.84,227.26Z"/><polygon class="cls-1" points="1023.32 328.29 1014.41 320.15 1017.05 332.44 1006.6 336.49 999.05 328.57 998.66 339.56 989.27 338.66 988.43 331.54 984.75 338.3 976.29 336.24 978.6 330.2 970.99 333.15 970.69 325.33 976.68 318.9 969.83 317.45 970.66 306.72 977.76 302.6 967.43 300.83 970.06 295.45 974.85 290.86 969.05 287.9 969.25 282.07 976.84 281.87 968.85 275.38 977.12 269.16 968.07 269.11 968.71 257.36 960.62 260.5 954.6 255.58 956.42 248.97 949.33 251.71 942.89 246.56 943.9 237.69 935.49 242.78 926.99 236.63 928.99 245.31 921.02 245.94 923.66 252.75 918.13 258.97 914.13 256.44 915.22 263.38 908.83 266.06 909.85 268.68 915 265.02 921.42 263.92 917.23 260.93 922.17 255.96 927.17 255.46 927.43 249.76 932.12 245.63 933.27 243.65 937.19 245.98 936.93 251.68 943.18 250.83 947.46 252.44 946.7 263.43 953.57 258.58 953.92 265.83 958.85 261.62 965.16 266.71 965.26 274.58 956.18 280.84 965.39 284.12 966.04 291.45 959.85 293.85 964.48 298.71 965.35 310.15 958.38 314.77 965.2 320.34 965.73 328.07 957.62 332.58 968.25 336.82 974.04 347.39 976.23 339.61 981.09 338.97 983.45 347.65 985.26 341.72 989.95 342.51 993.89 349.15 995.12 343.13 1000.83 340.92 1006.07 345.96 1008.68 337.87 1018.17 339.74 1019.25 331.32 1026.7 334.19 1026.89 326.91 1032.3 318.97 1024.71 318.86 1027.6 310.38 1023.14 305.7 1024.83 299.69 1022.28 298.44 1018.76 299.57 1023.61 309.64 1023.19 318.06 1019.89 318.03 1024.7 326.22 1023.32 328.29"/><path class="cls-2" d="M1020.09,280c.67,4,1.4,7.95,2,11.94l1.92,11.95,1.85,11.95,1.77,12,.18,1.24-1.2.66c-4.49,2.45-9,4.84-13.54,7.24l-13.56,7.19-.7.37-.87-.13L982.87,342c-5-.79-10.07-1.53-15.1-2.37l-2.35-.39-.06-2.4-.46-17.22c-.16-5.74-.32-11.48-.41-17.22l-.32-17.22c-.13-5.74-.17-11.48-.23-17.22l1,2.07c-5.48-4.55-11-9.05-16.43-13.64l-8.17-6.87c-2.72-2.3-5.46-4.57-8.16-6.89l2.77-.29-8.43,9.72c-2.8,3.24-5.66,6.44-8.49,9.67s-5.68,6.42-8.54,9.61-5.76,6.36-8.65,9.54c2.54-3.46,5.06-6.93,7.64-10.36s5.14-6.87,7.75-10.27,5.17-6.85,7.8-10.23l7.86-10.18,1.16-1.5,1.61,1.21c2.84,2.15,5.64,4.35,8.46,6.52l8.45,6.53c5.64,4.33,11.2,8.78,16.81,13.16l1,.76,0,1.31c.2,5.74.41,11.48.55,17.22l.46,17.22c.17,5.74.28,11.48.38,17.22l.33,17.22L968.72,334c5,.84,10,1.78,15,2.67l15,2.71-1.56.24,13.83-6.65c4.62-2.21,9.23-4.43,13.87-6.6l-1,1.9-1.09-12.05-1-12.05-.93-12.07C1020.59,288.05,1020.36,284,1020.09,280Z"/><polygon class="cls-1" points="977.71 277.52 968.78 277.98 976.64 282.99 973.33 290.62 965.22 290.47 970.82 296.41 965.45 300.89 961.25 297.63 962.91 303.09 957.41 306.49 955.43 302.12 953.02 307.68 948.74 303.76 948.46 297.24 944.13 300.11 938.89 294.08 940.42 288.19 934.1 292.72 932.63 288.53 932.71 283.61 928.12 285.13 925.15 281.98 929 277.87 921.41 278.71 922.44 271.11 917.69 275.86 911.83 269.4 909.27 275.31 903.54 275.92 900.99 271.51 898.75 276.69 892.68 277.4 888.52 272.25 886.83 279.34 879.15 280.62 884.77 284.09 880.96 288.63 885.92 290.78 886.33 296.94 882.91 297.73 887.14 300.77 885.23 305.54 887.14 306.37 887.89 301.74 890.65 297.78 886.89 298.43 886.84 293.24 889.19 290.33 886.31 287.23 886.57 282.6 886.13 280.96 889.4 280.11 892.27 283.21 895.08 279.47 898.16 278.05 903.56 284.18 904.58 278.02 908.6 281.62 908.94 276.82 914.91 276.14 919.12 280.19 917.69 288.24 924.22 285.09 928.43 288.56 926.47 293.08 931.45 293.17 937.94 298.67 936.75 304.75 943.24 304.06 947.6 307.81 945.76 314.44 953.53 311.03 962.13 313.48 959.16 308.28 961.35 305.37 967.17 308.65 964.97 304.61 967.84 302.54 973.39 303.92 970.86 300.14 972.66 295.97 978.06 295.83 975.15 290.24 981.08 286.2 977.2 281.25 982.59 278.81 978.84 274.91 977.47 267.92 973.46 271.88 970.49 265.93 965.7 265.85 963.4 261.82 961.42 262.52 960.18 264.97 968.02 267.65 972.25 272.26 970.51 273.99 977.34 275.71 977.71 277.52"/><path class="cls-2" d="M950.54,254.07c2.44,1.72,4.9,3.43,7.33,5.18l7.28,5.24q7.27,5.25,14.48,10.59l.68.5-.26.88c-1,3.64-2.15,7.27-3.25,10.91l-3.29,10.89-.15.51-.47.35-9.11,6.75c-3,2.24-6.06,4.51-9.12,6.72l-1.29.94-1.16-1.1C946,306.6,939.74,300.82,933.58,295s-12.37-11.71-18.49-17.64l1.46.48c-5.25.53-10.49,1.11-15.75,1.59L885,280.87l1.16-1.45.77,9.51.72,9.51q.71,9.51,1.24,19.05-1.49-9.44-2.79-18.88l-1.3-9.45-1.25-9.46-.17-1.27,1.33-.18,15.69-2.09c5.23-.71,10.47-1.33,15.71-2l.82-.1.64.59c6.28,5.75,12.47,11.6,18.7,17.42s12.36,11.71,18.55,17.56l-2.45-.16c3.06-2.21,6.16-4.37,9.24-6.56l9.26-6.54-.62.86L974,286.45q1.83-5.38,3.71-10.76l.42,1.37q-6.95-5.67-13.84-11.41l-6.88-5.76C955.07,258,952.81,256,950.54,254.07Z"/><polygon class="cls-1" points="846.03 350.17 845.57 341.23 840.56 349.09 832.93 345.78 833.08 337.68 827.14 343.27 822.66 337.91 825.92 333.71 820.46 335.36 817.06 329.87 821.43 327.88 815.87 325.47 819.79 321.19 826.31 320.92 823.44 316.58 829.47 311.35 835.36 312.87 830.83 306.56 835.02 305.09 839.95 305.16 838.42 300.58 841.57 297.61 845.68 301.45 844.84 293.87 852.44 294.89 847.69 290.15 854.15 284.28 848.25 281.72 847.63 275.99 852.04 273.44 846.86 271.2 846.15 265.13 851.3 260.97 844.21 259.28 842.93 251.6 839.46 257.22 834.92 253.41 832.77 258.38 826.61 258.78 825.82 255.36 822.78 259.59 818.01 257.68 817.18 259.59 821.81 260.35 825.77 263.11 825.12 259.34 830.31 259.3 833.22 261.64 836.32 258.76 840.95 259.03 842.59 258.58 843.44 261.85 840.34 264.73 844.08 267.53 845.5 270.61 839.37 276.02 845.53 277.04 841.93 281.05 846.73 281.39 847.41 287.37 843.36 291.57 835.31 290.15 838.46 296.67 834.99 300.88 830.47 298.92 830.38 303.9 824.88 310.39 818.8 309.2 819.49 315.69 815.74 320.05 809.11 318.21 812.52 325.98 810.07 334.58 815.27 331.61 818.18 333.81 814.9 339.62 818.95 337.43 821.01 340.29 819.63 345.85 823.41 343.31 827.58 345.12 827.72 350.51 833.32 347.6 837.35 353.53 842.3 349.65 844.74 355.04 848.64 351.3 855.63 349.93 851.67 345.91 857.62 342.95 857.71 338.15 861.73 335.85 861.03 333.87 858.58 332.63 855.9 340.47 851.29 344.7 849.56 342.96 847.84 349.79 846.03 350.17"/><path class="cls-2" d="M869.48,323c-1.72,2.44-3.43,4.9-5.18,7.33l-5.24,7.28q-5.25,7.27-10.59,14.48l-.5.68-.88-.25c-3.64-1.06-7.27-2.16-10.91-3.26L825.29,346l-.51-.15-.35-.47-6.75-9.11c-2.24-3-4.51-6.06-6.72-9.12l-.94-1.29,1.1-1.16C817,318.45,822.73,312.2,828.6,306s11.71-12.37,17.64-18.48l-.48,1.46c-.53-5.26-1.11-10.5-1.59-15.76l-1.49-15.76,1.45,1.16-9.51.76-9.51.72c-6.34.48-12.69.88-19.05,1.24q9.44-1.47,18.88-2.79l9.45-1.3,9.46-1.25,1.27-.17.18,1.33,2.09,15.7c.71,5.23,1.33,10.47,2,15.7l.1.82-.59.64c-5.75,6.28-11.6,12.47-17.42,18.7s-11.71,12.36-17.56,18.55l.16-2.45c2.21,3.06,4.37,6.16,6.56,9.24l6.54,9.26-.86-.62,10.78,3.68q5.39,1.83,10.76,3.71l-1.37.43q5.67-7,11.41-13.85l5.76-6.88C865.58,327.52,867.54,325.27,869.48,323Z"/><polygon class="cls-1" points="747.06 310.05 756.7 317.3 752.9 305.33 762.92 300.29 771.18 307.45 770.52 296.47 779.95 296.47 781.47 303.48 784.49 296.4 793.11 297.64 791.38 303.87 798.68 300.2 799.73 307.97 794.38 314.94 801.34 315.73 801.54 326.49 794.86 331.27 805.32 332.04 803.21 337.65 798.88 342.68 804.94 345.07 805.29 350.89 797.76 351.82 806.33 357.51 798.7 364.49 807.72 363.67 808.2 375.43 815.95 371.53 822.41 375.86 821.23 382.61 828.03 379.2 834.93 383.71 834.78 392.63 842.66 386.76 851.71 392.08 848.89 383.63 856.76 382.24 853.49 375.72 858.39 369 862.61 371.13 860.87 364.33 866.97 361.04 865.71 358.53 860.93 362.67 854.65 364.38 859.1 366.96 854.66 372.37 849.73 373.35 850.02 379.05 845.74 383.62 844.78 385.7 840.66 383.75 840.37 378.05 834.24 379.49 829.82 378.3 829.53 367.28 823.15 372.78 822.11 365.58 817.6 370.25 810.84 365.79 809.99 357.96 818.42 350.86 808.94 348.48 807.59 341.25 813.52 338.27 808.46 333.87 806.49 322.57 812.99 317.3 805.67 312.41 804.4 304.76 812.04 299.49 801.06 296.3 794.28 286.32 792.85 294.28 788.07 295.39 784.89 286.96 783.66 293.05 778.92 292.71 774.36 286.47 773.71 292.58 768.24 295.33 762.53 290.81 760.71 299.12 751.09 298.17 750.81 306.64 743.13 304.51 743.63 311.77 739.01 320.19 746.58 319.57 744.5 328.29 749.39 332.52 748.29 338.67 750.94 339.66 754.34 338.2 748.55 328.64 748.17 320.22 751.45 319.94 745.88 312.25 747.06 310.05"/><path class="cls-2" d="M754.89,357.82c-1-3.9-2.15-7.78-3.16-11.69l-3.06-11.71-3-11.72L742.78,311l-.3-1.22,1.13-.77c4.24-2.87,8.52-5.69,12.79-8.51L769.21,292l.66-.44.88.05,15.25.88c5.09.3,10.18.56,15.26.91l2.37.17.3,2.37,2.11,17.1c.7,5.7,1.41,11.4,2,17.1l2,17.12c.68,5.7,1.27,11.41,1.88,17.12l-1.21-2c5.88,4,11.81,7.95,17.66,12l8.79,6.06c2.92,2,5.87,4,8.78,6.08l-2.73.55,7.46-10.48c2.48-3.5,5-7,7.52-10.44s5-6.94,7.59-10.39,5.12-6.88,7.69-10.32c-2.2,3.69-4.37,7.39-6.61,11s-4.46,7.33-6.73,11-4.49,7.31-6.79,10.93l-6.85,10.88-1,1.61-1.72-1.06c-3-1.86-6-3.78-9-5.67l-9-5.69c-6-3.78-12-7.67-18-11.5l-1-.66-.17-1.3c-.75-5.69-1.51-11.39-2.2-17.09l-2.1-17.09c-.72-5.7-1.38-11.4-2-17.11l-2-17.11,2.67,2.54c-5.08-.36-10.16-.82-15.24-1.22l-15.23-1.26,1.54-.39-13.14,7.94c-4.38,2.65-8.76,5.3-13.17,7.89l.83-2,2.24,11.89,2.15,11.9,2.08,11.92C753.62,349.85,754.23,353.84,754.89,357.82Z"/><polygon class="cls-1" points="730.14 303.25 718.35 305.83 729.91 310.76 727.18 321.64 716.37 323.23 725.12 329.89 718.96 337.04 712.66 333.62 716.06 340.52 709.5 346.25 705.89 340.88 703.91 348.8 697.35 344.53 695.55 335.92 690.41 340.68 682.13 333.81 682.86 325.63 675.46 333.05 672.58 327.8 671.6 321.23 665.84 324.27 661.19 320.74 665.4 314.42 655.5 317.2 655.19 306.86 649.92 314.23 640.7 306.92 638.59 315.34 631.1 317.41 626.75 312.11 624.9 319.49 616.98 321.77 610.32 315.84 609.62 325.64 599.69 329.03 607.93 332.41 603.85 339.28 610.93 341.05 612.82 349.16 608.45 350.96 614.75 354.08 613.25 360.85 615.98 361.53 615.96 355.21 618.76 349.33 613.9 351.02 612.7 344.13 615.18 339.75 610.67 336.25 610 330.03 609.05 327.95 613.21 326.1 617.72 329.59 620.63 324.01 624.42 321.44 632.95 328.41 632.96 319.98 639.08 323.89 638.49 317.43 646.29 315.21 652.77 319.68 652.64 330.7 660.63 325.07 667 328.77 665.38 335.21 672.02 334.24 681.87 340.12 681.62 348.48 690.1 346.13 696.73 350.16 695.73 359.39 705.32 353.15 717.3 354.52 712.21 348.25 714.49 343.9 722.95 346.99 719.14 342.08 722.49 338.71 730.19 339.32 725.98 334.85 727.47 328.9 734.62 327.54 729.52 320.73 736.51 314.06 730.27 308.32 736.9 303.89 731.07 299.54 727.71 290.54 723.24 296.68 717.99 289.42 711.59 290.36 707.65 285.51 705.16 286.88 704.05 290.41 715.08 292.25 721.71 297.46 719.78 300.13 729.24 300.92 730.14 303.25"/><path class="cls-2" d="M688.83,278c3.64,1.74,7.3,3.45,10.92,5.23l10.86,5.32L721.45,294l10.79,5.46,1.12.57-.16,1.36c-.59,5.08-1.24,10.16-1.89,15.24l-1.95,15.22-.11.79-.6.63-10.63,11c-3.55,3.65-7.06,7.34-10.64,11l-1.68,1.69-2-1.32L689.38,346c-4.78-3.18-9.56-6.37-14.3-9.61l-14.25-9.68c-4.76-3.2-9.48-6.48-14.2-9.74l2.28.36c-6.88,1.84-13.73,3.76-20.62,5.55L618,325.57c-3.44.9-6.88,1.83-10.33,2.69l1.36-2.42,3.07,12.49c1,4.16,2,8.34,3,12.51s2,8.34,2.92,12.53,1.88,8.37,2.81,12.56c-1.36-4.07-2.75-8.13-4-12.22s-2.65-8.16-3.93-12.25-2.6-8.18-3.85-12.28l-3.77-12.29-.56-1.81,1.92-.62c3.39-1.08,6.8-2.1,10.2-3.15L627,318.18c6.8-2.1,13.63-4.08,20.45-6.13l1.18-.36,1.1.72c4.8,3.14,9.61,6.28,14.38,9.48l14.33,9.56c4.79,3.17,9.54,6.4,14.28,9.63l14.26,9.67-3.67.37c3.59-3.62,7.25-7.17,10.87-10.75L725,329.65l-.71,1.41,2.56-15.13c.85-5.05,1.7-10.09,2.61-15.13l1,1.93L720,296.66l-10.42-6.14-10.39-6.2C695.7,282.26,692.27,280.12,688.83,278Z"/><polygon class="cls-1" points="673.25 287.18 684.06 292.54 671.65 294.52 671.65 305.73 681.76 309.9 671.65 314.24 675.89 322.67 682.84 320.88 677.85 326.75 682.84 333.9 687.63 329.56 687.63 337.73 695.04 335.18 698.87 327.27 702.7 333.14 712.4 328.49 713.67 320.37 719.06 329.37 723.12 324.97 725.67 318.84 730.53 323.18 735.89 320.88 733.33 313.73 742.27 318.84 745.08 308.88 748.4 317.31 759.12 312.46 759.12 321.14 765.88 324.97 771.39 320.88 771.39 328.49 778.53 332.63 786.43 328.49 784.72 338.16 793.53 343.86 784.72 345.14 787 352.8 779.71 352.8 775.91 360.2 779.71 363.01 772.85 364.51 772.65 371.44 769.85 371.44 771.39 365.31 770.1 358.93 774.41 361.75 777.25 355.35 775.91 350.5 781.13 348.2 783.29 342.33 784.72 340.54 781.13 337.73 775.91 340.03 774.44 333.9 771.39 330.49 761.42 335.18 763.46 327.01 756.57 329.31 758.71 323.19 751.69 319.15 744.31 321.9 741.76 332.63 735.38 325.22 728.31 327.27 728.31 333.9 722.1 331.35 711.12 334.67 709.33 342.84 701.67 338.5 694.27 340.8 692.99 349.99 685.21 341.61 673.25 340.03 679.72 335.18 678.56 330.41 669.61 331.35 674.49 327.52 672.06 323.44 664.44 322.16 669.61 318.84 669.61 312.71 663.01 309.65 669.61 304.29 664.44 296.12 671.89 292.06 666.53 286.16 673.25 283.35 678.7 275.44 681.54 282.48 688.4 276.71 694.38 279.18 699.38 275.44 701.46 277.36 701.67 281.05 690.53 280.17 682.84 283.61 684.06 286.67 674.68 285.14 673.25 287.18"/><path class="cls-2" d="M719.45,272.73c-3.85,1.2-7.69,2.45-11.56,3.61l-11.58,3.49-11.61,3.42-11.62,3.34,1.4-1.63c-.34,5.11-.74,10.21-1.14,15.31l-1.2,15.3L671.8,314l8,13.05c2.64,4.36,5.33,8.69,7.93,13.07l-3.47-1.25L700.4,333c5.39-2,10.78-4,16.19-5.87l16.23-5.79c5.4-1.95,10.83-3.83,16.25-5.71l1.24-.43,1.06.63c6.11,3.64,12.26,7.22,18.35,10.92l9.14,5.51c3,1.85,6.1,3.66,9.13,5.54l1.71,1.06-1,1.62-6.65,11c-2.2,3.68-4.47,7.32-6.71,11s-4.5,7.3-6.78,10.94-4.59,7.25-6.9,10.87c1.92-3.84,3.81-7.7,5.77-11.51s3.89-7.65,5.88-11.45,3.93-7.62,5.95-11.4l6-11.37.73,2.68c-3.14-1.67-6.25-3.41-9.37-5.12l-9.36-5.13c-6.25-3.41-12.44-6.93-18.66-10.39l2.3.2c-5.37,2-10.74,4.05-16.14,6l-16.18,5.93c-5.38,2-10.79,3.92-16.2,5.84l-16.22,5.8-2.25.8-1.22-2.05c-2.6-4.38-5.11-8.81-7.67-13.22l-7.63-13.24-.44-.76.09-.79,1.81-15.24c.6-5.08,1.2-10.16,1.86-15.24l.17-1.36,1.23-.28,11.8-2.67,11.81-2.6,11.84-2.53C711.53,274.3,715.5,273.54,719.45,272.73Z"/><polygon class="cls-1" points="659.29 384.53 665.66 374.28 666.44 386.82 677.61 387.89 682.72 378.23 686.08 388.71 694.87 385.3 693.75 378.21 699.12 383.73 706.72 379.46 702.86 374.27 710.99 375.05 709.15 367.43 701.64 362.86 707.85 359.61 704.15 349.51 696.2 347.46 705.66 342.97 701.67 338.5 695.82 335.37 700.6 330.96 698.83 325.4 691.47 327.26 697.41 318.85 687.76 315.1 696.47 312.61 692.66 301.47 701.31 302.3 705.76 295.93 702.23 290.06 709.79 290.79 714.6 284.08 711.23 275.82 720.7 278.44 727.22 270.22 727.64 279.11 735.49 277.57 734.79 284.83 741.8 289.32 744.96 285.81 745.79 292.79 752.67 293.64 752.4 296.44 746.45 294.31 739.97 294.98 743.19 290.97 737.1 287.53 732.14 288.4 730.35 282.98 724.71 280.27 723.07 278.67 719.93 281.98 721.72 287.39 715.48 288.27 711.79 290.98 715.5 301.35 707.57 298.54 709.19 305.62 703.31 302.9 698.61 309.51 700.65 317.11 711.08 320.68 703.1 326.32 704.46 333.56 711.07 334.19 707.93 340.13 710.18 351.37 718.15 353.93 713.09 361.14 714.67 368.73 723.7 370.88 714.61 377.83 711.9 389.58 707.69 382.68 702.83 383.38 702.91 392.38 699.57 387.15 695.27 389.18 693.27 396.64 690.46 391.18 684.36 390.6 680.68 396.87 675.97 389.79 667.34 394.15 664.02 386.35 657.63 391.12 655.48 384.16 648.12 377.98 655.4 375.82 650.32 368.45 653.35 362.73 650.1 357.4 652.21 355.51 655.91 355.65 653.96 366.65 656.65 374.64 659.82 373.72 657.39 382.91 659.29 384.53"/><path class="cls-2" d="M649.33,337.16c.83,3.95,1.7,7.89,2.48,11.85l2.37,11.87,2.29,11.87,2.22,11.9-1.49-1.56c5,.83,10.09,1.72,15.13,2.6l15.12,2.66-1.58.19,13.75-6.68c4.59-2.21,9.16-4.47,13.76-6.64l-1.56,3.33-4.35-16.67c-1.46-5.55-2.91-11.11-4.3-16.68L699,328.5c-1.42-5.56-2.77-11.15-4.13-16.73l-.31-1.27.73-1c4.21-5.74,8.36-11.52,12.62-17.23l6.37-8.57c2.13-2.85,4.22-5.73,6.38-8.56l1.22-1.6,1.52,1.13,10.32,7.67c3.45,2.55,6.86,5.15,10.28,7.73s6.84,5.18,10.24,7.8,6.78,5.27,10.16,7.9c-3.64-2.27-7.29-4.52-10.9-6.84s-7.24-4.6-10.83-6.94-7.22-4.64-10.79-7l-10.74-7.08,2.74-.47c-2,3-4,5.89-6,8.84l-6,8.83c-4,5.89-8.08,11.71-12.12,17.57l.42-2.27c1.5,5.55,3,11.09,4.43,16.65l4.36,16.67c1.46,5.55,2.87,11.11,4.27,16.68l4.21,16.71.59,2.31-2.16,1c-4.61,2.17-9.26,4.24-13.89,6.36L688,393.15l-.8.36-.77-.17-15-3.25c-5-1.08-10-2.17-15-3.31l-1.33-.3-.16-1.25-1.54-12-1.45-12-1.39-12C650.13,345.19,649.76,341.17,649.33,337.16Z"/><polygon class="cls-1" points="771.88 349.67 759.9 351.11 770.93 357.12 767.18 367.69 756.26 368.24 764.33 375.71 757.52 382.23 751.57 378.22 754.3 385.42 747.22 390.49 744.15 384.8 741.41 392.5 735.29 387.62 734.33 378.88 728.76 383.13 721.17 375.5 722.68 367.43 714.6 374.1 712.24 368.6 711.88 361.97 705.86 364.44 701.58 360.48 706.37 354.59 696.24 356.42 696.93 346.09 690.98 352.92 682.5 344.76 679.6 352.95 671.94 354.29 668.12 348.6 665.57 355.77 657.47 357.28 651.4 350.74 649.77 360.43 639.57 362.85 647.44 367 642.73 373.45 649.6 375.89 650.71 384.14 646.19 385.52 652.15 389.23 650.02 395.82 652.66 396.76 653.26 390.47 656.61 384.88 651.61 386.1 651.07 379.12 653.95 375 649.8 371.09 649.73 364.83 648.98 362.67 653.3 361.22 657.46 365.14 660.89 359.85 664.9 357.65 672.73 365.41 673.54 357.03 679.27 361.5 679.29 355.02 687.27 353.56 693.29 358.62 692.11 369.58 700.61 364.74 706.59 369.03 704.37 375.28 711.07 374.95 720.3 381.75 719.25 390.05 727.92 388.52 734.13 393.17 732.26 402.25 742.4 396.96 754.2 399.48 749.73 392.74 752.41 388.63 760.54 392.51 757.22 387.27 760.88 384.23 768.48 385.58 764.72 380.72 766.77 374.95 774.01 374.27 769.59 367.01 777.19 361.04 771.52 354.73 778.55 350.95 773.16 346.06 770.67 336.78 765.64 342.46 761.11 334.74 754.64 335.06 751.18 329.86 748.58 330.98 747.14 334.39 757.94 337.28 764.04 343.09 761.86 345.57 771.21 347.26 771.88 349.67"/><path class="cls-2" d="M733.17,320.6c3.46,2.08,6.94,4.13,10.37,6.25l10.31,6.34,10.27,6.4,10.22,6.47,1.06.67-.29,1.34c-1.07,5-2.21,10-3.34,15l-3.4,15-.18.78-.66.57-11.63,9.92c-3.88,3.3-7.73,6.63-11.65,9.89l-1.83,1.53-1.85-1.52-13.35-10.88q-6.68-5.43-13.31-10.93l-13.26-11c-4.44-3.65-8.82-7.36-13.21-11.06l2.23.58c-7,1.18-14,2.43-21,3.55l-10.54,1.71c-3.51.56-7,1.16-10.54,1.69l1.59-2.29L651,373.29c.63,4.24,1.19,8.49,1.79,12.74s1.16,8.49,1.71,12.75,1.06,8.51,1.59,12.77c-1-4.18-2-8.36-2.87-12.55s-1.85-8.37-2.73-12.57-1.81-8.38-2.66-12.59l-2.58-12.6-.38-1.85,2-.43c3.48-.75,7-1.44,10.45-2.16l10.46-2.14c7-1.45,14-2.76,21-4.15l1.21-.24,1,.82c4.48,3.59,9,7.17,13.41,10.82l13.35,10.88c4.46,3.61,8.88,7.28,13.3,10.95l13.26,11h-3.68c3.91-3.26,7.89-6.44,11.84-9.66l11.87-9.63-.84,1.35,4-14.83c1.33-4.94,2.66-9.88,4.05-14.81l.77,2-9.84-7L752.61,335l-9.75-7.17C739.6,325.48,736.4,323,733.17,320.6Z"/><polygon class="cls-1" points="703.65 351.1 698.17 358.17 707.09 355.48 710.71 362.96 705.31 369.01 713.46 368.64 713.36 375.64 708.14 376.69 713.37 379 712.35 385.38 707.75 384.04 710.39 389.49 704.62 390.18 699.51 386.13 698.85 391.29 690.87 391.32 687.39 386.32 686.71 394.06 682.57 392.44 678.89 389.17 677.05 393.64 672.73 393.84 672.13 388.24 667.81 394.54 662.72 388.8 663.23 395.5 654.5 395.72 657.31 401.52 654.03 406.26 649.03 405.31 651.49 410.39 648.07 415.46 641.46 415.25 645.72 421.16 641.68 427.81 647.98 425.81 648.93 431.66 653.8 429.31 658.73 433.02 657.1 436.12 662.16 434.9 664.53 439.46 666.41 438.56 663.39 434.97 662.19 430.29 660.23 433.56 656.27 430.21 655.59 426.54 651.36 426.7 648.02 423.48 646.49 422.75 647.98 419.71 652.21 419.56 651.21 414.99 652.14 411.73 660.31 411.63 656.31 406.84 661.65 406.15 658.24 402.76 661.63 397.79 667.44 397.24 672.61 403.58 674.48 396.57 679.86 395.65 682 400.08 685.32 396.37 693.72 395.04 697.55 399.91 701.26 394.54 706.95 393.68 710.77 399.4 713.26 391.29 720.73 386.38 714.85 385.23 714.08 381.67 720.36 379.4 715.86 378.43 716.16 374.91 720.84 371.6 716.31 371.05 714.33 366.96 717.75 362.78 711.61 361.34 712.42 354.21 706.13 353.92 707.8 348.24 702.41 348.54 696.22 345.02 696.59 350.64 690.15 349.01 686.96 352.58 682.41 351.7 681.65 353.66 682.7 356.19 689.85 352 696.1 351.81 696.27 354.25 702.03 350.2 703.65 351.1"/><path class="cls-2" d="M668.14,356.39c2.9-.73,5.8-1.48,8.71-2.18l8.72-2.1q8.73-2.08,17.48-4.05l.82-.19.5.76c2.07,3.18,4.1,6.38,6.14,9.58l6.11,9.61.29.45,0,.58-.83,11.3c-.29,3.77-.54,7.54-.86,11.3l-.13,1.59-1.59.17c-8.47.89-16.93,1.87-25.41,2.7s-16.94,1.74-25.42,2.5l1.32-.79c-3,4.32-6,8.68-9.08,13l-9.16,12.91-.34-1.82,7.71,5.62,7.67,5.67q7.68,5.65,15.24,11.48c-5.4-3.35-10.79-6.75-16.12-10.2l-8-5.18-8-5.22-1.07-.7.73-1.13,8.66-13.26c2.88-4.42,5.83-8.8,8.74-13.2l.45-.69.87-.1c8.46-1,16.93-1.88,25.39-2.81s17-1.72,25.42-2.59l-1.72,1.75c.32-3.77.71-7.52,1.06-11.29l1.08-11.28.25,1L708,359.77c-1.92-3.27-3.84-6.54-5.73-9.83l1.32.57c-5.89,1-11.78,2.07-17.68,3.05L677,355C674.06,355.5,671.1,355.93,668.14,356.39Z"/><polygon class="cls-1" points="752.47 446.08 749.89 434.29 744.96 445.85 734.09 443.13 732.49 432.31 725.83 441.06 718.68 434.9 722.11 428.6 715.2 432 709.47 425.43 714.85 421.83 706.92 419.85 711.2 413.29 719.81 411.5 715.04 406.35 721.91 398.07 730.09 398.8 722.67 391.4 727.92 388.52 734.49 387.54 731.46 381.77 734.99 377.13 741.3 381.34 738.52 371.44 748.86 371.13 741.49 365.86 748.8 356.64 740.38 354.53 738.31 347.04 743.61 342.69 736.23 340.84 733.95 332.92 739.88 326.26 730.08 325.56 726.7 315.63 723.32 323.87 716.44 319.79 714.67 326.87 706.56 328.76 704.76 324.39 701.64 330.69 694.88 329.19 694.19 331.92 700.51 331.9 706.39 334.7 704.7 329.84 711.6 328.64 715.98 331.12 719.47 326.61 725.69 325.94 727.77 324.99 729.63 329.15 726.13 333.66 731.72 336.57 734.29 340.36 727.32 348.89 735.74 348.89 731.84 355.02 738.29 354.43 740.51 362.23 736.04 368.71 725.02 368.58 730.65 376.57 726.96 382.94 720.52 381.32 721.49 387.96 715.6 397.81 707.24 397.56 709.59 406.04 705.56 412.67 696.34 411.67 702.57 421.26 701.2 433.24 707.48 428.15 711.83 430.43 708.74 438.89 713.64 435.08 717.01 438.43 716.4 446.13 720.88 441.92 726.82 443.41 728.19 450.56 734.99 445.46 741.66 452.45 747.4 446.21 751.83 452.84 756.19 447.01 765.19 443.65 759.05 439.18 766.3 433.93 765.37 427.52 770.21 423.58 768.85 421.1 765.32 419.99 763.47 431.01 758.27 437.65 755.59 435.72 754.8 445.18 752.47 446.08"/><path class="cls-2" d="M777.7,404.77c-1.74,3.64-3.44,7.3-5.22,10.92l-5.33,10.86-5.39,10.84-5.46,10.79-.57,1.12-1.36-.16c-5.08-.59-10.16-1.24-15.23-1.89l-15.23-1.95-.79-.11-.63-.6-11-10.63c-3.66-3.55-7.35-7.06-11-10.64l-1.69-1.68,1.33-2,9.56-14.33c3.18-4.78,6.36-9.56,9.6-14.3L729,376.77c3.21-4.76,6.48-9.48,9.75-14.2l-.36,2.28c-1.85-6.88-3.76-13.73-5.55-20.62l-2.71-10.33c-.89-3.44-1.83-6.88-2.69-10.33l2.43,1.36L717.4,328c-4.16,1-8.34,2-12.51,3s-8.35,2-12.53,2.92-8.38,1.88-12.57,2.8c4.08-1.35,8.14-2.74,12.22-4s8.16-2.65,12.26-3.93,8.17-2.6,12.27-3.85l12.3-3.78,1.81-.55.61,1.92c1.09,3.39,2.1,6.8,3.15,10.2l3.13,10.21c2.11,6.8,4.09,13.63,6.14,20.45l.35,1.18-.72,1.1c-3.14,4.8-6.28,9.61-9.48,14.38l-9.56,14.33c-3.17,4.79-6.39,9.54-9.62,14.28L705,422.88l-.36-3.67c3.62,3.59,7.16,7.25,10.74,10.87L726.08,441l-1.42-.71,15.14,2.56c5,.85,10.09,1.7,15.13,2.61l-1.93,1,6.06-10.47,6.14-10.42,6.2-10.39C773.47,411.64,775.61,408.21,777.7,404.77Z"/><polygon class="cls-1" points="509.1 298.67 520.9 301.18 509.37 306.18 512.16 317.04 522.99 318.57 514.27 325.28 520.47 332.39 526.76 328.93 523.39 335.86 529.99 341.55 533.56 336.15 535.59 344.06 542.13 339.75 543.87 331.13 549.04 335.87 557.28 328.95 556.5 320.78 563.95 328.15 566.79 322.88 567.75 316.31 573.52 319.31 578.15 315.75 573.9 309.46 583.82 312.19 584.07 301.85 589.38 309.18 598.56 301.82 600.72 310.23 608.22 312.26 612.54 306.93 614.43 314.3 622.37 316.54 628.99 310.56 629.74 320.36 639.69 323.69 631.47 327.12 635.59 333.97 628.52 335.78 626.68 343.9 631.06 345.68 624.78 348.83 626.32 355.59 623.6 356.29 623.58 349.97 620.74 344.11 625.61 345.77 626.77 338.87 624.27 334.5 628.76 330.98 629.39 324.75 630.33 322.67 626.16 320.84 621.67 324.36 618.73 318.79 614.92 316.24 606.43 323.26 606.38 314.84 600.27 318.78 600.83 312.32 593.02 310.15 586.56 314.65 586.75 325.67 578.73 320.09 572.39 323.82 574.04 330.25 567.39 329.32 557.58 335.26 557.88 343.62 549.38 341.32 542.78 345.38 543.83 354.6 534.2 348.42 522.23 349.86 527.29 343.56 524.98 339.23 516.54 342.36 520.32 337.44 516.95 334.08 509.25 334.74 513.44 330.24 511.91 324.31 504.76 322.98 509.82 316.14 502.79 309.51 509 303.74 502.34 299.35 508.15 294.96 511.46 285.94 515.96 292.05 521.17 284.77 527.58 285.67 531.49 280.8 533.98 282.15 535.11 285.67 524.1 287.58 517.5 292.83 519.44 295.49 509.98 296.33 509.1 298.67"/><path class="cls-2" d="M550.26,273.2c-3.43,2.12-6.84,4.28-10.3,6.36l-10.35,6.26L519.22,292l-10.44,6.12,1-1.93c.94,5,1.81,10.07,2.7,15.11l2.64,15.13-.72-1.42,10.95,10.66c3.65,3.56,7.33,7.09,10.93,10.69l-3.66-.34,14.19-9.76c4.73-3.26,9.46-6.51,14.23-9.71l14.28-9.64c4.74-3.23,9.54-6.4,14.32-9.57l1.09-.72,1.19.35c6.83,2,13.67,3.95,20.49,6l10.22,3.07c3.41,1,6.82,2,10.22,3.1l1.92.6-.54,1.81-3.71,12.32c-1.22,4.11-2.52,8.2-3.78,12.3s-2.54,8.19-3.85,12.27-2.65,8.17-4,12.24c.9-4.19,1.78-8.39,2.73-12.58s1.87-8.37,2.85-12.54,1.91-8.36,2.93-12.53l3-12.51,1.38,2.42c-3.46-.84-6.9-1.75-10.35-2.63l-10.34-2.65c-6.9-1.74-13.76-3.62-20.65-5.42l2.28-.38c-4.71,3.29-9.41,6.59-14.15,9.83l-14.19,9.76c-4.73,3.27-9.48,6.48-14.25,9.69l-14.27,9.64-2,1.34-1.69-1.68c-3.6-3.6-7.14-7.27-10.71-10.91l-10.68-10.92-.62-.63-.1-.79L508,312c-.68-5.07-1.37-10.14-2-15.23l-.16-1.35,1.11-.58,10.77-5.52,10.8-5.45,10.83-5.39C543,276.69,546.64,275,550.26,273.2Z"/><polygon class="cls-1" points="554.42 353.03 550.87 361.24 558.84 356.42 564.22 362.77 560.49 369.97 568.29 367.59 569.93 374.39 565.14 376.7 570.77 377.64 571.37 384.08 566.58 383.92 570.49 388.54 565.08 390.64 559.12 388 559.76 393.16 552.04 395.17 547.43 391.19 548.69 398.86 544.28 398.31 539.9 396.06 539.23 400.85 535.1 402.11 533.12 396.84 530.5 404.01 524.14 399.72 526.3 406.08 517.9 408.47 522.06 413.38 520.07 418.79 514.99 419.12 518.63 423.42 516.58 429.18 510.12 430.62 515.72 435.29 513.46 442.73 519.06 439.23 521.43 444.67 525.57 441.17 531.26 443.54 530.46 446.95 535.06 444.51 538.49 448.35 540.08 447 536.27 444.27 533.94 440.04 532.85 443.7 528.18 441.44 526.62 438.05 522.56 439.25 518.52 436.96 516.86 436.63 517.54 433.32 521.6 432.12 519.5 427.95 519.59 424.56 527.49 422.44 522.41 418.79 527.42 416.79 523.27 414.35 525.32 408.7 530.81 406.73 537.39 411.57 537.46 404.33 542.45 402.1 545.62 405.86 547.91 401.44 555.72 398.06 560.65 401.83 562.9 395.7 568.2 393.46 573.32 398.05 573.72 389.58 579.73 382.96 573.75 383.31 572.12 380.05 577.64 376.3 573.04 376.47 572.46 372.99 576.16 368.62 571.65 369.21 568.71 365.74 570.98 360.85 564.68 360.97 563.69 353.87 557.53 355.15 557.74 349.24 552.59 350.86 545.72 348.99 547.48 354.34 540.83 354.36 538.63 358.62 534 358.89 533.75 360.98 535.39 363.17 541.28 357.34 547.28 355.6 548.06 357.92 552.63 352.56 554.42 353.03"/><path class="cls-2" d="M521.34,367c2.64-1.43,5.25-2.88,7.9-4.27l7.93-4.21c5.29-2.79,10.6-5.53,15.92-8.27l.75-.38.67.61c2.79,2.57,5.56,5.17,8.33,7.76l8.31,7.79.39.36.1.57,2,11.16c.66,3.72,1.35,7.43,2,11.16l.26,1.57-1.49.55c-8,3-15.94,6-23.94,8.93s-16,5.9-24,8.74l1.08-1.09c-1.85,4.94-3.67,9.9-5.56,14.82l-5.67,14.79-.78-1.68,8.86,3.53,8.84,3.58q8.85,3.58,17.62,7.34-9.11-2.86-18.16-5.88l-9-3-9-3.07-1.21-.41.43-1.27,5.08-15c1.69-5,3.46-10,5.19-15l.27-.78.81-.31c7.94-3.08,15.93-6,23.91-9s16-5.88,24-8.83l-1.23,2.13c-.62-3.73-1.18-7.47-1.78-11.2l-1.75-11.2.49.94-8-8.08c-2.68-2.69-5.35-5.38-8-8.1l1.42.23c-5.44,2.47-10.9,4.93-16.37,7.34l-8.22,3.61C526.86,364.65,524.09,365.8,521.34,367Z"/><polygon class="cls-1" points="625.31 432.9 619.89 422.13 617.98 434.55 606.77 434.61 602.54 424.53 598.26 434.66 589.81 430.47 591.55 423.51 585.71 428.53 578.53 423.59 582.85 418.77 574.68 418.81 577.19 411.4 585.08 407.52 579.18 403.73 583.78 394 591.89 392.67 582.86 387.34 587.24 383.25 593.35 380.66 588.98 375.84 591.25 370.46 598.41 372.98 593.25 364.07 603.2 361.2 594.75 357.93 599.54 347.18 590.86 347.23 586.99 340.49 591.04 334.96 583.44 335 579.26 327.89 583.35 319.97 573.69 321.73 567.94 312.95 566.71 321.77 559.04 319.53 559.08 326.83 551.7 330.67 548.87 326.89 547.41 333.76 540.48 333.99 540.5 336.8 546.62 335.21 553.01 336.47 550.16 332.18 556.54 329.3 561.4 330.61 563.67 325.38 569.53 323.19 571.31 321.74 574.14 325.32 571.87 330.55 578 331.99 581.44 335.01 576.8 345.01 584.96 342.93 582.7 349.83 588.81 347.65 592.89 354.65 590.18 362.04 579.47 364.66 586.91 371 584.91 378.08 578.27 378.12 580.86 384.31 577.6 395.31 569.45 397.14 573.83 404.78 571.57 412.19 562.39 413.52 570.81 421.26 572.46 433.21 577.27 426.71 582.05 427.85 581.16 436.8 584.97 431.9 589.06 434.31 590.38 441.92 593.67 436.73 599.8 436.69 602.9 443.28 608.23 436.65 616.43 441.77 620.43 434.29 626.37 439.62 629.14 432.88 637.02 427.39 629.97 424.59 635.69 417.7 633.19 411.73 636.9 406.71 634.97 404.64 631.27 404.45 632.23 415.58 628.83 423.3 625.76 422.1 627.35 431.46 625.31 432.9"/><path class="cls-2" d="M639.49,386.62c-.78,4-1.52,7.93-2.35,11.88l-2.46,11.85-2.53,11.83L629.54,434l-.27,1.23-1.35.18c-5.08.69-10.15,1.32-15.23,2l-15.24,1.89-.79.1-.76-.43-13.28-7.56c-4.42-2.53-8.87-5-13.27-7.59l-2.05-1.21.79-2.25,5.7-16.26c1.89-5.42,3.79-10.84,5.76-16.23l5.83-16.21c1.92-5.41,3.92-10.8,5.91-16.18l.22,2.29c-3.5-6.2-7-12.36-10.5-18.59l-5.19-9.33c-1.72-3.11-3.48-6.21-5.17-9.34l2.69.72L562,327.24c-3.77,2-7.58,4-11.37,6s-7.59,4-11.41,5.94-7.65,3.9-11.47,5.83c3.6-2.32,7.19-4.67,10.83-6.95s7.24-4.59,10.89-6.85,7.27-4.55,10.94-6.77l11-6.72,1.62-1,1.07,1.71c1.9,3,3.73,6.07,5.59,9.1l5.57,9.11c3.73,6.06,7.34,12.19,11,18.28l.64,1.06-.42,1.24c-1.86,5.44-3.7,10.87-5.62,16.29l-5.7,16.25c-1.88,5.43-3.82,10.83-5.77,16.23l-5.83,16.21-1.27-3.46c4.4,2.58,8.74,5.24,13.11,7.86l13.1,7.88-1.55-.33,15.29-1.29c5.1-.42,10.2-.86,15.31-1.22l-1.63,1.41,3.28-11.65,3.35-11.62L636,398.2C637.09,394.33,638.31,390.48,639.49,386.62Z"/><polygon class="cls-1" points="651.39 400.59 646.9 389.39 643.95 401.61 632.77 400.72 629.41 390.31 624.28 400.05 616.22 395.16 618.55 388.37 612.3 392.88 605.57 387.35 610.27 382.91 602.13 382.26 605.26 375.08 613.45 371.89 607.9 367.61 613.3 358.3 621.49 357.67 612.95 351.6 617.66 347.89 623.97 345.83 620.02 340.65 622.74 335.49 629.66 338.6 625.28 329.29 635.42 327.27 627.29 323.3 632.97 312.99 624.32 312.31 621.03 305.26 625.54 300.09 617.96 299.49 614.39 292.06 619.15 284.5 609.37 285.44 604.38 276.21 602.41 284.89 594.96 282.01 594.38 289.28 586.7 292.49 584.2 288.48 582.17 295.2 575.24 294.85 575.02 297.64 581.25 296.58 587.51 298.38 585.04 293.86 591.64 291.53 596.37 293.25 599.08 288.23 605.1 286.54 606.99 285.25 609.51 289.05 606.81 294.08 612.8 296.03 615.96 299.33 610.5 308.91 618.8 307.51 615.97 314.21 622.24 312.55 625.71 319.87 622.38 327.01 611.49 328.71 618.37 335.65 615.77 342.54 609.16 342.02 611.21 348.4 607.04 359.09 598.75 360.22 602.47 368.2 599.6 375.4 590.33 375.95 598.07 384.38 598.7 396.42 604.05 390.35 608.71 391.88 607.07 400.73 611.27 396.17 615.15 398.92 615.82 406.61 619.54 401.72 625.65 402.2 628.18 409.03 634.05 402.87 641.78 408.67 646.41 401.56 651.88 407.37 655.21 400.89 663.53 396.09 656.73 392.69 663.02 386.32 661.03 380.16 665.16 375.47 663.4 373.25 659.74 372.74 659.74 383.91 655.71 391.32 652.75 389.86 653.54 399.32 651.39 400.59"/><path class="cls-2" d="M669.44,355.67c-1.12,3.88-2.19,7.77-3.35,11.64l-3.46,11.6-3.52,11.57L655.51,402l-.37,1.2-1.37.07c-5.11.26-10.22.45-15.34.65l-15.34.59-.79,0-.72-.5L609,395.42c-4.19-2.89-8.41-5.75-12.57-8.69l-1.95-1.37,1-2.18,7.06-15.71q3.51-7.87,7.11-15.69l7.18-15.66c2.38-5.23,4.82-10.42,7.26-15.62l0,2.31c-3-6.48-6-12.92-8.88-19.42l-4.38-9.74c-1.45-3.25-2.94-6.48-4.36-9.74l2.62.94L597.26,290c-3.93,1.71-7.89,3.35-11.84,5s-7.91,3.32-11.88,4.95-7.95,3.23-11.92,4.84c3.79-2,7.56-4,11.38-6s7.61-4,11.43-5.9,7.63-3.92,11.47-5.83l11.5-5.76,1.69-.85.93,1.79c1.63,3.17,3.19,6.36,4.79,9.54l4.78,9.55c3.2,6.36,6.29,12.77,9.43,19.16l.55,1.1-.53,1.2c-2.3,5.26-4.6,10.52-7,15.75L615,354.23c-2.33,5.25-4.72,10.47-7.12,15.68l-7.19,15.66-1-3.56c4.16,2.94,8.26,6,12.4,8.94l12.37,9-1.51-.47,15.35,0c5.12,0,10.23,0,15.35.07L652,400.81l4.25-11.32,4.33-11.3,4.39-11.28C666.39,363.15,667.94,359.42,669.44,355.67Z"/><polygon class="cls-1" points="632.33 335.06 624.08 331.6 628.99 339.52 622.7 344.96 615.46 341.31 617.93 349.08 611.14 350.8 608.78 346.03 607.9 351.67 601.47 352.35 601.58 347.55 597 351.51 594.84 346.12 597.42 340.13 592.27 340.83 590.17 333.14 594.1 328.48 586.45 329.83 586.94 325.41 589.14 321.01 584.35 320.39 583.04 316.27 588.29 314.24 581.09 311.7 585.32 305.29 578.98 307.52 576.5 299.15 571.63 303.36 566.2 301.43 565.82 296.35 561.55 300.04 555.77 298.05 554.26 291.61 549.66 297.26 542.19 295.08 545.75 300.64 540.34 303.08 543.88 307.17 541.57 312.89 538.15 312.13 540.64 316.7 536.85 320.17 538.21 321.75 540.9 317.9 545.11 315.53 541.43 314.49 543.64 309.79 547.01 308.19 545.77 304.14 548.02 300.08 548.32 298.41 551.64 299.06 552.89 303.11 557.03 300.96 560.43 301.01 562.64 308.88 566.23 303.77 568.28 308.76 570.67 304.59 576.35 306.56 578.38 312.04 573.61 318.67 580.86 318.66 583.14 323.62 579.41 326.84 583.86 329.08 587.32 336.85 583.61 341.82 589.76 344.01 592.06 349.28 587.52 354.45 596 354.76 602.68 360.7 602.27 354.72 605.51 353.05 609.32 358.53 609.1 353.93 612.57 353.32 616.99 356.97 616.34 352.46 619.78 349.49 624.7 351.7 624.5 345.4 631.59 344.34 630.25 338.19 636.16 338.33 634.48 333.2 636.28 326.31 630.95 328.13 630.86 321.48 626.57 319.32 626.25 314.71 624.16 314.47 621.98 316.14 627.88 321.96 629.69 327.95 627.38 328.75 632.78 333.26 632.33 335.06"/><path class="cls-2" d="M618,302.13c1.46,2.62,2.94,5.22,4.36,7.85l4.29,7.88c2.85,5.26,5.65,10.55,8.45,15.83l.39.75-.61.68c-2.53,2.82-5.1,5.62-7.66,8.41l-7.7,8.39-.36.4-.57.11-11.13,2.12c-3.71.7-7.42,1.43-11.14,2.1l-1.57.28-.57-1.48c-3.06-7.95-6.19-15.87-9.19-23.84s-6.07-15.92-9-23.92l1.1,1.07c-5-1.8-9.93-3.56-14.88-5.4l-14.85-5.5,1.67-.8-3.43,8.9-3.49,8.88q-3.48,8.88-7.14,17.69c1.84-6.09,3.72-12.16,5.68-18.22l2.93-9.07,3-9.07L547,295l1.28.41,15,4.92c5,1.64,10,3.35,15,5l.78.26.33.81c3.16,7.9,6.2,15.86,9.29,23.8s6,15.92,9.09,23.88l-2.14-1.21c3.72-.67,7.45-1.27,11.17-1.9L618,349.08l-.93.51,8-8.12c2.66-2.7,5.32-5.4,8-8.08l-.22,1.42c-2.53-5.42-5-10.84-7.52-16.29l-3.7-8.18C620.42,307.62,619.23,304.87,618,302.13Z"/><polygon class="cls-1" points="505.72 425.16 504.15 413.2 498.26 424.3 487.65 420.66 486.98 409.75 479.6 417.9 473 411.17 476.94 405.17 469.77 407.98 464.63 400.95 470.29 397.82 462.56 395.17 467.37 389 476.1 387.94 471.79 382.41 479.33 374.74 487.42 376.16 480.66 368.15 486.14 365.74 492.76 365.31 490.23 359.31 494.14 354.98 500.07 359.72 498.14 349.61 508.47 350.18 501.57 344.31 509.64 335.74 501.43 332.92 500 325.28 505.65 321.39 498.45 318.93 496.85 310.84 503.33 304.71 493.62 303.19 491.08 293 487.02 300.93 480.52 296.28 478.15 303.18 469.91 304.38 468.49 299.87 464.85 305.88 458.23 303.82 457.32 306.47 463.62 307 469.24 310.29 467.96 305.3 474.94 304.68 479.09 307.52 482.96 303.33 489.21 303.19 491.37 302.41 492.86 306.72 489 310.92 494.32 314.29 496.56 318.28 488.89 326.2 497.28 326.91 492.87 332.69 499.35 332.64 500.9 340.6 495.9 346.68 484.93 345.62 489.87 354.06 485.64 360.09 479.36 357.94 479.77 364.63 473.07 373.94 464.76 372.99 466.38 381.64 461.81 387.9 452.7 386.13 458.1 396.21 455.72 408.03 462.41 403.49 466.54 406.13 462.75 414.29 467.96 410.91 471.04 414.54 469.77 422.16 474.59 418.35 480.38 420.33 481.14 427.57 488.36 423.06 494.41 430.6 500.66 424.87 504.51 431.85 509.34 426.4 518.6 423.82 512.86 418.84 520.53 414.23 520.14 407.77 525.3 404.25 524.15 401.67 520.73 400.26 517.96 411.09 512.21 417.25 509.7 415.11 508.12 424.47 505.72 425.16"/><path class="cls-2" d="M534.36,386.14c-2,3.48-4.05,7-6.13,10.44L522,407l-6.29,10.34-6.35,10.29-.66,1.07-1.35-.27c-5-1-10-2.1-15-3.18l-15-3.24-.78-.16-.57-.66-10.05-11.52c-3.35-3.84-6.72-7.66-10-11.54l-1.54-1.81,1.49-1.87,10.74-13.47q5.36-6.74,10.78-13.43l10.85-13.38c3.6-4.47,7.26-8.9,10.92-13.33l-.55,2.24c-1.26-7-2.59-14-3.79-21L493,311.5c-.6-3.51-1.24-7-1.8-10.52l2.3,1.56-12.71,2c-4.23.68-8.48,1.29-12.71,1.93s-8.49,1.26-12.74,1.85-8.5,1.16-12.75,1.73c4.17-1,8.33-2.05,12.51-3s8.36-1.95,12.55-2.88,8.36-1.9,12.55-2.79l12.57-2.72,1.85-.4.45,2c.8,3.47,1.52,7,2.28,10.43l2.26,10.44c1.52,7,2.91,13.93,4.37,20.9l.26,1.2-.81,1c-3.54,4.52-7.07,9-10.67,13.52L482,371.22c-3.56,4.5-7.18,9-10.8,13.42L460.35,398l-.05-3.68c3.3,3.88,6.53,7.82,9.79,11.74l9.76,11.76L478.5,417l14.87,3.83c4.95,1.28,9.91,2.55,14.85,3.88l-2,.8,6.93-9.92,7-9.86,7.06-9.83C529.55,392.63,532,389.39,534.36,386.14Z"/><polygon class="cls-1" points="409.1 406.82 420.86 404.11 409.25 399.31 411.85 388.4 422.65 386.69 413.83 380.12 419.91 372.91 426.25 376.26 422.77 369.39 429.27 363.6 432.93 368.93 434.83 360.98 441.44 365.19 443.32 373.77 448.41 368.95 456.77 375.73 456.13 383.92 463.45 376.42 466.38 381.64 467.44 388.19 473.17 385.1 477.85 388.58 473.71 394.94 483.59 392.05 484.01 402.38 489.19 394.96 498.5 402.17 500.51 393.72 507.98 391.57 512.39 396.82 514.15 389.42 522.05 387.05 528.78 392.92 529.36 383.11 539.26 379.61 530.98 376.32 534.98 369.4 527.89 367.71 525.91 359.62 530.26 357.77 523.93 354.73 525.35 347.94 522.62 347.29 522.7 353.61 519.96 359.52 524.81 357.77 526.09 364.65 523.66 369.06 528.2 372.51 528.94 378.72 529.92 380.79 525.77 382.69 521.23 379.24 518.38 384.86 514.62 387.47 506.01 380.6 506.1 389.02 499.92 385.18 500.59 391.63 492.82 393.93 486.29 389.54 486.29 378.52 478.36 384.24 471.96 380.61 473.5 374.15 466.87 375.19 456.96 369.42 457.12 361.06 448.66 363.5 442 359.54 442.89 350.31 433.37 356.65 421.37 355.41 426.54 361.63 424.3 366 415.81 363.01 419.68 367.87 416.36 371.27 408.65 370.75 412.91 375.18 411.49 381.14 404.36 382.58 409.53 389.33 402.61 396.08 408.92 401.75 402.33 406.25 408.21 410.54 411.67 419.5 416.08 413.32 421.41 420.51 427.8 419.5 431.79 424.31 434.26 422.92 435.33 419.38 424.29 417.65 417.6 412.52 419.5 409.82 410.02 409.14 409.1 406.82"/><path class="cls-2" d="M450.69,431.59c-3.66-1.7-7.34-3.36-11-5.1l-10.92-5.21L417.89,416,407,410.67l-1.13-.56.15-1.36c.53-5.09,1.13-10.17,1.73-15.25l1.78-15.25.09-.79.61-.64,10.5-11.1c3.5-3.69,7-7.42,10.52-11.08l1.66-1.71,2,1.31,14.44,9.4q7.22,4.68,14.4,9.45l14.36,9.51c4.79,3.16,9.55,6.38,14.31,9.6l-2.29-.34c6.86-1.92,13.69-3.91,20.56-5.77l10.3-2.83c3.43-.93,6.86-1.9,10.3-2.8L530,382.9l-3.2-12.45c-1.09-4.15-2.1-8.32-3.14-12.48s-2.06-8.32-3.06-12.5-2-8.35-2.94-12.53c1.4,4.06,2.83,8.11,4.18,12.18s2.74,8.13,4.06,12.21,2.7,8.14,4,12.23l3.91,12.25.58,1.8-1.92.64c-3.38,1.12-6.78,2.17-10.16,3.26l-10.18,3.25c-6.77,2.18-13.59,4.23-20.38,6.35l-1.18.37-1.1-.7c-4.84-3.1-9.68-6.18-14.49-9.33l-14.43-9.4c-4.82-3.12-9.61-6.29-14.39-9.47l-14.36-9.52,3.66-.4c-3.54,3.66-7.16,7.25-10.75,10.87l-10.77,10.84.7-1.43-2.39,15.17c-.8,5.05-1.59,10.11-2.45,15.15l-1-1.91,10.53,5.95,10.49,6,10.46,6.09C443.77,427.43,447.22,429.53,450.69,431.59Z"/><polygon class="cls-2" points="1001.2 245.69 1010.23 224.34 1010.64 223.37 1011.49 223.12 1035.65 215.91 1035.06 216.42 1047.91 193.75 1036.92 217.38 1036.77 217.73 1036.33 217.9 1012.83 227.03 1014.1 225.8 1006.82 247.8 1001.2 245.69"/><polygon class="cls-2" points="954.67 257.63 963.93 244.78 963.72 246.6 957.51 225.35 957.41 225.03 957.5 224.81 962.84 211.28 959.08 225.33 959.07 224.79 967.67 245.2 968.02 246.03 967.46 247.03 959.73 260.86 954.67 257.63"/><polygon class="cls-2" points="172.25 193.27 111.56 146.45 111.13 146.11 110.92 145.66 95.99 111.87 95.8 111.43 95.86 110.99 105.69 43.5 105.92 44.17 60 0 106.99 43.03 107.28 43.3 107.23 43.7 99.06 111.41 98.93 110.53 114.68 143.94 114.04 143.15 175.86 188.48 172.25 193.27"/><polygon class="cls-2" points="127.2 155.67 153.79 121.76 153.5 123.22 144.81 83.74 144.78 83.61 144.8 83.5 148.66 63.98 145.94 83.69 145.93 83.46 156.9 122.37 157.11 123.12 156.61 123.84 132.03 159.23 127.2 155.67"/><polygon class="cls-2" points="105.41 131.6 75.2 130.87 74.19 130.84 73.57 130.18 45.5 99.67 45.87 99.93 0 77.2 46.93 97.67 47.11 97.75 47.3 97.93 76.83 127.03 75.2 126.34 105.41 125.6 105.41 131.6"/><polygon class="cls-2" points="123.7 251.77 112.82 295.43 112.58 296.39 111.8 296.88 75.39 320.06 76.17 318.95 60.92 381.52 60.84 381.87 60.57 382.06 3.6 423.41 59.43 380.55 59.08 381.09 72.63 318.14 72.78 317.45 73.41 317.03 109.18 292.88 108.16 294.33 117.86 250.4 123.7 251.77"/><polygon class="cls-2" points="95.35 304.81 121.9 348.27 122.05 348.52 122.09 348.72 129.62 389.33 119.47 349.3 119.65 349.75 90.33 308.1 95.35 304.81"/><polygon class="cls-2" points="355.9 426.73 344.18 457.24 343.88 458.02 343.24 458.41 289.36 491.23 289.76 490.73 273.41 534.52 287.9 490.07 288 489.77 288.3 489.57 340.76 454.51 339.82 455.68 350.25 424.69 355.9 426.73"/><polygon class="cls-2" points="325.38 464.86 406.92 494.81 407.42 495 407.64 495.43 419.07 517.8 419.04 517.75 440.37 552.68 417.69 518.62 417.68 518.6 417.66 518.56 405.35 496.65 406.07 497.26 323.43 470.53 325.38 464.86"/><polygon class="cls-2" points="417.98 515.21 447.93 513.09 447 513.74 457.52 496.04 449.17 514.86 448.94 515.37 448.24 515.51 418.76 521.16 417.98 515.21"/><polygon class="cls-2" points="718.87 440.79 680.99 469.22 681.52 468.57 664 501.11 663.76 501.54 663.33 501.66 615.53 515 662.68 499.54 662.02 500.1 678.07 466.81 678.23 466.47 678.6 466.17 715.16 436.07 718.87 440.79"/><polygon class="cls-2" points="881.33 416.03 939.04 428.5 940.09 428.73 940.37 429.7 950.15 463.7 949.28 463.01 996 467.69 949.12 464.99 948.47 464.96 948.25 464.3 937.03 430.74 938.37 431.93 880.19 421.92 881.33 416.03"/></g></g></svg>