<svg xmlns="http://www.w3.org/2000/svg" xmlns:xlink="http://www.w3.org/1999/xlink" viewBox="0 0 1312.84 854.4"><defs><style>.cls-1{fill:#3e561f;}.cls-2{fill:#486622;}.cls-3{fill:#435629;}.cls-4{fill:#4f6832;}.cls-5{fill:#516b32;}.cls-6{fill:#4e6d26;}</style><symbol id="Figueira-Foliage-BG-2" data-name="Figueira-Foliage-BG-2" viewBox="0 0 79.33 82.26"><polygon class="cls-4" points="41.84 81.49 59.23 76.2 73.87 60.16 79.33 49.27 77.2 41.8 66.42 50.98 62.57 46.53 60.79 21.55 49.12 0 42.71 12.28 45.3 35.37 30.77 28.78 12.96 9.72 3.58 17.71 1.76 31.27 22.86 38.41 36.13 51.29 17.1 53.43 6.11 51.6 0 61.28 15.01 66.78 30.34 63.77 46.87 64.49 49.33 71.15 34.08 74.14 34.99 82.26 41.84 81.49"/><path class="cls-5" d="M72.13,75.9l-2.76-3.48L64.43,67l-1.07-1.21-.93-1v-.72l.82-1.9.86-1.54,1.57-1.46,1.08-.9,1.86-1.72,1.11-1.64,1.11-2.11L69.44,55l-1,1.39-1.22,1.22-1.42,1.18-1.07,1-.93.87-.83,1.44-.38,1-.31,1.16-.22.06-.43-.56-.25-1.55L60.89,60l-.57-4.32-.45-4.37-.35-2.5-.27-2.9-.88-5.31-1.64-5.69-1.26-4.65-.78-4.48-.27-4.37L54,16.27l.41,6.45.26,3.83.57,3,.67,3.14,1,3.44,1,3.35.56,3.14.67,4.06.16,2.06.4,3.52.27,2.85.27,2.6.4,2.66.49,2.71.16,1-2.74-3L55.82,58l-3.63-3.33L44.35,48.2l-8.76-6.66L23.1,33.08l-4.94-3.2-.89-.24,1.12.56,4.69,3,6.15,4.18,12.48,9.17L47,50.84l9.44,8.41,2.58,3,2.11,2.38.46.92-2.6-1-4.78-1.34-3.36-.54L41.6,61.29,37.7,61l-7-.43L22,59.86l-2.95.38,3.33-.11L33.89,61l8.5.59L54,63.44l4.79,1.4L61.43,66l-.22.25-1.68.25L57.6,67l-1.22.94-2.22,1.57L51.8,71.28l-1.43.89L47.72,73l1.9-.32,1.71-.79,2.83-2L56.77,68l1.79-1,3.22-.68.67.48.18.43.94.72L71.14,77Z"/></symbol><symbol id="Figueira-Foliage-BG-7" data-name="Figueira-Foliage-BG-7" viewBox="0 0 79.33 82.26"><polygon class="cls-6" points="41.84 81.49 59.23 76.2 73.87 60.16 79.33 49.27 77.2 41.8 66.42 50.98 62.57 46.53 60.79 21.55 49.12 0 42.71 12.28 45.3 35.37 30.77 28.78 12.96 9.72 3.58 17.71 1.76 31.27 22.86 38.41 36.13 51.29 17.1 53.43 6.11 51.6 0 61.28 15.01 66.78 30.34 63.77 46.87 64.49 49.33 71.15 34.08 74.14 34.99 82.26 41.84 81.49"/></symbol><symbol id="Figueira-Foliage-BG-4" data-name="Figueira-Foliage-BG-4" viewBox="0 0 82.26 79.33"><polygon class="cls-1" points="0.77 41.84 6.07 59.23 22.1 73.87 32.99 79.33 40.46 77.2 31.28 66.42 35.73 62.57 60.71 60.79 82.26 49.12 69.98 42.71 46.89 45.3 53.48 30.77 72.55 12.96 64.55 3.58 50.99 1.76 43.86 22.86 30.97 36.13 28.83 17.1 30.67 6.11 20.99 0 15.48 15.01 18.49 30.34 17.78 46.87 11.12 49.33 8.12 34.08 0 34.99 0.77 41.84"/><path class="cls-2" d="M4.79,74.63l3.47-2.75,5.44-4.94,1.22-1.07,1-.93h.71l1.9.82,1.54.86,1.47,1.57.89,1.08,1.72,1.86,1.64,1.11,2.12,1.11L25.68,72l-1.38-1-1.23-1.22-1.18-1.42-1-1.08L20,66.27l-1.43-.83-1-.38-1.16-.31,0-.23.55-.43,1.56-.24,2.2-.45L25,62.83l4.38-.45L31.85,62l2.9-.27,5.32-.89,5.69-1.63L50.4,58l4.48-.77,4.38-.27,5.15-.46-6.44.4-3.84.27-3,.57L48,58.38l-3.44,1-3.35,1-3.14.57-4,.67L32,61.76l-3.52.4-2.84.27L23,62.7l-2.65.4-2.71.48-1.05.17,3-2.74,3.06-2.69L26,54.7l6.52-7.84,6.65-8.77L47.61,25.6l3.19-4.93.24-.89-.56,1.11-3,4.7-4.19,6.15L34.1,44.21l-4.26,5.27-8.41,9.44-3,2.58-2.39,2.11-.91.46s.94-2.53,1-2.61,1.35-4.77,1.35-4.77L18,53.33,22.05,44l.29-3.9.43-7-1.95-8.59-.38-3,.11,3.33L22.3,36.33l-.67,7.2L17.24,56.45l-1.39,4.8-1.11,2.68-.25-.21L14.24,62,13.7,60.1l-.93-1.21-1.58-2.22L9.4,54.31l-.89-1.43-.79-2.65L8,52.12l.79,1.72,2,2.83,1.89,2.61,1,1.79.68,3.22L14,65l-.43.19-.73.94L3.67,73.65Z"/></symbol><symbol id="Figueira-Foliage-BG-11" data-name="Figueira-Foliage-BG-11" viewBox="0 0 79.33 82.26"><polygon class="cls-3" points="41.84 81.49 59.23 76.2 73.87 60.16 79.33 49.27 77.2 41.8 66.42 50.98 62.57 46.53 60.79 21.55 49.12 0 42.71 12.28 45.3 35.37 30.77 28.78 12.96 9.72 3.58 17.71 1.76 31.27 22.86 38.41 36.13 51.29 17.1 53.43 6.11 51.6 0 61.28 15.01 66.78 30.34 63.77 46.87 64.49 49.33 71.15 34.08 74.14 34.99 82.26 41.84 81.49"/></symbol></defs><title>Folhas 4</title><g id="Layer_2" data-name="Layer 2"><g id="ÁRVORE_4_-_FOLHAS_FRENTE" data-name="ÁRVORE 4 - FOLHAS FRENTE"><use width="79.33" height="82.26" transform="matrix(-0.71, -0.27, 0.27, -0.71, 169.04, 733.59)"/><use width="79.33" height="82.26" transform="translate(113.7 740.71) rotate(-123.18) scale(0.85)"/><use width="79.33" height="82.26" transform="translate(119.8 705.73) rotate(-122.5) scale(0.78)"/><use width="79.33" height="82.26" transform="translate(52.61 707.85) rotate(-85.57) scale(0.99)"/><use width="79.33" height="82.26" transform="matrix(0.24, -0.92, 0.92, 0.24, 60.03, 666.86)"/><use width="79.33" height="82.26" transform="translate(35.61 603.31) rotate(-65.87) scale(1.14)"/><use width="79.33" height="82.26" transform="translate(17.58 643.93) rotate(-69.77) scale(1.17)"/><use width="79.33" height="82.26" transform="matrix(-0.53, -0.43, 0.43, -0.53, 151.21, 680.55)"/><use width="79.33" height="82.26" transform="translate(176.75 696.97) rotate(-164.78) scale(0.63)"/><use width="79.33" height="82.26" transform="matrix(-0.73, -0.15, 0.15, -0.73, 201.19, 736.68)"/><use width="79.33" height="82.26" transform="translate(213.78 668.69) rotate(-172.52) scale(0.59)"/><use width="79.33" height="82.26" transform="matrix(-0.87, -0.24, 0.24, -0.87, 272.77, 702.59)"/><use width="79.33" height="82.26" transform="translate(240.25 664.65) rotate(-128.89)"/><use width="79.33" height="82.26" transform="translate(281.99 722.86) rotate(-133.19) scale(1.09)"/><use width="79.33" height="82.26" transform="translate(223.31 637.97) rotate(-73.65) scale(1.18)"/><use width="79.33" height="82.26" transform="translate(263.85 679.4) rotate(-157.24) scale(0.92)"/><use width="79.33" height="82.26" transform="matrix(-0.76, -0.1, 0.1, -0.76, 248.39, 711.09)"/><use width="79.33" height="82.26" transform="matrix(-0.63, -0.05, 0.05, -0.63, 214.74, 697.77)"/><use width="79.33" height="82.26" transform="matrix(-0.05, -0.79, 0.79, -0.05, 155.02, 622.5)"/><use width="79.33" height="82.26" transform="translate(197.48 636.83) rotate(-107.04) scale(0.9)"/><use width="79.33" height="82.26" transform="matrix(0.42, -0.91, 0.91, 0.42, 343.58, 631.31)"/><use width="79.33" height="82.26" transform="matrix(0.87, -0.48, 0.48, 0.87, 376.08, 603.25)"/><use width="79.33" height="82.26" transform="matrix(0.97, -0.25, 0.25, 0.97, 386.68, 547.07)"/><use width="79.33" height="82.26" transform="translate(302.97 560.53) rotate(-68.96) scale(1.01)"/><use width="79.33" height="82.26" transform="translate(307.22 593.98) rotate(-66.63) scale(1.04)"/><use width="79.33" height="82.26" transform="translate(308.42 658.94) rotate(-84.63) scale(1.06)"/><use width="79.33" height="82.26" transform="translate(298.96 707.24) rotate(-103.55) scale(1.07)"/><use width="79.33" height="82.26" transform="translate(435.85 544.11)"/><use width="79.33" height="82.26" transform="translate(454.67 522.99)"/><use width="79.33" height="82.26" transform="translate(430.23 495.16)"/><use width="79.33" height="82.26" transform="translate(392.51 475.1) rotate(-7.05)"/><use width="79.33" height="82.26" transform="translate(391.76 503.53) rotate(-11.97)"/><use width="79.33" height="82.26" transform="translate(338.93 564.97) rotate(-44.63)"/><use width="79.33" height="82.26" transform="translate(250.05 601.31) rotate(-63.45) scale(1.13)"/><use width="79.33" height="82.26" transform="translate(249.68 640.63) rotate(-68.3) scale(1.15)"/><use width="79.33" height="82.26" transform="matrix(0.71, -0.8, 0.8, 0.71, 237.2, 547.13)"/><use width="79.33" height="82.26" transform="matrix(0.97, -0.31, 0.31, 0.97, 259.29, 491.04)"/><use width="79.33" height="82.26" transform="translate(179.24 575.12) rotate(-64.15) scale(1.05)"/><use width="79.33" height="82.26" transform="translate(210.76 652.29) rotate(-152) scale(0.72)"/><use width="79.33" height="82.26" transform="matrix(0.22, -0.85, 0.85, 0.22, 112.95, 605.6)"/><use width="79.33" height="82.26" transform="translate(80.03 620.8) rotate(-71.4) scale(0.93)"/><use width="79.33" height="82.26" transform="matrix(-0.22, -0.7, 0.7, -0.22, 140.48, 646.73)"/><use width="79.33" height="82.26" transform="translate(377.35 732.12) rotate(-150.25)"/><use width="79.33" height="82.26" transform="translate(430.35 707.27) rotate(-162.83)"/><use width="79.33" height="82.26" transform="matrix(0.44, -0.95, 0.95, 0.44, 157.25, 460.39)"/><use width="79.33" height="82.26" transform="translate(113.8 406.19) rotate(-37.4) scale(1.09)"/><use width="79.33" height="82.26" transform="translate(43.5 409.39) rotate(-47.41) scale(1.02)"/><use width="79.33" height="82.26" transform="translate(21.95 469.9) rotate(-70.91)"/><use width="79.33" height="82.26" transform="translate(22.41 517.18) rotate(-75.87) scale(1.07)"/><use width="79.33" height="82.26" transform="translate(12.42 555.92) rotate(-73.97) scale(1.11)"/><use width="79.33" height="82.26" transform="translate(42.66 577.29) rotate(-61.31) scale(1.16)"/><use width="79.33" height="82.26" transform="translate(102.1 558.15) rotate(-84.78) scale(1.09)"/><use width="79.33" height="82.26" transform="translate(101.42 528.99) rotate(-80.16) scale(1.06)"/><use width="79.33" height="82.26" transform="translate(97.53 469.57) rotate(-58.21) scale(1.02)"/><use width="79.33" height="82.26" transform="translate(63.33 443.79) rotate(-50.57) scale(1.02)"/><use width="79.33" height="82.26" transform="translate(52.16 525.13) rotate(-66.22) scale(1.11)"/><use width="79.33" height="82.26" transform="matrix(0.32, -1.08, 1.08, 0.32, 81.41, 586.57)"/><use width="79.33" height="82.26" transform="translate(161.19 587.86) rotate(-106.36) scale(1.03)"/><use width="79.33" height="82.26" transform="translate(210.63 502.4) rotate(-85.77)"/><use width="79.33" height="82.26" transform="translate(151.86 398.52) rotate(-34.82) scale(1.08)"/><use width="79.33" height="82.26" transform="matrix(0.86, -0.69, 0.69, 0.86, 101.27, 378.49)"/><use width="79.33" height="82.26" transform="matrix(0.97, -0.52, 0.52, 0.97, 97.92, 341.97)"/><use width="79.33" height="82.26" transform="translate(228.76 326.67) rotate(-19.63)"/><use width="79.33" height="82.26" transform="translate(272.96 368.53) rotate(-11.12)"/><use width="79.33" height="82.26" transform="matrix(0.97, -0.26, 0.26, 0.97, 288.72, 436.47)"/><use width="79.33" height="82.26" transform="translate(122.48 463.84) rotate(-61.37) scale(1.04)"/><use width="79.33" height="82.26" transform="matrix(0.81, -0.68, 0.68, 0.81, 88.57, 415.47)"/><use width="79.33" height="82.26" transform="matrix(0.88, -0.6, 0.6, 0.88, 172.02, 344.43)"/><use width="79.33" height="82.26" transform="translate(371.11 383.88) rotate(-0.25) scale(1.08)"/><use width="79.33" height="82.26" transform="translate(425.86 427.22) rotate(8.93) scale(1.09)"/><use width="79.33" height="82.26" transform="matrix(1.11, 0.05, -0.05, 1.11, 435.57, 395.99)"/><use width="79.33" height="82.26" transform="matrix(1.06, 0.11, -0.11, 1.06, 462.02, 416.32)"/><use width="79.33" height="82.26" transform="translate(462.69 444.54) rotate(9.43) scale(1.05)"/><use width="79.33" height="82.26" transform="translate(332.4 323.84) rotate(-12.79)"/><use width="79.33" height="82.26" transform="translate(301.94 338.77) rotate(-12.45)"/><use width="79.33" height="82.26" transform="translate(345.81 417.01) rotate(-0.75) scale(1.04)"/><use width="79.33" height="82.26" transform="matrix(0.99, -0.11, 0.11, 0.99, 332.14, 486.17)"/><use width="79.33" height="82.26" transform="matrix(0.15, -0.99, 0.99, 0.15, 277.89, 561.47)"/><use width="79.33" height="82.26" transform="translate(241.57 599.6) rotate(-114.5)"/><use width="79.33" height="82.26" transform="translate(204.65 592.88) rotate(-113.29)"/><use width="79.33" height="82.26" transform="translate(401.28 490.21) rotate(9.37) scale(1.01)"/><use width="79.33" height="82.26" transform="matrix(1.01, -0.03, 0.03, 1.01, 334.97, 454.66)"/><use width="79.33" height="82.26" transform="matrix(0.75, -0.67, 0.67, 0.75, 220.68, 428.02)"/><use width="79.33" height="82.26" transform="translate(182.2 409.2) rotate(-38.27) scale(1.05)"/><use width="79.33" height="82.26" transform="translate(74.66 472.12) rotate(-55.34) scale(1.03)"/><use width="79.33" height="82.26" transform="translate(218.02 549.6) rotate(-107.63)"/><use width="79.33" height="82.26" transform="translate(250.58 547.59) rotate(-94.66)"/><use width="79.33" height="82.26" transform="translate(211.51 629.1) rotate(-114.58)"/><use width="79.33" height="82.26" transform="translate(174.73 536.02) rotate(-104.06)"/><use width="79.33" height="82.26" transform="translate(305.47 394.66) rotate(-6.94)"/><use width="79.33" height="82.26" transform="matrix(1, -0.16, 0.16, 1, 332.2, 359.24)"/><use width="79.33" height="82.26" transform="translate(200.97 364.68) rotate(-33.81) scale(1.04)"/><use width="79.33" height="82.26" transform="matrix(0.99, -0.48, 0.48, 0.99, 140.52, 332.53)"/><use width="79.33" height="82.26" transform="translate(271.22 185.9) rotate(-20.6)"/><use width="79.33" height="82.26" transform="translate(219.1 262.08) rotate(-15.95) scale(1.05)"/><use width="79.33" height="82.26" transform="matrix(1.03, -0.03, 0.03, 1.03, 186.47, 247.38)"/><use width="79.33" height="82.26" transform="translate(168.48 243.88) rotate(9.19) scale(1.01)"/><use width="79.33" height="82.26" transform="translate(241.41 289.57) rotate(-17.8) scale(1.08)"/><use width="79.33" height="82.26" transform="translate(205.7 347.16) rotate(-23.07) scale(1.05)"/><use width="79.33" height="82.26" transform="matrix(0.99, -0.18, 0.18, 0.99, 282.24, 217.47)"/><use width="79.33" height="82.26" transform="translate(259.41 199.81) rotate(-16.95)"/><use width="79.33" height="82.26" transform="matrix(0.99, -0.3, 0.3, 0.99, 237.46, 240.98)"/><use width="79.33" height="82.26" transform="translate(161.29 289.95) rotate(-8.56) scale(1.02)"/><use width="79.33" height="82.26" transform="matrix(0.97, -0.37, 0.37, 0.97, 178.44, 326.72)"/><use width="79.33" height="82.26" transform="translate(153.68 350.06) rotate(-23.75) scale(1.01)"/><use width="79.33" height="82.26" transform="matrix(0.96, -0.42, 0.42, 0.96, 277.27, 281.07)"/><use width="79.33" height="82.26" transform="translate(302.54 247.79) rotate(-15.49) scale(1.02)"/><use width="79.33" height="82.26" transform="translate(389.34 384.1) rotate(-33.33)"/><use width="79.33" height="82.26" transform="translate(404.9 408.31) rotate(-30.99)"/><use width="79.33" height="82.26" transform="matrix(0.85, -0.53, 0.53, 0.85, 373.08, 462.29)"/><use width="79.33" height="82.26" transform="matrix(0.87, -0.5, 0.5, 0.87, 412.41, 445.03)"/><use width="79.33" height="82.26" transform="translate(329.11 358.62) rotate(-52.55)"/><use width="79.33" height="82.26" transform="matrix(0.57, -0.82, 0.82, 0.57, 321.16, 395.76)"/><use width="79.33" height="82.26" transform="translate(313.01 437.57) rotate(-54.98)"/><use width="79.33" height="82.26" transform="matrix(0.62, -0.78, 0.78, 0.62, 277.91, 436.77)"/><use width="79.33" height="82.26" transform="matrix(0.78, -0.63, 0.63, 0.78, 357.11, 419.54)"/><use width="79.33" height="82.26" transform="translate(467.23 331.39) rotate(-11.38)"/><use width="79.33" height="82.26" transform="translate(525.09 244.57) rotate(22.52)"/><use width="79.33" height="82.26" transform="translate(554.22 149.01) rotate(37.07)"/><use width="79.33" height="82.26" transform="translate(485.65 72.8) rotate(6.2)"/><use width="79.33" height="82.26" transform="matrix(1.06, 0.01, -0.01, 1.06, 410.34, 141.7)"/><use width="79.33" height="82.26" transform="matrix(0.68, -0.73, 0.73, 0.68, 358.77, 319.32)"/><use width="79.33" height="82.26" transform="translate(367.87 348.45) rotate(-45.89)"/><use width="79.33" height="82.26" transform="matrix(0.76, -0.72, 0.72, 0.76, 261.36, 360.21)"/><use width="79.33" height="82.26" transform="matrix(1.03, -0.21, 0.21, 1.03, 288.78, 152.67)"/><use width="79.33" height="82.26" transform="translate(262.09 60.24) rotate(-2.35)"/><use width="79.33" height="82.26" transform="translate(208.56 72.57) rotate(-13.25)"/><use width="79.33" height="82.26" transform="translate(215.6 106.65) rotate(-15.27)"/><use width="79.33" height="82.26" transform="matrix(0.97, -0.26, 0.26, 0.97, 186.06, 103.82)"/><use width="79.33" height="82.26" transform="translate(275.24 19.91) rotate(4.84)"/><use width="79.33" height="82.26" transform="translate(330.98 19.96) rotate(23.75) scale(1.04)"/><use width="79.33" height="82.26" transform="translate(242.37 107.37) rotate(-13.51)"/><use width="79.33" height="82.26" transform="translate(215.31 155.75) rotate(-19.13)"/><use width="79.33" height="82.26" transform="translate(179.13 196.18) rotate(-20.29)"/><use width="79.33" height="82.26" transform="translate(224.18 187.89) rotate(-20.23)"/><use width="79.33" height="82.26" transform="matrix(0.95, -0.31, 0.31, 0.95, 186.73, 149.78)"/><use width="79.33" height="82.26" transform="translate(239.07 141.83) rotate(-17.61)"/><use width="79.33" height="82.26" transform="translate(158.17 167.5) rotate(-18.76)"/><use width="79.33" height="82.26" transform="matrix(0.93, -0.36, 0.36, 0.93, 206.67, 209.82)"/><use width="79.33" height="82.26" transform="translate(305.98 93.88) rotate(4.28) scale(1.09)"/><use width="79.33" height="82.26" transform="translate(351.6 83.44) rotate(4.67) scale(1.18)"/><use width="79.33" height="82.26" transform="matrix(1.11, -0.02, 0.02, 1.11, 395.23, 87.03)"/><use width="79.33" height="82.26" transform="translate(405.69 32.81) rotate(7.26) scale(1.05)"/><use width="79.33" height="82.26" transform="translate(421.05 59.92) rotate(0.21) scale(1.05)"/><use width="79.33" height="82.26" transform="translate(379.15 50.14) rotate(7.11) scale(1.1)"/><use width="79.33" height="82.26" transform="translate(373.72 5.33) rotate(29.17) scale(1.04)"/><use width="79.33" height="82.26" transform="translate(342.97 -14.62) rotate(27.61)"/><use width="79.33" height="82.26" transform="translate(348.12 128.11) rotate(-1.73) scale(1.13)"/><use width="79.33" height="82.26" transform="translate(451.85 190.16) rotate(6.48)"/><use width="79.33" height="82.26" transform="matrix(0.94, -0.34, 0.34, 0.94, 409.03, 298.63)"/><use width="79.33" height="82.26" transform="translate(466.88 287.82) rotate(1.1)"/><use width="79.33" height="82.26" transform="translate(560.49 208.32) rotate(29.6)"/><use width="79.33" height="82.26" transform="matrix(0.64, 0.77, -0.77, 0.64, 593.38, 169.56)"/><use width="79.33" height="82.26" transform="translate(580.4 115.51) rotate(47.4)"/><use width="79.33" height="82.26" transform="translate(547.23 92.4) rotate(34.79)"/><use width="79.33" height="82.26" transform="translate(524.07 186.04) rotate(20.29)"/><use width="79.33" height="82.26" transform="matrix(0.93, 0.36, -0.36, 0.93, 516.68, 209.85)"/><use width="79.33" height="82.26" transform="translate(494.56 146.04) rotate(8.76)"/><use width="79.33" height="82.26" transform="translate(453.07 150.23) rotate(-0.6)"/><use width="79.33" height="82.26" transform="translate(440.05 124.09) rotate(-1.11) scale(1.03)"/><use width="79.33" height="82.26" transform="translate(469.4 109.11) rotate(1.79)"/><use width="79.33" height="82.26" transform="matrix(0.98, 0.18, -0.18, 0.98, 457.78, 240.87)"/><use width="79.33" height="82.26" transform="translate(430.78 216.33) rotate(8.56)"/><use width="79.33" height="82.26" transform="translate(396.16 263.05) rotate(-18.23)"/><use width="79.33" height="82.26" transform="translate(380.87 199.58) rotate(-3.14)"/><use width="79.33" height="82.26" transform="translate(374.14 244.92) rotate(-22.55)"/><use width="79.33" height="82.26" transform="matrix(0.78, -0.63, 0.63, 0.78, 335.31, 268.43)"/><use width="79.33" height="82.26" transform="translate(339.98 176.5) rotate(-4.74) scale(1.05)"/><use width="79.33" height="82.26" transform="translate(308.22 204.18) rotate(-24.65) scale(1.02)"/><use width="79.33" height="82.26" transform="matrix(0.85, -0.53, 0.53, 0.85, 321.31, 233.03)"/><use width="79.33" height="82.26" transform="matrix(0.79, 0.61, -0.61, 0.79, 664.14, 151.8)"/><use width="79.33" height="82.26" transform="translate(639.5 148.73) rotate(48.61)"/><use width="79.33" height="82.26" transform="translate(618.07 191.32) rotate(45.69)"/><use width="79.33" height="82.26" transform="translate(660.8 188.6) rotate(51.92)"/><use width="79.33" height="82.26" transform="matrix(0.29, 0.96, -0.96, 0.29, 657.04, 274.58)"/><use width="79.33" height="82.26" transform="translate(607.82 159.51) rotate(43.94)"/><use width="79.33" height="82.26" transform="matrix(0.89, 0.45, -0.45, 0.89, 565.89, 136.88)"/><use width="79.33" height="82.26" transform="translate(528.26 217.64) rotate(14.63)"/><use width="79.33" height="82.26" transform="translate(631.94 302.05) rotate(84.65)"/><use width="79.33" height="82.26" transform="translate(594.53 339.89) rotate(89.41)"/><use width="79.33" height="82.26" transform="translate(609.37 394.49) rotate(82.48)"/><use width="79.33" height="82.26" transform="matrix(0.99, 0.17, -0.17, 0.99, 526.26, 429.74)"/><use width="79.33" height="82.26" transform="translate(451.54 494.33) rotate(-24.97)"/><use width="79.33" height="82.26" transform="translate(470.21 554.82) rotate(-57.11)"/><use width="79.33" height="82.26" transform="translate(572.26 688.21) rotate(-119.01)"/><use width="79.33" height="82.26" transform="translate(500.46 635.39) rotate(-99.79)"/><use width="79.33" height="82.26" transform="translate(569.2 635.48) rotate(-116.04)"/><use width="79.33" height="82.26" transform="translate(799.18 440.1) rotate(106.42)"/><use width="79.33" height="82.26" transform="translate(812.2 408.85) rotate(113.43)"/><use width="79.33" height="82.26" transform="translate(785.44 348.2) rotate(113.6)"/><use width="79.33" height="82.26" transform="translate(733.99 228.71) rotate(65.95)"/><use width="79.33" height="82.26" transform="matrix(0.64, 0.77, -0.77, 0.64, 684.98, 206.14)"/><use width="79.33" height="82.26" transform="matrix(-0.39, 0.92, -0.92, -0.39, 806.64, 315.24)"/><use width="79.33" height="82.26" transform="translate(735.09 365.08) rotate(100.61)"/><use width="79.33" height="82.26" transform="translate(659.47 405.5) rotate(84.19)"/><use width="79.33" height="82.26" transform="matrix(-0.5, 0.86, -0.86, -0.5, 722.41, 486.04)"/><use width="79.33" height="82.26" transform="matrix(-0.25, 0.97, -0.97, -0.25, 689.58, 478.06)"/><use width="79.33" height="82.26" transform="matrix(-0.11, 0.99, -0.99, -0.11, 743.41, 390.46)"/><use width="79.33" height="82.26" transform="matrix(-0.27, 0.96, -0.96, -0.27, 759.78, 300.06)"/><use width="79.33" height="82.26" transform="translate(782.41 263.24) rotate(97.13)"/><use width="79.33" height="82.26" transform="translate(716.49 190.76) rotate(36.71)"/><use width="79.33" height="82.26" transform="translate(676.44 228.42) rotate(50.87)"/><use width="79.33" height="82.26" transform="translate(785.06 222.98) rotate(61.38)"/><use width="79.33" height="82.26" transform="translate(830.85 251.34) rotate(88.31)"/><use width="79.33" height="82.26" transform="translate(747.35 185.92) rotate(27.24)"/><use width="79.33" height="82.26" transform="matrix(0.78, 0.63, -0.63, 0.78, 624.8, 231.07)"/><use width="79.33" height="82.26" transform="matrix(0.92, 0.39, -0.39, 0.92, 567.52, 250.04)"/><use width="79.33" height="82.26" transform="translate(574.98 182.01) rotate(35.15)"/><use width="79.33" height="82.26" transform="translate(502.41 184.75) rotate(8.05)"/><use width="79.33" height="82.26" transform="translate(474.44 280.51) rotate(0.13)"/><use width="79.33" height="82.26" transform="translate(454.96 308.06) rotate(8.09)"/><use width="79.33" height="82.26" transform="translate(412.9 396.14) rotate(-36.25)"/><use width="79.33" height="82.26" transform="translate(418.88 456.6) rotate(-43.34)"/><use width="79.33" height="82.26" transform="translate(376.1 474.35) rotate(-45.65)"/><use width="79.33" height="82.26" transform="matrix(0.65, -0.76, 0.76, 0.65, 528.39, 506.53)"/><use width="79.33" height="82.26" transform="translate(590.13 553.66) rotate(-44.35)"/><use width="79.33" height="82.26" transform="translate(705.28 427.33) rotate(90.74)"/><use width="79.33" height="82.26" transform="translate(643.69 373.27) rotate(97.04)"/><use width="79.33" height="82.26" transform="translate(526.83 387.45) rotate(44.82)"/><use width="79.33" height="82.26" transform="translate(817.34 375.3) rotate(113.58)"/><use width="79.33" height="82.26" transform="matrix(-0.39, 0.92, -0.92, -0.39, 860.31, 318.12)"/><use width="79.33" height="82.26" transform="translate(830.38 337.01) rotate(113.52)"/><use width="79.33" height="82.26" transform="translate(737.53 333.53) rotate(103.25)"/><use width="79.33" height="82.26" transform="matrix(0.48, 0.88, -0.88, 0.48, 912.42, 269.79)"/><use width="79.33" height="82.26" transform="translate(864.58 275.73) rotate(51.14)"/><use width="79.33" height="82.26" transform="translate(732.85 358.3) rotate(-11.1)"/><use width="79.33" height="82.26" transform="translate(900.36 398.74) rotate(112.19)"/><use width="79.33" height="82.26" transform="translate(951.92 292.64) rotate(72.44)"/><use width="79.33" height="82.26" transform="translate(768.06 225.1) rotate(44.48)"/><use width="79.33" height="82.26" transform="translate(670.12 321.66) rotate(-34.87)"/><use width="79.33" height="82.26" transform="translate(844.36 317.65) rotate(54.08)"/><use width="79.33" height="82.26" transform="translate(859.04 449.53) rotate(137.56)"/><use width="79.33" height="82.26" transform="translate(917.25 369.31) rotate(70.31)"/><use width="79.33" height="82.26" transform="matrix(0.65, 0.76, -0.76, 0.65, 919.25, 332.15)"/><use width="79.33" height="82.26" transform="translate(805.38 252.53) rotate(43.87)"/><use width="79.33" height="82.26" transform="translate(950.51 257.67) rotate(71.11)"/><use width="79.33" height="82.26" transform="matrix(0.52, 0.86, -0.86, 0.52, 935, 220.57)"/><use width="79.33" height="82.26" transform="translate(843.73 204.14) rotate(44.91)"/><use width="79.33" height="82.26" transform="translate(999.21 236.04) rotate(72.69)"/><use width="79.33" height="82.26" transform="translate(1014.76 272.76) rotate(75.06)"/><use width="79.33" height="82.26" transform="translate(1027.33 298.23) rotate(71.32)"/><use width="79.33" height="82.26" transform="translate(1033.19 234.99) rotate(72.91)"/><use width="79.33" height="82.26" transform="translate(978.2 310.76) rotate(67.59)"/><use width="79.33" height="82.26" transform="matrix(0.56, 0.83, -0.83, 0.56, 906.01, 318.76)"/><use width="79.33" height="82.26" transform="matrix(0.61, 0.79, -0.79, 0.61, 871.92, 313.92)"/><use width="79.33" height="82.26" transform="translate(878.05 233.37) rotate(48.95)"/><use width="79.33" height="82.26" transform="translate(712.88 335.98) rotate(-33.68)"/><use width="79.33" height="82.26" transform="matrix(-0.71, 0.7, -0.7, -0.71, 868.75, 418.69)"/><use width="79.33" height="82.26" transform="translate(925.94 443.49) rotate(121.81)"/><use width="79.33" height="82.26" transform="matrix(-0.5, 0.87, -0.87, -0.5, 889.79, 448.28)"/><use width="79.33" height="82.26" transform="translate(773.97 379.33) rotate(63.13)"/><use width="79.33" height="82.26" transform="matrix(0.41, -0.91, 0.91, 0.41, 666.16, 421.34)"/><use width="79.33" height="82.26" transform="translate(693.05 415.62) rotate(-57.64)"/><use width="79.33" height="82.26" transform="translate(762.82 320.99) rotate(-0.58)"/><use width="79.33" height="82.26" transform="matrix(0.43, 0.91, -0.91, 0.43, 1080.96, 446.49)"/><use width="79.33" height="82.26" transform="matrix(0.99, -0.17, 0.17, 0.99, 962.31, 482.49)"/><use width="79.33" height="82.26" transform="translate(961.36 612.83) rotate(-175.01)"/><use width="79.33" height="82.26" transform="translate(924.31 599.2) rotate(-115.29)"/><use width="79.33" height="82.26" transform="translate(897.75 497.39) rotate(-37.59)"/><use width="79.33" height="82.26" transform="translate(883.69 587.05) rotate(-120.05)"/><use width="79.33" height="82.26" transform="translate(949.13 428.04) rotate(11.82) scale(1.01)"/><use width="79.33" height="82.26" transform="matrix(0.74, -0.67, 0.67, 0.74, 867.97, 468.87)"/><use width="79.33" height="82.26" transform="translate(823.11 505.69) rotate(-54.25)"/><use width="79.33" height="82.26" transform="translate(886.95 402.32) rotate(-14.28)"/><use width="79.33" height="82.26" transform="matrix(0.93, -0.37, 0.37, 0.93, 812.23, 441.13)"/><use width="79.33" height="82.26" transform="translate(846.17 437.7) rotate(-40.99)"/><use width="79.33" height="82.26" transform="matrix(0.86, 0.71, -0.71, 0.86, 983.82, 324.25)"/><use width="79.33" height="82.26" transform="translate(1051.98 326.33) rotate(61.5) scale(1.22)"/><use width="79.33" height="82.26" transform="translate(1090.03 316.96) rotate(66.94) scale(1.16)"/><use width="79.33" height="82.26" transform="matrix(0.44, 0.96, -0.96, 0.44, 1131.72, 317.65)"/><use width="79.33" height="82.26" transform="translate(1209.55 500.82) rotate(108.72)"/><use width="79.33" height="82.26" transform="translate(1225.88 539.67) rotate(115.83)"/><use width="79.33" height="82.26" transform="matrix(-0.61, 0.8, -0.8, -0.61, 1238.06, 580.37)"/><use width="79.33" height="82.26" transform="translate(1057.28 409.52) rotate(52.2) scale(1.07)"/><use width="79.33" height="82.26" transform="translate(1091.71 437.45) rotate(63.81) scale(1.01)"/><use width="79.33" height="82.26" transform="translate(1259.25 524.46) rotate(123.47)"/><use width="79.33" height="82.26" transform="matrix(-0.43, 0.9, -0.9, -0.43, 1241.4, 479.38)"/><use width="79.33" height="82.26" transform="translate(1153 464.91) rotate(87.28)"/><use width="79.33" height="82.26" transform="translate(1174.46 401.48) rotate(62.53)"/><use width="79.33" height="82.26" transform="translate(1223.47 382.92) rotate(60.11)"/><use width="79.33" height="82.26" transform="matrix(-0.41, 0.91, -0.91, -0.41, 1291.49, 461.74)"/><use width="79.33" height="82.26" transform="translate(1290.05 502.44) rotate(124.61)"/><use width="79.33" height="82.26" transform="matrix(-0.6, 0.8, -0.8, -0.6, 1298.21, 559.46)"/><use width="79.33" height="82.26" transform="translate(1276.99 603.63) rotate(124.25)"/><use width="79.33" height="82.26" transform="translate(1174.47 726.06) rotate(-173.22)" xlink:href="#Figueira-Foliage-BG-2"/><use width="79.33" height="82.26" transform="translate(1124.87 700.02) rotate(-174.45)"/><use width="79.33" height="82.26" transform="matrix(-0.64, 0.77, -0.77, -0.64, 1110.06, 618.59)"/><use width="79.33" height="82.26" transform="translate(1054.42 579.1) rotate(72.6)"/><use width="79.33" height="82.26" transform="translate(1066.04 549.73) rotate(86.49)"/><use width="79.33" height="82.26" transform="matrix(-0.63, 0.78, -0.78, -0.63, 1116.51, 568.08)"/><use width="79.33" height="82.26" transform="translate(1201.45 643.71) rotate(166.77)"/><use width="79.33" height="82.26" transform="translate(1203.58 683.4) rotate(-175.41)"/><use width="79.33" height="82.26" transform="translate(1167.25 682.22) rotate(-175.03)"/><use width="79.33" height="82.26" transform="translate(1149.65 653.36) rotate(-176.82)"/><use width="79.33" height="82.26" transform="matrix(-0.99, 0.1, -0.1, -0.99, 1131.91, 626.91)"/><use width="79.33" height="82.26" transform="translate(1165.77 597.21) rotate(157.57)"/><use width="79.33" height="82.26" transform="translate(1146.46 579.53) rotate(151.46)"/><use width="79.33" height="82.26" transform="translate(1171.73 518.81) rotate(110.22)"/><use width="79.33" height="82.26" transform="translate(1153.27 363.87) rotate(64.11) scale(1.01)"/><use width="79.33" height="82.26" transform="translate(1127.07 361.36) rotate(66.18) scale(1.08)"/><use width="79.33" height="82.26" transform="matrix(0.43, 1.06, -1.06, 0.43, 1101.54, 359.79)"/><use width="79.33" height="82.26" transform="matrix(0.44, 0.96, -0.96, 0.44, 1092.96, 414.76)"/><use width="79.33" height="82.26" transform="translate(1029.89 455.28) rotate(40.81)"/><use width="79.33" height="82.26" transform="translate(1014.41 597.03) rotate(-134.05)"/><use width="79.33" height="82.26" transform="matrix(0.69, 0.89, -0.89, 0.69, 1018.26, 374.71)"/><use width="79.33" height="82.26" transform="matrix(0.93, 0.53, -0.53, 0.93, 959.64, 365.69)"/><use width="79.33" height="82.26" transform="translate(1209.82 445.52) rotate(89.14)"/><use width="79.33" height="82.26" transform="translate(1202.71 469.06) rotate(98.99)"/><use width="79.33" height="82.26" transform="translate(1156.39 423.37) rotate(68.27)"/><use width="79.33" height="82.26" transform="translate(1126.16 412.83) rotate(66.34) scale(1.02)"/><use width="79.33" height="82.26" transform="matrix(0.32, 0.95, -0.95, 0.32, 1126.28, 438.67)"/><use width="79.33" height="82.26" transform="translate(1139.8 484.01) rotate(103.62)"/><use width="79.33" height="82.26" transform="translate(1120.07 478.14) rotate(89.09)"/><use width="79.33" height="82.26" transform="translate(760.81 303.83) rotate(17.02)"/><use width="79.33" height="82.26" transform="translate(714 228.28) rotate(35.74)"/><use width="79.33" height="82.26" transform="translate(648.19 504.99) rotate(-88.84)"/><use width="79.33" height="82.26" transform="translate(617.95 328.56) rotate(4.54)"/><use width="79.33" height="82.26" transform="matrix(0.88, 0.47, -0.47, 0.88, 672.95, 252.2)"/><use width="79.33" height="82.26" transform="translate(538.28 337.34) rotate(-9.1)"/><use width="79.33" height="82.26" transform="translate(666.58 427.98) rotate(-41.05)"/><use width="79.33" height="82.26" transform="translate(662.83 336.86) rotate(4.84)"/><use width="79.33" height="82.26" transform="translate(892.31 261.24) rotate(42.57)"/><use width="79.33" height="82.26" transform="matrix(0.33, 0.94, -0.94, 0.33, 846.33, 338.71)"/><use width="79.33" height="82.26" transform="translate(729 276.85) rotate(13.83)"/><use width="79.33" height="82.26" transform="matrix(0.69, -0.73, 0.73, 0.69, 591.75, 406.49)"/><use width="79.33" height="82.26" transform="translate(659.01 302.75) rotate(16.64)"/><use width="79.33" height="82.26" transform="translate(675.32 485.69) rotate(-60.36)"/><use width="79.33" height="82.26" transform="matrix(0.78, 0.62, -0.62, 0.78, 851.37, 252)"/><use width="79.33" height="82.26" transform="translate(935.6 382.96) rotate(95.84)"/><use width="79.33" height="82.26" transform="translate(946.64 284.99) rotate(60.19)"/><use width="79.33" height="82.26" transform="translate(1043.09 438.04) rotate(113.57)"/><use width="79.33" height="82.26" transform="translate(1099.33 463.77) rotate(94.8)"/><use width="79.33" height="82.26" transform="translate(1114.82 411.98) rotate(105.79)"/><use width="79.33" height="82.26" transform="translate(1014.97 416.14) rotate(117.9)"/><use width="79.33" height="82.26" transform="translate(842.41 292.53) rotate(52.68)"/><use width="79.33" height="82.26" transform="translate(884.22 356.11) rotate(79.33)"/><use width="79.33" height="82.26" transform="translate(935.59 312.94) rotate(82.06)"/><use width="79.33" height="82.26" transform="translate(996.62 342.61) rotate(92.31)"/><use width="79.33" height="82.26" transform="translate(1048.84 403.73) rotate(105.08)"/><use width="79.33" height="82.26" transform="matrix(-0.21, 0.98, -0.98, -0.21, 1068.89, 361.34)"/><use width="79.33" height="82.26" transform="translate(1034.95 364.62) rotate(99.61)"/><use width="79.33" height="82.26" transform="translate(1034.16 314.38) rotate(74.53)"/><use width="79.33" height="82.26" transform="translate(992.15 296.76) rotate(60.83)"/><use width="79.33" height="82.26" transform="translate(1072.09 390.87) rotate(99.03)"/><use width="79.33" height="82.26" transform="translate(967.98 385.09) rotate(100.15)"/><use width="79.33" height="82.26" transform="translate(883.64 283.4) rotate(60.58)"/><use width="79.33" height="82.26" transform="translate(918.33 347.63) rotate(96.96)"/><use width="79.33" height="82.26" transform="translate(971.08 357.87) rotate(106.81)"/><use width="79.33" height="82.26" transform="translate(720.28 332.85) rotate(7.6)"/><use width="79.33" height="82.26" transform="translate(710.32 440.98) rotate(-21.16)"/><use width="79.33" height="82.26" transform="translate(628.8 486.62) rotate(-95.4)"/><use width="79.33" height="82.26" transform="translate(740.47 240.98) rotate(36.84)"/><use width="79.33" height="82.26" transform="translate(768.69 255.62) rotate(10.7)"/><use width="79.33" height="82.26" transform="translate(756.67 226.26) rotate(18.61)"/><use width="79.33" height="82.26" transform="translate(519.93 397.27) rotate(-40.08)"/><use width="79.33" height="82.26" transform="translate(569.82 301.79) rotate(1.42)"/><use width="79.33" height="82.26" transform="translate(563.35 266.69) rotate(5.85)"/><use width="79.33" height="82.26" transform="translate(485.24 323.52) rotate(-14.3)"/><use width="79.33" height="82.26" transform="translate(506.04 325.57) rotate(-33.57)"/><use width="79.33" height="82.26" transform="matrix(0.93, 0.36, -0.36, 0.93, 611.78, 265.09)"/><use width="79.33" height="82.26" transform="translate(1254.91 642.03) rotate(-116.57)"/><use width="79.33" height="82.26" transform="translate(1167.33 718.65) rotate(-111.3)"/><use width="79.33" height="82.26" transform="translate(1129.98 750.63) rotate(-107.1)"/><use width="79.33" height="82.26" transform="translate(1072.58 739.73) rotate(-101.66)"/><use width="79.33" height="82.26" transform="translate(993.9 760.22) rotate(-90)"/><use width="79.33" height="82.26" transform="translate(944.64 771.9) rotate(-90)"/><use width="79.33" height="82.26" transform="translate(902.96 760.69) rotate(-77.47)"/><use width="79.33" height="82.26" transform="matrix(1, -0.04, 0.04, 1, 935.4, 536.67)"/><use width="79.33" height="82.26" transform="translate(900.86 554.95) rotate(-59.04)"/><use width="79.33" height="82.26" transform="translate(826.59 650.34) rotate(-101.82)"/><use width="79.33" height="82.26" transform="matrix(-0.5, -0.86, 0.86, -0.5, 806.72, 729.15)"/><use width="79.33" height="82.26" transform="translate(779.32 806.14) rotate(-118.07)"/><use width="79.33" height="82.26" transform="translate(1057.57 666.98) rotate(-106.35)"/><use width="79.33" height="82.26" transform="translate(884.12 773.08) rotate(-101.84)"/><use width="79.33" height="82.26" transform="translate(784.02 672.74) rotate(-100.04)"/><use width="79.33" height="82.26" transform="translate(708.58 744.07) rotate(-101.31)"/><use width="79.33" height="82.26" transform="translate(187.41 781.39) rotate(-110.82)"/><use width="79.33" height="82.26" transform="matrix(-0.08, -1, 1, -0.08, 140.57, 747.29)"/><use width="79.33" height="82.26" transform="translate(92.24 619.09) rotate(-59.53)"/><use width="79.33" height="82.26" transform="translate(51.1 544.58) rotate(-63.43)"/><use width="79.33" height="82.26" transform="translate(312.4 842.76) rotate(-109.24)"/><use width="79.33" height="82.26" transform="translate(240.54 774.64) rotate(-63.43)"/><use width="79.33" height="82.26" transform="translate(196.95 755.24) rotate(-82.09)"/><use width="79.33" height="82.26" transform="matrix(0.32, -0.95, 0.95, 0.32, 163.45, 706.49)"/><use width="79.33" height="82.26" transform="translate(196.61 454.37) rotate(34.51)"/><use width="79.33" height="82.26" transform="matrix(0.31, 0.95, -0.95, 0.31, 375.66, 370.74)"/><use width="79.33" height="82.26" transform="translate(516.32 532.91) rotate(108.08)"/><use width="79.33" height="82.26" transform="translate(581.5 758.02) rotate(123.69)"/><use width="79.33" height="82.26" transform="translate(632.61 813.43) rotate(131.99)"/><use width="79.33" height="82.26" transform="translate(504.98 862.92) rotate(-106.7)"/><use width="79.33" height="82.26" transform="translate(366.1 813.14) rotate(-90)"/><use width="79.33" height="82.26" transform="translate(325.33 760.55) rotate(-77.47)"/><use width="79.33" height="82.26" transform="translate(314.61 795.9) rotate(-90)"/><use width="79.33" height="82.26" transform="matrix(0.93, -0.37, 0.37, 0.93, 298.68, 679.9)"/><use width="79.33" height="82.26" transform="translate(288.6 460.99) rotate(7.13)"/><use width="79.33" height="82.26" transform="translate(468.46 620.47) rotate(97.13)"/><use width="79.33" height="82.26" transform="translate(537.56 736.53) rotate(113.2)"/><use width="79.33" height="82.26" transform="translate(455.46 854.8) rotate(-132.51)"/><use width="79.33" height="82.26" transform="translate(360.8 852.19) rotate(-104.93)"/><use width="79.33" height="82.26" transform="translate(269.17 757.91) rotate(-69.15)"/><use width="79.33" height="82.26" transform="matrix(0.76, 0.65, -0.65, 0.76, 341.15, 417.24)"/><use width="79.33" height="82.26" transform="translate(503.92 387.63) rotate(80.91)"/><use width="79.33" height="82.26" transform="translate(564.5 457.75) rotate(99.46)"/><use width="79.33" height="82.26" transform="translate(606.62 534.62) rotate(90)"/><use width="79.33" height="82.26" transform="translate(576.26 444.08) rotate(63.43)"/><use width="79.33" height="82.26" transform="translate(603.23 429.84) rotate(59.04)"/><use width="79.33" height="82.26" transform="translate(524.69 609.66) rotate(-116.57)"/><use width="79.33" height="82.26" transform="translate(383.15 615.2) rotate(-93.37)"/><use width="79.33" height="82.26" transform="translate(314.02 629.33) rotate(-90)"/><use width="79.33" height="82.26" transform="translate(246.13 520.05) rotate(-90)"/><use width="79.33" height="82.26" transform="matrix(-0.21, -0.98, 0.98, -0.21, 177.21, 676.25)"/><use width="79.33" height="82.26" transform="translate(138.1 698.57) rotate(-104.04)"/><use width="79.33" height="82.26" transform="translate(92.57 706.98) rotate(-90)"/><use width="79.33" height="82.26" transform="translate(58.75 667.26) rotate(-90)"/><use width="79.33" height="82.26" transform="translate(16.5 676.33) rotate(-87.8)"/><use width="79.33" height="82.26" transform="translate(-3.77 635.36) rotate(-85.6)"/><use width="79.33" height="82.26" transform="translate(1166.38 679.08) rotate(-135)"/><use width="79.33" height="82.26" transform="translate(1076.17 693.72) rotate(-90)"/><use width="79.33" height="82.26" transform="translate(979.31 669.15) rotate(-78.69)"/><use width="79.33" height="82.26" transform="translate(948.38 499.46) rotate(-35.54)"/><use width="79.33" height="82.26" transform="translate(1056.73 411.45) rotate(51.84)"/><use width="79.33" height="82.26" transform="translate(1007.19 598.74) rotate(-132.51)"/><use width="79.33" height="82.26" transform="matrix(-0.34, -0.94, 0.94, -0.34, 856.31, 713.13)" xlink:href="#Figueira-Foliage-BG-7"/><use width="79.33" height="82.26" transform="matrix(-0.2, -0.98, 0.98, -0.2, 808.89, 759.12)" xlink:href="#Figueira-Foliage-BG-7"/><use width="79.33" height="82.26" transform="matrix(-0.2, -0.98, 0.98, -0.2, 749.67, 775.94)" xlink:href="#Figueira-Foliage-BG-7"/><use width="79.33" height="82.26" transform="translate(697.53 811.4) rotate(-101.31)" xlink:href="#Figueira-Foliage-BG-7"/><use width="79.33" height="82.26" transform="translate(647.97 821.96) rotate(-101.31)" xlink:href="#Figueira-Foliage-BG-7"/><use width="79.33" height="82.26" transform="translate(558.5 791.58) rotate(-90)" xlink:href="#Figueira-Foliage-BG-7"/><use width="79.33" height="82.26" transform="translate(530.85 767.98) rotate(-90)" xlink:href="#Figueira-Foliage-BG-7"/><use width="79.33" height="82.26" transform="translate(679.51 656.91) rotate(75.53)" xlink:href="#Figueira-Foliage-BG-7"/><use width="79.33" height="82.26" transform="translate(762.56 634.86) rotate(-90)" xlink:href="#Figueira-Foliage-BG-7"/><use width="79.33" height="82.26" transform="translate(698.66 594.7) rotate(-87.8)" xlink:href="#Figueira-Foliage-BG-7"/><use width="79.33" height="82.26" transform="translate(658.39 589.97) rotate(-102.09)" xlink:href="#Figueira-Foliage-BG-7"/><use width="79.33" height="82.26" transform="translate(790.4 572.17) rotate(128.66)" xlink:href="#Figueira-Foliage-BG-7"/><use width="79.33" height="82.26" transform="matrix(0.16, 0.99, -0.99, 0.16, 911.66, 517.48)"/><use width="79.33" height="82.26" transform="translate(957.05 439.14) rotate(55.62)"/><use width="79.33" height="82.26" transform="matrix(0.37, -0.93, 0.93, 0.37, 867.64, 488.29)"/><use width="79.33" height="82.26" transform="translate(772.1 615.06) rotate(-109.59)" xlink:href="#Figueira-Foliage-BG-7"/><use width="79.33" height="82.26" transform="translate(745.01 733.06) rotate(-112.17)" xlink:href="#Figueira-Foliage-BG-7"/><use width="79.33" height="82.26" transform="translate(684.44 775.49) rotate(-112.38)" xlink:href="#Figueira-Foliage-BG-7"/><use width="79.33" height="82.26" transform="translate(623.86 825.62) rotate(-111.8)" xlink:href="#Figueira-Foliage-BG-7"/><use width="79.33" height="82.26" transform="translate(566.36 849.39) rotate(-107.24)" xlink:href="#Figueira-Foliage-BG-7"/><use width="79.33" height="82.26" transform="matrix(0.22, -0.97, 0.97, 0.22, 403.25, 752.01)" xlink:href="#Figueira-Foliage-BG-7"/><use width="79.33" height="82.26" transform="translate(347.67 633.31) rotate(-63.43)" xlink:href="#Figueira-Foliage-BG-7"/><use width="79.33" height="82.26" transform="translate(299.27 568.1) rotate(-85.43)" xlink:href="#Figueira-Foliage-BG-7"/><use width="79.33" height="82.26" transform="translate(234.29 579.01) rotate(-93.27)" xlink:href="#Figueira-Foliage-BG-7"/><use width="79.33" height="82.26" transform="translate(148.28 615.3) rotate(-96.91)" xlink:href="#Figueira-Foliage-BG-7"/><use width="79.33" height="82.26" transform="translate(86.01 605.26) rotate(-88.41)" xlink:href="#Figueira-Foliage-BG-7"/><use width="79.33" height="82.26" transform="translate(1168.87 444.96) rotate(80.54)"/><use width="79.33" height="82.26" transform="matrix(0.18, 0.98, -0.98, 0.18, 1222.1, 431.82)"/><use width="79.33" height="82.26" transform="translate(1274.64 442.95) rotate(75.07)"/><use width="79.33" height="82.26" transform="translate(1257.12 395.09) rotate(54.46)"/><use width="79.33" height="82.26" transform="translate(1183.91 586.74) rotate(-119.05)"/><use width="79.33" height="82.26" transform="matrix(-0.54, -0.84, 0.84, -0.54, 628.7, 545.15)" xlink:href="#Figueira-Foliage-BG-7"/><use width="79.33" height="82.26" transform="translate(543.4 587.82) rotate(-109.98)" xlink:href="#Figueira-Foliage-BG-7"/><use width="79.33" height="82.26" transform="translate(485.78 666.41) rotate(-113.5)" xlink:href="#Figueira-Foliage-BG-7"/><use width="79.33" height="82.26" transform="translate(408.96 755.25) rotate(-109.8)" xlink:href="#Figueira-Foliage-BG-7"/><use width="79.33" height="82.26" transform="matrix(-0.51, -0.86, 0.86, -0.51, 431.29, 818.49)" xlink:href="#Figueira-Foliage-BG-7"/><use width="79.33" height="82.26" transform="translate(602.96 724.42) rotate(88.49)" xlink:href="#Figueira-Foliage-BG-7"/><use width="79.33" height="82.26" transform="translate(498.35 681.75)" xlink:href="#Figueira-Foliage-BG-7"/><use width="79.33" height="82.26" transform="translate(466.42 714.28) rotate(-73.3)" xlink:href="#Figueira-Foliage-BG-7"/><use width="79.33" height="82.26" transform="translate(455.69 756.72) rotate(-90)" xlink:href="#Figueira-Foliage-BG-7"/><use width="79.33" height="82.26" transform="translate(428.94 714.34) rotate(-90)" xlink:href="#Figueira-Foliage-BG-7"/><use width="79.33" height="82.26" transform="translate(421.62 679.24) rotate(-90)" xlink:href="#Figueira-Foliage-BG-7"/><use width="79.33" height="82.26" transform="translate(556.24 593.84) rotate(82.41)" xlink:href="#Figueira-Foliage-BG-7"/><use width="79.33" height="82.26" transform="translate(606.15 624.32) rotate(78.69)" xlink:href="#Figueira-Foliage-BG-7"/><use width="79.33" height="82.26" transform="translate(657.31 574.4) rotate(75.96)" xlink:href="#Figueira-Foliage-BG-7"/><use width="79.33" height="82.26" transform="translate(661.85 612.64) rotate(75.96)" xlink:href="#Figueira-Foliage-BG-7"/><use width="79.33" height="82.26" transform="translate(675.34 523.33) rotate(71.57)" xlink:href="#Figueira-Foliage-BG-7"/><use width="79.33" height="82.26" transform="translate(556.1 543.49) rotate(-71.57)" xlink:href="#Figueira-Foliage-BG-7"/><use width="79.33" height="82.26" transform="matrix(0.34, -0.94, 0.94, 0.34, 508.64, 483.28)" xlink:href="#Figueira-Foliage-BG-7"/><use width="79.33" height="82.26" transform="translate(466.99 463.9) rotate(-74.05)" xlink:href="#Figueira-Foliage-BG-7"/><use width="82.26" height="79.33" transform="translate(1102.49 538.49) rotate(90)"/><use width="82.26" height="79.33" transform="translate(1121.85 507.28) rotate(90)"/><use width="82.26" height="79.33" transform="translate(1161.07 517.06) rotate(90)"/><use width="82.26" height="79.33" transform="translate(1102.38 652.32) rotate(-123.69)"/><use width="82.26" height="79.33" transform="translate(1031.7 711.31) rotate(-104.04)"/><use width="82.26" height="79.33" transform="translate(996.52 653.57) rotate(-97.13)"/><use width="82.26" height="79.33" transform="translate(988.14 732.58) rotate(-99.46)"/><use width="82.26" height="79.33" transform="translate(951.46 685.83) rotate(-90)"/><use width="82.26" height="79.33" transform="translate(939.1 727.21) rotate(-90)"/><use width="82.26" height="79.33" transform="translate(899.34 720.88) rotate(-80.54)"/><use width="82.26" height="79.33" transform="matrix(0.53, -0.85, 0.85, 0.53, 880.33, 661.78)"/><use width="82.26" height="79.33" transform="translate(884.59 614.74) rotate(-45)"/><use width="82.26" height="79.33" transform="matrix(0.84, -0.54, 0.54, 0.84, 869.34, 564.93)"/><use width="82.26" height="79.33" transform="translate(860.63 514) rotate(-28.61)"/><use width="82.26" height="79.33" transform="translate(837.22 503.89) rotate(-45)"/><use width="82.26" height="79.33" transform="translate(830.06 496.83) rotate(-75.96)"/><use width="82.26" height="79.33" transform="translate(801.63 517.61) rotate(-92.86)"/><use width="82.26" height="79.33" transform="matrix(-0.2, -0.98, 0.98, -0.2, 771.02, 495.38)"/><use width="82.26" height="79.33" transform="translate(784.01 557.69) rotate(-113.96)"/><use width="82.26" height="79.33" transform="matrix(-0.37, -0.93, 0.93, -0.37, 744.12, 561.48)"/><use width="82.26" height="79.33" transform="translate(702.64 566.17) rotate(-115.02)"/><use width="82.26" height="79.33" transform="translate(676.69 692.03) rotate(-112.25)"/><use width="82.26" height="79.33" transform="translate(652 724.13) rotate(-109.98)"/><use width="82.26" height="79.33" transform="translate(598.36 597.63) rotate(-99.46)"/><use width="82.26" height="79.33" transform="matrix(-0.18, -0.98, 0.98, -0.18, 563.77, 659.12)"/><use width="82.26" height="79.33" transform="matrix(-0.22, -0.98, 0.98, -0.22, 548.54, 695.94)"/><use width="82.26" height="79.33" transform="translate(511.87 659.02) rotate(-96.34)"/><use width="82.26" height="79.33" transform="translate(458.42 564.76) rotate(-90)"/><use width="82.26" height="79.33" transform="translate(417.21 630.35) rotate(-86.82)"/><use width="82.26" height="79.33" transform="translate(382.73 527.63) rotate(-75.96)" xlink:href="#Figueira-Foliage-BG-4"/><use width="82.26" height="79.33" transform="translate(368.01 489.81) rotate(-78.69)" xlink:href="#Figueira-Foliage-BG-4"/><use width="82.26" height="79.33" transform="translate(343.8 496.92) rotate(-90)" xlink:href="#Figueira-Foliage-BG-4"/><use width="82.26" height="79.33" transform="translate(329.38 533.98) rotate(-90)" xlink:href="#Figueira-Foliage-BG-4"/><use width="82.26" height="79.33" transform="translate(350.42 614.51) rotate(-116.57)"/><use width="82.26" height="79.33" transform="matrix(-0.58, -0.81, 0.81, -0.58, 348.14, 678.9)"/><use width="82.26" height="79.33" transform="matrix(-0.51, -0.86, 0.86, -0.51, 340.69, 717.03)"/><use width="82.26" height="79.33" transform="translate(291.22 692.62) rotate(-105.95)"/><use width="82.26" height="79.33" transform="translate(285.71 738.03) rotate(-108.43)"/><use width="82.26" height="79.33" transform="translate(231.53 697.74) rotate(-81.87)"/><use width="82.26" height="79.33" transform="matrix(0.53, -0.85, 0.85, 0.53, 206.74, 586.07)"/><use width="82.26" height="79.33" transform="translate(181.41 503.95) rotate(-71.57)" xlink:href="#Figueira-Foliage-BG-4"/><use width="82.26" height="79.33" transform="translate(199.72 547.27) rotate(-90)"/><use width="82.26" height="79.33" transform="translate(185.11 584.95) rotate(-90)"/><use width="82.26" height="79.33" transform="translate(238.92 646.73) rotate(-153.43)"/><use width="82.26" height="79.33" transform="translate(295.54 599.62) rotate(100.3)"/><use width="82.26" height="79.33" transform="translate(326.05 561) rotate(83.99)"/><use width="82.26" height="79.33" transform="translate(349.82 517.43) rotate(76.76)"/><use width="82.26" height="79.33" transform="translate(428.5 468.78) rotate(78.69)" xlink:href="#Figueira-Foliage-BG-4"/><use width="82.26" height="79.33" transform="translate(478.89 465.25) rotate(80.91)" xlink:href="#Figueira-Foliage-BG-4"/><use width="82.26" height="79.33" transform="translate(522.89 419.13) rotate(90)" xlink:href="#Figueira-Foliage-BG-4"/><use width="82.26" height="79.33" transform="translate(550.52 513.73) rotate(94.4)"/><use width="82.26" height="79.33" transform="translate(644.96 536.97) rotate(95.04)"/><use width="82.26" height="79.33" transform="translate(711.71 576.11) rotate(90)"/><use width="82.26" height="79.33" transform="translate(760.12 578.09) rotate(90)"/><use width="82.26" height="79.33" transform="translate(780.18 623.67) rotate(90)"/><use width="82.26" height="79.33" transform="translate(812.77 595) rotate(90)"/><use width="79.33" height="82.26" transform="translate(971.96 681.95) rotate(-150.95)" xlink:href="#Figueira-Foliage-BG-11"/><use width="79.33" height="82.26" transform="matrix(-0.5, -0.87, 0.87, -0.5, 929.64, 723.04)" xlink:href="#Figueira-Foliage-BG-11"/><use width="79.33" height="82.26" transform="matrix(-0.16, -0.99, 0.99, -0.16, 870.52, 738.32)" xlink:href="#Figueira-Foliage-BG-11"/><use width="79.33" height="82.26" transform="translate(818.56 706.31) rotate(-90)" xlink:href="#Figueira-Foliage-BG-11"/><use width="79.33" height="82.26" transform="translate(795.16 595.39) rotate(-26.57)" xlink:href="#Figueira-Foliage-BG-11"/><use width="79.33" height="82.26" transform="translate(864.26 508.8) rotate(45)" xlink:href="#Figueira-Foliage-BG-11"/><use width="79.33" height="82.26" transform="translate(929.08 525.93) rotate(69.44)" xlink:href="#Figueira-Foliage-BG-11"/><use width="79.33" height="82.26" transform="translate(913.2 703.66) rotate(-151.7)" xlink:href="#Figueira-Foliage-BG-11"/><use width="79.33" height="82.26" transform="matrix(-0.36, -0.93, 0.93, -0.36, 839.95, 773.24)" xlink:href="#Figueira-Foliage-BG-11"/><use width="79.33" height="82.26" transform="translate(784.53 741.88) rotate(-90)" xlink:href="#Figueira-Foliage-BG-11"/><use width="79.33" height="82.26" transform="translate(759.87 661.8) rotate(-90)" xlink:href="#Figueira-Foliage-BG-11"/><use width="79.33" height="82.26" transform="translate(752.95 703.08) rotate(-90)" xlink:href="#Figueira-Foliage-BG-11"/><use width="79.33" height="82.26" transform="translate(733.21 660.2) rotate(-105.26)" xlink:href="#Figueira-Foliage-BG-11"/><use width="79.33" height="82.26" transform="translate(747.71 761.73) rotate(-111.8)" xlink:href="#Figueira-Foliage-BG-11"/><use width="79.33" height="82.26" transform="translate(701.37 696.05) rotate(-90)" xlink:href="#Figueira-Foliage-BG-11"/><use width="79.33" height="82.26" transform="translate(736.38 798.27) rotate(-116.57)" xlink:href="#Figueira-Foliage-BG-11"/><use width="79.33" height="82.26" transform="translate(676.72 666.77) rotate(-99.46)" xlink:href="#Figueira-Foliage-BG-11"/><use width="79.33" height="82.26" transform="translate(679.17 737.98) rotate(-90)" xlink:href="#Figueira-Foliage-BG-11"/><use width="79.33" height="82.26" transform="translate(685.47 722.15) rotate(-116.57)" xlink:href="#Figueira-Foliage-BG-11"/><use width="79.33" height="82.26" transform="translate(703.81 821.25) rotate(-116.57)" xlink:href="#Figueira-Foliage-BG-11"/><use width="79.33" height="82.26" transform="translate(675.16 780.41) rotate(-108.43)" xlink:href="#Figueira-Foliage-BG-11"/><use width="79.33" height="82.26" transform="translate(642.23 807.49) rotate(-90)" xlink:href="#Figueira-Foliage-BG-11"/><use width="79.33" height="82.26" transform="translate(623.39 677.07) rotate(-90)" xlink:href="#Figueira-Foliage-BG-11"/><use width="79.33" height="82.26" transform="translate(614.27 757.13) rotate(-90)" xlink:href="#Figueira-Foliage-BG-11"/><use width="79.33" height="82.26" transform="translate(602.94 718.36) rotate(-90)" xlink:href="#Figueira-Foliage-BG-11"/><use width="79.33" height="82.26" transform="translate(592.17 798.41) rotate(-90)" xlink:href="#Figueira-Foliage-BG-11"/><use width="79.33" height="82.26" transform="translate(571.17 674.26) rotate(-90)" xlink:href="#Figueira-Foliage-BG-11"/><use width="79.33" height="82.26" transform="translate(558.15 765.3) rotate(-90)" xlink:href="#Figueira-Foliage-BG-11"/><use width="79.33" height="82.26" transform="translate(543.95 695.24) rotate(-90)"/><use width="79.33" height="82.26" transform="translate(527.32 731.67) rotate(-90)"/><use width="79.33" height="82.26" transform="translate(509.67 677.02) rotate(-90)"/><use width="79.33" height="82.26" transform="translate(527.13 803.68) rotate(-108.43)"/><use width="79.33" height="82.26" transform="translate(492.23 760.03) rotate(-96.34)"/><use width="79.33" height="82.26" transform="matrix(-0.2, -0.98, 0.98, -0.2, 486.44, 820.75)"/><use width="79.33" height="82.26" transform="translate(461.07 725.27) rotate(-90)"/><use width="79.33" height="82.26" transform="translate(446.06 772.45) rotate(-90)"/><use width="79.33" height="82.26" transform="translate(426.81 816.91) rotate(-90)"/><use width="79.33" height="82.26" transform="translate(388.68 791.38) rotate(-83.66)"/><use width="79.33" height="82.26" transform="translate(379.18 753.3) rotate(-82.87)"/><use width="79.33" height="82.26" transform="translate(347.01 802.33) rotate(-75.96)"/><use width="79.33" height="82.26" transform="matrix(0.16, -0.99, 0.99, 0.16, 317.46, 800.5)"/><use width="79.33" height="82.26" transform="matrix(0.37, -0.93, 0.93, 0.37, 324, 745.92)"/><use width="79.33" height="82.26" transform="translate(280.84 743.71) rotate(-59.74)"/><use width="79.33" height="82.26" transform="matrix(0.35, -0.94, 0.94, 0.35, 285.97, 709.04)"/><use width="79.33" height="82.26" transform="translate(263.47 694.85) rotate(-77.47)"/><use width="79.33" height="82.26" transform="translate(246.28 761.01) rotate(-90)"/><use width="79.33" height="82.26" transform="translate(220.05 742.34) rotate(-90)"/><use width="79.33" height="82.26" transform="translate(215.37 781.49) rotate(-90)"/><use width="79.33" height="82.26" transform="matrix(0.62, -0.78, 0.78, 0.62, 211.57, 662.93)"/><use width="79.33" height="82.26" transform="translate(172.67 701.42) rotate(-71.57)"/><use width="79.33" height="82.26" transform="translate(179.45 655.35) rotate(-63.43)"/><use width="79.33" height="82.26" transform="translate(159.34 741.02) rotate(-90)"/><use width="79.33" height="82.26" transform="matrix(0.62, -0.78, 0.78, 0.62, 155.44, 614.19)"/><use width="79.33" height="82.26" transform="translate(130.31 672.16) rotate(-71.57)"/><use width="79.33" height="82.26" transform="translate(112.93 630.02) rotate(-74.05)"/><use width="79.33" height="82.26" transform="translate(96.25 694.68) rotate(-90)"/><use width="79.33" height="82.26" transform="translate(82.01 660.8) rotate(-90)"/><use width="79.33" height="82.26" transform="translate(94.3 536.07)"/><use width="79.33" height="82.26" transform="translate(223.53 515.34) rotate(86.99)"/><use width="79.33" height="82.26" transform="translate(275.35 520.43) rotate(98.53)"/><use width="79.33" height="82.26" transform="translate(299.8 539.82) rotate(90)"/><use width="79.33" height="82.26" transform="translate(327.57 500.62) rotate(90)"/><use width="79.33" height="82.26" transform="translate(347.87 553.07) rotate(96.34)"/><use width="79.33" height="82.26" transform="matrix(-0.2, 0.98, -0.98, -0.2, 379.23, 512.09)"/><use width="79.33" height="82.26" transform="translate(396.35 559.36) rotate(108.43)"/><use width="79.33" height="82.26" transform="translate(388.26 578.91) rotate(90)"/><use width="79.33" height="82.26" transform="translate(406.24 495.88) rotate(80.54)"/><use width="79.33" height="82.26" transform="translate(428.42 530.04) rotate(81.87)"/><use width="79.33" height="82.26" transform="translate(465.13 492.71) rotate(90)" xlink:href="#Figueira-Foliage-BG-11"/><use width="79.33" height="82.26" transform="translate(497.52 504.56) rotate(90)" xlink:href="#Figueira-Foliage-BG-11"/><use width="79.33" height="82.26" transform="translate(491.68 536.96) rotate(90)" xlink:href="#Figueira-Foliage-BG-11"/><use width="79.33" height="82.26" transform="translate(482.25 670.24) rotate(180)"/><use width="79.33" height="82.26" transform="translate(427.23 718.5) rotate(-135)"/><use width="79.33" height="82.26" transform="translate(350.86 706.9) rotate(-90)"/><use width="79.33" height="82.26" transform="translate(343.6 593.79) rotate(-21.8)"/><use width="79.33" height="82.26" transform="translate(1011.22 556.08) rotate(-151.39)"/><use width="79.33" height="82.26" transform="translate(993.23 574.98) rotate(-163.3)"/><use width="79.33" height="82.26" transform="translate(1042.16 587.36) rotate(180)"/><use width="79.33" height="82.26" transform="translate(1051.73 624.2) rotate(-168.69)"/><use width="79.33" height="82.26" transform="translate(995.99 661.07) rotate(-129.81)"/><use width="79.33" height="82.26" transform="translate(926.04 624.28) rotate(-105.95)"/><use width="79.33" height="82.26" transform="translate(904.51 618.08) rotate(-116.57)"/><use width="79.33" height="82.26" transform="translate(999.25 562.91) rotate(81.87)"/><use width="79.33" height="82.26" transform="translate(1032.8 598.48) rotate(90)"/><use width="79.33" height="82.26" transform="matrix(-0.5, -0.86, 0.86, -0.5, 937.38, 711.95)"/><use width="79.33" height="82.26" transform="translate(883.73 693.77) rotate(-102.09)"/><use width="79.33" height="82.26" transform="translate(859.36 660.09) rotate(-101.31)"/><use width="79.33" height="82.26" transform="translate(841.53 716.97) rotate(-96.34)"/><use width="79.33" height="82.26" transform="translate(827.18 644.46) rotate(-104.04)"/><use width="79.33" height="82.26" transform="translate(814.86 685.7) rotate(-90)"/><use width="79.33" height="82.26" transform="matrix(0.08, -1, 1, 0.08, 770.29, 672)"/><use width="79.33" height="82.26" transform="translate(733.15 624.36) rotate(-78.69)"/><use width="79.33" height="82.26" transform="translate(708.48 598.78) rotate(-85.91)"/><use width="79.33" height="82.26" transform="translate(703.48 643.83) rotate(-108.43)"/><use width="79.33" height="82.26" transform="matrix(-0.55, -0.83, 0.83, -0.55, 717.5, 692.15)"/><use width="79.33" height="82.26" transform="translate(685.73 721.44) rotate(-111.8)"/><use width="79.33" height="82.26" transform="translate(629.74 671.73) rotate(-90)"/><use width="79.33" height="82.26" transform="matrix(0.04, -1, 1, 0.04, 586.18, 702.09)"/><use width="79.33" height="82.26" transform="translate(561.64 638.64) rotate(-74.48)"/><use width="79.33" height="82.26" transform="translate(527.57 656.68) rotate(-63.43)"/><use width="79.33" height="82.26" transform="translate(525.84 604.19) rotate(-63.43)"/><use width="79.33" height="82.26" transform="translate(525.13 576.92) rotate(-75.96)"/><use width="79.33" height="82.26" transform="translate(507.2 612.52) rotate(-98.13)"/><use width="79.33" height="82.26" transform="translate(493.54 682.97) rotate(-95.71)"/><use width="79.33" height="82.26" transform="translate(495.33 655.48) rotate(-108.43)"/><use width="79.33" height="82.26" transform="translate(434.28 621.71) rotate(-82.87)"/><use width="79.33" height="82.26" transform="translate(421.89 580.13) rotate(-78.69)"/><use width="79.33" height="82.26" transform="matrix(-0.16, -0.99, 0.99, -0.16, 402.7, 612.79)"/><use width="79.33" height="82.26" transform="translate(449.75 667.33) rotate(-146.31)"/><use width="79.33" height="82.26" transform="matrix(-0.87, -0.49, 0.49, -0.87, 474.14, 722.29)"/><use width="79.33" height="82.26" transform="matrix(-0.58, -0.81, 0.81, -0.58, 415.59, 711.73)"/><use width="79.33" height="82.26" transform="matrix(-0.26, -0.96, 0.96, -0.26, 379.76, 738.43)"/><use width="79.33" height="82.26" transform="translate(342.8 683.62) rotate(-95.71)"/><use width="79.33" height="82.26" transform="matrix(-0.15, -0.99, 0.99, -0.15, 313.21, 729.43)" xlink:href="#Figueira-Foliage-BG-11"/><use width="79.33" height="82.26" transform="translate(272.46 703.06) rotate(-90)"/><use width="79.33" height="82.26" transform="translate(235.3 642.15) rotate(-61.93)"/></g></g></svg>