<svg xmlns="http://www.w3.org/2000/svg" viewBox="0 0 327 347.13"><defs><style>.cls-1{opacity:0.02;}.cls-2{opacity:0.03;}.cls-3{opacity:0.03;}.cls-4{opacity:0.04;}.cls-5{opacity:0.04;}.cls-6{opacity:0.05;}.cls-7{opacity:0.05;}.cls-8{opacity:0.06;}.cls-9{opacity:0.06;}.cls-10{opacity:0.07;}.cls-11{opacity:0.08;}.cls-12{opacity:0.08;}.cls-13{opacity:0.09;}.cls-14{opacity:0.09;}.cls-15{opacity:0.1;}.cls-16{opacity:0.1;}.cls-17{opacity:0.11;}.cls-18{opacity:0.11;}.cls-19{opacity:0.12;}.cls-20{opacity:0.13;}.cls-21{opacity:0.13;}.cls-22{opacity:0.14;}.cls-23{opacity:0.14;}.cls-24{opacity:0.15;}.cls-25{opacity:0.15;}.cls-26{opacity:0.16;}.cls-27{opacity:0.16;}.cls-28{opacity:0.17;}.cls-29{opacity:0.18;}.cls-30{opacity:0.18;}.cls-31{opacity:0.19;}.cls-32{opacity:0.19;}.cls-33{opacity:0.2;}.cls-34{opacity:0.2;}.cls-35{opacity:0.21;}.cls-36{opacity:0.22;}.cls-37{opacity:0.22;}.cls-38{opacity:0.23;}.cls-39{opacity:0.23;}.cls-40{opacity:0.24;}.cls-41{opacity:0.24;}.cls-42{opacity:0.25;}.cls-43{opacity:0.25;}.cls-44{opacity:0.26;}.cls-45{opacity:0.27;}.cls-46{opacity:0.27;}.cls-47{opacity:0.28;}.cls-48{opacity:0.28;}.cls-49{opacity:0.29;}.cls-50{opacity:0.29;}.cls-51{opacity:0.3;}.cls-52{opacity:0.3;}.cls-53{opacity:0.31;}.cls-54{opacity:0.32;}.cls-55{opacity:0.32;}.cls-56{opacity:0.33;}.cls-57{opacity:0.33;}.cls-58{opacity:0.34;}.cls-59{opacity:0.34;}.cls-60{opacity:0.35;}.cls-61{opacity:0.35;}.cls-62{opacity:0.36;}.cls-63{opacity:0.02;}.cls-64{opacity:0.03;}.cls-65{opacity:0.03;}.cls-66{opacity:0.04;}.cls-67{opacity:0.04;}.cls-68{opacity:0.05;}.cls-69{opacity:0.05;}.cls-70{opacity:0.06;}.cls-71{opacity:0.06;}.cls-72{opacity:0.07;}.cls-73{opacity:0.07;}.cls-74{opacity:0.08;}.cls-75{opacity:0.08;}.cls-76{opacity:0.09;}.cls-77{opacity:0.09;}.cls-78{opacity:0.09;}.cls-79{opacity:0.1;}.cls-80{opacity:0.1;}.cls-81{opacity:0.11;}.cls-82{opacity:0.11;}.cls-83{opacity:0.12;}.cls-84{opacity:0.12;}.cls-85{opacity:0.13;}.cls-86{opacity:0.13;}.cls-87{opacity:0.14;}.cls-88{opacity:0.14;}.cls-89{opacity:0.15;}.cls-90{opacity:0.15;}.cls-91{opacity:0.16;}.cls-92{opacity:0.16;}.cls-93{opacity:0.16;}.cls-94{opacity:0.17;}.cls-95{opacity:0.17;}.cls-96{opacity:0.18;}.cls-97{opacity:0.18;}.cls-98{opacity:0.19;}.cls-99{opacity:0.19;}.cls-100{opacity:0.2;}.cls-101{opacity:0.2;}.cls-102{opacity:0.21;}.cls-103{opacity:0.21;}.cls-104{opacity:0.22;}.cls-105{opacity:0.22;}.cls-106{opacity:0.22;}.cls-107{opacity:0.23;}.cls-108{opacity:0.23;}.cls-109{opacity:0.24;}.cls-110{opacity:0.24;}.cls-111{opacity:0.25;}.cls-112{opacity:0.25;}.cls-113{opacity:0.26;}.cls-114{opacity:0.26;}.cls-115{opacity:0.27;}.cls-116{opacity:0.27;}.cls-117{opacity:0.28;}.cls-118{opacity:0.28;}.cls-119{opacity:0.29;}.cls-120{opacity:0.29;}.cls-121{opacity:0.29;}.cls-122{opacity:0.3;}.cls-123{opacity:0.3;}.cls-124{opacity:0.31;}.cls-125{opacity:0.31;}.cls-126{opacity:0.32;}.cls-127{opacity:0.32;}.cls-128{opacity:0.33;}.cls-129{opacity:0.33;}.cls-130{opacity:0.34;}.cls-131{opacity:0.34;}.cls-132{opacity:0.35;}.cls-133{opacity:0.35;}.cls-134{opacity:0.36;}.cls-135{opacity:0.03;}.cls-136{opacity:0.03;}.cls-137{opacity:0.04;}.cls-138{opacity:0.04;}.cls-139{opacity:0.05;}.cls-140{opacity:0.06;}.cls-141{opacity:0.06;}.cls-142{opacity:0.07;}.cls-143{opacity:0.07;}.cls-144{opacity:0.08;}.cls-145{opacity:0.08;}.cls-146{opacity:0.09;}.cls-147{opacity:0.1;}.cls-148{opacity:0.1;}.cls-149{opacity:0.11;}.cls-150{opacity:0.11;}.cls-151{opacity:0.12;}.cls-152{opacity:0.13;}.cls-153{opacity:0.13;}.cls-154{opacity:0.14;}.cls-155{opacity:0.14;}.cls-156{opacity:0.15;}.cls-157{opacity:0.15;}.cls-158{opacity:0.16;}.cls-159{opacity:0.17;}.cls-160{opacity:0.17;}.cls-161{opacity:0.18;}.cls-162{opacity:0.18;}.cls-163{opacity:0.19;}.cls-164{opacity:0.2;}.cls-165{opacity:0.2;}.cls-166{opacity:0.21;}.cls-167{opacity:0.21;}.cls-168{opacity:0.22;}.cls-169{opacity:0.22;}.cls-170{opacity:0.23;}.cls-171{opacity:0.24;}.cls-172{opacity:0.24;}.cls-173{opacity:0.25;}.cls-174{opacity:0.25;}.cls-175{opacity:0.26;}.cls-176{opacity:0.27;}.cls-177{opacity:0.27;}.cls-178{opacity:0.28;}.cls-179{opacity:0.28;}.cls-180{opacity:0.29;}.cls-181{opacity:0.29;}.cls-182{opacity:0.3;}.cls-183{opacity:0.31;}.cls-184{opacity:0.31;}.cls-185{opacity:0.32;}.cls-186{opacity:0.32;}.cls-187{opacity:0.33;}.cls-188{opacity:0.34;}.cls-189{opacity:0.34;}.cls-190{opacity:0.35;}.cls-191{opacity:0.35;}.cls-192{opacity:0.36;}.cls-193{opacity:0.36;}.cls-194{opacity:0.37;}.cls-195{opacity:0.38;}.cls-196{opacity:0.38;}.cls-197{opacity:0.39;}.cls-198{opacity:0.39;}.cls-199{opacity:0.4;}.cls-200{opacity:0.03;}.cls-201{opacity:0.04;}.cls-202{opacity:0.04;}.cls-203{opacity:0.05;}.cls-204{opacity:0.06;}.cls-205{opacity:0.07;}.cls-206{opacity:0.07;}.cls-207{opacity:0.08;}.cls-208{opacity:0.09;}.cls-209{opacity:0.1;}.cls-210{opacity:0.11;}.cls-211{opacity:0.11;}.cls-212{opacity:0.12;}.cls-213{opacity:0.13;}.cls-214{opacity:0.14;}.cls-215{opacity:0.15;}.cls-216{opacity:0.15;}.cls-217{opacity:0.16;}.cls-218{opacity:0.17;}.cls-219{opacity:0.18;}.cls-220{opacity:0.18;}.cls-221{opacity:0.19;}.cls-222{opacity:0.2;}.cls-223{opacity:0.21;}.cls-224{opacity:0.22;}.cls-225{opacity:0.22;}.cls-226{opacity:0.23;}.cls-227{opacity:0.24;}.cls-228{opacity:0.25;}.cls-229{opacity:0.25;}.cls-230{opacity:0.26;}.cls-231{opacity:0.27;}.cls-232{opacity:0.28;}.cls-233{opacity:0.29;}.cls-234{opacity:0.29;}.cls-235{opacity:0.3;}.cls-236{opacity:0.31;}.cls-237{opacity:0.32;}.cls-238{opacity:0.33;}.cls-239{opacity:0.33;}.cls-240{opacity:0.34;}.cls-241{opacity:0.35;}.cls-242{opacity:0.36;}.cls-243{opacity:0.36;}.cls-244{opacity:0.37;}.cls-245{opacity:0.38;}.cls-246{opacity:0.39;}.cls-247{opacity:0.4;}.cls-248{opacity:0.4;}.cls-249{opacity:0.41;}.cls-250{opacity:0.42;}.cls-251{opacity:0.43;}.cls-252{opacity:0.43;}.cls-253{opacity:0.44;}.cls-254{opacity:0.45;}.cls-255{opacity:0.46;}.cls-256{opacity:0.47;}.cls-257{opacity:0.47;}.cls-258{opacity:0.48;}.cls-259{opacity:0.49;}.cls-260{opacity:0.5;}.cls-261{opacity:0.51;}.cls-262{opacity:0.51;}.cls-263{opacity:0.52;}.cls-264{opacity:0.53;}.cls-265{opacity:0.54;}.cls-266{opacity:0.54;}.cls-267{opacity:0.55;}.cls-268{opacity:0.56;}.cls-269{fill:#191410;}.cls-270{fill:#1e1813;}.cls-271{fill:#221b16;}.cls-272{fill:#271f19;}.cls-273{fill:#2c231c;}.cls-274{fill:#30261f;}.cls-275{fill:#352a22;}</style></defs><title>Foreground - Estático</title><g id="Layer_2" data-name="Layer 2"><g id="FOREGROUND"><polygon class="cls-1" points="32.84 200.4 10.27 219.46 0.19 225.96 22.8 261.2 0 295.87 3.62 301.05 23.36 275.91 29.07 298.3 20.74 334.38 28.25 330.45 39.82 300.57 33.99 274.29 42.81 250.69 19.98 220.07 35.86 207.3 32.84 200.4"/><polygon class="cls-2" points="29.03 297.87 20.95 333.09 28.25 328.97 39.71 299.36 33.71 273.2 42.56 249.87 20.09 219.71 35.49 207.37 32.52 200.75 10.44 219.67 0.3 226.38 22.58 261.09 0.35 294.96 3.99 300.28 23.33 275.89 29.03 297.87"/><polygon class="cls-3" points="28.99 297.45 21.16 331.79 28.26 327.49 39.61 298.14 33.44 272.11 42.3 249.06 20.22 219.35 35.12 207.44 32.19 201.11 10.61 219.87 0.41 226.79 22.36 260.98 0.71 294.06 4.36 299.5 23.31 275.87 28.99 297.45"/><polygon class="cls-4" points="28.95 297.03 21.36 330.5 28.26 326 39.51 296.93 33.16 271.03 42.05 248.25 20.34 218.99 34.75 207.51 31.86 201.46 10.78 220.08 0.52 227.21 22.14 260.87 1.06 293.15 4.73 298.73 23.29 275.84 28.95 297.03"/><polygon class="cls-5" points="28.92 296.61 21.57 329.21 28.27 324.52 39.41 295.72 32.89 269.94 41.8 247.44 20.46 218.64 34.38 207.59 31.54 201.81 10.95 220.28 0.63 227.63 21.93 260.76 1.42 292.25 5.1 297.96 23.27 275.82 28.92 296.61"/><polygon class="cls-6" points="28.88 296.19 21.78 327.92 28.27 323.04 39.3 294.51 32.62 268.85 41.54 246.63 20.58 218.28 34.01 207.66 31.21 202.16 11.12 220.49 0.73 228.04 21.71 260.65 1.77 291.34 5.47 297.18 23.25 275.8 28.88 296.19"/><polygon class="cls-7" points="28.84 295.76 21.99 326.63 28.28 321.56 39.2 293.3 32.34 267.77 41.29 245.81 20.7 217.92 33.64 207.73 30.89 202.51 11.29 220.7 0.84 228.46 21.49 260.54 2.12 290.43 5.84 296.41 23.22 275.78 28.84 295.76"/><polygon class="cls-8" points="28.81 295.34 22.2 325.33 28.28 320.08 39.1 292.08 32.07 266.68 41.04 245 20.82 217.56 33.27 207.8 30.56 202.87 11.46 220.9 0.95 228.88 21.27 260.43 2.48 289.53 6.21 295.64 23.2 275.75 28.81 295.34"/><polygon class="cls-9" points="28.77 294.92 22.4 324.04 28.29 318.59 38.99 290.87 31.8 265.59 40.78 244.19 20.94 217.21 32.9 207.87 30.23 203.22 11.64 221.11 1.06 229.29 21.05 260.32 2.83 288.62 6.58 294.86 23.18 275.73 28.77 294.92"/><polygon class="cls-10" points="28.73 294.5 22.61 322.75 28.29 317.11 38.89 289.66 31.52 264.51 40.53 243.38 21.06 216.85 32.53 207.94 29.91 203.57 11.81 221.31 1.17 229.71 20.83 260.21 3.18 287.72 6.95 294.09 23.16 275.71 28.73 294.5"/><polygon class="cls-11" points="28.7 294.07 22.82 321.46 28.3 315.63 38.79 288.45 31.25 263.42 40.28 242.56 21.18 216.49 32.16 208.01 29.58 203.92 11.98 221.52 1.28 230.13 20.61 260.1 3.54 286.81 7.32 293.31 23.13 275.69 28.7 294.07"/><polygon class="cls-12" points="28.66 293.65 23.02 320.17 28.3 314.15 38.69 287.24 30.97 262.33 40.02 241.75 21.3 216.13 31.79 208.08 29.25 204.28 12.15 221.73 1.39 230.54 20.39 259.99 3.89 285.9 7.69 292.54 23.11 275.67 28.66 293.65"/><polygon class="cls-13" points="28.63 293.23 23.23 318.88 28.31 312.67 38.58 286.03 30.7 261.25 39.77 240.94 21.42 215.78 31.42 208.16 28.93 204.63 12.32 221.93 1.5 230.96 20.17 259.88 4.25 285 8.06 291.77 23.09 275.64 28.63 293.23"/><polygon class="cls-14" points="28.59 292.81 23.44 317.58 28.31 311.19 38.48 284.81 30.43 260.16 39.52 240.13 21.54 215.42 31.05 208.23 28.6 204.98 12.49 222.14 1.6 231.38 19.95 259.77 4.6 284.09 8.43 290.99 23.07 275.62 28.59 292.81"/><polygon class="cls-15" points="28.55 292.38 23.65 316.29 28.32 309.7 38.38 283.6 30.15 259.07 39.26 239.31 21.66 215.06 30.68 208.3 28.27 205.33 12.66 222.34 1.71 231.79 19.73 259.66 4.95 283.19 8.8 290.22 23.04 275.6 28.55 292.38"/><polygon class="cls-16" points="28.52 291.96 23.85 315 28.32 308.22 38.27 282.39 29.88 257.99 39.01 238.5 21.78 214.7 30.31 208.37 27.95 205.68 12.83 222.55 1.82 232.21 19.51 259.56 5.31 282.28 9.17 289.45 23.02 275.58 28.52 291.96"/><polygon class="cls-17" points="28.48 291.54 24.06 313.71 28.33 306.74 38.17 281.18 29.61 256.9 38.75 237.69 21.9 214.35 29.94 208.44 27.62 206.03 13 222.76 1.93 232.63 19.29 259.45 5.66 281.38 9.54 288.67 23 275.55 28.48 291.54"/><polygon class="cls-18" points="28.44 291.12 24.27 312.42 28.34 305.26 38.07 279.97 29.33 255.81 38.5 236.88 22.02 213.99 29.57 208.51 27.3 206.39 13.17 222.96 2.04 233.04 19.07 259.34 6.01 280.47 9.91 287.9 22.98 275.53 28.44 291.12"/><polygon class="cls-19" points="28.41 290.7 24.48 311.12 28.34 303.78 37.97 278.76 29.06 254.72 38.25 236.07 22.14 213.63 29.2 208.58 26.97 206.74 13.34 223.17 2.15 233.46 18.85 259.23 6.37 279.56 10.28 287.13 22.95 275.51 28.41 290.7"/><polygon class="cls-20" points="28.37 290.27 24.68 309.83 28.34 302.3 37.86 277.54 28.78 253.64 37.99 235.25 22.26 213.27 28.83 208.65 26.64 207.09 13.51 223.38 2.26 233.88 18.64 259.12 6.72 278.66 10.65 286.35 22.93 275.49 28.37 290.27"/><polygon class="cls-21" points="28.33 289.85 24.89 308.54 28.35 300.81 37.76 276.33 28.51 252.55 37.74 234.44 22.38 212.92 28.46 208.72 26.32 207.44 13.68 223.58 2.37 234.29 18.42 259.01 7.08 277.75 11.02 285.58 22.91 275.46 28.33 289.85"/><polygon class="cls-22" points="28.3 289.43 25.1 307.25 28.36 299.33 37.66 275.12 28.24 251.46 37.49 233.63 22.5 212.56 28.09 208.8 25.99 207.8 13.85 223.79 2.48 234.71 18.2 258.9 7.43 276.85 11.39 284.8 22.89 275.44 28.3 289.43"/><polygon class="cls-23" points="28.26 289.01 25.31 305.96 28.36 297.85 37.55 273.91 27.96 250.38 37.23 232.82 22.62 212.2 27.72 208.87 25.66 208.15 14.02 223.99 2.59 235.13 17.98 258.79 7.78 275.94 11.76 284.03 22.87 275.42 28.26 289.01"/><polygon class="cls-24" points="28.22 288.58 25.51 304.67 28.37 296.37 37.45 272.7 27.69 249.29 36.98 232.01 22.74 211.84 27.35 208.94 25.34 208.5 14.19 224.2 2.69 235.54 17.76 258.68 8.14 275.04 12.13 283.26 22.84 275.4 28.22 288.58"/><polygon class="cls-25" points="28.18 288.16 25.72 303.37 28.37 294.89 37.35 271.49 27.41 248.2 36.73 231.19 22.86 211.49 26.98 209.01 25.01 208.85 14.36 224.41 2.8 235.96 17.54 258.57 8.49 274.13 12.5 282.48 22.82 275.38 28.18 288.16"/><polygon class="cls-26" points="28.15 287.74 25.93 302.08 28.38 293.4 37.25 270.27 27.14 247.12 36.47 230.38 22.98 211.13 26.61 209.08 24.68 209.2 14.53 224.61 2.91 236.38 17.32 258.46 8.84 273.22 12.87 281.71 22.8 275.35 28.15 287.74"/><polygon class="cls-27" points="28.11 287.32 26.14 300.79 28.38 291.92 37.14 269.06 26.87 246.03 36.22 229.57 23.1 210.77 26.24 209.15 24.36 209.56 14.7 224.82 3.02 236.79 17.1 258.35 9.2 272.32 13.24 280.94 22.78 275.33 28.11 287.32"/><polygon class="cls-28" points="28.07 286.9 26.34 299.5 28.39 290.44 37.04 267.85 26.59 244.94 35.96 228.76 23.22 210.41 25.87 209.22 24.03 209.91 14.88 225.02 3.13 237.21 16.88 258.24 9.55 271.41 13.61 280.16 22.75 275.31 28.07 286.9"/><polygon class="cls-29" points="28.04 286.47 26.55 298.2 28.39 288.96 36.94 266.64 26.32 243.85 35.71 227.94 23.34 210.06 25.5 209.29 23.7 210.26 15.04 225.23 3.24 237.63 16.66 258.13 9.9 270.51 13.98 279.39 22.73 275.29 28.04 286.47"/><polygon class="cls-30" points="28 286.05 26.76 296.91 28.4 287.48 36.84 265.43 26.05 242.77 35.46 227.13 23.46 209.7 25.13 209.37 23.38 210.61 15.22 225.44 3.35 238.04 16.44 258.02 10.26 269.6 14.35 278.62 22.71 275.26 28 286.05"/><polygon class="cls-31" points="27.96 285.63 26.97 295.62 28.4 286 36.73 264.21 25.77 241.68 35.2 226.32 23.59 209.34 24.76 209.44 23.05 210.97 15.39 225.64 3.46 238.46 16.22 257.91 10.61 268.69 14.72 277.84 22.69 275.24 27.96 285.63"/><polygon class="cls-32" points="27.93 285.21 27.17 294.33 28.41 284.51 36.63 263 25.5 240.59 34.95 225.51 23.7 208.99 24.39 209.51 22.73 211.32 15.56 225.85 3.57 238.88 16 257.81 10.97 267.79 15.09 277.07 22.67 275.22 27.93 285.21"/><polygon class="cls-33" points="27.89 284.78 27.38 293.04 28.41 283.03 36.53 261.79 25.22 239.51 34.7 224.7 23.82 208.63 24.02 209.58 22.4 211.67 15.73 226.06 3.67 239.29 15.78 257.7 11.32 266.88 15.46 276.29 22.64 275.2 27.89 284.78"/><polygon class="cls-34" points="27.86 284.36 27.59 291.75 28.42 281.55 36.42 260.58 24.95 238.42 34.44 223.88 23.95 208.27 23.65 209.65 22.07 212.02 15.9 226.26 3.78 239.71 15.56 257.59 11.67 265.98 15.83 275.52 22.62 275.18 27.86 284.36"/><polygon class="cls-35" points="27.82 283.94 27.8 290.45 28.42 280.07 36.32 259.37 24.68 237.33 34.19 223.07 24.07 207.91 23.28 209.72 21.75 212.37 16.07 226.47 3.89 240.13 15.35 257.48 12.03 265.07 16.2 274.75 22.6 275.15 27.82 283.94"/><polygon class="cls-36" points="27.78 283.52 28 289.16 28.43 278.59 36.22 258.16 24.4 236.25 33.94 222.26 24.19 207.56 22.91 209.79 21.42 212.72 16.24 226.67 4 240.54 15.13 257.37 12.38 264.17 16.57 273.97 22.58 275.13 27.78 283.52"/><polygon class="cls-37" points="27.74 283.1 28.21 287.87 28.43 277.11 36.12 256.94 24.13 235.16 33.68 221.45 24.31 207.2 22.54 209.86 21.09 213.08 16.41 226.88 4.11 240.96 14.91 257.26 12.73 263.26 16.94 273.2 22.55 275.11 27.74 283.1"/><polygon class="cls-38" points="27.71 282.67 28.42 286.58 28.44 275.62 36.01 255.73 23.86 234.07 33.43 220.63 24.43 206.84 22.18 209.93 20.77 213.43 16.58 227.09 4.22 241.38 14.69 257.15 13.09 262.36 17.31 272.43 22.53 275.09 27.71 282.67"/><polygon class="cls-39" points="27.67 282.25 28.63 285.29 28.45 274.14 35.91 254.52 23.58 232.99 33.17 219.82 24.55 206.48 21.8 210 20.44 213.78 16.75 227.29 4.33 241.79 14.47 257.04 13.44 261.45 17.68 271.65 22.51 275.06 27.67 282.25"/><polygon class="cls-40" points="27.63 281.83 28.83 284 28.45 272.66 35.81 253.31 23.31 231.9 32.92 219.01 24.67 206.13 21.43 210.08 20.11 214.13 16.92 227.5 4.44 242.21 14.25 256.93 13.8 260.54 18.05 270.88 22.49 275.04 27.63 281.83"/><polygon class="cls-41" points="27.6 281.41 29.04 282.7 28.45 271.18 35.7 252.1 23.03 230.81 32.67 218.2 24.79 205.77 21.07 210.15 19.79 214.49 17.09 227.7 4.55 242.62 14.03 256.82 14.15 259.64 18.42 270.1 22.47 275.02 27.6 281.41"/><polygon class="cls-42" points="27.56 280.98 29.25 281.41 28.46 269.7 35.6 250.89 22.76 229.73 32.41 217.39 24.91 205.41 20.7 210.22 19.46 214.84 17.26 227.91 4.66 243.04 13.81 256.71 14.5 258.73 18.79 269.33 22.44 275 27.56 280.98"/><polygon class="cls-43" points="27.52 280.56 29.45 280.12 28.47 268.22 35.5 249.67 22.49 228.64 32.16 216.57 25.03 205.05 20.33 210.29 19.13 215.19 17.43 228.12 4.76 243.46 13.59 256.6 14.86 257.83 19.16 268.56 22.42 274.97 27.52 280.56"/><polygon class="cls-44" points="27.49 280.14 29.66 278.83 28.47 266.73 35.4 248.46 22.21 227.55 31.91 215.76 25.15 204.69 19.96 210.36 18.81 215.54 17.6 228.32 4.87 243.87 13.37 256.49 15.21 256.92 19.53 267.78 22.4 274.95 27.49 280.14"/><polygon class="cls-45" points="27.45 279.72 29.87 277.54 28.48 265.25 35.29 247.25 21.94 226.47 31.65 214.95 25.27 204.34 19.59 210.43 18.48 215.89 17.77 228.53 4.98 244.29 13.15 256.38 15.56 256.01 19.9 267.01 22.38 274.93 27.45 279.72"/><polygon class="cls-46" points="27.41 279.3 30.08 276.24 28.48 263.77 35.19 246.04 21.66 225.38 31.4 214.14 25.39 203.98 19.22 210.5 18.16 216.25 17.94 228.73 5.09 244.71 12.93 256.27 15.92 255.11 20.27 266.24 22.36 274.91 27.41 279.3"/><polygon class="cls-47" points="27.38 278.87 30.29 274.95 28.49 262.29 35.09 244.83 21.39 224.29 31.14 213.33 25.51 203.62 18.85 210.57 17.83 216.6 18.11 228.94 5.2 245.12 12.71 256.16 16.27 254.2 20.64 265.46 22.33 274.88 27.38 278.87"/><polygon class="cls-48" points="27.34 278.45 30.49 273.66 28.49 260.81 34.99 243.62 21.12 223.21 30.89 212.51 25.63 203.26 18.48 210.65 17.5 216.95 18.28 229.15 5.31 245.54 12.49 256.06 16.63 253.3 21.01 264.69 22.31 274.86 27.34 278.45"/><polygon class="cls-49" points="27.3 278.03 30.7 272.37 28.5 259.33 34.88 242.4 20.84 222.12 30.64 211.7 25.75 202.91 18.11 210.72 17.18 217.3 18.45 229.35 5.42 245.96 12.27 255.95 16.98 252.39 21.38 263.91 22.29 274.84 27.3 278.03"/><polygon class="cls-50" points="27.27 277.61 30.91 271.08 28.5 257.84 34.78 241.19 20.57 221.03 30.38 210.89 25.87 202.55 17.74 210.79 16.85 217.65 18.63 229.56 5.53 246.37 12.05 255.84 17.33 251.49 21.75 263.14 22.27 274.82 27.27 277.61"/><polygon class="cls-51" points="27.23 277.18 31.11 269.78 28.51 256.36 34.68 239.98 20.3 219.94 30.13 210.08 25.99 202.19 17.37 210.86 16.52 218.01 18.8 229.76 5.63 246.79 11.84 255.73 17.69 250.58 22.12 262.37 22.24 274.8 27.23 277.18"/><polygon class="cls-52" points="27.19 276.76 31.32 268.49 28.51 254.88 34.58 238.77 20.02 218.86 29.88 209.26 26.11 201.84 17 210.93 16.2 218.36 18.97 229.97 5.74 247.21 11.62 255.62 18.04 249.67 22.49 261.59 22.22 274.77 27.19 276.76"/><polygon class="cls-53" points="27.16 276.34 31.53 267.2 28.52 253.4 34.47 237.56 19.75 217.77 29.62 208.45 26.23 201.48 16.63 211 15.87 218.71 19.14 230.18 5.85 247.62 11.4 255.51 18.39 248.77 22.86 260.82 22.2 274.75 27.16 276.34"/><polygon class="cls-54" points="27.12 275.92 31.74 265.91 28.52 251.92 34.37 236.34 19.47 216.68 29.37 207.64 26.35 201.12 16.26 211.07 15.54 219.06 19.31 230.38 5.96 248.04 11.18 255.4 18.75 247.86 23.23 260.05 22.18 274.73 27.12 275.92"/><polygon class="cls-55" points="27.08 275.5 31.94 264.62 28.53 250.44 34.27 235.13 19.2 215.6 29.12 206.83 26.47 200.76 15.89 211.14 15.22 219.41 19.48 230.59 6.07 248.46 10.96 255.29 19.1 246.96 23.6 259.27 22.15 274.71 27.08 275.5"/><polygon class="cls-56" points="27.05 275.07 32.15 263.32 28.53 248.95 34.16 233.92 18.93 214.51 28.86 206.02 26.59 200.41 15.52 211.21 14.89 219.77 19.65 230.79 6.18 248.87 10.74 255.18 19.46 246.05 23.97 258.5 22.13 274.69 27.05 275.07"/><polygon class="cls-57" points="27.01 274.65 32.36 262.03 28.54 247.47 34.06 232.71 18.65 213.42 28.61 205.2 26.71 200.05 15.15 211.28 14.56 220.12 19.82 231 6.29 249.29 10.52 255.07 19.81 245.15 24.34 257.72 22.11 274.66 27.01 274.65"/><polygon class="cls-58" points="26.97 274.23 32.57 260.74 28.54 245.99 33.96 231.5 18.38 212.34 28.36 204.39 26.83 199.69 14.78 211.36 14.24 220.47 19.99 231.21 6.4 249.71 10.3 254.96 20.16 244.24 24.71 256.95 22.09 274.64 26.97 274.23"/><polygon class="cls-59" points="26.94 273.81 32.77 259.45 28.55 244.51 33.86 230.29 18.11 211.25 28.1 203.58 26.95 199.33 14.41 211.43 13.91 220.82 20.16 231.41 6.51 250.12 10.08 254.85 20.52 243.33 25.08 256.18 22.07 274.62 26.94 273.81"/><polygon class="cls-60" points="26.9 273.38 32.98 258.16 28.55 243.03 33.75 229.07 17.83 210.16 27.85 202.77 27.07 198.98 14.04 211.5 13.59 221.18 20.33 231.62 6.62 250.54 9.86 254.74 20.87 242.43 25.45 255.4 22.04 274.6 26.9 273.38"/><polygon class="cls-61" points="26.86 272.96 33.19 256.87 28.56 241.54 33.65 227.86 17.56 209.07 27.59 201.96 27.19 198.62 13.67 211.57 13.26 221.53 20.5 231.82 6.72 250.96 9.64 254.63 21.23 241.52 25.82 254.63 22.02 274.57 26.86 272.96"/><polygon class="cls-62" points="27.31 198.26 13.3 211.64 12.93 221.88 20.67 232.03 6.83 251.37 9.42 254.52 21.58 240.62 26.19 253.86 22 274.55 26.83 272.54 33.4 255.57 28.57 240.06 33.55 226.65 17.28 207.99 27.34 201.14 27.31 198.26"/><polygon class="cls-1" points="91.34 156.24 115.4 155.65 129.51 194.67 148.64 218.18 168.16 248.13 163.92 250.88 148.16 235.91 157.55 275.24 152.18 332.54 140.04 319.4 144.22 274.18 126.52 236.4 105.97 208.05 111.36 249.72 97.99 284.36 90.73 278.43 98.81 246.84 90.18 208.95 77.61 222.44 73.68 218.14 94.79 196.29 102.37 179.18 90.48 167.52 91.34 156.24"/><polygon class="cls-63" points="111.23 249.47 97.98 283.58 90.88 277.46 98.75 245.99 90.14 208.72 77.7 221.99 74 217.57 94.89 195.88 102.25 178.9 90.53 167.37 91.59 156.19 115.46 155.94 129.56 194.64 148.62 218.08 167.83 247.64 163.5 250.23 148.06 235.79 157.3 275.07 151.89 331.46 139.93 318.13 143.88 273.2 126.22 235.69 106.03 208.08 111.23 249.47"/><polygon class="cls-64" points="111.11 249.22 97.97 282.8 91.03 276.5 98.69 245.13 90.09 208.5 77.79 221.54 74.33 217 94.98 195.47 102.13 178.63 90.58 167.23 91.84 156.13 115.52 156.23 129.61 194.6 148.59 217.98 167.5 247.16 163.09 249.57 147.96 235.68 157.04 274.9 151.59 330.39 139.82 316.86 143.54 272.22 125.93 234.97 106.08 208.11 111.11 249.22"/><polygon class="cls-65" points="110.98 248.97 97.96 282.02 91.17 275.54 98.64 244.28 90.05 208.27 77.89 221.09 74.65 216.44 95.08 195.07 102.02 178.35 90.64 167.08 92.1 156.08 115.59 156.52 129.66 194.56 148.57 217.88 167.17 246.67 162.67 248.91 147.85 235.56 156.79 274.73 151.29 329.32 139.71 315.59 143.19 271.24 125.63 234.26 106.13 208.15 110.98 248.97"/><polygon class="cls-66" points="110.86 248.72 97.94 281.25 91.32 274.58 98.58 243.43 90.01 208.05 77.98 220.65 74.98 215.87 95.17 194.66 101.9 178.07 90.69 166.93 92.35 156.02 115.65 156.81 129.72 194.53 148.54 217.79 166.84 246.19 162.25 248.26 147.75 235.45 156.53 274.56 151 328.25 139.6 314.32 142.85 270.26 125.34 233.55 106.19 208.18 110.86 248.72"/><polygon class="cls-67" points="110.73 248.47 97.94 280.47 91.47 273.62 98.53 242.57 89.96 207.82 78.07 220.2 75.3 215.3 95.27 194.25 101.78 177.79 90.74 166.78 92.6 155.97 115.71 157.1 129.76 194.49 148.52 217.69 166.51 245.7 161.83 247.6 147.65 235.34 156.28 274.39 150.71 327.19 139.49 313.04 142.51 269.28 125.05 232.84 106.24 208.21 110.73 248.47"/><polygon class="cls-68" points="110.6 248.22 97.92 279.69 91.62 272.65 98.47 241.72 89.92 207.6 78.16 219.75 75.63 214.74 95.37 193.84 101.66 177.51 90.8 166.64 92.85 155.91 115.78 157.39 129.82 194.45 148.5 217.59 166.18 245.22 161.41 246.94 147.55 235.22 156.02 274.22 150.41 326.12 139.38 311.77 142.17 268.3 124.75 232.12 106.29 208.24 110.6 248.22"/><polygon class="cls-69" points="110.48 247.97 97.91 278.91 91.77 271.69 98.42 240.86 89.87 207.37 78.25 219.3 75.95 214.17 95.46 193.43 101.54 177.23 90.85 166.49 93.1 155.86 115.84 157.68 129.87 194.41 148.47 217.5 165.86 244.73 161 246.29 147.45 235.11 155.77 274.06 150.11 325.05 139.27 310.5 141.83 267.32 124.46 231.41 106.34 208.27 110.48 247.97"/><polygon class="cls-70" points="110.35 247.72 97.9 278.13 91.92 270.73 98.36 240.01 89.83 207.14 78.34 218.85 76.28 213.6 95.56 193.02 101.42 176.95 90.9 166.34 93.35 155.8 115.9 157.97 129.92 194.38 148.44 217.4 165.53 244.25 160.58 245.63 147.35 234.99 155.51 273.89 149.82 323.98 139.16 309.23 141.49 266.34 124.16 230.7 106.4 208.31 110.35 247.72"/><polygon class="cls-71" points="110.22 247.47 97.89 277.35 92.06 269.77 98.31 239.15 89.79 206.92 78.44 218.4 76.6 213.04 95.66 192.61 101.31 176.67 90.95 166.19 93.6 155.75 115.97 158.26 129.97 194.34 148.42 217.3 165.2 243.76 160.16 244.97 147.24 234.88 155.26 273.72 149.52 322.9 139.05 307.95 141.15 265.36 123.87 229.99 106.45 208.34 110.22 247.47"/><polygon class="cls-72" points="110.1 247.22 97.88 276.58 92.21 268.81 98.25 238.3 89.74 206.69 78.53 217.95 76.93 212.47 95.75 192.2 101.19 176.39 91.01 166.04 93.85 155.69 116.03 158.55 130.02 194.3 148.4 217.21 164.87 243.27 159.74 244.32 147.14 234.77 155 273.55 149.23 321.83 138.94 306.68 140.81 264.38 123.58 229.28 106.5 208.37 110.1 247.22"/><polygon class="cls-73" points="109.97 246.97 97.87 275.8 92.36 267.85 98.2 237.45 89.7 206.47 78.62 217.5 77.25 211.91 95.85 191.79 101.07 176.12 91.06 165.9 94.1 155.64 116.09 158.84 130.07 194.26 148.37 217.11 164.54 242.79 159.32 243.66 147.04 234.65 154.75 273.38 148.93 320.76 138.83 305.41 140.47 263.39 123.28 228.56 106.55 208.4 109.97 246.97"/><polygon class="cls-74" points="109.84 246.72 97.86 275.02 92.51 266.88 98.14 236.59 89.66 206.24 78.71 217.06 77.58 211.34 95.95 191.38 100.95 175.84 91.11 165.75 94.35 155.58 116.15 159.13 130.12 194.23 148.35 217.01 164.21 242.3 158.91 243 146.94 234.54 154.49 273.21 148.64 319.69 138.72 304.14 140.12 262.42 122.99 227.85 106.61 208.43 109.84 246.72"/><polygon class="cls-75" points="109.72 246.47 97.85 274.24 92.66 265.92 98.09 235.74 89.61 206.01 78.8 216.61 77.9 210.77 96.04 190.97 100.83 175.56 91.17 165.6 94.6 155.53 116.22 159.42 130.17 194.19 148.32 216.92 163.88 241.82 158.49 242.34 146.84 234.42 154.24 273.04 148.34 318.63 138.61 302.87 139.78 261.43 122.69 227.14 106.66 208.47 109.72 246.47"/><polygon class="cls-76" points="109.59 246.22 97.84 273.46 92.8 264.96 98.03 234.88 89.57 205.79 78.89 216.16 78.23 210.21 96.14 190.56 100.71 175.28 91.22 165.45 94.85 155.47 116.28 159.71 130.22 194.15 148.3 216.82 163.55 241.33 158.07 241.69 146.74 234.31 153.98 272.88 148.05 317.56 138.5 301.59 139.44 260.45 122.4 226.43 106.71 208.5 109.59 246.22"/><polygon class="cls-77" points="109.47 245.97 97.83 272.69 92.95 264 97.98 234.03 89.52 205.56 78.98 215.71 78.55 209.64 96.24 190.15 100.59 175 91.27 165.31 95.1 155.41 116.34 160 130.27 194.12 148.27 216.72 163.22 240.85 157.65 241.03 146.63 234.2 153.73 272.71 147.75 316.49 138.39 300.32 139.1 259.47 122.11 225.71 106.77 208.53 109.47 245.97"/><polygon class="cls-78" points="109.34 245.72 97.82 271.91 93.1 263.04 97.92 233.17 89.48 205.34 79.08 215.26 78.88 209.07 96.33 189.74 100.48 174.72 91.33 165.16 95.35 155.36 116.41 160.29 130.32 194.08 148.25 216.63 162.9 240.36 157.24 240.38 146.53 234.08 153.47 272.54 147.46 315.42 138.28 299.05 138.76 258.49 121.81 225 106.82 208.56 109.34 245.72"/><polygon class="cls-79" points="109.21 245.47 97.81 271.13 93.25 262.08 97.87 232.32 89.44 205.11 79.17 214.81 79.2 208.5 96.43 189.33 100.36 174.44 91.38 165.01 95.6 155.31 116.47 160.58 130.37 194.04 148.22 216.53 162.57 239.88 156.82 239.72 146.43 233.97 153.22 272.37 147.16 314.35 138.17 297.78 138.42 257.51 121.52 224.29 106.87 208.59 109.21 245.47"/><polygon class="cls-80" points="109.09 245.22 97.8 270.35 93.4 261.12 97.81 231.47 89.39 204.89 79.26 214.36 79.53 207.94 96.53 188.92 100.24 174.16 91.43 164.86 95.85 155.25 116.53 160.87 130.42 194 148.2 216.43 162.24 239.39 156.4 239.06 146.33 233.85 152.96 272.2 146.87 313.28 138.06 296.5 138.08 256.53 121.22 223.58 106.92 208.63 109.09 245.22"/><polygon class="cls-81" points="108.96 244.97 97.79 269.57 93.55 260.15 97.76 230.61 89.35 204.66 79.35 213.91 79.85 207.37 96.62 188.51 100.12 173.88 91.48 164.72 96.1 155.19 116.6 161.16 130.47 193.97 148.17 216.34 161.91 238.91 155.98 238.4 146.22 233.74 152.71 272.03 146.57 312.21 137.95 295.23 137.74 255.55 120.93 222.87 106.98 208.66 108.96 244.97"/><polygon class="cls-82" points="108.83 244.72 97.78 268.79 93.69 259.19 97.7 229.76 89.31 204.43 79.44 213.47 80.18 206.81 96.72 188.11 100 173.6 91.54 164.57 96.35 155.14 116.66 161.45 130.52 193.93 148.15 216.24 161.58 238.42 155.56 237.75 146.12 233.63 152.45 271.86 146.28 311.14 137.84 293.96 137.39 254.57 120.64 222.15 107.03 208.69 108.83 244.72"/><polygon class="cls-83" points="108.71 244.47 97.77 268.02 93.84 258.23 97.65 228.9 89.26 204.21 79.53 213.02 80.5 206.24 96.81 187.7 99.88 173.32 91.59 164.42 96.6 155.08 116.72 161.74 130.57 193.89 148.12 216.14 161.25 237.93 155.15 237.09 146.02 233.51 152.2 271.7 145.98 310.07 137.73 292.69 137.05 253.59 120.34 221.44 107.08 208.72 108.71 244.47"/><polygon class="cls-84" points="108.58 244.22 97.76 267.24 93.99 257.27 97.59 228.05 89.22 203.98 79.63 212.57 80.83 205.67 96.91 187.29 99.77 173.05 91.64 164.27 96.85 155.03 116.79 162.03 130.62 193.86 148.1 216.05 160.92 237.45 154.73 236.43 145.92 233.4 151.94 271.53 145.69 309 137.62 291.42 136.71 252.61 120.05 220.73 107.13 208.75 108.58 244.22"/><polygon class="cls-85" points="108.45 243.97 97.75 266.46 94.14 256.31 97.54 227.19 89.17 203.76 79.72 212.12 81.15 205.11 97.01 186.88 99.65 172.77 91.7 164.13 97.1 154.97 116.85 162.32 130.67 193.82 148.07 215.95 160.59 236.96 154.31 235.78 145.82 233.28 151.69 271.36 145.39 307.93 137.51 290.14 136.37 251.63 119.75 220.02 107.19 208.79 108.45 243.97"/><polygon class="cls-86" points="108.33 243.71 97.74 265.68 94.29 255.34 97.48 226.34 89.13 203.53 79.81 211.67 81.48 204.54 97.11 186.47 99.53 172.49 91.75 163.98 97.35 154.92 116.91 162.61 130.72 193.78 148.05 215.85 160.26 236.48 153.89 235.12 145.72 233.17 151.44 271.19 145.1 306.86 137.4 288.87 136.03 250.65 119.46 219.3 107.24 208.82 108.33 243.71"/><polygon class="cls-87" points="108.2 243.46 97.73 264.9 94.43 254.38 97.43 225.49 89.09 203.31 79.9 211.22 81.8 203.97 97.2 186.06 99.41 172.21 91.8 163.83 97.61 154.86 116.98 162.9 130.77 193.74 148.02 215.75 159.94 235.99 153.47 234.46 145.61 233.06 151.18 271.02 144.8 305.79 137.29 287.6 135.69 249.66 119.17 218.59 107.29 208.85 108.2 243.46"/><polygon class="cls-88" points="108.08 243.21 97.72 264.13 94.58 253.42 97.37 224.63 89.04 203.08 79.99 210.77 82.13 203.41 97.3 185.65 99.29 171.93 91.86 163.68 97.86 154.81 117.04 163.19 130.82 193.71 148 215.66 159.61 235.51 153.06 233.81 145.51 232.94 150.93 270.85 144.51 304.72 137.18 286.33 135.35 248.68 118.87 217.88 107.34 208.88 108.08 243.21"/><polygon class="cls-89" points="107.95 242.96 97.71 263.35 94.73 252.46 97.32 223.78 89 202.85 80.08 210.32 82.45 202.84 97.39 185.24 99.17 171.65 91.91 163.53 98.11 154.75 117.1 163.48 130.88 193.67 147.97 215.56 159.28 235.02 152.64 233.15 145.41 232.83 150.67 270.68 144.21 303.65 137.07 285.06 135.01 247.7 118.58 217.17 107.4 208.91 107.95 242.96"/><polygon class="cls-90" points="107.82 242.71 97.7 262.57 94.88 251.5 97.26 222.92 88.95 202.63 80.17 209.88 82.78 202.27 97.49 184.83 99.06 171.37 91.96 163.39 98.36 154.7 117.17 163.77 130.93 193.63 147.95 215.47 158.95 234.54 152.22 232.49 145.31 232.72 150.41 270.52 143.91 302.58 136.96 283.78 134.66 246.72 118.28 216.45 107.45 208.95 107.82 242.71"/><polygon class="cls-91" points="107.7 242.46 97.69 261.79 95.03 250.54 97.21 222.07 88.91 202.4 80.27 209.43 83.1 201.71 97.59 184.42 98.94 171.09 92.01 163.24 98.61 154.64 117.23 164.06 130.98 193.6 147.92 215.37 158.62 234.05 151.8 231.84 145.21 232.6 150.16 270.35 143.62 301.51 136.84 282.51 134.32 245.74 117.99 215.74 107.5 208.98 107.7 242.46"/><polygon class="cls-92" points="107.57 242.21 97.68 261.01 95.17 249.57 97.15 221.22 88.87 202.18 80.36 208.98 83.43 201.14 97.68 184.01 98.82 170.81 92.07 163.09 98.86 154.59 117.29 164.35 131.03 193.56 147.9 215.27 158.29 233.56 151.38 231.18 145.1 232.49 149.91 270.18 143.32 300.44 136.74 281.24 133.98 244.76 117.7 215.03 107.56 209.01 107.57 242.21"/><polygon class="cls-93" points="107.44 241.96 97.67 260.23 95.32 248.61 97.1 220.36 88.82 201.95 80.45 208.53 83.75 200.57 97.78 183.6 98.7 170.54 92.12 162.94 99.11 154.53 117.36 164.64 131.08 193.52 147.87 215.18 157.96 233.08 150.97 230.52 145 232.37 149.65 270.01 143.03 299.37 136.63 279.97 133.64 243.78 117.4 214.32 107.61 209.04 107.44 241.96"/><polygon class="cls-94" points="107.32 241.71 97.66 259.46 95.47 247.65 97.04 219.51 88.78 201.72 80.54 208.08 84.08 200.01 97.88 183.19 98.58 170.26 92.17 162.8 99.36 154.48 117.42 164.93 131.13 193.48 147.85 215.08 157.63 232.59 150.55 229.87 144.9 232.26 149.4 269.84 142.74 298.3 136.51 278.69 133.3 242.8 117.11 213.6 107.66 209.07 107.32 241.71"/><polygon class="cls-95" points="107.19 241.46 97.64 258.68 95.62 246.69 96.98 218.65 88.74 201.5 80.63 207.63 84.4 199.44 97.97 182.78 98.46 169.98 92.23 162.65 99.61 154.42 117.48 165.22 131.18 193.45 147.82 214.98 157.3 232.11 150.13 229.21 144.8 232.15 149.14 269.67 142.44 297.23 136.4 277.42 132.96 241.82 116.81 212.89 107.71 209.11 107.19 241.46"/><polygon class="cls-96" points="107.07 241.21 97.63 257.9 95.77 245.73 96.93 217.8 88.69 201.27 80.72 207.18 84.73 198.88 98.07 182.37 98.34 169.7 92.28 162.5 99.86 154.37 117.54 165.51 131.23 193.41 147.8 214.88 156.97 231.62 149.71 228.55 144.7 232.03 148.89 269.5 142.14 296.16 136.29 276.15 132.62 240.84 116.52 212.18 107.77 209.14 107.07 241.21"/><polygon class="cls-97" points="106.94 240.96 97.62 257.12 95.92 244.77 96.88 216.94 88.65 201.05 80.81 206.73 85.05 198.31 98.17 181.96 98.23 169.42 92.33 162.35 100.11 154.31 117.61 165.8 131.28 193.37 147.77 214.79 156.65 231.14 149.29 227.89 144.59 231.92 148.63 269.34 141.85 295.09 136.18 274.88 132.28 239.86 116.23 211.47 107.82 209.17 106.94 240.96"/><polygon class="cls-98" points="106.81 240.71 97.61 256.34 96.06 243.81 96.82 216.09 88.61 200.82 80.91 206.28 85.38 197.74 98.26 181.56 98.11 169.14 92.39 162.21 100.36 154.26 117.67 166.09 131.33 193.34 147.75 214.69 156.32 230.65 148.88 227.24 144.49 231.8 148.38 269.17 141.55 294.02 136.07 273.61 131.94 238.88 115.93 210.76 107.87 209.2 106.81 240.71"/><polygon class="cls-99" points="106.69 240.46 97.6 255.56 96.21 242.84 96.77 215.24 88.56 200.59 81 205.84 85.7 197.18 98.36 181.15 97.99 168.86 92.44 162.06 100.61 154.2 117.73 166.38 131.38 193.3 147.72 214.59 155.99 230.17 148.46 226.58 144.39 231.69 148.12 269 141.26 292.95 135.96 272.33 131.59 237.9 115.64 210.04 107.92 209.23 106.69 240.46"/><polygon class="cls-100" points="106.56 240.21 97.59 254.79 96.36 241.88 96.71 214.38 88.52 200.37 81.09 205.39 86.03 196.61 98.46 180.74 97.87 168.58 92.49 161.91 100.86 154.15 117.8 166.67 131.43 193.26 147.7 214.5 155.66 229.68 148.04 225.92 144.29 231.57 147.87 268.83 140.96 291.88 135.85 271.06 131.25 236.91 115.34 209.33 107.98 209.27 106.56 240.21"/><polygon class="cls-101" points="106.44 239.96 97.58 254.01 96.51 240.92 96.65 213.53 88.47 200.14 81.18 204.94 86.35 196.04 98.55 180.33 97.75 168.31 92.54 161.76 101.11 154.09 117.86 166.96 131.48 193.22 147.67 214.4 155.33 229.19 147.62 225.27 144.19 231.46 147.61 268.66 140.67 290.81 135.74 269.79 130.91 235.93 115.05 208.62 108.03 209.3 106.44 239.96"/><polygon class="cls-102" points="106.31 239.71 97.57 253.23 96.66 239.96 96.6 212.67 88.43 199.92 81.27 204.49 86.68 195.48 98.65 179.92 97.63 168.03 92.6 161.61 101.36 154.04 117.92 167.25 131.53 193.19 147.65 214.3 155 228.71 147.21 224.61 144.09 231.35 147.36 268.49 140.37 289.74 135.63 268.52 130.57 234.95 114.76 207.91 108.08 209.33 106.31 239.71"/><polygon class="cls-103" points="106.18 239.46 97.56 252.45 96.81 239 96.54 211.82 88.39 199.69 81.36 204.04 87 194.91 98.75 179.51 97.52 167.75 92.65 161.47 101.61 153.98 117.99 167.54 131.58 193.15 147.62 214.21 154.67 228.22 146.79 223.95 143.98 231.23 147.1 268.32 140.08 288.67 135.52 267.24 130.23 233.97 114.46 207.19 108.14 209.36 106.18 239.46"/><polygon class="cls-104" points="106.06 239.21 97.55 251.67 96.95 238.03 96.49 210.97 88.34 199.47 81.45 203.59 87.33 194.34 98.84 179.1 97.4 167.47 92.7 161.32 101.86 153.93 118.05 167.83 131.63 193.11 147.6 214.11 154.34 227.74 146.37 223.3 143.88 231.12 146.85 268.15 139.78 287.6 135.41 265.97 129.89 232.99 114.17 206.48 108.19 209.39 106.06 239.21"/><polygon class="cls-105" points="105.93 238.96 97.54 250.9 97.1 237.07 96.43 210.11 88.3 199.24 81.55 203.14 87.65 193.78 98.94 178.69 97.28 167.19 92.75 161.17 102.11 153.87 118.11 168.12 131.68 193.07 147.57 214.01 154.01 227.25 145.95 222.64 143.78 231 146.59 267.99 139.49 286.53 135.3 264.7 129.55 232.01 113.88 205.77 108.24 209.43 105.93 238.96"/><polygon class="cls-106" points="105.8 238.71 97.53 250.12 97.25 236.11 96.38 209.26 88.25 199.01 81.64 202.69 87.98 193.21 99.04 178.28 97.16 166.91 92.81 161.02 102.36 153.81 118.18 168.41 131.73 193.04 147.55 213.92 153.69 226.77 145.53 221.98 143.68 230.89 146.34 267.82 139.19 285.46 135.19 263.43 129.21 231.03 113.58 205.06 108.29 209.46 105.8 238.71"/><polygon class="cls-107" points="105.68 238.46 97.52 249.34 97.4 235.15 96.32 208.4 88.21 198.79 81.73 202.25 88.3 192.64 99.13 177.87 97.04 166.63 92.86 160.88 102.61 153.76 118.24 168.7 131.78 193 147.52 213.82 153.36 226.28 145.12 221.32 143.58 230.78 146.08 267.65 138.9 284.39 135.08 262.15 128.86 230.05 113.29 204.34 108.35 209.49 105.68 238.46"/><polygon class="cls-108" points="105.55 238.21 97.51 248.56 97.55 234.19 96.27 207.55 88.17 198.56 81.82 201.8 88.63 192.08 99.23 177.46 96.92 166.35 92.91 160.73 102.86 153.71 118.3 168.99 131.83 192.96 147.5 213.72 153.03 225.8 144.7 220.67 143.47 230.66 145.83 267.48 138.6 283.32 134.97 260.88 128.52 229.07 112.99 203.63 108.4 209.52 105.55 238.21"/><polygon class="cls-109" points="105.42 237.96 97.5 247.78 97.69 233.23 96.21 206.69 88.12 198.34 81.91 201.35 88.95 191.51 99.33 177.05 96.81 166.07 92.97 160.58 103.11 153.65 118.37 169.28 131.88 192.93 147.47 213.63 152.7 225.31 144.28 220.01 143.37 230.55 145.57 267.31 138.31 282.25 134.86 259.61 128.18 228.09 112.7 202.92 108.45 209.56 105.42 237.96"/><polygon class="cls-110" points="105.3 237.71 97.49 247 97.84 232.26 96.16 205.84 88.08 198.11 82 200.9 89.28 190.94 99.42 176.64 96.69 165.79 93.02 160.43 103.36 153.59 118.43 169.57 131.94 192.89 147.45 213.53 152.37 224.83 143.86 219.35 143.27 230.44 145.32 267.14 138.01 281.18 134.75 258.34 127.84 227.11 112.41 202.21 108.5 209.59 105.3 237.71"/><polygon class="cls-111" points="105.17 237.45 97.48 246.23 97.99 231.3 96.1 204.99 88.04 197.88 82.09 200.45 89.6 190.38 99.52 176.23 96.57 165.52 93.07 160.28 103.61 153.54 118.49 169.86 131.99 192.85 147.43 213.43 152.04 224.34 143.44 218.7 143.17 230.32 145.06 266.98 137.72 280.11 134.64 257.07 127.5 226.13 112.11 201.5 108.56 209.62 105.17 237.45"/><polygon class="cls-112" points="105.05 237.2 97.47 245.45 98.14 230.34 96.05 204.13 87.99 197.66 82.19 200 89.93 189.81 99.61 175.82 96.45 165.24 93.13 160.14 103.86 153.48 118.56 170.15 132.04 192.81 147.4 213.34 151.71 223.85 143.03 218.04 143.07 230.21 144.81 266.81 137.42 279.04 134.53 255.79 127.16 225.14 111.82 200.78 108.61 209.65 105.05 237.2"/><polygon class="cls-113" points="104.92 236.95 97.46 244.67 98.29 229.38 95.99 203.28 87.95 197.43 82.28 199.55 90.25 189.24 99.71 175.41 96.33 164.96 93.18 159.99 104.11 153.43 118.62 170.44 132.09 192.78 147.38 213.24 151.38 223.37 142.61 217.38 142.97 230.09 144.55 266.64 137.13 277.97 134.42 254.52 126.82 224.16 111.52 200.07 108.66 209.68 104.92 236.95"/><polygon class="cls-114" points="104.79 236.7 97.45 243.89 98.44 228.42 95.94 202.42 87.91 197.21 82.37 199.1 90.58 188.68 99.81 175 96.21 164.68 93.23 159.84 104.37 153.37 118.68 170.73 132.14 192.74 147.35 213.14 151.05 222.88 142.19 216.73 142.86 229.98 144.3 266.47 136.83 276.9 134.31 253.25 126.47 223.18 111.23 199.36 108.72 209.72 104.79 236.7"/><polygon class="cls-115" points="104.67 236.45 97.44 243.11 98.58 227.46 95.88 201.57 87.86 196.98 82.46 198.66 90.9 188.11 99.91 174.59 96.09 164.4 93.28 159.69 104.62 153.32 118.75 171.02 132.19 192.7 147.32 213.04 150.72 222.4 141.77 216.07 142.76 229.87 144.04 266.3 136.54 275.83 134.2 251.98 126.13 222.2 110.94 198.65 108.77 209.75 104.67 236.45"/><polygon class="cls-116" points="104.54 236.2 97.43 242.34 98.73 226.5 95.83 200.71 87.82 196.76 82.55 198.21 91.23 187.54 100 174.19 95.98 164.12 93.34 159.55 104.87 153.26 118.81 171.31 132.24 192.67 147.3 212.95 150.4 221.91 141.35 215.41 142.66 229.75 143.79 266.13 136.24 274.76 134.09 250.71 125.79 221.22 110.64 197.94 108.82 209.78 104.54 236.2"/><polygon class="cls-117" points="104.42 235.95 97.42 241.56 98.88 225.53 95.77 199.86 87.77 196.53 82.64 197.76 91.55 186.98 100.1 173.78 95.86 163.84 93.39 159.4 105.12 153.21 118.87 171.6 132.29 192.63 147.28 212.85 150.07 221.43 140.94 214.76 142.56 229.64 143.53 265.96 135.94 273.69 133.98 249.43 125.45 220.24 110.35 197.22 108.87 209.81 104.42 235.95"/><polygon class="cls-118" points="104.29 235.7 97.41 240.78 99.03 224.57 95.72 199.01 87.73 196.3 82.74 197.31 91.88 186.41 100.19 173.37 95.74 163.56 93.44 159.25 105.37 153.15 118.93 171.89 132.34 192.59 147.25 212.75 149.74 220.94 140.52 214.1 142.46 229.52 143.28 265.8 135.65 272.62 133.87 248.16 125.11 219.26 110.05 196.51 108.93 209.84 104.29 235.7"/><polygon class="cls-119" points="104.16 235.45 97.4 240 99.18 223.61 95.66 198.15 87.69 196.08 82.83 196.86 92.2 185.84 100.29 172.96 95.62 163.28 93.5 159.1 105.62 153.1 119 172.18 132.39 192.56 147.23 212.66 149.41 220.46 140.1 213.44 142.35 229.41 143.02 265.63 135.35 271.55 133.76 246.89 124.77 218.28 109.76 195.8 108.98 209.88 104.16 235.45"/><polygon class="cls-120" points="104.04 235.2 97.39 239.22 99.32 222.65 95.61 197.3 87.64 195.85 82.92 196.41 92.53 185.28 100.39 172.55 95.5 163.01 93.55 158.96 105.87 153.04 119.06 172.47 132.44 192.52 147.2 212.56 149.08 219.97 139.68 212.79 142.25 229.3 142.77 265.46 135.06 270.48 133.65 245.62 124.43 217.3 109.47 195.09 109.03 209.91 104.04 235.2"/><polygon class="cls-121" points="103.91 234.95 97.38 238.44 99.47 221.69 95.55 196.44 87.6 195.63 83.01 195.96 92.85 184.71 100.48 172.14 95.38 162.73 93.6 158.81 106.12 152.99 119.12 172.76 132.49 192.48 147.18 212.46 148.75 219.49 139.26 212.13 142.15 229.18 142.51 265.29 134.76 269.41 133.54 244.34 124.09 216.32 109.17 194.37 109.08 209.94 103.91 234.95"/><polygon class="cls-122" points="103.78 234.7 97.36 237.67 99.62 220.72 95.5 195.59 87.56 195.4 83.1 195.51 93.18 184.15 100.58 171.73 95.27 162.45 93.66 158.66 106.37 152.93 119.19 173.05 132.54 192.44 147.15 212.37 148.42 219 138.85 211.47 142.05 229.07 142.26 265.12 134.47 268.34 133.43 243.07 123.75 215.34 108.88 193.66 109.14 209.97 103.78 234.7"/><polygon class="cls-123" points="103.66 234.45 97.35 236.89 99.77 219.76 95.44 194.74 87.51 195.18 83.19 195.06 93.5 183.58 100.68 171.32 95.15 162.17 93.71 158.51 106.62 152.88 119.25 173.34 132.59 192.41 147.13 212.27 148.09 218.51 138.43 210.81 141.95 228.95 142 264.95 134.17 267.27 133.32 241.8 123.4 214.35 108.58 192.95 109.19 210 103.66 234.45"/><polygon class="cls-124" points="103.53 234.2 97.34 236.11 99.92 218.8 95.39 193.88 87.47 194.95 83.28 194.62 93.83 183.01 100.77 170.91 95.03 161.89 93.76 158.37 106.87 152.82 119.31 173.63 132.64 192.37 147.1 212.17 147.76 218.03 138.01 210.16 141.84 228.84 141.75 264.78 133.88 266.2 133.21 240.53 123.06 213.38 108.29 192.24 109.24 210.03 103.53 234.2"/><polygon class="cls-125" points="103.41 233.95 97.33 235.33 100.06 217.84 95.33 193.03 87.42 194.72 83.38 194.17 94.15 182.45 100.87 170.5 94.91 161.61 93.81 158.22 107.12 152.77 119.38 173.92 132.69 192.33 147.08 212.08 147.44 217.54 137.59 209.5 141.74 228.73 141.5 264.62 133.58 265.13 133.1 239.25 122.72 212.39 108 191.52 109.3 210.07 103.41 233.95"/><polygon class="cls-126" points="103.28 233.7 97.32 234.55 100.21 216.88 95.28 192.17 87.38 194.5 83.47 193.72 94.48 181.88 100.97 170.09 94.79 161.33 93.87 158.07 107.37 152.71 119.44 174.21 132.74 192.29 147.05 211.98 147.11 217.06 137.18 208.84 141.64 228.61 141.24 264.45 133.29 264.06 132.99 237.98 122.38 211.41 107.7 190.81 109.35 210.1 103.28 233.7"/><polygon class="cls-127" points="103.15 233.45 97.31 233.78 100.36 215.92 95.22 191.32 87.34 194.27 83.56 193.27 94.8 181.31 101.06 169.68 94.67 161.05 93.92 157.92 107.62 152.66 119.5 174.5 132.79 192.26 147.03 211.88 146.78 216.57 136.76 208.19 141.54 228.5 140.99 264.28 132.99 262.99 132.88 236.71 122.04 210.43 107.41 190.1 109.4 210.13 103.15 233.45"/><polygon class="cls-128" points="103.03 233.2 97.3 233 100.51 214.96 95.17 190.46 87.29 194.05 83.65 192.82 95.13 180.75 101.16 169.27 94.56 160.77 93.97 157.77 107.87 152.6 119.57 174.79 132.84 192.22 147 211.79 146.45 216.09 136.34 207.53 141.44 228.38 140.73 264.11 132.7 261.92 132.77 235.44 121.7 209.45 107.11 189.39 109.45 210.16 103.03 233.2"/><polygon class="cls-129" points="102.9 232.95 97.29 232.22 100.66 213.99 95.11 189.61 87.25 193.82 83.74 192.37 95.45 180.18 101.26 168.86 94.44 160.5 94.03 157.63 108.12 152.54 119.63 175.08 132.89 192.18 146.98 211.69 146.12 215.6 135.92 206.87 141.34 228.27 140.47 263.94 132.4 260.85 132.66 234.17 121.36 208.47 106.82 188.68 109.51 210.19 102.9 232.95"/><polygon class="cls-130" points="102.77 232.7 97.28 231.44 100.81 213.03 95.06 188.76 87.2 193.59 83.83 191.92 95.78 179.61 101.35 168.45 94.32 160.22 94.08 157.48 108.37 152.49 119.69 175.37 132.94 192.15 146.95 211.59 145.79 215.12 135.5 206.22 141.23 228.16 140.22 263.77 132.11 259.78 132.55 232.89 121.02 207.49 106.53 187.96 109.56 210.23 102.77 232.7"/><polygon class="cls-131" points="102.65 232.45 97.27 230.66 100.95 212.07 95 187.9 87.16 193.37 83.93 191.47 96.1 179.05 101.45 168.04 94.2 159.94 94.13 157.33 108.62 152.44 119.76 175.66 132.99 192.11 146.93 211.5 145.46 214.63 135.09 205.56 141.13 228.04 139.97 263.6 131.81 258.71 132.44 231.62 120.67 206.51 106.23 187.25 109.61 210.26 102.65 232.45"/><polygon class="cls-132" points="102.52 232.2 97.26 229.88 101.1 211.11 94.94 187.05 87.12 193.14 84.02 191.03 96.43 178.48 101.55 167.63 94.08 159.66 94.19 157.18 108.87 152.38 119.82 175.95 133.04 192.07 146.9 211.4 145.13 214.15 134.67 204.9 141.03 227.93 139.71 263.44 131.52 257.64 132.33 230.35 120.33 205.53 105.94 186.54 109.67 210.29 102.52 232.2"/><polygon class="cls-133" points="102.39 231.95 97.25 229.11 101.25 210.15 94.89 186.19 87.07 192.92 84.11 190.58 96.75 177.91 101.64 167.22 93.96 159.38 94.24 157.04 109.12 152.32 119.88 176.24 133.09 192.03 146.88 211.3 144.81 213.66 134.25 204.25 140.93 227.81 139.46 263.27 131.22 256.57 132.22 229.08 119.99 204.55 105.64 185.83 109.72 210.32 102.39 231.95"/><polygon class="cls-134" points="102.27 231.69 97.24 228.33 101.4 209.19 94.83 185.34 87.03 192.69 84.2 190.13 97.08 177.35 101.74 166.81 93.84 159.1 94.29 156.89 109.37 152.27 119.94 176.53 133.15 192 146.85 211.21 144.48 213.17 133.83 203.59 140.83 227.7 139.2 263.1 130.93 255.5 132.1 227.81 119.65 203.57 105.35 185.11 109.77 210.35 102.27 231.69"/><polygon class="cls-62" points="94.34 156.74 109.62 152.21 120.01 176.82 133.2 191.96 146.83 211.11 144.15 212.69 133.41 202.93 140.72 227.59 138.95 262.93 130.63 254.43 132 226.53 119.31 202.59 105.06 184.4 109.82 210.39 102.14 231.44 97.23 227.55 101.55 208.22 94.78 184.48 86.99 192.47 84.29 189.68 97.4 176.78 101.83 166.41 93.73 158.82 94.34 156.74"/><polygon class="cls-1" points="164.9 150.45 177.09 140.16 191.75 145.46 204.79 165.72 237 179.89 268.24 171.78 295.91 176.35 287.72 181.31 267.42 181.66 239.51 194.44 231.5 233.66 224.69 227.46 223.54 196.22 204.64 182.23 191.32 175.42 182.95 161.06 164.9 150.45"/><polygon class="cls-135" points="236.71 179.5 267.18 171.79 294.21 176.84 286.11 181.67 266.22 181.59 238.61 194.06 230.63 232.63 223.89 226.36 222.63 195.52 204.18 181.56 191.17 174.88 182.98 160.96 165.45 150.6 177.76 140.25 192.43 145.43 205.18 165.48 236.71 179.5"/><polygon class="cls-136" points="236.42 179.12 266.11 171.79 292.51 177.34 284.5 182.03 265.01 181.53 237.71 193.67 229.76 231.6 223.1 225.25 221.73 194.81 203.71 180.89 191.03 174.33 183.01 160.87 166 150.75 178.44 140.34 193.11 145.41 205.57 165.24 236.42 179.12"/><polygon class="cls-137" points="236.13 178.73 265.04 171.8 290.81 177.84 282.88 182.39 263.81 181.47 236.82 193.29 228.88 230.56 222.31 224.15 220.83 194.11 203.25 180.22 190.88 173.79 183.04 160.78 166.55 150.9 179.11 140.43 193.8 145.38 205.96 165 236.13 178.73"/><polygon class="cls-138" points="235.84 178.35 263.98 171.81 289.11 178.33 281.27 182.75 262.61 181.4 235.92 192.9 228.01 229.53 221.51 223.05 219.93 193.41 202.78 179.55 190.73 173.24 183.07 160.68 167.1 151.05 179.79 140.52 194.48 145.36 206.35 164.76 235.84 178.35"/><polygon class="cls-139" points="235.56 177.97 262.91 171.82 287.41 178.83 279.65 183.11 261.4 181.34 235.02 192.52 227.14 228.5 220.72 221.94 219.03 192.7 202.31 178.88 190.59 172.7 183.1 160.59 167.65 151.2 180.46 140.61 195.16 145.33 206.75 164.52 235.56 177.97"/><polygon class="cls-140" points="235.27 177.58 261.85 171.83 285.71 179.33 278.04 183.47 260.2 181.27 234.12 192.13 226.27 227.46 219.93 220.84 218.12 192 201.85 178.21 190.44 172.15 183.13 160.49 168.2 151.35 181.14 140.7 195.85 145.31 207.14 164.28 235.27 177.58"/><polygon class="cls-141" points="234.98 177.2 260.78 171.84 284.01 179.82 276.43 183.83 258.99 181.21 233.23 191.75 225.4 226.43 219.14 219.74 217.22 191.29 201.38 177.54 190.29 171.61 183.16 160.4 168.75 151.5 181.81 140.79 196.53 145.28 207.53 164.04 234.98 177.2"/><polygon class="cls-142" points="234.69 176.81 259.71 171.85 282.31 180.32 274.81 184.19 257.79 181.15 232.33 191.37 224.53 225.39 218.34 218.63 216.32 190.59 200.92 176.87 190.15 171.07 183.2 160.3 169.31 151.65 182.49 140.88 197.22 145.26 207.92 163.79 234.69 176.81"/><polygon class="cls-143" points="234.4 176.43 258.65 171.86 280.62 180.81 273.2 184.55 256.59 181.08 231.43 190.98 223.66 224.36 217.55 217.53 215.42 189.88 200.45 176.2 190 170.52 183.23 160.21 169.86 151.8 183.16 140.97 197.9 145.23 208.31 163.55 234.4 176.43"/><polygon class="cls-144" points="234.11 176.04 257.58 171.87 278.92 181.31 271.59 184.91 255.38 181.02 230.53 190.6 222.78 223.32 216.76 216.43 214.52 189.18 199.99 175.53 189.85 169.98 183.26 160.12 170.41 151.94 183.83 141.06 198.58 145.21 208.71 163.31 234.11 176.04"/><polygon class="cls-145" points="233.82 175.66 256.52 171.88 277.22 181.81 269.97 185.27 254.18 180.96 229.64 190.21 221.91 222.29 215.97 215.32 213.61 188.48 199.52 174.86 189.71 169.43 183.29 160.02 170.96 152.09 184.51 141.16 199.27 145.18 209.1 163.07 233.82 175.66"/><polygon class="cls-146" points="233.54 175.27 255.45 171.89 275.52 182.3 268.36 185.63 252.97 180.89 228.74 189.83 221.04 221.26 215.17 214.22 212.71 187.77 199.06 174.19 189.56 168.89 183.32 159.93 171.51 152.24 185.18 141.25 199.95 145.16 209.49 162.83 233.54 175.27"/><polygon class="cls-147" points="233.25 174.89 254.38 171.9 273.82 182.8 266.75 185.99 251.77 180.83 227.84 189.44 220.17 220.22 214.38 213.11 211.81 187.07 198.59 173.52 189.42 168.34 183.35 159.83 172.06 152.39 185.86 141.34 200.64 145.13 209.88 162.59 233.25 174.89"/><polygon class="cls-148" points="232.96 174.5 253.32 171.91 272.12 183.3 265.13 186.35 250.56 180.76 226.94 189.06 219.3 219.19 213.59 212.01 210.91 186.36 198.12 172.85 189.27 167.8 183.38 159.74 172.62 152.54 186.53 141.43 201.32 145.11 210.28 162.35 232.96 174.5"/><polygon class="cls-149" points="232.67 174.12 252.25 171.91 270.42 183.79 263.52 186.71 249.36 180.7 226.05 188.67 218.43 218.16 212.79 210.91 210 185.66 197.66 172.18 189.12 167.26 183.41 159.64 173.17 152.69 187.21 141.52 202 145.09 210.67 162.11 232.67 174.12"/><polygon class="cls-150" points="232.38 173.74 251.19 171.92 268.72 184.29 261.9 187.06 248.16 180.64 225.15 188.29 217.56 217.12 212 209.8 209.1 184.96 197.19 171.51 188.98 166.71 183.44 159.55 173.72 152.84 187.88 141.61 202.69 145.06 211.06 161.87 232.38 173.74"/><polygon class="cls-151" points="232.09 173.35 250.12 171.93 267.02 184.79 260.29 187.42 246.95 180.57 224.25 187.91 216.68 216.09 211.21 208.7 208.2 184.25 196.73 170.84 188.83 166.17 183.47 159.46 174.27 152.99 188.56 141.7 203.37 145.04 211.45 161.62 232.09 173.35"/><polygon class="cls-152" points="231.81 172.97 249.05 171.94 265.32 185.28 258.68 187.78 245.75 180.51 223.35 187.52 215.81 215.05 210.41 207.59 207.3 183.55 196.26 170.17 188.69 165.63 183.5 159.36 174.82 153.14 189.23 141.79 204.06 145.01 211.84 161.38 231.81 172.97"/><polygon class="cls-153" points="231.52 172.58 247.99 171.95 263.62 185.78 257.06 188.14 244.54 180.44 222.46 187.14 214.94 214.02 209.62 206.49 206.4 182.84 195.79 169.5 188.54 165.08 183.53 159.27 175.37 153.29 189.91 141.88 204.74 144.99 212.24 161.14 231.52 172.58"/><polygon class="cls-154" points="231.23 172.2 246.92 171.96 261.92 186.27 255.45 188.5 243.34 180.38 221.56 186.75 214.07 212.99 208.83 205.39 205.49 182.14 195.33 168.83 188.39 164.54 183.56 159.17 175.92 153.44 190.58 141.97 205.42 144.96 212.63 160.9 231.23 172.2"/><polygon class="cls-155" points="230.94 171.81 245.86 171.97 260.22 186.77 253.84 188.86 242.14 180.32 220.66 186.37 213.2 211.95 208.03 204.28 204.59 181.44 194.86 168.16 188.25 163.99 183.6 159.08 176.47 153.59 191.25 142.06 206.11 144.94 213.02 160.66 230.94 171.81"/><polygon class="cls-156" points="230.65 171.43 244.79 171.98 258.52 187.27 252.22 189.22 240.93 180.25 219.76 185.98 212.33 210.92 207.24 203.18 203.69 180.73 194.4 167.49 188.1 163.45 183.63 158.98 177.03 153.74 191.93 142.15 206.79 144.91 213.41 160.42 230.65 171.43"/><polygon class="cls-157" points="230.36 171.04 243.72 171.99 256.82 187.76 250.61 189.58 239.73 180.19 218.87 185.6 211.46 209.88 206.45 202.08 202.79 180.03 193.93 166.82 187.96 162.9 183.66 158.89 177.58 153.88 192.6 142.24 207.47 144.89 213.8 160.18 230.36 171.04"/><polygon class="cls-158" points="230.07 170.66 242.66 172 255.13 188.26 249 189.94 238.52 180.13 217.97 185.21 210.58 208.85 205.66 200.97 201.88 179.32 193.47 166.15 187.81 162.36 183.69 158.79 178.13 154.03 193.28 142.33 208.16 144.86 214.2 159.94 230.07 170.66"/><polygon class="cls-159" points="229.79 170.27 241.59 172 253.43 188.76 247.38 190.3 237.32 180.06 217.07 184.83 209.71 207.82 204.86 199.87 200.98 178.62 193 165.48 187.66 161.82 183.72 158.7 178.68 154.18 193.95 142.42 208.84 144.84 214.59 159.69 229.79 170.27"/><polygon class="cls-160" points="229.5 169.89 240.53 172.01 251.73 189.25 245.77 190.66 236.12 180 216.17 184.45 208.84 206.78 204.07 198.77 200.08 177.91 192.53 164.81 187.52 161.27 183.75 158.61 179.23 154.33 194.63 142.51 209.53 144.81 214.98 159.45 229.5 169.89"/><polygon class="cls-161" points="229.21 169.5 239.46 172.02 250.03 189.75 244.16 191.02 234.91 179.93 215.28 184.06 207.97 205.75 203.28 197.66 199.18 177.21 192.07 164.14 187.37 160.73 183.78 158.51 179.78 154.48 195.3 142.6 210.21 144.79 215.37 159.21 229.21 169.5"/><polygon class="cls-162" points="228.92 169.12 238.4 172.03 248.33 190.25 242.54 191.38 233.71 179.87 214.38 183.68 207.1 204.72 202.48 196.56 198.28 176.51 191.6 163.47 187.22 160.18 183.81 158.42 180.33 154.63 195.98 142.69 210.89 144.76 215.76 158.97 228.92 169.12"/><polygon class="cls-163" points="228.63 168.74 237.33 172.04 246.63 190.74 240.93 191.74 232.5 179.81 213.48 183.29 206.23 203.68 201.69 195.46 197.37 175.8 191.14 162.8 187.08 159.64 183.84 158.32 180.89 154.78 196.65 142.78 211.58 144.74 216.16 158.73 228.63 168.74"/><polygon class="cls-164" points="228.34 168.35 236.26 172.05 244.93 191.24 239.31 192.1 231.3 179.74 212.58 182.91 205.35 202.65 200.9 194.35 196.47 175.1 190.67 162.13 186.93 159.09 183.87 158.23 181.44 154.93 197.33 142.87 212.26 144.72 216.55 158.49 228.34 168.35"/><polygon class="cls-165" points="228.06 167.97 235.2 172.06 243.23 191.73 237.7 192.46 230.1 179.68 211.69 182.52 204.48 201.61 200.1 193.25 195.57 174.39 190.21 161.46 186.79 158.55 183.9 158.13 181.99 155.08 198 142.96 212.95 144.69 216.94 158.25 228.06 167.97"/><polygon class="cls-166" points="227.77 167.58 234.13 172.07 241.53 192.23 236.09 192.82 228.89 179.62 210.79 182.14 203.61 200.58 199.31 192.14 194.67 173.69 189.74 160.79 186.64 158.01 183.94 158.04 182.54 155.23 198.68 143.05 213.63 144.67 217.33 158 227.77 167.58"/><polygon class="cls-167" points="227.48 167.2 233.06 172.08 239.83 192.73 234.47 193.18 227.69 179.55 209.89 181.75 202.74 199.54 198.52 191.04 193.76 172.99 189.28 160.12 186.49 157.46 183.97 157.95 183.09 155.38 199.35 143.14 214.31 144.64 217.72 157.76 227.48 167.2"/><polygon class="cls-168" points="227.19 166.81 232 172.09 238.13 193.22 232.86 193.54 226.48 179.49 208.99 181.37 201.87 198.51 197.73 189.94 192.86 172.28 188.81 159.45 186.35 156.92 184 157.85 183.64 155.53 200.03 143.23 215 144.62 218.12 157.52 227.19 166.81"/><polygon class="cls-169" points="226.9 166.43 230.93 172.1 236.44 193.72 231.25 193.9 225.28 179.42 208.1 180.99 201 197.48 196.93 188.83 191.96 171.58 188.34 158.78 186.2 156.38 184.03 157.76 184.19 155.68 200.7 143.32 215.68 144.59 218.51 157.28 226.9 166.43"/><polygon class="cls-170" points="226.61 166.04 229.87 172.1 234.74 194.22 229.63 194.26 224.07 179.36 207.2 180.6 200.13 196.44 196.14 187.73 191.06 170.87 187.88 158.11 186.06 155.83 184.06 157.66 184.75 155.82 201.38 143.41 216.37 144.57 218.9 157.04 226.61 166.04"/><polygon class="cls-171" points="226.32 165.66 228.8 172.11 233.04 194.71 228.02 194.62 222.87 179.3 206.3 180.22 199.25 195.41 195.35 186.63 190.16 170.17 187.41 157.44 185.91 155.29 184.09 157.57 185.3 155.97 202.05 143.5 217.05 144.54 219.29 156.8 226.32 165.66"/><polygon class="cls-172" points="226.03 165.28 227.74 172.12 231.34 195.21 226.41 194.98 221.67 179.23 205.4 179.83 198.38 194.38 194.56 185.52 189.25 169.46 186.95 156.77 185.76 154.74 184.12 157.47 185.85 156.12 202.72 143.59 217.73 144.52 219.68 156.56 226.03 165.28"/><polygon class="cls-173" points="225.75 164.89 226.67 172.13 229.64 195.7 224.79 195.34 220.46 179.17 204.51 179.45 197.51 193.34 193.76 184.42 188.35 168.76 186.48 156.1 185.62 154.2 184.15 157.38 186.4 156.27 203.4 143.69 218.42 144.49 220.08 156.32 225.75 164.89"/><polygon class="cls-174" points="225.46 164.51 225.6 172.14 227.94 196.2 223.18 195.69 219.26 179.1 203.61 179.06 196.64 192.31 192.97 183.31 187.45 168.06 186.02 155.43 185.47 153.65 184.18 157.29 186.95 156.42 204.07 143.78 219.1 144.47 220.47 156.07 225.46 164.51"/><polygon class="cls-175" points="225.17 164.12 224.54 172.15 226.24 196.7 221.56 196.06 218.06 179.04 202.71 178.68 195.77 191.27 192.18 182.21 186.55 167.35 185.55 154.76 185.32 153.11 184.21 157.19 187.5 156.57 204.75 143.87 219.78 144.44 220.86 155.83 225.17 164.12"/><polygon class="cls-176" points="224.88 163.74 223.47 172.16 224.54 197.19 219.95 196.41 216.85 178.98 201.81 178.29 194.9 190.24 191.38 181.11 185.65 166.65 185.09 154.09 185.18 152.57 184.24 157.1 188.05 156.72 205.42 143.96 220.47 144.42 221.25 155.59 224.88 163.74"/><polygon class="cls-177" points="224.59 163.35 222.41 172.17 222.84 197.69 218.34 196.77 215.65 178.91 200.92 177.91 194.03 189.21 190.59 180 184.74 165.94 184.62 153.42 185.03 152.02 184.27 157 188.6 156.87 206.1 144.05 221.15 144.4 221.65 155.35 224.59 163.35"/><polygon class="cls-178" points="224.3 162.97 221.34 172.18 221.14 198.19 216.72 197.13 214.44 178.85 200.02 177.53 193.15 188.17 189.8 178.9 183.84 165.24 184.15 152.75 184.89 151.48 184.31 156.91 189.16 157.02 206.77 144.14 221.84 144.37 222.04 155.11 224.3 162.97"/><polygon class="cls-179" points="224.02 162.58 220.27 172.19 219.44 198.68 215.11 197.49 213.24 178.79 199.12 177.14 192.28 187.14 189 177.8 182.94 164.53 183.69 152.08 184.74 150.93 184.34 156.81 189.71 157.17 207.45 144.23 222.52 144.35 222.43 154.87 224.02 162.58"/><polygon class="cls-180" points="223.73 162.2 219.21 172.2 217.74 199.18 213.5 197.85 212.03 178.72 198.22 176.76 191.41 186.1 188.21 176.69 182.04 163.83 183.22 151.41 184.59 150.39 184.37 156.72 190.26 157.32 208.12 144.32 223.2 144.32 222.82 154.63 223.73 162.2"/><polygon class="cls-181" points="223.44 161.81 218.14 172.21 216.04 199.67 211.88 198.21 210.83 178.66 197.33 176.37 190.54 185.07 187.42 175.59 181.13 163.13 182.76 150.74 184.45 149.84 184.4 156.63 190.81 157.47 208.8 144.41 223.89 144.3 223.21 154.39 223.44 161.81"/><polygon class="cls-182" points="223.15 161.43 217.08 172.21 214.34 200.17 210.27 198.57 209.63 178.59 196.43 175.99 189.67 184.04 186.63 174.49 180.23 162.42 182.29 150.07 184.3 149.3 184.43 156.53 191.36 157.62 209.47 144.5 224.57 144.27 223.6 154.15 223.15 161.43"/><polygon class="cls-183" points="222.86 161.04 216.01 172.22 212.65 200.67 208.66 198.93 208.42 178.53 195.53 175.6 188.8 183 185.83 173.38 179.33 161.72 181.83 149.4 184.16 148.76 184.46 156.44 191.91 157.76 210.15 144.59 225.26 144.25 224 153.9 222.86 161.04"/><polygon class="cls-184" points="222.57 160.66 214.94 172.23 210.95 201.16 207.04 199.29 207.22 178.47 194.63 175.22 187.93 181.97 185.04 172.28 178.43 161.01 181.36 148.73 184.01 148.21 184.49 156.34 192.47 157.91 210.82 144.68 225.94 144.22 224.39 153.66 222.57 160.66"/><polygon class="cls-185" points="222.28 160.28 213.88 172.24 209.25 201.66 205.43 199.65 206.01 178.4 193.74 174.84 187.05 180.93 184.25 171.17 177.53 160.31 180.89 148.06 183.86 147.67 184.52 156.25 193.02 158.06 211.5 144.77 226.62 144.2 224.78 153.42 222.28 160.28"/><polygon class="cls-186" points="222 159.89 212.81 172.25 207.55 202.16 203.81 200.01 204.81 178.34 192.84 174.45 186.18 179.9 183.45 170.07 176.62 159.61 180.43 147.39 183.72 147.12 184.55 156.16 193.57 158.21 212.17 144.86 227.31 144.17 225.17 153.18 222 159.89"/><polygon class="cls-187" points="221.71 159.51 211.75 172.26 205.85 202.65 202.2 200.37 203.61 178.28 191.94 174.07 185.31 178.87 182.66 168.97 175.72 158.9 179.96 146.72 183.57 146.58 184.58 156.06 194.12 158.36 212.84 144.95 227.99 144.15 225.56 152.94 221.71 159.51"/><polygon class="cls-188" points="221.42 159.12 210.68 172.27 204.15 203.15 200.59 200.73 202.4 178.21 191.04 173.68 184.44 177.83 181.87 167.86 174.82 158.2 179.5 146.05 183.42 146.04 184.61 155.97 194.67 158.51 213.52 145.04 228.68 144.12 225.96 152.7 221.42 159.12"/><polygon class="cls-189" points="221.13 158.74 209.62 172.28 202.45 203.64 198.97 201.09 201.2 178.15 190.15 173.3 183.57 176.8 181.07 166.76 173.92 157.49 179.03 145.38 183.28 145.49 184.64 155.87 195.22 158.66 214.19 145.13 229.36 144.1 226.35 152.46 221.13 158.74"/><polygon class="cls-190" points="220.84 158.35 208.55 172.29 200.75 204.14 197.36 201.45 199.99 178.09 189.25 172.91 182.7 175.76 180.28 165.66 173.01 156.79 178.57 144.71 183.13 144.95 184.67 155.78 195.77 158.81 214.87 145.22 230.04 144.07 226.74 152.22 220.84 158.35"/><polygon class="cls-191" points="220.55 157.97 207.48 172.3 199.05 204.64 195.75 201.81 198.79 178.02 188.35 172.53 181.82 174.73 179.49 164.55 172.11 156.09 178.1 144.04 182.99 144.4 184.71 155.68 196.32 158.96 215.54 145.31 230.73 144.05 227.13 151.97 220.55 157.97"/><polygon class="cls-192" points="220.26 157.58 206.42 172.31 197.35 205.13 194.13 202.17 197.59 177.96 187.45 172.15 180.95 173.7 178.7 163.45 171.21 155.38 177.63 143.37 182.84 143.86 184.74 155.59 196.88 159.11 216.22 145.4 231.41 144.03 227.53 151.73 220.26 157.58"/><polygon class="cls-193" points="219.98 157.2 205.35 172.31 195.65 205.63 192.52 202.53 196.38 177.89 186.56 171.76 180.08 172.66 177.9 162.34 170.31 154.68 177.17 142.7 182.69 143.31 184.77 155.5 197.43 159.26 216.89 145.49 232.09 144 227.92 151.49 219.98 157.2"/><polygon class="cls-194" points="219.69 156.81 204.28 172.32 193.95 206.13 190.91 202.89 195.18 177.83 185.66 171.38 179.21 171.63 177.11 161.24 169.41 153.97 176.7 142.03 182.55 142.77 184.8 155.4 197.98 159.41 217.57 145.58 232.78 143.98 228.31 151.25 219.69 156.81"/><polygon class="cls-195" points="219.4 156.43 203.22 172.33 192.25 206.62 189.29 203.25 193.97 177.77 184.76 170.99 178.34 170.59 176.32 160.14 168.5 153.27 176.24 141.37 182.4 142.23 184.83 155.31 198.53 159.56 218.24 145.67 233.46 143.95 228.7 151.01 219.4 156.43"/><polygon class="cls-196" points="219.11 156.05 202.15 172.34 190.56 207.12 187.68 203.61 192.77 177.7 183.86 170.61 177.47 169.56 175.52 159.03 167.6 152.56 175.77 140.69 182.25 141.68 184.86 155.21 199.08 159.71 218.92 145.76 234.15 143.93 229.09 150.77 219.11 156.05"/><polygon class="cls-197" points="218.82 155.66 201.09 172.35 188.86 207.62 186.06 203.97 191.56 177.64 182.97 170.22 176.6 168.53 174.73 157.93 166.7 151.86 175.31 140.03 182.11 141.14 184.89 155.12 199.63 159.85 219.59 145.85 234.83 143.9 229.49 150.53 218.82 155.66"/><polygon class="cls-198" points="218.53 155.28 200.02 172.36 187.16 208.11 184.45 204.33 190.36 177.57 182.07 169.84 175.72 167.49 173.94 156.83 165.8 151.16 174.84 139.35 181.96 140.59 184.92 155.02 200.19 160 220.26 145.94 235.51 143.88 229.88 150.28 218.53 155.28"/><polygon class="cls-199" points="164.9 150.45 174.38 138.69 181.82 140.05 184.95 154.93 200.74 160.15 220.94 146.03 236.2 143.85 230.27 150.04 218.25 154.89 198.96 172.37 185.46 208.61 182.84 204.69 189.16 177.51 181.17 169.46 174.85 166.46 173.15 155.72 164.9 150.45"/><path class="cls-1" d="M164.62,106.11c.71.57,30.44-3,30.44-3l51.49.92L275.19,89l3.93,3.14L267.45,106.7l30.62-3.23,21.42,10.67-3.7,4.63-38.41-1.91L254.81,122l-43.68-6.83-30.91,5.51-21.51-2.16Z"/><path class="cls-200" d="M267,106.71l30.36-3.1,21.08,10.56-4,4.55-38-1.84-22.6,5.05-43.31-6.67-30.65,5.41-21.14-2.24,6.08-12.28c.69.55,30.43-3,30.43-3l51,.78L274.5,89.14l3.77,3.22Z"/><path class="cls-201" d="M266.61,106.72l30.09-3,20.74,10.44-4.24,4.48-37.68-1.76-22.64,4.92-42.94-6.52-30.37,5.32-20.79-2.31S165,106.18,165,106.18c.68.54,30.41-2.92,30.41-2.92l50.48.63,27.88-14.58,3.62,3.3Z"/><path class="cls-202" d="M266.19,106.72,296,103.89l20.4,10.33-4.51,4.4-37.31-1.69-22.68,4.8-42.56-6.37-30.11,5.22-20.42-2.38s6.42-12,6.42-12c.68.53,30.41-2.88,30.41-2.88l50,.48,27.49-14.33,3.46,3.39Z"/><path class="cls-203" d="M265.77,106.73l29.56-2.7,20.05,10.21-4.77,4.33L273.66,117l-22.72,4.67-42.19-6.22-29.84,5.13-20-2.46s6.59-11.84,6.59-11.84c.66.53,30.4-2.84,30.4-2.84l49.47.34,27.11-14.09,3.3,3.47Z"/><path class="cls-204" d="M265.35,106.74l29.29-2.57,19.71,10.1-5,4.25L272.73,117,250,121.53l-41.81-6.07-29.58,5L158.89,118s6.77-11.69,6.77-11.69c.65.52,30.38-2.79,30.38-2.79l49,.19,26.72-13.84,3.15,3.54Z"/><path class="cls-205" d="M264.93,106.74l29-2.43,19.36,10L308,118.47,271.8,117,249,121.43l-41.45-5.92-29.3,4.94-19.33-2.61s6.93-11.54,6.93-11.54c.65.51,30.38-2.75,30.38-2.75l48.47,0L271.06,90l3,3.62Z"/><path class="cls-206" d="M264.51,106.75l28.76-2.3,19,9.87-5.58,4.09L270.87,117,248,121.33,207,115.56l-29,4.85-19-2.69s7.11-11.39,7.11-11.39c.63.5,30.37-2.71,30.37-2.71l48-.1,26-13.35,2.82,3.7Z"/><path class="cls-207" d="M264.09,106.76l28.49-2.17,18.69,9.75-5.85,4-35.48-1.3-22.87,4.17-40.7-5.62-28.77,4.75L159,117.6c.05,0,7.28-11.24,7.28-11.24.62.5,30.35-2.67,30.35-2.67l47.47-.24,25.58-13.11,2.67,3.78Z"/><path class="cls-208" d="M263.67,106.76l28.23-2,18.34,9.64-6.12,3.94L269,117.08l-22.91,4-40.32-5.47-28.5,4.66L159,117.49c.05,0,7.44-11.1,7.44-11.1.61.49,30.35-2.62,30.35-2.62l47-.39L269,90.51l2.51,3.86Z"/><path class="cls-209" d="M263.25,106.77l28-1.9,18,9.52-6.38,3.87-34.75-1.16L245.13,121l-39.95-5.32L177,120.28l-17.88-2.91c.06,0,7.62-11,7.62-11,.6.48,30.34-2.58,30.34-2.58l46.45-.54L268.3,90.68l2.36,3.94Z"/><path class="cls-210" d="M262.83,106.78l27.7-1.77,17.65,9.41-6.65,3.79-34.38-1.08-23,3.8-39.58-5.17-28,4.47-17.51-3c.06,0,7.79-10.8,7.79-10.8.59.47,30.33-2.54,30.33-2.54l46-.68,24.43-12.38,2.2,4Z"/><path class="cls-211" d="M262.41,106.78l27.43-1.63,17.31,9.29-6.92,3.72-34-1-23,3.68-39.21-5-27.7,4.38-17.14-3.06c.07.06,7.95-10.65,7.95-10.65.58.47,30.32-2.49,30.32-2.49l45.45-.83L266.92,91l2,4.1Z"/><path class="cls-212" d="M262,106.79l27.16-1.5,17,9.18-7.19,3.64-33.65-.93-23.06,3.55-38.83-4.87L176,120.15,159.18,117c.08.06,8.13-10.5,8.13-10.5.57.46,30.31-2.45,30.31-2.45l44.95-1,23.66-11.89,1.89,4.19Z"/><path class="cls-213" d="M261.57,106.8l26.9-1.37,16.63,9.07-7.46,3.56-33.28-.86-23.1,3.43-38.46-4.72-27.16,4.19-16.42-3.21c.08.07,8.3-10.35,8.3-10.35.56.45,30.3-2.41,30.3-2.41L242.26,103l23.28-11.65,1.73,4.27Z"/><path class="cls-214" d="M261.15,106.8l26.63-1.23,16.29,9L296.34,118l-32.91-.78-23.14,3.3L202.21,116l-26.9,4.1-16.05-3.29c.08.07,8.46-10.19,8.46-10.19.55.44,30.29-2.38,30.29-2.38L242,102.94l22.9-11.4,1.57,4.34Z"/><path class="cls-215" d="M260.73,106.81l26.37-1.1L303,114.55l-8,3.41-32.55-.71-23.17,3.18L201.61,116,175,120l-15.7-3.37c.1.08,8.64-10,8.64-10,.54.43,30.28-2.33,30.28-2.33l43.44-1.42,22.52-11.15,1.41,4.42Z"/><path class="cls-216" d="M260.31,106.82l26.1-1,15.6,8.72-8.26,3.33-32.18-.62-23.21,3L201,116.07,174.66,120l-15.33-3.43c.1.08,8.81-9.9,8.81-9.9.52.42,30.27-2.29,30.27-2.29l42.93-1.56,22.14-10.91,1.25,4.5Z"/><path class="cls-217" d="M259.89,106.82l25.83-.83L301,114.6l-8.52,3.25-31.82-.55-23.25,2.92-37-4.1-26.09,3.81-15-3.51c.1.08,9-9.75,9-9.75.52.41,30.26-2.25,30.26-2.25l42.43-1.7,21.76-10.67,1.09,4.58Z"/><path class="cls-218" d="M259.47,106.83l25.57-.7L300,114.62l-8.8,3.18-31.45-.47-23.29,2.79-36.59-4L174,119.88l-14.6-3.58c.11.09,9.15-9.6,9.15-9.6.51.41,30.25-2.2,30.25-2.2l41.93-1.86L262.1,92.22l.94,4.66Z"/><path class="cls-219" d="M259.05,106.84l25.3-.57,14.58,8.38-9.07,3.1-31.08-.4L235.45,120l-36.22-3.8-25.55,3.62-14.24-3.66c.11.09,9.31-9.45,9.31-9.45.5.4,30.25-2.16,30.25-2.16l41.42-2,21-10.18.78,4.74Z"/><path class="cls-220" d="M258.63,106.84l25-.43,14.23,8.26-9.33,3-30.72-.33-23.36,2.55-35.85-3.65-25.29,3.53-13.87-3.74c.12.1,9.48-9.3,9.48-9.3.49.39,30.24-2.12,30.24-2.12l40.91-2.14,20.61-9.94.62,4.82Z"/><path class="cls-221" d="M258.21,106.85l24.77-.3,13.89,8.15-9.6,3-30.35-.25-23.4,2.42L198,116.32l-25,3.43-13.51-3.81c.13.1,9.66-9.15,9.66-9.15.48.38,30.22-2.08,30.22-2.08l40.42-2.29L260,92.73l.47,4.91Z"/><path class="cls-222" d="M257.79,106.86l24.5-.17,13.55,8L286,117.6l-30-.18-23.44,2.3-35.1-3.35-24.75,3.34-13.15-3.89c.13.11,9.82-9,9.82-9,.47.38,30.22-2,30.22-2l39.91-2.44,19.84-9.45.31,5Z"/><path class="cls-223" d="M257.37,106.86l24.24,0,13.2,7.92-10.13,2.8-29.62-.1-23.48,2.17-34.73-3.2-24.48,3.25-12.79-4c.14.11,10-8.86,10-8.86.46.37,30.21-2,30.21-2l39.41-2.58,19.45-9.21.16,5.07Z"/><path class="cls-224" d="M257,106.87l24,.1,12.86,7.8-10.4,2.73-29.25,0-23.51,2-34.36-3L172,119.62l-12.42-4c.15.11,10.17-8.71,10.17-8.71.45.36,30.19-1.95,30.19-1.95l38.91-2.73,19.07-9v5.15Z"/><path class="cls-225" d="M256.53,106.88l23.71.23,12.52,7.69-10.68,2.64-28.88.06-23.55,1.92-34-2.9-23.95,3.06-12.05-4.11c.15.12,10.33-8.56,10.33-8.56.44.35,30.19-1.9,30.19-1.9l38.4-2.88,18.7-8.71-.17,5.22Z"/><path class="cls-226" d="M256.11,106.88l23.44.37,12.18,7.57-10.94,2.57-28.52.13-23.59,1.8-33.62-2.75-23.67,3-11.7-4.19c.16.12,10.51-8.41,10.51-8.41.43.35,30.18-1.86,30.18-1.86l37.9-3,18.31-8.47-.32,5.3Z"/><path class="cls-227" d="M255.69,106.89l23.17.5,11.84,7.46-11.21,2.49-28.15.21-23.63,1.67-33.24-2.6-23.41,2.87-11.33-4.26c.16.13,10.68-8.26,10.68-8.26.41.34,30.17-1.82,30.17-1.82L238,102l17.93-8.22-.48,5.38Z"/><path class="cls-228" d="M255.27,106.9l22.91.63,11.49,7.35-11.48,2.41-27.78.28-23.67,1.55-32.87-2.45-23.14,2.78-11-4.34c.17.14,10.84-8.1,10.84-8.1.41.32,30.16-1.79,30.16-1.79l36.89-3.31,17.55-8-.64,5.46Z"/><path class="cls-229" d="M254.85,106.91l22.64.76,11.15,7.23-11.74,2.34-27.42.35L225.78,119l-32.5-2.3-22.87,2.69L159.8,115c.18.14,11-7.95,11-7.95.4.31,30.15-1.74,30.15-1.74l36.39-3.46,17.16-7.74-.79,5.54Z"/><path class="cls-230" d="M254.43,106.91l22.38.9,10.8,7.12-12,2.26-27.05.43-23.74,1.3-32.13-2.14-22.6,2.58-10.24-4.48c.18.14,11.19-7.81,11.19-7.81.38.31,30.14-1.7,30.14-1.7l35.88-3.61,16.78-7.49-1,5.63Z"/><path class="cls-231" d="M254,106.92l22.11,1,10.47,7-12.29,2.19-26.68.5-23.78,1.18-31.75-2-22.34,2.49-9.87-4.56c.18.14,11.35-7.66,11.35-7.66.38.3,30.13-1.66,30.13-1.66l35.39-3.75,16.39-7.25L252,100.15Z"/><path class="cls-232" d="M253.59,106.93l21.84,1.16L285.56,115,273,117.09l-26.32.58-23.82,1-31.38-1.84-22.07,2.39-9.51-4.63c.19.15,11.53-7.51,11.53-7.51.37.29,30.12-1.62,30.12-1.62l34.88-3.89,16-7-1.26,5.79Z"/><path class="cls-233" d="M253.17,106.93l21.58,1.3,9.78,6.77-12.82,2-25.95.65-23.86.93-31-1.69-21.8,2.3L160,114.52c.2.16,11.7-7.36,11.7-7.36.35.28,30.11-1.57,30.11-1.57l34.37-4,15.63-6.76-1.42,5.87Z"/><path class="cls-234" d="M252.75,106.94l21.31,1.43L283.5,115l-13.08,2-25.59.74-23.89.8L190.3,117l-21.53,2.21L160,114.4c.2.16,11.86-7.21,11.86-7.21.35.28,30.1-1.53,30.1-1.53l33.88-4.19L251.07,95l-1.57,6Z"/><path class="cls-235" d="M252.33,107l21,1.56,9.09,6.54-13.35,1.88-25.22.81-23.93.68L189.71,117l-21.27,2.11L160,114.28c.21.17,12-7.06,12-7.06.33.27,30.09-1.49,30.09-1.49l33.37-4.33,14.87-6.27-1.74,6Z"/><path class="cls-236" d="M251.91,107l20.78,1.7,8.75,6.43-13.62,1.8-24.85.89-24,.55-29.89-1.24-21,2-8.06-4.94c.21.17,12.2-6.91,12.2-6.91.33.26,30.09-1.44,30.09-1.44l32.86-4.49,14.49-6-1.9,6.1Z"/><path class="cls-237" d="M251.49,107,272,108.79l8.42,6.31-13.89,1.73-24.49,1-24,.43-29.51-1.09-20.73,1.93-7.69-5c.22.18,12.37-6.76,12.37-6.76.32.25,30.08-1.4,30.08-1.4l32.36-4.63L249,95.47l-2,6.18Z"/><path class="cls-238" d="M251.07,107l20.25,2,8.07,6.2-14.16,1.65-24.12,1-24.05.3-29.14-.93L167.46,119l-7.33-5.08c.23.18,12.55-6.62,12.55-6.62.3.25,30.06-1.36,30.06-1.36l31.86-4.77,13.72-5.54-2.21,6.26Z"/><path class="cls-239" d="M250.65,107l20,2.1,7.73,6.08-14.43,1.58-23.75,1.11L216.1,118l-28.77-.78L167.14,119l-7-5.16c.23.18,12.71-6.47,12.71-6.47.3.24,30.06-1.32,30.06-1.32l31.36-4.91,13.33-5.3-2.37,6.35Z"/><path class="cls-240" d="M250.23,107,270,109.21l7.38,6-14.69,1.5-23.39,1.18-24.12,0-28.4-.63-19.92,1.65-6.61-5.24c.24.19,12.89-6.32,12.89-6.32.29.23,30-1.27,30-1.27L234,101l12.95-5-2.52,6.43Z"/><path class="cls-241" d="M249.81,107l19.45,2.36,7,5.86-15,1.42-23,1.26-24.16-.08-28-.48-19.66,1.55-6.24-5.31c.24.19,13.06-6.16,13.06-6.16.27.22,30-1.24,30-1.24L233.68,101l12.57-4.81-2.68,6.51Z"/><path class="cls-242" d="M249.39,107l19.18,2.5,6.7,5.74L260,116.58l-22.65,1.33-24.2-.2-27.65-.33-19.39,1.46-5.87-5.39c.25.2,13.22-6,13.22-6,.27.21,30-1.2,30-1.2l29.85-5.35,12.18-4.57-2.84,6.59Z"/><path class="cls-243" d="M249,107l18.92,2.63,6.36,5.63-15.5,1.26-22.29,1.42-24.24-.33L185,117.43l-19.12,1.37-5.52-5.47c.26.21,13.4-5.86,13.4-5.86.26.2,30-1.15,30-1.15l29.34-5.51,11.8-4.32-3,6.67Z"/><path class="cls-244" d="M248.55,107l18.65,2.76,6,5.51-15.77,1.19L235.53,118l-24.27-.45-26.91,0-18.85,1.27-5.15-5.54c.26.21,13.57-5.71,13.57-5.71.24.19,30-1.11,30-1.11l28.84-5.65,11.42-4.08L241,103.41Z"/><path class="cls-245" d="M248.13,107l18.39,2.9,5.67,5.4-16,1.11L234.6,118l-24.31-.58-26.53.13-18.59,1.17-4.78-5.61c.26.21,13.73-5.57,13.73-5.57.24.19,30-1.07,30-1.07l28.34-5.79,11-3.83-3.32,6.82Z"/><path class="cls-246" d="M247.71,107l18.12,3,5.33,5.28-16.3,1L233.67,118l-24.35-.7-26.16.28-18.31,1.07L160.42,113c.28.21,13.91-5.42,13.91-5.42.22.18,30-1,30-1l27.83-5.94L242.81,97l-3.47,6.9Z"/><path class="cls-247" d="M247.29,107l17.85,3.16,5,5.17-16.57,1L232.74,118l-24.39-.82-25.78.43-18,1-4.06-5.76c.28.22,14.08-5.27,14.08-5.27.21.17,30-1,30-1l27.33-6.09,10.27-3.34-3.63,7Z"/><path class="cls-248" d="M246.87,107l17.59,3.3,4.64,5-16.83.89-20.46,1.79-24.43-1-25.41.58-17.78.89-3.69-5.84c.28.23,14.24-5.12,14.24-5.12.21.16,30-.94,30-.94l26.83-6.23,9.89-3.1-3.78,7.06Z"/><path class="cls-249" d="M246.45,107l17.32,3.44,4.31,4.93-17.11.81-20.09,1.86L206.42,117l-25,.73-17.52.79-3.33-5.91c.29.23,14.42-5,14.42-5,.19.16,30-.9,30-.9l26.32-6.38,9.51-2.85-3.94,7.15Z"/><path class="cls-250" d="M246,107.05l17.06,3.57,4,4.81-17.38.74L230,118.11l-24.5-1.2-24.67.88-17.24.7-3-6c.29.24,14.59-4.82,14.59-4.82.18.15,30-.85,30-.85l25.82-6.53,9.12-2.61-4.1,7.23Z"/><path class="cls-251" d="M245.61,107.05l16.79,3.71,3.62,4.7-17.64.66-19.36,2-24.54-1.32-24.29,1-17,.61-2.6-6.07c.3.24,14.75-4.67,14.75-4.67.18.14,29.94-.81,29.94-.81l25.32-6.67,8.74-2.37-4.25,7.31Z"/><path class="cls-252" d="M245.19,107.06l16.52,3.84,3.28,4.58-17.91.58-19,2.1-24.58-1.45-23.92,1.18-16.71.51-2.24-6.14c.31.25,14.93-4.52,14.93-4.52.16.13,29.93-.77,29.93-.77l24.81-6.82L238.67,98l-4.41,7.39Z"/><path class="cls-253" d="M244.77,107.07,261,111l2.93,4.47-18.18.5-18.62,2.17-24.62-1.57L179,117.94l-16.44.42-1.88-6.21c.31.25,15.1-4.38,15.1-4.38.15.13,29.92-.73,29.92-.73l24.31-7,8-1.88-4.57,7.47Z"/><path class="cls-254" d="M244.35,107.07l16,4.11,2.59,4.35-18.44.43-18.26,2.25-24.65-1.7L178.4,118l-16.17.33L160.72,112c.31.25,15.26-4.23,15.26-4.23s29.91-.68,29.91-.68L229.7,100l7.59-1.64-4.72,7.55Z"/><path class="cls-255" d="M243.93,107.08l15.73,4.24,2.25,4.24-18.72.35-17.89,2.32-24.69-1.82L177.81,118l-15.91.23-1.15-6.36c.33.26,15.44-4.07,15.44-4.07s29.9-.65,29.9-.65l23.3-7.26,7.21-1.38-4.88,7.62Z"/><path class="cls-256" d="M243.51,107.09,259,111.46l1.91,4.13-19,.27-17.52,2.4-24.73-2-22.43,1.78-15.64.14-.78-6.44c.33.26,15.6-3.92,15.6-3.92s29.9-.61,29.9-.61l22.8-7.4,6.83-1.14-5,7.7Z"/><path class="cls-257" d="M243.09,107.09l15.19,4.51,1.57,4-19.25.2-17.16,2.47-24.77-2.07-22,1.93-15.37,0-.43-6.52c.34.27,15.78-3.77,15.78-3.77s29.89-.56,29.89-.56l22.29-7.55,6.45-.9-5.2,7.78Z"/><path class="cls-258" d="M242.67,107.1l14.93,4.64,1.22,3.9-19.52.12-16.79,2.54-24.81-2.19L176,118.19l-15.1,0-.06-6.59c.34.28,15.95-3.62,15.95-3.62s29.87-.52,29.87-.52l21.8-7.7,6.06-.65-5.36,7.87Z"/><path class="cls-259" d="M242.25,107.11l14.66,4.77.88,3.78-19.79,0-16.42,2.62L196.74,116l-21.32,2.24-14.83-.14.31-6.67c.35.28,16.11-3.47,16.11-3.47s29.87-.48,29.87-.48l21.29-7.84,5.68-.41-5.51,8Z"/><path class="cls-260" d="M241.83,107.11,256.22,112l.54,3.67-20,0-16.06,2.69-24.88-2.45-20.94,2.4-14.56-.25.66-6.73c.36.28,16.29-3.33,16.29-3.33s29.86-.44,29.86-.44l20.78-8,5.3-.17-5.67,8Z"/><path class="cls-261" d="M241.41,107.12l14.13,5,.2,3.55-20.33-.1-15.69,2.77L194.8,115.8l-20.57,2.55L159.94,118l1-6.81c.36.28,16.46-3.18,16.46-3.18s29.84-.39,29.84-.39l20.29-8.14,4.91.08-5.83,8.11Z"/><path class="cls-262" d="M241,107.13l13.86,5.17-.14,3.44-20.59-.19-15.33,2.85-25-2.7-20.19,2.7-14-.43,1.4-6.89c.36.29,16.62-3,16.62-3s29.84-.35,29.84-.35l19.78-8.28,4.53.32-6,8.19Z"/><path class="cls-263" d="M240.57,107.13l13.6,5.31-.49,3.32-20.86-.26-15,2.93-25-2.83L173,118.45l-13.76-.53,1.76-7c.37.3,16.8-2.88,16.8-2.88s29.83-.31,29.83-.31l19.27-8.42,4.15.56L225,108.18Z"/><path class="cls-264" d="M240.15,107.14l13.33,5.44-.83,3.21-21.13-.34-14.59,3-25-3-19.45,3L159,117.88l2.12-7c.38.3,17-2.73,17-2.73s29.82-.26,29.82-.26l18.77-8.58,3.76.81-6.3,8.35Z"/><path class="cls-265" d="M239.73,107.15l13.06,5.57-1.17,3.09-21.39-.41L216,118.48l-25.07-3.08-19.08,3.15-13.22-.71,2.49-7.12c.38.31,17.13-2.58,17.13-2.58s29.81-.22,29.81-.22l18.27-8.72,3.38,1.06-6.45,8.42Z"/><path class="cls-266" d="M239.31,107.15l12.8,5.71-1.52,3-21.66-.49-13.86,3.15L190,115.3l-18.7,3.3-13-.81,2.85-7.19c.39.31,17.31-2.43,17.31-2.43s29.8-.18,29.8-.18L226,99.13l3,1.3-6.62,8.5Z"/><path class="cls-267" d="M238.89,107.16,251.42,113l-1.86,2.86-21.93-.56-13.49,3.22L189,115.2l-18.33,3.45-12.68-.9,3.21-7.27c.39.32,17.48-2.28,17.48-2.28s29.79-.14,29.79-.14l17.26-9,2.62,1.55-6.78,8.59Z"/><path class="cls-268" d="M161.23,110.37c.4.32,17.64-2.14,17.64-2.14l29.78-.09L225.41,99l2.24,1.79-6.93,8.67,17.75-2.27,12.27,6-2.2,2.75-22.2-.64-13.13,3.3L188,115.1l-18,3.6-12.42-1Z"/><path class="cls-269" d="M155.43,103.83c1,0,24.85-24.51,24.85-24.51l46.3-36.09,14.71-34H247V30.64L271.85,5.79,298.41,0V6.81L263,32.63,246.66,53.45,203.1,78.64l-23.5,27.1L159,119.23Z"/><path class="cls-270" d="M202,77.36l-23.59,26.91L158.8,118.2l-3.37-14.37c1,0,24.85-24.51,24.85-24.51l46.3-36.09,14.71-34,5.09.8-.26,21.53L271.85,5.79,298.41,0V6.81l-34.7,23.42L245.16,51.74Z"/><path class="cls-271" d="M200.83,76.09l-23.68,26.72L158.6,117.18l-3.17-13.35c1,0,24.85-24.51,24.85-24.51l46.3-36.09,14.71-34,4.46,1.59-.51,21.62L271.85,5.79,298.41,0V6.81l-34,21L243.65,50Z"/><path class="cls-272" d="M199.69,74.81l-23.76,26.53L158.4,116.16l-3-12.33c1,0,24.85-24.51,24.85-24.51l46.3-36.09,14.71-34,3.84,2.38-.77,21.71L271.85,5.79,298.41,0V6.81L265.13,25.42l-23,22.92Z"/><path class="cls-273" d="M198.55,73.53,174.71,99.88l-16.5,15.26-2.78-11.31c1,0,24.85-24.51,24.85-24.51l46.3-36.09,14.71-34,3.22,3.18-1,21.79L271.85,5.79,298.41,0V6.81L265.84,23,240.65,46.64Z"/><path class="cls-274" d="M197.42,72.26,173.48,98.41,158,114.12l-2.58-10.29c1,0,24.85-24.51,24.85-24.51l46.3-36.09,14.71-34,2.59,4L242.6,35,271.85,5.79,298.41,0V6.81L266.55,20.62,239.14,44.94Z"/><path class="cls-275" d="M155.43,103.83c1,0,24.85-24.51,24.85-24.51l46.3-36.09,14.71-34,2,4.77-1.53,21.95L271.85,5.79,298.41,0V6.81l-31.15,11.4-29.62,25L196.28,71l-24,26L157.81,113.1Z"/><polygon class="cls-269" points="164.9 151.52 172.26 135.33 191.85 132.77 218.75 145.36 263.34 142.14 293.31 118.13 327 108.1 320.87 117.11 298.41 128 274.99 154.75 289.89 196.43 278.51 194.04 258.24 164.77 228.62 161.22 209.59 161.64 191.51 152.26 164.9 151.52"/><polygon class="cls-270" points="191.38 149.78 165.26 150.72 172.26 135.33 191.85 132.77 218.75 145.36 263.34 142.14 293.31 118.13 327 108.1 320.04 116.78 298.04 126.92 274.31 152.83 289.89 196.43 278.95 192.04 258.52 161.97 229.16 159.33 210.37 159.37 191.38 149.78"/><polygon class="cls-271" points="191.26 147.3 165.62 149.93 172.26 135.33 191.85 132.77 218.75 145.36 263.34 142.14 293.31 118.13 327 108.1 319.2 116.45 297.67 125.84 273.62 150.92 289.89 196.43 279.38 190.04 258.8 159.19 229.7 157.44 211.14 157.1 191.26 147.3"/><polygon class="cls-272" points="191.13 144.81 165.98 149.13 172.26 135.33 191.85 132.77 218.75 145.36 263.34 142.14 293.31 118.13 327 108.1 318.36 116.13 297.3 124.77 272.94 149 289.89 196.43 279.82 188.04 259.09 156.4 230.24 155.54 211.91 154.83 191.13 144.81"/><polygon class="cls-273" points="191 142.33 166.34 148.34 172.26 135.33 191.85 132.77 218.75 145.36 263.34 142.14 293.31 118.13 327 108.1 317.53 115.8 296.93 123.69 272.25 147.08 289.89 196.43 280.26 186.04 259.37 153.6 230.78 153.65 212.69 152.56 191 142.33"/><polygon class="cls-274" points="190.87 139.84 166.7 147.55 172.26 135.33 191.85 132.77 218.75 145.36 263.34 142.14 293.31 118.13 327 108.1 316.69 115.47 296.56 122.61 271.57 145.16 289.89 196.43 280.69 184.04 259.65 150.81 231.31 151.76 213.46 150.29 190.87 139.84"/><polygon class="cls-275" points="167.06 146.75 172.26 135.33 191.85 132.77 218.75 145.36 263.34 142.14 293.31 118.13 327 108.1 315.85 115.15 296.19 121.53 270.88 143.25 289.89 196.43 281.13 182.04 259.94 148.02 231.85 149.87 214.24 148.02 190.75 137.36 167.06 146.75"/><polygon class="cls-269" points="85.37 160.12 110.22 144.63 149.37 176.46 184.1 189.06 223.25 208.12 220.52 213.6 194.65 207.78 229.03 242.84 259.14 305.7 238.22 299.56 214.4 249.99 172.26 221.67 133.03 204.91 164.68 244.89 172.26 289.14 160.95 287.46 149.72 249.65 117.03 215.61 112.27 237.4 105.46 235.35 113.97 199.61 111.25 177.14 91.5 172.38 85.37 160.12"/><polygon class="cls-270" points="93.63 170.59 86.41 159.47 99.88 151.08 110.64 146.29 149.37 176.46 181.49 188.11 184.64 189.32 217.81 205.47 220.95 207.8 222.02 208.31 218.76 212.36 199.5 207.06 194.39 207 197.26 210.44 229.03 242.84 259.14 305.7 242.92 299.26 239.16 297.55 219.25 256.15 214.33 247.6 177.28 221.55 171.98 218.22 140.39 204.63 133.32 203.34 137.56 210.63 164.21 244.3 165.25 248.23 172.26 289.14 165.33 286.91 162 285.72 154.36 258.8 149.91 247.34 121.79 217.67 117.25 214.63 112.35 237 110.6 236.9 105.94 234.99 114.02 200.85 114.54 198.65 113.2 175.87 111.62 175.09 93.63 170.59"/><polygon class="cls-271" points="95.76 168.8 87.45 158.83 100.55 150.66 111.05 147.95 149.37 176.46 182.01 188.3 185.19 189.59 218.9 206 220.29 208.27 220.8 208.5 217 211.11 197.75 204.86 194.13 206.22 196.74 209.91 229.03 242.84 259.14 305.7 243.51 297.75 240.1 295.53 219.84 253.45 214.27 245.21 177.18 217.97 171.7 214.76 139.62 200.88 133.62 201.76 136.65 209.48 163.75 243.71 165.14 247.56 172.26 289.14 165.91 285.79 163.06 283.97 155.54 256.29 150.11 245.03 121.46 214.43 117.46 213.66 112.44 236.61 110.94 237 106.42 234.62 114.59 199.92 115.12 197.68 115.16 174.59 114 173.53 95.76 168.8"/><polygon class="cls-272" points="97.89 167.01 88.48 158.18 101.23 150.24 111.45 149.61 149.37 176.46 182.53 188.49 185.73 189.85 219.99 206.53 219.62 208.75 219.57 208.69 215.24 209.87 196 202.65 193.87 205.44 196.22 209.38 229.03 242.84 259.14 305.7 244.11 296.23 241.04 293.52 220.44 250.76 214.2 242.81 177.08 214.41 171.42 211.31 138.86 197.13 133.91 200.19 135.75 208.34 163.28 243.13 165.02 246.89 172.26 289.14 166.5 284.67 164.12 282.23 156.72 253.78 150.31 242.72 121.13 211.18 117.67 212.68 112.53 236.22 111.27 237.1 106.91 234.25 115.16 198.99 115.69 196.72 117.12 173.32 116.37 171.96 97.89 167.01"/><polygon class="cls-273" points="100.01 165.23 89.52 157.54 101.91 149.81 111.86 151.27 149.37 176.46 183.06 188.68 186.28 190.12 221.07 207.06 218.96 209.22 218.35 208.88 213.47 208.62 194.24 200.45 193.61 204.66 195.69 208.84 229.03 242.84 259.14 305.7 244.7 294.72 241.97 291.5 221.03 248.06 214.14 240.42 176.98 210.84 171.14 207.85 138.09 193.38 134.2 198.61 134.84 207.2 162.82 242.54 164.91 246.22 172.26 289.14 167.09 283.55 165.17 280.49 157.9 251.27 150.5 240.41 120.8 207.94 117.89 211.71 112.61 235.83 111.6 237.2 107.39 233.88 115.73 198.06 116.26 195.75 119.08 172.04 118.75 170.4 100.01 165.23"/><polygon class="cls-274" points="102.14 163.44 90.56 156.89 102.59 149.39 112.27 152.93 149.37 176.46 183.58 188.87 186.82 190.38 222.16 207.59 218.29 209.69 217.12 209.06 211.71 207.37 192.49 198.24 193.35 203.88 195.17 208.31 229.03 242.84 259.14 305.7 245.29 293.21 242.91 289.49 221.63 245.37 214.07 238.02 176.88 207.26 170.86 204.4 137.32 189.63 134.49 197.04 133.94 206.05 162.36 241.95 164.79 245.56 172.26 289.14 167.68 282.43 166.23 278.74 159.09 248.76 150.7 238.1 120.46 204.7 118.1 210.73 112.7 235.44 111.94 237.3 107.87 233.51 116.3 197.13 116.84 194.79 121.03 170.77 121.13 168.83 102.14 163.44"/><polygon class="cls-275" points="91.59 156.25 103.27 148.97 149.37 176.46 184.1 189.06 223.25 208.12 217.63 210.16 190.74 196.03 194.65 207.78 229.03 242.84 259.14 305.7 245.88 291.69 222.22 242.67 176.78 203.69 136.55 185.88 133.03 204.91 164.68 244.89 172.26 289.14 168.27 281.31 160.27 246.25 120.13 201.45 112.27 237.4 108.35 233.14 116.86 196.21 123.5 167.27 104.27 161.65 91.59 156.25"/><polygon class="cls-269" points="27.77 196.43 6.32 218.89 12.11 238.64 51.6 267.23 41.38 314.21 47.51 318.3 58.41 282.89 74.07 304.68 80.22 347.13 86.73 339.75 86.73 302.64 69.3 276.7 68.96 247.52 31.17 224 43.09 203.57 27.77 196.43"/><polygon class="cls-270" points="14.26 237.16 52.98 264.87 42.47 313.55 47.51 318.3 59.02 281.28 75.15 304.11 81.08 346.15 86.73 339.75 86.73 302.64 69.3 276.7 68.96 247.52 30.13 223.35 43.09 203.57 28.42 196.73 7.48 218.89 14.26 237.16"/><polygon class="cls-271" points="16.42 235.69 54.36 262.5 43.55 312.88 47.51 318.3 59.63 279.66 76.24 303.55 81.93 345.18 86.73 339.75 86.73 302.64 69.3 276.7 68.96 247.52 29.09 222.71 43.09 203.57 29.08 197.04 8.65 218.89 16.42 235.69"/><polygon class="cls-272" points="18.58 234.21 55.75 260.13 44.64 312.21 47.51 318.3 60.24 278.04 77.32 302.98 82.79 344.21 86.73 339.75 86.73 302.64 69.3 276.7 68.96 247.52 28.05 222.06 43.09 203.57 29.73 197.34 9.81 218.89 18.58 234.21"/><polygon class="cls-273" points="20.73 232.74 57.13 257.76 45.73 311.55 47.51 318.3 60.85 276.43 78.41 302.41 83.65 343.24 86.73 339.75 86.73 302.64 69.3 276.7 68.96 247.52 27.01 221.41 43.09 203.57 30.39 197.65 10.97 218.89 20.73 232.74"/><polygon class="cls-274" points="22.89 231.26 58.51 255.39 46.81 310.88 47.51 318.3 61.46 274.81 79.49 301.84 84.51 342.26 86.73 339.75 86.73 302.64 69.3 276.7 68.96 247.52 25.97 220.76 43.09 203.57 31.05 197.96 12.14 218.89 22.89 231.26"/><polygon class="cls-275" points="31.7 198.26 13.3 218.89 25.04 229.79 59.9 253.02 47.9 310.21 47.51 318.3 62.07 273.19 80.58 301.28 85.37 341.29 86.73 339.75 86.73 302.64 69.3 276.7 68.96 247.52 24.93 220.12 43.09 203.57 31.7 198.26"/></g></g></svg>