<?xml version="1.0" encoding="utf-8"?>
<!-- Generator: Adobe Illustrator 23.0.0, SVG Export Plug-In . SVG Version: 6.00 Build 0)  -->
<svg version="1.1" id="Isolation_Mode" xmlns="http://www.w3.org/2000/svg" xmlns:xlink="http://www.w3.org/1999/xlink" x="0px"
	 y="0px" viewBox="0 0 1256 955.1" style="enable-background:new 0 0 1256 955.1;" xml:space="preserve">
<style type="text/css">
	.st0{fill:#2A1E16;}
	.st1{fill:#2E2118;}
	.st2{fill:#32241A;}
	.st3{fill:#35271D;}
	.st4{fill:#39291F;}
	.st5{fill:#3D2C21;}
	.st6{fill:#412F23;}
	.st7{fill:#281C15;}
	.st8{fill:#261B14;}
	.st9{fill:#241A12;}
	.st10{fill:#221811;}
	.st11{fill:#201710;}
	.st12{fill:#1E150F;}
	.st13{fill:#72553F;}
	.st14{fill:#6A4F3A;}
	.st15{fill:#624836;}
	.st16{fill:#5A4231;}
	.st17{fill:#513C2C;}
	.st18{fill:#493528;}
	.st19{fill:#1C130E;}
	.st20{fill:#1A120D;}
	.st21{fill:#18100C;}
	.st22{fill:#150F0B;}
	.st23{fill:#130E0A;}
	.st24{fill:#110C09;}
	.st25{fill:#1D150F;}
	.st26{fill:#1C150F;}
	.st27{fill:#1C1410;}
	.st28{fill:#1B1410;}
	.st29{fill:#1A1410;}
	.st30{fill:#191410;}
	.st31{fill:#281C16;}
	.st32{fill:#241914;}
	.st33{fill:#201712;}
	.st34{fill:#19110D;}
</style>
<g>
	<path class="st0" d="M704.4,840.7c0,0-21.3-20.8-22.4-21.2c-1.1-0.4-30.2-16.8-30.2-16.8l-16.5-46.9l-6.5-20.2l-9.5-5.9l-16.7,16.5
		l-13.1,73.1l-8.8,21.4L704.4,840.7L704.4,840.7z"/>
	<path class="st1" d="M591.6,818.7l-8.1,22h114.9c0,0-20.3-20.4-21.2-20.7s-27.8-16.7-27.8-16.7l-14.7-42.7l-6.9-20.1l-9.7-5.5
		l-14.5,16L591.6,818.7z"/>
	<path class="st2" d="M593.7,818l-7.5,22.7h106.2c0,0-19.3-19.9-20.1-20.2c-0.7-0.3-25.5-16.6-25.5-16.6L634,765.5l-7.2-19.9
		l-10-5.1L604.7,756L593.7,818z"/>
	<path class="st3" d="M595.8,817.3l-6.8,23.3h97.5c0,0-18.4-19.5-18.9-19.7s-23.1-16.5-23.1-16.5l-10.9-34.1l-7.6-19.8l-10.2-4.6
		l-10,15.1L595.8,817.3z"/>
	<path class="st4" d="M597.9,816.7l-6.1,24h88.8c0,0-17.4-19-17.8-19.2s-20.7-16.4-20.7-16.4l-9-29.9l-8-19.7l-10.5-4.2l-7.9,14.6
		L597.9,816.7z"/>
	<path class="st5" d="M600,816l-5.4,24.6h80.1c0,0-16.4-18.6-16.6-18.7c-0.2-0.1-18.4-16.3-18.4-16.3l-7.1-25.6l-8.3-19.5l-10.7-3.8
		l-5.7,14.1L600,816z"/>
	<polygon class="st6" points="668.8,840.7 653.3,822.5 637.3,806.3 632.1,785 623.4,765.6 612.4,762.1 608.9,775.7 602.1,815.4 
		597.3,840.7 	"/>
	<polygon class="st5" points="603.4,814.1 599,840.7 667.6,840.7 652.9,823.2 636.6,806.5 631.1,784.8 623,766.7 612.3,763 
		609.4,775.5 	"/>
	<polygon class="st4" points="604.7,812.7 600.7,840.7 666.4,840.7 652.6,823.8 635.8,806.7 630.1,784.6 622.7,767.7 612.2,763.9 
		609.8,775.2 	"/>
	<polygon class="st3" points="606,811.4 602.4,840.7 665.2,840.7 652.2,824.4 635.1,806.8 629.2,784.4 622.3,768.8 612.1,764.7 
		610.3,774.9 	"/>
	<polygon class="st2" points="607.3,810 604.1,840.7 664,840.7 651.8,825.1 634.3,807 628.2,784.2 622,769.8 612,765.6 610.8,774.7 
			"/>
	<polygon class="st1" points="608.6,808.7 605.8,840.7 662.9,840.7 651.4,825.7 633.6,807.2 627.2,784 621.6,770.9 612,766.5 
		611.3,774.4 	"/>
	<polygon class="st0" points="661.7,840.7 651,826.3 632.9,807.3 626.2,783.9 621.3,772 611.9,767.3 611.7,774.1 609.8,807.3 
		607.5,840.7 	"/>
	<polygon class="st0" points="659.5,841.6 650.1,827.3 632.9,809.9 626.2,789 621.9,777.9 613.1,773.4 612.9,780.4 611.4,809.9 
		608.6,841.6 	"/>
	<polygon class="st0" points="657.3,842.6 649.2,828.2 632.9,812.4 626.2,794.1 622.5,783.9 614.2,779.4 614.1,786.7 612.9,812.5 
		609.8,842.6 	"/>
	<polygon class="st0" points="655.2,843.5 648.2,829.2 633,815 626.2,799.2 623.1,789.9 615.4,785.5 615.4,793 614.4,815.1 
		610.9,843.5 	"/>
	<polygon class="st0" points="653,844.5 647.3,830.1 633,817.5 626.2,804.2 623.7,795.8 616.6,791.6 616.6,799.3 615.9,817.6 
		612,844.5 	"/>
	<polygon class="st0" points="650.8,845.5 646.3,831.1 633.1,820 626.2,809.3 624.3,801.8 617.8,797.6 617.8,805.6 617.5,820.2 
		613.1,845.5 	"/>
	<polygon class="st0" points="648.7,846.4 645.4,832 633.1,822.6 626.2,814.4 624.9,807.8 619,803.7 619,811.9 619,822.8 
		614.3,846.4 	"/>
	<polygon class="st7" points="647.9,846.7 644.8,832.6 633,823.8 626.4,816.2 625.2,810 619.5,806.1 619.5,813.9 619.5,824 
		615,846.7 	"/>
	<polygon class="st8" points="647.2,847 644.2,833.2 633,825 626.6,817.9 625.5,812.1 620,808.6 620,815.8 620,825.2 615.7,847 	"/>
	<polygon class="st9" points="646.5,847.4 643.6,833.8 632.9,826.2 626.8,819.7 625.7,814.3 620.5,811 620.5,817.7 620.5,826.4 
		616.5,847.4 	"/>
	<polygon class="st10" points="645.8,847.7 643.1,834.4 632.8,827.4 627,821.4 626,816.5 621,813.5 621,819.6 621,827.6 
		617.2,847.7 	"/>
	<polygon class="st11" points="645,848 642.5,835.1 632.7,828.6 627.2,823.2 626.3,818.7 621.5,815.9 621.5,821.5 621.5,828.8 
		617.9,848 	"/>
	<polygon class="st12" points="644.3,848.3 641.9,835.7 632.7,829.9 627.5,824.9 626.5,820.8 622,818.3 622,823.4 622,830 
		618.6,848.3 	"/>
</g>
<g>
	<polygon class="st13" points="428.6,840.7 475.4,811.2 501.8,780.8 524.8,707 533.9,675.1 547.1,665.9 570.4,691.9 588.6,807.1 
		600.8,840.7 586.5,840.7 470.9,840.7 	"/>
	<polygon class="st14" points="535.2,683 547,675.1 568.2,696.1 572.4,721.6 584,795.1 586,807.8 597,840.7 583.7,840.7 
		476.3,840.7 436.9,840.7 479.5,811.4 504.5,782.7 507.8,773.7 521.7,727.2 526.3,713 	"/>
	<polygon class="st15" points="536.5,690.9 546.9,684.2 566,700.3 570.4,725 581.5,796.3 583.5,808.6 593.3,840.7 580.9,840.7 
		481.6,840.7 445.2,840.7 483.7,811.5 507.2,784.5 510.7,776.2 523.3,732.4 527.8,719 	"/>
	<polygon class="st16" points="537.9,698.8 546.9,693.3 563.8,704.5 568.3,728.3 579,797.4 580.9,809.3 589.5,840.7 578.2,840.7 
		487,840.7 453.6,840.7 487.8,811.7 509.9,786.3 513.6,778.8 524.9,737.5 529.2,725 	"/>
	<polygon class="st17" points="539.2,706.7 546.8,702.5 561.6,708.6 566.2,731.7 576.5,798.5 578.4,810.1 585.7,840.7 575.4,840.7 
		492.3,840.7 461.9,840.7 491.9,811.8 512.5,788.1 516.6,781.4 526.5,742.7 530.7,731 	"/>
	<polygon class="st18" points="540.5,714.5 546.7,711.6 559.4,712.8 564.1,735 574,799.7 575.8,810.8 581.9,840.7 572.6,840.7 
		497.7,840.7 470.2,840.7 496,811.9 515.2,789.9 519.5,784 528.1,747.8 532.2,737.1 	"/>
	<polygon class="st6" points="478.6,840.7 500.1,812.1 522.4,786.6 529.8,752.9 541.9,722.4 557.2,717 562,738.4 571.5,800.8 
		578.1,840.7 	"/>
	<polygon class="st5" points="569.7,798.7 575.8,840.7 480.2,840.7 500.7,813.1 523.5,786.8 531.1,755.9 542.4,727.3 556.7,721.9 
		561.4,741.2 	"/>
	<polygon class="st4" points="567.9,796.6 573.4,840.7 481.9,840.7 501.2,814.1 524.5,787.1 532.5,758.8 542.9,732.2 556.3,726.8 
		560.7,744 	"/>
	<polygon class="st3" points="566.1,794.5 571.1,840.7 483.5,840.7 501.7,815 525.5,787.4 533.9,761.7 543.4,737.1 555.8,731.6 
		560.1,746.8 	"/>
	<polygon class="st2" points="564.3,792.4 568.7,840.7 485.2,840.7 502.2,816 526.6,787.6 535.2,764.6 543.9,741.9 555.4,736.5 
		559.5,749.5 	"/>
	<polygon class="st1" points="562.5,790.3 566.4,840.7 486.8,840.7 502.8,817 527.6,787.9 536.6,767.5 544.4,746.8 555,741.4 
		558.8,752.3 	"/>
	<polygon class="st0" points="488.5,840.7 503.3,818 528.7,788.2 538,770.4 544.9,751.7 554.5,746.3 558.2,755.1 560.7,788.2 
		564,840.7 	"/>
	<polygon class="st0" points="491.5,843.1 504.6,819.5 528.6,792.2 537.5,775.1 544.8,756.8 554.2,751.3 557.2,762.1 559.6,792.3 
		562.4,843.1 	"/>
	<polygon class="st0" points="494.5,845.5 505.9,821 528.5,796.1 537.1,779.8 544.7,761.9 553.9,756.2 556.2,769 558.4,796.5 
		560.8,845.5 	"/>
	<polygon class="st0" points="497.6,847.9 507.3,822.5 528.5,800.1 536.7,784.5 544.6,767.1 553.6,761.2 555.2,775.9 557.2,800.7 
		559.3,847.8 	"/>
	<polygon class="st0" points="500.6,850.3 508.6,824 528.4,804.1 536.3,789.2 544.5,772.2 553.3,766.1 554.2,782.9 556,804.9 
		557.7,850.2 	"/>
	<polygon class="st0" points="503.6,852.6 509.9,825.5 528.4,808.1 535.8,793.9 544.4,777.3 552.9,771.1 553.1,789.8 554.9,809.1 
		556.1,852.6 	"/>
	<polygon class="st0" points="506.6,855 511.2,827 528.3,812.1 535.4,798.7 544.3,782.4 552.6,776 552.1,796.7 553.7,813.3 
		554.5,855 	"/>
	<polygon class="st7" points="507.6,855.7 512,828 528.4,814 535.5,801.5 543.2,786.9 551.1,780.9 550.7,799.5 552,815 553.5,855.7 
			"/>
	<polygon class="st8" points="508.6,856.4 512.8,828.9 528.5,816 535.7,804.4 542,791.4 549.7,785.8 549.3,802.3 550.4,816.8 
		552.5,856.4 	"/>
	<polygon class="st9" points="509.7,857 513.6,829.9 528.6,817.9 535.8,807.2 540.9,795.9 548.2,790.7 547.9,805.1 548.7,818.5 
		551.5,857 	"/>
	<polygon class="st10" points="510.7,857.7 514.4,830.8 528.7,819.8 535.9,810.1 539.8,800.4 546.7,795.6 546.5,807.8 547,820.3 
		550.5,857.7 	"/>
	<polygon class="st11" points="511.7,858.4 515.2,831.8 528.8,821.7 536,812.9 538.6,804.9 545.2,800.6 545.1,810.6 545.4,822.1 
		549.5,858.4 	"/>
	<polygon class="st12" points="512.7,859 516,832.7 528.9,823.6 536.2,815.8 537.5,809.4 543.7,805.5 543.7,813.4 543.7,823.8 
		548.5,859 	"/>
</g>
<g>
	<path class="st12" d="M493.6,878.4l-29.5,7.1l2.8-8.3l26.7-9l-9.8-21c0,0,8-28.1,9.8-29.2s24.5-25.2,24.5-25.2l25.5-18.5v32.1
		l6.6,23.8L538.7,845l4.3,18.2l16.3,19.1l-3.6,10.5l-21.1-21l-10.1,9.7l3.9,49.4l-15.7-9.3l-4.9-41l-1.1-6.3L493.6,878.4z"/>
	<path class="st19" d="M546,830.5l-9.3,13.7l5,17.7l16.9,20.1l-3.3,9.5l-21.8-21.9l-9.8,11.6l4.1,48.3l-14.3-8.4l-4.9-39.8l-1-8.2
		l-14.7,4.7l-28.2,6.8l2.6-7.6l29.8-9.6L486.9,846c0,0,6.8-25.7,8.3-26.6c1.5-0.9,22.4-21.9,22.4-21.9l22.3-15.3l0.7,27.8L546,830.5
		z"/>
	<path class="st20" d="M541.7,830.8l-7.1,12.6l5.6,17.2l17.5,21l-3.1,8.6l-22.5-22.9l-9.5,13.6l4.2,47.3l-13-7.5l-5-38.5l-1-10
		l-16.3,5.3L465,884l2.4-6.8l32.8-10.2l-10.6-22c0,0,5.5-23.4,6.7-24.1c1.2-0.7,20.3-18.6,20.3-18.6l19.2-12.1l1.4,23.6L541.7,830.8
		z"/>
	<path class="st21" d="M537.4,831l-4.8,11.5l6.3,16.7l18.2,22l-2.8,7.7l-23.1-23.8l-9.1,15.6l4.3,46.3l-11.6-6.6l-5-37.3l-0.9-11.9
		l-17.8,5.9l-25.5,6.1l2.1-6.1l35.8-10.8l-10.9-22.4c0,0,4.3-21,5.2-21.6c0.9-0.5,18.1-15.4,18.1-15.4L532,798l2.1,19.3L537.4,831z"
		/>
	<path class="st22" d="M533.2,831.3l-2.6,10.4l7,16.3l18.8,22.9l-2.5,6.7L530,862.8l-8.8,17.5l4.5,45.3l-10.2-5.7l-5-36l-0.8-13.8
		l-19.4,6.6l-24.2,5.7l1.9-5.3l38.8-11.5l-11.2-22.8c0,0,3-18.7,3.6-19.1c0.6-0.4,16-12.1,16-12.1l13-5.7l2.7,15.1L533.2,831.3z"/>
	<path class="st23" d="M528.9,831.6l-0.4,9.3l7.7,15.8l19.4,23.9l-2.2,5.8l-24.5-25.8l-8.5,19.5l4.6,44.3l-8.9-4.8l-5.1-34.8
		l-0.8-15.6l-20.9,7.2l-22.9,5.4l1.7-4.6l41.8-12.1l-11.6-23.3c0,0,1.8-16.3,2.1-16.5s13.9-8.9,13.9-8.9l9.8-2.5l3.4,10.8
		L528.9,831.6z"/>
	<polygon class="st24" points="488.5,875.9 466.9,881 468.4,877.2 513.2,864.4 501.3,840.6 501.8,826.6 513.5,821 520.2,821.8 
		524.3,828.4 524.7,831.8 526.5,840.1 534.8,855.3 554.8,880.2 552.8,885 527.7,858.3 519.5,879.8 524.2,923 516.7,919.1 
		511.6,885.6 510.9,868.1 	"/>
</g>
<g>
	<path class="st12" d="M638.9,861.3l9,2.4l-0.8-2.8l-8.1-3l3-7c0,0-2.4-9.4-3-9.8s-7.5-8.5-7.5-8.5l-7.7-6.2v10.8l-2,8l3.5,5
		l-1.3,6.1l-4.9,6.4l1.1,3.5l6.4-7l3.4,13.3l-1.2,16.6l4.8-3.1l1.5-13.8V860L638.9,861.3z"/>
	<path class="st25" d="M623,845.3l2.8,4.6l-1.5,6l-5.1,6.8l1,3.2l6.6-7.4l3.3,13.1l-1.2,14.7l4.3-2.8l1.3-12.1v-11.7l4.5,1.6
		l8.6,2.3l-0.8-2.5l-9-3.2l3.1-7.2c0,0-2.1-8.6-2.5-9c-0.5-0.3-6.8-7.4-6.8-7.4l-6.8-5.1l-0.2,9.4L623,845.3z"/>
	<path class="st26" d="M624.3,845.3l2.2,4.2l-1.7,5.8l-5.3,7.1l0.9,2.9l6.8-7.7l3.2,13l-1.1,12.9l3.9-2.6l1.2-10.5l0.1-11.2l4.9,1.8
		l8.2,2.2l-0.7-2.3l-9.9-3.4l3.2-7.4c0,0-1.7-7.9-2-8.1c-0.4-0.2-6.2-6.3-6.2-6.3l-5.8-4.1l-0.4,7.9L624.3,845.3z"/>
	<path class="st27" d="M625.6,845.4l1.5,3.9l-1.9,5.6l-5.5,7.4l0.8,2.6l7-8l3.1,12.8l-1.1,11l3.5-2.3l1.1-8.8l0.1-10.7l5.4,2l7.8,2
		l-0.7-2l-10.9-3.7l3.3-7.5c0,0-1.3-7.1-1.6-7.3s-5.5-5.2-5.5-5.2l-4.9-3l-0.6,6.5L625.6,845.4z"/>
	<path class="st28" d="M626.9,845.5l0.8,3.5l-2.1,5.5l-5.7,7.7l0.8,2.3l7.2-8.3l3,12.7l-1.1,9.2l3.1-2l1-7.2l0.2-10.2l5.9,2.2
		l7.3,1.9l-0.6-1.8l-11.8-3.9l3.4-7.7c0,0-0.9-6.3-1.1-6.4s-4.9-4.1-4.9-4.1l-3.9-1.9l-0.8,5.1L626.9,845.5z"/>
	<path class="st29" d="M628.2,845.6l0.1,3.1L626,854l-5.9,8l0.7,1.9l7.4-8.7l3,12.5l-1.1,7.4l2.7-1.8l0.8-5.5l0.2-9.7l6.3,2.4l7,1.8
		l-0.5-1.5l-12.7-4.1l3.5-7.8c0,0-0.5-5.5-0.6-5.6s-4.2-3-4.2-3l-3-0.8l-1,3.7L628.2,845.6z"/>
	<polygon class="st30" points="640.5,860.5 647,862.2 646.5,860.9 632.9,856.6 636.6,848.6 636.4,843.9 632.8,842 630.8,842.3 
		629.6,844.5 629.5,845.7 628.9,848.5 626.4,853.6 620.3,861.9 620.9,863.6 628.5,854.6 631.4,867 630.4,872.5 632.7,871 
		633.4,867.1 633.6,857.9 	"/>
</g>
<g>
	<path class="st12" d="M652.9,876.3l19.9,4.8l-1.9-5.6l-18-6l6.6-14.1c0,0-5.4-18.9-6.6-19.7c-1.2-0.7-16.5-17-16.5-17l-17.2-12.5
		v21.6l-4.5,16l7.8,10l-2.9,12.3l-11,12.9l2.4,7.1l14.2-14.1l6.8,6.5l-2.6,33.3l10.6-6.2l3.3-27.7l0.7-4.2L652.9,876.3z"/>
	<path class="st19" d="M617.6,844.1l6.3,9.2l-3.3,11.9l-11.4,13.5l2.3,6.4l14.7-14.8l6.6,7.8l-2.6,28.8l9.4-5.1l3.4-23.5l0.7-5.5
		l9.9,3.1l19,4.5l-1.7-5.1l-20.1-6.5l6.9-14.5c0,0-4.6-17.3-5.6-18S637,821.5,637,821.5l-15.1-10.3l-0.5,18.8L617.6,844.1z"/>
	<path class="st20" d="M620.5,844.3l4.8,8.5l-3.8,11.6l-11.8,14.2l2.1,5.8l15.1-15.4l6.4,9.2l-2.5,24.3l8.3-4l3.5-19.4l0.6-6.8
		l11,3.6l18.1,4.3l-1.6-4.6l-22.1-6.9l7.1-14.8c0,0-3.7-15.8-4.5-16.3S637.5,825,637.5,825l-13-8.2l-0.9,15.9L620.5,844.3z"/>
	<path class="st21" d="M623.4,844.4l3.3,7.8l-4.3,11.3l-12.2,14.8l1.9,5.2l15.6-16.1l6.2,10.5l-2.5,19.8l7.2-2.9l3.5-15.2l0.6-8
		l12,4l17.2,4.1l-1.4-4.1l-24.1-7.3l7.3-15.1c0,0-2.9-14.2-3.5-14.5S638,828.2,638,828.2l-10.8-6l-1.4,13L623.4,844.4z"/>
	<path class="st22" d="M626.3,844.6l1.8,7l-4.7,11l-12.7,15.5l1.7,4.5l16.1-16.7l6,11.8l-2.4,15.4l6.1-1.8l3.6-11.1l0.6-9.3l13,4.4
		l16.3,3.9l-1.3-3.6l-26.2-7.8l7.6-15.4c0,0-2-12.6-2.4-12.8s-10.8-8.2-10.8-8.2l-8.7-3.8l-1.8,10.2L626.3,844.6z"/>
	<path class="st23" d="M629.1,844.8l0.3,6.3l-5.2,10.6l-13.1,16.1l1.5,3.9l16.5-17.4l5.7,13.1l-2.4,10.9l5-0.7l3.7-7l0.5-10.5
		l14.1,4.9l15.4,3.6l-1.2-3.1l-28.2-8.2l7.8-15.7c0,0-1.2-11-1.4-11.1s-9.4-6-9.4-6l-6.6-1.7l-2.3,7.3L629.1,844.8z"/>
	<polygon class="st24" points="656.4,874.7 671,878.1 669.9,875.5 639.7,866.9 647.8,850.9 647.4,841.5 639.5,837.7 635,838.2 
		632.2,842.6 632,845 630.8,850.5 625.2,860.8 611.7,877.5 613,880.8 630,862.8 635.5,877.3 633.2,883.7 637,884 640.8,881.2 
		641.3,869.4 	"/>
</g>
<g>
	<polygon class="st31" points="541.7,846.8 555.9,859.3 596.9,872.7 608.4,891.7 612.3,922.8 598,891.9 587.4,877.5 545.5,865.2 
		535.7,850.7 525.4,855.4 523.5,872.7 507,895.1 500.9,938.7 474.9,955.1 493.9,935.8 491.9,913.5 469.6,927 482,905.7 496.3,902.3 
		496.3,889.8 513.7,869.5 510.8,858.8 487.4,862 469.6,868.2 451.5,869.2 439.3,888.5 442,872.7 426.3,875.2 419.1,889.4 419.1,869 
		438.7,868.4 454.2,862.2 469.3,862.9 484.6,855.4 528.9,843.6 	"/>
	<polygon class="st32" points="541.7,846.8 555.9,859.3 596.9,872.7 608.4,891.7 612.3,922.8 598.3,891.4 586.8,876.8 546,864.8 
		535.4,850.2 525,854.9 522.8,872.5 506.5,894.2 500.5,938.2 474.9,955.1 493.9,935.8 491.8,912.8 469.6,927 482,905.7 496.3,902.3 
		496.3,889.8 513.7,869.5 510.8,858.3 487.4,861.5 469.6,867.7 451.5,868.8 439.8,887.2 442,872.2 426.3,874.7 419.5,887.9 
		419.1,869 438.7,868.4 454.2,862.2 469.3,862.9 484.6,855.4 528.9,843.6 	"/>
	<polygon class="st33" points="541.7,846.8 555.9,859.3 596.9,872.7 608.4,891.7 612.3,922.8 598.7,890.9 586.3,876 546.5,864.3 
		535,849.7 524.7,854.3 522.2,872.3 506.1,893.3 500,937.7 474.9,955.1 493.9,935.8 491.7,912.1 469.6,927 482,905.7 496.3,902.3 
		496.3,889.8 513.7,869.5 510.8,857.7 487.4,860.9 469.6,867.3 451.5,868.4 440.3,886 442,871.7 426.3,874.2 419.9,886.3 419.1,869 
		438.7,868.4 454.2,862.2 469.3,862.9 484.6,855.4 528.9,843.6 	"/>
	<polygon class="st27" points="541.7,846.8 555.9,859.3 596.9,872.7 608.4,891.7 612.3,922.8 599,890.5 585.8,875.3 547,863.9 
		534.7,849.1 524.3,853.8 521.6,872 505.6,892.4 499.6,937.2 474.9,955.1 493.9,935.8 491.7,911.3 469.6,927 482,905.7 496.3,902.3 
		496.3,889.8 513.7,869.5 510.8,857.1 487.4,860.3 469.6,866.9 451.5,868 440.8,884.7 442,871.3 426.3,873.7 420.3,884.7 419.1,869 
		438.7,868.4 454.2,862.2 469.3,862.9 484.6,855.4 528.9,843.6 	"/>
	<polygon class="st34" points="541.7,846.8 555.9,859.3 596.9,872.7 608.4,891.7 612.3,922.8 599.4,890 585.2,874.6 547.5,863.5 
		534.3,848.6 523.9,853.3 521,871.8 505.2,891.5 499.2,936.7 474.9,955.1 493.9,935.8 491.6,910.6 469.6,927 482,905.7 496.3,902.3 
		496.3,889.8 513.7,869.5 510.8,856.5 487.4,859.7 469.6,866.5 451.5,867.5 441.4,883.4 442,870.8 426.3,873.3 420.7,883.1 
		419.1,869 438.7,868.4 454.2,862.2 469.3,862.9 484.6,855.4 528.9,843.6 	"/>
	<polygon class="st22" points="541.7,846.8 555.9,859.3 596.9,872.7 608.4,891.7 612.3,922.8 599.7,889.5 584.7,873.8 548,863 
		534,848 523.6,852.7 520.4,871.6 504.7,890.7 498.8,936.1 474.9,955.1 493.9,935.8 491.5,909.9 469.6,927 482,905.7 496.3,902.3 
		496.3,889.8 513.7,869.5 510.8,856 487.4,859.2 469.6,866 451.5,867.1 441.9,882.2 442,870.3 426.3,872.8 421.1,881.5 419.1,869 
		438.7,868.4 454.2,862.2 469.3,862.9 484.6,855.4 528.9,843.6 	"/>
	<polygon class="st24" points="541.7,846.8 555.9,859.3 596.9,872.7 608.4,891.7 612.3,922.8 600.1,889 584.2,873.1 548.5,862.6 
		533.6,847.5 523.2,852.2 519.8,871.4 504.3,889.8 498.4,935.6 474.9,955.1 493.9,935.8 491.5,909.1 469.6,927 482,905.7 
		496.3,902.3 496.3,889.8 513.7,869.5 510.8,855.4 487.4,858.6 469.6,865.6 451.5,866.7 442.4,880.9 442,869.8 426.3,872.3 
		421.5,880 419.1,869 438.7,868.4 454.2,862.2 469.3,862.9 484.6,855.4 528.9,843.6 	"/>
</g>
<g>
	<polygon class="st31" points="633.1,846.4 600.9,860 584.8,867.2 575.4,874 581.4,875.7 594.5,868.7 625.3,855 629,867.2 
		620.3,887.4 605.9,901.1 600.9,930 611.7,906 617,917 615.8,901.5 621.8,893 634.7,868.5 652.1,885.5 657.2,900.7 668.9,907.5 
		661.7,899.8 657.8,882.9 640.7,864.9 657.3,860.1 678.6,865.3 654.5,854 638.3,859.7 	"/>
	<polygon class="st32" points="633.1,846.4 600.9,860 584.8,867.2 575.9,873.5 581.8,875.3 594.1,868.3 625.4,854.7 629.6,867 
		620.3,887.4 605.9,901.1 600.9,930 611.4,905.5 617,917 615.7,900.8 621.6,892.5 634.8,868.3 652.3,885.3 657.5,900.5 668.9,907.5 
		661.7,899.8 657.8,882.9 640.4,864.6 657.1,859.7 678.6,865.3 654.5,854 638.3,859.7 	"/>
	<polygon class="st33" points="633.1,846.4 600.9,860 584.8,867.2 576.4,873.1 582.1,874.8 593.7,868 625.5,854.3 630.2,866.8 
		620.3,887.4 605.9,901.1 600.9,930 611.2,905 617,917 615.7,900.1 621.5,892.1 634.9,868.1 652.6,885.1 657.7,900.3 668.9,907.5 
		661.7,899.8 657.8,882.9 640.1,864.3 656.8,859.3 678.6,865.3 654.5,854 638.3,859.7 	"/>
	<polygon class="st27" points="633.1,846.4 600.9,860 584.8,867.2 576.9,872.7 582.5,874.3 593.3,867.6 625.5,854 630.9,866.5 
		620.3,887.4 605.9,901.1 600.9,930 610.9,904.5 617,917 615.6,899.4 621.4,891.7 635,867.9 652.8,884.9 658,900.1 668.9,907.5 
		661.7,899.8 657.8,882.9 639.8,863.9 656.6,858.9 678.6,865.3 654.5,854 638.3,859.7 	"/>
	<polygon class="st34" points="633.1,846.4 600.9,860 584.8,867.2 577.3,872.3 582.8,873.9 593,867.2 625.6,853.6 631.5,866.3 
		620.3,887.4 605.9,901.1 600.9,930 610.7,904 617,917 615.5,898.6 621.3,891.3 635.2,867.7 653.1,884.7 658.3,899.9 668.9,907.5 
		661.7,899.8 657.8,882.9 639.5,863.6 656.3,858.5 678.6,865.3 654.5,854 638.3,859.7 	"/>
	<polygon class="st22" points="633.1,846.4 600.9,860 584.8,867.2 577.8,871.8 583.1,873.4 592.6,866.8 625.6,853.3 632.2,866.1 
		620.3,887.4 605.9,901.1 600.9,930 610.4,903.4 617,917 615.5,897.9 621.1,890.9 635.3,867.5 653.4,884.6 658.6,899.7 668.9,907.5 
		661.7,899.8 657.8,882.9 639.2,863.3 656.1,858.1 678.6,865.3 654.5,854 638.3,859.7 	"/>
	<polygon class="st24" points="633.1,846.4 600.9,860 584.8,867.2 578.3,871.4 583.5,872.9 592.2,866.4 625.7,852.9 632.8,865.8 
		620.3,887.4 605.9,901.1 600.9,930 610.2,902.9 617,917 615.4,897.2 621,890.4 635.5,867.2 653.6,884.4 658.9,899.5 668.9,907.5 
		661.7,899.8 657.8,882.9 638.9,863 655.8,857.7 678.6,865.3 654.5,854 638.3,859.7 	"/>
</g>
</svg>
