<?xml version="1.0" encoding="utf-8"?>
<!-- Generator: Adobe Illustrator 23.0.0, SVG Export Plug-In . SVG Version: 6.00 Build 0)  -->
<svg version="1.1" id="Isolation_Mode" xmlns="http://www.w3.org/2000/svg" xmlns:xlink="http://www.w3.org/1999/xlink" x="0px"
	 y="0px" viewBox="0 0 1263.3 1224.4" style="enable-background:new 0 0 1263.3 1224.4;" xml:space="preserve">
<style type="text/css">
	.st0{fill:#1E150F;}
	.st1{fill:#241912;}
	.st2{fill:#2A1E16;}
	.st3{fill:#302219;}
	.st4{fill:#35261C;}
	.st5{fill:#3B2B20;}
	.st6{fill:#412F23;}
	.st7{fill:#3D2C21;}
	.st8{fill:#39291F;}
	.st9{fill:#35271D;}
	.st10{fill:#32241A;}
	.st11{fill:#2E2118;}
	.st12{fill:#281C15;}
	.st13{fill:#261B14;}
	.st14{fill:#241A12;}
	.st15{fill:#221811;}
	.st16{fill:#201710;}
	.st17{fill:#72553F;}
	.st18{fill:#6A4F3A;}
	.st19{fill:#624836;}
	.st20{fill:#5A4231;}
	.st21{fill:#513C2C;}
	.st22{fill:#493528;}
	.st23{fill:#1C130E;}
	.st24{fill:#1A120D;}
	.st25{fill:#18100C;}
	.st26{fill:#150F0B;}
	.st27{fill:#130E0A;}
	.st28{fill:#110C09;}
	.st29{fill:#1D150F;}
	.st30{fill:#1C150F;}
	.st31{fill:#1C1410;}
	.st32{fill:#1B1410;}
	.st33{fill:#1A1410;}
	.st34{fill:#191410;}
	.st35{fill:#281C16;}
	.st36{fill:#241914;}
	.st37{fill:#201712;}
	.st38{fill:#19110D;}
</style>
<g>
	<path class="st0" d="M664.7,1064.2c0,0-21.3-29.1-22.4-29.7c-1.1-0.6-30.2-23.5-30.2-23.5l-16.5-65.7l-6.5-28.3l-9.5-8.2L563,932
		l-13.1,102.4l-8.8,29.9h123.6V1064.2z"/>
	<path class="st1" d="M552,1033.4l-8.1,30.8h114.9c0,0-20.3-28.5-21.2-29s-27.8-23.4-27.8-23.4l-14.7-59.7l-6.9-28.1l-9.7-7.6
		L564,938.9L552,1033.4z"/>
	<path class="st2" d="M554.1,1032.5l-7.5,31.7h106.2c0,0-19.3-27.9-20.1-28.3c-0.7-0.4-25.5-23.2-25.5-23.2L594.6,959l-7.2-27.9
		l-10-7.1l-12.3,21.8L554.1,1032.5z"/>
	<path class="st3" d="M556.2,1031.6l-6.8,32.6h97.5c0,0-18.4-27.3-18.9-27.6s-23.1-23.1-23.1-23.1L594,965.8l-7.6-27.7l-10.2-6.5
		l-10.1,21.1L556.2,1031.6z"/>
	<path class="st4" d="M558.3,1030.7l-6.1,33.6H641c0,0-17.4-26.6-17.8-26.8c-0.4-0.2-20.7-23-20.7-23l-9-41.8l-8-27.5l-10.5-5.9
		l-7.9,20.4L558.3,1030.7z"/>
	<path class="st5" d="M560.4,1029.8l-5.4,34.5h80.1c0,0-16.4-26-16.6-26.1s-18.4-22.8-18.4-22.8l-7.1-35.9l-8.3-27.3l-10.7-5.4
		l-5.7,19.7L560.4,1029.8z"/>
	<polygon class="st6" points="629.2,1064.2 613.7,1038.9 597.7,1016.2 592.4,986.3 583.7,959.1 572.7,954.3 569.3,973.3 
		562.5,1028.9 557.7,1064.2 	"/>
	<polygon class="st7" points="563.8,1027 559.4,1064.2 628,1064.2 613.3,1039.7 596.9,1016.4 591.5,986 583.4,960.6 572.7,955.5 
		569.7,973 	"/>
	<polygon class="st8" points="565.1,1025.1 561.1,1064.2 626.8,1064.2 612.9,1040.6 596.2,1016.6 590.5,985.8 583,962.1 
		572.6,956.7 570.2,972.6 	"/>
	<polygon class="st9" points="566.3,1023.2 562.8,1064.2 625.6,1064.2 612.5,1041.5 595.4,1016.9 589.5,985.5 582.7,963.6 
		572.5,957.9 570.7,972.2 	"/>
	<polygon class="st10" points="567.6,1021.3 564.5,1064.2 624.4,1064.2 612.2,1042.4 594.7,1017.1 588.5,985.2 582.3,965.1 
		572.4,959.1 571.1,971.8 	"/>
	<polygon class="st11" points="568.9,1019.5 566.2,1064.2 623.2,1064.2 611.8,1043.3 594,1017.3 587.6,985 582,966.6 572.3,960.3 
		571.6,971.5 	"/>
	<polygon class="st2" points="622,1064.2 611.4,1044.1 593.2,1017.6 586.6,984.7 581.6,968.1 572.2,961.6 572.1,971.1 570.2,1017.6 
		567.8,1064.2 	"/>
	<polygon class="st2" points="619.9,1065.6 610.5,1045.5 593.3,1021.1 586.6,991.8 582.2,976.4 573.4,970 573.3,979.9 571.7,1021.2 
		569,1065.6 	"/>
	<polygon class="st2" points="617.7,1066.9 609.5,1046.8 593.3,1024.7 586.6,999 582.9,984.8 574.6,978.5 574.5,988.8 573.2,1024.8 
		570.1,1066.9 	"/>
	<polygon class="st2" points="615.5,1068.3 608.6,1048.1 593.3,1028.2 586.6,1006.1 583.5,993.1 575.8,987 575.7,997.6 
		574.8,1028.4 571.2,1068.3 	"/>
	<polygon class="st2" points="613.4,1069.6 607.6,1049.5 593.4,1031.8 586.6,1013.3 584.1,1001.5 577,995.5 576.9,1006.4 
		576.3,1032 572.4,1069.6 	"/>
	<polygon class="st2" points="611.2,1070.9 606.7,1050.8 593.4,1035.3 586.5,1020.4 584.7,1009.8 578.2,1004 578.1,1015.2 
		577.8,1035.6 573.5,1070.9 	"/>
	<polygon class="st2" points="609,1072.3 605.7,1052.2 593.5,1038.9 586.5,1027.5 585.3,1018.2 579.3,1012.5 579.3,1024 
		579.3,1039.2 574.6,1072.3 	"/>
	<polygon class="st12" points="608.3,1072.7 605.2,1053 593.4,1040.6 586.7,1030 585.6,1021.2 579.9,1015.9 579.9,1026.7 
		579.9,1040.9 575.4,1072.7 	"/>
	<polygon class="st13" points="607.6,1073.2 604.6,1053.8 593.3,1042.3 587,1032.4 585.8,1024.3 580.4,1019.3 580.4,1029.4 
		580.4,1042.6 576.1,1073.2 	"/>
	<polygon class="st14" points="606.8,1073.6 604,1054.7 593.2,1044 587.2,1034.8 586.1,1027.3 580.9,1022.7 580.9,1032 
		580.9,1044.2 576.8,1073.6 	"/>
	<polygon class="st15" points="606.1,1074 603.4,1055.5 593.2,1045.7 587.4,1037.3 586.4,1030.4 581.4,1026.1 581.4,1034.7 
		581.4,1045.9 577.5,1074 	"/>
	<polygon class="st16" points="605.4,1074.5 602.9,1056.4 593.1,1047.4 587.6,1039.7 586.6,1033.4 581.9,1029.6 581.9,1037.4 
		581.9,1047.6 578.3,1074.5 	"/>
	<polygon class="st0" points="604.7,1074.9 602.3,1057.2 593,1049.1 587.8,1042.2 586.9,1036.5 582.4,1033 582.4,1040 582.4,1049.3 
		579,1074.9 	"/>
</g>
<g>
	<polygon class="st17" points="388.9,1064.2 435.8,1023 462.1,980.5 485.2,877.1 494.2,832.5 507.4,819.6 530.7,856 548.9,1017.2 
		561.2,1064.2 546.8,1064.2 431.3,1064.2 	"/>
	<polygon class="st18" points="495.6,843.5 507.3,832.4 528.5,861.9 532.8,897.3 544.3,999.8 546.4,1018.4 557.4,1064.2 
		544.1,1064.2 436.6,1064.2 397.3,1064.2 439.7,1023.7 441.8,1020.2 464.6,983.4 468.5,968.7 482.4,903.9 486.6,885.6 	"/>
	<polygon class="st19" points="496.9,854.6 507.2,845.2 526.3,867.7 530.7,902 541.8,1001.6 543.9,1019.5 553.6,1064.2 
		541.3,1064.2 442,1064.2 405.6,1064.2 443.6,1024.3 445.5,1021 467.1,986.3 471.4,972.7 483.9,911.4 488,894.2 	"/>
	<polygon class="st20" points="498.2,865.6 507.1,858 524.1,873.6 528.6,906.8 539.3,1003.3 541.3,1020.7 549.8,1064.2 
		538.5,1064.2 447.3,1064.2 413.9,1064.2 447.4,1024.9 449.3,1021.8 469.6,989.1 474.2,976.6 485.5,918.9 489.5,902.8 	"/>
	<polygon class="st21" points="499.5,876.6 507,870.8 521.9,879.4 526.5,911.5 536.8,1005 538.8,1021.9 546.1,1064.2 535.8,1064.2 
		452.7,1064.2 422.3,1064.2 451.3,1025.6 453,1022.6 472,992 477.1,980.6 487,926.4 490.9,911.3 	"/>
	<polygon class="st22" points="500.9,887.7 506.9,883.6 519.7,885.3 524.5,916.3 534.3,1006.7 536.2,1023.1 542.3,1064.2 
		533,1064.2 458.1,1064.2 430.6,1064.2 455.2,1026.2 456.8,1023.4 474.5,994.9 479.9,984.5 488.6,933.9 492.3,919.9 	"/>
	<polygon class="st6" points="438.9,1064.2 460.5,1024.2 482.8,988.5 490.1,941.4 502.2,898.7 517.5,891.1 522.4,921.1 
		531.8,1008.5 538.5,1064.2 	"/>
	<polygon class="st7" points="530,1005.5 536.1,1064.2 440.6,1064.3 461,1025.6 483.8,988.9 491.5,945.5 502.7,905.5 517.1,897.9 
		521.7,925 	"/>
	<polygon class="st8" points="528.2,1002.6 533.8,1064.2 442.2,1064.3 461.6,1027 484.9,989.2 492.9,949.6 503.2,912.4 516.7,904.8 
		521.1,928.9 	"/>
	<polygon class="st9" points="526.5,999.6 531.4,1064.2 443.9,1064.3 462.1,1028.4 485.9,989.6 494.2,953.7 503.7,919.2 
		516.2,911.6 520.5,932.8 	"/>
	<polygon class="st10" points="524.7,996.6 529.1,1064.2 445.5,1064.3 462.6,1029.8 486.9,990 495.6,957.7 504.2,926 515.8,918.5 
		519.8,936.7 	"/>
	<polygon class="st11" points="522.9,993.7 526.7,1064.2 447.2,1064.3 463.1,1031.1 488,990.4 497,961.8 504.7,932.8 515.3,925.3 
		519.2,940.6 	"/>
	<polygon class="st2" points="448.9,1064.3 463.7,1032.5 489,990.7 498.3,965.9 505.3,939.7 514.9,932.1 518.6,944.5 521.1,990.7 
		524.4,1064.2 	"/>
	<polygon class="st2" points="451.9,1067.7 465,1034.6 489,996.3 497.9,972.5 505.2,946.8 514.6,939.1 517.5,954.2 519.9,996.6 
		522.8,1067.6 	"/>
	<polygon class="st2" points="454.9,1071 466.3,1036.7 488.9,1001.9 497.5,979.1 505.1,954 514.3,946 516.5,963.9 518.7,1002.4 
		521.2,1070.9 	"/>
	<polygon class="st2" points="457.9,1074.3 467.6,1038.8 488.8,1007.5 497.1,985.7 505,961.2 513.9,952.9 515.5,973.6 517.6,1008.3 
		519.6,1074.3 	"/>
	<polygon class="st2" points="460.9,1077.7 468.9,1040.9 488.8,1013.1 496.6,992.2 504.9,968.4 513.6,959.9 514.5,983.3 
		516.4,1014.2 518,1077.6 	"/>
	<polygon class="st2" points="464,1081 470.3,1043 488.7,1018.7 496.2,998.8 504.8,975.5 513.3,966.8 513.5,993 515.2,1020 
		516.5,1081 	"/>
	<polygon class="st2" points="467,1084.3 471.6,1045.1 488.7,1024.3 495.8,1005.4 504.7,982.7 513,973.7 512.5,1002.7 514.1,1025.9 
		514.9,1084.3 	"/>
	<polygon class="st12" points="468,1085.3 472.4,1046.5 488.8,1027 495.9,1009.4 503.5,989 511.5,980.6 511.1,1006.6 512.4,1028.3 
		513.9,1085.3 	"/>
	<polygon class="st13" points="469,1086.2 473.2,1047.8 488.9,1029.6 496,1013.4 502.4,995.3 510,987.5 509.7,1010.5 510.7,1030.8 
		512.9,1086.2 	"/>
	<polygon class="st14" points="470,1087.1 474,1049.1 489,1032.3 496.2,1017.4 501.3,1001.6 508.5,994.3 508.3,1014.4 509.1,1033.3 
		511.9,1087.1 	"/>
	<polygon class="st15" points="471,1088.1 474.8,1050.5 489.1,1035 496.3,1021.4 500.1,1007.9 507,1001.2 506.9,1018.3 
		507.4,1035.7 510.9,1088.1 	"/>
	<polygon class="st16" points="472,1089 475.6,1051.8 489.2,1037.7 496.4,1025.4 499,1014.2 505.6,1008.1 505.5,1022.2 
		505.7,1038.2 509.8,1089 	"/>
	<polygon class="st0" points="473.1,1089.9 476.4,1053.1 489.3,1040.4 496.5,1029.4 497.8,1020.4 504.1,1014.9 504.1,1026.1 
		504.1,1040.6 508.8,1089.9 	"/>
</g>
<g>
	<path class="st0" d="M461.2,1117.1l-29.5,9.9l2.8-11.7l26.7-12.5l-9.8-29.4c0,0,8-39.3,9.8-40.8s24.5-35.2,24.5-35.2l25.5-25.9
		v44.9l6.6,33.3l-11.5,20.7l4.3,25.5l16.3,26.8l-3.6,14.7l-21.1-29.4l-10.1,13.5l3.9,69.1l-15.7-13l-4.9-57.4l-1.1-8.8L461.2,1117.1
		z"/>
	<path class="st23" d="M513.5,1050.1l-9.3,19.2l5,24.8l16.9,28.1l-3.3,13.4l-21.8-30.7l-9.8,16.3l4.1,67.7l-14.3-11.7l-4.9-55.7
		l-1-11.4l-14.7,6.5l-28.2,9.5l2.6-10.6l29.8-13.4l-10.2-30c0,0,6.8-36,8.3-37.3s22.4-30.6,22.4-30.6l22.3-21.4l0.7,39L513.5,1050.1
		z"/>
	<path class="st24" d="M509.3,1050.4l-7.1,17.7l5.6,24.1l17.5,29.4l-3.1,12.1l-22.5-32l-9.5,19l4.2,66.3l-13-10.5l-5-53.9l-1-14
		l-16.3,7.4l-26.9,9l2.4-9.6l32.8-14.3l-10.5-30.7c0,0,5.5-32.7,6.7-33.7s20.3-26.1,20.3-26.1l19.2-16.9l1.4,33L509.3,1050.4z"/>
	<path class="st25" d="M505,1050.8l-4.9,16.1l6.3,23.4l18.1,30.8l-2.8,10.7l-23.1-33.4l-9.1,21.8l4.3,64.8l-11.6-9.2l-5-52.2
		l-0.9-16.6l-17.8,8.3l-25.5,8.5l2.1-8.5l35.8-15.2l-10.9-31.3c0,0,4.3-29.4,5.2-30.2c0.9-0.8,18.1-21.5,18.1-21.5l16.1-12.4
		l2.1,27.1L505,1050.8z"/>
	<path class="st26" d="M500.7,1051.2l-2.6,14.6l7,22.7l18.8,32.1l-2.5,9.4l-23.8-34.7l-8.8,24.5l4.5,63.4l-10.2-8l-5-50.4l-0.8-19.3
		l-19.4,9.2l-24.2,8l1.9-7.5l38.8-16.1l-11.2-32c0,0,3-26.2,3.6-26.7s16-17,16-17l13-7.9l2.7,21.1L500.7,1051.2z"/>
	<path class="st27" d="M496.5,1051.5l-0.4,13.1l7.7,22.1l19.4,33.4l-2.2,8.1l-24.5-36.1l-8.5,27.3l4.6,62l-8.9-6.7l-5.1-48.7
		l-0.8-21.9l-20.9,10.1l-22.9,7.6l1.7-6.4l41.8-17l-11.6-32.6c0,0,1.8-22.9,2.1-23.1s13.9-12.4,13.9-12.4l9.9-3.4l3.4,15.2
		L496.5,1051.5z"/>
	<polygon class="st28" points="456,1113.7 434.4,1120.7 435.9,1115.4 480.7,1097.5 468.8,1064.2 469.3,1044.6 481,1036.8 
		487.8,1037.8 491.9,1047.1 492.2,1051.9 494,1063.4 502.3,1084.8 522.4,1119.6 520.4,1126.4 495.2,1089 487,1119 491.8,1179.6 
		484.3,1174.1 479.1,1127.2 478.4,1102.7 	"/>
</g>
<g>
	<path class="st0" d="M599.6,1093.2l9,3.3l-0.8-3.9l-8.1-4.2l3-9.9c0,0-2.4-13.2-3-13.7s-7.5-11.8-7.5-11.8l-7.7-8.7v15.1l-2,11.2
		l3.5,7l-1.3,8.6l-4.9,9l1.1,4.9l6.4-9.9l3.4,18.6l-1.2,23.2l4.8-4.3l1.5-19.3v-17L599.6,1093.2z"/>
	<path class="st29" d="M583.7,1070.7l2.8,6.4l-1.5,8.3l-5.1,9.4l1,4.5l6.6-10.3l3.3,18.4l-1.2,20.6l4.3-4l1.3-17v-16.3l4.5,2.2
		l8.6,3.2l-0.8-3.6l-9-4.5l3.1-10.1c0,0-2.1-12.1-2.5-12.5c-0.5-0.4-6.8-10.3-6.8-10.3l-6.8-7.2l-0.2,13.1L583.7,1070.7z"/>
	<path class="st30" d="M585,1070.8l2.2,5.9l-1.7,8.1l-5.3,9.9l0.9,4.1l6.8-10.8l3.2,18.2l-1.1,18.1l3.9-3.6l1.2-14.7l0.1-15.6
		l4.9,2.5l8.2,3l-0.7-3.2l-9.9-4.8l3.2-10.3c0,0-1.7-11-2-11.3c-0.4-0.3-6.2-8.8-6.2-8.8l-5.8-5.7l-0.4,11.1L585,1070.8z"/>
	<path class="st31" d="M586.3,1070.9l1.5,5.4l-1.9,7.9l-5.5,10.3l0.8,3.6l7-11.2l3.1,18l-1.1,15.5l3.5-3.2l1.1-12.4l0.1-15l5.4,2.8
		l7.8,2.9l-0.7-2.9l-10.9-5.1l3.3-10.5c0,0-1.3-9.9-1.6-10.2c-0.3-0.3-5.5-7.2-5.5-7.2l-4.9-4.2l-0.6,9.1L586.3,1070.9z"/>
	<path class="st32" d="M587.6,1071.1l0.8,4.9l-2.1,7.6l-5.7,10.8l0.8,3.2l7.2-11.7l3,17.8l-1.1,12.9l3.1-2.8l1-10.1l0.2-14.3
		l5.9,3.1l7.3,2.7l-0.6-2.5l-11.8-5.4l3.4-10.8c0,0-0.9-8.8-1.1-9c-0.2-0.2-4.9-5.7-4.9-5.7l-3.9-2.7l-0.8,7.1L587.6,1071.1z"/>
	<path class="st33" d="M588.9,1071.2l0.1,4.4l-2.3,7.4l-5.9,11.2l0.7,2.7l7.4-12.1l3,17.6l-1.1,10.3l2.7-2.5l0.8-7.7l0.2-13.6
		l6.3,3.4l7,2.5l-0.5-2.2l-12.7-5.7l3.5-11c0,0-0.5-7.7-0.6-7.8c-0.1-0.1-4.2-4.2-4.2-4.2l-3-1.2l-1,5.1L588.9,1071.2z"/>
	<polygon class="st34" points="601.2,1092.1 607.7,1094.4 607.3,1092.6 593.7,1086.6 597.3,1075.4 597.1,1068.8 593.6,1066.2 
		591.5,1066.6 590.3,1069.7 590.2,1071.3 589.6,1075.2 587.1,1082.3 581,1094 581.6,1096.3 589.3,1083.8 592.2,1101.1 591.1,1108.8 
		593.4,1106.7 594.1,1101.3 594.3,1088.3 	"/>
</g>
<g>
	<path class="st0" d="M613.6,1114.2l19.9,6.7l-1.9-7.9l-18-8.4l6.6-19.8c0,0-5.4-26.5-6.6-27.5c-1.2-1-16.5-23.7-16.5-23.7
		l-17.2-17.5v30.3l-4.5,22.4l7.8,14l-2.9,17.2l-11,18l2.4,9.9l14.2-19.8l6.8,9.1l-2.6,46.6l10.6-8.7l3.3-38.7l0.7-5.9L613.6,1114.2z
		"/>
	<path class="st23" d="M578.3,1069.1l6.3,12.9l-3.3,16.7l-11.4,18.9l2.3,9l14.7-20.7l6.6,11l-2.6,40.3l9.4-7.2l3.4-32.9l0.7-7.7
		l9.9,4.4l19,6.4l-1.7-7.2l-20.1-9l6.9-20.2c0,0-4.6-24.3-5.6-25.1c-1-0.8-15.1-20.7-15.1-20.7l-15.1-14.4l-0.5,26.3L578.3,1069.1z"
		/>
	<path class="st24" d="M581.2,1069.3l4.8,11.9l-3.8,16.3l-11.8,19.8l2.1,8.1l15.1-21.6l6.4,12.8l-2.5,34l8.3-5.7l3.5-27.1l0.6-9.4
		l11,5l18.1,6.1l-1.6-6.4l-22.1-9.6l7.1-20.7c0,0-3.7-22.1-4.5-22.7s-13.7-17.6-13.7-17.6l-12.9-11.4l-0.9,22.3L581.2,1069.3z"/>
	<path class="st25" d="M584.1,1069.5l3.3,10.9l-4.3,15.8l-12.2,20.8l1.9,7.2l15.6-22.5l6.2,14.7l-2.5,27.8l7.2-4.1l3.5-21.3
		l0.6-11.2l12,5.6l17.2,5.7l-1.4-5.7l-24.1-10.2l7.3-21.1c0,0-2.9-19.8-3.5-20.4s-12.2-14.5-12.2-14.5l-10.8-8.4l-1.4,18.3
		L584.1,1069.5z"/>
	<path class="st26" d="M587,1069.8l1.8,9.8L584,1095l-12.7,21.7l1.7,6.3l16.1-23.4l6,16.5l-2.4,21.5l6.1-2.6l3.6-15.5l0.6-13l13,6.2
		l16.3,5.4l-1.3-5l-26.2-10.8l7.6-21.6c0,0-2-17.6-2.4-18s-10.8-11.4-10.8-11.4l-8.7-5.3l-1.8,14.3L587,1069.8z"/>
	<path class="st27" d="M589.8,1070l0.3,8.8l-5.2,14.9l-13.1,22.6l1.5,5.5l16.5-24.3l5.7,18.4l-2.4,15.2l5-1l3.7-9.8l0.5-14.8
		l14.1,6.8l15.4,5.1l-1.2-4.3l-28.2-11.4l7.8-22c0,0-1.2-15.4-1.4-15.6s-9.4-8.4-9.4-8.4l-6.6-2.3l-2.3,10.2L589.8,1070z"/>
	<polygon class="st28" points="617.1,1111.9 631.7,1116.7 630.7,1113.1 600.4,1101 608.5,1078.6 608.2,1065.4 600.2,1060.1 
		595.7,1060.8 592.9,1067 592.7,1070.3 591.5,1078.1 585.9,1092.5 572.4,1115.9 573.7,1120.5 590.7,1095.3 596.2,1115.5 
		593.9,1124.5 597.8,1125 601.5,1121 602,1104.5 	"/>
</g>
<g>
	<polygon class="st35" points="502.4,1072.8 516.6,1090.3 557.7,1109.1 569.1,1135.7 573,1179.3 558.7,1136 548.1,1115.8 
		506.2,1098.6 496.5,1078.3 486.1,1084.9 484.2,1109.1 467.7,1140.4 461.6,1201.6 435.6,1224.4 454.6,1197.4 452.6,1166.3 
		430.3,1185.2 442.8,1155.3 457,1150.5 457,1133 474.4,1104.6 471.5,1089.7 448.1,1094.2 430.3,1102.8 412.2,1104.2 400,1131.2 
		402.7,1109.1 387,1112.6 379.9,1132.5 379.9,1103.9 399.4,1103.1 414.9,1094.4 430,1095.3 445.3,1084.9 489.6,1068.3 	"/>
	<polygon class="st36" points="502.4,1072.8 516.6,1090.3 557.7,1109.1 569.1,1135.7 573,1179.3 559,1135.3 547.5,1114.8 
		506.8,1098 496.1,1077.6 485.7,1084.1 483.5,1108.8 467.2,1139.2 461.2,1200.8 435.6,1224.4 454.6,1197.4 452.5,1165.2 
		430.3,1185.2 442.8,1155.3 457,1150.5 457,1133 474.4,1104.6 471.5,1088.9 448.1,1093.3 430.3,1102.2 412.2,1103.7 400.5,1129.5 
		402.7,1108.4 387,1111.9 380.2,1130.3 379.9,1103.9 399.4,1103.1 414.9,1094.4 430,1095.3 445.3,1084.9 489.6,1068.3 	"/>
	<polygon class="st37" points="502.4,1072.8 516.6,1090.3 557.7,1109.1 569.1,1135.7 573,1179.3 559.4,1134.6 547,1113.8 
		507.3,1097.4 495.7,1076.8 485.4,1083.4 482.9,1108.5 466.8,1138 460.8,1200.1 435.6,1224.4 454.6,1197.4 452.5,1164.2 
		430.3,1185.2 442.8,1155.3 457,1150.5 457,1133 474.4,1104.6 471.5,1088.1 448.1,1092.6 430.3,1101.6 412.2,1103.1 401,1127.7 
		402.7,1107.8 387,1111.2 380.6,1128.1 379.9,1103.9 399.4,1103.1 414.9,1094.4 430,1095.3 445.3,1084.9 489.6,1068.3 	"/>
	<polygon class="st31" points="502.4,1072.8 516.6,1090.3 557.7,1109.1 569.1,1135.7 573,1179.3 559.7,1134 546.5,1112.8 
		507.8,1096.8 495.4,1076.1 485,1082.6 482.3,1108.2 466.3,1136.7 460.3,1199.4 435.6,1224.4 454.6,1197.4 452.4,1163.2 
		430.3,1185.2 442.8,1155.3 457,1150.5 457,1133 474.4,1104.6 471.5,1087.3 448.1,1091.8 430.3,1101 412.2,1102.5 401.5,1125.9 
		402.7,1107.1 387,1110.6 381,1125.9 379.9,1103.9 399.4,1103.1 414.9,1094.4 430,1095.3 445.3,1084.9 489.6,1068.3 	"/>
	<polygon class="st38" points="502.4,1072.8 516.6,1090.3 557.7,1109.1 569.1,1135.7 573,1179.3 560.1,1133.3 545.9,1111.7 
		508.3,1096.2 495,1075.3 484.6,1081.9 481.7,1107.9 465.9,1135.5 459.9,1198.6 435.6,1224.4 454.6,1197.4 452.3,1162.2 
		430.3,1185.2 442.8,1155.3 457,1150.5 457,1133 474.4,1104.6 471.5,1086.5 448.1,1090.9 430.3,1100.4 412.2,1101.9 402.1,1124.1 
		402.7,1106.4 387,1109.9 381.4,1123.7 379.9,1103.9 399.4,1103.1 414.9,1094.4 430,1095.3 445.3,1084.9 489.6,1068.3 	"/>
	<polygon class="st26" points="502.4,1072.8 516.6,1090.3 557.7,1109.1 569.1,1135.7 573,1179.3 560.4,1132.6 545.4,1110.7 
		508.8,1095.6 494.7,1074.6 484.3,1081.1 481.1,1107.6 465.4,1134.3 459.5,1197.9 435.6,1224.4 454.6,1197.4 452.3,1161.1 
		430.3,1185.2 442.8,1155.3 457,1150.5 457,1133 474.4,1104.6 471.5,1085.7 448.1,1090.2 430.3,1099.8 412.2,1101.3 402.6,1122.3 
		402.7,1105.8 387,1109.2 381.8,1121.5 379.9,1103.9 399.4,1103.1 414.9,1094.4 430,1095.3 445.3,1084.9 489.6,1068.3 	"/>
	<polygon class="st28" points="502.4,1072.8 516.6,1090.3 557.7,1109.1 569.1,1135.7 573,1179.3 560.8,1131.9 544.9,1109.7 
		509.3,1095 494.3,1073.8 483.9,1080.4 480.5,1107.3 465,1133 459.1,1197.2 435.6,1224.4 454.6,1197.4 452.2,1160.1 430.3,1185.2 
		442.8,1155.3 457,1150.5 457,1133 474.4,1104.6 471.5,1084.9 448.1,1089.3 430.3,1099.2 412.2,1100.7 403.1,1120.6 402.7,1105.1 
		387,1108.6 382.2,1119.3 379.9,1103.9 399.4,1103.1 414.9,1094.4 430,1095.3 445.3,1084.9 489.6,1068.3 	"/>
</g>
<g>
	<polygon class="st35" points="593.8,1072.3 561.6,1091.3 545.5,1101.5 536.1,1110.9 542.1,1113.4 555.2,1103.6 586.1,1084.3 
		589.7,1101.5 581,1129.7 566.6,1148.9 561.6,1189.4 572.4,1155.8 577.7,1171.1 576.5,1149.5 582.5,1137.5 595.4,1103.3 612.8,1127 
		617.9,1148.3 629.6,1157.9 622.5,1147.1 618.5,1123.4 601.5,1098.2 618,1091.4 639.3,1098.8 615.2,1082.9 599,1091 	"/>
	<polygon class="st36" points="593.8,1072.3 561.6,1091.3 545.5,1101.5 536.6,1110.3 542.5,1112.7 554.8,1103 586.1,1083.9 
		590.3,1101.1 581,1129.7 566.6,1148.9 561.6,1189.4 572.1,1155 577.7,1171.1 576.4,1148.5 582.3,1136.9 595.5,1103 613,1126.7 
		618.2,1148 629.6,1157.9 622.5,1147.1 618.5,1123.4 601.2,1097.8 617.8,1090.9 639.3,1098.8 615.2,1082.9 599,1091 	"/>
	<polygon class="st37" points="593.8,1072.3 561.6,1091.3 545.5,1101.5 537.1,1109.7 542.8,1112.1 554.4,1102.5 586.2,1083.4 
		591,1100.8 581,1129.7 566.6,1148.9 561.6,1189.4 571.9,1154.3 577.7,1171.1 576.4,1147.4 582.2,1136.3 595.6,1102.7 613.3,1126.5 
		618.5,1147.7 629.6,1157.9 622.5,1147.1 618.5,1123.4 600.8,1097.3 617.5,1090.3 639.3,1098.8 615.2,1082.9 599,1091 	"/>
	<polygon class="st31" points="593.8,1072.3 561.6,1091.3 545.5,1101.5 537.6,1109.1 543.2,1111.4 554,1101.9 586.2,1082.9 
		591.6,1100.5 581,1129.7 566.6,1148.9 561.6,1189.4 571.6,1153.6 577.7,1171.1 576.3,1146.4 582.1,1135.7 595.8,1102.4 
		613.6,1126.2 618.7,1147.5 629.6,1157.9 622.5,1147.1 618.5,1123.4 600.5,1096.8 617.3,1089.8 639.3,1098.8 615.2,1082.9 599,1091 
			"/>
	<polygon class="st38" points="593.8,1072.3 561.6,1091.3 545.5,1101.5 538,1108.5 543.5,1110.7 553.7,1101.4 586.3,1082.4 
		592.2,1100.2 581,1129.7 566.6,1148.9 561.6,1189.4 571.4,1152.8 577.7,1171.1 576.3,1145.4 582,1135.1 595.9,1102.1 613.8,1126 
		619,1147.2 629.6,1157.9 622.5,1147.1 618.5,1123.4 600.2,1096.4 617,1089.2 639.3,1098.8 615.2,1082.9 599,1091 	"/>
	<polygon class="st26" points="593.8,1072.3 561.6,1091.3 545.5,1101.5 538.5,1107.9 543.8,1110.1 553.3,1100.8 586.3,1081.9 
		592.9,1099.8 581,1129.7 566.6,1148.9 561.6,1189.4 571.1,1152.1 577.7,1171.1 576.2,1144.4 581.8,1134.5 596,1101.8 614.1,1125.7 
		619.3,1147 629.6,1157.9 622.5,1147.1 618.5,1123.4 599.9,1096 616.8,1088.7 639.3,1098.8 615.2,1082.9 599,1091 	"/>
	<polygon class="st28" points="593.8,1072.3 561.6,1091.3 545.5,1101.5 539,1107.3 544.2,1109.4 552.9,1100.3 586.4,1081.4 
		593.5,1099.5 581,1129.7 566.6,1148.9 561.6,1189.4 570.9,1151.4 577.7,1171.1 576.1,1143.4 581.7,1133.9 596.2,1101.5 
		614.3,1125.5 619.6,1146.7 629.6,1157.9 622.5,1147.1 618.5,1123.4 599.6,1095.5 616.5,1088.1 639.3,1098.8 615.2,1082.9 599,1091 
			"/>
</g>
</svg>
