<?xml version="1.0" encoding="utf-8"?>
<!-- Generator: Adobe Illustrator 23.0.0, SVG Export Plug-In . SVG Version: 6.00 Build 0)  -->
<svg version="1.1" id="Isolation_Mode" xmlns="http://www.w3.org/2000/svg" xmlns:xlink="http://www.w3.org/1999/xlink" x="0px"
	 y="0px" viewBox="0 0 1918.2 1544.3" style="enable-background:new 0 0 1918.2 1544.3;" xml:space="preserve">
<style type="text/css">
	.st0{fill:#2A1E16;}
	.st1{fill:#2E2118;}
	.st2{fill:#32241A;}
	.st3{fill:#35271D;}
	.st4{fill:#39291F;}
	.st5{fill:#3D2C21;}
	.st6{fill:#412F23;}
	.st7{fill:#281C15;}
	.st8{fill:#261B14;}
	.st9{fill:#241A12;}
	.st10{fill:#221811;}
	.st11{fill:#201710;}
	.st12{fill:#1E150F;}
	.st13{fill:#72553F;}
	.st14{fill:#6A4F3A;}
	.st15{fill:#624836;}
	.st16{fill:#5A4231;}
	.st17{fill:#513C2C;}
	.st18{fill:#493528;}
	.st19{fill:#1C130E;}
	.st20{fill:#1A120D;}
	.st21{fill:#18100C;}
	.st22{fill:#150F0B;}
	.st23{fill:#130E0A;}
	.st24{fill:#110C09;}
	.st25{fill:#281C16;}
	.st26{fill:#241914;}
	.st27{fill:#201712;}
	.st28{fill:#1C1410;}
	.st29{fill:#19110D;}
</style>
<g>
	<path class="st0" d="M855,1374.4c0,0-21.3-29.1-22.4-29.7c-1.1-0.6-30.2-23.5-30.2-23.5l-16.5-65.7l-6.5-28.3l-9.5-8.2l-16.7,23.1
		l-13.1,102.4l-8.8,29.9L855,1374.4L855,1374.4z"/>
	<path class="st1" d="M742.3,1343.6l-8.1,30.8h114.9c0,0-20.3-28.5-21.2-29s-27.8-23.4-27.8-23.4l-14.7-59.7l-6.9-28.1l-9.7-7.6
		l-14.5,22.4L742.3,1343.6z"/>
	<path class="st2" d="M744.4,1342.7l-7.5,31.7h106.2c0,0-19.3-27.9-20.1-28.3c-0.7-0.4-25.5-23.2-25.5-23.2l-12.8-53.8l-7.2-27.9
		l-10-7.1l-12.3,21.8L744.4,1342.7z"/>
	<path class="st3" d="M746.5,1341.7l-6.8,32.6h97.5c0,0-18.4-27.3-18.9-27.6s-23.1-23.1-23.1-23.1l-10.9-47.8l-7.6-27.7l-10.2-6.5
		l-10.1,21.1L746.5,1341.7z"/>
	<path class="st4" d="M748.6,1340.8l-6.1,33.6h88.8c0,0-17.4-26.6-17.8-26.8c-0.4-0.2-20.7-23-20.7-23l-9-41.8l-8-27.5l-10.5-5.9
		l-7.9,20.4L748.6,1340.8z"/>
	<path class="st5" d="M750.7,1339.9l-5.4,34.5h80.1c0,0-16.4-26-16.6-26.1s-18.4-22.8-18.4-22.8l-7.1-35.9l-8.3-27.3l-10.7-5.4
		l-5.7,19.7L750.7,1339.9z"/>
	<polygon class="st6" points="819.5,1374.4 804,1349 788,1326.3 782.7,1296.4 774.1,1269.3 763.1,1264.5 759.6,1283.5 752.8,1339 
		748,1374.4 	"/>
	<polygon class="st5" points="754.1,1337.1 749.7,1374.4 818.3,1374.4 803.6,1349.9 787.2,1326.6 781.8,1296.2 773.7,1270.8 
		763,1265.7 760.1,1283.1 	"/>
	<polygon class="st4" points="755.4,1335.2 751.4,1374.4 817.1,1374.4 803.2,1350.8 786.5,1326.8 780.8,1295.9 773.4,1272.3 
		762.9,1266.9 760.5,1282.7 	"/>
	<polygon class="st3" points="756.7,1333.4 753.1,1374.4 815.9,1374.4 802.9,1351.6 785.8,1327 779.8,1295.6 773,1273.7 
		762.8,1268.1 761,1282.4 	"/>
	<polygon class="st2" points="757.9,1331.5 754.8,1374.4 814.7,1374.4 802.5,1352.5 785,1327.3 778.9,1295.4 772.7,1275.2 
		762.7,1269.3 761.5,1282 	"/>
	<polygon class="st1" points="759.2,1329.6 756.5,1374.4 813.5,1374.4 802.1,1353.4 784.3,1327.5 777.9,1295.1 772.3,1276.7 
		762.6,1270.5 761.9,1281.6 	"/>
	<polygon class="st0" points="812.4,1374.4 801.7,1354.3 783.5,1327.7 776.9,1294.9 772,1278.2 762.5,1271.7 762.4,1281.3 
		760.5,1327.7 758.2,1374.4 	"/>
	<polygon class="st0" points="810.2,1375.7 800.8,1355.6 783.6,1331.3 776.9,1302 772.6,1286.6 763.7,1280.2 763.6,1290.1 
		762,1331.3 759.3,1375.7 	"/>
	<polygon class="st0" points="808,1377.1 799.8,1357 783.6,1334.8 776.9,1309.1 773.2,1294.9 764.9,1288.7 764.8,1298.9 
		763.6,1334.9 760.4,1377.1 	"/>
	<polygon class="st0" points="805.8,1378.4 798.9,1358.3 783.7,1338.4 776.9,1316.3 773.8,1303.3 766.1,1297.2 766,1307.7 
		765.1,1338.5 761.6,1378.4 	"/>
	<polygon class="st0" points="803.7,1379.7 797.9,1359.6 783.7,1341.9 776.9,1323.4 774.4,1311.6 767.3,1305.7 767.2,1316.5 
		766.6,1342.1 762.7,1379.7 	"/>
	<polygon class="st0" points="801.5,1381.1 797,1361 783.7,1345.5 776.9,1330.5 775,1320 768.5,1314.2 768.5,1325.4 768.1,1345.7 
		763.8,1381.1 	"/>
	<polygon class="st0" points="799.3,1382.4 796.1,1362.3 783.8,1349 776.9,1337.7 775.6,1328.4 769.7,1322.6 769.7,1334.2 
		769.7,1349.3 765,1382.4 	"/>
	<polygon class="st7" points="798.6,1382.9 795.5,1363.1 783.7,1350.7 777.1,1340.1 775.9,1331.4 770.2,1326.1 770.2,1336.8 
		770.2,1351 765.7,1382.9 	"/>
	<polygon class="st8" points="797.9,1383.3 794.9,1364 783.6,1352.4 777.3,1342.6 776.2,1334.4 770.7,1329.5 770.7,1339.5 
		770.7,1352.7 766.4,1383.3 	"/>
	<polygon class="st9" points="797.2,1383.7 794.3,1364.8 783.6,1354.2 777.5,1345 776.4,1337.5 771.2,1332.9 771.2,1342.2 
		771.2,1354.4 767.1,1383.7 	"/>
	<polygon class="st10" points="796.4,1384.2 793.8,1365.7 783.5,1355.9 777.7,1347.4 776.7,1340.5 771.7,1336.3 771.7,1344.8 
		771.7,1356.1 767.9,1384.2 	"/>
	<polygon class="st11" points="795.7,1384.6 793.2,1366.5 783.4,1357.6 777.9,1349.9 776.9,1343.6 772.2,1339.7 772.2,1347.5 
		772.2,1357.8 768.6,1384.6 	"/>
	<polygon class="st12" points="795,1385.1 792.6,1367.4 783.4,1359.3 778.1,1352.3 777.2,1346.6 772.7,1343.1 772.7,1350.2 
		772.7,1359.4 769.3,1385.1 	"/>
</g>
<g>
	<polygon class="st13" points="579.3,1374.4 626.1,1333.2 652.5,1290.6 675.5,1187.2 684.5,1142.7 697.7,1129.8 721,1166.2 
		739.3,1327.3 751.5,1374.4 737.1,1374.4 621.6,1374.4 	"/>
	<polygon class="st14" points="685.9,1153.7 697.6,1142.6 718.8,1172 723.1,1207.4 734.6,1310 736.7,1328.5 747.7,1374.4 
		734.4,1374.4 627,1374.4 587.6,1374.4 630,1333.8 632.1,1330.3 654.9,1293.5 658.8,1278.9 672.7,1214.1 676.9,1195.8 	"/>
	<polygon class="st15" points="687.2,1164.7 697.5,1155.4 716.6,1177.9 721,1212.2 732.1,1311.7 734.2,1329.7 743.9,1374.4 
		731.6,1374.4 632.3,1374.4 595.9,1374.4 633.9,1334.4 635.9,1331.1 657.4,1296.4 661.7,1282.8 674.3,1221.6 678.4,1204.3 	"/>
	<polygon class="st16" points="688.5,1175.8 697.4,1168.2 714.4,1183.7 718.9,1216.9 729.6,1313.4 731.6,1330.9 740.2,1374.4 
		728.8,1374.4 637.7,1374.4 604.3,1374.4 637.8,1335.1 639.6,1331.9 659.9,1299.3 664.5,1286.8 675.8,1229.1 679.8,1212.9 	"/>
	<polygon class="st17" points="689.9,1186.8 697.3,1181 712.2,1189.6 716.9,1221.7 727.1,1315.2 729.1,1332 736.4,1374.4 
		726.1,1374.4 643,1374.4 612.6,1374.4 641.7,1335.7 643.3,1332.7 662.4,1302.2 667.4,1290.7 677.4,1236.6 681.2,1221.5 	"/>
	<polygon class="st18" points="691.2,1197.8 697.2,1193.8 710,1195.4 714.8,1226.4 724.6,1316.9 726.6,1333.2 732.6,1374.4 
		723.3,1374.4 648.4,1374.4 620.9,1374.4 645.5,1336.3 647.1,1333.5 664.8,1305.1 670.3,1294.7 678.9,1244.1 682.7,1230.1 	"/>
	<polygon class="st6" points="629.2,1374.4 650.8,1334.4 673.1,1298.6 680.4,1251.6 692.5,1208.9 707.9,1201.3 712.7,1231.2 
		722.1,1318.6 728.8,1374.4 	"/>
	<polygon class="st5" points="720.4,1315.7 726.5,1374.4 630.9,1374.4 651.4,1335.7 674.2,1299 681.8,1255.7 693,1215.7 
		707.4,1208.1 712.1,1235.1 	"/>
	<polygon class="st4" points="718.6,1312.7 724.1,1374.4 632.6,1374.4 651.9,1337.1 675.2,1299.4 683.2,1259.7 693.5,1222.5 
		707,1214.9 711.4,1239 	"/>
	<polygon class="st3" points="716.8,1309.7 721.7,1374.4 634.2,1374.4 652.4,1338.5 676.2,1299.8 684.5,1263.8 694.1,1229.3 
		706.5,1221.8 710.8,1242.9 	"/>
	<polygon class="st2" points="715,1306.8 719.4,1374.4 635.9,1374.5 652.9,1339.9 677.3,1300.1 685.9,1267.9 694.6,1236.2 
		706.1,1228.6 710.1,1246.8 	"/>
	<polygon class="st1" points="713.2,1303.8 717,1374.4 637.5,1374.5 653.5,1341.3 678.3,1300.5 687.3,1272 695.1,1243 705.7,1235.5 
		709.5,1250.7 	"/>
	<polygon class="st0" points="639.2,1374.5 654,1342.7 679.3,1300.9 688.6,1276 695.6,1249.8 705.2,1242.3 708.9,1254.6 
		711.4,1300.9 714.7,1374.4 	"/>
	<polygon class="st0" points="642.2,1377.8 655.3,1344.8 679.3,1306.5 688.2,1282.6 695.5,1257 704.9,1249.2 707.9,1264.3 
		710.2,1306.7 713.1,1377.7 	"/>
	<polygon class="st0" points="645.2,1381.2 656.6,1346.9 679.2,1312.1 687.8,1289.2 695.4,1264.2 704.6,1256.2 706.9,1274.1 
		709.1,1312.6 711.5,1381.1 	"/>
	<polygon class="st0" points="648.2,1384.5 657.9,1349 679.2,1317.7 687.4,1295.8 695.3,1271.3 704.3,1263.1 705.8,1283.8 
		707.9,1318.5 709.9,1384.4 	"/>
	<polygon class="st0" points="651.3,1387.8 659.3,1351.1 679.1,1323.2 686.9,1302.4 695.2,1278.5 703.9,1270 704.8,1293.5 
		706.7,1324.3 708.4,1387.8 	"/>
	<polygon class="st0" points="654.3,1391.1 660.6,1353.2 679.1,1328.8 686.5,1309 695.1,1285.7 703.6,1277 703.8,1303.2 
		705.5,1330.2 706.8,1391.1 	"/>
	<polygon class="st0" points="657.3,1394.5 661.9,1355.3 679,1334.4 686.1,1315.6 695,1292.9 703.3,1283.9 702.8,1312.9 704.4,1336 
		705.2,1394.5 	"/>
	<polygon class="st7" points="658.3,1395.4 662.7,1356.6 679.1,1337.1 686.2,1319.6 693.9,1299.2 701.8,1290.8 701.4,1316.8 
		702.7,1338.5 704.2,1395.4 	"/>
	<polygon class="st8" points="659.3,1396.3 663.5,1358 679.2,1339.8 686.4,1323.6 692.7,1305.4 700.3,1297.6 700,1320.7 701.1,1341 
		703.2,1396.3 	"/>
	<polygon class="st9" points="660.3,1397.3 664.3,1359.3 679.3,1342.5 686.5,1327.6 691.6,1311.7 698.9,1304.5 698.6,1324.5 
		699.4,1343.4 702.2,1397.3 	"/>
	<polygon class="st10" points="661.3,1398.2 665.1,1360.6 679.4,1345.1 686.6,1331.6 690.4,1318 697.4,1311.4 697.2,1328.4 
		697.7,1345.9 701.2,1398.2 	"/>
	<polygon class="st11" points="662.4,1399.2 665.9,1361.9 679.5,1347.8 686.7,1335.6 689.3,1324.3 695.9,1318.2 695.8,1332.3 
		696.1,1348.3 700.2,1399.2 	"/>
	<polygon class="st12" points="663.4,1400.1 666.7,1363.3 679.6,1350.5 686.9,1339.6 688.1,1330.6 694.4,1325.1 694.4,1336.2 
		694.4,1350.8 699.2,1400.1 	"/>
</g>
<g>
	<path class="st12" d="M653.7,1427.2l-29.5,9.9l2.8-11.7l26.7-12.5l-9.8-29.4c0,0,8-39.3,9.8-40.8s24.5-35.2,24.5-35.2l25.5-25.9
		v44.9l6.6,33.3l-11.5,20.7l4.3,25.5l16.3,26.8l-3.6,14.7l-21.1-29.4l-10.1,13.5l3.9,69.1l-15.7-13l-4.9-57.4l-1.1-8.8L653.7,1427.2
		z"/>
	<path class="st19" d="M706.1,1360.2l-9.3,19.2l5,24.8l16.9,28.1l-3.3,13.4l-21.8-30.7l-9.8,16.3l4.1,67.7l-14.3-11.7l-4.9-55.7
		l-1-11.4l-14.7,6.5l-28.2,9.5l2.6-10.6l29.8-13.4l-10.2-30c0,0,6.8-36,8.3-37.3s22.4-30.6,22.4-30.6l22.3-21.4l0.7,39L706.1,1360.2
		z"/>
	<path class="st20" d="M701.8,1360.6l-7.1,17.7l5.6,24.1l17.5,29.4l-3.1,12.1l-22.5-32l-9.5,19l4.2,66.3l-13-10.5l-5-53.9l-1-14
		l-16.3,7.4l-26.9,9l2.3-9.6l32.8-14.3l-10.5-30.7c0,0,5.5-32.7,6.7-33.7s20.3-26.1,20.3-26.1l19.2-16.9l1.4,33L701.8,1360.6z"/>
	<path class="st21" d="M697.5,1360.9l-4.8,16.1l6.3,23.4l18.2,30.8l-2.8,10.7l-23.1-33.4l-9.1,21.8l4.3,64.8l-11.6-9.2l-5-52.2
		l-0.9-16.6l-17.8,8.3l-25.5,8.5l2.1-8.5l35.8-15.2l-10.9-31.3c0,0,4.3-29.4,5.2-30.2c0.9-0.8,18.1-21.5,18.1-21.5l16.1-12.4
		l2.1,27.1L697.5,1360.9z"/>
	<path class="st22" d="M693.3,1361.3l-2.6,14.6l7,22.7l18.8,32.1l-2.5,9.4l-23.8-34.7l-8.8,24.5l4.5,63.4l-10.2-8l-5-50.4l-0.8-19.3
		l-19.4,9.2l-24.2,8l1.9-7.5l38.8-16.1l-11.2-32c0,0,3-26.2,3.6-26.7s16-17,16-17l13-7.9l2.7,21.1L693.3,1361.3z"/>
	<path class="st23" d="M689,1361.7l-0.4,13.1l7.7,22.1l19.4,33.4l-2.2,8.1l-24.5-36.1l-8.5,27.3l4.6,62l-8.9-6.7l-5.1-48.7
		l-0.8-21.9l-20.9,10.1l-22.9,7.6l1.7-6.4l41.8-17l-11.6-32.6c0,0,1.8-22.9,2.1-23.1s13.9-12.4,13.9-12.4l9.8-3.4l3.4,15.2
		L689,1361.7z"/>
	<polygon class="st24" points="648.5,1423.8 627,1430.9 628.5,1425.5 673.3,1407.6 661.3,1374.3 661.8,1354.7 673.6,1346.9 
		680.3,1347.9 684.4,1357.2 684.7,1362 686.5,1373.5 694.9,1394.9 714.9,1429.7 713,1436.5 687.8,1399.1 679.5,1429.1 684.3,1489.7 
		676.8,1484.2 671.7,1437.3 671,1412.8 	"/>
</g>
<g>
	<path class="st12" d="M806.2,1424.3l19.9,6.7l-1.9-7.9l-18-8.4l6.6-19.8c0,0-5.4-26.5-6.6-27.5c-1.2-1-16.5-23.7-16.5-23.7
		l-17.2-17.5v30.3l-4.5,22.4l7.8,14l-2.9,17.2l-11,18.1l2.4,9.9l14.2-19.8l6.8,9.1l-2.6,46.6l10.6-8.7l3.3-38.7l0.7-5.9
		L806.2,1424.3z"/>
	<path class="st19" d="M770.9,1379.2l6.3,12.9l-3.3,16.7l-11.4,18.9l2.3,9l14.7-20.7l6.6,11l-2.6,40.3l9.4-7.2l3.4-32.9l0.7-7.7
		l9.9,4.4l19,6.4l-1.7-7.2l-20.1-9l6.9-20.2c0,0-4.6-24.3-5.6-25.1s-15.1-20.7-15.1-20.7l-15.1-14.4l-0.5,26.3L770.9,1379.2z"/>
	<path class="st20" d="M773.8,1379.4l4.8,11.9l-3.8,16.3l-11.8,19.8l2.1,8.1l15.1-21.6l6.4,12.8l-2.5,34l8.3-5.7l3.5-27.1l0.6-9.4
		l11,5l18.1,6.1l-1.6-6.4l-22.1-9.6l7.1-20.7c0,0-3.7-22.1-4.5-22.7s-13.7-17.6-13.7-17.6l-13-11.4l-0.9,22.3L773.8,1379.4z"/>
	<path class="st21" d="M776.6,1379.7l3.3,10.9l-4.3,15.8l-12.2,20.8l1.9,7.2l15.6-22.5l6.2,14.7l-2.5,27.8l7.2-4.1l3.5-21.3
		l0.6-11.2l12,5.6l17.2,5.7l-1.4-5.7l-24.1-10.2l7.3-21.1c0,0-2.9-19.8-3.5-20.4s-12.2-14.5-12.2-14.5l-10.8-8.4l-1.4,18.3
		L776.6,1379.7z"/>
	<path class="st22" d="M779.5,1379.9l1.8,9.8l-4.7,15.3l-12.7,21.7l1.7,6.3l16.1-23.4l6,16.5l-2.4,21.5l6.1-2.6l3.6-15.5l0.6-13
		l13,6.2l16.3,5.4l-1.3-5l-26.2-10.8l7.6-21.6c0,0-2-17.6-2.4-18s-10.8-11.4-10.8-11.4l-8.7-5.3l-1.8,14.3L779.5,1379.9z"/>
	<path class="st23" d="M782.4,1380.2l0.3,8.8l-5.2,14.9l-13.1,22.6l1.5,5.5l16.5-24.3l5.7,18.4l-2.4,15.2l5-1l3.7-9.8l0.5-14.8
		l14.1,6.8l15.4,5.1l-1.2-4.3l-28.2-11.4l7.8-22c0,0-1.2-15.4-1.4-15.6s-9.4-8.4-9.4-8.4l-6.6-2.3l-2.3,10.2L782.4,1380.2z"/>
	<polygon class="st24" points="809.7,1422 824.2,1426.8 823.2,1423.2 793,1411.1 801,1388.7 800.7,1375.5 792.8,1370.2 
		788.2,1370.9 785.5,1377.1 785.3,1380.4 784,1388.2 778.4,1402.6 764.9,1426 766.3,1430.6 783.2,1405.4 788.8,1425.6 786.4,1434.6 
		790.3,1435.1 794.1,1431.1 794.5,1414.6 	"/>
</g>
<g>
	<polygon class="st25" points="694.9,1382.9 709.2,1400.4 750.2,1419.2 761.7,1445.8 765.5,1489.4 751.2,1446.1 740.6,1425.9 
		698.8,1408.7 689,1388.5 678.6,1395 676.7,1419.2 660.2,1450.6 654.1,1511.7 628.2,1534.5 647.2,1507.5 645.1,1476.4 622.8,1495.3 
		635.3,1465.4 649.5,1460.7 649.5,1443.2 666.9,1414.8 664.1,1399.8 640.6,1404.3 622.8,1412.9 604.7,1414.4 592.6,1441.4 
		595.3,1419.2 579.5,1422.7 572.4,1442.7 572.4,1414.1 592,1413.2 607.4,1404.6 622.5,1405.5 637.9,1395 682.2,1378.5 	"/>
	<polygon class="st26" points="694.9,1382.9 709.2,1400.4 750.2,1419.2 761.7,1445.8 765.5,1489.4 751.6,1445.4 740.1,1424.9 
		699.3,1408.1 688.6,1387.7 678.3,1394.3 676.1,1418.9 659.8,1449.3 653.7,1510.9 628.2,1534.5 647.2,1507.5 645.1,1475.3 
		622.8,1495.3 635.3,1465.4 649.5,1460.7 649.5,1443.2 666.9,1414.8 664.1,1399 640.6,1403.5 622.8,1412.3 604.7,1413.8 
		593.1,1439.6 595.3,1418.5 579.5,1422 572.8,1440.4 572.4,1414.1 592,1413.2 607.4,1404.6 622.5,1405.5 637.9,1395 682.2,1378.5 	
		"/>
	<polygon class="st27" points="694.9,1382.9 709.2,1400.4 750.2,1419.2 761.7,1445.8 765.5,1489.4 751.9,1444.8 739.5,1423.9 
		699.8,1407.5 688.3,1387 677.9,1393.5 675.5,1418.6 659.3,1448.1 653.3,1510.2 628.2,1534.5 647.2,1507.5 645,1474.3 622.8,1495.3 
		635.3,1465.4 649.5,1460.7 649.5,1443.2 666.9,1414.8 664.1,1398.2 640.6,1402.7 622.8,1411.7 604.7,1413.2 593.6,1437.8 
		595.3,1417.9 579.5,1421.3 573.2,1438.2 572.4,1414.1 592,1413.2 607.4,1404.6 622.5,1405.5 637.9,1395 682.2,1378.5 	"/>
	<polygon class="st28" points="694.9,1382.9 709.2,1400.4 750.2,1419.2 761.7,1445.8 765.5,1489.4 752.3,1444.1 739,1422.9 
		700.3,1406.9 687.9,1386.2 677.5,1392.8 674.9,1418.3 658.9,1446.9 652.9,1509.5 628.2,1534.5 647.2,1507.5 644.9,1473.3 
		622.8,1495.3 635.3,1465.4 649.5,1460.7 649.5,1443.2 666.9,1414.8 664.1,1397.4 640.6,1401.9 622.8,1411.1 604.7,1412.6 
		594.1,1436 595.3,1417.2 579.5,1420.7 573.6,1436 572.4,1414.1 592,1413.2 607.4,1404.6 622.5,1405.5 637.9,1395 682.2,1378.5 	"/>
	<polygon class="st29" points="694.9,1382.9 709.2,1400.4 750.2,1419.2 761.7,1445.8 765.5,1489.4 752.6,1443.4 738.5,1421.8 
		700.8,1406.3 687.6,1385.5 677.2,1392 674.3,1418 658.4,1445.6 652.5,1508.8 628.2,1534.5 647.2,1507.5 644.9,1472.3 622.8,1495.3 
		635.3,1465.4 649.5,1460.7 649.5,1443.2 666.9,1414.8 664.1,1396.6 640.6,1401.1 622.8,1410.5 604.7,1412 594.6,1434.3 
		595.2,1416.5 579.5,1420 574,1433.8 572.4,1414.1 592,1413.2 607.4,1404.6 622.5,1405.5 637.9,1395 682.2,1378.5 	"/>
	<polygon class="st22" points="694.9,1382.9 709.2,1400.4 750.2,1419.2 761.7,1445.8 765.5,1489.4 753,1442.7 737.9,1420.8 
		701.3,1405.7 687.2,1384.7 676.8,1391.3 673.6,1417.7 658,1444.4 652,1508 628.2,1534.5 647.2,1507.5 644.8,1471.3 622.8,1495.3 
		635.3,1465.4 649.5,1460.7 649.5,1443.2 666.9,1414.8 664.1,1395.8 640.6,1400.3 622.8,1409.9 604.7,1411.4 595.1,1432.5 
		595.2,1415.9 579.5,1419.4 574.3,1431.6 572.4,1414.1 592,1413.2 607.4,1404.6 622.5,1405.5 637.9,1395 682.2,1378.5 	"/>
	<polygon class="st24" points="694.9,1382.9 709.2,1400.4 750.2,1419.2 761.7,1445.8 765.5,1489.4 753.3,1442.1 737.4,1419.8 
		701.8,1405.1 686.9,1384 676.5,1390.5 673,1417.4 657.5,1443.2 651.6,1507.3 628.2,1534.5 647.2,1507.5 644.7,1470.2 622.8,1495.3 
		635.3,1465.4 649.5,1460.7 649.5,1443.2 666.9,1414.8 664.1,1395 640.6,1399.5 622.8,1409.3 604.7,1410.8 595.6,1430.7 
		595.2,1415.2 579.5,1418.7 574.7,1429.4 572.4,1414.1 592,1413.2 607.4,1404.6 622.5,1405.5 637.9,1395 682.2,1378.5 	"/>
</g>
<g>
	<polygon class="st25" points="786.4,1382.4 754.1,1401.4 738,1411.6 728.7,1421 734.7,1423.5 747.7,1413.7 778.6,1394.5 
		782.2,1411.6 773.6,1439.8 759.1,1459 754.1,1499.5 764.9,1465.9 770.2,1481.2 769,1459.6 775,1447.6 787.9,1413.4 805.3,1437.1 
		810.4,1458.4 822.1,1468 815,1457.2 811,1433.5 794,1408.3 810.6,1401.6 831.9,1408.9 807.7,1393 791.5,1401.1 	"/>
	<polygon class="st26" points="786.4,1382.4 754.1,1401.4 738,1411.6 729.2,1420.4 735,1422.8 747.3,1413.1 778.7,1394 
		782.9,1411.3 773.6,1439.8 759.1,1459 754.1,1499.5 764.7,1465.2 770.2,1481.2 769,1458.6 774.9,1447 788,1413.1 805.6,1436.8 
		810.7,1458.1 822.1,1468 815,1457.2 811,1433.5 793.7,1407.9 810.3,1401 831.9,1408.9 807.7,1393 791.5,1401.1 	"/>
	<polygon class="st27" points="786.4,1382.4 754.1,1401.4 738,1411.6 729.6,1419.8 735.4,1422.2 747,1412.6 778.7,1393.5 
		783.5,1410.9 773.6,1439.8 759.1,1459 754.1,1499.5 764.4,1464.4 770.2,1481.2 768.9,1457.6 774.8,1446.4 788.2,1412.8 
		805.8,1436.6 811,1457.9 822.1,1468 815,1457.2 811,1433.5 793.4,1407.4 810.1,1400.4 831.9,1408.9 807.7,1393 791.5,1401.1 	"/>
	<polygon class="st28" points="786.4,1382.4 754.1,1401.4 738,1411.6 730.1,1419.2 735.7,1421.5 746.6,1412 778.8,1393 
		784.1,1410.6 773.6,1439.8 759.1,1459 754.1,1499.5 764.2,1463.7 770.2,1481.2 768.8,1456.6 774.6,1445.8 788.3,1412.5 
		806.1,1436.3 811.3,1457.6 822.1,1468 815,1457.2 811,1433.5 793.1,1407 809.8,1399.9 831.9,1408.9 807.7,1393 791.5,1401.1 	"/>
	<polygon class="st29" points="786.4,1382.4 754.1,1401.4 738,1411.6 730.6,1418.6 736,1420.9 746.2,1411.5 778.8,1392.5 
		784.8,1410.3 773.6,1439.8 759.1,1459 754.1,1499.5 763.9,1463 770.2,1481.2 768.8,1455.5 774.5,1445.2 788.4,1412.2 806.4,1436.1 
		811.6,1457.3 822.1,1468 815,1457.2 811,1433.5 792.8,1406.5 809.6,1399.3 831.9,1408.9 807.7,1393 791.5,1401.1 	"/>
	<polygon class="st22" points="786.4,1382.4 754.1,1401.4 738,1411.6 731.1,1418 736.4,1420.2 745.8,1410.9 778.9,1392.1 
		785.4,1410 773.6,1439.8 759.1,1459 754.1,1499.5 763.7,1462.2 770.2,1481.2 768.7,1454.5 774.4,1444.7 788.6,1411.9 806.6,1435.8 
		811.9,1457.1 822.1,1468 815,1457.2 811,1433.5 792.5,1406.1 809.3,1398.8 831.9,1408.9 807.7,1393 791.5,1401.1 	"/>
	<polygon class="st24" points="786.4,1382.4 754.1,1401.4 738,1411.6 731.5,1417.4 736.7,1419.5 745.5,1410.4 778.9,1391.6 
		786,1409.6 773.6,1439.8 759.1,1459 754.1,1499.5 763.4,1461.5 770.2,1481.2 768.7,1453.5 774.3,1444.1 788.7,1411.6 806.9,1435.6 
		812.1,1456.8 822.1,1468 815,1457.2 811,1433.5 792.2,1405.6 809.1,1398.2 831.9,1408.9 807.7,1393 791.5,1401.1 	"/>
</g>
<g>
	<path class="st0" d="M1068.5,1374.4c0,0,20.2-31.5,21.3-32.1s30.2-23.5,30.2-23.5l16.5-65.7l6.5-28.3l9.5-8.2l16.7,23.1l13.1,102.4
		l8.8,32.3L1068.5,1374.4L1068.5,1374.4z"/>
	<path class="st1" d="M1180.2,1341.2l8.2,33.2h-114c0,0,19.3-30.9,20.3-31.4s27.8-23.4,27.8-23.4l14.7-59.7l6.9-28.1l9.7-7.6
		l14.5,22.4L1180.2,1341.2z"/>
	<path class="st2" d="M1178.1,1340.3l7.6,34.1h-105.5c0,0,18.5-30.3,19.2-30.7c0.7-0.4,25.5-23.2,25.5-23.2l12.8-53.8l7.2-27.9
		l10-7.1l12.3,21.8L1178.1,1340.3z"/>
	<path class="st3" d="M1176,1339.3l6.9,35h-97c0,0,17.6-29.7,18.2-29.9s23.1-23.1,23.1-23.1l10.9-47.8l7.6-27.7l10.2-6.5l10.1,21.1
		L1176,1339.3z"/>
	<path class="st4" d="M1173.9,1338.4l6.3,36h-88.4c0,0,16.8-29,17.1-29.2c0.4-0.2,20.7-23,20.7-23l9-41.8l8-27.5l10.5-5.9l7.9,20.4
		L1173.9,1338.4z"/>
	<path class="st5" d="M1171.8,1337.5l5.7,36.9h-79.9c0,0,15.9-28.4,16.1-28.5s18.4-22.8,18.4-22.8l7.1-35.9l8.3-27.3l10.7-5.4
		l5.7,19.7L1171.8,1337.5z"/>
	<polygon class="st6" points="1103.4,1374.4 1118.5,1346.6 1134.5,1323.9 1139.8,1294 1148.4,1266.9 1159.4,1262.1 1162.9,1281.1 
		1169.7,1336.6 1174.8,1374.4 	"/>
	<polygon class="st5" points="1168.4,1334.7 1173.1,1374.4 1104.6,1374.4 1118.9,1347.5 1135.3,1324.2 1140.7,1293.8 1148.8,1268.4 
		1159.5,1263.3 1162.5,1280.7 	"/>
	<polygon class="st4" points="1167.1,1332.9 1171.4,1374.4 1105.8,1374.4 1119.3,1348.4 1136,1324.4 1141.7,1293.5 1149.1,1269.9 
		1159.6,1264.5 1162,1280.3 	"/>
	<polygon class="st3" points="1165.8,1331 1169.6,1374.4 1106.9,1374.4 1119.6,1349.3 1136.7,1324.6 1142.7,1293.2 1149.5,1271.4 
		1159.7,1265.7 1161.5,1280 	"/>
	<polygon class="st2" points="1164.6,1329.1 1167.9,1374.4 1108.1,1374.4 1120,1350.1 1137.5,1324.9 1143.6,1293 1149.9,1272.8 
		1159.8,1266.9 1161,1279.6 	"/>
	<polygon class="st1" points="1163.3,1327.2 1166.2,1374.4 1109.2,1374.4 1120.4,1351 1138.2,1325.1 1144.6,1292.7 1150.2,1274.3 
		1159.9,1268.1 1160.6,1279.2 	"/>
	<polygon class="st0" points="1110.4,1374.4 1120.8,1351.9 1139,1325.3 1145.6,1292.5 1150.6,1275.8 1160,1269.3 1160.1,1278.9 
		1162,1325.3 1164.5,1374.4 	"/>
	<polygon class="st0" points="1112.5,1375.3 1121.7,1353.2 1138.9,1328.9 1145.6,1299.6 1149.9,1284.2 1158.8,1277.8 1158.9,1287.7 
		1160.5,1328.9 1163.3,1375.3 	"/>
	<polygon class="st0" points="1114.6,1376.3 1122.7,1354.6 1138.9,1332.4 1145.6,1306.7 1149.3,1292.5 1157.6,1286.3 1157.7,1296.5 
		1158.9,1332.5 1162.2,1376.3 	"/>
	<polygon class="st0" points="1116.8,1377.2 1123.6,1355.9 1138.9,1336 1145.6,1313.9 1148.7,1300.9 1156.4,1294.8 1156.5,1305.3 
		1157.4,1336.1 1161,1377.2 	"/>
	<polygon class="st0" points="1118.9,1378.2 1124.6,1357.2 1138.8,1339.5 1145.6,1321 1148.1,1309.2 1155.2,1303.3 1155.3,1314.1 
		1155.9,1339.7 1159.9,1378.2 	"/>
	<polygon class="st0" points="1121,1379.1 1125.5,1358.6 1138.8,1343.1 1145.6,1328.1 1147.5,1317.6 1154,1311.8 1154.1,1323 
		1154.4,1343.3 1158.7,1379.1 	"/>
	<polygon class="st0" points="1123.2,1380 1126.5,1359.9 1138.7,1346.6 1145.7,1335.3 1146.9,1326 1152.8,1320.3 1152.8,1331.8 
		1152.8,1346.9 1157.5,1380 	"/>
	<polygon class="st7" points="1123.9,1380.5 1127,1360.8 1138.8,1348.4 1145.4,1337.7 1146.6,1329 1152.3,1323.7 1152.3,1334.5 
		1152.3,1348.6 1156.8,1380.5 	"/>
	<polygon class="st8" points="1124.6,1380.9 1127.6,1361.6 1138.9,1350.1 1145.2,1340.2 1146.4,1332 1151.8,1327.1 1151.8,1337.1 
		1151.8,1350.3 1156.1,1380.9 	"/>
	<polygon class="st9" points="1125.3,1381.4 1128.2,1362.4 1138.9,1351.8 1145,1342.6 1146.1,1335.1 1151.3,1330.5 1151.3,1339.8 
		1151.3,1352 1155.4,1381.4 	"/>
	<polygon class="st10" points="1126.1,1381.8 1128.8,1363.3 1139,1353.5 1144.8,1345 1145.8,1338.1 1150.8,1333.9 1150.8,1342.4 
		1150.8,1353.7 1154.6,1381.8 	"/>
	<polygon class="st11" points="1126.8,1382.2 1129.3,1364.1 1139.1,1355.2 1144.6,1347.5 1145.6,1341.2 1150.3,1337.3 
		1150.3,1345.1 1150.3,1355.4 1153.9,1382.2 	"/>
	<polygon class="st12" points="1127.5,1382.7 1129.9,1365 1139.2,1356.9 1144.4,1349.9 1145.3,1344.2 1149.8,1340.7 1149.8,1347.8 
		1149.8,1357 1153.2,1382.7 	"/>
</g>
<g>
	<polygon class="st13" points="1343.3,1374.4 1296.4,1330.8 1270.1,1288.2 1247,1184.8 1238,1140.3 1224.8,1127.4 1201.5,1163.8 
		1183.3,1324.9 1171,1374.4 1184.9,1374.4 1301.7,1374.4 	"/>
	<polygon class="st14" points="1203.7,1169.6 1199.4,1204.9 1187.9,1307.2 1185.8,1326.2 1174.6,1374.4 1187.6,1374.4 
		1296.3,1374.4 1334.9,1374.4 1292.6,1331.5 1289.9,1327.1 1267.6,1291.2 1263.5,1275.8 1249.7,1211.4 1245.6,1193.4 1236.6,1151.3 
		1224.9,1140.2 	"/>
	<polygon class="st15" points="1205.9,1175.5 1201.5,1209.7 1190.4,1309 1188.3,1327.4 1178.3,1374.4 1190.2,1374.4 1290.8,1374.4 
		1326.6,1374.4 1288.7,1332.3 1286.2,1328.1 1265.2,1294.2 1260.7,1279.9 1248.2,1218.9 1244.2,1202 1235.3,1162.3 1225,1153 	"/>
	<polygon class="st16" points="1208.1,1181.3 1203.6,1214.5 1192.9,1310.8 1190.8,1328.7 1181.9,1374.4 1192.9,1374.4 
		1285.4,1374.4 1318.3,1374.4 1284.9,1333.1 1282.6,1329.1 1262.8,1297.2 1257.9,1284 1246.7,1226.5 1242.7,1210.6 1234,1173.4 
		1225.1,1165.8 	"/>
	<polygon class="st17" points="1210.3,1187.2 1205.7,1219.3 1195.4,1312.6 1193.3,1329.9 1185.5,1374.4 1195.5,1374.4 
		1279.9,1374.4 1309.9,1374.4 1281.1,1333.8 1279,1330 1260.4,1300.1 1255,1288.1 1245.1,1234.1 1241.3,1219.2 1232.6,1184.4 
		1225.2,1178.6 	"/>
	<polygon class="st18" points="1212.5,1193 1207.7,1224 1197.9,1314.4 1195.8,1331.2 1189.2,1374.4 1198.2,1374.4 1274.5,1374.4 
		1301.6,1374.4 1277.2,1334.6 1275.3,1331 1257.9,1303.1 1252.2,1292.2 1243.6,1241.6 1239.9,1227.8 1231.3,1195.4 1225.3,1191.4 	
		"/>
	<polygon class="st6" points="1293.3,1374.4 1271.7,1332 1249.4,1296.2 1242.1,1249.2 1230,1206.5 1214.7,1198.9 1209.8,1228.8 
		1200.4,1316.2 1192.8,1374.4 	"/>
	<polygon class="st5" points="1202.2,1313.3 1195.3,1374 1291.6,1374 1271.2,1333.4 1248.3,1296.6 1240.7,1253.3 1229.5,1213.3 
		1215.1,1205.7 1210.4,1232.7 	"/>
	<polygon class="st4" points="1203.9,1310.3 1197.8,1373.6 1290,1373.6 1270.6,1334.7 1247.3,1297 1239.3,1257.3 1229,1220.1 
		1215.5,1212.5 1211.1,1236.6 	"/>
	<polygon class="st3" points="1205.7,1307.4 1200.3,1373.2 1288.3,1373.2 1270.1,1336.1 1246.3,1297.4 1238,1261.4 1228.5,1226.9 
		1216,1219.4 1211.7,1240.5 	"/>
	<polygon class="st2" points="1207.5,1304.4 1202.8,1372.8 1286.6,1372.9 1269.6,1337.5 1245.2,1297.7 1236.6,1265.5 1228,1233.8 
		1216.4,1226.2 1212.4,1244.4 	"/>
	<polygon class="st1" points="1209.3,1301.4 1205.3,1372.4 1285,1372.5 1269.1,1338.9 1244.2,1298.1 1235.2,1269.6 1227.4,1240.6 
		1216.9,1233.1 1213,1248.3 	"/>
	<polygon class="st0" points="1283.3,1372.1 1268.5,1340.3 1243.2,1298.5 1233.9,1273.6 1226.9,1247.4 1217.3,1239.9 1213.6,1252.2 
		1211.1,1298.5 1207.8,1372 	"/>
	<polygon class="st0" points="1280.3,1375.4 1267.2,1342.4 1243.2,1304.1 1234.3,1280.2 1227,1254.6 1217.6,1246.8 1214.6,1261.9 
		1212.3,1304.3 1209.4,1375.3 	"/>
	<polygon class="st0" points="1277.3,1378.8 1265.9,1344.5 1243.3,1309.7 1234.7,1286.8 1227.1,1261.8 1217.9,1253.8 1215.7,1271.7 
		1213.4,1310.2 1211,1378.7 	"/>
	<polygon class="st0" points="1274.3,1382.1 1264.6,1346.6 1243.3,1315.3 1235.1,1293.4 1227.2,1269 1218.3,1260.7 1216.7,1281.4 
		1214.6,1316.1 1212.6,1382 	"/>
	<polygon class="st0" points="1271.3,1385.4 1263.3,1348.7 1243.4,1320.8 1235.6,1300 1227.3,1276.1 1218.6,1267.6 1217.7,1291.1 
		1215.8,1321.9 1214.1,1385.4 	"/>
	<polygon class="st0" points="1268.2,1388.7 1261.9,1350.8 1243.5,1326.4 1236,1306.6 1227.4,1283.3 1218.9,1274.6 1218.7,1300.8 
		1217,1327.8 1215.7,1388.7 	"/>
	<polygon class="st0" points="1265.2,1392.1 1260.6,1352.9 1243.5,1332 1236.4,1313.2 1227.5,1290.5 1219.2,1281.5 1219.7,1310.5 
		1218.1,1333.6 1217.3,1392.1 	"/>
	<polygon class="st7" points="1264.2,1393 1259.8,1354.2 1243.4,1334.7 1236.3,1317.2 1228.6,1296.8 1220.7,1288.4 1221.1,1314.4 
		1219.8,1336.1 1218.3,1393 	"/>
	<polygon class="st8" points="1263.2,1393.9 1259,1355.6 1243.3,1337.4 1236.2,1321.2 1229.8,1303 1222.2,1295.2 1222.5,1318.3 
		1221.5,1338.6 1219.3,1393.9 	"/>
	<polygon class="st9" points="1262.2,1394.9 1258.2,1356.9 1243.2,1340.1 1236,1325.2 1230.9,1309.3 1223.7,1302.1 1223.9,1322.2 
		1223.1,1341 1220.3,1394.9 	"/>
	<polygon class="st10" points="1261.2,1395.8 1257.4,1358.2 1243.1,1342.8 1235.9,1329.2 1232.1,1315.6 1225.1,1309 1225.3,1326 
		1224.8,1343.5 1221.3,1395.8 	"/>
	<polygon class="st11" points="1260.1,1396.8 1256.6,1359.6 1243,1345.4 1235.8,1333.2 1233.2,1321.9 1226.6,1315.8 1226.7,1329.9 
		1226.4,1345.9 1222.3,1396.8 	"/>
	<polygon class="st12" points="1259.1,1397.7 1255.8,1360.9 1242.9,1348.1 1235.7,1337.2 1234.4,1328.2 1228.1,1322.7 
		1228.1,1333.8 1228.1,1348.4 1223.4,1397.7 	"/>
</g>
<g>
	<path class="st12" d="M1271.3,1424.8l29.5,9.9l-2.8-11.7l-26.7-12.5l9.8-29.4c0,0-8-39.3-9.8-40.8s-24.5-35.2-24.5-35.2l-25.5-25.9
		v44.9l-6.6,33.3l11.5,20.7l-4.3,25.5l-16.3,26.8l3.6,14.7l21.1-29.4l10.1,13.5l-3.9,69.1l15.7-13l4.9-57.4l1.1-8.8L1271.3,1424.8z"
		/>
	<path class="st19" d="M1218.9,1357.8l9.3,19.2l-4.9,24.8l-16.9,28.1l3.3,13.4l21.8-30.7l9.8,16.3l-4.1,67.7l14.3-11.7l4.9-55.7
		l1-11.4l14.7,6.5l28.2,9.5l-2.6-10.6l-29.8-13.4l10.2-30c0,0-6.8-36-8.3-37.3s-22.4-30.6-22.4-30.6l-22.3-21.4l-0.7,39
		L1218.9,1357.8z"/>
	<path class="st20" d="M1223.2,1358.2l7.1,17.7l-5.6,24.1l-17.5,29.4l3.1,12.1l22.5-32l9.4,19l-4.2,66.3l12.9-10.5l5-53.9l0.9-14
		l16.3,7.4l26.9,9l-2.3-9.6l-32.8-14.3l10.5-30.7c0,0-5.5-32.7-6.7-33.7s-20.3-26.1-20.3-26.1l-19.2-16.9l-1.4,33L1223.2,1358.2z"/>
	<path class="st21" d="M1227.4,1358.5l4.8,16.1l-6.3,23.4l-18.2,30.8l2.8,10.7l23.1-33.4l9.1,21.8l-4.3,64.8l11.6-9.2l5-52.2
		l0.9-16.6l17.8,8.3l25.5,8.5l-2.1-8.5l-35.8-15.2l10.9-31.3c0,0-4.3-29.4-5.2-30.2s-18.1-21.5-18.1-21.5l-16.1-12.4l-2.1,27.1
		L1227.4,1358.5z"/>
	<path class="st22" d="M1231.7,1358.9l2.6,14.6l-7,22.7l-18.8,32.1l2.5,9.4l23.8-34.7l8.8,24.5l-4.5,63.4l10.2-8l5-50.4l0.8-19.3
		l19.4,9.2l24.2,8l-1.9-7.5l-38.8-16.1l11.2-32c0,0-3-26.2-3.6-26.7s-16-17-16-17l-13-7.9l-2.7,21.1L1231.7,1358.9z"/>
	<path class="st23" d="M1235.9,1359.3l0.4,13.1l-7.7,22.1l-19.4,33.4l2.2,8.1l24.5-36.1l8.5,27.3l-4.6,62l8.9-6.7l5.1-48.7l0.8-21.9
		l20.9,10.1l22.9,7.6l-1.7-6.4l-41.8-17l11.6-32.6c0,0-1.8-22.9-2.1-23.1s-13.9-12.4-13.9-12.4l-9.8-3.4l-3.4,15.2L1235.9,1359.3z"
		/>
	<polygon class="st24" points="1276.4,1421.4 1298,1428.5 1296.5,1423.1 1251.7,1405.2 1263.6,1371.9 1263.1,1352.3 1251.4,1344.5 
		1244.6,1345.5 1240.5,1354.8 1240.2,1359.6 1238.4,1371.2 1230.1,1392.5 1210.1,1427.3 1212,1434.1 1237.2,1396.7 1245.4,1426.7 
		1240.7,1487.3 1248.2,1481.8 1253.3,1434.9 1254,1410.4 	"/>
</g>
<g>
	<path class="st12" d="M1118.8,1421.9l-19.9,6.7l1.9-7.9l18-8.4l-6.6-19.8c0,0,5.4-26.5,6.6-27.5s16.5-23.7,16.5-23.7l17.2-17.5
		v30.3l4.5,22.4l-7.8,14l2.9,17.2l11,18.1l-2.4,9.9l-14.2-19.8l-6.8,9.1l2.6,46.6l-10.6-8.7l-3.3-38.7l-0.7-5.9L1118.8,1421.9z"/>
	<path class="st19" d="M1154.1,1376.8l-6.3,12.9l3.3,16.7l11.4,18.9l-2.3,9l-14.7-20.7l-6.6,11l2.6,40.3l-9.4-7.2l-3.4-32.9
		l-0.7-7.7l-9.9,4.4l-19,6.4l1.7-7.2l20.1-9l-6.9-20.2c0,0,4.6-24.3,5.6-25.1c1-0.8,15.1-20.7,15.1-20.7l15.1-14.4l0.5,26.3
		L1154.1,1376.8z"/>
	<path class="st20" d="M1151.2,1377l-4.8,11.9l3.8,16.3l11.8,19.8l-2.1,8.1l-15.1-21.6l-6.4,12.8l2.5,34l-8.3-5.7l-3.4-27.1
		l-0.6-9.4l-11,5l-18.1,6.1l1.6-6.4l22.1-9.6l-7.1-20.7c0,0,3.7-22.1,4.5-22.7c0.8-0.7,13.7-17.6,13.7-17.6l13-11.4l0.9,22.3
		L1151.2,1377z"/>
	<path class="st21" d="M1148.3,1377.3l-3.3,10.9l4.3,15.8l12.2,20.8l-1.9,7.2l-15.6-22.5l-6.2,14.7l2.5,27.8l-7.2-4.1l-3.5-21.3
		l-0.6-11.2l-12,5.6l-17.2,5.7l1.4-5.7l24.1-10.2l-7.3-21.1c0,0,2.9-19.8,3.5-20.4s12.2-14.5,12.2-14.5l10.8-8.4l1.4,18.3
		L1148.3,1377.3z"/>
	<path class="st22" d="M1145.4,1377.5l-1.8,9.8l4.7,15.3l12.7,21.7l-1.7,6.3l-16.1-23.4l-5.9,16.5l2.4,21.5l-6.1-2.6l-3.6-15.5
		l-0.6-13l-13.1,6.2l-16.3,5.4l1.3-5l26.2-10.8l-7.6-21.6c0,0,2-17.6,2.4-18c0.4-0.3,10.8-11.4,10.8-11.4l8.7-5.3l1.8,14.3
		L1145.4,1377.5z"/>
	<path class="st23" d="M1142.6,1377.8l-0.3,8.8l5.2,14.9l13.1,22.6l-1.5,5.5l-16.5-24.3l-5.7,18.4l2.4,15.2l-5-1l-3.7-9.8l-0.5-14.8
		l-14.1,6.8l-15.4,5.1l1.2-4.3l28.2-11.4l-7.8-22c0,0,1.2-15.4,1.4-15.6c0.2-0.2,9.4-8.4,9.4-8.4l6.6-2.3l2.3,10.2L1142.6,1377.8z"
		/>
	<polygon class="st24" points="1115.3,1419.6 1100.8,1424.4 1101.8,1420.8 1132,1408.8 1123.9,1386.3 1124.3,1373.1 1132.2,1367.8 
		1136.7,1368.5 1139.5,1374.7 1139.7,1378 1140.9,1385.8 1146.5,1400.2 1160,1423.6 1158.7,1428.2 1141.7,1403 1136.2,1423.2 
		1138.5,1432.2 1134.7,1432.7 1130.9,1428.8 1130.4,1412.2 	"/>
</g>
<g>
	<polygon class="st25" points="1230,1380.5 1215.8,1398 1174.8,1416.8 1163.3,1443.4 1159.4,1487 1173.8,1443.7 1184.3,1423.5 
		1226.2,1406.3 1236,1386.1 1246.3,1392.6 1248.3,1416.8 1264.7,1448.2 1270.8,1509.3 1296.8,1532.1 1277.8,1505.1 1279.8,1474 
		1302.1,1492.9 1289.7,1463 1275.4,1458.3 1275.4,1440.8 1258,1412.4 1260.9,1397.4 1284.3,1401.9 1302.1,1410.5 1320.2,1412 
		1332.4,1439 1329.7,1416.8 1345.4,1420.3 1352.6,1440.3 1352.6,1411.7 1333,1410.8 1317.6,1402.2 1302.4,1403.1 1287.1,1392.6 
		1242.8,1376.1 	"/>
	<polygon class="st26" points="1230,1380.5 1215.8,1398 1174.8,1416.8 1163.3,1443.4 1159.4,1487 1173.4,1443 1184.9,1422.5 
		1225.7,1405.7 1236.3,1385.3 1246.7,1391.9 1248.9,1416.5 1265.2,1446.9 1271.2,1508.6 1296.8,1532.1 1277.8,1505.1 1279.9,1472.9 
		1302.1,1492.9 1289.7,1463 1275.4,1458.3 1275.4,1440.8 1258,1412.4 1260.9,1396.6 1284.3,1401.1 1302.1,1409.9 1320.2,1411.4 
		1331.9,1437.2 1329.7,1416.1 1345.4,1419.6 1352.2,1438.1 1352.6,1411.7 1333,1410.8 1317.6,1402.2 1302.4,1403.1 1287.1,1392.6 
		1242.8,1376.1 	"/>
	<polygon class="st27" points="1230,1380.5 1215.8,1398 1174.8,1416.8 1163.3,1443.4 1159.4,1487 1173.1,1442.4 1185.4,1421.5 
		1225.2,1405.1 1236.7,1384.6 1247.1,1391.1 1249.5,1416.2 1265.6,1445.7 1271.7,1507.8 1296.8,1532.1 1277.8,1505.1 1280,1471.9 
		1302.1,1492.9 1289.7,1463 1275.4,1458.3 1275.4,1440.8 1258,1412.4 1260.9,1395.8 1284.3,1400.3 1302.1,1409.3 1320.2,1410.8 
		1331.4,1435.4 1329.7,1415.5 1345.4,1418.9 1351.8,1435.8 1352.6,1411.7 1333,1410.8 1317.6,1402.2 1302.4,1403.1 1287.1,1392.6 
		1242.8,1376.1 	"/>
	<polygon class="st28" points="1230,1380.5 1215.8,1398 1174.8,1416.8 1163.3,1443.4 1159.4,1487 1172.7,1441.7 1185.9,1420.5 
		1224.7,1404.5 1237,1383.8 1247.4,1390.4 1250.1,1415.9 1266.1,1444.5 1272.1,1507.1 1296.8,1532.1 1277.8,1505.1 1280,1470.9 
		1302.1,1492.9 1289.7,1463 1275.4,1458.3 1275.4,1440.8 1258,1412.4 1260.9,1395 1284.3,1399.5 1302.1,1408.7 1320.2,1410.2 
		1330.9,1433.6 1329.7,1414.8 1345.4,1418.3 1351.4,1433.6 1352.6,1411.7 1333,1410.8 1317.6,1402.2 1302.4,1403.1 1287.1,1392.6 
		1242.8,1376.1 	"/>
	<polygon class="st29" points="1230,1380.5 1215.8,1398 1174.8,1416.8 1163.3,1443.4 1159.4,1487 1172.3,1441 1186.5,1419.4 
		1224.2,1403.9 1237.4,1383.1 1247.8,1389.6 1250.7,1415.6 1266.5,1443.2 1272.5,1506.4 1296.8,1532.1 1277.8,1505.1 1280.1,1469.9 
		1302.1,1492.9 1289.7,1463 1275.4,1458.3 1275.4,1440.8 1258,1412.4 1260.9,1394.2 1284.3,1398.7 1302.1,1408.1 1320.2,1409.6 
		1330.4,1431.8 1329.7,1414.2 1345.4,1417.6 1351,1431.4 1352.6,1411.7 1333,1410.8 1317.6,1402.2 1302.4,1403.1 1287.1,1392.6 
		1242.8,1376.1 	"/>
	<polygon class="st22" points="1230,1380.5 1215.8,1398 1174.8,1416.8 1163.3,1443.4 1159.4,1487 1172,1440.3 1187,1418.4 
		1223.7,1403.3 1237.7,1382.3 1248.1,1388.9 1251.3,1415.3 1267,1442 1272.9,1505.6 1296.8,1532.1 1277.8,1505.1 1280.2,1468.9 
		1302.1,1492.9 1289.7,1463 1275.4,1458.3 1275.4,1440.8 1258,1412.4 1260.9,1393.4 1284.3,1397.9 1302.1,1407.5 1320.2,1409 
		1329.8,1430.1 1329.7,1413.5 1345.4,1417 1350.6,1429.2 1352.6,1411.7 1333,1410.8 1317.6,1402.2 1302.4,1403.1 1287.1,1392.6 
		1242.8,1376.1 	"/>
	<polygon class="st24" points="1230,1380.5 1215.8,1398 1174.8,1416.8 1163.3,1443.4 1159.4,1487 1171.7,1439.7 1187.6,1417.4 
		1223.2,1402.7 1238.1,1381.6 1248.5,1388.1 1251.9,1415 1267.4,1440.8 1273.3,1504.9 1296.8,1532.1 1277.8,1505.1 1280.2,1467.8 
		1302.1,1492.9 1289.7,1463 1275.4,1458.3 1275.4,1440.8 1258,1412.4 1260.9,1392.6 1284.3,1397.1 1302.1,1406.9 1320.2,1408.4 
		1329.3,1428.3 1329.7,1412.8 1345.4,1416.3 1350.2,1427 1352.6,1411.7 1333,1410.8 1317.6,1402.2 1302.4,1403.1 1287.1,1392.6 
		1242.8,1376.1 	"/>
</g>
<g>
	<polygon class="st25" points="1138.6,1380 1170.8,1399 1186.9,1409.2 1196.3,1418.6 1190.3,1421.1 1177.2,1411.3 1146.4,1392.1 
		1142.7,1409.2 1151.4,1437.4 1165.8,1456.6 1170.8,1497.1 1160,1463.5 1154.7,1478.8 1155.9,1457.2 1149.9,1445.2 1137.1,1411 
		1119.7,1434.7 1114.6,1456 1102.8,1465.6 1110,1454.8 1113.9,1431.1 1131,1405.9 1114.4,1399.2 1093.1,1406.5 1117.2,1390.6 
		1133.4,1398.7 	"/>
	<polygon class="st26" points="1138.6,1380 1170.8,1399 1186.9,1409.2 1195.8,1418 1189.9,1420.4 1177.6,1410.8 1146.3,1391.6 
		1142.1,1408.9 1151.4,1437.4 1165.8,1456.6 1170.8,1497.1 1160.3,1462.8 1154.7,1478.8 1156,1456.2 1150.1,1444.6 1136.9,1410.7 
		1119.4,1434.4 1114.3,1455.7 1102.8,1465.6 1110,1454.8 1113.9,1431.1 1131.3,1405.5 1114.6,1398.6 1093.1,1406.5 1117.2,1390.6 
		1133.4,1398.7 	"/>
	<polygon class="st27" points="1138.6,1380 1170.8,1399 1186.9,1409.2 1195.3,1417.4 1189.6,1419.8 1178,1410.2 1146.3,1391.1 
		1141.5,1408.6 1151.4,1437.4 1165.8,1456.6 1170.8,1497.1 1160.6,1462 1154.7,1478.8 1156.1,1455.2 1150.2,1444 1136.8,1410.4 
		1119.1,1434.2 1114,1455.5 1102.8,1465.6 1110,1454.8 1113.9,1431.1 1131.6,1405 1114.9,1398.1 1093.1,1406.5 1117.2,1390.6 
		1133.4,1398.7 	"/>
	<polygon class="st28" points="1138.6,1380 1170.8,1399 1186.9,1409.2 1194.8,1416.8 1189.3,1419.1 1178.4,1409.7 1146.2,1390.6 
		1140.8,1408.2 1151.4,1437.4 1165.8,1456.6 1170.8,1497.1 1160.8,1461.3 1154.7,1478.8 1156.1,1454.2 1150.3,1443.4 1136.7,1410.1 
		1118.9,1433.9 1113.7,1455.2 1102.8,1465.6 1110,1454.8 1113.9,1431.1 1131.9,1404.6 1115.1,1397.5 1093.1,1406.5 1117.2,1390.6 
		1133.4,1398.7 	"/>
	<polygon class="st29" points="1138.6,1380 1170.8,1399 1186.9,1409.2 1194.4,1416.2 1188.9,1418.5 1178.7,1409.1 1146.2,1390.1 
		1140.2,1407.9 1151.4,1437.4 1165.8,1456.6 1170.8,1497.1 1161.1,1460.6 1154.7,1478.8 1156.2,1453.1 1150.4,1442.8 1136.5,1409.8 
		1118.6,1433.7 1113.4,1454.9 1102.8,1465.6 1110,1454.8 1113.9,1431.1 1132.2,1404.1 1115.4,1396.9 1093.1,1406.5 1117.2,1390.6 
		1133.4,1398.7 	"/>
	<polygon class="st22" points="1138.6,1380 1170.8,1399 1186.9,1409.2 1193.9,1415.6 1188.6,1417.8 1179.1,1408.6 1146.1,1389.7 
		1139.6,1407.6 1151.4,1437.4 1165.8,1456.6 1170.8,1497.1 1161.3,1459.8 1154.7,1478.8 1156.2,1452.1 1150.6,1442.3 1136.4,1409.5 
		1118.3,1433.4 1113.1,1454.7 1102.8,1465.6 1110,1454.8 1113.9,1431.1 1132.5,1403.7 1115.6,1396.4 1093.1,1406.5 1117.2,1390.6 
		1133.4,1398.7 	"/>
	<polygon class="st24" points="1138.6,1380 1170.8,1399 1186.9,1409.2 1193.4,1415 1188.2,1417.2 1179.5,1408 1146.1,1389.2 
		1138.9,1407.3 1151.4,1437.4 1165.8,1456.6 1170.8,1497.1 1161.6,1459.1 1154.7,1478.8 1156.3,1451.1 1150.7,1441.7 1136.3,1409.2 
		1118.1,1433.2 1112.8,1454.4 1102.8,1465.6 1110,1454.8 1113.9,1431.1 1132.8,1403.2 1115.9,1395.8 1093.1,1406.5 1117.2,1390.6 
		1133.4,1398.7 	"/>
</g>
</svg>
