<svg xmlns="http://www.w3.org/2000/svg" viewBox="0 0 120 82.6"><defs><style>.cls-1,.cls-14,.cls-15,.cls-16,.cls-17,.cls-18,.cls-19,.cls-20{fill:#5e6614;}.cls-2{fill:#555912;}.cls-3{fill:#4c4b11;}.cls-4{fill:#433e10;}.cls-5{fill:#3a310e;}.cls-6{fill:#31230d;}.cls-7{fill:#28160b;}.cls-8{fill:#25140a;}.cls-9{fill:#221309;}.cls-10{fill:#1f1109;}.cls-11{fill:#1c0f08;}.cls-12{fill:#190e07;}.cls-13{fill:#160c06;}.cls-14{opacity:0.5;}.cls-14,.cls-15,.cls-16,.cls-17,.cls-18,.cls-19,.cls-20{isolation:isolate;}.cls-15{opacity:0.55;}.cls-16{opacity:0.61;}.cls-17{opacity:0.66;}.cls-18{opacity:0.71;}.cls-19{opacity:0.77;}.cls-20{opacity:0.82;}</style></defs><title>1</title><g id="Layer_2" data-name="Layer 2"><g id="Layer_1-2" data-name="Layer 1"><polygon class="cls-1" points="0 0 0 45.5 60 69.7 91.8 43 120 34.8 120 0 0 0"/><polygon class="cls-2" points="1 2.8 1 18.4 0 25 0 45.5 60 69.7 91.8 43 120 34.8 120 26.4 118.5 17.9 118.5 2.1 114.3 2.1 111.2 4 108.7 4 104.7 1.6 100.5 1.6 93.6 5.8 90.1 5.8 84.8 2.5 81.1 2.5 71.8 8.1 68.4 8.1 57.9 1.8 54.6 1.8 49.6 4.8 46.3 4.8 43.5 3.1 39.6 3.1 33.9 6.5 30.6 6.5 23.2 2 18.3 2 12.1 5.8 8.6 5.8 3.6 2.8 1 2.8"/><polygon class="cls-3" points="2 5.6 2 20.5 0 25.8 0 45.5 60 69.7 91.8 43 120 34.8 120 26.6 117 19.8 117 4.2 111.7 4.2 109.2 8 106.1 8 102.9 3.2 97.6 3.2 92.1 11.6 87.8 11.6 83.5 5.1 78.8 5.1 71.4 16.3 67.1 16.3 58.7 3.6 54.6 3.6 50.5 9.7 46.4 9.7 44.2 6.3 39.3 6.3 34.8 13.1 30.6 13.1 24.6 4.1 18.6 4.1 13.6 11.6 9.2 11.6 5.2 5.6 2 5.6"/><polygon class="cls-4" points="3 8.4 3 22.7 0 26.7 0 45.5 60 69.7 91.8 43 120 34.8 120 26.7 115.5 21.6 115.5 6.3 109.1 6.3 107.3 12 103.4 12 101.1 4.8 94.7 4.8 90.6 17.4 85.4 17.4 82.2 7.7 76.5 7.7 71 24.4 65.8 24.4 59.5 5.5 54.5 5.5 51.5 14.6 46.5 14.6 44.8 9.5 39 9.5 35.6 19.7 30.6 19.7 26.1 6.2 18.8 6.2 15.1 17.4 9.9 17.4 6.9 8.4 3 8.4"/><polygon class="cls-5" points="4 11.2 4 24.9 0 27.5 0 45.5 60 69.7 91.8 43 120 34.8 120 26.9 113.9 23.5 113.9 8.4 106.5 8.4 105.3 16 100.8 16 99.2 6.4 91.8 6.4 89.1 23.2 83 23.2 80.8 10.3 74.2 10.3 70.6 32.5 64.5 32.5 60.3 7.3 54.5 7.3 52.5 19.5 46.6 19.5 45.5 12.7 38.7 12.7 36.4 26.2 30.6 26.2 27.6 8.3 19.1 8.3 16.6 23.2 10.5 23.2 8.5 11.2 4 11.2"/><polygon class="cls-6" points="5 14 5 27.1 0 28.4 0 45.5 60 69.7 91.8 43 120 34.8 120 27 112.4 25.3 112.4 10.6 104 10.6 103.3 20.1 98.2 20.1 97.4 8 88.9 8 87.6 29 80.6 29 79.5 12.9 72 12.9 70.1 40.7 63.2 40.7 61.1 9.2 54.4 9.2 53.4 24.4 46.8 24.4 46.2 15.9 38.3 15.9 37.2 32.8 30.6 32.8 29.1 10.3 19.4 10.3 18.1 29 11.2 29 10.2 14 5 14"/><polygon class="cls-7" points="120 27.1 110.9 27.1 110.9 12.7 101.4 12.7 101.4 24.1 95.6 24.1 95.6 9.6 86 9.6 86 34.8 78.2 34.8 78.2 15.5 69.7 15.5 69.7 48.8 61.9 48.8 61.9 11 54.4 11 54.4 29.2 46.9 29.2 46.9 19.1 38 19.1 38 39.4 30.6 39.4 30.6 12.4 19.7 12.4 19.7 34.8 11.8 34.8 11.8 16.9 6 16.9 6 29.2 0 29.2 0 45.5 60 69.7 91.8 43 120 34.8 120 27.1"/><polygon class="cls-8" points="120 28.4 110.9 28.4 110.9 15.4 101.4 15.4 101.4 25.6 95.6 25.6 95.6 12.6 86 12.6 86 35.3 78.2 35.3 78.2 17.9 69.7 17.9 69.7 48 61.9 48 61.9 13.9 54.4 13.9 54.4 30.3 46.9 30.3 46.9 21.1 38 21.1 38 39.5 30.6 39.5 30.6 15.1 19.7 15.1 19.7 35.3 11.8 35.3 11.8 19.1 6 19.1 6 30.3 0 30.3 0 45 60 66.8 91.8 42.7 120 35.3 120 28.4"/><polygon class="cls-9" points="120 29.7 110.9 29.7 110.9 18 101.4 18 101.4 27.2 95.6 27.2 95.6 15.6 86 15.6 86 35.9 78.2 35.9 78.2 20.3 69.7 20.3 69.7 47.1 61.9 47.1 61.9 16.7 54.4 16.7 54.4 31.4 46.9 31.4 46.9 23.2 38 23.2 38 39.5 30.6 39.5 30.6 17.8 19.7 17.8 19.7 35.9 11.8 35.9 11.8 21.4 6 21.4 6 31.4 0 31.4 0 44.5 60 63.9 91.8 42.4 120 35.9 120 29.7"/><polygon class="cls-10" points="120 30.9 110.9 30.9 110.9 20.7 101.4 20.7 101.4 28.8 95.6 28.8 95.6 18.5 86 18.5 86 36.4 78.2 36.4 78.2 22.7 69.7 22.7 69.7 46.3 61.9 46.3 61.9 19.5 54.4 19.5 54.4 32.4 46.9 32.4 46.9 25.2 38 25.2 38 39.6 30.6 39.6 30.6 20.5 19.7 20.5 19.7 36.4 11.8 36.4 11.8 23.6 6 23.6 6 32.4 0 32.4 0 43.9 60 61.1 91.8 42.2 120 36.4 120 30.9"/><polygon class="cls-11" points="120 32.2 110.9 32.2 110.9 23.4 101.4 23.4 101.4 30.3 95.6 30.3 95.6 21.5 86 21.5 86 36.9 78.2 36.9 78.2 25.1 69.7 25.1 69.7 45.5 61.9 45.5 61.9 22.3 54.4 22.3 54.4 33.5 46.9 33.5 46.9 27.3 38 27.3 38 39.7 30.6 39.7 30.6 23.2 19.7 23.2 19.7 36.9 11.8 36.9 11.8 25.9 6 25.9 6 33.5 0 33.5 0 43.4 60 58.2 91.8 41.9 120 36.9 120 32.2"/><polygon class="cls-12" points="120 33.5 110.9 33.5 110.9 26 101.4 26 101.4 31.9 95.6 31.9 95.6 24.5 86 24.5 86 37.4 78.2 37.4 78.2 27.5 69.7 27.5 69.7 44.6 61.9 44.6 61.9 25.2 54.4 25.2 54.4 34.5 46.9 34.5 46.9 29.3 38 29.3 38 39.7 30.6 39.7 30.6 25.9 19.7 25.9 19.7 37.4 11.8 37.4 11.8 28.2 6 28.2 6 34.5 0 34.5 0 42.9 60 55.3 91.8 41.6 120 37.4 120 33.5"/><polygon class="cls-13" points="120 34.7 110.9 34.7 110.9 28.7 101.4 28.7 101.4 33.4 95.6 33.4 95.6 27.4 86 27.4 86 37.9 78.2 37.9 78.2 29.9 69.7 29.9 69.7 43.8 61.9 43.8 61.9 28 54.4 28 54.4 35.6 46.9 35.6 46.9 31.4 38 31.4 38 39.8 30.6 39.8 30.6 28.6 19.7 28.6 19.7 37.9 11.8 37.9 11.8 30.4 6 30.4 6 35.6 0 35.6 0 42.4 60 52.4 91.8 41.3 120 37.9 120 34.7"/><polyline class="cls-14" points="73.6 0 0 0 0 68.9 5.3 68.9 5.3 4.7 10.5 4.7 10.5 82.6 15.8 82.6 15.8 42.4 25 42.4 25 6.6 41.4 6.6 41.4 60 50.1 60 50.1 4.4 58.2 4.4 58.2 51.6 63.6 51.6 63.6 2.8 68.7 2.8 68.7 63.4 73.6 63.4 73.6 0"/><polyline class="cls-15" points="73.6 0 0 0 0 58.4 5.3 58.4 5.3 4.1 10.5 4.1 10.5 69.6 15.8 69.6 15.8 35.9 25 35.9 25 6 41.4 6 41.4 50.7 50.1 50.7 50.1 4 58.2 4 58.2 43.5 63.6 43.5 63.6 2.6 68.7 2.6 68.7 53.5 73.6 53.5 73.6 0"/><polyline class="cls-16" points="73.6 0 0 0 0 47.9 5.3 47.9 5.3 3.5 10.5 3.5 10.5 56.6 15.8 56.6 15.8 29.3 25 29.3 25 5.3 41.4 5.3 41.4 41.5 50.1 41.5 50.1 3.7 58.2 3.7 58.2 35.3 63.6 35.3 63.6 2.4 68.7 2.4 68.7 43.5 73.6 43.5 73.6 0"/><polyline class="cls-17" points="73.6 0 0 0 0 37.3 5.3 37.3 5.3 2.8 10.5 2.8 10.5 43.6 15.8 43.6 15.8 22.8 25 22.8 25 4.7 41.4 4.7 41.4 32.2 50.1 32.2 50.1 3.3 58.2 3.3 58.2 27.2 63.6 27.2 63.6 2.2 68.7 2.2 68.7 33.6 73.6 33.6 73.6 0"/><polyline class="cls-18" points="73.6 0 0 0 0 26.8 5.3 26.8 5.3 2.2 10.5 2.2 10.5 30.6 15.8 30.6 15.8 16.2 25 16.2 25 4 41.4 4 41.4 23 50.1 23 50.1 3 58.2 3 58.2 19 63.6 19 63.6 2 68.7 2 68.7 23.6 73.6 23.6 73.6 0"/><polyline class="cls-19" points="73.6 0 0 0 0 16.3 5.3 16.3 5.3 1.6 10.5 1.6 10.5 17.6 15.8 17.6 15.8 9.7 25 9.7 25 3.4 41.4 3.4 41.4 13.7 50.1 13.7 50.1 2.6 58.2 2.6 58.2 10.9 63.6 10.9 63.6 1.8 68.7 1.8 68.7 13.6 73.6 13.6 73.6 0"/><polyline class="cls-20" points="73.6 0 0 0 0 5.7 5.3 5.7 5.3 1 10.5 1 10.5 4.6 15.8 4.6 15.8 3.2 25 3.2 25 2.8 41.4 2.8 41.4 4.5 50.1 4.5 50.1 2.3 58.2 2.3 58.2 2.7 63.6 2.7 63.6 1.6 68.7 1.6 68.7 3.7 73.6 3.7 73.6 0"/></g></g></svg>