<svg xmlns="http://www.w3.org/2000/svg" viewBox="0 0 120 85.3"><defs><style>.cls-1,.cls-14,.cls-15,.cls-16,.cls-17,.cls-18,.cls-19,.cls-20{fill:#5e6614;}.cls-2{fill:#555912;}.cls-3{fill:#4c4b11;}.cls-4{fill:#433e10;}.cls-5{fill:#3a310e;}.cls-6{fill:#31230d;}.cls-7{fill:#28160b;}.cls-8{fill:#25140a;}.cls-9{fill:#221309;}.cls-10{fill:#1f1109;}.cls-11{fill:#1c0f08;}.cls-12{fill:#190e07;}.cls-13{fill:#160c06;}.cls-14{opacity:0.5;}.cls-14,.cls-15,.cls-16,.cls-17,.cls-18,.cls-19,.cls-20{isolation:isolate;}.cls-15{opacity:0.55;}.cls-16{opacity:0.61;}.cls-17{opacity:0.66;}.cls-18{opacity:0.71;}.cls-19{opacity:0.77;}.cls-20{opacity:0.82;}</style></defs><title>2</title><g id="Layer_2" data-name="Layer 2"><g id="Layer_1-2" data-name="Layer 1"><polygon class="cls-1" points="120 0 120 55.7 60 85.3 28.2 52.7 0 42.7 0 0 120 0"/><polygon class="cls-2" points="1.5 2.6 5.3 2.6 8.6 4.9 10.9 4.9 15.1 1.9 18.9 1.9 26.2 7.1 29.4 7.1 35 3.1 38.4 3.1 48.2 9.9 51.3 9.9 62.4 2.2 65.4 2.2 70.7 5.9 73.7 5.9 76.7 3.9 80.3 3.9 86.2 8 89.2 8 97.2 2.5 101.6 2.5 108.2 7.1 111.4 7.1 116.6 3.4 119 3.4 119 23.1 120 29.9 120 55.7 60 85.3 28.2 52.7 0 42.7 0 31.9 1.5 22.9 1.5 2.6"/><polygon class="cls-3" points="3 5.2 8 5.2 10.6 9.8 13.6 9.8 17 3.9 21.9 3.9 27.8 14.2 31.9 14.2 36.4 6.3 40.8 6.3 48.6 19.9 52.7 19.9 61.6 4.5 65.5 4.5 69.7 11.9 73.6 11.9 76 7.8 80.6 7.8 85.4 16.1 89.3 16.1 95.6 5.1 101.3 5.1 106.6 14.2 110.7 14.2 114.9 6.9 118 6.9 118 25.6 120 31.1 120 55.7 60 85.3 28.2 52.7 0 42.7 0 32.2 3 25 3 5.2"/><polygon class="cls-4" points="4.5 7.8 10.7 7.8 12.6 14.7 16.3 14.7 18.8 5.9 24.9 5.9 29.3 21.3 34.4 21.3 37.7 9.5 43.2 9.5 49 29.9 54.1 29.9 60.7 6.7 65.5 6.7 68.7 17.9 73.5 17.9 75.2 11.7 80.9 11.7 84.5 24.1 89.3 24.1 94.1 7.6 101.1 7.6 105 21.3 110.1 21.3 113.2 10.3 117 10.3 117 28.2 120 32.2 120 55.7 60 85.3 28.2 52.7 0 42.7 0 32.4 4.5 27.1 4.5 7.8"/><polygon class="cls-5" points="6.1 10.4 13.3 10.4 14.6 19.7 19 19.7 20.7 7.9 27.9 7.9 30.9 28.4 36.8 28.4 39.1 12.6 45.6 12.6 49.4 39.9 55.4 39.9 59.8 9 65.5 9 67.7 23.9 73.4 23.9 74.5 15.6 81.3 15.6 83.7 32.1 89.4 32.1 92.5 10.1 100.8 10.1 103.5 28.4 109.4 28.4 111.6 13.8 116 13.8 116 30.7 120 33.4 120 55.7 60 85.3 28.2 52.7 0 42.7 0 32.7 6.1 29.1 6.1 10.4"/><polygon class="cls-6" points="7.6 12.9 16 12.9 16.6 24.6 21.7 24.6 22.6 9.8 30.9 9.8 32.4 35.5 39.3 35.5 40.4 15.8 47.9 15.8 49.9 49.8 56.8 49.8 59 11.3 65.6 11.3 66.6 29.8 73.2 29.8 73.8 19.5 81.6 19.5 82.8 40.2 89.4 40.2 91 12.7 100.6 12.7 101.9 35.5 108.8 35.5 109.9 17.2 114.9 17.2 114.9 33.3 120 34.6 120 55.7 60 85.3 28.2 52.7 0 42.7 0 33 7.6 31.2 7.6 12.9"/><polygon class="cls-7" points="0 33.3 9.1 33.3 9.1 15.6 18.6 15.6 18.6 29.5 24.4 29.5 24.4 11.8 33.9 11.8 33.9 42.7 41.8 42.7 41.8 19 50.3 19 50.3 59.8 58.1 59.8 58.1 13.5 65.6 13.5 65.6 35.8 73.1 35.8 73.1 23.4 81.9 23.4 81.9 48.2 89.4 48.2 89.4 15.2 100.3 15.2 100.3 42.7 108.2 42.7 108.2 20.7 113.9 20.7 113.9 35.8 120 35.8 120 55.7 60 85.3 28.2 52.7 0 42.7 0 33.3"/><polygon class="cls-8" points="0 34.8 9.1 34.8 9.1 18.8 18.6 18.8 18.6 31.4 24.4 31.4 24.4 15.4 33.9 15.4 33.9 43.3 41.8 43.3 41.8 21.9 50.3 21.9 50.3 58.8 58.1 58.8 58.1 17 65.6 17 65.6 37.1 73.1 37.1 73.1 25.9 81.9 25.9 81.9 48.3 89.4 48.3 89.4 18.5 100.3 18.5 100.3 43.3 108.2 43.3 108.2 23.4 113.9 23.4 113.9 37.1 120 37.1 120 55.1 60 81.8 28.2 52.3 0 43.3 0 34.8"/><polygon class="cls-9" points="0 36.3 9.1 36.3 9.1 22.1 18.6 22.1 18.6 33.3 24.4 33.3 24.4 19.1 33.9 19.1 33.9 43.9 41.8 43.9 41.8 24.8 50.3 24.8 50.3 57.7 58.1 57.7 58.1 20.4 65.6 20.4 65.6 38.4 73.1 38.4 73.1 28.4 81.9 28.4 81.9 48.4 89.4 48.4 89.4 21.8 100.3 21.8 100.3 43.9 108.2 43.9 108.2 26.2 113.9 26.2 113.9 38.4 120 38.4 120 54.4 60 78.3 28.2 52 0 43.9 0 36.3"/><polygon class="cls-10" points="0 37.9 9.1 37.9 9.1 25.3 18.6 25.3 18.6 35.2 24.4 35.2 24.4 22.7 33.9 22.7 33.9 44.6 41.8 44.6 41.8 27.8 50.3 27.8 50.3 56.7 58.1 56.7 58.1 23.9 65.6 23.9 65.6 39.7 73.1 39.7 73.1 30.9 81.9 30.9 81.9 48.5 89.4 48.5 89.4 25.1 100.3 25.1 100.3 44.6 108.2 44.6 108.2 29 113.9 29 113.9 39.7 120 39.7 120 53.8 60 74.8 28.2 51.6 0 44.6 0 37.9"/><polygon class="cls-11" points="0 39.4 9.1 39.4 9.1 28.6 18.6 28.6 18.6 37.2 24.4 37.2 24.4 26.3 33.9 26.3 33.9 45.2 41.8 45.2 41.8 30.7 50.3 30.7 50.3 55.7 58.1 55.7 58.1 27.4 65.6 27.4 65.6 41 73.1 41 73.1 33.4 81.9 33.4 81.9 48.6 89.4 48.6 89.4 28.4 100.3 28.4 100.3 45.2 108.2 45.2 108.2 31.7 113.9 31.7 113.9 41 120 41 120 53.2 60 71.3 28.2 51.3 0 45.2 0 39.4"/><polygon class="cls-12" points="0 41 9.1 41 9.1 31.9 18.6 31.9 18.6 39.1 24.4 39.1 24.4 30 33.9 30 33.9 45.8 41.8 45.8 41.8 33.6 50.3 33.6 50.3 54.6 58.1 54.6 58.1 30.8 65.6 30.8 65.6 42.3 73.1 42.3 73.1 35.9 81.9 35.9 81.9 48.7 89.4 48.7 89.4 31.7 100.3 31.7 100.3 45.8 108.2 45.8 108.2 34.5 113.9 34.5 113.9 42.3 120 42.3 120 52.5 60 67.8 28.2 51 0 45.8 0 41"/><polygon class="cls-13" points="0 42.5 9.1 42.5 9.1 35.2 18.6 35.2 18.6 41 24.4 41 24.4 33.6 33.9 33.6 33.9 46.4 41.8 46.4 41.8 36.6 50.3 36.6 50.3 53.6 58.1 53.6 58.1 34.3 65.6 34.3 65.6 43.6 73.1 43.6 73.1 38.4 81.9 38.4 81.9 48.8 89.4 48.8 89.4 35 100.3 35 100.3 46.4 108.2 46.4 108.2 37.3 113.9 37.3 113.9 43.6 120 43.6 120 51.9 60 64.2 28.2 50.6 0 46.4 0 42.5"/><polyline class="cls-14" points="120 0 35.8 0 35.8 71.2 41.9 71.2 41.9 4.8 47.8 4.8 47.8 85.3 53.9 85.3 53.9 43.8 64.4 43.8 64.4 6.8 83.2 6.8 83.2 62 93.2 62 93.2 4.5 102.4 4.5 102.4 53.3 108.6 53.3 108.6 2.9 114.4 2.9 114.4 65.5 120 65.5 120 0"/><polyline class="cls-15" points="120 0 35.8 0 35.8 60.3 41.9 60.3 41.9 4.2 47.8 4.2 47.8 71.9 53.9 71.9 53.9 37.1 64.4 37.1 64.4 6.2 83.2 6.2 83.2 52.4 93.2 52.4 93.2 4.2 102.4 4.2 102.4 44.9 108.6 44.9 108.6 2.7 114.4 2.7 114.4 55.2 120 55.2 120 0"/><polyline class="cls-16" points="120 0 35.8 0 35.8 49.4 41.9 49.4 41.9 3.6 47.8 3.6 47.8 58.5 53.9 58.5 53.9 30.3 64.4 30.3 64.4 5.5 83.2 5.5 83.2 42.8 93.2 42.8 93.2 3.8 102.4 3.8 102.4 36.5 108.6 36.5 108.6 2.5 114.4 2.5 114.4 44.9 120 44.9 120 0"/><polyline class="cls-17" points="120 0 35.8 0 35.8 38.6 41.9 38.6 41.9 2.9 47.8 2.9 47.8 45 53.9 45 53.9 23.5 64.4 23.5 64.4 4.8 83.2 4.8 83.2 33.3 93.2 33.3 93.2 3.4 102.4 3.4 102.4 28.1 108.6 28.1 108.6 2.3 114.4 2.3 114.4 34.7 120 34.7 120 0"/><polyline class="cls-18" points="120 0 35.8 0 35.8 27.7 41.9 27.7 41.9 2.3 47.8 2.3 47.8 31.6 53.9 31.6 53.9 16.8 64.4 16.8 64.4 4.2 83.2 4.2 83.2 23.7 93.2 23.7 93.2 3.1 102.4 3.1 102.4 19.7 108.6 19.7 108.6 2.1 114.4 2.1 114.4 24.4 120 24.4 120 0"/><polyline class="cls-19" points="120 0 35.8 0 35.8 16.8 41.9 16.8 41.9 1.7 47.8 1.7 47.8 18.2 53.9 18.2 53.9 10 64.4 10 64.4 3.5 83.2 3.5 83.2 14.2 93.2 14.2 93.2 2.7 102.4 2.7 102.4 11.2 108.6 11.2 108.6 1.8 114.4 1.8 114.4 14.1 120 14.1 120 0"/><polyline class="cls-20" points="120 0 35.8 0 35.8 5.9 41.9 5.9 41.9 1 47.8 1 47.8 4.8 53.9 4.8 53.9 3.3 64.4 3.3 64.4 2.8 83.2 2.8 83.2 4.6 93.2 4.6 93.2 2.4 102.4 2.4 102.4 2.8 108.6 2.8 108.6 1.6 114.4 1.6 114.4 3.8 120 3.8 120 0"/></g></g></svg>