<svg xmlns="http://www.w3.org/2000/svg" viewBox="0 0 120 101.3"><defs><style>.cls-1,.cls-14,.cls-15,.cls-16,.cls-17,.cls-18,.cls-19,.cls-20{fill:#5e6614;}.cls-2{fill:#555912;}.cls-3{fill:#4c4b11;}.cls-4{fill:#433e10;}.cls-5{fill:#3a310e;}.cls-6{fill:#31230d;}.cls-7{fill:#28160b;}.cls-8{fill:#25140a;}.cls-9{fill:#221309;}.cls-10{fill:#1f1109;}.cls-11{fill:#1c0f08;}.cls-12{fill:#190e07;}.cls-13{fill:#160c06;}.cls-14{opacity:0.5;}.cls-14,.cls-15,.cls-16,.cls-17,.cls-18,.cls-19,.cls-20{isolation:isolate;}.cls-15{opacity:0.55;}.cls-16{opacity:0.61;}.cls-17{opacity:0.66;}.cls-18{opacity:0.71;}.cls-19{opacity:0.77;}.cls-20{opacity:0.82;}</style></defs><title>3</title><g id="Layer_2" data-name="Layer 2"><g id="Layer_1-2" data-name="Layer 1"><polygon class="cls-1" points="0 0 0 55.8 60 85.4 91.8 52.7 120 42.7 120 0 0 0"/><polygon class="cls-2" points="1 3.5 1 23.1 0 30 0 55.8 60 85.4 91.8 52.7 120 42.7 120 32 118.5 23 118.5 2.7 114.7 2.7 111.4 5 109.1 5 104.9 2 101 2 93.7 7.2 90.6 7.2 84.9 3.2 81.5 3.2 71.8 10 68.7 10 57.6 2.3 54.6 2.3 49.2 6 46.3 6 43.3 4 39.7 4 33.8 8.1 30.7 8.1 22.8 2.6 18.4 2.6 11.8 7.2 8.6 7.2 3.4 3.5 1 3.5"/><polygon class="cls-3" points="2 7 2 25.7 0 31.1 0 55.8 60 85.4 91.8 52.7 120 42.7 120 32.2 117 25.1 117 5.2 112 5.2 109.4 9.9 106.4 9.9 103 4 98 4 92.2 14.3 88.1 14.3 83.6 6.4 79.2 6.4 71.4 20 67.3 20 58.4 4.6 54.5 4.6 50.3 12 46.4 12 44 7.9 39.4 7.9 34.6 16.1 30.7 16.1 24.4 5.1 18.7 5.1 13.4 14.3 9.2 14.3 5 7 2 7"/><polygon class="cls-4" points="3 10.4 3 28.2 0 32.3 0 55.8 60 85.4 91.8 52.7 120 42.7 120 32.5 115.4 27.2 115.4 7.8 109.3 7.8 107.4 14.8 103.7 14.8 101.2 6 95 6 90.7 21.4 85.6 21.4 82.3 9.5 76.8 9.5 70.9 30 65.9 30 59.3 6.8 54.5 6.8 51.3 18 46.5 18 44.7 11.8 39 11.8 35.5 24.2 30.7 24.2 25.9 7.7 18.9 7.7 14.9 21.4 9.9 21.4 6.7 10.4 3 10.4"/><polygon class="cls-5" points="4 13.9 4 30.8 0 33.5 0 55.8 60 85.4 91.8 52.7 120 42.7 120 32.8 113.9 29.2 113.9 10.4 106.7 10.4 105.4 19.7 101 19.7 99.3 8 92 8 89.1 28.5 83.2 28.5 80.9 12.7 74.4 12.7 70.5 40 64.6 40 60.2 9.1 54.4 9.1 52.3 24 46.6 24 45.4 15.7 38.7 15.7 36.3 32.2 30.6 32.2 27.5 10.2 19.2 10.2 16.5 28.5 10.5 28.5 8.4 13.9 4 13.9"/><polygon class="cls-6" points="5 17.3 5 33.3 0 34.7 0 55.8 60 85.4 91.8 52.7 120 42.7 120 33.1 112.4 31.3 112.4 13 104 13 103.4 24.7 98.3 24.7 97.4 9.9 89 9.9 87.6 35.6 80.7 35.6 79.5 15.9 72.1 15.9 70.1 49.9 63.2 49.9 61 11.3 54.4 11.3 53.4 29.9 46.8 29.9 46.2 19.6 38.4 19.6 37.2 40.3 30.6 40.3 29 12.8 19.4 12.8 18.1 35.6 11.2 35.6 10.1 17.3 5 17.3"/><polygon class="cls-7" points="120 33.3 110.9 33.3 110.9 15.6 101.4 15.6 101.4 29.6 95.6 29.6 95.6 11.9 86 11.9 86 42.7 78.2 42.7 78.2 19 69.7 19 69.7 59.9 61.9 59.9 61.9 13.6 54.4 13.6 54.4 35.9 46.9 35.9 46.9 23.5 38 23.5 38 48.3 30.5 48.3 30.5 15.3 19.7 15.3 19.7 42.7 11.8 42.7 11.8 20.7 6 20.7 6 35.9 0 35.9 0 55.8 60 85.4 91.8 52.7 120 42.7 120 33.3"/><polygon class="cls-8" points="120 34.9 110.9 34.9 110.9 18.9 101.4 18.9 101.4 31.5 95.6 31.5 95.6 15.5 86 15.5 86 43.4 78.2 43.4 78.2 22 69.7 22 69.7 58.9 61.9 58.9 61.9 17.1 54.4 17.1 54.4 37.2 46.9 37.2 46.9 26 38 26 38 48.4 30.5 48.4 30.5 18.6 19.7 18.6 19.7 43.4 11.8 43.4 11.8 23.5 6 23.5 6 37.2 0 37.2 0 55.2 60 81.9 91.8 52.4 120 43.4 120 34.9"/><polygon class="cls-9" points="120 36.4 110.9 36.4 110.9 22.2 101.4 22.2 101.4 33.4 95.6 33.4 95.6 19.2 86 19.2 86 44 78.2 44 78.2 24.9 69.7 24.9 69.7 57.8 61.9 57.8 61.9 20.5 54.4 20.5 54.4 38.5 46.9 38.5 46.9 28.5 38 28.5 38 48.5 30.5 48.5 30.5 21.9 19.7 21.9 19.7 44 11.8 44 11.8 26.3 6 26.3 6 38.5 0 38.5 0 54.5 60 78.4 91.8 52.1 120 44 120 36.4"/><polygon class="cls-10" points="120 38 110.9 38 110.9 25.4 101.4 25.4 101.4 35.3 95.6 35.3 95.6 22.8 86 22.8 86 44.6 78.2 44.6 78.2 27.9 69.7 27.9 69.7 56.8 61.9 56.8 61.9 24 54.4 24 54.4 39.8 46.9 39.8 46.9 31 38 31 38 48.6 30.5 48.6 30.5 25.2 19.7 25.2 19.7 44.6 11.8 44.6 11.8 29.1 6 29.1 6 39.8 0 39.8 0 53.9 60 74.9 91.8 51.7 120 44.6 120 38"/><polygon class="cls-11" points="120 39.5 110.9 39.5 110.9 28.7 101.4 28.7 101.4 37.2 95.6 37.2 95.6 26.4 86 26.4 86 45.3 78.2 45.3 78.2 30.8 69.7 30.8 69.7 55.7 61.9 55.7 61.9 27.5 54.4 27.5 54.4 41.1 46.9 41.1 46.9 33.5 38 33.5 38 48.7 30.5 48.7 30.5 28.5 19.7 28.5 19.7 45.3 11.8 45.3 11.8 31.8 6 31.8 6 41.1 0 41.1 0 53.3 60 71.4 91.8 51.4 120 45.3 120 39.5"/><polygon class="cls-12" points="120 41.1 110.9 41.1 110.9 32 101.4 32 101.4 39.2 95.6 39.2 95.6 30 86 30 86 45.9 78.2 45.9 78.2 33.7 69.7 33.7 69.7 54.7 61.9 54.7 61.9 30.9 54.4 30.9 54.4 42.4 46.9 42.4 46.9 36 38 36 38 48.8 30.5 48.8 30.5 31.8 19.7 31.8 19.7 45.9 11.8 45.9 11.8 34.6 6 34.6 6 42.4 0 42.4 0 52.6 60 67.8 91.8 51 120 45.9 120 41.1"/><polygon class="cls-13" points="120 42.6 110.9 42.6 110.9 35.2 101.4 35.2 101.4 41.1 95.6 41.1 95.6 33.7 86 33.7 86 46.5 78.2 46.5 78.2 36.7 69.7 36.7 69.7 53.7 61.9 53.7 61.9 34.4 54.4 34.4 54.4 43.7 46.9 43.7 46.9 38.5 38 38.5 38 48.9 30.5 48.9 30.5 35.1 19.7 35.1 19.7 46.5 11.8 46.5 11.8 37.4 6 37.4 6 43.7 0 43.7 0 52 60 64.3 91.8 50.7 120 46.5 120 42.6"/><polyline class="cls-14" points="73.6 0 0 0 0 84.5 5.3 84.5 5.3 5.8 10.4 5.8 10.4 101.3 15.8 101.3 15.8 52 24.9 52 24.9 8.2 41.4 8.2 41.4 73.6 50.1 73.6 50.1 5.4 58.2 5.4 58.2 63.3 63.6 63.3 63.6 3.6 68.7 3.6 68.7 77.7 73.6 77.7 73.6 0"/><polyline class="cls-15" points="73.6 0 0 0 0 71.6 5.3 71.6 5.3 5.1 10.4 5.1 10.4 85.3 15.8 85.3 15.8 44 24.9 44 24.9 7.4 41.4 7.4 41.4 62.2 50.1 62.2 50.1 5 58.2 5 58.2 53.3 63.6 53.3 63.6 3.3 68.7 3.3 68.7 65.6 73.6 65.6 73.6 0"/><polyline class="cls-16" points="73.6 0 0 0 0 58.7 5.3 58.7 5.3 4.3 10.4 4.3 10.4 69.4 15.8 69.4 15.8 36 24.9 36 24.9 6.6 41.4 6.6 41.4 50.9 50.1 50.9 50.1 4.6 58.2 4.6 58.2 43.4 63.6 43.4 63.6 3.1 68.7 3.1 68.7 53.4 73.6 53.4 73.6 0"/><polyline class="cls-17" points="73.6 0 0 0 0 45.8 5.3 45.8 5.3 3.6 10.4 3.6 10.4 53.5 15.8 53.5 15.8 28 24.9 28 24.9 5.8 41.4 5.8 41.4 39.6 50.1 39.6 50.1 4.2 58.2 4.2 58.2 33.4 63.6 33.4 63.6 2.8 68.7 2.8 68.7 41.2 73.6 41.2 73.6 0"/><polyline class="cls-18" points="73.6 0 0 0 0 32.9 5.3 32.9 5.3 2.8 10.4 2.8 10.4 37.6 15.8 37.6 15.8 20 24.9 20 24.9 5 41.4 5 41.4 28.2 50.1 28.2 50.1 3.7 58.2 3.7 58.2 23.4 63.6 23.4 63.6 2.5 68.7 2.5 68.7 29 73.6 29 73.6 0"/><polyline class="cls-19" points="73.6 0 0 0 0 20 5.3 20 5.3 2 10.4 2 10.4 21.6 15.8 21.6 15.8 12 24.9 12 24.9 4.2 41.4 4.2 41.4 16.9 50.1 16.9 50.1 3.3 58.2 3.3 58.2 13.4 63.6 13.4 63.6 2.3 68.7 2.3 68.7 16.8 73.6 16.8 73.6 0"/><polyline class="cls-20" points="73.6 0 0 0 0 7.1 5.3 7.1 5.3 1.3 10.4 1.3 10.4 5.7 15.8 5.7 15.8 4 24.9 4 24.9 3.5 41.4 3.5 41.4 5.6 50.1 5.6 50.1 2.9 58.2 2.9 58.2 3.4 63.6 3.4 63.6 2 68.7 2 68.7 4.6 73.6 4.6 73.6 0"/></g></g></svg>