<svg xmlns="http://www.w3.org/2000/svg" viewBox="0 0 360 192"><defs><style>.cls-1,.cls-14,.cls-15,.cls-16,.cls-17,.cls-18,.cls-19,.cls-20{fill:#5e6614;}.cls-2{fill:#555912;}.cls-3{fill:#4c4b11;}.cls-4{fill:#433e10;}.cls-5{fill:#3a310e;}.cls-6{fill:#31230d;}.cls-7{fill:#28160b;}.cls-8{fill:#25140a;}.cls-9{fill:#221309;}.cls-10{fill:#1f1109;}.cls-11{fill:#1c0f08;}.cls-12{fill:#190e07;}.cls-13{fill:#160c06;}.cls-14{opacity:0.5;}.cls-14,.cls-15,.cls-16,.cls-17,.cls-18,.cls-19,.cls-20{isolation:isolate;}.cls-15{opacity:0.55;}.cls-16{opacity:0.61;}.cls-17{opacity:0.66;}.cls-18{opacity:0.71;}.cls-19{opacity:0.77;}.cls-20{opacity:0.82;}</style></defs><title>4</title><g id="Layer_2" data-name="Layer 2"><g id="Layer_1-2" data-name="Layer 1"><polygon class="cls-1" points="360 0 360 55.8 300 85.4 268.2 52.7 240 42.7 240 0 360 0"/><polygon class="cls-2" points="241.5 2.6 245.3 2.6 248.6 5 250.9 5 255.1 2 258.9 2 266.3 7.1 269.4 7.1 275.1 3.2 278.5 3.2 288.2 10 291.4 10 302.4 2.3 305.4 2.3 310.8 6 313.8 6 316.7 3.9 320.3 3.9 326.3 8.1 329.3 8.1 337.2 2.6 341.6 2.6 348.2 7.1 351.4 7.1 356.7 3.5 359 3.5 359 23.1 360 29.9 360 55.8 300 85.4 268.2 52.7 240 42.7 240 32 241.5 23 241.5 2.6"/><polygon class="cls-3" points="243 5.2 248 5.2 250.6 9.9 253.6 9.9 257 4 261.9 4 267.8 14.3 271.9 14.3 276.4 6.4 280.8 6.4 288.6 20 292.7 20 301.6 4.5 305.5 4.5 309.7 12 313.6 12 316 7.8 320.6 7.8 325.4 16.1 329.3 16.1 335.6 5.1 341.3 5.1 346.6 14.3 350.8 14.3 354.9 6.9 358 6.9 358 25.7 360 31.1 360 55.8 300 85.4 268.2 52.7 240 42.7 240 32.2 243 25.1 243 5.2"/><polygon class="cls-4" points="244.6 7.8 250.7 7.8 252.6 14.8 256.3 14.8 258.8 6 265 6 269.3 21.4 274.4 21.4 277.8 9.5 283.2 9.5 289.1 30 294.1 30 300.7 6.8 305.5 6.8 308.7 18 313.5 18 315.3 11.7 321 11.7 324.5 24.2 329.3 24.2 334.1 7.7 341.1 7.7 345.1 21.4 350.1 21.4 353.3 10.4 357 10.4 357 28.2 360 32.3 360 55.8 300 85.4 268.2 52.7 240 42.7 240 32.5 244.6 27.1 244.6 7.8"/><polygon class="cls-5" points="246.1 10.4 253.3 10.4 254.6 19.7 259 19.7 260.7 7.9 268 7.9 270.9 28.5 276.8 28.5 279.1 12.7 285.6 12.7 289.5 39.9 295.4 39.9 299.9 9.1 305.6 9.1 307.7 23.9 313.4 23.9 314.6 15.6 321.3 15.6 323.7 32.2 329.4 32.2 332.5 10.2 340.8 10.2 343.5 28.5 349.5 28.5 351.6 13.8 356 13.8 356 30.8 360 33.5 360 55.8 300 85.4 268.2 52.7 240 42.7 240 32.8 246.1 29.2 246.1 10.4"/><polygon class="cls-6" points="247.6 13 256 13 256.6 24.7 261.7 24.7 262.6 9.9 271 9.9 272.4 35.6 279.3 35.6 280.4 15.9 287.9 15.9 289.9 49.9 296.8 49.9 299 11.3 305.6 11.3 306.7 29.9 313.2 29.9 313.8 19.5 321.6 19.5 322.8 40.3 329.4 40.3 331 12.7 340.6 12.7 341.9 35.6 348.8 35.6 349.9 17.3 355 17.3 355 33.3 360 34.7 360 55.8 300 85.4 268.2 52.7 240 42.7 240 33 247.6 31.3 247.6 13"/><polygon class="cls-7" points="240 33.3 249.1 33.3 249.1 15.6 258.7 15.6 258.7 29.6 264.4 29.6 264.4 11.9 274 11.9 274 42.7 281.8 42.7 281.8 19 290.3 19 290.3 59.9 298.1 59.9 298.1 13.6 305.6 13.6 305.6 35.9 313.1 35.9 313.1 23.5 322 23.5 322 48.3 329.4 48.3 329.4 15.3 340.3 15.3 340.3 42.7 348.2 42.7 348.2 20.7 354 20.7 354 35.9 360 35.9 360 55.8 300 85.4 268.2 52.7 240 42.7 240 33.3"/><polygon class="cls-8" points="240 34.9 249.1 34.9 249.1 18.9 258.7 18.9 258.7 31.5 264.4 31.5 264.4 15.5 274 15.5 274 43.4 281.8 43.4 281.8 22 290.3 22 290.3 58.8 298.1 58.8 298.1 17 305.6 17 305.6 37.2 313.1 37.2 313.1 26 322 26 322 48.4 329.4 48.4 329.4 18.6 340.3 18.6 340.3 43.4 348.2 43.4 348.2 23.5 354 23.5 354 37.2 360 37.2 360 55.2 300 81.9 268.2 52.4 240 43.4 240 34.9"/><polygon class="cls-9" points="240 36.4 249.1 36.4 249.1 22.2 258.7 22.2 258.7 33.4 264.4 33.4 264.4 19.1 274 19.1 274 44 281.8 44 281.8 24.9 290.3 24.9 290.3 57.8 298.1 57.8 298.1 20.5 305.6 20.5 305.6 38.5 313.1 38.5 313.1 28.5 322 28.5 322 48.5 329.4 48.5 329.4 21.9 340.3 21.9 340.3 44 348.2 44 348.2 26.3 354 26.3 354 38.5 360 38.5 360 54.5 300 78.4 268.2 52 240 44 240 36.4"/><polygon class="cls-10" points="240 38 249.1 38 249.1 25.4 258.7 25.4 258.7 35.3 264.4 35.3 264.4 22.8 274 22.8 274 44.6 281.8 44.6 281.8 27.8 290.3 27.8 290.3 56.8 298.1 56.8 298.1 24 305.6 24 305.6 39.8 313.1 39.8 313.1 31 322 31 322 48.6 329.4 48.6 329.4 25.2 340.3 25.2 340.3 44.6 348.2 44.6 348.2 29 354 29 354 39.8 360 39.8 360 53.9 300 74.9 268.2 51.7 240 44.6 240 38"/><polygon class="cls-11" points="240 39.5 249.1 39.5 249.1 28.7 258.7 28.7 258.7 37.2 264.4 37.2 264.4 26.4 274 26.4 274 45.3 281.8 45.3 281.8 30.8 290.3 30.8 290.3 55.7 298.1 55.7 298.1 27.4 305.6 27.4 305.6 41.1 313.1 41.1 313.1 33.5 322 33.5 322 48.7 329.4 48.7 329.4 28.5 340.3 28.5 340.3 45.3 348.2 45.3 348.2 31.8 354 31.8 354 41.1 360 41.1 360 53.2 300 71.3 268.2 51.4 240 45.3 240 39.5"/><polygon class="cls-12" points="240 41.1 249.1 41.1 249.1 32 258.7 32 258.7 39.1 264.4 39.1 264.4 30 274 30 274 45.9 281.8 45.9 281.8 33.7 290.3 33.7 290.3 54.7 298.1 54.7 298.1 30.9 305.6 30.9 305.6 42.4 313.1 42.4 313.1 36 322 36 322 48.8 329.4 48.8 329.4 31.8 340.3 31.8 340.3 45.9 348.2 45.9 348.2 34.6 354 34.6 354 42.4 360 42.4 360 52.6 300 67.8 268.2 51 240 45.9 240 41.1"/><polygon class="cls-13" points="240 42.6 249.1 42.6 249.1 35.2 258.7 35.2 258.7 41 264.4 41 264.4 33.7 274 33.7 274 46.5 281.8 46.5 281.8 36.7 290.3 36.7 290.3 53.7 298.1 53.7 298.1 34.4 305.6 34.4 305.6 43.7 313.1 43.7 313.1 38.5 322 38.5 322 48.8 329.4 48.8 329.4 35.1 340.3 35.1 340.3 46.5 348.2 46.5 348.2 37.4 354 37.4 354 43.7 360 43.7 360 52 300 64.3 268.2 50.7 240 46.5 240 42.6"/><polygon class="cls-1" points="240 0 0 0 0 36.9 45.4 70.6 140.3 86.9 227.1 50.3 240 44.2 240 0"/><polygon class="cls-2" points="240 3.6 237.2 3.6 234.4 1.6 231.7 1.6 227.7 4.5 225.3 4.5 223.1 2.9 220.7 2.9 214.4 7.4 212 7.4 205 2.4 201.1 2.4 196.1 6 193.7 6 190.6 3.7 186.6 3.7 182.5 6.6 179.7 6.6 173.5 2.3 171.1 2.3 167.9 4.5 165 4.5 162.5 2.7 157.8 2.7 150.2 8.1 147.6 8.1 141.1 3.5 138.1 3.5 134.3 6.2 131.6 6.2 126 2.2 122.6 2.2 117.7 5.7 114.8 5.7 109 1.6 104.3 1.6 95.4 7.9 92.5 7.9 86.2 3.4 81.6 3.4 78.4 5.7 75.3 5.7 70.1 2 65.8 2 59 6.8 56.1 6.8 50.3 2.7 46.9 2.7 43.8 4.9 40.4 4.9 35.8 1.6 32.5 1.6 26 6.2 22.7 6.2 17.7 2.7 14.4 2.7 11 5.1 8.1 5.1 3.1 1.6 0 1.6 0 37.1 45.4 70.6 140.3 86.9 227.1 50.2 240 44.2 240 3.6"/><polygon class="cls-3" points="240 7.2 236.3 7.2 234.1 3.3 230.6 3.3 227.4 9 224.2 9 222.5 5.9 219.3 5.9 214.3 14.8 211.2 14.8 205.6 4.8 200.4 4.8 196.5 11.9 193.3 11.9 190.8 7.4 185.6 7.4 182.3 13.2 178.6 13.2 173.7 4.5 170.5 4.5 168 9 164.1 9 162.1 5.4 156.1 5.4 150 16.2 146.7 16.2 141.4 6.9 137.5 6.9 134.5 12.3 130.9 12.3 126.5 4.4 122.1 4.4 118.1 11.4 114.4 11.4 109.8 3.3 103.6 3.3 96.5 15.7 92.8 15.7 87.7 6.8 81.7 6.8 79.1 11.3 75.1 11.3 71 4 65.3 4 59.9 13.6 56.2 13.6 51.5 5.4 47.1 5.4 44.6 9.7 40.2 9.7 36.5 3.3 32.2 3.3 27 12.4 22.7 12.4 18.7 5.4 14.4 5.4 11.7 10.2 8 10.2 4 3.3 0 3.3 0 37.4 45.4 70.6 140.3 86.9 227.1 50.1 240 44.2 240 7.2"/><polygon class="cls-4" points="240 10.8 235.5 10.8 233.8 4.9 229.5 4.9 227.1 13.5 223.2 13.5 221.9 8.8 217.9 8.8 214.2 22.1 210.3 22.1 206.1 7.2 199.8 7.2 196.8 17.8 192.9 17.8 191.1 11.1 184.6 11.1 182.1 19.8 177.5 19.8 173.9 6.7 170 6.7 168.1 13.5 163.3 13.5 161.8 8.1 154.4 8.1 149.8 24.3 145.7 24.3 141.7 10.3 137 10.3 134.7 18.5 130.3 18.5 126.9 6.5 121.6 6.5 118.6 17.1 114 17.1 110.5 4.9 102.9 4.9 97.6 23.6 93 23.6 89.2 10.1 81.8 10.1 79.9 16.9 74.9 16.9 71.8 6 64.8 6 60.8 20.3 56.2 20.3 52.7 8.1 47.2 8.1 45.4 14.5 40 14.5 37.2 4.9 31.9 4.9 28 18.6 22.8 18.6 19.8 8.1 14.5 8.1 12.5 15.2 7.9 15.2 4.9 4.9 0 4.9 0 37.6 45.4 70.6 140.3 86.9 227 50.1 240 44.2 240 10.8"/><polygon class="cls-5" points="240 14.4 234.6 14.4 233.5 6.5 228.4 6.5 226.8 18 222.1 18 221.2 11.7 216.6 11.7 214.1 29.5 209.4 29.5 206.7 9.6 199.2 9.6 197.2 23.7 192.5 23.7 191.3 14.9 183.5 14.9 181.9 26.4 176.5 26.4 174 9 169.4 9 168.1 18 162.4 18 161.4 10.8 152.6 10.8 149.6 32.3 144.7 32.3 142.1 13.7 136.4 13.7 134.8 24.6 129.7 24.6 127.4 8.7 121 8.7 119.1 22.8 113.6 22.8 111.3 6.5 102.2 6.5 98.7 31.4 93.2 31.4 90.7 13.5 81.9 13.5 80.6 22.6 74.7 22.6 72.6 8 64.3 8 61.6 27.1 56.2 27.1 53.9 10.8 47.4 10.8 46.2 19.4 39.7 19.4 37.9 6.5 31.7 6.5 29 24.8 22.8 24.8 20.8 10.8 14.6 10.8 13.2 20.3 7.8 20.3 5.8 6.5 0 6.5 0 37.8 45.4 70.6 140.3 86.9 227 50 240 44.2 240 14.4"/><polygon class="cls-6" points="240 18 233.8 18 233.2 8.1 227.2 8.1 226.4 22.5 221.1 22.5 220.6 14.6 215.2 14.6 214 36.9 208.6 36.9 207.2 12 198.5 12 197.5 29.6 192.1 29.6 191.5 18.6 182.5 18.6 181.7 33 175.4 33 174.2 11.2 168.8 11.2 168.2 22.5 161.6 22.5 161.1 13.5 150.9 13.5 149.4 40.4 143.7 40.4 142.4 17.1 135.8 17.1 135 30.8 129 30.8 127.9 10.9 120.5 10.9 119.5 28.5 113.2 28.5 112 8.1 101.5 8.1 99.8 39.3 93.5 39.3 92.2 16.9 82 16.9 81.4 28.2 74.5 28.2 73.5 10 63.9 10 62.5 33.9 56.2 33.9 55.1 13.5 47.6 13.5 47 24.2 39.5 24.2 38.5 8.1 31.3 8.1 30 31 22.8 31 21.8 13.5 14.7 13.5 14 25.4 7.7 25.4 6.7 8.1 0 8.1 0 38 45.4 70.6 140.3 86.9 227 49.9 240 44.2 240 18"/><polygon class="cls-7" points="240 44.2 240 21.6 232.9 21.6 232.9 9.7 226.1 9.7 226.1 26.9 220 26.9 220 17.5 213.9 17.5 213.9 44.2 207.7 44.2 207.7 14.4 197.9 14.4 197.9 35.5 191.7 35.5 191.7 22.3 181.5 22.3 181.5 39.6 174.4 39.6 174.4 13.4 168.3 13.4 168.3 26.9 160.8 26.9 160.8 16.1 149.2 16.1 149.2 48.5 142.7 48.5 142.7 20.6 135.2 20.6 135.2 36.9 128.4 36.9 128.4 13.1 120 13.1 120 34.2 112.8 34.2 112.8 9.7 100.8 9.7 100.8 47.1 93.7 47.1 93.7 20.2 82.1 20.2 82.1 33.8 74.3 33.8 74.3 12 63.4 12 63.4 40.7 56.3 40.7 56.3 16.1 47.7 16.1 47.7 29.1 39.2 29.1 39.2 9.7 31.1 9.7 31.1 37.2 22.9 37.2 22.9 16.1 14.7 16.1 14.7 30.4 7.6 30.4 7.6 9.7 0 9.7 0 38.3 45.4 70.6 140.3 86.9 240 44.2"/><polygon class="cls-8" points="240 24.2 232.9 24.2 232.9 13.1 226.1 13.1 226.1 29.2 220 29.2 220 20.4 213.9 20.4 213.9 45.4 207.7 45.4 207.7 17.5 197.9 17.5 197.9 37.3 191.7 37.3 191.7 24.8 181.5 24.8 181.5 41.1 174.4 41.1 174.4 16.6 168.3 16.6 168.3 29.2 160.8 29.2 160.8 19.1 149.2 19.1 149.2 49.4 142.7 49.4 142.7 23.3 135.2 23.3 135.2 38.5 128.4 38.5 128.4 16.2 120 16.2 120 36 112.8 36 112.8 13.1 100.8 13.1 100.8 48.1 93.7 48.1 93.7 22.9 82.1 22.9 82.1 35.7 74.3 35.7 74.3 15.3 63.4 15.3 63.4 42 56.3 42 56.3 19.1 47.7 19.1 47.7 31.2 39.2 31.2 39.2 13.1 31.1 13.1 31.1 38.8 22.9 38.8 22.9 19.1 14.7 19.1 14.7 32.5 7.6 32.5 7.6 13.1 0 13.1 0 39.8 45.4 70.1 140.3 85.3 240 45.4 240 24.2"/><polygon class="cls-9" points="240 26.8 232.9 26.8 232.9 16.5 226.1 16.5 226.1 31.5 220 31.5 220 23.3 213.9 23.3 213.9 46.5 207.7 46.5 207.7 20.6 197.9 20.6 197.9 39 191.7 39 191.7 27.4 181.5 27.4 181.5 42.5 174.4 42.5 174.4 19.7 168.3 19.7 168.3 31.5 160.8 31.5 160.8 22.1 149.2 22.1 149.2 50.2 142.7 50.2 142.7 25.9 135.2 25.9 135.2 40.2 128.4 40.2 128.4 19.4 120 19.4 120 37.8 112.8 37.8 112.8 16.5 100.8 16.5 100.8 49 93.7 49 93.7 25.6 82.1 25.6 82.1 37.5 74.3 37.5 74.3 18.5 63.4 18.5 63.4 43.4 56.3 43.4 56.3 22.1 47.7 22.1 47.7 33.3 39.2 33.3 39.2 16.5 31.1 16.5 31.1 40.5 22.9 40.5 22.9 22.1 14.7 22.1 14.7 34.5 7.6 34.5 7.6 16.5 0 16.5 0 41.3 45.4 69.5 140.3 83.7 240 46.5 240 26.8"/><polygon class="cls-10" points="240 29.4 232.9 29.4 232.9 19.8 226.1 19.8 226.1 33.8 220 33.8 220 26.1 213.9 26.1 213.9 47.7 207.7 47.7 207.7 23.7 197.9 23.7 197.9 40.7 191.7 40.7 191.7 30 181.5 30 181.5 44 174.4 44 174.4 22.9 168.3 22.9 168.3 33.8 160.8 33.8 160.8 25 149.2 25 149.2 51.1 142.7 51.1 142.7 28.6 135.2 28.6 135.2 41.8 128.4 41.8 128.4 22.6 120 22.6 120 39.6 112.8 39.6 112.8 19.8 100.8 19.8 100.8 50 93.7 50 93.7 28.4 82.1 28.4 82.1 39.3 74.3 39.3 74.3 21.8 63.4 21.8 63.4 44.8 56.3 44.8 56.3 25 47.7 25 47.7 35.5 39.2 35.5 39.2 19.8 31.1 19.8 31.1 42.1 22.9 42.1 22.9 25 14.7 25 14.7 36.6 7.6 36.6 7.6 19.8 0 19.8 0 42.9 45.4 69 140.3 82.1 240 47.7 240 29.4"/><polygon class="cls-11" points="240 32.1 232.9 32.1 232.9 23.2 226.1 23.2 226.1 36 220 36 220 29 213.9 29 213.9 48.8 207.7 48.8 207.7 26.8 197.9 26.8 197.9 42.4 191.7 42.4 191.7 32.6 181.5 32.6 181.5 45.4 174.4 45.4 174.4 26 168.3 26 168.3 36 160.8 36 160.8 28 149.2 28 149.2 52 142.7 52 142.7 31.3 135.2 31.3 135.2 43.4 128.4 43.4 128.4 25.8 120 25.8 120 41.4 112.8 41.4 112.8 23.2 100.8 23.2 100.8 51 93.7 51 93.7 31 82.1 31 82.1 41.2 74.3 41.2 74.3 25 63.4 25 63.4 46.2 56.3 46.2 56.3 28 47.7 28 47.7 37.6 39.2 37.6 39.2 23.2 31.1 23.2 31.1 43.7 22.9 43.7 22.9 28 14.7 28 14.7 38.6 7.6 38.6 7.6 23.2 0 23.2 0 44.4 45.4 68.4 140.3 80.5 240 48.8 240 32.1"/><polygon class="cls-12" points="240 34.7 232.9 34.7 232.9 26.6 226.1 26.6 226.1 38.3 220 38.3 220 31.9 213.9 31.9 213.9 50 207.7 50 207.7 29.8 197.9 29.8 197.9 44.1 191.7 44.1 191.7 35.1 181.5 35.1 181.5 46.9 174.4 46.9 174.4 29.1 168.3 29.1 168.3 38.3 160.8 38.3 160.8 31 149.2 31 149.2 52.9 142.7 52.9 142.7 34 135.2 34 135.2 45 128.4 45 128.4 28.9 120 28.9 120 43.2 112.8 43.2 112.8 26.6 100.8 26.6 100.8 52 93.7 52 93.7 33.8 82.1 33.8 82.1 43 74.3 43 74.3 28.2 63.4 28.2 63.4 47.6 56.3 47.6 56.3 31 47.7 31 47.7 39.8 39.2 39.8 39.2 26.6 31.1 26.6 31.1 45.3 22.9 45.3 22.9 31 14.7 31 14.7 40.7 7.6 40.7 7.6 26.6 0 26.6 0 46 45.4 67.9 140.3 78.9 240 50 240 34.7"/><polygon class="cls-13" points="240 51.2 240 37.3 232.9 37.3 232.9 30 226.1 30 226.1 40.6 220 40.6 220 34.8 213.9 34.8 213.9 51.2 207.7 51.2 207.7 32.9 197.9 32.9 197.9 45.8 191.7 45.8 191.7 37.7 181.5 37.7 181.5 48.3 174.4 48.3 174.4 32.3 168.3 32.3 168.3 40.6 160.8 40.6 160.8 34 149.2 34 149.2 53.8 142.7 53.8 142.7 36.7 135.2 36.7 135.2 46.7 128.4 46.7 128.4 32.1 120 32.1 120 45 112.8 45 112.8 30 100.8 30 100.8 52.9 93.7 52.9 93.7 36.5 82.1 36.5 82.1 44.8 74.3 44.8 74.3 31.5 63.4 31.5 63.4 49 56.3 49 56.3 34 47.7 34 47.7 41.9 39.2 41.9 39.2 30 31.1 30 31.1 46.9 22.9 46.9 22.9 34 14.7 34 14.7 42.7 7.6 42.7 7.6 30 0 30 0 47.5 45.4 67.3 140.3 77.3 240 51.2"/><polyline class="cls-14" points="73.6 0 0 0 0 146.7 5.3 146.7 5.3 10.1 10.4 10.1 10.4 175.8 15.8 175.8 15.8 90.3 24.9 90.3 24.9 14.1 41.4 14.1 41.4 127.7 50.1 127.7 50.1 9.4 58.2 9.4 58.2 109.9 63.6 109.9 63.6 6.2 68.7 6.2 68.7 135 73.6 135 73.6 0"/><polyline class="cls-15" points="73.6 0 0 0 0 124.3 5.3 124.3 5.3 8.8 10.4 8.8 10.4 148.2 15.8 148.2 15.8 76.4 24.9 76.4 24.9 12.8 41.4 12.8 41.4 108 50.1 108 50.1 8.7 58.2 8.7 58.2 92.6 63.6 92.6 63.6 5.7 68.7 5.7 68.7 113.8 73.6 113.8 73.6 0"/><polyline class="cls-16" points="73.6 0 0 0 0 101.9 5.3 101.9 5.3 7.5 10.4 7.5 10.4 120.5 15.8 120.5 15.8 62.5 24.9 62.5 24.9 11.4 41.4 11.4 41.4 88.3 50.1 88.3 50.1 7.9 58.2 7.9 58.2 75.3 63.6 75.3 63.6 5.3 68.7 5.3 68.7 92.7 73.6 92.7 73.6 0"/><polyline class="cls-17" points="73.6 0 0 0 0 79.5 5.3 79.5 5.3 6.1 10.4 6.1 10.4 92.9 15.8 92.9 15.8 48.6 24.9 48.6 24.9 10.1 41.4 10.1 41.4 68.7 50.1 68.7 50.1 7.2 58.2 7.2 58.2 57.9 63.6 57.9 63.6 4.8 68.7 4.8 68.7 71.5 73.6 71.5 73.6 0"/><polyline class="cls-18" points="73.6 0 0 0 0 57.1 5.3 57.1 5.3 4.8 10.4 4.8 10.4 65.2 15.8 65.2 15.8 34.7 24.9 34.7 24.9 8.7 41.4 8.7 41.4 49 50.1 49 50.1 6.5 58.2 6.5 58.2 40.6 63.6 40.6 63.6 4.4 68.7 4.4 68.7 50.3 73.6 50.3 73.6 0"/><polyline class="cls-19" points="73.6 0 0 0 0 34.7 5.3 34.7 5.3 3.5 10.4 3.5 10.4 37.5 15.8 37.5 15.8 20.8 24.9 20.8 24.9 7.3 41.4 7.3 41.4 29.3 50.1 29.3 50.1 5.7 58.2 5.7 58.2 23.2 63.6 23.2 63.6 3.9 68.7 3.9 68.7 29.2 73.6 29.2 73.6 0"/><polyline class="cls-20" points="73.6 0 0 0 0 12.3 5.3 12.3 5.3 2.2 10.4 2.2 10.4 9.9 15.8 9.9 15.8 6.9 24.9 6.9 24.9 6 41.4 6 41.4 9.6 50.1 9.6 50.1 5 58.2 5 58.2 5.9 63.6 5.9 63.6 3.5 68.7 3.5 68.7 8 73.6 8 73.6 0"/><polyline class="cls-14" points="240 0 179.6 0 179.6 160.2 184 160.2 184 11 188.2 11 188.2 192 192.6 192 192.6 98.7 200.1 98.7 200.1 15.5 213.6 15.5 213.6 139.5 220.8 139.5 220.8 10.3 227.4 10.3 227.4 120 231.8 120 231.8 6.7 236 6.7 236 147.4 240 147.4 240 0"/><polyline class="cls-15" points="240 0 179.6 0 179.6 135.4 184 135.4 184 9.5 188.2 9.5 188.2 161.5 192.6 161.5 192.6 83.3 200.1 83.3 200.1 13.8 213.6 13.8 213.6 117.7 220.8 117.7 220.8 9.3 227.4 9.3 227.4 100.9 231.8 100.9 231.8 6.1 236 6.1 236 124.1 240 124.1 240 0"/><polyline class="cls-16" points="240 0 179.6 0 179.6 110.6 184 110.6 184 8 188.2 8 188.2 131 192.6 131 192.6 67.9 200.1 67.9 200.1 12.1 213.6 12.1 213.6 95.9 220.8 95.9 220.8 8.4 227.4 8.4 227.4 81.8 231.8 81.8 231.8 5.5 236 5.5 236 100.8 240 100.8 240 0"/><polyline class="cls-17" points="240 0 179.6 0 179.6 85.8 184 85.8 184 6.5 188.2 6.5 188.2 100.6 192.6 100.6 192.6 52.5 200.1 52.5 200.1 10.5 213.6 10.5 213.6 74.2 220.8 74.2 220.8 7.4 227.4 7.4 227.4 62.7 231.8 62.7 231.8 5 236 5 236 77.4 240 77.4 240 0"/><polyline class="cls-18" points="240 0 179.6 0 179.6 61 184 61 184 5 188.2 5 188.2 70.1 192.6 70.1 192.6 37.1 200.1 37.1 200.1 8.8 213.6 8.8 213.6 52.4 220.8 52.4 220.8 6.5 227.4 6.5 227.4 43.6 231.8 43.6 231.8 4.4 236 4.4 236 54 240 54 240 0"/><polyline class="cls-19" points="240 0 179.6 0 179.6 36.1 184 36.1 184 3.5 188.2 3.5 188.2 39.6 192.6 39.6 192.6 21.7 200.1 21.7 200.1 7.1 213.6 7.1 213.6 30.6 220.8 30.6 220.8 5.5 227.4 5.5 227.4 24.5 231.8 24.5 231.8 3.8 236 3.8 236 30.7 240 30.7 240 0"/><polyline class="cls-20" points="240 0 179.6 0 179.6 11.3 184 11.3 184 2 188.2 2 188.2 9.1 192.6 9.1 192.6 6.3 200.1 6.3 200.1 5.5 213.6 5.5 213.6 8.8 220.8 8.8 220.8 4.6 227.4 4.6 227.4 5.4 231.8 5.4 231.8 3.2 236 3.2 236 7.4 240 7.4 240 0"/><polyline class="cls-14" points="286.4 0 360 0 360 84.5 354.7 84.5 354.7 5.8 349.6 5.8 349.6 101.2 344.2 101.2 344.2 52 335.1 52 335.1 8.2 318.6 8.2 318.6 73.5 309.9 73.5 309.9 5.4 301.8 5.4 301.8 63.3 296.4 63.3 296.4 3.6 291.3 3.6 291.3 77.7 286.4 77.7 286.4 0"/><polyline class="cls-15" points="286.4 0 360 0 360 71.6 354.7 71.6 354.7 5.1 349.6 5.1 349.6 85.3 344.2 85.3 344.2 44 335.1 44 335.1 7.4 318.6 7.4 318.6 62.2 309.9 62.2 309.9 5 301.8 5 301.8 53.3 296.4 53.3 296.4 3.3 291.3 3.3 291.3 65.5 286.4 65.5 286.4 0"/><polyline class="cls-16" points="286.4 0 360 0 360 58.7 354.7 58.7 354.7 4.3 349.6 4.3 349.6 69.4 344.2 69.4 344.2 36 335.1 36 335.1 6.6 318.6 6.6 318.6 50.9 309.9 50.9 309.9 4.6 301.8 4.6 301.8 43.3 296.4 43.3 296.4 3 291.3 3 291.3 53.4 286.4 53.4 286.4 0"/><polyline class="cls-17" points="286.4 0 360 0 360 45.8 354.7 45.8 354.7 3.5 349.6 3.5 349.6 53.5 344.2 53.5 344.2 28 335.1 28 335.1 5.8 318.6 5.8 318.6 39.5 309.9 39.5 309.9 4.2 301.8 4.2 301.8 33.3 296.4 33.3 296.4 2.8 291.3 2.8 291.3 41.2 286.4 41.2 286.4 0"/><polyline class="cls-18" points="286.4 0 360 0 360 32.9 354.7 32.9 354.7 2.8 349.6 2.8 349.6 37.5 344.2 37.5 344.2 20 335.1 20 335.1 5 318.6 5 318.6 28.2 309.9 28.2 309.9 3.7 301.8 3.7 301.8 23.4 296.4 23.4 296.4 2.5 291.3 2.5 291.3 29 286.4 29 286.4 0"/><polyline class="cls-19" points="286.4 0 360 0 360 20 354.7 20 354.7 2 349.6 2 349.6 21.6 344.2 21.6 344.2 12 335.1 12 335.1 4.2 318.6 4.2 318.6 16.9 309.9 16.9 309.9 3.3 301.8 3.3 301.8 13.4 296.4 13.4 296.4 2.3 291.3 2.3 291.3 16.8 286.4 16.8 286.4 0"/><polyline class="cls-20" points="286.4 0 360 0 360 7.1 354.7 7.1 354.7 1.3 349.6 1.3 349.6 5.7 344.2 5.7 344.2 4 335.1 4 335.1 3.5 318.6 3.5 318.6 5.5 309.9 5.5 309.9 2.9 301.8 2.9 301.8 3.4 296.4 3.4 296.4 2 291.3 2 291.3 4.6 286.4 4.6 286.4 0"/></g></g></svg>