<svg xmlns="http://www.w3.org/2000/svg" viewBox="0 0 360 173.6"><defs><style>.cls-1,.cls-14,.cls-15,.cls-16,.cls-17,.cls-18,.cls-19,.cls-20{fill:#5e6614;}.cls-2{fill:#555912;}.cls-3{fill:#4c4b11;}.cls-4{fill:#433e10;}.cls-5{fill:#3a310e;}.cls-6{fill:#31230d;}.cls-7{fill:#28160b;}.cls-8{fill:#25140a;}.cls-9{fill:#221309;}.cls-10{fill:#1f1109;}.cls-11{fill:#1c0f08;}.cls-12{fill:#190e07;}.cls-13{fill:#160c06;}.cls-14{opacity:0.5;}.cls-14,.cls-15,.cls-16,.cls-17,.cls-18,.cls-19,.cls-20{isolation:isolate;}.cls-15{opacity:0.55;}.cls-16{opacity:0.61;}.cls-17{opacity:0.66;}.cls-18{opacity:0.71;}.cls-19{opacity:0.77;}.cls-20{opacity:0.82;}</style></defs><title>5</title><g id="Layer_2" data-name="Layer 2"><g id="Layer_1-2" data-name="Layer 1"><polygon class="cls-1" points="360 3.4 360 59.2 300 88.8 268.2 56.1 240 46.1 240 3.4 360 3.4"/><polygon class="cls-2" points="241.6 6 245.4 6 248.7 8.4 251 8.4 255.2 5.4 259 5.4 266.3 10.6 269.5 10.6 275.1 6.6 278.5 6.6 288.3 13.4 291.4 13.4 302.5 5.7 305.5 5.7 310.8 9.4 313.8 9.4 316.8 7.3 320.3 7.3 326.3 11.5 329.3 11.5 337.2 6 341.6 6 348.2 10.6 351.4 10.6 356.7 6.9 359 6.9 359 26.5 360 33.3 360 59.2 300 88.8 268.2 56.1 240 46.1 240 35.4 241.6 26.4 241.6 6"/><polygon class="cls-3" points="243.1 8.6 248.1 8.6 250.7 13.3 253.7 13.3 257 7.4 262 7.4 267.9 17.7 271.9 17.7 276.4 9.8 280.9 9.8 288.7 23.4 292.8 23.4 301.6 8 305.5 8 309.8 15.4 313.7 15.4 316 11.2 320.7 11.2 325.4 19.5 329.3 19.5 335.7 8.5 341.4 8.5 346.7 17.7 350.8 17.7 355 10.3 358 10.3 358 29.1 360 34.5 360 59.2 300 88.8 268.2 56.1 240 46.1 240 35.6 243.1 28.5 243.1 8.6"/><polygon class="cls-4" points="244.6 11.2 250.7 11.2 252.7 18.2 256.4 18.2 258.9 9.4 265 9.4 269.4 24.8 274.4 24.8 277.8 12.9 283.2 12.9 289.1 33.4 294.1 33.4 300.8 10.2 305.6 10.2 308.7 21.4 313.5 21.4 315.3 15.1 321 15.1 324.6 27.6 329.4 27.6 334.1 11.1 341.1 11.1 345.1 24.8 350.2 24.8 353.3 13.8 357 13.8 357 31.6 360 35.7 360 59.2 300 88.8 268.2 56.1 240 46.1 240 35.9 244.6 30.5 244.6 11.2"/><polygon class="cls-5" points="246.1 13.8 253.4 13.8 254.7 23.1 259.1 23.1 260.8 11.3 268 11.3 270.9 31.9 276.9 31.9 279.1 16.1 285.6 16.1 289.5 43.3 295.5 43.3 299.9 12.5 305.6 12.5 307.7 27.3 313.4 27.3 314.6 19.1 321.3 19.1 323.7 35.6 329.4 35.6 332.6 13.6 340.9 13.6 343.5 31.9 349.5 31.9 351.6 17.2 356 17.2 356 34.2 360 36.9 360 59.2 300 88.8 268.2 56.1 240 46.1 240 36.2 246.1 32.6 246.1 13.8"/><polygon class="cls-6" points="247.6 16.4 256 16.4 256.7 28.1 261.8 28.1 262.6 13.3 271 13.3 272.5 39 279.4 39 280.5 19.3 288 19.3 289.9 53.3 296.8 53.3 299 14.7 305.6 14.7 306.7 33.3 313.3 33.3 313.9 23 321.7 23 322.9 43.7 329.5 43.7 331 16.1 340.6 16.1 342 39 348.9 39 349.9 20.7 355 20.7 355 36.7 360 38.1 360 59.2 300 88.8 268.2 56.1 240 46.1 240 36.5 247.6 34.7 247.6 16.4"/><polygon class="cls-7" points="240 36.7 249.2 36.7 249.2 19 258.7 19 258.7 33 264.5 33 264.5 15.3 274 15.3 274 46.1 281.8 46.1 281.8 22.4 290.3 22.4 290.3 63.3 298.2 63.3 298.2 17 305.7 17 305.7 39.3 313.2 39.3 313.2 26.9 322 26.9 322 51.7 329.5 51.7 329.5 18.7 340.4 18.7 340.4 46.1 348.2 46.1 348.2 24.1 354 24.1 354 39.3 360 39.3 360 59.2 300 88.8 268.2 56.1 240 46.1 240 36.7"/><polygon class="cls-8" points="240 38.3 249.2 38.3 249.2 22.3 258.7 22.3 258.7 34.9 264.5 34.9 264.5 18.9 274 18.9 274 46.8 281.8 46.8 281.8 25.4 290.3 25.4 290.3 62.2 298.2 62.2 298.2 20.5 305.7 20.5 305.7 40.6 313.2 40.6 313.2 29.4 322 29.4 322 51.8 329.5 51.8 329.5 22 340.4 22 340.4 46.8 348.2 46.8 348.2 26.9 354 26.9 354 40.6 360 40.6 360 58.6 300 85.3 268.2 55.8 240 46.8 240 38.3"/><polygon class="cls-9" points="240 39.8 249.2 39.8 249.2 25.6 258.7 25.6 258.7 36.8 264.5 36.8 264.5 22.6 274 22.6 274 47.4 281.8 47.4 281.8 28.3 290.3 28.3 290.3 61.2 298.2 61.2 298.2 23.9 305.7 23.9 305.7 41.9 313.2 41.9 313.2 31.9 322 31.9 322 51.9 329.5 51.9 329.5 25.3 340.4 25.3 340.4 47.4 348.2 47.4 348.2 29.7 354 29.7 354 41.9 360 41.9 360 57.9 300 81.8 268.2 55.5 240 47.4 240 39.8"/><polygon class="cls-10" points="240 41.4 249.2 41.4 249.2 28.8 258.7 28.8 258.7 38.7 264.5 38.7 264.5 26.2 274 26.2 274 48 281.8 48 281.8 31.2 290.3 31.2 290.3 60.2 298.2 60.2 298.2 27.4 305.7 27.4 305.7 43.2 313.2 43.2 313.2 34.4 322 34.4 322 52 329.5 52 329.5 28.6 340.4 28.6 340.4 48 348.2 48 348.2 32.5 354 32.5 354 43.2 360 43.2 360 57.3 300 78.3 268.2 55.1 240 48 240 41.4"/><polygon class="cls-11" points="240 42.9 249.2 42.9 249.2 32.1 258.7 32.1 258.7 40.6 264.5 40.6 264.5 29.8 274 29.8 274 48.7 281.8 48.7 281.8 34.2 290.3 34.2 290.3 59.1 298.2 59.1 298.2 30.9 305.7 30.9 305.7 44.5 313.2 44.5 313.2 36.9 322 36.9 322 52.1 329.5 52.1 329.5 31.9 340.4 31.9 340.4 48.7 348.2 48.7 348.2 35.2 354 35.2 354 44.5 360 44.5 360 56.6 300 74.7 268.2 54.8 240 48.7 240 42.9"/><polygon class="cls-12" points="240 44.5 249.2 44.5 249.2 35.4 258.7 35.4 258.7 42.5 264.5 42.5 264.5 33.4 274 33.4 274 49.3 281.8 49.3 281.8 37.1 290.3 37.1 290.3 58.1 298.2 58.1 298.2 34.3 305.7 34.3 305.7 45.8 313.2 45.8 313.2 39.4 322 39.4 322 52.2 329.5 52.2 329.5 35.2 340.4 35.2 340.4 49.3 348.2 49.3 348.2 38 354 38 354 45.8 360 45.8 360 56 300 71.2 268.2 54.4 240 49.3 240 44.5"/><polygon class="cls-13" points="240 46 249.2 46 249.2 38.6 258.7 38.6 258.7 44.5 264.5 44.5 264.5 37.1 274 37.1 274 49.9 281.8 49.9 281.8 40.1 290.3 40.1 290.3 57.1 298.2 57.1 298.2 37.8 305.7 37.8 305.7 47.1 313.2 47.1 313.2 41.9 322 41.9 322 52.2 329.5 52.2 329.5 38.5 340.4 38.5 340.4 49.9 348.2 49.9 348.2 40.8 354 40.8 354 47.1 360 47.1 360 55.4 300 67.7 268.2 54.1 240 49.9 240 46"/><polygon class="cls-1" points="0 0 240 4 240 48 167.1 64 120 98.1 95.1 108.8 47.6 79.7 0 64 0 0"/><polygon class="cls-2" points="0 4.8 5.5 4.9 9.8 2.5 15.9 2.5 24.4 7.5 29.7 7.6 36.2 4 42.5 4.1 45.9 6.1 49.4 6.1 54 3.6 58.7 3.6 67.2 8.6 71.7 8.7 78.6 4.9 84 4.9 93.3 10.4 98.5 10.5 110.4 3.9 114.6 3.9 120.2 7.2 124.6 7.2 128.2 5.2 135 5.3 145.7 11.5 150.1 11.6 157.8 7.4 163.9 7.4 167.1 9.3 172.2 9.3 178.9 5.7 183.1 5.7 187.2 8.1 191.6 8.1 196.3 5.6 201.7 5.6 207.5 9 213.1 9 216.9 7 223.1 7 226.7 9.1 230.5 9.2 237 5.6 240 5.6 240 48 167.1 64 120 98.1 95.1 108.8 47.6 79.7 0 64 0 4.8"/><polygon class="cls-3" points="0 9.6 6.7 9.6 10.2 4.7 17.7 4.8 24.5 14.6 31.2 14.6 36.3 7.4 44.1 7.5 46.9 11.4 51.2 11.5 54.9 6.2 60.7 6.3 67.5 16.1 73 16.1 78.5 8.4 85.2 8.4 92.7 19.2 99 19.2 108.6 5.9 113.8 5.9 118.2 12.3 123.7 12.3 126.5 8.3 135 8.3 143.5 20.6 149 20.6 155.2 12 162.7 12.1 165.2 15.7 171.6 15.7 176.9 8.3 182.1 8.4 185.4 13 190.9 13.1 194.6 7.8 201.3 7.9 205.9 14.4 212.9 14.5 215.9 10.3 223.5 10.3 226.4 14.5 231.1 14.5 236.3 7.3 240 7.3 240 48 167.1 64 120 98.1 95.1 108.8 47.6 79.7 0 64 0 9.6"/><polygon class="cls-4" points="0 14.3 8 14.4 10.6 7 19.6 7 24.7 21.7 32.6 21.7 36.5 10.8 45.8 10.8 47.8 16.7 53 16.8 55.8 8.9 62.7 8.9 67.8 23.6 74.3 23.6 78.4 11.9 86.4 12 92 28 99.6 28 106.7 7.9 112.9 7.9 116.3 17.4 122.8 17.4 124.9 11.3 135 11.4 141.4 29.6 147.9 29.6 152.6 16.7 161.5 16.7 163.4 22.1 171 22.1 175 11 181.2 11 183.6 17.9 190.2 18 193 10.1 200.9 10.1 204.4 19.9 212.7 19.9 215 13.6 224 13.6 226.2 19.8 231.7 19.8 235.6 8.9 240 8.9 240 48 167.1 64 120 98.1 95.1 108.8 47.6 79.7 0 64 0 14.3"/><polygon class="cls-5" points="0 19.1 9.3 19.1 11 9.3 21.4 9.3 24.8 28.8 34 28.8 36.6 14.2 47.4 14.2 48.8 22.1 54.8 22.1 56.6 11.6 64.6 11.6 68 31 75.6 31.1 78.4 15.5 87.6 15.5 91.3 36.8 100.1 36.8 104.9 9.9 112.1 9.9 114.3 22.5 121.9 22.5 123.3 14.4 135 14.4 139.2 38.6 146.8 38.7 149.9 21.4 160.3 21.4 161.6 28.5 170.4 28.6 173 13.6 180.2 13.6 181.9 22.9 189.5 22.9 191.3 12.4 200.6 12.4 202.9 25.4 212.5 25.4 214 16.9 224.4 16.9 225.9 25.1 232.3 25.1 234.9 10.5 240 10.6 240 48 167.1 64 120 98.1 95.1 108.8 47.6 79.7 0 64 0 19.1"/><polygon class="cls-6" points="0 23.9 10.6 23.9 11.5 11.6 23.3 11.6 25 35.9 35.5 35.9 36.8 17.6 49 17.6 49.7 27.4 56.6 27.4 57.5 14.2 66.6 14.2 68.3 38.5 76.9 38.5 78.3 19 88.8 19 90.7 45.6 100.7 45.6 103.1 11.8 111.3 11.8 112.4 27.6 120.9 27.6 121.7 17.4 135 17.4 137.1 47.7 145.7 47.7 147.3 26 159.1 26 159.8 35 169.8 35 171.1 16.3 179.3 16.3 180.1 27.8 188.8 27.8 189.7 14.6 200.2 14.6 201.3 30.8 212.3 30.8 213 20.2 224.9 20.2 225.6 30.5 232.9 30.5 234.2 12.2 240 12.2 240 48 167.1 64 120 98.1 95.1 108.8 47.6 79.7 0 64 0 23.9"/><polygon class="cls-7" points="0 64 0 28.6 11.9 28.6 11.9 13.8 25.2 13.8 25.2 42.9 36.9 42.9 36.9 21 50.7 21 50.7 32.7 58.4 32.7 58.4 16.9 68.6 16.9 68.6 46 78.3 46 78.3 22.5 90 22.5 90 54.4 101.2 54.4 101.2 13.8 110.4 13.8 110.4 32.7 120 32.7 120 20.5 134.9 20.5 134.9 56.7 144.6 56.7 144.6 30.7 157.9 30.7 157.9 41.4 169.2 41.4 169.2 18.9 178.3 18.9 178.3 32.7 188.1 32.7 188.1 16.9 199.8 16.9 199.8 36.3 212.1 36.3 212.1 23.5 225.3 23.5 225.3 35.8 233.5 35.8 233.5 13.8 240 13.8 240 48 167.1 64 120 98.1 95.1 108.8 47.6 79.7 0 64"/><polygon class="cls-8" points="0 31.4 11.9 31.4 11.9 17.5 25.2 17.5 25.2 44.8 36.9 44.8 36.9 24.2 50.7 24.2 50.7 35.2 58.4 35.2 58.4 20.4 68.6 20.4 68.6 47.7 78.3 47.7 78.3 25.6 90 25.6 90 55.6 101.2 55.6 101.2 17.5 110.4 17.5 110.4 35.2 120 35.2 120 23.7 134.9 23.7 134.9 57.7 144.6 57.7 144.6 33.3 157.9 33.3 157.9 43.4 169.2 43.4 169.2 22.3 178.3 22.3 178.3 35.2 188.1 35.2 188.1 20.4 199.8 20.4 199.8 38.6 212.1 38.6 212.1 26.6 225.3 26.6 225.3 38.1 233.5 38.1 233.5 17.5 240 17.5 240 48.4 167.1 64.6 120 96.5 95.1 106.6 47.6 79.3 0 64.6 0 31.4"/><polygon class="cls-9" points="0 34.1 11.9 34.1 11.9 21.1 25.2 21.1 25.2 46.6 36.9 46.6 36.9 27.4 50.7 27.4 50.7 37.7 58.4 37.7 58.4 23.8 68.6 23.8 68.6 49.3 78.3 49.3 78.3 28.7 90 28.7 90 56.7 101.2 56.7 101.2 21.1 110.4 21.1 110.4 37.7 120 37.7 120 27 134.9 27 134.9 58.7 144.6 58.7 144.6 35.9 157.9 35.9 157.9 45.3 169.2 45.3 169.2 25.6 178.3 25.6 178.3 37.7 188.1 37.7 188.1 23.8 199.8 23.8 199.8 40.8 212.1 40.8 212.1 29.6 225.3 29.6 225.3 40.4 233.5 40.4 233.5 21.1 240 21.1 240 48.7 167.1 65.1 120 95 95.1 104.4 47.6 78.9 0 65.1 0 34.1"/><polygon class="cls-10" points="0 36.9 11.9 36.9 11.9 24.8 25.2 24.8 25.2 48.5 36.9 48.5 36.9 30.6 50.7 30.6 50.7 40.2 58.4 40.2 58.4 27.3 68.6 27.3 68.6 51 78.3 51 78.3 31.9 90 31.9 90 57.9 101.2 57.9 101.2 24.8 110.4 24.8 110.4 40.2 120 40.2 120 30.2 134.9 30.2 134.9 59.7 144.6 59.7 144.6 38.5 157.9 38.5 157.9 47.3 169.2 47.3 169.2 29 178.3 29 178.3 40.2 188.1 40.2 188.1 27.3 199.8 27.3 199.8 43.1 212.1 43.1 212.1 32.7 225.3 32.7 225.3 42.7 233.5 42.7 233.5 24.8 240 24.8 240 49 167.1 65.7 120 93.4 95.1 102.2 47.6 78.5 0 65.7 0 36.9"/><polygon class="cls-11" points="0 39.6 11.9 39.6 11.9 28.5 25.2 28.5 25.2 50.4 36.9 50.4 36.9 33.8 50.7 33.8 50.7 42.7 58.4 42.7 58.4 30.8 68.6 30.8 68.6 52.7 78.3 52.7 78.3 35 90 35 90 59 101.2 59 101.2 28.5 110.4 28.5 110.4 42.7 120 42.7 120 33.5 134.9 33.5 134.9 60.7 144.6 60.7 144.6 41.1 157.9 41.1 157.9 49.2 169.2 49.2 169.2 32.3 178.3 32.3 178.3 42.7 188.1 42.7 188.1 30.8 199.8 30.8 199.8 45.4 212.1 45.4 212.1 35.8 225.3 35.8 225.3 45 233.5 45 233.5 28.5 240 28.5 240 49.3 167.1 66.2 120 91.9 95.1 100 47.6 78 0 66.2 0 39.6"/><polygon class="cls-12" points="0 42.4 11.9 42.4 11.9 32.1 25.2 32.1 25.2 52.2 36.9 52.2 36.9 37.1 50.7 37.1 50.7 45.2 58.4 45.2 58.4 34.2 68.6 34.2 68.6 54.3 78.3 54.3 78.3 38.1 90 38.1 90 60.2 101.2 60.2 101.2 32.1 110.4 32.1 110.4 45.2 120 45.2 120 36.7 134.9 36.7 134.9 61.7 144.6 61.7 144.6 43.8 157.9 43.8 157.9 51.2 169.2 51.2 169.2 35.6 178.3 35.6 178.3 45.2 188.1 45.2 188.1 34.2 199.8 34.2 199.8 47.6 212.1 47.6 212.1 38.8 225.3 38.8 225.3 47.3 233.5 47.3 233.5 32.1 240 32.1 240 49.6 167.1 66.8 120 90.3 95.1 97.7 47.6 77.6 0 66.8 0 42.4"/><polygon class="cls-13" points="0 67.4 0 45.1 11.9 45.1 11.9 35.8 25.2 35.8 25.2 54.1 36.9 54.1 36.9 40.3 50.7 40.3 50.7 47.7 58.4 47.7 58.4 37.7 68.6 37.7 68.6 56 78.3 56 78.3 41.2 90 41.2 90 61.3 101.2 61.3 101.2 35.8 110.4 35.8 110.4 47.7 120 47.7 120 40 134.9 40 134.9 62.8 144.6 62.8 144.6 46.4 157.9 46.4 157.9 53.1 169.2 53.1 169.2 39 178.3 39 178.3 47.7 188.1 47.7 188.1 37.7 199.8 37.7 199.8 49.9 212.1 49.9 212.1 41.9 225.3 41.9 225.3 49.6 233.5 49.6 233.5 35.8 240 35.8 240 49.9 167.1 67.4 120 88.8 95.1 95.5 47.6 77.2 0 67.4"/><polyline class="cls-14" points="360 3.4 275.9 3.4 275.9 74.7 282 74.7 282 8.3 287.8 8.3 287.8 88.8 294 88.8 294 47.3 304.4 47.3 304.4 10.3 323.3 10.3 323.3 65.5 333.2 65.5 333.2 8 342.5 8 342.5 56.8 348.7 56.8 348.7 6.4 354.5 6.4 354.5 69 360 69 360 3.4"/><polyline class="cls-15" points="360 3.4 275.9 3.4 275.9 63.8 282 63.8 282 7.7 287.8 7.7 287.8 75.4 294 75.4 294 40.5 304.4 40.5 304.4 9.6 323.3 9.6 323.3 55.9 333.2 55.9 333.2 7.6 342.5 7.6 342.5 48.4 348.7 48.4 348.7 6.2 354.5 6.2 354.5 58.7 360 58.7 360 3.4"/><polyline class="cls-16" points="360 3.4 275.9 3.4 275.9 52.9 282 52.9 282 7.1 287.8 7.1 287.8 62 294 62 294 33.8 304.4 33.8 304.4 9 323.3 9 323.3 46.3 333.2 46.3 333.2 7.3 342.5 7.3 342.5 40 348.7 40 348.7 6 354.5 6 354.5 48.4 360 48.4 360 3.4"/><polyline class="cls-17" points="360 3.4 275.9 3.4 275.9 42 282 42 282 6.4 287.8 6.4 287.8 48.5 294 48.5 294 27 304.4 27 304.4 8.3 323.3 8.3 323.3 36.8 333.2 36.8 333.2 6.9 342.5 6.9 342.5 31.6 348.7 31.6 348.7 5.8 354.5 5.8 354.5 38.1 360 38.1 360 3.4"/><polyline class="cls-18" points="360 3.4 275.9 3.4 275.9 31.2 282 31.2 282 5.8 287.8 5.8 287.8 35.1 294 35.1 294 20.3 304.4 20.3 304.4 7.6 323.3 7.6 323.3 27.2 333.2 27.2 333.2 6.6 342.5 6.6 342.5 23.1 348.7 23.1 348.7 5.5 354.5 5.5 354.5 27.9 360 27.9 360 3.4"/><polyline class="cls-19" points="360 3.4 275.9 3.4 275.9 20.3 282 20.3 282 5.1 287.8 5.1 287.8 21.7 294 21.7 294 13.5 304.4 13.5 304.4 7 323.3 7 323.3 17.6 333.2 17.6 333.2 6.2 342.5 6.2 342.5 14.7 348.7 14.7 348.7 5.3 354.5 5.3 354.5 17.6 360 17.6 360 3.4"/><polyline class="cls-20" points="360 3.4 275.9 3.4 275.9 9.4 282 9.4 282 4.5 287.8 4.5 287.8 8.2 294 8.2 294 6.7 304.4 6.7 304.4 6.3 323.3 6.3 323.3 8.1 333.2 8.1 333.2 5.9 342.5 5.9 342.5 6.3 348.7 6.3 348.7 5.1 354.5 5.1 354.5 7.3 360 7.3 360 3.4"/><polyline class="cls-14" points="232.7 3.4 153.2 3.4 153.2 150.8 159 150.8 159 11.3 164.5 11.3 164.5 173.6 170.4 173.6 170.4 74.3 180.2 74.3 180.2 14.5 198 14.5 198 135.9 207.4 135.9 207.4 10.8 216.1 10.8 216.1 89.6 222 89.6 222 8.2 227.5 8.2 227.5 141.6 232.7 141.6 232.7 3.4"/><polyline class="cls-15" points="232.7 3.4 153.2 3.4 153.2 127.9 159 127.9 159 10.3 164.5 10.3 164.5 146.6 170.4 146.6 170.4 63.4 180.2 63.4 180.2 13.4 198 13.4 198 115.1 207.4 115.1 207.4 10.2 216.1 10.2 216.1 76 222 76 222 7.9 227.5 7.9 227.5 119.6 232.7 119.6 232.7 3.4"/><polyline class="cls-16" points="232.7 3.4 153.2 3.4 153.2 104.9 159 104.9 159 9.3 164.5 9.3 164.5 119.5 170.4 119.5 170.4 52.4 180.2 52.4 180.2 12.4 198 12.4 198 94.3 207.4 94.3 207.4 9.6 216.1 9.6 216.1 62.4 222 62.4 222 7.5 227.5 7.5 227.5 97.6 232.7 97.6 232.7 3.4"/><polyline class="cls-17" points="232.7 3.4 153.2 3.4 153.2 81.9 159 81.9 159 8.2 164.5 8.2 164.5 92.4 170.4 92.4 170.4 41.5 180.2 41.5 180.2 11.3 198 11.3 198 73.4 207.4 73.4 207.4 9.1 216.1 9.1 216.1 48.8 222 48.8 222 7.2 227.5 7.2 227.5 75.7 232.7 75.7 232.7 3.4"/><polyline class="cls-18" points="232.7 3.4 153.2 3.4 153.2 59 159 59 159 7.2 164.5 7.2 164.5 65.3 170.4 65.3 170.4 30.6 180.2 30.6 180.2 10.2 198 10.2 198 52.6 207.4 52.6 207.4 8.5 216.1 8.5 216.1 35.2 222 35.2 222 6.8 227.5 6.8 227.5 53.7 232.7 53.7 232.7 3.4"/><polyline class="cls-19" points="232.7 3.4 153.2 3.4 153.2 36 159 36 159 6.2 164.5 6.2 164.5 38.2 170.4 38.2 170.4 19.7 180.2 19.7 180.2 9.2 198 9.2 198 31.8 207.4 31.8 207.4 7.9 216.1 7.9 216.1 21.6 222 21.6 222 6.5 227.5 6.5 227.5 31.7 232.7 31.7 232.7 3.4"/><polyline class="cls-20" points="232.7 3.4 153.2 3.4 153.2 13.1 159 13.1 159 5.1 164.5 5.1 164.5 11.2 170.4 11.2 170.4 8.8 180.2 8.8 180.2 8.1 198 8.1 198 11 207.4 11 207.4 7.3 216.1 7.3 216.1 8 222 8 222 6.1 227.5 6.1 227.5 9.7 232.7 9.7 232.7 3.4"/><polyline class="cls-14" points="79.5 1.4 0 1.4 0 102.8 5.8 102.8 5.8 6.9 11.3 6.9 11.3 118.5 17.2 118.5 17.2 50.1 27 50.1 27 9.1 44.8 9.1 44.8 92.6 54.2 92.6 54.2 6.5 62.9 6.5 62.9 60.7 68.8 60.7 68.8 4.7 74.3 4.7 74.3 96.5 79.5 96.5 79.5 1.4"/><polyline class="cls-15" points="79.5 1.4 0 1.4 0 87 5.8 87 5.8 6.1 11.3 6.1 11.3 99.9 17.2 99.9 17.2 42.6 27 42.6 27 8.3 44.8 8.3 44.8 78.2 54.2 78.2 54.2 6.1 62.9 6.1 62.9 51.4 68.8 51.4 68.8 4.5 74.3 4.5 74.3 81.4 79.5 81.4 79.5 1.4"/><polyline class="cls-16" points="79.5 1.4 0 1.4 0 71.2 5.8 71.2 5.8 5.4 11.3 5.4 11.3 81.2 17.2 81.2 17.2 35.1 27 35.1 27 7.6 44.8 7.6 44.8 63.9 54.2 63.9 54.2 5.7 62.9 5.7 62.9 42 68.8 42 68.8 4.2 74.3 4.2 74.3 66.2 79.5 66.2 79.5 1.4"/><polyline class="cls-17" points="79.5 1.4 0 1.4 0 55.4 5.8 55.4 5.8 4.7 11.3 4.7 11.3 62.6 17.2 62.6 17.2 27.6 27 27.6 27 6.8 44.8 6.8 44.8 49.6 54.2 49.6 54.2 5.3 62.9 5.3 62.9 32.6 68.8 32.6 68.8 4 74.3 4 74.3 51.1 79.5 51.1 79.5 1.4"/><polyline class="cls-18" points="79.5 1.4 0 1.4 0 39.6 5.8 39.6 5.8 4 11.3 4 11.3 44 17.2 44 17.2 20.1 27 20.1 27 6.1 44.8 6.1 44.8 35.2 54.2 35.2 54.2 4.9 62.9 4.9 62.9 23.3 68.8 23.3 68.8 3.8 74.3 3.8 74.3 36 79.5 36 79.5 1.4"/><polyline class="cls-19" points="79.5 1.4 0 1.4 0 23.8 5.8 23.8 5.8 3.3 11.3 3.3 11.3 25.4 17.2 25.4 17.2 12.6 27 12.6 27 5.4 44.8 5.4 44.8 20.9 54.2 20.9 54.2 4.5 62.9 4.5 62.9 14 68.8 14 68.8 3.5 74.3 3.5 74.3 20.9 79.5 20.9 79.5 1.4"/><polyline class="cls-20" points="79.5 1.4 0 1.4 0 8.1 5.8 8.1 5.8 2.6 11.3 2.6 11.3 6.7 17.2 6.7 17.2 5.1 27 5.1 27 4.6 44.8 4.6 44.8 6.6 54.2 6.6 54.2 4.1 62.9 4.1 62.9 4.6 68.8 4.6 68.8 3.3 74.3 3.3 74.3 5.7 79.5 5.7 79.5 1.4"/></g></g></svg>