<svg xmlns="http://www.w3.org/2000/svg" viewBox="0 0 240 127"><defs><style>.cls-1,.cls-14,.cls-15,.cls-16,.cls-17,.cls-18,.cls-19,.cls-20{fill:#5e6614;}.cls-2{fill:#555912;}.cls-3{fill:#4c4b11;}.cls-4{fill:#433e10;}.cls-5{fill:#3a310e;}.cls-6{fill:#31230d;}.cls-7{fill:#28160b;}.cls-8{fill:#25140a;}.cls-9{fill:#221309;}.cls-10{fill:#1f1109;}.cls-11{fill:#1c0f08;}.cls-12{fill:#190e07;}.cls-13{fill:#160c06;}.cls-14{opacity:0.5;}.cls-14,.cls-15,.cls-16,.cls-17,.cls-18,.cls-19,.cls-20{isolation:isolate;}.cls-15{opacity:0.55;}.cls-16{opacity:0.61;}.cls-17{opacity:0.66;}.cls-18{opacity:0.71;}.cls-19{opacity:0.77;}.cls-20{opacity:0.82;}</style></defs><title>6</title><g id="Layer_2" data-name="Layer 2"><g id="Layer_1-2" data-name="Layer 1"><polygon class="cls-1" points="240 0 240 38.4 203.1 49.1 160.3 76.7 120 84.3 60 53.7 0 42.1 0 0 240 0"/><polygon class="cls-2" points="0 4.1 4.1 4.1 8 1.8 11.6 1.8 18.5 5.9 21.9 5.9 26.5 3.1 31.5 3.1 33.8 4.6 37 4.6 41.6 1.8 47.3 1.8 56.9 7.6 61.2 7.6 67.4 3.8 71.9 3.8 75 5.7 78.6 5.7 84.1 2.4 87 2.4 97.5 8.7 101.6 8.7 110.1 3.6 115.5 3.6 119.7 6.1 123.1 6.1 129.6 2.2 135.7 2.2 143.1 6.6 147.4 6.6 152.6 3.5 157.1 3.5 161.2 5.9 164.9 5.9 170.7 2.4 172.9 2.4 180.6 7 185.6 7 191.5 3.5 194.9 3.5 197.8 5.2 201.2 5.2 206.4 2.1 211.9 2.1 214.7 3.8 219 3.8 222.5 1.8 226.1 1.8 230.1 4.1 233.8 4.1 236.3 2.6 240 2.6 240 38.4 203.1 49.1 160.3 76.7 120 84.3 60 53.7 0 42.1 0 4.1"/><polygon class="cls-3" points="0 8.3 5.1 8.3 8.3 3.6 12.8 3.6 18.3 11.9 22.5 11.9 26.2 6.3 32.5 6.3 34.3 9.2 38.3 9.2 42 3.6 49.1 3.6 56.8 15.1 62.1 15.1 67.1 7.7 72.8 7.7 75.2 11.4 79.7 11.4 84.1 4.8 87.8 4.8 96.2 17.4 101.3 17.4 108.1 7.1 114.9 7.1 118.3 12.3 122.4 12.3 127.7 4.4 135.4 4.4 141.2 13.3 146.6 13.3 150.8 7 156.5 7 159.8 11.9 164.3 11.9 168.9 4.9 171.8 4.9 177.9 14 184.1 14 188.8 7 193.1 7 195.4 10.5 199.7 10.5 203.8 4.3 210.7 4.3 213 7.7 218.4 7.7 221.1 3.6 225.6 3.6 228.9 8.3 233.4 8.3 235.5 5.3 240 5.3 240 38.4 203.1 49.1 160.3 76.7 120 84.3 60 53.7 0 42.1 0 8.3"/><polygon class="cls-4" points="0 12.5 6.2 12.5 8.5 5.4 13.9 5.4 18.1 17.9 23.2 17.9 26 9.5 33.4 9.5 34.8 13.8 39.6 13.8 42.4 5.4 50.9 5.4 56.7 22.7 63.1 22.7 66.8 11.5 73.6 11.5 75.4 17.1 80.9 17.1 84.2 7.2 88.6 7.2 94.9 26.1 101 26.1 106.1 10.7 114.3 10.7 116.8 18.4 121.8 18.4 125.8 6.6 135 6.6 139.4 19.9 145.9 19.9 149 10.5 155.8 10.5 158.3 17.9 163.7 17.9 167.2 7.4 170.6 7.4 175.2 21 182.7 21 186.2 10.5 191.3 10.5 193.1 15.7 198.1 15.7 201.3 6.4 209.5 6.4 211.2 11.5 217.7 11.5 219.7 5.4 225.2 5.4 227.6 12.5 233 12.5 234.6 7.9 240 7.9 240 38.4 203.1 49.1 160.3 76.7 120 84.3 60 53.7 0 42.1 0 12.5"/><polygon class="cls-5" points="0 16.7 7.2 16.7 8.8 7.2 15.1 7.2 17.9 23.9 23.8 23.9 25.7 12.6 34.4 12.6 35.3 18.4 40.9 18.4 42.8 7.2 52.7 7.2 56.5 30.3 64.1 30.3 66.5 15.3 74.5 15.3 75.7 22.8 82 22.8 84.2 9.6 89.4 9.6 93.6 34.8 100.7 34.8 104.1 14.3 113.7 14.3 115.3 24.5 121.2 24.5 123.8 8.9 134.6 8.9 137.6 26.6 145.1 26.6 147.2 14 155.1 14 156.8 23.9 163.1 23.9 165.5 9.9 169.4 9.9 172.5 28.1 181.2 28.1 183.6 14 189.5 14 190.7 21 196.6 21 198.7 8.5 208.3 8.5 209.4 15.3 217 15.3 218.3 7.2 224.7 7.2 226.3 16.7 232.7 16.7 233.7 10.6 240 10.6 240 38.4 203.1 49.1 160.3 76.7 120 84.3 60 53.7 0 42.1 0 16.7"/><polygon class="cls-6" points="0 20.9 8.2 20.9 9 9 16.3 9 17.7 29.8 24.5 29.8 25.4 15.8 35.4 15.8 35.8 23 42.2 23 43.1 9 54.5 9 56.4 37.9 65 37.9 66.3 19.2 75.3 19.2 75.9 28.6 83.2 28.6 84.3 12 90.2 12 92.3 43.5 100.4 43.5 102.2 17.9 113 17.9 113.9 30.7 120.6 30.7 121.9 11.1 134.3 11.1 135.7 33.2 144.3 33.2 145.4 17.5 154.5 17.5 155.3 29.8 162.5 29.8 163.7 12.4 168.2 12.4 169.8 35.1 179.8 35.1 180.9 17.5 187.8 17.5 188.3 26.2 195.1 26.2 196.2 10.7 207.1 10.7 207.6 19.2 216.3 19.2 217 9 224.2 9 225 20.9 232.3 20.9 232.8 13.2 240 13.2 240 38.4 203.1 49.1 160.3 76.7 120 84.3 60 53.7 0 42.1 0 20.9"/><polygon class="cls-7" points="0 25.1 9.3 25.1 9.3 10.8 17.5 10.8 17.5 35.8 25.1 35.8 25.1 19 36.3 19 36.3 27.6 43.5 27.6 43.5 10.8 56.3 10.8 56.3 45.5 66 45.5 66 23 76.2 23 76.2 34.3 84.3 34.3 84.3 14.4 91 14.4 91 52.1 100.2 52.1 100.2 21.5 112.4 21.5 112.4 36.8 120 36.8 120 13.3 133.9 13.3 133.9 39.9 143.6 39.9 143.6 21 153.8 21 153.8 35.8 162 35.8 162 14.9 167.1 14.9 167.1 42.1 178.3 42.1 178.3 21 186 21 186 31.5 193.6 31.5 193.6 12.8 205.9 12.8 205.9 23 215.6 23 215.6 10.8 223.8 10.8 223.8 25.1 231.9 25.1 231.9 15.9 240 15.9 240 38.4 203.1 49.1 160.3 76.7 120 84.3 60 53.7 0 42.1 0 25.1"/><polygon class="cls-8" points="0 27.3 9.3 27.3 9.3 14.2 17.5 14.2 17.5 37.2 25.1 37.2 25.1 21.7 36.3 21.7 36.3 29.7 43.5 29.7 43.5 14.2 56.3 14.2 56.3 46.1 66 46.1 66 25.5 76.2 25.5 76.2 35.8 84.3 35.8 84.3 17.5 91 17.5 91 52.2 100.2 52.2 100.2 24 112.4 24 112.4 38.1 120 38.1 120 16.5 133.9 16.5 133.9 40.9 143.6 40.9 143.6 23.6 153.8 23.6 153.8 37.2 162 37.2 162 17.9 167.1 17.9 167.1 43 178.3 43 178.3 23.6 186 23.6 186 33.2 193.6 33.2 193.6 16.1 205.9 16.1 205.9 25.5 215.6 25.5 215.6 14.2 223.8 14.2 223.8 27.3 231.9 27.3 231.9 18.9 240 18.9 240 39.5 203.1 49.4 160.3 74.7 120 81.8 60 53.6 0 43 0 27.3"/><polygon class="cls-9" points="0 29.6 9.3 29.6 9.3 17.6 17.5 17.6 17.5 38.6 25.1 38.6 25.1 24.4 36.3 24.4 36.3 31.7 43.5 31.7 43.5 17.6 56.3 17.6 56.3 46.7 66 46.7 66 27.9 76.2 27.9 76.2 37.3 84.3 37.3 84.3 20.6 91 20.6 91 52.3 100.2 52.3 100.2 26.6 112.4 26.6 112.4 39.4 120 39.4 120 19.7 133.9 19.7 133.9 42 143.6 42 143.6 26.2 153.8 26.2 153.8 38.6 162 38.6 162 21 167.1 21 167.1 43.9 178.3 43.9 178.3 26.2 186 26.2 186 34.9 193.6 34.9 193.6 19.3 205.9 19.3 205.9 27.9 215.6 27.9 215.6 17.6 223.8 17.6 223.8 29.6 231.9 29.6 231.9 21.9 240 21.9 240 40.7 203.1 49.7 160.3 72.8 120 79.2 60 53.5 0 43.9 0 29.6"/><polygon class="cls-10" points="0 31.8 9.3 31.8 9.3 21 17.5 21 17.5 39.9 25.1 39.9 25.1 27.2 36.3 27.2 36.3 33.8 43.5 33.8 43.5 21 56.3 21 56.3 47.3 66 47.3 66 30.3 76.2 30.3 76.2 38.8 84.3 38.8 84.3 23.7 91 23.7 91 52.3 100.2 52.3 100.2 29.1 112.4 29.1 112.4 40.7 120 40.7 120 22.9 133.9 22.9 133.9 43 143.6 43 143.6 28.7 153.8 28.7 153.8 39.9 162 39.9 162 24.1 167.1 24.1 167.1 44.7 178.3 44.7 178.3 28.7 186 28.7 186 36.7 193.6 36.7 193.6 22.5 205.9 22.5 205.9 30.3 215.6 30.3 215.6 21 223.8 21 223.8 31.8 231.9 31.8 231.9 24.9 240 24.9 240 41.9 203.1 50 160.3 70.9 120 76.7 60 53.5 0 44.7 0 31.8"/><polygon class="cls-11" points="0 34.1 9.3 34.1 9.3 24.4 17.5 24.4 17.5 41.3 25.1 41.3 25.1 29.9 36.3 29.9 36.3 35.8 43.5 35.8 43.5 24.4 56.3 24.4 56.3 47.9 66 47.9 66 32.7 76.2 32.7 76.2 40.3 84.3 40.3 84.3 26.8 91 26.8 91 52.4 100.2 52.4 100.2 31.7 112.4 31.7 112.4 42 120 42 120 26.1 133.9 26.1 133.9 44.1 143.6 44.1 143.6 31.3 153.8 31.3 153.8 41.3 162 41.3 162 27.2 167.1 27.2 167.1 45.6 178.3 45.6 178.3 31.3 186 31.3 186 38.4 193.6 38.4 193.6 25.8 205.9 25.8 205.9 32.7 215.6 32.7 215.6 24.4 223.8 24.4 223.8 34.1 231.9 34.1 231.9 27.9 240 27.9 240 43 203.1 50.3 160.3 68.9 120 74.1 60 53.4 0 45.6 0 34.1"/><polygon class="cls-12" points="0 36.3 9.3 36.3 9.3 27.8 17.5 27.8 17.5 42.7 25.1 42.7 25.1 32.7 36.3 32.7 36.3 37.8 43.5 37.8 43.5 27.8 56.3 27.8 56.3 48.5 66 48.5 66 35.1 76.2 35.1 76.2 41.8 84.3 41.8 84.3 29.9 91 29.9 91 52.4 100.2 52.4 100.2 34.2 112.4 34.2 112.4 43.3 120 43.3 120 29.3 133.9 29.3 133.9 45.1 143.6 45.1 143.6 33.9 153.8 33.9 153.8 42.7 162 42.7 162 30.2 167.1 30.2 167.1 46.5 178.3 46.5 178.3 33.9 186 33.9 186 40.1 193.6 40.1 193.6 29 205.9 29 205.9 35.1 215.6 35.1 215.6 27.8 223.8 27.8 223.8 36.3 231.9 36.3 231.9 30.8 240 30.8 240 44.2 203.1 50.6 160.3 67 120 71.6 60 53.3 0 46.5 0 36.3"/><polygon class="cls-13" points="0 38.6 9.3 38.6 9.3 31.2 17.5 31.2 17.5 44.1 25.1 44.1 25.1 35.4 36.3 35.4 36.3 39.9 43.5 39.9 43.5 31.2 56.3 31.2 56.3 49.1 66 49.1 66 37.5 76.2 37.5 76.2 43.3 84.3 43.3 84.3 33 91 33 91 52.5 100.2 52.5 100.2 36.7 112.4 36.7 112.4 44.6 120 44.6 120 32.5 133.9 32.5 133.9 46.2 143.6 46.2 143.6 36.5 153.8 36.5 153.8 44.1 162 44.1 162 33.3 167.1 33.3 167.1 47.3 178.3 47.3 178.3 36.5 186 36.5 186 41.8 193.6 41.8 193.6 32.3 205.9 32.3 205.9 37.5 215.6 37.5 215.6 31.2 223.8 31.2 223.8 38.6 231.9 38.6 231.9 33.8 240 33.8 240 45.4 203.1 50.9 160.3 65.1 120 69 60 53.3 0 47.3 0 38.6"/><polyline class="cls-14" points="73.6 0 0 0 0 127 5.3 127 5.3 8.7 10.4 8.7 10.4 101.9 15.8 101.9 15.8 70.5 24.9 70.5 24.9 12.2 41.4 12.2 41.4 99 50.1 99 50.1 8.1 58.2 8.1 58.2 60.7 63.6 60.7 63.6 5.3 68.7 5.3 68.7 82.4 73.6 82.4 73.6 0"/><polyline class="cls-15" points="73.6 0 0 0 0 107.6 5.3 107.6 5.3 7.5 10.4 7.5 10.4 86.4 15.8 86.4 15.8 59.7 24.9 59.7 24.9 11 41.4 11 41.4 83.9 50.1 83.9 50.1 7.4 58.2 7.4 58.2 51.4 63.6 51.4 63.6 4.9 68.7 4.9 68.7 69.8 73.6 69.8 73.6 0"/><polyline class="cls-16" points="73.6 0 0 0 0 88.2 5.3 88.2 5.3 6.4 10.4 6.4 10.4 70.8 15.8 70.8 15.8 48.9 24.9 48.9 24.9 9.8 41.4 9.8 41.4 68.8 50.1 68.8 50.1 6.8 58.2 6.8 58.2 42.2 63.6 42.2 63.6 4.5 68.7 4.5 68.7 57.3 73.6 57.3 73.6 0"/><polyline class="cls-17" points="73.6 0 0 0 0 68.8 5.3 68.8 5.3 5.3 10.4 5.3 10.4 55.2 15.8 55.2 15.8 38.2 24.9 38.2 24.9 8.7 41.4 8.7 41.4 53.6 50.1 53.6 50.1 6.2 58.2 6.2 58.2 32.9 63.6 32.9 63.6 4.1 68.7 4.1 68.7 44.7 73.6 44.7 73.6 0"/><polyline class="cls-18" points="73.6 0 0 0 0 49.4 5.3 49.4 5.3 4.1 10.4 4.1 10.4 39.6 15.8 39.6 15.8 27.4 24.9 27.4 24.9 7.5 41.4 7.5 41.4 38.5 50.1 38.5 50.1 5.5 58.2 5.5 58.2 23.6 63.6 23.6 63.6 3.7 68.7 3.7 68.7 32.1 73.6 32.1 73.6 0"/><polyline class="cls-19" points="73.6 0 0 0 0 30 5.3 30 5.3 3 10.4 3 10.4 24.1 15.8 24.1 15.8 16.6 24.9 16.6 24.9 6.3 41.4 6.3 41.4 23.4 50.1 23.4 50.1 4.9 58.2 4.9 58.2 14.3 63.6 14.3 63.6 3.3 68.7 3.3 68.7 19.5 73.6 19.5 73.6 0"/><polyline class="cls-20" points="73.6 0 0 0 0 10.6 5.3 10.6 5.3 1.8 10.4 1.8 10.4 8.5 15.8 8.5 15.8 5.9 24.9 5.9 24.9 5.1 41.4 5.1 41.4 8.3 50.1 8.3 50.1 4.3 58.2 4.3 58.2 5 63.6 5 63.6 2.9 68.7 2.9 68.7 6.9 73.6 6.9 73.6 0"/><polyline class="cls-14" points="147.1 0 73.6 0 73.6 79.7 78.9 79.7 78.9 5.4 84 5.4 84 64 89.4 64 89.4 44.2 98.5 44.2 98.5 7.6 115 7.6 115 62.1 123.7 62.1 123.7 5.1 131.8 5.1 131.8 38.1 137.2 38.1 137.2 3.3 142.3 3.3 142.3 51.7 147.1 51.7 147.1 0"/><polyline class="cls-15" points="147.1 0 73.6 0 73.6 67.5 78.9 67.5 78.9 4.7 84 4.7 84 54.2 89.4 54.2 89.4 37.5 98.5 37.5 98.5 6.9 115 6.9 115 52.6 123.7 52.6 123.7 4.7 131.8 4.7 131.8 32.3 137.2 32.3 137.2 3.1 142.3 3.1 142.3 43.8 147.1 43.8 147.1 0"/><polyline class="cls-16" points="147.1 0 73.6 0 73.6 55.4 78.9 55.4 78.9 4 84 4 84 44.4 89.4 44.4 89.4 30.7 98.5 30.7 98.5 6.2 115 6.2 115 43.1 123.7 43.1 123.7 4.3 131.8 4.3 131.8 26.4 137.2 26.4 137.2 2.8 142.3 2.8 142.3 35.9 147.1 35.9 147.1 0"/><polyline class="cls-17" points="147.1 0 73.6 0 73.6 43.2 78.9 43.2 78.9 3.3 84 3.3 84 34.6 89.4 34.6 89.4 23.9 98.5 23.9 98.5 5.4 115 5.4 115 33.7 123.7 33.7 123.7 3.9 131.8 3.9 131.8 20.6 137.2 20.6 137.2 2.6 142.3 2.6 142.3 28 147.1 28 147.1 0"/><polyline class="cls-18" points="147.1 0 73.6 0 73.6 31 78.9 31 78.9 2.6 84 2.6 84 24.9 89.4 24.9 89.4 17.2 98.5 17.2 98.5 4.7 115 4.7 115 24.2 123.7 24.2 123.7 3.5 131.8 3.5 131.8 14.8 137.2 14.8 137.2 2.3 142.3 2.3 142.3 20.1 147.1 20.1 147.1 0"/><polyline class="cls-19" points="147.1 0 73.6 0 73.6 18.8 78.9 18.8 78.9 1.9 84 1.9 84 15.1 89.4 15.1 89.4 10.4 98.5 10.4 98.5 3.9 115 3.9 115 14.7 123.7 14.7 123.7 3.1 131.8 3.1 131.8 9 137.2 9 137.2 2.1 142.3 2.1 142.3 12.2 147.1 12.2 147.1 0"/><polyline class="cls-20" points="147.1 0 73.6 0 73.6 6.6 78.9 6.6 78.9 1.1 84 1.1 84 5.3 89.4 5.3 89.4 3.7 98.5 3.7 98.5 3.2 115 3.2 115 5.2 123.7 5.2 123.7 2.7 131.8 2.7 131.8 3.2 137.2 3.2 137.2 1.8 142.3 1.8 142.3 4.3 147.1 4.3 147.1 0"/><polyline class="cls-14" points="166.4 0 240 0 240 66.7 234.7 66.7 234.7 4.5 229.6 4.5 229.6 53.5 224.2 53.5 224.2 37 215.1 37 215.1 6.4 198.6 6.4 198.6 52 189.9 52 189.9 4.2 181.8 4.2 181.8 31.9 176.4 31.9 176.4 2.8 171.3 2.8 171.3 43.3 166.4 43.3 166.4 0"/><polyline class="cls-15" points="166.4 0 240 0 240 56.5 234.7 56.5 234.7 3.9 229.6 3.9 229.6 45.3 224.2 45.3 224.2 31.3 215.1 31.3 215.1 5.8 198.6 5.8 198.6 44 189.9 44 189.9 3.9 181.8 3.9 181.8 27 176.4 27 176.4 2.5 171.3 2.5 171.3 36.7 166.4 36.7 166.4 0"/><polyline class="cls-16" points="166.4 0 240 0 240 46.3 234.7 46.3 234.7 3.3 229.6 3.3 229.6 37.1 224.2 37.1 224.2 25.7 215.1 25.7 215.1 5.1 198.6 5.1 198.6 36.1 189.9 36.1 189.9 3.6 181.8 3.6 181.8 22.1 176.4 22.1 176.4 2.3 171.3 2.3 171.3 30 166.4 30 166.4 0"/><polyline class="cls-17" points="166.4 0 240 0 240 36.1 234.7 36.1 234.7 2.7 229.6 2.7 229.6 29 224.2 29 224.2 20 215.1 20 215.1 4.5 198.6 4.5 198.6 28.1 189.9 28.1 189.9 3.2 181.8 3.2 181.8 17.2 176.4 17.2 176.4 2.1 171.3 2.1 171.3 23.4 166.4 23.4 166.4 0"/><polyline class="cls-18" points="166.4 0 240 0 240 25.9 234.7 25.9 234.7 2.1 229.6 2.1 229.6 20.8 224.2 20.8 224.2 14.4 215.1 14.4 215.1 3.9 198.6 3.9 198.6 20.2 189.9 20.2 189.9 2.9 181.8 2.9 181.8 12.4 176.4 12.4 176.4 1.9 171.3 1.9 171.3 16.8 166.4 16.8 166.4 0"/><polyline class="cls-19" points="166.4 0 240 0 240 15.7 234.7 15.7 234.7 1.5 229.6 1.5 229.6 12.6 224.2 12.6 224.2 8.7 215.1 8.7 215.1 3.3 198.6 3.3 198.6 12.3 189.9 12.3 189.9 2.6 181.8 2.6 181.8 7.5 176.4 7.5 176.4 1.7 171.3 1.7 171.3 10.2 166.4 10.2 166.4 0"/><polyline class="cls-20" points="166.4 0 240 0 240 5.5 234.7 5.5 234.7 0.9 229.6 0.9 229.6 4.4 224.2 4.4 224.2 3.1 215.1 3.1 215.1 2.7 198.6 2.7 198.6 4.3 189.9 4.3 189.9 2.2 181.8 2.2 181.8 2.6 176.4 2.6 176.4 1.5 171.3 1.5 171.3 3.6 166.4 3.6 166.4 0"/></g></g></svg>