<svg xmlns="http://www.w3.org/2000/svg" viewBox="0 0 360 161.5"><defs><style>.cls-1,.cls-14,.cls-15,.cls-16,.cls-17,.cls-18,.cls-19,.cls-20{fill:#5e6614;}.cls-2{fill:#555912;}.cls-3{fill:#4c4b11;}.cls-4{fill:#433e10;}.cls-5{fill:#3a310e;}.cls-6{fill:#31230d;}.cls-7{fill:#28160b;}.cls-8{fill:#25140a;}.cls-9{fill:#221309;}.cls-10{fill:#1f1109;}.cls-11{fill:#1c0f08;}.cls-12{fill:#190e07;}.cls-13{fill:#160c06;}.cls-14{opacity:0.5;}.cls-14,.cls-15,.cls-16,.cls-17,.cls-18,.cls-19,.cls-20{isolation:isolate;}.cls-15{opacity:0.55;}.cls-16{opacity:0.61;}.cls-17{opacity:0.66;}.cls-18{opacity:0.71;}.cls-19{opacity:0.77;}.cls-20{opacity:0.82;}</style></defs><title>7</title><g id="Layer_2" data-name="Layer 2"><g id="Layer_1-2" data-name="Layer 1"><polygon class="cls-1" points="0 0 0 55.8 60 85.4 91.8 52.7 120 42.7 120 0 0 0"/><polygon class="cls-2" points="1 3.4 1 23.1 0 29.9 0 55.8 60 85.4 91.8 52.7 120 42.7 120 31.9 118.5 23 118.5 2.6 114.6 2.6 111.3 4.9 109 4.9 104.9 2 101 2 93.7 7.1 90.6 7.1 84.9 3.2 81.5 3.2 71.8 10 68.6 10 57.6 2.3 54.5 2.3 49.2 6 46.2 6 43.3 3.9 39.7 3.9 33.7 8 30.7 8 22.8 2.5 18.4 2.5 11.8 7.1 8.6 7.1 3.3 3.4 1 3.4"/><polygon class="cls-3" points="2 6.9 2 25.6 0 31.1 0 55.8 60 85.4 91.8 52.7 120 42.7 120 32.2 116.9 25 116.9 5.2 112 5.2 109.3 9.8 106.3 9.8 103 3.9 98 3.9 92.2 14.2 88.1 14.2 83.6 6.3 79.2 6.3 71.4 19.9 67.3 19.9 58.4 4.5 54.5 4.5 50.3 11.9 46.4 11.9 44 7.8 39.4 7.8 34.6 16.1 30.7 16.1 24.4 5.1 18.7 5.1 13.4 14.2 9.2 14.2 5 6.9 2 6.9"/><polygon class="cls-4" points="3 10.3 3 28.2 0 32.3 0 55.8 60 85.4 91.8 52.7 120 42.7 120 32.5 115.4 27.1 115.4 7.8 109.3 7.8 107.3 14.8 103.6 14.8 101.1 5.9 95 5.9 90.6 21.3 85.6 21.3 82.2 9.5 76.8 9.5 70.9 29.9 65.9 29.9 59.3 6.8 54.5 6.8 51.3 17.9 46.5 17.9 44.7 11.7 39 11.7 35.4 24.1 30.6 24.1 25.9 7.6 18.9 7.6 14.9 21.3 9.9 21.3 6.7 10.3 3 10.3"/><polygon class="cls-5" points="4 13.8 4 30.7 0 33.5 0 55.8 60 85.4 91.8 52.7 120 42.7 120 32.7 113.9 29.2 113.9 10.4 106.7 10.4 105.3 19.7 100.9 19.7 99.3 7.9 92 7.9 89.1 28.5 83.1 28.5 80.9 12.7 74.4 12.7 70.5 39.9 64.6 39.9 60.1 9 54.4 9 52.3 23.9 46.6 23.9 45.4 15.6 38.7 15.6 36.3 32.2 30.6 32.2 27.4 10.2 19.1 10.2 16.5 28.5 10.5 28.5 8.4 13.8 4 13.8"/><polygon class="cls-6" points="5 17.2 5 33.3 0 34.7 0 55.8 60 85.4 91.8 52.7 120 42.7 120 33 112.4 31.2 112.4 13 104 13 103.3 24.6 98.3 24.6 97.4 9.9 89 9.9 87.6 35.6 80.7 35.6 79.5 15.8 72 15.8 70.1 49.9 63.2 49.9 61 11.3 54.4 11.3 53.3 29.9 46.7 29.9 46.2 19.5 38.4 19.5 37.2 40.2 30.6 40.2 29 12.7 19.4 12.7 18.1 35.6 11.2 35.6 10.1 17.2 5 17.2"/><polygon class="cls-7" points="120 33.3 110.9 33.3 110.9 15.6 101.3 15.6 101.3 29.5 95.6 29.5 95.6 11.8 86 11.8 86 42.7 78.2 42.7 78.2 19 69.7 19 69.7 59.8 61.9 59.8 61.9 13.5 54.4 13.5 54.4 35.8 46.9 35.8 46.9 23.4 38 23.4 38 48.3 30.5 48.3 30.5 15.2 19.6 15.2 19.6 42.7 11.8 42.7 11.8 20.7 6 20.7 6 35.8 0 35.8 0 55.8 60 85.4 91.8 52.7 120 42.7 120 33.3"/><polygon class="cls-8" points="120 34.8 110.9 34.8 110.9 18.9 101.3 18.9 101.3 31.5 95.6 31.5 95.6 15.5 86 15.5 86 43.3 78.2 43.3 78.2 21.9 69.7 21.9 69.7 58.8 61.9 58.8 61.9 17 54.4 17 54.4 37.1 46.9 37.1 46.9 25.9 38 25.9 38 48.4 30.5 48.4 30.5 18.5 19.6 18.5 19.6 43.3 11.8 43.3 11.8 23.5 6 23.5 6 37.1 0 37.1 0 55.1 60 81.9 91.8 52.4 120 43.3 120 34.8"/><polygon class="cls-9" points="120 36.4 110.9 36.4 110.9 22.1 101.3 22.1 101.3 33.4 95.6 33.4 95.6 19.1 86 19.1 86 43.9 78.2 43.9 78.2 24.9 69.7 24.9 69.7 57.8 61.9 57.8 61.9 20.5 54.4 20.5 54.4 38.4 46.9 38.4 46.9 28.4 38 28.4 38 48.4 30.5 48.4 30.5 21.8 19.6 21.8 19.6 43.9 11.8 43.9 11.8 26.2 6 26.2 6 38.4 0 38.4 0 54.5 60 78.3 91.8 52 120 43.9 120 36.4"/><polygon class="cls-10" points="120 37.9 110.9 37.9 110.9 25.4 101.3 25.4 101.3 35.3 95.6 35.3 95.6 22.7 86 22.7 86 44.6 78.2 44.6 78.2 27.8 69.7 27.8 69.7 56.7 61.9 56.7 61.9 23.9 54.4 23.9 54.4 39.7 46.9 39.7 46.9 30.9 38 30.9 38 48.5 30.5 48.5 30.5 25.1 19.6 25.1 19.6 44.6 11.8 44.6 11.8 29 6 29 6 39.7 0 39.7 0 53.8 60 74.8 91.8 51.7 120 44.6 120 37.9"/><polygon class="cls-11" points="120 39.5 110.9 39.5 110.9 28.7 101.3 28.7 101.3 37.2 95.6 37.2 95.6 26.4 86 26.4 86 45.2 78.2 45.2 78.2 30.7 69.7 30.7 69.7 55.7 61.9 55.7 61.9 27.4 54.4 27.4 54.4 41 46.9 41 46.9 33.4 38 33.4 38 48.6 30.5 48.6 30.5 28.4 19.6 28.4 19.6 45.2 11.8 45.2 11.8 31.8 6 31.8 6 41 0 41 0 53.2 60 71.3 91.8 51.3 120 45.2 120 39.5"/><polygon class="cls-12" points="120 41 110.9 41 110.9 31.9 101.3 31.9 101.3 39.1 95.6 39.1 95.6 30 86 30 86 45.8 78.2 45.8 78.2 33.7 69.7 33.7 69.7 54.7 61.9 54.7 61.9 30.9 54.4 30.9 54.4 42.3 46.9 42.3 46.9 35.9 38 35.9 38 48.7 30.5 48.7 30.5 31.7 19.6 31.7 19.6 45.8 11.8 45.8 11.8 34.5 6 34.5 6 42.3 0 42.3 0 52.6 60 67.8 91.8 51 120 45.8 120 41"/><polygon class="cls-13" points="120 42.6 110.9 42.6 110.9 35.2 101.3 35.2 101.3 41 95.6 41 95.6 33.6 86 33.6 86 46.5 78.2 46.5 78.2 36.6 69.7 36.6 69.7 53.6 61.9 53.6 61.9 34.3 54.4 34.3 54.4 43.6 46.9 43.6 46.9 38.5 38 38.5 38 48.8 30.5 48.8 30.5 35 19.6 35 19.6 46.5 11.8 46.5 11.8 37.3 6 37.3 6 43.6 0 43.6 0 51.9 60 64.3 91.8 50.7 120 46.5 120 42.6"/><polygon class="cls-1" points="120 0 360 0 360 36.9 314.6 70.6 219.7 86.9 132.8 50.3 120 44.2 120 0"/><polygon class="cls-2" points="120 3.6 122.8 3.6 125.6 1.6 128.3 1.6 132.3 4.5 134.7 4.5 136.9 2.9 139.3 2.9 145.6 7.4 148 7.4 155 2.4 158.9 2.4 163.8 5.9 166.3 5.9 169.4 3.7 173.4 3.7 177.5 6.6 180.3 6.6 186.5 2.2 188.9 2.2 192 4.5 195 4.5 197.5 2.7 202.2 2.7 209.8 8.1 212.3 8.1 218.9 3.4 221.9 3.4 225.7 6.1 228.4 6.1 234 2.2 237.4 2.2 242.3 5.7 245.2 5.7 251 1.6 255.7 1.6 264.6 7.8 267.4 7.8 273.8 3.4 278.4 3.4 281.6 5.6 284.7 5.6 289.9 2 294.2 2 301 6.8 303.9 6.8 309.7 2.7 313.1 2.7 316.1 4.8 319.6 4.8 324.2 1.6 327.5 1.6 334 6.2 337.3 6.2 342.3 2.7 345.6 2.7 349 5.1 351.9 5.1 356.9 1.6 360 1.6 360 37.1 314.6 70.6 219.7 86.9 132.9 50.2 120 44.2 120 3.6"/><polygon class="cls-3" points="120 7.2 123.6 7.2 125.9 3.2 129.4 3.2 132.6 9 135.8 9 137.5 5.8 140.7 5.8 145.7 14.7 148.8 14.7 154.4 4.8 159.5 4.8 163.5 11.8 166.7 11.8 169.1 7.4 174.4 7.4 177.7 13.2 181.4 13.2 186.3 4.5 189.5 4.5 192 9 195.9 9 197.9 5.4 203.9 5.4 210 16.1 213.3 16.1 218.6 6.8 222.5 6.8 225.5 12.3 229.1 12.3 233.5 4.3 237.9 4.3 241.9 11.4 245.6 11.4 250.2 3.2 256.4 3.2 263.5 15.7 267.2 15.7 272.3 6.7 278.3 6.7 280.8 11.3 284.9 11.3 289 4 294.7 4 300.1 13.5 303.8 13.5 308.5 5.4 312.9 5.4 315.4 9.7 319.8 9.7 323.5 3.2 327.7 3.2 333 12.4 337.3 12.4 341.3 5.4 345.5 5.4 348.3 10.1 352 10.1 356 3.2 360 3.2 360 37.3 314.6 70.6 219.7 86.9 132.9 50.1 120 44.2 120 7.2"/><polygon class="cls-4" points="120 10.8 124.5 10.8 126.2 4.8 130.5 4.8 132.9 13.5 136.8 13.5 138.1 8.7 142 8.7 145.8 22.1 149.7 22.1 153.9 7.2 160.2 7.2 163.2 17.7 167.1 17.7 168.9 11.1 175.4 11.1 177.9 19.8 182.4 19.8 186.1 6.7 190 6.7 191.9 13.5 196.7 13.5 198.2 8 205.6 8 210.2 24.2 214.3 24.2 218.2 10.3 223 10.3 225.3 18.4 229.7 18.4 233 6.5 238.4 6.5 241.4 17.1 246 17.1 249.5 4.8 257.1 4.8 262.4 23.5 267 23.5 270.8 10.1 278.2 10.1 280.1 16.9 285.1 16.9 288.2 6 295.2 6 299.2 20.3 303.8 20.3 307.3 8 312.7 8 314.6 14.5 320 14.5 322.8 4.8 328 4.8 332 18.6 337.2 18.6 340.2 8 345.5 8 347.5 15.2 352.1 15.2 355.1 4.8 360 4.8 360 37.5 314.6 70.6 219.7 86.9 132.9 50 120 44.2 120 10.8"/><polygon class="cls-5" points="120 14.4 125.4 14.4 126.5 6.4 131.6 6.4 133.2 17.9 137.9 17.9 138.8 11.6 143.4 11.6 145.9 29.5 150.5 29.5 153.3 9.6 160.8 9.6 162.8 23.7 167.5 23.7 168.7 14.8 176.4 14.8 178.1 26.4 183.5 26.4 186 8.9 190.6 8.9 191.9 17.9 197.5 17.9 198.6 10.7 207.3 10.7 210.4 32.3 215.3 32.3 217.9 13.7 223.6 13.7 225.1 24.6 230.3 24.6 232.6 8.7 238.9 8.7 240.9 22.8 246.4 22.8 248.7 6.4 257.8 6.4 261.3 31.4 266.7 31.4 269.3 13.5 278.1 13.5 279.4 22.5 285.3 22.5 287.4 8 295.6 8 298.4 27.1 303.8 27.1 306.1 10.7 312.6 10.7 313.8 19.4 320.3 19.4 322.1 6.4 328.3 6.4 331 24.8 337.2 24.8 339.2 10.7 345.4 10.7 346.8 20.3 352.2 20.3 354.2 6.4 360 6.4 360 37.8 314.6 70.6 219.7 86.9 133 49.9 120 44.2 120 14.4"/><polygon class="cls-6" points="120 18 126.2 18 126.8 8 132.7 8 133.5 22.4 138.9 22.4 139.4 14.5 144.8 14.5 146 36.8 151.4 36.8 152.8 12 161.5 12 162.5 29.6 167.9 29.6 168.5 18.5 177.5 18.5 178.3 33 184.6 33 185.8 11.1 191.2 11.1 191.8 22.4 198.4 22.4 198.9 13.4 209.1 13.4 210.6 40.4 216.3 40.4 217.6 17.1 224.2 17.1 225 30.7 230.9 30.7 232.1 10.9 239.5 10.9 240.5 28.4 246.8 28.4 248 8 258.5 8 260.2 39.2 266.5 39.2 267.8 16.8 278 16.8 278.6 28.2 285.5 28.2 286.5 10 296.1 10 297.5 33.8 303.8 33.8 304.9 13.4 312.4 13.4 313 24.2 320.5 24.2 321.4 8 328.6 8 329.9 31 337.1 31 338.1 13.4 345.3 13.4 346 25.3 352.3 25.3 353.3 8 360 8 360 38 314.6 70.6 219.7 86.9 133 49.9 120 44.2 120 18"/><polygon class="cls-7" points="120 44.2 120 21.5 127.1 21.5 127.1 9.6 133.9 9.6 133.9 26.9 140 26.9 140 17.5 146.1 17.5 146.1 44.2 152.2 44.2 152.2 14.4 162.1 14.4 162.1 35.5 168.2 35.5 168.2 22.2 178.5 22.2 178.5 39.6 185.6 39.6 185.6 13.4 191.7 13.4 191.7 26.9 199.2 26.9 199.2 16.1 210.8 16.1 210.8 48.4 217.3 48.4 217.3 20.5 224.8 20.5 224.8 36.9 231.6 36.9 231.6 13 240 13 240 34.1 247.2 34.1 247.2 9.6 259.1 9.6 259.1 47.1 266.3 47.1 266.3 20.2 277.9 20.2 277.9 33.8 285.7 33.8 285.7 12 296.6 12 296.6 40.6 303.7 40.6 303.7 16.1 312.2 16.1 312.2 29 320.8 29 320.8 9.6 328.9 9.6 328.9 37.2 337.1 37.2 337.1 16.1 345.3 16.1 345.3 30.4 352.4 30.4 352.4 9.6 360 9.6 360 38.2 314.6 70.6 219.7 86.9 120 44.2"/><polygon class="cls-8" points="120 24.2 127.1 24.2 127.1 13 133.9 13 133.9 29.2 140 29.2 140 20.3 146.1 20.3 146.1 45.3 152.2 45.3 152.2 17.5 162.1 17.5 162.1 37.2 168.2 37.2 168.2 24.8 178.5 24.8 178.5 41 185.6 41 185.6 16.5 191.7 16.5 191.7 29.2 199.2 29.2 199.2 19.1 210.8 19.1 210.8 49.3 217.3 49.3 217.3 23.2 224.8 23.2 224.8 38.5 231.6 38.5 231.6 16.2 240 16.2 240 35.9 247.2 35.9 247.2 13 259.1 13 259.1 48 266.3 48 266.3 22.9 277.9 22.9 277.9 35.6 285.7 35.6 285.7 15.2 296.6 15.2 296.6 42 303.7 42 303.7 19.1 312.2 19.1 312.2 31.2 320.8 31.2 320.8 13 328.9 13 328.9 38.8 337.1 38.8 337.1 19.1 345.3 19.1 345.3 32.4 352.4 32.4 352.4 13 360 13 360 39.8 314.6 70 219.7 85.3 120 45.3 120 24.2"/><polygon class="cls-9" points="120 26.8 127.1 26.8 127.1 16.4 133.9 16.4 133.9 31.5 140 31.5 140 23.2 146.1 23.2 146.1 46.5 152.2 46.5 152.2 20.6 162.1 20.6 162.1 38.9 168.2 38.9 168.2 27.4 178.5 27.4 178.5 42.5 185.6 42.5 185.6 19.7 191.7 19.7 191.7 31.5 199.2 31.5 199.2 22 210.8 22 210.8 50.2 217.3 50.2 217.3 25.9 224.8 25.9 224.8 40.1 231.6 40.1 231.6 19.4 240 19.4 240 37.8 247.2 37.8 247.2 16.4 259.1 16.4 259.1 49 266.3 49 266.3 25.6 277.9 25.6 277.9 37.5 285.7 37.5 285.7 18.5 296.6 18.5 296.6 43.4 303.7 43.4 303.7 22 312.2 22 312.2 33.3 320.8 33.3 320.8 16.4 328.9 16.4 328.9 40.4 337.1 40.4 337.1 22 345.3 22 345.3 34.5 352.4 34.5 352.4 16.4 360 16.4 360 41.3 314.6 69.5 219.7 83.7 120 46.5 120 26.8"/><polygon class="cls-10" points="120 29.4 127.1 29.4 127.1 19.8 133.9 19.8 133.9 33.7 140 33.7 140 26.1 146.1 26.1 146.1 47.7 152.2 47.7 152.2 23.6 162.1 23.6 162.1 40.7 168.2 40.7 168.2 30 178.5 30 178.5 43.9 185.6 43.9 185.6 22.8 191.7 22.8 191.7 33.7 199.2 33.7 199.2 25 210.8 25 210.8 51.1 217.3 51.1 217.3 28.6 224.8 28.6 224.8 41.8 231.6 41.8 231.6 22.5 240 22.5 240 39.6 247.2 39.6 247.2 19.8 259.1 19.8 259.1 50 266.3 50 266.3 28.3 277.9 28.3 277.9 39.3 285.7 39.3 285.7 21.7 296.6 21.7 296.6 44.8 303.7 44.8 303.7 25 312.2 25 312.2 35.4 320.8 35.4 320.8 19.8 328.9 19.8 328.9 42 337.1 42 337.1 25 345.3 25 345.3 36.5 352.4 36.5 352.4 19.8 360 19.8 360 42.9 314.6 68.9 219.7 82.1 120 47.7 120 29.4"/><polygon class="cls-11" points="120 32 127.1 32 127.1 23.2 133.9 23.2 133.9 36 140 36 140 29 146.1 29 146.1 48.8 152.2 48.8 152.2 26.7 162.1 26.7 162.1 42.4 168.2 42.4 168.2 32.5 178.5 32.5 178.5 45.4 185.6 45.4 185.6 26 191.7 26 191.7 36 199.2 36 199.2 28 210.8 28 210.8 52 217.3 52 217.3 31.3 224.8 31.3 224.8 43.4 231.6 43.4 231.6 25.7 240 25.7 240 41.4 247.2 41.4 247.2 23.2 259.1 23.2 259.1 51 266.3 51 266.3 31 277.9 31 277.9 41.1 285.7 41.1 285.7 25 296.6 25 296.6 46.2 303.7 46.2 303.7 28 312.2 28 312.2 37.6 320.8 37.6 320.8 23.2 328.9 23.2 328.9 43.6 337.1 43.6 337.1 28 345.3 28 345.3 38.6 352.4 38.6 352.4 23.2 360 23.2 360 44.4 314.6 68.4 219.7 80.5 120 48.8 120 32"/><polygon class="cls-12" points="120 34.6 127.1 34.6 127.1 26.6 133.9 26.6 133.9 38.3 140 38.3 140 31.9 146.1 31.9 146.1 50 152.2 50 152.2 29.8 162.1 29.8 162.1 44.1 168.2 44.1 168.2 35.1 178.5 35.1 178.5 46.9 185.6 46.9 185.6 29.1 191.7 29.1 191.7 38.3 199.2 38.3 199.2 31 210.8 31 210.8 52.9 217.3 52.9 217.3 34 224.8 34 224.8 45 231.6 45 231.6 28.9 240 28.9 240 43.2 247.2 43.2 247.2 26.6 259.1 26.6 259.1 51.9 266.3 51.9 266.3 33.7 277.9 33.7 277.9 42.9 285.7 42.9 285.7 28.2 296.6 28.2 296.6 47.5 303.7 47.5 303.7 31 312.2 31 312.2 39.7 320.8 39.7 320.8 26.6 328.9 26.6 328.9 45.2 337.1 45.2 337.1 31 345.3 31 345.3 40.6 352.4 40.6 352.4 26.6 360 26.6 360 45.9 314.6 67.8 219.7 78.9 120 50 120 34.6"/><polygon class="cls-13" points="120 51.1 120 37.3 127.1 37.3 127.1 30 133.9 30 133.9 40.5 140 40.5 140 34.8 146.1 34.8 146.1 51.1 152.2 51.1 152.2 32.9 162.1 32.9 162.1 45.8 168.2 45.8 168.2 37.7 178.5 37.7 178.5 48.3 185.6 48.3 185.6 32.3 191.7 32.3 191.7 40.5 199.2 40.5 199.2 33.9 210.8 33.9 210.8 53.7 217.3 53.7 217.3 36.6 224.8 36.6 224.8 46.6 231.6 46.6 231.6 32.1 240 32.1 240 45 247.2 45 247.2 30 259.1 30 259.1 52.9 266.3 52.9 266.3 36.4 277.9 36.4 277.9 44.8 285.7 44.8 285.7 31.4 296.6 31.4 296.6 48.9 303.7 48.9 303.7 33.9 312.2 33.9 312.2 41.9 320.8 41.9 320.8 30 328.9 30 328.9 46.9 337.1 46.9 337.1 33.9 345.3 33.9 345.3 42.7 352.4 42.7 352.4 30 360 30 360 47.5 314.6 67.3 219.7 77.3 120 51.1"/><polyline class="cls-14" points="286.4 0 360 0 360 114.3 354.7 114.3 354.7 7.8 349.5 7.8 349.5 136.9 344.1 136.9 344.1 70.3 335 70.3 335 11 318.6 11 318.6 99.5 309.9 99.5 309.9 7.3 301.8 7.3 301.8 85.6 296.4 85.6 296.4 4.8 291.3 4.8 291.3 105.1 286.4 105.1 286.4 0"/><polyline class="cls-15" points="286.4 0 360 0 360 96.8 354.7 96.8 354.7 6.8 349.5 6.8 349.5 115.4 344.1 115.4 344.1 59.5 335 59.5 335 9.9 318.6 9.9 318.6 84.1 309.9 84.1 309.9 6.7 301.8 6.7 301.8 72.1 296.4 72.1 296.4 4.4 291.3 4.4 291.3 88.7 286.4 88.7 286.4 0"/><polyline class="cls-16" points="286.4 0 360 0 360 79.4 354.7 79.4 354.7 5.8 349.5 5.8 349.5 93.9 344.1 93.9 344.1 48.7 335 48.7 335 8.9 318.6 8.9 318.6 68.8 309.9 68.8 309.9 6.1 301.8 6.1 301.8 58.6 296.4 58.6 296.4 4.1 291.3 4.1 291.3 72.2 286.4 72.2 286.4 0"/><polyline class="cls-17" points="286.4 0 360 0 360 61.9 354.7 61.9 354.7 4.8 349.5 4.8 349.5 72.3 344.1 72.3 344.1 37.8 335 37.8 335 7.8 318.6 7.8 318.6 53.5 309.9 53.5 309.9 5.6 301.8 5.6 301.8 45.1 296.4 45.1 296.4 3.7 291.3 3.7 291.3 55.7 286.4 55.7 286.4 0"/><polyline class="cls-18" points="286.4 0 360 0 360 44.5 354.7 44.5 354.7 3.7 349.5 3.7 349.5 50.8 344.1 50.8 344.1 27 335 27 335 6.7 318.6 6.7 318.6 38.1 309.9 38.1 309.9 5 301.8 5 301.8 31.6 296.4 31.6 296.4 3.4 291.3 3.4 291.3 39.2 286.4 39.2 286.4 0"/><polyline class="cls-19" points="286.4 0 360 0 360 27 354.7 27 354.7 2.7 349.5 2.7 349.5 29.2 344.1 29.2 344.1 16.1 335 16.1 335 5.7 318.6 5.7 318.6 22.8 309.9 22.8 309.9 4.4 301.8 4.4 301.8 18.1 296.4 18.1 296.4 3 291.3 3 291.3 22.7 286.4 22.7 286.4 0"/><polyline class="cls-20" points="286.4 0 360 0 360 9.6 354.7 9.6 354.7 1.7 349.5 1.7 349.5 7.7 344.1 7.7 344.1 5.3 335 5.3 335 4.6 318.6 4.6 318.6 7.5 309.9 7.5 309.9 3.9 301.8 3.9 301.8 4.6 296.4 4.6 296.4 2.7 291.3 2.7 291.3 6.2 286.4 6.2 286.4 0"/><polyline class="cls-14" points="120 0 180.3 0 180.3 134.7 176 134.7 176 9.2 171.8 9.2 171.8 161.5 167.3 161.5 167.3 82.9 159.9 82.9 159.9 13 146.3 13 146.3 117.3 139.2 117.3 139.2 8.6 132.6 8.6 132.6 100.9 128.2 100.9 128.2 5.6 124 5.6 124 124 120 124 120 0"/><polyline class="cls-15" points="120 0 180.3 0 180.3 114.1 176 114.1 176 8 171.8 8 171.8 136.1 167.3 136.1 167.3 70.2 159.9 70.2 159.9 11.7 146.3 11.7 146.3 99.2 139.2 99.2 139.2 7.9 132.6 7.9 132.6 85 128.2 85 128.2 5.2 124 5.2 124 104.5 120 104.5 120 0"/><polyline class="cls-16" points="120 0 180.3 0 180.3 93.6 176 93.6 176 6.8 171.8 6.8 171.8 110.7 167.3 110.7 167.3 57.4 159.9 57.4 159.9 10.5 146.3 10.5 146.3 81.1 139.2 81.1 139.2 7.2 132.6 7.2 132.6 69.1 128.2 69.1 128.2 4.8 124 4.8 124 85.1 120 85.1 120 0"/><polyline class="cls-17" points="120 0 180.3 0 180.3 73 176 73 176 5.6 171.8 5.6 171.8 85.3 167.3 85.3 167.3 44.6 159.9 44.6 159.9 9.2 146.3 9.2 146.3 63 139.2 63 139.2 6.6 132.6 6.6 132.6 53.2 128.2 53.2 128.2 4.4 124 4.4 124 65.6 120 65.6 120 0"/><polyline class="cls-18" points="120 0 180.3 0 180.3 52.4 176 52.4 176 4.4 171.8 4.4 171.8 59.8 167.3 59.8 167.3 31.8 159.9 31.8 159.9 8 146.3 8 146.3 44.9 139.2 44.9 139.2 5.9 132.6 5.9 132.6 37.2 128.2 37.2 128.2 4 124 4 124 46.2 120 46.2 120 0"/><polyline class="cls-19" points="120 0 180.3 0 180.3 31.8 176 31.8 176 3.2 171.8 3.2 171.8 34.4 167.3 34.4 167.3 19 159.9 19 159.9 6.7 146.3 6.7 146.3 26.9 139.2 26.9 139.2 5.2 132.6 5.2 132.6 21.3 128.2 21.3 128.2 3.6 124 3.6 124 26.8 120 26.8 120 0"/><polyline class="cls-20" points="120 0 180.3 0 180.3 11.3 176 11.3 176 2 171.8 2 171.8 9 167.3 9 167.3 6.3 159.9 6.3 159.9 5.5 146.3 5.5 146.3 8.8 139.2 8.8 139.2 4.6 132.6 4.6 132.6 5.4 128.2 5.4 128.2 3.1 124 3.1 124 7.3 120 7.3 120 0"/><polyline class="cls-14" points="73.5 0 0 0 0 84.4 5.3 84.4 5.3 5.8 10.4 5.8 10.4 101.2 15.8 101.2 15.8 52 24.9 52 24.9 8.1 41.4 8.1 41.4 73.5 50.1 73.5 50.1 5.4 58.2 5.4 58.2 63.3 63.6 63.3 63.6 3.5 68.7 3.5 68.7 77.7 73.5 77.7 73.5 0"/><polyline class="cls-15" points="73.5 0 0 0 0 71.5 5.3 71.5 5.3 5 10.4 5 10.4 85.3 15.8 85.3 15.8 44 24.9 44 24.9 7.3 41.4 7.3 41.4 62.2 50.1 62.2 50.1 5 58.2 5 58.2 53.3 63.6 53.3 63.6 3.3 68.7 3.3 68.7 65.5 73.5 65.5 73.5 0"/><polyline class="cls-16" points="73.5 0 0 0 0 58.6 5.3 58.6 5.3 4.3 10.4 4.3 10.4 69.4 15.8 69.4 15.8 36 24.9 36 24.9 6.6 41.4 6.6 41.4 50.8 50.1 50.8 50.1 4.5 58.2 4.5 58.2 43.3 63.6 43.3 63.6 3 68.7 3 68.7 53.3 73.5 53.3 73.5 0"/><polyline class="cls-17" points="73.5 0 0 0 0 45.8 5.3 45.8 5.3 3.5 10.4 3.5 10.4 53.4 15.8 53.4 15.8 28 24.9 28 24.9 5.8 41.4 5.8 41.4 39.5 50.1 39.5 50.1 4.1 58.2 4.1 58.2 33.3 63.6 33.3 63.6 2.7 68.7 2.7 68.7 41.1 73.5 41.1 73.5 0"/><polyline class="cls-18" points="73.5 0 0 0 0 32.9 5.3 32.9 5.3 2.8 10.4 2.8 10.4 37.5 15.8 37.5 15.8 19.9 24.9 19.9 24.9 5 41.4 5 41.4 28.2 50.1 28.2 50.1 3.7 58.2 3.7 58.2 23.3 63.6 23.3 63.6 2.5 68.7 2.5 68.7 29 73.5 29 73.5 0"/><polyline class="cls-19" points="73.5 0 0 0 0 20 5.3 20 5.3 2 10.4 2 10.4 21.6 15.8 21.6 15.8 11.9 24.9 11.9 24.9 4.2 41.4 4.2 41.4 16.8 50.1 16.8 50.1 3.3 58.2 3.3 58.2 13.4 63.6 13.4 63.6 2.2 68.7 2.2 68.7 16.8 73.5 16.8 73.5 0"/><polyline class="cls-20" points="73.5 0 0 0 0 7.1 5.3 7.1 5.3 1.2 10.4 1.2 10.4 5.7 15.8 5.7 15.8 3.9 24.9 3.9 24.9 3.4 41.4 3.4 41.4 5.5 50.1 5.5 50.1 2.9 58.2 2.9 58.2 3.4 63.6 3.4 63.6 2 68.7 2 68.7 4.6 73.5 4.6 73.5 0"/></g></g></svg>