<svg xmlns="http://www.w3.org/2000/svg" viewBox="0 0 3480.4 1280.29"><defs><style>.cls-1{fill:#0c0c0c;}</style></defs><title>BG estático</title><g id="Layer_2" data-name="Layer 2"><g id="BG_estático" data-name="BG estático"><polygon class="cls-1" points="0.4 0 0 554.49 11.03 505.89 57.49 337.89 132.8 141.09 243.2 113.49 376.46 214.69 427.2 120.29 574.4 113.49 648 195.49 759.49 151.21 892.8 64.29 1064 104.29 1228.8 265.89 1355.43 141.79 1520 101.09 1614.4 94.69 1698.93 113.49 1865.6 85.09 1957.15 161.91 2018.97 131.62 2184.16 100.77 2269.63 217.89 2327.97 97.89 2369.6 15 2617.8 35.4 2697.6 113.49 2787.2 51.49 2912 15 2958.4 123.49 2969.59 62.5 3073.6 72.29 3166.4 169.89 3238.4 65.62 3392 158.29 3414.39 361.31 3269.6 685.09 3161.6 831.78 3094.4 951.88 2996.8 1024.29 2885.6 996.59 2837 925.19 2761.55 1042.53 2541.68 1094.48 2327.97 1031.89 2213.09 966.58 2058.13 980.95 1914 1073.49 1680.4 992.78 1654 945.49 1608 1031.89 1456.4 1093.56 1301.6 987.49 1263.2 950.09 1190 1040.29 1059.2 1112.29 953.05 1034.82 747.01 971.93 625.76 978 322.4 1112.29 231.2 974.73 149.6 893.49 81.85 753.74 19.04 858.71 11.03 1112.29 413.6 1280.29 3480.4 1280.29 3480.4 416.29 3480.4 226.69 3480.4 0 0.4 0"/></g></g></svg>