<svg xmlns="http://www.w3.org/2000/svg" viewBox="0 0 2802.91 779.27"><defs><style>.cls-1{fill:#996233;}.cls-2,.cls-3,.cls-4,.cls-45,.cls-46,.cls-47,.cls-48,.cls-49,.cls-50,.cls-51,.cls-52,.cls-53,.cls-54,.cls-55,.cls-56,.cls-57{fill:#491b02;}.cls-3{opacity:0.42;}.cls-4{opacity:0.46;}.cls-5{fill:#955f32;}.cls-6{fill:#915c31;}.cls-7{fill:#8e5a30;}.cls-8{fill:#8a572e;}.cls-9{fill:#86542d;}.cls-10{fill:#82512c;}.cls-11{fill:#532409;}.cls-12{fill:#5c2d10;}.cls-13{fill:#663617;}.cls-14{fill:#6f3f1e;}.cls-15{fill:#784825;}.cls-16{fill:#878787;}.cls-17{fill:#949494;}.cls-18{fill:#a0a0a0;}.cls-19{fill:#adadad;}.cls-20{fill:#bababa;}.cls-21{fill:#c6c6c6;}.cls-22{fill:#d3d3d3;}.cls-23{fill:#3a3a3a;}.cls-24{fill:#3f3f3f;}.cls-25{fill:#444;}.cls-26{fill:#4a4a4a;}.cls-27{fill:#4f4f4f;}.cls-28{fill:#545454;}.cls-29{fill:#595959;}.cls-30{fill:#666;}.cls-31{fill:#727272;}.cls-32{fill:#7f7f7f;}.cls-33{fill:#8c8c8c;}.cls-34{fill:#989898;}.cls-35{fill:#a5a5a5;}.cls-36{opacity:0.5;}.cls-37{fill:#cecece;}.cls-38{fill:#c9c9c9;}.cls-39{fill:#c4c4c4;}.cls-40{fill:#bfbfbf;}.cls-41{fill:#b5b5b5;}.cls-42{fill:#cbcbcb;}.cls-43{fill:#bcbcbc;}.cls-44{fill:#b4b4b4;}.cls-45{opacity:0.02;}.cls-46{opacity:0.16;}.cls-47{opacity:0.3;}.cls-48{opacity:0.44;}.cls-49{opacity:0.58;}.cls-50{opacity:0.72;}.cls-51{opacity:0.86;}.cls-52{opacity:0.08;}.cls-53{opacity:0.15;}.cls-54{opacity:0.21;}.cls-55{opacity:0.27;}.cls-56{opacity:0.33;}.cls-57{opacity:0.4;}</style></defs><title>detalhes</title><g id="Layer_2" data-name="Layer 2"><g id="Layer_4" data-name="Layer 4"><rect class="cls-1" x="2606.63" y="690.98" width="88.26" height="88.26" transform="translate(5301.52 1470.22) rotate(-180)"/><rect class="cls-2" x="2614.13" y="698.48" width="73.26" height="73.26" transform="translate(5301.52 1470.22) rotate(-180)"/><rect class="cls-1" x="2614.13" y="698.48" width="68.4" height="73.26" transform="translate(5296.67 1470.22) rotate(-180)"/><polygon class="cls-2" points="2687.39 759.38 2626.2 698.19 2614.13 698.19 2614.13 711.28 2674.96 772.11 2687.39 772.11 2687.39 759.38"/><polygon class="cls-1" points="2687.39 759.38 2626.2 698.19 2614.13 698.19 2614.13 706.2 2681.21 772.11 2687.39 772.11 2687.39 759.38"/><polygon class="cls-1" points="2614.13 759.38 2675.33 698.19 2687.39 698.19 2687.39 706.2 2620.31 772.11 2614.13 772.11 2614.13 759.38"/><polygon class="cls-2" points="2635.22 732.37 2614.32 753.28 2614.13 759.38 2638.18 735.33 2635.22 732.37"/><polygon class="cls-2" points="2669.41 698.19 2647.8 719.79 2650.76 722.75 2675.33 698.19 2669.41 698.19"/><polygon class="cls-3" points="2614.32 753.28 2635.22 732.37 2614.13 711.28 2614.32 753.28"/><polygon class="cls-3" points="2682.53 754.53 2682.53 710.97 2660.29 732.28 2682.53 754.53"/><polygon class="cls-3" points="2675.33 698.19 2650.76 722.75 2626.2 698.19 2675.33 698.19"/><polygon class="cls-3" points="2674.96 772.11 2647.88 745.02 2620.31 772.11 2674.96 772.11"/><polygon class="cls-2" points="2650.76 742.19 2640.96 732.56 2640.35 733.16 2650.07 742.87 2650.76 742.19"/><polygon class="cls-3" points="2660.29 732.28 2650.76 722.75 2651.37 722.14 2660.91 731.68 2660.29 732.28"/><rect class="cls-1" x="2578.68" y="690.98" width="27.95" height="88.26"/><rect class="cls-1" x="2582.59" y="698.48" width="21.66" height="73.26"/><polygon class="cls-2" points="2581.06 759.38 2600.44 698.19 2604.26 698.19 2604.26 711.28 2584.99 772.11 2581.06 772.11 2581.06 759.38"/><polygon class="cls-1" points="2581.06 759.38 2600.44 698.19 2604.26 698.19 2604.26 706.2 2583.01 772.11 2581.06 772.11 2581.06 759.38"/><polygon class="cls-1" points="2604.26 759.38 2584.88 698.19 2581.06 698.19 2581.06 706.2 2602.3 772.11 2604.26 772.11 2604.26 759.38"/><polygon class="cls-2" points="2597.58 732.37 2604.2 753.28 2604.26 759.38 2596.64 735.33 2597.58 732.37"/><polygon class="cls-2" points="2586.75 698.19 2593.59 719.79 2592.66 722.75 2584.88 698.19 2586.75 698.19"/><polygon class="cls-3" points="2604.2 753.28 2597.58 732.37 2604.26 711.28 2604.2 753.28"/><polygon class="cls-3" points="2582.59 754.53 2582.59 710.97 2589.64 732.28 2582.59 754.53"/><polygon class="cls-3" points="2584.88 698.19 2592.66 722.75 2600.44 698.19 2584.88 698.19"/><polygon class="cls-3" points="2584.99 772.11 2593.57 745.02 2602.3 772.11 2584.99 772.11"/><polygon class="cls-2" points="2592.66 742.19 2595.76 732.56 2595.95 733.16 2592.88 742.87 2592.66 742.19"/><polygon class="cls-3" points="2589.64 732.28 2592.66 722.75 2592.46 722.14 2589.44 731.68 2589.64 732.28"/><polygon class="cls-2" points="2584.36 748.97 2584.36 716.43 2582.59 710.97 2582.59 754.53 2584.36 748.97"/><rect class="cls-4" x="2578.68" y="690.98" width="27.95" height="88.26" transform="translate(5185.31 1470.22) rotate(-180)"/><rect class="cls-4" x="2578.68" y="690.98" width="116.21" height="88.26" transform="translate(5273.57 1470.22) rotate(-180)"/><rect class="cls-1" x="2518.37" y="690.98" width="88.26" height="88.26" transform="translate(5125 1470.22) rotate(-180)"/><rect class="cls-2" x="2525.87" y="698.48" width="73.26" height="73.26" transform="translate(5125 1470.22) rotate(-180)"/><rect class="cls-1" x="2525.87" y="698.48" width="68.4" height="73.26" transform="translate(5120.15 1470.22) rotate(-180)"/><polygon class="cls-2" points="2599.13 759.38 2537.93 698.19 2525.87 698.19 2525.87 711.28 2586.7 772.11 2599.13 772.11 2599.13 759.38"/><polygon class="cls-1" points="2599.13 759.38 2537.93 698.19 2525.87 698.19 2525.87 706.2 2592.95 772.11 2599.13 772.11 2599.13 759.38"/><polygon class="cls-1" points="2525.87 759.38 2587.07 698.19 2599.13 698.19 2599.13 706.2 2532.05 772.11 2525.87 772.11 2525.87 759.38"/><polygon class="cls-2" points="2546.96 732.37 2526.06 753.28 2525.87 759.38 2549.92 735.33 2546.96 732.37"/><polygon class="cls-2" points="2581.15 698.19 2559.54 719.79 2562.5 722.75 2587.07 698.19 2581.15 698.19"/><polygon class="cls-3" points="2526.06 753.28 2546.96 732.37 2525.87 711.28 2526.06 753.28"/><polygon class="cls-3" points="2594.28 754.53 2594.28 710.97 2572.03 732.28 2594.28 754.53"/><polygon class="cls-3" points="2587.07 698.19 2562.5 722.75 2537.93 698.19 2587.07 698.19"/><polygon class="cls-3" points="2586.7 772.11 2559.62 745.02 2532.05 772.11 2586.7 772.11"/><polygon class="cls-2" points="2562.5 742.19 2552.7 732.56 2552.09 733.16 2561.81 742.87 2562.5 742.19"/><polygon class="cls-3" points="2572.03 732.28 2562.5 722.75 2563.11 722.14 2572.65 731.68 2572.03 732.28"/><rect class="cls-1" x="2490.42" y="690.98" width="27.95" height="88.26"/><rect class="cls-1" x="2494.33" y="698.48" width="21.66" height="73.26"/><polygon class="cls-2" points="2492.8 759.38 2512.18 698.19 2515.99 698.19 2515.99 711.28 2496.73 772.11 2492.8 772.11 2492.8 759.38"/><polygon class="cls-1" points="2492.8 759.38 2512.18 698.19 2515.99 698.19 2515.99 706.2 2494.75 772.11 2492.8 772.11 2492.8 759.38"/><polygon class="cls-1" points="2515.99 759.38 2496.62 698.19 2492.8 698.19 2492.8 706.2 2514.04 772.11 2515.99 772.11 2515.99 759.38"/><polygon class="cls-2" points="2509.32 732.37 2515.94 753.28 2515.99 759.38 2508.38 735.33 2509.32 732.37"/><polygon class="cls-2" points="2498.49 698.19 2505.33 719.79 2504.4 722.75 2496.62 698.19 2498.49 698.19"/><polygon class="cls-3" points="2515.94 753.28 2509.32 732.37 2515.99 711.28 2515.94 753.28"/><polygon class="cls-3" points="2494.33 754.53 2494.33 710.97 2501.38 732.28 2494.33 754.53"/><polygon class="cls-3" points="2496.62 698.19 2504.4 722.75 2512.18 698.19 2496.62 698.19"/><polygon class="cls-3" points="2496.73 772.11 2505.31 745.02 2514.04 772.11 2496.73 772.11"/><polygon class="cls-2" points="2504.4 742.19 2507.5 732.56 2507.69 733.16 2504.62 742.87 2504.4 742.19"/><polygon class="cls-3" points="2501.38 732.28 2504.4 722.75 2504.2 722.14 2501.18 731.68 2501.38 732.28"/><polygon class="cls-2" points="2496.09 748.97 2496.09 716.43 2494.33 710.97 2494.33 754.53 2496.09 748.97"/><rect class="cls-4" x="2490.42" y="690.98" width="27.95" height="88.26" transform="translate(5008.79 1470.22) rotate(-180)"/><rect class="cls-4" x="2490.42" y="690.98" width="116.21" height="88.26" transform="translate(5097.05 1470.22) rotate(-180)"/><rect class="cls-1" x="2606.63" y="602.72" width="88.26" height="88.26" transform="translate(5301.52 1293.7) rotate(-180)"/><rect class="cls-2" x="2614.13" y="610.22" width="73.26" height="73.26" transform="translate(5301.52 1293.7) rotate(-180)"/><rect class="cls-1" x="2614.13" y="610.22" width="68.4" height="73.26" transform="translate(5296.67 1293.7) rotate(-180)"/><polygon class="cls-2" points="2687.39 671.12 2626.2 609.93 2614.13 609.93 2614.13 623.02 2674.96 683.85 2687.39 683.85 2687.39 671.12"/><polygon class="cls-1" points="2687.39 671.12 2626.2 609.93 2614.13 609.93 2614.13 617.94 2681.21 683.85 2687.39 683.85 2687.39 671.12"/><polygon class="cls-1" points="2614.13 671.12 2675.33 609.93 2687.39 609.93 2687.39 617.94 2620.31 683.85 2614.13 683.85 2614.13 671.12"/><polygon class="cls-2" points="2635.22 644.11 2614.32 665.02 2614.13 671.12 2638.18 647.07 2635.22 644.11"/><polygon class="cls-2" points="2669.41 609.93 2647.8 631.53 2650.76 634.49 2675.33 609.93 2669.41 609.93"/><polygon class="cls-3" points="2614.32 665.02 2635.22 644.11 2614.13 623.02 2614.32 665.02"/><polygon class="cls-3" points="2682.53 666.27 2682.53 622.71 2660.29 644.02 2682.53 666.27"/><polygon class="cls-3" points="2675.33 609.93 2650.76 634.49 2626.2 609.93 2675.33 609.93"/><polygon class="cls-3" points="2674.96 683.85 2647.88 656.76 2620.31 683.85 2674.96 683.85"/><polygon class="cls-2" points="2650.76 653.93 2640.96 644.3 2640.35 644.9 2650.07 654.61 2650.76 653.93"/><polygon class="cls-3" points="2660.29 644.02 2650.76 634.49 2651.37 633.88 2660.91 643.42 2660.29 644.02"/><rect class="cls-1" x="2578.68" y="602.72" width="27.95" height="88.26"/><rect class="cls-1" x="2582.59" y="610.22" width="21.66" height="73.26"/><polygon class="cls-2" points="2581.06 671.12 2600.44 609.93 2604.26 609.93 2604.26 623.02 2584.99 683.85 2581.06 683.85 2581.06 671.12"/><polygon class="cls-1" points="2581.06 671.12 2600.44 609.93 2604.26 609.93 2604.26 617.94 2583.01 683.85 2581.06 683.85 2581.06 671.12"/><polygon class="cls-1" points="2604.26 671.12 2584.88 609.93 2581.06 609.93 2581.06 617.94 2602.3 683.85 2604.26 683.85 2604.26 671.12"/><polygon class="cls-2" points="2597.58 644.11 2604.2 665.02 2604.26 671.12 2596.64 647.07 2597.58 644.11"/><polygon class="cls-2" points="2586.75 609.93 2593.59 631.53 2592.66 634.49 2584.88 609.93 2586.75 609.93"/><polygon class="cls-3" points="2604.2 665.02 2597.58 644.11 2604.26 623.02 2604.2 665.02"/><polygon class="cls-3" points="2582.59 666.27 2582.59 622.71 2589.64 644.02 2582.59 666.27"/><polygon class="cls-3" points="2584.88 609.93 2592.66 634.49 2600.44 609.93 2584.88 609.93"/><polygon class="cls-3" points="2584.99 683.85 2593.57 656.76 2602.3 683.85 2584.99 683.85"/><polygon class="cls-2" points="2592.66 653.93 2595.76 644.3 2595.95 644.9 2592.88 654.61 2592.66 653.93"/><polygon class="cls-3" points="2589.64 644.02 2592.66 634.49 2592.46 633.88 2589.44 643.42 2589.64 644.02"/><polygon class="cls-2" points="2584.36 660.71 2584.36 628.17 2582.59 622.71 2582.59 666.27 2584.36 660.71"/><rect class="cls-4" x="2578.68" y="602.72" width="27.95" height="88.26" transform="translate(5185.31 1293.7) rotate(-180)"/><rect class="cls-4" x="2578.68" y="602.72" width="116.21" height="88.26" transform="translate(5273.57 1293.7) rotate(-180)"/><rect class="cls-1" x="2518.37" y="602.72" width="88.26" height="88.26" transform="translate(5125 1293.7) rotate(-180)"/><rect class="cls-2" x="2525.87" y="610.22" width="73.26" height="73.26" transform="translate(5125 1293.7) rotate(-180)"/><rect class="cls-1" x="2525.87" y="610.22" width="68.4" height="73.26" transform="translate(5120.15 1293.7) rotate(-180)"/><polygon class="cls-2" points="2599.13 671.12 2537.93 609.93 2525.87 609.93 2525.87 623.02 2586.7 683.85 2599.13 683.85 2599.13 671.12"/><polygon class="cls-1" points="2599.13 671.12 2537.93 609.93 2525.87 609.93 2525.87 617.94 2592.95 683.85 2599.13 683.85 2599.13 671.12"/><polygon class="cls-1" points="2525.87 671.12 2587.07 609.93 2599.13 609.93 2599.13 617.94 2532.05 683.85 2525.87 683.85 2525.87 671.12"/><polygon class="cls-2" points="2546.96 644.11 2526.06 665.02 2525.87 671.12 2549.92 647.07 2546.96 644.11"/><polygon class="cls-2" points="2581.15 609.93 2559.54 631.53 2562.5 634.49 2587.07 609.93 2581.15 609.93"/><polygon class="cls-3" points="2526.06 665.02 2546.96 644.11 2525.87 623.02 2526.06 665.02"/><polygon class="cls-3" points="2594.28 666.27 2594.28 622.71 2572.03 644.02 2594.28 666.27"/><polygon class="cls-3" points="2587.07 609.93 2562.5 634.49 2537.93 609.93 2587.07 609.93"/><polygon class="cls-3" points="2586.7 683.85 2559.62 656.76 2532.05 683.85 2586.7 683.85"/><polygon class="cls-2" points="2562.5 653.93 2552.7 644.3 2552.09 644.9 2561.81 654.61 2562.5 653.93"/><polygon class="cls-3" points="2572.03 644.02 2562.5 634.49 2563.11 633.88 2572.65 643.42 2572.03 644.02"/><rect class="cls-1" x="2490.42" y="602.72" width="27.95" height="88.26"/><rect class="cls-1" x="2494.33" y="610.22" width="21.66" height="73.26"/><polygon class="cls-2" points="2492.8 671.12 2512.18 609.93 2515.99 609.93 2515.99 623.02 2496.73 683.85 2492.8 683.85 2492.8 671.12"/><polygon class="cls-1" points="2492.8 671.12 2512.18 609.93 2515.99 609.93 2515.99 617.94 2494.75 683.85 2492.8 683.85 2492.8 671.12"/><polygon class="cls-1" points="2515.99 671.12 2496.62 609.93 2492.8 609.93 2492.8 617.94 2514.04 683.85 2515.99 683.85 2515.99 671.12"/><polygon class="cls-2" points="2509.32 644.11 2515.94 665.02 2515.99 671.12 2508.38 647.07 2509.32 644.11"/><polygon class="cls-2" points="2498.49 609.93 2505.33 631.53 2504.4 634.49 2496.62 609.93 2498.49 609.93"/><polygon class="cls-3" points="2515.94 665.02 2509.32 644.11 2515.99 623.02 2515.94 665.02"/><polygon class="cls-3" points="2494.33 666.27 2494.33 622.71 2501.38 644.02 2494.33 666.27"/><polygon class="cls-3" points="2496.62 609.93 2504.4 634.49 2512.18 609.93 2496.62 609.93"/><polygon class="cls-3" points="2496.73 683.85 2505.31 656.76 2514.04 683.85 2496.73 683.85"/><polygon class="cls-2" points="2504.4 653.93 2507.5 644.3 2507.69 644.9 2504.62 654.61 2504.4 653.93"/><polygon class="cls-3" points="2501.38 644.02 2504.4 634.49 2504.2 633.88 2501.18 643.42 2501.38 644.02"/><polygon class="cls-2" points="2496.09 660.71 2496.09 628.17 2494.33 622.71 2494.33 666.27 2496.09 660.71"/><rect class="cls-4" x="2490.42" y="602.72" width="27.95" height="88.26" transform="translate(5008.79 1293.7) rotate(-180)"/><rect class="cls-4" x="2490.42" y="602.72" width="116.21" height="88.26" transform="translate(5097.05 1293.7) rotate(-180)"/><path class="cls-1" d="M2502.22,779.27c31.83-13.79,54.68-52.58,66.93-122,9-51,8.95-98.79,8.95-99.27l-7.37,0c0,1.87-.67,183.79-71.44,214.44Z"/><path class="cls-5" d="M2502.22,779.27c31.83-13.79,54.68-52.58,66.93-122,9-51,8.95-98.79,8.95-99.27l-7.37,0c0,1.87,1.54,183.22-70.89,214.44Z"/><path class="cls-6" d="M2502.22,779.27c31.83-13.79,54.68-52.58,66.93-122,9-51,8.95-98.79,8.95-99.27l-7.37,0c0,1.87,3.75,182.66-70.33,214.44Z"/><path class="cls-7" d="M2502.22,779.27c31.83-13.79,54.68-52.58,66.93-122,9-51,8.95-98.79,8.95-99.27l-7.37,0c0,1.87,6,182.1-69.77,214.44Z"/><path class="cls-8" d="M2502.22,779.27c31.83-13.79,54.68-52.58,66.93-122,9-51,8.95-98.79,8.95-99.27l-7.37,0c0,1.87,8.16,181.53-69.22,214.44Z"/><path class="cls-9" d="M2502.22,779.27c31.83-13.79,54.68-52.58,66.93-122,9-51,8.95-98.79,8.95-99.27l-7.37,0c0,1.87,10.37,181-68.66,214.44Z"/><path class="cls-10" d="M2502.22,779.27c31.83-13.79,54.68-52.58,66.93-122,9-51,8.95-98.79,8.95-99.27l-7.37,0c0,1.87,12.58,180.41-68.11,214.44Z"/><polygon class="cls-1" points="2433.62 779.24 2502.62 779.24 2502.62 772.5 2433.62 774.66 2433.62 779.24"/><polygon class="cls-1" points="2441.34 772.47 2502.62 772.47 2502.62 765.74 2441.34 767.9 2441.34 772.47"/><polygon class="cls-1" points="2446.11 765.74 2497.63 765.74 2497.63 759 2446.11 761.16 2446.11 765.74"/><rect class="cls-1" x="2692.3" y="668.66" width="110.61" height="110.61" transform="translate(5495.21 1447.93) rotate(-180)"/><rect class="cls-2" x="2701.7" y="678.06" width="91.81" height="91.81" transform="translate(5495.21 1447.93) rotate(-180)"/><rect class="cls-1" x="2701.7" y="678.06" width="85.72" height="91.81" transform="translate(5489.12 1447.93) rotate(-180)"/><polygon class="cls-2" points="2793.51 754.38 2716.82 677.7 2701.7 677.7 2701.7 694.1 2777.93 770.33 2793.51 770.33 2793.51 754.38"/><polygon class="cls-1" points="2793.51 754.38 2716.82 677.7 2701.7 677.7 2701.7 687.74 2785.76 770.33 2793.51 770.33 2793.51 754.38"/><polygon class="cls-1" points="2701.7 754.38 2778.39 677.7 2793.51 677.7 2793.51 687.74 2709.44 770.33 2701.7 770.33 2701.7 754.38"/><polygon class="cls-2" points="2728.13 720.53 2701.93 746.73 2701.7 754.38 2731.84 724.24 2728.13 720.53"/><polygon class="cls-2" points="2770.97 677.7 2743.89 704.77 2747.6 708.48 2778.39 677.7 2770.97 677.7"/><polygon class="cls-3" points="2701.93 746.73 2728.13 720.53 2701.7 694.1 2701.93 746.73"/><polygon class="cls-3" points="2787.42 748.3 2787.42 693.72 2759.54 720.42 2787.42 748.3"/><polygon class="cls-3" points="2778.39 677.7 2747.6 708.48 2716.82 677.7 2778.39 677.7"/><polygon class="cls-3" points="2777.93 770.33 2743.99 736.39 2709.44 770.33 2777.93 770.33"/><polygon class="cls-2" points="2747.6 732.84 2735.32 720.77 2734.56 721.52 2746.73 733.7 2747.6 732.84"/><polygon class="cls-3" points="2759.54 720.42 2747.6 708.48 2748.37 707.71 2760.32 719.66 2759.54 720.42"/><rect class="cls-1" x="2657.27" y="668.66" width="35.03" height="110.61"/><rect class="cls-1" x="2662.18" y="678.06" width="27.15" height="91.81"/><polygon class="cls-2" points="2660.25 754.38 2684.53 677.7 2689.32 677.7 2689.32 694.1 2665.18 770.33 2660.25 770.33 2660.25 754.38"/><polygon class="cls-1" points="2660.25 754.38 2684.53 677.7 2689.32 677.7 2689.32 687.74 2662.7 770.33 2660.25 770.33 2660.25 754.38"/><polygon class="cls-1" points="2689.32 754.38 2665.04 677.7 2660.25 677.7 2660.25 687.74 2686.87 770.33 2689.32 770.33 2689.32 754.38"/><polygon class="cls-2" points="2680.95 720.53 2689.25 746.73 2689.32 754.38 2679.78 724.24 2680.95 720.53"/><polygon class="cls-2" points="2667.39 677.7 2675.96 704.77 2674.78 708.48 2665.04 677.7 2667.39 677.7"/><polygon class="cls-3" points="2689.25 746.73 2680.95 720.53 2689.32 694.1 2689.25 746.73"/><polygon class="cls-3" points="2662.18 748.3 2662.18 693.72 2671.01 720.42 2662.18 748.3"/><polygon class="cls-3" points="2665.04 677.7 2674.78 708.48 2684.53 677.7 2665.04 677.7"/><polygon class="cls-3" points="2665.18 770.33 2675.93 736.39 2686.87 770.33 2665.18 770.33"/><polygon class="cls-2" points="2674.78 732.84 2678.68 720.77 2678.91 721.52 2675.06 733.7 2674.78 732.84"/><polygon class="cls-3" points="2671.01 720.42 2674.78 708.48 2674.54 707.71 2670.76 719.66 2671.01 720.42"/><polygon class="cls-2" points="2664.38 741.33 2664.38 700.56 2662.18 693.72 2662.18 748.3 2664.38 741.33"/><rect class="cls-4" x="2657.27" y="668.66" width="35.03" height="110.61" transform="translate(5349.57 1447.93) rotate(-180)"/><rect class="cls-1" x="2608.21" y="558.05" width="110.61" height="110.61" transform="translate(5327.03 1226.71) rotate(-180)"/><rect class="cls-2" x="2617.61" y="567.45" width="91.81" height="91.81" transform="translate(5327.03 1226.71) rotate(-180)"/><rect class="cls-1" x="2617.61" y="567.45" width="85.72" height="91.81" transform="translate(5320.95 1226.71) rotate(-180)"/><polygon class="cls-2" points="2709.42 643.77 2632.73 567.09 2617.61 567.09 2617.61 583.49 2693.84 659.72 2709.42 659.72 2709.42 643.77"/><polygon class="cls-1" points="2709.42 643.77 2632.73 567.09 2617.61 567.09 2617.61 577.13 2701.68 659.72 2709.42 659.72 2709.42 643.77"/><polygon class="cls-1" points="2617.61 643.77 2694.3 567.09 2709.42 567.09 2709.42 577.13 2625.36 659.72 2617.61 659.72 2617.61 643.77"/><polygon class="cls-2" points="2644.04 609.92 2617.84 636.12 2617.61 643.77 2647.75 613.63 2644.04 609.92"/><polygon class="cls-2" points="2686.88 567.09 2659.81 594.16 2663.52 597.87 2694.3 567.09 2686.88 567.09"/><polygon class="cls-3" points="2617.84 636.12 2644.04 609.92 2617.61 583.49 2617.84 636.12"/><polygon class="cls-3" points="2703.34 637.69 2703.34 583.11 2675.45 609.81 2703.34 637.69"/><polygon class="cls-3" points="2694.3 567.09 2663.52 597.87 2632.73 567.09 2694.3 567.09"/><polygon class="cls-3" points="2693.84 659.72 2659.9 625.78 2625.36 659.72 2693.84 659.72"/><polygon class="cls-2" points="2663.52 622.23 2651.23 610.16 2650.47 610.91 2662.65 623.09 2663.52 622.23"/><polygon class="cls-3" points="2675.45 609.81 2663.52 597.87 2664.28 597.1 2676.24 609.05 2675.45 609.81"/><rect class="cls-1" x="2573.18" y="558.05" width="35.03" height="110.61"/><rect class="cls-1" x="2578.09" y="567.45" width="27.15" height="91.81"/><polygon class="cls-2" points="2576.16 643.77 2600.45 567.09 2605.23 567.09 2605.23 583.49 2581.09 659.72 2576.16 659.72 2576.16 643.77"/><polygon class="cls-1" points="2576.16 643.77 2600.45 567.09 2605.23 567.09 2605.23 577.13 2578.61 659.72 2576.16 659.72 2576.16 643.77"/><polygon class="cls-1" points="2605.23 643.77 2580.95 567.09 2576.16 567.09 2576.16 577.13 2602.78 659.72 2605.23 659.72 2605.23 643.77"/><polygon class="cls-2" points="2596.86 609.92 2605.16 636.12 2605.23 643.77 2595.69 613.63 2596.86 609.92"/><polygon class="cls-2" points="2583.3 567.09 2591.87 594.16 2590.7 597.87 2580.95 567.09 2583.3 567.09"/><polygon class="cls-3" points="2605.16 636.12 2596.86 609.92 2605.23 583.49 2605.16 636.12"/><polygon class="cls-3" points="2578.09 637.69 2578.09 583.11 2586.92 609.81 2578.09 637.69"/><polygon class="cls-3" points="2580.95 567.09 2590.7 597.87 2600.45 567.09 2580.95 567.09"/><polygon class="cls-3" points="2581.09 659.72 2591.84 625.78 2602.78 659.72 2581.09 659.72"/><polygon class="cls-2" points="2590.7 622.23 2594.59 610.16 2594.83 610.91 2590.97 623.09 2590.7 622.23"/><polygon class="cls-3" points="2586.92 609.81 2590.7 597.87 2590.45 597.1 2586.67 609.05 2586.92 609.81"/><polygon class="cls-2" points="2580.3 630.72 2580.3 589.95 2578.09 583.11 2578.09 637.69 2580.3 630.72"/><rect class="cls-4" x="2573.18" y="558.05" width="35.03" height="110.61" transform="translate(5181.4 1226.71) rotate(-180)"/><rect class="cls-1" x="2581.69" y="668.66" width="110.61" height="110.61" transform="translate(5273.99 1447.93) rotate(-180)"/><rect class="cls-2" x="2591.09" y="678.06" width="91.81" height="91.81" transform="translate(5273.99 1447.93) rotate(-180)"/><rect class="cls-1" x="2591.09" y="678.06" width="85.72" height="91.81" transform="translate(5267.9 1447.93) rotate(-180)"/><polygon class="cls-2" points="2682.9 754.38 2606.21 677.7 2591.09 677.7 2591.09 694.1 2667.32 770.33 2682.9 770.33 2682.9 754.38"/><polygon class="cls-1" points="2682.9 754.38 2606.21 677.7 2591.09 677.7 2591.09 687.74 2675.15 770.33 2682.9 770.33 2682.9 754.38"/><polygon class="cls-1" points="2591.09 754.38 2667.78 677.7 2682.9 677.7 2682.9 687.74 2598.83 770.33 2591.09 770.33 2591.09 754.38"/><polygon class="cls-2" points="2617.52 720.53 2591.32 746.73 2591.09 754.38 2621.23 724.24 2617.52 720.53"/><polygon class="cls-2" points="2660.36 677.7 2633.28 704.77 2636.99 708.48 2667.78 677.7 2660.36 677.7"/><polygon class="cls-3" points="2591.32 746.73 2617.52 720.53 2591.09 694.1 2591.32 746.73"/><polygon class="cls-3" points="2676.81 748.3 2676.81 693.72 2648.93 720.42 2676.81 748.3"/><polygon class="cls-3" points="2667.78 677.7 2636.99 708.48 2606.21 677.7 2667.78 677.7"/><polygon class="cls-3" points="2667.32 770.33 2633.38 736.39 2598.83 770.33 2667.32 770.33"/><polygon class="cls-2" points="2636.99 732.84 2624.71 720.77 2623.95 721.52 2636.12 733.7 2636.99 732.84"/><polygon class="cls-3" points="2648.93 720.42 2636.99 708.48 2637.76 707.71 2649.71 719.66 2648.93 720.42"/><rect class="cls-1" x="2546.66" y="668.66" width="35.03" height="110.61"/><rect class="cls-1" x="2551.56" y="678.06" width="27.15" height="91.81"/><polygon class="cls-2" points="2549.64 754.38 2573.92 677.7 2578.71 677.7 2578.71 694.1 2554.57 770.33 2549.64 770.33 2549.64 754.38"/><polygon class="cls-1" points="2549.64 754.38 2573.92 677.7 2578.71 677.7 2578.71 687.74 2552.09 770.33 2549.64 770.33 2549.64 754.38"/><polygon class="cls-1" points="2578.71 754.38 2554.43 677.7 2549.64 677.7 2549.64 687.74 2576.26 770.33 2578.71 770.33 2578.71 754.38"/><polygon class="cls-2" points="2570.34 720.53 2578.64 746.73 2578.71 754.38 2569.17 724.24 2570.34 720.53"/><polygon class="cls-2" points="2556.78 677.7 2565.35 704.77 2564.17 708.48 2554.43 677.7 2556.78 677.7"/><polygon class="cls-3" points="2578.64 746.73 2570.34 720.53 2578.71 694.1 2578.64 746.73"/><polygon class="cls-3" points="2551.57 748.3 2551.57 693.72 2560.39 720.42 2551.57 748.3"/><polygon class="cls-3" points="2554.43 677.7 2564.17 708.48 2573.92 677.7 2554.43 677.7"/><polygon class="cls-3" points="2554.57 770.33 2565.32 736.39 2576.26 770.33 2554.57 770.33"/><polygon class="cls-2" points="2564.17 732.84 2568.07 720.77 2568.3 721.52 2564.45 733.7 2564.17 732.84"/><polygon class="cls-3" points="2560.39 720.42 2564.17 708.48 2563.93 707.71 2560.15 719.66 2560.39 720.42"/><polygon class="cls-2" points="2553.77 741.33 2553.77 700.56 2551.57 693.72 2551.57 748.3 2553.77 741.33"/><rect class="cls-4" x="2546.66" y="668.66" width="35.03" height="110.61" transform="translate(5128.35 1447.93) rotate(-180)"/><rect class="cls-1" x="2432.09" y="772.5" width="70.53" height="6.73"/><polygon class="cls-5" points="2432.34 772.87 2432.34 779.24 2502.62 779.24 2502.62 772.5 2432.34 772.87"/><polygon class="cls-6" points="2432.6 773.22 2432.6 779.24 2502.62 779.24 2502.62 772.5 2432.6 773.22"/><polygon class="cls-7" points="2432.85 773.58 2432.85 779.24 2502.62 779.24 2502.62 772.5 2432.85 773.58"/><polygon class="cls-8" points="2433.11 773.94 2433.11 779.24 2502.62 779.24 2502.62 772.5 2433.11 773.94"/><polygon class="cls-9" points="2433.36 774.3 2433.36 779.24 2502.62 779.24 2502.62 772.5 2433.36 774.3"/><polygon class="cls-10" points="2433.62 779.24 2502.62 779.24 2502.62 772.5 2433.62 774.66 2433.62 779.24"/><rect class="cls-1" x="2439.98" y="765.74" width="62.64" height="6.73"/><polygon class="cls-5" points="2440.2 766.1 2440.2 772.47 2502.62 772.47 2502.62 765.74 2440.2 766.1"/><polygon class="cls-6" points="2440.43 766.46 2440.43 772.47 2502.62 772.47 2502.62 765.74 2440.43 766.46"/><polygon class="cls-7" points="2440.66 766.82 2440.66 772.47 2502.62 772.47 2502.62 765.74 2440.66 766.82"/><polygon class="cls-8" points="2440.88 767.18 2440.88 772.47 2502.62 772.47 2502.62 765.74 2440.88 767.18"/><polygon class="cls-9" points="2441.11 767.54 2441.11 772.47 2502.62 772.47 2502.62 765.74 2441.11 767.54"/><polygon class="cls-10" points="2441.34 772.47 2502.62 772.47 2502.62 765.74 2441.34 767.9 2441.34 772.47"/><rect class="cls-1" x="2444.97" y="759" width="52.67" height="6.73"/><polygon class="cls-5" points="2445.16 765.74 2497.63 765.74 2497.63 759 2445.16 759.36 2445.16 765.74"/><polygon class="cls-6" points="2445.35 765.74 2497.63 765.74 2497.63 759 2445.35 759.72 2445.35 765.74"/><polygon class="cls-7" points="2445.54 765.74 2497.63 765.74 2497.63 759 2445.54 760.08 2445.54 765.74"/><polygon class="cls-8" points="2445.73 765.74 2497.63 765.74 2497.63 759 2445.73 760.44 2445.73 765.74"/><polygon class="cls-9" points="2445.92 765.74 2497.63 765.74 2497.63 759 2445.92 760.8 2445.92 765.74"/><polygon class="cls-10" points="2446.11 765.74 2497.63 765.74 2497.63 759 2446.11 761.16 2446.11 765.74"/><polygon class="cls-2" points="2638.24 248.8 2655.04 248.8 2713.25 779.27 2696.45 779.27 2638.24 248.8"/><polygon class="cls-11" points="2639.64 248.8 2655.04 248.8 2713.25 779.27 2697.85 779.27 2639.64 248.8"/><polygon class="cls-12" points="2641.04 248.8 2655.04 248.8 2713.25 779.27 2699.25 779.27 2641.04 248.8"/><polygon class="cls-13" points="2642.44 248.8 2655.04 248.8 2713.25 779.27 2700.65 779.27 2642.44 248.8"/><polygon class="cls-14" points="2643.84 248.8 2655.04 248.8 2713.25 779.27 2702.05 779.27 2643.84 248.8"/><polygon class="cls-15" points="2645.24 248.8 2655.04 248.8 2713.25 779.27 2703.45 779.27 2645.24 248.8"/><polygon class="cls-10" points="2646.64 248.8 2655.04 248.8 2713.25 779.27 2704.85 779.27 2646.64 248.8"/><polygon class="cls-2" points="1897.14 0 1913.94 0 1903.77 779.27 1886.97 779.27 1897.14 0"/><polygon class="cls-11" points="1898.54 0 1913.94 0 1903.77 779.27 1888.37 779.27 1898.54 0"/><polygon class="cls-12" points="1899.94 0 1913.94 0 1903.77 779.27 1889.77 779.27 1899.94 0"/><polygon class="cls-13" points="1901.34 0 1913.94 0 1903.77 779.27 1891.17 779.27 1901.34 0"/><polygon class="cls-14" points="1902.74 0 1913.94 0 1903.77 779.27 1892.57 779.27 1902.74 0"/><polygon class="cls-15" points="1904.14 0 1913.94 0 1903.77 779.27 1893.97 779.27 1904.14 0"/><polygon class="cls-10" points="1905.54 0 1913.94 0 1903.77 779.27 1895.37 779.27 1905.54 0"/><path class="cls-16" d="M2671.84,268.07S2049.61,398.4,1906.15,0c0,0,68,300.87,333.35,291.27l39.09,6.4,102.15,36.8,153.86-9.6,108.3-35.2Z"/><path class="cls-17" d="M2671.84,268.07S2052.34,408.67,1906.15,0c0,0,67.27,303.49,332.62,293.89l39.2,7.37,102.77,33.21,153.86-9.6,108.3-35.2Z"/><path class="cls-18" d="M2671.84,268.07S2055.07,418.93,1906.15,0c0,0,66.54,306.1,331.89,296.5l39.31,8.35,103.39,29.62,153.86-9.6,108.3-35.2Z"/><path class="cls-19" d="M2671.84,268.07S2057.8,429.2,1906.15,0c0,0,65.81,308.72,331.16,299.12l39.41,9.31,104,26,153.86-9.6,108.3-35.2Z"/><path class="cls-20" d="M2671.84,268.07S2060.53,439.47,1906.15,0c0,0,65.08,311.33,330.43,301.73L2276.1,312l104.64,22.45,153.86-9.6,108.3-35.2Z"/><path class="cls-21" d="M2671.84,268.07S2063.26,449.73,1906.15,0c0,0,64.35,314,329.7,304.35l39.63,11.26,105.26,18.86,153.86-9.6,108.3-35.2Z"/><path class="cls-22" d="M2671.84,268.07S2066,460,1906.15,0c0,0,63.62,316.56,329,307l39.74,12.23,105.88,15.28,153.86-9.6,108.3-35.2Z"/><path class="cls-16" d="M158.4,274.07S1586.24,404.4,1915.44,6c0,0-156,300.87-764.94,291.27l-89.7,6.4-234.4,36.8-353.08-9.6L224.8,295.67Z"/><path class="cls-17" d="M158.4,274.07S1580,414.67,1915.44,6c0,0-156,300.87-764.94,291.27l-89.7,6.4-234.4,36.8-353.08-9.6L224.8,295.67Z"/><path class="cls-18" d="M158.4,274.07S1573.71,424.93,1915.44,6c0,0-156,300.87-764.94,291.27l-89.7,6.4-234.4,36.8-353.08-9.6L224.8,295.67Z"/><path class="cls-19" d="M158.4,274.07S1567.44,435.2,1915.44,6c0,0-156,300.87-764.94,291.27l-89.7,6.4-234.4,36.8-353.08-9.6L224.8,295.67Z"/><path class="cls-20" d="M158.4,274.07S1561.17,445.47,1915.44,6c0,0-156,300.87-764.94,291.27l-89.7,6.4-234.4,36.8-353.08-9.6L224.8,295.67Z"/><path class="cls-21" d="M158.4,274.07S1554.91,455.73,1915.44,6c0,0-156,300.87-764.94,291.27l-89.7,6.4-234.4,36.8-353.08-9.6L224.8,295.67Z"/><path class="cls-22" d="M158.4,274.07S1548.64,466,1915.44,6c0,0-156,300.87-764.94,291.27l-89.7,6.4-234.4,36.8-353.08-9.6L224.8,295.67Z"/><polygon class="cls-23" points="910.21 627.22 896.89 641.65 891.86 650.78 888.37 672.37 893.1 669.32 907.8 663.05 920.03 652.14 921.2 640.04 913.08 635.73 910.21 627.22"/><polygon class="cls-24" points="918.13 651.7 919.3 639.6 912.13 635.21 910.21 627.22 896.89 641.65 891.86 650.78 888.37 672.37 893.1 669.32 905.9 662.61 918.13 651.7"/><polygon class="cls-25" points="916.23 651.25 917.4 639.15 911.17 634.69 910.21 627.22 896.89 641.65 891.86 650.78 888.37 672.37 893.1 669.32 904 662.16 916.23 651.25"/><polygon class="cls-26" points="914.33 650.81 915.49 638.71 910.22 634.17 910.21 627.22 896.89 641.65 891.86 650.78 888.37 672.37 893.1 669.32 902.1 661.72 914.33 650.81"/><polygon class="cls-27" points="912.43 650.37 913.59 638.27 909.27 633.65 910.21 627.22 896.89 641.65 891.86 650.78 888.37 672.37 893.1 669.32 900.19 661.28 912.43 650.37"/><polygon class="cls-28" points="910.52 649.92 911.69 637.82 908.32 633.13 910.21 627.22 896.89 641.65 891.86 650.78 888.37 672.37 893.1 669.32 898.29 660.84 910.52 649.92"/><polygon class="cls-29" points="910.21 627.22 896.89 641.65 891.86 650.78 888.37 672.37 893.1 669.32 896.39 660.39 908.62 649.48 909.79 637.38 907.36 632.6 910.21 627.22"/><path class="cls-29" d="M896.72,671s25.14,8.55,33.28-10-17.73-29.36-17.73-29.36l-.17,2.57,8.22,15.47-3.6,2.42-14.83,10.24-7.54,6.12Z"/><path class="cls-30" d="M898.91,669.53S922.57,677.84,930,661c8.19-18.52-17.73-29.36-17.73-29.36l-.17,2.57,8.22,15.47-3.6,2.42-13.84,9.56-7.28,5.78Z"/><path class="cls-31" d="M901.1,668.11s22.19,8.06,28.9-7.13c8.22-18.5-17.73-29.36-17.73-29.36l-.17,2.57,8.22,15.47-3.6,2.42L903.86,661l-7,5.44Z"/><path class="cls-32" d="M903.29,666.69S924,674.5,930,661c8.26-18.49-17.73-29.36-17.73-29.36l-.17,2.57,8.22,15.47-3.6,2.42-11.87,8.2-6.73,5.1Z"/><path class="cls-33" d="M905.48,665.26S924.72,672.83,930,661c8.29-18.47-17.73-29.36-17.73-29.36l-.17,2.57,8.22,15.47-3.6,2.42-10.89,7.52-6.45,4.76Z"/><path class="cls-34" d="M907.68,663.84S925.43,671.16,930,661c8.33-18.45-17.73-29.36-17.73-29.36l-.17,2.57,8.22,15.47-3.6,2.42-9.9,6.84-6.19,4.42Z"/><path class="cls-35" d="M909.87,662.41S926.15,669.49,930,661c8.36-18.44-17.73-29.36-17.73-29.36l-.17,2.57,8.22,15.47-3.6,2.42-8.92,6.16-5.91,4.08Z"/><g class="cls-36"><path class="cls-22" d="M899.32,668s26.83,1.51,30.68-7c8.36-18.44-17.73-29.36-17.73-29.36l-.17,2.57,10.95,17.43-6.33.46-14.83,10.24-4.09,3.32Z"/><path class="cls-37" d="M912.24,632.05l1.54,4.78L922,651.69l-7.74,2.1-13,9.08L898.06,666s5.73,2.2,6.38.78,19.82-3,23-10.12C934.44,641.32,912.24,632.05,912.24,632.05Z"/><path class="cls-38" d="M912.21,632.48l3.25,7,5.48,12.31-9.16,3.72-11.25,7.93-2.22,3s10,2.06,11.24-.77c1.41-3.12,12.83-7.58,15.4-13.26C930.53,640.1,912.21,632.48,912.21,632.48Z"/><path class="cls-39" d="M912.18,632.91l5,9.18,2.74,9.76-10.58,5.35L899.85,664l-1.29,2.83s14.17,1.92,16.1-2.33c2.12-4.68,5.84-12.12,7.77-16.38C926.61,638.88,912.18,632.91,912.18,632.91Z"/><path class="cls-40" d="M912.15,633.34l6.68,11.38v7.21l-12,7-7.66,5.62-.35,2.67s18.39,1.79,21-3.89c2.82-6.23-1.16-16.67.13-19.5C922.69,637.66,912.15,633.34,912.15,633.34Z"/><path class="cls-20" d="M912.13,633.77l8.38,13.59L917.78,652l-13.42,8.61-5.87,4.47.58,2.51s22.61,1.65,25.82-5.44c3.53-7.8-8.15-21.22-7.51-22.63C918.77,636.44,912.13,633.77,912.13,633.77Z"/><path class="cls-41" d="M899.32,668s26.83,1.51,30.68-7c4.25-9.36-15.14-25.76-15.14-25.76l-2.76-1L922.2,650l-5.48,2.09-14.83,10.24-4.09,3.32Z"/></g><path class="cls-22" d="M919.14,649.84l1.92-.64s18.84,4.2,15.37,15.89c-2,6.71-7.28,9.75-17.41,6.33,0,0,3.4-1.72,8.61-6.7a5,5,0,0,0,1.19-5.54C927.85,656.88,925.36,653.55,919.14,649.84Z"/><path class="cls-42" d="M936.08,665.32C934,671.45,929,675,919,671.42c0,0,3.4-1.72,8.61-6.7a5,5,0,0,0,1.19-5.54c-1-2.3-3.46-5.63-9.68-9.34l1.92-.45.15,0c1.14.27,12.39,3.64,15,10.3A8.21,8.21,0,0,1,936.08,665.32Z"/><path class="cls-39" d="M935.73,665.55c-2.22,5.56-6.82,9.57-16.71,5.87,0,0,3.4-1.72,8.61-6.7a5,5,0,0,0,1.19-5.54c-1-2.3-3.46-5.63-9.68-9.34l1.92-.26.16,0c.91.22,12.18,4.07,14.76,10.44A7.66,7.66,0,0,1,935.73,665.55Z"/><path class="cls-43" d="M935.37,665.78c-2.32,5-6.58,9.48-16.35,5.64,0,0,3.4-1.72,8.61-6.7a5,5,0,0,0,1.19-5.54c-1-2.3-3.46-5.63-9.68-9.34l1.91-.06.18,0c.68.17,12,4.48,14.57,10.57A7.06,7.06,0,0,1,935.37,665.78Z"/><path class="cls-44" d="M935,666c-2.42,4.4-6.35,9.39-16,5.41,0,0,3.4-1.72,8.61-6.7a5,5,0,0,0,1.19-5.54c-1-2.3-3.46-5.63-9.68-9.34l1.91.13.19,0c.45.11,11.75,4.9,14.38,10.7C936.29,662.19,935.86,664.48,935,666Z"/><path class="cls-19" d="M934.66,666.24c-2.5,3.83-6.11,9.3-15.64,5.18,0,0,3.4-1.72,8.61-6.7a5,5,0,0,0,1.19-5.54c-1-2.3-3.46-5.63-9.68-9.34l1.91.32.2.06c.23,0,11.54,5.32,14.18,10.83C936.13,662.48,935.57,664.86,934.66,666.24Z"/><path class="cls-35" d="M919.14,649.84l2.12.57s11.33,5.74,14,11c.71,1.39,0,3.88-.94,5.1-2.59,3.27-5.88,9.21-15.29,4.95,0,0,3.4-1.72,8.61-6.7a5,5,0,0,0,1.19-5.54C927.85,656.88,925.36,653.55,919.14,649.84Z"/><polygon class="cls-29" points="917.07 649.83 897.04 664.07 888.37 672.37 893.36 672.18 899.27 664.86 922.2 649.99 913.28 632.95 912.01 628.93 910.21 627.22 909.92 633.54 918.52 648.53 917.07 649.83"/><polygon class="cls-30" points="918.76 648.6 917.25 649.91 897.11 664.22 888.65 672.36 893.36 672.18 899.27 664.86 922.2 649.99 913.28 632.95 912.01 628.93 910.38 627.38 910.18 633.51 918.76 648.6"/><polygon class="cls-31" points="919 648.67 917.43 650 897.19 664.38 888.93 672.35 893.36 672.18 899.27 664.86 922.2 649.99 913.28 632.95 912.01 628.93 910.54 627.53 910.43 633.49 919 648.67"/><polygon class="cls-32" points="919.23 648.74 917.62 650.08 897.27 664.54 889.21 672.34 893.36 672.18 899.27 664.86 922.2 649.99 913.28 632.95 912.01 628.93 910.7 627.69 910.69 633.46 919.23 648.74"/><polygon class="cls-33" points="919.47 648.8 917.8 650.16 897.34 664.7 889.48 672.33 893.36 672.18 899.27 664.86 922.2 649.99 913.28 632.95 912.01 628.93 910.86 627.84 910.95 633.44 919.47 648.8"/><polygon class="cls-34" points="919.7 648.87 917.98 650.25 897.42 664.86 889.76 672.32 893.36 672.18 899.27 664.86 922.2 649.99 913.28 632.95 912.01 628.93 911.03 628 911.21 633.41 919.7 648.87"/><polygon class="cls-35" points="918.16 650.33 897.49 665.01 890.04 672.31 893.36 672.18 899.27 664.86 922.2 649.99 913.28 632.95 912.01 628.93 911.19 628.15 911.46 633.39 919.94 648.93 918.16 650.33"/><polygon class="cls-22" points="918.16 650.33 897.49 665.01 890.04 672.31 893.36 672.18 899.27 664.86 922.2 649.99 913.28 632.95 912.01 628.93 911.19 628.15 911.46 633.39 919.94 648.93 918.16 650.33"/><polygon class="cls-42" points="922.03 649.92 913.28 632.95 912.01 628.93 911.19 628.15 911.46 633.39 919.94 648.93 918.16 650.33 897.49 665.01 890.04 672.31 893.36 672.18 899.27 664.86 922.03 649.92"/><polygon class="cls-39" points="921.86 649.85 913.28 632.95 912.01 628.93 911.19 628.15 911.46 633.39 919.94 648.93 918.16 650.33 897.49 665.01 890.04 672.31 893.36 672.18 899.27 664.86 921.86 649.85"/><polygon class="cls-43" points="921.7 649.78 913.28 632.95 912.01 628.93 911.19 628.15 911.46 633.39 919.94 648.93 918.16 650.33 897.49 665.01 890.04 672.31 893.36 672.18 899.27 664.86 921.7 649.78"/><polygon class="cls-44" points="921.53 649.71 913.28 632.95 912.01 628.93 911.19 628.15 911.46 633.39 919.94 648.93 918.16 650.33 897.49 665.01 890.04 672.31 893.36 672.18 899.27 664.86 921.53 649.71"/><polygon class="cls-19" points="921.36 649.64 913.28 632.95 912.01 628.93 911.19 628.15 911.46 633.39 919.94 648.93 918.16 650.33 897.49 665.01 890.04 672.31 893.36 672.18 899.27 664.86 921.36 649.64"/><polygon class="cls-35" points="918.16 650.33 897.49 665.01 890.04 672.31 893.36 672.18 899.27 664.86 921.2 649.57 913.28 632.95 912.01 628.93 911.19 628.15 911.46 633.39 919.94 648.93 918.16 650.33"/><rect class="cls-1" x="860.8" y="683.27" width="10.4" height="96"/><rect class="cls-1" x="899.6" y="683.27" width="10.4" height="96"/><rect class="cls-1" x="1045.2" y="683.27" width="10.4" height="96"/><rect class="cls-1" x="1115.2" y="683.27" width="10.4" height="96"/><rect class="cls-1" x="988" y="545.67" width="10.4" height="264.8" transform="translate(315.13 1671.27) rotate(-90)"/><rect class="cls-4" x="988" y="545.67" width="10.4" height="264.8" transform="translate(315.13 1671.27) rotate(-90)"/><rect class="cls-1" x="953" y="580.67" width="10.4" height="194.8" transform="translate(280.13 1636.27) rotate(-90)"/><rect class="cls-4" x="899.6" y="683.27" width="10.4" height="96"/><rect class="cls-4" x="1115.2" y="683.27" width="10.4" height="96"/><rect class="cls-45" x="1115.2" y="683.27" width="10.4" height="65.2"/><rect class="cls-46" x="1115.2" y="683.27" width="10.4" height="56.46"/><rect class="cls-47" x="1115.2" y="683.27" width="10.4" height="47.72"/><rect class="cls-48" x="1115.2" y="683.27" width="10.4" height="38.98"/><rect class="cls-49" x="1115.2" y="683.27" width="10.4" height="30.24"/><rect class="cls-50" x="1115.2" y="683.27" width="10.4" height="21.5"/><rect class="cls-51" x="1115.2" y="683.27" width="10.4" height="12.76"/><rect class="cls-2" x="1115.2" y="683.27" width="10.4" height="4.02"/><rect class="cls-45" x="1055.6" y="672.87" width="70" height="10.4"/><rect class="cls-46" x="1055.6" y="672.87" width="70" height="9.01"/><rect class="cls-47" x="1055.6" y="672.87" width="70" height="7.61"/><rect class="cls-48" x="1055.6" y="672.87" width="70" height="6.22"/><rect class="cls-49" x="1055.6" y="672.87" width="70" height="4.82"/><rect class="cls-50" x="1055.6" y="672.87" width="70" height="3.43"/><rect class="cls-51" x="1055.6" y="672.87" width="70" height="2.04"/><rect class="cls-2" x="1055.6" y="672.87" width="70" height="0.64"/><rect class="cls-45" x="1045.2" y="683.27" width="10.4" height="65.2"/><rect class="cls-52" x="1045.2" y="683.27" width="10.4" height="56.46"/><rect class="cls-53" x="1045.2" y="683.27" width="10.4" height="47.72"/><rect class="cls-54" x="1045.2" y="683.27" width="10.4" height="38.98"/><rect class="cls-55" x="1045.2" y="683.27" width="10.4" height="30.24"/><rect class="cls-56" x="1045.2" y="683.27" width="10.4" height="21.5"/><rect class="cls-57" x="1045.2" y="683.27" width="10.4" height="12.76"/><rect class="cls-4" x="1045.2" y="683.27" width="10.4" height="4.02"/><rect class="cls-45" x="860.8" y="672.87" width="194.8" height="10.4"/><rect class="cls-52" x="860.8" y="672.87" width="194.8" height="9.01"/><rect class="cls-53" x="860.8" y="672.87" width="194.8" height="7.61"/><rect class="cls-54" x="860.8" y="672.87" width="194.8" height="6.22"/><rect class="cls-55" x="860.8" y="672.87" width="194.8" height="4.82"/><rect class="cls-56" x="860.8" y="672.87" width="194.8" height="3.43"/><rect class="cls-57" x="860.8" y="672.87" width="194.8" height="2.04"/><rect class="cls-4" x="860.8" y="672.87" width="194.8" height="0.64"/><rect class="cls-45" x="860.8" y="683.27" width="10.4" height="65.2"/><rect class="cls-52" x="860.8" y="683.27" width="10.4" height="56.46"/><rect class="cls-53" x="860.8" y="683.27" width="10.4" height="47.72"/><rect class="cls-54" x="860.8" y="683.27" width="10.4" height="38.98"/><rect class="cls-55" x="860.8" y="683.27" width="10.4" height="30.24"/><rect class="cls-56" x="860.8" y="683.27" width="10.4" height="21.5"/><rect class="cls-57" x="860.8" y="683.27" width="10.4" height="12.76"/><rect class="cls-4" x="860.8" y="683.27" width="10.4" height="4.02"/><rect class="cls-45" x="899.6" y="683.27" width="10.4" height="65.2"/><rect class="cls-46" x="899.6" y="683.27" width="10.4" height="56.46"/><rect class="cls-47" x="899.6" y="683.27" width="10.4" height="47.72"/><rect class="cls-48" x="899.6" y="683.27" width="10.4" height="38.98"/><rect class="cls-49" x="899.6" y="683.27" width="10.4" height="30.24"/><rect class="cls-50" x="899.6" y="683.27" width="10.4" height="21.5"/><rect class="cls-51" x="899.6" y="683.27" width="10.4" height="12.76"/><rect class="cls-2" x="899.6" y="683.27" width="10.4" height="4.02"/><rect class="cls-1" x="537.96" y="690.98" width="88.26" height="88.26"/><rect class="cls-2" x="545.47" y="698.48" width="73.26" height="73.26"/><rect class="cls-1" x="550.32" y="698.48" width="68.4" height="73.26"/><polygon class="cls-2" points="545.47 759.38 606.66 698.19 618.72 698.19 618.72 711.28 557.9 772.11 545.47 772.11 545.47 759.38"/><polygon class="cls-1" points="545.47 759.38 606.66 698.19 618.72 698.19 618.72 706.2 551.64 772.11 545.47 772.11 545.47 759.38"/><polygon class="cls-1" points="618.72 759.38 557.53 698.19 545.47 698.19 545.47 706.2 612.54 772.11 618.72 772.11 618.72 759.38"/><polygon class="cls-2" points="597.63 732.37 618.54 753.28 618.72 759.38 594.67 735.33 597.63 732.37"/><polygon class="cls-2" points="563.45 698.19 585.05 719.79 582.09 722.75 557.53 698.19 563.45 698.19"/><polygon class="cls-3" points="618.54 753.28 597.63 732.37 618.72 711.28 618.54 753.28"/><polygon class="cls-3" points="550.32 754.53 550.32 710.97 572.57 732.28 550.32 754.53"/><polygon class="cls-3" points="557.53 698.19 582.09 722.75 606.66 698.19 557.53 698.19"/><polygon class="cls-3" points="557.9 772.11 584.98 745.02 612.54 772.11 557.9 772.11"/><polygon class="cls-2" points="582.09 742.19 591.9 732.56 592.5 733.16 582.79 742.87 582.09 742.19"/><polygon class="cls-3" points="572.57 732.28 582.09 722.75 581.48 722.14 571.94 731.68 572.57 732.28"/><rect class="cls-1" x="626.22" y="690.98" width="27.95" height="88.26" transform="translate(1280.4 1470.22) rotate(-180)"/><rect class="cls-1" x="628.6" y="698.48" width="21.66" height="73.26" transform="translate(1278.86 1470.22) rotate(-180)"/><polygon class="cls-2" points="651.8 759.38 632.42 698.19 628.6 698.19 628.6 711.28 647.86 772.11 651.8 772.11 651.8 759.38"/><polygon class="cls-1" points="651.8 759.38 632.42 698.19 628.6 698.19 628.6 706.2 649.84 772.11 651.8 772.11 651.8 759.38"/><polygon class="cls-1" points="628.6 759.38 647.98 698.19 651.8 698.19 651.8 706.2 630.56 772.11 628.6 772.11 628.6 759.38"/><polygon class="cls-2" points="635.28 732.37 628.66 753.28 628.6 759.38 636.22 735.33 635.28 732.37"/><polygon class="cls-2" points="646.1 698.19 639.26 719.79 640.2 722.75 647.98 698.19 646.1 698.19"/><polygon class="cls-3" points="628.66 753.28 635.28 732.37 628.6 711.28 628.66 753.28"/><polygon class="cls-3" points="650.26 754.53 650.26 710.97 643.22 732.28 650.26 754.53"/><polygon class="cls-3" points="647.98 698.19 640.2 722.75 632.42 698.19 647.98 698.19"/><polygon class="cls-3" points="647.86 772.11 639.29 745.02 630.56 772.11 647.86 772.11"/><polygon class="cls-2" points="640.2 742.19 637.09 732.56 636.9 733.16 639.98 742.87 640.2 742.19"/><polygon class="cls-3" points="643.22 732.28 640.2 722.75 640.39 722.14 643.41 731.68 643.22 732.28"/><polygon class="cls-2" points="648.5 748.97 648.5 716.43 650.26 710.97 650.26 754.53 648.5 748.97"/><rect class="cls-4" x="626.22" y="690.98" width="27.95" height="88.26"/><rect class="cls-4" x="537.96" y="690.98" width="116.21" height="88.26"/><rect class="cls-1" x="626.22" y="690.98" width="88.26" height="88.26"/><rect class="cls-2" x="633.73" y="698.48" width="73.26" height="73.26"/><rect class="cls-1" x="638.58" y="698.48" width="68.4" height="73.26"/><polygon class="cls-2" points="633.73 759.38 694.92 698.19 706.98 698.19 706.98 711.28 646.16 772.11 633.73 772.11 633.73 759.38"/><polygon class="cls-1" points="633.73 759.38 694.92 698.19 706.98 698.19 706.98 706.2 639.9 772.11 633.73 772.11 633.73 759.38"/><polygon class="cls-1" points="706.98 759.38 645.79 698.19 633.73 698.19 633.73 706.2 700.8 772.11 706.98 772.11 706.98 759.38"/><polygon class="cls-2" points="685.89 732.37 706.8 753.28 706.98 759.38 682.93 735.33 685.89 732.37"/><polygon class="cls-2" points="651.71 698.19 673.32 719.79 670.36 722.75 645.79 698.19 651.71 698.19"/><polygon class="cls-3" points="706.8 753.28 685.89 732.37 706.98 711.28 706.8 753.28"/><polygon class="cls-3" points="638.58 754.53 638.58 710.97 660.83 732.28 638.58 754.53"/><polygon class="cls-3" points="645.79 698.19 670.36 722.75 694.92 698.19 645.79 698.19"/><polygon class="cls-3" points="646.16 772.11 673.24 745.02 700.8 772.11 646.16 772.11"/><polygon class="cls-2" points="670.36 742.19 680.16 732.56 680.76 733.16 671.05 742.87 670.36 742.19"/><polygon class="cls-3" points="660.83 732.28 670.36 722.75 669.74 722.14 660.21 731.68 660.83 732.28"/><rect class="cls-1" x="714.49" y="690.98" width="27.95" height="88.26" transform="translate(1456.92 1470.22) rotate(-180)"/><rect class="cls-1" x="716.86" y="698.48" width="21.66" height="73.26" transform="translate(1455.38 1470.22) rotate(-180)"/><polygon class="cls-2" points="740.06 759.38 720.68 698.19 716.86 698.19 716.86 711.28 736.12 772.11 740.06 772.11 740.06 759.38"/><polygon class="cls-1" points="740.06 759.38 720.68 698.19 716.86 698.19 716.86 706.2 738.1 772.11 740.06 772.11 740.06 759.38"/><polygon class="cls-1" points="716.86 759.38 736.24 698.19 740.06 698.19 740.06 706.2 718.82 772.11 716.86 772.11 716.86 759.38"/><polygon class="cls-2" points="723.54 732.37 716.92 753.28 716.86 759.38 724.48 735.33 723.54 732.37"/><polygon class="cls-2" points="734.36 698.19 727.52 719.79 728.46 722.75 736.24 698.19 734.36 698.19"/><polygon class="cls-3" points="716.92 753.28 723.54 732.37 716.86 711.28 716.92 753.28"/><polygon class="cls-3" points="738.52 754.53 738.52 710.97 731.48 732.28 738.52 754.53"/><polygon class="cls-3" points="736.24 698.19 728.46 722.75 720.68 698.19 736.24 698.19"/><polygon class="cls-3" points="736.12 772.11 727.55 745.02 718.82 772.11 736.12 772.11"/><polygon class="cls-2" points="728.46 742.19 725.36 732.56 725.16 733.16 728.24 742.87 728.46 742.19"/><polygon class="cls-3" points="731.48 732.28 728.46 722.75 728.65 722.14 731.67 731.68 731.48 732.28"/><polygon class="cls-2" points="736.76 748.97 736.76 716.43 738.52 710.97 738.52 754.53 736.76 748.97"/><rect class="cls-4" x="714.49" y="690.98" width="27.95" height="88.26"/><rect class="cls-4" x="626.22" y="690.98" width="116.21" height="88.26"/><rect class="cls-1" x="537.96" y="602.72" width="88.26" height="88.26"/><rect class="cls-2" x="545.47" y="610.22" width="73.26" height="73.26"/><rect class="cls-1" x="550.32" y="610.22" width="68.4" height="73.26"/><polygon class="cls-2" points="545.47 671.12 606.66 609.93 618.72 609.93 618.72 623.02 557.9 683.85 545.47 683.85 545.47 671.12"/><polygon class="cls-1" points="545.47 671.12 606.66 609.93 618.72 609.93 618.72 617.94 551.64 683.85 545.47 683.85 545.47 671.12"/><polygon class="cls-1" points="618.72 671.12 557.53 609.93 545.47 609.93 545.47 617.94 612.54 683.85 618.72 683.85 618.72 671.12"/><polygon class="cls-2" points="597.63 644.11 618.54 665.02 618.72 671.12 594.67 647.07 597.63 644.11"/><polygon class="cls-2" points="563.45 609.93 585.05 631.53 582.09 634.49 557.53 609.93 563.45 609.93"/><polygon class="cls-3" points="618.54 665.02 597.63 644.11 618.72 623.02 618.54 665.02"/><polygon class="cls-3" points="550.32 666.27 550.32 622.71 572.57 644.02 550.32 666.27"/><polygon class="cls-3" points="557.53 609.93 582.09 634.49 606.66 609.93 557.53 609.93"/><polygon class="cls-3" points="557.9 683.85 584.98 656.76 612.54 683.85 557.9 683.85"/><polygon class="cls-2" points="582.09 653.93 591.9 644.3 592.5 644.9 582.79 654.61 582.09 653.93"/><polygon class="cls-3" points="572.57 644.02 582.09 634.49 581.48 633.88 571.94 643.42 572.57 644.02"/><rect class="cls-1" x="626.22" y="602.72" width="27.95" height="88.26" transform="translate(1280.4 1293.7) rotate(-180)"/><rect class="cls-1" x="628.6" y="610.22" width="21.66" height="73.26" transform="translate(1278.86 1293.7) rotate(-180)"/><polygon class="cls-2" points="651.8 671.12 632.42 609.93 628.6 609.93 628.6 623.02 647.86 683.85 651.8 683.85 651.8 671.12"/><polygon class="cls-1" points="651.8 671.12 632.42 609.93 628.6 609.93 628.6 617.94 649.84 683.85 651.8 683.85 651.8 671.12"/><polygon class="cls-1" points="628.6 671.12 647.98 609.93 651.8 609.93 651.8 617.94 630.56 683.85 628.6 683.85 628.6 671.12"/><polygon class="cls-2" points="635.28 644.11 628.66 665.02 628.6 671.12 636.22 647.07 635.28 644.11"/><polygon class="cls-2" points="646.1 609.93 639.26 631.53 640.2 634.49 647.98 609.93 646.1 609.93"/><polygon class="cls-3" points="628.66 665.02 635.28 644.11 628.6 623.02 628.66 665.02"/><polygon class="cls-3" points="650.26 666.27 650.26 622.71 643.22 644.02 650.26 666.27"/><polygon class="cls-3" points="647.98 609.93 640.2 634.49 632.42 609.93 647.98 609.93"/><polygon class="cls-3" points="647.86 683.85 639.29 656.76 630.56 683.85 647.86 683.85"/><polygon class="cls-2" points="640.2 653.93 637.09 644.3 636.9 644.9 639.98 654.61 640.2 653.93"/><polygon class="cls-3" points="643.22 644.02 640.2 634.49 640.39 633.88 643.41 643.42 643.22 644.02"/><polygon class="cls-2" points="648.5 660.71 648.5 628.17 650.26 622.71 650.26 666.27 648.5 660.71"/><rect class="cls-4" x="626.22" y="602.72" width="27.95" height="88.26"/><rect class="cls-4" x="537.96" y="602.72" width="116.21" height="88.26"/><rect class="cls-1" x="626.22" y="602.72" width="88.26" height="88.26"/><rect class="cls-2" x="633.73" y="610.22" width="73.26" height="73.26"/><rect class="cls-1" x="638.58" y="610.22" width="68.4" height="73.26"/><polygon class="cls-2" points="633.73 671.12 694.92 609.93 706.98 609.93 706.98 623.02 646.16 683.85 633.73 683.85 633.73 671.12"/><polygon class="cls-1" points="633.73 671.12 694.92 609.93 706.98 609.93 706.98 617.94 639.9 683.85 633.73 683.85 633.73 671.12"/><polygon class="cls-1" points="706.98 671.12 645.79 609.93 633.73 609.93 633.73 617.94 700.8 683.85 706.98 683.85 706.98 671.12"/><polygon class="cls-2" points="685.89 644.11 706.8 665.02 706.98 671.12 682.93 647.07 685.89 644.11"/><polygon class="cls-2" points="651.71 609.93 673.32 631.53 670.36 634.49 645.79 609.93 651.71 609.93"/><polygon class="cls-3" points="706.8 665.02 685.89 644.11 706.98 623.02 706.8 665.02"/><polygon class="cls-3" points="638.58 666.27 638.58 622.71 660.83 644.02 638.58 666.27"/><polygon class="cls-3" points="645.79 609.93 670.36 634.49 694.92 609.93 645.79 609.93"/><polygon class="cls-3" points="646.16 683.85 673.24 656.76 700.8 683.85 646.16 683.85"/><polygon class="cls-2" points="670.36 653.93 680.16 644.3 680.76 644.9 671.05 654.61 670.36 653.93"/><polygon class="cls-3" points="660.83 644.02 670.36 634.49 669.74 633.88 660.21 643.42 660.83 644.02"/><rect class="cls-1" x="714.49" y="602.72" width="27.95" height="88.26" transform="translate(1456.92 1293.7) rotate(-180)"/><rect class="cls-1" x="716.86" y="610.22" width="21.66" height="73.26" transform="translate(1455.38 1293.7) rotate(-180)"/><polygon class="cls-2" points="740.06 671.12 720.68 609.93 716.86 609.93 716.86 623.02 736.12 683.85 740.06 683.85 740.06 671.12"/><polygon class="cls-1" points="740.06 671.12 720.68 609.93 716.86 609.93 716.86 617.94 738.1 683.85 740.06 683.85 740.06 671.12"/><polygon class="cls-1" points="716.86 671.12 736.24 609.93 740.06 609.93 740.06 617.94 718.82 683.85 716.86 683.85 716.86 671.12"/><polygon class="cls-2" points="723.54 644.11 716.92 665.02 716.86 671.12 724.48 647.07 723.54 644.11"/><polygon class="cls-2" points="734.36 609.93 727.52 631.53 728.46 634.49 736.24 609.93 734.36 609.93"/><polygon class="cls-3" points="716.92 665.02 723.54 644.11 716.86 623.02 716.92 665.02"/><polygon class="cls-3" points="738.52 666.27 738.52 622.71 731.48 644.02 738.52 666.27"/><polygon class="cls-3" points="736.24 609.93 728.46 634.49 720.68 609.93 736.24 609.93"/><polygon class="cls-3" points="736.12 683.85 727.55 656.76 718.82 683.85 736.12 683.85"/><polygon class="cls-2" points="728.46 653.93 725.36 644.3 725.16 644.9 728.24 654.61 728.46 653.93"/><polygon class="cls-3" points="731.48 644.02 728.46 634.49 728.65 633.88 731.67 643.42 731.48 644.02"/><polygon class="cls-2" points="736.76 660.71 736.76 628.17 738.52 622.71 738.52 666.27 736.76 660.71"/><rect class="cls-4" x="714.49" y="602.72" width="27.95" height="88.26"/><rect class="cls-4" x="626.22" y="602.72" width="116.21" height="88.26"/><rect class="cls-1" x="592.16" y="514.46" width="88.26" height="88.26"/><rect class="cls-2" x="599.66" y="521.96" width="73.26" height="73.26"/><rect class="cls-1" x="604.51" y="521.96" width="68.4" height="73.26"/><polygon class="cls-2" points="599.66 582.86 660.85 521.67 672.91 521.67 672.91 534.76 612.09 595.58 599.66 595.58 599.66 582.86"/><polygon class="cls-1" points="599.66 582.86 660.85 521.67 672.91 521.67 672.91 529.68 605.84 595.58 599.66 595.58 599.66 582.86"/><polygon class="cls-1" points="672.91 582.86 611.72 521.67 599.66 521.67 599.66 529.68 666.74 595.58 672.91 595.58 672.91 582.86"/><polygon class="cls-2" points="651.82 555.85 672.73 576.75 672.91 582.86 648.86 558.81 651.82 555.85"/><polygon class="cls-2" points="617.64 521.67 639.25 543.27 636.29 546.23 611.72 521.67 617.64 521.67"/><polygon class="cls-3" points="672.73 576.75 651.82 555.85 672.91 534.76 672.73 576.75"/><polygon class="cls-3" points="604.51 578 604.51 534.45 626.76 555.76 604.51 578"/><polygon class="cls-3" points="611.72 521.67 636.29 546.23 660.85 521.67 611.72 521.67"/><polygon class="cls-3" points="612.09 595.58 639.17 568.5 666.74 595.58 612.09 595.58"/><polygon class="cls-2" points="636.29 565.67 646.09 556.04 646.69 556.64 636.98 566.35 636.29 565.67"/><polygon class="cls-3" points="626.76 555.76 636.29 546.23 635.67 545.62 626.14 555.15 626.76 555.76"/><rect class="cls-1" x="680.42" y="514.46" width="27.95" height="88.26" transform="translate(1388.78 1117.18) rotate(-180)"/><rect class="cls-1" x="682.79" y="521.96" width="21.66" height="73.26" transform="translate(1387.25 1117.18) rotate(-180)"/><polygon class="cls-2" points="705.99 582.86 686.61 521.67 682.79 521.67 682.79 534.76 702.05 595.58 705.99 595.58 705.99 582.86"/><polygon class="cls-1" points="705.99 582.86 686.61 521.67 682.79 521.67 682.79 529.68 704.03 595.58 705.99 595.58 705.99 582.86"/><polygon class="cls-1" points="682.79 582.86 702.17 521.67 705.99 521.67 705.99 529.68 684.75 595.58 682.79 595.58 682.79 582.86"/><polygon class="cls-2" points="689.47 555.85 682.85 576.75 682.79 582.86 690.41 558.81 689.47 555.85"/><polygon class="cls-2" points="700.29 521.67 693.45 543.27 694.39 546.23 702.17 521.67 700.29 521.67"/><polygon class="cls-3" points="682.85 576.75 689.47 555.85 682.79 534.76 682.85 576.75"/><polygon class="cls-3" points="704.45 578 704.45 534.45 697.41 555.76 704.45 578"/><polygon class="cls-3" points="702.17 521.67 694.39 546.23 686.61 521.67 702.17 521.67"/><polygon class="cls-3" points="702.05 595.58 693.48 568.5 684.75 595.58 702.05 595.58"/><polygon class="cls-2" points="694.39 565.67 691.29 556.04 691.1 556.64 694.17 566.35 694.39 565.67"/><polygon class="cls-3" points="697.41 555.76 694.39 546.23 694.59 545.62 697.61 555.15 697.41 555.76"/><polygon class="cls-2" points="702.69 572.45 702.69 539.91 704.45 534.45 704.45 578 702.69 572.45"/><rect class="cls-4" x="680.42" y="514.46" width="27.95" height="88.26"/><rect class="cls-4" x="592.16" y="514.46" width="116.21" height="88.26"/><path class="cls-1" d="M730.64,779.27c-31.84-13.79-54.68-52.58-66.94-122-9-51-9-98.79-9-99.27l7.38,0c0,1.87.67,183.79,71.44,214.44Z"/><path class="cls-5" d="M730.64,779.27c-31.84-13.79-54.68-52.58-66.94-122-9-51-9-98.79-9-99.27l7.38,0c0,1.87-1.54,183.22,70.88,214.44Z"/><path class="cls-6" d="M730.64,779.27c-31.84-13.79-54.68-52.58-66.94-122-9-51-9-98.79-9-99.27l7.38,0c0,1.87-3.75,182.66,70.33,214.44Z"/><path class="cls-7" d="M730.64,779.27c-31.84-13.79-54.68-52.58-66.94-122-9-51-9-98.79-9-99.27l7.38,0c0,1.87-6,182.1,69.77,214.44Z"/><path class="cls-8" d="M730.64,779.27c-31.84-13.79-54.68-52.58-66.94-122-9-51-9-98.79-9-99.27l7.38,0c0,1.87-8.17,181.53,69.21,214.44Z"/><path class="cls-9" d="M730.64,779.27c-31.84-13.79-54.68-52.58-66.94-122-9-51-9-98.79-9-99.27l7.38,0c0,1.87-10.38,181,68.66,214.44Z"/><path class="cls-10" d="M730.64,779.27c-31.84-13.79-54.68-52.58-66.94-122-9-51-9-98.79-9-99.27l7.38,0c0,1.87-12.59,180.41,68.1,214.44Z"/><polygon class="cls-1" points="799.24 779.24 730.23 779.24 730.23 772.5 799.24 774.66 799.24 779.24"/><polygon class="cls-1" points="791.52 772.47 730.23 772.47 730.23 765.74 791.52 767.9 791.52 772.47"/><polygon class="cls-1" points="786.75 765.74 735.22 765.74 735.22 759 786.75 761.16 786.75 765.74"/><rect class="cls-1" x="429.95" y="668.66" width="110.61" height="110.61"/><rect class="cls-2" x="439.35" y="678.06" width="91.81" height="91.81"/><rect class="cls-1" x="445.43" y="678.06" width="85.72" height="91.81"/><polygon class="cls-2" points="439.35 754.38 516.04 677.7 531.16 677.7 531.16 694.1 454.93 770.33 439.35 770.33 439.35 754.38"/><polygon class="cls-1" points="439.35 754.38 516.04 677.7 531.16 677.7 531.16 687.74 447.09 770.33 439.35 770.33 439.35 754.38"/><polygon class="cls-1" points="531.16 754.38 454.47 677.7 439.35 677.7 439.35 687.74 523.41 770.33 531.16 770.33 531.16 754.38"/><polygon class="cls-2" points="504.73 720.53 530.92 746.73 531.16 754.38 501.01 724.24 504.73 720.53"/><polygon class="cls-2" points="461.89 677.7 488.96 704.77 485.25 708.48 454.47 677.7 461.89 677.7"/><polygon class="cls-3" points="530.92 746.73 504.73 720.53 531.16 694.1 530.92 746.73"/><polygon class="cls-3" points="445.43 748.3 445.43 693.72 473.32 720.42 445.43 748.3"/><polygon class="cls-3" points="454.47 677.7 485.25 708.48 516.04 677.7 454.47 677.7"/><polygon class="cls-3" points="454.93 770.33 488.87 736.39 523.41 770.33 454.93 770.33"/><polygon class="cls-2" points="485.25 732.84 497.54 720.77 498.3 721.52 486.12 733.7 485.25 732.84"/><polygon class="cls-3" points="473.32 720.42 485.25 708.48 484.48 707.71 472.53 719.66 473.32 720.42"/><rect class="cls-1" x="540.56" y="668.66" width="35.03" height="110.61" transform="translate(1116.14 1447.93) rotate(-180)"/><rect class="cls-1" x="543.53" y="678.06" width="27.15" height="91.81" transform="translate(1114.22 1447.93) rotate(-180)"/><polygon class="cls-2" points="572.61 754.38 548.32 677.7 543.53 677.7 543.53 694.1 567.67 770.33 572.61 770.33 572.61 754.38"/><polygon class="cls-1" points="572.61 754.38 548.32 677.7 543.53 677.7 543.53 687.74 570.15 770.33 572.61 770.33 572.61 754.38"/><polygon class="cls-1" points="543.53 754.38 567.82 677.7 572.61 677.7 572.61 687.74 545.99 770.33 543.53 770.33 543.53 754.38"/><polygon class="cls-2" points="551.9 720.53 543.61 746.73 543.53 754.38 553.08 724.24 551.9 720.53"/><polygon class="cls-2" points="565.47 677.7 556.9 704.77 558.07 708.48 567.82 677.7 565.47 677.7"/><polygon class="cls-3" points="543.61 746.73 551.9 720.53 543.53 694.1 543.61 746.73"/><polygon class="cls-3" points="570.68 748.3 570.68 693.72 561.85 720.42 570.68 748.3"/><polygon class="cls-3" points="567.82 677.7 558.07 708.48 548.32 677.7 567.82 677.7"/><polygon class="cls-3" points="567.67 770.33 556.93 736.39 545.99 770.33 567.67 770.33"/><polygon class="cls-2" points="558.07 732.84 554.18 720.77 553.94 721.52 557.79 733.7 558.07 732.84"/><polygon class="cls-3" points="561.85 720.42 558.07 708.48 558.31 707.71 562.1 719.66 561.85 720.42"/><polygon class="cls-2" points="568.47 741.33 568.47 700.56 570.68 693.72 570.68 748.3 568.47 741.33"/><rect class="cls-4" x="540.56" y="668.66" width="35.03" height="110.61"/><rect class="cls-1" x="514.03" y="558.05" width="110.61" height="110.61"/><rect class="cls-2" x="523.44" y="567.45" width="91.81" height="91.81"/><rect class="cls-1" x="529.52" y="567.45" width="85.72" height="91.81"/><polygon class="cls-2" points="523.44 643.77 600.13 567.09 615.24 567.09 615.24 583.49 539.01 659.72 523.44 659.72 523.44 643.77"/><polygon class="cls-1" points="523.44 643.77 600.13 567.09 615.24 567.09 615.24 577.13 531.18 659.72 523.44 659.72 523.44 643.77"/><polygon class="cls-1" points="615.24 643.77 538.55 567.09 523.44 567.09 523.44 577.13 607.5 659.72 615.24 659.72 615.24 643.77"/><polygon class="cls-2" points="588.81 609.92 615.01 636.12 615.24 643.77 585.1 613.63 588.81 609.92"/><polygon class="cls-2" points="545.97 567.09 573.05 594.16 569.34 597.87 538.55 567.09 545.97 567.09"/><polygon class="cls-3" points="615.01 636.12 588.81 609.92 615.24 583.49 615.01 636.12"/><polygon class="cls-3" points="529.52 637.69 529.52 583.11 557.4 609.81 529.52 637.69"/><polygon class="cls-3" points="538.55 567.09 569.34 597.87 600.13 567.09 538.55 567.09"/><polygon class="cls-3" points="539.01 659.72 572.95 625.78 607.5 659.72 539.01 659.72"/><polygon class="cls-2" points="569.34 622.23 581.63 610.16 582.38 610.91 570.21 623.09 569.34 622.23"/><polygon class="cls-3" points="557.4 609.81 569.34 597.87 568.57 597.1 556.62 609.05 557.4 609.81"/><rect class="cls-1" x="624.64" y="558.05" width="35.03" height="110.61" transform="translate(1284.32 1226.71) rotate(-180)"/><rect class="cls-1" x="627.62" y="567.45" width="27.15" height="91.81" transform="translate(1282.39 1226.71) rotate(-180)"/><polygon class="cls-2" points="656.69 643.77 632.41 567.09 627.62 567.09 627.62 583.49 651.76 659.72 656.69 659.72 656.69 643.77"/><polygon class="cls-1" points="656.69 643.77 632.41 567.09 627.62 567.09 627.62 577.13 654.24 659.72 656.69 659.72 656.69 643.77"/><polygon class="cls-1" points="627.62 643.77 651.91 567.09 656.69 567.09 656.69 577.13 630.07 659.72 627.62 659.72 627.62 643.77"/><polygon class="cls-2" points="635.99 609.92 627.7 636.12 627.62 643.77 637.17 613.63 635.99 609.92"/><polygon class="cls-2" points="649.56 567.09 640.98 594.16 642.16 597.87 651.91 567.09 649.56 567.09"/><polygon class="cls-3" points="627.7 636.12 635.99 609.92 627.62 583.49 627.7 636.12"/><polygon class="cls-3" points="654.77 637.69 654.77 583.11 645.94 609.81 654.77 637.69"/><polygon class="cls-3" points="651.91 567.09 642.16 597.87 632.41 567.09 651.91 567.09"/><polygon class="cls-3" points="651.76 659.72 641.01 625.78 630.07 659.72 651.76 659.72"/><polygon class="cls-2" points="642.16 622.23 638.27 610.16 638.03 610.91 641.88 623.09 642.16 622.23"/><polygon class="cls-3" points="645.94 609.81 642.16 597.87 642.4 597.1 646.19 609.05 645.94 609.81"/><polygon class="cls-2" points="652.56 630.72 652.56 589.95 654.77 583.11 654.77 637.69 652.56 630.72"/><rect class="cls-4" x="624.64" y="558.05" width="35.03" height="110.61"/><rect class="cls-1" x="540.56" y="668.66" width="110.61" height="110.61"/><rect class="cls-2" x="549.96" y="678.06" width="91.81" height="91.81"/><rect class="cls-1" x="556.04" y="678.06" width="85.72" height="91.81"/><polygon class="cls-2" points="549.96 754.38 626.65 677.7 641.77 677.7 641.77 694.1 565.54 770.33 549.96 770.33 549.96 754.38"/><polygon class="cls-1" points="549.96 754.38 626.65 677.7 641.77 677.7 641.77 687.74 557.7 770.33 549.96 770.33 549.96 754.38"/><polygon class="cls-1" points="641.77 754.38 565.08 677.7 549.96 677.7 549.96 687.74 634.02 770.33 641.77 770.33 641.77 754.38"/><polygon class="cls-2" points="615.34 720.53 641.54 746.73 641.77 754.38 611.63 724.24 615.34 720.53"/><polygon class="cls-2" points="572.5 677.7 599.57 704.77 595.86 708.48 565.08 677.7 572.5 677.7"/><polygon class="cls-3" points="641.54 746.73 615.34 720.53 641.77 694.1 641.54 746.73"/><polygon class="cls-3" points="556.04 748.3 556.04 693.72 583.93 720.42 556.04 748.3"/><polygon class="cls-3" points="565.08 677.7 595.86 708.48 626.65 677.7 565.08 677.7"/><polygon class="cls-3" points="565.54 770.33 599.48 736.39 634.02 770.33 565.54 770.33"/><polygon class="cls-2" points="595.86 732.84 608.15 720.77 608.91 721.52 596.73 733.7 595.86 732.84"/><polygon class="cls-3" points="583.93 720.42 595.86 708.48 595.1 707.71 583.14 719.66 583.93 720.42"/><rect class="cls-1" x="651.17" y="668.66" width="35.03" height="110.61" transform="translate(1337.36 1447.93) rotate(-180)"/><rect class="cls-1" x="654.15" y="678.06" width="27.15" height="91.81" transform="translate(1335.44 1447.93) rotate(-180)"/><polygon class="cls-2" points="683.22 754.38 658.93 677.7 654.14 677.7 654.14 694.1 678.28 770.33 683.22 770.33 683.22 754.38"/><polygon class="cls-1" points="683.22 754.38 658.93 677.7 654.14 677.7 654.14 687.74 680.76 770.33 683.22 770.33 683.22 754.38"/><polygon class="cls-1" points="654.14 754.38 678.43 677.7 683.22 677.7 683.22 687.74 656.6 770.33 654.14 770.33 654.14 754.38"/><polygon class="cls-2" points="662.51 720.53 654.22 746.73 654.14 754.38 663.69 724.24 662.51 720.53"/><polygon class="cls-2" points="676.08 677.7 667.51 704.77 668.68 708.48 678.43 677.7 676.08 677.7"/><polygon class="cls-3" points="654.22 746.73 662.51 720.53 654.14 694.1 654.22 746.73"/><polygon class="cls-3" points="681.29 748.3 681.29 693.72 672.46 720.42 681.29 748.3"/><polygon class="cls-3" points="678.43 677.7 668.68 708.48 658.93 677.7 678.43 677.7"/><polygon class="cls-3" points="678.28 770.33 667.54 736.39 656.6 770.33 678.28 770.33"/><polygon class="cls-2" points="668.68 732.84 664.79 720.77 664.55 721.52 668.41 733.7 668.68 732.84"/><polygon class="cls-3" points="672.46 720.42 668.68 708.48 668.92 707.71 672.71 719.66 672.46 720.42"/><polygon class="cls-2" points="679.08 741.33 679.08 700.56 681.29 693.72 681.29 748.3 679.08 741.33"/><rect class="cls-4" x="651.17" y="668.66" width="35.03" height="110.61"/><rect class="cls-1" x="730.23" y="772.5" width="70.53" height="6.73"/><polygon class="cls-5" points="800.51 772.87 800.51 779.24 730.23 779.24 730.23 772.5 800.51 772.87"/><polygon class="cls-6" points="800.26 773.22 800.26 779.24 730.23 779.24 730.23 772.5 800.26 773.22"/><polygon class="cls-7" points="800 773.58 800 779.24 730.23 779.24 730.23 772.5 800 773.58"/><polygon class="cls-8" points="799.75 773.94 799.75 779.24 730.23 779.24 730.23 772.5 799.75 773.94"/><polygon class="cls-9" points="799.49 774.3 799.49 779.24 730.23 779.24 730.23 772.5 799.49 774.3"/><polygon class="cls-10" points="799.24 779.24 730.23 779.24 730.23 772.5 799.24 774.66 799.24 779.24"/><rect class="cls-1" x="730.23" y="765.74" width="62.64" height="6.73"/><polygon class="cls-5" points="792.65 766.1 792.65 772.47 730.23 772.47 730.23 765.74 792.65 766.1"/><polygon class="cls-6" points="792.43 766.46 792.43 772.47 730.23 772.47 730.23 765.74 792.43 766.46"/><polygon class="cls-7" points="792.2 766.82 792.2 772.47 730.23 772.47 730.23 765.74 792.2 766.82"/><polygon class="cls-8" points="791.97 767.18 791.97 772.47 730.23 772.47 730.23 765.74 791.97 767.18"/><polygon class="cls-9" points="791.75 767.54 791.75 772.47 730.23 772.47 730.23 765.74 791.75 767.54"/><polygon class="cls-10" points="791.52 772.47 730.23 772.47 730.23 765.74 791.52 767.9 791.52 772.47"/><rect class="cls-1" x="735.22" y="759" width="52.67" height="6.73"/><polygon class="cls-5" points="787.7 765.74 735.22 765.74 735.22 759 787.7 759.36 787.7 765.74"/><polygon class="cls-6" points="787.51 765.74 735.22 765.74 735.22 759 787.51 759.72 787.51 765.74"/><polygon class="cls-7" points="787.32 765.74 735.22 765.74 735.22 759 787.32 760.08 787.32 765.74"/><polygon class="cls-8" points="787.13 765.74 735.22 765.74 735.22 759 787.13 760.44 787.13 765.74"/><polygon class="cls-9" points="786.94 765.74 735.22 765.74 735.22 759 786.94 760.8 786.94 765.74"/><polygon class="cls-10" points="786.75 765.74 735.22 765.74 735.22 759 786.75 761.16 786.75 765.74"/><polygon class="cls-2" points="161.6 266.07 144.8 266.07 0 779.27 16.8 779.27 161.6 266.07"/><polygon class="cls-11" points="160.2 266.07 144.8 266.07 0 779.27 15.4 779.27 160.2 266.07"/><polygon class="cls-12" points="158.8 266.07 144.8 266.07 0 779.27 14 779.27 158.8 266.07"/><polygon class="cls-13" points="157.4 266.07 144.8 266.07 0 779.27 12.6 779.27 157.4 266.07"/><polygon class="cls-14" points="156 266.07 144.8 266.07 0 779.27 11.2 779.27 156 266.07"/><polygon class="cls-15" points="154.6 266.07 144.8 266.07 0 779.27 9.8 779.27 154.6 266.07"/><polygon class="cls-10" points="153.2 266.07 144.8 266.07 0 779.27 8.4 779.27 153.2 266.07"/><polygon class="cls-2" points="1150.5 271.17 1167.3 271.17 1309.8 779.27 1293 779.27 1150.5 271.17"/><polygon class="cls-11" points="1151.9 271.17 1167.3 271.17 1309.8 779.27 1294.4 779.27 1151.9 271.17"/><polygon class="cls-12" points="1153.3 271.17 1167.3 271.17 1309.8 779.27 1295.8 779.27 1153.3 271.17"/><polygon class="cls-13" points="1154.7 271.17 1167.3 271.17 1309.8 779.27 1297.2 779.27 1154.7 271.17"/><polygon class="cls-14" points="1156.1 271.17 1167.3 271.17 1309.8 779.27 1298.6 779.27 1156.1 271.17"/><polygon class="cls-15" points="1157.5 271.17 1167.3 271.17 1309.8 779.27 1300 779.27 1157.5 271.17"/><polygon class="cls-10" points="1158.9 271.17 1167.3 271.17 1309.8 779.27 1301.4 779.27 1158.9 271.17"/><path class="cls-16" d="M134.4,289.27l24-15.2s525.2,68.8,998.2,7.6l35,8.88-35,24.32-31-11.2s-470.4,127.2-963.2-9.2l-9.2,18.8-26.4-14.4Z"/><path class="cls-17" d="M134.4,289.27l24-15.2s525.2,68.8,998.2,7.6l35,8.88-35,24.32-31-11.2S649.12,420,162.4,294.47l-9.2,18.8-26.4-14.4Z"/><path class="cls-18" d="M134.4,289.27l24-15.2s525.2,68.8,998.2,7.6l35,8.88-35,24.32-31-11.2S643,409.14,162.4,294.47l-9.2,18.8-26.4-14.4Z"/><path class="cls-19" d="M134.4,289.27l24-15.2s525.2,68.8,998.2,7.6l35,8.88-35,24.32-31-11.2s-488.64,94.6-963.2-9.2l-9.2,18.8-26.4-14.4Z"/><path class="cls-20" d="M134.4,289.27l24-15.2s525.2,68.8,998.2,7.6l35,8.88-35,24.32-31-11.2s-494.72,83.74-963.2-9.2l-9.2,18.8-26.4-14.4Z"/><path class="cls-21" d="M134.4,289.27l24-15.2s525.2,68.8,998.2,7.6l35,8.88-35,24.32-31-11.2s-500.8,72.87-963.2-9.2l-9.2,18.8-26.4-14.4Z"/><path class="cls-22" d="M134.4,289.27l24-15.2s525.2,68.8,998.2,7.6l35,8.88-35,24.32-31-11.2s-506.88,62-963.2-9.2l-9.2,18.8-26.4-14.4Z"/></g></g></svg>