<svg xmlns="http://www.w3.org/2000/svg" viewBox="0 0 3693.57 1970.27"><defs><style>.cls-1{fill:#1e1e1e;}.cls-2{fill:#1d1d1d;}.cls-3{fill:#1c1c1c;}.cls-4{fill:#1b1b1b;}.cls-5{fill:#1a1a1a;}.cls-6{fill:#191919;}.cls-7{fill:#181818;}.cls-8{fill:#171717;}.cls-9{fill:#161616;}.cls-10{fill:#151515;}.cls-11{fill:#141414;}</style></defs><title>p10</title><g id="Layer_2" data-name="Layer 2"><g id="Paralax_1" data-name="Paralax 1"><path class="cls-1" d="M3483.44,853.47,3510.64,976l-51.2,266.22-169.6,153.11-147.2,13.32-43.2-34.4-33.6-85.92-16,80.33-30.4,34.39-60.8,26.23-79.6,17.77-101-33.59-107.4-20.72L2533,1408.67l-65.6,49.2h-192.7l-127.93-54.8-66.57-28.8-14.4-97.45-40,67.22-62.4,47.21-149.2,38.82-96.39-38.82-92,17.25-123.2,30.65-136-56.08-51.2,21.68-59.2,4-169.6,71.89-81.6-22.8-80-84.22-68.8-71.82-80,79.64-120,64-56-22.38-155.79,57.58-149.81-100.8-27.92-149.35-21.91-133.85,49.83-131.2-36-147.2,51.23-192L443.44,518.5l148.8-15.43,160-25.6,86.4,94.4,81.6,131.2,57.6-92.8,232-116.8,99.2,20.8,358.4,92.8,100.8-100.8,219.2-28.8,198.3,100.8,70.17,217.6,16.58-129.6,81.57-126.8,148.58-46,160,27.2,62.4-24,185.6-19.2,86.6,94.4,57.4-64,57.6-19.2,110.4,176,112-155.2,176,123.2-32,60.8ZM160.64,426V1970.27h3480V426Z"/><path class="cls-2" d="M3484.8,853.3,3512,976l-51.34,267-170.27,153.71-148.2,13.42-43.92-35-32-81.91-15.16,76.12-30.85,34.89-61.2,26.41L2879,1448.48l-101.28-33.68-107.1-20.66-137,15.84-65.66,49.26H2274.46l-128.18-54.91L2079,1375.22l-13.95-94.41L2026.88,1345l-62.83,47.53-149.9,39-96.44-38.83-91.58,17.16-123.6,30.75-135.88-56-50.89,21.54-59.2,4-169.83,72-82.42-23-80.26-84.49-67.83-70.81-79.16,78.8L656.32,1447l-56.1-22.42-156,57.64L293.41,1380.68l-28-149.94-22-134.21,49.82-131.15-36-147.12,51.44-192.77L442.9,517.18l149.16-15.46L752.75,476l87,95,80.51,129.45,56.64-91.26L1209.65,492,1309.38,513,1667,605.56,1767.6,505l220.08-28.92,199.18,101.25,68.48,212.33,15.84-123.85,82-127.47,149.37-46.25,159.95,27.19,62.22-23.93L2911.18,476l86.05,93.8,56.64-63.15,59-19.65,109.89,175.19,111.6-154.65,178.09,124.66L3480,693.79ZM146,387.26V1968.91H3645.45V387.26Z"/><path class="cls-3" d="M3486.16,853.13,3513.43,976,3462,1243.65,3291,1398l-149.19,13.51-44.63-35.55L3066.69,1298l-14.32,71.92-31.29,35.4-61.59,26.57-80.59,18-101.55-33.78-106.81-20.61-136.45,15.79-65.74,49.3H2274.18l-128.44-55-68-29.41-13.5-91.36-36.35,61.09-63.26,47.86-150.59,39.18-96.49-38.86-91.15,17.09-124,30.84-135.78-56-50.57,21.41-59.2,4-170.05,72.09-83.25-23.26-80.52-84.77-66.87-69.8-78.31,78-121.47,64.78L600.2,1426l-156.11,57.7L292.17,1381.5,264,1231l-22-134.57L291.79,965.3l-36-147.06,51.64-193.53L442.36,515.87l149.52-15.5,161.38-25.82,87.56,95.67L920.24,697.9l55.69-89.72,233.54-117.57,100.25,21L1666.61,604,1767,503.69l221-29L2188,576.35l66.78,207.06,15.11-118.1,82.43-128.15,150.16-46.49,159.9,27.19,62-23.86,187.32-19.38,85.5,93.19,55.87-62.3,60.32-20.1L3222.8,659.79,3334,505.7l180.17,126.12-32.78,62.29ZM131.43,348.53v1619H3650.26v-1619Z"/><path class="cls-4" d="M3487.52,853l27.3,123-51.62,268.4L3291.57,1399.3l-150.19,13.59L3096,1376.78l-28.91-73.92-13.48,67.7-31.74,35.91-62,26.74-81.08,18.1L2777,1417.44l-106.52-20.55-135.87,15.72L2468.8,1462H2273.9l-128.7-55.13-68.67-29.71-13.06-88.32-34.52,58L1965.26,1395,1814,1434.37l-96.53-38.88-90.72,17-124.39,30.94-135.66-55.93-50.26,21.27-59.2,4L1086.92,1485l-84.07-23.49-80.78-85-65.9-68.8L778.7,1384.8,656.49,1450l-56.31-22.51-156.27,57.76-153-102.92-28.25-151.13-22.09-134.93,49.77-131-36-147,51.85-194.3L441.81,514.55,591.71,499l162.06-25.93,88.14,96.31,78.33,125.93L975,607.14l234.31-118,100.79,21.14,356.13,92.22L1766.33,502.4l221.83-29.15,201,102.15,65.07,201.77,14.37-112.33L2351.42,536l150.94-46.73,159.86,27.18,61.86-23.79,188.19-19.47,84.94,92.59,55.11-61.45L3114,483.77l108.88,173.58,110.8-153.54,182.26,127.58-33.18,63ZM116.83,309.81V1966.18H3655.08V309.81Z"/><path class="cls-5" d="M3488.88,852.79l27.33,123.15-51.76,269.13-172.31,155.54L3141,1414.3l-46-36.68-27.35-69.93-12.65,63.5-32.18,36.41-62.39,26.92-81.58,18.2-102.09-34-106.23-20.49-135.3,15.65-65.87,49.41H2273.62l-128.95-55.24-69.38-30-12.6-85.28-32.71,55-64.11,48.51-152,39.54-96.58-38.89L1627,1413.83l-124.78,31.05L1366.67,1389l-50,21.15-59.19,4L1087,1486.44l-84.89-23.72-81-85.31-64.94-67.79-76.63,76.29-122.95,65.57-56.41-22.54-156.44,57.82-154-103.64L261.33,1231.4l-22.14-135.29,49.75-131L253,818.21l52-195.07,136.24-109.9,150.26-15.58,162.75-26L843,568.56l77.23,124.18L974,606.09l235.07-118.35L1310.41,509l355.38,92,99.9-99.9,222.72-29.27,201.82,102.6,63.38,196.5,13.63-106.58,83.3-129.51,151.73-47L2662.08,515l61.68-23.72,189-19.56,84.38,92,54.35-60.6,63-21L3223,654.91l110.4-153,184.35,129-33.57,63.78ZM102.23,271.08V1964.82H3659.89V271.08Z"/><path class="cls-6" d="M3490.24,852.62l27.36,123.3-51.9,269.85-173,156.16-152.19,13.78-46.77-37.25L3068,1312.53l-11.81,59.29-32.63,36.91-62.79,27.09-82.07,18.32-102.37-34.05-105.93-20.44-134.72,15.58-65.95,49.46H2273.34l-129.21-55.35L2074.05,1379l-12.15-82.24-30.88,51.9-64.55,48.83-152.69,39.72-96.63-38.91-89.86,16.85-125.18,31.14-135.43-55.85-49.64,21-59.19,4-170.75,72.38-85.71-24-81.29-85.58-64-66.78L780.34,1387l-123.69,66-56.51-22.58-156.6,57.88L288.46,1383.93,260,1231.62,237.78,1096,287.51,965,251.57,818.2l52.26-195.84,136.9-110.43,150.62-15.62,163.44-26.15,89.31,97.57,76.13,122.42,52.83-85.1,235.85-118.74,101.84,21.36,354.63,91.82,99.68-99.68,223.59-29.37,202.7,103L2253,764.71l12.9-100.83,83.74-130.19,152.51-47.21,159.76,27.16,61.5-23.66,189.91-19.64,83.83,91.38L3050.77,502l64.4-21.46,107.87,172L3333,500l186.43,130.5-34,64.53ZM87.62,232.36V1963.45H3664.7V232.36Z"/><path class="cls-6" d="M3491.6,852.45,3519,975.9l-52,270.58L3293.3,1403.25l-153.19,13.87-47.49-37.83-24.22-61.92-11,55.07-33.07,37.42-63.19,27.26-82.56,18.43L2776,1421.41,2670.33,1401l-134.15,15.52-66,49.5H2273.06l-129.47-55.46L2072.81,1380l-11.7-79.2-29.06,48.83-65,49.16-153.39,39.91L1717,1399.74l-89.43,16.76L1502,1447.74l-135.33-55.8-49.31,20.88-59.2,4-171,72.47-86.54-24.18-81.55-85.85-63-65.77-74.94,74.6-124.42,66.36-56.61-22.62L443.36,1489.8l-156.13-105-28.59-152.91-22.26-136L286.09,965,250.16,818.18l52.46-196.6,137.57-111,151-15.65L755.3,468.7l89.89,98.21,75,120.66L972.1,604l236.62-119.12,102.37,21.47L1665,598l99.46-99.46L1988.89,469l203.59,103.49,60,186,12.16-95.08,84.18-130.86,153.3-47.46,159.71,27.15,61.32-23.58,190.77-19.74,83.28,90.78,52.83-58.9,65.75-21.91L3223.12,650l109.6-151.89,188.52,132-34.36,65.28ZM73,193.63V1962.09H3669.51V193.63Z"/><path class="cls-7" d="M3493,852.28l27.43,123.6-52.18,271.3-174.34,157.38-154.18,14-48.2-38.39-22.66-57.93-10.13,50.87L3025.18,1411l-63.58,27.43L2878.54,1457l-102.92-34.23-105.34-20.32-133.58,15.45-66.08,49.56H2272.78l-129.72-55.57-71.49-30.93-11.25-76.16-27.23,45.77L1967.68,1400,1813.6,1440.1l-96.73-38.95-89,16.68-126,31.34-135.21-55.75-49,20.74-59.2,4-171.2,72.57-87.36-24.4-81.81-86.13-62-64.77L782,1389.23,656.82,1456l-56.71-22.66-156.93,58L286,1385.56l-28.69-153.5L235,1095.68l49.69-130.82L248.75,818.17,301.42,620.8,439.65,509.3,591,493.6l164.82-26.37,90.47,98.85,74,118.9,50.92-82,237.38-119.52L1311.43,505l353.12,91.43,99.23-99.23,225.35-29.61L2193.6,571.56l58.27,180.68,11.43-89.32,84.61-131.54L2502,483.68l159.67,27.14,61.14-23.51,191.63-19.83,82.73,90.18,52.06-58,67.12-22.38,106.85,170.35,109.22-151.33L3523,629.67l-34.74,66ZM58.41,154.9V1960.73H3674.32V154.9Z"/><path class="cls-8" d="M3494.31,852.11l27.47,123.76-52.32,272-175,158-155.18,14-48.92-39L3069.26,1327l-9.3,46.66-34,38.42-64,27.61-83.55,18.65-103.19-34.33-105.06-20.26-133,15.38-66.15,49.61H2272.5l-130-55.68-72.18-31.23-10.81-73.11-25.41,42.7-65.83,49.8-154.79,40.27-96.77-39-88.56,16.6L1501.8,1450.6l-135.1-55.71L1318,1415.51l-59.2,4-171.43,72.67-88.18-24.64-82.07-86.41-61.07-63.75-73.27,72.93L656.9,1457.48l-56.81-22.7L443,1492.84,284.76,1386.37,256,1232.28l-22.38-136.74,49.67-130.77L247.35,818.16,300.22,620,439.1,508l151.72-15.73,165.5-26.48,91,99.48L920.23,682.4l50-80.49L1208.34,482l103.44,21.7L1664.14,595l99-99,226.22-29.73L2194.73,570.6,2251.3,746,2262,662.44l85-132.21,154.87-48,159.62,27.14,61-23.45L2915,466.06l82.18,89.57,51.3-57.19,68.47-22.83,106.35,169.54,108.82-150.78,192.68,134.88L3489.63,696ZM43.81,116.18V1959.36H3679.14V116.18Z"/><path class="cls-9" d="M3495.67,851.94l27.5,123.91-52.45,272.75L3295,1407.2l-156.17,14.14-49.64-39.53-19.53-49.93-8.45,42.45-34.41,38.93L2962.44,1441l-84,18.76-103.47-34.42-104.76-20.2-132.42,15.31-66.22,49.66H2272.22L2142,1414.35l-72.88-31.53-10.36-70.07-23.58,39.63-66.26,50.13L1813.41,1443l-96.82-39-88.13,16.52L1501.69,1452l-135-55.66-48.37,20.48-59.2,4-171.66,72.77-89-24.87-82.34-86.68L856,1319.36l-72.42,72.09L657,1459l-56.91-22.74-157.26,58.12L283.52,1387.18,254.6,1232.5l-22.44-137.1,49.65-130.72L245.94,818.14,299,619.24,438.56,506.67,590.64,490.9l166.19-26.59,91.63,100.12,71.77,115.39,49-79,238.92-120.28,104,21.81,351.6,91,98.79-98.78,227.1-29.84,206.24,104.84,54.87,170.13,10-77.81,85.48-132.9,155.66-48.19L2661.38,508l60.78-23.38,193.35-20,81.63,89,50.53-56.35L3117.51,474l105.84,168.73,108.42-150.23,194.77,136.34L3491,696.33ZM29.21,77.45V1958H3684V77.45Z"/><path class="cls-10" d="M3497,851.77l27.53,124.06L3472,1249.3,3295.6,1408.52l-157.18,14.22-50.34-40.09-18-45.94-7.62,38.24-34.85,39.44-64.78,27.94-84.54,18.87-103.74-34.5-104.46-20.16-131.85,15.25L2472,1471.51h-200l-130.5-55.9-73.58-31.84-9.91-67-21.76,36.57-66.69,50.46-156.18,40.63-96.87-39-87.7,16.44-127.17,31.63-134.87-55.61-48.06,20.35-59.2,4-171.88,72.86L997.75,1470l-82.6-87L856,1321.3l-71.58,71.26-127.37,67.93-57-22.79-157.42,58.18L282.29,1388l-29-155.28-22.5-137.46,49.63-130.67L244.53,818.13l53.28-199.68L438,505.35l152.44-15.8,166.88-26.7L849.55,563.6l70.68,113.63,48-77.41L1208,479.15l104.49,21.92,350.85,90.85,98.56-98.56,228-30L2197,568.69l53.17,164.85,9.22-72,85.92-133.58,156.44-48.43,159.52,27.12,60.6-23.31,194.22-20.09,81.07,88.38,49.77-55.5,71.2-23.74,105.33,167.93,108-149.68,196.85,137.8-35.92,68.26ZM14.6,38.73V1956.64H3688.76V38.73Z"/><path class="cls-11" d="M3498.39,851.6,3526,975.81,3473.22,1250l-177,159.82L3138,1424.15l-51.06-40.66-16.4-41.94-6.78,34-35.3,39.94-65.17,28.12-85,19-104-34.6-104.17-20.1-131.28,15.19-66.35,49.76H2271.66l-130.75-56-74.29-32.14-9.45-64-19.94,33.51L1970.11,1405l-156.88,40.81-96.92-39L1629,1423.16l-127.56,31.74-134.76-55.57L1319,1419.54l-59.2,4-172.11,73L997,1471.2,914.16,1384,856,1323.25l-70.74,70.42L657.15,1462,600,1439.16,442.45,1497.4l-161.4-108.59-29.14-155.87-22.56-137.83L279,964.51l-35.84-146.4,53.49-200.44L437.48,504l152.8-15.85,167.57-26.81,92.79,101.39,69.59,111.88,47.09-75.88,240.46-121.06,105,22,350.1,90.65,98.34-98.34L1990.1,462l208,105.74,51.46,159.58,8.49-66.3,86.35-134.25,157.22-48.68,159.48,27.11L2721.52,482l195.08-20.18,80.51,87.77,49-54.65,72.55-24.19,104.83,167.12L3331.13,488.7,3530.07,628l-36.32,69ZM0,0V1955.27H3693.57V0Z"/></g></g></svg>