<svg xmlns="http://www.w3.org/2000/svg" viewBox="0 0 3693.57 1898.99"><defs><style>.cls-1{fill:#1e1e1e;}.cls-2{fill:#1d1d1d;}.cls-3{fill:#1c1c1c;}.cls-4{fill:#1b1b1b;}.cls-5{fill:#1a1a1a;}.cls-6{fill:#191919;}.cls-7{fill:#181818;}.cls-8{fill:#171717;}.cls-9{fill:#161616;}.cls-10{fill:#151515;}.cls-11{fill:#141414;}</style></defs><title>p20</title><g id="Layer_2" data-name="Layer 2"><g id="Paralax_2" data-name="Paralax 2"><path class="cls-1" d="M3427.44,1010.27l-56,136.2-8,110.83-171.2,118.77-43.2-7.39-103.2,53.89-146.4-51.9-177.6,128.8-182.4-128-16-84.43-168.28,58.43-188.83,184.79-202.89-90.8-46.4-117.9-91.2-77.88-102.42,127.79-57.58,86.39-134.4,22.8-227.2,28.8-112-101-84.8-62.23L997,1430.07l-89.6,122.6-67.2-211.2V1186.28l17.6-195.21,16-198.4,44.8-198.4,156.8-73.6,110.4,174.4,102.4-33.6,40-80,112-70.4,137.6,155.2,38.4,126.4,44.8-94.4,115.2-100.8L1906,555.87l111.89,33.6,99.55,63.2,226.74-61.6,64,40,104.12-64,153.6,8,84.8,24,87.3,4.8,66.3-64.4,93-28.4,62.2,43.2,76.8,116.8,144-124.8,83.2,28.8,56,77.6-20.8,61.6,6.4,65.6,57.6-62.4,73.6-11.2,30.4,174.4Zm-2649.6,300.8-49.2,191.69L645,1539.87l-204.8-180.8-105.6-99.2,33.6-124.3L266.72,963.87l63.12-153.6,48-204.8,1.6-86,152-29.23,150.4,97.6,60.8,116.8,65.6,319.13ZM0,0V1899H3693.57V0Z"/><path class="cls-2" d="M3428.59,1011.07l-55.81,135.72-8,111.26-172.19,119.46-43.3-7.41-103.32,54-146.28-51.86-177.81,129L2538.2,1372.28l-15.81-83.42-166.5,57.81L2166.62,1531.9l-204.24-91.41-46.48-118.1L1826,1245.64l-101.49,126.64-57.88,86.84-135,22.9-227.82,28.88-112.41-101.34L1107.45,1348,998,1431,907,1555.65l-68.08-214V1186.15L856.48,991l16-198.48,45-199.15L1076,518.93l110.47,174.52,100.85-33.1,39.92-79.83,113.3-71.22,138.57,156.29,37.46,123.31,43.41-91.47,115.62-101.17,130.39-41.82,112.47,33.78,99.2,63,226.74-61.6,63.78,39.87,103.76-63.78,154.17,8,84.81,24,86.55,4.76,66.11-64.22,93.94-28.69,63,43.73L3136.52,669l143.42-124.29,84.35,29.19L3421,652.44l-20.93,62,6.07,62.28L3462,716.2l75.39-11.48,30.76,176.45ZM378.1,518.37l153.62-29.54,151.16,98.09,61.06,117.29.41,2,65.27,317.53-30.43,287.58-.26,1-49.14,191.44-84.16,37.36-7.21-5.26L439.31,1360.07l-105.87-99.45.83-4.6,32.4-119.88-1.77-3.54L265.2,964l63.34-154.13,46.27-197.4,1.68-7.9ZM16,40.09v1842.2H3687.4V40.09Z"/><path class="cls-3" d="M3429.74,1011.86l-55.61,135.24-8.06,111.7L3192.88,1379l-43.39-7.43-103.44,54-146.17-51.82-178,129.1L2537,1373.08l-15.62-82.42-164.72,57.2-189.72,185.66-205.6-92-46.56-118.3-88.54-75.62-100.58,125.5-58.17,87.27-135.68,23-228.44,28.95-112.82-101.71-83-60.95L999,1432l-92.54,126.62-69-216.72V1186l17.6-195.2,16-198.57,45.13-199.89,160.19-75.19L1187,691.82l99.3-32.59,39.83-79.66,114.61-72,139.53,157.38,36.52,120.22,42-88.54,116-101.54,131.06-42,113,34,98.85,62.75,226.74-61.59,63.56,39.73,103.41-63.56,154.75,8.06,84.8,24,85.81,4.71,65.91-64,94.9-29,63.72,44.25L3136.81,667l142.83-123.79,85.51,29.6,57.32,79.43-21.06,62.38,5.75,59,54.12-58.63,77.19-11.75,31.11,178.49Zm-3053-494.62L532,487.39,683.93,586l61.31,117.77.4,2L811,1023.66l-30.47,287.9-.25,1L731,1504.72l-84.72,37.61-7.42-4.32-200.44-177-106.12-99.69.37-4.48,32.49-120.18-1.49-3.59-99.94-169,63.55-154.65,46.38-197.88,1.54-7.93ZM31.93,80.18V1865.59H3681.22V80.18Z"/><path class="cls-4" d="M3430.88,1012.66l-55.41,134.76-8.09,112.13L3193.2,1380.39l-43.49-7.44L3046.15,1427l-146.05-51.78L2721.88,1504.5l-186.15-130.63-15.43-81.4-162.93,56.58L2167.2,1535.14l-206.95-92.62L1913.61,1324l-87.22-74.48-99.66,124.36-58.46,87.71L1532,1484.73l-229.06,29-113.24-102.09-82.17-60.3L1000,1433l-94,128.62-69.84-219.48,0-156.2,17.6-195.21,16-198.65,45.3-200.63,161.88-76,110.62,174.75,97.75-32.07,39.75-79.5L1441,505.76l140.49,158.47,35.59,117.13,40.63-85.61,116.47-101.91,131.73-42.25,113.65,34.13,98.5,62.53,226.73-61.59,63.35,39.6,103-63.34L2666.51,571l84.81,24,85.06,4.68,65.72-63.84,95.84-29.27,64.48,44.78,74.67,113.56,142.26-123.29,86.65,30L3424,652l-21.19,62.77,5.43,55.64,52.38-56.75,79-12,31.47,180.52ZM375.41,516.11l156.88-30.17L685,585l61.56,118.26.41,2,65.44,318.3-30.5,288.21-.26,1-49.51,192.9-85.29,37.86-7.62-3.39L437.44,1362.05l-106.39-99.93-.07-4.37,32.56-120.48-1.2-3.63L262.16,964.2,325.93,809l46.49-198.34,1.38-8ZM47.9,120.27V1848.88H3675V120.27Z"/><path class="cls-5" d="M3432,1013.45l-55.21,134.29-8.13,112.56-175.17,121.52-43.59-7.45-103.67,54.13-145.94-51.73-178.43,129.4-187.4-131.5-15.23-80.4-161.16,56-190.61,186.53-208.31-93.23-46.72-118.7-85.88-73.35-98.75,123.21-58.76,88.16-136.94,23.22-229.68,29.12-113.66-102.46-81.29-59.66L1001,1433.93,905.5,1564.57l-70.71-222.25,0-156.53,17.6-195.21,16-198.73,45.48-201.38,163.57-76.78,110.7,174.87,96.2-31.56L1324,577.67,1441.25,504l141.46,159.56,34.65,114,39.24-82.68,116.9-102.29,132.4-42.46,114.23,34.3,98.15,62.32L2345,585.18l63.15,39.47,102.68-63.11,155.91,8.12,84.8,24,84.31,4.63,65.54-63.65,96.79-29.56,65.24,45.31,74,112.48,141.67-122.78,87.8,30.39,58.66,81.28-21.33,63.15,5.11,52.32,50.64-54.86,80.77-12.29,31.82,182.57ZM374.07,515l158.5-30.48L686,584.08l61.81,118.75.41,2,65.51,318.7L783.22,1312l-.26,1-49.7,193.63-85.85,38.11-7.82-2.45L436.51,1363.05,329.86,1262.86l-.53-4.25L362,1137.84l-.92-3.69L260.64,964.31l64-155.71,46.6-198.81,1.22-8ZM63.87,160.36V1832.18h3605V160.36Z"/><path class="cls-6" d="M3433.18,1014.25l-55,133.8-8.15,113-176.17,122.21-43.68-7.47-103.8,54.2-145.82-51.7-178.63,129.56-188.65-132.38-15.05-79.39-159.37,55.34-191.06,187-209.66-93.83-46.8-118.91-84.56-72.21-97.83,122.07-59,88.59-137.58,23.34L1302,1516.63l-114.07-102.84-80.42-59L1002,1434.9,905,1567.54l-71.6-225,0-156.87,17.6-195.2,16-198.82,45.64-202.12L1078,511.94l110.77,175,94.65-31.06L1323,576.72l118.51-74.5,142.42,160.64,33.71,111,37.85-79.75,117.32-102.66,133.08-42.68,114.81,34.48,97.8,62.09,226.72-61.59,62.93,39.34,102.33-62.9L2667,568.3l84.81,24,83.56,4.6,65.34-63.47,97.74-29.85,66,45.84,73.25,111.4,141.09-122.28,89,30.79,59.31,82.2-21.45,63.54,4.78,49,48.9-53,82.56-12.56L3574,883.14ZM372.73,513.85l160.12-30.79L687.06,583.13l62.07,119.24.41,2,65.59,319.08-30.56,288.82-.26,1-49.89,194.36L648,1546l-8-1.52L435.57,1364,328.66,1263.61l-1-4.14,32.72-121.06-.63-3.74L259.12,964.42l64.21-156.23L370,608.91l1.08-8ZM79.84,200.45v1615H3662.69v-1615Z"/><path class="cls-6" d="M3434.33,1015l-54.82,133.33-8.19,113.43-177.16,122.9-43.78-7.49-103.91,54.26-145.71-51.65-178.84,129.7L2532,1376.27l-14.85-78.38-157.6,54.72L2168.08,1540l-211-94.44-46.88-119.11L1827,1255.39,1730,1376.32l-59.34,89-138.22,23.44-230.92,29.27-114.48-103.21-79.55-58.37-104.58,79.38-98.41,134.66-72.47-227.78,0-157.2,17.6-195.2,16-198.9,45.81-202.87,167-78.37,110.85,175.11,93.11-30.55,39.5-79,119.81-75.31,143.39,161.73,32.77,107.87,36.46-76.82,117.75-103,133.74-42.89L2021.27,582l97.46,61.87,226.71-61.59,62.72,39.21,102-62.68L2667.18,567,2752,591l82.81,4.56L2900,532.22l98.69-30.13,66.76,46.37,72.53,110.31L3278.45,537l90.11,31.19,60,83.11L3407,715.23l4.46,45.68,47.16-51.09L3542.93,697l32.53,186.66ZM371.38,512.72l161.75-31.1,155,100.56,62.32,119.73.42,2,65.67,319.47-30.6,289.14-.26,1-50.07,195.08-87,38.62-8.23-.58L434.64,1365,327.47,1264.36l-1.43-4L358.84,1139l-.33-3.8L257.6,964.53,322,807.77,368.84,608l.92-8.07ZM95.8,240.54V1798.78H3656.52V240.54Z"/><path class="cls-7" d="M3435.47,1015.84l-54.62,132.85-8.22,113.85-178.15,123.6-43.88-7.51-104,54.33L2901,1381.34,2721.93,1511.2l-191.15-134.13-14.66-77.38-155.81,54.11-191.94,187.84L1956,1446.59l-47-119.3-81.9-69.94-96,119.77-59.63,89.47-138.86,23.55-231.54,29.35-114.89-103.58-78.67-57.73-103.62,78.65-99.87,136.66L830.69,1343l0-157.53,17.6-195.21,16-199,46-203.61L1079,508.45l110.93,175.23,91.55-30,39.42-78.83L1442,498.68,1586.37,661.5l31.83,104.78,35.07-73.89L1771.44,589l134.42-43.11,116,34.83,97.1,61.65,226.71-61.59,62.5,39.07,101.61-62.46,157.64,8.21,84.81,24,82.07,4.51L2899.24,531l99.64-30.43,67.52,46.9,71.83,109.23,139.92-121.27L3369.42,567l60.64,84-21.72,64.31,4.13,42.37,45.43-49.21L3544,695.43l32.89,188.7ZM370,511.59l163.37-31.42L689.15,581.23l62.57,120.21.42,2,65.75,319.86-30.63,289.44-.26,1-50.27,195.81-87.54,38.86-8.43.36L433.7,1366,326.27,1265.11l-1.88-3.91,32.89-121.66,0-3.84L256.08,964.64l64.64-157.29,46.93-200.21.76-8.11Zm-258.27-231V1782.08H3650.34V280.63Z"/><path class="cls-8" d="M3436.62,1016.63,3382.2,1149,3374,1263.29,3194.8,1387.58l-44-7.53-104.15,54.39-145.48-51.57-179.26,130-192.39-135-14.47-76.36L2361,1355l-192.38,188.27-213.74-95.65-47-119.51-80.58-68.8-95.07,118.63-59.93,89.91-139.5,23.65-232.16,29.43-115.31-104-77.79-57.09-102.64,77.92L903.56,1576.47l-74.23-233.31,0-157.86L847,990.09,863,791l46.14-204.36,170.34-79.95,111,175.35,90-29.54,39.33-78.66,122.42-76.95,145.32,163.91,30.89,101.69,33.68-71,118.6-103.78,135.09-43.32,116.57,35,96.75,61.42,226.7-61.59,62.3,39L2509.42,556l158.21,8.24,84.82,24,81.32,4.48,64.76-62.91,100.59-30.72,68.28,47.43,71.11,108.15L3277.86,533.9l92.41,32,61.3,85-21.84,64.7,3.8,39.05,43.69-47.33,87.93-13.38,33.25,190.74ZM368.7,510.46l165-31.73,156.5,101.56L753,701l.42,2,65.83,320.24L788.6,1313l-.26,1-50.45,196.54-88.11,39.11-8.62,1.29L432.77,1367,325.08,1265.85l-2.33-3.79,33-122,.24-3.89L254.56,964.75l64.86-157.82,47-200.68.62-8.14Zm-241-189.74V1765.38H3644.17V320.72Z"/><path class="cls-9" d="M3437.77,1017.43l-54.23,131.89L3375.26,1264l-180.15,125-44.06-7.53-104.27,54.44-145.36-51.53L2722,1514.55l-193.65-135.89L2514,1303.31l-152.25,52.87L2169,1544.89l-215.09-96.26-47.12-119.71-79.24-67.67-94.16,117.48-60.22,90.36L1533,1492.85l-232.78,29.5L1184.48,1418l-76.92-56.44-101.67,77.17L903.08,1579.44,828,1343.38l0-158.21L845.62,990l16.06-199.15L908,585.71,1080,505,1191.1,680.43l88.45-29,39.25-78.5,123.72-77.77,146.28,165,30,98.6,32.28-68,119-104.15L1905.83,543,2023,578.2l96.41,61.21,226.69-61.59,62.09,38.81,100.89-62,158.78,8.27,84.82,24,80.58,4.43,64.57-62.72,101.53-31,69,47.95,70.4,107.07,138.77-120.26,93.56,32.38,62,85.87-22,65.09,3.49,35.73L3456.54,706l89.73-13.66,33.6,192.79ZM367.35,509.33l166.63-32L691.23,579.34l63.09,121.18.42,2,65.91,320.63L790,1313.25l-.27,1-50.63,197.27-88.68,39.36-8.82,2.23L431.84,1368l-108-101.42-2.78-3.68,33-122.24.52-4L253,964.86l65.08-158.34,47.14-201.15.46-8.18ZM143.71,360.81V1748.68H3638V360.81Z"/><path class="cls-10" d="M3438.92,1018.22l-54,131.41-8.31,115.16-181.14,125.66-44.16-7.55-104.39,54.51-145.24-51.49L2722,1516.22l-194.9-136.76L2513,1305.11l-150.47,52.25-193.27,189.15-216.45-96.86-47.19-119.92-77.92-66.53-93.24,116.34-60.52,90.79-140.76,23.87-233.41,29.59-116.13-104.7-76-55.8-100.71,76.44L902.59,1582.41l-76-238.82.06-158.54,17.6-195.2,16.07-199.24,46.48-205.85,173.72-81.54L1191.68,678.8l86.91-28.51L1317.75,572l125-78.59L1590,659.46,1619,755l30.89-65.1,119.46-104.52,136.43-43.76L2023.56,577l96.06,61,226.69-61.58L2408.18,615l100.53-61.8,159.37,8.3,84.82,24,79.82,4.39,64.38-62.54,102.49-31.29,69.8,48.48,69.69,106,138.18-119.76L3372,563.6l62.63,86.78-22.11,65.48,3.16,32.41,40.2-43.56,91.52-13.93,34,194.83ZM366,508.2l168.25-32.36,158,102.55,63.33,121.67.42,2.05,66,321L791.3,1313.5l-.27,1-50.83,198L651,1552.16l-9,3.16L430.9,1369,322.68,1267.35l-3.22-3.57,33.12-122.54.81-4L251.52,965,316.81,806.1l47.26-201.62.3-8.21ZM159.67,400.9V1732H3631.82V400.9Z"/><path class="cls-11" d="M3440.07,1019,3386.23,1150l-8.34,115.59-182.14,126.35-44.25-7.57L3047,1438.89l-145.13-51.45L2722,1517.9l-196.14-137.64-13.9-73.34-148.69,51.63-193.72,189.59-217.8-97.48-47.28-120.11-76.58-65.4-92.33,115.2-60.81,91.23-141.4,24-234,29.67-116.54-105.07L1107.59,1365l-99.73,75.7-105.75,144.7L825.24,1343.8l.06-158.87,17.6-195.21L859,790.41l46.65-206.6L1081,501.47l111.23,175.71,85.35-28L1316.7,571,1443,491.6l148.21,167.17,28.08,92.43,29.5-62.17L1768.7,584.14l137.11-44,118.32,35.53,95.71,60.76,226.69-61.58,61.66,38.54,100.17-61.57,159.94,8.33,84.82,24,79.08,4.35,64.19-62.35,103.43-31.58,70.56,49,69,104.91L3277,529.26l95.87,33.19,63.29,87.7L3413.88,716l2.84,29.08,38.47-41.67,93.31-14.19,34.31,196.87ZM792.64,1313.74l-.27,1.06-51,198.73-99,44L430,1370,317.81,1264.64l34.3-126.88L250,965.08l65.51-159.4L362.87,603.6l1.8-96.53L534.54,474.4l158.78,103L756.91,699.6l.42,2,66.07,321.41ZM175.64,441V1715.27h3450V441Z"/></g></g></svg>