<svg xmlns="http://www.w3.org/2000/svg" viewBox="0 0 3693.57 1898.99"><defs><style>.cls-1{fill:#141414;}.cls-2{fill:#131313;}.cls-3{fill:#121212;}.cls-4{fill:#111;}.cls-5{fill:#101010;}.cls-6{fill:#0f0f0f;}.cls-7{fill:#0e0e0e;}.cls-8{fill:#0d0d0d;}.cls-9{fill:#0c0c0c;}</style></defs><title>p30</title><g id="Layer_2" data-name="Layer 2"><g id="Paralax_3" data-name="Paralax 3"><path class="cls-1" d="M3422.64,1024.67l16.8,147.6-142.8,90.65H3203l-43.2,58.3-86.4,70.25-155.85-40.29-79.65-78.11-15.3,65.2-114,75.2-250.8,10.8-129.48-86-74.65-127.38L2217,1287.42l-163.52,115.65-84-48.77-21.6-62.48-63.6,36.46-92.4,74.79-218.4,21.2-80.4-43.65-37.2-98.21L1397,1381l-72,66.1-79.2-74.4-68.4,16.8-106.8,28.8-103.2-44.4-32.4-94.8-51.6,49.2L755,1373.87l-75.6-32.4-70.8,45.6-62.4,4.8-26.4-72.9-19.2-17.14-121.2-256.76L271.69,854.27l160.55-235.2h123.6l138,171.6,74.4-76.8,150,57.6,97.2-46.8,99.6-58.8,94.8,67.2,37.2,124.8,39.6-115.2,74.4-90,94.8-16.8,63.6,51.6,61.2-56.4,240,31.2,73.2,58.8,70.8-51.6,100.8-85.2,120.3,8.4,145.87,92.4,89.4,14.4,108.83-46.8s115.2,34.8,115.8,40.8,65.4,85.2,65.4,85.2l32,120,26.8-129.6,32.8-99.6,119.15-45.6,97.65-22.8,96,69.6,136.8,20.4,75.6,75.6,79.2,36,39.6,105.6-74.4,92.4-8.8,44.4ZM160.64,426V1850.27h3480V426Z"/><path class="cls-2" d="M430.71,616.18H553.25L578.79,643,691.55,783.22,718,761.62,765,713,796,721.43l116.94,44.9,48.65-18.93,47.89-23.06,42.87-24.8,56.08-33.11,62.43,35.46,31.91,22.61,38.65,104.33,4.45,14.94,15.06-35.12,15.89-46.24,8.93-23.17L1359.49,650l94.28-16.7,21.9,14.93,43.65,35.41L1579.67,628l238.51,31L1846,679l45.67,36.69,21.82-12.49,49.34-36L2063,582.58l18.23-.1,100.78,7,38.5,21.75,107.1,67.84,55.72,11.37,32.2,5.19L2461.34,679,2524,652.06s30.86,5.14,56.29,13.45c2.87.94,6.74,2.18,9.58,3.13,22.83,7.6,46.67,15.45,49.1,19.19a81,81,0,0,0,6.6,9.17c7.44,9,18.91,21.7,29.5,34.07,15.71,18.36,30.93,35.65,31.46,37.09.72,1.11,28.13,95.75,30.93,99.17l1.75,5.59,3.52,13.21,5.16-24.93,22.67-103.39,6.36-19.31,31.63-74.36,62.5-23.92,56-20.54,59.8-14,36.48-5.42,75.95,55.06L3119,668.29l124.23,18.52,11.21,2.41,75,75,78.5,35.68,5.71,12.3,34.35,91.61-27,40.73-41.61,51.69-10.73,43.07,11.26-3,45.07-15.53,17.23,151.34-8.8,7.33-136.05,86.37h-93l-42.56,57.42-87.81,71.4-155.64-40.24-16.54-14.5-62.37-61.16-7.14,30.42-10.55,33.08-112.33,74.09L2457,1427.2l-129.44-86-8.16-12.47-53.15-90.7-13.63-18.29-6.72,14-33,60-126.62,89.55L2049.28,1404l-68.14-39.56-14.74-10.1-8.56-24.75-15.43-31.33-62.84,37.52-40.26,32.59-53.72,38.21-168.13,16.32-49.53,1.67-51.93-28.2-26.55-17.08-10.17-26.83-24.15-47.86-4.48-8.55L1389,1392.26l-71.27,51.93-22.83-21.45-45.57-35.65-12-9.33-67.74,16.8-41.77,11.27-63.73,12.8-70.88-30.5L964,1372.7l-13.8-40.37-14.27-30.45-6.76-14.22-52.72,46.16-71.54,25.41-55.55,15.35L725.6,1364.4l-50.71-16.56-23,14.81-48.07,27.69L564,1393.4l-20.53-.61-26.13-72.15-19.09-17L376.87,1046.4,268.29,854.13ZM142.79,378.65v1477H3646.52v-1477Z"/><path class="cls-3" d="M429.19,613.29H550.67l26.81,23.47,111.79,139,25.9-15.42,46.68-48.18,29.82,4.51L907.6,761.2,956,746.87,1003.48,724l42.71-24.21L1101.77,667,1164,693.51l31.63,22.43,44.59,98.92,4.41,14.8,14.73-25.5,15.76-45.83,9.67-22.52,73.12-88.46,93.75-16.61,22.39,12.49,45.12,36.61L1578.71,625l237,30.82,28.46,18,45.38,36.45,21.59-8.92,49.92-36.38,99.42-84,17.65-1.52,100.09,7,38.95,19.39,106.36,67.37L2378,686.69l32,5.16,45.88-13.66,62.18-26.74s33.43,1.73,55.69,9c2.5.82,7,2.26,9.51,3.08,20,6.66,43.87,13.9,48.94,18.66,1,1,3.2,4.39,7.08,8.45,8.42,8.83,20.41,20.28,30.92,31.58,15.59,16.76,30.66,32.55,31.72,35.43,1.44,2.22,29.1,89.69,34.71,96.54l2,5.43,3.72,14,5.11-24.73,23.73-102.29,6.32-19.17,36.87-68.59,62-23.74,55.86-19.56,59.36-13.86,35.54-2.11,75.39,54.65,20.08,11.72,123.3,18.39,10.78,3.07,74.48,74.49L3409,797.21l6.46,11.44,34.05,90.79-21.5,41.2-41.25,51.22-12.66,41.76,8.81-1.36,44.67-15.4,17.65,155.1-7.49,8.24-139.41,88.5H3206l-41.9,56.54-89.23,72.56-155.43-40.19-17.14-13.38-61-59.85-7.14,30.41-12.94,31.39-110.65,73-254.28,11-129.38-85.94-8.71-12L2265,1241.57l-13.4-12.92-6.71,14-35.9,57.51-126.57,89.52-37.3,15.26L1977,1365.37l-13.65-11-8.55-24.74L1937,1304.7l-62.07,38.57-40.25,32.58-55.32,34.24-168.06,16.31-48.85-1.53-51.91-28.19L1485.86,1378l-10.16-26.83-25.28-34.92-5-6.54L1381,1403.54l-70.53,37.77-22.62-21.25-46.68-29.52-12.24-7.69-67.07,16.81-41.38,11.16-62.81,8.16-70.24-30.22-26.9-17.24-13.67-40L931.1,1308l-7.82-11.77-53.84,43.13-70.88,25.18-54.89,10.73-23.53-10.08-49.79-11-22.79,14.68L599,1393.61l-39.43,3-18.83-2.94-25.86-71.39-19-17L374.31,1047.73,264.89,854Zm-304.25-282V1861.1H3652.4V331.32Z"/><path class="cls-4" d="M427.66,610.41H548.08l28.09,20.11L687,768.32l25.4-9.24,46.27-47.76,28.71.61,114.93,44.13,48.16-9.71,47.06-22.66L1040,700.08l55.1-32.52,62.07,17.58,31.36,22.23,50.53,93.52,4.37,14.66,14.41-15.87,15.62-45.43,10.4-21.87,72.49-87.69,93.23-16.52,22.88,10.06L1519.08,676,1577.74,622l235.52,30.61,29.07,16,45.09,36.22,21.37-5.35,50.49-36.8L2058,579.2l17.06-2.94,99.39,6.94,39.41,17,105.63,66.91,53.22,15.77L2404.5,688l45.93-10.64,61.74-26.56s36-1.67,55.08,4.56c2.15.7,7.33,2.33,9.45,3,17.19,5.73,40.89,12.62,48.78,18.13,1.35,1,3.67,4.18,7.56,7.73,9.48,8.66,21.9,18.87,32.34,29.08,15.47,15.16,30.39,29.45,32,33.77,2.16,3.34,30.09,83.65,38.5,93.92l2.2,5.27L2742,861l5.08-24.54,24.79-101.19,6.26-19,42.12-62.81,61.57-23.56,55.7-18.59,58.9-13.76,34.62,1.2L3105.83,653l20.38,10.52,122.38,18.24,10.34,3.75,73.93,73.92,77.1,35.05,7.23,10.57,33.74,90-16,41.67L3394,987.46l-14.59,40.43,6.35.32L3430,1013l18.08,158.84-6.18,9.16-142.77,90.62h-91.75l-41.26,55.67L3075.51,1401l-155.22-40.13-17.74-12.26L2842.86,1290l-7.13,30.39-15.34,29.71-109,71.89-256,11-129.32-85.9-9.25-11.43-53.11-90.63-13.19-7.55-6.7,14-38.83,55L2078.47,1396l-37.52,9.85-68.09-39.53-12.55-11.9-8.55-24.72-20.21-18.54-61.31,39.62L1830,1383.32l-56.92,30.28-168,16.31-48.18-4.74L1505,1397l-22.77-20.34-10.16-26.82-26.41-22-5.42-4.52L1373,1414.83l-69.79,23.6-22.41-21L1233,1394l-12.52-6-66.41,16.81-41,11-61.9,3.53-69.59-29.93-24.51-19.05-13.54-39.62-17.26-16.59-8.88-9.32-55,40.11-70.23,24.94L738,1376l-23.31-10-48.87-5.43-22.58,14.54-49,21.76-39.06,3L538,1394.62,512.44,1324l-18.89-16.85L371.74,1049.06,261.49,853.84ZM107.09,284V1866.51H3658.28V284Z"/><path class="cls-5" d="M426.14,607.52H545.5l29.36,16.76L684.7,760.86l24.89-3.06,45.86-47.34,27.61-3.28L897,750.92l47.92-5.1,46.64-22.46,42.37-23,54.61-32.24,61.89,8.65,31.08,22L1238,786.91l4.33,14.54,14.09-6.26,15.48-45L1283,729,1354.84,642l92.71-16.42,23.37,7.61,48,39,57.82-53.28,234,30.42,29.68,14,44.8,36,21.15-1.77,51.07-37.22,98.05-82.88,16.47-4.35,98.7,6.89,39.87,14.69,104.88,66.44,52,18,31.55,5.08,46-7.63,61.31-26.37s38.58-5.08,54.48.11c1.79.59,7.61,2.4,9.38,3,14.37,4.78,37.86,11.5,48.62,17.59,1.69,1,4.17,3.93,8,7,10.61,8.44,23.4,17.45,33.76,26.59,15.35,13.56,30.13,26.35,32.23,32.11,2.88,4.45,31.07,77.59,42.28,91.29l2.42,5.12,4.13,15.46,5-24.36L2772.5,724l6.22-18.88,47.36-57,61.1-23.39,55.54-17.62,58.45-13.65,33.69,4.51,74.25,53.83,20.7,9.32,121.44,18.11,9.91,4.41L3334.53,757l76.4,34.73,8,9.7,33.44,89.15-10.59,42.15-40.51,50.31-16.51,39.1,3.89,2,43.85-15.12L3451,1171.64l-4.87,10.08L3300,1274.47h-91.14l-40.6,54.79-92.06,74.86-155-40.08-18.33-11.13-58.35-57.22-7.13,30.39-17.74,28-107.3,70.78L2454.58,1436l-129.28-85.87-9.79-10.91-53.09-90.59-13-2.19-6.7,14L2201,1312.86l-126.48,89.45-37.74,4.45-68.07-39.51-11.45-12.8-8.55-24.71-22.6-12.15-60.55,40.67-40.2,32.54-58.53,26.31-167.92,16.3-47.5-8-51.87-28.16-20.87-22-10.16-26.8-27.53-9.06-5.9-2.5L1365,1426.12l-69.06,9.42-22.19-20.84-48.88-17.28L1212,1393l-65.75,16.81-40.6,11-61-1.1L975.76,1390l-22.14-20.85-13.41-39.25-18.75-9.66-9.93-6.86-56.08,37.07-69.58,24.71-53.57,1.51-23.09-9.9-48,.13-22.38,14.41-49.48,18.8-38.69,3-15.43-7.58L510,1325.65l-18.78-16.76-122-258.5L258.1,853.69ZM89.24,236.66V1871.92H3664.17V236.66Z"/><path class="cls-5" d="M424.61,604.63h118.3L573.55,618,682.41,753.41l24.39,3.12,45.46-46.92,26.49-7.18,112.9,43.36,47.67-.5L985.55,723l42.2-22.4,54.12-32,61.72-.28,30.8,21.84,62.41,82.7,4.29,14.4,13.76,3.37,15.35-44.63,11.88-20.56,71.21-86.15L1445.47,623l23.86,5.18,49.51,40.16,57-52.5,232.53,30.23,30.29,12.09,44.51,35.74,20.92,1.81,51.65-37.65,97.36-82.29L2069,570l98,6.84,40.32,12.35,104.15,66,50.72,20.16,31.33,5,46-4.62,60.89-26.18s41.15-8.49,53.86-4.34c1.43.47,7.91,2.47,9.33,2.94,11.54,3.84,34.82,10.5,48.44,17.07,2,1,4.72,3.65,8.53,6.28,11.81,8.15,24.9,16,35.18,24.09,15.23,12,29.86,23.26,32.49,30.46,3.6,5.56,32.05,71.54,46.06,88.66l2.65,5,4.32,16.21,5-24.16,26.91-99,6.17-18.73,52.6-51.26,60.64-23.2L2948,602.93l58-13.54,32.76,7.82,73.68,53.42,21,8.11,120.51,18,9.48,5.08,72.81,72.81L3411.91,789l8.75,8.83,33.12,88.33-5.13,42.62-40.13,49.85-18.45,37.78,1.44,3.69,43.45-15,18.93,166.33-3.57,11-149.48,94.89h-90.53l-39.95,53.92-93.47,76-154.81-40-18.93-10-57-55.9-7.12,30.37-20.14,26.33-105.62,69.68-259.5,11.18-129.22-85.83-10.34-10.4-53.07-90.55-12.73,3.18-6.69,14-44.69,50-126.43,89.42-38-1-68-39.51-10.36-13.69-8.54-24.7-25-5.76-59.79,41.73-40.18,32.52-60.13,22.34-167.85,16.29-46.83-11.15-51.84-28.15-19-23.61-10.15-26.8-28.66,3.88-6.38-.48-73,86.8-68.32-4.74-22-20.65-50-11.14-13.06-2.75-65.09,16.82-40.21,10.84L1038.2,1420l-68.28-29.38L950.17,1368l-13.29-38.87-20.23-2.73-11-4.41-57.2,34-68.92,24.47-52.92-3.1-22.86-9.79-47,5.68-22.17,14.28-49.95,15.84-38.31,2.95-13.74-9.91-25-69.13-18.67-16.67L366.6,1051.71,254.7,853.55ZM71.4,189.33v1688H3670.05v-1688Z"/><path class="cls-6" d="M423.09,601.74H540.33l31.9,10.06L680.13,746l23.89,9.3,45-46.5,25.38-11.07,111.89,43,47.43,4.11,45.81-22.06,42-21.8,53.63-31.66,61.53-9.21,30.53,21.64,68.35,77.3,4.25,14.26,13.44,13,15.2-44.22,12.63-19.91,70.57-85.37,91.66-16.25,24.35,2.74,51,41.36,56.13-51.73,231,30,30.9,10.14L1881,688.52l20.71,5.38,52.23-38.07,96.67-81.71,15.3-7.19,97.31,6.79,40.78,10,103.42,65.5,49.46,22.36,31.12,5,46.06-1.61,60.46-26s43.72-11.9,53.26-8.78c1.07.35,8.2,2.53,9.26,2.88,8.72,2.9,31.8,9.56,48.28,16.54,2.39,1,5.28,3.34,9,5.56,13.07,7.75,26.39,14.61,36.61,21.6,15.1,10.36,29.58,20.15,32.74,28.8,4.32,6.67,33,65.49,49.83,86l2.88,4.81,4.53,17,5-24,28-97.9,6.12-18.58,57.84-45.48,60.17-23,55.21-15.69,57.56-13.44,31.83,11.13,73.12,53,21.3,6.92,119.58,17.83,9,5.75,72.25,72.25,75,34.1,9.52,8,32.81,87.52.33,43.09-39.77,49.39-20.37,36.45-1,5.38,43-14.84,19.36,170.08-2.26,11.91-152.84,97h-89.91l-39.3,53-94.89,77.16-154.6-40-19.53-8.89L2847.78,1307l-7.12,30.36L2818.13,1362l-104,68.57L2453,1441.83,2323.77,1356l-10.88-9.88-53-90.51-12.51,8.54-6.69,13.94L2193,1325.58,2066.65,1415l-38.19-6.35-68-39.49-9.26-14.59-8.53-24.69-27.38.63-59,42.78-40.17,32.51-61.73,18.37-167.77,16.28-46.16-14.35-51.82-28.13-17.09-25.26-10.15-26.78-29.79,16.8-6.85,1.55-75.8,84.45-67.59-18.91-21.77-20.45-51.08-5-13.35-1.11L1130.7,1420l-39.82,10.74-59.16-10.37-67.64-29.1-17.36-24.47-13.16-38.5-21.73,4.2-12.06-2-58.32,31-68.27,24.24-52.25-7.71-22.64-9.7-46.13,11.25-21.95,14.14-50.43,12.88-37.94,2.92-12-12.23L505,1329l-18.56-16.57L364,1053,251.3,853.41ZM53.55,142V1882.75H3675.93V142Z"/><path class="cls-7" d="M421.56,598.85H537.74l33.18,6.7,106.92,133L701.23,754l44.63-46.07,24.28-15L881,735.51l47.19,8.72,45.39-21.85,41.87-21.2,53.15-31.38L1130,651.66l30.25,21.44L1234.5,745l4.21,14.14,13.12,22.61,15.06-43.83,13.37-19.25,69.93-84.6,91.13-16.15,24.85.3,52.43,42.54,55.28-51,229.54,29.84,31.51,8.17,43.92,35.28,20.49,8.95,52.8-38.48,96-81.13,14.71-8.61,96.62,6.75,41.23,7.64,102.68,65,48.22,24.57,30.89,5,46.11,1.42,60-25.81s46.29-15.31,52.65-13.23c.72.23,8.49,2.6,9.2,2.84,5.9,2,28.79,8.64,48.12,16,2.74,1,5.84,3,9.49,4.83,14.39,7.23,27.89,13.2,38,19.12,15,8.76,29.31,17,33,27.13,5,7.79,34,59.44,53.61,83.41l3.11,4.65,4.72,17.71,4.92-23.79,29-96.79,6.07-18.44,63.09-39.71,59.7-22.85,55.06-14.72,57.1-13.33,30.91,14.44,72.55,52.6,21.6,5.71,118.66,17.7,8.62,6.42,71.69,71.69,74.3,33.77,10.28,7.1,32.51,86.7,5.78,43.57L3423,969.84l-22.3,35.14-3.48,7,42.63-14.69,19.79,173.83-1,12.82-156.2,99.15h-89.3l-38.65,52.16-96.3,78.31-154.39-39.92-20.13-7.76-54.33-53.28L2842.3,1343l-24.92,23-102.28,67.46-263,11.33L2323,1359l-11.43-9.36-53-90.47-12.28,13.9-6.69,13.94L2189,1331.94l-126.33,89.35-38.41-11.76-68-39.47-8.17-15.5-8.53-24.67-29.77,7-58.27,43.83-40.15,32.49-63.33,14.4-167.7,16.28-45.49-17.56-51.79-28.12-15.2-26.89-10.14-26.77-30.92,29.73-7.33,3.56L1340.88,1460,1274,1426.9l-21.55-20.25-52.19,1.11-13.62.53-63.76,16.83-39.43,10.64-58.25-15-67-28.82-15-26.27-13-38.13L907,1338.66l-13.12.5-59.44,28-67.61,24-51.6-12.32-22.41-9.61L647.62,1386l-21.75,14-50.9,9.91-37.57,2.89-10.34-14.55-24.49-67.62-18.46-16.48L361.47,1054.37,247.9,853.26ZM35.7,94.66v1793.5H3681.81V94.66Z"/><path class="cls-8" d="M420,596H535.16l34.45,3.35L675.55,731.06l22.89,21.65,44.22-45.65,23.17-18.87,109.86,42.19,46.95,13.32,45-21.65,41.7-20.6L1062,670.36l61.18-27.07,30,21.24L1233.35,731l4.17,14,12.8,32.23,14.92-43.42,14.1-18.6,69.3-83.83,90.61-16.06,25.33-2.14,53.9,43.73,54.44-50.17,228,29.65,32.12,6.21,43.63,35L1897,690.19l53.39-38.91,95.29-80.54,14.13-10,95.93,6.7,41.69,5.29,101.94,64.57,47,26.76L2377,669l46.16,4.43,59.59-25.63s48.87-18.71,52.05-17.67c.35.12,8.78,2.67,9.14,2.79,3.07,1,25.77,7.76,47.95,15.47,3.1,1.07,6.4,2.64,10,4.11,15.75,6.52,29.39,11.78,39.45,16.62,14.86,7.16,29,14,33.26,25.48,5.75,8.9,35,53.39,57.39,80.78l3.33,4.5,4.93,18.45,4.87-23.59,30.1-95.7,6-18.29,68.33-33.93,59.24-22.68,54.89-13.74,56.66-13.23,30,17.75,72,52.19,21.9,4.51,117.73,17.55,8.19,7.09,71.13,71.14,73.6,33.45,11,6.24,32.2,85.87,11.24,44-39,48.47-24.23,33.81-5.93,8.74,42.23-14.56L3462.56,1171l.36,13.73L3303.36,1286h-88.68l-38,51.28L3079,1416.77l-154.18-39.86-20.73-6.64-53-52-7.11,30.33-27.32,21.28L2716,1436.29l-264.71,11.4L2322.25,1362l-12-8.84-53-90.43L2245.22,1282l-6.68,13.92-53.49,42.42-126.28,89.31-38.64-17.15-68-39.46-7.08-16.4-8.52-24.66-32.16,13.42-57.51,44.88-40.13,32.48-64.94,10.43-167.62,16.27-44.82-20.76-51.76-28.11L1464.31,1370l-10.13-26.76-32,42.66-7.8,5.58-81.48,79.76L1266.74,1424l-21.34-20-53.28,7.23-13.9,2.18-63.1,16.83-39,10.53-57.34-19.64-66.33-28.54-12.6-28.08-12.91-37.75-24.71,18.06-14.18,3-60.56,24.94-67,23.78-50.94-16.94-22.2-9.51-44.29,22.38-21.54,13.87-51.37,7-37.2,2.86-8.65-16.87-24.21-66.87L481.75,1316,358.9,1055.7,244.5,853.12ZM17.85,47.33V1893.57H3687.69V47.33Z"/><path class="cls-9" d="M3444.81,989.53l22.3,196L3304.2,1288.92h-88.07l-37.35,50.41-99.13,80.6-175.3-45.32L2852.7,1324l-7.11,30.32L2717,1439.14l-266.45,11.47-141.54-94-53-90.4-18.51,38.56-182.66,129.18-106.79-62-14.5-41.93L1899,1349.8l-96.85,78.4L1568,1450.92l-95.88-52.06L1450.59,1342l-33.17,55.6-92.58,85-86.51-81.26-54.39,13.36-115.26,31.08L946.57,1393.2l-23-67.27-26.21,25-143.22,50.86-72.25-31-64.71,41.68-88.66,6.82L497.63,1334l-18.25-16.29L356.33,1057,241.1,853l177.41-259.9H568.3L695.65,751.43l65.87-68,155.56,59.73,86.09-41.45,113.16-66.8,115.87,82.13,16.6,55.71,14.79-43,83.5-101L1463,608.2l55.36,44.91L1572,603.72l259.28,33.71,63.38,50.91,54-39.33,108.15-91.41,137.38,9.59L2341,660.25l76.66,12.35L2528.28,625l9.08,2.74c.29.09,29.42,8.9,58.24,18.33,17.13,5.61,30.88,10.36,40.87,14.13,14.74,5.56,28.77,10.85,33.51,23.82,6.48,10,36,47.33,61.18,78.15l3.56,4.34,5.12,19.21,4.84-23.41,37.13-112.75L2914.15,599l110.94-25.91,100.47,72.84,139,20.73L3342.89,745l84.71,38.51L3476.19,913l-73.2,90.91ZM0,0V1899H3693.57V0Z"/></g></g></svg>