<?xml version="1.0" encoding="utf-8"?>
<!-- Generator: Adobe Illustrator 24.0.1, SVG Export Plug-In . SVG Version: 6.00 Build 0)  -->
<svg version="1.1" id="Layer_1" xmlns="http://www.w3.org/2000/svg" xmlns:xlink="http://www.w3.org/1999/xlink" x="0px" y="0px"
	 viewBox="0 0 2496.9 579.8" style="enable-background:new 0 0 2496.9 579.8;" xml:space="preserve">
<style type="text/css">
	.st0{fill:#996233;}
	.st1{fill:#491B02;}
	.st2{opacity:0.42;fill:#491B02;enable-background:new    ;}
	.st3{opacity:0.46;fill:#491B02;enable-background:new    ;}
	.st4{fill:#955F32;}
	.st5{fill:#915C31;}
	.st6{fill:#8E5A30;}
	.st7{fill:#8A572E;}
	.st8{fill:#86542D;}
	.st9{fill:#82512C;}
	.st10{fill:#532409;}
	.st11{fill:#5C2D10;}
	.st12{fill:#663617;}
	.st13{fill:#6F3F1E;}
	.st14{fill:#784825;}
	.st15{fill:#3A3A3A;}
	.st16{fill:#3F3F3F;}
	.st17{fill:#444444;}
	.st18{fill:#4A4A4A;}
	.st19{fill:#4F4F4F;}
	.st20{fill:#545454;}
	.st21{fill:#595959;}
	.st22{fill:#666666;}
	.st23{fill:#727272;}
	.st24{fill:#7F7F7F;}
	.st25{fill:#8C8C8C;}
	.st26{fill:#989898;}
	.st27{fill:#A5A5A5;}
	.st28{opacity:0.5;}
	.st29{fill:#D3D3D3;}
	.st30{fill:#CECECE;}
	.st31{fill:#C9C9C9;}
	.st32{fill:#C4C4C4;}
	.st33{fill:#BFBFBF;}
	.st34{fill:#BABABA;}
	.st35{fill:#B5B5B5;}
	.st36{fill:#CBCBCB;}
	.st37{fill:#BCBCBC;}
	.st38{fill:#B4B4B4;}
	.st39{fill:#ADADAD;}
	.st40{opacity:2.000000e-02;fill:#491B02;enable-background:new    ;}
	.st41{opacity:0.16;fill:#491B02;enable-background:new    ;}
	.st42{opacity:0.3;fill:#491B02;enable-background:new    ;}
	.st43{opacity:0.44;fill:#491B02;enable-background:new    ;}
	.st44{opacity:0.58;fill:#491B02;enable-background:new    ;}
	.st45{opacity:0.72;fill:#491B02;enable-background:new    ;}
	.st46{opacity:0.86;fill:#491B02;enable-background:new    ;}
	.st47{opacity:8.000000e-02;fill:#491B02;enable-background:new    ;}
	.st48{opacity:0.15;fill:#491B02;enable-background:new    ;}
	.st49{opacity:0.21;fill:#491B02;enable-background:new    ;}
	.st50{opacity:0.27;fill:#491B02;enable-background:new    ;}
	.st51{opacity:0.33;fill:#491B02;enable-background:new    ;}
	.st52{opacity:0.4;fill:#491B02;enable-background:new    ;}
</style>
<title>Postes</title>
<rect x="2266.7" y="491.5" class="st0" width="88.3" height="88.3"/>
<rect x="2274.2" y="499" class="st1" width="73.3" height="73.3"/>
<rect x="2274.2" y="499" class="st0" width="68.4" height="73.3"/>
<polygon class="st1" points="2347.4,559.9 2286.3,498.7 2274.2,498.7 2274.2,511.8 2335,572.6 2347.4,572.6 "/>
<polygon class="st0" points="2347.4,559.9 2286.3,498.7 2274.2,498.7 2274.2,506.7 2341.3,572.6 2347.4,572.6 "/>
<polygon class="st0" points="2274.2,559.9 2335.4,498.7 2347.4,498.7 2347.4,506.7 2280.4,572.6 2274.2,572.6 "/>
<polygon class="st1" points="2295.3,532.9 2274.4,553.8 2274.2,559.9 2298.2,535.8 "/>
<polygon class="st1" points="2329.5,498.7 2307.9,520.3 2310.8,523.3 2335.4,498.7 "/>
<polygon class="st2" points="2274.4,553.8 2295.3,532.9 2274.2,511.8 "/>
<polygon class="st2" points="2342.6,555 2342.6,511.5 2320.3,532.8 "/>
<polygon class="st2" points="2335.4,498.7 2310.8,523.3 2286.3,498.7 "/>
<polygon class="st2" points="2335,572.6 2307.9,545.5 2280.4,572.6 "/>
<polygon class="st1" points="2310.8,542.7 2301,533.1 2300.4,533.7 2310.1,543.4 "/>
<polygon class="st2" points="2320.3,532.8 2310.8,523.3 2311.4,522.7 2321,532.2 "/>
<rect x="2238.7" y="491.5" class="st0" width="27.9" height="88.3"/>
<rect x="2242.6" y="499" class="st0" width="21.7" height="73.3"/>
<polygon class="st1" points="2241.1,559.9 2260.5,498.7 2264.3,498.7 2264.3,511.8 2245,572.6 2241.1,572.6 "/>
<polygon class="st0" points="2241.1,559.9 2260.5,498.7 2264.3,498.7 2264.3,506.7 2243.1,572.6 2241.1,572.6 "/>
<polygon class="st0" points="2264.3,559.9 2244.9,498.7 2241.1,498.7 2241.1,506.7 2262.4,572.6 2264.3,572.6 "/>
<polygon class="st1" points="2257.6,532.9 2264.3,553.8 2264.3,559.9 2256.7,535.8 "/>
<polygon class="st1" points="2246.8,498.7 2253.6,520.3 2252.7,523.3 2244.9,498.7 "/>
<polygon class="st2" points="2264.3,553.8 2257.6,532.9 2264.3,511.8 "/>
<polygon class="st2" points="2242.6,555 2242.6,511.5 2249.7,532.8 "/>
<polygon class="st2" points="2244.9,498.7 2252.7,523.3 2260.5,498.7 "/>
<polygon class="st2" points="2245,572.6 2253.6,545.5 2262.4,572.6 "/>
<polygon class="st1" points="2252.7,542.7 2255.8,533.1 2256,533.7 2252.9,543.4 "/>
<polygon class="st2" points="2249.7,532.8 2252.7,523.3 2252.5,522.7 2249.5,532.2 "/>
<polygon class="st1" points="2244.4,549.5 2244.4,516.9 2242.6,511.5 2242.6,555 "/>
<rect x="2238.7" y="491.5" class="st3" width="27.9" height="88.3"/>
<rect x="2238.7" y="491.5" class="st3" width="116.2" height="88.3"/>
<rect x="2178.4" y="491.5" class="st0" width="88.3" height="88.3"/>
<rect x="2185.9" y="499" class="st1" width="73.3" height="73.3"/>
<rect x="2185.9" y="499" class="st0" width="68.4" height="73.3"/>
<polygon class="st1" points="2259.2,559.9 2198,498.7 2185.9,498.7 2185.9,511.8 2246.8,572.6 2259.2,572.6 "/>
<polygon class="st0" points="2259.2,559.9 2198,498.7 2185.9,498.7 2185.9,506.7 2253,572.6 2259.2,572.6 "/>
<polygon class="st0" points="2185.9,559.9 2247.1,498.7 2259.2,498.7 2259.2,506.7 2192.1,572.6 2185.9,572.6 "/>
<polygon class="st1" points="2207,532.9 2186.1,553.8 2185.9,559.9 2210,535.8 "/>
<polygon class="st1" points="2241.2,498.7 2219.6,520.3 2222.6,523.3 2247.1,498.7 "/>
<polygon class="st2" points="2186.1,553.8 2207,532.9 2185.9,511.8 "/>
<polygon class="st2" points="2254.3,555 2254.3,511.5 2232.1,532.8 "/>
<polygon class="st2" points="2247.1,498.7 2222.6,523.3 2198,498.7 "/>
<polygon class="st2" points="2246.8,572.6 2219.7,545.5 2192.1,572.6 "/>
<polygon class="st1" points="2222.6,542.7 2212.8,533.1 2212.1,533.7 2221.9,543.4 "/>
<polygon class="st2" points="2232.1,532.8 2222.6,523.3 2223.2,522.7 2232.7,532.2 "/>
<rect x="2150.5" y="491.5" class="st0" width="27.9" height="88.3"/>
<rect x="2154.4" y="499" class="st0" width="21.7" height="73.3"/>
<polygon class="st1" points="2152.9,559.9 2172.2,498.7 2176,498.7 2176,511.8 2156.8,572.6 2152.9,572.6 "/>
<polygon class="st0" points="2152.9,559.9 2172.2,498.7 2176,498.7 2176,506.7 2154.8,572.6 2152.9,572.6 "/>
<polygon class="st0" points="2176,559.9 2156.7,498.7 2152.9,498.7 2152.9,506.7 2174.1,572.6 2176,572.6 "/>
<polygon class="st1" points="2169.4,532.9 2176,553.8 2176,559.9 2168.4,535.8 "/>
<polygon class="st1" points="2158.5,498.7 2165.4,520.3 2164.4,523.3 2156.7,498.7 "/>
<polygon class="st2" points="2176,553.8 2169.4,532.9 2176,511.8 "/>
<polygon class="st2" points="2154.4,555 2154.4,511.5 2161.4,532.8 "/>
<polygon class="st2" points="2156.7,498.7 2164.4,523.3 2172.2,498.7 "/>
<polygon class="st2" points="2156.8,572.6 2165.4,545.5 2174.1,572.6 "/>
<polygon class="st1" points="2164.4,542.7 2167.6,533.1 2167.7,533.7 2164.7,543.4 "/>
<polygon class="st2" points="2161.4,532.8 2164.4,523.3 2164.3,522.7 2161.2,532.2 "/>
<polygon class="st1" points="2156.1,549.5 2156.1,516.9 2154.4,511.5 2154.4,555 "/>
<rect x="2150.5" y="491.5" class="st3" width="27.9" height="88.3"/>
<rect x="2150.5" y="491.5" class="st3" width="116.2" height="88.3"/>
<rect x="2266.7" y="403.2" class="st0" width="88.3" height="88.3"/>
<rect x="2274.2" y="410.7" class="st1" width="73.3" height="73.3"/>
<rect x="2274.2" y="410.7" class="st0" width="68.4" height="73.3"/>
<polygon class="st1" points="2347.4,471.6 2286.3,410.4 2274.2,410.4 2274.2,423.5 2335,484.4 2347.4,484.4 "/>
<polygon class="st0" points="2347.4,471.6 2286.3,410.4 2274.2,410.4 2274.2,418.5 2341.3,484.4 2347.4,484.4 "/>
<polygon class="st0" points="2274.2,471.6 2335.4,410.4 2347.4,410.4 2347.4,418.5 2280.4,484.4 2274.2,484.4 "/>
<polygon class="st1" points="2295.3,444.6 2274.4,465.5 2274.2,471.6 2298.2,447.6 "/>
<polygon class="st1" points="2329.5,410.4 2307.9,432 2310.8,435 2335.4,410.4 "/>
<polygon class="st2" points="2274.4,465.5 2295.3,444.6 2274.2,423.5 "/>
<polygon class="st2" points="2342.6,466.8 2342.6,423.2 2320.3,444.5 "/>
<polygon class="st2" points="2335.4,410.4 2310.8,435 2286.3,410.4 "/>
<polygon class="st2" points="2335,484.4 2307.9,457.3 2280.4,484.4 "/>
<polygon class="st1" points="2310.8,454.4 2301,444.8 2300.4,445.4 2310.1,455.1 "/>
<polygon class="st2" points="2320.3,444.5 2310.8,435 2311.4,434.4 2321,443.9 "/>
<rect x="2238.7" y="403.2" class="st0" width="27.9" height="88.3"/>
<rect x="2242.6" y="410.7" class="st0" width="21.7" height="73.3"/>
<polygon class="st1" points="2241.1,471.6 2260.5,410.4 2264.3,410.4 2264.3,423.5 2245,484.4 2241.1,484.4 "/>
<polygon class="st0" points="2241.1,471.6 2260.5,410.4 2264.3,410.4 2264.3,418.5 2243.1,484.4 2241.1,484.4 "/>
<polygon class="st0" points="2264.3,471.6 2244.9,410.4 2241.1,410.4 2241.1,418.5 2262.4,484.4 2264.3,484.4 "/>
<polygon class="st1" points="2257.6,444.6 2264.3,465.5 2264.3,471.6 2256.7,447.6 "/>
<polygon class="st1" points="2246.8,410.4 2253.6,432 2252.7,435 2244.9,410.4 "/>
<polygon class="st2" points="2264.3,465.5 2257.6,444.6 2264.3,423.5 "/>
<polygon class="st2" points="2242.6,466.8 2242.6,423.2 2249.7,444.5 "/>
<polygon class="st2" points="2244.9,410.4 2252.7,435 2260.5,410.4 "/>
<polygon class="st2" points="2245,484.4 2253.6,457.3 2262.4,484.4 "/>
<polygon class="st1" points="2252.7,454.4 2255.8,444.8 2256,445.4 2252.9,455.1 "/>
<polygon class="st2" points="2249.7,444.5 2252.7,435 2252.5,434.4 2249.5,443.9 "/>
<polygon class="st1" points="2244.4,461.2 2244.4,428.7 2242.6,423.2 2242.6,466.8 "/>
<rect x="2238.7" y="403.2" class="st3" width="27.9" height="88.3"/>
<rect x="2238.7" y="403.2" class="st3" width="116.2" height="88.3"/>
<rect x="2178.4" y="403.2" class="st0" width="88.3" height="88.3"/>
<rect x="2185.9" y="410.7" class="st1" width="73.3" height="73.3"/>
<rect x="2185.9" y="410.7" class="st0" width="68.4" height="73.3"/>
<polygon class="st1" points="2259.2,471.6 2198,410.4 2185.9,410.4 2185.9,423.5 2246.8,484.4 2259.2,484.4 "/>
<polygon class="st0" points="2259.2,471.6 2198,410.4 2185.9,410.4 2185.9,418.5 2253,484.4 2259.2,484.4 "/>
<polygon class="st0" points="2185.9,471.6 2247.1,410.4 2259.2,410.4 2259.2,418.5 2192.1,484.4 2185.9,484.4 "/>
<polygon class="st1" points="2207,444.6 2186.1,465.5 2185.9,471.6 2210,447.6 "/>
<polygon class="st1" points="2241.2,410.4 2219.6,432 2222.6,435 2247.1,410.4 "/>
<polygon class="st2" points="2186.1,465.5 2207,444.6 2185.9,423.5 "/>
<polygon class="st2" points="2254.3,466.8 2254.3,423.2 2232.1,444.5 "/>
<polygon class="st2" points="2247.1,410.4 2222.6,435 2198,410.4 "/>
<polygon class="st2" points="2246.8,484.4 2219.7,457.3 2192.1,484.4 "/>
<polygon class="st1" points="2222.6,454.4 2212.8,444.8 2212.1,445.4 2221.9,455.1 "/>
<polygon class="st2" points="2232.1,444.5 2222.6,435 2223.2,434.4 2232.7,443.9 "/>
<rect x="2150.5" y="403.2" class="st0" width="27.9" height="88.3"/>
<rect x="2154.4" y="410.7" class="st0" width="21.7" height="73.3"/>
<polygon class="st1" points="2152.9,471.6 2172.2,410.4 2176,410.4 2176,423.5 2156.8,484.4 2152.9,484.4 "/>
<polygon class="st0" points="2152.9,471.6 2172.2,410.4 2176,410.4 2176,418.5 2154.8,484.4 2152.9,484.4 "/>
<polygon class="st0" points="2176,471.6 2156.7,410.4 2152.9,410.4 2152.9,418.5 2174.1,484.4 2176,484.4 "/>
<polygon class="st1" points="2169.4,444.6 2176,465.5 2176,471.6 2168.4,447.6 "/>
<polygon class="st1" points="2158.5,410.4 2165.4,432 2164.4,435 2156.7,410.4 "/>
<polygon class="st2" points="2176,465.5 2169.4,444.6 2176,423.5 "/>
<polygon class="st2" points="2154.4,466.8 2154.4,423.2 2161.4,444.5 "/>
<polygon class="st2" points="2156.7,410.4 2164.4,435 2172.2,410.4 "/>
<polygon class="st2" points="2156.8,484.4 2165.4,457.3 2174.1,484.4 "/>
<polygon class="st1" points="2164.4,454.4 2167.6,444.8 2167.7,445.4 2164.7,455.1 "/>
<polygon class="st2" points="2161.4,444.5 2164.4,435 2164.3,434.4 2161.2,443.9 "/>
<polygon class="st1" points="2156.1,461.2 2156.1,428.7 2154.4,423.2 2154.4,466.8 "/>
<rect x="2150.5" y="403.2" class="st3" width="27.9" height="88.3"/>
<rect x="2150.5" y="403.2" class="st3" width="116.2" height="88.3"/>
<path class="st0" d="M2162.3,579.8c31.8-13.8,54.7-52.6,66.9-122c9-51,9-98.8,9-99.3h-7.4c0,1.9-0.7,183.8-71.4,214.4L2162.3,579.8z
	"/>
<path class="st4" d="M2162.3,579.8c31.8-13.8,54.7-52.6,66.9-122c9-51,9-98.8,9-99.3h-7.4c0,1.9,1.5,183.2-70.9,214.4L2162.3,579.8z
	"/>
<path class="st5" d="M2162.3,579.8c31.8-13.8,54.7-52.6,66.9-122c9-51,9-98.8,9-99.3h-7.4c0,1.9,3.8,182.7-70.3,214.4L2162.3,579.8z
	"/>
<path class="st6" d="M2162.3,579.8c31.8-13.8,54.7-52.6,66.9-122c9-51,9-98.8,9-99.3h-7.4c0,1.9,6,182.1-69.8,214.4L2162.3,579.8z"
	/>
<path class="st7" d="M2162.3,579.8c31.8-13.8,54.7-52.6,66.9-122c9-51,9-98.8,9-99.3h-7.4c0,1.9,8.2,181.5-69.2,214.4L2162.3,579.8z
	"/>
<path class="st8" d="M2162.3,579.8c31.8-13.8,54.7-52.6,66.9-122c9-51,9-98.8,9-99.3h-7.4c0,1.9,10.4,181-68.7,214.4L2162.3,579.8z"
	/>
<path class="st9" d="M2162.3,579.8c31.8-13.8,54.7-52.6,66.9-122c9-51,9-98.8,9-99.3h-7.4c0,1.9,12.6,180.4-68.1,214.4L2162.3,579.8
	z"/>
<polygon class="st0" points="2093.7,579.8 2162.7,579.8 2162.7,573 2093.7,575.2 "/>
<polygon class="st0" points="2101.4,573 2162.7,573 2162.7,566.3 2101.4,568.4 "/>
<polygon class="st0" points="2106.2,566.3 2157.7,566.3 2157.7,559.5 2106.2,561.7 "/>
<rect x="2352.4" y="469.2" class="st0" width="110.6" height="110.6"/>
<rect x="2361.8" y="478.6" class="st1" width="91.8" height="91.8"/>
<rect x="2361.8" y="478.6" class="st0" width="85.7" height="91.8"/>
<polygon class="st1" points="2453.6,554.9 2376.9,478.2 2361.8,478.2 2361.8,494.6 2438,570.8 2453.6,570.8 "/>
<polygon class="st0" points="2453.6,554.9 2376.9,478.2 2361.8,478.2 2361.8,488.3 2445.8,570.8 2453.6,570.8 "/>
<polygon class="st0" points="2361.8,554.9 2438.4,478.2 2453.6,478.2 2453.6,488.3 2369.5,570.8 2361.8,570.8 "/>
<polygon class="st1" points="2388.2,521 2362,547.2 2361.8,554.9 2391.9,524.8 "/>
<polygon class="st1" points="2431,478.2 2403.9,505.3 2407.6,509 2438.4,478.2 "/>
<polygon class="st2" points="2362,547.2 2388.2,521 2361.8,494.6 "/>
<polygon class="st2" points="2447.5,548.8 2447.5,494.2 2419.6,520.9 "/>
<polygon class="st2" points="2438.4,478.2 2407.6,509 2376.9,478.2 "/>
<polygon class="st2" points="2438,570.8 2404,536.9 2369.5,570.8 "/>
<polygon class="st1" points="2407.6,533.4 2395.4,521.3 2394.6,522 2406.8,534.2 "/>
<polygon class="st2" points="2419.6,520.9 2407.6,509 2408.4,508.2 2420.4,520.2 "/>
<rect x="2317.3" y="469.2" class="st0" width="35" height="110.6"/>
<rect x="2322.2" y="478.6" class="st0" width="27.1" height="91.8"/>
<polygon class="st1" points="2320.3,554.9 2344.6,478.2 2349.4,478.2 2349.4,494.6 2325.2,570.8 2320.3,570.8 "/>
<polygon class="st0" points="2320.3,554.9 2344.6,478.2 2349.4,478.2 2349.4,488.3 2322.8,570.8 2320.3,570.8 "/>
<polygon class="st0" points="2349.4,554.9 2325.1,478.2 2320.3,478.2 2320.3,488.3 2346.9,570.8 2349.4,570.8 "/>
<polygon class="st1" points="2341,521 2349.3,547.2 2349.4,554.9 2339.8,524.8 "/>
<polygon class="st1" points="2327.4,478.2 2336,505.3 2334.8,509 2325.1,478.2 "/>
<polygon class="st2" points="2349.3,547.2 2341,521 2349.4,494.6 "/>
<polygon class="st2" points="2322.2,548.8 2322.2,494.2 2331.1,520.9 "/>
<polygon class="st2" points="2325.1,478.2 2334.8,509 2344.6,478.2 "/>
<polygon class="st2" points="2325.2,570.8 2336,536.9 2346.9,570.8 "/>
<polygon class="st1" points="2334.8,533.4 2338.7,521.3 2339,522 2335.1,534.2 "/>
<polygon class="st2" points="2331.1,520.9 2334.8,509 2334.6,508.2 2330.8,520.2 "/>
<polygon class="st1" points="2324.4,541.8 2324.4,501.1 2322.2,494.2 2322.2,548.8 "/>
<rect x="2317.3" y="469.2" class="st3" width="35" height="110.6"/>
<rect x="2268.3" y="358.6" class="st0" width="110.6" height="110.6"/>
<rect x="2277.7" y="368" class="st1" width="91.8" height="91.8"/>
<rect x="2277.7" y="368" class="st0" width="85.7" height="91.8"/>
<polygon class="st1" points="2369.5,444.3 2292.8,367.6 2277.7,367.6 2277.7,384 2353.9,460.2 2369.5,460.2 "/>
<polygon class="st0" points="2369.5,444.3 2292.8,367.6 2277.7,367.6 2277.7,377.6 2361.7,460.2 2369.5,460.2 "/>
<polygon class="st0" points="2277.7,444.3 2354.4,367.6 2369.5,367.6 2369.5,377.6 2285.4,460.2 2277.7,460.2 "/>
<polygon class="st1" points="2304.1,410.4 2277.9,436.6 2277.7,444.3 2307.8,414.1 "/>
<polygon class="st1" points="2346.9,367.6 2319.9,394.7 2323.6,398.4 2354.4,367.6 "/>
<polygon class="st2" points="2277.9,436.6 2304.1,410.4 2277.7,384 "/>
<polygon class="st2" points="2363.4,438.2 2363.4,383.6 2335.5,410.3 "/>
<polygon class="st2" points="2354.4,367.6 2323.6,398.4 2292.8,367.6 "/>
<polygon class="st2" points="2353.9,460.2 2319.9,426.3 2285.4,460.2 "/>
<polygon class="st1" points="2323.6,422.7 2311.3,410.7 2310.5,411.4 2322.7,423.6 "/>
<polygon class="st2" points="2335.5,410.3 2323.6,398.4 2324.3,397.6 2336.3,409.6 "/>
<rect x="2233.2" y="358.6" class="st0" width="35" height="110.6"/>
<rect x="2238.1" y="368" class="st0" width="27.1" height="91.8"/>
<polygon class="st1" points="2236.2,444.3 2260.5,367.6 2265.3,367.6 2265.3,384 2241.1,460.2 2236.2,460.2 "/>
<polygon class="st0" points="2236.2,444.3 2260.5,367.6 2265.3,367.6 2265.3,377.6 2238.7,460.2 2236.2,460.2 "/>
<polygon class="st0" points="2265.3,444.3 2241,367.6 2236.2,367.6 2236.2,377.6 2262.8,460.2 2265.3,460.2 "/>
<polygon class="st1" points="2256.9,410.4 2265.2,436.6 2265.3,444.3 2255.7,414.1 "/>
<polygon class="st1" points="2243.4,367.6 2251.9,394.7 2250.8,398.4 2241,367.6 "/>
<polygon class="st2" points="2265.2,436.6 2256.9,410.4 2265.3,384 "/>
<polygon class="st2" points="2238.1,438.2 2238.1,383.6 2247,410.3 "/>
<polygon class="st2" points="2241,367.6 2250.8,398.4 2260.5,367.6 "/>
<polygon class="st2" points="2241.1,460.2 2251.9,426.3 2262.8,460.2 "/>
<polygon class="st1" points="2250.8,422.7 2254.6,410.7 2254.9,411.4 2251,423.6 "/>
<polygon class="st2" points="2247,410.3 2250.8,398.4 2250.5,397.6 2246.7,409.6 "/>
<polygon class="st1" points="2240.4,431.2 2240.4,390.5 2238.1,383.6 2238.1,438.2 "/>
<rect x="2233.2" y="358.6" class="st3" width="35" height="110.6"/>
<rect x="2241.7" y="469.2" class="st0" width="110.6" height="110.6"/>
<rect x="2251.1" y="478.6" class="st1" width="91.8" height="91.8"/>
<rect x="2251.1" y="478.6" class="st0" width="85.7" height="91.8"/>
<polygon class="st1" points="2342.9,554.9 2266.3,478.2 2251.1,478.2 2251.1,494.6 2327.4,570.8 2342.9,570.8 "/>
<polygon class="st0" points="2342.9,554.9 2266.3,478.2 2251.1,478.2 2251.1,488.3 2335.2,570.8 2342.9,570.8 "/>
<polygon class="st0" points="2251.1,554.9 2327.8,478.2 2342.9,478.2 2342.9,488.3 2258.9,570.8 2251.1,570.8 "/>
<polygon class="st1" points="2277.6,521 2251.4,547.2 2251.1,554.9 2281.3,524.8 "/>
<polygon class="st1" points="2320.4,478.2 2293.3,505.3 2297,509 2327.8,478.2 "/>
<polygon class="st2" points="2251.4,547.2 2277.6,521 2251.1,494.6 "/>
<polygon class="st2" points="2336.9,548.8 2336.9,494.2 2309,520.9 "/>
<polygon class="st2" points="2327.8,478.2 2297,509 2266.3,478.2 "/>
<polygon class="st2" points="2327.4,570.8 2293.4,536.9 2258.9,570.8 "/>
<polygon class="st1" points="2297,533.4 2284.8,521.3 2284,522 2296.2,534.2 "/>
<polygon class="st2" points="2309,520.9 2297,509 2297.8,508.2 2309.8,520.2 "/>
<rect x="2206.7" y="469.2" class="st0" width="35" height="110.6"/>
<rect x="2211.6" y="478.6" class="st0" width="27.1" height="91.8"/>
<polygon class="st1" points="2209.7,554.9 2234,478.2 2238.8,478.2 2238.8,494.6 2214.6,570.8 2209.7,570.8 "/>
<polygon class="st0" points="2209.7,554.9 2234,478.2 2238.8,478.2 2238.8,488.3 2212.1,570.8 2209.7,570.8 "/>
<polygon class="st0" points="2238.8,554.9 2214.5,478.2 2209.7,478.2 2209.7,488.3 2236.3,570.8 2238.8,570.8 "/>
<polygon class="st1" points="2230.4,521 2238.7,547.2 2238.8,554.9 2229.2,524.8 "/>
<polygon class="st1" points="2216.8,478.2 2225.4,505.3 2224.2,509 2214.5,478.2 "/>
<polygon class="st2" points="2238.7,547.2 2230.4,521 2238.8,494.6 "/>
<polygon class="st2" points="2211.6,548.8 2211.6,494.2 2220.4,520.9 "/>
<polygon class="st2" points="2214.5,478.2 2224.2,509 2234,478.2 "/>
<polygon class="st2" points="2214.6,570.8 2225.4,536.9 2236.3,570.8 "/>
<polygon class="st1" points="2224.2,533.4 2228.1,521.3 2228.4,522 2224.5,534.2 "/>
<polygon class="st2" points="2220.4,520.9 2224.2,509 2224,508.2 2220.2,520.2 "/>
<polygon class="st1" points="2213.8,541.8 2213.8,501.1 2211.6,494.2 2211.6,548.8 "/>
<rect x="2206.7" y="469.2" class="st3" width="35" height="110.6"/>
<rect x="2092.1" y="573" class="st0" width="70.5" height="6.7"/>
<polygon class="st4" points="2092.4,573.4 2092.4,579.8 2162.7,579.8 2162.7,573 "/>
<polygon class="st5" points="2092.6,573.7 2092.6,579.8 2162.7,579.8 2162.7,573 "/>
<polygon class="st6" points="2092.9,574.1 2092.9,579.8 2162.7,579.8 2162.7,573 "/>
<polygon class="st7" points="2093.2,574.5 2093.2,579.8 2162.7,579.8 2162.7,573 "/>
<polygon class="st8" points="2093.4,574.8 2093.4,579.8 2162.7,579.8 2162.7,573 "/>
<polygon class="st9" points="2093.7,579.8 2162.7,579.8 2162.7,573 2093.7,575.2 "/>
<rect x="2100" y="566.3" class="st0" width="62.6" height="6.7"/>
<polygon class="st4" points="2100.3,566.6 2100.3,573 2162.7,573 2162.7,566.3 "/>
<polygon class="st5" points="2100.5,567 2100.5,573 2162.7,573 2162.7,566.3 "/>
<polygon class="st6" points="2100.7,567.3 2100.7,573 2162.7,573 2162.7,566.3 "/>
<polygon class="st7" points="2100.9,567.7 2100.9,573 2162.7,573 2162.7,566.3 "/>
<polygon class="st8" points="2101.2,568.1 2101.2,573 2162.7,573 2162.7,566.3 "/>
<polygon class="st9" points="2101.4,573 2162.7,573 2162.7,566.3 2101.4,568.4 "/>
<rect x="2105" y="559.5" class="st0" width="52.7" height="6.7"/>
<polygon class="st4" points="2105.2,566.3 2157.7,566.3 2157.7,559.5 2105.2,559.9 "/>
<polygon class="st5" points="2105.4,566.3 2157.7,566.3 2157.7,559.5 2105.4,560.2 "/>
<polygon class="st6" points="2105.6,566.3 2157.7,566.3 2157.7,559.5 2105.6,560.6 "/>
<polygon class="st7" points="2105.8,566.3 2157.7,566.3 2157.7,559.5 2105.8,561 "/>
<polygon class="st8" points="2106,566.3 2157.7,566.3 2157.7,559.5 2106,561.3 "/>
<polygon class="st9" points="2106.2,566.3 2157.7,566.3 2157.7,559.5 2106.2,561.7 "/>
<polygon class="st1" points="2295.5,24.4 2312.3,24.4 2373.3,579.8 2356.5,579.8 "/>
<polygon class="st10" points="2296.9,24.4 2312.3,24.4 2373.3,579.8 2357.9,579.8 "/>
<polygon class="st11" points="2298.3,24.4 2312.3,24.4 2373.3,579.8 2359.3,579.8 "/>
<polygon class="st12" points="2299.7,24.4 2312.3,24.4 2373.3,579.8 2360.7,579.8 "/>
<polygon class="st13" points="2301.1,24.4 2312.3,24.4 2373.3,579.8 2362.1,579.8 "/>
<polygon class="st14" points="2302.5,24.4 2312.3,24.4 2373.3,579.8 2363.5,579.8 "/>
<polygon class="st9" points="2303.9,24.4 2312.3,24.4 2373.3,579.8 2364.9,579.8 "/>
<polygon class="st15" points="480.3,427.7 466.9,442.2 461.9,451.3 458.4,472.9 463.1,469.8 477.9,463.6 490.1,452.7 491.3,440.6 
	483.1,436.2 "/>
<polygon class="st16" points="488.2,452.2 489.4,440.1 482.2,435.7 480.3,427.7 466.9,442.2 461.9,451.3 458.4,472.9 463.1,469.8 
	476,463.1 "/>
<polygon class="st17" points="486.3,451.8 487.5,439.7 481.2,435.2 480.3,427.7 466.9,442.2 461.9,451.3 458.4,472.9 463.1,469.8 
	474,462.7 "/>
<polygon class="st18" points="484.4,451.3 485.5,439.2 480.3,434.7 480.3,427.7 466.9,442.2 461.9,451.3 458.4,472.9 463.1,469.8 
	472.1,462.2 "/>
<polygon class="st19" points="482.5,450.9 483.6,438.8 479.3,434.2 480.3,427.7 466.9,442.2 461.9,451.3 458.4,472.9 463.1,469.8 
	470.2,461.8 "/>
<polygon class="st20" points="480.6,450.4 481.7,438.3 478.4,433.6 480.3,427.7 466.9,442.2 461.9,451.3 458.4,472.9 463.1,469.8 
	468.3,461.4 "/>
<polygon class="st21" points="480.3,427.7 466.9,442.2 461.9,451.3 458.4,472.9 463.1,469.8 466.4,460.9 478.7,450 479.8,437.9 
	477.4,433.1 "/>
<path class="st21" d="M466.8,471.5c0,0,25.1,8.5,33.3-10s-17.7-29.4-17.7-29.4l-0.2,2.6l8.2,15.5l-3.6,2.4l-14.8,10.2l-7.5,6.1
	L466.8,471.5z"/>
<path class="st22" d="M469,470c0,0,23.7,8.3,31.1-8.5c8.2-18.5-17.7-29.4-17.7-29.4l-0.2,2.6l8.2,15.5l-3.6,2.4l-13.8,9.6l-7.3,5.8
	L469,470z"/>
<path class="st23" d="M471.1,468.6c0,0,22.2,8.1,28.9-7.1c8.2-18.5-17.7-29.4-17.7-29.4l-0.2,2.6l8.2,15.5l-3.6,2.4l-12.9,8.9
	l-7,5.4L471.1,468.6z"/>
<path class="st24" d="M473.3,467.2c0,0,20.7,7.8,26.7-5.7c8.3-18.5-17.7-29.4-17.7-29.4l-0.2,2.6l8.2,15.5l-3.6,2.4l-11.9,8.2
	l-6.7,5.1L473.3,467.2z"/>
<path class="st25" d="M475.5,465.8c0,0,19.2,7.6,24.5-4.3c8.3-18.5-17.7-29.4-17.7-29.4l-0.2,2.6l8.2,15.5l-3.6,2.4l-10.9,7.5
	l-6.5,4.8L475.5,465.8z"/>
<path class="st26" d="M477.7,464.3c0,0,17.8,7.3,22.3-2.8c8.3-18.5-17.7-29.4-17.7-29.4l-0.2,2.6l8.2,15.5l-3.6,2.4l-9.9,6.8
	l-6.2,4.4L477.7,464.3z"/>
<path class="st27" d="M479.9,462.9c0,0,16.3,7.1,20.1-1.4c8.4-18.4-17.7-29.4-17.7-29.4l-0.2,2.6l8.2,15.5l-3.6,2.4l-8.9,6.2
	l-5.9,4.1L479.9,462.9z"/>
<g class="st28">
	<path class="st29" d="M469.4,468.5c0,0,26.8,1.5,30.7-7c8.4-18.4-17.7-29.4-17.7-29.4l-0.2,2.6l11,17.4l-6.3,0.5L472,462.9
		l-4.1,3.3L469.4,468.5z"/>
	<path class="st30" d="M482.3,432.6l1.5,4.8l8.2,14.9l-7.7,2.1l-13,9.1l-3.2,3.1c0,0,5.7,2.2,6.4,0.8s19.8-3,23-10.1
		C504.5,441.8,482.3,432.6,482.3,432.6z"/>
	<path class="st31" d="M482.3,433l3.3,7l5.5,12.3l-9.2,3.7l-11.3,7.9l-2.2,3c0,0,10,2.1,11.2-0.8c1.4-3.1,12.8-7.6,15.4-13.3
		C500.6,440.6,482.3,433,482.3,433z"/>
	<path class="st32" d="M482.2,433.4l5,9.2l2.7,9.8l-10.6,5.4l-9.5,6.8l-1.3,2.8c0,0,14.2,1.9,16.1-2.3c2.1-4.7,5.8-12.1,7.8-16.4
		C496.7,439.4,482.2,433.4,482.2,433.4z"/>
	<path class="st33" d="M482.2,433.9l6.7,11.4v7.2l-12,7l-7.7,5.6l-0.4,2.7c0,0,18.4,1.8,21-3.9c2.8-6.2-1.2-16.7,0.1-19.5
		C492.7,438.2,482.2,433.9,482.2,433.9z"/>
	<path class="st34" d="M482.2,434.3l8.4,13.6l-2.7,4.6l-13.4,8.6l-5.9,4.5l0.6,2.5c0,0,22.6,1.6,25.8-5.4c3.5-7.8-8.1-21.2-7.5-22.6
		C488.8,437,482.2,434.3,482.2,434.3z"/>
	<path class="st35" d="M469.4,468.5c0,0,26.8,1.5,30.7-7c4.3-9.4-15.1-25.8-15.1-25.8l-2.8-1l10.1,15.8l-5.5,2.1l-14.8,10.2
		l-4.1,3.3L469.4,468.5z"/>
</g>
<path class="st29" d="M489.2,450.3l1.9-0.6c0,0,18.8,4.2,15.4,15.9c-2,6.7-7.3,9.8-17.4,6.3c0,0,3.4-1.7,8.6-6.7
	c1.5-1.4,2-3.6,1.2-5.5C497.9,457.4,495.4,454.1,489.2,450.3z"/>
<path class="st36" d="M506.1,465.8c-2.1,6.1-7.1,9.7-17.1,6.1c0,0,3.4-1.7,8.6-6.7c1.5-1.4,2-3.6,1.2-5.5c-1-2.3-3.5-5.6-9.7-9.3
	l1.9-0.5h0.1c1.1,0.3,12.4,3.6,15,10.3C506.9,462,506.8,464,506.1,465.8z"/>
<path class="st32" d="M505.8,466.1c-2.2,5.6-6.8,9.6-16.7,5.9c0,0,3.4-1.7,8.6-6.7c1.5-1.4,2-3.6,1.2-5.5c-1-2.3-3.5-5.6-9.7-9.3
	l1.9-0.3h0.2c0.9,0.2,12.2,4.1,14.8,10.4C506.6,462.3,506.6,464.3,505.8,466.1z"/>
<path class="st37" d="M505.4,466.3c-2.3,5-6.6,9.5-16.4,5.6c0,0,3.4-1.7,8.6-6.7c1.5-1.4,2-3.6,1.2-5.5c-1-2.3-3.5-5.6-9.7-9.3
	l1.9-0.1h0.2c0.7,0.2,12,4.5,14.6,10.6C506.4,462.7,506.3,464.6,505.4,466.3z"/>
<path class="st38" d="M505,466.5c-2.4,4.4-6.4,9.4-16,5.4c0,0,3.4-1.7,8.6-6.7c1.5-1.4,2-3.6,1.2-5.5c-1-2.3-3.5-5.6-9.7-9.3
	l1.9,0.1h0.2c0.5,0.1,11.8,4.9,14.4,10.7C506.2,463,506,464.9,505,466.5z"/>
<path class="st39" d="M504.7,466.8c-2.5,3.8-6.1,9.3-15.6,5.2c0,0,3.4-1.7,8.6-6.7c1.5-1.4,2-3.6,1.2-5.5c-1-2.3-3.5-5.6-9.7-9.3
	l1.9,0.3l0.2,0.1c0.2,0,11.5,5.3,14.2,10.8C506.2,463,505.6,465.4,504.7,466.8z"/>
<path class="st27" d="M489.2,450.3l2.1,0.6c0,0,11.3,5.7,14,11c0.7,1.4,0,3.9-0.9,5.1c-2.6,3.3-5.9,9.2-15.3,5c0,0,3.4-1.7,8.6-6.7
	c1.5-1.4,2-3.6,1.2-5.5C497.9,457.4,495.4,454.1,489.2,450.3z"/>
<polygon class="st21" points="487.1,450.3 467.1,464.6 458.4,472.9 463.4,472.7 469.3,465.4 492.3,450.5 483.3,433.5 482.1,429.4 
	480.3,427.7 480,434.1 488.6,449 "/>
<polygon class="st22" points="488.8,449.1 487.3,450.4 467.2,464.7 458.7,472.9 463.4,472.7 469.3,465.4 492.3,450.5 483.3,433.5 
	482.1,429.4 480.4,427.9 480.2,434 "/>
<polygon class="st23" points="489,449.2 487.5,450.5 467.2,464.9 459,472.9 463.4,472.7 469.3,465.4 492.3,450.5 483.3,433.5 
	482.1,429.4 480.6,428 480.5,434 "/>
<polygon class="st24" points="489.3,449.3 487.7,450.6 467.3,465.1 459.3,472.9 463.4,472.7 469.3,465.4 492.3,450.5 483.3,433.5 
	482.1,429.4 480.8,428.2 480.7,434 "/>
<polygon class="st25" points="489.5,449.3 487.9,450.7 467.4,465.2 459.5,472.8 463.4,472.7 469.3,465.4 492.3,450.5 483.3,433.5 
	482.1,429.4 480.9,428.4 481,434 "/>
<polygon class="st26" points="489.8,449.4 488,450.8 467.5,465.4 459.8,472.8 463.4,472.7 469.3,465.4 492.3,450.5 483.3,433.5 
	482.1,429.4 481.1,428.5 481.3,433.9 "/>
<polygon class="st27" points="488.2,450.8 467.5,465.5 460.1,472.8 463.4,472.7 469.3,465.4 492.3,450.5 483.3,433.5 482.1,429.4 
	481.2,428.7 481.5,433.9 490,449.4 "/>
<polygon class="st29" points="488.2,450.8 467.5,465.5 460.1,472.8 463.4,472.7 469.3,465.4 492.3,450.5 483.3,433.5 482.1,429.4 
	481.2,428.7 481.5,433.9 490,449.4 "/>
<polygon class="st36" points="492.1,450.4 483.3,433.5 482.1,429.4 481.2,428.7 481.5,433.9 490,449.4 488.2,450.8 467.5,465.5 
	460.1,472.8 463.4,472.7 469.3,465.4 "/>
<polygon class="st32" points="491.9,450.4 483.3,433.5 482.1,429.4 481.2,428.7 481.5,433.9 490,449.4 488.2,450.8 467.5,465.5 
	460.1,472.8 463.4,472.7 469.3,465.4 "/>
<polygon class="st37" points="491.8,450.3 483.3,433.5 482.1,429.4 481.2,428.7 481.5,433.9 490,449.4 488.2,450.8 467.5,465.5 
	460.1,472.8 463.4,472.7 469.3,465.4 "/>
<polygon class="st38" points="491.6,450.2 483.3,433.5 482.1,429.4 481.2,428.7 481.5,433.9 490,449.4 488.2,450.8 467.5,465.5 
	460.1,472.8 463.4,472.7 469.3,465.4 "/>
<polygon class="st39" points="491.4,450.2 483.3,433.5 482.1,429.4 481.2,428.7 481.5,433.9 490,449.4 488.2,450.8 467.5,465.5 
	460.1,472.8 463.4,472.7 469.3,465.4 "/>
<polygon class="st27" points="488.2,450.8 467.5,465.5 460.1,472.8 463.4,472.7 469.3,465.4 491.3,450.1 483.3,433.5 482.1,429.4 
	481.2,428.7 481.5,433.9 490,449.4 "/>
<rect x="430.9" y="483.8" class="st0" width="10.4" height="96"/>
<rect x="469.6" y="483.8" class="st0" width="10.4" height="96"/>
<rect x="615.3" y="483.8" class="st0" width="10.4" height="96"/>
<rect x="685.3" y="483.8" class="st0" width="10.4" height="96"/>
<rect x="430.9" y="473.4" class="st0" width="264.8" height="10.4"/>
<rect x="430.9" y="473.4" class="st3" width="264.8" height="10.4"/>
<rect x="430.9" y="473.4" class="st0" width="194.8" height="10.4"/>
<rect x="469.6" y="483.8" class="st3" width="10.4" height="96"/>
<rect x="685.3" y="483.8" class="st3" width="10.4" height="96"/>
<rect x="685.3" y="483.8" class="st40" width="10.4" height="65.2"/>
<rect x="685.3" y="483.8" class="st41" width="10.4" height="56.5"/>
<rect x="685.3" y="483.8" class="st42" width="10.4" height="47.7"/>
<rect x="685.3" y="483.8" class="st43" width="10.4" height="39"/>
<rect x="685.3" y="483.8" class="st44" width="10.4" height="30.2"/>
<rect x="685.3" y="483.8" class="st45" width="10.4" height="21.5"/>
<rect x="685.3" y="483.8" class="st46" width="10.4" height="12.8"/>
<rect x="685.3" y="483.8" class="st1" width="10.4" height="4"/>
<rect x="625.7" y="473.4" class="st40" width="70" height="10.4"/>
<rect x="625.7" y="473.4" class="st41" width="70" height="9"/>
<rect x="625.7" y="473.4" class="st42" width="70" height="7.6"/>
<rect x="625.7" y="473.4" class="st43" width="70" height="6.2"/>
<rect x="625.7" y="473.4" class="st44" width="70" height="4.8"/>
<rect x="625.7" y="473.4" class="st45" width="70" height="3.4"/>
<rect x="625.7" y="473.4" class="st46" width="70" height="2"/>
<rect x="625.7" y="473.4" class="st1" width="70" height="0.6"/>
<rect x="615.3" y="483.8" class="st40" width="10.4" height="65.2"/>
<rect x="615.3" y="483.8" class="st47" width="10.4" height="56.5"/>
<rect x="615.3" y="483.8" class="st48" width="10.4" height="47.7"/>
<rect x="615.3" y="483.8" class="st49" width="10.4" height="39"/>
<rect x="615.3" y="483.8" class="st50" width="10.4" height="30.2"/>
<rect x="615.3" y="483.8" class="st51" width="10.4" height="21.5"/>
<rect x="615.3" y="483.8" class="st52" width="10.4" height="12.8"/>
<rect x="615.3" y="483.8" class="st3" width="10.4" height="4"/>
<rect x="430.9" y="473.4" class="st40" width="194.8" height="10.4"/>
<rect x="430.9" y="473.4" class="st47" width="194.8" height="9"/>
<rect x="430.9" y="473.4" class="st48" width="194.8" height="7.6"/>
<rect x="430.9" y="473.4" class="st49" width="194.8" height="6.2"/>
<rect x="430.9" y="473.4" class="st50" width="194.8" height="4.8"/>
<rect x="430.9" y="473.4" class="st51" width="194.8" height="3.4"/>
<rect x="430.9" y="473.4" class="st52" width="194.8" height="2"/>
<rect x="430.9" y="473.4" class="st3" width="194.8" height="0.6"/>
<rect x="430.9" y="483.8" class="st40" width="10.4" height="65.2"/>
<rect x="430.9" y="483.8" class="st47" width="10.4" height="56.5"/>
<rect x="430.9" y="483.8" class="st48" width="10.4" height="47.7"/>
<rect x="430.9" y="483.8" class="st49" width="10.4" height="39"/>
<rect x="430.9" y="483.8" class="st50" width="10.4" height="30.2"/>
<rect x="430.9" y="483.8" class="st51" width="10.4" height="21.5"/>
<rect x="430.9" y="483.8" class="st52" width="10.4" height="12.8"/>
<rect x="430.9" y="483.8" class="st3" width="10.4" height="4"/>
<rect x="469.6" y="483.8" class="st40" width="10.4" height="65.2"/>
<rect x="469.6" y="483.8" class="st41" width="10.4" height="56.5"/>
<rect x="469.6" y="483.8" class="st42" width="10.4" height="47.7"/>
<rect x="469.6" y="483.8" class="st43" width="10.4" height="39"/>
<rect x="469.6" y="483.8" class="st44" width="10.4" height="30.2"/>
<rect x="469.6" y="483.8" class="st45" width="10.4" height="21.5"/>
<rect x="469.6" y="483.8" class="st46" width="10.4" height="12.8"/>
<rect x="469.6" y="483.8" class="st1" width="10.4" height="4"/>
<rect x="108" y="491.5" class="st0" width="88.3" height="88.3"/>
<rect x="115.5" y="499" class="st1" width="73.3" height="73.3"/>
<rect x="120.4" y="499" class="st0" width="68.4" height="73.3"/>
<polygon class="st1" points="115.5,559.9 176.7,498.7 188.8,498.7 188.8,511.8 127.9,572.6 115.5,572.6 "/>
<polygon class="st0" points="115.5,559.9 176.7,498.7 188.8,498.7 188.8,506.7 121.7,572.6 115.5,572.6 "/>
<polygon class="st0" points="188.8,559.9 127.6,498.7 115.5,498.7 115.5,506.7 182.6,572.6 188.8,572.6 "/>
<polygon class="st1" points="167.7,532.9 188.6,553.8 188.8,559.9 164.7,535.8 "/>
<polygon class="st1" points="133.5,498.7 155.1,520.3 152.1,523.3 127.6,498.7 "/>
<polygon class="st2" points="188.6,553.8 167.7,532.9 188.8,511.8 "/>
<polygon class="st2" points="120.4,555 120.4,511.5 142.6,532.8 "/>
<polygon class="st2" points="127.6,498.7 152.1,523.3 176.7,498.7 "/>
<polygon class="st2" points="127.9,572.6 155,545.5 182.6,572.6 "/>
<polygon class="st1" points="152.1,542.7 161.9,533.1 162.6,533.7 152.8,543.4 "/>
<polygon class="st2" points="142.6,532.8 152.1,523.3 151.5,522.7 142,532.2 "/>
<rect x="196.3" y="491.5" class="st0" width="27.9" height="88.3"/>
<rect x="198.6" y="499" class="st0" width="21.7" height="73.3"/>
<polygon class="st1" points="221.9,559.9 202.5,498.7 198.6,498.7 198.6,511.8 217.9,572.6 221.9,572.6 "/>
<polygon class="st0" points="221.9,559.9 202.5,498.7 198.6,498.7 198.6,506.7 219.9,572.6 221.9,572.6 "/>
<polygon class="st0" points="198.6,559.9 218,498.7 221.9,498.7 221.9,506.7 200.6,572.6 198.6,572.6 "/>
<polygon class="st1" points="205.3,532.9 198.7,553.8 198.6,559.9 206.3,535.8 "/>
<polygon class="st1" points="216.1,498.7 209.3,520.3 210.3,523.3 218,498.7 "/>
<polygon class="st2" points="198.7,553.8 205.3,532.9 198.6,511.8 "/>
<polygon class="st2" points="220.3,555 220.3,511.5 213.3,532.8 "/>
<polygon class="st2" points="218,498.7 210.3,523.3 202.5,498.7 "/>
<polygon class="st2" points="217.9,572.6 209.3,545.5 200.6,572.6 "/>
<polygon class="st1" points="210.3,542.7 207.1,533.1 206.9,533.7 210,543.4 "/>
<polygon class="st2" points="213.3,532.8 210.3,523.3 210.4,522.7 213.5,532.2 "/>
<polygon class="st1" points="218.6,549.5 218.6,516.9 220.3,511.5 220.3,555 "/>
<rect x="196.3" y="491.5" class="st3" width="27.9" height="88.3"/>
<rect x="108" y="491.5" class="st3" width="116.2" height="88.3"/>
<rect x="196.3" y="491.5" class="st0" width="88.3" height="88.3"/>
<rect x="203.8" y="499" class="st1" width="73.3" height="73.3"/>
<rect x="208.6" y="499" class="st0" width="68.4" height="73.3"/>
<polygon class="st1" points="203.8,559.9 265,498.7 277,498.7 277,511.8 216.2,572.6 203.8,572.6 "/>
<polygon class="st0" points="203.8,559.9 265,498.7 277,498.7 277,506.7 209.9,572.6 203.8,572.6 "/>
<polygon class="st0" points="277,559.9 215.8,498.7 203.8,498.7 203.8,506.7 270.9,572.6 277,572.6 "/>
<polygon class="st1" points="255.9,532.9 276.9,553.8 277,559.9 253,535.8 "/>
<polygon class="st1" points="221.8,498.7 243.4,520.3 240.4,523.3 215.8,498.7 "/>
<polygon class="st2" points="276.9,553.8 255.9,532.9 277,511.8 "/>
<polygon class="st2" points="208.6,555 208.6,511.5 230.9,532.8 "/>
<polygon class="st2" points="215.8,498.7 240.4,523.3 265,498.7 "/>
<polygon class="st2" points="216.2,572.6 243.3,545.5 270.9,572.6 "/>
<polygon class="st1" points="240.4,542.7 250.2,533.1 250.8,533.7 241.1,543.4 "/>
<polygon class="st2" points="230.9,532.8 240.4,523.3 239.8,522.7 230.3,532.2 "/>
<rect x="284.5" y="491.5" class="st0" width="28" height="88.3"/>
<rect x="286.9" y="499" class="st0" width="21.7" height="73.3"/>
<polygon class="st1" points="310.1,559.9 290.7,498.7 286.9,498.7 286.9,511.8 306.2,572.6 310.1,572.6 "/>
<polygon class="st0" points="310.1,559.9 290.7,498.7 286.9,498.7 286.9,506.7 308.1,572.6 310.1,572.6 "/>
<polygon class="st0" points="286.9,559.9 306.3,498.7 310.1,498.7 310.1,506.7 288.9,572.6 286.9,572.6 "/>
<polygon class="st1" points="293.6,532.9 287,553.8 286.9,559.9 294.5,535.8 "/>
<polygon class="st1" points="304.4,498.7 297.6,520.3 298.5,523.3 306.3,498.7 "/>
<polygon class="st2" points="287,553.8 293.6,532.9 286.9,511.8 "/>
<polygon class="st2" points="308.6,555 308.6,511.5 301.5,532.8 "/>
<polygon class="st2" points="306.3,498.7 298.5,523.3 290.7,498.7 "/>
<polygon class="st2" points="306.2,572.6 297.6,545.5 288.9,572.6 "/>
<polygon class="st1" points="298.5,542.7 295.4,533.1 295.2,533.7 298.3,543.4 "/>
<polygon class="st2" points="301.5,532.8 298.5,523.3 298.7,522.7 301.7,532.2 "/>
<polygon class="st1" points="306.8,549.5 306.8,516.9 308.6,511.5 308.6,555 "/>
<rect x="284.5" y="491.5" class="st3" width="28" height="88.3"/>
<rect x="196.3" y="491.5" class="st3" width="116.2" height="88.3"/>
<rect x="108" y="403.2" class="st0" width="88.3" height="88.3"/>
<rect x="115.5" y="410.7" class="st1" width="73.3" height="73.3"/>
<rect x="120.4" y="410.7" class="st0" width="68.4" height="73.3"/>
<polygon class="st1" points="115.5,471.6 176.7,410.4 188.8,410.4 188.8,423.5 127.9,484.4 115.5,484.4 "/>
<polygon class="st0" points="115.5,471.6 176.7,410.4 188.8,410.4 188.8,418.5 121.7,484.4 115.5,484.4 "/>
<polygon class="st0" points="188.8,471.6 127.6,410.4 115.5,410.4 115.5,418.5 182.6,484.4 188.8,484.4 "/>
<polygon class="st1" points="167.7,444.6 188.6,465.5 188.8,471.6 164.7,447.6 "/>
<polygon class="st1" points="133.5,410.4 155.1,432 152.1,435 127.6,410.4 "/>
<polygon class="st2" points="188.6,465.5 167.7,444.6 188.8,423.5 "/>
<polygon class="st2" points="120.4,466.8 120.4,423.2 142.6,444.5 "/>
<polygon class="st2" points="127.6,410.4 152.1,435 176.7,410.4 "/>
<polygon class="st2" points="127.9,484.4 155,457.3 182.6,484.4 "/>
<polygon class="st1" points="152.1,454.4 161.9,444.8 162.6,445.4 152.8,455.1 "/>
<polygon class="st2" points="142.6,444.5 152.1,435 151.5,434.4 142,443.9 "/>
<rect x="196.3" y="403.2" class="st0" width="27.9" height="88.3"/>
<rect x="198.6" y="410.7" class="st0" width="21.7" height="73.3"/>
<polygon class="st1" points="221.9,471.6 202.5,410.4 198.6,410.4 198.6,423.5 217.9,484.4 221.9,484.4 "/>
<polygon class="st0" points="221.9,471.6 202.5,410.4 198.6,410.4 198.6,418.5 219.9,484.4 221.9,484.4 "/>
<polygon class="st0" points="198.6,471.6 218,410.4 221.9,410.4 221.9,418.5 200.6,484.4 198.6,484.4 "/>
<polygon class="st1" points="205.3,444.6 198.7,465.5 198.6,471.6 206.3,447.6 "/>
<polygon class="st1" points="216.1,410.4 209.3,432 210.3,435 218,410.4 "/>
<polygon class="st2" points="198.7,465.5 205.3,444.6 198.6,423.5 "/>
<polygon class="st2" points="220.3,466.8 220.3,423.2 213.3,444.5 "/>
<polygon class="st2" points="218,410.4 210.3,435 202.5,410.4 "/>
<polygon class="st2" points="217.9,484.4 209.3,457.3 200.6,484.4 "/>
<polygon class="st1" points="210.3,454.4 207.1,444.8 206.9,445.4 210,455.1 "/>
<polygon class="st2" points="213.3,444.5 210.3,435 210.4,434.4 213.5,443.9 "/>
<polygon class="st1" points="218.6,461.2 218.6,428.7 220.3,423.2 220.3,466.8 "/>
<rect x="196.3" y="403.2" class="st3" width="27.9" height="88.3"/>
<rect x="108" y="403.2" class="st3" width="116.2" height="88.3"/>
<rect x="196.3" y="403.2" class="st0" width="88.3" height="88.3"/>
<rect x="203.8" y="410.7" class="st1" width="73.3" height="73.3"/>
<rect x="208.6" y="410.7" class="st0" width="68.4" height="73.3"/>
<polygon class="st1" points="203.8,471.6 265,410.4 277,410.4 277,423.5 216.2,484.4 203.8,484.4 "/>
<polygon class="st0" points="203.8,471.6 265,410.4 277,410.4 277,418.5 209.9,484.4 203.8,484.4 "/>
<polygon class="st0" points="277,471.6 215.8,410.4 203.8,410.4 203.8,418.5 270.9,484.4 277,484.4 "/>
<polygon class="st1" points="255.9,444.6 276.9,465.5 277,471.6 253,447.6 "/>
<polygon class="st1" points="221.8,410.4 243.4,432 240.4,435 215.8,410.4 "/>
<polygon class="st2" points="276.9,465.5 255.9,444.6 277,423.5 "/>
<polygon class="st2" points="208.6,466.8 208.6,423.2 230.9,444.5 "/>
<polygon class="st2" points="215.8,410.4 240.4,435 265,410.4 "/>
<polygon class="st2" points="216.2,484.4 243.3,457.3 270.9,484.4 "/>
<polygon class="st1" points="240.4,454.4 250.2,444.8 250.8,445.4 241.1,455.1 "/>
<polygon class="st2" points="230.9,444.5 240.4,435 239.8,434.4 230.3,443.9 "/>
<rect x="284.5" y="403.2" class="st0" width="28" height="88.3"/>
<rect x="286.9" y="410.7" class="st0" width="21.7" height="73.3"/>
<polygon class="st1" points="310.1,471.6 290.7,410.4 286.9,410.4 286.9,423.5 306.2,484.4 310.1,484.4 "/>
<polygon class="st0" points="310.1,471.6 290.7,410.4 286.9,410.4 286.9,418.5 308.1,484.4 310.1,484.4 "/>
<polygon class="st0" points="286.9,471.6 306.3,410.4 310.1,410.4 310.1,418.5 288.9,484.4 286.9,484.4 "/>
<polygon class="st1" points="293.6,444.6 287,465.5 286.9,471.6 294.5,447.6 "/>
<polygon class="st1" points="304.4,410.4 297.6,432 298.5,435 306.3,410.4 "/>
<polygon class="st2" points="287,465.5 293.6,444.6 286.9,423.5 "/>
<polygon class="st2" points="308.6,466.8 308.6,423.2 301.5,444.5 "/>
<polygon class="st2" points="306.3,410.4 298.5,435 290.7,410.4 "/>
<polygon class="st2" points="306.2,484.4 297.6,457.3 288.9,484.4 "/>
<polygon class="st1" points="298.5,454.4 295.4,444.8 295.2,445.4 298.3,455.1 "/>
<polygon class="st2" points="301.5,444.5 298.5,435 298.7,434.4 301.7,443.9 "/>
<polygon class="st1" points="306.8,461.2 306.8,428.7 308.6,423.2 308.6,466.8 "/>
<rect x="284.5" y="403.2" class="st3" width="28" height="88.3"/>
<rect x="196.3" y="403.2" class="st3" width="116.2" height="88.3"/>
<rect x="162.2" y="315" class="st0" width="88.3" height="88.3"/>
<rect x="169.7" y="322.5" class="st1" width="73.3" height="73.3"/>
<rect x="174.6" y="322.5" class="st0" width="68.4" height="73.3"/>
<polygon class="st1" points="169.7,383.4 230.9,322.2 243,322.2 243,335.3 182.1,396.1 169.7,396.1 "/>
<polygon class="st0" points="169.7,383.4 230.9,322.2 243,322.2 243,330.2 175.9,396.1 169.7,396.1 "/>
<polygon class="st0" points="243,383.4 181.8,322.2 169.7,322.2 169.7,330.2 236.8,396.1 243,396.1 "/>
<polygon class="st1" points="221.9,356.4 242.8,377.3 243,383.4 218.9,359.3 "/>
<polygon class="st1" points="187.7,322.2 209.3,343.8 206.3,346.7 181.8,322.2 "/>
<polygon class="st2" points="242.8,377.3 221.9,356.4 243,335.3 "/>
<polygon class="st2" points="174.6,378.5 174.6,335 196.8,356.3 "/>
<polygon class="st2" points="181.8,322.2 206.3,346.7 230.9,322.2 "/>
<polygon class="st2" points="182.1,396.1 209.2,369 236.8,396.1 "/>
<polygon class="st1" points="206.3,366.2 216.1,356.6 216.7,357.2 207,366.9 "/>
<polygon class="st2" points="196.8,356.3 206.3,346.7 205.7,346.1 196.2,355.7 "/>
<rect x="250.5" y="315" class="st0" width="27.9" height="88.3"/>
<rect x="252.9" y="322.5" class="st0" width="21.7" height="73.3"/>
<polygon class="st1" points="276,383.4 256.7,322.2 252.8,322.2 252.8,335.3 272.1,396.1 276,396.1 "/>
<polygon class="st0" points="276,383.4 256.7,322.2 252.8,322.2 252.8,330.2 274.1,396.1 276,396.1 "/>
<polygon class="st0" points="252.8,383.4 272.2,322.2 276,322.2 276,330.2 254.8,396.1 252.8,396.1 "/>
<polygon class="st1" points="259.5,356.4 252.9,377.3 252.8,383.4 260.5,359.3 "/>
<polygon class="st1" points="270.3,322.2 263.5,343.8 264.4,346.7 272.2,322.2 "/>
<polygon class="st2" points="252.9,377.3 259.5,356.4 252.8,335.3 "/>
<polygon class="st2" points="274.5,378.5 274.5,335 267.5,356.3 "/>
<polygon class="st2" points="272.2,322.2 264.4,346.7 256.7,322.2 "/>
<polygon class="st2" points="272.1,396.1 263.5,369 254.8,396.1 "/>
<polygon class="st1" points="264.4,366.2 261.3,356.6 261.1,357.2 264.2,366.9 "/>
<polygon class="st2" points="267.5,356.3 264.4,346.7 264.6,346.1 267.7,355.7 "/>
<polygon class="st1" points="272.7,373 272.7,340.4 274.5,335 274.5,378.5 "/>
<rect x="250.5" y="315" class="st3" width="28" height="88.3"/>
<rect x="162.2" y="315" class="st3" width="116.2" height="88.3"/>
<path class="st0" d="M300.7,579.8c-31.8-13.8-54.7-52.6-66.9-122c-9-51-9-98.8-9-99.3h7.4c0,1.9,0.7,183.8,71.4,214.4L300.7,579.8z"
	/>
<path class="st4" d="M300.7,579.8c-31.8-13.8-54.7-52.6-66.9-122c-9-51-9-98.8-9-99.3h7.4c0,1.9-1.5,183.2,70.9,214.4L300.7,579.8z"
	/>
<path class="st5" d="M300.7,579.8c-31.8-13.8-54.7-52.6-66.9-122c-9-51-9-98.8-9-99.3h7.4c0,1.9-3.8,182.7,70.3,214.4L300.7,579.8z"
	/>
<path class="st6" d="M300.7,579.8c-31.8-13.8-54.7-52.6-66.9-122c-9-51-9-98.8-9-99.3h7.4c0,1.9-6,182.1,69.8,214.4L300.7,579.8z"/>
<path class="st7" d="M300.7,579.8c-31.8-13.8-54.7-52.6-66.9-122c-9-51-9-98.8-9-99.3h7.4c0,1.9-8.2,181.5,69.2,214.4L300.7,579.8z"
	/>
<path class="st8" d="M300.7,579.8c-31.8-13.8-54.7-52.6-66.9-122c-9-51-9-98.8-9-99.3h7.4c0,1.9-10.4,181,68.7,214.4L300.7,579.8z"
	/>
<path class="st9" d="M300.7,579.8c-31.8-13.8-54.7-52.6-66.9-122c-9-51-9-98.8-9-99.3h7.4c0,1.9-12.6,180.4,68.1,214.4L300.7,579.8z
	"/>
<polygon class="st0" points="369.3,579.8 300.3,579.8 300.3,573 369.3,575.2 "/>
<polygon class="st0" points="361.6,573 300.3,573 300.3,566.3 361.6,568.4 "/>
<polygon class="st0" points="356.8,566.3 305.3,566.3 305.3,559.5 356.8,561.7 "/>
<rect y="469.2" class="st0" width="110.6" height="110.6"/>
<rect x="9.4" y="478.6" class="st1" width="91.8" height="91.8"/>
<rect x="15.5" y="478.6" class="st0" width="85.7" height="91.8"/>
<polygon class="st1" points="9.4,554.9 86.1,478.2 101.2,478.2 101.2,494.6 25,570.8 9.4,570.8 "/>
<polygon class="st0" points="9.4,554.9 86.1,478.2 101.2,478.2 101.2,488.3 17.1,570.8 9.4,570.8 "/>
<polygon class="st0" points="101.2,554.9 24.5,478.2 9.4,478.2 9.4,488.3 93.5,570.8 101.2,570.8 "/>
<polygon class="st1" points="74.8,521 101,547.2 101.2,554.9 71.1,524.8 "/>
<polygon class="st1" points="31.9,478.2 59,505.3 55.3,509 24.5,478.2 "/>
<polygon class="st2" points="101,547.2 74.8,521 101.2,494.6 "/>
<polygon class="st2" points="15.5,548.8 15.5,494.2 43.4,520.9 "/>
<polygon class="st2" points="24.5,478.2 55.3,509 86.1,478.2 "/>
<polygon class="st2" points="25,570.8 58.9,536.9 93.5,570.8 "/>
<polygon class="st1" points="55.3,533.4 67.6,521.3 68.3,522 56.2,534.2 "/>
<polygon class="st2" points="43.4,520.9 55.3,509 54.5,508.2 42.6,520.2 "/>
<rect x="110.6" y="469.2" class="st0" width="35" height="110.6"/>
<rect x="113.6" y="478.6" class="st0" width="27.1" height="91.8"/>
<polygon class="st1" points="142.7,554.9 118.4,478.2 113.6,478.2 113.6,494.6 137.7,570.8 142.7,570.8 "/>
<polygon class="st0" points="142.7,554.9 118.4,478.2 113.6,478.2 113.6,488.3 140.2,570.8 142.7,570.8 "/>
<polygon class="st0" points="113.6,554.9 137.9,478.2 142.7,478.2 142.7,488.3 116,570.8 113.6,570.8 "/>
<polygon class="st1" points="121.9,521 113.7,547.2 113.6,554.9 123.1,524.8 "/>
<polygon class="st1" points="135.5,478.2 126.9,505.3 128.1,509 137.9,478.2 "/>
<polygon class="st2" points="113.7,547.2 121.9,521 113.6,494.6 "/>
<polygon class="st2" points="140.7,548.8 140.7,494.2 131.9,520.9 "/>
<polygon class="st2" points="137.9,478.2 128.1,509 118.4,478.2 "/>
<polygon class="st2" points="137.7,570.8 127,536.9 116,570.8 "/>
<polygon class="st1" points="128.1,533.4 124.2,521.3 124,522 127.8,534.2 "/>
<polygon class="st2" points="131.9,520.9 128.1,509 128.4,508.2 132.1,520.2 "/>
<polygon class="st1" points="138.5,541.8 138.5,501.1 140.7,494.2 140.7,548.8 "/>
<rect x="110.6" y="469.2" class="st3" width="35" height="110.6"/>
<rect x="84.1" y="358.6" class="st0" width="110.6" height="110.6"/>
<rect x="93.5" y="368" class="st1" width="91.8" height="91.8"/>
<rect x="99.6" y="368" class="st0" width="85.7" height="91.8"/>
<polygon class="st1" points="93.5,444.3 170.2,367.6 185.3,367.6 185.3,384 109.1,460.2 93.5,460.2 "/>
<polygon class="st0" points="93.5,444.3 170.2,367.6 185.3,367.6 185.3,377.6 101.2,460.2 93.5,460.2 "/>
<polygon class="st0" points="185.3,444.3 108.6,367.6 93.5,367.6 93.5,377.6 177.6,460.2 185.3,460.2 "/>
<polygon class="st1" points="158.9,410.4 185.1,436.6 185.3,444.3 155.1,414.1 "/>
<polygon class="st1" points="116,367.6 143.1,394.7 139.4,398.4 108.6,367.6 "/>
<polygon class="st2" points="185.1,436.6 158.9,410.4 185.3,384 "/>
<polygon class="st2" points="99.6,438.2 99.6,383.6 127.4,410.3 "/>
<polygon class="st2" points="108.6,367.6 139.4,398.4 170.2,367.6 "/>
<polygon class="st2" points="109.1,460.2 143,426.3 177.6,460.2 "/>
<polygon class="st1" points="139.4,422.7 151.7,410.7 152.4,411.4 140.3,423.6 "/>
<polygon class="st2" points="127.4,410.3 139.4,398.4 138.6,397.6 126.7,409.6 "/>
<rect x="194.7" y="358.6" class="st0" width="35" height="110.6"/>
<rect x="197.7" y="368" class="st0" width="27.1" height="91.8"/>
<polygon class="st1" points="226.7,444.3 202.5,367.6 197.7,367.6 197.7,384 221.8,460.2 226.7,460.2 "/>
<polygon class="st0" points="226.7,444.3 202.5,367.6 197.7,367.6 197.7,377.6 224.3,460.2 226.7,460.2 "/>
<polygon class="st0" points="197.7,444.3 222,367.6 226.7,367.6 226.7,377.6 200.1,460.2 197.7,460.2 "/>
<polygon class="st1" points="206,410.4 197.8,436.6 197.7,444.3 207.2,414.1 "/>
<polygon class="st1" points="219.6,367.6 211,394.7 212.2,398.4 222,367.6 "/>
<polygon class="st2" points="197.8,436.6 206,410.4 197.7,384 "/>
<polygon class="st2" points="224.8,438.2 224.8,383.6 216,410.3 "/>
<polygon class="st2" points="222,367.6 212.2,398.4 202.5,367.6 "/>
<polygon class="st2" points="221.8,460.2 211.1,426.3 200.1,460.2 "/>
<polygon class="st1" points="212.2,422.7 208.3,410.7 208.1,411.4 211.9,423.6 "/>
<polygon class="st2" points="216,410.3 212.2,398.4 212.4,397.6 216.2,409.6 "/>
<polygon class="st1" points="222.6,431.2 222.6,390.5 224.8,383.6 224.8,438.2 "/>
<rect x="194.7" y="358.6" class="st3" width="35" height="110.6"/>
<rect x="110.6" y="469.2" class="st0" width="110.6" height="110.6"/>
<rect x="120" y="478.6" class="st1" width="91.8" height="91.8"/>
<rect x="126.1" y="478.6" class="st0" width="85.7" height="91.8"/>
<polygon class="st1" points="120,554.9 196.7,478.2 211.8,478.2 211.8,494.6 135.6,570.8 120,570.8 "/>
<polygon class="st0" points="120,554.9 196.7,478.2 211.8,478.2 211.8,488.3 127.8,570.8 120,570.8 "/>
<polygon class="st0" points="211.8,554.9 135.1,478.2 120,478.2 120,488.3 204.1,570.8 211.8,570.8 "/>
<polygon class="st1" points="185.4,521 211.6,547.2 211.8,554.9 181.7,524.8 "/>
<polygon class="st1" points="142.6,478.2 169.6,505.3 165.9,509 135.1,478.2 "/>
<polygon class="st2" points="211.6,547.2 185.4,521 211.8,494.6 "/>
<polygon class="st2" points="126.1,548.8 126.1,494.2 154,520.9 "/>
<polygon class="st2" points="135.1,478.2 165.9,509 196.7,478.2 "/>
<polygon class="st2" points="135.6,570.8 169.5,536.9 204.1,570.8 "/>
<polygon class="st1" points="165.9,533.4 178.2,521.3 179,522 166.8,534.2 "/>
<polygon class="st2" points="154,520.9 165.9,509 165.1,508.2 153.2,520.2 "/>
<rect x="221.2" y="469.2" class="st0" width="35" height="110.6"/>
<rect x="224.2" y="478.6" class="st0" width="27.1" height="91.8"/>
<polygon class="st1" points="253.3,554.9 229,478.2 224.2,478.2 224.2,494.6 248.3,570.8 253.3,570.8 "/>
<polygon class="st0" points="253.3,554.9 229,478.2 224.2,478.2 224.2,488.3 250.8,570.8 253.3,570.8 "/>
<polygon class="st0" points="224.2,554.9 248.5,478.2 253.3,478.2 253.3,488.3 226.6,570.8 224.2,570.8 "/>
<polygon class="st1" points="232.6,521 224.3,547.2 224.2,554.9 233.7,524.8 "/>
<polygon class="st1" points="246.1,478.2 237.6,505.3 238.7,509 248.5,478.2 "/>
<polygon class="st2" points="224.3,547.2 232.6,521 224.2,494.6 "/>
<polygon class="st2" points="251.3,548.8 251.3,494.2 242.5,520.9 "/>
<polygon class="st2" points="248.5,478.2 238.7,509 229,478.2 "/>
<polygon class="st2" points="248.3,570.8 237.6,536.9 226.6,570.8 "/>
<polygon class="st1" points="238.7,533.4 234.8,521.3 234.6,522 238.5,534.2 "/>
<polygon class="st2" points="242.5,520.9 238.7,509 239,508.2 242.8,520.2 "/>
<polygon class="st1" points="249.1,541.8 249.1,501.1 251.3,494.2 251.3,548.8 "/>
<rect x="221.2" y="469.2" class="st3" width="35" height="110.6"/>
<rect x="300.3" y="573" class="st0" width="70.5" height="6.7"/>
<polygon class="st4" points="370.6,573.4 370.6,579.8 300.3,579.8 300.3,573 "/>
<polygon class="st5" points="370.3,573.7 370.3,579.8 300.3,579.8 300.3,573 "/>
<polygon class="st6" points="370,574.1 370,579.8 300.3,579.8 300.3,573 "/>
<polygon class="st7" points="369.8,574.5 369.8,579.8 300.3,579.8 300.3,573 "/>
<polygon class="st8" points="369.5,574.8 369.5,579.8 300.3,579.8 300.3,573 "/>
<polygon class="st9" points="369.3,579.8 300.3,579.8 300.3,573 369.3,575.2 "/>
<rect x="300.3" y="566.3" class="st0" width="62.6" height="6.7"/>
<polygon class="st4" points="362.7,566.6 362.7,573 300.3,573 300.3,566.3 "/>
<polygon class="st5" points="362.5,567 362.5,573 300.3,573 300.3,566.3 "/>
<polygon class="st6" points="362.3,567.3 362.3,573 300.3,573 300.3,566.3 "/>
<polygon class="st7" points="362,567.7 362,573 300.3,573 300.3,566.3 "/>
<polygon class="st8" points="361.8,568.1 361.8,573 300.3,573 300.3,566.3 "/>
<polygon class="st9" points="361.6,573 300.3,573 300.3,566.3 361.6,568.4 "/>
<rect x="305.3" y="559.5" class="st0" width="52.7" height="6.7"/>
<polygon class="st4" points="357.8,566.3 305.3,566.3 305.3,559.5 357.8,559.9 "/>
<polygon class="st5" points="357.6,566.3 305.3,566.3 305.3,559.5 357.6,560.2 "/>
<polygon class="st6" points="357.4,566.3 305.3,566.3 305.3,559.5 357.4,560.6 "/>
<polygon class="st7" points="357.2,566.3 305.3,566.3 305.3,559.5 357.2,561 "/>
<polygon class="st8" points="357,566.3 305.3,566.3 305.3,559.5 357,561.3 "/>
<polygon class="st9" points="356.8,566.3 305.3,566.3 305.3,559.5 356.8,561.7 "/>
<polygon class="st1" points="720.5,71.7 737.3,71.7 879.8,579.8 863,579.8 "/>
<polygon class="st10" points="722,71.7 737.3,71.7 879.8,579.8 864.5,579.8 "/>
<polygon class="st11" points="723.3,71.7 737.3,71.7 879.8,579.8 865.8,579.8 "/>
<polygon class="st12" points="724.8,71.7 737.3,71.7 879.8,579.8 867.3,579.8 "/>
<polygon class="st13" points="726.2,71.7 737.3,71.7 879.8,579.8 868.7,579.8 "/>
<polygon class="st14" points="727.5,71.7 737.3,71.7 879.8,579.8 870,579.8 "/>
<polygon class="st9" points="729,71.7 737.3,71.7 879.8,579.8 871.5,579.8 "/>
</svg>
