<svg xmlns="http://www.w3.org/2000/svg" viewBox="0 0 2372.96 530.47"><defs><style>.cls-1{fill:#996233;}.cls-2,.cls-3,.cls-4,.cls-41,.cls-42,.cls-43,.cls-44,.cls-45,.cls-46,.cls-47,.cls-48,.cls-49,.cls-50,.cls-51,.cls-52,.cls-53{fill:#491b02;}.cls-3{opacity:0.42;}.cls-3,.cls-4,.cls-41,.cls-42,.cls-43,.cls-44,.cls-45,.cls-46,.cls-47,.cls-48,.cls-49,.cls-50,.cls-51,.cls-52,.cls-53{isolation:isolate;}.cls-4{opacity:0.46;}.cls-5{fill:#955f32;}.cls-6{fill:#915c31;}.cls-7{fill:#8e5a30;}.cls-8{fill:#8a572e;}.cls-9{fill:#86542d;}.cls-10{fill:#82512c;}.cls-11{fill:#532409;}.cls-12{fill:#5c2d10;}.cls-13{fill:#663617;}.cls-14{fill:#6f3f1e;}.cls-15{fill:#784825;}.cls-16{fill:#3a3a3a;}.cls-17{fill:#3f3f3f;}.cls-18{fill:#444;}.cls-19{fill:#4a4a4a;}.cls-20{fill:#4f4f4f;}.cls-21{fill:#545454;}.cls-22{fill:#595959;}.cls-23{fill:#666;}.cls-24{fill:#727272;}.cls-25{fill:#7f7f7f;}.cls-26{fill:#8c8c8c;}.cls-27{fill:#989898;}.cls-28{fill:#a5a5a5;}.cls-29{opacity:0.5;}.cls-30{fill:#d3d3d3;}.cls-31{fill:#cecece;}.cls-32{fill:#c9c9c9;}.cls-33{fill:#c4c4c4;}.cls-34{fill:#bfbfbf;}.cls-35{fill:#bababa;}.cls-36{fill:#b5b5b5;}.cls-37{fill:#cbcbcb;}.cls-38{fill:#bcbcbc;}.cls-39{fill:#b4b4b4;}.cls-40{fill:#adadad;}.cls-41{opacity:0.02;}.cls-42{opacity:0.16;}.cls-43{opacity:0.3;}.cls-44{opacity:0.44;}.cls-45{opacity:0.58;}.cls-46{opacity:0.72;}.cls-47{opacity:0.86;}.cls-48{opacity:0.08;}.cls-49{opacity:0.15;}.cls-50{opacity:0.21;}.cls-51{opacity:0.27;}.cls-52{opacity:0.33;}.cls-53{opacity:0.4;}</style></defs><title>Postes</title><g id="Layer_2" data-name="Layer 2"><g id="Layer_1-2" data-name="Layer 1"><g id="Layer_4" data-name="Layer 4"><rect class="cls-1" x="2176.68" y="442.18" width="88.26" height="88.26"/><rect class="cls-2" x="2184.18" y="449.68" width="73.26" height="73.26"/><rect class="cls-1" x="2184.19" y="449.68" width="68.4" height="73.26"/><polygon class="cls-2" points="2257.44 510.58 2196.25 449.39 2184.18 449.39 2184.18 462.48 2245.01 523.31 2257.44 523.31 2257.44 510.58"/><polygon class="cls-1" points="2257.44 510.58 2196.25 449.39 2184.18 449.39 2184.18 457.4 2251.26 523.31 2257.44 523.31 2257.44 510.58"/><polygon class="cls-1" points="2184.18 510.58 2245.38 449.39 2257.44 449.39 2257.44 457.4 2190.36 523.31 2184.18 523.31 2184.18 510.58"/><polygon class="cls-2" points="2205.27 483.57 2184.37 504.48 2184.18 510.58 2208.23 486.53 2205.27 483.57"/><polygon class="cls-2" points="2239.46 449.39 2217.85 470.99 2220.81 473.95 2245.38 449.39 2239.46 449.39"/><polygon class="cls-3" points="2184.37 504.48 2205.27 483.57 2184.18 462.48 2184.37 504.48"/><polygon class="cls-3" points="2252.58 505.73 2252.58 462.17 2230.34 483.48 2252.58 505.73"/><polygon class="cls-3" points="2245.38 449.39 2220.81 473.95 2196.25 449.39 2245.38 449.39"/><polygon class="cls-3" points="2245.01 523.31 2217.93 496.22 2190.36 523.31 2245.01 523.31"/><polygon class="cls-2" points="2220.81 493.39 2211.01 483.76 2210.4 484.36 2220.12 494.07 2220.81 493.39"/><polygon class="cls-3" points="2230.34 483.48 2220.81 473.95 2221.42 473.34 2230.96 482.88 2230.34 483.48"/><rect class="cls-1" x="2148.73" y="442.18" width="27.95" height="88.26"/><rect class="cls-1" x="2152.64" y="449.68" width="21.66" height="73.26"/><polygon class="cls-2" points="2151.11 510.58 2170.49 449.39 2174.31 449.39 2174.31 462.48 2155.04 523.31 2151.11 523.31 2151.11 510.58"/><polygon class="cls-1" points="2151.11 510.58 2170.49 449.39 2174.31 449.39 2174.31 457.4 2153.06 523.31 2151.11 523.31 2151.11 510.58"/><polygon class="cls-1" points="2174.31 510.58 2154.93 449.39 2151.11 449.39 2151.11 457.4 2172.35 523.31 2174.31 523.31 2174.31 510.58"/><polygon class="cls-2" points="2167.63 483.57 2174.25 504.48 2174.31 510.58 2166.69 486.53 2167.63 483.57"/><polygon class="cls-2" points="2156.8 449.39 2163.64 470.99 2162.71 473.95 2154.93 449.39 2156.8 449.39"/><polygon class="cls-3" points="2174.25 504.48 2167.63 483.57 2174.31 462.48 2174.25 504.48"/><polygon class="cls-3" points="2152.64 505.73 2152.64 462.17 2159.69 483.48 2152.64 505.73"/><polygon class="cls-3" points="2154.93 449.39 2162.71 473.95 2170.49 449.39 2154.93 449.39"/><polygon class="cls-3" points="2155.04 523.31 2163.62 496.22 2172.35 523.31 2155.04 523.31"/><polygon class="cls-2" points="2162.71 493.39 2165.81 483.76 2166 484.36 2162.93 494.07 2162.71 493.39"/><polygon class="cls-3" points="2159.69 483.48 2162.71 473.95 2162.51 473.34 2159.49 482.88 2159.69 483.48"/><polygon class="cls-2" points="2154.41 500.17 2154.41 467.63 2152.64 462.17 2152.64 505.73 2154.41 500.17"/><rect class="cls-4" x="2148.73" y="442.18" width="27.95" height="88.26"/><rect class="cls-4" x="2148.73" y="442.18" width="116.21" height="88.26"/><rect class="cls-1" x="2088.42" y="442.18" width="88.26" height="88.26"/><rect class="cls-2" x="2095.92" y="449.68" width="73.26" height="73.26"/><rect class="cls-1" x="2095.93" y="449.68" width="68.4" height="73.26"/><polygon class="cls-2" points="2169.18 510.58 2107.98 449.39 2095.92 449.39 2095.92 462.48 2156.75 523.31 2169.18 523.31 2169.18 510.58"/><polygon class="cls-1" points="2169.18 510.58 2107.98 449.39 2095.92 449.39 2095.92 457.4 2163 523.31 2169.18 523.31 2169.18 510.58"/><polygon class="cls-1" points="2095.92 510.58 2157.12 449.39 2169.18 449.39 2169.18 457.4 2102.1 523.31 2095.92 523.31 2095.92 510.58"/><polygon class="cls-2" points="2117.01 483.57 2096.11 504.48 2095.92 510.58 2119.97 486.53 2117.01 483.57"/><polygon class="cls-2" points="2151.2 449.39 2129.59 470.99 2132.55 473.95 2157.12 449.39 2151.2 449.39"/><polygon class="cls-3" points="2096.11 504.48 2117.01 483.57 2095.92 462.48 2096.11 504.48"/><polygon class="cls-3" points="2164.33 505.73 2164.33 462.17 2142.08 483.48 2164.33 505.73"/><polygon class="cls-3" points="2157.12 449.39 2132.55 473.95 2107.98 449.39 2157.12 449.39"/><polygon class="cls-3" points="2156.75 523.31 2129.67 496.22 2102.1 523.31 2156.75 523.31"/><polygon class="cls-2" points="2132.55 493.39 2122.75 483.76 2122.14 484.36 2131.86 494.07 2132.55 493.39"/><polygon class="cls-3" points="2142.08 483.48 2132.55 473.95 2133.16 473.34 2142.7 482.88 2142.08 483.48"/><rect class="cls-1" x="2060.47" y="442.18" width="27.95" height="88.26"/><rect class="cls-1" x="2064.38" y="449.68" width="21.66" height="73.26"/><polygon class="cls-2" points="2062.85 510.58 2082.23 449.39 2086.04 449.39 2086.04 462.48 2066.78 523.31 2062.85 523.31 2062.85 510.58"/><polygon class="cls-1" points="2062.85 510.58 2082.23 449.39 2086.04 449.39 2086.04 457.4 2064.8 523.31 2062.85 523.31 2062.85 510.58"/><polygon class="cls-1" points="2086.04 510.58 2066.67 449.39 2062.85 449.39 2062.85 457.4 2084.09 523.31 2086.04 523.31 2086.04 510.58"/><polygon class="cls-2" points="2079.37 483.57 2085.99 504.48 2086.04 510.58 2078.43 486.53 2079.37 483.57"/><polygon class="cls-2" points="2068.54 449.39 2075.38 470.99 2074.45 473.95 2066.67 449.39 2068.54 449.39"/><polygon class="cls-3" points="2085.99 504.48 2079.37 483.57 2086.04 462.48 2085.99 504.48"/><polygon class="cls-3" points="2064.38 505.73 2064.38 462.17 2071.43 483.48 2064.38 505.73"/><polygon class="cls-3" points="2066.67 449.39 2074.45 473.95 2082.23 449.39 2066.67 449.39"/><polygon class="cls-3" points="2066.78 523.31 2075.36 496.22 2084.09 523.31 2066.78 523.31"/><polygon class="cls-2" points="2074.45 493.39 2077.55 483.76 2077.74 484.36 2074.67 494.07 2074.45 493.39"/><polygon class="cls-3" points="2071.43 483.48 2074.45 473.95 2074.25 473.34 2071.23 482.88 2071.43 483.48"/><polygon class="cls-2" points="2066.14 500.17 2066.14 467.63 2064.38 462.17 2064.38 505.73 2066.14 500.17"/><rect class="cls-4" x="2060.47" y="442.18" width="27.95" height="88.26"/><rect class="cls-4" x="2060.47" y="442.18" width="116.21" height="88.26"/><rect class="cls-1" x="2176.68" y="353.92" width="88.26" height="88.26"/><rect class="cls-2" x="2184.18" y="361.42" width="73.26" height="73.26"/><rect class="cls-1" x="2184.19" y="361.42" width="68.4" height="73.26"/><polygon class="cls-2" points="2257.44 422.32 2196.25 361.13 2184.18 361.13 2184.18 374.22 2245.01 435.05 2257.44 435.05 2257.44 422.32"/><polygon class="cls-1" points="2257.44 422.32 2196.25 361.13 2184.18 361.13 2184.18 369.14 2251.26 435.05 2257.44 435.05 2257.44 422.32"/><polygon class="cls-1" points="2184.18 422.32 2245.38 361.13 2257.44 361.13 2257.44 369.14 2190.36 435.05 2184.18 435.05 2184.18 422.32"/><polygon class="cls-2" points="2205.27 395.31 2184.37 416.22 2184.18 422.32 2208.23 398.27 2205.27 395.31"/><polygon class="cls-2" points="2239.46 361.13 2217.85 382.73 2220.81 385.69 2245.38 361.13 2239.46 361.13"/><polygon class="cls-3" points="2184.37 416.22 2205.27 395.31 2184.18 374.22 2184.37 416.22"/><polygon class="cls-3" points="2252.58 417.47 2252.58 373.91 2230.34 395.22 2252.58 417.47"/><polygon class="cls-3" points="2245.38 361.13 2220.81 385.69 2196.25 361.13 2245.38 361.13"/><polygon class="cls-3" points="2245.01 435.05 2217.93 407.96 2190.36 435.05 2245.01 435.05"/><polygon class="cls-2" points="2220.81 405.13 2211.01 395.5 2210.4 396.1 2220.12 405.81 2220.81 405.13"/><polygon class="cls-3" points="2230.34 395.22 2220.81 385.69 2221.42 385.08 2230.96 394.62 2230.34 395.22"/><rect class="cls-1" x="2148.73" y="353.92" width="27.95" height="88.26"/><rect class="cls-1" x="2152.64" y="361.42" width="21.66" height="73.26"/><polygon class="cls-2" points="2151.11 422.32 2170.49 361.13 2174.31 361.13 2174.31 374.22 2155.04 435.05 2151.11 435.05 2151.11 422.32"/><polygon class="cls-1" points="2151.11 422.32 2170.49 361.13 2174.31 361.13 2174.31 369.14 2153.06 435.05 2151.11 435.05 2151.11 422.32"/><polygon class="cls-1" points="2174.31 422.32 2154.93 361.13 2151.11 361.13 2151.11 369.14 2172.35 435.05 2174.31 435.05 2174.31 422.32"/><polygon class="cls-2" points="2167.63 395.31 2174.25 416.22 2174.31 422.32 2166.69 398.27 2167.63 395.31"/><polygon class="cls-2" points="2156.8 361.13 2163.64 382.73 2162.71 385.69 2154.93 361.13 2156.8 361.13"/><polygon class="cls-3" points="2174.25 416.22 2167.63 395.31 2174.31 374.22 2174.25 416.22"/><polygon class="cls-3" points="2152.64 417.47 2152.64 373.91 2159.69 395.22 2152.64 417.47"/><polygon class="cls-3" points="2154.93 361.13 2162.71 385.69 2170.49 361.13 2154.93 361.13"/><polygon class="cls-3" points="2155.04 435.05 2163.62 407.96 2172.35 435.05 2155.04 435.05"/><polygon class="cls-2" points="2162.71 405.13 2165.81 395.5 2166 396.1 2162.93 405.81 2162.71 405.13"/><polygon class="cls-3" points="2159.69 395.22 2162.71 385.69 2162.51 385.08 2159.49 394.62 2159.69 395.22"/><polygon class="cls-2" points="2154.41 411.91 2154.41 379.37 2152.64 373.91 2152.64 417.47 2154.41 411.91"/><rect class="cls-4" x="2148.73" y="353.92" width="27.95" height="88.26"/><rect class="cls-4" x="2148.73" y="353.92" width="116.21" height="88.26"/><rect class="cls-1" x="2088.42" y="353.92" width="88.26" height="88.26"/><rect class="cls-2" x="2095.92" y="361.42" width="73.26" height="73.26"/><rect class="cls-1" x="2095.93" y="361.42" width="68.4" height="73.26"/><polygon class="cls-2" points="2169.18 422.32 2107.98 361.13 2095.92 361.13 2095.92 374.22 2156.75 435.05 2169.18 435.05 2169.18 422.32"/><polygon class="cls-1" points="2169.18 422.32 2107.98 361.13 2095.92 361.13 2095.92 369.14 2163 435.05 2169.18 435.05 2169.18 422.32"/><polygon class="cls-1" points="2095.92 422.32 2157.12 361.13 2169.18 361.13 2169.18 369.14 2102.1 435.05 2095.92 435.05 2095.92 422.32"/><polygon class="cls-2" points="2117.01 395.31 2096.11 416.22 2095.92 422.32 2119.97 398.27 2117.01 395.31"/><polygon class="cls-2" points="2151.2 361.13 2129.59 382.73 2132.55 385.69 2157.12 361.13 2151.2 361.13"/><polygon class="cls-3" points="2096.11 416.22 2117.01 395.31 2095.92 374.22 2096.11 416.22"/><polygon class="cls-3" points="2164.33 417.47 2164.33 373.91 2142.08 395.22 2164.33 417.47"/><polygon class="cls-3" points="2157.12 361.13 2132.55 385.69 2107.98 361.13 2157.12 361.13"/><polygon class="cls-3" points="2156.75 435.05 2129.67 407.96 2102.1 435.05 2156.75 435.05"/><polygon class="cls-2" points="2132.55 405.13 2122.75 395.5 2122.14 396.1 2131.86 405.81 2132.55 405.13"/><polygon class="cls-3" points="2142.08 395.22 2132.55 385.69 2133.16 385.08 2142.7 394.62 2142.08 395.22"/><rect class="cls-1" x="2060.47" y="353.92" width="27.95" height="88.26"/><rect class="cls-1" x="2064.38" y="361.42" width="21.66" height="73.26"/><polygon class="cls-2" points="2062.85 422.32 2082.23 361.13 2086.04 361.13 2086.04 374.22 2066.78 435.05 2062.85 435.05 2062.85 422.32"/><polygon class="cls-1" points="2062.85 422.32 2082.23 361.13 2086.04 361.13 2086.04 369.14 2064.8 435.05 2062.85 435.05 2062.85 422.32"/><polygon class="cls-1" points="2086.04 422.32 2066.67 361.13 2062.85 361.13 2062.85 369.14 2084.09 435.05 2086.04 435.05 2086.04 422.32"/><polygon class="cls-2" points="2079.37 395.31 2085.99 416.22 2086.04 422.32 2078.43 398.27 2079.37 395.31"/><polygon class="cls-2" points="2068.54 361.13 2075.38 382.73 2074.45 385.69 2066.67 361.13 2068.54 361.13"/><polygon class="cls-3" points="2085.99 416.22 2079.37 395.31 2086.04 374.22 2085.99 416.22"/><polygon class="cls-3" points="2064.38 417.47 2064.38 373.91 2071.43 395.22 2064.38 417.47"/><polygon class="cls-3" points="2066.67 361.13 2074.45 385.69 2082.23 361.13 2066.67 361.13"/><polygon class="cls-3" points="2066.78 435.05 2075.36 407.96 2084.09 435.05 2066.78 435.05"/><polygon class="cls-2" points="2074.45 405.13 2077.55 395.5 2077.74 396.1 2074.67 405.81 2074.45 405.13"/><polygon class="cls-3" points="2071.43 395.22 2074.45 385.69 2074.25 385.08 2071.23 394.62 2071.43 395.22"/><polygon class="cls-2" points="2066.14 411.91 2066.14 379.37 2064.38 373.91 2064.38 417.47 2066.14 411.91"/><rect class="cls-4" x="2060.47" y="353.92" width="27.95" height="88.26"/><rect class="cls-4" x="2060.47" y="353.92" width="116.21" height="88.26"/><path class="cls-1" d="M2072.27,530.47c31.83-13.79,54.68-52.58,66.93-122,9-51,9-98.79,9-99.27h-7.37c0,1.87-.67,183.79-71.44,214.44Z"/><path class="cls-5" d="M2072.27,530.47c31.83-13.79,54.68-52.58,66.93-122,9-51,9-98.79,9-99.27h-7.37c0,1.87,1.54,183.22-70.89,214.44Z"/><path class="cls-6" d="M2072.27,530.47c31.83-13.79,54.68-52.58,66.93-122,9-51,9-98.79,9-99.27h-7.37c0,1.87,3.75,182.66-70.33,214.44Z"/><path class="cls-7" d="M2072.27,530.47c31.83-13.79,54.68-52.58,66.93-122,9-51,9-98.79,9-99.27h-7.37c0,1.87,6,182.1-69.77,214.44Z"/><path class="cls-8" d="M2072.27,530.47c31.83-13.79,54.68-52.58,66.93-122,9-51,9-98.79,9-99.27h-7.37c0,1.87,8.16,181.53-69.22,214.44Z"/><path class="cls-9" d="M2072.27,530.47c31.83-13.79,54.68-52.58,66.93-122,9-51,9-98.79,9-99.27h-7.37c0,1.87,10.37,181-68.66,214.44Z"/><path class="cls-10" d="M2072.27,530.47c31.83-13.79,54.68-52.58,66.93-122,9-51,9-98.79,9-99.27h-7.37c0,1.87,12.58,180.41-68.11,214.44Z"/><polygon class="cls-1" points="2003.67 530.44 2072.67 530.44 2072.67 523.7 2003.67 525.86 2003.67 530.44"/><polygon class="cls-1" points="2011.39 523.67 2072.67 523.67 2072.67 516.94 2011.39 519.1 2011.39 523.67"/><polygon class="cls-1" points="2016.16 516.94 2067.68 516.94 2067.68 510.2 2016.16 512.36 2016.16 516.94"/><rect class="cls-1" x="2262.35" y="419.86" width="110.61" height="110.61"/><rect class="cls-2" x="2271.75" y="429.26" width="91.81" height="91.81"/><rect class="cls-1" x="2271.75" y="429.26" width="85.72" height="91.81"/><polygon class="cls-2" points="2363.56 505.58 2286.87 428.9 2271.75 428.9 2271.75 445.3 2347.98 521.53 2363.56 521.53 2363.56 505.58"/><polygon class="cls-1" points="2363.56 505.58 2286.87 428.9 2271.75 428.9 2271.75 438.94 2355.81 521.53 2363.56 521.53 2363.56 505.58"/><polygon class="cls-1" points="2271.75 505.58 2348.44 428.9 2363.56 428.9 2363.56 438.94 2279.49 521.53 2271.75 521.53 2271.75 505.58"/><polygon class="cls-2" points="2298.18 471.73 2271.98 497.93 2271.75 505.58 2301.89 475.44 2298.18 471.73"/><polygon class="cls-2" points="2341.02 428.9 2313.94 455.97 2317.65 459.68 2348.44 428.9 2341.02 428.9"/><polygon class="cls-3" points="2271.98 497.93 2298.18 471.73 2271.75 445.3 2271.98 497.93"/><polygon class="cls-3" points="2357.47 499.5 2357.47 444.92 2329.59 471.62 2357.47 499.5"/><polygon class="cls-3" points="2348.44 428.9 2317.65 459.68 2286.87 428.9 2348.44 428.9"/><polygon class="cls-3" points="2347.98 521.53 2314.04 487.59 2279.49 521.53 2347.98 521.53"/><polygon class="cls-2" points="2317.65 484.04 2305.37 471.97 2304.61 472.72 2316.78 484.9 2317.65 484.04"/><polygon class="cls-3" points="2329.59 471.62 2317.65 459.68 2318.42 458.91 2330.37 470.86 2329.59 471.62"/><rect class="cls-1" x="2227.32" y="419.86" width="35.03" height="110.61"/><rect class="cls-1" x="2232.23" y="429.26" width="27.15" height="91.81"/><polygon class="cls-2" points="2230.3 505.58 2254.58 428.9 2259.37 428.9 2259.37 445.3 2235.23 521.53 2230.3 521.53 2230.3 505.58"/><polygon class="cls-1" points="2230.3 505.58 2254.58 428.9 2259.37 428.9 2259.37 438.94 2232.75 521.53 2230.3 521.53 2230.3 505.58"/><polygon class="cls-1" points="2259.37 505.58 2235.09 428.9 2230.3 428.9 2230.3 438.94 2256.92 521.53 2259.37 521.53 2259.37 505.58"/><polygon class="cls-2" points="2251 471.73 2259.3 497.93 2259.37 505.58 2249.83 475.44 2251 471.73"/><polygon class="cls-2" points="2237.44 428.9 2246.01 455.97 2244.83 459.68 2235.09 428.9 2237.44 428.9"/><polygon class="cls-3" points="2259.3 497.93 2251 471.73 2259.37 445.3 2259.3 497.93"/><polygon class="cls-3" points="2232.23 499.5 2232.23 444.92 2241.06 471.62 2232.23 499.5"/><polygon class="cls-3" points="2235.09 428.9 2244.83 459.68 2254.58 428.9 2235.09 428.9"/><polygon class="cls-3" points="2235.23 521.53 2245.98 487.59 2256.92 521.53 2235.23 521.53"/><polygon class="cls-2" points="2244.83 484.04 2248.73 471.97 2248.96 472.72 2245.11 484.9 2244.83 484.04"/><polygon class="cls-3" points="2241.06 471.62 2244.83 459.68 2244.59 458.91 2240.81 470.86 2241.06 471.62"/><polygon class="cls-2" points="2234.43 492.53 2234.43 451.76 2232.23 444.92 2232.23 499.5 2234.43 492.53"/><rect class="cls-4" x="2227.32" y="419.86" width="35.03" height="110.61"/><rect class="cls-1" x="2178.26" y="309.25" width="110.61" height="110.61"/><rect class="cls-2" x="2187.66" y="318.65" width="91.81" height="91.81"/><rect class="cls-1" x="2187.67" y="318.65" width="85.72" height="91.81"/><polygon class="cls-2" points="2279.47 394.97 2202.78 318.29 2187.66 318.29 2187.66 334.69 2263.89 410.92 2279.47 410.92 2279.47 394.97"/><polygon class="cls-1" points="2279.47 394.97 2202.78 318.29 2187.66 318.29 2187.66 328.33 2271.73 410.92 2279.47 410.92 2279.47 394.97"/><polygon class="cls-1" points="2187.66 394.97 2264.35 318.29 2279.47 318.29 2279.47 328.33 2195.41 410.92 2187.66 410.92 2187.66 394.97"/><polygon class="cls-2" points="2214.09 361.12 2187.89 387.32 2187.66 394.97 2217.8 364.83 2214.09 361.12"/><polygon class="cls-2" points="2256.93 318.29 2229.86 345.36 2233.57 349.07 2264.35 318.29 2256.93 318.29"/><polygon class="cls-3" points="2187.89 387.32 2214.09 361.12 2187.66 334.69 2187.89 387.32"/><polygon class="cls-3" points="2273.39 388.89 2273.39 334.31 2245.5 361.01 2273.39 388.89"/><polygon class="cls-3" points="2264.35 318.29 2233.57 349.07 2202.78 318.29 2264.35 318.29"/><polygon class="cls-3" points="2263.89 410.92 2229.95 376.98 2195.41 410.92 2263.89 410.92"/><polygon class="cls-2" points="2233.57 373.43 2221.28 361.36 2220.52 362.11 2232.7 374.29 2233.57 373.43"/><polygon class="cls-3" points="2245.5 361.01 2233.57 349.07 2234.33 348.3 2246.29 360.25 2245.5 361.01"/><rect class="cls-1" x="2143.23" y="309.25" width="35.03" height="110.61"/><rect class="cls-1" x="2148.14" y="318.65" width="27.15" height="91.81"/><polygon class="cls-2" points="2146.21 394.97 2170.5 318.29 2175.28 318.29 2175.28 334.69 2151.14 410.92 2146.21 410.92 2146.21 394.97"/><polygon class="cls-1" points="2146.21 394.97 2170.5 318.29 2175.28 318.29 2175.28 328.33 2148.66 410.92 2146.21 410.92 2146.21 394.97"/><polygon class="cls-1" points="2175.28 394.97 2151 318.29 2146.21 318.29 2146.21 328.33 2172.83 410.92 2175.28 410.92 2175.28 394.97"/><polygon class="cls-2" points="2166.91 361.12 2175.21 387.32 2175.28 394.97 2165.74 364.83 2166.91 361.12"/><polygon class="cls-2" points="2153.35 318.29 2161.92 345.36 2160.75 349.07 2151 318.29 2153.35 318.29"/><polygon class="cls-3" points="2175.21 387.32 2166.91 361.12 2175.28 334.69 2175.21 387.32"/><polygon class="cls-3" points="2148.14 388.89 2148.14 334.31 2156.97 361.01 2148.14 388.89"/><polygon class="cls-3" points="2151 318.29 2160.75 349.07 2170.5 318.29 2151 318.29"/><polygon class="cls-3" points="2151.14 410.92 2161.89 376.98 2172.83 410.92 2151.14 410.92"/><polygon class="cls-2" points="2160.75 373.43 2164.64 361.36 2164.88 362.11 2161.02 374.29 2160.75 373.43"/><polygon class="cls-3" points="2156.97 361.01 2160.75 349.07 2160.5 348.3 2156.72 360.25 2156.97 361.01"/><polygon class="cls-2" points="2150.35 381.92 2150.35 341.15 2148.14 334.31 2148.14 388.89 2150.35 381.92"/><rect class="cls-4" x="2143.24" y="309.25" width="35.03" height="110.61"/><rect class="cls-1" x="2151.74" y="419.86" width="110.61" height="110.61"/><rect class="cls-2" x="2161.14" y="429.26" width="91.81" height="91.81"/><rect class="cls-1" x="2161.14" y="429.26" width="85.72" height="91.81"/><polygon class="cls-2" points="2252.95 505.58 2176.26 428.9 2161.14 428.9 2161.14 445.3 2237.37 521.53 2252.95 521.53 2252.95 505.58"/><polygon class="cls-1" points="2252.95 505.58 2176.26 428.9 2161.14 428.9 2161.14 438.94 2245.2 521.53 2252.95 521.53 2252.95 505.58"/><polygon class="cls-1" points="2161.14 505.58 2237.83 428.9 2252.95 428.9 2252.95 438.94 2168.88 521.53 2161.14 521.53 2161.14 505.58"/><polygon class="cls-2" points="2187.57 471.73 2161.37 497.93 2161.14 505.58 2191.28 475.44 2187.57 471.73"/><polygon class="cls-2" points="2230.41 428.9 2203.33 455.97 2207.04 459.68 2237.83 428.9 2230.41 428.9"/><polygon class="cls-3" points="2161.37 497.93 2187.57 471.73 2161.14 445.3 2161.37 497.93"/><polygon class="cls-3" points="2246.86 499.5 2246.86 444.92 2218.98 471.62 2246.86 499.5"/><polygon class="cls-3" points="2237.83 428.9 2207.04 459.68 2176.26 428.9 2237.83 428.9"/><polygon class="cls-3" points="2237.37 521.53 2203.43 487.59 2168.88 521.53 2237.37 521.53"/><polygon class="cls-2" points="2207.04 484.04 2194.76 471.97 2194 472.72 2206.17 484.9 2207.04 484.04"/><polygon class="cls-3" points="2218.98 471.62 2207.04 459.68 2207.81 458.91 2219.76 470.86 2218.98 471.62"/><rect class="cls-1" x="2116.71" y="419.86" width="35.03" height="110.61"/><rect class="cls-1" x="2121.61" y="429.26" width="27.15" height="91.81"/><polygon class="cls-2" points="2119.69 505.58 2143.97 428.9 2148.76 428.9 2148.76 445.3 2124.62 521.53 2119.69 521.53 2119.69 505.58"/><polygon class="cls-1" points="2119.69 505.58 2143.97 428.9 2148.76 428.9 2148.76 438.94 2122.14 521.53 2119.69 521.53 2119.69 505.58"/><polygon class="cls-1" points="2148.76 505.58 2124.48 428.9 2119.69 428.9 2119.69 438.94 2146.31 521.53 2148.76 521.53 2148.76 505.58"/><polygon class="cls-2" points="2140.39 471.73 2148.69 497.93 2148.76 505.58 2139.22 475.44 2140.39 471.73"/><polygon class="cls-2" points="2126.83 428.9 2135.4 455.97 2134.22 459.68 2124.48 428.9 2126.83 428.9"/><polygon class="cls-3" points="2148.69 497.93 2140.39 471.73 2148.76 445.3 2148.69 497.93"/><polygon class="cls-3" points="2121.62 499.5 2121.62 444.92 2130.44 471.62 2121.62 499.5"/><polygon class="cls-3" points="2124.48 428.9 2134.22 459.68 2143.97 428.9 2124.48 428.9"/><polygon class="cls-3" points="2124.62 521.53 2135.37 487.59 2146.31 521.53 2124.62 521.53"/><polygon class="cls-2" points="2134.22 484.04 2138.12 471.97 2138.35 472.72 2134.5 484.9 2134.22 484.04"/><polygon class="cls-3" points="2130.44 471.62 2134.22 459.68 2133.98 458.91 2130.2 470.86 2130.44 471.62"/><polygon class="cls-2" points="2123.82 492.53 2123.82 451.76 2121.62 444.92 2121.62 499.5 2123.82 492.53"/><rect class="cls-4" x="2116.71" y="419.86" width="35.03" height="110.61"/><rect class="cls-1" x="2002.14" y="523.7" width="70.53" height="6.73"/><polygon class="cls-5" points="2002.39 524.07 2002.39 530.44 2072.67 530.44 2072.67 523.7 2002.39 524.07"/><polygon class="cls-6" points="2002.65 524.42 2002.65 530.44 2072.67 530.44 2072.67 523.7 2002.65 524.42"/><polygon class="cls-7" points="2002.9 524.78 2002.9 530.44 2072.67 530.44 2072.67 523.7 2002.9 524.78"/><polygon class="cls-8" points="2003.16 525.14 2003.16 530.44 2072.67 530.44 2072.67 523.7 2003.16 525.14"/><polygon class="cls-9" points="2003.41 525.5 2003.41 530.44 2072.67 530.44 2072.67 523.7 2003.41 525.5"/><polygon class="cls-10" points="2003.67 530.44 2072.67 530.44 2072.67 523.7 2003.67 525.86 2003.67 530.44"/><rect class="cls-1" x="2010.03" y="516.94" width="62.64" height="6.73"/><polygon class="cls-5" points="2010.25 517.3 2010.25 523.67 2072.67 523.67 2072.67 516.94 2010.25 517.3"/><polygon class="cls-6" points="2010.48 517.66 2010.48 523.67 2072.67 523.67 2072.67 516.94 2010.48 517.66"/><polygon class="cls-7" points="2010.71 518.02 2010.71 523.67 2072.67 523.67 2072.67 516.94 2010.71 518.02"/><polygon class="cls-8" points="2010.93 518.38 2010.93 523.67 2072.67 523.67 2072.67 516.94 2010.93 518.38"/><polygon class="cls-9" points="2011.16 518.74 2011.16 523.67 2072.67 523.67 2072.67 516.94 2011.16 518.74"/><polygon class="cls-10" points="2011.39 523.67 2072.67 523.67 2072.67 516.94 2011.39 519.1 2011.39 523.67"/><rect class="cls-1" x="2015.02" y="510.2" width="52.67" height="6.73"/><polygon class="cls-5" points="2015.21 516.94 2067.68 516.94 2067.68 510.2 2015.21 510.56 2015.21 516.94"/><polygon class="cls-6" points="2015.4 516.94 2067.68 516.94 2067.68 510.2 2015.4 510.92 2015.4 516.94"/><polygon class="cls-7" points="2015.59 516.94 2067.68 516.94 2067.68 510.2 2015.59 511.28 2015.59 516.94"/><polygon class="cls-8" points="2015.78 516.94 2067.68 516.94 2067.68 510.2 2015.78 511.64 2015.78 516.94"/><polygon class="cls-9" points="2015.97 516.94 2067.68 516.94 2067.68 510.2 2015.97 512 2015.97 516.94"/><polygon class="cls-10" points="2016.16 516.94 2067.68 516.94 2067.68 510.2 2016.16 512.36 2016.16 516.94"/><polygon class="cls-2" points="2208.29 0 2225.09 0 2283.3 530.47 2266.5 530.47 2208.29 0"/><polygon class="cls-11" points="2209.69 0 2225.09 0 2283.3 530.47 2267.9 530.47 2209.69 0"/><polygon class="cls-12" points="2211.09 0 2225.09 0 2283.3 530.47 2269.3 530.47 2211.09 0"/><polygon class="cls-13" points="2212.49 0 2225.09 0 2283.3 530.47 2270.7 530.47 2212.49 0"/><polygon class="cls-14" points="2213.89 0 2225.09 0 2283.3 530.47 2272.1 530.47 2213.89 0"/><polygon class="cls-15" points="2215.29 0 2225.09 0 2283.3 530.47 2273.5 530.47 2215.29 0"/><polygon class="cls-10" points="2216.69 0 2225.09 0 2283.3 530.47 2274.9 530.47 2216.69 0"/><polygon class="cls-16" points="480.26 378.42 466.94 392.85 461.91 401.98 458.42 423.57 463.15 420.52 477.85 414.25 490.08 403.34 491.25 391.24 483.13 386.93 480.26 378.42"/><polygon class="cls-17" points="488.18 402.9 489.35 390.8 482.18 386.41 480.26 378.42 466.94 392.85 461.91 401.98 458.42 423.57 463.15 420.52 475.95 413.81 488.18 402.9"/><polygon class="cls-18" points="486.28 402.45 487.45 390.35 481.22 385.89 480.26 378.42 466.94 392.85 461.91 401.98 458.42 423.57 463.15 420.52 474.05 413.36 486.28 402.45"/><polygon class="cls-19" points="484.38 402.01 485.54 389.91 480.27 385.37 480.26 378.42 466.94 392.85 461.91 401.98 458.42 423.57 463.15 420.52 472.15 412.92 484.38 402.01"/><polygon class="cls-20" points="482.48 401.57 483.64 389.47 479.32 384.85 480.26 378.42 466.94 392.85 461.91 401.98 458.42 423.57 463.15 420.52 470.24 412.48 482.48 401.57"/><polygon class="cls-21" points="480.57 401.12 481.74 389.02 478.37 384.33 480.26 378.42 466.94 392.85 461.91 401.98 458.42 423.57 463.15 420.52 468.34 412.04 480.57 401.12"/><polygon class="cls-22" points="480.26 378.42 466.94 392.85 461.91 401.98 458.42 423.57 463.15 420.52 466.44 411.59 478.67 400.68 479.84 388.58 477.41 383.8 480.26 378.42"/><path class="cls-22" d="M466.77,422.2s25.14,8.55,33.28-10-17.73-29.36-17.73-29.36l-.17,2.57,8.22,15.47-3.6,2.42-14.83,10.24-7.54,6.12Z"/><path class="cls-23" d="M469,420.73s23.66,8.31,31.09-8.53c8.19-18.52-17.73-29.36-17.73-29.36l-.17,2.57,8.22,15.47-3.6,2.42-13.84,9.56-7.28,5.78Z"/><path class="cls-24" d="M471.15,419.31s22.19,8.06,28.9-7.13c8.22-18.5-17.73-29.36-17.73-29.36l-.17,2.57,8.22,15.47-3.6,2.42-12.86,8.92-7,5.44Z"/><path class="cls-25" d="M473.34,417.89s20.71,7.81,26.71-5.69c8.26-18.49-17.73-29.36-17.73-29.36l-.17,2.57,8.22,15.47-3.6,2.42-11.87,8.2-6.73,5.1Z"/><path class="cls-26" d="M475.53,416.46s19.24,7.57,24.52-4.26c8.29-18.47-17.73-29.36-17.73-29.36l-.17,2.57,8.22,15.47-3.6,2.42-10.89,7.52-6.45,4.76Z"/><path class="cls-27" d="M477.73,415s17.75,7.32,22.32-2.84c8.33-18.45-17.73-29.36-17.73-29.36l-.17,2.57,8.22,15.47-3.6,2.42-9.9,6.84-6.19,4.42Z"/><path class="cls-28" d="M479.92,413.61s16.28,7.08,20.13-1.41c8.36-18.44-17.73-29.36-17.73-29.36l-.17,2.57,8.22,15.47-3.6,2.42-8.92,6.16-5.91,4.08Z"/><g class="cls-29"><path class="cls-30" d="M469.37,419.2s26.83,1.51,30.68-7c8.36-18.44-17.73-29.36-17.73-29.36l-.17,2.57,11,17.43-6.33.46-14.83,10.24-4.09,3.32Z"/><path class="cls-31" d="M482.29,383.25l1.54,4.78,8.22,14.86-7.74,2.1-13,9.08-3.2,3.13s5.73,2.2,6.38.78,19.82-3,23-10.12C504.49,392.52,482.29,383.25,482.29,383.25Z"/><path class="cls-32" d="M482.26,383.68l3.25,7L491,403l-9.16,3.72-11.25,7.93-2.22,3s10,2.06,11.24-.77c1.41-3.12,12.83-7.58,15.4-13.26C500.58,391.3,482.26,383.68,482.26,383.68Z"/><path class="cls-33" d="M482.23,384.11l5,9.18,2.74,9.76-10.58,5.35-9.49,6.8L468.61,418s14.17,1.92,16.1-2.33c2.12-4.68,5.84-12.12,7.77-16.38C496.66,390.08,482.23,384.11,482.23,384.11Z"/><path class="cls-34" d="M482.2,384.54l6.68,11.38v7.21l-12,7-7.66,5.62-.35,2.67s18.39,1.79,21-3.89c2.82-6.23-1.16-16.67.13-19.5C492.74,388.86,482.2,384.54,482.2,384.54Z"/><path class="cls-35" d="M482.18,385l8.38,13.59-2.73,4.64-13.42,8.61-5.87,4.47.58,2.51s22.61,1.65,25.82-5.44c3.53-7.8-8.15-21.22-7.51-22.63C488.82,387.64,482.18,385,482.18,385Z"/><path class="cls-36" d="M469.37,419.2s26.83,1.51,30.68-7c4.25-9.36-15.14-25.76-15.14-25.76l-2.76-1,10.1,15.76-5.48,2.09-14.83,10.24-4.09,3.32Z"/></g><path class="cls-30" d="M489.19,401l1.92-.64s18.84,4.2,15.37,15.89c-2,6.71-7.28,9.75-17.41,6.33,0,0,3.4-1.72,8.61-6.7a5,5,0,0,0,1.19-5.54C497.9,408.08,495.41,404.75,489.19,401Z"/><path class="cls-37" d="M506.13,416.52c-2.08,6.13-7.08,9.68-17.08,6.1,0,0,3.4-1.72,8.61-6.7a5,5,0,0,0,1.19-5.54c-1-2.3-3.46-5.63-9.68-9.34l1.92-.45h.15c1.14.27,12.39,3.64,15,10.3A8.2,8.2,0,0,1,506.13,416.52Z"/><path class="cls-33" d="M505.78,416.75c-2.22,5.56-6.82,9.57-16.71,5.87,0,0,3.4-1.72,8.61-6.7a5,5,0,0,0,1.19-5.54c-1-2.3-3.46-5.63-9.68-9.34l1.92-.26h.16c.91.22,12.18,4.07,14.76,10.44A7.65,7.65,0,0,1,505.78,416.75Z"/><path class="cls-38" d="M505.42,417c-2.32,5-6.58,9.48-16.35,5.64,0,0,3.4-1.72,8.61-6.7a5,5,0,0,0,1.19-5.54c-1-2.3-3.46-5.63-9.68-9.34l1.91-.06h.18c.68.17,12,4.48,14.57,10.57A7.07,7.07,0,0,1,505.42,417Z"/><path class="cls-39" d="M505.05,417.2c-2.42,4.4-6.35,9.39-16,5.41,0,0,3.4-1.72,8.61-6.7a5,5,0,0,0,1.19-5.54c-1-2.3-3.46-5.63-9.68-9.34l1.91.13h.19c.45.11,11.75,4.9,14.38,10.7A6.53,6.53,0,0,1,505.05,417.2Z"/><path class="cls-40" d="M504.71,417.44c-2.5,3.83-6.11,9.3-15.64,5.18,0,0,3.4-1.72,8.61-6.7a5,5,0,0,0,1.19-5.54c-1-2.3-3.46-5.63-9.68-9.34l1.91.32.2.06c.23,0,11.54,5.32,14.18,10.83C506.18,413.68,505.62,416.06,504.71,417.44Z"/><path class="cls-28" d="M489.19,401l2.12.57s11.33,5.74,14,11c.71,1.39,0,3.88-.94,5.1-2.59,3.27-5.88,9.21-15.29,5,0,0,3.4-1.72,8.61-6.7a5,5,0,0,0,1.19-5.54C497.9,408.08,495.41,404.75,489.19,401Z"/><polygon class="cls-22" points="487.12 401.03 467.09 415.27 458.42 423.57 463.41 423.38 469.32 416.06 492.25 401.19 483.33 384.15 482.06 380.13 480.26 378.42 479.97 384.74 488.57 399.73 487.12 401.03"/><polygon class="cls-23" points="488.81 399.8 487.3 401.11 467.16 415.42 458.7 423.56 463.41 423.38 469.32 416.06 492.25 401.19 483.33 384.15 482.06 380.13 480.43 378.58 480.23 384.71 488.81 399.8"/><polygon class="cls-24" points="489.05 399.87 487.48 401.2 467.24 415.58 458.98 423.55 463.41 423.38 469.32 416.06 492.25 401.19 483.33 384.15 482.06 380.13 480.59 378.73 480.48 384.69 489.05 399.87"/><polygon class="cls-25" points="489.28 399.94 487.67 401.28 467.32 415.74 459.26 423.54 463.41 423.38 469.32 416.06 492.25 401.19 483.33 384.15 482.06 380.13 480.75 378.89 480.74 384.66 489.28 399.94"/><polygon class="cls-26" points="489.52 400 487.85 401.36 467.39 415.9 459.53 423.53 463.41 423.38 469.32 416.06 492.25 401.19 483.33 384.15 482.06 380.13 480.91 379.04 481 384.64 489.52 400"/><polygon class="cls-27" points="489.75 400.07 488.03 401.45 467.47 416.06 459.81 423.52 463.41 423.38 469.32 416.06 492.25 401.19 483.33 384.15 482.06 380.13 481.08 379.2 481.26 384.61 489.75 400.07"/><polygon class="cls-28" points="488.21 401.53 467.54 416.21 460.09 423.51 463.41 423.38 469.32 416.06 492.25 401.19 483.33 384.15 482.06 380.13 481.24 379.35 481.51 384.59 489.99 400.13 488.21 401.53"/><polygon class="cls-30" points="488.21 401.53 467.54 416.21 460.09 423.51 463.41 423.38 469.32 416.06 492.25 401.19 483.33 384.15 482.06 380.13 481.24 379.35 481.51 384.59 489.99 400.13 488.21 401.53"/><polygon class="cls-37" points="492.08 401.12 483.33 384.15 482.06 380.13 481.24 379.35 481.51 384.59 489.99 400.13 488.21 401.53 467.54 416.21 460.09 423.51 463.41 423.38 469.32 416.06 492.08 401.12"/><polygon class="cls-33" points="491.91 401.05 483.33 384.15 482.06 380.13 481.24 379.35 481.51 384.59 489.99 400.13 488.21 401.53 467.54 416.21 460.09 423.51 463.41 423.38 469.32 416.06 491.91 401.05"/><polygon class="cls-38" points="491.75 400.98 483.33 384.15 482.06 380.13 481.24 379.35 481.51 384.59 489.99 400.13 488.21 401.53 467.54 416.21 460.09 423.51 463.41 423.38 469.32 416.06 491.75 400.98"/><polygon class="cls-39" points="491.58 400.91 483.33 384.15 482.06 380.13 481.24 379.35 481.51 384.59 489.99 400.13 488.21 401.53 467.54 416.21 460.09 423.51 463.41 423.38 469.32 416.06 491.58 400.91"/><polygon class="cls-40" points="491.41 400.84 483.33 384.15 482.06 380.13 481.24 379.35 481.51 384.59 489.99 400.13 488.21 401.53 467.54 416.21 460.09 423.51 463.41 423.38 469.32 416.06 491.41 400.84"/><polygon class="cls-28" points="488.21 401.53 467.54 416.21 460.09 423.51 463.41 423.38 469.32 416.06 491.25 400.77 483.33 384.15 482.06 380.13 481.24 379.35 481.51 384.59 489.99 400.13 488.21 401.53"/><rect class="cls-1" x="430.85" y="434.47" width="10.4" height="96"/><rect class="cls-1" x="469.65" y="434.47" width="10.4" height="96"/><rect class="cls-1" x="615.25" y="434.47" width="10.4" height="96"/><rect class="cls-1" x="685.25" y="434.47" width="10.4" height="96"/><rect class="cls-1" x="430.85" y="424.07" width="264.8" height="10.4"/><rect class="cls-4" x="430.85" y="424.07" width="264.8" height="10.4"/><rect class="cls-1" x="430.85" y="424.07" width="194.8" height="10.4"/><rect class="cls-4" x="469.65" y="434.47" width="10.4" height="96"/><rect class="cls-4" x="685.25" y="434.47" width="10.4" height="96"/><rect class="cls-41" x="685.25" y="434.47" width="10.4" height="65.2"/><rect class="cls-42" x="685.25" y="434.47" width="10.4" height="56.46"/><rect class="cls-43" x="685.25" y="434.47" width="10.4" height="47.72"/><rect class="cls-44" x="685.25" y="434.47" width="10.4" height="38.98"/><rect class="cls-45" x="685.25" y="434.47" width="10.4" height="30.24"/><rect class="cls-46" x="685.25" y="434.47" width="10.4" height="21.5"/><rect class="cls-47" x="685.25" y="434.47" width="10.4" height="12.76"/><rect class="cls-2" x="685.25" y="434.47" width="10.4" height="4.02"/><rect class="cls-41" x="625.65" y="424.07" width="70" height="10.4"/><rect class="cls-42" x="625.65" y="424.07" width="70" height="9.01"/><rect class="cls-43" x="625.65" y="424.07" width="70" height="7.61"/><rect class="cls-44" x="625.65" y="424.07" width="70" height="6.22"/><rect class="cls-45" x="625.65" y="424.07" width="70" height="4.82"/><rect class="cls-46" x="625.65" y="424.07" width="70" height="3.43"/><rect class="cls-47" x="625.65" y="424.07" width="70" height="2.04"/><rect class="cls-2" x="625.65" y="424.07" width="70" height="0.64"/><rect class="cls-41" x="615.25" y="434.47" width="10.4" height="65.2"/><rect class="cls-48" x="615.25" y="434.47" width="10.4" height="56.46"/><rect class="cls-49" x="615.25" y="434.47" width="10.4" height="47.72"/><rect class="cls-50" x="615.25" y="434.47" width="10.4" height="38.98"/><rect class="cls-51" x="615.25" y="434.47" width="10.4" height="30.24"/><rect class="cls-52" x="615.25" y="434.47" width="10.4" height="21.5"/><rect class="cls-53" x="615.25" y="434.47" width="10.4" height="12.76"/><rect class="cls-4" x="615.25" y="434.47" width="10.4" height="4.02"/><rect class="cls-41" x="430.85" y="424.07" width="194.8" height="10.4"/><rect class="cls-48" x="430.85" y="424.07" width="194.8" height="9.01"/><rect class="cls-49" x="430.85" y="424.07" width="194.8" height="7.61"/><rect class="cls-50" x="430.85" y="424.07" width="194.8" height="6.22"/><rect class="cls-51" x="430.85" y="424.07" width="194.8" height="4.82"/><rect class="cls-52" x="430.85" y="424.07" width="194.8" height="3.43"/><rect class="cls-53" x="430.85" y="424.07" width="194.8" height="2.04"/><rect class="cls-4" x="430.85" y="424.07" width="194.8" height="0.64"/><rect class="cls-41" x="430.85" y="434.47" width="10.4" height="65.2"/><rect class="cls-48" x="430.85" y="434.47" width="10.4" height="56.46"/><rect class="cls-49" x="430.85" y="434.47" width="10.4" height="47.72"/><rect class="cls-50" x="430.85" y="434.47" width="10.4" height="38.98"/><rect class="cls-51" x="430.85" y="434.47" width="10.4" height="30.24"/><rect class="cls-52" x="430.85" y="434.47" width="10.4" height="21.5"/><rect class="cls-53" x="430.85" y="434.47" width="10.4" height="12.76"/><rect class="cls-4" x="430.85" y="434.47" width="10.4" height="4.02"/><rect class="cls-41" x="469.65" y="434.47" width="10.4" height="65.2"/><rect class="cls-42" x="469.65" y="434.47" width="10.4" height="56.46"/><rect class="cls-43" x="469.65" y="434.47" width="10.4" height="47.72"/><rect class="cls-44" x="469.65" y="434.47" width="10.4" height="38.98"/><rect class="cls-45" x="469.65" y="434.47" width="10.4" height="30.24"/><rect class="cls-46" x="469.65" y="434.47" width="10.4" height="21.5"/><rect class="cls-47" x="469.65" y="434.47" width="10.4" height="12.76"/><rect class="cls-2" x="469.65" y="434.47" width="10.4" height="4.02"/><rect class="cls-1" x="108.01" y="442.18" width="88.26" height="88.26"/><rect class="cls-2" x="115.52" y="449.68" width="73.26" height="73.26"/><rect class="cls-1" x="120.37" y="449.68" width="68.4" height="73.26"/><polygon class="cls-2" points="115.52 510.58 176.71 449.39 188.77 449.39 188.77 462.48 127.95 523.31 115.52 523.31 115.52 510.58"/><polygon class="cls-1" points="115.52 510.58 176.71 449.39 188.77 449.39 188.77 457.4 121.69 523.31 115.52 523.31 115.52 510.58"/><polygon class="cls-1" points="188.77 510.58 127.58 449.39 115.52 449.39 115.52 457.4 182.59 523.31 188.77 523.31 188.77 510.58"/><polygon class="cls-2" points="167.68 483.57 188.59 504.48 188.77 510.58 164.72 486.53 167.68 483.57"/><polygon class="cls-2" points="133.5 449.39 155.1 470.99 152.14 473.95 127.58 449.39 133.5 449.39"/><polygon class="cls-3" points="188.59 504.48 167.68 483.57 188.77 462.48 188.59 504.48"/><polygon class="cls-3" points="120.37 505.73 120.37 462.17 142.62 483.48 120.37 505.73"/><polygon class="cls-3" points="127.58 449.39 152.14 473.95 176.71 449.39 127.58 449.39"/><polygon class="cls-3" points="127.95 523.31 155.03 496.22 182.59 523.31 127.95 523.31"/><polygon class="cls-2" points="152.14 493.39 161.95 483.76 162.55 484.36 152.84 494.07 152.14 493.39"/><polygon class="cls-3" points="142.62 483.48 152.14 473.95 151.53 473.34 141.99 482.88 142.62 483.48"/><rect class="cls-1" x="196.28" y="442.18" width="27.95" height="88.26"/><rect class="cls-1" x="198.65" y="449.68" width="21.66" height="73.26"/><polygon class="cls-2" points="221.85 510.58 202.47 449.39 198.65 449.39 198.65 462.48 217.91 523.31 221.85 523.31 221.85 510.58"/><polygon class="cls-1" points="221.85 510.58 202.47 449.39 198.65 449.39 198.65 457.4 219.89 523.31 221.85 523.31 221.85 510.58"/><polygon class="cls-1" points="198.65 510.58 218.03 449.39 221.85 449.39 221.85 457.4 200.61 523.31 198.65 523.31 198.65 510.58"/><polygon class="cls-2" points="205.33 483.57 198.71 504.48 198.65 510.58 206.27 486.53 205.33 483.57"/><polygon class="cls-2" points="216.15 449.39 209.31 470.99 210.25 473.95 218.03 449.39 216.15 449.39"/><polygon class="cls-3" points="198.71 504.48 205.33 483.57 198.65 462.48 198.71 504.48"/><polygon class="cls-3" points="220.31 505.73 220.31 462.17 213.27 483.48 220.31 505.73"/><polygon class="cls-3" points="218.03 449.39 210.25 473.95 202.47 449.39 218.03 449.39"/><polygon class="cls-3" points="217.91 523.31 209.34 496.22 200.61 523.31 217.91 523.31"/><polygon class="cls-2" points="210.25 493.39 207.14 483.76 206.95 484.36 210.03 494.07 210.25 493.39"/><polygon class="cls-3" points="213.27 483.48 210.25 473.95 210.44 473.34 213.46 482.88 213.27 483.48"/><polygon class="cls-2" points="218.55 500.17 218.55 467.63 220.31 462.17 220.31 505.73 218.55 500.17"/><rect class="cls-4" x="196.27" y="442.18" width="27.95" height="88.26"/><rect class="cls-4" x="108.01" y="442.18" width="116.21" height="88.26"/><rect class="cls-1" x="196.27" y="442.18" width="88.26" height="88.26"/><rect class="cls-2" x="203.78" y="449.68" width="73.26" height="73.26"/><rect class="cls-1" x="208.63" y="449.68" width="68.4" height="73.26"/><polygon class="cls-2" points="203.78 510.58 264.97 449.39 277.03 449.39 277.03 462.48 216.21 523.31 203.78 523.31 203.78 510.58"/><polygon class="cls-1" points="203.78 510.58 264.97 449.39 277.03 449.39 277.03 457.4 209.95 523.31 203.78 523.31 203.78 510.58"/><polygon class="cls-1" points="277.03 510.58 215.84 449.39 203.78 449.39 203.78 457.4 270.85 523.31 277.03 523.31 277.03 510.58"/><polygon class="cls-2" points="255.94 483.57 276.85 504.48 277.03 510.58 252.98 486.53 255.94 483.57"/><polygon class="cls-2" points="221.76 449.39 243.37 470.99 240.41 473.95 215.84 449.39 221.76 449.39"/><polygon class="cls-3" points="276.85 504.48 255.94 483.57 277.03 462.48 276.85 504.48"/><polygon class="cls-3" points="208.63 505.73 208.63 462.17 230.88 483.48 208.63 505.73"/><polygon class="cls-3" points="215.84 449.39 240.41 473.95 264.97 449.39 215.84 449.39"/><polygon class="cls-3" points="216.21 523.31 243.29 496.22 270.85 523.31 216.21 523.31"/><polygon class="cls-2" points="240.41 493.39 250.21 483.76 250.81 484.36 241.1 494.07 240.41 493.39"/><polygon class="cls-3" points="230.88 483.48 240.41 473.95 239.79 473.34 230.26 482.88 230.88 483.48"/><rect class="cls-1" x="284.53" y="442.18" width="27.95" height="88.26"/><rect class="cls-1" x="286.91" y="449.68" width="21.66" height="73.26"/><polygon class="cls-2" points="310.11 510.58 290.73 449.39 286.91 449.39 286.91 462.48 306.17 523.31 310.11 523.31 310.11 510.58"/><polygon class="cls-1" points="310.11 510.58 290.73 449.39 286.91 449.39 286.91 457.4 308.15 523.31 310.11 523.31 310.11 510.58"/><polygon class="cls-1" points="286.91 510.58 306.29 449.39 310.11 449.39 310.11 457.4 288.87 523.31 286.91 523.31 286.91 510.58"/><polygon class="cls-2" points="293.59 483.57 286.97 504.48 286.91 510.58 294.53 486.53 293.59 483.57"/><polygon class="cls-2" points="304.41 449.39 297.57 470.99 298.51 473.95 306.29 449.39 304.41 449.39"/><polygon class="cls-3" points="286.97 504.48 293.59 483.57 286.91 462.48 286.97 504.48"/><polygon class="cls-3" points="308.57 505.73 308.57 462.17 301.53 483.48 308.57 505.73"/><polygon class="cls-3" points="306.29 449.39 298.51 473.95 290.73 449.39 306.29 449.39"/><polygon class="cls-3" points="306.17 523.31 297.6 496.22 288.87 523.31 306.17 523.31"/><polygon class="cls-2" points="298.51 493.39 295.41 483.76 295.21 484.36 298.29 494.07 298.51 493.39"/><polygon class="cls-3" points="301.53 483.48 298.51 473.95 298.7 473.34 301.72 482.88 301.53 483.48"/><polygon class="cls-2" points="306.81 500.17 306.81 467.63 308.57 462.17 308.57 505.73 306.81 500.17"/><rect class="cls-4" x="284.54" y="442.18" width="27.95" height="88.26"/><rect class="cls-4" x="196.27" y="442.18" width="116.21" height="88.26"/><rect class="cls-1" x="108.01" y="353.92" width="88.26" height="88.26"/><rect class="cls-2" x="115.52" y="361.42" width="73.26" height="73.26"/><rect class="cls-1" x="120.37" y="361.42" width="68.4" height="73.26"/><polygon class="cls-2" points="115.52 422.32 176.71 361.13 188.77 361.13 188.77 374.22 127.95 435.05 115.52 435.05 115.52 422.32"/><polygon class="cls-1" points="115.52 422.32 176.71 361.13 188.77 361.13 188.77 369.14 121.69 435.05 115.52 435.05 115.52 422.32"/><polygon class="cls-1" points="188.77 422.32 127.58 361.13 115.52 361.13 115.52 369.14 182.59 435.05 188.77 435.05 188.77 422.32"/><polygon class="cls-2" points="167.68 395.31 188.59 416.22 188.77 422.32 164.72 398.27 167.68 395.31"/><polygon class="cls-2" points="133.5 361.13 155.1 382.73 152.14 385.69 127.58 361.13 133.5 361.13"/><polygon class="cls-3" points="188.59 416.22 167.68 395.31 188.77 374.22 188.59 416.22"/><polygon class="cls-3" points="120.37 417.47 120.37 373.91 142.62 395.22 120.37 417.47"/><polygon class="cls-3" points="127.58 361.13 152.14 385.69 176.71 361.13 127.58 361.13"/><polygon class="cls-3" points="127.95 435.05 155.03 407.96 182.59 435.05 127.95 435.05"/><polygon class="cls-2" points="152.14 405.13 161.95 395.5 162.55 396.1 152.84 405.81 152.14 405.13"/><polygon class="cls-3" points="142.62 395.22 152.14 385.69 151.53 385.08 141.99 394.62 142.62 395.22"/><rect class="cls-1" x="196.28" y="353.92" width="27.95" height="88.26"/><rect class="cls-1" x="198.65" y="361.42" width="21.66" height="73.26"/><polygon class="cls-2" points="221.85 422.32 202.47 361.13 198.65 361.13 198.65 374.22 217.91 435.05 221.85 435.05 221.85 422.32"/><polygon class="cls-1" points="221.85 422.32 202.47 361.13 198.65 361.13 198.65 369.14 219.89 435.05 221.85 435.05 221.85 422.32"/><polygon class="cls-1" points="198.65 422.32 218.03 361.13 221.85 361.13 221.85 369.14 200.61 435.05 198.65 435.05 198.65 422.32"/><polygon class="cls-2" points="205.33 395.31 198.71 416.22 198.65 422.32 206.27 398.27 205.33 395.31"/><polygon class="cls-2" points="216.15 361.13 209.31 382.73 210.25 385.69 218.03 361.13 216.15 361.13"/><polygon class="cls-3" points="198.71 416.22 205.33 395.31 198.65 374.22 198.71 416.22"/><polygon class="cls-3" points="220.31 417.47 220.31 373.91 213.27 395.22 220.31 417.47"/><polygon class="cls-3" points="218.03 361.13 210.25 385.69 202.47 361.13 218.03 361.13"/><polygon class="cls-3" points="217.91 435.05 209.34 407.96 200.61 435.05 217.91 435.05"/><polygon class="cls-2" points="210.25 405.13 207.14 395.5 206.95 396.1 210.03 405.81 210.25 405.13"/><polygon class="cls-3" points="213.27 395.22 210.25 385.69 210.44 385.08 213.46 394.62 213.27 395.22"/><polygon class="cls-2" points="218.55 411.91 218.55 379.37 220.31 373.91 220.31 417.47 218.55 411.91"/><rect class="cls-4" x="196.27" y="353.92" width="27.95" height="88.26"/><rect class="cls-4" x="108.01" y="353.92" width="116.21" height="88.26"/><rect class="cls-1" x="196.27" y="353.92" width="88.26" height="88.26"/><rect class="cls-2" x="203.78" y="361.42" width="73.26" height="73.26"/><rect class="cls-1" x="208.63" y="361.42" width="68.4" height="73.26"/><polygon class="cls-2" points="203.78 422.32 264.97 361.13 277.03 361.13 277.03 374.22 216.21 435.05 203.78 435.05 203.78 422.32"/><polygon class="cls-1" points="203.78 422.32 264.97 361.13 277.03 361.13 277.03 369.14 209.95 435.05 203.78 435.05 203.78 422.32"/><polygon class="cls-1" points="277.03 422.32 215.84 361.13 203.78 361.13 203.78 369.14 270.85 435.05 277.03 435.05 277.03 422.32"/><polygon class="cls-2" points="255.94 395.31 276.85 416.22 277.03 422.32 252.98 398.27 255.94 395.31"/><polygon class="cls-2" points="221.76 361.13 243.37 382.73 240.41 385.69 215.84 361.13 221.76 361.13"/><polygon class="cls-3" points="276.85 416.22 255.94 395.31 277.03 374.22 276.85 416.22"/><polygon class="cls-3" points="208.63 417.47 208.63 373.91 230.88 395.22 208.63 417.47"/><polygon class="cls-3" points="215.84 361.13 240.41 385.69 264.97 361.13 215.84 361.13"/><polygon class="cls-3" points="216.21 435.05 243.29 407.96 270.85 435.05 216.21 435.05"/><polygon class="cls-2" points="240.41 405.13 250.21 395.5 250.81 396.1 241.1 405.81 240.41 405.13"/><polygon class="cls-3" points="230.88 395.22 240.41 385.69 239.79 385.08 230.26 394.62 230.88 395.22"/><rect class="cls-1" x="284.53" y="353.92" width="27.95" height="88.26"/><rect class="cls-1" x="286.91" y="361.42" width="21.66" height="73.26"/><polygon class="cls-2" points="310.11 422.32 290.73 361.13 286.91 361.13 286.91 374.22 306.17 435.05 310.11 435.05 310.11 422.32"/><polygon class="cls-1" points="310.11 422.32 290.73 361.13 286.91 361.13 286.91 369.14 308.15 435.05 310.11 435.05 310.11 422.32"/><polygon class="cls-1" points="286.91 422.32 306.29 361.13 310.11 361.13 310.11 369.14 288.87 435.05 286.91 435.05 286.91 422.32"/><polygon class="cls-2" points="293.59 395.31 286.97 416.22 286.91 422.32 294.53 398.27 293.59 395.31"/><polygon class="cls-2" points="304.41 361.13 297.57 382.73 298.51 385.69 306.29 361.13 304.41 361.13"/><polygon class="cls-3" points="286.97 416.22 293.59 395.31 286.91 374.22 286.97 416.22"/><polygon class="cls-3" points="308.57 417.47 308.57 373.91 301.53 395.22 308.57 417.47"/><polygon class="cls-3" points="306.29 361.13 298.51 385.69 290.73 361.13 306.29 361.13"/><polygon class="cls-3" points="306.17 435.05 297.6 407.96 288.87 435.05 306.17 435.05"/><polygon class="cls-2" points="298.51 405.13 295.41 395.5 295.21 396.1 298.29 405.81 298.51 405.13"/><polygon class="cls-3" points="301.53 395.22 298.51 385.69 298.7 385.08 301.72 394.62 301.53 395.22"/><polygon class="cls-2" points="306.81 411.91 306.81 379.37 308.57 373.91 308.57 417.47 306.81 411.91"/><rect class="cls-4" x="284.54" y="353.92" width="27.95" height="88.26"/><rect class="cls-4" x="196.27" y="353.92" width="116.21" height="88.26"/><rect class="cls-1" x="162.21" y="265.66" width="88.26" height="88.26"/><rect class="cls-2" x="169.71" y="273.16" width="73.26" height="73.26"/><rect class="cls-1" x="174.56" y="273.16" width="68.4" height="73.26"/><polygon class="cls-2" points="169.71 334.06 230.9 272.87 242.96 272.87 242.96 285.96 182.14 346.78 169.71 346.78 169.71 334.06"/><polygon class="cls-1" points="169.71 334.06 230.9 272.87 242.96 272.87 242.96 280.88 175.89 346.78 169.71 346.78 169.71 334.06"/><polygon class="cls-1" points="242.96 334.06 181.77 272.87 169.71 272.87 169.71 280.88 236.79 346.78 242.96 346.78 242.96 334.06"/><polygon class="cls-2" points="221.87 307.05 242.78 327.95 242.96 334.06 218.91 310.01 221.87 307.05"/><polygon class="cls-2" points="187.69 272.87 209.3 294.47 206.34 297.43 181.77 272.87 187.69 272.87"/><polygon class="cls-3" points="242.78 327.95 221.87 307.05 242.96 285.96 242.78 327.95"/><polygon class="cls-3" points="174.56 329.2 174.56 285.65 196.81 306.96 174.56 329.2"/><polygon class="cls-3" points="181.77 272.87 206.34 297.43 230.9 272.87 181.77 272.87"/><polygon class="cls-3" points="182.14 346.78 209.22 319.7 236.79 346.78 182.14 346.78"/><polygon class="cls-2" points="206.34 316.87 216.14 307.24 216.74 307.84 207.03 317.55 206.34 316.87"/><polygon class="cls-3" points="196.81 306.96 206.34 297.43 205.72 296.82 196.19 306.35 196.81 306.96"/><rect class="cls-1" x="250.46" y="265.66" width="27.95" height="88.26"/><rect class="cls-1" x="252.85" y="273.16" width="21.66" height="73.26"/><polygon class="cls-2" points="276.04 334.06 256.66 272.87 252.84 272.87 252.84 285.96 272.1 346.78 276.04 346.78 276.04 334.06"/><polygon class="cls-1" points="276.04 334.06 256.66 272.87 252.84 272.87 252.84 280.88 274.08 346.78 276.04 346.78 276.04 334.06"/><polygon class="cls-1" points="252.84 334.06 272.22 272.87 276.04 272.87 276.04 280.88 254.8 346.78 252.84 346.78 252.84 334.06"/><polygon class="cls-2" points="259.52 307.05 252.9 327.95 252.84 334.06 260.46 310.01 259.52 307.05"/><polygon class="cls-2" points="270.34 272.87 263.5 294.47 264.44 297.43 272.22 272.87 270.34 272.87"/><polygon class="cls-3" points="252.9 327.95 259.52 307.05 252.84 285.96 252.9 327.95"/><polygon class="cls-3" points="274.5 329.2 274.5 285.65 267.46 306.96 274.5 329.2"/><polygon class="cls-3" points="272.22 272.87 264.44 297.43 256.66 272.87 272.22 272.87"/><polygon class="cls-3" points="272.1 346.78 263.53 319.7 254.8 346.78 272.1 346.78"/><polygon class="cls-2" points="264.44 316.87 261.34 307.24 261.15 307.84 264.22 317.55 264.44 316.87"/><polygon class="cls-3" points="267.46 306.96 264.44 297.43 264.64 296.82 267.66 306.35 267.46 306.96"/><polygon class="cls-2" points="272.74 323.65 272.74 291.11 274.5 285.65 274.5 329.2 272.74 323.65"/><rect class="cls-4" x="250.47" y="265.66" width="27.95" height="88.26"/><rect class="cls-4" x="162.21" y="265.66" width="116.21" height="88.26"/><path class="cls-1" d="M300.69,530.47c-31.84-13.79-54.68-52.58-66.94-122-9-51-9-98.79-9-99.27h7.38c0,1.87.67,183.79,71.44,214.44Z"/><path class="cls-5" d="M300.69,530.47c-31.84-13.79-54.68-52.58-66.94-122-9-51-9-98.79-9-99.27h7.38c0,1.87-1.54,183.22,70.88,214.44Z"/><path class="cls-6" d="M300.69,530.47c-31.84-13.79-54.68-52.58-66.94-122-9-51-9-98.79-9-99.27h7.38c0,1.87-3.75,182.66,70.33,214.44Z"/><path class="cls-7" d="M300.69,530.47c-31.84-13.79-54.68-52.58-66.94-122-9-51-9-98.79-9-99.27h7.38c0,1.87-6,182.1,69.77,214.44Z"/><path class="cls-8" d="M300.69,530.47c-31.84-13.79-54.68-52.58-66.94-122-9-51-9-98.79-9-99.27h7.38c0,1.87-8.17,181.53,69.21,214.44Z"/><path class="cls-9" d="M300.69,530.47c-31.84-13.79-54.68-52.58-66.94-122-9-51-9-98.79-9-99.27h7.38c0,1.87-10.38,181,68.66,214.44Z"/><path class="cls-10" d="M300.69,530.47c-31.84-13.79-54.68-52.58-66.94-122-9-51-9-98.79-9-99.27h7.38c0,1.87-12.59,180.41,68.1,214.44Z"/><polygon class="cls-1" points="369.29 530.44 300.28 530.44 300.28 523.7 369.29 525.86 369.29 530.44"/><polygon class="cls-1" points="361.57 523.67 300.28 523.67 300.28 516.94 361.57 519.1 361.57 523.67"/><polygon class="cls-1" points="356.8 516.94 305.27 516.94 305.27 510.2 356.8 512.36 356.8 516.94"/><rect class="cls-1" y="419.86" width="110.61" height="110.61"/><rect class="cls-2" x="9.4" y="429.26" width="91.81" height="91.81"/><rect class="cls-1" x="15.48" y="429.26" width="85.72" height="91.81"/><polygon class="cls-2" points="9.4 505.58 86.09 428.9 101.21 428.9 101.21 445.3 24.98 521.53 9.4 521.53 9.4 505.58"/><polygon class="cls-1" points="9.4 505.58 86.09 428.9 101.21 428.9 101.21 438.94 17.14 521.53 9.4 521.53 9.4 505.58"/><polygon class="cls-1" points="101.21 505.58 24.52 428.9 9.4 428.9 9.4 438.94 93.46 521.53 101.21 521.53 101.21 505.58"/><polygon class="cls-2" points="74.78 471.73 100.97 497.93 101.21 505.58 71.06 475.44 74.78 471.73"/><polygon class="cls-2" points="31.94 428.9 59.01 455.97 55.3 459.68 24.52 428.9 31.94 428.9"/><polygon class="cls-3" points="100.97 497.93 74.78 471.73 101.21 445.3 100.97 497.93"/><polygon class="cls-3" points="15.48 499.5 15.48 444.92 43.37 471.62 15.48 499.5"/><polygon class="cls-3" points="24.52 428.9 55.3 459.68 86.09 428.9 24.52 428.9"/><polygon class="cls-3" points="24.98 521.53 58.92 487.59 93.46 521.53 24.98 521.53"/><polygon class="cls-2" points="55.3 484.04 67.59 471.97 68.35 472.72 56.17 484.9 55.3 484.04"/><polygon class="cls-3" points="43.37 471.62 55.3 459.68 54.53 458.91 42.58 470.86 43.37 471.62"/><rect class="cls-1" x="110.6" y="419.86" width="35.03" height="110.61"/><rect class="cls-1" x="113.59" y="429.26" width="27.15" height="91.81"/><polygon class="cls-2" points="142.66 505.58 118.37 428.9 113.58 428.9 113.58 445.3 137.72 521.53 142.66 521.53 142.66 505.58"/><polygon class="cls-1" points="142.66 505.58 118.37 428.9 113.58 428.9 113.58 438.94 140.2 521.53 142.66 521.53 142.66 505.58"/><polygon class="cls-1" points="113.58 505.58 137.87 428.9 142.66 428.9 142.66 438.94 116.04 521.53 113.58 521.53 113.58 505.58"/><polygon class="cls-2" points="121.95 471.73 113.66 497.93 113.58 505.58 123.13 475.44 121.95 471.73"/><polygon class="cls-2" points="135.52 428.9 126.95 455.97 128.12 459.68 137.87 428.9 135.52 428.9"/><polygon class="cls-3" points="113.66 497.93 121.95 471.73 113.58 445.3 113.66 497.93"/><polygon class="cls-3" points="140.73 499.5 140.73 444.92 131.9 471.62 140.73 499.5"/><polygon class="cls-3" points="137.87 428.9 128.12 459.68 118.37 428.9 137.87 428.9"/><polygon class="cls-3" points="137.72 521.53 126.98 487.59 116.04 521.53 137.72 521.53"/><polygon class="cls-2" points="128.12 484.04 124.23 471.97 123.99 472.72 127.84 484.9 128.12 484.04"/><polygon class="cls-3" points="131.9 471.62 128.12 459.68 128.36 458.91 132.15 470.86 131.9 471.62"/><polygon class="cls-2" points="138.52 492.53 138.52 451.76 140.73 444.92 140.73 499.5 138.52 492.53"/><rect class="cls-4" x="110.61" y="419.86" width="35.03" height="110.61"/><rect class="cls-1" x="84.08" y="309.25" width="110.61" height="110.61"/><rect class="cls-2" x="93.49" y="318.65" width="91.81" height="91.81"/><rect class="cls-1" x="99.57" y="318.65" width="85.72" height="91.81"/><polygon class="cls-2" points="93.49 394.97 170.18 318.29 185.29 318.29 185.29 334.69 109.06 410.92 93.49 410.92 93.49 394.97"/><polygon class="cls-1" points="93.49 394.97 170.18 318.29 185.29 318.29 185.29 328.33 101.23 410.92 93.49 410.92 93.49 394.97"/><polygon class="cls-1" points="185.29 394.97 108.6 318.29 93.49 318.29 93.49 328.33 177.55 410.92 185.29 410.92 185.29 394.97"/><polygon class="cls-2" points="158.86 361.12 185.06 387.32 185.29 394.97 155.15 364.83 158.86 361.12"/><polygon class="cls-2" points="116.02 318.29 143.1 345.36 139.39 349.07 108.6 318.29 116.02 318.29"/><polygon class="cls-3" points="185.06 387.32 158.86 361.12 185.29 334.69 185.06 387.32"/><polygon class="cls-3" points="99.57 388.89 99.57 334.31 127.45 361.01 99.57 388.89"/><polygon class="cls-3" points="108.6 318.29 139.39 349.07 170.18 318.29 108.6 318.29"/><polygon class="cls-3" points="109.06 410.92 143 376.98 177.55 410.92 109.06 410.92"/><polygon class="cls-2" points="139.39 373.43 151.68 361.36 152.43 362.11 140.26 374.29 139.39 373.43"/><polygon class="cls-3" points="127.45 361.01 139.39 349.07 138.62 348.3 126.67 360.25 127.45 361.01"/><rect class="cls-1" x="194.7" y="309.25" width="35.03" height="110.61"/><rect class="cls-1" x="197.67" y="318.65" width="27.15" height="91.81"/><polygon class="cls-2" points="226.74 394.97 202.46 318.29 197.67 318.29 197.67 334.69 221.81 410.92 226.74 410.92 226.74 394.97"/><polygon class="cls-1" points="226.74 394.97 202.46 318.29 197.67 318.29 197.67 328.33 224.29 410.92 226.74 410.92 226.74 394.97"/><polygon class="cls-1" points="197.67 394.97 221.96 318.29 226.74 318.29 226.74 328.33 200.12 410.92 197.67 410.92 197.67 394.97"/><polygon class="cls-2" points="206.04 361.12 197.75 387.32 197.67 394.97 207.22 364.83 206.04 361.12"/><polygon class="cls-2" points="219.61 318.29 211.03 345.36 212.21 349.07 221.96 318.29 219.61 318.29"/><polygon class="cls-3" points="197.75 387.32 206.04 361.12 197.67 334.69 197.75 387.32"/><polygon class="cls-3" points="224.82 388.89 224.82 334.31 215.99 361.01 224.82 388.89"/><polygon class="cls-3" points="221.96 318.29 212.21 349.07 202.46 318.29 221.96 318.29"/><polygon class="cls-3" points="221.81 410.92 211.06 376.98 200.12 410.92 221.81 410.92"/><polygon class="cls-2" points="212.21 373.43 208.32 361.36 208.08 362.11 211.93 374.29 212.21 373.43"/><polygon class="cls-3" points="215.99 361.01 212.21 349.07 212.45 348.3 216.24 360.25 215.99 361.01"/><polygon class="cls-2" points="222.61 381.92 222.61 341.15 224.82 334.31 224.82 388.89 222.61 381.92"/><rect class="cls-4" x="194.69" y="309.25" width="35.03" height="110.61"/><rect class="cls-1" x="110.61" y="419.86" width="110.61" height="110.61"/><rect class="cls-2" x="120.01" y="429.26" width="91.81" height="91.81"/><rect class="cls-1" x="126.09" y="429.26" width="85.72" height="91.81"/><polygon class="cls-2" points="120.01 505.58 196.7 428.9 211.82 428.9 211.82 445.3 135.59 521.53 120.01 521.53 120.01 505.58"/><polygon class="cls-1" points="120.01 505.58 196.7 428.9 211.82 428.9 211.82 438.94 127.75 521.53 120.01 521.53 120.01 505.58"/><polygon class="cls-1" points="211.82 505.58 135.13 428.9 120.01 428.9 120.01 438.94 204.07 521.53 211.82 521.53 211.82 505.58"/><polygon class="cls-2" points="185.39 471.73 211.59 497.93 211.82 505.58 181.68 475.44 185.39 471.73"/><polygon class="cls-2" points="142.55 428.9 169.62 455.97 165.91 459.68 135.13 428.9 142.55 428.9"/><polygon class="cls-3" points="211.59 497.93 185.39 471.73 211.82 445.3 211.59 497.93"/><polygon class="cls-3" points="126.09 499.5 126.09 444.92 153.98 471.62 126.09 499.5"/><polygon class="cls-3" points="135.13 428.9 165.91 459.68 196.7 428.9 135.13 428.9"/><polygon class="cls-3" points="135.59 521.53 169.53 487.59 204.07 521.53 135.59 521.53"/><polygon class="cls-2" points="165.91 484.04 178.2 471.97 178.96 472.72 166.78 484.9 165.91 484.04"/><polygon class="cls-3" points="153.98 471.62 165.91 459.68 165.15 458.91 153.19 470.86 153.98 471.62"/><rect class="cls-1" x="221.21" y="419.86" width="35.03" height="110.61"/><rect class="cls-1" x="224.19" y="429.26" width="27.15" height="91.81"/><polygon class="cls-2" points="253.27 505.58 228.98 428.9 224.19 428.9 224.19 445.3 248.33 521.53 253.27 521.53 253.27 505.58"/><polygon class="cls-1" points="253.27 505.58 228.98 428.9 224.19 428.9 224.19 438.94 250.81 521.53 253.27 521.53 253.27 505.58"/><polygon class="cls-1" points="224.19 505.58 248.48 428.9 253.27 428.9 253.27 438.94 226.65 521.53 224.19 521.53 224.19 505.58"/><polygon class="cls-2" points="232.56 471.73 224.27 497.93 224.19 505.58 233.74 475.44 232.56 471.73"/><polygon class="cls-2" points="246.13 428.9 237.56 455.97 238.73 459.68 248.48 428.9 246.13 428.9"/><polygon class="cls-3" points="224.27 497.93 232.56 471.73 224.19 445.3 224.27 497.93"/><polygon class="cls-3" points="251.34 499.5 251.34 444.92 242.51 471.62 251.34 499.5"/><polygon class="cls-3" points="248.48 428.9 238.73 459.68 228.98 428.9 248.48 428.9"/><polygon class="cls-3" points="248.33 521.53 237.59 487.59 226.65 521.53 248.33 521.53"/><polygon class="cls-2" points="238.73 484.04 234.84 471.97 234.6 472.72 238.46 484.9 238.73 484.04"/><polygon class="cls-3" points="242.51 471.62 238.73 459.68 238.97 458.91 242.76 470.86 242.51 471.62"/><polygon class="cls-2" points="249.13 492.53 249.13 451.76 251.34 444.92 251.34 499.5 249.13 492.53"/><rect class="cls-4" x="221.22" y="419.86" width="35.03" height="110.61"/><rect class="cls-1" x="300.28" y="523.7" width="70.53" height="6.73"/><polygon class="cls-5" points="370.56 524.07 370.56 530.44 300.28 530.44 300.28 523.7 370.56 524.07"/><polygon class="cls-6" points="370.31 524.42 370.31 530.44 300.28 530.44 300.28 523.7 370.31 524.42"/><polygon class="cls-7" points="370.05 524.78 370.05 530.44 300.28 530.44 300.28 523.7 370.05 524.78"/><polygon class="cls-8" points="369.8 525.14 369.8 530.44 300.28 530.44 300.28 523.7 369.8 525.14"/><polygon class="cls-9" points="369.54 525.5 369.54 530.44 300.28 530.44 300.28 523.7 369.54 525.5"/><polygon class="cls-10" points="369.29 530.44 300.28 530.44 300.28 523.7 369.29 525.86 369.29 530.44"/><rect class="cls-1" x="300.28" y="516.94" width="62.64" height="6.73"/><polygon class="cls-5" points="362.7 517.3 362.7 523.67 300.28 523.67 300.28 516.94 362.7 517.3"/><polygon class="cls-6" points="362.48 517.66 362.48 523.67 300.28 523.67 300.28 516.94 362.48 517.66"/><polygon class="cls-7" points="362.25 518.02 362.25 523.67 300.28 523.67 300.28 516.94 362.25 518.02"/><polygon class="cls-8" points="362.02 518.38 362.02 523.67 300.28 523.67 300.28 516.94 362.02 518.38"/><polygon class="cls-9" points="361.8 518.74 361.8 523.67 300.28 523.67 300.28 516.94 361.8 518.74"/><polygon class="cls-10" points="361.57 523.67 300.28 523.67 300.28 516.94 361.57 519.1 361.57 523.67"/><rect class="cls-1" x="305.27" y="510.2" width="52.67" height="6.73"/><polygon class="cls-5" points="357.75 516.94 305.27 516.94 305.27 510.2 357.75 510.56 357.75 516.94"/><polygon class="cls-6" points="357.56 516.94 305.27 516.94 305.27 510.2 357.56 510.92 357.56 516.94"/><polygon class="cls-7" points="357.37 516.94 305.27 516.94 305.27 510.2 357.37 511.28 357.37 516.94"/><polygon class="cls-8" points="357.18 516.94 305.27 516.94 305.27 510.2 357.18 511.64 357.18 516.94"/><polygon class="cls-9" points="356.99 516.94 305.27 516.94 305.27 510.2 356.99 512 356.99 516.94"/><polygon class="cls-10" points="356.8 516.94 305.27 516.94 305.27 510.2 356.8 512.36 356.8 516.94"/><polygon class="cls-2" points="720.55 22.37 737.35 22.37 879.85 530.47 863.05 530.47 720.55 22.37"/><polygon class="cls-11" points="721.95 22.37 737.35 22.37 879.85 530.47 864.45 530.47 721.95 22.37"/><polygon class="cls-12" points="723.35 22.37 737.35 22.37 879.85 530.47 865.85 530.47 723.35 22.37"/><polygon class="cls-13" points="724.75 22.37 737.35 22.37 879.85 530.47 867.25 530.47 724.75 22.37"/><polygon class="cls-14" points="726.15 22.37 737.35 22.37 879.85 530.47 868.65 530.47 726.15 22.37"/><polygon class="cls-15" points="727.55 22.37 737.35 22.37 879.85 530.47 870.05 530.47 727.55 22.37"/><polygon class="cls-10" points="728.95 22.37 737.35 22.37 879.85 530.47 871.45 530.47 728.95 22.37"/></g></g></g></svg>