<?xml version="1.0" encoding="utf-8"?>
<!-- Generator: Adobe Illustrator 23.1.0, SVG Export Plug-In . SVG Version: 6.00 Build 0)  -->
<svg version="1.1" id="Layer_1" xmlns="http://www.w3.org/2000/svg" xmlns:xlink="http://www.w3.org/1999/xlink" x="0px" y="0px"
	 viewBox="0 0 2671.8 779.3" style="enable-background:new 0 0 2671.8 779.3;" xml:space="preserve">
<style type="text/css">
	.st0{fill:#491B02;}
	.st1{fill:#532409;}
	.st2{fill:#5C2D10;}
	.st3{fill:#663617;}
	.st4{fill:#6F3F1E;}
	.st5{fill:#784825;}
	.st6{fill:#82512C;}
	.st7{fill:#878787;}
	.st8{fill:#949494;}
	.st9{fill:#A0A0A0;}
	.st10{fill:#ADADAD;}
	.st11{fill:#BABABA;}
	.st12{fill:#C6C6C6;}
	.st13{fill:#D3D3D3;}
</style>
<title>Tenda</title>
<g>
	<g id="Layer_1-2">
		<g>
			<polygon class="st0" points="161.6,266.1 144.8,266.1 0,779.3 16.8,779.3 			"/>
			<polygon class="st1" points="160.2,266.1 144.8,266.1 0,779.3 15.4,779.3 			"/>
			<polygon class="st2" points="158.8,266.1 144.8,266.1 0,779.3 14,779.3 			"/>
			<polygon class="st3" points="157.4,266.1 144.8,266.1 0,779.3 12.6,779.3 			"/>
			<polygon class="st4" points="156,266.1 144.8,266.1 0,779.3 11.2,779.3 			"/>
			<polygon class="st5" points="154.6,266.1 144.8,266.1 0,779.3 9.8,779.3 			"/>
			<polygon class="st6" points="153.2,266.1 144.8,266.1 0,779.3 8.4,779.3 			"/>
		</g>
		<polygon class="st0" points="1900.6,0 1917.4,0 1907.3,779.3 1890.5,779.3 		"/>
		<polygon class="st1" points="1902,0 1917.4,0 1907.3,779.3 1891.9,779.3 		"/>
		<polygon class="st2" points="1903.4,0 1917.4,0 1907.3,779.3 1893.3,779.3 		"/>
		<polygon class="st3" points="1904.8,0 1917.4,0 1907.3,779.3 1894.7,779.3 		"/>
		<polygon class="st4" points="1906.2,0 1917.4,0 1907.3,779.3 1896.1,779.3 		"/>
		<polygon class="st5" points="1907.6,0 1917.4,0 1907.3,779.3 1897.5,779.3 		"/>
		<polygon class="st6" points="1909,0 1917.4,0 1907.3,779.3 1898.9,779.3 		"/>
		<path class="st7" d="M2671.8,268.1c0,0-622.2,130.3-765.7-268.1c0,0,68,300.9,333.3,291.3l39.1,6.4l102.1,36.8l153.9-9.6
			l108.3-35.2L2671.8,268.1z"/>
		<path class="st8" d="M2671.8,268.1c0,0-619.5,140.6-765.7-268.1c0,0,67.3,303.5,332.6,293.9l39.2,7.4l102.8,33.2l153.9-9.6
			l108.3-35.2L2671.8,268.1z"/>
		<path class="st9" d="M2671.8,268.1c0,0-616.8,150.9-765.7-268.1c0,0,66.5,306.1,331.9,296.5l39.3,8.4l103.4,29.6l153.9-9.6
			l108.3-35.2L2671.8,268.1z"/>
		<path class="st10" d="M2671.8,268.1c0,0-614,161.1-765.7-268.1c0,0,65.8,308.7,331.2,299.1l39.4,9.3l104,26l153.9-9.6l108.3-35.2
			L2671.8,268.1z"/>
		<path class="st11" d="M2671.8,268.1c0,0-611.3,171.4-765.7-268.1c0,0,65.1,311.3,330.4,301.7l39.5,10.3l104.6,22.5l153.9-9.6
			l108.3-35.2L2671.8,268.1z"/>
		<path class="st12" d="M2671.8,268.1c0,0-608.6,181.7-765.7-268.1c0,0,64.3,314,329.7,304.4l39.6,11.3l105.3,18.9l153.9-9.6
			l108.3-35.2L2671.8,268.1z"/>
		<path class="st13" d="M2671.8,268.1c0,0-605.8,191.9-765.7-268.1c0,0,63.6,316.6,329,307l39.7,12.2l105.9,15.3l153.9-9.6
			l108.3-35.2L2671.8,268.1z"/>
		<path class="st7" d="M158.4,274.1c0,0,1427.8,130.3,1757-268.1c0,0-156,300.9-764.9,291.3l-89.7,6.4l-234.4,36.8l-353.1-9.6
			l-248.5-35.2L158.4,274.1z"/>
		<path class="st8" d="M158.4,274.1c0,0,1421.6,140.6,1757-268.1c0,0-156,300.9-764.9,291.3l-89.7,6.4l-234.4,36.8l-353.1-9.6
			l-248.5-35.2L158.4,274.1z"/>
		<path class="st9" d="M158.4,274.1c0,0,1415.3,150.9,1757-268.1c0,0-156,300.9-764.9,291.3l-89.7,6.4l-234.4,36.8l-353.1-9.6
			l-248.5-35.2L158.4,274.1z"/>
		<path class="st10" d="M158.4,274.1c0,0,1409,161.1,1757-268.1c0,0-156,300.9-764.9,291.3l-89.7,6.4l-234.4,36.8l-353.1-9.6
			l-248.5-35.2L158.4,274.1z"/>
		<path class="st11" d="M158.4,274.1c0,0,1402.8,171.4,1757-268.1c0,0-156,300.9-764.9,291.3l-89.7,6.4l-234.4,36.8l-353.1-9.6
			l-248.5-35.2L158.4,274.1z"/>
		<path class="st12" d="M158.4,274.1c0,0,1396.5,181.7,1757-268.1c0,0-156,300.9-764.9,291.3l-89.7,6.4l-234.4,36.8l-353.1-9.6
			l-248.5-35.2L158.4,274.1z"/>
		<path class="st13" d="M158.4,274.1c0,0,1390.2,191.9,1757-268.1c0,0-156,300.9-764.9,291.3l-89.7,6.4l-234.4,36.8l-353.1-9.6
			l-248.5-35.2L158.4,274.1z"/>
		<path class="st7" d="M134.4,289.3l24-15.2c0,0,525.2,68.8,998.2,7.6l35,8.9l-35,24.3l-31-11.2c0,0-470.4,127.2-963.2-9.2
			l-9.2,18.8l-26.4-14.4L134.4,289.3z"/>
		<path class="st8" d="M134.4,289.3l24-15.2c0,0,525.2,68.8,998.2,7.6l35,8.9l-35,24.3l-31-11.2c0,0-476.5,116.3-963.2-9.2
			l-9.2,18.8l-26.4-14.4L134.4,289.3z"/>
		<path class="st9" d="M134.4,289.3l24-15.2c0,0,525.2,68.8,998.2,7.6l35,8.9l-35,24.3l-31-11.2c0,0-482.6,105.5-963.2-9.2
			l-9.2,18.8l-26.4-14.4L134.4,289.3z"/>
		<path class="st10" d="M134.4,289.3l24-15.2c0,0,525.2,68.8,998.2,7.6l35,8.9l-35,24.3l-31-11.2c0,0-488.6,94.6-963.2-9.2
			l-9.2,18.8l-26.4-14.4L134.4,289.3z"/>
		<path class="st11" d="M134.4,289.3l24-15.2c0,0,525.2,68.8,998.2,7.6l35,8.9l-35,24.3l-31-11.2c0,0-494.7,83.7-963.2-9.2
			l-9.2,18.8l-26.4-14.4L134.4,289.3z"/>
		<path class="st12" d="M134.4,289.3l24-15.2c0,0,525.2,68.8,998.2,7.6l35,8.9l-35,24.3l-31-11.2c0,0-500.8,72.9-963.2-9.2
			l-9.2,18.8l-26.4-14.4L134.4,289.3z"/>
		<path class="st13" d="M134.4,289.3l24-15.2c0,0,525.2,68.8,998.2,7.6l35,8.9l-35,24.3l-31-11.2c0,0-506.9,62-963.2-9.2l-9.2,18.8
			l-26.4-14.4L134.4,289.3z"/>
	</g>
</g>
</svg>
