<?xml version="1.0" encoding="utf-8"?>
<!-- Generator: Adobe Illustrator 24.0.1, SVG Export Plug-In . SVG Version: 6.00 Build 0)  -->
<svg version="1.1" id="Layer_1" xmlns="http://www.w3.org/2000/svg" xmlns:xlink="http://www.w3.org/1999/xlink" x="0px" y="0px"
	 viewBox="0 0 5714.4 779.3" style="enable-background:new 0 0 5714.4 779.3;" xml:space="preserve">
<style type="text/css">
	.st0{fill:#491B02;}
	.st1{fill:#532409;}
	.st2{fill:#5C2D10;}
	.st3{fill:#663617;}
	.st4{fill:#6F3F1E;}
	.st5{fill:#784825;}
	.st6{fill:#82512C;}
	.st7{fill:#878787;}
	.st8{fill:#949494;}
	.st9{fill:#A0A0A0;}
	.st10{fill:#ADADAD;}
	.st11{fill:#BABABA;}
	.st12{fill:#C6C6C6;}
	.st13{fill:#D3D3D3;}
</style>
<title>Tenda</title>
<g>
	<g id="Layer_1-2_1_">
		<g>
			<polygon class="st0" points="161.6,266.1 144.8,266.1 0,779.3 16.8,779.3 			"/>
			<polygon class="st1" points="160.2,266.1 144.8,266.1 0,779.3 15.4,779.3 			"/>
			<polygon class="st2" points="158.8,266.1 144.8,266.1 0,779.3 14,779.3 			"/>
			<polygon class="st3" points="157.4,266.1 144.8,266.1 0,779.3 12.6,779.3 			"/>
			<polygon class="st4" points="156,266.1 144.8,266.1 0,779.3 11.2,779.3 			"/>
			<polygon class="st5" points="154.6,266.1 144.8,266.1 0,779.3 9.8,779.3 			"/>
			<polygon class="st6" points="153.2,266.1 144.8,266.1 0,779.3 8.4,779.3 			"/>
		</g>
		<g>
			<polygon class="st0" points="3862.1,779.3 3884.2,779.3 3693.7,104.2 3671.6,104.2 			"/>
			<polygon class="st1" points="3863.9,779.3 3884.2,779.3 3693.7,104.2 3673.4,104.2 			"/>
			<polygon class="st2" points="3865.8,779.3 3884.2,779.3 3693.7,104.2 3675.3,104.2 			"/>
			<polygon class="st3" points="3867.6,779.3 3884.2,779.3 3693.7,104.2 3677.1,104.2 			"/>
			<polygon class="st4" points="3869.4,779.3 3884.2,779.3 3693.7,104.2 3679,104.2 			"/>
			<polygon class="st5" points="3871.3,779.3 3884.2,779.3 3693.7,104.2 3680.8,104.2 			"/>
			<polygon class="st6" points="3873.1,779.3 3884.2,779.3 3693.7,104.2 3682.6,104.2 			"/>
		</g>
		<g>
			<polygon class="st0" points="5640.3,779.3 5662.4,779.3 5471.9,104.2 5449.8,104.2 			"/>
			<polygon class="st1" points="5642.1,779.3 5662.4,779.3 5471.9,104.2 5451.7,104.2 			"/>
			<polygon class="st2" points="5644,779.3 5662.4,779.3 5471.9,104.2 5453.5,104.2 			"/>
			<polygon class="st3" points="5645.8,779.3 5662.4,779.3 5471.9,104.2 5455.3,104.2 			"/>
			<polygon class="st4" points="5647.7,779.3 5662.4,779.3 5471.9,104.2 5457.2,104.2 			"/>
			<polygon class="st5" points="5649.5,779.3 5662.4,779.3 5471.9,104.2 5459,104.2 			"/>
			<polygon class="st6" points="5651.3,779.3 5662.4,779.3 5471.9,104.2 5460.9,104.2 			"/>
		</g>
		<polygon class="st0" points="1906.6,0 1923.4,0 1913.3,779.3 1896.5,779.3 		"/>
		<polygon class="st1" points="1908,0 1923.4,0 1913.3,779.3 1897.9,779.3 		"/>
		<polygon class="st2" points="1909.4,0 1923.4,0 1913.3,779.3 1899.3,779.3 		"/>
		<polygon class="st3" points="1910.8,0 1923.4,0 1913.3,779.3 1900.7,779.3 		"/>
		<polygon class="st4" points="1912.2,0 1923.4,0 1913.3,779.3 1902.1,779.3 		"/>
		<polygon class="st5" points="1913.6,0 1923.4,0 1913.3,779.3 1903.5,779.3 		"/>
		<polygon class="st6" points="1915,0 1923.4,0 1913.3,779.3 1904.9,779.3 		"/>
		<path class="st7" d="M158.4,274.1c0,0,1427.8,130.3,1757-268.1c0,0-156,300.9-764.9,291.3l-89.7,6.4l-234.4,36.8l-353.1-9.6
			l-248.5-35.2L158.4,274.1z"/>
		<path class="st8" d="M158.4,274.1c0,0,1421.6,140.6,1757-268.1c0,0-156,300.9-764.9,291.3l-89.7,6.4l-234.4,36.8l-353.1-9.6
			l-248.5-35.2L158.4,274.1z"/>
		<path class="st9" d="M158.4,274.1c0,0,1415.3,150.9,1757-268.1c0,0-156,300.9-764.9,291.3l-89.7,6.4l-234.4,36.8l-353.1-9.6
			l-248.5-35.2L158.4,274.1z"/>
		<path class="st10" d="M158.4,274.1c0,0,1409,161.1,1757-268.1c0,0-156,300.9-764.9,291.3l-89.7,6.4l-234.4,36.8l-353.1-9.6
			l-248.5-35.2L158.4,274.1z"/>
		<path class="st11" d="M158.4,274.1c0,0,1402.8,171.4,1757-268.1c0,0-156,300.9-764.9,291.3l-89.7,6.4l-234.4,36.8l-353.1-9.6
			l-248.5-35.2L158.4,274.1z"/>
		<path class="st12" d="M158.4,274.1c0,0,1396.5,181.7,1757-268.1c0,0-156,300.9-764.9,291.3l-89.7,6.4l-234.4,36.8l-353.1-9.6
			l-248.5-35.2L158.4,274.1z"/>
		<path class="st13" d="M158.4,274.1c0,0,1390.2,191.9,1757-268.1c0,0-156,300.9-764.9,291.3l-89.7,6.4l-234.4,36.8l-353.1-9.6
			l-248.5-35.2L158.4,274.1z"/>
		<path class="st7" d="M134.4,289.3l24-15.2c0,0,525.2,68.8,998.2,7.6l35,8.9l-35,24.3l-31-11.2c0,0-470.4,127.2-963.2-9.2
			l-9.2,18.8l-26.4-14.4L134.4,289.3z"/>
		<path class="st8" d="M134.4,289.3l24-15.2c0,0,525.2,68.8,998.2,7.6l35,8.9l-35,24.3l-31-11.2c0,0-476.5,116.3-963.2-9.2
			l-9.2,18.8l-26.4-14.4L134.4,289.3z"/>
		<path class="st9" d="M134.4,289.3l24-15.2c0,0,525.2,68.8,998.2,7.6l35,8.9l-35,24.3l-31-11.2c0,0-482.6,105.5-963.2-9.2
			l-9.2,18.8l-26.4-14.4L134.4,289.3z"/>
		<path class="st10" d="M134.4,289.3l24-15.2c0,0,525.2,68.8,998.2,7.6l35,8.9l-35,24.3l-31-11.2c0,0-488.6,94.6-963.2-9.2
			l-9.2,18.8l-26.4-14.4L134.4,289.3z"/>
		<path class="st11" d="M134.4,289.3l24-15.2c0,0,525.2,68.8,998.2,7.6l35,8.9l-35,24.3l-31-11.2c0,0-494.7,83.7-963.2-9.2
			l-9.2,18.8l-26.4-14.4L134.4,289.3z"/>
		<path class="st12" d="M134.4,289.3l24-15.2c0,0,525.2,68.8,998.2,7.6l35,8.9l-35,24.3l-31-11.2c0,0-500.8,72.9-963.2-9.2
			l-9.2,18.8l-26.4-14.4L134.4,289.3z"/>
		<path class="st13" d="M134.4,289.3l24-15.2c0,0,525.2,68.8,998.2,7.6l35,8.9l-35,24.3l-31-11.2c0,0-506.9,62-963.2-9.2l-9.2,18.8
			l-26.4-14.4L134.4,289.3z"/>
		<path class="st7" d="M3624.7,149l-244.5,56.5l-351,40L2792.5,229l-89.9,1.3C2096.7,292.3,1915.4,6,1915.4,6
			C2277.7,374.6,3689,121.8,3689,121.8L3624.7,149z"/>
		<path class="st8" d="M3624.7,149l-244.5,56.5l-351,40L2792.5,229l-89.9,1.3C2096.7,292.3,1915.4,6,1915.4,6
			C2284.8,384.3,3689,121.8,3689,121.8L3624.7,149z"/>
		<path class="st9" d="M3624.7,149l-244.5,56.5l-351,40L2792.5,229l-89.9,1.3C2096.7,292.3,1915.4,6,1915.4,6
			C2291.9,394,3689,121.8,3689,121.8L3624.7,149z"/>
		<path class="st10" d="M3624.7,149l-244.5,56.5l-351,40L2792.5,229l-89.9,1.3C2096.7,292.3,1915.4,6,1915.4,6
			C2299.1,403.6,3689,121.8,3689,121.8L3624.7,149z"/>
		<path class="st11" d="M3624.7,149l-244.5,56.5l-351,40L2792.5,229l-89.9,1.3C2096.7,292.3,1915.4,6,1915.4,6
			C2306.1,413.4,3689,121.8,3689,121.8L3624.7,149z"/>
		<path class="st12" d="M3624.7,149l-244.5,56.5l-351,40L2792.5,229l-89.9,1.3C2096.7,292.3,1915.4,6,1915.4,6
			C2313.3,423.1,3689,121.8,3689,121.8L3624.7,149z"/>
		<path class="st13" d="M3624.7,149l-244.5,56.5l-351,40L2792.5,229l-89.9,1.3C2096.7,292.3,1915.4,6,1915.4,6
			C2320.5,432.7,3689,121.8,3689,121.8L3624.7,149z"/>
		<path class="st7" d="M3722.6,143.8l-25.1,16.6l-10.8-17.9c-479.2,178.3-958.8,92.1-958.8,92.1l-29.9,13.8l-37-21.2l34.1-11.9
			c476.5,20.2,993.8-93.5,993.8-93.5l25.2,13.1L3722.6,143.8z"/>
		<path class="st8" d="M3722.6,143.8l-25.1,16.6l-10.8-17.9c-474.1,166.9-958.8,92.1-958.8,92.1l-29.9,13.8l-37-21.2l34.1-11.9
			c476.5,20.2,993.8-93.5,993.8-93.5l25.2,13.1L3722.6,143.8z"/>
		<path class="st9" d="M3722.6,143.8l-25.1,16.6l-10.8-17.9c-468.9,155.7-958.8,92.1-958.8,92.1l-29.9,13.8l-37-21.2l34.1-11.9
			c476.5,20.2,993.8-93.5,993.8-93.5l25.2,13.1L3722.6,143.8z"/>
		<path class="st10" d="M3722.6,143.8l-25.1,16.6l-10.8-17.9c-463.9,144.3-958.8,92.1-958.8,92.1l-29.9,13.8l-37-21.2l34.1-11.9
			c476.5,20.2,993.8-93.5,993.8-93.5l25.2,13.1L3722.6,143.8z"/>
		<path class="st11" d="M3722.6,143.8l-25.1,16.6l-10.8-17.9c-458.8,132.9-958.8,92.1-958.8,92.1l-29.9,13.8l-37-21.2l34.1-11.9
			c476.5,20.2,993.8-93.5,993.8-93.5l25.2,13.1L3722.6,143.8z"/>
		<path class="st12" d="M3722.6,143.8l-25.1,16.6l-10.8-17.9c-453.6,121.6-958.8,92.1-958.8,92.1l-29.9,13.8l-37-21.2l34.1-11.9
			c476.5,20.2,993.8-93.5,993.8-93.5l25.2,13.1L3722.6,143.8z"/>
		<path class="st13" d="M3722.6,143.8l-25.1,16.6l-10.8-17.9c-448.5,110.2-958.8,92.1-958.8,92.1l-29.9,13.8l-37-21.2l34.1-11.9
			c476.5,20.2,993.8-93.5,993.8-93.5l25.2,13.1L3722.6,143.8z"/>
		<path class="st7" d="M5404,147L5164,220.2l-347.4,64.1l-237.3-0.1l-89.6,7.6C3889.6,395.5,3689,122.3,3689,122.3
			c386.9,342.7,1777.3-6.9,1777.3-6.9L5404,147z"/>
		<path class="st8" d="M5404,147L5164,220.2l-347.4,64.1l-237.3-0.1l-89.6,7.6C3889.6,395.5,3689,122.3,3689,122.3
			c394.6,351.9,1777.3-6.9,1777.3-6.9L5404,147z"/>
		<path class="st9" d="M5404,147L5164,220.2l-347.4,64.1l-237.3-0.1l-89.6,7.6C3889.6,395.5,3689,122.3,3689,122.3
			c402.4,361.1,1777.3-6.9,1777.3-6.9L5404,147z"/>
		<path class="st10" d="M5404,147L5164,220.2l-347.4,64.1l-237.3-0.1l-89.6,7.6C3889.6,395.5,3689,122.3,3689,122.3
			c410.2,370.2,1777.3-6.9,1777.3-6.9L5404,147z"/>
		<path class="st11" d="M5404,147L5164,220.2l-347.4,64.1l-237.3-0.1l-89.6,7.6C3889.6,395.5,3689,122.3,3689,122.3
			c417.9,379.4,1777.3-6.9,1777.3-6.9L5404,147z"/>
		<path class="st12" d="M5404,147L5164,220.2l-347.4,64.1l-237.3-0.1l-89.6,7.6C3889.6,395.5,3689,122.3,3689,122.3
			c425.7,388.6,1777.3-6.9,1777.3-6.9L5404,147z"/>
		<path class="st13" d="M5404,147L5164,220.2l-347.4,64.1l-237.3-0.1l-89.6,7.6C3889.6,395.5,3689,122.3,3689,122.3
			c433.5,397.7,1777.3-6.9,1777.3-6.9L5404,147z"/>
		<path class="st7" d="M5501.3,135l-23.9,18.3l-12-17.2c-465.8,211-950.2,158.1-950.2,158.1l-28.9,15.9l-38.3-18.6l33.2-14.2
			c476.8-12.7,985-161.9,985-161.9l26.1,11.3L5501.3,135z"/>
		<path class="st8" d="M5501.3,135l-23.9,18.3l-12-17.2c-461.4,199.3-950.2,158.1-950.2,158.1l-28.9,15.9l-38.3-18.6l33.2-14.2
			c476.8-12.7,985-161.9,985-161.9l26.1,11.3L5501.3,135z"/>
		<path class="st9" d="M5501.3,135l-23.9,18.3l-12-17.2c-457.1,187.7-950.2,158.1-950.2,158.1l-28.9,15.9l-38.3-18.6l33.2-14.2
			c476.8-12.7,985-161.9,985-161.9l26.1,11.3L5501.3,135z"/>
		<path class="st10" d="M5501.3,135l-23.9,18.3l-12-17.2c-452.8,176-950.2,158.1-950.2,158.1l-28.9,15.9l-38.3-18.6l33.2-14.2
			c476.8-12.7,985-161.9,985-161.9l26.1,11.3L5501.3,135z"/>
		<path class="st11" d="M5501.3,135l-23.9,18.3l-12-17.2c-448.5,164.3-950.2,158.1-950.2,158.1l-28.9,15.9l-38.3-18.6l33.2-14.2
			c476.8-12.7,985-161.9,985-161.9l26.1,11.3L5501.3,135z"/>
		<path class="st12" d="M5501.3,135l-23.9,18.3l-12-17.2c-444.1,152.6-950.2,158.1-950.2,158.1l-28.9,15.9l-38.3-18.6l33.2-14.2
			c476.8-12.7,985-161.9,985-161.9l26.1,11.3L5501.3,135z"/>
		<path class="st13" d="M5501.3,135l-23.9,18.3l-12-17.2c-439.8,140.9-950.2,158.1-950.2,158.1l-28.9,15.9l-38.3-18.6l33.2-14.2
			c476.8-12.7,985-161.9,985-161.9l26.1,11.3L5501.3,135z"/>
	</g>
</g>
</svg>
