<svg xmlns="http://www.w3.org/2000/svg" viewBox="0 0 1296 1114.2"><defs><style>.cls-1{fill:#14b6ce;}.cls-2{opacity:0;}.cls-10,.cls-11,.cls-12,.cls-13,.cls-14,.cls-15,.cls-16,.cls-17,.cls-18,.cls-19,.cls-20,.cls-21,.cls-22,.cls-23,.cls-3,.cls-4,.cls-5,.cls-6,.cls-7,.cls-8,.cls-9{fill:#fff;}.cls-3{opacity:0.05;}.cls-4{opacity:0.09;}.cls-5{opacity:0.14;}.cls-6{opacity:0.19;}.cls-7{opacity:0.24;}.cls-8{opacity:0.29;}.cls-9{opacity:0.33;}.cls-10{opacity:0.38;}.cls-11{opacity:0.43;}.cls-12{opacity:0.47;}.cls-13{opacity:0.53;}.cls-14{opacity:0.57;}.cls-15{opacity:0.62;}.cls-16{opacity:0.67;}.cls-17{opacity:0.71;}.cls-18{opacity:0.76;}.cls-19{opacity:0.81;}.cls-20{opacity:0.86;}.cls-21{opacity:0.91;}.cls-22{opacity:0.95;}</style></defs><title>Day</title><g id="Layer_2" data-name="Layer 2"><g id="Layer_1-2" data-name="Layer 1"><rect class="cls-1" width="1296" height="1114.2"/><path class="cls-2" d="M984.1,415.55a94.79,94.79,0,1,1,94.78-94.79,94.79,94.79,0,0,1-94.78,94.79m0-192.39a97.6,97.6,0,1,0,97.6,97.6,97.6,97.6,0,0,0-97.6-97.6"/><path class="cls-3" d="M984.1,412.73a92,92,0,1,1,92-92,92,92,0,0,1-92,92m0-186.75a94.79,94.79,0,1,0,94.78,94.78A94.79,94.79,0,0,0,984.1,226"/><path class="cls-4" d="M984.1,409.91a89.15,89.15,0,1,1,89.14-89.15,89.15,89.15,0,0,1-89.14,89.15m0-181.11a92,92,0,1,0,92,92,92,92,0,0,0-92-92"/><path class="cls-5" d="M984.1,407.09a86.33,86.33,0,1,1,86.32-86.33,86.33,86.33,0,0,1-86.32,86.33m0-175.47a89.15,89.15,0,1,0,89.14,89.14,89.14,89.14,0,0,0-89.14-89.14"/><path class="cls-6" d="M984.1,404.27a83.51,83.51,0,1,1,83.5-83.51,83.51,83.51,0,0,1-83.5,83.51m0-169.83a86.33,86.33,0,1,0,86.32,86.32,86.33,86.33,0,0,0-86.32-86.32"/><path class="cls-7" d="M984.1,401.45a80.69,80.69,0,1,1,80.68-80.69,80.68,80.68,0,0,1-80.68,80.69m0-164.19a83.51,83.51,0,1,0,83.5,83.5,83.51,83.51,0,0,0-83.5-83.5"/><path class="cls-8" d="M984.1,398.63A77.87,77.87,0,1,1,1062,320.76a77.87,77.87,0,0,1-77.86,77.87m0-158.55a80.69,80.69,0,1,0,80.68,80.68,80.68,80.68,0,0,0-80.68-80.68"/><path class="cls-9" d="M984.1,395.81a75,75,0,1,1,75-75.05,75,75,0,0,1-75,75.05m0-152.91A77.87,77.87,0,1,0,1062,320.76,77.86,77.86,0,0,0,984.1,242.9"/><path class="cls-10" d="M984.1,393a72.23,72.23,0,1,1,72.22-72.23A72.23,72.23,0,0,1,984.1,393m0-147.27a75,75,0,1,0,75,75,75,75,0,0,0-75-75"/><path class="cls-11" d="M984.1,390.17a69.41,69.41,0,1,1,69.4-69.41,69.4,69.4,0,0,1-69.4,69.41m0-141.63a72.23,72.23,0,1,0,72.22,72.22,72.22,72.22,0,0,0-72.22-72.22"/><path class="cls-12" d="M984.1,387.35a66.59,66.59,0,1,1,66.59-66.59,66.59,66.59,0,0,1-66.59,66.59m0-136a69.41,69.41,0,1,0,69.4,69.41,69.41,69.41,0,0,0-69.4-69.41"/><path class="cls-13" d="M984.1,384.54a63.78,63.78,0,1,1,63.77-63.78,63.78,63.78,0,0,1-63.77,63.78m0-130.37a66.59,66.59,0,1,0,66.59,66.59,66.6,66.6,0,0,0-66.59-66.59"/><path class="cls-14" d="M984.1,381.72a61,61,0,1,1,60.95-61,61,61,0,0,1-60.95,61m0-124.73a63.78,63.78,0,1,0,63.77,63.77A63.77,63.77,0,0,0,984.1,257"/><path class="cls-15" d="M984.1,378.9a58.14,58.14,0,1,1,58.13-58.14A58.14,58.14,0,0,1,984.1,378.9m0-119.09a61,61,0,1,0,60.95,60.95,61,61,0,0,0-60.95-60.95"/><path class="cls-16" d="M984.1,376.08a55.32,55.32,0,1,1,55.31-55.32,55.32,55.32,0,0,1-55.31,55.32m0-113.45a58.14,58.14,0,1,0,58.13,58.13,58.14,58.14,0,0,0-58.13-58.13"/><path class="cls-17" d="M984.1,373.26a52.5,52.5,0,1,1,52.49-52.5,52.49,52.49,0,0,1-52.49,52.5m0-107.81a55.32,55.32,0,1,0,55.31,55.31,55.32,55.32,0,0,0-55.31-55.31"/><path class="cls-18" d="M984.1,370.44a49.68,49.68,0,1,1,49.67-49.68,49.68,49.68,0,0,1-49.67,49.68m0-102.17a52.5,52.5,0,1,0,52.49,52.49,52.49,52.49,0,0,0-52.49-52.49"/><path class="cls-19" d="M984.1,367.62A46.86,46.86,0,1,1,1031,320.76a46.86,46.86,0,0,1-46.85,46.86m0-96.53a49.68,49.68,0,1,0,49.67,49.67,49.67,49.67,0,0,0-49.67-49.67"/><path class="cls-20" d="M984.1,364.8a44,44,0,1,1,44-44,44,44,0,0,1-44,44m0-90.89A46.86,46.86,0,1,0,1031,320.76a46.86,46.86,0,0,0-46.85-46.85"/><path class="cls-21" d="M984.1,362a41.22,41.22,0,1,1,41.21-41.22A41.21,41.21,0,0,1,984.1,362m0-85.25a44,44,0,1,0,44,44,44,44,0,0,0-44-44"/><path class="cls-22" d="M984.1,359.16a38.4,38.4,0,1,1,38.4-38.4,38.4,38.4,0,0,1-38.4,38.4m0-79.61a41.22,41.22,0,1,0,41.21,41.21,41.21,41.21,0,0,0-41.21-41.21"/><path class="cls-23" d="M984.1,282.36a38.4,38.4,0,1,0,38.4,38.4,38.4,38.4,0,0,0-38.4-38.4"/></g></g></svg>