<svg xmlns="http://www.w3.org/2000/svg" xmlns:xlink="http://www.w3.org/1999/xlink" viewBox="0 0 1296 1128.7"><defs><style>.cls-1{fill:none;}.cls-2{clip-path:url(#clip-path);}.cls-3{fill:#fb693b;}.cls-4{fill:#fb6a3b;}.cls-5{fill:#fb6b3b;}.cls-6{fill:#fb6c3b;}.cls-7{fill:#fb6d3b;}.cls-8{fill:#fb6e3b;}.cls-9{fill:#fb6f3b;}.cls-10{fill:#fb703b;}.cls-11{fill:#fb713b;}.cls-12{fill:#fb723b;}.cls-13{fill:#fb733b;}.cls-14{fill:#fb743b;}.cls-15{fill:#fb753b;}.cls-16{fill:#fb763b;}.cls-17{fill:#fb773b;}.cls-18{fill:#fb783b;}.cls-19{fill:#fb793b;}.cls-20{fill:#fb7a3b;}.cls-21{fill:#fb7b3b;}.cls-22{fill:#fb7c3b;}.cls-23{fill:#fb7d3b;}.cls-24{fill:#fb7e3b;}.cls-25{fill:#fb7f3b;}.cls-26{fill:#fb803b;}.cls-27{fill:#fb813b;}.cls-28{fill:#fb823b;}.cls-29{fill:#fb833b;}.cls-30{fill:#fb843b;}.cls-31{fill:#fb853b;}.cls-32{fill:#fb863b;}.cls-33{fill:#fb873b;}.cls-34{fill:#fb883b;}.cls-35{fill:#fb893b;}.cls-36{fill:#fb8a3b;}.cls-37{fill:#fb8b3b;}.cls-38{fill:#fb8c3b;}.cls-39{fill:#fb8d3b;}.cls-40{fill:#fb8e3b;}.cls-41{fill:#fb8f3b;}.cls-42{fill:#fb903b;}.cls-43{fill:#fb913b;}.cls-44{fill:#fb923b;}.cls-45{fill:#fb933b;}.cls-46{fill:#fb943b;}.cls-47{fill:#fb953b;}.cls-48{fill:#fb963b;}.cls-49{fill:#fb973b;}.cls-50{fill:#fb983b;}.cls-51{fill:#fb993b;}.cls-52{fill:#fb9a3b;}.cls-53{fill:#fb9b3b;}.cls-54{fill:#fb9c3b;}.cls-55{fill:#fb9d3b;}.cls-56{fill:#fb9e3b;}.cls-57{fill:#fb9f3b;}.cls-58{fill:#fba03b;}.cls-59{fill:#fba13b;}.cls-60{fill:#fba23b;}.cls-61{fill:#fba33b;}.cls-62{fill:#fba43b;}.cls-63{fill:#fba53b;}.cls-64{fill:#fba63b;}.cls-65{fill:#fba73b;}.cls-66{fill:#fba83b;}.cls-67{fill:#fba93b;}.cls-68{fill:#fbaa3b;}.cls-69{fill:#fbab3b;}.cls-70{fill:#fbac3b;}.cls-71{fill:#fbad3b;}.cls-72{fill:#fbae3b;}.cls-73{fill:#fbaf3b;}.cls-74{fill:#fbb03b;}.cls-75{fill:#fab03b;}.cls-76{fill:#fab03c;}.cls-77{fill:#f9b03c;}.cls-78{fill:#f9af3c;}.cls-79{fill:#f9af3d;}.cls-80{fill:#f8af3d;}.cls-81{fill:#f7af3d;}.cls-82{fill:#f7af3e;}.cls-83{fill:#f6af3e;}.cls-84{fill:#f5af3f;}.cls-85{fill:#f4ae3f;}.cls-86{fill:#f4ae40;}.cls-87{fill:#f3ae40;}.cls-88{fill:#f2ae40;}.cls-89{fill:#f2ae41;}.cls-90{fill:#f1ae41;}.cls-91{fill:#f0ae42;}.cls-92{fill:#f0ad42;}.cls-93{fill:#efad42;}.cls-94{fill:#efad43;}.cls-95{fill:#eead43;}.cls-96{fill:#edad44;}.cls-97{fill:#ecad44;}.cls-98{fill:#ebac45;}.cls-99{fill:#eaac45;}.cls-100{fill:#eaac46;}.cls-101{fill:#e9ac46;}.cls-102{fill:#e9ac47;}.cls-103{fill:#e8ac47;}.cls-104{fill:#e7ac47;}.cls-105{fill:#e7ab48;}.cls-106{fill:#e6ab48;}.cls-107{fill:#e5ab49;}.cls-108{fill:#e4ab49;}.cls-109{fill:#e3ab4a;}.cls-110{fill:#e2aa4a;}.cls-111{fill:#e2aa4b;}.cls-112{fill:#e1aa4b;}.cls-113{fill:#e0aa4c;}.cls-114{fill:#dfaa4c;}.cls-115{fill:#dfaa4d;}.cls-116{fill:#dea94d;}.cls-117{fill:#dda94d;}.cls-118{fill:#dda94e;}.cls-119{fill:#dca94e;}.cls-120{fill:#dca94f;}.cls-121{fill:#dba94f;}.cls-122{fill:#daa94f;}.cls-123{fill:#daa850;}.cls-124{fill:#d9a850;}.cls-125{fill:#d8a851;}.cls-126{fill:#d7a851;}.cls-127{fill:#d7a852;}.cls-128{fill:#d6a852;}.cls-129{fill:#d5a752;}.cls-130{fill:#d5a753;}.cls-131{fill:#d4a753;}.cls-132{fill:#d3a754;}.cls-133{fill:#d2a754;}.cls-134{fill:#d2a755;}.cls-135{fill:#d1a755;}.cls-136{fill:#d1a655;}.cls-137{fill:#d0a656;}.cls-138{fill:#cfa656;}.cls-139{fill:#cfa657;}.cls-140{fill:#cea657;}.cls-141{fill:#cda658;}.cls-142{fill:#cca558;}.cls-143{fill:#cca559;}.cls-144{fill:#cba559;}.cls-145{fill:#caa559;}.cls-146{fill:#caa55a;}.cls-147{fill:#c9a55a;}.cls-148{fill:#c8a55b;}.cls-149{fill:#c8a45b;}.cls-150{fill:#c7a45b;}.cls-151{fill:#c7a45c;}.cls-152{fill:#c6a45c;}.cls-153{fill:#c5a45d;}.cls-154{fill:#c4a45d;}.cls-155{fill:#c4a35e;}.cls-156{fill:#c3a35e;}.cls-157{fill:#c2a35e;}.cls-158{fill:#c2a35f;}.cls-159{fill:#c1a35f;}.cls-160{fill:#c0a360;}.cls-161{fill:#bfa260;}.cls-162{fill:#bfa261;}.cls-163{fill:#bea261;}.cls-164{fill:#bda261;}.cls-165{fill:#bda262;}.cls-166{fill:#bca262;}.cls-167{fill:#bba263;}.cls-168{fill:#bba163;}.cls-169{fill:#baa163;}.cls-170{fill:#baa164;}.cls-171{fill:#b9a164;}.cls-172{fill:#b8a165;}.cls-173{fill:#b7a165;}.cls-174{fill:#b7a066;}.cls-175{fill:#b6a066;}.cls-176{fill:#b5a066;}.cls-177{fill:#b5a067;}.cls-178{fill:#b4a067;}.cls-179{fill:#b3a068;}.cls-180{fill:#b29f68;}.cls-181{fill:#b29f69;}.cls-182{fill:#b19f69;}.cls-183{fill:#b09f6a;}.cls-184{fill:#af9f6a;}.cls-185{fill:#ae9f6b;}.cls-186{fill:#ae9e6b;}.cls-187{fill:#ad9e6c;}.cls-188{fill:#ac9e6c;}.cls-189{fill:#ab9e6d;}.cls-190{fill:#aa9e6d;}.cls-191{fill:#aa9e6e;}.cls-192{fill:#a99d6e;}.cls-193{fill:#a89d6f;}.cls-194{fill:#a79d6f;}.cls-195{fill:#a69d70;}.cls-196{fill:#a59d71;}.cls-197{fill:#a59c71;}.cls-198{fill:#a49c71;}.cls-199{fill:#a39c72;}.cls-200{fill:#a29c72;}.cls-201{fill:#a29c73;}.cls-202{fill:#a19c73;}.cls-203{fill:#a19b73;}.cls-204{fill:#a09b74;}.cls-205{fill:#9f9b74;}.cls-206{fill:#9e9b75;}.cls-207{fill:#9d9b75;}.cls-208{fill:#9d9b76;}.cls-209{fill:#9c9a76;}.cls-210{fill:#9b9a77;}.cls-211{fill:#9a9a77;}.cls-212{fill:#9a9a78;}.cls-213{fill:#999a78;}.cls-214{fill:#989a78;}.cls-215{fill:#989a79;}.cls-216{fill:#989979;}.cls-217{fill:#979979;}.cls-218{fill:#97997a;}.cls-219{fill:#96997a;}.cls-220{fill:#95997a;}.cls-221{fill:#95997b;}.cls-222{fill:#94997b;}.cls-223{fill:#93987c;}.cls-224{fill:#92987c;}.cls-225{fill:#92987d;}.cls-226{fill:#91987d;}.cls-227{fill:#90987e;}.cls-228{fill:#8f987e;}.cls-229{fill:#8f977e;}.cls-230{fill:#8e977f;}.cls-231{fill:#8d977f;}.cls-232{fill:#8d9780;}.cls-233{fill:#8c9780;}.cls-234{fill:#8b9781;}.cls-235{fill:#8b9681;}.cls-236{fill:#8a9681;}.cls-237{fill:#8a9682;}.cls-238{fill:#899682;}.cls-239{fill:#889683;}.cls-240{fill:#879683;}.cls-241{fill:#869584;}.cls-242{fill:#859584;}.cls-243{fill:#859585;}.cls-244{fill:#849585;}.cls-245{fill:#839586;}.cls-246{fill:#829586;}.cls-247{fill:#829487;}.cls-248{fill:#819487;}.cls-249{fill:#809488;}.cls-250{fill:#7f9488;}.cls-251{fill:#7e9489;}.cls-252{fill:#7d9389;}.cls-253{fill:#7d938a;}.cls-254{fill:#7c938a;}.cls-255{fill:#7b938b;}.cls-256{fill:#7a938b;}.cls-257{fill:#7a938c;}.cls-258{fill:#79938c;}.cls-259{fill:#79928c;}.cls-260{fill:#78928c;}.cls-261{fill:#78928d;}.cls-262{fill:#77928d;}.cls-263{fill:#76928e;}.cls-264{fill:#75928e;}.cls-265{fill:#75928f;}.cls-266{fill:#74918f;}.cls-267{fill:#739190;}.cls-268{fill:#729190;}.cls-269{fill:#729191;}.cls-270{fill:#719191;}.cls-271{fill:#709092;}.cls-272{fill:#6f9092;}.cls-273{fill:#6e9093;}.cls-274{fill:#6d9093;}.cls-275{fill:#6d9094;}.cls-276{fill:#6c9094;}.cls-277{fill:#6c8f94;}.cls-278{fill:#6b8f95;}.cls-279{fill:#6a8f95;}.cls-280{fill:#6a8f96;}.cls-281{fill:#698f96;}.cls-282{fill:#688f96;}.cls-283{fill:#688f97;}.cls-284{fill:#678e97;}.cls-285{fill:#668e98;}.cls-286{fill:#658e98;}.cls-287{fill:#658e99;}.cls-288{fill:#648e99;}.cls-289{fill:#638e9a;}.cls-290{fill:#638d9a;}.cls-291{fill:#628d9a;}.cls-292{fill:#628d9b;}.cls-293{fill:#618d9b;}.cls-294{fill:#608d9b;}.cls-295{fill:#608d9c;}.cls-296{fill:#5f8d9c;}.cls-297{fill:#5e8c9d;}.cls-298{fill:#5d8c9d;}.cls-299{fill:#5d8c9e;}.cls-300{fill:#5c8c9e;}.cls-301{fill:#5b8c9f;}.cls-302{fill:#5a8b9f;}.cls-303{fill:#5a8ba0;}.cls-304{fill:#598ba0;}.cls-305{fill:#588ba0;}.cls-306{fill:#588ba1;}.cls-307{fill:#578ba1;}.cls-308{fill:#568ba2;}.cls-309{fill:#568aa2;}.cls-310{fill:#558aa2;}.cls-311{fill:#558aa3;}.cls-312{fill:#548aa3;}.cls-313{fill:#538aa4;}.cls-314{fill:#528aa4;}.cls-315{fill:#528aa5;}.cls-316{fill:#5189a5;}.cls-317{fill:#5089a5;}.cls-318{fill:#5089a6;}.cls-319{fill:#4f89a6;}.cls-320{fill:#4e89a7;}.cls-321{fill:#4d89a7;}.cls-322{fill:#4d88a7;}.cls-323{fill:#4c88a8;}.cls-324{fill:#4b88a8;}.cls-325{fill:#4b88a9;}.cls-326{fill:#4a88a9;}.cls-327{fill:#4988aa;}.cls-328{fill:#4887aa;}.cls-329{fill:#4887ab;}.cls-330{fill:#4787ab;}.cls-331{opacity:0;}.cls-332,.cls-333,.cls-334,.cls-335,.cls-336,.cls-337,.cls-338,.cls-339,.cls-340,.cls-341,.cls-342,.cls-343,.cls-344,.cls-345,.cls-346,.cls-347,.cls-348,.cls-349,.cls-350,.cls-351,.cls-352,.cls-353,.cls-354,.cls-355,.cls-356,.cls-357,.cls-358,.cls-359,.cls-360,.cls-361,.cls-362{fill:#fbe63b;}.cls-332{opacity:0.03;}.cls-333{opacity:0.06;}.cls-334{opacity:0.1;}.cls-335{opacity:0.13;}.cls-336{opacity:0.16;}.cls-337{opacity:0.19;}.cls-338{opacity:0.23;}.cls-339{opacity:0.26;}.cls-340{opacity:0.29;}.cls-341{opacity:0.32;}.cls-342{opacity:0.35;}.cls-343{opacity:0.39;}.cls-344{opacity:0.42;}.cls-345{opacity:0.45;}.cls-346{opacity:0.48;}.cls-347{opacity:0.52;}.cls-348{opacity:0.55;}.cls-349{opacity:0.58;}.cls-350{opacity:0.61;}.cls-351{opacity:0.65;}.cls-352{opacity:0.68;}.cls-353{opacity:0.71;}.cls-354{opacity:0.74;}.cls-355{opacity:0.77;}.cls-356{opacity:0.81;}.cls-357{opacity:0.84;}.cls-358{opacity:0.87;}.cls-359{opacity:0.9;}.cls-360{opacity:0.94;}.cls-361{opacity:0.97;}</style><clipPath id="clip-path" transform="translate(0 0)"><rect class="cls-1" width="1296" height="1128.7"/></clipPath></defs><title>Morning</title><g id="Layer_2" data-name="Layer 2"><g id="Layer_1-2" data-name="Layer 1"><g class="cls-2"><polygon class="cls-3" points="0 1128.29 69.74 1128.7 0 1128.7 0 1128.29"/><polygon class="cls-4" points="0 1127.16 265.06 1128.7 69.74 1128.7 0 1128.29 0 1127.16"/><polygon class="cls-4" points="0 1126.03 460.38 1128.7 265.06 1128.7 0 1127.16 0 1126.03"/><polygon class="cls-5" points="0 1124.9 655.7 1128.7 460.38 1128.7 0 1126.03 0 1124.9"/><polygon class="cls-5" points="0 1123.77 851.02 1128.7 655.7 1128.7 0 1124.9 0 1123.77"/><polygon class="cls-6" points="0 1122.63 1046.33 1128.7 851.02 1128.7 0 1123.77 0 1122.63"/><polygon class="cls-6" points="0 1121.5 1241.65 1128.7 1046.33 1128.7 0 1122.63 0 1121.5"/><polygon class="cls-7" points="0 1120.37 1296 1127.88 1296 1128.7 1241.65 1128.7 0 1121.5 0 1120.37"/><polygon class="cls-7" points="0 1119.23 1296 1126.75 1296 1127.88 0 1120.37 0 1119.23"/><polygon class="cls-8" points="0 1118.1 1296 1125.62 1296 1126.75 0 1119.23 0 1118.1"/><polygon class="cls-9" points="0 1116.97 1296 1124.48 1296 1125.62 0 1118.1 0 1116.97"/><polygon class="cls-9" points="0 1115.84 1296 1123.35 1296 1124.48 0 1116.97 0 1115.84"/><polygon class="cls-10" points="0 1114.71 1296 1122.22 1296 1123.35 0 1115.84 0 1114.71"/><polygon class="cls-10" points="0 1113.57 1296 1121.09 1296 1122.22 0 1114.71 0 1113.57"/><polygon class="cls-11" points="0 1112.44 1296 1119.95 1296 1121.09 0 1113.57 0 1112.44"/><polygon class="cls-11" points="0 1111.31 1296 1118.82 1296 1119.95 0 1112.44 0 1111.31"/><polygon class="cls-12" points="0 1110.18 1296 1117.69 1296 1118.82 0 1111.31 0 1110.18"/><polygon class="cls-12" points="0 1109.05 1296 1116.56 1296 1117.69 0 1110.18 0 1109.05"/><polygon class="cls-13" points="0 1107.91 1296 1115.43 1296 1116.56 0 1109.05 0 1107.91"/><polygon class="cls-13" points="0 1106.78 1296 1114.29 1296 1115.43 0 1107.91 0 1106.78"/><polygon class="cls-14" points="0 1105.65 1296 1113.16 1296 1114.29 0 1106.78 0 1105.65"/><polygon class="cls-14" points="0 1104.52 1296 1112.03 1296 1113.16 0 1105.65 0 1104.52"/><polygon class="cls-15" points="0 1103.38 1296 1110.9 1296 1112.03 0 1104.52 0 1103.38"/><polygon class="cls-15" points="0 1102.25 1296 1109.76 1296 1110.9 0 1103.38 0 1102.25"/><polygon class="cls-16" points="0 1101.12 1296 1108.63 1296 1109.76 0 1102.25 0 1101.12"/><polygon class="cls-16" points="0 1099.99 1296 1107.5 1296 1108.63 0 1101.12 0 1099.99"/><polygon class="cls-17" points="0 1098.85 1296 1106.37 1296 1107.5 0 1099.99 0 1098.85"/><polygon class="cls-17" points="0 1097.72 1296 1105.23 1296 1106.37 0 1098.85 0 1097.72"/><polygon class="cls-18" points="0 1096.59 1296 1104.1 1296 1105.23 0 1097.72 0 1096.59"/><polygon class="cls-18" points="0 1095.46 1296 1102.97 1296 1104.1 0 1096.59 0 1095.46"/><polygon class="cls-19" points="0 1094.33 1296 1101.84 1296 1102.97 0 1095.46 0 1094.33"/><polygon class="cls-19" points="0 1093.19 1296 1100.71 1296 1101.84 0 1094.33 0 1093.19"/><polygon class="cls-20" points="0 1092.06 1296 1099.57 1296 1100.71 0 1093.19 0 1092.06"/><polygon class="cls-20" points="0 1090.93 1296 1098.44 1296 1099.57 0 1092.06 0 1090.93"/><polygon class="cls-21" points="0 1089.8 1296 1097.31 1296 1098.44 0 1090.93 0 1089.8"/><polygon class="cls-21" points="0 1088.66 1296 1096.18 1296 1097.31 0 1089.8 0 1088.66"/><polygon class="cls-22" points="0 1087.53 1296 1095.05 1296 1096.18 0 1088.66 0 1087.53"/><polygon class="cls-22" points="0 1086.4 1296 1093.91 1296 1095.05 0 1087.53 0 1086.4"/><polygon class="cls-23" points="0 1085.27 1296 1092.78 1296 1093.91 0 1086.4 0 1085.27"/><polygon class="cls-23" points="0 1084.13 1296 1091.65 1296 1092.78 0 1085.27 0 1084.13"/><polygon class="cls-24" points="0 1083 1296 1090.52 1296 1091.65 0 1084.13 0 1083"/><polygon class="cls-24" points="0 1081.87 1296 1089.38 1296 1090.52 0 1083 0 1081.87"/><polygon class="cls-25" points="0 1080.74 1296 1088.25 1296 1089.38 0 1081.87 0 1080.74"/><polygon class="cls-25" points="0 1079.61 1296 1087.12 1296 1088.25 0 1080.74 0 1079.61"/><polygon class="cls-26" points="0 1078.47 1296 1085.99 1296 1087.12 0 1079.61 0 1078.47"/><polygon class="cls-26" points="0 1077.34 1296 1084.85 1296 1085.99 0 1078.47 0 1077.34"/><polygon class="cls-26" points="0 1076.21 1296 1083.72 1296 1084.85 0 1077.34 0 1076.21"/><polygon class="cls-27" points="0 1075.08 1296 1082.59 1296 1083.72 0 1076.21 0 1075.08"/><polygon class="cls-27" points="0 1073.94 1296 1081.46 1296 1082.59 0 1075.08 0 1073.94"/><polygon class="cls-28" points="0 1072.81 1296 1080.33 1296 1081.46 0 1073.94 0 1072.81"/><polygon class="cls-28" points="0 1071.68 1296 1079.19 1296 1080.33 0 1072.81 0 1071.68"/><polygon class="cls-29" points="0 1070.55 1296 1078.06 1296 1079.19 0 1071.68 0 1070.55"/><polygon class="cls-29" points="0 1069.41 1296 1076.93 1296 1078.06 0 1070.55 0 1069.41"/><polygon class="cls-30" points="0 1068.28 1296 1075.8 1296 1076.93 0 1069.41 0 1068.28"/><polygon class="cls-30" points="0 1067.15 1296 1074.66 1296 1075.8 0 1068.28 0 1067.15"/><polygon class="cls-31" points="0 1066.02 1296 1073.53 1296 1074.66 0 1067.15 0 1066.02"/><polygon class="cls-31" points="0 1064.89 1296 1072.4 1296 1073.53 0 1066.02 0 1064.89"/><polygon class="cls-32" points="0 1063.75 1296 1071.27 1296 1072.4 0 1064.89 0 1063.75"/><polygon class="cls-32" points="0 1062.62 1296 1070.13 1296 1071.27 0 1063.75 0 1062.62"/><polygon class="cls-32" points="0 1061.49 1296 1069 1296 1070.13 0 1062.62 0 1061.49"/><polygon class="cls-33" points="0 1060.36 1296 1067.87 1296 1069 0 1061.49 0 1060.36"/><polygon class="cls-33" points="0 1059.22 1296 1066.74 1296 1067.87 0 1060.36 0 1059.22"/><polygon class="cls-34" points="0 1058.09 1296 1065.61 1296 1066.74 0 1059.22 0 1058.09"/><polygon class="cls-34" points="0 1056.96 1296 1064.47 1296 1065.61 0 1058.09 0 1056.96"/><polygon class="cls-35" points="0 1055.83 1296 1063.34 1296 1064.47 0 1056.96 0 1055.83"/><polygon class="cls-35" points="0 1054.69 1296 1062.21 1296 1063.34 0 1055.83 0 1054.69"/><polygon class="cls-36" points="0 1053.56 1296 1061.08 1296 1062.21 0 1054.69 0 1053.56"/><polygon class="cls-36" points="0 1052.43 1296 1059.94 1296 1061.08 0 1053.56 0 1052.43"/><polygon class="cls-36" points="0 1051.3 1296 1058.81 1296 1059.94 0 1052.43 0 1051.3"/><polygon class="cls-37" points="0 1050.17 1296 1057.68 1296 1058.81 0 1051.3 0 1050.17"/><polygon class="cls-37" points="0 1049.03 1296 1056.55 1296 1057.68 0 1050.17 0 1049.03"/><polygon class="cls-38" points="0 1047.9 1296 1055.41 1296 1056.55 0 1049.03 0 1047.9"/><polygon class="cls-38" points="0 1046.77 1296 1054.28 1296 1055.41 0 1047.9 0 1046.77"/><polygon class="cls-39" points="0 1045.64 1296 1053.15 1296 1054.28 0 1046.77 0 1045.64"/><polygon class="cls-39" points="0 1044.51 1296 1052.02 1296 1053.15 0 1045.64 0 1044.51"/><polygon class="cls-39" points="0 1043.37 1296 1050.89 1296 1052.02 0 1044.51 0 1043.37"/><polygon class="cls-40" points="0 1042.24 1296 1049.75 1296 1050.89 0 1043.37 0 1042.24"/><polygon class="cls-40" points="0 1041.11 1296 1048.62 1296 1049.75 0 1042.24 0 1041.11"/><polygon class="cls-41" points="0 1039.98 1296 1047.49 1296 1048.62 0 1041.11 0 1039.98"/><polygon class="cls-41" points="0 1038.84 1296 1046.36 1296 1047.49 0 1039.98 0 1038.84"/><polygon class="cls-42" points="0 1037.71 1296 1045.22 1296 1046.36 0 1038.84 0 1037.71"/><polygon class="cls-42" points="0 1036.58 1296 1044.09 1296 1045.22 0 1037.71 0 1036.58"/><polygon class="cls-42" points="0 1035.45 1296 1042.96 1296 1044.09 0 1036.58 0 1035.45"/><polygon class="cls-43" points="0 1034.31 1296 1041.83 1296 1042.96 0 1035.45 0 1034.31"/><polygon class="cls-43" points="0 1033.18 1296 1040.69 1296 1041.83 0 1034.31 0 1033.18"/><polygon class="cls-44" points="0 1032.05 1296 1039.56 1296 1040.69 0 1033.18 0 1032.05"/><polygon class="cls-44" points="0 1030.92 1296 1038.43 1296 1039.56 0 1032.05 0 1030.92"/><polygon class="cls-44" points="0 1029.79 1296 1037.3 1296 1038.43 0 1030.92 0 1029.79"/><polygon class="cls-45" points="0 1028.65 1296 1036.17 1296 1037.3 0 1029.79 0 1028.65"/><polygon class="cls-45" points="0 1027.52 1296 1035.03 1296 1036.17 0 1028.65 0 1027.52"/><polygon class="cls-46" points="0 1026.39 1296 1033.9 1296 1035.03 0 1027.52 0 1026.39"/><polygon class="cls-46" points="0 1025.26 1296 1032.77 1296 1033.9 0 1026.39 0 1025.26"/><polygon class="cls-46" points="0 1024.12 1296 1031.64 1296 1032.77 0 1025.26 0 1024.12"/><polygon class="cls-47" points="0 1022.99 1296 1030.51 1296 1031.64 0 1024.12 0 1022.99"/><polygon class="cls-47" points="0 1021.86 1296 1029.37 1296 1030.51 0 1022.99 0 1021.86"/><polygon class="cls-47" points="0 1020.73 1296 1028.24 1296 1029.37 0 1021.86 0 1020.73"/><polygon class="cls-48" points="0 1019.6 1296 1027.11 1296 1028.24 0 1020.73 0 1019.6"/><polygon class="cls-48" points="0 1018.46 1296 1025.97 1296 1027.11 0 1019.6 0 1018.46"/><polygon class="cls-49" points="0 1017.33 1296 1024.84 1296 1025.97 0 1018.46 0 1017.33"/><polygon class="cls-49" points="0 1016.2 1296 1023.71 1296 1024.84 0 1017.33 0 1016.2"/><polygon class="cls-49" points="0 1015.07 1296 1022.58 1296 1023.71 0 1016.2 0 1015.07"/><polygon class="cls-50" points="0 1013.93 1296 1021.45 1296 1022.58 0 1015.07 0 1013.93"/><polygon class="cls-50" points="0 1012.8 1296 1020.31 1296 1021.45 0 1013.93 0 1012.8"/><polygon class="cls-51" points="0 1011.67 1296 1019.18 1296 1020.31 0 1012.8 0 1011.67"/><polygon class="cls-51" points="0 1010.54 1296 1018.05 1296 1019.18 0 1011.67 0 1010.54"/><polygon class="cls-51" points="0 1009.4 1296 1016.92 1296 1018.05 0 1010.54 0 1009.4"/><polygon class="cls-52" points="0 1008.27 1296 1015.78 1296 1016.92 0 1009.4 0 1008.27"/><polygon class="cls-52" points="0 1007.14 1296 1014.65 1296 1015.78 0 1008.27 0 1007.14"/><polygon class="cls-52" points="0 1006.01 1296 1013.52 1296 1014.65 0 1007.14 0 1006.01"/><polygon class="cls-53" points="0 1004.88 1296 1012.39 1296 1013.52 0 1006.01 0 1004.88"/><polygon class="cls-53" points="0 1003.74 1296 1011.26 1296 1012.39 0 1004.88 0 1003.74"/><polygon class="cls-53" points="0 1002.61 1296 1010.12 1296 1011.26 0 1003.74 0 1002.61"/><polygon class="cls-54" points="0 1001.48 1296 1008.99 1296 1010.12 0 1002.61 0 1001.48"/><polygon class="cls-54" points="0 1000.35 1296 1007.86 1296 1008.99 0 1001.48 0 1000.35"/><polygon class="cls-54" points="0 999.21 1296 1006.73 1296 1007.86 0 1000.35 0 999.21"/><polygon class="cls-55" points="0 998.08 1296 1005.59 1296 1006.73 0 999.21 0 998.08"/><polygon class="cls-55" points="0 996.95 1296 1004.46 1296 1005.59 0 998.08 0 996.95"/><polygon class="cls-55" points="0 995.82 1296 1003.33 1296 1004.46 0 996.95 0 995.82"/><polygon class="cls-56" points="0 994.68 1296 1002.2 1296 1003.33 0 995.82 0 994.68"/><polygon class="cls-56" points="0 993.55 1296 1001.07 1296 1002.2 0 994.68 0 993.55"/><polygon class="cls-56" points="0 992.42 1296 999.93 1296 1001.07 0 993.55 0 992.42"/><polygon class="cls-57" points="0 991.29 1296 998.8 1296 999.93 0 992.42 0 991.29"/><polygon class="cls-57" points="0 990.15 1296 997.67 1296 998.8 0 991.29 0 990.15"/><polygon class="cls-57" points="0 989.02 1296 996.54 1296 997.67 0 990.15 0 989.02"/><polygon class="cls-58" points="0 987.89 1296 995.4 1296 996.54 0 989.02 0 987.89"/><polygon class="cls-58" points="0 986.76 1296 994.27 1296 995.4 0 987.89 0 986.76"/><polygon class="cls-58" points="0 985.63 1296 993.14 1296 994.27 0 986.76 0 985.63"/><polygon class="cls-59" points="0 984.49 1296 992.01 1296 993.14 0 985.63 0 984.49"/><polygon class="cls-59" points="0 983.36 1296 990.88 1296 992.01 0 984.49 0 983.36"/><polygon class="cls-59" points="0 982.23 1296 989.74 1296 990.88 0 983.36 0 982.23"/><polygon class="cls-60" points="0 981.1 1296 988.61 1296 989.74 0 982.23 0 981.1"/><polygon class="cls-60" points="0 979.97 1296 987.48 1296 988.61 0 981.1 0 979.97"/><polygon class="cls-60" points="0 978.83 1296 986.35 1296 987.48 0 979.97 0 978.83"/><polygon class="cls-61" points="0 977.7 1296 985.21 1296 986.35 0 978.83 0 977.7"/><polygon class="cls-61" points="0 976.57 1296 984.08 1296 985.21 0 977.7 0 976.57"/><polygon class="cls-61" points="0 975.44 1296 982.95 1296 984.08 0 976.57 0 975.44"/><polygon class="cls-61" points="0 974.3 1296 981.82 1296 982.95 0 975.44 0 974.3"/><polygon class="cls-62" points="0 973.17 1296 980.68 1296 981.82 0 974.3 0 973.17"/><polygon class="cls-62" points="0 972.04 1296 979.55 1296 980.68 0 973.17 0 972.04"/><polygon class="cls-62" points="0 970.91 1296 978.42 1296 979.55 0 972.04 0 970.91"/><polygon class="cls-63" points="0 969.77 1296 977.29 1296 978.42 0 970.91 0 969.77"/><polygon class="cls-63" points="0 968.64 1296 976.15 1296 977.29 0 969.77 0 968.64"/><polygon class="cls-63" points="0 967.51 1296 975.02 1296 976.15 0 968.64 0 967.51"/><polygon class="cls-63" points="0 966.38 1296 973.89 1296 975.02 0 967.51 0 966.38"/><polygon class="cls-64" points="0 965.25 1296 972.76 1296 973.89 0 966.38 0 965.25"/><polygon class="cls-64" points="0 964.11 1296 971.63 1296 972.76 0 965.25 0 964.11"/><polygon class="cls-64" points="0 962.98 1296 970.49 1296 971.63 0 964.11 0 962.98"/><polygon class="cls-65" points="0 961.85 1296 969.36 1296 970.49 0 962.98 0 961.85"/><polygon class="cls-65" points="0 960.72 1296 968.23 1296 969.36 0 961.85 0 960.72"/><polygon class="cls-65" points="0 959.58 1296 967.1 1296 968.23 0 960.72 0 959.58"/><polygon class="cls-65" points="0 958.45 1296 965.96 1296 967.1 0 959.58 0 958.45"/><polygon class="cls-66" points="0 957.32 1296 964.83 1296 965.96 0 958.45 0 957.32"/><polygon class="cls-66" points="0 956.19 1296 963.7 1296 964.83 0 957.32 0 956.19"/><polygon class="cls-66" points="0 955.05 1296 962.57 1296 963.7 0 956.19 0 955.05"/><polygon class="cls-66" points="0 953.92 1296 961.43 1296 962.57 0 955.05 0 953.92"/><polygon class="cls-67" points="0 952.79 1296 960.3 1296 961.43 0 953.92 0 952.79"/><polygon class="cls-67" points="0 951.66 1296 959.17 1296 960.3 0 952.79 0 951.66"/><polygon class="cls-67" points="0 950.52 1296 958.04 1296 959.17 0 951.66 0 950.52"/><polygon class="cls-67" points="0 949.39 1296 956.91 1296 958.04 0 950.52 0 949.39"/><polygon class="cls-68" points="0 948.26 1296 955.77 1296 956.91 0 949.39 0 948.26"/><polygon class="cls-68" points="0 947.13 1296 954.64 1296 955.77 0 948.26 0 947.13"/><polygon class="cls-68" points="0 946 1296 953.51 1296 954.64 0 947.13 0 946"/><polygon class="cls-68" points="0 944.86 1296 952.38 1296 953.51 0 946 0 944.86"/><polygon class="cls-69" points="0 943.73 1296 951.25 1296 952.38 0 944.86 0 943.73"/><polygon class="cls-69" points="0 942.6 1296 950.11 1296 951.25 0 943.73 0 942.6"/><polygon class="cls-69" points="0 941.47 1296 948.98 1296 950.11 0 942.6 0 941.47"/><polygon class="cls-69" points="0 940.34 1296 947.85 1296 948.98 0 941.47 0 940.34"/><polygon class="cls-69" points="0 939.2 1296 946.72 1296 947.85 0 940.34 0 939.2"/><polygon class="cls-70" points="0 938.07 1296 945.58 1296 946.72 0 939.2 0 938.07"/><polygon class="cls-70" points="0 936.94 1296 944.45 1296 945.58 0 938.07 0 936.94"/><polygon class="cls-70" points="0 935.81 1296 943.32 1296 944.45 0 936.94 0 935.81"/><polygon class="cls-70" points="0 934.67 1296 942.19 1296 943.32 0 935.81 0 934.67"/><polygon class="cls-70" points="0 933.54 1296 941.05 1296 942.19 0 934.67 0 933.54"/><polygon class="cls-71" points="0 932.41 1296 939.92 1296 941.05 0 933.54 0 932.41"/><polygon class="cls-71" points="0 931.28 1296 938.79 1296 939.92 0 932.41 0 931.28"/><polygon class="cls-71" points="0 930.14 1296 937.66 1296 938.79 0 931.28 0 930.14"/><polygon class="cls-71" points="0 929.01 1296 936.52 1296 937.66 0 930.14 0 929.01"/><polygon class="cls-71" points="0 927.88 1296 935.39 1296 936.52 0 929.01 0 927.88"/><polygon class="cls-71" points="0 926.75 1296 934.26 1296 935.39 0 927.88 0 926.75"/><polygon class="cls-72" points="0 925.62 1296 933.13 1296 934.26 0 926.75 0 925.62"/><polygon class="cls-72" points="0 924.48 1296 932 1296 933.13 0 925.62 0 924.48"/><polygon class="cls-72" points="0 923.35 1296 930.86 1296 932 0 924.48 0 923.35"/><polygon class="cls-72" points="0 922.22 1296 929.73 1296 930.86 0 923.35 0 922.22"/><polygon class="cls-72" points="0 921.09 1296 928.6 1296 929.73 0 922.22 0 921.09"/><polygon class="cls-72" points="0 919.95 1296 927.47 1296 928.6 0 921.09 0 919.95"/><polygon class="cls-73" points="0 918.82 1296 926.34 1296 927.47 0 919.95 0 918.82"/><polygon class="cls-73" points="0 917.69 1296 925.2 1296 926.34 0 918.82 0 917.69"/><polygon class="cls-73" points="0 916.56 1296 924.07 1296 925.2 0 917.69 0 916.56"/><polygon class="cls-73" points="0 915.42 1296 922.94 1296 924.07 0 916.56 0 915.42"/><polygon class="cls-73" points="0 914.29 1296 921.8 1296 922.94 0 915.42 0 914.29"/><polygon class="cls-73" points="0 913.16 1296 920.67 1296 921.8 0 914.29 0 913.16"/><polygon class="cls-73" points="0 912.03 1296 919.54 1296 920.67 0 913.16 0 912.03"/><polygon class="cls-73" points="0 910.9 1296 918.41 1296 919.54 0 912.03 0 910.9"/><polygon class="cls-73" points="0 909.76 1296 917.28 1296 918.41 0 910.9 0 909.76"/><polygon class="cls-74" points="0 908.63 1296 916.14 1296 917.28 0 909.76 0 908.63"/><polygon class="cls-74" points="0 907.5 1296 915.01 1296 916.14 0 908.63 0 907.5"/><polygon class="cls-74" points="0 906.37 1296 913.88 1296 915.01 0 907.5 0 906.37"/><polygon class="cls-74" points="0 905.23 1296 912.75 1296 913.88 0 906.37 0 905.23"/><polygon class="cls-74" points="0 904.1 1296 911.62 1296 912.75 0 905.23 0 904.1"/><polygon class="cls-74" points="0 902.97 1296 910.48 1296 911.62 0 904.1 0 902.97"/><polygon class="cls-74" points="0 901.84 1296 909.35 1296 910.48 0 902.97 0 901.84"/><polygon class="cls-74" points="0 900.71 1296 908.22 1296 909.35 0 901.84 0 900.71"/><polygon class="cls-74" points="0 898.62 1296 906.13 1296 908.22 0 900.71 0 898.62"/><polygon class="cls-74" points="0 896.53 1296 904.04 1296 906.13 0 898.62 0 896.53"/><polygon class="cls-74" points="0 894.44 1296 901.95 1296 904.04 0 896.53 0 894.44"/><polygon class="cls-74" points="0 892.35 1296 899.86 1296 901.95 0 894.44 0 892.35"/><polygon class="cls-75" points="0 890.26 1296 897.77 1296 899.86 0 892.35 0 890.26"/><polygon class="cls-75" points="0 888.17 1296 895.68 1296 897.77 0 890.26 0 888.17"/><polygon class="cls-76" points="0 886.08 1296 893.59 1296 895.68 0 888.17 0 886.08"/><polygon class="cls-76" points="0 883.99 1296 891.5 1296 893.59 0 886.08 0 883.99"/><polygon class="cls-76" points="0 881.9 1296 889.41 1296 891.5 0 883.99 0 881.9"/><polygon class="cls-76" points="0 879.81 1296 887.33 1296 889.41 0 881.9 0 879.81"/><polygon class="cls-77" points="0 877.72 1296 885.24 1296 887.33 0 879.81 0 877.72"/><polygon class="cls-77" points="0 875.63 1296 883.15 1296 885.24 0 877.72 0 875.63"/><polygon class="cls-77" points="0 873.54 1296 881.06 1296 883.15 0 875.63 0 873.54"/><polygon class="cls-78" points="0 871.46 1296 878.97 1296 881.06 0 873.54 0 871.46"/><polygon class="cls-79" points="0 869.37 1296 876.88 1296 878.97 0 871.46 0 869.37"/><polygon class="cls-80" points="0 867.28 1296 874.79 1296 876.88 0 869.37 0 867.28"/><polygon class="cls-80" points="0 865.19 1296 872.7 1296 874.79 0 867.28 0 865.19"/><polygon class="cls-80" points="0 863.1 1296 870.61 1296 872.7 0 865.19 0 863.1"/><polygon class="cls-80" points="0 861.01 1296 868.52 1296 870.61 0 863.1 0 861.01"/><polygon class="cls-81" points="0 858.92 1296 866.43 1296 868.52 0 861.01 0 858.92"/><polygon class="cls-81" points="0 856.83 1296 864.34 1296 866.43 0 858.92 0 856.83"/><polygon class="cls-82" points="0 854.74 1296 862.25 1296 864.34 0 856.83 0 854.74"/><polygon class="cls-82" points="0 852.65 1296 860.16 1296 862.25 0 854.74 0 852.65"/><polygon class="cls-83" points="0 850.56 1296 858.08 1296 860.16 0 852.65 0 850.56"/><polygon class="cls-83" points="0 848.47 1296 855.99 1296 858.08 0 850.56 0 848.47"/><polygon class="cls-83" points="0 846.38 1296 853.9 1296 855.99 0 848.47 0 846.38"/><polygon class="cls-83" points="0 844.29 1296 851.81 1296 853.9 0 846.38 0 844.29"/><polygon class="cls-84" points="0 842.21 1296 849.72 1296 851.81 0 844.29 0 842.21"/><polygon class="cls-84" points="0 840.12 1296 847.63 1296 849.72 0 842.21 0 840.12"/><polygon class="cls-84" points="0 838.03 1296 845.54 1296 847.63 0 840.12 0 838.03"/><polygon class="cls-84" points="0 835.94 1296 843.45 1296 845.54 0 838.03 0 835.94"/><polygon class="cls-85" points="0 833.85 1296 841.36 1296 843.45 0 835.94 0 833.85"/><polygon class="cls-85" points="0 831.76 1296 839.27 1296 841.36 0 833.85 0 831.76"/><polygon class="cls-86" points="0 829.67 1296 837.18 1296 839.27 0 831.76 0 829.67"/><polygon class="cls-87" points="0 827.58 1296 835.09 1296 837.18 0 829.67 0 827.58"/><polygon class="cls-87" points="0 825.49 1296 833 1296 835.09 0 827.58 0 825.49"/><polygon class="cls-87" points="0 823.4 1296 830.91 1296 833 0 825.49 0 823.4"/><polygon class="cls-87" points="0 821.31 1296 828.83 1296 830.91 0 823.4 0 821.31"/><polygon class="cls-88" points="0 819.22 1296 826.74 1296 828.83 0 821.31 0 819.22"/><polygon class="cls-89" points="0 817.13 1296 824.65 1296 826.74 0 819.22 0 817.13"/><polygon class="cls-89" points="0 815.04 1296 822.56 1296 824.65 0 817.13 0 815.04"/><polygon class="cls-89" points="0 812.96 1296 820.47 1296 822.56 0 815.04 0 812.96"/><polygon class="cls-90" points="0 810.87 1296 818.38 1296 820.47 0 812.96 0 810.87"/><polygon class="cls-90" points="0 808.78 1296 816.29 1296 818.38 0 810.87 0 808.78"/><polygon class="cls-90" points="0 806.69 1296 814.2 1296 816.29 0 808.78 0 806.69"/><polygon class="cls-91" points="0 804.6 1296 812.11 1296 814.2 0 806.69 0 804.6"/><polygon class="cls-91" points="0 802.51 1296 810.02 1296 812.11 0 804.6 0 802.51"/><polygon class="cls-92" points="0 800.42 1296 807.93 1296 810.02 0 802.51 0 800.42"/><polygon class="cls-93" points="0 798.33 1296 805.84 1296 807.93 0 800.42 0 798.33"/><polygon class="cls-93" points="0 796.24 1296 803.75 1296 805.84 0 798.33 0 796.24"/><polygon class="cls-94" points="0 794.15 1296 801.67 1296 803.75 0 796.24 0 794.15"/><polygon class="cls-94" points="0 792.06 1296 799.58 1296 801.67 0 794.15 0 792.06"/><polygon class="cls-95" points="0 789.97 1296 797.49 1296 799.58 0 792.06 0 789.97"/><polygon class="cls-95" points="0 787.88 1296 795.4 1296 797.49 0 789.97 0 787.88"/><polygon class="cls-95" points="0 785.79 1296 793.31 1296 795.4 0 787.88 0 785.79"/><polygon class="cls-96" points="0 783.71 1296 791.22 1296 793.31 0 785.79 0 783.71"/><polygon class="cls-96" points="0 781.62 1296 789.13 1296 791.22 0 783.71 0 781.62"/><polygon class="cls-96" points="0 779.53 1296 787.04 1296 789.13 0 781.62 0 779.53"/><polygon class="cls-97" points="0 777.44 1296 784.95 1296 787.04 0 779.53 0 777.44"/><polygon class="cls-97" points="0 775.35 1296 782.86 1296 784.95 0 777.44 0 775.35"/><polygon class="cls-97" points="0 773.26 1296 780.77 1296 782.86 0 775.35 0 773.26"/><polygon class="cls-98" points="0 771.17 1296 778.68 1296 780.77 0 773.26 0 771.17"/><polygon class="cls-98" points="0 769.08 1296 776.59 1296 778.68 0 771.17 0 769.08"/><polygon class="cls-98" points="0 766.99 1296 774.5 1296 776.59 0 769.08 0 766.99"/><polygon class="cls-99" points="0 764.9 1296 772.42 1296 774.5 0 766.99 0 764.9"/><polygon class="cls-99" points="0 762.81 1296 770.33 1296 772.42 0 764.9 0 762.81"/><polygon class="cls-100" points="0 760.72 1296 768.24 1296 770.33 0 762.81 0 760.72"/><polygon class="cls-100" points="0 758.63 1296 766.15 1296 768.24 0 760.72 0 758.63"/><polygon class="cls-101" points="0 756.55 1296 764.06 1296 766.15 0 758.63 0 756.55"/><polygon class="cls-101" points="0 754.46 1296 761.97 1296 764.06 0 756.55 0 754.46"/><polygon class="cls-102" points="0 752.37 1296 759.88 1296 761.97 0 754.46 0 752.37"/><polygon class="cls-103" points="0 750.28 1296 757.79 1296 759.88 0 752.37 0 750.28"/><polygon class="cls-103" points="0 748.19 1296 755.7 1296 757.79 0 750.28 0 748.19"/><polygon class="cls-103" points="0 746.1 1296 753.61 1296 755.7 0 748.19 0 746.1"/><polygon class="cls-104" points="0 744.01 1296 751.52 1296 753.61 0 746.1 0 744.01"/><polygon class="cls-105" points="0 741.92 1296 749.43 1296 751.52 0 744.01 0 741.92"/><polygon class="cls-105" points="0 739.83 1296 747.35 1296 749.43 0 741.92 0 739.83"/><polygon class="cls-106" points="0 737.74 1296 745.25 1296 747.35 0 739.83 0 737.74"/><polygon class="cls-106" points="0 735.65 1296 743.17 1296 745.25 0 737.74 0 735.65"/><polygon class="cls-106" points="0 733.56 1296 741.08 1296 743.17 0 735.65 0 733.56"/><polygon class="cls-107" points="0 731.48 1296 738.99 1296 741.08 0 733.56 0 731.48"/><polygon class="cls-107" points="0 729.38 1296 736.9 1296 738.99 0 731.48 0 729.38"/><polygon class="cls-107" points="0 727.3 1296 734.81 1296 736.9 0 729.38 0 727.3"/><polygon class="cls-108" points="0 725.21 1296 732.72 1296 734.81 0 727.3 0 725.21"/><polygon class="cls-108" points="0 723.12 1296 730.63 1296 732.72 0 725.21 0 723.12"/><polygon class="cls-109" points="0 721.03 1296 728.54 1296 730.63 0 723.12 0 721.03"/><polygon class="cls-109" points="0 718.94 1296 726.45 1296 728.54 0 721.03 0 718.94"/><polygon class="cls-109" points="0 716.85 1296 724.36 1296 726.45 0 718.94 0 716.85"/><polygon class="cls-110" points="0 714.76 1296 722.27 1296 724.36 0 716.85 0 714.76"/><polygon class="cls-111" points="0 712.67 1296 720.18 1296 722.27 0 714.76 0 712.67"/><polygon class="cls-111" points="0 710.58 1296 718.1 1296 720.18 0 712.67 0 710.58"/><polygon class="cls-112" points="0 708.49 1296 716.01 1296 718.1 0 710.58 0 708.49"/><polygon class="cls-112" points="0 706.4 1296 713.92 1296 716.01 0 708.49 0 706.4"/><polygon class="cls-112" points="0 704.31 1296 711.83 1296 713.92 0 706.4 0 704.31"/><polygon class="cls-113" points="0 702.23 1296 709.74 1296 711.83 0 704.31 0 702.23"/><polygon class="cls-113" points="0 700.14 1296 707.65 1296 709.74 0 702.23 0 700.14"/><polygon class="cls-113" points="0 698.05 1296 705.56 1296 707.65 0 700.14 0 698.05"/><polygon class="cls-114" points="0 695.96 1296 703.47 1296 705.56 0 698.05 0 695.96"/><polygon class="cls-115" points="0 693.87 1296 701.38 1296 703.47 0 695.96 0 693.87"/><polygon class="cls-115" points="0 691.78 1296 699.29 1296 701.38 0 693.87 0 691.78"/><polygon class="cls-116" points="0 689.69 1296 697.2 1296 699.29 0 691.78 0 689.69"/><polygon class="cls-116" points="0 687.6 1296 695.11 1296 697.2 0 689.69 0 687.6"/><polygon class="cls-117" points="0 685.51 1296 693.02 1296 695.11 0 687.6 0 685.51"/><polygon class="cls-118" points="0 683.42 1296 690.93 1296 693.02 0 685.51 0 683.42"/><polygon class="cls-118" points="0 681.33 1296 688.85 1296 690.93 0 683.42 0 681.33"/><polygon class="cls-119" points="0 679.24 1296 686.76 1296 688.85 0 681.33 0 679.24"/><polygon class="cls-119" points="0 677.15 1296 684.67 1296 686.76 0 679.24 0 677.15"/><polygon class="cls-120" points="0 675.07 1296 682.58 1296 684.67 0 677.15 0 675.07"/><polygon class="cls-121" points="0 672.98 1296 680.49 1296 682.58 0 675.07 0 672.98"/><polygon class="cls-121" points="0 670.89 1296 678.4 1296 680.49 0 672.98 0 670.89"/><polygon class="cls-121" points="0 668.8 1296 676.31 1296 678.4 0 670.89 0 668.8"/><polygon class="cls-122" points="0 666.71 1296 674.22 1296 676.31 0 668.8 0 666.71"/><polygon class="cls-123" points="0 664.62 1296 672.13 1296 674.22 0 666.71 0 664.62"/><polygon class="cls-124" points="0 662.53 1296 670.04 1296 672.13 0 664.62 0 662.53"/><polygon class="cls-124" points="0 660.44 1296 667.95 1296 670.04 0 662.53 0 660.44"/><polygon class="cls-124" points="0 658.35 1296 665.86 1296 667.95 0 660.44 0 658.35"/><polygon class="cls-125" points="0 656.26 1296 663.77 1296 665.86 0 658.35 0 656.26"/><polygon class="cls-125" points="0 654.17 1296 661.68 1296 663.77 0 656.26 0 654.17"/><polygon class="cls-125" points="0 652.08 1296 659.6 1296 661.68 0 654.17 0 652.08"/><polygon class="cls-126" points="0 649.99 1296 657.51 1296 659.6 0 652.08 0 649.99"/><polygon class="cls-127" points="0 647.9 1296 655.42 1296 657.51 0 649.99 0 647.9"/><polygon class="cls-128" points="0 645.82 1296 653.33 1296 655.42 0 647.9 0 645.82"/><polygon class="cls-128" points="0 643.73 1296 651.24 1296 653.33 0 645.82 0 643.73"/><polygon class="cls-128" points="0 641.64 1296 649.15 1296 651.24 0 643.73 0 641.64"/><polygon class="cls-129" points="0 639.55 1296 647.06 1296 649.15 0 641.64 0 639.55"/><polygon class="cls-130" points="0 637.46 1296 644.97 1296 647.06 0 639.55 0 637.46"/><polygon class="cls-130" points="0 635.37 1296 642.88 1296 644.97 0 637.46 0 635.37"/><polygon class="cls-131" points="0 633.28 1296 640.79 1296 642.88 0 635.37 0 633.28"/><polygon class="cls-131" points="0 631.19 1296 638.7 1296 640.79 0 633.28 0 631.19"/><polygon class="cls-132" points="0 629.1 1296 636.61 1296 638.7 0 631.19 0 629.1"/><polygon class="cls-132" points="0 627.01 1296 634.52 1296 636.61 0 629.1 0 627.01"/><polygon class="cls-132" points="0 624.92 1296 632.43 1296 634.52 0 627.01 0 624.92"/><polygon class="cls-133" points="0 622.83 1296 630.35 1296 632.43 0 624.92 0 622.83"/><polygon class="cls-134" points="0 620.74 1296 628.26 1296 630.35 0 622.83 0 620.74"/><polygon class="cls-135" points="0 618.65 1296 626.17 1296 628.26 0 620.74 0 618.65"/><polygon class="cls-136" points="0 616.57 1296 624.08 1296 626.17 0 618.65 0 616.57"/><polygon class="cls-136" points="0 614.48 1296 621.99 1296 624.08 0 616.57 0 614.48"/><polygon class="cls-137" points="0 612.39 1296 619.9 1296 621.99 0 614.48 0 612.39"/><polygon class="cls-137" points="0 610.3 1296 617.81 1296 619.9 0 612.39 0 610.3"/><polygon class="cls-137" points="0 608.21 1296 615.72 1296 617.81 0 610.3 0 608.21"/><polygon class="cls-138" points="0 606.12 1296 613.63 1296 615.72 0 608.21 0 606.12"/><polygon class="cls-139" points="0 604.03 1296 611.54 1296 613.63 0 606.12 0 604.03"/><polygon class="cls-140" points="0 601.94 1296 609.45 1296 611.54 0 604.03 0 601.94"/><polygon class="cls-140" points="0 599.85 1296 607.36 1296 609.45 0 601.94 0 599.85"/><polygon class="cls-140" points="0 597.76 1296 605.27 1296 607.36 0 599.85 0 597.76"/><polygon class="cls-141" points="0 595.67 1296 603.19 1296 605.27 0 597.76 0 595.67"/><polygon class="cls-141" points="0 593.58 1296 601.1 1296 603.19 0 595.67 0 593.58"/><polygon class="cls-142" points="0 591.49 1296 599.01 1296 601.1 0 593.58 0 591.49"/><polygon class="cls-142" points="0 589.4 1296 596.92 1296 599.01 0 591.49 0 589.4"/><polygon class="cls-143" points="0 587.32 1296 594.83 1296 596.92 0 589.4 0 587.32"/><polygon class="cls-144" points="0 585.23 1296 592.74 1296 594.83 0 587.32 0 585.23"/><polygon class="cls-144" points="0 583.14 1296 590.65 1296 592.74 0 585.23 0 583.14"/><polygon class="cls-145" points="0 581.05 1296 588.56 1296 590.65 0 583.14 0 581.05"/><polygon class="cls-146" points="0 578.96 1296 586.47 1296 588.56 0 581.05 0 578.96"/><polygon class="cls-146" points="0 576.87 1296 584.38 1296 586.47 0 578.96 0 576.87"/><polygon class="cls-147" points="0 574.78 1296 582.29 1296 584.38 0 576.87 0 574.78"/><polygon class="cls-147" points="0 572.69 1296 580.2 1296 582.29 0 574.78 0 572.69"/><polygon class="cls-148" points="0 570.6 1296 578.11 1296 580.2 0 572.69 0 570.6"/><polygon class="cls-149" points="0 568.51 1296 576.02 1296 578.11 0 570.6 0 568.51"/><polygon class="cls-149" points="0 566.42 1296 573.94 1296 576.02 0 568.51 0 566.42"/><polygon class="cls-150" points="0 564.33 1296 571.85 1296 573.94 0 566.42 0 564.33"/><polygon class="cls-151" points="0 562.24 1296 569.76 1296 571.85 0 564.33 0 562.24"/><polygon class="cls-152" points="0 560.15 1296 567.67 1296 569.76 0 562.24 0 560.15"/><polygon class="cls-152" points="0 558.07 1296 565.58 1296 567.67 0 560.15 0 558.07"/><polygon class="cls-152" points="0 555.98 1296 563.49 1296 565.58 0 558.07 0 555.98"/><polygon class="cls-153" points="0 553.89 1296 561.4 1296 563.49 0 555.98 0 553.89"/><polygon class="cls-153" points="0 551.8 1296 559.31 1296 561.4 0 553.89 0 551.8"/><polygon class="cls-154" points="0 549.71 1296 557.22 1296 559.31 0 551.8 0 549.71"/><polygon class="cls-154" points="0 547.62 1296 555.13 1296 557.22 0 549.71 0 547.62"/><polygon class="cls-155" points="0 545.53 1296 553.04 1296 555.13 0 547.62 0 545.53"/><polygon class="cls-156" points="0 543.44 1296 550.95 1296 553.04 0 545.53 0 543.44"/><polygon class="cls-156" points="0 541.35 1296 548.87 1296 550.95 0 543.44 0 541.35"/><polygon class="cls-157" points="0 539.26 1296 546.77 1296 548.87 0 541.35 0 539.26"/><polygon class="cls-158" points="0 537.17 1296 544.69 1296 546.77 0 539.26 0 537.17"/><polygon class="cls-158" points="0 535.08 1296 542.6 1296 544.69 0 537.17 0 535.08"/><polygon class="cls-159" points="0 533 1296 540.51 1296 542.6 0 535.08 0 533"/><polygon class="cls-159" points="0 530.9 1296 538.42 1296 540.51 0 533 0 530.9"/><polygon class="cls-160" points="0 528.82 1296 536.33 1296 538.42 0 530.9 0 528.82"/><polygon class="cls-160" points="0 526.73 1296 534.24 1296 536.33 0 528.82 0 526.73"/><polygon class="cls-161" points="0 524.64 1296 532.15 1296 534.24 0 526.73 0 524.64"/><polygon class="cls-161" points="0 522.55 1296 530.06 1296 532.15 0 524.64 0 522.55"/><polygon class="cls-162" points="0 520.46 1296 527.97 1296 530.06 0 522.55 0 520.46"/><polygon class="cls-163" points="0 518.37 1296 525.88 1296 527.97 0 520.46 0 518.37"/><polygon class="cls-163" points="0 516.28 1296 523.79 1296 525.88 0 518.37 0 516.28"/><polygon class="cls-164" points="0 514.19 1296 521.7 1296 523.79 0 516.28 0 514.19"/><polygon class="cls-165" points="0 512.1 1296 519.62 1296 521.7 0 514.19 0 512.1"/><polygon class="cls-165" points="0 510.01 1296 517.53 1296 519.62 0 512.1 0 510.01"/><polygon class="cls-166" points="0 507.92 1296 515.44 1296 517.53 0 510.01 0 507.92"/><polygon class="cls-166" points="0 505.83 1296 513.35 1296 515.44 0 507.92 0 505.83"/><polygon class="cls-167" points="0 503.75 1296 511.26 1296 513.35 0 505.83 0 503.75"/><polygon class="cls-168" points="0 501.66 1296 509.17 1296 511.26 0 503.75 0 501.66"/><polygon class="cls-169" points="0 499.57 1296 507.08 1296 509.17 0 501.66 0 499.57"/><polygon class="cls-170" points="0 497.48 1296 504.99 1296 507.08 0 499.57 0 497.48"/><polygon class="cls-170" points="0 495.39 1296 502.9 1296 504.99 0 497.48 0 495.39"/><polygon class="cls-171" points="0 493.3 1296 500.81 1296 502.9 0 495.39 0 493.3"/><polygon class="cls-171" points="0 491.21 1296 498.72 1296 500.81 0 493.3 0 491.21"/><polygon class="cls-172" points="0 489.12 1296 496.63 1296 498.72 0 491.21 0 489.12"/><polygon class="cls-172" points="0 487.03 1296 494.54 1296 496.63 0 489.12 0 487.03"/><polygon class="cls-173" points="0 484.94 1296 492.45 1296 494.54 0 487.03 0 484.94"/><polygon class="cls-173" points="0 482.85 1296 490.37 1296 492.45 0 484.94 0 482.85"/><polygon class="cls-174" points="0 480.76 1296 488.28 1296 490.37 0 482.85 0 480.76"/><polygon class="cls-175" points="0 478.67 1296 486.19 1296 488.28 0 480.76 0 478.67"/><polygon class="cls-175" points="0 476.58 1296 484.1 1296 486.19 0 478.67 0 476.58"/><polygon class="cls-176" points="0 474.5 1296 482.01 1296 484.1 0 476.58 0 474.5"/><polygon class="cls-177" points="0 472.41 1296 479.92 1296 482.01 0 474.5 0 472.41"/><polygon class="cls-178" points="0 470.32 1296 477.83 1296 479.92 0 472.41 0 470.32"/><polygon class="cls-178" points="0 468.23 1296 475.74 1296 477.83 0 470.32 0 468.23"/><polygon class="cls-178" points="0 466.14 1296 473.65 1296 475.74 0 468.23 0 466.14"/><polygon class="cls-179" points="0 464.05 1296 471.56 1296 473.65 0 466.14 0 464.05"/><polygon class="cls-179" points="0 461.96 1296 469.47 1296 471.56 0 464.05 0 461.96"/><polygon class="cls-180" points="0 459.87 1296 467.38 1296 469.47 0 461.96 0 459.87"/><polygon class="cls-181" points="0 457.78 1296 465.29 1296 467.38 0 459.87 0 457.78"/><polygon class="cls-182" points="0 455.69 1296 463.2 1296 465.29 0 457.78 0 455.69"/><polygon class="cls-182" points="0 453.6 1296 461.12 1296 463.2 0 455.69 0 453.6"/><polygon class="cls-182" points="0 451.51 1296 459.03 1296 461.12 0 453.6 0 451.51"/><polygon class="cls-183" points="0 449.42 1296 456.94 1296 459.03 0 451.51 0 449.42"/><polygon class="cls-183" points="0 447.33 1296 454.85 1296 456.94 0 449.42 0 447.33"/><polygon class="cls-184" points="0 445.25 1296 452.76 1296 454.85 0 447.33 0 445.25"/><polygon class="cls-184" points="0 443.16 1296 450.67 1296 452.76 0 445.25 0 443.16"/><polygon class="cls-185" points="0 441.07 1296 448.58 1296 450.67 0 443.16 0 441.07"/><polygon class="cls-185" points="0 438.98 1296 446.49 1296 448.58 0 441.07 0 438.98"/><polygon class="cls-186" points="0 436.89 1296 444.4 1296 446.49 0 438.98 0 436.89"/><polygon class="cls-187" points="0 434.8 1296 442.31 1296 444.4 0 436.89 0 434.8"/><polygon class="cls-187" points="0 432.71 1296 440.22 1296 442.31 0 434.8 0 432.71"/><polygon class="cls-188" points="0 430.62 1296 438.13 1296 440.22 0 432.71 0 430.62"/><polygon class="cls-188" points="0 428.53 1296 436.04 1296 438.13 0 430.62 0 428.53"/><polygon class="cls-189" points="0 426.44 1296 433.95 1296 436.04 0 428.53 0 426.44"/><polygon class="cls-189" points="0 424.35 1296 431.87 1296 433.95 0 426.44 0 424.35"/><polygon class="cls-190" points="0 422.26 1296 429.78 1296 431.87 0 424.35 0 422.26"/><polygon class="cls-190" points="0 420.17 1296 427.69 1296 429.78 0 422.26 0 420.17"/><polygon class="cls-191" points="0 418.08 1296 425.6 1296 427.69 0 420.17 0 418.08"/><polygon class="cls-192" points="0 416 1296 423.51 1296 425.6 0 418.08 0 416"/><polygon class="cls-192" points="0 413.91 1296 421.42 1296 423.51 0 416 0 413.91"/><polygon class="cls-193" points="0 411.82 1296 419.33 1296 421.42 0 413.91 0 411.82"/><polygon class="cls-193" points="0 409.73 1296 417.24 1296 419.33 0 411.82 0 409.73"/><polygon class="cls-194" points="0 407.64 1296 415.15 1296 417.24 0 409.73 0 407.64"/><polygon class="cls-194" points="0 405.55 1296 413.06 1296 415.15 0 407.64 0 405.55"/><polygon class="cls-195" points="0 403.46 1296 410.97 1296 413.06 0 405.55 0 403.46"/><polygon class="cls-195" points="0 401.37 1296 408.88 1296 410.97 0 403.46 0 401.37"/><polygon class="cls-195" points="0 399.28 1296 406.8 1296 408.88 0 401.37 0 399.28"/><polygon class="cls-196" points="0 397.19 1296 404.7 1296 406.8 0 399.28 0 397.19"/><polygon class="cls-197" points="0 395.1 1296 402.62 1296 404.7 0 397.19 0 395.1"/><polygon class="cls-198" points="0 393.01 1296 400.53 1296 402.62 0 395.1 0 393.01"/><polygon class="cls-198" points="0 390.93 1296 398.44 1296 400.53 0 393.01 0 390.93"/><polygon class="cls-199" points="0 388.83 1296 396.35 1296 398.44 0 390.93 0 388.83"/><polygon class="cls-199" points="0 386.75 1296 394.26 1296 396.35 0 388.83 0 386.75"/><polygon class="cls-200" points="0 384.66 1296 392.17 1296 394.26 0 386.75 0 384.66"/><polygon class="cls-200" points="0 382.57 1296 390.08 1296 392.17 0 384.66 0 382.57"/><polygon class="cls-201" points="0 380.48 1296 387.99 1296 390.08 0 382.57 0 380.48"/><polygon class="cls-202" points="0 378.39 1296 385.9 1296 387.99 0 380.48 0 378.39"/><polygon class="cls-203" points="0 376.3 1296 383.81 1296 385.9 0 378.39 0 376.3"/><polygon class="cls-204" points="0 374.21 1296 381.72 1296 383.81 0 376.3 0 374.21"/><polygon class="cls-204" points="0 372.12 1296 379.63 1296 381.72 0 374.21 0 372.12"/><polygon class="cls-205" points="0 370.03 1296 377.55 1296 379.63 0 372.12 0 370.03"/><polygon class="cls-205" points="0 367.94 1296 375.46 1296 377.55 0 370.03 0 367.94"/><polygon class="cls-206" points="0 365.85 1296 373.37 1296 375.46 0 367.94 0 365.85"/><polygon class="cls-206" points="0 363.76 1296 371.28 1296 373.37 0 365.85 0 363.76"/><polygon class="cls-207" points="0 361.68 1296 369.19 1296 371.28 0 363.76 0 361.68"/><polygon class="cls-208" points="0 359.59 1296 367.1 1296 369.19 0 361.68 0 359.59"/><polygon class="cls-208" points="0 357.5 1296 365.01 1296 367.1 0 359.59 0 357.5"/><polygon class="cls-209" points="0 355.41 1296 362.92 1296 365.01 0 357.5 0 355.41"/><polygon class="cls-209" points="0 353.32 1296 360.83 1296 362.92 0 355.41 0 353.32"/><polygon class="cls-210" points="0 351.23 1296 358.74 1296 360.83 0 353.32 0 351.23"/><polygon class="cls-210" points="0 349.14 1296 356.65 1296 358.74 0 351.23 0 349.14"/><polygon class="cls-211" points="0 347.05 1296 354.56 1296 356.65 0 349.14 0 347.05"/><polygon class="cls-212" points="0 344.96 1296 352.47 1296 354.56 0 347.05 0 344.96"/><polygon class="cls-213" points="0 342.87 1296 350.38 1296 352.47 0 344.96 0 342.87"/><polygon class="cls-213" points="0 340.78 1296 348.3 1296 350.38 0 342.87 0 340.78"/><polygon class="cls-214" points="0 338.69 1296 346.21 1296 348.3 0 340.78 0 338.69"/><polygon class="cls-215" points="0 336.6 1296 344.12 1296 346.21 0 338.69 0 336.6"/><polygon class="cls-216" points="0 334.51 1296 342.03 1296 344.12 0 336.6 0 334.51"/><polygon class="cls-217" points="0 332.43 1296 339.94 1296 342.03 0 334.51 0 332.43"/><polygon class="cls-218" points="0 330.34 1296 337.85 1296 339.94 0 332.43 0 330.34"/><polygon class="cls-219" points="0 328.25 1296 335.76 1296 337.85 0 330.34 0 328.25"/><polygon class="cls-219" points="0 326.16 1296 333.67 1296 335.76 0 328.25 0 326.16"/><polygon class="cls-220" points="0 324.07 1296 331.58 1296 333.67 0 326.16 0 324.07"/><polygon class="cls-221" points="0 321.98 1296 329.49 1296 331.58 0 324.07 0 321.98"/><polygon class="cls-222" points="0 319.89 1296 327.4 1296 329.49 0 321.98 0 319.89"/><polygon class="cls-222" points="0 317.8 1296 325.31 1296 327.4 0 319.89 0 317.8"/><polygon class="cls-223" points="0 315.71 1296 323.22 1296 325.31 0 317.8 0 315.71"/><polygon class="cls-223" points="0 313.62 1296 321.13 1296 323.22 0 315.71 0 313.62"/><polygon class="cls-224" points="0 311.53 1296 319.05 1296 321.13 0 313.62 0 311.53"/><polygon class="cls-224" points="0 309.44 1296 316.96 1296 319.05 0 311.53 0 309.44"/><polygon class="cls-225" points="0 307.35 1296 314.87 1296 316.96 0 309.44 0 307.35"/><polygon class="cls-226" points="0 305.26 1296 312.78 1296 314.87 0 307.35 0 305.26"/><polygon class="cls-226" points="0 303.18 1296 310.69 1296 312.78 0 305.26 0 303.18"/><polygon class="cls-227" points="0 301.09 1296 308.6 1296 310.69 0 303.18 0 301.09"/><polygon class="cls-227" points="0 299 1296 306.51 1296 308.6 0 301.09 0 299"/><polygon class="cls-228" points="0 296.91 1296 304.42 1296 306.51 0 299 0 296.91"/><polygon class="cls-229" points="0 294.82 1296 302.33 1296 304.42 0 296.91 0 294.82"/><polygon class="cls-230" points="0 292.73 1296 300.24 1296 302.33 0 294.82 0 292.73"/><polygon class="cls-230" points="0 290.64 1296 298.15 1296 300.24 0 292.73 0 290.64"/><polygon class="cls-231" points="0 288.55 1296 296.06 1296 298.15 0 290.64 0 288.55"/><polygon class="cls-232" points="0 286.46 1296 293.98 1296 296.06 0 288.55 0 286.46"/><polygon class="cls-233" points="0 284.37 1296 291.88 1296 293.98 0 286.46 0 284.37"/><polygon class="cls-233" points="0 282.28 1296 289.8 1296 291.88 0 284.37 0 282.28"/><polygon class="cls-234" points="0 280.19 1296 287.71 1296 289.8 0 282.28 0 280.19"/><polygon class="cls-234" points="0 278.1 1296 285.62 1296 287.71 0 280.19 0 278.1"/><polygon class="cls-235" points="0 276.01 1296 283.53 1296 285.62 0 278.1 0 276.01"/><polygon class="cls-236" points="0 273.93 1296 281.44 1296 283.53 0 276.01 0 273.93"/><polygon class="cls-237" points="0 271.84 1296 279.35 1296 281.44 0 273.93 0 271.84"/><polygon class="cls-238" points="0 269.75 1296 277.26 1296 279.35 0 271.84 0 269.75"/><polygon class="cls-238" points="0 267.66 1296 275.17 1296 277.26 0 269.75 0 267.66"/><polygon class="cls-239" points="0 265.57 1296 273.08 1296 275.17 0 267.66 0 265.57"/><polygon class="cls-239" points="0 263.48 1296 270.99 1296 273.08 0 265.57 0 263.48"/><polygon class="cls-240" points="0 261.39 1296 268.9 1296 270.99 0 263.48 0 261.39"/><polygon class="cls-240" points="0 259.3 1296 266.81 1296 268.9 0 261.39 0 259.3"/><polygon class="cls-241" points="0 257.21 1296 264.73 1296 266.81 0 259.3 0 257.21"/><polygon class="cls-241" points="0 255.12 1296 262.64 1296 264.73 0 257.21 0 255.12"/><polygon class="cls-242" points="0 253.03 1296 260.55 1296 262.64 0 255.12 0 253.03"/><polygon class="cls-243" points="0 250.94 1296 258.46 1296 260.55 0 253.03 0 250.94"/><polygon class="cls-244" points="0 248.85 1296 256.37 1296 258.46 0 250.94 0 248.85"/><polygon class="cls-244" points="0 246.76 1296 254.28 1296 256.37 0 248.85 0 246.76"/><polygon class="cls-245" points="0 244.68 1296 252.19 1296 254.28 0 246.76 0 244.68"/><polygon class="cls-245" points="0 242.59 1296 250.1 1296 252.19 0 244.68 0 242.59"/><polygon class="cls-246" points="0 240.5 1296 248.01 1296 250.1 0 242.59 0 240.5"/><polygon class="cls-246" points="0 238.41 1296 245.92 1296 248.01 0 240.5 0 238.41"/><polygon class="cls-247" points="0 236.32 1296 243.83 1296 245.92 0 238.41 0 236.32"/><polygon class="cls-248" points="0 234.23 1296 241.74 1296 243.83 0 236.32 0 234.23"/><polygon class="cls-248" points="0 232.14 1296 239.65 1296 241.74 0 234.23 0 232.14"/><polygon class="cls-249" points="0 230.05 1296 237.56 1296 239.65 0 232.14 0 230.05"/><polygon class="cls-249" points="0 227.96 1296 235.47 1296 237.56 0 230.05 0 227.96"/><polygon class="cls-250" points="0 225.87 1296 233.39 1296 235.47 0 227.96 0 225.87"/><polygon class="cls-250" points="0 223.78 1296 231.3 1296 233.39 0 225.87 0 223.78"/><polygon class="cls-251" points="0 221.69 1296 229.21 1296 231.3 0 223.78 0 221.69"/><polygon class="cls-251" points="0 219.6 1296 227.12 1296 229.21 0 221.69 0 219.6"/><polygon class="cls-252" points="0 217.52 1296 225.03 1296 227.12 0 219.6 0 217.52"/><polygon class="cls-253" points="0 215.43 1296 222.94 1296 225.03 0 217.52 0 215.43"/><polygon class="cls-254" points="0 213.34 1296 220.85 1296 222.94 0 215.43 0 213.34"/><polygon class="cls-254" points="0 211.25 1296 218.76 1296 220.85 0 213.34 0 211.25"/><polygon class="cls-255" points="0 209.16 1296 216.67 1296 218.76 0 211.25 0 209.16"/><polygon class="cls-255" points="0 207.07 1296 214.58 1296 216.67 0 209.16 0 207.07"/><polygon class="cls-256" points="0 204.98 1296 212.49 1296 214.58 0 207.07 0 204.98"/><polygon class="cls-257" points="0 202.89 1296 210.4 1296 212.49 0 204.98 0 202.89"/><polygon class="cls-258" points="0 200.8 1296 208.31 1296 210.4 0 202.89 0 200.8"/><polygon class="cls-259" points="0 198.71 1296 206.22 1296 208.31 0 200.8 0 198.71"/><polygon class="cls-260" points="0 196.62 1296 204.14 1296 206.22 0 198.71 0 196.62"/><polygon class="cls-261" points="0 194.53 1296 202.05 1296 204.14 0 196.62 0 194.53"/><polygon class="cls-262" points="0 192.44 1296 199.96 1296 202.05 0 194.53 0 192.44"/><polygon class="cls-262" points="0 190.35 1296 197.87 1296 199.96 0 192.44 0 190.35"/><polygon class="cls-263" points="0 188.27 1296 195.78 1296 197.87 0 190.35 0 188.27"/><polygon class="cls-263" points="0 186.18 1296 193.69 1296 195.78 0 188.27 0 186.18"/><polygon class="cls-264" points="0 184.09 1296 191.6 1296 193.69 0 186.18 0 184.09"/><polygon class="cls-265" points="0 182 1296 189.51 1296 191.6 0 184.09 0 182"/><polygon class="cls-266" points="0 179.91 1296 187.42 1296 189.51 0 182 0 179.91"/><polygon class="cls-266" points="0 177.82 1296 185.33 1296 187.42 0 179.91 0 177.82"/><polygon class="cls-266" points="0 175.73 1296 183.24 1296 185.33 0 177.82 0 175.73"/><polygon class="cls-267" points="0 173.64 1296 181.15 1296 183.24 0 175.73 0 173.64"/><polygon class="cls-267" points="0 171.55 1296 179.06 1296 181.15 0 173.64 0 171.55"/><polygon class="cls-268" points="0 169.46 1296 176.98 1296 179.06 0 171.55 0 169.46"/><polygon class="cls-269" points="0 167.37 1296 174.89 1296 176.98 0 169.46 0 167.37"/><polygon class="cls-270" points="0 165.28 1296 172.8 1296 174.89 0 167.37 0 165.28"/><polygon class="cls-270" points="0 163.19 1296 170.71 1296 172.8 0 165.28 0 163.19"/><polygon class="cls-271" points="0 161.11 1296 168.62 1296 170.71 0 163.19 0 161.11"/><polygon class="cls-271" points="0 159.02 1296 166.53 1296 168.62 0 161.11 0 159.02"/><polygon class="cls-272" points="0 156.93 1296 164.44 1296 166.53 0 159.02 0 156.93"/><polygon class="cls-272" points="0 154.84 1296 162.35 1296 164.44 0 156.93 0 154.84"/><polygon class="cls-273" points="0 152.75 1296 160.26 1296 162.35 0 154.84 0 152.75"/><polygon class="cls-273" points="0 150.66 1296 158.17 1296 160.26 0 152.75 0 150.66"/><polygon class="cls-274" points="0 148.57 1296 156.08 1296 158.17 0 150.66 0 148.57"/><polygon class="cls-275" points="0 146.48 1296 153.99 1296 156.08 0 148.57 0 146.48"/><polygon class="cls-276" points="0 144.39 1296 151.91 1296 153.99 0 146.48 0 144.39"/><polygon class="cls-277" points="0 142.3 1296 149.81 1296 151.91 0 144.39 0 142.3"/><polygon class="cls-278" points="0 140.21 1296 147.73 1296 149.81 0 142.3 0 140.21"/><polygon class="cls-278" points="0 138.12 1296 145.64 1296 147.73 0 140.21 0 138.12"/><polygon class="cls-279" points="0 136.03 1296 143.55 1296 145.64 0 138.12 0 136.03"/><polygon class="cls-280" points="0 133.94 1296 141.46 1296 143.55 0 136.03 0 133.94"/><polygon class="cls-281" points="0 131.86 1296 139.37 1296 141.46 0 133.94 0 131.86"/><polygon class="cls-281" points="0 129.77 1296 137.28 1296 139.37 0 131.86 0 129.77"/><polygon class="cls-282" points="0 127.68 1296 135.19 1296 137.28 0 129.77 0 127.68"/><polygon class="cls-283" points="0 125.59 1296 133.1 1296 135.19 0 127.68 0 125.59"/><polygon class="cls-284" points="0 123.5 1296 131.01 1296 133.1 0 125.59 0 123.5"/><polygon class="cls-284" points="0 121.41 1296 128.92 1296 131.01 0 123.5 0 121.41"/><polygon class="cls-285" points="0 119.32 1296 126.83 1296 128.92 0 121.41 0 119.32"/><polygon class="cls-285" points="0 117.23 1296 124.74 1296 126.83 0 119.32 0 117.23"/><polygon class="cls-286" points="0 115.14 1296 122.66 1296 124.74 0 117.23 0 115.14"/><polygon class="cls-287" points="0 113.05 1296 120.57 1296 122.66 0 115.14 0 113.05"/><polygon class="cls-288" points="0 110.96 1296 118.48 1296 120.57 0 113.05 0 110.96"/><polygon class="cls-288" points="0 108.87 1296 116.39 1296 118.48 0 110.96 0 108.87"/><polygon class="cls-289" points="0 106.78 1296 114.3 1296 116.39 0 108.87 0 106.78"/><polygon class="cls-290" points="0 104.7 1296 112.21 1296 114.3 0 106.78 0 104.7"/><polygon class="cls-291" points="0 102.61 1296 110.12 1296 112.21 0 104.7 0 102.61"/><polygon class="cls-292" points="0 100.52 1296 108.03 1296 110.12 0 102.61 0 100.52"/><polygon class="cls-293" points="0 98.43 1296 105.94 1296 108.03 0 100.52 0 98.43"/><polygon class="cls-293" points="0 96.34 1296 103.85 1296 105.94 0 98.43 0 96.34"/><polygon class="cls-294" points="0 94.25 1296 101.76 1296 103.85 0 96.34 0 94.25"/><polygon class="cls-295" points="0 92.16 1296 99.67 1296 101.76 0 94.25 0 92.16"/><polygon class="cls-296" points="0 90.07 1296 97.58 1296 99.67 0 92.16 0 90.07"/><polygon class="cls-296" points="0 87.98 1296 95.49 1296 97.58 0 90.07 0 87.98"/><polygon class="cls-297" points="0 85.89 1296 93.41 1296 95.49 0 87.98 0 85.89"/><polygon class="cls-297" points="0 83.8 1296 91.32 1296 93.41 0 85.89 0 83.8"/><polygon class="cls-298" points="0 81.71 1296 89.23 1296 91.32 0 83.8 0 81.71"/><polygon class="cls-299" points="0 79.62 1296 87.14 1296 89.23 0 81.71 0 79.62"/><polygon class="cls-300" points="0 77.53 1296 85.05 1296 87.14 0 79.62 0 77.53"/><polygon class="cls-300" points="0 75.45 1296 82.96 1296 85.05 0 77.53 0 75.45"/><polygon class="cls-301" points="0 73.36 1296 80.87 1296 82.96 0 75.45 0 73.36"/><polygon class="cls-301" points="0 71.27 1296 78.78 1296 80.87 0 73.36 0 71.27"/><polygon class="cls-302" points="0 69.18 1296 76.69 1296 78.78 0 71.27 0 69.18"/><polygon class="cls-303" points="0 67.09 1296 74.6 1296 76.69 0 69.18 0 67.09"/><polygon class="cls-304" points="0 65 1296 72.51 1296 74.6 0 67.09 0 65"/><polygon class="cls-304" points="0 62.91 1296 70.42 1296 72.51 0 65 0 62.91"/><polygon class="cls-305" points="0 60.82 1296 68.33 1296 70.42 0 62.91 0 60.82"/><polygon class="cls-306" points="0 58.73 1296 66.25 1296 68.33 0 60.82 0 58.73"/><polygon class="cls-307" points="0 56.64 1296 64.16 1296 66.25 0 58.73 0 56.64"/><polygon class="cls-307" points="0 54.55 1296 62.07 1296 64.16 0 56.64 0 54.55"/><polygon class="cls-308" points="0 52.46 1296 59.98 1296 62.07 0 54.55 0 52.46"/><polygon class="cls-309" points="0 50.38 1296 57.89 1296 59.98 0 52.46 0 50.38"/><polygon class="cls-310" points="0 48.28 1296 55.8 1296 57.89 0 50.38 0 48.28"/><polygon class="cls-311" points="0 46.2 1296 53.71 1296 55.8 0 48.28 0 46.2"/><polygon class="cls-312" points="0 44.11 1296 51.62 1296 53.71 0 46.2 0 44.11"/><polygon class="cls-312" points="0 42.02 1296 49.53 1296 51.62 0 44.11 0 42.02"/><polygon class="cls-313" points="0 39.93 1296 47.44 1296 49.53 0 42.02 0 39.93"/><polygon class="cls-313" points="0 37.84 1296 45.35 1296 47.44 0 39.93 0 37.84"/><polygon class="cls-314" points="0 35.75 1296 43.26 1296 45.35 0 37.84 0 35.75"/><polygon class="cls-315" points="0 33.66 1296 41.17 1296 43.26 0 35.75 0 33.66"/><polygon class="cls-316" points="0 31.57 1296 39.08 1296 41.17 0 33.66 0 31.57"/><polygon class="cls-317" points="0 29.48 1296 36.99 1296 39.08 0 31.57 0 29.48"/><polygon class="cls-318" points="0 27.39 1296 34.91 1296 36.99 0 29.48 0 27.39"/><polygon class="cls-319" points="0 25.3 1296 32.82 1296 34.91 0 27.39 0 25.3"/><polygon class="cls-319" points="0 23.21 1296 30.73 1296 32.82 0 25.3 0 23.21"/><polygon class="cls-320" points="0 21.13 1296 28.64 1296 30.73 0 23.21 0 21.13"/><polygon class="cls-320" points="0 19.04 1296 26.55 1296 28.64 0 21.13 0 19.04"/><polygon class="cls-321" points="0 16.95 1296 24.46 1296 26.55 0 19.04 0 16.95"/><polygon class="cls-322" points="0 14.86 1296 22.37 1296 24.46 0 16.95 0 14.86"/><polygon class="cls-323" points="0 12.77 1296 20.28 1296 22.37 0 14.86 0 12.77"/><polygon class="cls-323" points="0 10.68 1296 18.19 1296 20.28 0 12.77 0 10.68"/><polygon class="cls-324" points="0 8.59 1296 16.1 1296 18.19 0 10.68 0 8.59"/><polygon class="cls-325" points="0 6.5 1296 14.01 1296 16.1 0 8.59 0 6.5"/><polygon class="cls-326" points="0 4.41 1296 11.92 1296 14.01 0 6.5 0 4.41"/><polygon class="cls-326" points="0 2.32 1296 9.84 1296 11.92 0 4.41 0 2.32"/><polygon class="cls-327" points="0 0.23 1296 7.75 1296 9.84 0 2.32 0 0.23"/><polygon class="cls-327" points="320.31 0 1296 5.66 1296 7.75 0 0.23 0 0 320.31 0"/><polygon class="cls-328" points="680.71 0 1296 3.57 1296 5.66 320.31 0 680.71 0"/><polygon class="cls-329" points="1041.11 0 1296 1.48 1296 3.57 680.71 0 1041.11 0"/><polygon class="cls-330" points="1296 1.48 1041.11 0 1296 0 1296 1.48"/></g><path class="cls-331" d="M272,705.93A141.58,141.58,0,1,1,413.56,564.35,141.58,141.58,0,0,1,272,705.93m0-286a144.4,144.4,0,1,0,144.4,144.4A144.4,144.4,0,0,0,272,420" transform="translate(0 0)"/><path class="cls-332" d="M272,703.1A138.75,138.75,0,1,1,410.73,564.35,138.75,138.75,0,0,1,272,703.1m0-280.33A141.58,141.58,0,1,0,413.56,564.35,141.58,141.58,0,0,0,272,422.77" transform="translate(0 0)"/><path class="cls-333" d="M272,700.28A135.93,135.93,0,1,1,407.91,564.35,135.92,135.92,0,0,1,272,700.28m0-274.68A138.75,138.75,0,1,0,410.73,564.35,138.75,138.75,0,0,0,272,425.6" transform="translate(0 0)"/><path class="cls-334" d="M272,697.45a133.1,133.1,0,1,1,133.1-133.1A133.1,133.1,0,0,1,272,697.45m0-269A135.93,135.93,0,1,0,407.91,564.35,135.92,135.92,0,0,0,272,428.42" transform="translate(0 0)"/><path class="cls-335" d="M272,694.62A130.28,130.28,0,1,1,402.26,564.35,130.27,130.27,0,0,1,272,694.62m0-263.37a133.1,133.1,0,1,0,133.1,133.1A133.1,133.1,0,0,0,272,431.25" transform="translate(0 0)"/><path class="cls-336" d="M272,691.8A127.45,127.45,0,1,1,399.43,564.35,127.45,127.45,0,0,1,272,691.8m0-257.73A130.28,130.28,0,1,0,402.26,564.35,130.27,130.27,0,0,0,272,434.07" transform="translate(0 0)"/><path class="cls-337" d="M272,689A124.63,124.63,0,1,1,396.61,564.35,124.61,124.61,0,0,1,272,689m0-252.07A127.45,127.45,0,1,0,399.43,564.35,127.45,127.45,0,0,0,272,436.9" transform="translate(0 0)"/><path class="cls-338" d="M272,686.15a121.8,121.8,0,1,1,121.8-121.8A121.8,121.8,0,0,1,272,686.15m0-246.43A124.63,124.63,0,1,0,396.61,564.35,124.62,124.62,0,0,0,272,439.72" transform="translate(0 0)"/><path class="cls-339" d="M272,683.32a119,119,0,1,1,119-119,119,119,0,0,1-119,119m0-240.77a121.8,121.8,0,1,0,121.8,121.8A121.8,121.8,0,0,0,272,442.55" transform="translate(0 0)"/><path class="cls-340" d="M272,680.5A116.15,116.15,0,1,1,388.13,564.35,116.15,116.15,0,0,1,272,680.5m0-235.13a119,119,0,1,0,119,119,119,119,0,0,0-119-119" transform="translate(0 0)"/><path class="cls-341" d="M272,677.67A113.32,113.32,0,1,1,385.3,564.35,113.31,113.31,0,0,1,272,677.67m0-229.47A116.15,116.15,0,1,0,388.13,564.35,116.15,116.15,0,0,0,272,448.2" transform="translate(0 0)"/><path class="cls-342" d="M272,674.85a110.5,110.5,0,1,1,110.5-110.5A110.5,110.5,0,0,1,272,674.85M272,451A113.32,113.32,0,1,0,385.3,564.35,113.31,113.31,0,0,0,272,451" transform="translate(0 0)"/><path class="cls-343" d="M272,672A107.67,107.67,0,1,1,379.65,564.35,107.68,107.68,0,0,1,272,672m0-218.17a110.5,110.5,0,1,0,110.5,110.5A110.5,110.5,0,0,0,272,453.85" transform="translate(0 0)"/><path class="cls-344" d="M272,669.2A104.85,104.85,0,1,1,376.83,564.35,104.86,104.86,0,0,1,272,669.2m0-212.52A107.67,107.67,0,1,0,379.65,564.35,107.67,107.67,0,0,0,272,456.68" transform="translate(0 0)"/><path class="cls-345" d="M272,666.37a102,102,0,1,1,102-102,102,102,0,0,1-102,102m0-206.87A104.85,104.85,0,1,0,376.83,564.35,104.85,104.85,0,0,0,272,459.5" transform="translate(0 0)"/><path class="cls-346" d="M272,663.54a99.2,99.2,0,1,1,99.2-99.19A99.19,99.19,0,0,1,272,663.54m0-201.21a102,102,0,1,0,102,102,102,102,0,0,0-102-102" transform="translate(0 0)"/><path class="cls-347" d="M272,660.72a96.37,96.37,0,1,1,96.37-96.37A96.37,96.37,0,0,1,272,660.72m0-195.57a99.2,99.2,0,1,0,99.2,99.2,99.19,99.19,0,0,0-99.2-99.2" transform="translate(0 0)"/><path class="cls-348" d="M272,657.89a93.55,93.55,0,1,1,93.55-93.54A93.54,93.54,0,0,1,272,657.89M272,468a96.37,96.37,0,1,0,96.37,96.37A96.37,96.37,0,0,0,272,468" transform="translate(0 0)"/><path class="cls-349" d="M272,655.07a90.72,90.72,0,1,1,90.72-90.72A90.72,90.72,0,0,1,272,655.07m0-184.27a93.55,93.55,0,1,0,93.55,93.55A93.55,93.55,0,0,0,272,470.8" transform="translate(0 0)"/><path class="cls-350" d="M272,652.24a87.9,87.9,0,1,1,87.89-87.89A87.89,87.89,0,0,1,272,652.24m0-178.61a90.72,90.72,0,1,0,90.72,90.72A90.72,90.72,0,0,0,272,473.63" transform="translate(0 0)"/><path class="cls-351" d="M272,649.42a85.07,85.07,0,1,1,85.07-85.07A85.07,85.07,0,0,1,272,649.42m0-173a87.9,87.9,0,1,0,87.89,87.9A87.9,87.9,0,0,0,272,476.45" transform="translate(0 0)"/><path class="cls-352" d="M272,646.59a82.24,82.24,0,1,1,82.24-82.24A82.24,82.24,0,0,1,272,646.59m0-167.31a85.07,85.07,0,1,0,85.07,85.07A85.07,85.07,0,0,0,272,479.28" transform="translate(0 0)"/><path class="cls-353" d="M272,643.77a79.42,79.42,0,1,1,79.42-79.42A79.42,79.42,0,0,1,272,643.77m0-161.66a82.24,82.24,0,1,0,82.24,82.24A82.24,82.24,0,0,0,272,482.11" transform="translate(0 0)"/><path class="cls-354" d="M272,640.94a76.59,76.59,0,1,1,76.59-76.59A76.59,76.59,0,0,1,272,640.94m0-156a79.42,79.42,0,1,0,79.42,79.42A79.42,79.42,0,0,0,272,484.93" transform="translate(0 0)"/><path class="cls-355" d="M272,638.12a73.77,73.77,0,1,1,73.77-73.77A73.77,73.77,0,0,1,272,638.12m0-150.36a76.59,76.59,0,1,0,76.59,76.59A76.59,76.59,0,0,0,272,487.76" transform="translate(0 0)"/><path class="cls-356" d="M272,635.29a70.94,70.94,0,1,1,70.94-70.94A70.94,70.94,0,0,1,272,635.29m0-144.71a73.77,73.77,0,1,0,73.77,73.77A73.77,73.77,0,0,0,272,490.58" transform="translate(0 0)"/><path class="cls-357" d="M272,632.46a68.12,68.12,0,1,1,68.12-68.11A68.11,68.11,0,0,1,272,632.46m0-139a70.94,70.94,0,1,0,70.94,70.94A70.94,70.94,0,0,0,272,493.41" transform="translate(0 0)"/><path class="cls-358" d="M272,629.64a65.29,65.29,0,1,1,65.29-65.29A65.29,65.29,0,0,1,272,629.64m0-133.41a68.12,68.12,0,1,0,68.12,68.12A68.11,68.11,0,0,0,272,496.23" transform="translate(0 0)"/><path class="cls-359" d="M272,626.81a62.47,62.47,0,1,1,62.47-62.46A62.45,62.45,0,0,1,272,626.81m0-127.75a65.29,65.29,0,1,0,65.29,65.29A65.29,65.29,0,0,0,272,499.06" transform="translate(0 0)"/><path class="cls-360" d="M272,624a59.64,59.64,0,1,1,59.64-59.64A59.64,59.64,0,0,1,272,624m0-122.11a62.47,62.47,0,1,0,62.47,62.47A62.46,62.46,0,0,0,272,501.88" transform="translate(0 0)"/><path class="cls-361" d="M272,621.16a56.81,56.81,0,1,1,56.82-56.81A56.8,56.8,0,0,1,272,621.16m0-116.45a59.64,59.64,0,1,0,59.64,59.64A59.64,59.64,0,0,0,272,504.71" transform="translate(0 0)"/><path class="cls-362" d="M272,507.54a56.81,56.81,0,1,1-56.81,56.81A56.81,56.81,0,0,1,272,507.54" transform="translate(0 0)"/></g></g></svg>