<svg xmlns="http://www.w3.org/2000/svg" viewBox="0 0 1296 1100"><defs><style>.cls-1{fill:#002d4c;}.cls-2{fill:#002d4b;}.cls-3{fill:#002c4b;}.cls-4{fill:#002c4a;}.cls-5{fill:#002b49;}.cls-6{fill:#002b48;}.cls-7{fill:#002a48;}.cls-8{fill:#002a47;}.cls-9{fill:#002a46;}.cls-10{fill:#002946;}.cls-11{fill:#002945;}.cls-12{fill:#002944;}.cls-13{fill:#002844;}.cls-14{fill:#002843;}.cls-15{fill:#002742;}.cls-16{fill:#002741;}.cls-17{fill:#002641;}.cls-18{fill:#002640;}.cls-19{fill:#00263f;}.cls-20{fill:#00253f;}.cls-21{fill:#00253e;}.cls-22{fill:#00253d;}.cls-23{fill:#00243d;}.cls-24{fill:#00243c;}.cls-25{fill:#00233b;}.cls-26{fill:#00233a;}.cls-27{fill:#00223a;}.cls-28{fill:#002239;}.cls-29{fill:#002238;}.cls-30{fill:#002138;}.cls-31{fill:#002137;}.cls-32{fill:#002036;}.cls-33{fill:#002035;}.cls-34{fill:#001f35;}.cls-35{fill:#001f34;}.cls-36{fill:#001f33;}.cls-37{fill:#001e33;}.cls-38{fill:#001e32;}.cls-39{fill:#001e31;}.cls-40{fill:#001d31;}.cls-41{fill:#001d30;}.cls-42{fill:#001c2f;}.cls-43{fill:#001c2e;}.cls-44{fill:#001b2e;}.cls-45{fill:#001b2d;}.cls-46{fill:#001b2c;}.cls-47{fill:#001a2c;}.cls-48{fill:#001a2b;}.cls-49{fill:#001a2a;}.cls-50{fill:#00192a;}.cls-51{fill:#001929;}.cls-52{fill:#001828;}.cls-53{fill:#001827;}.cls-54{fill:#001727;}.cls-55{fill:#001726;}.cls-56{fill:#686868;opacity:0.28;}.cls-57{fill:#939393;opacity:0.28;}.cls-58{fill:#818181;opacity:0.48;}</style></defs><title>Night</title><g id="Layer_2" data-name="Layer 2"><g id="Layer_1-2" data-name="Layer 1"><rect class="cls-1" width="1296" height="1100"/><rect class="cls-1" y="2.9" width="1296" height="1097.1"/><rect class="cls-1" y="5.8" width="1296" height="1094.2"/><rect class="cls-1" y="8.7" width="1296" height="1091.3"/><rect class="cls-2" y="11.6" width="1296" height="1088.4"/><rect class="cls-2" y="14.5" width="1296" height="1085.5"/><rect class="cls-3" y="17.4" width="1296" height="1082.6"/><rect class="cls-3" y="20.3" width="1296" height="1079.7"/><rect class="cls-3" y="23.2" width="1296" height="1076.8"/><rect class="cls-3" y="26.1" width="1296" height="1073.9"/><rect class="cls-3" y="29" width="1296" height="1071"/><rect class="cls-4" y="31.9" width="1296" height="1068.1"/><rect class="cls-4" y="34.8" width="1296" height="1065.2"/><rect class="cls-4" y="37.7" width="1296" height="1062.3"/><rect class="cls-4" y="40.6" width="1296" height="1059.4"/><rect class="cls-4" y="43.5" width="1296" height="1056.5"/><rect class="cls-4" y="46.4" width="1296" height="1053.6"/><rect class="cls-4" y="49.3" width="1296" height="1050.7"/><rect class="cls-5" y="52.2" width="1296" height="1047.8"/><rect class="cls-5" y="55.1" width="1296" height="1044.9"/><rect class="cls-5" y="58" width="1296" height="1042"/><rect class="cls-5" y="60.9" width="1296" height="1039.1"/><rect class="cls-5" y="63.8" width="1296" height="1036.2"/><rect class="cls-5" y="66.7" width="1296" height="1033.3"/><rect class="cls-6" y="69.6" width="1296" height="1030.4"/><rect class="cls-6" y="72.5" width="1296" height="1027.5"/><rect class="cls-6" y="75.4" width="1296" height="1024.6"/><rect class="cls-6" y="78.3" width="1296" height="1021.7"/><rect class="cls-6" y="81.2" width="1296" height="1018.8"/><rect class="cls-6" y="84.1" width="1296" height="1015.9"/><rect class="cls-7" y="87" width="1296" height="1013"/><rect class="cls-8" y="89.9" width="1296" height="1010.1"/><rect class="cls-8" y="92.8" width="1296" height="1007.2"/><rect class="cls-8" y="95.7" width="1296" height="1004.3"/><rect class="cls-8" y="98.6" width="1296" height="1001.4"/><rect class="cls-8" y="101.5" width="1296" height="998.5"/><rect class="cls-8" y="104.4" width="1296" height="995.6"/><rect class="cls-8" y="107.3" width="1296" height="992.7"/><rect class="cls-9" y="110.2" width="1296" height="989.8"/><rect class="cls-9" y="113.1" width="1296" height="986.9"/><rect class="cls-9" y="116" width="1296" height="984"/><rect class="cls-9" y="118.9" width="1296" height="981.1"/><rect class="cls-10" y="121.8" width="1296" height="978.2"/><rect class="cls-10" y="124.7" width="1296" height="975.3"/><rect class="cls-10" y="127.6" width="1296" height="972.4"/><rect class="cls-11" y="130.5" width="1296" height="969.5"/><rect class="cls-11" y="133.4" width="1296" height="966.6"/><rect class="cls-11" y="136.3" width="1296" height="963.7"/><rect class="cls-11" y="139.2" width="1296" height="960.8"/><rect class="cls-11" y="142.1" width="1296" height="957.9"/><rect class="cls-11" y="145" width="1296" height="955"/><rect class="cls-11" y="147.9" width="1296" height="952.1"/><rect class="cls-12" y="150.8" width="1296" height="949.2"/><rect class="cls-12" y="153.7" width="1296" height="946.3"/><rect class="cls-13" y="156.6" width="1296" height="943.4"/><rect class="cls-13" y="159.5" width="1296" height="940.5"/><rect class="cls-13" y="162.4" width="1296" height="937.6"/><rect class="cls-13" y="165.3" width="1296" height="934.7"/><rect class="cls-13" y="168.2" width="1296" height="931.8"/><rect class="cls-14" y="171.1" width="1296" height="928.9"/><rect class="cls-14" y="174" width="1296" height="926"/><rect class="cls-14" y="176.9" width="1296" height="923.1"/><rect class="cls-14" y="179.8" width="1296" height="920.2"/><rect class="cls-14" y="182.7" width="1296" height="917.3"/><rect class="cls-14" y="185.6" width="1296" height="914.4"/><rect class="cls-15" y="188.5" width="1296" height="911.5"/><rect class="cls-15" y="191.4" width="1296" height="908.6"/><rect class="cls-15" y="194.3" width="1296" height="905.7"/><rect class="cls-15" y="197.2" width="1296" height="902.8"/><rect class="cls-15" y="200.1" width="1296" height="899.9"/><rect class="cls-15" y="203" width="1296" height="897"/><rect class="cls-15" y="205.9" width="1296" height="894.1"/><rect class="cls-16" y="208.8" width="1296" height="891.2"/><rect class="cls-16" y="211.7" width="1296" height="888.3"/><rect class="cls-16" y="214.6" width="1296" height="885.4"/><rect class="cls-16" y="217.5" width="1296" height="882.5"/><rect class="cls-16" y="220.4" width="1296" height="879.6"/><rect class="cls-17" y="223.3" width="1296" height="876.7"/><rect class="cls-17" y="226.2" width="1296" height="873.8"/><rect class="cls-18" y="229.1" width="1296" height="870.9"/><rect class="cls-18" y="232" width="1296" height="868"/><rect class="cls-18" y="234.9" width="1296" height="865.1"/><rect class="cls-18" y="237.8" width="1296" height="862.2"/><rect class="cls-18" y="240.7" width="1296" height="859.3"/><rect class="cls-18" y="243.6" width="1296" height="856.4"/><rect class="cls-18" y="246.5" width="1296" height="853.5"/><rect class="cls-19" y="249.4" width="1296" height="850.6"/><rect class="cls-19" y="252.3" width="1296" height="847.7"/><rect class="cls-19" y="255.2" width="1296" height="844.8"/><rect class="cls-20" y="258.1" width="1296" height="841.9"/><rect class="cls-20" y="261" width="1296" height="839"/><rect class="cls-20" y="263.9" width="1296" height="836.1"/><rect class="cls-20" y="266.8" width="1296" height="833.2"/><rect class="cls-21" y="269.7" width="1296" height="830.3"/><rect class="cls-21" y="272.6" width="1296" height="827.4"/><rect class="cls-21" y="275.5" width="1296" height="824.5"/><rect class="cls-21" y="278.4" width="1296" height="821.6"/><rect class="cls-21" y="281.3" width="1296" height="818.7"/><rect class="cls-21" y="284.2" width="1296" height="815.8"/><rect class="cls-21" y="287.1" width="1296" height="812.9"/><rect class="cls-22" y="290" width="1296" height="810"/><rect class="cls-23" y="292.9" width="1296" height="807.1"/><rect class="cls-23" y="295.8" width="1296" height="804.2"/><rect class="cls-23" y="298.7" width="1296" height="801.3"/><rect class="cls-23" y="301.6" width="1296" height="798.4"/><rect class="cls-23" y="304.5" width="1296" height="795.5"/><rect class="cls-23" y="307.4" width="1296" height="792.6"/><rect class="cls-24" y="310.3" width="1296" height="789.7"/><rect class="cls-24" y="313.2" width="1296" height="786.8"/><rect class="cls-24" y="316.1" width="1296" height="783.9"/><rect class="cls-24" y="319" width="1296" height="781"/><rect class="cls-24" y="321.9" width="1296" height="778.1"/><rect class="cls-24" y="324.8" width="1296" height="775.2"/><rect class="cls-25" y="327.7" width="1296" height="772.3"/><rect class="cls-25" y="330.6" width="1296" height="769.4"/><rect class="cls-25" y="333.5" width="1296" height="766.5"/><rect class="cls-25" y="336.4" width="1296" height="763.6"/><rect class="cls-25" y="339.3" width="1296" height="760.7"/><rect class="cls-25" y="342.2" width="1296" height="757.8"/><rect class="cls-25" y="345.1" width="1296" height="754.9"/><rect class="cls-26" y="348" width="1296" height="752"/><rect class="cls-26" y="350.9" width="1296" height="749.1"/><rect class="cls-26" y="353.8" width="1296" height="746.2"/><rect class="cls-26" y="356.7" width="1296" height="743.3"/><rect class="cls-26" y="359.6" width="1296" height="740.4"/><rect class="cls-27" y="362.5" width="1296" height="737.5"/><rect class="cls-27" y="365.4" width="1296" height="734.6"/><rect class="cls-28" y="368.3" width="1296" height="731.7"/><rect class="cls-28" y="371.2" width="1296" height="728.8"/><rect class="cls-28" y="374.1" width="1296" height="725.9"/><rect class="cls-28" y="377" width="1296" height="723"/><rect class="cls-28" y="379.9" width="1296" height="720.1"/><rect class="cls-28" y="382.8" width="1296" height="717.2"/><rect class="cls-28" y="385.7" width="1296" height="714.3"/><rect class="cls-29" y="388.6" width="1296" height="711.4"/><rect class="cls-29" y="391.5" width="1296" height="708.5"/><rect class="cls-30" y="394.4" width="1296" height="705.6"/><rect class="cls-30" y="397.3" width="1296" height="702.7"/><rect class="cls-30" y="400.2" width="1296" height="699.8"/><rect class="cls-30" y="403.1" width="1296" height="696.9"/><rect class="cls-30" y="406" width="1296" height="694"/><rect class="cls-31" y="408.9" width="1296" height="691.1"/><rect class="cls-31" y="411.8" width="1296" height="688.2"/><rect class="cls-31" y="414.7" width="1296" height="685.3"/><rect class="cls-31" y="417.6" width="1296" height="682.4"/><rect class="cls-31" y="420.5" width="1296" height="679.5"/><rect class="cls-31" y="423.4" width="1296" height="676.6"/><rect class="cls-31" y="426.3" width="1296" height="673.7"/><rect class="cls-32" y="429.2" width="1296" height="670.8"/><rect class="cls-32" y="432.1" width="1296" height="667.9"/><rect class="cls-32" y="435" width="1296" height="665"/><rect class="cls-32" y="437.9" width="1296" height="662.1"/><rect class="cls-32" y="440.8" width="1296" height="659.2"/><rect class="cls-32" y="443.7" width="1296" height="656.3"/><rect class="cls-33" y="446.6" width="1296" height="653.4"/><rect class="cls-33" y="449.5" width="1296" height="650.5"/><rect class="cls-33" y="452.4" width="1296" height="647.6"/><rect class="cls-33" y="455.3" width="1296" height="644.7"/><rect class="cls-33" y="458.2" width="1296" height="641.8"/><rect class="cls-33" y="461.1" width="1296" height="638.9"/><rect class="cls-34" y="464" width="1296" height="636"/><rect class="cls-35" y="466.9" width="1296" height="633.1"/><rect class="cls-35" y="469.8" width="1296" height="630.2"/><rect class="cls-35" y="472.7" width="1296" height="627.3"/><rect class="cls-35" y="475.6" width="1296" height="624.4"/><rect class="cls-35" y="478.5" width="1296" height="621.5"/><rect class="cls-35" y="481.4" width="1296" height="618.6"/><rect class="cls-35" y="484.3" width="1296" height="615.7"/><rect class="cls-36" y="487.2" width="1296" height="612.8"/><rect class="cls-36" y="490.1" width="1296" height="609.9"/><rect class="cls-36" y="493" width="1296" height="607"/><rect class="cls-36" y="495.9" width="1296" height="604.1"/><rect class="cls-37" y="498.8" width="1296" height="601.2"/><rect class="cls-37" y="501.7" width="1296" height="598.3"/><rect class="cls-37" y="504.6" width="1296" height="595.4"/><rect class="cls-38" y="507.5" width="1296" height="592.5"/><rect class="cls-38" y="510.4" width="1296" height="589.6"/><rect class="cls-38" y="513.3" width="1296" height="586.7"/><rect class="cls-38" y="516.2" width="1296" height="583.8"/><rect class="cls-38" y="519.1" width="1296" height="580.9"/><rect class="cls-38" y="522" width="1296" height="578"/><rect class="cls-38" y="524.9" width="1296" height="575.1"/><rect class="cls-39" y="527.8" width="1296" height="572.2"/><rect class="cls-39" y="530.7" width="1296" height="569.3"/><rect class="cls-40" y="533.6" width="1296" height="566.4"/><rect class="cls-40" y="536.5" width="1296" height="563.5"/><rect class="cls-40" y="539.4" width="1296" height="560.6"/><rect class="cls-40" y="542.3" width="1296" height="557.7"/><rect class="cls-40" y="545.2" width="1296" height="554.8"/><rect class="cls-41" y="548.1" width="1296" height="551.9"/><rect class="cls-41" y="551" width="1296" height="549"/><rect class="cls-41" y="553.9" width="1296" height="546.1"/><rect class="cls-41" y="556.8" width="1296" height="543.2"/><rect class="cls-41" y="559.7" width="1296" height="540.3"/><rect class="cls-41" y="562.6" width="1296" height="537.4"/><rect class="cls-41" y="565.5" width="1296" height="534.5"/><rect class="cls-42" y="568.4" width="1296" height="531.6"/><rect class="cls-42" y="571.3" width="1296" height="528.7"/><rect class="cls-42" y="574.2" width="1296" height="525.8"/><rect class="cls-42" y="577.1" width="1296" height="522.9"/><rect class="cls-42" y="580" width="1296" height="520"/><rect class="cls-42" y="582.9" width="1296" height="517.1"/><rect class="cls-43" y="585.8" width="1296" height="514.2"/><rect class="cls-43" y="588.7" width="1296" height="511.3"/><rect class="cls-43" y="591.6" width="1296" height="508.4"/><rect class="cls-43" y="594.5" width="1296" height="505.5"/><rect class="cls-43" y="597.4" width="1296" height="502.6"/><rect class="cls-44" y="600.3" width="1296" height="499.7"/><rect class="cls-44" y="603.2" width="1296" height="496.8"/><rect class="cls-45" y="606.1" width="1296" height="493.9"/><rect class="cls-45" y="609" width="1296" height="491"/><rect class="cls-45" y="611.9" width="1296" height="488.1"/><rect class="cls-45" y="614.8" width="1296" height="485.2"/><rect class="cls-45" y="617.7" width="1296" height="482.3"/><rect class="cls-45" y="620.6" width="1296" height="479.4"/><rect class="cls-45" y="623.5" width="1296" height="476.5"/><rect class="cls-46" y="626.4" width="1296" height="473.6"/><rect class="cls-46" y="629.3" width="1296" height="470.7"/><rect class="cls-46" y="632.2" width="1296" height="467.8"/><rect class="cls-47" y="635.1" width="1296" height="464.9"/><rect class="cls-47" y="638" width="1296" height="462"/><rect class="cls-47" y="640.9" width="1296" height="459.1"/><rect class="cls-47" y="643.8" width="1296" height="456.2"/><rect class="cls-48" y="646.7" width="1296" height="453.3"/><rect class="cls-48" y="649.6" width="1296" height="450.4"/><rect class="cls-48" y="652.5" width="1296" height="447.5"/><rect class="cls-48" y="655.4" width="1296" height="444.6"/><rect class="cls-48" y="658.3" width="1296" height="441.7"/><rect class="cls-48" y="661.2" width="1296" height="438.8"/><rect class="cls-48" y="664.1" width="1296" height="435.9"/><rect class="cls-49" y="667" width="1296" height="433"/><rect class="cls-50" y="669.9" width="1296" height="430.1"/><rect class="cls-50" y="672.8" width="1296" height="427.2"/><rect class="cls-50" y="675.7" width="1296" height="424.3"/><rect class="cls-50" y="678.6" width="1296" height="421.4"/><rect class="cls-50" y="681.5" width="1296" height="418.5"/><rect class="cls-50" y="684.4" width="1296" height="415.6"/><rect class="cls-51" y="687.3" width="1296" height="412.7"/><rect class="cls-51" y="690.2" width="1296" height="409.8"/><rect class="cls-51" y="693.1" width="1296" height="406.9"/><rect class="cls-51" y="696" width="1296" height="404"/><rect class="cls-51" y="698.9" width="1296" height="401.1"/><rect class="cls-51" y="701.8" width="1296" height="398.2"/><rect class="cls-52" y="704.7" width="1296" height="395.3"/><rect class="cls-52" y="707.6" width="1296" height="392.4"/><rect class="cls-52" y="710.5" width="1296" height="389.5"/><rect class="cls-52" y="713.4" width="1296" height="386.6"/><rect class="cls-52" y="716.3" width="1296" height="383.7"/><rect class="cls-52" y="719.2" width="1296" height="380.8"/><rect class="cls-52" y="722.1" width="1296" height="377.9"/><rect class="cls-53" y="725" width="1296" height="375"/><rect class="cls-53" y="727.9" width="1296" height="372.1"/><rect class="cls-53" y="730.8" width="1296" height="369.2"/><rect class="cls-53" y="733.7" width="1296" height="366.3"/><rect class="cls-53" y="736.6" width="1296" height="363.4"/><rect class="cls-54" y="739.5" width="1296" height="360.5"/><rect class="cls-54" y="742.4" width="1296" height="357.6"/><rect class="cls-55" y="745.3" width="1296" height="354.7"/><rect class="cls-55" y="748.2" width="1296" height="351.8"/><rect class="cls-55" y="751.1" width="1296" height="348.9"/><rect class="cls-55" y="754" width="1296" height="346"/><path class="cls-56" d="M280.06,309.22h0m-.38,0h0m.57,0h0m.16,0h0m.18,0h0m.16,0h0m-27.29-51.43c-3,0-7.25,1.6-8.57,4.33a8.46,8.46,0,0,0-1.62,8.4c1.78,4.84,5,5.81,8.24,8.55,1.42,1.21,5.28,2.2,8.74,2.2,4.41,0,8.17-1.61,5.46-6.4-4.84-8.55-8.55-13.23-9.36-15.82-.27-.86-1.41-1.26-2.89-1.26m80.27-9.14a2.47,2.47,0,0,0-2.48,1.25c-1.54,3.38-4.13,7.74-4.13,7.74s-1,3.33,3.11,3.33a10.06,10.06,0,0,0,1.26-.09c5.53-.72,7.49-8.31,8.79-9.11,1-.59-3.49-3.12-6.55-3.12m14.68-6.22a68.12,68.12,0,0,1-8.93,32.14,8.56,8.56,0,0,0-6.4-3c-2.41,0-4.13,1.23-3.27,3,2,4-32.56,18.17-29.46,30.35.11.41.23.79.36,1.16a68.46,68.46,0,0,1-19.95,3.22,68.52,68.52,0,0,0,67.65-66.79m0-.14v0m0-.29a2.72,2.72,0,0,0,0,.28,2.72,2.72,0,0,1,0-.28m0-.13v0m0-.15v0m0-.15v0m-137,0a68.53,68.53,0,0,0,68.29,67.67,69.85,69.85,0,0,1-7.13-.39c5.37-5,6.35-13,3.44-15.51-3.27-2.85-1.88-5.14-4.88-5.14a7.18,7.18,0,0,0-.88.05,49.16,49.16,0,0,1-5.34.29c-1.3,0-2.51,0-3.73-.1s-2.48-.09-3.88-.09a64.38,64.38,0,0,0-8.32.56,137.39,137.39,0,0,0-15.24,2.42,68.64,68.64,0,0,1-11.55-13.7,3.44,3.44,0,0,0,1.54-1.57c3.77-7.3,3.1-17.9-1.11-18.25-.86-.07-2.23-.16-3.84-.16a37.87,37.87,0,0,0-5.17.34,68.37,68.37,0,0,1-2.2-16.42m137-.11v0m-137,0v0m137-.11v0m0-.16v0m-137,0v0m137-.12v0m-137,0v0m137-.13v0m-137,0v0m0-.17h0v0m137,0v0h0m0-.11v0m-137,0v0m137-.11v0m-137,0v0m137-.1v0m-137,0v0m0-.12v0m0-.13v0m0-.14v0m0-.26c0,.08,0,.16,0,.25,0-.09,0-.17,0-.25m0-.13v0m0-.13v0m70.44-31c-1.55,0-2.71.2-3,.69a21.64,21.64,0,0,0-2.1,4.46s-1.31,3.15,2.75,8.39.53,3.54,2.23,8.66a2.2,2.2,0,0,0,2.28,1.6c3.74,0,10.4-5.83,10.59-9.32.25-4.48,3.81-11.3,0-12.48a55.7,55.7,0,0,0-12.7-2m-1.27-36.25a68.42,68.42,0,0,1,25.73,5.27c-3.56,1.2-4.94,4-2.18,12.87,5.21,16.74,19.61,45,30.61,45,.21,0,.41,0,.62,0,3.9-.39,8.19-3.93,11.58-8.91a69.73,69.73,0,0,1,1.5,14,68.52,68.52,0,0,0-67.86-68.16m-.33,0h0m-.6,0a68.52,68.52,0,0,0-68.24,67.25,68.1,68.1,0,0,1,7-29,5.73,5.73,0,0,0,2.61,1,6.88,6.88,0,0,0,5.6,3.3,8,8,0,0,0,3.44-.86c6-2.88,8.9-6,12.45-6,2.85,0-2.46-6.15-7.18-6.15a4.49,4.49,0,0,0-3.23,1.28,4.38,4.38,0,0,1-3,1.4c-2,0-3.81-1.7-5.3-2.94a68.57,68.57,0,0,1,10.9-12.17,8.53,8.53,0,0,0,7.42,4.4c8.63,0,19.49-3.76,21.92-5.53,2.08-1.52,10-10.6,7.69-15.44a69.19,69.19,0,0,1,7.93-.49m.49,0h0m-.37,0h0m.26,0h0m-.11,0h0"/><path class="cls-57" d="M279.79,309.22h0m.31,0h0m-.42,0h0m.58,0h0m.17,0h0m.16,0h0m.17,0h0m67.65-66.79h0m0-.15h0m0-.29h0m0-.14v0m0-.14h0m0-.16v0m-137,0v0m137-.12v0m-137,0v0m137-.12v0m0-.15v0m-137,0v0m137-.13v0m-137,0v0m137-.13v0m-137,0v0m137-.27v0m-137,0v0m137-.09v0m-137,0v0m137-.08v0m-137,0v0m0-.13v0m0-.11v0m0-.12h0m0-.27v0m0-.12h0m0-.12h0m69.17-67.25h0m-.34,0h0m-.58,0h0m.39,0h0m-.25,0h0m.12,0h0"/><path class="cls-58" d="M260.25,281.27c-3.46,0-7.32-1-8.74-2.2-3.23-2.74-6.46-3.71-8.24-8.55a8.46,8.46,0,0,1,1.62-8.4c1.32-2.73,5.61-4.33,8.57-4.33,1.48,0,2.62.4,2.89,1.26.81,2.59,4.52,7.27,9.36,15.82,2.71,4.79-1,6.4-5.46,6.4m70-20.3c-4.1,0-3.11-3.33-3.11-3.33s2.59-4.36,4.13-7.74a2.47,2.47,0,0,1,2.48-1.25c3.06,0,7.51,2.53,6.55,3.12-1.3.8-3.26,8.39-8.79,9.11a10.06,10.06,0,0,1-1.26.09M284,232.23a2.2,2.2,0,0,1-2.28-1.6c-1.7-5.12,1.84-3.41-2.23-8.66s-2.75-8.39-2.75-8.39a21.64,21.64,0,0,1,2.1-4.46c.34-.49,1.5-.69,3-.69a55.7,55.7,0,0,1,12.7,2c3.81,1.18.25,8,0,12.48-.19,3.49-6.85,9.32-10.59,9.32m-4-60h-.27a69.19,69.19,0,0,0-7.93.49c2.27,4.84-5.61,13.92-7.69,15.44-2.43,1.77-13.29,5.53-21.92,5.53a8.53,8.53,0,0,1-7.42-4.4,68.57,68.57,0,0,0-10.9,12.17c1.49,1.24,3.28,2.94,5.3,2.94a4.38,4.38,0,0,0,3-1.4,4.49,4.49,0,0,1,3.23-1.28c4.72,0,10,6.15,7.18,6.15-3.55,0-6.43,3.1-12.45,6a8,8,0,0,1-3.44.86,6.88,6.88,0,0,1-5.6-3.3,5.73,5.73,0,0,1-2.61-1,68.1,68.1,0,0,0-7,29h0v.12h0v.13c0,.08,0,.16,0,.25h0v.75h0v.85a68.37,68.37,0,0,0,2.2,16.42,37.87,37.87,0,0,1,5.17-.34c1.61,0,3,.09,3.84.16,4.21.35,4.88,10.95,1.11,18.25a3.44,3.44,0,0,1-1.54,1.57,68.64,68.64,0,0,0,11.55,13.7A137.39,137.39,0,0,1,249,288.89a64.38,64.38,0,0,1,8.32-.56c1.4,0,2.65,0,3.88.09s2.43.1,3.73.1a49.16,49.16,0,0,0,5.34-.29,7.18,7.18,0,0,1,.88-.05c3,0,1.61,2.29,4.88,5.14,2.91,2.55,1.93,10.49-3.44,15.51a69.85,69.85,0,0,0,7.13.39h1.08A68.46,68.46,0,0,0,300.71,306c-.13-.37-.25-.75-.36-1.16-3.1-12.18,31.46-26.36,29.46-30.35-.86-1.73.86-3,3.27-3a8.56,8.56,0,0,1,6.4,3,68.12,68.12,0,0,0,8.93-32.14h0v-.14h0a2.72,2.72,0,0,1,0-.28h0v-.27h0v-1h0v-.36a69.73,69.73,0,0,0-1.5-14c-3.39,5-7.68,8.52-11.58,8.91-.21,0-.41,0-.62,0-11,0-25.4-28.26-30.61-45-2.76-8.84-1.38-11.67,2.18-12.87a68.42,68.42,0,0,0-25.73-5.27h-.66"/></g></g></svg>