<?xml version="1.0" encoding="utf-8"?>
<!-- Generator: Adobe Illustrator 23.1.0, SVG Export Plug-In . SVG Version: 6.00 Build 0)  -->
<svg version="1.1" id="Layer_1" xmlns="http://www.w3.org/2000/svg" xmlns:xlink="http://www.w3.org/1999/xlink" x="0px" y="0px"
	 viewBox="0 0 1296 1100" style="enable-background:new 0 0 1296 1100;" xml:space="preserve">
<style type="text/css">
	.st0{fill:url(#SVGID_1_);stroke:#000000;stroke-miterlimit:10;}
	.st1{opacity:0.28;fill:#686868;enable-background:new    ;}
	.st2{opacity:0.28;fill:#939393;enable-background:new    ;}
	.st3{opacity:0.48;fill:#818181;enable-background:new    ;}
</style>
<linearGradient id="SVGID_1_" gradientUnits="userSpaceOnUse" x1="648" y1="1100" x2="648" y2="-9.094947e-13">
	<stop  offset="4.795011e-07" style="stop-color:#001726"/>
	<stop  offset="1" style="stop-color:#002C4B"/>
</linearGradient>
<rect class="st0" width="1296" height="1100"/>
<title>Night</title>
<g>
	<g id="Layer_1-2">
		<path class="st1" d="M280.1,309.2L280.1,309.2 M279.7,309.2L279.7,309.2 M280.3,309.2L280.3,309.2 M280.4,309.2L280.4,309.2
			 M280.6,309.2L280.6,309.2 M280.8,309.2L280.8,309.2 M253.5,257.8c-3,0-7.3,1.6-8.6,4.3c-2,2.3-2.6,5.5-1.6,8.4
			c1.8,4.8,5,5.8,8.2,8.5c1.4,1.2,5.3,2.2,8.7,2.2c4.4,0,8.2-1.6,5.5-6.4c-4.8-8.5-8.5-13.2-9.4-15.8
			C256.1,258.2,254.9,257.8,253.5,257.8 M333.7,248.6c-1-0.1-2,0.4-2.5,1.3c-1.5,3.4-4.1,7.7-4.1,7.7s-1,3.3,3.1,3.3
			c0.4,0,0.8,0,1.3-0.1c5.5-0.7,7.5-8.3,8.8-9.1C341.3,251.2,336.8,248.6,333.7,248.6 M348.4,242.4c-0.3,11.3-3.3,22.3-8.9,32.1
			c-1.6-1.9-3.9-3-6.4-3c-2.4,0-4.1,1.2-3.3,3c2,4-32.6,18.2-29.5,30.4c0.1,0.4,0.2,0.8,0.4,1.2c-6.5,2.1-13.2,3.1-20,3.2
			C317.6,308.8,347.5,279.3,348.4,242.4 M348.4,242.4L348.4,242.4 M348.4,242.1c0,0.1,0,0.2,0,0.3
			C348.4,242.3,348.4,242.2,348.4,242.1 M348.4,241.9L348.4,241.9 M348.4,241.8L348.4,241.8 M348.4,241.6L348.4,241.6 M211.4,241.6
			c0.5,37.4,30.9,67.5,68.3,67.7c-2.4,0-4.8-0.1-7.1-0.4c5.4-5,6.4-13,3.4-15.5c-3.3-2.9-1.9-5.1-4.9-5.1c-0.3,0-0.6,0-0.9,0
			c-1.8,0.2-3.6,0.3-5.3,0.3c-1.3,0-2.5,0-3.7-0.1s-2.5-0.1-3.9-0.1c-2.8,0-5.6,0.2-8.3,0.6c-5.1,0.5-10.2,1.3-15.2,2.4
			c-4.4-4-8.3-8.6-11.6-13.7c0.7-0.3,1.2-0.9,1.5-1.6c3.8-7.3,3.1-17.9-1.1-18.3c-0.9-0.1-2.2-0.2-3.8-0.2c-1.7,0-3.5,0.1-5.2,0.3
			C212.2,252.7,211.5,247.2,211.4,241.6 M348.4,241.5L348.4,241.5 M211.4,241.5L211.4,241.5 M348.4,241.4L348.4,241.4 M348.4,241.3
			L348.4,241.3 M211.4,241.3L211.4,241.3 M348.4,241.1L348.4,241.1 M211.4,241.1L211.4,241.1 M348.4,241L348.4,241 M211.4,241
			L211.4,241 M211.4,240.8L211.4,240.8L211.4,240.8 M348.4,240.8L348.4,240.8L348.4,240.8 M348.4,240.7L348.4,240.7 M211.4,240.7
			L211.4,240.7 M348.4,240.6L348.4,240.6 M211.4,240.6L211.4,240.6 M348.4,240.5L348.4,240.5 M211.4,240.5L211.4,240.5 M211.4,240.4
			L211.4,240.4 M211.4,240.3L211.4,240.3 M211.4,240.1L211.4,240.1 M211.4,239.9c0,0.1,0,0.2,0,0.3C211.4,240,211.4,240,211.4,239.9
			 M211.4,239.7L211.4,239.7 M211.4,239.6L211.4,239.6 M281.8,208.6c-1.5,0-2.7,0.2-3,0.7c-0.9,1.4-1.6,2.9-2.1,4.5
			c0,0-1.3,3.1,2.8,8.4s0.5,3.5,2.2,8.7c0.3,1,1.2,1.7,2.3,1.6c3.7,0,10.4-5.8,10.6-9.3c0.3-4.5,3.8-11.3,0-12.5
			C290.5,209.5,286.2,208.8,281.8,208.6 M280.6,172.4c8.8,0.1,17.6,1.9,25.7,5.3c-3.6,1.2-4.9,4-2.2,12.9c5.2,16.7,19.6,45,30.6,45
			c0.2,0,0.4,0,0.6,0c3.9-0.4,8.2-3.9,11.6-8.9c1,4.6,1.5,9.3,1.5,14C348.3,203.2,318.1,172.8,280.6,172.4 M280.3,172.4L280.3,172.4
			 M279.7,172.4c-37.2,0.1-67.5,30-68.2,67.3c0.2-10.1,2.6-20,7-29c0.8,0.5,1.7,0.9,2.6,1c1.2,2,3.3,3.2,5.6,3.3
			c1.2,0,2.4-0.3,3.4-0.9c6-2.9,8.9-6,12.4-6c2.9,0-2.5-6.1-7.2-6.1c-1.2,0-2.4,0.4-3.2,1.3c-0.8,0.8-1.9,1.3-3,1.4
			c-2,0-3.8-1.7-5.3-2.9c3.1-4.5,6.8-8.6,10.9-12.2c1.5,2.7,4.3,4.4,7.4,4.4c8.6,0,19.5-3.8,21.9-5.5c2.1-1.5,10-10.6,7.7-15.4
			C274.4,172.7,277.1,172.5,279.7,172.4 M280.2,172.5L280.2,172.5 M279.8,172.5L279.8,172.5 M280.1,172.5L280.1,172.5 M280,172.5
			L280,172.5"/>
		<path class="st2" d="M279.8,309.2L279.8,309.2 M280.1,309.2L280.1,309.2 M279.7,309.2L279.7,309.2 M280.3,309.2L280.3,309.2
			 M280.4,309.2L280.4,309.2 M280.6,309.2L280.6,309.2 M280.8,309.2L280.8,309.2 M348.4,242.4L348.4,242.4 M348.4,242.3L348.4,242.3
			 M348.4,242L348.4,242 M348.4,241.9L348.4,241.9 M348.4,241.7L348.4,241.7 M348.4,241.6L348.4,241.6 M211.4,241.6L211.4,241.6
			 M348.4,241.4L348.4,241.4 M211.4,241.4L211.4,241.4 M348.4,241.3L348.4,241.3 M348.4,241.2L348.4,241.2 M211.4,241.2L211.4,241.2
			 M348.4,241L348.4,241 M211.4,241L211.4,241 M348.4,240.9L348.4,240.9 M211.4,240.9L211.4,240.9 M348.4,240.6L348.4,240.6
			 M211.4,240.6L211.4,240.6 M348.4,240.5L348.4,240.5 M211.4,240.5L211.4,240.5 M348.4,240.5L348.4,240.5 M211.4,240.5L211.4,240.5
			 M211.4,240.3L211.4,240.3 M211.4,240.2L211.4,240.2 M211.4,240.1L211.4,240.1 M211.4,239.8L211.4,239.8 M211.4,239.7L211.4,239.7
			 M211.4,239.6L211.4,239.6 M280.6,172.3L280.6,172.3 M280.2,172.3L280.2,172.3 M279.7,172.3L279.7,172.3 M280.1,172.3L280.1,172.3
			 M279.8,172.3L279.8,172.3 M279.9,172.3L279.9,172.3"/>
		<path class="st3" d="M260.3,281.3c-3.5,0-7.3-1-8.7-2.2c-3.2-2.7-6.5-3.7-8.2-8.5c-1-2.9-0.4-6.1,1.6-8.4c1.3-2.7,5.6-4.3,8.6-4.3
			c1.5,0,2.6,0.4,2.9,1.3c0.8,2.6,4.5,7.3,9.4,15.8C268.4,279.7,264.7,281.3,260.3,281.3 M330.3,261c-4.1,0-3.1-3.3-3.1-3.3
			s2.6-4.4,4.1-7.7c0.5-0.9,1.5-1.4,2.5-1.3c3.1,0,7.5,2.5,6.5,3.1c-1.3,0.8-3.3,8.4-8.8,9.1C331.1,260.9,330.7,261,330.3,261
			 M284,232.2c-1,0.1-2-0.6-2.3-1.6c-1.7-5.1,1.8-3.4-2.2-8.7s-2.8-8.4-2.8-8.4c0.5-1.6,1.2-3.1,2.1-4.5c0.3-0.5,1.5-0.7,3-0.7
			c4.3,0.2,8.6,0.8,12.7,2c3.8,1.2,0.3,8,0,12.5C294.4,226.4,287.7,232.2,284,232.2 M280,172.2h-0.3c-2.7,0-5.3,0.2-7.9,0.5
			c2.3,4.8-5.6,13.9-7.7,15.4c-2.4,1.8-13.3,5.5-21.9,5.5c-3.1,0-5.9-1.7-7.4-4.4c-4.1,3.6-7.8,7.7-10.9,12.2
			c1.5,1.2,3.3,2.9,5.3,2.9c1.1-0.1,2.2-0.6,3-1.4c0.9-0.8,2-1.3,3.2-1.3c4.7,0,10,6.1,7.2,6.1c-3.6,0-6.4,3.1-12.4,6
			c-1.1,0.5-2.2,0.8-3.4,0.9c-2.3-0.1-4.4-1.3-5.6-3.3c-0.9-0.1-1.8-0.5-2.6-1c-4.4,9-6.8,18.9-7,29l0,0v0.1l0,0v0.1
			c0,0.1,0,0.2,0,0.3l0,0v0.8l0,0v0.9c0.1,5.5,0.8,11.1,2.2,16.4c1.7-0.2,3.4-0.3,5.2-0.3c1.6,0,3,0.1,3.8,0.2
			c4.2,0.4,4.9,11,1.1,18.3c-0.3,0.7-0.9,1.2-1.5,1.6c3.2,5.1,7.1,9.7,11.6,13.7c5-1.1,10.1-1.9,15.2-2.4c2.8-0.4,5.5-0.6,8.3-0.6
			c1.4,0,2.6,0,3.9,0.1s2.4,0.1,3.7,0.1c1.8,0,3.6-0.1,5.3-0.3c0.3,0,0.6-0.1,0.9,0c3,0,1.6,2.3,4.9,5.1c2.9,2.5,1.9,10.5-3.4,15.5
			c2.4,0.3,4.7,0.4,7.1,0.4h1.1c6.8-0.1,13.5-1.2,19.9-3.2c-0.1-0.4-0.3-0.8-0.4-1.2c-3.1-12.2,31.5-26.4,29.5-30.4
			c-0.9-1.7,0.9-3,3.3-3c2.5,0,4.8,1.1,6.4,3c5.6-9.8,8.7-20.9,8.9-32.1l0,0v-0.1l0,0c0-0.1,0-0.2,0-0.3l0,0v-0.3l0,0v-1l0,0v-0.4
			c0-4.7-0.5-9.4-1.5-14c-3.4,5-7.7,8.5-11.6,8.9c-0.2,0-0.4,0-0.6,0c-11,0-25.4-28.3-30.6-45c-2.8-8.8-1.4-11.7,2.2-12.9
			c-8.2-3.4-16.9-5.2-25.7-5.3h-0.7"/>
	</g>
</g>
</svg>
