<svg xmlns="http://www.w3.org/2000/svg" xmlns:xlink="http://www.w3.org/1999/xlink" viewBox="0 0 1296 1108.4"><defs><style>.cls-1{fill:none;}.cls-2{clip-path:url(#clip-path);}.cls-3{fill:#fb5a3b;}.cls-4{fill:#fb5c3b;}.cls-5{fill:#fb5e3b;}.cls-6{fill:#fb603b;}.cls-7{fill:#fb623b;}.cls-8{fill:#fb643b;}.cls-9{fill:#fb663b;}.cls-10{fill:#fb683b;}.cls-11{fill:#fb6a3b;}.cls-12{fill:#fb6c3b;}.cls-13{fill:#fb6e3b;}.cls-14{fill:#fb703b;}.cls-15{fill:#fb723b;}.cls-16{fill:#fb733b;}.cls-17{fill:#fb753b;}.cls-18{fill:#fb773b;}.cls-19{fill:#fb783b;}.cls-20{fill:#fb7a3b;}.cls-21{fill:#fb7b3b;}.cls-22{fill:#fb7d3b;}.cls-23{fill:#fb7e3b;}.cls-24{fill:#fb803b;}.cls-25{fill:#fb813b;}.cls-26{fill:#fb823b;}.cls-27{fill:#fb833b;}.cls-28{fill:#fb853b;}.cls-29{fill:#fb863b;}.cls-30{fill:#fb873b;}.cls-31{fill:#fb883b;}.cls-32{fill:#fb893b;}.cls-33{fill:#fb8a3b;}.cls-34{fill:#fb8b3b;}.cls-35{fill:#fb8c3b;}.cls-36{fill:#fa8c3b;}.cls-37{fill:#fa8c3c;}.cls-38{fill:#f98c3c;}.cls-39{fill:#f88b3d;}.cls-40{fill:#f78b3d;}.cls-41{fill:#f68b3e;}.cls-42{fill:#f58b3f;}.cls-43{fill:#f48a3f;}.cls-44{fill:#f38a40;}.cls-45{fill:#f28a41;}.cls-46{fill:#f18a41;}.cls-47{fill:#ef8942;}.cls-48{fill:#ee8943;}.cls-49{fill:#ed8944;}.cls-50{fill:#ec8845;}.cls-51{fill:#ea8845;}.cls-52{fill:#e98846;}.cls-53{fill:#e88747;}.cls-54{fill:#e68748;}.cls-55{fill:#e58749;}.cls-56{fill:#e4864a;}.cls-57{fill:#e2864a;}.cls-58{fill:#e1864b;}.cls-59{fill:#df854c;}.cls-60{fill:#de854d;}.cls-61{fill:#dd854e;}.cls-62{fill:#db844f;}.cls-63{fill:#da8450;}.cls-64{fill:#d88451;}.cls-65{fill:#d78352;}.cls-66{fill:#d58353;}.cls-67{fill:#d48354;}.cls-68{fill:#d28255;}.cls-69{fill:#d18255;}.cls-70{fill:#cf8256;}.cls-71{fill:#cd8157;}.cls-72{fill:#cc8158;}.cls-73{fill:#ca8059;}.cls-74{fill:#c9805a;}.cls-75{fill:#c7805b;}.cls-76{fill:#c57f5c;}.cls-77{fill:#c47f5d;}.cls-78{fill:#c27f5e;}.cls-79{fill:#c07e60;}.cls-80{fill:#bf7e61;}.cls-81{fill:#bd7d62;}.cls-82{fill:#bb7d63;}.cls-83{fill:#ba7d64;}.cls-84{fill:#b87c65;}.cls-85{fill:#b67c66;}.cls-86{fill:#b57b67;}.cls-87{fill:#b37b68;}.cls-88{fill:#b17a69;}.cls-89{fill:#af7a6a;}.cls-90{fill:#ae7a6b;}.cls-91{fill:#ac796c;}.cls-92{fill:#aa796d;}.cls-93{fill:#a8786f;}.cls-94{fill:#a67870;}.cls-95{fill:#a57871;}.cls-96{fill:#a37772;}.cls-97{fill:#a17773;}.cls-98{fill:#9f7674;}.cls-99{fill:#9d7675;}.cls-100{fill:#9c7576;}.cls-101{fill:#9a7578;}.cls-102{fill:#987579;}.cls-103{fill:#96747a;}.cls-104{fill:#94747b;}.cls-105{fill:#92737c;}.cls-106{fill:#91737d;}.cls-107{fill:#8f727f;}.cls-108{fill:#8d7280;}.cls-109{fill:#8b7181;}.cls-110{fill:#897182;}.cls-111{fill:#877183;}.cls-112{fill:#857084;}.cls-113{fill:#837086;}.cls-114{fill:#816f87;}.cls-115{fill:#7f6f88;}.cls-116{fill:#7e6e89;}.cls-117{fill:#7c6e8a;}.cls-118{fill:#7a6d8c;}.cls-119{fill:#786d8d;}.cls-120{fill:#766c8e;}.cls-121{fill:#746c8f;}.cls-122{fill:#726c90;}.cls-123{fill:#706b92;}.cls-124{fill:#6e6b93;}.cls-125{fill:#6c6a94;}.cls-126{fill:#6a6a95;}.cls-127{fill:#686997;}.cls-128{fill:#666998;}.cls-129{fill:#646899;}.cls-130{fill:#62689a;}.cls-131{fill:#60679c;}.cls-132{fill:#5e679d;}.cls-133{fill:#5c669e;}.cls-134{fill:#5a669f;}.cls-135{fill:#5865a1;}.cls-136{fill:#5665a2;}.cls-137{fill:#5464a3;}.cls-138{fill:#5264a5;}.cls-139{fill:#5063a6;}.cls-140{fill:#4e63a7;}.cls-141{fill:#4b62a8;}.cls-142{fill:#4962aa;}.cls-143{fill:#4761ab;}.cls-144{opacity:0;}.cls-145,.cls-146,.cls-147,.cls-148,.cls-149,.cls-150,.cls-151,.cls-152,.cls-153,.cls-154,.cls-155,.cls-156,.cls-157,.cls-158,.cls-159,.cls-160,.cls-161,.cls-162,.cls-163,.cls-164,.cls-165,.cls-166,.cls-167,.cls-168,.cls-169,.cls-170,.cls-171,.cls-172,.cls-173,.cls-174,.cls-175{fill:#fbe63b;}.cls-145{opacity:0.03;}.cls-146{opacity:0.06;}.cls-147{opacity:0.1;}.cls-148{opacity:0.13;}.cls-149{opacity:0.16;}.cls-150{opacity:0.19;}.cls-151{opacity:0.23;}.cls-152{opacity:0.26;}.cls-153{opacity:0.29;}.cls-154{opacity:0.32;}.cls-155{opacity:0.35;}.cls-156{opacity:0.39;}.cls-157{opacity:0.42;}.cls-158{opacity:0.45;}.cls-159{opacity:0.48;}.cls-160{opacity:0.52;}.cls-161{opacity:0.55;}.cls-162{opacity:0.58;}.cls-163{opacity:0.61;}.cls-164{opacity:0.65;}.cls-165{opacity:0.68;}.cls-166{opacity:0.71;}.cls-167{opacity:0.74;}.cls-168{opacity:0.77;}.cls-169{opacity:0.81;}.cls-170{opacity:0.84;}.cls-171{opacity:0.87;}.cls-172{opacity:0.9;}.cls-173{opacity:0.94;}.cls-174{opacity:0.97;}</style><clipPath id="clip-path"><rect class="cls-1" width="1296" height="1108.4"/></clipPath></defs><title>Sunset</title><g id="Layer_2" data-name="Layer 2"><g id="Layer_1-2" data-name="Layer 1"><g class="cls-2"><polygon class="cls-3" points="0 1105.03 398.53 1108.4 0 1108.4 0 1105.03"/><polygon class="cls-4" points="0 1098.7 1145.4 1108.4 398.53 1108.4 0 1105.03 0 1098.7"/><polygon class="cls-5" points="0 1092.38 1296 1103.35 1296 1108.4 1145.4 1108.4 0 1098.7 0 1092.38"/><polygon class="cls-6" points="0 1086.06 1296 1097.03 1296 1103.35 0 1092.38 0 1086.06"/><polygon class="cls-7" points="0 1079.74 1296 1090.71 1296 1097.03 0 1086.06 0 1079.74"/><polygon class="cls-8" points="0 1073.42 1296 1084.39 1296 1090.71 0 1079.74 0 1073.42"/><polygon class="cls-9" points="0 1067.1 1296 1078.07 1296 1084.39 0 1073.42 0 1067.1"/><polygon class="cls-10" points="0 1060.78 1296 1071.75 1296 1078.07 0 1067.1 0 1060.78"/><polygon class="cls-11" points="0 1054.46 1296 1065.42 1296 1071.75 0 1060.78 0 1054.46"/><polygon class="cls-12" points="0 1048.13 1296 1059.1 1296 1065.42 0 1054.46 0 1048.13"/><polygon class="cls-13" points="0 1041.81 1296 1052.78 1296 1059.1 0 1048.13 0 1041.81"/><polygon class="cls-14" points="0 1035.49 1296 1046.46 1296 1052.78 0 1041.81 0 1035.49"/><polygon class="cls-15" points="0 1029.17 1296 1040.14 1296 1046.46 0 1035.49 0 1029.17"/><polygon class="cls-16" points="0 1022.85 1296 1033.82 1296 1040.14 0 1029.17 0 1022.85"/><polygon class="cls-17" points="0 1016.53 1296 1027.5 1296 1033.82 0 1022.85 0 1016.53"/><polygon class="cls-18" points="0 1010.21 1296 1021.18 1296 1027.5 0 1016.53 0 1010.21"/><polygon class="cls-19" points="0 1003.89 1296 1014.86 1296 1021.18 0 1010.21 0 1003.89"/><polygon class="cls-20" points="0 997.57 1296 1008.53 1296 1014.86 0 1003.89 0 997.57"/><polygon class="cls-21" points="0 991.24 1296 1002.21 1296 1008.53 0 997.57 0 991.24"/><polygon class="cls-22" points="0 984.92 1296 995.89 1296 1002.21 0 991.24 0 984.92"/><polygon class="cls-23" points="0 978.6 1296 989.57 1296 995.89 0 984.92 0 978.6"/><polygon class="cls-24" points="0 972.28 1296 983.25 1296 989.57 0 978.6 0 972.28"/><polygon class="cls-25" points="0 965.96 1296 976.93 1296 983.25 0 972.28 0 965.96"/><polygon class="cls-26" points="0 959.64 1296 970.61 1296 976.93 0 965.96 0 959.64"/><polygon class="cls-27" points="0 953.32 1296 964.29 1296 970.61 0 959.64 0 953.32"/><polygon class="cls-28" points="0 947 1296 957.97 1296 964.29 0 953.32 0 947"/><polygon class="cls-29" points="0 940.67 1296 951.64 1296 957.97 0 947 0 940.67"/><polygon class="cls-30" points="0 934.35 1296 945.32 1296 951.64 0 940.67 0 934.35"/><polygon class="cls-31" points="0 928.03 1296 939 1296 945.32 0 934.35 0 928.03"/><polygon class="cls-32" points="0 921.71 1296 932.68 1296 939 0 928.03 0 921.71"/><polygon class="cls-32" points="0 915.39 1296 926.36 1296 932.68 0 921.71 0 915.39"/><polygon class="cls-33" points="0 909.07 1296 920.04 1296 926.36 0 915.39 0 909.07"/><polygon class="cls-34" points="0 902.75 1296 913.72 1296 920.04 0 909.07 0 902.75"/><polygon class="cls-34" points="0 896.43 1296 907.4 1296 913.72 0 902.75 0 896.43"/><polygon class="cls-35" points="0 890.11 1296 901.08 1296 907.4 0 896.43 0 890.11"/><polygon class="cls-35" points="0 883.78 1296 894.75 1296 901.08 0 890.11 0 883.78"/><polygon class="cls-35" points="0 875.57 1296 886.54 1296 894.75 0 883.78 0 875.57"/><polygon class="cls-36" points="0 867.35 1296 878.32 1296 886.54 0 875.57 0 867.35"/><polygon class="cls-37" points="0 859.14 1296 870.11 1296 878.32 0 867.35 0 859.14"/><polygon class="cls-38" points="0 850.92 1296 861.89 1296 870.11 0 859.14 0 850.92"/><polygon class="cls-39" points="0 842.7 1296 853.67 1296 861.89 0 850.92 0 842.7"/><polygon class="cls-40" points="0 834.49 1296 845.46 1296 853.67 0 842.7 0 834.49"/><polygon class="cls-41" points="0 826.27 1296 837.24 1296 845.46 0 834.49 0 826.27"/><polygon class="cls-42" points="0 818.05 1296 829.02 1296 837.24 0 826.27 0 818.05"/><polygon class="cls-43" points="0 809.84 1296 820.81 1296 829.02 0 818.05 0 809.84"/><polygon class="cls-44" points="0 801.62 1296 812.59 1296 820.81 0 809.84 0 801.62"/><polygon class="cls-45" points="0 793.41 1296 804.37 1296 812.59 0 801.62 0 793.41"/><polygon class="cls-46" points="0 785.19 1296 796.16 1296 804.37 0 793.41 0 785.19"/><polygon class="cls-47" points="0 776.97 1296 787.94 1296 796.16 0 785.19 0 776.97"/><polygon class="cls-48" points="0 768.76 1296 779.73 1296 787.94 0 776.97 0 768.76"/><polygon class="cls-49" points="0 760.54 1296 771.51 1296 779.73 0 768.76 0 760.54"/><polygon class="cls-50" points="0 752.32 1296 763.29 1296 771.51 0 760.54 0 752.32"/><polygon class="cls-51" points="0 744.11 1296 755.08 1296 763.29 0 752.32 0 744.11"/><polygon class="cls-52" points="0 735.89 1296 746.86 1296 755.08 0 744.11 0 735.89"/><polygon class="cls-53" points="0 727.67 1296 738.64 1296 746.86 0 735.89 0 727.67"/><polygon class="cls-54" points="0 719.46 1296 730.43 1296 738.64 0 727.67 0 719.46"/><polygon class="cls-55" points="0 711.24 1296 722.21 1296 730.43 0 719.46 0 711.24"/><polygon class="cls-56" points="0 703.03 1296 714 1296 722.21 0 711.24 0 703.03"/><polygon class="cls-57" points="0 694.81 1296 705.78 1296 714 0 703.03 0 694.81"/><polygon class="cls-58" points="0 686.59 1296 697.56 1296 705.78 0 694.81 0 686.59"/><polygon class="cls-59" points="0 678.38 1296 689.35 1296 697.56 0 686.59 0 678.38"/><polygon class="cls-60" points="0 670.16 1296 681.13 1296 689.35 0 678.38 0 670.16"/><polygon class="cls-61" points="0 661.95 1296 672.91 1296 681.13 0 670.16 0 661.95"/><polygon class="cls-62" points="0 653.73 1296 664.7 1296 672.91 0 661.95 0 653.73"/><polygon class="cls-63" points="0 645.51 1296 656.48 1296 664.7 0 653.73 0 645.51"/><polygon class="cls-64" points="0 637.3 1296 648.26 1296 656.48 0 645.51 0 637.3"/><polygon class="cls-65" points="0 629.08 1296 640.05 1296 648.26 0 637.3 0 629.08"/><polygon class="cls-66" points="0 620.86 1296 631.83 1296 640.05 0 629.08 0 620.86"/><polygon class="cls-67" points="0 612.65 1296 623.62 1296 631.83 0 620.86 0 612.65"/><polygon class="cls-68" points="0 604.43 1296 615.4 1296 623.62 0 612.65 0 604.43"/><polygon class="cls-69" points="0 596.22 1296 607.18 1296 615.4 0 604.43 0 596.22"/><polygon class="cls-70" points="0 588 1296 598.97 1296 607.18 0 596.22 0 588"/><polygon class="cls-71" points="0 579.78 1296 590.75 1296 598.97 0 588 0 579.78"/><polygon class="cls-72" points="0 571.57 1296 582.53 1296 590.75 0 579.78 0 571.57"/><polygon class="cls-73" points="0 563.35 1296 574.32 1296 582.53 0 571.57 0 563.35"/><polygon class="cls-74" points="0 555.13 1296 566.1 1296 574.32 0 563.35 0 555.13"/><polygon class="cls-75" points="0 546.92 1296 557.89 1296 566.1 0 555.13 0 546.92"/><polygon class="cls-76" points="0 538.7 1296 549.67 1296 557.89 0 546.92 0 538.7"/><polygon class="cls-77" points="0 530.48 1296 541.45 1296 549.67 0 538.7 0 530.48"/><polygon class="cls-78" points="0 522.27 1296 533.24 1296 541.45 0 530.48 0 522.27"/><polygon class="cls-79" points="0 514.05 1296 525.02 1296 533.24 0 522.27 0 514.05"/><polygon class="cls-80" points="0 505.84 1296 516.8 1296 525.02 0 514.05 0 505.84"/><polygon class="cls-81" points="0 497.62 1296 508.59 1296 516.8 0 505.84 0 497.62"/><polygon class="cls-82" points="0 489.4 1296 500.37 1296 508.59 0 497.62 0 489.4"/><polygon class="cls-83" points="0 481.19 1296 492.15 1296 500.37 0 489.4 0 481.19"/><polygon class="cls-84" points="0 472.97 1296 483.94 1296 492.15 0 481.19 0 472.97"/><polygon class="cls-85" points="0 464.75 1296 475.72 1296 483.94 0 472.97 0 464.75"/><polygon class="cls-86" points="0 456.54 1296 467.51 1296 475.72 0 464.75 0 456.54"/><polygon class="cls-87" points="0 448.32 1296 459.29 1296 467.51 0 456.54 0 448.32"/><polygon class="cls-88" points="0 440.11 1296 451.07 1296 459.29 0 448.32 0 440.11"/><polygon class="cls-89" points="0 431.89 1296 442.86 1296 451.07 0 440.11 0 431.89"/><polygon class="cls-90" points="0 423.67 1296 434.64 1296 442.86 0 431.89 0 423.67"/><polygon class="cls-91" points="0 415.46 1296 426.43 1296 434.64 0 423.67 0 415.46"/><polygon class="cls-92" points="0 407.24 1296 418.21 1296 426.43 0 415.46 0 407.24"/><polygon class="cls-93" points="0 399.02 1296 409.99 1296 418.21 0 407.24 0 399.02"/><polygon class="cls-94" points="0 390.81 1296 401.78 1296 409.99 0 399.02 0 390.81"/><polygon class="cls-95" points="0 382.59 1296 393.56 1296 401.78 0 390.81 0 382.59"/><polygon class="cls-96" points="0 374.38 1296 385.34 1296 393.56 0 382.59 0 374.38"/><polygon class="cls-97" points="0 366.16 1296 377.13 1296 385.34 0 374.38 0 366.16"/><polygon class="cls-98" points="0 357.94 1296 368.91 1296 377.13 0 366.16 0 357.94"/><polygon class="cls-99" points="0 349.73 1296 360.69 1296 368.91 0 357.94 0 349.73"/><polygon class="cls-100" points="0 341.51 1296 352.48 1296 360.69 0 349.73 0 341.51"/><polygon class="cls-101" points="0 333.29 1296 344.26 1296 352.48 0 341.51 0 333.29"/><polygon class="cls-102" points="0 325.08 1296 336.05 1296 344.26 0 333.29 0 325.08"/><polygon class="cls-103" points="0 316.86 1296 327.83 1296 336.05 0 325.08 0 316.86"/><polygon class="cls-104" points="0 308.64 1296 319.61 1296 327.83 0 316.86 0 308.64"/><polygon class="cls-105" points="0 300.43 1296 311.4 1296 319.61 0 308.64 0 300.43"/><polygon class="cls-106" points="0 292.21 1296 303.18 1296 311.4 0 300.43 0 292.21"/><polygon class="cls-107" points="0 284 1296 294.96 1296 303.18 0 292.21 0 284"/><polygon class="cls-108" points="0 275.78 1296 286.75 1296 294.96 0 284 0 275.78"/><polygon class="cls-109" points="0 267.56 1296 278.53 1296 286.75 0 275.78 0 267.56"/><polygon class="cls-110" points="0 259.35 1296 270.32 1296 278.53 0 267.56 0 259.35"/><polygon class="cls-111" points="0 251.13 1296 262.1 1296 270.32 0 259.35 0 251.13"/><polygon class="cls-112" points="0 242.91 1296 253.88 1296 262.1 0 251.13 0 242.91"/><polygon class="cls-113" points="0 234.7 1296 245.67 1296 253.88 0 242.91 0 234.7"/><polygon class="cls-114" points="0 226.48 1296 237.45 1296 245.67 0 234.7 0 226.48"/><polygon class="cls-115" points="0 218.26 1296 229.23 1296 237.45 0 226.48 0 218.26"/><polygon class="cls-116" points="0 210.05 1296 221.02 1296 229.23 0 218.26 0 210.05"/><polygon class="cls-117" points="0 201.83 1296 212.8 1296 221.02 0 210.05 0 201.83"/><polygon class="cls-118" points="0 193.62 1296 204.59 1296 212.8 0 201.83 0 193.62"/><polygon class="cls-119" points="0 185.4 1296 196.37 1296 204.59 0 193.62 0 185.4"/><polygon class="cls-120" points="0 177.18 1296 188.15 1296 196.37 0 185.4 0 177.18"/><polygon class="cls-121" points="0 168.97 1296 179.94 1296 188.15 0 177.18 0 168.97"/><polygon class="cls-122" points="0 160.75 1296 171.72 1296 179.94 0 168.97 0 160.75"/><polygon class="cls-123" points="0 152.53 1296 163.5 1296 171.72 0 160.75 0 152.53"/><polygon class="cls-124" points="0 144.32 1296 155.29 1296 163.5 0 152.53 0 144.32"/><polygon class="cls-125" points="0 136.1 1296 147.07 1296 155.29 0 144.32 0 136.1"/><polygon class="cls-126" points="0 127.89 1296 138.85 1296 147.07 0 136.1 0 127.89"/><polygon class="cls-127" points="0 119.67 1296 130.64 1296 138.85 0 127.89 0 119.67"/><polygon class="cls-128" points="0 111.45 1296 122.42 1296 130.64 0 119.67 0 111.45"/><polygon class="cls-129" points="0 103.24 1296 114.21 1296 122.42 0 111.45 0 103.24"/><polygon class="cls-130" points="0 95.02 1296 105.99 1296 114.21 0 103.24 0 95.02"/><polygon class="cls-131" points="0 86.81 1296 97.77 1296 105.99 0 95.02 0 86.81"/><polygon class="cls-132" points="0 78.59 1296 89.56 1296 97.77 0 86.81 0 78.59"/><polygon class="cls-133" points="0 70.37 1296 81.34 1296 89.56 0 78.59 0 70.37"/><polygon class="cls-134" points="0 62.16 1296 73.13 1296 81.34 0 70.37 0 62.16"/><polygon class="cls-135" points="0 53.94 1296 64.91 1296 73.13 0 62.16 0 53.94"/><polygon class="cls-136" points="0 45.72 1296 56.69 1296 64.91 0 53.94 0 45.72"/><polygon class="cls-137" points="0 37.51 1296 48.48 1296 56.69 0 45.72 0 37.51"/><polygon class="cls-138" points="0 29.29 1296 40.26 1296 48.48 0 37.51 0 29.29"/><polygon class="cls-139" points="0 21.07 1296 32.04 1296 40.26 0 29.29 0 21.07"/><polygon class="cls-140" points="0 12.86 1296 23.83 1296 32.04 0 21.07 0 12.86"/><polygon class="cls-141" points="0 4.64 1296 15.61 1296 23.83 0 12.86 0 4.64"/><polygon class="cls-142" points="422.32 0 1296 7.39 1296 15.61 0 4.64 0 0 422.32 0"/><polygon class="cls-143" points="1296 7.39 422.32 0 1296 0 1296 7.39"/></g><path class="cls-144" d="M1024,701.42A141.58,141.58,0,1,1,1165.6,559.85,141.57,141.57,0,0,1,1024,701.42m0-286a144.4,144.4,0,1,0,144.4,144.4A144.4,144.4,0,0,0,1024,415.45"/><path class="cls-145" d="M1024,698.6a138.75,138.75,0,1,1,138.75-138.75A138.75,138.75,0,0,1,1024,698.6m0-280.33A141.58,141.58,0,1,0,1165.6,559.85,141.58,141.58,0,0,0,1024,418.27"/><path class="cls-146" d="M1024,695.77a135.93,135.93,0,1,1,135.92-135.92A135.92,135.92,0,0,1,1024,695.77m0-274.67a138.75,138.75,0,1,0,138.75,138.75A138.75,138.75,0,0,0,1024,421.1"/><path class="cls-147" d="M1024,693a133.1,133.1,0,1,1,133.1-133.1A133.1,133.1,0,0,1,1024,693m0-269a135.93,135.93,0,1,0,135.92,135.93A135.93,135.93,0,0,0,1024,423.92"/><path class="cls-148" d="M1024,690.12a130.28,130.28,0,1,1,130.27-130.27A130.27,130.27,0,0,1,1024,690.12m0-263.37a133.1,133.1,0,1,0,133.1,133.1A133.1,133.1,0,0,0,1024,426.75"/><path class="cls-149" d="M1024,687.3a127.45,127.45,0,1,1,127.45-127.45A127.45,127.45,0,0,1,1024,687.3m0-257.73a130.28,130.28,0,1,0,130.27,130.28A130.28,130.28,0,0,0,1024,429.57"/><path class="cls-150" d="M1024,684.47a124.63,124.63,0,1,1,124.62-124.62A124.62,124.62,0,0,1,1024,684.47m0-252.07a127.45,127.45,0,1,0,127.45,127.45A127.45,127.45,0,0,0,1024,432.4"/><path class="cls-151" d="M1024,681.65a121.8,121.8,0,1,1,121.8-121.8A121.8,121.8,0,0,1,1024,681.65m0-246.43a124.63,124.63,0,1,0,124.62,124.63A124.63,124.63,0,0,0,1024,435.22"/><path class="cls-152" d="M1024,678.82a119,119,0,1,1,119-119,119,119,0,0,1-119,119m0-240.77a121.8,121.8,0,1,0,121.8,121.8A121.8,121.8,0,0,0,1024,438.05"/><path class="cls-153" d="M1024,676a116.15,116.15,0,1,1,116.15-116.15A116.15,116.15,0,0,1,1024,676m0-235.13a119,119,0,1,0,119,119,119,119,0,0,0-119-119"/><path class="cls-154" d="M1024,673.17a113.32,113.32,0,1,1,113.32-113.32A113.32,113.32,0,0,1,1024,673.17m0-229.47a116.15,116.15,0,1,0,116.15,116.15A116.15,116.15,0,0,0,1024,443.7"/><path class="cls-155" d="M1024,670.35a110.5,110.5,0,1,1,110.5-110.5A110.5,110.5,0,0,1,1024,670.35m0-223.82a113.32,113.32,0,1,0,113.32,113.32A113.31,113.31,0,0,0,1024,446.53"/><path class="cls-156" d="M1024,667.52a107.67,107.67,0,1,1,107.67-107.67A107.67,107.67,0,0,1,1024,667.52m0-218.17a110.5,110.5,0,1,0,110.5,110.5A110.5,110.5,0,0,0,1024,449.35"/><path class="cls-157" d="M1024,664.69a104.85,104.85,0,1,1,104.85-104.84A104.84,104.84,0,0,1,1024,664.69m0-212.51a107.67,107.67,0,1,0,107.67,107.67A107.66,107.66,0,0,0,1024,452.18"/><path class="cls-158" d="M1024,661.87a102,102,0,1,1,102-102,102,102,0,0,1-102,102M1024,455a104.85,104.85,0,1,0,104.85,104.85A104.85,104.85,0,0,0,1024,455"/><path class="cls-159" d="M1024,659a99.2,99.2,0,1,1,99.19-99.19A99.19,99.19,0,0,1,1024,659m0-201.21a102,102,0,1,0,102,102,102,102,0,0,0-102-102"/><path class="cls-160" d="M1024,656.22a96.37,96.37,0,1,1,96.37-96.37A96.37,96.37,0,0,1,1024,656.22m0-195.57a99.2,99.2,0,1,0,99.19,99.2,99.2,99.2,0,0,0-99.19-99.2"/><path class="cls-161" d="M1024,653.39a93.55,93.55,0,1,1,93.54-93.54A93.55,93.55,0,0,1,1024,653.39m0-189.91a96.37,96.37,0,1,0,96.37,96.37A96.36,96.36,0,0,0,1024,463.48"/><path class="cls-162" d="M1024,650.57a90.72,90.72,0,1,1,90.72-90.72A90.72,90.72,0,0,1,1024,650.57m0-184.27a93.55,93.55,0,1,0,93.54,93.55A93.55,93.55,0,0,0,1024,466.3"/><path class="cls-163" d="M1024,647.74a87.9,87.9,0,1,1,87.89-87.89A87.89,87.89,0,0,1,1024,647.74m0-178.61a90.72,90.72,0,1,0,90.72,90.72A90.72,90.72,0,0,0,1024,469.13"/><path class="cls-164" d="M1024,644.92a85.07,85.07,0,1,1,85.07-85.07A85.07,85.07,0,0,1,1024,644.92m0-173a87.9,87.9,0,1,0,87.89,87.9A87.9,87.9,0,0,0,1024,472"/><path class="cls-165" d="M1024,642.09a82.24,82.24,0,1,1,82.24-82.24A82.24,82.24,0,0,1,1024,642.09m0-167.31a85.07,85.07,0,1,0,85.07,85.07A85.07,85.07,0,0,0,1024,474.78"/><path class="cls-166" d="M1024,639.27a79.42,79.42,0,1,1,79.42-79.42A79.42,79.42,0,0,1,1024,639.27m0-161.66a82.24,82.24,0,1,0,82.24,82.24A82.24,82.24,0,0,0,1024,477.61"/><path class="cls-167" d="M1024,636.44a76.59,76.59,0,1,1,76.59-76.59A76.59,76.59,0,0,1,1024,636.44m0-156a79.42,79.42,0,1,0,79.42,79.42A79.42,79.42,0,0,0,1024,480.43"/><path class="cls-168" d="M1024,633.62a73.77,73.77,0,1,1,73.77-73.77A73.77,73.77,0,0,1,1024,633.62m0-150.36a76.59,76.59,0,1,0,76.59,76.59A76.59,76.59,0,0,0,1024,483.26"/><path class="cls-169" d="M1024,630.79A70.94,70.94,0,1,1,1095,559.85,70.94,70.94,0,0,1,1024,630.79m0-144.71a73.77,73.77,0,1,0,73.77,73.77A73.77,73.77,0,0,0,1024,486.08"/><path class="cls-170" d="M1024,628a68.12,68.12,0,1,1,68.11-68.11A68.11,68.11,0,0,1,1024,628m0-139A70.94,70.94,0,1,0,1095,559.85,70.94,70.94,0,0,0,1024,488.91"/><path class="cls-171" d="M1024,625.14a65.29,65.29,0,1,1,65.29-65.29A65.29,65.29,0,0,1,1024,625.14m0-133.41a68.12,68.12,0,1,0,68.11,68.12A68.12,68.12,0,0,0,1024,491.73"/><path class="cls-172" d="M1024,622.31a62.47,62.47,0,1,1,62.46-62.46A62.46,62.46,0,0,1,1024,622.31m0-127.75a65.29,65.29,0,1,0,65.29,65.29A65.29,65.29,0,0,0,1024,494.56"/><path class="cls-173" d="M1024,619.49a59.64,59.64,0,1,1,59.64-59.64A59.64,59.64,0,0,1,1024,619.49m0-122.11a62.47,62.47,0,1,0,62.46,62.47A62.47,62.47,0,0,0,1024,497.38"/><path class="cls-174" d="M1024,616.66a56.82,56.82,0,1,1,56.81-56.81A56.81,56.81,0,0,1,1024,616.66m0-116.45a59.64,59.64,0,1,0,59.64,59.64A59.64,59.64,0,0,0,1024,500.21"/><path class="cls-175" d="M1024,503a56.82,56.82,0,1,0,56.81,56.82A56.82,56.82,0,0,0,1024,503"/></g></g></svg>